0
SECTION
2
HEADER
9
$INSUNITS
70
4
9
$ACADVER
1
AC1014
9
$HANDSEED
5
FFFF
0
ENDSEC
0
SECTION
2
TABLES
0
TABLE
2
VPORT
5
8
100
AcDbSymbolTable
0
ENDTAB
0
TABLE
2
LTYPE
5
5
100
AcDbSymbolTable
0
LTYPE
5
14
100
AcDbSymbolTableRecord
100
AcDbLinetypeTableRecord
2
BYBLOCK
70
0
0
LTYPE
5
15
100
AcDbSymbolTableRecord
100
AcDbLinetypeTableRecord
2
BYLAYER
70
0
0
ENDTAB
0
TABLE
2
LAYER
5
2
100
AcDbSymbolTable
70
2
0
LAYER
5
50
100
AcDbSymbolTableRecord
100
AcDbLayerTableRecord
2
0
70
0
6
CONTINUOUS
0
ENDTAB
0
TABLE
2
STYLE
5
3
100
AcDbSymbolTable
70
1
0
STYLE
5
11
100
AcDbSymbolTableRecord
100
AcDbTextStyleTableRecord
2
STANDARD
70
0
0
ENDTAB
0
TABLE
2
VIEW
5
6
100
AcDbSymbolTable
70
0
0
ENDTAB
0
TABLE
2
UCS
5
7
100
AcDbSymbolTable
70
0
0
ENDTAB
0
TABLE
2
APPID
5
9
100
AcDbSymbolTable
70
2
0
APPID
5
12
100
AcDbSymbolTableRecord
100
AcDbRegAppTableRecord
2
ACAD
70
0
0
ENDTAB
0
TABLE
2
DIMSTYLE
5
A
100
AcDbSymbolTable
70
1
0
ENDTAB
0
TABLE
2
BLOCK_RECORD
5
1
100
AcDbSymbolTable
70
1
0
BLOCK_RECORD
5
1F
100
AcDbSymbolTableRecord
100
AcDbBlockTableRecord
2
*MODEL_SPACE
0
BLOCK_RECORD
5
1B
100
AcDbSymbolTableRecord
100
AcDbBlockTableRecord
2
*PAPER_SPACE
0
ENDTAB
0
ENDSEC
0
SECTION
2
BLOCKS
0
BLOCK
5
20
100
AcDbEntity
100
AcDbBlockBegin
2
*MODEL_SPACE
0
ENDBLK
5
21
100
AcDbEntity
100
AcDbBlockEnd
0
BLOCK
5
1C
100
AcDbEntity
100
AcDbBlockBegin
2
*PAPER_SPACE
0
ENDBLK
5
1D
100
AcDbEntity
100
AcDbBlockEnd
0
ENDSEC
0
SECTION
2
ENTITIES
0
ARC
5
100
100
AcDbEntity
8
0
100
AcDbCircle
10
-2.8954365785053762
20
79.850000000000009
30
0
40
6.3500000000000245
210
0
220
0
230
1
100
AcDbArc
50
90.000000000000185
51
179.55409008020075
0
LINE
5
101
100
AcDbEntity
8
0
100
AcDbLine
10
-9.245244273521223
20
79.899418987422223
30
0
11
-9.8951041823488914
21
-3.6005810125777682
31
0
0
ARC
5
102
100
AcDbEntity
8
0
100
AcDbCircle
10
-3.5452964873330677
20
-3.6500000000000021
30
0
40
6.3499999999999996
210
0
220
0
230
1
100
AcDbArc
50
179.55409008020075
51
270
0
LINE
5
103
100
AcDbEntity
8
0
100
AcDbLine
10
-3.5452964873330677
20
-10
30
0
11
25.129997459027305
21
-10
31
0
0
ARC
5
104
100
AcDbEntity
8
0
100
AcDbCircle
10
25.129997459027294
20
-3.6499999999999688
30
0
40
6.3500000000000316
210
-0
220
0
230
1
100
AcDbArc
50
270.00000000000011
51
300.71282771515888
0
LINE
5
105
100
AcDbEntity
8
0
100
AcDbLine
10
28.373167337191791
20
-9.1093359615768783
30
0
11
30.424598407833948
21
-7.8906640384231181
31
0
0
ARC
5
106
100
AcDbEntity
8
0
100
AcDbCircle
10
33.667768285998434
20
-13.350000000000001
30
0
40
6.3500000000000023
210
0
220
-0
230
1
100
AcDbArc
50
90
51
120.71282771515887
0
LINE
5
107
100
AcDbEntity
8
0
100
AcDbLine
10
33.667768285998434
20
-7
30
0
11
43.722137563679922
21
-7.0000000000000018
31
0
0
ARC
5
108
100
AcDbEntity
8
0
100
AcDbCircle
10
43.722137563679922
20
-0.64999999999999392
30
0
40
6.3500000000000076
210
0
220
0
230
1
100
AcDbArc
50
270
51
314.71494872241612
0
LINE
5
109
100
AcDbEntity
8
0
100
AcDbLine
10
48.189871386615039
20
-5.1624111611644707
30
0
11
49.527941932167238
21
-3.8375888388355395
31
0
0
ARC
5
110
100
AcDbEntity
8
0
100
AcDbCircle
10
53.995675755102333
20
-8.3499999999999925
30
0
40
6.349999999999989
210
0
220
-0
230
1
100
AcDbArc
50
89.999999999999929
51
134.71494872241612
0
LINE
5
111
100
AcDbEntity
8
0
100
AcDbLine
10
53.99567575510234
20
-2.000000000000004
30
0
11
59.79858329895491
21
-2.000000000000004
31
0
0
ARC
5
112
100
AcDbEntity
8
0
100
AcDbCircle
10
59.79858329895491
20
-8.3500000000000103
30
0
40
6.3500000000000068
210
0
220
-0
230
1
100
AcDbArc
50
40.086201237625474
51
90
0
LINE
5
113
100
AcDbEntity
8
0
100
AcDbLine
10
64.656819108870735
20
-4.2609848599874933
30
0
11
65.900827927891797
21
-5.7390151400125173
31
0
0
ARC
5
114
100
AcDbEntity
8
0
100
AcDbCircle
10
70.759063737807622
20
-1.6500000000000026
30
0
40
6.350000000000005
210
0
220
0
230
1
100
AcDbArc
50
220.08620123762546
51
270
0
LINE
5
115
100
AcDbEntity
8
0
100
AcDbLine
10
70.759063737807622
20
-8.0000000000000089
30
0
11
79.354324244897697
21
-8.0000000000000053
31
0
0
ARC
5
116
100
AcDbEntity
8
0
100
AcDbCircle
10
79.354324244897668
20
-14.35000000000003
30
0
40
6.3500000000000245
210
0
220
-0
230
1
100
AcDbArc
50
45.285051277584131
51
89.999999999999744
0
LINE
5
117
100
AcDbEntity
8
0
100
AcDbLine
10
83.822058067832771
20
-9.8375888388355293
30
0
11
85.160128613385041
21
-11.162411161164496
31
0
0
ARC
5
118
100
AcDbEntity
8
0
100
AcDbCircle
10
89.627862436320129
20
-6.6500000000000048
30
0
40
6.3500000000000068
210
0
220
0
230
1
100
AcDbArc
50
225.28505127758413
51
270
0
LINE
5
119
100
AcDbEntity
8
0
100
AcDbLine
10
89.627862436320129
20
-13.000000000000014
30
0
11
100.40307126130953
21
-13.000000000000009
31
0
0
ARC
5
120
100
AcDbEntity
8
0
100
AcDbCircle
10
100.40307126130952
20
-6.649999999999979
30
0
40
6.3500000000000298
210
-0
220
0
230
1
100
AcDbArc
50
270.00000000000011
51
327.73783070387401
0
LINE
5
121
100
AcDbEntity
8
0
100
AcDbLine
10
105.77272312012552
20
-10.039592735877591
30
0
11
107.08520894917098
21
-7.9604072641224271
31
0
0
ARC
5
122
100
AcDbEntity
8
0
100
AcDbCircle
10
112.45486080798696
20
-11.350000000000025
30
0
40
6.3500000000000165
210
0
220
-0
230
1
100
AcDbArc
50
90
51
147.73783070387404
0
LINE
5
123
100
AcDbEntity
8
0
100
AcDbLine
10
112.45486080798696
20
-5.000000000000008
30
0
11
117.95000000000003
21
-5.0000000000000071
31
0
0
ARC
5
124
100
AcDbEntity
8
0
100
AcDbCircle
10
117.95000000000003
20
1.3499999999999828
30
0
40
6.349999999999989
210
0
220
0
230
1
100
AcDbArc
50
-90
51
0
0
LINE
5
125
100
AcDbEntity
8
0
100
AcDbLine
10
124.30000000000004
20
1.349999999999989
30
0
11
124.30000000000004
21
17.939372381811474
31
0
0
ARC
5
126
100
AcDbEntity
8
0
100
AcDbCircle
10
120.95000000000007
20
12.544930798107021
30
0
40
6.3499999999999606
210
0
220
-0
230
1
100
AcDbArc
50
58.159322108970194
51
60.606584666987381
0
LINE
5
127
100
AcDbEntity
8
0
100
AcDbLine
10
124.06660303077551
20
18.077496708113067
30
0
11
124.0666030307755
21
26.629016968383613
31
0
0
ARC
5
128
100
AcDbEntity
8
0
100
AcDbCircle
10
120.95000000000006
20
32.161582878389666
30
0
40
6.3499999999999801
210
-0
220
0
230
1
100
AcDbArc
50
299.39341533301257
51
301.84067789102966
0
LINE
5
129
100
AcDbEntity
8
0
100
AcDbLine
10
124.30000000000001
20
26.767141294685199
30
0
11
124.30000000000004
21
53.518785925084977
31
0
0
ARC
5
130
100
AcDbEntity
8
0
100
AcDbCircle
10
117.95000000000009
20
53.518785925084998
30
0
40
6.3499999999999446
210
0
220
0
230
1
100
AcDbArc
50
0
51
90.000000000000398
0
LINE
5
131
100
AcDbEntity
8
0
100
AcDbLine
10
117.95000000000005
20
59.868785925084964
30
0
11
109.25000000000003
21
59.868785931869716
31
0
0
LINE
5
132
100
AcDbEntity
8
0
100
AcDbLine
10
109.25000000000003
20
59.868785931869716
30
0
11
109.25000000000003
21
78.687588838835566
31
0
0
ARC
5
133
100
AcDbEntity
8
0
100
AcDbCircle
10
102.90000000000006
20
78.687588838835595
30
0
40
6.3499999999999623
210
-0
220
0
230
1
100
AcDbArc
50
0
51
90.000000000000128
0
LINE
5
134
100
AcDbEntity
8
0
100
AcDbLine
10
102.90000000000005
20
85.037588838835561
30
0
11
90.208101976990974
21
85.037588838835561
31
0
0
ARC
5
135
100
AcDbEntity
8
0
100
AcDbCircle
10
90.208101976991003
20
91.387588838835669
30
0
40
6.3500000000001036
210
0
220
0
230
1
100
AcDbArc
50
228.67631587934864
51
269.99999999999972
0
ARC
5
136
100
AcDbEntity
8
0
100
AcDbCircle
10
81.822137563679874
20
81.849999999999994
30
0
40
6.3500000000000369
210
0
220
-0
230
1
100
AcDbArc
50
48.676315879347953
51
89.999999999999872
0
LINE
5
137
100
AcDbEntity
8
0
100
AcDbLine
10
81.822137563679888
20
88.200000000000045
30
0
11
73.551416701045099
21
88.200000000000017
31
0
0
ARC
5
138
100
AcDbEntity
8
0
100
AcDbCircle
10
73.551416701045113
20
94.550000000000054
30
0
40
6.350000000000029
210
0
220
0
230
1
100
AcDbArc
50
220.08620123762552
51
269.99999999999989
0
LINE
5
139
100
AcDbEntity
8
0
100
AcDbLine
10
68.693180891129273
20
90.460984859987519
30
0
11
67.449172072108212
21
91.939015140012529
31
0
0
ARC
5
140
100
AcDbEntity
8
0
100
AcDbCircle
10
62.590936262192393
20
87.849999999999994
30
0
40
6.3500000000000112
210
0
220
-0
230
1
100
AcDbArc
50
40.08620123762563
51
89.999999999999872
0
LINE
5
141
100
AcDbEntity
8
0
100
AcDbLine
10
62.590936262192407
20
94.200000000000017
30
0
11
51.527862436320078
21
94.200000000000017
31
0
0
ARC
5
142
100
AcDbEntity
8
0
100
AcDbCircle
10
51.527862436320092
20
87.849999999999952
30
0
40
6.3500000000000689
210
0
220
0
230
1
100
AcDbArc
50
90.000000000000128
51
134.71494872241593
0
LINE
5
143
100
AcDbEntity
8
0
100
AcDbLine
10
47.060128613384961
20
92.362411161164474
30
0
11
45.722058067832776
21
91.037588838835561
31
0
0
ARC
5
144
100
AcDbEntity
8
0
100
AcDbCircle
10
41.254324244897667
20
95.549999999999997
30
0
40
6.3499999999999801
210
0
220
0
230
1
100
AcDbArc
50
270.00000000000006
51
314.7149487224163
0
LINE
5
145
100
AcDbEntity
8
0
100
AcDbLine
10
41.254324244897674
20
89.200000000000017
30
0
11
32.020002540972747
21
89.200000000000017
31
0
0
ARC
5
146
100
AcDbEntity
8
0
100
AcDbCircle
10
32.020002540972747
20
82.850000000000037
30
0
40
6.3499999999999801
210
0
220
-0
230
1
100
AcDbArc
50
90
51
120.71282771515885
0
LINE
5
147
100
AcDbEntity
8
0
100
AcDbLine
10
28.776832662808275
20
88.309335961576906
30
0
11
26.72540159216604
21
87.090664038423142
31
0
0
ARC
5
148
100
AcDbEntity
8
0
100
AcDbCircle
10
23.482231714001607
20
92.549999999999756
30
0
40
6.3499999999997492
210
0
220
0
230
1
100
AcDbArc
50
269.99999999999949
51
300.71282771515973
0
LINE
5
149
100
AcDbEntity
8
0
100
AcDbLine
10
23.48223171400155
20
86.200000000000017
30
0
11
-2.8954365785053948
21
86.200000000000031
31
0
0
CIRCLE
5
150
100
AcDbEntity
8
0
100
AcDbCircle
10
85.725000000000023
20
9.0249999999999879
30
0
40
0.89999999999999858
210
0
220
0
230
1
0
CIRCLE
5
151
100
AcDbEntity
8
0
100
AcDbCircle
10
9.5250000000000021
20
9.5250000000000021
30
0
40
0.9000000000000008
210
0
220
0
230
1
0
CIRCLE
5
152
100
AcDbEntity
8
0
100
AcDbCircle
10
9.5250000000000306
20
66.675000000000139
30
0
40
0.89999999999999858
210
0
220
0
230
1
0
CIRCLE
5
153
100
AcDbEntity
8
0
100
AcDbCircle
10
47.625000000000014
20
34.075000000000003
30
0
40
0.89999999999999858
210
0
220
0
230
1
0
CIRCLE
5
154
100
AcDbEntity
8
0
100
AcDbCircle
10
85.725000000000023
20
66.174999999999997
30
0
40
0.89999999999999858
210
0
220
0
230
1
0
ENDSEC
0
SECTION
2
OBJECTS
0
DICTIONARY
5
C
100
AcDbDictionary
3
ACAD_GROUP
350
D
3
ACAD_MLINESTYLE
350
17
0
DICTIONARY
5
D
100
AcDbDictionary
0
DICTIONARY
5
1A
330
C
100
AcDbDictionary
0
DICTIONARY
5
17
100
AcDbDictionary
0
ENDSEC
0
EOF
