0
SECTION
2
HEADER
9
$INSUNITS
70
4
9
$ACADVER
1
AC1014
9
$HANDSEED
5
FFFF
0
ENDSEC
0
SECTION
2
TABLES
0
TABLE
2
VPORT
5
8
100
AcDbSymbolTable
0
ENDTAB
0
TABLE
2
LTYPE
5
5
100
AcDbSymbolTable
0
LTYPE
5
14
100
AcDbSymbolTableRecord
100
AcDbLinetypeTableRecord
2
BYBLOCK
70
0
0
LTYPE
5
15
100
AcDbSymbolTableRecord
100
AcDbLinetypeTableRecord
2
BYLAYER
70
0
0
ENDTAB
0
TABLE
2
LAYER
5
2
100
AcDbSymbolTable
70
2
0
LAYER
5
50
100
AcDbSymbolTableRecord
100
AcDbLayerTableRecord
2
0
70
0
6
CONTINUOUS
0
ENDTAB
0
TABLE
2
STYLE
5
3
100
AcDbSymbolTable
70
1
0
STYLE
5
11
100
AcDbSymbolTableRecord
100
AcDbTextStyleTableRecord
2
STANDARD
70
0
0
ENDTAB
0
TABLE
2
VIEW
5
6
100
AcDbSymbolTable
70
0
0
ENDTAB
0
TABLE
2
UCS
5
7
100
AcDbSymbolTable
70
0
0
ENDTAB
0
TABLE
2
APPID
5
9
100
AcDbSymbolTable
70
2
0
APPID
5
12
100
AcDbSymbolTableRecord
100
AcDbRegAppTableRecord
2
ACAD
70
0
0
ENDTAB
0
TABLE
2
DIMSTYLE
5
A
100
AcDbSymbolTable
70
1
0
ENDTAB
0
TABLE
2
BLOCK_RECORD
5
1
100
AcDbSymbolTable
70
1
0
BLOCK_RECORD
5
1F
100
AcDbSymbolTableRecord
100
AcDbBlockTableRecord
2
*MODEL_SPACE
0
BLOCK_RECORD
5
1B
100
AcDbSymbolTableRecord
100
AcDbBlockTableRecord
2
*PAPER_SPACE
0
ENDTAB
0
ENDSEC
0
SECTION
2
BLOCKS
0
BLOCK
5
20
100
AcDbEntity
100
AcDbBlockBegin
2
*MODEL_SPACE
0
ENDBLK
5
21
100
AcDbEntity
100
AcDbBlockEnd
0
BLOCK
5
1C
100
AcDbEntity
100
AcDbBlockBegin
2
*PAPER_SPACE
0
ENDBLK
5
1D
100
AcDbEntity
100
AcDbBlockEnd
0
ENDSEC
0
SECTION
2
ENTITIES
0
LWPOLYLINE
5
100
100
AcDbEntity
8
0
100
AcDbPolyline
90
52
70
1
43
0.0
10
121.52192523661176
20
59.868785925084971
42
-0.68042268674211104
10
124.17953000523021
20
60.719917527513168
42
0.0073581209033455781
10
124.30000000000004
20
60.577042006931464
10
124.30000000000001
20
26.767141294685189
42
-0.010678603199616901
10
124.0666030307755
20
26.629016968383613
10
124.06660303077551
20
18.077496708113049
42
-0.010678603199616901
10
124.30000000000004
20
17.939372381811474
10
124.30000000000004
20
-0.57704200693146857
42
0.053801920753082738
10
123.52192513384307
20
-1.6956773143011061
42
-0.27421862661039859
10
117.95000000000003
20
-5.0000000000000089
10
112.45486080798696
20
-5.000000000000008
42
0.25739750592843358
10
107.08520894917098
20
-7.9604072641224288
10
105.77272312012552
20
-10.039592735877587
42
-0.25739750592843258
10
100.40307126130953
20
-13.000000000000007
10
89.627862436320129
20
-13.000000000000009
42
-0.19761970448865582
10
85.160128613385041
20
-11.162411161164494
10
83.822058067832771
20
-9.8375888388355293
42
0.19761970448865462
10
79.354324244897697
20
-8.0000000000000071
10
70.759063737807622
20
-8.0000000000000071
42
-0.22130008573997098
10
65.900827927891797
20
-5.7390151400125156
10
64.656819108870735
20
-4.2609848599874924
42
0.22130008573997123
10
59.79858329895491
20
-2.0000000000000018
10
53.99567575510234
20
-2.000000000000004
42
0.19761970448865768
10
49.527941932167238
20
-3.8375888388355417
10
48.189871386615039
20
-5.1624111611644699
42
-0.19761970448865676
10
43.722137563679922
20
-7.0000000000000018
10
33.667768285998434
20
-7
42
0.13481801052295353
10
30.42459840783394
20
-7.8906640384231164
10
28.373167337191795
20
-9.1093359615768783
42
-0.13481801052295284
10
25.129997459027305
20
-10
10
-3.6499999999999999
20
-10.000000000000002
42
-0.36410352896050358
10
-9.9040476610661976
20
-4.7497217162139016
10
-9.2219251338430208
20
82.895677314301139
42
-0.27421862661039847
10
-3.6500000000000021
20
86.200000000000017
10
23.48223171400155
20
86.200000000000017
42
0.13481801052295933
10
26.72540159216604
20
87.090664038423142
10
28.776832662808275
20
88.309335961576906
42
-0.13481801052295328
10
32.020002540972747
20
89.200000000000017
10
41.254324244897674
20
89.200000000000017
42
0.19761970448865751
10
45.722058067832776
20
91.037588838835561
10
47.060128613384961
20
92.362411161164474
42
-0.19761970448865537
10
51.527862436320078
20
94.200000000000017
10
62.590936262192407
20
94.200000000000017
42
-0.22130008573997029
10
67.449172072108212
20
91.939015140012529
10
68.693180891129273
20
90.460984859987519
42
0.22130008573997029
10
73.551416701045099
20
88.200000000000017
10
81.822137563679888
20
88.200000000000045
42
-0.18228835189795861
10
86.015119770335446
20
86.618794419417782
42
0.18228835189795553
10
90.208101976990974
20
85.037588838835561
10
102.90000000000003
20
85.037588838835561
42
-0.41421356237309709
10
109.25000000000003
20
78.687588838835566
10
109.25000000000003
20
59.868785931869716
0
ENDSEC
0
SECTION
2
OBJECTS
0
DICTIONARY
5
C
100
AcDbDictionary
3
ACAD_GROUP
350
D
3
ACAD_MLINESTYLE
350
17
0
DICTIONARY
5
D
100
AcDbDictionary
0
DICTIONARY
5
1A
330
C
100
AcDbDictionary
0
DICTIONARY
5
17
100
AcDbDictionary
0
ENDSEC
0
EOF
