0
SECTION
2
HEADER
9
$INSUNITS
70
4
9
$ACADVER
1
AC1014
9
$HANDSEED
5
FFFF
0
ENDSEC
0
SECTION
2
TABLES
0
TABLE
2
VPORT
5
8
100
AcDbSymbolTable
0
ENDTAB
0
TABLE
2
LTYPE
5
5
100
AcDbSymbolTable
0
LTYPE
5
14
100
AcDbSymbolTableRecord
100
AcDbLinetypeTableRecord
2
BYBLOCK
70
0
0
LTYPE
5
15
100
AcDbSymbolTableRecord
100
AcDbLinetypeTableRecord
2
BYLAYER
70
0
0
ENDTAB
0
TABLE
2
LAYER
5
2
100
AcDbSymbolTable
70
2
0
LAYER
5
50
100
AcDbSymbolTableRecord
100
AcDbLayerTableRecord
2
0
70
0
6
CONTINUOUS
0
ENDTAB
0
TABLE
2
STYLE
5
3
100
AcDbSymbolTable
70
1
0
STYLE
5
11
100
AcDbSymbolTableRecord
100
AcDbTextStyleTableRecord
2
STANDARD
70
0
0
ENDTAB
0
TABLE
2
VIEW
5
6
100
AcDbSymbolTable
70
0
0
ENDTAB
0
TABLE
2
UCS
5
7
100
AcDbSymbolTable
70
0
0
ENDTAB
0
TABLE
2
APPID
5
9
100
AcDbSymbolTable
70
2
0
APPID
5
12
100
AcDbSymbolTableRecord
100
AcDbRegAppTableRecord
2
ACAD
70
0
0
ENDTAB
0
TABLE
2
DIMSTYLE
5
A
100
AcDbSymbolTable
70
1
0
ENDTAB
0
TABLE
2
BLOCK_RECORD
5
1
100
AcDbSymbolTable
70
1
0
BLOCK_RECORD
5
1F
100
AcDbSymbolTableRecord
100
AcDbBlockTableRecord
2
*MODEL_SPACE
0
BLOCK_RECORD
5
1B
100
AcDbSymbolTableRecord
100
AcDbBlockTableRecord
2
*PAPER_SPACE
0
ENDTAB
0
ENDSEC
0
SECTION
2
BLOCKS
0
BLOCK
5
20
100
AcDbEntity
100
AcDbBlockBegin
2
*MODEL_SPACE
0
ENDBLK
5
21
100
AcDbEntity
100
AcDbBlockEnd
0
BLOCK
5
1C
100
AcDbEntity
100
AcDbBlockBegin
2
*PAPER_SPACE
0
ENDBLK
5
1D
100
AcDbEntity
100
AcDbBlockEnd
0
ENDSEC
0
SECTION
2
ENTITIES
0
LWPOLYLINE
5
100
100
AcDbEntity
8
0
100
AcDbPolyline
90
56
70
1
43
0.0
10
125.02192513384307
20
59.868785931869716
42
-0.22222140925989212
10
127.30000000000004
20
54.996217235137209
10
127.30000000000004
20
5.0037827648627893
42
-0.2222214092598927
10
125.02192513384307
20
0.13121406813028758
42
0.093883098830178105
10
123.52192513384307
20
-1.6956773143011028
42
-0.2742186266103987
10
117.95000000000003
20
-5.0000000000000071
10
112.45486080798696
20
-5.000000000000008
42
0.25739750592843386
10
107.08520894917098
20
-7.9604072641224182
10
105.77272312012552
20
-10.039592735877589
42
-0.25739750592843258
10
100.40307126130953
20
-13.000000000000009
10
89.627862436320129
20
-13.000000000000011
42
-0.19761970448865582
10
85.160128613385041
20
-11.162411161164499
10
83.822058067832771
20
-9.837588838835531
42
0.19761970448865654
10
79.354324244897668
20
-8.0000000000000089
10
70.759063737807622
20
-8.0000000000000089
42
-0.22130008573997123
10
65.900827927891797
20
-5.7390151400125173
10
64.656819108870735
20
-4.2609848599874969
42
0.22130008573997156
10
59.79858329895491
20
-2.0000000000000031
10
53.99567575510234
20
-2.0000000000000027
42
0.19761970448865743
10
49.527941932167238
20
-3.8375888388355484
10
48.189871386615039
20
-5.162411161164469
42
-0.19761970448865687
10
43.722137563679922
20
-7.0000000000000018
10
33.667768285998434
20
-7
42
0.13481801052295331
10
30.424598407833948
20
-7.8906640384231217
10
28.373167337191791
20
-9.1093359615768801
42
-0.13481801052295272
10
25.129997459027305
20
-10
10
-3.6499999999999972
20
-10
42
-0.36410352896050407
10
-9.9040476610661976
20
-4.7497217162138936
42
0.1385469651721524
10
-11.404047661066194
20
-1.639748569814699
42
-0.18319515843149436
10
-12.999999999999998
20
2.5699462927983863
10
-12.999999999999996
20
76.196217235137254
42
-0.22222140925989226
10
-10.721925133843007
20
81.068785931869769
42
0.093883098830177189
10
-9.2219251338430226
20
82.895677314301139
42
-0.2742186266103987
10
-3.6499999999999977
20
86.200000000000017
10
23.482231714001539
20
86.200000000000017
42
0.13481801052295381
10
26.72540159216604
20
87.090664038423128
10
28.776832662808275
20
88.309335961576906
42
-0.1348180105229535
10
32.020002540972754
20
89.200000000000017
10
41.254324244897667
20
89.200000000000017
42
0.1976197044886574
10
45.722058067832776
20
91.037588838835561
10
47.060128613384947
20
92.362411161164474
42
-0.1976197044886556
10
51.527862436320078
20
94.200000000000017
10
62.5909362621924
20
94.200000000000017
42
-0.22130008573997065
10
67.449172072108212
20
91.939015140012529
10
68.693180891129273
20
90.460984859987519
42
0.22130008573997165
10
73.551416701045099
20
88.200000000000017
10
81.822137563679888
20
88.200000000000017
42
-0.19761970448865676
10
86.289871386615005
20
86.362411161164488
10
87.627941932167218
20
85.037588838835561
42
0.19761970448865732
10
92.095675755102334
20
83.200000000000003
10
98.900000000000006
20
83.200000000000003
42
-0.41421356237309792
10
105.25000000000003
20
76.850000000000009
10
105.25000000000003
20
71.349999999999994
42
0.41421356237309503
10
111.60000000000002
20
64.999999999999986
10
117.95000000000005
20
64.999999999999986
42
-0.2742186266103987
10
123.52192513384308
20
61.695677314301101
42
0.093883098830178258
0
LINE
5
101
100
AcDbEntity
8
0
100
AcDbLine
10
115.14369205870676
20
26.629016968383613
30
0
11
127.30000000000004
21
26.629016968383613
31
0
0
LINE
5
102
100
AcDbEntity
8
0
100
AcDbLine
10
127.30000000000004
20
26.629016968383613
30
0
11
127.30000000000004
21
18.077496708113067
31
0
0
LINE
5
103
100
AcDbEntity
8
0
100
AcDbLine
10
127.30000000000004
20
18.077496708113067
30
0
11
115.14369205870676
21
18.077496708113067
31
0
0
LINE
5
104
100
AcDbEntity
8
0
100
AcDbLine
10
115.14369205870676
20
18.077496708113067
30
0
11
115.14369205870676
21
26.629016968383613
31
0
0
LINE
5
105
100
AcDbEntity
8
0
100
AcDbLine
10
124.0666030307755
20
26.629016968383613
30
0
11
127.30000000000004
21
26.629016968383613
31
0
0
LINE
5
106
100
AcDbEntity
8
0
100
AcDbLine
10
127.30000000000004
20
26.629016968383613
30
0
11
127.30000000000004
21
18.077496708113067
31
0
0
LINE
5
107
100
AcDbEntity
8
0
100
AcDbLine
10
127.30000000000004
20
18.077496708113067
30
0
11
124.0666030307755
21
18.077496708113067
31
0
0
LINE
5
108
100
AcDbEntity
8
0
100
AcDbLine
10
124.0666030307755
20
18.077496708113067
30
0
11
124.0666030307755
21
26.629016968383613
31
0
0
ENDSEC
0
SECTION
2
OBJECTS
0
DICTIONARY
5
C
100
AcDbDictionary
3
ACAD_GROUP
350
D
3
ACAD_MLINESTYLE
350
17
0
DICTIONARY
5
D
100
AcDbDictionary
0
DICTIONARY
5
1A
330
C
100
AcDbDictionary
0
DICTIONARY
5
17
100
AcDbDictionary
0
ENDSEC
0
EOF
