0
SECTION
2
HEADER
9
$INSUNITS
70
4
9
$ACADVER
1
AC1014
9
$HANDSEED
5
FFFF
0
ENDSEC
0
SECTION
2
TABLES
0
TABLE
2
VPORT
5
8
100
AcDbSymbolTable
0
ENDTAB
0
TABLE
2
LTYPE
5
5
100
AcDbSymbolTable
0
LTYPE
5
14
100
AcDbSymbolTableRecord
100
AcDbLinetypeTableRecord
2
BYBLOCK
70
0
0
LTYPE
5
15
100
AcDbSymbolTableRecord
100
AcDbLinetypeTableRecord
2
BYLAYER
70
0
0
ENDTAB
0
TABLE
2
LAYER
5
2
100
AcDbSymbolTable
70
2
0
LAYER
5
50
100
AcDbSymbolTableRecord
100
AcDbLayerTableRecord
2
0
70
0
6
CONTINUOUS
0
ENDTAB
0
TABLE
2
STYLE
5
3
100
AcDbSymbolTable
70
1
0
STYLE
5
11
100
AcDbSymbolTableRecord
100
AcDbTextStyleTableRecord
2
STANDARD
70
0
0
ENDTAB
0
TABLE
2
VIEW
5
6
100
AcDbSymbolTable
70
0
0
ENDTAB
0
TABLE
2
UCS
5
7
100
AcDbSymbolTable
70
0
0
ENDTAB
0
TABLE
2
APPID
5
9
100
AcDbSymbolTable
70
2
0
APPID
5
12
100
AcDbSymbolTableRecord
100
AcDbRegAppTableRecord
2
ACAD
70
0
0
ENDTAB
0
TABLE
2
DIMSTYLE
5
A
100
AcDbSymbolTable
70
1
0
ENDTAB
0
TABLE
2
BLOCK_RECORD
5
1
100
AcDbSymbolTable
70
1
0
BLOCK_RECORD
5
1F
100
AcDbSymbolTableRecord
100
AcDbBlockTableRecord
2
*MODEL_SPACE
0
BLOCK_RECORD
5
1B
100
AcDbSymbolTableRecord
100
AcDbBlockTableRecord
2
*PAPER_SPACE
0
ENDTAB
0
ENDSEC
0
SECTION
2
BLOCKS
0
BLOCK
5
20
100
AcDbEntity
100
AcDbBlockBegin
2
*MODEL_SPACE
0
ENDBLK
5
21
100
AcDbEntity
100
AcDbBlockEnd
0
BLOCK
5
1C
100
AcDbEntity
100
AcDbBlockBegin
2
*PAPER_SPACE
0
ENDBLK
5
1D
100
AcDbEntity
100
AcDbBlockEnd
0
ENDSEC
0
SECTION
2
ENTITIES
0
LWPOLYLINE
5
100
100
AcDbEntity
8
0
100
AcDbPolyline
90
47
70
1
43
0.0
10
69.49384232399477
20
57.592854292863407
10
78.500603048901667
20
57.592854292863379
42
-0.26550798797338532
10
83.970692170661977
20
54.467854292863279
42
0.26550798797338371
10
89.440781292422301
20
51.34285429286318
10
96.150000000000233
20
51.342854292863166
42
-0.41421356237309792
10
102.50000000000023
20
44.992854292863179
10
102.50000000000023
20
0.94285429286316214
42
-0.41421356237309681
10
96.150000000000233
20
-5.4071457071368414
10
88.615045624245639
20
-5.4071457071368387
42
0.29797337645013316
10
82.797446547615124
20
-9.2119461111153846
10
82.626646901096734
20
-9.6023453031580903
42
-0.29797337645013006
10
76.809047824466262
20
-13.407145707136639
10
66.610093239078211
20
-13.407145707136717
42
-0.22783779158248077
10
61.651576299117785
20
-11.023959259110905
10
61.464674615961613
20
-10.790332155166054
42
0.22783779158247947
10
56.506157676001216
20
-8.4071457071402325
10
48.792865590931441
20
-8.4071457071402662
42
-0.25076489093331483
10
43.509346221886076
20
-5.5794919531704252
10
43.279551227179489
20
-5.2347994611105531
42
0.25076489093331378
10
37.996031858134131
20
-2.4071457071407072
10
33.493842323996262
20
-2.4071457071407218
42
0.2278377915826677
10
28.535325384033037
20
-4.7903321551701286
10
28.348423700883117
20
-5.0239592591075279
42
-0.22783779158267228
10
23.389906760919779
20
-7.4071457071369355
10
13.765323650164337
20
-7.4071457071367917
42
0.14477861616554505
10
10.311342032416579
20
-8.4286833600556683
10
9.4631972083303868
20
-8.978462347081118
42
-0.14477861616554005
10
6.0092155905827269
20
-10
10
-6.6499999999999995
20
-9.9999999999999982
42
-0.41421356237309592
10
-13
20
-3.6499999999999932
10
-12.999999999999998
20
54.650000000000006
42
-0.41421356237309509
10
-6.6500000000000012
20
61.000000000000007
10
4.2346763498353726
20
61.000000000000007
42
0.14477861616554008
10
7.688657967583012
20
62.021537652918859
10
8.536802791669345
20
62.571316639944392
42
-0.14477861616554016
10
11.990784409416975
20
63.592854292863251
10
20.506157676000335
20
63.592854292863265
42
0.22783779158266454
10
25.464674615963521
20
65.9760407408926
10
25.6515762991136
20
66.209667844830179
42
-0.22783779158266879
10
30.610093239076875
20
68.592854292859514
10
41.207134409062178
20
68.592854292859357
42
-0.25076489093330978
10
46.490653778107458
20
65.765200538889488
10
46.720448772814024
20
65.42050804682961
42
0.25076489093331339
10
52.003968141859353
20
62.592854292859734
10
59.389906760918088
20
62.592854292859677
42
-0.22783779158247272
10
64.348423700878371
20
60.209667844833923
10
64.535325384034465
20
59.976040740889161
42
0.22783779158247408
0
ENDSEC
0
SECTION
2
OBJECTS
0
DICTIONARY
5
C
100
AcDbDictionary
3
ACAD_GROUP
350
D
3
ACAD_MLINESTYLE
350
17
0
DICTIONARY
5
D
100
AcDbDictionary
0
DICTIONARY
5
1A
330
C
100
AcDbDictionary
0
DICTIONARY
5
17
100
AcDbDictionary
0
ENDSEC
0
EOF
