0
SECTION
2
HEADER
9
$INSUNITS
70
4
9
$ACADVER
1
AC1014
9
$HANDSEED
5
FFFF
0
ENDSEC
0
SECTION
2
TABLES
0
TABLE
2
VPORT
5
8
100
AcDbSymbolTable
0
ENDTAB
0
TABLE
2
LTYPE
5
5
100
AcDbSymbolTable
0
LTYPE
5
14
100
AcDbSymbolTableRecord
100
AcDbLinetypeTableRecord
2
BYBLOCK
70
0
0
LTYPE
5
15
100
AcDbSymbolTableRecord
100
AcDbLinetypeTableRecord
2
BYLAYER
70
0
0
ENDTAB
0
TABLE
2
LAYER
5
2
100
AcDbSymbolTable
70
2
0
LAYER
5
50
100
AcDbSymbolTableRecord
100
AcDbLayerTableRecord
2
0
70
0
6
CONTINUOUS
0
ENDTAB
0
TABLE
2
STYLE
5
3
100
AcDbSymbolTable
70
1
0
STYLE
5
11
100
AcDbSymbolTableRecord
100
AcDbTextStyleTableRecord
2
STANDARD
70
0
0
ENDTAB
0
TABLE
2
VIEW
5
6
100
AcDbSymbolTable
70
0
0
ENDTAB
0
TABLE
2
UCS
5
7
100
AcDbSymbolTable
70
0
0
ENDTAB
0
TABLE
2
APPID
5
9
100
AcDbSymbolTable
70
2
0
APPID
5
12
100
AcDbSymbolTableRecord
100
AcDbRegAppTableRecord
2
ACAD
70
0
0
ENDTAB
0
TABLE
2
DIMSTYLE
5
A
100
AcDbSymbolTable
70
1
0
ENDTAB
0
TABLE
2
BLOCK_RECORD
5
1
100
AcDbSymbolTable
70
1
0
BLOCK_RECORD
5
1F
100
AcDbSymbolTableRecord
100
AcDbBlockTableRecord
2
*MODEL_SPACE
0
BLOCK_RECORD
5
1B
100
AcDbSymbolTableRecord
100
AcDbBlockTableRecord
2
*PAPER_SPACE
0
ENDTAB
0
ENDSEC
0
SECTION
2
BLOCKS
0
BLOCK
5
20
100
AcDbEntity
100
AcDbBlockBegin
2
*MODEL_SPACE
0
ENDBLK
5
21
100
AcDbEntity
100
AcDbBlockEnd
0
BLOCK
5
1C
100
AcDbEntity
100
AcDbBlockBegin
2
*PAPER_SPACE
0
ENDBLK
5
1D
100
AcDbEntity
100
AcDbBlockEnd
0
ENDSEC
0
SECTION
2
ENTITIES
0
ARC
5
100
100
AcDbEntity
8
0
100
AcDbCircle
10
66.61009323907814
20
-7.0571457071367369
30
0
40
6.3499999999999837
210
0
220
0
230
1
100
AcDbArc
50
218.65980825413158
51
270.00000000000063
0
LINE
5
101
100
AcDbEntity
8
0
100
AcDbLine
10
66.610093239078211
20
-13.407145707136721
30
0
11
76.809047824466262
21
-13.407145707136639
31
0
0
ARC
5
102
100
AcDbEntity
8
0
100
AcDbCircle
10
76.809047824466205
20
-7.0571457071366206
30
0
40
6.3500000000000174
210
0
220
0
230
1
100
AcDbArc
50
270.00000000000051
51
336.37062226937945
0
LINE
5
103
100
AcDbEntity
8
0
100
AcDbLine
10
82.626646901096734
20
-9.6023453031580903
30
0
11
82.797446547615124
21
-9.2119461111153846
31
0
0
ARC
5
104
100
AcDbEntity
8
0
100
AcDbCircle
10
88.615045624245639
20
-11.757145707136837
30
0
40
6.3499999999999988
210
0
220
-0
230
1
100
AcDbArc
50
90
51
156.37062226937954
0
LINE
5
105
100
AcDbEntity
8
0
100
AcDbLine
10
88.615045624245639
20
-5.4071457071368387
30
0
11
93.149999999994094
21
-5.4071457071368396
31
0
0
ARC
5
106
100
AcDbEntity
8
0
100
AcDbCircle
10
93.149999999994094
20
0.94285429286315647
30
0
40
6.349999999999997
210
0
220
0
230
1
100
AcDbArc
50
-90
51
0
0
LINE
5
107
100
AcDbEntity
8
0
100
AcDbLine
10
99.499999999994088
20
0.9428542928631729
30
0
11
99.499999999994031
21
48.242854292863193
31
0
0
ARC
5
108
100
AcDbEntity
8
0
100
AcDbCircle
10
93.149999999994009
20
48.242854292863186
30
0
40
6.3500000000000156
210
0
220
-0
230
1
100
AcDbArc
50
0
51
90
0
LINE
5
109
100
AcDbEntity
8
0
100
AcDbLine
10
79.196880970936917
20
57.592854292863372
30
0
11
69.49384232399477
21
57.592854292863407
31
0
0
ARC
5
110
100
AcDbEntity
8
0
100
AcDbCircle
10
69.493842323994869
20
63.942854292863309
30
0
40
6.3499999999999996
210
0
220
0
230
1
100
AcDbArc
50
218.65980825413223
51
269.99999999999909
0
LINE
5
111
100
AcDbEntity
8
0
100
AcDbLine
10
64.535325384034536
20
59.976040740889061
30
0
11
64.348423700878371
21
60.209667844833923
31
0
0
ARC
5
112
100
AcDbEntity
8
0
100
AcDbCircle
10
59.389906760918045
20
56.242854292859676
30
0
40
6.3500000000000059
210
0
220
-0
230
1
100
AcDbArc
50
38.659808254132273
51
89.999999999999616
0
LINE
5
113
100
AcDbEntity
8
0
100
AcDbLine
10
59.389906760918088
20
62.592854292859677
30
0
11
52.003968141859353
21
62.592854292859734
31
0
0
ARC
5
114
100
AcDbEntity
8
0
100
AcDbCircle
10
52.003968141859396
20
68.942854292859735
30
0
40
6.3499999999999996
210
0
220
0
230
1
100
AcDbArc
50
213.69006752597883
51
269.9999999999996
0
LINE
5
115
100
AcDbEntity
8
0
100
AcDbLine
10
46.720448772814024
20
65.42050804682961
30
0
11
46.490653778107458
21
65.765200538889488
31
0
0
ARC
5
116
100
AcDbEntity
8
0
100
AcDbCircle
10
41.207134409062078
20
62.242854292859334
30
0
40
6.3500000000000316
210
0
220
-0
230
1
100
AcDbArc
50
33.690067525979046
51
89.999999999999119
0
LINE
5
117
100
AcDbEntity
8
0
100
AcDbLine
10
41.207134409062178
20
68.592854292859357
30
0
11
30.610093239076875
21
68.592854292859514
31
0
0
ARC
5
118
100
AcDbEntity
8
0
100
AcDbCircle
10
30.610093239076789
20
62.242854292859526
30
0
40
6.349999999999989
210
0
220
-0
230
1
100
AcDbArc
50
89.999999999999247
51
141.34019174590924
0
LINE
5
119
100
AcDbEntity
8
0
100
AcDbLine
10
25.651576299113596
20
66.209667844830179
30
0
11
25.464674615963521
21
65.9760407408926
31
0
0
ARC
5
120
100
AcDbEntity
8
0
100
AcDbCircle
10
20.506157676000328
20
69.94285429286326
30
0
40
6.3499999999999979
210
-0
220
0
230
1
100
AcDbArc
50
270.00000000000006
51
321.34019174590912
0
LINE
5
121
100
AcDbEntity
8
0
100
AcDbLine
10
20.506157676000335
20
63.592854292863265
30
0
11
11.990784409416975
21
63.592854292863251
31
0
0
ARC
5
122
100
AcDbEntity
8
0
100
AcDbCircle
10
11.990784409416975
20
57.242854292863271
30
0
40
6.3499999999999801
210
0
220
-0
230
1
100
AcDbArc
50
90
51
122.95185470452088
0
LINE
5
123
100
AcDbEntity
8
0
100
AcDbLine
10
8.5368027916693414
20
62.571316639944399
30
0
11
7.688657967583012
21
62.021537652918859
31
0
0
ARC
5
124
100
AcDbEntity
8
0
100
AcDbCircle
10
4.2346763498353743
20
67.350000000000009
30
0
40
6.3499999999999979
210
0
220
0
230
1
100
AcDbArc
50
270
51
302.95185470452077
0
LINE
5
125
100
AcDbEntity
8
0
100
AcDbLine
10
4.2346763498353726
20
61.000000000000007
30
0
11
-3.6499999999999999
21
61.000000000000007
31
0
0
ARC
5
126
100
AcDbEntity
8
0
100
AcDbCircle
10
-3.6500000000000066
20
54.65000000000002
30
0
40
6.349999999999989
210
0
220
-0
230
1
100
AcDbArc
50
89.999999999999943
51
180
0
LINE
5
127
100
AcDbEntity
8
0
100
AcDbLine
10
-9.9999999999999964
20
54.650000000000006
30
0
11
-10
21
-3.6499999999999932
31
0
0
ARC
5
128
100
AcDbEntity
8
0
100
AcDbCircle
10
-3.6499999999999972
20
-3.6499999999999941
30
0
40
6.3500000000000023
210
0
220
0
230
1
100
AcDbArc
50
180
51
270
0
LINE
5
129
100
AcDbEntity
8
0
100
AcDbLine
10
-3.6499999999999981
20
-9.9999999999999964
30
0
11
6.009215590582726
21
-10
31
0
0
ARC
5
130
100
AcDbEntity
8
0
100
AcDbCircle
10
6.0092155905827083
20
-3.6499999999999511
30
0
40
6.3500000000000494
210
0
220
0
230
1
100
AcDbArc
50
270.00000000000017
51
302.951854704521
0
LINE
5
131
100
AcDbEntity
8
0
100
AcDbLine
10
9.4631972083303868
20
-8.9784623470811216
30
0
11
10.311342032416579
21
-8.4286833600556683
31
0
0
ARC
5
132
100
AcDbEntity
8
0
100
AcDbCircle
10
13.765323650164238
20
-13.757145707136791
30
0
40
6.3499999999999988
210
0
220
-0
230
1
100
AcDbArc
50
89.999999999999119
51
122.9518547045211
0
LINE
5
133
100
AcDbEntity
8
0
100
AcDbLine
10
13.765323650164337
20
-7.4071457071367917
30
0
11
23.389906760919779
21
-7.4071457071369355
31
0
0
ARC
5
134
100
AcDbEntity
8
0
100
AcDbCircle
10
23.389906760919871
20
-1.0571457071369328
30
0
40
6.3500000000000023
210
0
220
0
230
1
100
AcDbArc
50
269.9999999999992
51
321.34019174590992
0
LINE
5
135
100
AcDbEntity
8
0
100
AcDbLine
10
28.348423700883121
20
-5.0239592591075315
30
0
11
28.535325384033037
21
-4.7903321551701286
31
0
0
ARC
5
136
100
AcDbEntity
8
0
100
AcDbCircle
10
33.493842323996283
20
-8.7571457071407206
30
0
40
6.3499999999999988
210
0
220
0
230
1
100
AcDbArc
50
90.000000000000185
51
141.34019174590995
0
LINE
5
137
100
AcDbEntity
8
0
100
AcDbLine
10
33.493842323996262
20
-2.4071457071407218
30
0
11
37.996031858134131
21
-2.4071457071407072
31
0
0
ARC
5
138
100
AcDbEntity
8
0
100
AcDbCircle
10
37.996031858134153
20
-8.7571457071407082
30
0
40
6.349999999999997
210
0
220
-0
230
1
100
AcDbArc
50
33.690067525979273
51
90.000000000000185
0
LINE
5
139
100
AcDbEntity
8
0
100
AcDbLine
10
43.279551227179489
20
-5.2347994611105531
30
0
11
43.509346221886076
21
-5.5794919531704252
31
0
0
ARC
5
140
100
AcDbEntity
8
0
100
AcDbCircle
10
48.792865590931399
20
-2.057145707140291
30
0
40
6.3499999999999748
210
0
220
0
230
1
100
AcDbArc
50
213.6900675259792
51
270.0000000000004
0
LINE
5
141
100
AcDbEntity
8
0
100
AcDbLine
10
48.792865590931441
20
-8.407145707140268
30
0
11
56.506157676001216
21
-8.4071457071402325
31
0
0
ARC
5
142
100
AcDbEntity
8
0
100
AcDbCircle
10
56.506157676001237
20
-14.757145707140232
30
0
40
6.3499999999999996
210
0
220
-0
230
1
100
AcDbArc
50
38.659808254131498
51
90.000000000000185
0
LINE
5
143
100
AcDbEntity
8
0
100
AcDbLine
10
61.464674615961613
20
-10.790332155166054
30
0
11
61.651576299117785
21
-11.02395925911091
31
0
0
ARC
5
144
100
AcDbEntity
8
0
100
AcDbCircle
10
79.196880970936917
20
51.24285429286342
30
0
40
6.3499999999999579
210
0
220
-0
230
1
100
AcDbArc
50
49.798535260006439
51
90
0
LINE
5
145
100
AcDbEntity
8
0
100
AcDbLine
10
93.149999999994009
20
54.59285429286318
30
0
11
87.394441583704818
21
54.59285429286318
31
0
0
ARC
5
146
100
AcDbEntity
8
0
100
AcDbCircle
10
87.394441583704818
20
60.942854292863174
30
0
40
6.350000000000005
210
0
220
0
230
1
100
AcDbArc
50
229.79853526000662
51
270
0
ENDSEC
0
SECTION
2
OBJECTS
0
DICTIONARY
5
C
100
AcDbDictionary
3
ACAD_GROUP
350
D
3
ACAD_MLINESTYLE
350
17
0
DICTIONARY
5
D
100
AcDbDictionary
0
DICTIONARY
5
1A
330
C
100
AcDbDictionary
0
DICTIONARY
5
17
100
AcDbDictionary
0
ENDSEC
0
EOF
