0
SECTION
2
HEADER
9
$INSUNITS
70
4
9
$ACADVER
1
AC1014
9
$HANDSEED
5
FFFF
0
ENDSEC
0
SECTION
2
TABLES
0
TABLE
2
VPORT
5
8
100
AcDbSymbolTable
0
ENDTAB
0
TABLE
2
LTYPE
5
5
100
AcDbSymbolTable
0
LTYPE
5
14
100
AcDbSymbolTableRecord
100
AcDbLinetypeTableRecord
2
BYBLOCK
70
0
0
LTYPE
5
15
100
AcDbSymbolTableRecord
100
AcDbLinetypeTableRecord
2
BYLAYER
70
0
0
ENDTAB
0
TABLE
2
LAYER
5
2
100
AcDbSymbolTable
70
2
0
LAYER
5
50
100
AcDbSymbolTableRecord
100
AcDbLayerTableRecord
2
0
70
0
6
CONTINUOUS
0
ENDTAB
0
TABLE
2
STYLE
5
3
100
AcDbSymbolTable
70
1
0
STYLE
5
11
100
AcDbSymbolTableRecord
100
AcDbTextStyleTableRecord
2
STANDARD
70
0
0
ENDTAB
0
TABLE
2
VIEW
5
6
100
AcDbSymbolTable
70
0
0
ENDTAB
0
TABLE
2
UCS
5
7
100
AcDbSymbolTable
70
0
0
ENDTAB
0
TABLE
2
APPID
5
9
100
AcDbSymbolTable
70
2
0
APPID
5
12
100
AcDbSymbolTableRecord
100
AcDbRegAppTableRecord
2
ACAD
70
0
0
ENDTAB
0
TABLE
2
DIMSTYLE
5
A
100
AcDbSymbolTable
70
1
0
ENDTAB
0
TABLE
2
BLOCK_RECORD
5
1
100
AcDbSymbolTable
70
1
0
BLOCK_RECORD
5
1F
100
AcDbSymbolTableRecord
100
AcDbBlockTableRecord
2
*MODEL_SPACE
0
BLOCK_RECORD
5
1B
100
AcDbSymbolTableRecord
100
AcDbBlockTableRecord
2
*PAPER_SPACE
0
ENDTAB
0
ENDSEC
0
SECTION
2
BLOCKS
0
BLOCK
5
20
100
AcDbEntity
100
AcDbBlockBegin
2
*MODEL_SPACE
0
ENDBLK
5
21
100
AcDbEntity
100
AcDbBlockEnd
0
BLOCK
5
1C
100
AcDbEntity
100
AcDbBlockBegin
2
*PAPER_SPACE
0
ENDBLK
5
1D
100
AcDbEntity
100
AcDbBlockEnd
0
ENDSEC
0
SECTION
2
ENTITIES
0
LWPOLYLINE
5
100
100
AcDbEntity
8
0
100
AcDbPolyline
90
48
70
1
43
0.0
10
26.973333333333322
20
77.730000000000018
42
-0.16227766016838033
10
30.783333333333317
20
79
10
39.467407370973682
20
79
42
0.22783779158266904
10
44.425924310936935
20
81.38318644802942
10
44.612825994089903
20
81.616813551970623
42
-0.22783779158266726
10
49.571342934053149
20
84.000000000000043
10
58.13676689208922
20
84.000000000000057
42
-0.25076489093331239
10
63.420286261134535
20
81.172346246030273
10
63.650081255841513
20
80.827653753969798
42
0.25076489093331039
10
68.933600624886822
20
78
10
76.428657065949295
20
78
42
-0.227837791582474
10
81.387174005909614
20
75.616813551974246
10
81.574075689068621
20
75.383186448025853
42
0.2278377915824748
10
86.53259262902894
20
73.000000000000099
10
91.650000000005463
20
73.000000000000085
42
-0.41421356237312418
10
98.000000000005443
20
66.649999999999466
10
98.000000000004732
20
59.349999999999746
42
0.41421356237312418
10
104.35000000000473
20
52.999999999999119
10
109.14999999999992
20
52.999999999999119
42
-0.41421356237309426
10
115.49999999999991
20
46.649999999999139
10
115.5
20
3.3499999999999828
42
-0.41421356237309581
10
109.15000000000001
20
-3.0000000000000329
10
105.30701447467897
20
-3.0000000000000329
42
0.2979733764501305
10
99.489415398048479
20
-6.8048004039785255
10
99.318615751530004
20
-7.1951995960214168
42
-0.29797337645013255
10
93.501016674899518
20
-10.999999999999911
10
85.571342934056702
20
-10.999999999999893
42
-0.22783779158247316
10
80.612825994096397
20
-8.6168135519741469
10
80.425924310937404
20
-8.3831864480257643
42
0.22783779158247483
10
75.467407370977085
20
-6.0000000000000089
10
67.863233107910816
20
-6.0000000000000142
42
-0.2507648909333105
10
62.579713738865507
20
-3.1723462460302221
10
62.349918744158515
20
-2.8276537539697442
42
0.25076489093331034
10
57.066399375113207
20
4.2552384777929772e-14
10
50.532592629026283
20
3.8857805861880479e-14
42
0.2278377915826704
10
45.574075689063008
20
-2.383186448029404
10
45.387174005910076
20
-2.6168135519705631
42
-0.22783779158267126
10
40.428657065946815
20
-5.000000000000008
10
31.449999999999999
20
-5.0000000000000053
42
0.16227766016837913
10
27.640000000000001
20
-6.2699999999999996
10
27.026666666666664
20
-6.7300000000000022
42
-0.16227766016837908
10
23.216666666666669
20
-8
10
-1.649999999999997
20
-8
42
-0.41421356237309503
10
-7.9999999999999991
20
-1.6500000000000004
10
-8
20
69.650000000000006
42
-0.41421356237309515
10
-1.6500000000000004
20
76
10
22.54999999999999
20
76.000000000000014
42
0.162277660168379
10
26.359999999999989
20
77.27000000000001
0
ENDSEC
0
SECTION
2
OBJECTS
0
DICTIONARY
5
C
100
AcDbDictionary
3
ACAD_GROUP
350
D
3
ACAD_MLINESTYLE
350
17
0
DICTIONARY
5
D
100
AcDbDictionary
0
DICTIONARY
5
1A
330
C
100
AcDbDictionary
0
DICTIONARY
5
17
100
AcDbDictionary
0
ENDSEC
0
EOF
