0
SECTION
2
HEADER
9
$INSUNITS
70
4
9
$ACADVER
1
AC1014
9
$HANDSEED
5
FFFF
0
ENDSEC
0
SECTION
2
TABLES
0
TABLE
2
VPORT
5
8
100
AcDbSymbolTable
0
ENDTAB
0
TABLE
2
LTYPE
5
5
100
AcDbSymbolTable
0
LTYPE
5
14
100
AcDbSymbolTableRecord
100
AcDbLinetypeTableRecord
2
BYBLOCK
70
0
0
LTYPE
5
15
100
AcDbSymbolTableRecord
100
AcDbLinetypeTableRecord
2
BYLAYER
70
0
0
ENDTAB
0
TABLE
2
LAYER
5
2
100
AcDbSymbolTable
70
2
0
LAYER
5
50
100
AcDbSymbolTableRecord
100
AcDbLayerTableRecord
2
0
70
0
6
CONTINUOUS
0
ENDTAB
0
TABLE
2
STYLE
5
3
100
AcDbSymbolTable
70
1
0
STYLE
5
11
100
AcDbSymbolTableRecord
100
AcDbTextStyleTableRecord
2
STANDARD
70
0
0
ENDTAB
0
TABLE
2
VIEW
5
6
100
AcDbSymbolTable
70
0
0
ENDTAB
0
TABLE
2
UCS
5
7
100
AcDbSymbolTable
70
0
0
ENDTAB
0
TABLE
2
APPID
5
9
100
AcDbSymbolTable
70
2
0
APPID
5
12
100
AcDbSymbolTableRecord
100
AcDbRegAppTableRecord
2
ACAD
70
0
0
ENDTAB
0
TABLE
2
DIMSTYLE
5
A
100
AcDbSymbolTable
70
1
0
ENDTAB
0
TABLE
2
BLOCK_RECORD
5
1
100
AcDbSymbolTable
70
1
0
BLOCK_RECORD
5
1F
100
AcDbSymbolTableRecord
100
AcDbBlockTableRecord
2
*MODEL_SPACE
0
BLOCK_RECORD
5
1B
100
AcDbSymbolTableRecord
100
AcDbBlockTableRecord
2
*PAPER_SPACE
0
ENDTAB
0
ENDSEC
0
SECTION
2
BLOCKS
0
BLOCK
5
20
100
AcDbEntity
100
AcDbBlockBegin
2
*MODEL_SPACE
0
ENDBLK
5
21
100
AcDbEntity
100
AcDbBlockEnd
0
BLOCK
5
1C
100
AcDbEntity
100
AcDbBlockBegin
2
*PAPER_SPACE
0
ENDBLK
5
1D
100
AcDbEntity
100
AcDbBlockEnd
0
ENDSEC
0
SECTION
2
ENTITIES
0
LWPOLYLINE
5
100
100
AcDbEntity
8
0
100
AcDbPolyline
90
48
70
1
43
0.0
10
-12.000000000000007
20
70.650000000000006
42
-0.41421356237309437
10
-5.6500000000000039
20
77
10
22.216666666666658
20
77.000000000000014
42
0.16227766016837972
10
26.026666666666642
20
78.27000000000001
10
26.640000000000022
20
78.730000000000047
42
-0.1622776601683768
10
30.450000000000017
20
80.000000000000028
10
38.986782523487122
20
80.000000000000014
42
0.22783779158266904
10
43.945299463450375
20
82.383186448029434
10
44.1322011466033
20
82.61681355197058
42
-0.22783779158266693
10
49.09071808656654
20
85
10
58.671950650577323
20
85.000000000000014
42
-0.25076489093331211
10
63.955470019622638
20
82.17234624603023
10
64.185265014329616
20
81.827653753969756
42
0.25076489093331056
10
69.468784383374924
20
78.999999999999972
10
76.909281913429325
20
78.999999999999986
42
-0.22783779158247469
10
81.86779885338963
20
76.616813551974246
10
82.054700536548694
20
76.383186448025768
42
0.22783779158247361
10
87.013217476509013
20
74.000000000000014
10
92.649999999999324
20
74
42
-0.41421356237312418
10
98.999999999999318
20
67.649999999999395
10
98.999999999998607
20
60.349999999993848
42
0.41421356237312656
10
105.34999999999862
20
53.999999999993221
10
115.14999999999553
20
53.999999999993207
42
-0.41421356237309304
10
121.49999999999552
20
47.64999999999322
10
121.49999999999552
20
2.3499999999999872
42
-0.4142135623730967
10
115.14999999999553
20
-4.0000000000000142
10
105.96103004945641
20
-4.0000000000000204
42
0.297973376450131
10
100.14343097282591
20
-7.8048004039785468
10
99.972631326307422
20
-8.1951995960214727
42
-0.29797337645013472
10
94.155032249676921
20
-11.999999999999993
10
85.090718086569808
20
-11.999999999999993
42
-0.22783779158247458
10
80.132201146609475
20
-9.6168135519742393
10
79.945299463450411
20
-9.3831864480257625
42
0.22783779158247464
10
74.986782523490092
20
-7.0000000000000107
10
67.328049349422784
20
-7.0000000000000178
42
-0.25076489093330945
10
62.044529980377483
20
-4.1723462460302319
10
61.814734985670498
20
-3.8276537539697477
42
0.25076489093330923
10
56.531215616625197
20
-0.9999999999999698
10
51.013217476512864
20
-0.9999999999999698
42
0.22783779158267145
10
46.054700536549582
20
-3.3831864480294271
10
45.867798853396664
20
-3.6168135519705675
42
-0.2278377915826702
10
40.909281913433382
20
-6.0000000000000142
10
31.783333333333342
20
-6.0000000000000089
42
0.16227766016837972
10
27.973333333333343
20
-7.2700000000000031
10
27.360000000000003
20
-7.7300000000000093
42
-0.1622776601683793
10
23.550000000000011
20
-9.0000000000000036
10
-5.6500000000000004
20
-8.9999999999999964
42
-0.41421356237309453
10
-12.000000000000002
20
-2.6500000000000057
0
ENDSEC
0
SECTION
2
OBJECTS
0
DICTIONARY
5
C
100
AcDbDictionary
3
ACAD_GROUP
350
D
3
ACAD_MLINESTYLE
350
17
0
DICTIONARY
5
D
100
AcDbDictionary
0
DICTIONARY
5
1A
330
C
100
AcDbDictionary
0
DICTIONARY
5
17
100
AcDbDictionary
0
ENDSEC
0
EOF
