0
SECTION
2
HEADER
9
$INSUNITS
70
4
9
$ACADVER
1
AC1014
9
$HANDSEED
5
FFFF
0
ENDSEC
0
SECTION
2
TABLES
0
TABLE
2
VPORT
5
8
100
AcDbSymbolTable
0
ENDTAB
0
TABLE
2
LTYPE
5
5
100
AcDbSymbolTable
0
LTYPE
5
14
100
AcDbSymbolTableRecord
100
AcDbLinetypeTableRecord
2
BYBLOCK
70
0
0
LTYPE
5
15
100
AcDbSymbolTableRecord
100
AcDbLinetypeTableRecord
2
BYLAYER
70
0
0
ENDTAB
0
TABLE
2
LAYER
5
2
100
AcDbSymbolTable
70
2
0
LAYER
5
50
100
AcDbSymbolTableRecord
100
AcDbLayerTableRecord
2
0
70
0
6
CONTINUOUS
0
ENDTAB
0
TABLE
2
STYLE
5
3
100
AcDbSymbolTable
70
1
0
STYLE
5
11
100
AcDbSymbolTableRecord
100
AcDbTextStyleTableRecord
2
STANDARD
70
0
0
ENDTAB
0
TABLE
2
VIEW
5
6
100
AcDbSymbolTable
70
0
0
ENDTAB
0
TABLE
2
UCS
5
7
100
AcDbSymbolTable
70
0
0
ENDTAB
0
TABLE
2
APPID
5
9
100
AcDbSymbolTable
70
2
0
APPID
5
12
100
AcDbSymbolTableRecord
100
AcDbRegAppTableRecord
2
ACAD
70
0
0
ENDTAB
0
TABLE
2
DIMSTYLE
5
A
100
AcDbSymbolTable
70
1
0
ENDTAB
0
TABLE
2
BLOCK_RECORD
5
1
100
AcDbSymbolTable
70
1
0
BLOCK_RECORD
5
1F
100
AcDbSymbolTableRecord
100
AcDbBlockTableRecord
2
*MODEL_SPACE
0
BLOCK_RECORD
5
1B
100
AcDbSymbolTableRecord
100
AcDbBlockTableRecord
2
*PAPER_SPACE
0
ENDTAB
0
ENDSEC
0
SECTION
2
BLOCKS
0
BLOCK
5
20
100
AcDbEntity
100
AcDbBlockBegin
2
*MODEL_SPACE
0
ENDBLK
5
21
100
AcDbEntity
100
AcDbBlockEnd
0
BLOCK
5
1C
100
AcDbEntity
100
AcDbBlockBegin
2
*PAPER_SPACE
0
ENDBLK
5
1D
100
AcDbEntity
100
AcDbBlockEnd
0
ENDSEC
0
SECTION
2
ENTITIES
0
LINE
5
100
100
AcDbEntity
8
0
100
AcDbLine
10
7.0000000000000009
20
-7.0000000000000009
30
0
11
-7.0000000000000009
21
-7.0000000000000009
31
0
0
LINE
5
101
100
AcDbEntity
8
0
100
AcDbLine
10
-7.0000000000000009
20
-7.0000000000000009
30
0
11
-7.0000000000000009
21
7.0000000000000009
31
0
0
LINE
5
102
100
AcDbEntity
8
0
100
AcDbLine
10
-7.0000000000000009
20
7.0000000000000009
30
0
11
7.0000000000000009
21
7.0000000000000009
31
0
0
LINE
5
103
100
AcDbEntity
8
0
100
AcDbLine
10
7.0000000000000009
20
7.0000000000000009
30
0
11
7.0000000000000009
21
-7.0000000000000009
31
0
0
LINE
5
104
100
AcDbEntity
8
0
100
AcDbLine
10
7.0000000000000009
20
-7.0000000000000009
30
0
11
-7.0000000000000009
21
7.0000000000000009
31
0
0
LINE
5
105
100
AcDbEntity
8
0
100
AcDbLine
10
-7.0000000000000009
20
-7.0000000000000009
30
0
11
7.0000000000000009
21
7.0000000000000009
31
0
0
LINE
5
106
100
AcDbEntity
8
0
100
AcDbLine
10
-7.0000000000000009
20
10
30
0
11
-7.0000000000000009
21
24.000000000000004
31
0
0
LINE
5
107
100
AcDbEntity
8
0
100
AcDbLine
10
-7.0000000000000009
20
24.000000000000004
30
0
11
7.0000000000000009
21
24.000000000000004
31
0
0
LINE
5
108
100
AcDbEntity
8
0
100
AcDbLine
10
7.0000000000000009
20
24.000000000000004
30
0
11
7.0000000000000009
21
10
31
0
0
LINE
5
109
100
AcDbEntity
8
0
100
AcDbLine
10
7.0000000000000009
20
10
30
0
11
-7.0000000000000009
21
10
31
0
0
LINE
5
110
100
AcDbEntity
8
0
100
AcDbLine
10
-7.0000000000000009
20
27
30
0
11
-7.0000000000000009
21
41.000000000000007
31
0
0
LINE
5
111
100
AcDbEntity
8
0
100
AcDbLine
10
-7.0000000000000009
20
41.000000000000007
30
0
11
7.0000000000000009
21
41.000000000000007
31
0
0
LINE
5
112
100
AcDbEntity
8
0
100
AcDbLine
10
7.0000000000000009
20
41.000000000000007
30
0
11
7.0000000000000009
21
27
31
0
0
LINE
5
113
100
AcDbEntity
8
0
100
AcDbLine
10
7.0000000000000009
20
27
30
0
11
-7.0000000000000009
21
27
31
0
0
LINE
5
114
100
AcDbEntity
8
0
100
AcDbLine
10
-7.0000000000000009
20
44
30
0
11
-7.0000000000000009
21
58.000000000000007
31
0
0
LINE
5
115
100
AcDbEntity
8
0
100
AcDbLine
10
-7.0000000000000009
20
58.000000000000007
30
0
11
7.0000000000000009
21
58.000000000000007
31
0
0
LINE
5
116
100
AcDbEntity
8
0
100
AcDbLine
10
7.0000000000000009
20
58.000000000000007
30
0
11
7.0000000000000009
21
44
31
0
0
LINE
5
117
100
AcDbEntity
8
0
100
AcDbLine
10
7.0000000000000009
20
44
30
0
11
-7.0000000000000009
21
44
31
0
0
LINE
5
118
100
AcDbEntity
8
0
100
AcDbLine
10
24.999999999999865
20
-4.4071457071369595
30
0
11
10.999999999999673
21
-4.4071457071367472
31
0
0
LINE
5
119
100
AcDbEntity
8
0
100
AcDbLine
10
10.999999999999673
20
-4.4071457071367472
30
0
11
10.999999999999703
21
9.5928542928632528
31
0
0
LINE
5
120
100
AcDbEntity
8
0
100
AcDbLine
10
10.999999999999703
20
9.5928542928632528
30
0
11
24.999999999999687
21
9.5928542928632581
31
0
0
LINE
5
121
100
AcDbEntity
8
0
100
AcDbLine
10
24.999999999999687
20
9.5928542928632581
30
0
11
24.999999999999865
21
-4.4071457071369595
31
0
0
LINE
5
122
100
AcDbEntity
8
0
100
AcDbLine
10
24.999999999999865
20
-4.4071457071369595
30
0
11
10.999999999999703
21
9.5928542928632528
31
0
0
LINE
5
123
100
AcDbEntity
8
0
100
AcDbLine
10
10.999999999999673
20
-4.4071457071367472
30
0
11
24.999999999999687
21
9.5928542928632581
31
0
0
LWPOLYLINE
5
124
100
AcDbEntity
8
0
100
AcDbPolyline
90
4
70
1
43
0.0
10
10.999999999999673
20
12.592854292863255
10
24.999999999999865
20
12.592854292863045
10
24.999999999999687
20
26.592854292863258
10
10.999999999999703
20
26.592854292863251
0
LWPOLYLINE
5
125
100
AcDbEntity
8
0
100
AcDbPolyline
90
4
70
1
43
0.0
10
10.999999999999673
20
29.592854292863255
10
24.999999999999865
20
29.592854292863045
10
24.999999999999687
20
43.592854292863265
10
10.999999999999703
20
43.592854292863251
0
LINE
5
126
100
AcDbEntity
8
0
100
AcDbLine
10
24.999999999999865
20
46.592854292863052
30
0
11
10.999999999999673
21
46.592854292863265
31
0
0
LINE
5
127
100
AcDbEntity
8
0
100
AcDbLine
10
10.999999999999673
20
46.592854292863265
30
0
11
10.999999999999703
21
60.592854292863258
31
0
0
LINE
5
128
100
AcDbEntity
8
0
100
AcDbLine
10
10.999999999999703
20
60.592854292863258
30
0
11
24.999999999999687
21
60.592854292863265
31
0
0
LINE
5
129
100
AcDbEntity
8
0
100
AcDbLine
10
24.999999999999687
20
60.592854292863265
30
0
11
24.999999999999865
21
46.592854292863052
31
0
0
LINE
5
130
100
AcDbEntity
8
0
100
AcDbLine
10
-7.0000000000000009
20
10
30
0
11
7.0000000000000009
21
24.000000000000004
31
0
0
LINE
5
131
100
AcDbEntity
8
0
100
AcDbLine
10
7.0000000000000009
20
10
30
0
11
-7.0000000000000009
21
24.000000000000004
31
0
0
LINE
5
132
100
AcDbEntity
8
0
100
AcDbLine
10
-7.0000000000000009
20
27
30
0
11
7.0000000000000009
21
41.000000000000007
31
0
0
LINE
5
133
100
AcDbEntity
8
0
100
AcDbLine
10
7.0000000000000009
20
27
30
0
11
-7.0000000000000009
21
41.000000000000007
31
0
0
LINE
5
134
100
AcDbEntity
8
0
100
AcDbLine
10
-7.0000000000000009
20
44
30
0
11
7.0000000000000009
21
58.000000000000007
31
0
0
LINE
5
135
100
AcDbEntity
8
0
100
AcDbLine
10
7.0000000000000009
20
44
30
0
11
-7.0000000000000009
21
58.000000000000007
31
0
0
CIRCLE
5
136
100
AcDbEntity
8
0
100
AcDbCircle
10
18.000000000000004
20
-0.40714570713682008
30
0
40
0.50000000000000033
210
0
220
0
230
1
0
LINE
5
137
100
AcDbEntity
8
0
100
AcDbLine
10
42.999999999996973
20
0.59285429285930979
30
0
11
28.999999999996867
21
0.59285429285929125
31
0
0
LINE
5
138
100
AcDbEntity
8
0
100
AcDbLine
10
28.999999999996867
20
0.59285429285929125
30
0
11
28.999999999996824
21
14.592854292859538
31
0
0
LINE
5
139
100
AcDbEntity
8
0
100
AcDbLine
10
28.999999999996824
20
14.592854292859538
30
0
11
42.99999999999693
21
14.592854292859329
31
0
0
LINE
5
140
100
AcDbEntity
8
0
100
AcDbLine
10
42.99999999999693
20
14.592854292859329
30
0
11
42.999999999996973
21
0.59285429285930979
31
0
0
LINE
5
141
100
AcDbEntity
8
0
100
AcDbLine
10
42.999999999996973
20
0.59285429285930979
30
0
11
28.999999999996824
21
14.592854292859538
31
0
0
LINE
5
142
100
AcDbEntity
8
0
100
AcDbLine
10
28.999999999996867
20
0.59285429285929125
30
0
11
42.99999999999693
21
14.592854292859329
31
0
0
LWPOLYLINE
5
143
100
AcDbEntity
8
0
100
AcDbPolyline
90
4
70
1
43
0.0
10
28.999999999996867
20
17.592854292859293
10
42.999999999996973
20
17.592854292859311
10
42.99999999999693
20
31.592854292859332
10
28.999999999996824
20
31.592854292859542
0
LWPOLYLINE
5
144
100
AcDbEntity
8
0
100
AcDbPolyline
90
4
70
1
43
0.0
10
28.999999999996867
20
34.592854292859293
10
42.999999999996973
20
34.592854292859307
10
42.99999999999693
20
48.592854292859329
10
28.999999999996824
20
48.592854292859542
0
LINE
5
145
100
AcDbEntity
8
0
100
AcDbLine
10
42.999999999996973
20
51.592854292859315
30
0
11
28.999999999996867
21
51.5928542928593
31
0
0
LINE
5
146
100
AcDbEntity
8
0
100
AcDbLine
10
28.999999999996867
20
51.5928542928593
30
0
11
28.999999999996824
21
65.592854292859542
31
0
0
LINE
5
147
100
AcDbEntity
8
0
100
AcDbLine
10
28.999999999996824
20
65.592854292859542
30
0
11
42.99999999999693
21
65.592854292859343
31
0
0
LINE
5
148
100
AcDbEntity
8
0
100
AcDbLine
10
42.99999999999693
20
65.592854292859343
30
0
11
42.999999999996973
21
51.592854292859315
31
0
0
LINE
5
149
100
AcDbEntity
8
0
100
AcDbLine
10
60.999999999996497
20
-5.4071457071402094
30
0
11
46.999999999996618
21
-5.4071457071402769
31
0
0
LINE
5
150
100
AcDbEntity
8
0
100
AcDbLine
10
46.999999999996618
20
-5.4071457071402769
30
0
11
46.999999999996504
21
8.5928542928597533
31
0
0
LINE
5
151
100
AcDbEntity
8
0
100
AcDbLine
10
46.999999999996504
20
8.5928542928597533
30
0
11
60.99999999999654
21
8.5928542928596645
31
0
0
LINE
5
152
100
AcDbEntity
8
0
100
AcDbLine
10
60.99999999999654
20
8.5928542928596645
30
0
11
60.999999999996497
21
-5.4071457071402094
31
0
0
LINE
5
153
100
AcDbEntity
8
0
100
AcDbLine
10
60.999999999996497
20
-5.4071457071402094
30
0
11
46.999999999996504
21
8.5928542928597533
31
0
0
LINE
5
154
100
AcDbEntity
8
0
100
AcDbLine
10
46.999999999996618
20
-5.4071457071402769
30
0
11
60.99999999999654
21
8.5928542928596645
31
0
0
LWPOLYLINE
5
155
100
AcDbEntity
8
0
100
AcDbPolyline
90
4
70
1
43
0.0
10
46.999999999996618
20
11.592854292859727
10
60.999999999996497
20
11.592854292859794
10
60.99999999999654
20
25.59285429285967
10
46.999999999996504
20
25.592854292859755
0
LWPOLYLINE
5
156
100
AcDbEntity
8
0
100
AcDbPolyline
90
4
70
1
43
0.0
10
46.999999999996618
20
28.592854292859727
10
60.999999999996497
20
28.592854292859794
10
60.99999999999654
20
42.59285429285967
10
46.999999999996504
20
42.592854292859755
0
LINE
5
157
100
AcDbEntity
8
0
100
AcDbLine
10
60.999999999996497
20
45.592854292859791
30
0
11
46.999999999996618
21
45.592854292859727
31
0
0
LINE
5
158
100
AcDbEntity
8
0
100
AcDbLine
10
46.999999999996618
20
45.592854292859727
30
0
11
46.999999999996504
21
59.592854292859762
31
0
0
LINE
5
159
100
AcDbEntity
8
0
100
AcDbLine
10
46.999999999996504
20
59.592854292859762
30
0
11
60.99999999999654
21
59.59285429285967
31
0
0
LINE
5
160
100
AcDbEntity
8
0
100
AcDbLine
10
60.99999999999654
20
59.59285429285967
30
0
11
60.999999999996497
21
45.592854292859791
31
0
0
LINE
5
161
100
AcDbEntity
8
0
100
AcDbLine
10
79.000000000000213
20
-10.407145707136621
30
0
11
64.999999999999645
21
-10.407145707136733
31
0
0
LINE
5
162
100
AcDbEntity
8
0
100
AcDbLine
10
64.999999999999645
20
-10.407145707136733
30
0
11
64.999999999999574
21
3.5928542928634215
31
0
0
LINE
5
163
100
AcDbEntity
8
0
100
AcDbLine
10
64.999999999999574
20
3.5928542928634215
30
0
11
79.000000000000213
21
3.5928542928633664
31
0
0
LINE
5
164
100
AcDbEntity
8
0
100
AcDbLine
10
79.000000000000213
20
3.5928542928633664
30
0
11
79.000000000000213
21
-10.407145707136621
31
0
0
LINE
5
165
100
AcDbEntity
8
0
100
AcDbLine
10
79.000000000000213
20
-10.407145707136621
30
0
11
64.999999999999574
21
3.5928542928634215
31
0
0
LINE
5
166
100
AcDbEntity
8
0
100
AcDbLine
10
64.999999999999645
20
-10.407145707136733
30
0
11
79.000000000000213
21
3.5928542928633664
31
0
0
LWPOLYLINE
5
167
100
AcDbEntity
8
0
100
AcDbPolyline
90
4
70
1
43
0.0
10
64.999999999999645
20
6.5928542928632687
10
79.000000000000213
20
6.5928542928633815
10
79.000000000000213
20
20.592854292863372
10
64.999999999999574
20
20.592854292863425
0
LWPOLYLINE
5
168
100
AcDbEntity
8
0
100
AcDbPolyline
90
4
70
1
43
0.0
10
64.999999999999645
20
23.592854292863272
10
79.000000000000213
20
23.592854292863382
10
79.000000000000213
20
37.592854292863372
10
64.999999999999574
20
37.592854292863429
0
LINE
5
169
100
AcDbEntity
8
0
100
AcDbLine
10
79.000000000000213
20
40.592854292863393
30
0
11
64.999999999999645
21
40.592854292863272
31
0
0
LINE
5
170
100
AcDbEntity
8
0
100
AcDbLine
10
64.999999999999645
20
40.592854292863272
30
0
11
64.999999999999574
21
54.592854292863429
31
0
0
LINE
5
171
100
AcDbEntity
8
0
100
AcDbLine
10
64.999999999999574
20
54.592854292863429
30
0
11
79.000000000000213
21
54.592854292863379
31
0
0
LINE
5
172
100
AcDbEntity
8
0
100
AcDbLine
10
79.000000000000213
20
54.592854292863379
30
0
11
79.000000000000213
21
40.592854292863393
31
0
0
LINE
5
173
100
AcDbEntity
8
0
100
AcDbLine
10
96.499999999994102
20
-2.4071457071368383
30
0
11
82.49999999999406
21
-2.4071457071368352
31
0
0
LINE
5
174
100
AcDbEntity
8
0
100
AcDbLine
10
82.49999999999406
20
-2.4071457071368352
30
0
11
82.499999999994088
21
11.592854292863166
31
0
0
LINE
5
175
100
AcDbEntity
8
0
100
AcDbLine
10
82.499999999994088
20
11.592854292863166
30
0
11
96.499999999994074
21
11.592854292863189
31
0
0
LINE
5
176
100
AcDbEntity
8
0
100
AcDbLine
10
96.499999999994074
20
11.592854292863189
30
0
11
96.499999999994102
21
-2.4071457071368383
31
0
0
LINE
5
177
100
AcDbEntity
8
0
100
AcDbLine
10
96.499999999994102
20
-2.4071457071368383
30
0
11
82.499999999994088
21
11.592854292863166
31
0
0
LINE
5
178
100
AcDbEntity
8
0
100
AcDbLine
10
82.49999999999406
20
-2.4071457071368352
30
0
11
96.499999999994074
21
11.592854292863189
31
0
0
LWPOLYLINE
5
179
100
AcDbEntity
8
0
100
AcDbPolyline
90
4
70
1
43
0.0
10
99.500000000000227
20
54.59285429286318
10
82.000000000000227
20
54.59285429286318
10
82.000000000000227
20
14.592854292863194
10
99.500000000000227
20
14.592854292863194
0
LINE
5
180
100
AcDbEntity
8
0
100
AcDbLine
10
-7.0000000000000009
20
58.000000000000007
30
0
11
7.0000000000000009
21
58.000000000000007
31
0
0
LINE
5
181
100
AcDbEntity
8
0
100
AcDbLine
10
10.999999999999703
20
60.592854292863258
30
0
11
7.0000000000000009
21
58.000000000000007
31
0
0
LINE
5
182
100
AcDbEntity
8
0
100
AcDbLine
10
24.999999999999687
20
60.592854292863265
30
0
11
10.999999999999703
21
60.592854292863258
31
0
0
LINE
5
183
100
AcDbEntity
8
0
100
AcDbLine
10
24.999999999999687
20
60.592854292863265
30
0
11
28.999999999996824
21
65.592854292859542
31
0
0
LINE
5
184
100
AcDbEntity
8
0
100
AcDbLine
10
28.999999999996824
20
65.592854292859542
30
0
11
42.99999999999693
21
65.592854292859343
31
0
0
LINE
5
185
100
AcDbEntity
8
0
100
AcDbLine
10
42.99999999999693
20
65.592854292859343
30
0
11
46.999999999996504
21
59.592854292859762
31
0
0
LINE
5
186
100
AcDbEntity
8
0
100
AcDbLine
10
46.999999999996504
20
59.592854292859762
30
0
11
60.99999999999654
21
59.59285429285967
31
0
0
LINE
5
187
100
AcDbEntity
8
0
100
AcDbLine
10
60.99999999999654
20
59.59285429285967
30
0
11
64.999999999999574
21
54.592854292863429
31
0
0
LINE
5
188
100
AcDbEntity
8
0
100
AcDbLine
10
64.999999999999574
20
54.592854292863429
30
0
11
79.000000000000213
21
54.592854292863379
31
0
0
LINE
5
189
100
AcDbEntity
8
0
100
AcDbLine
10
79.000000000000213
20
54.592854292863379
30
0
11
79.000000000000213
21
11.592854292863169
31
0
0
LINE
5
190
100
AcDbEntity
8
0
100
AcDbLine
10
82.499999999994088
20
11.592854292863166
30
0
11
79.000000000000213
21
11.592854292863169
31
0
0
LINE
5
191
100
AcDbEntity
8
0
100
AcDbLine
10
82.499999999994088
20
11.592854292863166
30
0
11
96.499999999994074
21
11.592854292863189
31
0
0
LINE
5
192
100
AcDbEntity
8
0
100
AcDbLine
10
96.499999999994074
20
11.592854292863189
30
0
11
96.499999999994102
21
-2.4071457071368383
31
0
0
LINE
5
193
100
AcDbEntity
8
0
100
AcDbLine
10
96.499999999994102
20
-2.4071457071368383
30
0
11
82.49999999999406
21
-2.4071457071368352
31
0
0
LINE
5
194
100
AcDbEntity
8
0
100
AcDbLine
10
82.49999999999406
20
-2.4071457071368352
30
0
11
79.000000000000213
21
-10.407145707136621
31
0
0
LINE
5
195
100
AcDbEntity
8
0
100
AcDbLine
10
79.000000000000213
20
-10.407145707136621
30
0
11
64.999999999999645
21
-10.407145707136733
31
0
0
LINE
5
196
100
AcDbEntity
8
0
100
AcDbLine
10
64.999999999999645
20
-10.407145707136733
30
0
11
60.999999999996497
21
-5.4071457071402094
31
0
0
LINE
5
197
100
AcDbEntity
8
0
100
AcDbLine
10
60.999999999996497
20
-5.4071457071402094
30
0
11
46.999999999996618
21
-5.4071457071402769
31
0
0
LINE
5
198
100
AcDbEntity
8
0
100
AcDbLine
10
46.999999999996618
20
-5.4071457071402769
30
0
11
42.999999999996973
21
0.59285429285930979
31
0
0
LINE
5
199
100
AcDbEntity
8
0
100
AcDbLine
10
42.999999999996973
20
0.59285429285930979
30
0
11
28.999999999996845
21
0.59285429285926539
31
0
0
LINE
5
200
100
AcDbEntity
8
0
100
AcDbLine
10
28.999999999996845
20
0.59285429285926539
30
0
11
24.999999999999865
21
-4.4071457071369595
31
0
0
LINE
5
201
100
AcDbEntity
8
0
100
AcDbLine
10
24.999999999999865
20
-4.4071457071369595
30
0
11
10.999999999999673
21
-4.4071457071367472
31
0
0
LINE
5
202
100
AcDbEntity
8
0
100
AcDbLine
10
10.999999999999673
20
-4.4071457071367472
30
0
11
7.0000000000000009
21
-7.0000000000000009
31
0
0
LINE
5
203
100
AcDbEntity
8
0
100
AcDbLine
10
7.0000000000000009
20
-7.0000000000000009
30
0
11
-7.0000000000000009
21
-7.0000000000000009
31
0
0
LINE
5
204
100
AcDbEntity
8
0
100
AcDbLine
10
-7.0000000000000009
20
-7.0000000000000009
30
0
11
-7.0000000000000009
21
58.000000000000007
31
0
0
LWPOLYLINE
5
205
100
AcDbEntity
8
0
100
AcDbPolyline
90
25
70
1
43
0.0
10
-10
20
61.000000000000007
10
-10
20
-10
10
7.887269620373683
20
-10
10
11.887269620373328
20
-7.4071457071367606
10
26.441874542459555
20
-7.4071457071369817
10
30.441874542456556
20
-2.4071457071407307
10
41.394448724532964
20
-2.4071457071406965
10
45.394448724532609
20
-8.4071457071402858
10
59.558125457538125
20
-8.4071457071402182
10
63.55812545754128
20
-13.407145707136747
10
80.962046724359013
20
-13.407145707136605
10
84.462046724352859
20
-5.407145707136837
10
99.499999999994117
20
-5.4071457071368423
10
99.499999999994074
20
14.592854292863194
10
82.499999999994088
20
14.592854292863166
10
82.000000000000227
20
14.592854292863162
10
82.000000000000227
20
57.592854292863365
10
66.441874542457938
20
57.592854292863422
10
62.441874542454904
20
62.592854292859663
10
48.605551275460535
20
62.592854292859748
10
44.605551275460975
20
68.592854292859315
10
27.558125457537152
20
68.592854292859556
10
23.558125457540001
20
63.592854292863265
10
10.112730379626027
20
63.592854292863251
10
6.1127303796263277
20
61.000000000000007
0
ENDSEC
0
SECTION
2
OBJECTS
0
DICTIONARY
5
C
100
AcDbDictionary
3
ACAD_GROUP
350
D
3
ACAD_MLINESTYLE
350
17
0
DICTIONARY
5
D
100
AcDbDictionary
0
DICTIONARY
5
1A
330
C
100
AcDbDictionary
0
DICTIONARY
5
17
100
AcDbDictionary
0
ENDSEC
0
EOF
