0
SECTION
2
HEADER
9
$INSUNITS
70
4
9
$ACADVER
1
AC1014
9
$HANDSEED
5
FFFF
0
ENDSEC
0
SECTION
2
TABLES
0
TABLE
2
VPORT
5
8
100
AcDbSymbolTable
0
ENDTAB
0
TABLE
2
LTYPE
5
5
100
AcDbSymbolTable
0
LTYPE
5
14
100
AcDbSymbolTableRecord
100
AcDbLinetypeTableRecord
2
BYBLOCK
70
0
0
LTYPE
5
15
100
AcDbSymbolTableRecord
100
AcDbLinetypeTableRecord
2
BYLAYER
70
0
0
ENDTAB
0
TABLE
2
LAYER
5
2
100
AcDbSymbolTable
70
2
0
LAYER
5
50
100
AcDbSymbolTableRecord
100
AcDbLayerTableRecord
2
0
70
0
6
CONTINUOUS
0
ENDTAB
0
TABLE
2
STYLE
5
3
100
AcDbSymbolTable
70
1
0
STYLE
5
11
100
AcDbSymbolTableRecord
100
AcDbTextStyleTableRecord
2
STANDARD
70
0
0
ENDTAB
0
TABLE
2
VIEW
5
6
100
AcDbSymbolTable
70
0
0
ENDTAB
0
TABLE
2
UCS
5
7
100
AcDbSymbolTable
70
0
0
ENDTAB
0
TABLE
2
APPID
5
9
100
AcDbSymbolTable
70
2
0
APPID
5
12
100
AcDbSymbolTableRecord
100
AcDbRegAppTableRecord
2
ACAD
70
0
0
ENDTAB
0
TABLE
2
DIMSTYLE
5
A
100
AcDbSymbolTable
70
1
0
ENDTAB
0
TABLE
2
BLOCK_RECORD
5
1
100
AcDbSymbolTable
70
1
0
BLOCK_RECORD
5
1F
100
AcDbSymbolTableRecord
100
AcDbBlockTableRecord
2
*MODEL_SPACE
0
BLOCK_RECORD
5
1B
100
AcDbSymbolTableRecord
100
AcDbBlockTableRecord
2
*PAPER_SPACE
0
ENDTAB
0
ENDSEC
0
SECTION
2
BLOCKS
0
BLOCK
5
20
100
AcDbEntity
100
AcDbBlockBegin
2
*MODEL_SPACE
0
ENDBLK
5
21
100
AcDbEntity
100
AcDbBlockEnd
0
BLOCK
5
1C
100
AcDbEntity
100
AcDbBlockBegin
2
*PAPER_SPACE
0
ENDBLK
5
1D
100
AcDbEntity
100
AcDbBlockEnd
0
ENDSEC
0
SECTION
2
ENTITIES
0
LWPOLYLINE
5
100
100
AcDbEntity
8
0
100
AcDbPolyline
90
49
70
1
43
0.0
10
79.480390339130309
20
76.399512076087092
10
82.519609660869676
20
72.600487923912922
42
0.22783779158267534
10
83.768999755978513
20
72.000000000000014
10
95.40009746359101
20
72
42
-0.41419572042666875
10
97.000097460622342
20
70.400097466559515
10
97.000755371774844
20
59.599902533440535
42
0.41419572042665898
10
98.600755368806219
20
57.999999999999986
10
117.89999999999999
20
58.000000000000007
42
-0.41421356237309503
10
119.5
20
56.400000000000006
10
119.5
20
-0.400000000000033
42
-0.41421356237309503
10
117.89999999999999
20
-2.0000000000000373
10
101.9888543819998
20
-2.0000000000000284
42
0.2840790438404196
10
100.55777087639994
20
-2.884458247200099
10
97.442229123600029
20
-9.1155417527999223
42
-0.28407904384042093
10
96.011145618000171
20
-9.9999999999999911
10
83.768999755978513
20
-10.000000000000002
42
-0.2278377915826737
10
82.519609660869676
20
-9.3995120760870865
10
79.480390339130324
20
-5.6004879239129233
42
0.22783779158267023
10
78.231000244021487
20
-5
10
65.856294013580779
20
-5
42
-0.25076489093330739
10
64.525013542640224
20
-4.2875203139603624
10
61.474986457359776
20
0.28752031396036465
42
0.25076489093330756
10
60.143705986419214
20
1.0000000000000053
10
47.768999755978513
20
1.0000000000000047
42
0.2278377915826694
10
46.519609660869676
20
0.39951207608708295
10
43.480390339130324
20
-3.3995120760870772
42
-0.22783779158267137
10
42.231000244021487
20
-3.9999999999999947
10
29.533333333333331
20
-3.9999999999999969
42
0.16227766016838155
10
28.573333333333331
20
-4.319999999999995
10
25.426666666666669
20
-6.6799999999999971
42
-0.1622776601683818
10
24.466666666666672
20
-7.0000000000000018
10
-5.4000000000000004
20
-6.9999999999999929
42
-0.41421356237309503
10
-6.9999999999999929
20
-5.4000000000000004
10
-7.0000000000000062
20
73.399999999800954
42
-0.41421356240953033
10
-5.3999999998009685
20
74.999999999800963
10
7.0000000000000018
20
75.000000000000014
10
24.466666673190684
20
74.999999996085592
42
0.1622776582851628
10
25.426666661447442
20
75.319999996085599
10
28.573333333333327
20
77.680000000000007
42
-0.16227766016837236
10
29.533333333333331
20
78
10
42.231000244021473
20
78
42
0.22783779158265671
10
43.480390339130317
20
78.600487923912937
10
46.519609660869669
20
82.399512076087092
42
-0.22783779158267406
10
47.768999755978513
20
83
10
60.143705986419214
20
83
42
-0.25076489093331616
10
61.474986457359776
20
82.287520313960357
10
64.525013542640224
20
77.712479686039643
42
0.25076489093331056
10
65.856294013580779
20
77.000000000000014
10
78.231000244021473
20
77.000000000000014
42
-0.2278377915826619
0
ENDSEC
0
SECTION
2
OBJECTS
0
DICTIONARY
5
C
100
AcDbDictionary
3
ACAD_GROUP
350
D
3
ACAD_MLINESTYLE
350
17
0
DICTIONARY
5
D
100
AcDbDictionary
0
DICTIONARY
5
1A
330
C
100
AcDbDictionary
0
DICTIONARY
5
17
100
AcDbDictionary
0
ENDSEC
0
EOF
