0
SECTION
2
HEADER
9
$INSUNITS
70
4
9
$ACADVER
1
AC1014
9
$HANDSEED
5
FFFF
0
ENDSEC
0
SECTION
2
TABLES
0
TABLE
2
VPORT
5
8
100
AcDbSymbolTable
0
ENDTAB
0
TABLE
2
LTYPE
5
5
100
AcDbSymbolTable
0
LTYPE
5
14
100
AcDbSymbolTableRecord
100
AcDbLinetypeTableRecord
2
BYBLOCK
70
0
0
LTYPE
5
15
100
AcDbSymbolTableRecord
100
AcDbLinetypeTableRecord
2
BYLAYER
70
0
0
ENDTAB
0
TABLE
2
LAYER
5
2
100
AcDbSymbolTable
70
2
0
LAYER
5
50
100
AcDbSymbolTableRecord
100
AcDbLayerTableRecord
2
0
70
0
6
CONTINUOUS
0
ENDTAB
0
TABLE
2
STYLE
5
3
100
AcDbSymbolTable
70
1
0
STYLE
5
11
100
AcDbSymbolTableRecord
100
AcDbTextStyleTableRecord
2
STANDARD
70
0
0
ENDTAB
0
TABLE
2
VIEW
5
6
100
AcDbSymbolTable
70
0
0
ENDTAB
0
TABLE
2
UCS
5
7
100
AcDbSymbolTable
70
0
0
ENDTAB
0
TABLE
2
APPID
5
9
100
AcDbSymbolTable
70
2
0
APPID
5
12
100
AcDbSymbolTableRecord
100
AcDbRegAppTableRecord
2
ACAD
70
0
0
ENDTAB
0
TABLE
2
DIMSTYLE
5
A
100
AcDbSymbolTable
70
1
0
ENDTAB
0
TABLE
2
BLOCK_RECORD
5
1
100
AcDbSymbolTable
70
1
0
BLOCK_RECORD
5
1F
100
AcDbSymbolTableRecord
100
AcDbBlockTableRecord
2
*MODEL_SPACE
0
BLOCK_RECORD
5
1B
100
AcDbSymbolTableRecord
100
AcDbBlockTableRecord
2
*PAPER_SPACE
0
ENDTAB
0
ENDSEC
0
SECTION
2
BLOCKS
0
BLOCK
5
20
100
AcDbEntity
100
AcDbBlockBegin
2
*MODEL_SPACE
0
ENDBLK
5
21
100
AcDbEntity
100
AcDbBlockEnd
0
BLOCK
5
1C
100
AcDbEntity
100
AcDbBlockBegin
2
*PAPER_SPACE
0
ENDBLK
5
1D
100
AcDbEntity
100
AcDbBlockEnd
0
ENDSEC
0
SECTION
2
ENTITIES
0
LWPOLYLINE
5
100
100
AcDbEntity
8
0
100
AcDbPolyline
90
48
70
1
43
0.0
10
-6.8000000000000016
20
78
10
22.933333333333326
20
78
42
0.16227766016837999
10
24.853333333333325
20
78.640000000000015
10
27.14666666666669
20
80.360000000000028
42
-0.1622776601683702
10
29.066666666666666
20
81.000000000000014
10
40.020125945583246
20
81.000000000000014
42
0.22783779158266318
10
42.518906135800954
20
82.200975847825859
10
44.597344779279602
20
84.799024152174184
42
-0.22783779158267112
10
47.096124969497311
20
86.000000000000057
10
60.892963248302401
20
86.000000000000071
42
-0.25076489093331533
10
63.555524190183505
20
84.575040627920799
10
65.655578360744499
20
81.424959372079272
42
0.250764890933314
10
68.318139302625625
20
80
10
78.903875030502803
20
80
42
-0.22783779158247855
10
81.402655220719012
20
78.799024152175988
10
83.481093864203686
20
76.200975847824111
42
0.22783779158247916
10
85.979874054419867
20
75.000000000000099
10
96.800000000005966
20
75.000000000000085
42
-0.41421356237309098
10
100.00000000000597
20
71.800000000000097
10
100.00000000000597
20
53.200000263148972
42
0.41421356237309176
10
103.20000000000597
20
50.000000263148969
10
114.3
20
50.000000263148969
42
-0.41421356237309176
10
117.5
20
46.800000263148966
10
117.50000000000003
20
-1.8000000000000258
42
-0.4142135623730942
10
114.30000000000004
20
-5.0000000000000178
10
104.55489656367479
20
-5.0000000000000284
42
0.29797337645012822
10
101.62319309198699
20
-6.9173797311387908
10
99.800900356736548
20
-11.082620268861143
42
-0.29797337645013294
10
96.869196885048751
20
-12.999999999999918
10
83.096124969503236
20
-12.999999999999918
42
-0.22783779158247702
10
80.597344779287013
20
-11.799024152175903
10
78.518906135802354
20
-9.200975847824008
42
0.2278377915824768
10
76.020125945586145
20
-8.0000000000000071
10
65.107036751697635
20
-8.0000000000000107
42
-0.25076489093331134
10
62.444475809816531
20
-6.5750406279207496
10
60.344421639255501
20
-3.4249593720792202
42
0.25076489093331467
10
57.681860697374404
20
-1.9999999999999574
10
49.979874054416726
20
-1.9999999999999618
42
0.22783779158266992
10
47.481093864199018
20
-3.2009758478258199
10
45.402655220720391
20
-5.7990241521741472
42
-0.22783779158266751
10
42.903875030502675
20
-7.0000000000000107
10
31.066666666666663
20
-7.0000000000000027
42
0.1622776601683773
10
29.146666666666661
20
-7.6400000000000112
10
26.853333333333332
20
-9.3599999999999977
42
-0.16227766016837794
10
24.93333333333333
20
-10
10
-6.7999999999999927
20
-10
42
-0.41421356237309609
10
-10
20
-6.7999999999999972
10
-9.9999999999999982
20
74.800000000000011
42
-0.41421356237309442
0
ENDSEC
0
SECTION
2
OBJECTS
0
DICTIONARY
5
C
100
AcDbDictionary
3
ACAD_GROUP
350
D
3
ACAD_MLINESTYLE
350
17
0
DICTIONARY
5
D
100
AcDbDictionary
0
DICTIONARY
5
1A
330
C
100
AcDbDictionary
0
DICTIONARY
5
17
100
AcDbDictionary
0
ENDSEC
0
EOF
