0
SECTION
2
HEADER
9
$INSUNITS
70
4
9
$ACADVER
1
AC1014
9
$HANDSEED
5
FFFF
0
ENDSEC
0
SECTION
2
TABLES
0
TABLE
2
VPORT
5
8
100
AcDbSymbolTable
0
ENDTAB
0
TABLE
2
LTYPE
5
5
100
AcDbSymbolTable
0
LTYPE
5
14
100
AcDbSymbolTableRecord
100
AcDbLinetypeTableRecord
2
BYBLOCK
70
0
0
LTYPE
5
15
100
AcDbSymbolTableRecord
100
AcDbLinetypeTableRecord
2
BYLAYER
70
0
0
ENDTAB
0
TABLE
2
LAYER
5
2
100
AcDbSymbolTable
70
2
0
LAYER
5
50
100
AcDbSymbolTableRecord
100
AcDbLayerTableRecord
2
0
70
0
6
CONTINUOUS
0
ENDTAB
0
TABLE
2
STYLE
5
3
100
AcDbSymbolTable
70
1
0
STYLE
5
11
100
AcDbSymbolTableRecord
100
AcDbTextStyleTableRecord
2
STANDARD
70
0
0
ENDTAB
0
TABLE
2
VIEW
5
6
100
AcDbSymbolTable
70
0
0
ENDTAB
0
TABLE
2
UCS
5
7
100
AcDbSymbolTable
70
0
0
ENDTAB
0
TABLE
2
APPID
5
9
100
AcDbSymbolTable
70
2
0
APPID
5
12
100
AcDbSymbolTableRecord
100
AcDbRegAppTableRecord
2
ACAD
70
0
0
ENDTAB
0
TABLE
2
DIMSTYLE
5
A
100
AcDbSymbolTable
70
1
0
ENDTAB
0
TABLE
2
BLOCK_RECORD
5
1
100
AcDbSymbolTable
70
1
0
BLOCK_RECORD
5
1F
100
AcDbSymbolTableRecord
100
AcDbBlockTableRecord
2
*MODEL_SPACE
0
BLOCK_RECORD
5
1B
100
AcDbSymbolTableRecord
100
AcDbBlockTableRecord
2
*PAPER_SPACE
0
ENDTAB
0
ENDSEC
0
SECTION
2
BLOCKS
0
BLOCK
5
20
100
AcDbEntity
100
AcDbBlockBegin
2
*MODEL_SPACE
0
ENDBLK
5
21
100
AcDbEntity
100
AcDbBlockEnd
0
BLOCK
5
1C
100
AcDbEntity
100
AcDbBlockBegin
2
*PAPER_SPACE
0
ENDBLK
5
1D
100
AcDbEntity
100
AcDbBlockEnd
0
ENDSEC
0
SECTION
2
ENTITIES
0
LWPOLYLINE
5
100
100
AcDbEntity
8
0
100
AcDbPolyline
90
48
70
1
43
0.0
10
26.306666666666672
20
79.730000000000018
42
-0.16227766016837952
10
30.116666666666667
20
81.000000000000014
10
38.506157676000534
20
81.000000000000014
42
0.22783779158266909
10
43.464674615963794
20
83.38318644802942
10
43.651576299116748
20
83.616813551970623
42
-0.22783779158266598
10
48.610093239080001
20
86.000000000000057
10
59.207134409065183
20
86.000000000000071
42
-0.25076489093331145
10
64.490653778110513
20
83.172346246030287
10
64.72044877281752
20
82.82765375396977
42
0.25076489093331039
10
70.003968141862828
20
80
10
77.389906760921534
20
80
42
-0.22783779158247575
10
82.348423700881852
20
77.616813551974261
10
82.535325384040874
20
77.383186448025853
42
0.22783779158247403
10
87.493842324001179
20
75.000000000000099
10
93.650000000005988
20
75.000000000000085
42
-0.41421356237309792
10
100.00000000000598
20
68.650000000000105
10
100.00000000000598
20
61.349999999999973
42
0.41421356237309503
10
106.35000000000599
20
54.999999999999972
10
111.14999999999993
20
55
42
-0.41421356237309342
10
117.49999999999994
20
48.649999999999984
10
117.50000000000001
20
1.3499999999999797
42
-0.41421356237309703
10
111.15000000000002
20
-5.0000000000000346
10
106.61504562425149
20
-5.0000000000000346
42
0.29797337645013044
10
100.79744654762101
20
-8.8048004039785273
10
100.62664690110255
20
-9.1951995960214141
42
-0.29797337645013244
10
94.809047824472046
20
-12.999999999999911
10
84.610093239084492
20
-12.999999999999908
42
-0.2278377915824733
10
79.651576299124173
20
-10.616813551974156
10
79.46467461596518
20
-10.383186448025768
42
0.22783779158247469
10
74.506157676004861
20
-8.0000000000000107
10
66.792865590934824
20
-8.0000000000000124
42
-0.25076489093331022
10
61.509346221889516
20
-5.1723462460302212
10
61.279551227182537
20
-4.8276537539697486
42
0.25076489093331045
10
55.996031858137229
20
-1.9999999999999574
10
51.493842323999445
20
-1.9999999999999618
42
0.22783779158267048
10
46.535325384036163
20
-4.3831864480294014
10
46.348423700883224
20
-4.6168135519705675
42
-0.22783779158267101
10
41.389906760919963
20
-7.0000000000000071
10
32.116666666666667
20
-7.0000000000000027
42
0.16227766016837936
10
28.306666666666661
20
-8.2700000000000031
10
27.693333333333335
20
-8.7300000000000022
42
-0.16227766016837838
10
23.883333333333333
20
-10
10
-3.6499999999999959
20
-10
42
-0.41421356237309531
10
-10
20
-3.6500000000000021
10
-9.9999999999999964
20
71.650000000000006
42
-0.41421356237309653
10
-3.6500000000000021
20
78
10
21.883333333333308
20
78
42
0.16227766016837916
10
25.69333333333331
20
79.269999999999996
0
ENDSEC
0
SECTION
2
OBJECTS
0
DICTIONARY
5
C
100
AcDbDictionary
3
ACAD_GROUP
350
D
3
ACAD_MLINESTYLE
350
17
0
DICTIONARY
5
D
100
AcDbDictionary
0
DICTIONARY
5
1A
330
C
100
AcDbDictionary
0
DICTIONARY
5
17
100
AcDbDictionary
0
ENDSEC
0
EOF
