0
SECTION
2
HEADER
9
$INSUNITS
70
4
9
$ACADVER
1
AC1014
9
$HANDSEED
5
FFFF
0
ENDSEC
0
SECTION
2
TABLES
0
TABLE
2
VPORT
5
8
100
AcDbSymbolTable
0
ENDTAB
0
TABLE
2
LTYPE
5
5
100
AcDbSymbolTable
0
LTYPE
5
14
100
AcDbSymbolTableRecord
100
AcDbLinetypeTableRecord
2
BYBLOCK
70
0
0
LTYPE
5
15
100
AcDbSymbolTableRecord
100
AcDbLinetypeTableRecord
2
BYLAYER
70
0
0
ENDTAB
0
TABLE
2
LAYER
5
2
100
AcDbSymbolTable
70
2
0
LAYER
5
50
100
AcDbSymbolTableRecord
100
AcDbLayerTableRecord
2
0
70
0
6
CONTINUOUS
0
ENDTAB
0
TABLE
2
STYLE
5
3
100
AcDbSymbolTable
70
1
0
STYLE
5
11
100
AcDbSymbolTableRecord
100
AcDbTextStyleTableRecord
2
STANDARD
70
0
0
ENDTAB
0
TABLE
2
VIEW
5
6
100
AcDbSymbolTable
70
0
0
ENDTAB
0
TABLE
2
UCS
5
7
100
AcDbSymbolTable
70
0
0
ENDTAB
0
TABLE
2
APPID
5
9
100
AcDbSymbolTable
70
2
0
APPID
5
12
100
AcDbSymbolTableRecord
100
AcDbRegAppTableRecord
2
ACAD
70
0
0
ENDTAB
0
TABLE
2
DIMSTYLE
5
A
100
AcDbSymbolTable
70
1
0
ENDTAB
0
TABLE
2
BLOCK_RECORD
5
1
100
AcDbSymbolTable
70
1
0
BLOCK_RECORD
5
1F
100
AcDbSymbolTableRecord
100
AcDbBlockTableRecord
2
*MODEL_SPACE
0
BLOCK_RECORD
5
1B
100
AcDbSymbolTableRecord
100
AcDbBlockTableRecord
2
*PAPER_SPACE
0
ENDTAB
0
ENDSEC
0
SECTION
2
BLOCKS
0
BLOCK
5
20
100
AcDbEntity
100
AcDbBlockBegin
2
*MODEL_SPACE
0
ENDBLK
5
21
100
AcDbEntity
100
AcDbBlockEnd
0
BLOCK
5
1C
100
AcDbEntity
100
AcDbBlockBegin
2
*PAPER_SPACE
0
ENDBLK
5
1D
100
AcDbEntity
100
AcDbBlockEnd
0
ENDSEC
0
SECTION
2
ENTITIES
0
LWPOLYLINE
5
100
100
AcDbEntity
8
0
100
AcDbPolyline
90
48
70
1
43
0.0
10
79.960780678260647
20
75.799024152174184
10
82.039219321739324
20
73.200975847825859
42
0.22783779158267825
10
84.537999511956997
20
72
10
93.800007452434983
20
72
42
-0.4142128802575662
10
97.000007452426317
20
68.80000745244368
10
97.000025152014743
20
61.19999254755632
42
0.41421288025756781
10
100.20002515200603
20
58.000000000000036
10
116.29999999999998
20
57.999999999999986
42
-0.41421356237309098
10
119.5
20
54.799999999999997
10
119.5
20
1.1999999999999675
42
-0.41421356237309503
10
116.29999999999998
20
-2.0000000000000373
10
102.97770876399966
20
-2.0000000000000284
42
0.28407904384040977
10
100.11554175279994
20
-3.7689164944001519
10
97.884458247200058
20
-8.2310835055998712
42
-0.2840790438404065
10
95.022291236000314
20
-10.000000000000018
10
84.537999511957025
20
-10.000000000000004
42
-0.22783779158267065
10
82.039219321739338
20
-8.7990241521741552
10
79.960780678260662
20
-6.2009758478258412
42
0.22783779158266745
10
77.462000488042975
20
-5
10
66.712588027161587
20
-5.0000000000000009
42
-0.25076489093331134
10
64.050027085280476
20
-3.5750406279207247
10
61.949972914719531
20
-0.42495937207927853
42
0.2507648909333105
10
59.28741197283842
20
1.0000000000000053
10
48.537999511957032
20
1.0000000000000053
42
0.2278377915826709
10
46.039219321739331
20
-0.20097584782583056
10
43.960780678260662
20
-2.7990241521741654
42
-0.22783779158267101
10
41.462000488042968
20
-3.9999999999999947
10
27.93333333333333
20
-3.9999999999999969
42
0.1940676152773175
10
25.71320264437837
20
-4.8954350250078882
10
24.458088003240199
20
-6.1045649749920941
42
-0.19406761527731897
10
22.237957314285239
20
-6.9999999999999929
10
-3.8000000000000078
20
-6.9999999999999929
42
-0.41421356237309459
10
-6.9999999999999929
20
-3.7999999999999989
10
-7
20
71.799999999999272
42
-0.41421356237316315
10
-3.7999999999992795
20
74.999999999999289
10
23.933333333344979
20
74.999999999993022
42
0.16227766016670961
10
25.85333333332402
20
75.639999999993023
10
28.146666666666658
20
77.360000000000014
42
-0.16227766016837886
10
30.066666666666659
20
78
10
41.462000488042968
20
78
42
0.22783779158267081
10
43.960780678260676
20
79.200975847825831
10
46.039219321739324
20
81.799024152174155
42
-0.2278377915826674
10
48.537999511957032
20
83
10
59.287411972838413
20
83
42
-0.25076489093331239
10
61.949972914719524
20
81.575040627920728
10
64.050027085280462
20
78.424959372079286
42
0.2507648909333059
10
66.712588027161587
20
77.000000000000014
10
77.462000488042946
20
77
42
-0.22783779158266004
0
ENDSEC
0
SECTION
2
OBJECTS
0
DICTIONARY
5
C
100
AcDbDictionary
3
ACAD_GROUP
350
D
3
ACAD_MLINESTYLE
350
17
0
DICTIONARY
5
D
100
AcDbDictionary
0
DICTIONARY
5
1A
330
C
100
AcDbDictionary
0
DICTIONARY
5
17
100
AcDbDictionary
0
ENDSEC
0
EOF
