0
SECTION
2
HEADER
9
$INSUNITS
70
4
9
$ACADVER
1
AC1014
9
$HANDSEED
5
FFFF
0
ENDSEC
0
SECTION
2
TABLES
0
TABLE
2
VPORT
5
8
100
AcDbSymbolTable
0
ENDTAB
0
TABLE
2
LTYPE
5
5
100
AcDbSymbolTable
0
LTYPE
5
14
100
AcDbSymbolTableRecord
100
AcDbLinetypeTableRecord
2
BYBLOCK
70
0
0
LTYPE
5
15
100
AcDbSymbolTableRecord
100
AcDbLinetypeTableRecord
2
BYLAYER
70
0
0
ENDTAB
0
TABLE
2
LAYER
5
2
100
AcDbSymbolTable
70
2
0
LAYER
5
50
100
AcDbSymbolTableRecord
100
AcDbLayerTableRecord
2
0
70
0
6
CONTINUOUS
0
ENDTAB
0
TABLE
2
STYLE
5
3
100
AcDbSymbolTable
70
1
0
STYLE
5
11
100
AcDbSymbolTableRecord
100
AcDbTextStyleTableRecord
2
STANDARD
70
0
0
ENDTAB
0
TABLE
2
VIEW
5
6
100
AcDbSymbolTable
70
0
0
ENDTAB
0
TABLE
2
UCS
5
7
100
AcDbSymbolTable
70
0
0
ENDTAB
0
TABLE
2
APPID
5
9
100
AcDbSymbolTable
70
2
0
APPID
5
12
100
AcDbSymbolTableRecord
100
AcDbRegAppTableRecord
2
ACAD
70
0
0
ENDTAB
0
TABLE
2
DIMSTYLE
5
A
100
AcDbSymbolTable
70
1
0
ENDTAB
0
TABLE
2
BLOCK_RECORD
5
1
100
AcDbSymbolTable
70
1
0
BLOCK_RECORD
5
1F
100
AcDbSymbolTableRecord
100
AcDbBlockTableRecord
2
*MODEL_SPACE
0
BLOCK_RECORD
5
1B
100
AcDbSymbolTableRecord
100
AcDbBlockTableRecord
2
*PAPER_SPACE
0
ENDTAB
0
ENDSEC
0
SECTION
2
BLOCKS
0
BLOCK
5
20
100
AcDbEntity
100
AcDbBlockBegin
2
*MODEL_SPACE
0
ENDBLK
5
21
100
AcDbEntity
100
AcDbBlockEnd
0
BLOCK
5
1C
100
AcDbEntity
100
AcDbBlockBegin
2
*PAPER_SPACE
0
ENDBLK
5
1D
100
AcDbEntity
100
AcDbBlockEnd
0
ENDSEC
0
SECTION
2
ENTITIES
0
LINE
5
100
100
AcDbEntity
8
0
100
AcDbLine
10
-7.7499999999999991
20
-6.4000000000000004
30
0
11
-7.7499999999999991
21
6.4000000000000004
31
0
0
LINE
5
101
100
AcDbEntity
8
0
100
AcDbLine
10
-7.7499999999999991
20
65.600000000000009
30
0
11
-7.7499999999999991
21
78.400000000000006
31
0
0
LINE
5
102
100
AcDbEntity
8
0
100
AcDbLine
10
-7.0000000000000009
20
79
30
0
11
7.0000000000000009
21
79
31
0
0
LINE
5
103
100
AcDbEntity
8
0
100
AcDbLine
10
7.0000000000000009
20
-7.0000000000000009
30
0
11
-7.0000000000000009
21
-7.0000000000000009
31
0
0
LINE
5
104
100
AcDbEntity
8
0
100
AcDbLine
10
26
20
-7.0000000000000009
30
0
11
12.000000000000002
21
-7.0000000000000009
31
0
0
LINE
5
105
100
AcDbEntity
8
0
100
AcDbLine
10
44.999999999999993
20
-3.9999999999999991
30
0
11
30.999999999999996
21
-3.9999999999999991
31
0
0
LINE
5
106
100
AcDbEntity
8
0
100
AcDbLine
10
12.000000000000002
20
79
30
0
11
26.000000000000007
21
79
31
0
0
LINE
5
107
100
AcDbEntity
8
0
100
AcDbLine
10
30.999999999999996
20
82
30
0
11
44.999999999999993
21
82
31
0
0
LINE
5
108
100
AcDbEntity
8
0
100
AcDbLine
10
50
20
87
30
0
11
64
21
87
31
0
0
LINE
5
109
100
AcDbEntity
8
0
100
AcDbLine
10
69
20
81
30
0
11
83
21
81
31
0
0
LINE
5
110
100
AcDbEntity
8
0
100
AcDbLine
10
88
20
76
30
0
11
102
21
76
31
0
0
LINE
5
111
100
AcDbEntity
8
0
100
AcDbLine
10
102.75
20
75.400000000000006
30
0
11
102.75
21
62.599999999999994
31
0
0
LINE
5
112
100
AcDbEntity
8
0
100
AcDbLine
10
102
20
-10
30
0
11
88
21
-10
31
0
0
LINE
5
113
100
AcDbEntity
8
0
100
AcDbLine
10
120.40000000000001
20
-2.7499999999999991
30
0
11
107.59999999999999
21
-2.7499999999999991
31
0
0
LINE
5
114
100
AcDbEntity
8
0
100
AcDbLine
10
83
20
-5.0000000000000018
30
0
11
69
21
-5.0000000000000018
31
0
0
LINE
5
115
100
AcDbEntity
8
0
100
AcDbLine
10
64
20
0.99999999999999978
30
0
11
50
21
0.99999999999999978
31
0
0
LINE
5
116
100
AcDbEntity
8
0
100
AcDbLine
10
-7.7499999999999991
20
65.600000000000009
30
0
11
-7.7499999999999991
21
6.4000000000000004
31
0
0
LINE
5
117
100
AcDbEntity
8
0
100
AcDbLine
10
7.0000000000000009
20
-7.0000000000000009
30
0
11
12.000000000000002
21
-7.0000000000000009
31
0
0
LINE
5
118
100
AcDbEntity
8
0
100
AcDbLine
10
26
20
-7.0000000000000009
30
0
11
30.999999999999996
21
-3.9999999999999991
31
0
0
LINE
5
119
100
AcDbEntity
8
0
100
AcDbLine
10
44.999999999999993
20
-3.9999999999999991
30
0
11
50
21
0.99999999999999978
31
0
0
LINE
5
120
100
AcDbEntity
8
0
100
AcDbLine
10
64
20
0.99999999999999978
30
0
11
69
21
-5.0000000000000018
31
0
0
LINE
5
121
100
AcDbEntity
8
0
100
AcDbLine
10
83
20
-5.0000000000000018
30
0
11
88
21
-10
31
0
0
LINE
5
122
100
AcDbEntity
8
0
100
AcDbLine
10
102
20
-10
30
0
11
107.59999999999999
21
-2.7499999999999991
31
0
0
LINE
5
123
100
AcDbEntity
8
0
100
AcDbLine
10
7.0000000000000009
20
79
30
0
11
12.000000000000002
21
79
31
0
0
LINE
5
124
100
AcDbEntity
8
0
100
AcDbLine
10
26.000000000000007
20
79
30
0
11
30.999999999999996
21
82
31
0
0
LINE
5
125
100
AcDbEntity
8
0
100
AcDbLine
10
44.999999999999993
20
82
30
0
11
50
21
87
31
0
0
LINE
5
126
100
AcDbEntity
8
0
100
AcDbLine
10
64
20
87
30
0
11
69
21
81
31
0
0
LINE
5
127
100
AcDbEntity
8
0
100
AcDbLine
10
83
20
81
30
0
11
88
21
76
31
0
0
ARC
5
128
100
AcDbEntity
8
0
100
AcDbCircle
10
-7
20
-6.2312500000000011
30
0
40
0.76874999999999927
210
0
220
0
230
1
100
AcDbArc
50
192.68038349181978
51
269.99999999999994
0
ARC
5
129
100
AcDbEntity
8
0
100
AcDbCircle
10
102
20
75.231249999999989
30
0
40
0.76875000000001381
210
0
220
-0
230
1
100
AcDbArc
50
12.680383491821042
51
90
0
ARC
5
130
100
AcDbEntity
8
0
100
AcDbCircle
10
-7.0000000000000053
20
78.231250000000003
30
0
40
0.76875000000000249
210
0
220
-0
230
1
100
AcDbArc
50
89.999999999999673
51
167.31961650817991
0
LINE
5
131
100
AcDbEntity
8
0
100
AcDbLine
10
102.75
20
62.599999999999994
30
0
11
102.75
21
60.399999999999999
31
0
0
LINE
5
132
100
AcDbEntity
8
0
100
AcDbLine
10
123.75
20
60.399999999999999
30
0
11
102.75
21
60.399999999999999
31
0
0
LINE
5
133
100
AcDbEntity
8
0
100
AcDbLine
10
123.75
20
-2.7500000000000036
30
0
11
120.40000000000001
21
-2.7499999999999991
31
0
0
LINE
5
134
100
AcDbEntity
8
0
100
AcDbLine
10
124.75
20
59.400000000000006
30
0
11
124.75
21
-1.7500000000000071
31
0
0
LINE
5
135
100
AcDbEntity
8
0
100
AcDbLine
10
121
20
12.000000000000002
30
0
11
121
21
-2.0000000000000018
31
0
0
ARC
5
136
100
AcDbEntity
8
0
100
AcDbCircle
10
123.75
20
-1.7500000000000071
30
0
40
0.99999999999999645
210
-0
220
0
230
1
100
AcDbArc
50
-90
51
0
0
ARC
5
137
100
AcDbEntity
8
0
100
AcDbCircle
10
123.75
20
59.400000000000006
30
0
40
0.99999999999999645
210
0
220
0
230
1
100
AcDbArc
50
0
51
90
0
ENDSEC
0
SECTION
2
OBJECTS
0
DICTIONARY
5
C
100
AcDbDictionary
3
ACAD_GROUP
350
D
3
ACAD_MLINESTYLE
350
17
0
DICTIONARY
5
D
100
AcDbDictionary
0
DICTIONARY
5
1A
330
C
100
AcDbDictionary
0
DICTIONARY
5
17
100
AcDbDictionary
0
ENDSEC
0
EOF
