  0
SECTION
  2
HEADER
  9
$ANGBASE
  50
0.0
  9
$ANGDIR
  70
1
  9
$MEASUREMENT
  70
1
  0
ENDSEC
  0
SECTION
  2
TABLES
  0
TABLE
  2
LTYPE
  70
4
  0
LTYPE
  5
40F
  2
CONTINUOUS
  70
0
  3
Solid line
  72
65
  73
0
  40
0.0
  0
LTYPE
  5
410
  2
DASHDOT
 70
0
  3
Dash Dot ____ _ ____ _
 72
65
 73
4
 40
2.0
 49
1.25
 49
-0.25
 49
0.25
 49
-0.25
  0
LTYPE
  5
411
  2
DASHED
 70
0
  3
Dashed __ __ __ __ __
 72
65
 73
2
 40
0.75
 49
0.5
 49
-0.25
  0
LTYPE
  5
43B
  2
DOTTED
 70
0
  3
Dotted .  .  .  .
 72
65
 73
2
 40
0.2
 49
0.0
 49
-0.2
  0
ENDTAB
  0
TABLE
  2
STYLE
  70
4
  0
STYLE
  2
KICAD
  70
0
  40
0
  41
1
  42
1
  50
0
  71
0
  3
isocp.shx
  0
STYLE
  2
KICADB
  70
0
  40
0
  41
1
  42
1
  50
0
  71
0
  3
isocp.shx
  0
STYLE
  2
KICADI
  70
0
  40
0
  41
1
  42
1
  50
15
  71
0
  3
isocp.shx
  0
STYLE
  2
KICADBI
  70
0
  40
0
  41
1
  42
1
  50
15
  71
0
  3
isocp.shx
  0
ENDTAB
  0
TABLE
  2
LAYER
  70
1
  0
LAYER
  2
BLACK
  70
0
  62
7
  6
CONTINUOUS
  0
ENDTAB
  0
ENDSEC
  0
SECTION
  2
ENTITIES
0
LINE
8
BLACK
6
CONTINUOUS
10
102.308
20
3.98965
11
102.312
21
3.98787
0
LINE
8
BLACK
6
CONTINUOUS
10
102.312
20
3.98787
11
102.316
21
3.98614
0
LINE
8
BLACK
6
CONTINUOUS
10
102.316
20
3.98614
11
102.449
21
3.91571
0
LINE
8
BLACK
6
CONTINUOUS
10
102.449
20
3.91571
11
102.449
21
3.9157
0
LINE
8
BLACK
6
CONTINUOUS
10
102.449
20
3.9157
11
102.45
21
3.91537
0
LINE
8
BLACK
6
CONTINUOUS
10
102.45
20
3.91537
11
102.453
21
3.91281
0
LINE
8
BLACK
6
CONTINUOUS
10
102.453
20
3.91281
11
102.457
21
3.9103
0
LINE
8
BLACK
6
CONTINUOUS
10
102.457
20
3.9103
11
102.573
21
3.81548
0
LINE
8
BLACK
6
CONTINUOUS
10
102.573
20
3.81548
11
102.574
21
3.81504
0
LINE
8
BLACK
6
CONTINUOUS
10
102.574
20
3.81504
11
102.577
21
3.8118
0
LINE
8
BLACK
6
CONTINUOUS
10
102.577
20
3.8118
11
102.58
21
3.8086
0
LINE
8
BLACK
6
CONTINUOUS
10
102.58
20
3.8086
11
102.676
21
3.693
0
LINE
8
BLACK
6
CONTINUOUS
10
102.676
20
3.693
11
102.676
21
3.69246
0
LINE
8
BLACK
6
CONTINUOUS
10
102.676
20
3.69246
11
102.679
21
3.6887
0
LINE
8
BLACK
6
CONTINUOUS
10
102.679
20
3.6887
11
102.681
21
3.68491
0
LINE
8
BLACK
6
CONTINUOUS
10
102.681
20
3.68491
11
102.753
21
3.55293
0
LINE
8
BLACK
6
CONTINUOUS
10
102.753
20
3.55293
11
102.753
21
3.55232
0
LINE
8
BLACK
6
CONTINUOUS
10
102.753
20
3.55232
11
102.755
21
3.54834
0
LINE
8
BLACK
6
CONTINUOUS
10
102.755
20
3.54834
11
102.756
21
3.54439
0
LINE
8
BLACK
6
CONTINUOUS
10
102.756
20
3.54439
11
102.796
21
3.41956
0
LINE
8
BLACK
6
CONTINUOUS
10
102.796
20
3.41956
11
102.796
21
3.41923
0
LINE
8
BLACK
6
CONTINUOUS
10
102.796
20
3.41923
11
102.799
21
3.4098
0
LINE
8
BLACK
6
CONTINUOUS
10
102.799
20
3.4098
11
102.8
21
3.40245
0
LINE
8
BLACK
6
CONTINUOUS
10
102.8
20
3.40245
11
102.8
21
-15.55
0
LINE
8
BLACK
6
CONTINUOUS
10
102.8
20
-15.55
11
123.752
21
-15.55
0
LINE
8
BLACK
6
CONTINUOUS
10
123.752
20
-15.55
11
123.755
21
-15.5502
0
LINE
8
BLACK
6
CONTINUOUS
10
123.755
20
-15.5502
11
123.755
21
-15.5502
0
LINE
8
BLACK
6
CONTINUOUS
10
123.755
20
-15.5502
11
123.949
21
-15.5693
0
LINE
8
BLACK
6
CONTINUOUS
10
123.949
20
-15.5693
11
123.949
21
-15.5693
0
LINE
8
BLACK
6
CONTINUOUS
10
123.949
20
-15.5693
11
123.949
21
-15.5693
0
LINE
8
BLACK
6
CONTINUOUS
10
123.949
20
-15.5693
11
123.95
21
-15.5694
0
LINE
8
BLACK
6
CONTINUOUS
10
123.95
20
-15.5694
11
123.954
21
-15.5703
0
LINE
8
BLACK
6
CONTINUOUS
10
123.954
20
-15.5703
11
123.959
21
-15.5712
0
LINE
8
BLACK
6
CONTINUOUS
10
123.959
20
-15.5712
11
124.146
21
-15.6276
0
LINE
8
BLACK
6
CONTINUOUS
10
124.146
20
-15.6276
11
124.146
21
-15.6278
0
LINE
8
BLACK
6
CONTINUOUS
10
124.146
20
-15.6278
11
124.15
21
-15.6296
0
LINE
8
BLACK
6
CONTINUOUS
10
124.15
20
-15.6296
11
124.155
21
-15.6313
0
LINE
8
BLACK
6
CONTINUOUS
10
124.155
20
-15.6313
11
124.327
21
-15.7229
0
LINE
8
BLACK
6
CONTINUOUS
10
124.327
20
-15.7229
11
124.327
21
-15.7229
0
LINE
8
BLACK
6
CONTINUOUS
10
124.327
20
-15.7229
11
124.327
21
-15.7229
0
LINE
8
BLACK
6
CONTINUOUS
10
124.327
20
-15.7229
11
124.327
21
-15.7233
0
LINE
8
BLACK
6
CONTINUOUS
10
124.327
20
-15.7233
11
124.331
21
-15.7258
0
LINE
8
BLACK
6
CONTINUOUS
10
124.331
20
-15.7258
11
124.335
21
-15.7283
0
LINE
8
BLACK
6
CONTINUOUS
10
124.335
20
-15.7283
11
124.486
21
-15.8517
0
LINE
8
BLACK
6
CONTINUOUS
10
124.486
20
-15.8517
11
124.486
21
-15.8517
0
LINE
8
BLACK
6
CONTINUOUS
10
124.486
20
-15.8517
11
124.486
21
-15.8517
0
LINE
8
BLACK
6
CONTINUOUS
10
124.486
20
-15.8517
11
124.487
21
-15.8521
0
LINE
8
BLACK
6
CONTINUOUS
10
124.487
20
-15.8521
11
124.49
21
-15.8553
0
LINE
8
BLACK
6
CONTINUOUS
10
124.49
20
-15.8553
11
124.493
21
-15.8586
0
LINE
8
BLACK
6
CONTINUOUS
10
124.493
20
-15.8586
11
124.618
21
-16.0089
0
LINE
8
BLACK
6
CONTINUOUS
10
124.618
20
-16.0089
11
124.618
21
-16.0095
0
LINE
8
BLACK
6
CONTINUOUS
10
124.618
20
-16.0095
11
124.62
21
-16.0133
0
LINE
8
BLACK
6
CONTINUOUS
10
124.62
20
-16.0133
11
124.623
21
-16.017
0
LINE
8
BLACK
6
CONTINUOUS
10
124.623
20
-16.017
11
124.716
21
-16.1887
0
LINE
8
BLACK
6
CONTINUOUS
10
124.716
20
-16.1887
11
124.716
21
-16.1887
0
LINE
8
BLACK
6
CONTINUOUS
10
124.716
20
-16.1887
11
124.716
21
-16.1887
0
LINE
8
BLACK
6
CONTINUOUS
10
124.716
20
-16.1887
11
124.716
21
-16.1893
0
LINE
8
BLACK
6
CONTINUOUS
10
124.716
20
-16.1893
11
124.718
21
-16.1935
0
LINE
8
BLACK
6
CONTINUOUS
10
124.718
20
-16.1935
11
124.72
21
-16.1977
0
LINE
8
BLACK
6
CONTINUOUS
10
124.72
20
-16.1977
11
124.777
21
-16.3841
0
LINE
8
BLACK
6
CONTINUOUS
10
124.777
20
-16.3841
11
124.778
21
-16.3848
0
LINE
8
BLACK
6
CONTINUOUS
10
124.778
20
-16.3848
11
124.778
21
-16.3892
0
LINE
8
BLACK
6
CONTINUOUS
10
124.778
20
-16.3892
11
124.779
21
-16.3937
0
LINE
8
BLACK
6
CONTINUOUS
10
124.779
20
-16.3937
11
124.8
21
-16.5878
0
LINE
8
BLACK
6
CONTINUOUS
10
124.8
20
-16.5878
11
124.8
21
-16.5885
0
LINE
8
BLACK
6
CONTINUOUS
10
124.8
20
-16.5885
11
124.8
21
-16.5907
0
LINE
8
BLACK
6
CONTINUOUS
10
124.8
20
-16.5907
11
124.8
21
-16.5928
0
LINE
8
BLACK
6
CONTINUOUS
10
124.8
20
-16.5928
11
124.8
21
-16.5998
0
LINE
8
BLACK
6
CONTINUOUS
10
124.8
20
-16.5998
11
124.8
21
-16.6005
0
LINE
8
BLACK
6
CONTINUOUS
10
124.8
20
-16.6005
11
124.799
21
-16.6102
0
LINE
8
BLACK
6
CONTINUOUS
10
124.799
20
-16.6102
11
124.796
21
-16.6195
0
LINE
8
BLACK
6
CONTINUOUS
10
124.796
20
-16.6195
11
124.791
21
-16.6281
0
LINE
8
BLACK
6
CONTINUOUS
10
124.791
20
-16.6281
11
124.785
21
-16.6356
0
LINE
8
BLACK
6
CONTINUOUS
10
124.785
20
-16.6356
11
124.778
21
-16.6417
0
LINE
8
BLACK
6
CONTINUOUS
10
124.778
20
-16.6417
11
124.775
21
-16.6431
0
LINE
8
BLACK
6
CONTINUOUS
10
124.775
20
-16.6431
11
124.775
21
-52.653
0
LINE
8
BLACK
6
CONTINUOUS
10
124.775
20
-52.653
11
124.775
21
-52.6542
0
LINE
8
BLACK
6
CONTINUOUS
10
124.775
20
-52.6542
11
124.775
21
-52.6591
0
LINE
8
BLACK
6
CONTINUOUS
10
124.775
20
-52.6591
11
124.773
21
-52.6639
0
LINE
8
BLACK
6
CONTINUOUS
10
124.773
20
-52.6639
11
124.771
21
-52.6682
0
LINE
8
BLACK
6
CONTINUOUS
10
124.771
20
-52.6682
11
124.768
21
-52.672
0
LINE
8
BLACK
6
CONTINUOUS
10
124.768
20
-52.672
11
124.764
21
-52.6751
0
LINE
8
BLACK
6
CONTINUOUS
10
124.764
20
-52.6751
11
124.76
21
-52.6774
0
LINE
8
BLACK
6
CONTINUOUS
10
124.76
20
-52.6774
11
124.755
21
-52.6789
0
LINE
8
BLACK
6
CONTINUOUS
10
124.755
20
-52.6789
11
124.751
21
-52.6792
0
LINE
8
BLACK
6
CONTINUOUS
10
124.751
20
-52.6792
11
124.751
21
-52.6792
0
LINE
8
BLACK
6
CONTINUOUS
10
124.751
20
-52.6792
11
124.75
21
-52.6794
0
LINE
8
BLACK
6
CONTINUOUS
10
124.75
20
-52.6794
11
124.749
21
-52.6792
0
LINE
8
BLACK
6
CONTINUOUS
10
124.749
20
-52.6792
11
113.006
21
-52.6792
0
LINE
8
BLACK
6
CONTINUOUS
10
113.006
20
-52.6792
11
113.006
21
-59.3348
0
LINE
8
BLACK
6
CONTINUOUS
10
113.006
20
-59.3348
11
124.749
21
-59.3348
0
LINE
8
BLACK
6
CONTINUOUS
10
124.749
20
-59.3348
11
124.75
21
-59.3347
0
LINE
8
BLACK
6
CONTINUOUS
10
124.75
20
-59.3347
11
124.751
21
-59.3348
0
LINE
8
BLACK
6
CONTINUOUS
10
124.751
20
-59.3348
11
124.755
21
-59.3352
0
LINE
8
BLACK
6
CONTINUOUS
10
124.755
20
-59.3352
11
124.76
21
-59.3366
0
LINE
8
BLACK
6
CONTINUOUS
10
124.76
20
-59.3366
11
124.764
21
-59.339
0
LINE
8
BLACK
6
CONTINUOUS
10
124.764
20
-59.339
11
124.768
21
-59.3421
0
LINE
8
BLACK
6
CONTINUOUS
10
124.768
20
-59.3421
11
124.771
21
-59.3459
0
LINE
8
BLACK
6
CONTINUOUS
10
124.771
20
-59.3459
11
124.773
21
-59.3502
0
LINE
8
BLACK
6
CONTINUOUS
10
124.773
20
-59.3502
11
124.775
21
-59.3549
0
LINE
8
BLACK
6
CONTINUOUS
10
124.775
20
-59.3549
11
124.775
21
-59.3598
0
LINE
8
BLACK
6
CONTINUOUS
10
124.775
20
-59.3598
11
124.775
21
-59.3611
0
LINE
8
BLACK
6
CONTINUOUS
10
124.775
20
-59.3611
11
124.775
21
-77.7068
0
LINE
8
BLACK
6
CONTINUOUS
10
124.775
20
-77.7068
11
124.782
21
-77.7115
0
LINE
8
BLACK
6
CONTINUOUS
10
124.782
20
-77.7115
11
124.789
21
-77.7184
0
LINE
8
BLACK
6
CONTINUOUS
10
124.789
20
-77.7184
11
124.794
21
-77.7265
0
LINE
8
BLACK
6
CONTINUOUS
10
124.794
20
-77.7265
11
124.798
21
-77.7355
0
LINE
8
BLACK
6
CONTINUOUS
10
124.798
20
-77.7355
11
124.8
21
-77.7451
0
LINE
8
BLACK
6
CONTINUOUS
10
124.8
20
-77.7451
11
124.8
21
-77.7549
0
LINE
8
BLACK
6
CONTINUOUS
10
124.8
20
-77.7549
11
124.781
21
-77.9491
0
LINE
8
BLACK
6
CONTINUOUS
10
124.781
20
-77.9491
11
124.781
21
-77.9491
0
LINE
8
BLACK
6
CONTINUOUS
10
124.781
20
-77.9491
11
124.781
21
-77.9491
0
LINE
8
BLACK
6
CONTINUOUS
10
124.781
20
-77.9491
11
124.781
21
-77.9498
0
LINE
8
BLACK
6
CONTINUOUS
10
124.781
20
-77.9498
11
124.78
21
-77.9542
0
LINE
8
BLACK
6
CONTINUOUS
10
124.78
20
-77.9542
11
124.779
21
-77.9587
0
LINE
8
BLACK
6
CONTINUOUS
10
124.779
20
-77.9587
11
124.722
21
-78.1455
0
LINE
8
BLACK
6
CONTINUOUS
10
124.722
20
-78.1455
11
124.722
21
-78.1455
0
LINE
8
BLACK
6
CONTINUOUS
10
124.722
20
-78.1455
11
124.722
21
-78.1455
0
LINE
8
BLACK
6
CONTINUOUS
10
124.722
20
-78.1455
11
124.722
21
-78.1462
0
LINE
8
BLACK
6
CONTINUOUS
10
124.722
20
-78.1462
11
124.72
21
-78.1503
0
LINE
8
BLACK
6
CONTINUOUS
10
124.72
20
-78.1503
11
124.719
21
-78.1545
0
LINE
8
BLACK
6
CONTINUOUS
10
124.719
20
-78.1545
11
124.627
21
-78.3269
0
LINE
8
BLACK
6
CONTINUOUS
10
124.627
20
-78.3269
11
124.627
21
-78.3275
0
LINE
8
BLACK
6
CONTINUOUS
10
124.627
20
-78.3275
11
124.624
21
-78.3312
0
LINE
8
BLACK
6
CONTINUOUS
10
124.624
20
-78.3312
11
124.622
21
-78.335
0
LINE
8
BLACK
6
CONTINUOUS
10
124.622
20
-78.335
11
124.498
21
-78.4862
0
LINE
8
BLACK
6
CONTINUOUS
10
124.498
20
-78.4862
11
124.498
21
-78.4862
0
LINE
8
BLACK
6
CONTINUOUS
10
124.498
20
-78.4862
11
124.498
21
-78.4862
0
LINE
8
BLACK
6
CONTINUOUS
10
124.498
20
-78.4862
11
124.498
21
-78.4868
0
LINE
8
BLACK
6
CONTINUOUS
10
124.498
20
-78.4868
11
124.495
21
-78.4899
0
LINE
8
BLACK
6
CONTINUOUS
10
124.495
20
-78.4899
11
124.491
21
-78.4932
0
LINE
8
BLACK
6
CONTINUOUS
10
124.491
20
-78.4932
11
124.341
21
-78.6176
0
LINE
8
BLACK
6
CONTINUOUS
10
124.341
20
-78.6176
11
124.341
21
-78.618
0
LINE
8
BLACK
6
CONTINUOUS
10
124.341
20
-78.618
11
124.337
21
-78.6205
0
LINE
8
BLACK
6
CONTINUOUS
10
124.337
20
-78.6205
11
124.333
21
-78.623
0
LINE
8
BLACK
6
CONTINUOUS
10
124.333
20
-78.623
11
124.161
21
-78.7158
0
LINE
8
BLACK
6
CONTINUOUS
10
124.161
20
-78.7158
11
124.161
21
-78.7158
0
LINE
8
BLACK
6
CONTINUOUS
10
124.161
20
-78.7158
11
124.161
21
-78.7159
0
LINE
8
BLACK
6
CONTINUOUS
10
124.161
20
-78.7159
11
124.161
21
-78.7162
0
LINE
8
BLACK
6
CONTINUOUS
10
124.161
20
-78.7162
11
124.156
21
-78.7179
0
LINE
8
BLACK
6
CONTINUOUS
10
124.156
20
-78.7179
11
124.152
21
-78.7196
0
LINE
8
BLACK
6
CONTINUOUS
10
124.152
20
-78.7196
11
123.966
21
-78.7773
0
LINE
8
BLACK
6
CONTINUOUS
10
123.966
20
-78.7773
11
123.966
21
-78.7773
0
LINE
8
BLACK
6
CONTINUOUS
10
123.966
20
-78.7773
11
123.965
21
-78.7775
0
LINE
8
BLACK
6
CONTINUOUS
10
123.965
20
-78.7775
11
123.961
21
-78.7784
0
LINE
8
BLACK
6
CONTINUOUS
10
123.961
20
-78.7784
11
123.956
21
-78.7793
0
LINE
8
BLACK
6
CONTINUOUS
10
123.956
20
-78.7793
11
123.762
21
-78.7997
0
LINE
8
BLACK
6
CONTINUOUS
10
123.762
20
-78.7997
11
123.762
21
-78.7998
0
LINE
8
BLACK
6
CONTINUOUS
10
123.762
20
-78.7998
11
123.759
21
-78.7998
0
LINE
8
BLACK
6
CONTINUOUS
10
123.759
20
-78.7998
11
123.757
21
-78.8
0
LINE
8
BLACK
6
CONTINUOUS
10
123.757
20
-78.8
11
123.753
21
-78.8
0
LINE
8
BLACK
6
CONTINUOUS
10
123.753
20
-78.8
11
123.752
21
-78.8
0
LINE
8
BLACK
6
CONTINUOUS
10
123.752
20
-78.8
11
107.625
21
-78.8
0
LINE
8
BLACK
6
CONTINUOUS
10
107.625
20
-78.8
11
102.042
21
-86.0273
0
LINE
8
BLACK
6
CONTINUOUS
10
102.042
20
-86.0273
11
102.042
21
-86.0279
0
LINE
8
BLACK
6
CONTINUOUS
10
102.042
20
-86.0279
11
102.039
21
-86.0312
0
LINE
8
BLACK
6
CONTINUOUS
10
102.039
20
-86.0312
11
102.038
21
-86.0325
0
LINE
8
BLACK
6
CONTINUOUS
10
102.038
20
-86.0325
11
102.038
21
-86.033
0
LINE
8
BLACK
6
CONTINUOUS
10
102.038
20
-86.033
11
102.036
21
-86.0355
0
LINE
8
BLACK
6
CONTINUOUS
10
102.036
20
-86.0355
11
102.034
21
-86.0366
0
LINE
8
BLACK
6
CONTINUOUS
10
102.034
20
-86.0366
11
102.033
21
-86.0379
0
LINE
8
BLACK
6
CONTINUOUS
10
102.033
20
-86.0379
11
102.03
21
-86.0397
0
LINE
8
BLACK
6
CONTINUOUS
10
102.03
20
-86.0397
11
102.028
21
-86.0418
0
LINE
8
BLACK
6
CONTINUOUS
10
102.028
20
-86.0418
11
102.026
21
-86.0426
0
LINE
8
BLACK
6
CONTINUOUS
10
102.026
20
-86.0426
11
102.025
21
-86.0436
0
LINE
8
BLACK
6
CONTINUOUS
10
102.025
20
-86.0436
11
102.022
21
-86.0449
0
LINE
8
BLACK
6
CONTINUOUS
10
102.022
20
-86.0449
11
102.019
21
-86.0464
0
LINE
8
BLACK
6
CONTINUOUS
10
102.019
20
-86.0464
11
102.018
21
-86.0469
0
LINE
8
BLACK
6
CONTINUOUS
10
102.018
20
-86.0469
11
102.016
21
-86.0476
0
LINE
8
BLACK
6
CONTINUOUS
10
102.016
20
-86.0476
11
102.013
21
-86.0483
0
LINE
8
BLACK
6
CONTINUOUS
10
102.013
20
-86.0483
11
102.01
21
-86.0493
0
LINE
8
BLACK
6
CONTINUOUS
10
102.01
20
-86.0493
11
102.008
21
-86.0494
0
LINE
8
BLACK
6
CONTINUOUS
10
102.008
20
-86.0494
11
102.006
21
-86.0498
0
LINE
8
BLACK
6
CONTINUOUS
10
102.006
20
-86.0498
11
102.003
21
-86.0499
0
LINE
8
BLACK
6
CONTINUOUS
10
102.003
20
-86.0499
11
102.002
21
-86.05
0
LINE
8
BLACK
6
CONTINUOUS
10
102.002
20
-86.05
11
102.001
21
-86.05
0
LINE
8
BLACK
6
CONTINUOUS
10
102.001
20
-86.05
11
101.997
21
-86.0501
0
LINE
8
BLACK
6
CONTINUOUS
10
101.997
20
-86.0501
11
101.996
21
-86.05
0
LINE
8
BLACK
6
CONTINUOUS
10
101.996
20
-86.05
11
88.0024
21
-86.05
0
LINE
8
BLACK
6
CONTINUOUS
10
88.0024
20
-86.05
11
88
21
-86.0502
0
LINE
8
BLACK
6
CONTINUOUS
10
88
20
-86.0502
11
87.9976
21
-86.05
0
LINE
8
BLACK
6
CONTINUOUS
10
87.9976
20
-86.05
11
87.9976
21
-86.05
0
LINE
8
BLACK
6
CONTINUOUS
10
87.9976
20
-86.05
11
87.9902
21
-86.0493
0
LINE
8
BLACK
6
CONTINUOUS
10
87.9902
20
-86.0493
11
87.9808
21
-86.0464
0
LINE
8
BLACK
6
CONTINUOUS
10
87.9808
20
-86.0464
11
87.9755
21
-86.0436
0
LINE
8
BLACK
6
CONTINUOUS
10
87.9755
20
-86.0436
11
87.9721
21
-86.0418
0
LINE
8
BLACK
6
CONTINUOUS
10
87.9721
20
-86.0418
11
87.9664
21
-86.0371
0
LINE
8
BLACK
6
CONTINUOUS
10
87.9664
20
-86.0371
11
87.9645
21
-86.0355
0
LINE
8
BLACK
6
CONTINUOUS
10
87.9645
20
-86.0355
11
87.9629
21
-86.0336
0
LINE
8
BLACK
6
CONTINUOUS
10
87.9629
20
-86.0336
11
82.9793
21
-81.05
0
LINE
8
BLACK
6
CONTINUOUS
10
82.9793
20
-81.05
11
69
21
-81.05
0
LINE
8
BLACK
6
CONTINUOUS
10
69
20
-81.05
11
68.9955
21
-81.05
0
LINE
8
BLACK
6
CONTINUOUS
10
68.9955
20
-81.05
11
68.9928
21
-81.0495
0
LINE
8
BLACK
6
CONTINUOUS
10
68.9928
20
-81.0495
11
68.9902
21
-81.0493
0
LINE
8
BLACK
6
CONTINUOUS
10
68.9902
20
-81.0493
11
68.988
21
-81.0486
0
LINE
8
BLACK
6
CONTINUOUS
10
68.988
20
-81.0486
11
68.9858
21
-81.0482
0
LINE
8
BLACK
6
CONTINUOUS
10
68.9858
20
-81.0482
11
68.9833
21
-81.0472
0
LINE
8
BLACK
6
CONTINUOUS
10
68.9833
20
-81.0472
11
68.9808
21
-81.0464
0
LINE
8
BLACK
6
CONTINUOUS
10
68.9808
20
-81.0464
11
68.9788
21
-81.0453
0
LINE
8
BLACK
6
CONTINUOUS
10
68.9788
20
-81.0453
11
68.9766
21
-81.0445
0
LINE
8
BLACK
6
CONTINUOUS
10
68.9766
20
-81.0445
11
68.9744
21
-81.043
0
LINE
8
BLACK
6
CONTINUOUS
10
68.9744
20
-81.043
11
68.9721
21
-81.0418
0
LINE
8
BLACK
6
CONTINUOUS
10
68.9721
20
-81.0418
11
68.9703
21
-81.0403
0
LINE
8
BLACK
6
CONTINUOUS
10
68.9703
20
-81.0403
11
68.9684
21
-81.0391
0
LINE
8
BLACK
6
CONTINUOUS
10
68.9684
20
-81.0391
11
68.9665
21
-81.0372
0
LINE
8
BLACK
6
CONTINUOUS
10
68.9665
20
-81.0372
11
68.9645
21
-81.0355
0
LINE
8
BLACK
6
CONTINUOUS
10
68.9645
20
-81.0355
11
68.9616
21
-81.032
0
LINE
8
BLACK
6
CONTINUOUS
10
68.9616
20
-81.032
11
63.9766
21
-75.05
0
LINE
8
BLACK
6
CONTINUOUS
10
63.9766
20
-75.05
11
50.0207
21
-75.05
0
LINE
8
BLACK
6
CONTINUOUS
10
50.0207
20
-75.05
11
45.0371
21
-80.0336
0
LINE
8
BLACK
6
CONTINUOUS
10
45.0371
20
-80.0336
11
45.0355
21
-80.0355
0
LINE
8
BLACK
6
CONTINUOUS
10
45.0355
20
-80.0355
11
45.0279
21
-80.0418
0
LINE
8
BLACK
6
CONTINUOUS
10
45.0279
20
-80.0418
11
45.0192
21
-80.0464
0
LINE
8
BLACK
6
CONTINUOUS
10
45.0192
20
-80.0464
11
45.0098
21
-80.0493
0
LINE
8
BLACK
6
CONTINUOUS
10
45.0098
20
-80.0493
11
45.0024
21
-80.05
0
LINE
8
BLACK
6
CONTINUOUS
10
45.0024
20
-80.05
11
45.0024
21
-80.05
0
LINE
8
BLACK
6
CONTINUOUS
10
45.0024
20
-80.05
11
45
21
-80.0502
0
LINE
8
BLACK
6
CONTINUOUS
10
45
20
-80.0502
11
44.9976
21
-80.05
0
LINE
8
BLACK
6
CONTINUOUS
10
44.9976
20
-80.05
11
31.0138
21
-80.05
0
LINE
8
BLACK
6
CONTINUOUS
10
31.0138
20
-80.05
11
26.0289
21
-83.041
0
LINE
8
BLACK
6
CONTINUOUS
10
26.0289
20
-83.041
11
26.0279
21
-83.0418
0
LINE
8
BLACK
6
CONTINUOUS
10
26.0279
20
-83.0418
11
26.0247
21
-83.0435
0
LINE
8
BLACK
6
CONTINUOUS
10
26.0247
20
-83.0435
11
26.0236
21
-83.0441
0
LINE
8
BLACK
6
CONTINUOUS
10
26.0236
20
-83.0441
11
26.0225
21
-83.0447
0
LINE
8
BLACK
6
CONTINUOUS
10
26.0225
20
-83.0447
11
26.0192
21
-83.0464
0
LINE
8
BLACK
6
CONTINUOUS
10
26.0192
20
-83.0464
11
26.018
21
-83.0468
0
LINE
8
BLACK
6
CONTINUOUS
10
26.018
20
-83.0468
11
26.0169
21
-83.0473
0
LINE
8
BLACK
6
CONTINUOUS
10
26.0169
20
-83.0473
11
26.0134
21
-83.0482
0
LINE
8
BLACK
6
CONTINUOUS
10
26.0134
20
-83.0482
11
26.0098
21
-83.0493
0
LINE
8
BLACK
6
CONTINUOUS
10
26.0098
20
-83.0493
11
26.0086
21
-83.0494
0
LINE
8
BLACK
6
CONTINUOUS
10
26.0086
20
-83.0494
11
26.0074
21
-83.0497
0
LINE
8
BLACK
6
CONTINUOUS
10
26.0074
20
-83.0497
11
26.0037
21
-83.0499
0
LINE
8
BLACK
6
CONTINUOUS
10
26.0037
20
-83.0499
11
26.0024
21
-83.05
0
LINE
8
BLACK
6
CONTINUOUS
10
26.0024
20
-83.05
11
26.0012
21
-83.05
0
LINE
8
BLACK
6
CONTINUOUS
10
26.0012
20
-83.05
11
25.9976
21
-83.0502
0
LINE
8
BLACK
6
CONTINUOUS
10
25.9976
20
-83.0502
11
25.9963
21
-83.05
0
LINE
8
BLACK
6
CONTINUOUS
10
25.9963
20
-83.05
11
-7.00245
21
-83.05
0
LINE
8
BLACK
6
CONTINUOUS
10
-7.00245
20
-83.05
11
-7.00656
21
-83.0496
0
LINE
8
BLACK
6
CONTINUOUS
10
-7.00656
20
-83.0496
11
-7.15419
21
-83.0351
0
LINE
8
BLACK
6
CONTINUOUS
10
-7.15419
20
-83.0351
11
-7.1542
21
-83.0351
0
LINE
8
BLACK
6
CONTINUOUS
10
-7.1542
20
-83.0351
11
-7.15421
21
-83.0351
0
LINE
8
BLACK
6
CONTINUOUS
10
-7.15421
20
-83.0351
11
-7.15489
21
-83.035
0
LINE
8
BLACK
6
CONTINUOUS
10
-7.15489
20
-83.035
11
-7.15927
21
-83.0341
0
LINE
8
BLACK
6
CONTINUOUS
10
-7.15927
20
-83.0341
11
-7.16377
21
-83.0332
0
LINE
8
BLACK
6
CONTINUOUS
10
-7.16377
20
-83.0332
11
-7.3074
21
-82.9899
0
LINE
8
BLACK
6
CONTINUOUS
10
-7.3074
20
-82.9899
11
-7.3074
21
-82.9899
0
LINE
8
BLACK
6
CONTINUOUS
10
-7.3074
20
-82.9899
11
-7.30807
21
-82.9897
0
LINE
8
BLACK
6
CONTINUOUS
10
-7.30807
20
-82.9897
11
-7.3122
21
-82.9879
0
LINE
8
BLACK
6
CONTINUOUS
10
-7.3122
20
-82.9879
11
-7.31642
21
-82.9861
0
LINE
8
BLACK
6
CONTINUOUS
10
-7.31642
20
-82.9861
11
-7.44888
21
-82.9157
0
LINE
8
BLACK
6
CONTINUOUS
10
-7.44888
20
-82.9157
11
-7.44889
21
-82.9157
0
LINE
8
BLACK
6
CONTINUOUS
10
-7.44889
20
-82.9157
11
-7.4489
21
-82.9157
0
LINE
8
BLACK
6
CONTINUOUS
10
-7.4489
20
-82.9157
11
-7.44951
21
-82.9154
0
LINE
8
BLACK
6
CONTINUOUS
10
-7.44951
20
-82.9154
11
-7.45322
21
-82.9128
0
LINE
8
BLACK
6
CONTINUOUS
10
-7.45322
20
-82.9128
11
-7.45702
21
-82.9103
0
LINE
8
BLACK
6
CONTINUOUS
10
-7.45702
20
-82.9103
11
-7.57328
21
-82.8155
0
LINE
8
BLACK
6
CONTINUOUS
10
-7.57328
20
-82.8155
11
-7.57329
21
-82.8155
0
LINE
8
BLACK
6
CONTINUOUS
10
-7.57329
20
-82.8155
11
-7.57329
21
-82.8155
0
LINE
8
BLACK
6
CONTINUOUS
10
-7.57329
20
-82.8155
11
-7.57383
21
-82.815
0
LINE
8
BLACK
6
CONTINUOUS
10
-7.57383
20
-82.815
11
-7.57699
21
-82.8118
0
LINE
8
BLACK
6
CONTINUOUS
10
-7.57699
20
-82.8118
11
-7.58021
21
-82.8086
0
LINE
8
BLACK
6
CONTINUOUS
10
-7.58021
20
-82.8086
11
-7.67585
21
-82.693
0
LINE
8
BLACK
6
CONTINUOUS
10
-7.67585
20
-82.693
11
-7.67629
21
-82.6925
0
LINE
8
BLACK
6
CONTINUOUS
10
-7.67629
20
-82.6925
11
-7.67875
21
-82.6887
0
LINE
8
BLACK
6
CONTINUOUS
10
-7.67875
20
-82.6887
11
-7.68131
21
-82.6849
0
LINE
8
BLACK
6
CONTINUOUS
10
-7.68131
20
-82.6849
11
-7.75266
21
-82.5529
0
LINE
8
BLACK
6
CONTINUOUS
10
-7.75266
20
-82.5529
11
-7.75299
21
-82.5523
0
LINE
8
BLACK
6
CONTINUOUS
10
-7.75299
20
-82.5523
11
-7.7546
21
-82.5483
0
LINE
8
BLACK
6
CONTINUOUS
10
-7.7546
20
-82.5483
11
-7.7563
21
-82.5444
0
LINE
8
BLACK
6
CONTINUOUS
10
-7.7563
20
-82.5444
11
-7.79624
21
-82.4196
0
LINE
8
BLACK
6
CONTINUOUS
10
-7.79624
20
-82.4196
11
-7.79642
21
-82.4192
0
LINE
8
BLACK
6
CONTINUOUS
10
-7.79642
20
-82.4192
11
-7.79927
21
-82.4098
0
LINE
8
BLACK
6
CONTINUOUS
10
-7.79927
20
-82.4098
11
-7.8
21
-82.4024
0
LINE
8
BLACK
6
CONTINUOUS
10
-7.8
20
-82.4024
11
-7.8
21
-69.5976
0
LINE
8
BLACK
6
CONTINUOUS
10
-7.8
20
-69.5976
11
-7.8
21
-6.39755
0
LINE
8
BLACK
6
CONTINUOUS
10
-7.8
20
-6.39755
11
-7.8
21
-6.39755
0
LINE
8
BLACK
6
CONTINUOUS
10
-7.8
20
-6.39755
11
-7.8
21
6.40245
0
LINE
8
BLACK
6
CONTINUOUS
10
-7.8
20
6.40245
11
-7.79927
21
6.4098
0
LINE
8
BLACK
6
CONTINUOUS
10
-7.79927
20
6.4098
11
-7.79641
21
6.41923
0
LINE
8
BLACK
6
CONTINUOUS
10
-7.79641
20
6.41923
11
-7.79613
21
6.41976
0
LINE
8
BLACK
6
CONTINUOUS
10
-7.79613
20
6.41976
11
-7.75042
21
6.55815
0
LINE
8
BLACK
6
CONTINUOUS
10
-7.75042
20
6.55815
11
-7.75019
21
6.55881
0
LINE
8
BLACK
6
CONTINUOUS
10
-7.75019
20
6.55881
11
-7.7483
21
6.56293
0
LINE
8
BLACK
6
CONTINUOUS
10
-7.7483
20
6.56293
11
-7.74646
21
6.56707
0
LINE
8
BLACK
6
CONTINUOUS
10
-7.74646
20
6.56707
11
-7.67263
21
6.69768
0
LINE
8
BLACK
6
CONTINUOUS
10
-7.67263
20
6.69768
11
-7.67228
21
6.69828
0
LINE
8
BLACK
6
CONTINUOUS
10
-7.67228
20
6.69828
11
-7.66965
21
6.70192
0
LINE
8
BLACK
6
CONTINUOUS
10
-7.66965
20
6.70192
11
-7.66702
21
6.70566
0
LINE
8
BLACK
6
CONTINUOUS
10
-7.66702
20
6.70566
11
-7.56922
21
6.81944
0
LINE
8
BLACK
6
CONTINUOUS
10
-7.56922
20
6.81944
11
-7.56876
21
6.81997
0
LINE
8
BLACK
6
CONTINUOUS
10
-7.56876
20
6.81997
11
-7.56545
21
6.82305
0
LINE
8
BLACK
6
CONTINUOUS
10
-7.56545
20
6.82305
11
-7.56217
21
6.82618
0
LINE
8
BLACK
6
CONTINUOUS
10
-7.56217
20
6.82618
11
-7.44414
21
6.9188
0
LINE
8
BLACK
6
CONTINUOUS
10
-7.44414
20
6.9188
11
-7.44414
21
6.9188
0
LINE
8
BLACK
6
CONTINUOUS
10
-7.44414
20
6.9188
11
-7.44413
21
6.91881
0
LINE
8
BLACK
6
CONTINUOUS
10
-7.44413
20
6.91881
11
-7.44358
21
6.91923
0
LINE
8
BLACK
6
CONTINUOUS
10
-7.44358
20
6.91923
11
-7.43974
21
6.9216
0
LINE
8
BLACK
6
CONTINUOUS
10
-7.43974
20
6.9216
11
-7.43591
21
6.92405
0
LINE
8
BLACK
6
CONTINUOUS
10
-7.43591
20
6.92405
11
-7.30213
21
6.99197
0
LINE
8
BLACK
6
CONTINUOUS
10
-7.30213
20
6.99197
11
-7.30151
21
6.99229
0
LINE
8
BLACK
6
CONTINUOUS
10
-7.30151
20
6.99229
11
-7.29727
21
6.99387
0
LINE
8
BLACK
6
CONTINUOUS
10
-7.29727
20
6.99387
11
-7.29304
21
6.99552
0
LINE
8
BLACK
6
CONTINUOUS
10
-7.29304
20
6.99552
11
-7.14862
21
7.03617
0
LINE
8
BLACK
6
CONTINUOUS
10
-7.14862
20
7.03617
11
-7.14795
21
7.03635
0
LINE
8
BLACK
6
CONTINUOUS
10
-7.14795
20
7.03635
11
-7.14372
21
7.03705
0
LINE
8
BLACK
6
CONTINUOUS
10
-7.14372
20
7.03705
11
-7.13948
21
7.03785
0
LINE
8
BLACK
6
CONTINUOUS
10
-7.13948
20
7.03785
11
-7.0046
21
7.04979
0
LINE
8
BLACK
6
CONTINUOUS
10
-7.0046
20
7.04979
11
-7.00245
21
7.05
0
LINE
8
BLACK
6
CONTINUOUS
10
-7.00245
20
7.05
11
25.9862
21
7.05
0
LINE
8
BLACK
6
CONTINUOUS
10
25.9862
20
7.05
11
30.9711
21
10.041
0
LINE
8
BLACK
6
CONTINUOUS
10
30.9711
20
10.041
11
30.9721
21
10.0418
0
LINE
8
BLACK
6
CONTINUOUS
10
30.9721
20
10.0418
11
30.9753
21
10.0435
0
LINE
8
BLACK
6
CONTINUOUS
10
30.9753
20
10.0435
11
30.9764
21
10.0441
0
LINE
8
BLACK
6
CONTINUOUS
10
30.9764
20
10.0441
11
30.9775
21
10.0447
0
LINE
8
BLACK
6
CONTINUOUS
10
30.9775
20
10.0447
11
30.9808
21
10.0464
0
LINE
8
BLACK
6
CONTINUOUS
10
30.9808
20
10.0464
11
30.9819
21
10.0468
0
LINE
8
BLACK
6
CONTINUOUS
10
30.9819
20
10.0468
11
30.9831
21
10.0473
0
LINE
8
BLACK
6
CONTINUOUS
10
30.9831
20
10.0473
11
30.9866
21
10.0482
0
LINE
8
BLACK
6
CONTINUOUS
10
30.9866
20
10.0482
11
30.9902
21
10.0493
0
LINE
8
BLACK
6
CONTINUOUS
10
30.9902
20
10.0493
11
30.9914
21
10.0494
0
LINE
8
BLACK
6
CONTINUOUS
10
30.9914
20
10.0494
11
30.9926
21
10.0497
0
LINE
8
BLACK
6
CONTINUOUS
10
30.9926
20
10.0497
11
30.9963
21
10.0499
0
LINE
8
BLACK
6
CONTINUOUS
10
30.9963
20
10.0499
11
30.9976
21
10.05
0
LINE
8
BLACK
6
CONTINUOUS
10
30.9976
20
10.05
11
30.9988
21
10.05
0
LINE
8
BLACK
6
CONTINUOUS
10
30.9988
20
10.05
11
31.0024
21
10.0502
0
LINE
8
BLACK
6
CONTINUOUS
10
31.0024
20
10.0502
11
31.0037
21
10.05
0
LINE
8
BLACK
6
CONTINUOUS
10
31.0037
20
10.05
11
44.9793
21
10.05
0
LINE
8
BLACK
6
CONTINUOUS
10
44.9793
20
10.05
11
49.9629
21
15.0336
0
LINE
8
BLACK
6
CONTINUOUS
10
49.9629
20
15.0336
11
49.9645
21
15.0355
0
LINE
8
BLACK
6
CONTINUOUS
10
49.9645
20
15.0355
11
49.9721
21
15.0418
0
LINE
8
BLACK
6
CONTINUOUS
10
49.9721
20
15.0418
11
49.9808
21
15.0464
0
LINE
8
BLACK
6
CONTINUOUS
10
49.9808
20
15.0464
11
49.9902
21
15.0493
0
LINE
8
BLACK
6
CONTINUOUS
10
49.9902
20
15.0493
11
49.9976
21
15.05
0
LINE
8
BLACK
6
CONTINUOUS
10
49.9976
20
15.05
11
49.9976
21
15.05
0
LINE
8
BLACK
6
CONTINUOUS
10
49.9976
20
15.05
11
50
21
15.0502
0
LINE
8
BLACK
6
CONTINUOUS
10
50
20
15.0502
11
50.0024
21
15.05
0
LINE
8
BLACK
6
CONTINUOUS
10
50.0024
20
15.05
11
64
21
15.05
0
LINE
8
BLACK
6
CONTINUOUS
10
64
20
15.05
11
64.0045
21
15.05
0
LINE
8
BLACK
6
CONTINUOUS
10
64.0045
20
15.05
11
64.0072
21
15.0495
0
LINE
8
BLACK
6
CONTINUOUS
10
64.0072
20
15.0495
11
64.0098
21
15.0493
0
LINE
8
BLACK
6
CONTINUOUS
10
64.0098
20
15.0493
11
64.012
21
15.0486
0
LINE
8
BLACK
6
CONTINUOUS
10
64.012
20
15.0486
11
64.0142
21
15.0482
0
LINE
8
BLACK
6
CONTINUOUS
10
64.0142
20
15.0482
11
64.0167
21
15.0472
0
LINE
8
BLACK
6
CONTINUOUS
10
64.0167
20
15.0472
11
64.0192
21
15.0464
0
LINE
8
BLACK
6
CONTINUOUS
10
64.0192
20
15.0464
11
64.0212
21
15.0453
0
LINE
8
BLACK
6
CONTINUOUS
10
64.0212
20
15.0453
11
64.0233
21
15.0445
0
LINE
8
BLACK
6
CONTINUOUS
10
64.0233
20
15.0445
11
64.0256
21
15.043
0
LINE
8
BLACK
6
CONTINUOUS
10
64.0256
20
15.043
11
64.0279
21
15.0418
0
LINE
8
BLACK
6
CONTINUOUS
10
64.0279
20
15.0418
11
64.0297
21
15.0403
0
LINE
8
BLACK
6
CONTINUOUS
10
64.0297
20
15.0403
11
64.0316
21
15.0391
0
LINE
8
BLACK
6
CONTINUOUS
10
64.0316
20
15.0391
11
64.0335
21
15.0372
0
LINE
8
BLACK
6
CONTINUOUS
10
64.0335
20
15.0372
11
64.0355
21
15.0355
0
LINE
8
BLACK
6
CONTINUOUS
10
64.0355
20
15.0355
11
64.0386
21
15.0318
0
LINE
8
BLACK
6
CONTINUOUS
10
64.0386
20
15.0318
11
69.0234
21
9.05
0
LINE
8
BLACK
6
CONTINUOUS
10
69.0234
20
9.05
11
82.9976
21
9.05
0
LINE
8
BLACK
6
CONTINUOUS
10
82.9976
20
9.05
11
83
21
9.05024
0
LINE
8
BLACK
6
CONTINUOUS
10
83
20
9.05024
11
83.0024
21
9.05
0
LINE
8
BLACK
6
CONTINUOUS
10
83.0024
20
9.05
11
83.0024
21
9.05
0
LINE
8
BLACK
6
CONTINUOUS
10
83.0024
20
9.05
11
83.0098
21
9.04928
0
LINE
8
BLACK
6
CONTINUOUS
10
83.0098
20
9.04928
11
83.0192
21
9.04642
0
LINE
8
BLACK
6
CONTINUOUS
10
83.0192
20
9.04642
11
83.0279
21
9.04177
0
LINE
8
BLACK
6
CONTINUOUS
10
83.0279
20
9.04177
11
83.0355
21
9.03553
0
LINE
8
BLACK
6
CONTINUOUS
10
83.0355
20
9.03553
11
83.0371
21
9.03362
0
LINE
8
BLACK
6
CONTINUOUS
10
83.0371
20
9.03362
11
88.0207
21
4.05
0
LINE
8
BLACK
6
CONTINUOUS
10
88.0207
20
4.05
11
102.002
21
4.05
0
LINE
8
BLACK
6
CONTINUOUS
10
102.002
20
4.05
11
102.005
21
4.04976
0
LINE
8
BLACK
6
CONTINUOUS
10
102.005
20
4.04976
11
102.005
21
4.04976
0
LINE
8
BLACK
6
CONTINUOUS
10
102.005
20
4.04976
11
102.154
21
4.03512
0
LINE
8
BLACK
6
CONTINUOUS
10
102.154
20
4.03512
11
102.154
21
4.03512
0
LINE
8
BLACK
6
CONTINUOUS
10
102.154
20
4.03512
11
102.154
21
4.03512
0
LINE
8
BLACK
6
CONTINUOUS
10
102.154
20
4.03512
11
102.155
21
4.03505
0
LINE
8
BLACK
6
CONTINUOUS
10
102.155
20
4.03505
11
102.159
21
4.03411
0
LINE
8
BLACK
6
CONTINUOUS
10
102.159
20
4.03411
11
102.164
21
4.03322
0
LINE
8
BLACK
6
CONTINUOUS
10
102.164
20
4.03322
11
102.307
21
3.98986
0
LINE
8
BLACK
6
CONTINUOUS
10
102.307
20
3.98986
11
102.307
21
3.98986
0
LINE
8
BLACK
6
CONTINUOUS
10
102.307
20
3.98986
11
102.308
21
3.98965
0
LINE
8
BLACK
6
CONTINUOUS
10
-7.12601
20
6.93865
11
-7.26123
21
6.90059
0
LINE
8
BLACK
6
CONTINUOUS
10
-7.26123
20
6.90059
11
-7.38626
21
6.8371
0
LINE
8
BLACK
6
CONTINUOUS
10
-7.38626
20
6.8371
11
-7.49658
21
6.75054
0
LINE
8
BLACK
6
CONTINUOUS
10
-7.49658
20
6.75054
11
-7.58799
21
6.6442
0
LINE
8
BLACK
6
CONTINUOUS
10
-7.58799
20
6.6442
11
-7.657
21
6.52213
0
LINE
8
BLACK
6
CONTINUOUS
10
-7.657
20
6.52213
11
-7.7
21
6.39196
0
LINE
8
BLACK
6
CONTINUOUS
10
-7.7
20
6.39196
11
-7.7
21
-82.3922
0
LINE
8
BLACK
6
CONTINUOUS
10
-7.7
20
-82.3922
11
-7.66248
21
-82.5095
0
LINE
8
BLACK
6
CONTINUOUS
10
-7.66248
20
-82.5095
11
-7.59567
21
-82.633
0
LINE
8
BLACK
6
CONTINUOUS
10
-7.59567
20
-82.633
11
-7.50628
21
-82.7411
0
LINE
8
BLACK
6
CONTINUOUS
10
-7.50628
20
-82.7411
11
-7.39762
21
-82.8297
0
LINE
8
BLACK
6
CONTINUOUS
10
-7.39762
20
-82.8297
11
-7.2738
21
-82.8955
0
LINE
8
BLACK
6
CONTINUOUS
10
-7.2738
20
-82.8955
11
-7.13956
21
-82.9361
0
LINE
8
BLACK
6
CONTINUOUS
10
-7.13956
20
-82.9361
11
-6.99755
21
-82.95
0
LINE
8
BLACK
6
CONTINUOUS
10
-6.99755
20
-82.95
11
25.9862
21
-82.95
0
LINE
8
BLACK
6
CONTINUOUS
10
25.9862
20
-82.95
11
30.9711
21
-79.959
0
LINE
8
BLACK
6
CONTINUOUS
10
30.9711
20
-79.959
11
30.9721
21
-79.9582
0
LINE
8
BLACK
6
CONTINUOUS
10
30.9721
20
-79.9582
11
30.9753
21
-79.9565
0
LINE
8
BLACK
6
CONTINUOUS
10
30.9753
20
-79.9565
11
30.9764
21
-79.9559
0
LINE
8
BLACK
6
CONTINUOUS
10
30.9764
20
-79.9559
11
30.9775
21
-79.9553
0
LINE
8
BLACK
6
CONTINUOUS
10
30.9775
20
-79.9553
11
30.9808
21
-79.9536
0
LINE
8
BLACK
6
CONTINUOUS
10
30.9808
20
-79.9536
11
30.9819
21
-79.9532
0
LINE
8
BLACK
6
CONTINUOUS
10
30.9819
20
-79.9532
11
30.9831
21
-79.9527
0
LINE
8
BLACK
6
CONTINUOUS
10
30.9831
20
-79.9527
11
30.9866
21
-79.9518
0
LINE
8
BLACK
6
CONTINUOUS
10
30.9866
20
-79.9518
11
30.9902
21
-79.9507
0
LINE
8
BLACK
6
CONTINUOUS
10
30.9902
20
-79.9507
11
30.9914
21
-79.9506
0
LINE
8
BLACK
6
CONTINUOUS
10
30.9914
20
-79.9506
11
30.9926
21
-79.9503
0
LINE
8
BLACK
6
CONTINUOUS
10
30.9926
20
-79.9503
11
30.9963
21
-79.9501
0
LINE
8
BLACK
6
CONTINUOUS
10
30.9963
20
-79.9501
11
30.9976
21
-79.95
0
LINE
8
BLACK
6
CONTINUOUS
10
30.9976
20
-79.95
11
30.9988
21
-79.95
0
LINE
8
BLACK
6
CONTINUOUS
10
30.9988
20
-79.95
11
31.0024
21
-79.9498
0
LINE
8
BLACK
6
CONTINUOUS
10
31.0024
20
-79.9498
11
31.0037
21
-79.95
0
LINE
8
BLACK
6
CONTINUOUS
10
31.0037
20
-79.95
11
44.9793
21
-79.95
0
LINE
8
BLACK
6
CONTINUOUS
10
44.9793
20
-79.95
11
49.9629
21
-74.9664
0
LINE
8
BLACK
6
CONTINUOUS
10
49.9629
20
-74.9664
11
49.9645
21
-74.9645
0
LINE
8
BLACK
6
CONTINUOUS
10
49.9645
20
-74.9645
11
49.9721
21
-74.9582
0
LINE
8
BLACK
6
CONTINUOUS
10
49.9721
20
-74.9582
11
49.9808
21
-74.9536
0
LINE
8
BLACK
6
CONTINUOUS
10
49.9808
20
-74.9536
11
49.9902
21
-74.9507
0
LINE
8
BLACK
6
CONTINUOUS
10
49.9902
20
-74.9507
11
49.9976
21
-74.95
0
LINE
8
BLACK
6
CONTINUOUS
10
49.9976
20
-74.95
11
49.9976
21
-74.95
0
LINE
8
BLACK
6
CONTINUOUS
10
49.9976
20
-74.95
11
50
21
-74.9498
0
LINE
8
BLACK
6
CONTINUOUS
10
50
20
-74.9498
11
50.0024
21
-74.95
0
LINE
8
BLACK
6
CONTINUOUS
10
50.0024
20
-74.95
11
64
21
-74.95
0
LINE
8
BLACK
6
CONTINUOUS
10
64
20
-74.95
11
64.0045
21
-74.95
0
LINE
8
BLACK
6
CONTINUOUS
10
64.0045
20
-74.95
11
64.0072
21
-74.9505
0
LINE
8
BLACK
6
CONTINUOUS
10
64.0072
20
-74.9505
11
64.0098
21
-74.9507
0
LINE
8
BLACK
6
CONTINUOUS
10
64.0098
20
-74.9507
11
64.012
21
-74.9514
0
LINE
8
BLACK
6
CONTINUOUS
10
64.012
20
-74.9514
11
64.0142
21
-74.9518
0
LINE
8
BLACK
6
CONTINUOUS
10
64.0142
20
-74.9518
11
64.0167
21
-74.9528
0
LINE
8
BLACK
6
CONTINUOUS
10
64.0167
20
-74.9528
11
64.0192
21
-74.9536
0
LINE
8
BLACK
6
CONTINUOUS
10
64.0192
20
-74.9536
11
64.0212
21
-74.9547
0
LINE
8
BLACK
6
CONTINUOUS
10
64.0212
20
-74.9547
11
64.0233
21
-74.9555
0
LINE
8
BLACK
6
CONTINUOUS
10
64.0233
20
-74.9555
11
64.0256
21
-74.957
0
LINE
8
BLACK
6
CONTINUOUS
10
64.0256
20
-74.957
11
64.0279
21
-74.9582
0
LINE
8
BLACK
6
CONTINUOUS
10
64.0279
20
-74.9582
11
64.0297
21
-74.9597
0
LINE
8
BLACK
6
CONTINUOUS
10
64.0297
20
-74.9597
11
64.0316
21
-74.9609
0
LINE
8
BLACK
6
CONTINUOUS
10
64.0316
20
-74.9609
11
64.0335
21
-74.9628
0
LINE
8
BLACK
6
CONTINUOUS
10
64.0335
20
-74.9628
11
64.0355
21
-74.9645
0
LINE
8
BLACK
6
CONTINUOUS
10
64.0355
20
-74.9645
11
64.0386
21
-74.9682
0
LINE
8
BLACK
6
CONTINUOUS
10
64.0386
20
-74.9682
11
69.0234
21
-80.95
0
LINE
8
BLACK
6
CONTINUOUS
10
69.0234
20
-80.95
11
82.9976
21
-80.95
0
LINE
8
BLACK
6
CONTINUOUS
10
82.9976
20
-80.95
11
83
21
-80.9498
0
LINE
8
BLACK
6
CONTINUOUS
10
83
20
-80.9498
11
83.0024
21
-80.95
0
LINE
8
BLACK
6
CONTINUOUS
10
83.0024
20
-80.95
11
83.0024
21
-80.95
0
LINE
8
BLACK
6
CONTINUOUS
10
83.0024
20
-80.95
11
83.0098
21
-80.9507
0
LINE
8
BLACK
6
CONTINUOUS
10
83.0098
20
-80.9507
11
83.0192
21
-80.9536
0
LINE
8
BLACK
6
CONTINUOUS
10
83.0192
20
-80.9536
11
83.0279
21
-80.9582
0
LINE
8
BLACK
6
CONTINUOUS
10
83.0279
20
-80.9582
11
83.0355
21
-80.9645
0
LINE
8
BLACK
6
CONTINUOUS
10
83.0355
20
-80.9645
11
83.0371
21
-80.9664
0
LINE
8
BLACK
6
CONTINUOUS
10
83.0371
20
-80.9664
11
88.0207
21
-85.95
0
LINE
8
BLACK
6
CONTINUOUS
10
88.0207
20
-85.95
11
101.975
21
-85.95
0
LINE
8
BLACK
6
CONTINUOUS
10
101.975
20
-85.95
11
107.558
21
-78.7227
0
LINE
8
BLACK
6
CONTINUOUS
10
107.558
20
-78.7227
11
107.558
21
-78.7221
0
LINE
8
BLACK
6
CONTINUOUS
10
107.558
20
-78.7221
11
107.561
21
-78.7189
0
LINE
8
BLACK
6
CONTINUOUS
10
107.561
20
-78.7189
11
107.562
21
-78.7175
0
LINE
8
BLACK
6
CONTINUOUS
10
107.562
20
-78.7175
11
107.562
21
-78.717
0
LINE
8
BLACK
6
CONTINUOUS
10
107.562
20
-78.717
11
107.564
21
-78.7145
0
LINE
8
BLACK
6
CONTINUOUS
10
107.564
20
-78.7145
11
107.566
21
-78.7134
0
LINE
8
BLACK
6
CONTINUOUS
10
107.566
20
-78.7134
11
107.567
21
-78.7121
0
LINE
8
BLACK
6
CONTINUOUS
10
107.567
20
-78.7121
11
107.57
21
-78.7103
0
LINE
8
BLACK
6
CONTINUOUS
10
107.57
20
-78.7103
11
107.572
21
-78.7082
0
LINE
8
BLACK
6
CONTINUOUS
10
107.572
20
-78.7082
11
107.574
21
-78.7074
0
LINE
8
BLACK
6
CONTINUOUS
10
107.574
20
-78.7074
11
107.575
21
-78.7064
0
LINE
8
BLACK
6
CONTINUOUS
10
107.575
20
-78.7064
11
107.578
21
-78.7051
0
LINE
8
BLACK
6
CONTINUOUS
10
107.578
20
-78.7051
11
107.581
21
-78.7036
0
LINE
8
BLACK
6
CONTINUOUS
10
107.581
20
-78.7036
11
107.582
21
-78.7031
0
LINE
8
BLACK
6
CONTINUOUS
10
107.582
20
-78.7031
11
107.584
21
-78.7024
0
LINE
8
BLACK
6
CONTINUOUS
10
107.584
20
-78.7024
11
107.587
21
-78.7017
0
LINE
8
BLACK
6
CONTINUOUS
10
107.587
20
-78.7017
11
107.59
21
-78.7007
0
LINE
8
BLACK
6
CONTINUOUS
10
107.59
20
-78.7007
11
107.592
21
-78.7006
0
LINE
8
BLACK
6
CONTINUOUS
10
107.592
20
-78.7006
11
107.594
21
-78.7002
0
LINE
8
BLACK
6
CONTINUOUS
10
107.594
20
-78.7002
11
107.597
21
-78.7001
0
LINE
8
BLACK
6
CONTINUOUS
10
107.597
20
-78.7001
11
107.598
21
-78.7
0
LINE
8
BLACK
6
CONTINUOUS
10
107.598
20
-78.7
11
107.599
21
-78.7
0
LINE
8
BLACK
6
CONTINUOUS
10
107.599
20
-78.7
11
107.603
21
-78.6999
0
LINE
8
BLACK
6
CONTINUOUS
10
107.603
20
-78.6999
11
107.604
21
-78.7
0
LINE
8
BLACK
6
CONTINUOUS
10
107.604
20
-78.7
11
123.75
21
-78.7
0
LINE
8
BLACK
6
CONTINUOUS
10
123.75
20
-78.7
11
123.754
21
-78.7
0
LINE
8
BLACK
6
CONTINUOUS
10
123.754
20
-78.7
11
123.941
21
-78.6804
0
LINE
8
BLACK
6
CONTINUOUS
10
123.941
20
-78.6804
11
124.118
21
-78.6255
0
LINE
8
BLACK
6
CONTINUOUS
10
124.118
20
-78.6255
11
124.281
21
-78.5374
0
LINE
8
BLACK
6
CONTINUOUS
10
124.281
20
-78.5374
11
124.424
21
-78.4192
0
LINE
8
BLACK
6
CONTINUOUS
10
124.424
20
-78.4192
11
124.541
21
-78.2756
0
LINE
8
BLACK
6
CONTINUOUS
10
124.541
20
-78.2756
11
124.628
21
-78.1119
0
LINE
8
BLACK
6
CONTINUOUS
10
124.628
20
-78.1119
11
124.682
21
-77.9345
0
LINE
8
BLACK
6
CONTINUOUS
10
124.682
20
-77.9345
11
124.7
21
-77.7451
0
LINE
8
BLACK
6
CONTINUOUS
10
124.7
20
-77.7451
11
124.7
21
-77.7444
0
LINE
8
BLACK
6
CONTINUOUS
10
124.7
20
-77.7444
11
124.702
21
-77.7349
0
LINE
8
BLACK
6
CONTINUOUS
10
124.702
20
-77.7349
11
124.706
21
-77.7259
0
LINE
8
BLACK
6
CONTINUOUS
10
124.706
20
-77.7259
11
124.712
21
-77.7179
0
LINE
8
BLACK
6
CONTINUOUS
10
124.712
20
-77.7179
11
124.719
21
-77.711
0
LINE
8
BLACK
6
CONTINUOUS
10
124.719
20
-77.711
11
124.725
21
-77.7069
0
LINE
8
BLACK
6
CONTINUOUS
10
124.725
20
-77.7069
11
124.725
21
-59.3848
0
LINE
8
BLACK
6
CONTINUOUS
10
124.725
20
-59.3848
11
112.982
21
-59.3848
0
LINE
8
BLACK
6
CONTINUOUS
10
112.982
20
-59.3848
11
112.981
21
-59.385
0
LINE
8
BLACK
6
CONTINUOUS
10
112.981
20
-59.385
11
112.976
21
-59.3845
0
LINE
8
BLACK
6
CONTINUOUS
10
112.976
20
-59.3845
11
112.971
21
-59.383
0
LINE
8
BLACK
6
CONTINUOUS
10
112.971
20
-59.383
11
112.967
21
-59.3807
0
LINE
8
BLACK
6
CONTINUOUS
10
112.967
20
-59.3807
11
112.963
21
-59.3776
0
LINE
8
BLACK
6
CONTINUOUS
10
112.963
20
-59.3776
11
112.96
21
-59.3738
0
LINE
8
BLACK
6
CONTINUOUS
10
112.96
20
-59.3738
11
112.958
21
-59.3695
0
LINE
8
BLACK
6
CONTINUOUS
10
112.958
20
-59.3695
11
112.956
21
-59.3647
0
LINE
8
BLACK
6
CONTINUOUS
10
112.956
20
-59.3647
11
112.956
21
-59.3598
0
LINE
8
BLACK
6
CONTINUOUS
10
112.956
20
-59.3598
11
112.956
21
-59.3586
0
LINE
8
BLACK
6
CONTINUOUS
10
112.956
20
-59.3586
11
112.956
21
-52.6555
0
LINE
8
BLACK
6
CONTINUOUS
10
112.956
20
-52.6555
11
112.956
21
-52.6542
0
LINE
8
BLACK
6
CONTINUOUS
10
112.956
20
-52.6542
11
112.956
21
-52.6493
0
LINE
8
BLACK
6
CONTINUOUS
10
112.956
20
-52.6493
11
112.958
21
-52.6446
0
LINE
8
BLACK
6
CONTINUOUS
10
112.958
20
-52.6446
11
112.96
21
-52.6403
0
LINE
8
BLACK
6
CONTINUOUS
10
112.96
20
-52.6403
11
112.963
21
-52.6365
0
LINE
8
BLACK
6
CONTINUOUS
10
112.963
20
-52.6365
11
112.967
21
-52.6334
0
LINE
8
BLACK
6
CONTINUOUS
10
112.967
20
-52.6334
11
112.971
21
-52.631
0
LINE
8
BLACK
6
CONTINUOUS
10
112.971
20
-52.631
11
112.976
21
-52.6296
0
LINE
8
BLACK
6
CONTINUOUS
10
112.976
20
-52.6296
11
112.98
21
-52.6292
0
LINE
8
BLACK
6
CONTINUOUS
10
112.98
20
-52.6292
11
112.98
21
-52.6292
0
LINE
8
BLACK
6
CONTINUOUS
10
112.98
20
-52.6292
11
112.981
21
-52.6291
0
LINE
8
BLACK
6
CONTINUOUS
10
112.981
20
-52.6291
11
112.982
21
-52.6292
0
LINE
8
BLACK
6
CONTINUOUS
10
112.982
20
-52.6292
11
124.725
21
-52.6292
0
LINE
8
BLACK
6
CONTINUOUS
10
124.725
20
-52.6292
11
124.725
21
-16.6431
0
LINE
8
BLACK
6
CONTINUOUS
10
124.725
20
-16.6431
11
124.722
21
-16.6415
0
LINE
8
BLACK
6
CONTINUOUS
10
124.722
20
-16.6415
11
124.715
21
-16.6354
0
LINE
8
BLACK
6
CONTINUOUS
10
124.715
20
-16.6354
11
124.708
21
-16.6278
0
LINE
8
BLACK
6
CONTINUOUS
10
124.708
20
-16.6278
11
124.704
21
-16.6192
0
LINE
8
BLACK
6
CONTINUOUS
10
124.704
20
-16.6192
11
124.701
21
-16.6099
0
LINE
8
BLACK
6
CONTINUOUS
10
124.701
20
-16.6099
11
124.7
21
-16.6002
0
LINE
8
BLACK
6
CONTINUOUS
10
124.7
20
-16.6002
11
124.7
21
-16.5957
0
LINE
8
BLACK
6
CONTINUOUS
10
124.7
20
-16.5957
11
124.68
21
-16.409
0
LINE
8
BLACK
6
CONTINUOUS
10
124.68
20
-16.409
11
124.626
21
-16.232
0
LINE
8
BLACK
6
CONTINUOUS
10
124.626
20
-16.232
11
124.537
21
-16.0689
0
LINE
8
BLACK
6
CONTINUOUS
10
124.537
20
-16.0689
11
124.419
21
-15.9261
0
LINE
8
BLACK
6
CONTINUOUS
10
124.419
20
-15.9261
11
124.276
21
-15.8089
0
LINE
8
BLACK
6
CONTINUOUS
10
124.276
20
-15.8089
11
124.112
21
-15.7219
0
LINE
8
BLACK
6
CONTINUOUS
10
124.112
20
-15.7219
11
123.934
21
-15.6683
0
LINE
8
BLACK
6
CONTINUOUS
10
123.934
20
-15.6683
11
123.748
21
-15.65
0
LINE
8
BLACK
6
CONTINUOUS
10
123.748
20
-15.65
11
102.752
21
-15.65
0
LINE
8
BLACK
6
CONTINUOUS
10
102.752
20
-15.65
11
102.75
21
-15.6502
0
LINE
8
BLACK
6
CONTINUOUS
10
102.75
20
-15.6502
11
102.748
21
-15.65
0
LINE
8
BLACK
6
CONTINUOUS
10
102.748
20
-15.65
11
102.74
21
-15.6493
0
LINE
8
BLACK
6
CONTINUOUS
10
102.74
20
-15.6493
11
102.731
21
-15.6464
0
LINE
8
BLACK
6
CONTINUOUS
10
102.731
20
-15.6464
11
102.722
21
-15.6418
0
LINE
8
BLACK
6
CONTINUOUS
10
102.722
20
-15.6418
11
102.714
21
-15.6355
0
LINE
8
BLACK
6
CONTINUOUS
10
102.714
20
-15.6355
11
102.708
21
-15.6279
0
LINE
8
BLACK
6
CONTINUOUS
10
102.708
20
-15.6279
11
102.704
21
-15.6192
0
LINE
8
BLACK
6
CONTINUOUS
10
102.704
20
-15.6192
11
102.701
21
-15.6098
0
LINE
8
BLACK
6
CONTINUOUS
10
102.701
20
-15.6098
11
102.7
21
-15.6
0
LINE
8
BLACK
6
CONTINUOUS
10
102.7
20
-15.6
11
102.7
21
-15.5975
0
LINE
8
BLACK
6
CONTINUOUS
10
102.7
20
-15.5975
11
102.7
21
-9.39755
0
LINE
8
BLACK
6
CONTINUOUS
10
102.7
20
-9.39755
11
102.7
21
-9.39754
0
LINE
8
BLACK
6
CONTINUOUS
10
102.7
20
-9.39754
11
102.7
21
3.3922
0
LINE
8
BLACK
6
CONTINUOUS
10
102.7
20
3.3922
11
102.662
21
3.50947
0
LINE
8
BLACK
6
CONTINUOUS
10
102.662
20
3.50947
11
102.596
21
3.63304
0
LINE
8
BLACK
6
CONTINUOUS
10
102.596
20
3.63304
11
102.506
21
3.74108
0
LINE
8
BLACK
6
CONTINUOUS
10
102.506
20
3.74108
11
102.398
21
3.82971
0
LINE
8
BLACK
6
CONTINUOUS
10
102.398
20
3.82971
11
102.274
21
3.89554
0
LINE
8
BLACK
6
CONTINUOUS
10
102.274
20
3.89554
11
102.14
21
3.93608
0
LINE
8
BLACK
6
CONTINUOUS
10
102.14
20
3.93608
11
101.998
21
3.95
0
LINE
8
BLACK
6
CONTINUOUS
10
101.998
20
3.95
11
88.0024
21
3.95
0
LINE
8
BLACK
6
CONTINUOUS
10
88.0024
20
3.95
11
88
21
3.94976
0
LINE
8
BLACK
6
CONTINUOUS
10
88
20
3.94976
11
87.9976
21
3.95
0
LINE
8
BLACK
6
CONTINUOUS
10
87.9976
20
3.95
11
87.9976
21
3.95
0
LINE
8
BLACK
6
CONTINUOUS
10
87.9976
20
3.95
11
87.9902
21
3.95072
0
LINE
8
BLACK
6
CONTINUOUS
10
87.9902
20
3.95072
11
87.9808
21
3.95358
0
LINE
8
BLACK
6
CONTINUOUS
10
87.9808
20
3.95358
11
87.9748
21
3.95678
0
LINE
8
BLACK
6
CONTINUOUS
10
87.9748
20
3.95678
11
87.9721
21
3.95823
0
LINE
8
BLACK
6
CONTINUOUS
10
87.9721
20
3.95823
11
87.9664
21
3.96291
0
LINE
8
BLACK
6
CONTINUOUS
10
87.9664
20
3.96291
11
87.9645
21
3.96447
0
LINE
8
BLACK
6
CONTINUOUS
10
87.9645
20
3.96447
11
87.9629
21
3.96637
0
LINE
8
BLACK
6
CONTINUOUS
10
87.9629
20
3.96637
11
82.9793
21
8.95
0
LINE
8
BLACK
6
CONTINUOUS
10
82.9793
20
8.95
11
69
21
8.95
0
LINE
8
BLACK
6
CONTINUOUS
10
69
20
8.95
11
68.9955
21
8.94996
0
LINE
8
BLACK
6
CONTINUOUS
10
68.9955
20
8.94996
11
68.9928
21
8.95046
0
LINE
8
BLACK
6
CONTINUOUS
10
68.9928
20
8.95046
11
68.9902
21
8.95072
0
LINE
8
BLACK
6
CONTINUOUS
10
68.9902
20
8.95072
11
68.988
21
8.95139
0
LINE
8
BLACK
6
CONTINUOUS
10
68.988
20
8.95139
11
68.9858
21
8.95181
0
LINE
8
BLACK
6
CONTINUOUS
10
68.9858
20
8.95181
11
68.9833
21
8.95281
0
LINE
8
BLACK
6
CONTINUOUS
10
68.9833
20
8.95281
11
68.9808
21
8.95358
0
LINE
8
BLACK
6
CONTINUOUS
10
68.9808
20
8.95358
11
68.9788
21
8.95466
0
LINE
8
BLACK
6
CONTINUOUS
10
68.9788
20
8.95466
11
68.9766
21
8.95552
0
LINE
8
BLACK
6
CONTINUOUS
10
68.9766
20
8.95552
11
68.9744
21
8.95698
0
LINE
8
BLACK
6
CONTINUOUS
10
68.9744
20
8.95698
11
68.9721
21
8.95823
0
LINE
8
BLACK
6
CONTINUOUS
10
68.9721
20
8.95823
11
68.9703
21
8.95967
0
LINE
8
BLACK
6
CONTINUOUS
10
68.9703
20
8.95967
11
68.9684
21
8.96092
0
LINE
8
BLACK
6
CONTINUOUS
10
68.9684
20
8.96092
11
68.9665
21
8.96279
0
LINE
8
BLACK
6
CONTINUOUS
10
68.9665
20
8.96279
11
68.9645
21
8.96447
0
LINE
8
BLACK
6
CONTINUOUS
10
68.9645
20
8.96447
11
68.9616
21
8.96803
0
LINE
8
BLACK
6
CONTINUOUS
10
68.9616
20
8.96803
11
63.9766
21
14.95
0
LINE
8
BLACK
6
CONTINUOUS
10
63.9766
20
14.95
11
50.0207
21
14.95
0
LINE
8
BLACK
6
CONTINUOUS
10
50.0207
20
14.95
11
45.0371
21
9.96638
0
LINE
8
BLACK
6
CONTINUOUS
10
45.0371
20
9.96638
11
45.0355
21
9.96447
0
LINE
8
BLACK
6
CONTINUOUS
10
45.0355
20
9.96447
11
45.0279
21
9.95823
0
LINE
8
BLACK
6
CONTINUOUS
10
45.0279
20
9.95823
11
45.0192
21
9.95358
0
LINE
8
BLACK
6
CONTINUOUS
10
45.0192
20
9.95358
11
45.0098
21
9.95072
0
LINE
8
BLACK
6
CONTINUOUS
10
45.0098
20
9.95072
11
45.0024
21
9.95
0
LINE
8
BLACK
6
CONTINUOUS
10
45.0024
20
9.95
11
45.0024
21
9.95
0
LINE
8
BLACK
6
CONTINUOUS
10
45.0024
20
9.95
11
45
21
9.94976
0
LINE
8
BLACK
6
CONTINUOUS
10
45
20
9.94976
11
44.9976
21
9.95
0
LINE
8
BLACK
6
CONTINUOUS
10
44.9976
20
9.95
11
31.0138
21
9.95
0
LINE
8
BLACK
6
CONTINUOUS
10
31.0138
20
9.95
11
26.0289
21
6.95901
0
LINE
8
BLACK
6
CONTINUOUS
10
26.0289
20
6.95901
11
26.0279
21
6.95823
0
LINE
8
BLACK
6
CONTINUOUS
10
26.0279
20
6.95823
11
26.0247
21
6.95649
0
LINE
8
BLACK
6
CONTINUOUS
10
26.0247
20
6.95649
11
26.0236
21
6.95587
0
LINE
8
BLACK
6
CONTINUOUS
10
26.0236
20
6.95587
11
26.0225
21
6.95533
0
LINE
8
BLACK
6
CONTINUOUS
10
26.0225
20
6.95533
11
26.0192
21
6.95358
0
LINE
8
BLACK
6
CONTINUOUS
10
26.0192
20
6.95358
11
26.018
21
6.95323
0
LINE
8
BLACK
6
CONTINUOUS
10
26.018
20
6.95323
11
26.0169
21
6.9527
0
LINE
8
BLACK
6
CONTINUOUS
10
26.0169
20
6.9527
11
26.0134
21
6.95181
0
LINE
8
BLACK
6
CONTINUOUS
10
26.0134
20
6.95181
11
26.0098
21
6.95072
0
LINE
8
BLACK
6
CONTINUOUS
10
26.0098
20
6.95072
11
26.0086
21
6.9506
0
LINE
8
BLACK
6
CONTINUOUS
10
26.0086
20
6.9506
11
26.0074
21
6.95031
0
LINE
8
BLACK
6
CONTINUOUS
10
26.0074
20
6.95031
11
26.0037
21
6.95012
0
LINE
8
BLACK
6
CONTINUOUS
10
26.0037
20
6.95012
11
26.0024
21
6.95
0
LINE
8
BLACK
6
CONTINUOUS
10
26.0024
20
6.95
11
26.0012
21
6.95
0
LINE
8
BLACK
6
CONTINUOUS
10
26.0012
20
6.95
11
25.9976
21
6.94982
0
LINE
8
BLACK
6
CONTINUOUS
10
25.9976
20
6.94982
11
25.9963
21
6.95
0
LINE
8
BLACK
6
CONTINUOUS
10
25.9963
20
6.95
11
-6.99779
21
6.95
0
LINE
8
BLACK
6
CONTINUOUS
10
-6.99779
20
6.95
11
-7.12601
21
6.93865
  0
ENDSEC
  0
EOF
