  0
SECTION
  2
HEADER
  9
$ANGBASE
  50
0.0
  9
$ANGDIR
  70
1
  9
$MEASUREMENT
  70
1
  0
ENDSEC
  0
SECTION
  2
TABLES
  0
TABLE
  2
LTYPE
  70
4
  0
LTYPE
  5
40F
  2
CONTINUOUS
  70
0
  3
Solid line
  72
65
  73
0
  40
0.0
  0
LTYPE
  5
410
  2
DASHDOT
 70
0
  3
Dash Dot ____ _ ____ _
 72
65
 73
4
 40
2.0
 49
1.25
 49
-0.25
 49
0.25
 49
-0.25
  0
LTYPE
  5
411
  2
DASHED
 70
0
  3
Dashed __ __ __ __ __
 72
65
 73
2
 40
0.75
 49
0.5
 49
-0.25
  0
LTYPE
  5
43B
  2
DOTTED
 70
0
  3
Dotted .  .  .  .
 72
65
 73
2
 40
0.2
 49
0.0
 49
-0.2
  0
ENDTAB
  0
TABLE
  2
STYLE
  70
4
  0
STYLE
  2
KICAD
  70
0
  40
0
  41
1
  42
1
  50
0
  71
0
  3
isocp.shx
  0
STYLE
  2
KICADB
  70
0
  40
0
  41
1
  42
1
  50
0
  71
0
  3
isocp.shx
  0
STYLE
  2
KICADI
  70
0
  40
0
  41
1
  42
1
  50
15
  71
0
  3
isocp.shx
  0
STYLE
  2
KICADBI
  70
0
  40
0
  41
1
  42
1
  50
15
  71
0
  3
isocp.shx
  0
ENDTAB
  0
TABLE
  2
LAYER
  70
1
  0
LAYER
  2
BLACK
  70
0
  62
7
  6
CONTINUOUS
  0
ENDTAB
  0
ENDSEC
  0
SECTION
  2
ENTITIES
0
LINE
8
BLACK
6
CONTINUOUS
10
114.255
20
-75.2386
11
114.414
21
-75.3046
0
LINE
8
BLACK
6
CONTINUOUS
10
114.414
20
-75.3046
11
114.558
21
-75.4003
0
LINE
8
BLACK
6
CONTINUOUS
10
114.558
20
-75.4003
11
114.68
21
-75.5222
0
LINE
8
BLACK
6
CONTINUOUS
10
114.68
20
-75.5222
11
114.775
21
-75.6655
0
LINE
8
BLACK
6
CONTINUOUS
10
114.775
20
-75.6655
11
114.841
21
-75.8248
0
LINE
8
BLACK
6
CONTINUOUS
10
114.841
20
-75.8248
11
114.875
21
-75.9938
0
LINE
8
BLACK
6
CONTINUOUS
10
114.875
20
-75.9938
11
114.875
21
-76.1662
0
LINE
8
BLACK
6
CONTINUOUS
10
114.875
20
-76.1662
11
114.841
21
-76.3352
0
LINE
8
BLACK
6
CONTINUOUS
10
114.841
20
-76.3352
11
114.836
21
-76.3475
0
LINE
8
BLACK
6
CONTINUOUS
10
114.836
20
-76.3475
11
114.85
21
-76.4163
0
LINE
8
BLACK
6
CONTINUOUS
10
114.85
20
-76.4163
11
114.85
21
-76.5837
0
LINE
8
BLACK
6
CONTINUOUS
10
114.85
20
-76.5837
11
114.817
21
-76.7479
0
LINE
8
BLACK
6
CONTINUOUS
10
114.817
20
-76.7479
11
114.753
21
-76.9026
0
LINE
8
BLACK
6
CONTINUOUS
10
114.753
20
-76.9026
11
114.66
21
-77.0418
0
LINE
8
BLACK
6
CONTINUOUS
10
114.66
20
-77.0418
11
114.542
21
-77.1602
0
LINE
8
BLACK
6
CONTINUOUS
10
114.542
20
-77.1602
11
114.403
21
-77.2533
0
LINE
8
BLACK
6
CONTINUOUS
10
114.403
20
-77.2533
11
114.248
21
-77.3173
0
LINE
8
BLACK
6
CONTINUOUS
10
114.248
20
-77.3173
11
114.084
21
-77.35
0
LINE
8
BLACK
6
CONTINUOUS
10
114.084
20
-77.35
11
113.916
21
-77.35
0
LINE
8
BLACK
6
CONTINUOUS
10
113.916
20
-77.35
11
113.752
21
-77.3173
0
LINE
8
BLACK
6
CONTINUOUS
10
113.752
20
-77.3173
11
113.597
21
-77.2533
0
LINE
8
BLACK
6
CONTINUOUS
10
113.597
20
-77.2533
11
113.458
21
-77.1602
0
LINE
8
BLACK
6
CONTINUOUS
10
113.458
20
-77.1602
11
113.34
21
-77.0418
0
LINE
8
BLACK
6
CONTINUOUS
10
113.34
20
-77.0418
11
113.247
21
-76.9026
0
LINE
8
BLACK
6
CONTINUOUS
10
113.247
20
-76.9026
11
113.183
21
-76.7479
0
LINE
8
BLACK
6
CONTINUOUS
10
113.183
20
-76.7479
11
113.15
21
-76.5837
0
LINE
8
BLACK
6
CONTINUOUS
10
113.15
20
-76.5837
11
113.15
21
-76.4163
0
LINE
8
BLACK
6
CONTINUOUS
10
113.15
20
-76.4163
11
113.164
21
-76.3475
0
LINE
8
BLACK
6
CONTINUOUS
10
113.164
20
-76.3475
11
113.159
21
-76.3352
0
LINE
8
BLACK
6
CONTINUOUS
10
113.159
20
-76.3352
11
113.125
21
-76.1662
0
LINE
8
BLACK
6
CONTINUOUS
10
113.125
20
-76.1662
11
113.125
21
-75.9938
0
LINE
8
BLACK
6
CONTINUOUS
10
113.125
20
-75.9938
11
113.159
21
-75.8248
0
LINE
8
BLACK
6
CONTINUOUS
10
113.159
20
-75.8248
11
113.225
21
-75.6655
0
LINE
8
BLACK
6
CONTINUOUS
10
113.225
20
-75.6655
11
113.32
21
-75.5222
0
LINE
8
BLACK
6
CONTINUOUS
10
113.32
20
-75.5222
11
113.442
21
-75.4003
0
LINE
8
BLACK
6
CONTINUOUS
10
113.442
20
-75.4003
11
113.586
21
-75.3046
0
LINE
8
BLACK
6
CONTINUOUS
10
113.586
20
-75.3046
11
113.745
21
-75.2386
0
LINE
8
BLACK
6
CONTINUOUS
10
113.745
20
-75.2386
11
113.914
21
-75.205
0
LINE
8
BLACK
6
CONTINUOUS
10
113.914
20
-75.205
11
114.086
21
-75.205
0
LINE
8
BLACK
6
CONTINUOUS
10
114.086
20
-75.205
11
114.255
21
-75.2386
0
LINE
8
BLACK
6
CONTINUOUS
10
110.492
20
-75.1184
11
110.674
21
-75.1938
0
LINE
8
BLACK
6
CONTINUOUS
10
110.674
20
-75.1938
11
110.837
21
-75.3032
0
LINE
8
BLACK
6
CONTINUOUS
10
110.837
20
-75.3032
11
110.977
21
-75.4425
0
LINE
8
BLACK
6
CONTINUOUS
10
110.977
20
-75.4425
11
111.086
21
-75.6063
0
LINE
8
BLACK
6
CONTINUOUS
10
111.086
20
-75.6063
11
111.162
21
-75.7883
0
LINE
8
BLACK
6
CONTINUOUS
10
111.162
20
-75.7883
11
111.2
21
-75.9815
0
LINE
8
BLACK
6
CONTINUOUS
10
111.2
20
-75.9815
11
111.2
21
-76.1785
0
LINE
8
BLACK
6
CONTINUOUS
10
111.2
20
-76.1785
11
111.162
21
-76.3717
0
LINE
8
BLACK
6
CONTINUOUS
10
111.162
20
-76.3717
11
111.086
21
-76.5537
0
LINE
8
BLACK
6
CONTINUOUS
10
111.086
20
-76.5537
11
110.977
21
-76.7175
0
LINE
8
BLACK
6
CONTINUOUS
10
110.977
20
-76.7175
11
110.837
21
-76.8568
0
LINE
8
BLACK
6
CONTINUOUS
10
110.837
20
-76.8568
11
110.674
21
-76.9662
0
LINE
8
BLACK
6
CONTINUOUS
10
110.674
20
-76.9662
11
110.492
21
-77.0416
0
LINE
8
BLACK
6
CONTINUOUS
10
110.492
20
-77.0416
11
110.298
21
-77.08
0
LINE
8
BLACK
6
CONTINUOUS
10
110.298
20
-77.08
11
110.102
21
-77.08
0
LINE
8
BLACK
6
CONTINUOUS
10
110.102
20
-77.08
11
109.908
21
-77.0416
0
LINE
8
BLACK
6
CONTINUOUS
10
109.908
20
-77.0416
11
109.726
21
-76.9662
0
LINE
8
BLACK
6
CONTINUOUS
10
109.726
20
-76.9662
11
109.563
21
-76.8568
0
LINE
8
BLACK
6
CONTINUOUS
10
109.563
20
-76.8568
11
109.423
21
-76.7175
0
LINE
8
BLACK
6
CONTINUOUS
10
109.423
20
-76.7175
11
109.314
21
-76.5537
0
LINE
8
BLACK
6
CONTINUOUS
10
109.314
20
-76.5537
11
109.238
21
-76.3717
0
LINE
8
BLACK
6
CONTINUOUS
10
109.238
20
-76.3717
11
109.2
21
-76.1785
0
LINE
8
BLACK
6
CONTINUOUS
10
109.2
20
-76.1785
11
109.2
21
-75.9815
0
LINE
8
BLACK
6
CONTINUOUS
10
109.2
20
-75.9815
11
109.238
21
-75.7883
0
LINE
8
BLACK
6
CONTINUOUS
10
109.238
20
-75.7883
11
109.314
21
-75.6063
0
LINE
8
BLACK
6
CONTINUOUS
10
109.314
20
-75.6063
11
109.423
21
-75.4425
0
LINE
8
BLACK
6
CONTINUOUS
10
109.423
20
-75.4425
11
109.563
21
-75.3032
0
LINE
8
BLACK
6
CONTINUOUS
10
109.563
20
-75.3032
11
109.726
21
-75.1938
0
LINE
8
BLACK
6
CONTINUOUS
10
109.726
20
-75.1938
11
109.908
21
-75.1184
0
LINE
8
BLACK
6
CONTINUOUS
10
109.908
20
-75.1184
11
110.102
21
-75.08
0
LINE
8
BLACK
6
CONTINUOUS
10
110.102
20
-75.08
11
110.298
21
-75.08
0
LINE
8
BLACK
6
CONTINUOUS
10
110.298
20
-75.08
11
110.492
21
-75.1184
0
LINE
8
BLACK
6
CONTINUOUS
10
118.086
20
-72.375
11
118.111
21
-72.375
0
LINE
8
BLACK
6
CONTINUOUS
10
118.111
20
-72.375
11
118.195
21
-72.3918
0
LINE
8
BLACK
6
CONTINUOUS
10
118.195
20
-72.3918
11
118.28
21
-72.4048
0
LINE
8
BLACK
6
CONTINUOUS
10
118.28
20
-72.4048
11
118.304
21
-72.4133
0
LINE
8
BLACK
6
CONTINUOUS
10
118.304
20
-72.4133
11
118.328
21
-72.4182
0
LINE
8
BLACK
6
CONTINUOUS
10
118.328
20
-72.4182
11
118.408
21
-72.4512
0
LINE
8
BLACK
6
CONTINUOUS
10
118.408
20
-72.4512
11
118.423
21
-72.4568
0
LINE
8
BLACK
6
CONTINUOUS
10
118.423
20
-72.4568
11
118.521
21
-72.4538
0
LINE
8
BLACK
6
CONTINUOUS
10
118.521
20
-72.4538
11
118.666
21
-72.4637
0
LINE
8
BLACK
6
CONTINUOUS
10
118.666
20
-72.4637
11
118.752
21
-72.4282
0
LINE
8
BLACK
6
CONTINUOUS
10
118.752
20
-72.4282
11
118.969
21
-72.385
0
LINE
8
BLACK
6
CONTINUOUS
10
118.969
20
-72.385
11
119.191
21
-72.385
0
LINE
8
BLACK
6
CONTINUOUS
10
119.191
20
-72.385
11
119.408
21
-72.4282
0
LINE
8
BLACK
6
CONTINUOUS
10
119.408
20
-72.4282
11
119.613
21
-72.513
0
LINE
8
BLACK
6
CONTINUOUS
10
119.613
20
-72.513
11
119.797
21
-72.6362
0
LINE
8
BLACK
6
CONTINUOUS
10
119.797
20
-72.6362
11
119.954
21
-72.7929
0
LINE
8
BLACK
6
CONTINUOUS
10
119.954
20
-72.7929
11
120.077
21
-72.9771
0
LINE
8
BLACK
6
CONTINUOUS
10
120.077
20
-72.9771
11
120.162
21
-73.1818
0
LINE
8
BLACK
6
CONTINUOUS
10
120.162
20
-73.1818
11
120.205
21
-73.3992
0
LINE
8
BLACK
6
CONTINUOUS
10
120.205
20
-73.3992
11
120.205
21
-73.6016
0
LINE
8
BLACK
6
CONTINUOUS
10
120.205
20
-73.6016
11
120.208
21
-73.6964
0
LINE
8
BLACK
6
CONTINUOUS
10
120.208
20
-73.6964
11
120.171
21
-73.915
0
LINE
8
BLACK
6
CONTINUOUS
10
120.171
20
-73.915
11
120.093
21
-74.1222
0
LINE
8
BLACK
6
CONTINUOUS
10
120.093
20
-74.1222
11
119.975
21
-74.3101
0
LINE
8
BLACK
6
CONTINUOUS
10
119.975
20
-74.3101
11
119.823
21
-74.4714
0
LINE
8
BLACK
6
CONTINUOUS
10
119.823
20
-74.4714
11
119.643
21
-74.6
0
LINE
8
BLACK
6
CONTINUOUS
10
119.643
20
-74.6
11
119.441
21
-74.6909
0
LINE
8
BLACK
6
CONTINUOUS
10
119.441
20
-74.6909
11
119.225
21
-74.7407
0
LINE
8
BLACK
6
CONTINUOUS
10
119.225
20
-74.7407
11
119.059
21
-74.7457
0
LINE
8
BLACK
6
CONTINUOUS
10
119.059
20
-74.7457
11
118.368
21
-74.6986
0
LINE
8
BLACK
6
CONTINUOUS
10
118.368
20
-74.6986
11
118.352
21
-74.6959
0
LINE
8
BLACK
6
CONTINUOUS
10
118.352
20
-74.6959
11
117.25
21
-75.6843
0
LINE
8
BLACK
6
CONTINUOUS
10
117.25
20
-75.6843
11
117.116
21
-75.7825
0
LINE
8
BLACK
6
CONTINUOUS
10
117.116
20
-75.7825
11
116.915
21
-75.8763
0
LINE
8
BLACK
6
CONTINUOUS
10
116.915
20
-75.8763
11
116.7
21
-75.929
0
LINE
8
BLACK
6
CONTINUOUS
10
116.7
20
-75.929
11
116.479
21
-75.9388
0
LINE
8
BLACK
6
CONTINUOUS
10
116.479
20
-75.9388
11
116.26
21
-75.9052
0
LINE
8
BLACK
6
CONTINUOUS
10
116.26
20
-75.9052
11
116.052
21
-75.8295
0
LINE
8
BLACK
6
CONTINUOUS
10
116.052
20
-75.8295
11
115.862
21
-75.7146
0
LINE
8
BLACK
6
CONTINUOUS
10
115.862
20
-75.7146
11
115.699
21
-75.5649
0
LINE
8
BLACK
6
CONTINUOUS
10
115.699
20
-75.5649
11
115.567
21
-75.3863
0
LINE
8
BLACK
6
CONTINUOUS
10
115.567
20
-75.3863
11
115.474
21
-75.1855
0
LINE
8
BLACK
6
CONTINUOUS
10
115.474
20
-75.1855
11
115.421
21
-74.9703
0
LINE
8
BLACK
6
CONTINUOUS
10
115.421
20
-74.9703
11
115.411
21
-74.7489
0
LINE
8
BLACK
6
CONTINUOUS
10
115.411
20
-74.7489
11
115.445
21
-74.5298
0
LINE
8
BLACK
6
CONTINUOUS
10
115.445
20
-74.5298
11
115.521
21
-74.3216
0
LINE
8
BLACK
6
CONTINUOUS
10
115.521
20
-74.3216
11
115.635
21
-74.132
0
LINE
8
BLACK
6
CONTINUOUS
10
115.635
20
-74.132
11
115.748
21
-74.0096
0
LINE
8
BLACK
6
CONTINUOUS
10
115.748
20
-74.0096
11
117.226
21
-72.6831
0
LINE
8
BLACK
6
CONTINUOUS
10
117.226
20
-72.6831
11
117.283
21
-72.6262
0
LINE
8
BLACK
6
CONTINUOUS
10
117.283
20
-72.6262
11
117.355
21
-72.5782
0
LINE
8
BLACK
6
CONTINUOUS
10
117.355
20
-72.5782
11
117.424
21
-72.5275
0
LINE
8
BLACK
6
CONTINUOUS
10
117.424
20
-72.5275
11
117.446
21
-72.517
0
LINE
8
BLACK
6
CONTINUOUS
10
117.446
20
-72.517
11
117.467
21
-72.503
0
LINE
8
BLACK
6
CONTINUOUS
10
117.467
20
-72.503
11
117.547
21
-72.47
0
LINE
8
BLACK
6
CONTINUOUS
10
117.547
20
-72.47
11
117.625
21
-72.4338
0
LINE
8
BLACK
6
CONTINUOUS
10
117.625
20
-72.4338
11
117.649
21
-72.4278
0
LINE
8
BLACK
6
CONTINUOUS
10
117.649
20
-72.4278
11
117.672
21
-72.4182
0
LINE
8
BLACK
6
CONTINUOUS
10
117.672
20
-72.4182
11
117.756
21
-72.4014
0
LINE
8
BLACK
6
CONTINUOUS
10
117.756
20
-72.4014
11
117.84
21
-72.381
0
LINE
8
BLACK
6
CONTINUOUS
10
117.84
20
-72.381
11
117.865
21
-72.3799
0
LINE
8
BLACK
6
CONTINUOUS
10
117.865
20
-72.3799
11
117.889
21
-72.375
0
LINE
8
BLACK
6
CONTINUOUS
10
117.889
20
-72.375
11
117.975
21
-72.375
0
LINE
8
BLACK
6
CONTINUOUS
10
117.975
20
-72.375
11
118.061
21
-72.3712
0
LINE
8
BLACK
6
CONTINUOUS
10
118.061
20
-72.3712
11
118.086
21
-72.375
0
LINE
8
BLACK
6
CONTINUOUS
10
114.582
20
-69.0827
11
114.944
21
-69.233
0
LINE
8
BLACK
6
CONTINUOUS
10
114.944
20
-69.233
11
115.271
21
-69.4512
0
LINE
8
BLACK
6
CONTINUOUS
10
115.271
20
-69.4512
11
115.549
21
-69.729
0
LINE
8
BLACK
6
CONTINUOUS
10
115.549
20
-69.729
11
115.767
21
-70.0555
0
LINE
8
BLACK
6
CONTINUOUS
10
115.767
20
-70.0555
11
115.917
21
-70.4184
0
LINE
8
BLACK
6
CONTINUOUS
10
115.917
20
-70.4184
11
115.994
21
-70.8036
0
LINE
8
BLACK
6
CONTINUOUS
10
115.994
20
-70.8036
11
115.994
21
-71.1964
0
LINE
8
BLACK
6
CONTINUOUS
10
115.994
20
-71.1964
11
115.917
21
-71.5816
0
LINE
8
BLACK
6
CONTINUOUS
10
115.917
20
-71.5816
11
115.767
21
-71.9445
0
LINE
8
BLACK
6
CONTINUOUS
10
115.767
20
-71.9445
11
115.549
21
-72.271
0
LINE
8
BLACK
6
CONTINUOUS
10
115.549
20
-72.271
11
115.271
21
-72.5488
0
LINE
8
BLACK
6
CONTINUOUS
10
115.271
20
-72.5488
11
114.944
21
-72.767
0
LINE
8
BLACK
6
CONTINUOUS
10
114.944
20
-72.767
11
114.582
21
-72.9173
0
LINE
8
BLACK
6
CONTINUOUS
10
114.582
20
-72.9173
11
114.196
21
-72.9939
0
LINE
8
BLACK
6
CONTINUOUS
10
114.196
20
-72.9939
11
113.804
21
-72.9939
0
LINE
8
BLACK
6
CONTINUOUS
10
113.804
20
-72.9939
11
113.418
21
-72.9173
0
LINE
8
BLACK
6
CONTINUOUS
10
113.418
20
-72.9173
11
113.056
21
-72.767
0
LINE
8
BLACK
6
CONTINUOUS
10
113.056
20
-72.767
11
112.729
21
-72.5488
0
LINE
8
BLACK
6
CONTINUOUS
10
112.729
20
-72.5488
11
112.451
21
-72.271
0
LINE
8
BLACK
6
CONTINUOUS
10
112.451
20
-72.271
11
112.233
21
-71.9445
0
LINE
8
BLACK
6
CONTINUOUS
10
112.233
20
-71.9445
11
112.083
21
-71.5816
0
LINE
8
BLACK
6
CONTINUOUS
10
112.083
20
-71.5816
11
112.006
21
-71.1964
0
LINE
8
BLACK
6
CONTINUOUS
10
112.006
20
-71.1964
11
112.006
21
-70.8036
0
LINE
8
BLACK
6
CONTINUOUS
10
112.006
20
-70.8036
11
112.083
21
-70.4184
0
LINE
8
BLACK
6
CONTINUOUS
10
112.083
20
-70.4184
11
112.233
21
-70.0555
0
LINE
8
BLACK
6
CONTINUOUS
10
112.233
20
-70.0555
11
112.451
21
-69.729
0
LINE
8
BLACK
6
CONTINUOUS
10
112.451
20
-69.729
11
112.729
21
-69.4512
0
LINE
8
BLACK
6
CONTINUOUS
10
112.729
20
-69.4512
11
113.056
21
-69.233
0
LINE
8
BLACK
6
CONTINUOUS
10
113.056
20
-69.233
11
113.418
21
-69.0827
0
LINE
8
BLACK
6
CONTINUOUS
10
113.418
20
-69.0827
11
113.804
21
-69.0061
0
LINE
8
BLACK
6
CONTINUOUS
10
113.804
20
-69.0061
11
114.196
21
-69.0061
0
LINE
8
BLACK
6
CONTINUOUS
10
114.196
20
-69.0061
11
114.582
21
-69.0827
0
LINE
8
BLACK
6
CONTINUOUS
10
108.392
20
-70.0384
11
108.574
21
-70.1138
0
LINE
8
BLACK
6
CONTINUOUS
10
108.574
20
-70.1138
11
108.737
21
-70.2232
0
LINE
8
BLACK
6
CONTINUOUS
10
108.737
20
-70.2232
11
108.877
21
-70.3625
0
LINE
8
BLACK
6
CONTINUOUS
10
108.877
20
-70.3625
11
108.986
21
-70.5263
0
LINE
8
BLACK
6
CONTINUOUS
10
108.986
20
-70.5263
11
109.062
21
-70.7083
0
LINE
8
BLACK
6
CONTINUOUS
10
109.062
20
-70.7083
11
109.1
21
-70.9015
0
LINE
8
BLACK
6
CONTINUOUS
10
109.1
20
-70.9015
11
109.1
21
-71.0985
0
LINE
8
BLACK
6
CONTINUOUS
10
109.1
20
-71.0985
11
109.062
21
-71.2917
0
LINE
8
BLACK
6
CONTINUOUS
10
109.062
20
-71.2917
11
108.986
21
-71.4737
0
LINE
8
BLACK
6
CONTINUOUS
10
108.986
20
-71.4737
11
108.877
21
-71.6375
0
LINE
8
BLACK
6
CONTINUOUS
10
108.877
20
-71.6375
11
108.737
21
-71.7768
0
LINE
8
BLACK
6
CONTINUOUS
10
108.737
20
-71.7768
11
108.574
21
-71.8862
0
LINE
8
BLACK
6
CONTINUOUS
10
108.574
20
-71.8862
11
108.392
21
-71.9616
0
LINE
8
BLACK
6
CONTINUOUS
10
108.392
20
-71.9616
11
108.198
21
-72
0
LINE
8
BLACK
6
CONTINUOUS
10
108.198
20
-72
11
108.002
21
-72
0
LINE
8
BLACK
6
CONTINUOUS
10
108.002
20
-72
11
107.808
21
-71.9616
0
LINE
8
BLACK
6
CONTINUOUS
10
107.808
20
-71.9616
11
107.626
21
-71.8862
0
LINE
8
BLACK
6
CONTINUOUS
10
107.626
20
-71.8862
11
107.463
21
-71.7768
0
LINE
8
BLACK
6
CONTINUOUS
10
107.463
20
-71.7768
11
107.323
21
-71.6375
0
LINE
8
BLACK
6
CONTINUOUS
10
107.323
20
-71.6375
11
107.214
21
-71.4737
0
LINE
8
BLACK
6
CONTINUOUS
10
107.214
20
-71.4737
11
107.138
21
-71.2917
0
LINE
8
BLACK
6
CONTINUOUS
10
107.138
20
-71.2917
11
107.1
21
-71.0985
0
LINE
8
BLACK
6
CONTINUOUS
10
107.1
20
-71.0985
11
107.1
21
-70.9015
0
LINE
8
BLACK
6
CONTINUOUS
10
107.1
20
-70.9015
11
107.138
21
-70.7083
0
LINE
8
BLACK
6
CONTINUOUS
10
107.138
20
-70.7083
11
107.214
21
-70.5263
0
LINE
8
BLACK
6
CONTINUOUS
10
107.214
20
-70.5263
11
107.323
21
-70.3625
0
LINE
8
BLACK
6
CONTINUOUS
10
107.323
20
-70.3625
11
107.463
21
-70.2232
0
LINE
8
BLACK
6
CONTINUOUS
10
107.463
20
-70.2232
11
107.626
21
-70.1138
0
LINE
8
BLACK
6
CONTINUOUS
10
107.626
20
-70.1138
11
107.808
21
-70.0384
0
LINE
8
BLACK
6
CONTINUOUS
10
107.808
20
-70.0384
11
108.002
21
-70
0
LINE
8
BLACK
6
CONTINUOUS
10
108.002
20
-70
11
108.198
21
-70
0
LINE
8
BLACK
6
CONTINUOUS
10
108.198
20
-70
11
108.392
21
-70.0384
0
LINE
8
BLACK
6
CONTINUOUS
10
116.7
20
-66.071
11
116.915
21
-66.1237
0
LINE
8
BLACK
6
CONTINUOUS
10
116.915
20
-66.1237
11
117.116
21
-66.2175
0
LINE
8
BLACK
6
CONTINUOUS
10
117.116
20
-66.2175
11
117.25
21
-66.3157
0
LINE
8
BLACK
6
CONTINUOUS
10
117.25
20
-66.3157
11
118.348
21
-67.3006
0
LINE
8
BLACK
6
CONTINUOUS
10
118.348
20
-67.3006
11
118.355
21
-67.2988
0
LINE
8
BLACK
6
CONTINUOUS
10
118.355
20
-67.2988
11
118.521
21
-67.2938
0
LINE
8
BLACK
6
CONTINUOUS
10
118.521
20
-67.2938
11
119.125
21
-67.335
0
LINE
8
BLACK
6
CONTINUOUS
10
119.125
20
-67.335
11
119.191
21
-67.335
0
LINE
8
BLACK
6
CONTINUOUS
10
119.191
20
-67.335
11
119.268
21
-67.3504
0
LINE
8
BLACK
6
CONTINUOUS
10
119.268
20
-67.3504
11
119.375
21
-67.3684
0
LINE
8
BLACK
6
CONTINUOUS
10
119.375
20
-67.3684
11
119.394
21
-67.3754
0
LINE
8
BLACK
6
CONTINUOUS
10
119.394
20
-67.3754
11
119.408
21
-67.3782
0
LINE
8
BLACK
6
CONTINUOUS
10
119.408
20
-67.3782
11
119.481
21
-67.4086
0
LINE
8
BLACK
6
CONTINUOUS
10
119.481
20
-67.4086
11
119.583
21
-67.447
0
LINE
8
BLACK
6
CONTINUOUS
10
119.583
20
-67.447
11
119.599
21
-67.4574
0
LINE
8
BLACK
6
CONTINUOUS
10
119.599
20
-67.4574
11
119.613
21
-67.463
0
LINE
8
BLACK
6
CONTINUOUS
10
119.613
20
-67.463
11
119.68
21
-67.5077
0
LINE
8
BLACK
6
CONTINUOUS
10
119.68
20
-67.5077
11
119.771
21
-67.5645
0
LINE
8
BLACK
6
CONTINUOUS
10
119.771
20
-67.5645
11
119.785
21
-67.5779
0
LINE
8
BLACK
6
CONTINUOUS
10
119.785
20
-67.5779
11
119.797
21
-67.5862
0
LINE
8
BLACK
6
CONTINUOUS
10
119.797
20
-67.5862
11
119.855
21
-67.6442
0
LINE
8
BLACK
6
CONTINUOUS
10
119.855
20
-67.6442
11
119.932
21
-67.7164
0
LINE
8
BLACK
6
CONTINUOUS
10
119.932
20
-67.7164
11
119.943
21
-67.732
0
LINE
8
BLACK
6
CONTINUOUS
10
119.943
20
-67.732
11
119.954
21
-67.7429
0
LINE
8
BLACK
6
CONTINUOUS
10
119.954
20
-67.7429
11
120.001
21
-67.8129
0
LINE
8
BLACK
6
CONTINUOUS
10
120.001
20
-67.8129
11
120.06
21
-67.8969
0
LINE
8
BLACK
6
CONTINUOUS
10
120.06
20
-67.8969
11
120.068
21
-67.914
0
LINE
8
BLACK
6
CONTINUOUS
10
120.068
20
-67.914
11
120.077
21
-67.9271
0
LINE
8
BLACK
6
CONTINUOUS
10
120.077
20
-67.9271
11
120.11
21
-68.0072
0
LINE
8
BLACK
6
CONTINUOUS
10
120.11
20
-68.0072
11
120.151
21
-68.099
0
LINE
8
BLACK
6
CONTINUOUS
10
120.151
20
-68.099
11
120.156
21
-68.1168
0
LINE
8
BLACK
6
CONTINUOUS
10
120.156
20
-68.1168
11
120.162
21
-68.1319
0
LINE
8
BLACK
6
CONTINUOUS
10
120.162
20
-68.1319
11
120.179
21
-68.2196
0
LINE
8
BLACK
6
CONTINUOUS
10
120.179
20
-68.2196
11
120.201
21
-68.3149
0
LINE
8
BLACK
6
CONTINUOUS
10
120.201
20
-68.3149
11
120.202
21
-68.3327
0
LINE
8
BLACK
6
CONTINUOUS
10
120.202
20
-68.3327
11
120.205
21
-68.3492
0
LINE
8
BLACK
6
CONTINUOUS
10
120.205
20
-68.3492
11
120.205
21
-68.4416
0
LINE
8
BLACK
6
CONTINUOUS
10
120.205
20
-68.4416
11
120.208
21
-68.5364
0
LINE
8
BLACK
6
CONTINUOUS
10
120.208
20
-68.5364
11
120.205
21
-68.5535
0
LINE
8
BLACK
6
CONTINUOUS
10
120.205
20
-68.5535
11
120.205
21
-68.5708
0
LINE
8
BLACK
6
CONTINUOUS
10
120.205
20
-68.5708
11
120.186
21
-68.6643
0
LINE
8
BLACK
6
CONTINUOUS
10
120.186
20
-68.6643
11
120.171
21
-68.755
0
LINE
8
BLACK
6
CONTINUOUS
10
120.171
20
-68.755
11
120.165
21
-68.7706
0
LINE
8
BLACK
6
CONTINUOUS
10
120.165
20
-68.7706
11
120.162
21
-68.7882
0
LINE
8
BLACK
6
CONTINUOUS
10
120.162
20
-68.7882
11
120.124
21
-68.879
0
LINE
8
BLACK
6
CONTINUOUS
10
120.124
20
-68.879
11
120.093
21
-68.9622
0
LINE
8
BLACK
6
CONTINUOUS
10
120.093
20
-68.9622
11
120.084
21
-68.9759
0
LINE
8
BLACK
6
CONTINUOUS
10
120.084
20
-68.9759
11
120.077
21
-68.9929
0
LINE
8
BLACK
6
CONTINUOUS
10
120.077
20
-68.9929
11
120.021
21
-69.0769
0
LINE
8
BLACK
6
CONTINUOUS
10
120.021
20
-69.0769
11
119.975
21
-69.1501
0
LINE
8
BLACK
6
CONTINUOUS
10
119.975
20
-69.1501
11
119.964
21
-69.1615
0
LINE
8
BLACK
6
CONTINUOUS
10
119.964
20
-69.1615
11
119.954
21
-69.1771
0
LINE
8
BLACK
6
CONTINUOUS
10
119.954
20
-69.1771
11
119.881
21
-69.2504
0
LINE
8
BLACK
6
CONTINUOUS
10
119.881
20
-69.2504
11
119.823
21
-69.3114
0
LINE
8
BLACK
6
CONTINUOUS
10
119.823
20
-69.3114
11
119.811
21
-69.3203
0
LINE
8
BLACK
6
CONTINUOUS
10
119.811
20
-69.3203
11
119.797
21
-69.3338
0
LINE
8
BLACK
6
CONTINUOUS
10
119.797
20
-69.3338
11
119.709
21
-69.3926
0
LINE
8
BLACK
6
CONTINUOUS
10
119.709
20
-69.3926
11
119.643
21
-69.44
0
LINE
8
BLACK
6
CONTINUOUS
10
119.643
20
-69.44
11
119.629
21
-69.4461
0
LINE
8
BLACK
6
CONTINUOUS
10
119.629
20
-69.4461
11
119.613
21
-69.457
0
LINE
8
BLACK
6
CONTINUOUS
10
119.613
20
-69.457
11
119.514
21
-69.498
0
LINE
8
BLACK
6
CONTINUOUS
10
119.514
20
-69.498
11
119.441
21
-69.5309
0
LINE
8
BLACK
6
CONTINUOUS
10
119.441
20
-69.5309
11
119.426
21
-69.5342
0
LINE
8
BLACK
6
CONTINUOUS
10
119.426
20
-69.5342
11
119.408
21
-69.5418
0
LINE
8
BLACK
6
CONTINUOUS
10
119.408
20
-69.5418
11
119.302
21
-69.5629
0
LINE
8
BLACK
6
CONTINUOUS
10
119.302
20
-69.5629
11
119.225
21
-69.5807
0
LINE
8
BLACK
6
CONTINUOUS
10
119.225
20
-69.5807
11
119.21
21
-69.5811
0
LINE
8
BLACK
6
CONTINUOUS
10
119.21
20
-69.5811
11
119.191
21
-69.585
0
LINE
8
BLACK
6
CONTINUOUS
10
119.191
20
-69.585
11
119.082
21
-69.585
0
LINE
8
BLACK
6
CONTINUOUS
10
119.082
20
-69.585
11
119.059
21
-69.5857
0
LINE
8
BLACK
6
CONTINUOUS
10
119.059
20
-69.5857
11
119.048
21
-69.585
0
LINE
8
BLACK
6
CONTINUOUS
10
119.048
20
-69.585
11
118.969
21
-69.585
0
LINE
8
BLACK
6
CONTINUOUS
10
118.969
20
-69.585
11
118.928
21
-69.5768
0
LINE
8
BLACK
6
CONTINUOUS
10
118.928
20
-69.5768
11
118.425
21
-69.5425
0
LINE
8
BLACK
6
CONTINUOUS
10
118.425
20
-69.5425
11
118.408
21
-69.5488
0
LINE
8
BLACK
6
CONTINUOUS
10
118.408
20
-69.5488
11
118.328
21
-69.5818
0
LINE
8
BLACK
6
CONTINUOUS
10
118.328
20
-69.5818
11
118.304
21
-69.5866
0
LINE
8
BLACK
6
CONTINUOUS
10
118.304
20
-69.5866
11
118.28
21
-69.5952
0
LINE
8
BLACK
6
CONTINUOUS
10
118.28
20
-69.5952
11
118.195
21
-69.6082
0
LINE
8
BLACK
6
CONTINUOUS
10
118.195
20
-69.6082
11
118.111
21
-69.625
0
LINE
8
BLACK
6
CONTINUOUS
10
118.111
20
-69.625
11
118.086
21
-69.625
0
LINE
8
BLACK
6
CONTINUOUS
10
118.086
20
-69.625
11
118.061
21
-69.6288
0
LINE
8
BLACK
6
CONTINUOUS
10
118.061
20
-69.6288
11
117.975
21
-69.625
0
LINE
8
BLACK
6
CONTINUOUS
10
117.975
20
-69.625
11
117.889
21
-69.625
0
LINE
8
BLACK
6
CONTINUOUS
10
117.889
20
-69.625
11
117.865
21
-69.6201
0
LINE
8
BLACK
6
CONTINUOUS
10
117.865
20
-69.6201
11
117.84
21
-69.619
0
LINE
8
BLACK
6
CONTINUOUS
10
117.84
20
-69.619
11
117.756
21
-69.5986
0
LINE
8
BLACK
6
CONTINUOUS
10
117.756
20
-69.5986
11
117.672
21
-69.5818
0
LINE
8
BLACK
6
CONTINUOUS
10
117.672
20
-69.5818
11
117.649
21
-69.5722
0
LINE
8
BLACK
6
CONTINUOUS
10
117.649
20
-69.5722
11
117.625
21
-69.5662
0
LINE
8
BLACK
6
CONTINUOUS
10
117.625
20
-69.5662
11
117.547
21
-69.53
0
LINE
8
BLACK
6
CONTINUOUS
10
117.547
20
-69.53
11
117.467
21
-69.497
0
LINE
8
BLACK
6
CONTINUOUS
10
117.467
20
-69.497
11
117.446
21
-69.483
0
LINE
8
BLACK
6
CONTINUOUS
10
117.446
20
-69.483
11
117.424
21
-69.4725
0
LINE
8
BLACK
6
CONTINUOUS
10
117.424
20
-69.4725
11
117.355
21
-69.4218
0
LINE
8
BLACK
6
CONTINUOUS
10
117.355
20
-69.4218
11
117.283
21
-69.3738
0
LINE
8
BLACK
6
CONTINUOUS
10
117.283
20
-69.3738
11
117.226
21
-69.3169
0
LINE
8
BLACK
6
CONTINUOUS
10
117.226
20
-69.3169
11
115.748
21
-67.9904
0
LINE
8
BLACK
6
CONTINUOUS
10
115.748
20
-67.9904
11
115.635
21
-67.868
0
LINE
8
BLACK
6
CONTINUOUS
10
115.635
20
-67.868
11
115.521
21
-67.6784
0
LINE
8
BLACK
6
CONTINUOUS
10
115.521
20
-67.6784
11
115.445
21
-67.4702
0
LINE
8
BLACK
6
CONTINUOUS
10
115.445
20
-67.4702
11
115.411
21
-67.2511
0
LINE
8
BLACK
6
CONTINUOUS
10
115.411
20
-67.2511
11
115.421
21
-67.0297
0
LINE
8
BLACK
6
CONTINUOUS
10
115.421
20
-67.0297
11
115.474
21
-66.8145
0
LINE
8
BLACK
6
CONTINUOUS
10
115.474
20
-66.8145
11
115.567
21
-66.6137
0
LINE
8
BLACK
6
CONTINUOUS
10
115.567
20
-66.6137
11
115.699
21
-66.4351
0
LINE
8
BLACK
6
CONTINUOUS
10
115.699
20
-66.4351
11
115.862
21
-66.2854
0
LINE
8
BLACK
6
CONTINUOUS
10
115.862
20
-66.2854
11
116.052
21
-66.1705
0
LINE
8
BLACK
6
CONTINUOUS
10
116.052
20
-66.1705
11
116.26
21
-66.0948
0
LINE
8
BLACK
6
CONTINUOUS
10
116.26
20
-66.0948
11
116.479
21
-66.0612
0
LINE
8
BLACK
6
CONTINUOUS
10
116.479
20
-66.0612
11
116.7
21
-66.071
0
LINE
8
BLACK
6
CONTINUOUS
10
110.492
20
-65.0384
11
110.674
21
-65.1138
0
LINE
8
BLACK
6
CONTINUOUS
10
110.674
20
-65.1138
11
110.837
21
-65.2232
0
LINE
8
BLACK
6
CONTINUOUS
10
110.837
20
-65.2232
11
110.977
21
-65.3625
0
LINE
8
BLACK
6
CONTINUOUS
10
110.977
20
-65.3625
11
111.086
21
-65.5263
0
LINE
8
BLACK
6
CONTINUOUS
10
111.086
20
-65.5263
11
111.162
21
-65.7083
0
LINE
8
BLACK
6
CONTINUOUS
10
111.162
20
-65.7083
11
111.2
21
-65.9015
0
LINE
8
BLACK
6
CONTINUOUS
10
111.2
20
-65.9015
11
111.2
21
-66.0985
0
LINE
8
BLACK
6
CONTINUOUS
10
111.2
20
-66.0985
11
111.162
21
-66.2917
0
LINE
8
BLACK
6
CONTINUOUS
10
111.162
20
-66.2917
11
111.086
21
-66.4737
0
LINE
8
BLACK
6
CONTINUOUS
10
111.086
20
-66.4737
11
110.977
21
-66.6375
0
LINE
8
BLACK
6
CONTINUOUS
10
110.977
20
-66.6375
11
110.837
21
-66.7768
0
LINE
8
BLACK
6
CONTINUOUS
10
110.837
20
-66.7768
11
110.674
21
-66.8862
0
LINE
8
BLACK
6
CONTINUOUS
10
110.674
20
-66.8862
11
110.492
21
-66.9616
0
LINE
8
BLACK
6
CONTINUOUS
10
110.492
20
-66.9616
11
110.298
21
-67
0
LINE
8
BLACK
6
CONTINUOUS
10
110.298
20
-67
11
110.102
21
-67
0
LINE
8
BLACK
6
CONTINUOUS
10
110.102
20
-67
11
109.908
21
-66.9616
0
LINE
8
BLACK
6
CONTINUOUS
10
109.908
20
-66.9616
11
109.726
21
-66.8862
0
LINE
8
BLACK
6
CONTINUOUS
10
109.726
20
-66.8862
11
109.563
21
-66.7768
0
LINE
8
BLACK
6
CONTINUOUS
10
109.563
20
-66.7768
11
109.423
21
-66.6375
0
LINE
8
BLACK
6
CONTINUOUS
10
109.423
20
-66.6375
11
109.314
21
-66.4737
0
LINE
8
BLACK
6
CONTINUOUS
10
109.314
20
-66.4737
11
109.238
21
-66.2917
0
LINE
8
BLACK
6
CONTINUOUS
10
109.238
20
-66.2917
11
109.2
21
-66.0985
0
LINE
8
BLACK
6
CONTINUOUS
10
109.2
20
-66.0985
11
109.2
21
-65.9015
0
LINE
8
BLACK
6
CONTINUOUS
10
109.2
20
-65.9015
11
109.238
21
-65.7083
0
LINE
8
BLACK
6
CONTINUOUS
10
109.238
20
-65.7083
11
109.314
21
-65.5263
0
LINE
8
BLACK
6
CONTINUOUS
10
109.314
20
-65.5263
11
109.423
21
-65.3625
0
LINE
8
BLACK
6
CONTINUOUS
10
109.423
20
-65.3625
11
109.563
21
-65.2232
0
LINE
8
BLACK
6
CONTINUOUS
10
109.563
20
-65.2232
11
109.726
21
-65.1138
0
LINE
8
BLACK
6
CONTINUOUS
10
109.726
20
-65.1138
11
109.908
21
-65.0384
0
LINE
8
BLACK
6
CONTINUOUS
10
109.908
20
-65.0384
11
110.102
21
-65
0
LINE
8
BLACK
6
CONTINUOUS
10
110.102
20
-65
11
110.298
21
-65
0
LINE
8
BLACK
6
CONTINUOUS
10
110.298
20
-65
11
110.492
21
-65.0384
0
LINE
8
BLACK
6
CONTINUOUS
10
114.248
20
-64.6827
11
114.403
21
-64.7467
0
LINE
8
BLACK
6
CONTINUOUS
10
114.403
20
-64.7467
11
114.542
21
-64.8398
0
LINE
8
BLACK
6
CONTINUOUS
10
114.542
20
-64.8398
11
114.66
21
-64.9582
0
LINE
8
BLACK
6
CONTINUOUS
10
114.66
20
-64.9582
11
114.753
21
-65.0974
0
LINE
8
BLACK
6
CONTINUOUS
10
114.753
20
-65.0974
11
114.817
21
-65.2521
0
LINE
8
BLACK
6
CONTINUOUS
10
114.817
20
-65.2521
11
114.85
21
-65.4163
0
LINE
8
BLACK
6
CONTINUOUS
10
114.85
20
-65.4163
11
114.85
21
-65.5837
0
LINE
8
BLACK
6
CONTINUOUS
10
114.85
20
-65.5837
11
114.836
21
-65.6525
0
LINE
8
BLACK
6
CONTINUOUS
10
114.836
20
-65.6525
11
114.841
21
-65.6648
0
LINE
8
BLACK
6
CONTINUOUS
10
114.841
20
-65.6648
11
114.875
21
-65.8338
0
LINE
8
BLACK
6
CONTINUOUS
10
114.875
20
-65.8338
11
114.875
21
-66.0062
0
LINE
8
BLACK
6
CONTINUOUS
10
114.875
20
-66.0062
11
114.841
21
-66.1752
0
LINE
8
BLACK
6
CONTINUOUS
10
114.841
20
-66.1752
11
114.775
21
-66.3345
0
LINE
8
BLACK
6
CONTINUOUS
10
114.775
20
-66.3345
11
114.68
21
-66.4778
0
LINE
8
BLACK
6
CONTINUOUS
10
114.68
20
-66.4778
11
114.558
21
-66.5997
0
LINE
8
BLACK
6
CONTINUOUS
10
114.558
20
-66.5997
11
114.414
21
-66.6954
0
LINE
8
BLACK
6
CONTINUOUS
10
114.414
20
-66.6954
11
114.255
21
-66.7614
0
LINE
8
BLACK
6
CONTINUOUS
10
114.255
20
-66.7614
11
114.086
21
-66.795
0
LINE
8
BLACK
6
CONTINUOUS
10
114.086
20
-66.795
11
113.914
21
-66.795
0
LINE
8
BLACK
6
CONTINUOUS
10
113.914
20
-66.795
11
113.745
21
-66.7614
0
LINE
8
BLACK
6
CONTINUOUS
10
113.745
20
-66.7614
11
113.586
21
-66.6954
0
LINE
8
BLACK
6
CONTINUOUS
10
113.586
20
-66.6954
11
113.442
21
-66.5997
0
LINE
8
BLACK
6
CONTINUOUS
10
113.442
20
-66.5997
11
113.32
21
-66.4778
0
LINE
8
BLACK
6
CONTINUOUS
10
113.32
20
-66.4778
11
113.225
21
-66.3345
0
LINE
8
BLACK
6
CONTINUOUS
10
113.225
20
-66.3345
11
113.159
21
-66.1752
0
LINE
8
BLACK
6
CONTINUOUS
10
113.159
20
-66.1752
11
113.125
21
-66.0062
0
LINE
8
BLACK
6
CONTINUOUS
10
113.125
20
-66.0062
11
113.125
21
-65.8338
0
LINE
8
BLACK
6
CONTINUOUS
10
113.125
20
-65.8338
11
113.159
21
-65.6648
0
LINE
8
BLACK
6
CONTINUOUS
10
113.159
20
-65.6648
11
113.164
21
-65.6525
0
LINE
8
BLACK
6
CONTINUOUS
10
113.164
20
-65.6525
11
113.15
21
-65.5837
0
LINE
8
BLACK
6
CONTINUOUS
10
113.15
20
-65.5837
11
113.15
21
-65.4163
0
LINE
8
BLACK
6
CONTINUOUS
10
113.15
20
-65.4163
11
113.183
21
-65.2521
0
LINE
8
BLACK
6
CONTINUOUS
10
113.183
20
-65.2521
11
113.247
21
-65.0974
0
LINE
8
BLACK
6
CONTINUOUS
10
113.247
20
-65.0974
11
113.34
21
-64.9582
0
LINE
8
BLACK
6
CONTINUOUS
10
113.34
20
-64.9582
11
113.458
21
-64.8398
0
LINE
8
BLACK
6
CONTINUOUS
10
113.458
20
-64.8398
11
113.597
21
-64.7467
0
LINE
8
BLACK
6
CONTINUOUS
10
113.597
20
-64.7467
11
113.752
21
-64.6827
0
LINE
8
BLACK
6
CONTINUOUS
10
113.752
20
-64.6827
11
113.916
21
-64.65
0
LINE
8
BLACK
6
CONTINUOUS
10
113.916
20
-64.65
11
114.084
21
-64.65
0
LINE
8
BLACK
6
CONTINUOUS
10
114.084
20
-64.65
11
114.248
21
-64.6827
0
LINE
8
BLACK
6
CONTINUOUS
10
120.338
20
-59.6065
11
120.423
21
-59.6322
0
LINE
8
BLACK
6
CONTINUOUS
10
120.423
20
-59.6322
11
120.501
21
-59.674
0
LINE
8
BLACK
6
CONTINUOUS
10
120.501
20
-59.674
11
120.57
21
-59.7303
0
LINE
8
BLACK
6
CONTINUOUS
10
120.57
20
-59.7303
11
120.626
21
-59.7988
0
LINE
8
BLACK
6
CONTINUOUS
10
120.626
20
-59.7988
11
120.668
21
-59.877
0
LINE
8
BLACK
6
CONTINUOUS
10
120.668
20
-59.877
11
120.693
21
-59.9618
0
LINE
8
BLACK
6
CONTINUOUS
10
120.693
20
-59.9618
11
120.702
21
-60.05
0
LINE
8
BLACK
6
CONTINUOUS
10
120.702
20
-60.05
11
120.693
21
-60.1382
0
LINE
8
BLACK
6
CONTINUOUS
10
120.693
20
-60.1382
11
120.668
21
-60.223
0
LINE
8
BLACK
6
CONTINUOUS
10
120.668
20
-60.223
11
120.626
21
-60.3012
0
LINE
8
BLACK
6
CONTINUOUS
10
120.626
20
-60.3012
11
120.57
21
-60.3697
0
LINE
8
BLACK
6
CONTINUOUS
10
120.57
20
-60.3697
11
120.501
21
-60.426
0
LINE
8
BLACK
6
CONTINUOUS
10
120.501
20
-60.426
11
120.423
21
-60.4678
0
LINE
8
BLACK
6
CONTINUOUS
10
120.423
20
-60.4678
11
120.338
21
-60.4935
0
LINE
8
BLACK
6
CONTINUOUS
10
120.338
20
-60.4935
11
120.272
21
-60.5
0
LINE
8
BLACK
6
CONTINUOUS
10
120.272
20
-60.5
11
119.328
21
-60.5
0
LINE
8
BLACK
6
CONTINUOUS
10
119.328
20
-60.5
11
119.262
21
-60.4935
0
LINE
8
BLACK
6
CONTINUOUS
10
119.262
20
-60.4935
11
119.177
21
-60.4678
0
LINE
8
BLACK
6
CONTINUOUS
10
119.177
20
-60.4678
11
119.099
21
-60.426
0
LINE
8
BLACK
6
CONTINUOUS
10
119.099
20
-60.426
11
119.03
21
-60.3697
0
LINE
8
BLACK
6
CONTINUOUS
10
119.03
20
-60.3697
11
118.974
21
-60.3012
0
LINE
8
BLACK
6
CONTINUOUS
10
118.974
20
-60.3012
11
118.932
21
-60.223
0
LINE
8
BLACK
6
CONTINUOUS
10
118.932
20
-60.223
11
118.907
21
-60.1382
0
LINE
8
BLACK
6
CONTINUOUS
10
118.907
20
-60.1382
11
118.898
21
-60.05
0
LINE
8
BLACK
6
CONTINUOUS
10
118.898
20
-60.05
11
118.907
21
-59.9618
0
LINE
8
BLACK
6
CONTINUOUS
10
118.907
20
-59.9618
11
118.932
21
-59.877
0
LINE
8
BLACK
6
CONTINUOUS
10
118.932
20
-59.877
11
118.974
21
-59.7988
0
LINE
8
BLACK
6
CONTINUOUS
10
118.974
20
-59.7988
11
119.03
21
-59.7303
0
LINE
8
BLACK
6
CONTINUOUS
10
119.03
20
-59.7303
11
119.099
21
-59.674
0
LINE
8
BLACK
6
CONTINUOUS
10
119.099
20
-59.674
11
119.177
21
-59.6322
0
LINE
8
BLACK
6
CONTINUOUS
10
119.177
20
-59.6322
11
119.262
21
-59.6065
0
LINE
8
BLACK
6
CONTINUOUS
10
119.262
20
-59.6065
11
119.328
21
-59.6
0
LINE
8
BLACK
6
CONTINUOUS
10
119.328
20
-59.6
11
120.272
21
-59.6
0
LINE
8
BLACK
6
CONTINUOUS
10
120.272
20
-59.6
11
120.338
21
-59.6065
0
LINE
8
BLACK
6
CONTINUOUS
10
123.188
20
-59.6065
11
123.273
21
-59.6322
0
LINE
8
BLACK
6
CONTINUOUS
10
123.273
20
-59.6322
11
123.351
21
-59.674
0
LINE
8
BLACK
6
CONTINUOUS
10
123.351
20
-59.674
11
123.42
21
-59.7303
0
LINE
8
BLACK
6
CONTINUOUS
10
123.42
20
-59.7303
11
123.476
21
-59.7988
0
LINE
8
BLACK
6
CONTINUOUS
10
123.476
20
-59.7988
11
123.518
21
-59.877
0
LINE
8
BLACK
6
CONTINUOUS
10
123.518
20
-59.877
11
123.543
21
-59.9618
0
LINE
8
BLACK
6
CONTINUOUS
10
123.543
20
-59.9618
11
123.552
21
-60.05
0
LINE
8
BLACK
6
CONTINUOUS
10
123.552
20
-60.05
11
123.543
21
-60.1382
0
LINE
8
BLACK
6
CONTINUOUS
10
123.543
20
-60.1382
11
123.518
21
-60.223
0
LINE
8
BLACK
6
CONTINUOUS
10
123.518
20
-60.223
11
123.476
21
-60.3012
0
LINE
8
BLACK
6
CONTINUOUS
10
123.476
20
-60.3012
11
123.42
21
-60.3697
0
LINE
8
BLACK
6
CONTINUOUS
10
123.42
20
-60.3697
11
123.351
21
-60.426
0
LINE
8
BLACK
6
CONTINUOUS
10
123.351
20
-60.426
11
123.273
21
-60.4678
0
LINE
8
BLACK
6
CONTINUOUS
10
123.273
20
-60.4678
11
123.188
21
-60.4935
0
LINE
8
BLACK
6
CONTINUOUS
10
123.188
20
-60.4935
11
123.122
21
-60.5
0
LINE
8
BLACK
6
CONTINUOUS
10
123.122
20
-60.5
11
122.178
21
-60.5
0
LINE
8
BLACK
6
CONTINUOUS
10
122.178
20
-60.5
11
122.112
21
-60.4935
0
LINE
8
BLACK
6
CONTINUOUS
10
122.112
20
-60.4935
11
122.027
21
-60.4678
0
LINE
8
BLACK
6
CONTINUOUS
10
122.027
20
-60.4678
11
121.949
21
-60.426
0
LINE
8
BLACK
6
CONTINUOUS
10
121.949
20
-60.426
11
121.88
21
-60.3697
0
LINE
8
BLACK
6
CONTINUOUS
10
121.88
20
-60.3697
11
121.824
21
-60.3012
0
LINE
8
BLACK
6
CONTINUOUS
10
121.824
20
-60.3012
11
121.782
21
-60.223
0
LINE
8
BLACK
6
CONTINUOUS
10
121.782
20
-60.223
11
121.757
21
-60.1382
0
LINE
8
BLACK
6
CONTINUOUS
10
121.757
20
-60.1382
11
121.748
21
-60.05
0
LINE
8
BLACK
6
CONTINUOUS
10
121.748
20
-60.05
11
121.757
21
-59.9618
0
LINE
8
BLACK
6
CONTINUOUS
10
121.757
20
-59.9618
11
121.782
21
-59.877
0
LINE
8
BLACK
6
CONTINUOUS
10
121.782
20
-59.877
11
121.824
21
-59.7988
0
LINE
8
BLACK
6
CONTINUOUS
10
121.824
20
-59.7988
11
121.88
21
-59.7303
0
LINE
8
BLACK
6
CONTINUOUS
10
121.88
20
-59.7303
11
121.949
21
-59.674
0
LINE
8
BLACK
6
CONTINUOUS
10
121.949
20
-59.674
11
122.027
21
-59.6322
0
LINE
8
BLACK
6
CONTINUOUS
10
122.027
20
-59.6322
11
122.112
21
-59.6065
0
LINE
8
BLACK
6
CONTINUOUS
10
122.112
20
-59.6065
11
122.178
21
-59.6
0
LINE
8
BLACK
6
CONTINUOUS
10
122.178
20
-59.6
11
123.122
21
-59.6
0
LINE
8
BLACK
6
CONTINUOUS
10
123.122
20
-59.6
11
123.188
21
-59.6065
0
LINE
8
BLACK
6
CONTINUOUS
10
115.138
20
-59.6065
11
115.223
21
-59.6322
0
LINE
8
BLACK
6
CONTINUOUS
10
115.223
20
-59.6322
11
115.301
21
-59.674
0
LINE
8
BLACK
6
CONTINUOUS
10
115.301
20
-59.674
11
115.37
21
-59.7303
0
LINE
8
BLACK
6
CONTINUOUS
10
115.37
20
-59.7303
11
115.426
21
-59.7988
0
LINE
8
BLACK
6
CONTINUOUS
10
115.426
20
-59.7988
11
115.468
21
-59.877
0
LINE
8
BLACK
6
CONTINUOUS
10
115.468
20
-59.877
11
115.493
21
-59.9618
0
LINE
8
BLACK
6
CONTINUOUS
10
115.493
20
-59.9618
11
115.502
21
-60.05
0
LINE
8
BLACK
6
CONTINUOUS
10
115.502
20
-60.05
11
115.493
21
-60.1382
0
LINE
8
BLACK
6
CONTINUOUS
10
115.493
20
-60.1382
11
115.468
21
-60.223
0
LINE
8
BLACK
6
CONTINUOUS
10
115.468
20
-60.223
11
115.426
21
-60.3012
0
LINE
8
BLACK
6
CONTINUOUS
10
115.426
20
-60.3012
11
115.37
21
-60.3697
0
LINE
8
BLACK
6
CONTINUOUS
10
115.37
20
-60.3697
11
115.301
21
-60.426
0
LINE
8
BLACK
6
CONTINUOUS
10
115.301
20
-60.426
11
115.223
21
-60.4678
0
LINE
8
BLACK
6
CONTINUOUS
10
115.223
20
-60.4678
11
115.138
21
-60.4935
0
LINE
8
BLACK
6
CONTINUOUS
10
115.138
20
-60.4935
11
115.072
21
-60.5
0
LINE
8
BLACK
6
CONTINUOUS
10
115.072
20
-60.5
11
114.128
21
-60.5
0
LINE
8
BLACK
6
CONTINUOUS
10
114.128
20
-60.5
11
114.062
21
-60.4935
0
LINE
8
BLACK
6
CONTINUOUS
10
114.062
20
-60.4935
11
113.977
21
-60.4678
0
LINE
8
BLACK
6
CONTINUOUS
10
113.977
20
-60.4678
11
113.899
21
-60.426
0
LINE
8
BLACK
6
CONTINUOUS
10
113.899
20
-60.426
11
113.83
21
-60.3697
0
LINE
8
BLACK
6
CONTINUOUS
10
113.83
20
-60.3697
11
113.774
21
-60.3012
0
LINE
8
BLACK
6
CONTINUOUS
10
113.774
20
-60.3012
11
113.732
21
-60.223
0
LINE
8
BLACK
6
CONTINUOUS
10
113.732
20
-60.223
11
113.707
21
-60.1382
0
LINE
8
BLACK
6
CONTINUOUS
10
113.707
20
-60.1382
11
113.698
21
-60.05
0
LINE
8
BLACK
6
CONTINUOUS
10
113.698
20
-60.05
11
113.707
21
-59.9618
0
LINE
8
BLACK
6
CONTINUOUS
10
113.707
20
-59.9618
11
113.732
21
-59.877
0
LINE
8
BLACK
6
CONTINUOUS
10
113.732
20
-59.877
11
113.774
21
-59.7988
0
LINE
8
BLACK
6
CONTINUOUS
10
113.774
20
-59.7988
11
113.83
21
-59.7303
0
LINE
8
BLACK
6
CONTINUOUS
10
113.83
20
-59.7303
11
113.899
21
-59.674
0
LINE
8
BLACK
6
CONTINUOUS
10
113.899
20
-59.674
11
113.977
21
-59.6322
0
LINE
8
BLACK
6
CONTINUOUS
10
113.977
20
-59.6322
11
114.062
21
-59.6065
0
LINE
8
BLACK
6
CONTINUOUS
10
114.062
20
-59.6065
11
114.128
21
-59.6
0
LINE
8
BLACK
6
CONTINUOUS
10
114.128
20
-59.6
11
115.072
21
-59.6
0
LINE
8
BLACK
6
CONTINUOUS
10
115.072
20
-59.6
11
115.138
21
-59.6065
0
LINE
8
BLACK
6
CONTINUOUS
10
110.306
20
-57.7925
11
110.488
21
-57.8679
0
LINE
8
BLACK
6
CONTINUOUS
10
110.488
20
-57.8679
11
110.652
21
-57.9774
0
LINE
8
BLACK
6
CONTINUOUS
10
110.652
20
-57.9774
11
110.791
21
-58.1167
0
LINE
8
BLACK
6
CONTINUOUS
10
110.791
20
-58.1167
11
110.9
21
-58.2804
0
LINE
8
BLACK
6
CONTINUOUS
10
110.9
20
-58.2804
11
110.976
21
-58.4624
0
LINE
8
BLACK
6
CONTINUOUS
10
110.976
20
-58.4624
11
111.014
21
-58.6556
0
LINE
8
BLACK
6
CONTINUOUS
10
111.014
20
-58.6556
11
111.014
21
-58.8526
0
LINE
8
BLACK
6
CONTINUOUS
10
111.014
20
-58.8526
11
110.976
21
-59.0458
0
LINE
8
BLACK
6
CONTINUOUS
10
110.976
20
-59.0458
11
110.9
21
-59.2278
0
LINE
8
BLACK
6
CONTINUOUS
10
110.9
20
-59.2278
11
110.791
21
-59.3916
0
LINE
8
BLACK
6
CONTINUOUS
10
110.791
20
-59.3916
11
110.652
21
-59.5309
0
LINE
8
BLACK
6
CONTINUOUS
10
110.652
20
-59.5309
11
110.488
21
-59.6403
0
LINE
8
BLACK
6
CONTINUOUS
10
110.488
20
-59.6403
11
110.306
21
-59.7157
0
LINE
8
BLACK
6
CONTINUOUS
10
110.306
20
-59.7157
11
110.113
21
-59.7541
0
LINE
8
BLACK
6
CONTINUOUS
10
110.113
20
-59.7541
11
109.916
21
-59.7541
0
LINE
8
BLACK
6
CONTINUOUS
10
109.916
20
-59.7541
11
109.722
21
-59.7157
0
LINE
8
BLACK
6
CONTINUOUS
10
109.722
20
-59.7157
11
109.54
21
-59.6403
0
LINE
8
BLACK
6
CONTINUOUS
10
109.54
20
-59.6403
11
109.377
21
-59.5309
0
LINE
8
BLACK
6
CONTINUOUS
10
109.377
20
-59.5309
11
109.237
21
-59.3916
0
LINE
8
BLACK
6
CONTINUOUS
10
109.237
20
-59.3916
11
109.128
21
-59.2278
0
LINE
8
BLACK
6
CONTINUOUS
10
109.128
20
-59.2278
11
109.052
21
-59.0458
0
LINE
8
BLACK
6
CONTINUOUS
10
109.052
20
-59.0458
11
109.014
21
-58.8526
0
LINE
8
BLACK
6
CONTINUOUS
10
109.014
20
-58.8526
11
109.014
21
-58.6556
0
LINE
8
BLACK
6
CONTINUOUS
10
109.014
20
-58.6556
11
109.052
21
-58.4624
0
LINE
8
BLACK
6
CONTINUOUS
10
109.052
20
-58.4624
11
109.128
21
-58.2804
0
LINE
8
BLACK
6
CONTINUOUS
10
109.128
20
-58.2804
11
109.237
21
-58.1167
0
LINE
8
BLACK
6
CONTINUOUS
10
109.237
20
-58.1167
11
109.377
21
-57.9774
0
LINE
8
BLACK
6
CONTINUOUS
10
109.377
20
-57.9774
11
109.54
21
-57.8679
0
LINE
8
BLACK
6
CONTINUOUS
10
109.54
20
-57.8679
11
109.722
21
-57.7925
0
LINE
8
BLACK
6
CONTINUOUS
10
109.722
20
-57.7925
11
109.916
21
-57.7541
0
LINE
8
BLACK
6
CONTINUOUS
10
109.916
20
-57.7541
11
110.113
21
-57.7541
0
LINE
8
BLACK
6
CONTINUOUS
10
110.113
20
-57.7541
11
110.306
21
-57.7925
0
LINE
8
BLACK
6
CONTINUOUS
10
106.533
20
-56.9677
11
106.693
21
-57.0163
0
LINE
8
BLACK
6
CONTINUOUS
10
106.693
20
-57.0163
11
106.841
21
-57.0952
0
LINE
8
BLACK
6
CONTINUOUS
10
106.841
20
-57.0952
11
106.971
21
-57.2014
0
LINE
8
BLACK
6
CONTINUOUS
10
106.971
20
-57.2014
11
107.077
21
-57.3308
0
LINE
8
BLACK
6
CONTINUOUS
10
107.077
20
-57.3308
11
107.156
21
-57.4785
0
LINE
8
BLACK
6
CONTINUOUS
10
107.156
20
-57.4785
11
107.204
21
-57.6387
0
LINE
8
BLACK
6
CONTINUOUS
10
107.204
20
-57.6387
11
107.221
21
-57.8054
0
LINE
8
BLACK
6
CONTINUOUS
10
107.221
20
-57.8054
11
107.204
21
-57.972
0
LINE
8
BLACK
6
CONTINUOUS
10
107.204
20
-57.972
11
107.156
21
-58.1322
0
LINE
8
BLACK
6
CONTINUOUS
10
107.156
20
-58.1322
11
107.077
21
-58.2799
0
LINE
8
BLACK
6
CONTINUOUS
10
107.077
20
-58.2799
11
106.971
21
-58.4093
0
LINE
8
BLACK
6
CONTINUOUS
10
106.971
20
-58.4093
11
106.841
21
-58.5155
0
LINE
8
BLACK
6
CONTINUOUS
10
106.841
20
-58.5155
11
106.693
21
-58.5945
0
LINE
8
BLACK
6
CONTINUOUS
10
106.693
20
-58.5945
11
106.533
21
-58.6431
0
LINE
8
BLACK
6
CONTINUOUS
10
106.533
20
-58.6431
11
106.408
21
-58.6554
0
LINE
8
BLACK
6
CONTINUOUS
10
106.408
20
-58.6554
11
106.325
21
-58.6554
0
LINE
8
BLACK
6
CONTINUOUS
10
106.325
20
-58.6554
11
106.2
21
-58.6431
0
LINE
8
BLACK
6
CONTINUOUS
10
106.2
20
-58.6431
11
106.04
21
-58.5945
0
LINE
8
BLACK
6
CONTINUOUS
10
106.04
20
-58.5945
11
105.892
21
-58.5155
0
LINE
8
BLACK
6
CONTINUOUS
10
105.892
20
-58.5155
11
105.763
21
-58.4093
0
LINE
8
BLACK
6
CONTINUOUS
10
105.763
20
-58.4093
11
105.656
21
-58.2799
0
LINE
8
BLACK
6
CONTINUOUS
10
105.656
20
-58.2799
11
105.578
21
-58.1322
0
LINE
8
BLACK
6
CONTINUOUS
10
105.578
20
-58.1322
11
105.529
21
-57.972
0
LINE
8
BLACK
6
CONTINUOUS
10
105.529
20
-57.972
11
105.512
21
-57.8054
0
LINE
8
BLACK
6
CONTINUOUS
10
105.512
20
-57.8054
11
105.529
21
-57.6387
0
LINE
8
BLACK
6
CONTINUOUS
10
105.529
20
-57.6387
11
105.578
21
-57.4785
0
LINE
8
BLACK
6
CONTINUOUS
10
105.578
20
-57.4785
11
105.656
21
-57.3308
0
LINE
8
BLACK
6
CONTINUOUS
10
105.656
20
-57.3308
11
105.763
21
-57.2014
0
LINE
8
BLACK
6
CONTINUOUS
10
105.763
20
-57.2014
11
105.892
21
-57.0952
0
LINE
8
BLACK
6
CONTINUOUS
10
105.892
20
-57.0952
11
106.04
21
-57.0163
0
LINE
8
BLACK
6
CONTINUOUS
10
106.04
20
-57.0163
11
106.2
21
-56.9677
0
LINE
8
BLACK
6
CONTINUOUS
10
106.2
20
-56.9677
11
106.325
21
-56.9554
0
LINE
8
BLACK
6
CONTINUOUS
10
106.325
20
-56.9554
11
106.408
21
-56.9554
0
LINE
8
BLACK
6
CONTINUOUS
10
106.408
20
-56.9554
11
106.533
21
-56.9677
0
LINE
8
BLACK
6
CONTINUOUS
10
106.533
20
-54.4277
11
106.693
21
-54.4763
0
LINE
8
BLACK
6
CONTINUOUS
10
106.693
20
-54.4763
11
106.841
21
-54.5552
0
LINE
8
BLACK
6
CONTINUOUS
10
106.841
20
-54.5552
11
106.971
21
-54.6614
0
LINE
8
BLACK
6
CONTINUOUS
10
106.971
20
-54.6614
11
107.077
21
-54.7908
0
LINE
8
BLACK
6
CONTINUOUS
10
107.077
20
-54.7908
11
107.156
21
-54.9385
0
LINE
8
BLACK
6
CONTINUOUS
10
107.156
20
-54.9385
11
107.204
21
-55.0987
0
LINE
8
BLACK
6
CONTINUOUS
10
107.204
20
-55.0987
11
107.221
21
-55.2654
0
LINE
8
BLACK
6
CONTINUOUS
10
107.221
20
-55.2654
11
107.204
21
-55.432
0
LINE
8
BLACK
6
CONTINUOUS
10
107.204
20
-55.432
11
107.156
21
-55.5922
0
LINE
8
BLACK
6
CONTINUOUS
10
107.156
20
-55.5922
11
107.077
21
-55.7399
0
LINE
8
BLACK
6
CONTINUOUS
10
107.077
20
-55.7399
11
106.971
21
-55.8693
0
LINE
8
BLACK
6
CONTINUOUS
10
106.971
20
-55.8693
11
106.841
21
-55.9755
0
LINE
8
BLACK
6
CONTINUOUS
10
106.841
20
-55.9755
11
106.693
21
-56.0545
0
LINE
8
BLACK
6
CONTINUOUS
10
106.693
20
-56.0545
11
106.533
21
-56.1031
0
LINE
8
BLACK
6
CONTINUOUS
10
106.533
20
-56.1031
11
106.408
21
-56.1154
0
LINE
8
BLACK
6
CONTINUOUS
10
106.408
20
-56.1154
11
106.325
21
-56.1154
0
LINE
8
BLACK
6
CONTINUOUS
10
106.325
20
-56.1154
11
106.2
21
-56.1031
0
LINE
8
BLACK
6
CONTINUOUS
10
106.2
20
-56.1031
11
106.04
21
-56.0545
0
LINE
8
BLACK
6
CONTINUOUS
10
106.04
20
-56.0545
11
105.892
21
-55.9755
0
LINE
8
BLACK
6
CONTINUOUS
10
105.892
20
-55.9755
11
105.763
21
-55.8693
0
LINE
8
BLACK
6
CONTINUOUS
10
105.763
20
-55.8693
11
105.656
21
-55.7399
0
LINE
8
BLACK
6
CONTINUOUS
10
105.656
20
-55.7399
11
105.578
21
-55.5922
0
LINE
8
BLACK
6
CONTINUOUS
10
105.578
20
-55.5922
11
105.529
21
-55.432
0
LINE
8
BLACK
6
CONTINUOUS
10
105.529
20
-55.432
11
105.512
21
-55.2654
0
LINE
8
BLACK
6
CONTINUOUS
10
105.512
20
-55.2654
11
105.529
21
-55.0987
0
LINE
8
BLACK
6
CONTINUOUS
10
105.529
20
-55.0987
11
105.578
21
-54.9385
0
LINE
8
BLACK
6
CONTINUOUS
10
105.578
20
-54.9385
11
105.656
21
-54.7908
0
LINE
8
BLACK
6
CONTINUOUS
10
105.656
20
-54.7908
11
105.763
21
-54.6614
0
LINE
8
BLACK
6
CONTINUOUS
10
105.763
20
-54.6614
11
105.892
21
-54.5552
0
LINE
8
BLACK
6
CONTINUOUS
10
105.892
20
-54.5552
11
106.04
21
-54.4763
0
LINE
8
BLACK
6
CONTINUOUS
10
106.04
20
-54.4763
11
106.2
21
-54.4277
0
LINE
8
BLACK
6
CONTINUOUS
10
106.2
20
-54.4277
11
106.325
21
-54.4154
0
LINE
8
BLACK
6
CONTINUOUS
10
106.325
20
-54.4154
11
106.408
21
-54.4154
0
LINE
8
BLACK
6
CONTINUOUS
10
106.408
20
-54.4154
11
106.533
21
-54.4277
0
LINE
8
BLACK
6
CONTINUOUS
10
107.217
20
-53.5754
11
105.517
21
-53.5754
0
LINE
8
BLACK
6
CONTINUOUS
10
105.517
20
-53.5754
11
105.517
21
-51.8754
0
LINE
8
BLACK
6
CONTINUOUS
10
105.517
20
-51.8754
11
107.217
21
-51.8754
0
LINE
8
BLACK
6
CONTINUOUS
10
107.217
20
-51.8754
11
107.217
21
-53.5754
0
LINE
8
BLACK
6
CONTINUOUS
10
110.306
20
-51.2925
11
110.488
21
-51.3679
0
LINE
8
BLACK
6
CONTINUOUS
10
110.488
20
-51.3679
11
110.652
21
-51.4774
0
LINE
8
BLACK
6
CONTINUOUS
10
110.652
20
-51.4774
11
110.791
21
-51.6167
0
LINE
8
BLACK
6
CONTINUOUS
10
110.791
20
-51.6167
11
110.9
21
-51.7804
0
LINE
8
BLACK
6
CONTINUOUS
10
110.9
20
-51.7804
11
110.976
21
-51.9624
0
LINE
8
BLACK
6
CONTINUOUS
10
110.976
20
-51.9624
11
111.014
21
-52.1556
0
LINE
8
BLACK
6
CONTINUOUS
10
111.014
20
-52.1556
11
111.014
21
-52.3526
0
LINE
8
BLACK
6
CONTINUOUS
10
111.014
20
-52.3526
11
110.976
21
-52.5458
0
LINE
8
BLACK
6
CONTINUOUS
10
110.976
20
-52.5458
11
110.9
21
-52.7278
0
LINE
8
BLACK
6
CONTINUOUS
10
110.9
20
-52.7278
11
110.791
21
-52.8916
0
LINE
8
BLACK
6
CONTINUOUS
10
110.791
20
-52.8916
11
110.652
21
-53.0309
0
LINE
8
BLACK
6
CONTINUOUS
10
110.652
20
-53.0309
11
110.488
21
-53.1403
0
LINE
8
BLACK
6
CONTINUOUS
10
110.488
20
-53.1403
11
110.306
21
-53.2157
0
LINE
8
BLACK
6
CONTINUOUS
10
110.306
20
-53.2157
11
110.113
21
-53.2541
0
LINE
8
BLACK
6
CONTINUOUS
10
110.113
20
-53.2541
11
109.916
21
-53.2541
0
LINE
8
BLACK
6
CONTINUOUS
10
109.916
20
-53.2541
11
109.722
21
-53.2157
0
LINE
8
BLACK
6
CONTINUOUS
10
109.722
20
-53.2157
11
109.54
21
-53.1403
0
LINE
8
BLACK
6
CONTINUOUS
10
109.54
20
-53.1403
11
109.377
21
-53.0309
0
LINE
8
BLACK
6
CONTINUOUS
10
109.377
20
-53.0309
11
109.237
21
-52.8916
0
LINE
8
BLACK
6
CONTINUOUS
10
109.237
20
-52.8916
11
109.128
21
-52.7278
0
LINE
8
BLACK
6
CONTINUOUS
10
109.128
20
-52.7278
11
109.052
21
-52.5458
0
LINE
8
BLACK
6
CONTINUOUS
10
109.052
20
-52.5458
11
109.014
21
-52.3526
0
LINE
8
BLACK
6
CONTINUOUS
10
109.014
20
-52.3526
11
109.014
21
-52.1556
0
LINE
8
BLACK
6
CONTINUOUS
10
109.014
20
-52.1556
11
109.052
21
-51.9624
0
LINE
8
BLACK
6
CONTINUOUS
10
109.052
20
-51.9624
11
109.128
21
-51.7804
0
LINE
8
BLACK
6
CONTINUOUS
10
109.128
20
-51.7804
11
109.237
21
-51.6167
0
LINE
8
BLACK
6
CONTINUOUS
10
109.237
20
-51.6167
11
109.377
21
-51.4774
0
LINE
8
BLACK
6
CONTINUOUS
10
109.377
20
-51.4774
11
109.54
21
-51.3679
0
LINE
8
BLACK
6
CONTINUOUS
10
109.54
20
-51.3679
11
109.722
21
-51.2925
0
LINE
8
BLACK
6
CONTINUOUS
10
109.722
20
-51.2925
11
109.916
21
-51.2541
0
LINE
8
BLACK
6
CONTINUOUS
10
109.916
20
-51.2541
11
110.113
21
-51.2541
0
LINE
8
BLACK
6
CONTINUOUS
10
110.113
20
-51.2541
11
110.306
21
-51.2925
0
LINE
8
BLACK
6
CONTINUOUS
10
123.188
20
-51.5065
11
123.273
21
-51.5322
0
LINE
8
BLACK
6
CONTINUOUS
10
123.273
20
-51.5322
11
123.351
21
-51.574
0
LINE
8
BLACK
6
CONTINUOUS
10
123.351
20
-51.574
11
123.42
21
-51.6303
0
LINE
8
BLACK
6
CONTINUOUS
10
123.42
20
-51.6303
11
123.476
21
-51.6988
0
LINE
8
BLACK
6
CONTINUOUS
10
123.476
20
-51.6988
11
123.518
21
-51.777
0
LINE
8
BLACK
6
CONTINUOUS
10
123.518
20
-51.777
11
123.543
21
-51.8618
0
LINE
8
BLACK
6
CONTINUOUS
10
123.543
20
-51.8618
11
123.552
21
-51.95
0
LINE
8
BLACK
6
CONTINUOUS
10
123.552
20
-51.95
11
123.543
21
-52.0382
0
LINE
8
BLACK
6
CONTINUOUS
10
123.543
20
-52.0382
11
123.518
21
-52.123
0
LINE
8
BLACK
6
CONTINUOUS
10
123.518
20
-52.123
11
123.476
21
-52.2012
0
LINE
8
BLACK
6
CONTINUOUS
10
123.476
20
-52.2012
11
123.42
21
-52.2697
0
LINE
8
BLACK
6
CONTINUOUS
10
123.42
20
-52.2697
11
123.351
21
-52.326
0
LINE
8
BLACK
6
CONTINUOUS
10
123.351
20
-52.326
11
123.273
21
-52.3678
0
LINE
8
BLACK
6
CONTINUOUS
10
123.273
20
-52.3678
11
123.188
21
-52.3935
0
LINE
8
BLACK
6
CONTINUOUS
10
123.188
20
-52.3935
11
123.122
21
-52.4
0
LINE
8
BLACK
6
CONTINUOUS
10
123.122
20
-52.4
11
122.178
21
-52.4
0
LINE
8
BLACK
6
CONTINUOUS
10
122.178
20
-52.4
11
122.112
21
-52.3935
0
LINE
8
BLACK
6
CONTINUOUS
10
122.112
20
-52.3935
11
122.027
21
-52.3678
0
LINE
8
BLACK
6
CONTINUOUS
10
122.027
20
-52.3678
11
121.949
21
-52.326
0
LINE
8
BLACK
6
CONTINUOUS
10
121.949
20
-52.326
11
121.88
21
-52.2697
0
LINE
8
BLACK
6
CONTINUOUS
10
121.88
20
-52.2697
11
121.824
21
-52.2012
0
LINE
8
BLACK
6
CONTINUOUS
10
121.824
20
-52.2012
11
121.782
21
-52.123
0
LINE
8
BLACK
6
CONTINUOUS
10
121.782
20
-52.123
11
121.757
21
-52.0382
0
LINE
8
BLACK
6
CONTINUOUS
10
121.757
20
-52.0382
11
121.748
21
-51.95
0
LINE
8
BLACK
6
CONTINUOUS
10
121.748
20
-51.95
11
121.757
21
-51.8618
0
LINE
8
BLACK
6
CONTINUOUS
10
121.757
20
-51.8618
11
121.782
21
-51.777
0
LINE
8
BLACK
6
CONTINUOUS
10
121.782
20
-51.777
11
121.824
21
-51.6988
0
LINE
8
BLACK
6
CONTINUOUS
10
121.824
20
-51.6988
11
121.88
21
-51.6303
0
LINE
8
BLACK
6
CONTINUOUS
10
121.88
20
-51.6303
11
121.949
21
-51.574
0
LINE
8
BLACK
6
CONTINUOUS
10
121.949
20
-51.574
11
122.027
21
-51.5322
0
LINE
8
BLACK
6
CONTINUOUS
10
122.027
20
-51.5322
11
122.112
21
-51.5065
0
LINE
8
BLACK
6
CONTINUOUS
10
122.112
20
-51.5065
11
122.178
21
-51.5
0
LINE
8
BLACK
6
CONTINUOUS
10
122.178
20
-51.5
11
123.122
21
-51.5
0
LINE
8
BLACK
6
CONTINUOUS
10
123.122
20
-51.5
11
123.188
21
-51.5065
0
LINE
8
BLACK
6
CONTINUOUS
10
120.338
20
-51.5065
11
120.423
21
-51.5322
0
LINE
8
BLACK
6
CONTINUOUS
10
120.423
20
-51.5322
11
120.501
21
-51.574
0
LINE
8
BLACK
6
CONTINUOUS
10
120.501
20
-51.574
11
120.57
21
-51.6303
0
LINE
8
BLACK
6
CONTINUOUS
10
120.57
20
-51.6303
11
120.626
21
-51.6988
0
LINE
8
BLACK
6
CONTINUOUS
10
120.626
20
-51.6988
11
120.668
21
-51.777
0
LINE
8
BLACK
6
CONTINUOUS
10
120.668
20
-51.777
11
120.693
21
-51.8618
0
LINE
8
BLACK
6
CONTINUOUS
10
120.693
20
-51.8618
11
120.702
21
-51.95
0
LINE
8
BLACK
6
CONTINUOUS
10
120.702
20
-51.95
11
120.693
21
-52.0382
0
LINE
8
BLACK
6
CONTINUOUS
10
120.693
20
-52.0382
11
120.668
21
-52.123
0
LINE
8
BLACK
6
CONTINUOUS
10
120.668
20
-52.123
11
120.626
21
-52.2012
0
LINE
8
BLACK
6
CONTINUOUS
10
120.626
20
-52.2012
11
120.57
21
-52.2697
0
LINE
8
BLACK
6
CONTINUOUS
10
120.57
20
-52.2697
11
120.501
21
-52.326
0
LINE
8
BLACK
6
CONTINUOUS
10
120.501
20
-52.326
11
120.423
21
-52.3678
0
LINE
8
BLACK
6
CONTINUOUS
10
120.423
20
-52.3678
11
120.338
21
-52.3935
0
LINE
8
BLACK
6
CONTINUOUS
10
120.338
20
-52.3935
11
120.272
21
-52.4
0
LINE
8
BLACK
6
CONTINUOUS
10
120.272
20
-52.4
11
119.328
21
-52.4
0
LINE
8
BLACK
6
CONTINUOUS
10
119.328
20
-52.4
11
119.262
21
-52.3935
0
LINE
8
BLACK
6
CONTINUOUS
10
119.262
20
-52.3935
11
119.177
21
-52.3678
0
LINE
8
BLACK
6
CONTINUOUS
10
119.177
20
-52.3678
11
119.099
21
-52.326
0
LINE
8
BLACK
6
CONTINUOUS
10
119.099
20
-52.326
11
119.03
21
-52.2697
0
LINE
8
BLACK
6
CONTINUOUS
10
119.03
20
-52.2697
11
118.974
21
-52.2012
0
LINE
8
BLACK
6
CONTINUOUS
10
118.974
20
-52.2012
11
118.932
21
-52.123
0
LINE
8
BLACK
6
CONTINUOUS
10
118.932
20
-52.123
11
118.907
21
-52.0382
0
LINE
8
BLACK
6
CONTINUOUS
10
118.907
20
-52.0382
11
118.898
21
-51.95
0
LINE
8
BLACK
6
CONTINUOUS
10
118.898
20
-51.95
11
118.907
21
-51.8618
0
LINE
8
BLACK
6
CONTINUOUS
10
118.907
20
-51.8618
11
118.932
21
-51.777
0
LINE
8
BLACK
6
CONTINUOUS
10
118.932
20
-51.777
11
118.974
21
-51.6988
0
LINE
8
BLACK
6
CONTINUOUS
10
118.974
20
-51.6988
11
119.03
21
-51.6303
0
LINE
8
BLACK
6
CONTINUOUS
10
119.03
20
-51.6303
11
119.099
21
-51.574
0
LINE
8
BLACK
6
CONTINUOUS
10
119.099
20
-51.574
11
119.177
21
-51.5322
0
LINE
8
BLACK
6
CONTINUOUS
10
119.177
20
-51.5322
11
119.262
21
-51.5065
0
LINE
8
BLACK
6
CONTINUOUS
10
119.262
20
-51.5065
11
119.328
21
-51.5
0
LINE
8
BLACK
6
CONTINUOUS
10
119.328
20
-51.5
11
120.272
21
-51.5
0
LINE
8
BLACK
6
CONTINUOUS
10
120.272
20
-51.5
11
120.338
21
-51.5065
0
LINE
8
BLACK
6
CONTINUOUS
10
115.138
20
-51.5065
11
115.223
21
-51.5322
0
LINE
8
BLACK
6
CONTINUOUS
10
115.223
20
-51.5322
11
115.301
21
-51.574
0
LINE
8
BLACK
6
CONTINUOUS
10
115.301
20
-51.574
11
115.37
21
-51.6303
0
LINE
8
BLACK
6
CONTINUOUS
10
115.37
20
-51.6303
11
115.426
21
-51.6988
0
LINE
8
BLACK
6
CONTINUOUS
10
115.426
20
-51.6988
11
115.468
21
-51.777
0
LINE
8
BLACK
6
CONTINUOUS
10
115.468
20
-51.777
11
115.493
21
-51.8618
0
LINE
8
BLACK
6
CONTINUOUS
10
115.493
20
-51.8618
11
115.502
21
-51.95
0
LINE
8
BLACK
6
CONTINUOUS
10
115.502
20
-51.95
11
115.493
21
-52.0382
0
LINE
8
BLACK
6
CONTINUOUS
10
115.493
20
-52.0382
11
115.468
21
-52.123
0
LINE
8
BLACK
6
CONTINUOUS
10
115.468
20
-52.123
11
115.426
21
-52.2012
0
LINE
8
BLACK
6
CONTINUOUS
10
115.426
20
-52.2012
11
115.37
21
-52.2697
0
LINE
8
BLACK
6
CONTINUOUS
10
115.37
20
-52.2697
11
115.301
21
-52.326
0
LINE
8
BLACK
6
CONTINUOUS
10
115.301
20
-52.326
11
115.223
21
-52.3678
0
LINE
8
BLACK
6
CONTINUOUS
10
115.223
20
-52.3678
11
115.138
21
-52.3935
0
LINE
8
BLACK
6
CONTINUOUS
10
115.138
20
-52.3935
11
115.072
21
-52.4
0
LINE
8
BLACK
6
CONTINUOUS
10
115.072
20
-52.4
11
114.128
21
-52.4
0
LINE
8
BLACK
6
CONTINUOUS
10
114.128
20
-52.4
11
114.062
21
-52.3935
0
LINE
8
BLACK
6
CONTINUOUS
10
114.062
20
-52.3935
11
113.977
21
-52.3678
0
LINE
8
BLACK
6
CONTINUOUS
10
113.977
20
-52.3678
11
113.899
21
-52.326
0
LINE
8
BLACK
6
CONTINUOUS
10
113.899
20
-52.326
11
113.83
21
-52.2697
0
LINE
8
BLACK
6
CONTINUOUS
10
113.83
20
-52.2697
11
113.774
21
-52.2012
0
LINE
8
BLACK
6
CONTINUOUS
10
113.774
20
-52.2012
11
113.732
21
-52.123
0
LINE
8
BLACK
6
CONTINUOUS
10
113.732
20
-52.123
11
113.707
21
-52.0382
0
LINE
8
BLACK
6
CONTINUOUS
10
113.707
20
-52.0382
11
113.698
21
-51.95
0
LINE
8
BLACK
6
CONTINUOUS
10
113.698
20
-51.95
11
113.707
21
-51.8618
0
LINE
8
BLACK
6
CONTINUOUS
10
113.707
20
-51.8618
11
113.732
21
-51.777
0
LINE
8
BLACK
6
CONTINUOUS
10
113.732
20
-51.777
11
113.774
21
-51.6988
0
LINE
8
BLACK
6
CONTINUOUS
10
113.774
20
-51.6988
11
113.83
21
-51.6303
0
LINE
8
BLACK
6
CONTINUOUS
10
113.83
20
-51.6303
11
113.899
21
-51.574
0
LINE
8
BLACK
6
CONTINUOUS
10
113.899
20
-51.574
11
113.977
21
-51.5322
0
LINE
8
BLACK
6
CONTINUOUS
10
113.977
20
-51.5322
11
114.062
21
-51.5065
0
LINE
8
BLACK
6
CONTINUOUS
10
114.062
20
-51.5065
11
114.128
21
-51.5
0
LINE
8
BLACK
6
CONTINUOUS
10
114.128
20
-51.5
11
115.072
21
-51.5
0
LINE
8
BLACK
6
CONTINUOUS
10
115.072
20
-51.5
11
115.138
21
-51.5065
0
LINE
8
BLACK
6
CONTINUOUS
10
123.351
20
-45.293
11
123.49
21
-45.3505
0
LINE
8
BLACK
6
CONTINUOUS
10
123.49
20
-45.3505
11
123.615
21
-45.4339
0
LINE
8
BLACK
6
CONTINUOUS
10
123.615
20
-45.4339
11
123.721
21
-45.54
0
LINE
8
BLACK
6
CONTINUOUS
10
123.721
20
-45.54
11
123.804
21
-45.6648
0
LINE
8
BLACK
6
CONTINUOUS
10
123.804
20
-45.6648
11
123.862
21
-45.8035
0
LINE
8
BLACK
6
CONTINUOUS
10
123.862
20
-45.8035
11
123.891
21
-45.9507
0
LINE
8
BLACK
6
CONTINUOUS
10
123.891
20
-45.9507
11
123.891
21
-46.1008
0
LINE
8
BLACK
6
CONTINUOUS
10
123.891
20
-46.1008
11
123.862
21
-46.248
0
LINE
8
BLACK
6
CONTINUOUS
10
123.862
20
-46.248
11
123.804
21
-46.3867
0
LINE
8
BLACK
6
CONTINUOUS
10
123.804
20
-46.3867
11
123.721
21
-46.5115
0
LINE
8
BLACK
6
CONTINUOUS
10
123.721
20
-46.5115
11
123.615
21
-46.6176
0
LINE
8
BLACK
6
CONTINUOUS
10
123.615
20
-46.6176
11
123.49
21
-46.701
0
LINE
8
BLACK
6
CONTINUOUS
10
123.49
20
-46.701
11
123.351
21
-46.7585
0
LINE
8
BLACK
6
CONTINUOUS
10
123.351
20
-46.7585
11
123.204
21
-46.7877
0
LINE
8
BLACK
6
CONTINUOUS
10
123.204
20
-46.7877
11
123.054
21
-46.7877
0
LINE
8
BLACK
6
CONTINUOUS
10
123.054
20
-46.7877
11
122.907
21
-46.7585
0
LINE
8
BLACK
6
CONTINUOUS
10
122.907
20
-46.7585
11
122.768
21
-46.701
0
LINE
8
BLACK
6
CONTINUOUS
10
122.768
20
-46.701
11
122.643
21
-46.6176
0
LINE
8
BLACK
6
CONTINUOUS
10
122.643
20
-46.6176
11
122.537
21
-46.5115
0
LINE
8
BLACK
6
CONTINUOUS
10
122.537
20
-46.5115
11
122.454
21
-46.3867
0
LINE
8
BLACK
6
CONTINUOUS
10
122.454
20
-46.3867
11
122.396
21
-46.248
0
LINE
8
BLACK
6
CONTINUOUS
10
122.396
20
-46.248
11
122.367
21
-46.1008
0
LINE
8
BLACK
6
CONTINUOUS
10
122.367
20
-46.1008
11
122.367
21
-45.9507
0
LINE
8
BLACK
6
CONTINUOUS
10
122.367
20
-45.9507
11
122.396
21
-45.8035
0
LINE
8
BLACK
6
CONTINUOUS
10
122.396
20
-45.8035
11
122.454
21
-45.6648
0
LINE
8
BLACK
6
CONTINUOUS
10
122.454
20
-45.6648
11
122.537
21
-45.54
0
LINE
8
BLACK
6
CONTINUOUS
10
122.537
20
-45.54
11
122.643
21
-45.4339
0
LINE
8
BLACK
6
CONTINUOUS
10
122.643
20
-45.4339
11
122.768
21
-45.3505
0
LINE
8
BLACK
6
CONTINUOUS
10
122.768
20
-45.3505
11
122.907
21
-45.293
0
LINE
8
BLACK
6
CONTINUOUS
10
122.907
20
-45.293
11
123.054
21
-45.2637
0
LINE
8
BLACK
6
CONTINUOUS
10
123.054
20
-45.2637
11
123.204
21
-45.2637
0
LINE
8
BLACK
6
CONTINUOUS
10
123.204
20
-45.2637
11
123.351
21
-45.293
0
LINE
8
BLACK
6
CONTINUOUS
10
108.111
20
-45.293
11
108.25
21
-45.3505
0
LINE
8
BLACK
6
CONTINUOUS
10
108.25
20
-45.3505
11
108.375
21
-45.4339
0
LINE
8
BLACK
6
CONTINUOUS
10
108.375
20
-45.4339
11
108.481
21
-45.54
0
LINE
8
BLACK
6
CONTINUOUS
10
108.481
20
-45.54
11
108.564
21
-45.6648
0
LINE
8
BLACK
6
CONTINUOUS
10
108.564
20
-45.6648
11
108.622
21
-45.8035
0
LINE
8
BLACK
6
CONTINUOUS
10
108.622
20
-45.8035
11
108.651
21
-45.9507
0
LINE
8
BLACK
6
CONTINUOUS
10
108.651
20
-45.9507
11
108.651
21
-46.1008
0
LINE
8
BLACK
6
CONTINUOUS
10
108.651
20
-46.1008
11
108.622
21
-46.248
0
LINE
8
BLACK
6
CONTINUOUS
10
108.622
20
-46.248
11
108.564
21
-46.3867
0
LINE
8
BLACK
6
CONTINUOUS
10
108.564
20
-46.3867
11
108.481
21
-46.5115
0
LINE
8
BLACK
6
CONTINUOUS
10
108.481
20
-46.5115
11
108.375
21
-46.6176
0
LINE
8
BLACK
6
CONTINUOUS
10
108.375
20
-46.6176
11
108.25
21
-46.701
0
LINE
8
BLACK
6
CONTINUOUS
10
108.25
20
-46.701
11
108.111
21
-46.7585
0
LINE
8
BLACK
6
CONTINUOUS
10
108.111
20
-46.7585
11
107.964
21
-46.7877
0
LINE
8
BLACK
6
CONTINUOUS
10
107.964
20
-46.7877
11
107.814
21
-46.7877
0
LINE
8
BLACK
6
CONTINUOUS
10
107.814
20
-46.7877
11
107.667
21
-46.7585
0
LINE
8
BLACK
6
CONTINUOUS
10
107.667
20
-46.7585
11
107.528
21
-46.701
0
LINE
8
BLACK
6
CONTINUOUS
10
107.528
20
-46.701
11
107.403
21
-46.6176
0
LINE
8
BLACK
6
CONTINUOUS
10
107.403
20
-46.6176
11
107.297
21
-46.5115
0
LINE
8
BLACK
6
CONTINUOUS
10
107.297
20
-46.5115
11
107.214
21
-46.3867
0
LINE
8
BLACK
6
CONTINUOUS
10
107.214
20
-46.3867
11
107.156
21
-46.248
0
LINE
8
BLACK
6
CONTINUOUS
10
107.156
20
-46.248
11
107.127
21
-46.1008
0
LINE
8
BLACK
6
CONTINUOUS
10
107.127
20
-46.1008
11
107.127
21
-45.9507
0
LINE
8
BLACK
6
CONTINUOUS
10
107.127
20
-45.9507
11
107.156
21
-45.8035
0
LINE
8
BLACK
6
CONTINUOUS
10
107.156
20
-45.8035
11
107.214
21
-45.6648
0
LINE
8
BLACK
6
CONTINUOUS
10
107.214
20
-45.6648
11
107.297
21
-45.54
0
LINE
8
BLACK
6
CONTINUOUS
10
107.297
20
-45.54
11
107.403
21
-45.4339
0
LINE
8
BLACK
6
CONTINUOUS
10
107.403
20
-45.4339
11
107.528
21
-45.3505
0
LINE
8
BLACK
6
CONTINUOUS
10
107.528
20
-45.3505
11
107.667
21
-45.293
0
LINE
8
BLACK
6
CONTINUOUS
10
107.667
20
-45.293
11
107.814
21
-45.2637
0
LINE
8
BLACK
6
CONTINUOUS
10
107.814
20
-45.2637
11
107.964
21
-45.2637
0
LINE
8
BLACK
6
CONTINUOUS
10
107.964
20
-45.2637
11
108.111
21
-45.293
0
LINE
8
BLACK
6
CONTINUOUS
10
122.052
20
-44.0973
11
122.191
21
-44.1547
0
LINE
8
BLACK
6
CONTINUOUS
10
122.191
20
-44.1547
11
122.316
21
-44.2381
0
LINE
8
BLACK
6
CONTINUOUS
10
122.316
20
-44.2381
11
122.422
21
-44.3443
0
LINE
8
BLACK
6
CONTINUOUS
10
122.422
20
-44.3443
11
122.505
21
-44.4691
0
LINE
8
BLACK
6
CONTINUOUS
10
122.505
20
-44.4691
11
122.563
21
-44.6077
0
LINE
8
BLACK
6
CONTINUOUS
10
122.563
20
-44.6077
11
122.592
21
-44.755
0
LINE
8
BLACK
6
CONTINUOUS
10
122.592
20
-44.755
11
122.592
21
-44.905
0
LINE
8
BLACK
6
CONTINUOUS
10
122.592
20
-44.905
11
122.563
21
-45.0523
0
LINE
8
BLACK
6
CONTINUOUS
10
122.563
20
-45.0523
11
122.505
21
-45.1909
0
LINE
8
BLACK
6
CONTINUOUS
10
122.505
20
-45.1909
11
122.422
21
-45.3157
0
LINE
8
BLACK
6
CONTINUOUS
10
122.422
20
-45.3157
11
122.316
21
-45.4219
0
LINE
8
BLACK
6
CONTINUOUS
10
122.316
20
-45.4219
11
122.191
21
-45.5053
0
LINE
8
BLACK
6
CONTINUOUS
10
122.191
20
-45.5053
11
122.052
21
-45.5627
0
LINE
8
BLACK
6
CONTINUOUS
10
122.052
20
-45.5627
11
121.905
21
-45.592
0
LINE
8
BLACK
6
CONTINUOUS
10
121.905
20
-45.592
11
121.755
21
-45.592
0
LINE
8
BLACK
6
CONTINUOUS
10
121.755
20
-45.592
11
121.608
21
-45.5627
0
LINE
8
BLACK
6
CONTINUOUS
10
121.608
20
-45.5627
11
121.469
21
-45.5053
0
LINE
8
BLACK
6
CONTINUOUS
10
121.469
20
-45.5053
11
121.344
21
-45.4219
0
LINE
8
BLACK
6
CONTINUOUS
10
121.344
20
-45.4219
11
121.238
21
-45.3157
0
LINE
8
BLACK
6
CONTINUOUS
10
121.238
20
-45.3157
11
121.155
21
-45.1909
0
LINE
8
BLACK
6
CONTINUOUS
10
121.155
20
-45.1909
11
121.097
21
-45.0523
0
LINE
8
BLACK
6
CONTINUOUS
10
121.097
20
-45.0523
11
121.068
21
-44.905
0
LINE
8
BLACK
6
CONTINUOUS
10
121.068
20
-44.905
11
121.068
21
-44.755
0
LINE
8
BLACK
6
CONTINUOUS
10
121.068
20
-44.755
11
121.097
21
-44.6077
0
LINE
8
BLACK
6
CONTINUOUS
10
121.097
20
-44.6077
11
121.155
21
-44.4691
0
LINE
8
BLACK
6
CONTINUOUS
10
121.155
20
-44.4691
11
121.238
21
-44.3443
0
LINE
8
BLACK
6
CONTINUOUS
10
121.238
20
-44.3443
11
121.344
21
-44.2381
0
LINE
8
BLACK
6
CONTINUOUS
10
121.344
20
-44.2381
11
121.469
21
-44.1547
0
LINE
8
BLACK
6
CONTINUOUS
10
121.469
20
-44.1547
11
121.608
21
-44.0973
0
LINE
8
BLACK
6
CONTINUOUS
10
121.608
20
-44.0973
11
121.755
21
-44.068
0
LINE
8
BLACK
6
CONTINUOUS
10
121.755
20
-44.068
11
121.905
21
-44.068
0
LINE
8
BLACK
6
CONTINUOUS
10
121.905
20
-44.068
11
122.052
21
-44.0973
0
LINE
8
BLACK
6
CONTINUOUS
10
106.812
20
-44.0973
11
106.951
21
-44.1547
0
LINE
8
BLACK
6
CONTINUOUS
10
106.951
20
-44.1547
11
107.076
21
-44.2381
0
LINE
8
BLACK
6
CONTINUOUS
10
107.076
20
-44.2381
11
107.182
21
-44.3443
0
LINE
8
BLACK
6
CONTINUOUS
10
107.182
20
-44.3443
11
107.265
21
-44.4691
0
LINE
8
BLACK
6
CONTINUOUS
10
107.265
20
-44.4691
11
107.323
21
-44.6077
0
LINE
8
BLACK
6
CONTINUOUS
10
107.323
20
-44.6077
11
107.352
21
-44.755
0
LINE
8
BLACK
6
CONTINUOUS
10
107.352
20
-44.755
11
107.352
21
-44.905
0
LINE
8
BLACK
6
CONTINUOUS
10
107.352
20
-44.905
11
107.323
21
-45.0523
0
LINE
8
BLACK
6
CONTINUOUS
10
107.323
20
-45.0523
11
107.265
21
-45.1909
0
LINE
8
BLACK
6
CONTINUOUS
10
107.265
20
-45.1909
11
107.182
21
-45.3157
0
LINE
8
BLACK
6
CONTINUOUS
10
107.182
20
-45.3157
11
107.076
21
-45.4219
0
LINE
8
BLACK
6
CONTINUOUS
10
107.076
20
-45.4219
11
106.951
21
-45.5053
0
LINE
8
BLACK
6
CONTINUOUS
10
106.951
20
-45.5053
11
106.812
21
-45.5627
0
LINE
8
BLACK
6
CONTINUOUS
10
106.812
20
-45.5627
11
106.665
21
-45.592
0
LINE
8
BLACK
6
CONTINUOUS
10
106.665
20
-45.592
11
106.515
21
-45.592
0
LINE
8
BLACK
6
CONTINUOUS
10
106.515
20
-45.592
11
106.368
21
-45.5627
0
LINE
8
BLACK
6
CONTINUOUS
10
106.368
20
-45.5627
11
106.229
21
-45.5053
0
LINE
8
BLACK
6
CONTINUOUS
10
106.229
20
-45.5053
11
106.104
21
-45.4219
0
LINE
8
BLACK
6
CONTINUOUS
10
106.104
20
-45.4219
11
105.998
21
-45.3157
0
LINE
8
BLACK
6
CONTINUOUS
10
105.998
20
-45.3157
11
105.915
21
-45.1909
0
LINE
8
BLACK
6
CONTINUOUS
10
105.915
20
-45.1909
11
105.857
21
-45.0523
0
LINE
8
BLACK
6
CONTINUOUS
10
105.857
20
-45.0523
11
105.828
21
-44.905
0
LINE
8
BLACK
6
CONTINUOUS
10
105.828
20
-44.905
11
105.828
21
-44.755
0
LINE
8
BLACK
6
CONTINUOUS
10
105.828
20
-44.755
11
105.857
21
-44.6077
0
LINE
8
BLACK
6
CONTINUOUS
10
105.857
20
-44.6077
11
105.915
21
-44.4691
0
LINE
8
BLACK
6
CONTINUOUS
10
105.915
20
-44.4691
11
105.998
21
-44.3443
0
LINE
8
BLACK
6
CONTINUOUS
10
105.998
20
-44.3443
11
106.104
21
-44.2381
0
LINE
8
BLACK
6
CONTINUOUS
10
106.104
20
-44.2381
11
106.229
21
-44.1547
0
LINE
8
BLACK
6
CONTINUOUS
10
106.229
20
-44.1547
11
106.368
21
-44.0973
0
LINE
8
BLACK
6
CONTINUOUS
10
106.368
20
-44.0973
11
106.515
21
-44.068
0
LINE
8
BLACK
6
CONTINUOUS
10
106.515
20
-44.068
11
106.665
21
-44.068
0
LINE
8
BLACK
6
CONTINUOUS
10
106.665
20
-44.068
11
106.812
21
-44.0973
0
LINE
8
BLACK
6
CONTINUOUS
10
119.386
20
-45.5168
11
117.862
21
-45.5168
0
LINE
8
BLACK
6
CONTINUOUS
10
117.862
20
-45.5168
11
117.862
21
-43.9928
0
LINE
8
BLACK
6
CONTINUOUS
10
117.862
20
-43.9928
11
119.386
21
-43.9928
0
LINE
8
BLACK
6
CONTINUOUS
10
119.386
20
-43.9928
11
119.386
21
-45.5168
0
LINE
8
BLACK
6
CONTINUOUS
10
112.164
20
-45.5168
11
110.64
21
-45.5168
0
LINE
8
BLACK
6
CONTINUOUS
10
110.64
20
-45.5168
11
110.64
21
-43.9928
0
LINE
8
BLACK
6
CONTINUOUS
10
110.64
20
-43.9928
11
112.164
21
-43.9928
0
LINE
8
BLACK
6
CONTINUOUS
10
112.164
20
-43.9928
11
112.164
21
-45.5168
0
LINE
8
BLACK
6
CONTINUOUS
10
114.164
20
-45.5168
11
112.64
21
-45.5168
0
LINE
8
BLACK
6
CONTINUOUS
10
112.64
20
-45.5168
11
112.64
21
-43.9928
0
LINE
8
BLACK
6
CONTINUOUS
10
112.64
20
-43.9928
11
114.164
21
-43.9928
0
LINE
8
BLACK
6
CONTINUOUS
10
114.164
20
-43.9928
11
114.164
21
-45.5168
0
LINE
8
BLACK
6
CONTINUOUS
10
117.386
20
-45.5168
11
115.862
21
-45.5168
0
LINE
8
BLACK
6
CONTINUOUS
10
115.862
20
-45.5168
11
115.862
21
-43.9928
0
LINE
8
BLACK
6
CONTINUOUS
10
115.862
20
-43.9928
11
117.386
21
-43.9928
0
LINE
8
BLACK
6
CONTINUOUS
10
117.386
20
-43.9928
11
117.386
21
-45.5168
0
LINE
8
BLACK
6
CONTINUOUS
10
123.351
20
-42.753
11
123.49
21
-42.8105
0
LINE
8
BLACK
6
CONTINUOUS
10
123.49
20
-42.8105
11
123.615
21
-42.8939
0
LINE
8
BLACK
6
CONTINUOUS
10
123.615
20
-42.8939
11
123.721
21
-43
0
LINE
8
BLACK
6
CONTINUOUS
10
123.721
20
-43
11
123.804
21
-43.1248
0
LINE
8
BLACK
6
CONTINUOUS
10
123.804
20
-43.1248
11
123.862
21
-43.2635
0
LINE
8
BLACK
6
CONTINUOUS
10
123.862
20
-43.2635
11
123.891
21
-43.4107
0
LINE
8
BLACK
6
CONTINUOUS
10
123.891
20
-43.4107
11
123.891
21
-43.5608
0
LINE
8
BLACK
6
CONTINUOUS
10
123.891
20
-43.5608
11
123.862
21
-43.708
0
LINE
8
BLACK
6
CONTINUOUS
10
123.862
20
-43.708
11
123.804
21
-43.8467
0
LINE
8
BLACK
6
CONTINUOUS
10
123.804
20
-43.8467
11
123.721
21
-43.9715
0
LINE
8
BLACK
6
CONTINUOUS
10
123.721
20
-43.9715
11
123.615
21
-44.0776
0
LINE
8
BLACK
6
CONTINUOUS
10
123.615
20
-44.0776
11
123.49
21
-44.161
0
LINE
8
BLACK
6
CONTINUOUS
10
123.49
20
-44.161
11
123.351
21
-44.2185
0
LINE
8
BLACK
6
CONTINUOUS
10
123.351
20
-44.2185
11
123.204
21
-44.2477
0
LINE
8
BLACK
6
CONTINUOUS
10
123.204
20
-44.2477
11
123.054
21
-44.2477
0
LINE
8
BLACK
6
CONTINUOUS
10
123.054
20
-44.2477
11
122.907
21
-44.2185
0
LINE
8
BLACK
6
CONTINUOUS
10
122.907
20
-44.2185
11
122.768
21
-44.161
0
LINE
8
BLACK
6
CONTINUOUS
10
122.768
20
-44.161
11
122.643
21
-44.0776
0
LINE
8
BLACK
6
CONTINUOUS
10
122.643
20
-44.0776
11
122.537
21
-43.9715
0
LINE
8
BLACK
6
CONTINUOUS
10
122.537
20
-43.9715
11
122.454
21
-43.8467
0
LINE
8
BLACK
6
CONTINUOUS
10
122.454
20
-43.8467
11
122.396
21
-43.708
0
LINE
8
BLACK
6
CONTINUOUS
10
122.396
20
-43.708
11
122.367
21
-43.5608
0
LINE
8
BLACK
6
CONTINUOUS
10
122.367
20
-43.5608
11
122.367
21
-43.4107
0
LINE
8
BLACK
6
CONTINUOUS
10
122.367
20
-43.4107
11
122.396
21
-43.2635
0
LINE
8
BLACK
6
CONTINUOUS
10
122.396
20
-43.2635
11
122.454
21
-43.1248
0
LINE
8
BLACK
6
CONTINUOUS
10
122.454
20
-43.1248
11
122.537
21
-43
0
LINE
8
BLACK
6
CONTINUOUS
10
122.537
20
-43
11
122.643
21
-42.8939
0
LINE
8
BLACK
6
CONTINUOUS
10
122.643
20
-42.8939
11
122.768
21
-42.8105
0
LINE
8
BLACK
6
CONTINUOUS
10
122.768
20
-42.8105
11
122.907
21
-42.753
0
LINE
8
BLACK
6
CONTINUOUS
10
122.907
20
-42.753
11
123.054
21
-42.7237
0
LINE
8
BLACK
6
CONTINUOUS
10
123.054
20
-42.7237
11
123.204
21
-42.7237
0
LINE
8
BLACK
6
CONTINUOUS
10
123.204
20
-42.7237
11
123.351
21
-42.753
0
LINE
8
BLACK
6
CONTINUOUS
10
108.111
20
-42.753
11
108.25
21
-42.8105
0
LINE
8
BLACK
6
CONTINUOUS
10
108.25
20
-42.8105
11
108.375
21
-42.8939
0
LINE
8
BLACK
6
CONTINUOUS
10
108.375
20
-42.8939
11
108.481
21
-43
0
LINE
8
BLACK
6
CONTINUOUS
10
108.481
20
-43
11
108.564
21
-43.1248
0
LINE
8
BLACK
6
CONTINUOUS
10
108.564
20
-43.1248
11
108.622
21
-43.2635
0
LINE
8
BLACK
6
CONTINUOUS
10
108.622
20
-43.2635
11
108.651
21
-43.4107
0
LINE
8
BLACK
6
CONTINUOUS
10
108.651
20
-43.4107
11
108.651
21
-43.5608
0
LINE
8
BLACK
6
CONTINUOUS
10
108.651
20
-43.5608
11
108.622
21
-43.708
0
LINE
8
BLACK
6
CONTINUOUS
10
108.622
20
-43.708
11
108.564
21
-43.8467
0
LINE
8
BLACK
6
CONTINUOUS
10
108.564
20
-43.8467
11
108.481
21
-43.9715
0
LINE
8
BLACK
6
CONTINUOUS
10
108.481
20
-43.9715
11
108.375
21
-44.0776
0
LINE
8
BLACK
6
CONTINUOUS
10
108.375
20
-44.0776
11
108.25
21
-44.161
0
LINE
8
BLACK
6
CONTINUOUS
10
108.25
20
-44.161
11
108.111
21
-44.2185
0
LINE
8
BLACK
6
CONTINUOUS
10
108.111
20
-44.2185
11
107.964
21
-44.2477
0
LINE
8
BLACK
6
CONTINUOUS
10
107.964
20
-44.2477
11
107.814
21
-44.2477
0
LINE
8
BLACK
6
CONTINUOUS
10
107.814
20
-44.2477
11
107.667
21
-44.2185
0
LINE
8
BLACK
6
CONTINUOUS
10
107.667
20
-44.2185
11
107.528
21
-44.161
0
LINE
8
BLACK
6
CONTINUOUS
10
107.528
20
-44.161
11
107.403
21
-44.0776
0
LINE
8
BLACK
6
CONTINUOUS
10
107.403
20
-44.0776
11
107.297
21
-43.9715
0
LINE
8
BLACK
6
CONTINUOUS
10
107.297
20
-43.9715
11
107.214
21
-43.8467
0
LINE
8
BLACK
6
CONTINUOUS
10
107.214
20
-43.8467
11
107.156
21
-43.708
0
LINE
8
BLACK
6
CONTINUOUS
10
107.156
20
-43.708
11
107.127
21
-43.5608
0
LINE
8
BLACK
6
CONTINUOUS
10
107.127
20
-43.5608
11
107.127
21
-43.4107
0
LINE
8
BLACK
6
CONTINUOUS
10
107.127
20
-43.4107
11
107.156
21
-43.2635
0
LINE
8
BLACK
6
CONTINUOUS
10
107.156
20
-43.2635
11
107.214
21
-43.1248
0
LINE
8
BLACK
6
CONTINUOUS
10
107.214
20
-43.1248
11
107.297
21
-43
0
LINE
8
BLACK
6
CONTINUOUS
10
107.297
20
-43
11
107.403
21
-42.8939
0
LINE
8
BLACK
6
CONTINUOUS
10
107.403
20
-42.8939
11
107.528
21
-42.8105
0
LINE
8
BLACK
6
CONTINUOUS
10
107.528
20
-42.8105
11
107.667
21
-42.753
0
LINE
8
BLACK
6
CONTINUOUS
10
107.667
20
-42.753
11
107.814
21
-42.7237
0
LINE
8
BLACK
6
CONTINUOUS
10
107.814
20
-42.7237
11
107.964
21
-42.7237
0
LINE
8
BLACK
6
CONTINUOUS
10
107.964
20
-42.7237
11
108.111
21
-42.753
0
LINE
8
BLACK
6
CONTINUOUS
10
106.812
20
-41.5573
11
106.951
21
-41.6147
0
LINE
8
BLACK
6
CONTINUOUS
10
106.951
20
-41.6147
11
107.076
21
-41.6981
0
LINE
8
BLACK
6
CONTINUOUS
10
107.076
20
-41.6981
11
107.182
21
-41.8043
0
LINE
8
BLACK
6
CONTINUOUS
10
107.182
20
-41.8043
11
107.265
21
-41.9291
0
LINE
8
BLACK
6
CONTINUOUS
10
107.265
20
-41.9291
11
107.323
21
-42.0677
0
LINE
8
BLACK
6
CONTINUOUS
10
107.323
20
-42.0677
11
107.352
21
-42.2149
0
LINE
8
BLACK
6
CONTINUOUS
10
107.352
20
-42.2149
11
107.352
21
-42.365
0
LINE
8
BLACK
6
CONTINUOUS
10
107.352
20
-42.365
11
107.323
21
-42.5123
0
LINE
8
BLACK
6
CONTINUOUS
10
107.323
20
-42.5123
11
107.265
21
-42.6509
0
LINE
8
BLACK
6
CONTINUOUS
10
107.265
20
-42.6509
11
107.182
21
-42.7757
0
LINE
8
BLACK
6
CONTINUOUS
10
107.182
20
-42.7757
11
107.076
21
-42.8819
0
LINE
8
BLACK
6
CONTINUOUS
10
107.076
20
-42.8819
11
106.951
21
-42.9653
0
LINE
8
BLACK
6
CONTINUOUS
10
106.951
20
-42.9653
11
106.812
21
-43.0227
0
LINE
8
BLACK
6
CONTINUOUS
10
106.812
20
-43.0227
11
106.665
21
-43.052
0
LINE
8
BLACK
6
CONTINUOUS
10
106.665
20
-43.052
11
106.515
21
-43.052
0
LINE
8
BLACK
6
CONTINUOUS
10
106.515
20
-43.052
11
106.368
21
-43.0227
0
LINE
8
BLACK
6
CONTINUOUS
10
106.368
20
-43.0227
11
106.229
21
-42.9653
0
LINE
8
BLACK
6
CONTINUOUS
10
106.229
20
-42.9653
11
106.104
21
-42.8819
0
LINE
8
BLACK
6
CONTINUOUS
10
106.104
20
-42.8819
11
105.998
21
-42.7757
0
LINE
8
BLACK
6
CONTINUOUS
10
105.998
20
-42.7757
11
105.915
21
-42.6509
0
LINE
8
BLACK
6
CONTINUOUS
10
105.915
20
-42.6509
11
105.857
21
-42.5123
0
LINE
8
BLACK
6
CONTINUOUS
10
105.857
20
-42.5123
11
105.828
21
-42.365
0
LINE
8
BLACK
6
CONTINUOUS
10
105.828
20
-42.365
11
105.828
21
-42.2149
0
LINE
8
BLACK
6
CONTINUOUS
10
105.828
20
-42.2149
11
105.857
21
-42.0677
0
LINE
8
BLACK
6
CONTINUOUS
10
105.857
20
-42.0677
11
105.915
21
-41.9291
0
LINE
8
BLACK
6
CONTINUOUS
10
105.915
20
-41.9291
11
105.998
21
-41.8043
0
LINE
8
BLACK
6
CONTINUOUS
10
105.998
20
-41.8043
11
106.104
21
-41.6981
0
LINE
8
BLACK
6
CONTINUOUS
10
106.104
20
-41.6981
11
106.229
21
-41.6147
0
LINE
8
BLACK
6
CONTINUOUS
10
106.229
20
-41.6147
11
106.368
21
-41.5573
0
LINE
8
BLACK
6
CONTINUOUS
10
106.368
20
-41.5573
11
106.515
21
-41.528
0
LINE
8
BLACK
6
CONTINUOUS
10
106.515
20
-41.528
11
106.665
21
-41.528
0
LINE
8
BLACK
6
CONTINUOUS
10
106.665
20
-41.528
11
106.812
21
-41.5573
0
LINE
8
BLACK
6
CONTINUOUS
10
122.052
20
-41.5573
11
122.191
21
-41.6147
0
LINE
8
BLACK
6
CONTINUOUS
10
122.191
20
-41.6147
11
122.316
21
-41.6981
0
LINE
8
BLACK
6
CONTINUOUS
10
122.316
20
-41.6981
11
122.422
21
-41.8043
0
LINE
8
BLACK
6
CONTINUOUS
10
122.422
20
-41.8043
11
122.505
21
-41.9291
0
LINE
8
BLACK
6
CONTINUOUS
10
122.505
20
-41.9291
11
122.563
21
-42.0677
0
LINE
8
BLACK
6
CONTINUOUS
10
122.563
20
-42.0677
11
122.592
21
-42.2149
0
LINE
8
BLACK
6
CONTINUOUS
10
122.592
20
-42.2149
11
122.592
21
-42.365
0
LINE
8
BLACK
6
CONTINUOUS
10
122.592
20
-42.365
11
122.563
21
-42.5123
0
LINE
8
BLACK
6
CONTINUOUS
10
122.563
20
-42.5123
11
122.505
21
-42.6509
0
LINE
8
BLACK
6
CONTINUOUS
10
122.505
20
-42.6509
11
122.422
21
-42.7757
0
LINE
8
BLACK
6
CONTINUOUS
10
122.422
20
-42.7757
11
122.316
21
-42.8819
0
LINE
8
BLACK
6
CONTINUOUS
10
122.316
20
-42.8819
11
122.191
21
-42.9653
0
LINE
8
BLACK
6
CONTINUOUS
10
122.191
20
-42.9653
11
122.052
21
-43.0227
0
LINE
8
BLACK
6
CONTINUOUS
10
122.052
20
-43.0227
11
121.905
21
-43.052
0
LINE
8
BLACK
6
CONTINUOUS
10
121.905
20
-43.052
11
121.755
21
-43.052
0
LINE
8
BLACK
6
CONTINUOUS
10
121.755
20
-43.052
11
121.608
21
-43.0227
0
LINE
8
BLACK
6
CONTINUOUS
10
121.608
20
-43.0227
11
121.469
21
-42.9653
0
LINE
8
BLACK
6
CONTINUOUS
10
121.469
20
-42.9653
11
121.344
21
-42.8819
0
LINE
8
BLACK
6
CONTINUOUS
10
121.344
20
-42.8819
11
121.238
21
-42.7757
0
LINE
8
BLACK
6
CONTINUOUS
10
121.238
20
-42.7757
11
121.155
21
-42.6509
0
LINE
8
BLACK
6
CONTINUOUS
10
121.155
20
-42.6509
11
121.097
21
-42.5123
0
LINE
8
BLACK
6
CONTINUOUS
10
121.097
20
-42.5123
11
121.068
21
-42.365
0
LINE
8
BLACK
6
CONTINUOUS
10
121.068
20
-42.365
11
121.068
21
-42.2149
0
LINE
8
BLACK
6
CONTINUOUS
10
121.068
20
-42.2149
11
121.097
21
-42.0677
0
LINE
8
BLACK
6
CONTINUOUS
10
121.097
20
-42.0677
11
121.155
21
-41.9291
0
LINE
8
BLACK
6
CONTINUOUS
10
121.155
20
-41.9291
11
121.238
21
-41.8043
0
LINE
8
BLACK
6
CONTINUOUS
10
121.238
20
-41.8043
11
121.344
21
-41.6981
0
LINE
8
BLACK
6
CONTINUOUS
10
121.344
20
-41.6981
11
121.469
21
-41.6147
0
LINE
8
BLACK
6
CONTINUOUS
10
121.469
20
-41.6147
11
121.608
21
-41.5573
0
LINE
8
BLACK
6
CONTINUOUS
10
121.608
20
-41.5573
11
121.755
21
-41.528
0
LINE
8
BLACK
6
CONTINUOUS
10
121.755
20
-41.528
11
121.905
21
-41.528
0
LINE
8
BLACK
6
CONTINUOUS
10
121.905
20
-41.528
11
122.052
21
-41.5573
0
LINE
8
BLACK
6
CONTINUOUS
10
108.111
20
-40.213
11
108.25
21
-40.2705
0
LINE
8
BLACK
6
CONTINUOUS
10
108.25
20
-40.2705
11
108.375
21
-40.3539
0
LINE
8
BLACK
6
CONTINUOUS
10
108.375
20
-40.3539
11
108.481
21
-40.46
0
LINE
8
BLACK
6
CONTINUOUS
10
108.481
20
-40.46
11
108.564
21
-40.5848
0
LINE
8
BLACK
6
CONTINUOUS
10
108.564
20
-40.5848
11
108.622
21
-40.7235
0
LINE
8
BLACK
6
CONTINUOUS
10
108.622
20
-40.7235
11
108.651
21
-40.8707
0
LINE
8
BLACK
6
CONTINUOUS
10
108.651
20
-40.8707
11
108.651
21
-41.0208
0
LINE
8
BLACK
6
CONTINUOUS
10
108.651
20
-41.0208
11
108.622
21
-41.168
0
LINE
8
BLACK
6
CONTINUOUS
10
108.622
20
-41.168
11
108.564
21
-41.3067
0
LINE
8
BLACK
6
CONTINUOUS
10
108.564
20
-41.3067
11
108.481
21
-41.4315
0
LINE
8
BLACK
6
CONTINUOUS
10
108.481
20
-41.4315
11
108.375
21
-41.5376
0
LINE
8
BLACK
6
CONTINUOUS
10
108.375
20
-41.5376
11
108.25
21
-41.621
0
LINE
8
BLACK
6
CONTINUOUS
10
108.25
20
-41.621
11
108.111
21
-41.6785
0
LINE
8
BLACK
6
CONTINUOUS
10
108.111
20
-41.6785
11
107.964
21
-41.7077
0
LINE
8
BLACK
6
CONTINUOUS
10
107.964
20
-41.7077
11
107.814
21
-41.7077
0
LINE
8
BLACK
6
CONTINUOUS
10
107.814
20
-41.7077
11
107.667
21
-41.6785
0
LINE
8
BLACK
6
CONTINUOUS
10
107.667
20
-41.6785
11
107.528
21
-41.621
0
LINE
8
BLACK
6
CONTINUOUS
10
107.528
20
-41.621
11
107.403
21
-41.5376
0
LINE
8
BLACK
6
CONTINUOUS
10
107.403
20
-41.5376
11
107.297
21
-41.4315
0
LINE
8
BLACK
6
CONTINUOUS
10
107.297
20
-41.4315
11
107.214
21
-41.3067
0
LINE
8
BLACK
6
CONTINUOUS
10
107.214
20
-41.3067
11
107.156
21
-41.168
0
LINE
8
BLACK
6
CONTINUOUS
10
107.156
20
-41.168
11
107.127
21
-41.0208
0
LINE
8
BLACK
6
CONTINUOUS
10
107.127
20
-41.0208
11
107.127
21
-40.8707
0
LINE
8
BLACK
6
CONTINUOUS
10
107.127
20
-40.8707
11
107.156
21
-40.7235
0
LINE
8
BLACK
6
CONTINUOUS
10
107.156
20
-40.7235
11
107.214
21
-40.5848
0
LINE
8
BLACK
6
CONTINUOUS
10
107.214
20
-40.5848
11
107.297
21
-40.46
0
LINE
8
BLACK
6
CONTINUOUS
10
107.297
20
-40.46
11
107.403
21
-40.3539
0
LINE
8
BLACK
6
CONTINUOUS
10
107.403
20
-40.3539
11
107.528
21
-40.2705
0
LINE
8
BLACK
6
CONTINUOUS
10
107.528
20
-40.2705
11
107.667
21
-40.213
0
LINE
8
BLACK
6
CONTINUOUS
10
107.667
20
-40.213
11
107.814
21
-40.1837
0
LINE
8
BLACK
6
CONTINUOUS
10
107.814
20
-40.1837
11
107.964
21
-40.1837
0
LINE
8
BLACK
6
CONTINUOUS
10
107.964
20
-40.1837
11
108.111
21
-40.213
0
LINE
8
BLACK
6
CONTINUOUS
10
123.351
20
-40.213
11
123.49
21
-40.2705
0
LINE
8
BLACK
6
CONTINUOUS
10
123.49
20
-40.2705
11
123.615
21
-40.3539
0
LINE
8
BLACK
6
CONTINUOUS
10
123.615
20
-40.3539
11
123.721
21
-40.46
0
LINE
8
BLACK
6
CONTINUOUS
10
123.721
20
-40.46
11
123.804
21
-40.5848
0
LINE
8
BLACK
6
CONTINUOUS
10
123.804
20
-40.5848
11
123.862
21
-40.7235
0
LINE
8
BLACK
6
CONTINUOUS
10
123.862
20
-40.7235
11
123.891
21
-40.8707
0
LINE
8
BLACK
6
CONTINUOUS
10
123.891
20
-40.8707
11
123.891
21
-41.0208
0
LINE
8
BLACK
6
CONTINUOUS
10
123.891
20
-41.0208
11
123.862
21
-41.168
0
LINE
8
BLACK
6
CONTINUOUS
10
123.862
20
-41.168
11
123.804
21
-41.3067
0
LINE
8
BLACK
6
CONTINUOUS
10
123.804
20
-41.3067
11
123.721
21
-41.4315
0
LINE
8
BLACK
6
CONTINUOUS
10
123.721
20
-41.4315
11
123.615
21
-41.5376
0
LINE
8
BLACK
6
CONTINUOUS
10
123.615
20
-41.5376
11
123.49
21
-41.621
0
LINE
8
BLACK
6
CONTINUOUS
10
123.49
20
-41.621
11
123.351
21
-41.6785
0
LINE
8
BLACK
6
CONTINUOUS
10
123.351
20
-41.6785
11
123.204
21
-41.7077
0
LINE
8
BLACK
6
CONTINUOUS
10
123.204
20
-41.7077
11
123.054
21
-41.7077
0
LINE
8
BLACK
6
CONTINUOUS
10
123.054
20
-41.7077
11
122.907
21
-41.6785
0
LINE
8
BLACK
6
CONTINUOUS
10
122.907
20
-41.6785
11
122.768
21
-41.621
0
LINE
8
BLACK
6
CONTINUOUS
10
122.768
20
-41.621
11
122.643
21
-41.5376
0
LINE
8
BLACK
6
CONTINUOUS
10
122.643
20
-41.5376
11
122.537
21
-41.4315
0
LINE
8
BLACK
6
CONTINUOUS
10
122.537
20
-41.4315
11
122.454
21
-41.3067
0
LINE
8
BLACK
6
CONTINUOUS
10
122.454
20
-41.3067
11
122.396
21
-41.168
0
LINE
8
BLACK
6
CONTINUOUS
10
122.396
20
-41.168
11
122.367
21
-41.0208
0
LINE
8
BLACK
6
CONTINUOUS
10
122.367
20
-41.0208
11
122.367
21
-40.8707
0
LINE
8
BLACK
6
CONTINUOUS
10
122.367
20
-40.8707
11
122.396
21
-40.7235
0
LINE
8
BLACK
6
CONTINUOUS
10
122.396
20
-40.7235
11
122.454
21
-40.5848
0
LINE
8
BLACK
6
CONTINUOUS
10
122.454
20
-40.5848
11
122.537
21
-40.46
0
LINE
8
BLACK
6
CONTINUOUS
10
122.537
20
-40.46
11
122.643
21
-40.3539
0
LINE
8
BLACK
6
CONTINUOUS
10
122.643
20
-40.3539
11
122.768
21
-40.2705
0
LINE
8
BLACK
6
CONTINUOUS
10
122.768
20
-40.2705
11
122.907
21
-40.213
0
LINE
8
BLACK
6
CONTINUOUS
10
122.907
20
-40.213
11
123.054
21
-40.1837
0
LINE
8
BLACK
6
CONTINUOUS
10
123.054
20
-40.1837
11
123.204
21
-40.1837
0
LINE
8
BLACK
6
CONTINUOUS
10
123.204
20
-40.1837
11
123.351
21
-40.213
0
LINE
8
BLACK
6
CONTINUOUS
10
106.812
20
-39.0173
11
106.951
21
-39.0747
0
LINE
8
BLACK
6
CONTINUOUS
10
106.951
20
-39.0747
11
107.076
21
-39.1581
0
LINE
8
BLACK
6
CONTINUOUS
10
107.076
20
-39.1581
11
107.182
21
-39.2643
0
LINE
8
BLACK
6
CONTINUOUS
10
107.182
20
-39.2643
11
107.265
21
-39.3891
0
LINE
8
BLACK
6
CONTINUOUS
10
107.265
20
-39.3891
11
107.323
21
-39.5277
0
LINE
8
BLACK
6
CONTINUOUS
10
107.323
20
-39.5277
11
107.352
21
-39.6749
0
LINE
8
BLACK
6
CONTINUOUS
10
107.352
20
-39.6749
11
107.352
21
-39.825
0
LINE
8
BLACK
6
CONTINUOUS
10
107.352
20
-39.825
11
107.323
21
-39.9723
0
LINE
8
BLACK
6
CONTINUOUS
10
107.323
20
-39.9723
11
107.265
21
-40.1109
0
LINE
8
BLACK
6
CONTINUOUS
10
107.265
20
-40.1109
11
107.182
21
-40.2357
0
LINE
8
BLACK
6
CONTINUOUS
10
107.182
20
-40.2357
11
107.076
21
-40.3419
0
LINE
8
BLACK
6
CONTINUOUS
10
107.076
20
-40.3419
11
106.951
21
-40.4253
0
LINE
8
BLACK
6
CONTINUOUS
10
106.951
20
-40.4253
11
106.812
21
-40.4827
0
LINE
8
BLACK
6
CONTINUOUS
10
106.812
20
-40.4827
11
106.665
21
-40.512
0
LINE
8
BLACK
6
CONTINUOUS
10
106.665
20
-40.512
11
106.515
21
-40.512
0
LINE
8
BLACK
6
CONTINUOUS
10
106.515
20
-40.512
11
106.368
21
-40.4827
0
LINE
8
BLACK
6
CONTINUOUS
10
106.368
20
-40.4827
11
106.229
21
-40.4253
0
LINE
8
BLACK
6
CONTINUOUS
10
106.229
20
-40.4253
11
106.104
21
-40.3419
0
LINE
8
BLACK
6
CONTINUOUS
10
106.104
20
-40.3419
11
105.998
21
-40.2357
0
LINE
8
BLACK
6
CONTINUOUS
10
105.998
20
-40.2357
11
105.915
21
-40.1109
0
LINE
8
BLACK
6
CONTINUOUS
10
105.915
20
-40.1109
11
105.857
21
-39.9723
0
LINE
8
BLACK
6
CONTINUOUS
10
105.857
20
-39.9723
11
105.828
21
-39.825
0
LINE
8
BLACK
6
CONTINUOUS
10
105.828
20
-39.825
11
105.828
21
-39.6749
0
LINE
8
BLACK
6
CONTINUOUS
10
105.828
20
-39.6749
11
105.857
21
-39.5277
0
LINE
8
BLACK
6
CONTINUOUS
10
105.857
20
-39.5277
11
105.915
21
-39.3891
0
LINE
8
BLACK
6
CONTINUOUS
10
105.915
20
-39.3891
11
105.998
21
-39.2643
0
LINE
8
BLACK
6
CONTINUOUS
10
105.998
20
-39.2643
11
106.104
21
-39.1581
0
LINE
8
BLACK
6
CONTINUOUS
10
106.104
20
-39.1581
11
106.229
21
-39.0747
0
LINE
8
BLACK
6
CONTINUOUS
10
106.229
20
-39.0747
11
106.368
21
-39.0173
0
LINE
8
BLACK
6
CONTINUOUS
10
106.368
20
-39.0173
11
106.515
21
-38.988
0
LINE
8
BLACK
6
CONTINUOUS
10
106.515
20
-38.988
11
106.665
21
-38.988
0
LINE
8
BLACK
6
CONTINUOUS
10
106.665
20
-38.988
11
106.812
21
-39.0173
0
LINE
8
BLACK
6
CONTINUOUS
10
122.052
20
-39.0173
11
122.191
21
-39.0747
0
LINE
8
BLACK
6
CONTINUOUS
10
122.191
20
-39.0747
11
122.316
21
-39.1581
0
LINE
8
BLACK
6
CONTINUOUS
10
122.316
20
-39.1581
11
122.422
21
-39.2643
0
LINE
8
BLACK
6
CONTINUOUS
10
122.422
20
-39.2643
11
122.505
21
-39.3891
0
LINE
8
BLACK
6
CONTINUOUS
10
122.505
20
-39.3891
11
122.563
21
-39.5277
0
LINE
8
BLACK
6
CONTINUOUS
10
122.563
20
-39.5277
11
122.592
21
-39.6749
0
LINE
8
BLACK
6
CONTINUOUS
10
122.592
20
-39.6749
11
122.592
21
-39.825
0
LINE
8
BLACK
6
CONTINUOUS
10
122.592
20
-39.825
11
122.563
21
-39.9723
0
LINE
8
BLACK
6
CONTINUOUS
10
122.563
20
-39.9723
11
122.505
21
-40.1109
0
LINE
8
BLACK
6
CONTINUOUS
10
122.505
20
-40.1109
11
122.422
21
-40.2357
0
LINE
8
BLACK
6
CONTINUOUS
10
122.422
20
-40.2357
11
122.316
21
-40.3419
0
LINE
8
BLACK
6
CONTINUOUS
10
122.316
20
-40.3419
11
122.191
21
-40.4253
0
LINE
8
BLACK
6
CONTINUOUS
10
122.191
20
-40.4253
11
122.052
21
-40.4827
0
LINE
8
BLACK
6
CONTINUOUS
10
122.052
20
-40.4827
11
121.905
21
-40.512
0
LINE
8
BLACK
6
CONTINUOUS
10
121.905
20
-40.512
11
121.755
21
-40.512
0
LINE
8
BLACK
6
CONTINUOUS
10
121.755
20
-40.512
11
121.608
21
-40.4827
0
LINE
8
BLACK
6
CONTINUOUS
10
121.608
20
-40.4827
11
121.469
21
-40.4253
0
LINE
8
BLACK
6
CONTINUOUS
10
121.469
20
-40.4253
11
121.344
21
-40.3419
0
LINE
8
BLACK
6
CONTINUOUS
10
121.344
20
-40.3419
11
121.238
21
-40.2357
0
LINE
8
BLACK
6
CONTINUOUS
10
121.238
20
-40.2357
11
121.155
21
-40.1109
0
LINE
8
BLACK
6
CONTINUOUS
10
121.155
20
-40.1109
11
121.097
21
-39.9723
0
LINE
8
BLACK
6
CONTINUOUS
10
121.097
20
-39.9723
11
121.068
21
-39.825
0
LINE
8
BLACK
6
CONTINUOUS
10
121.068
20
-39.825
11
121.068
21
-39.6749
0
LINE
8
BLACK
6
CONTINUOUS
10
121.068
20
-39.6749
11
121.097
21
-39.5277
0
LINE
8
BLACK
6
CONTINUOUS
10
121.097
20
-39.5277
11
121.155
21
-39.3891
0
LINE
8
BLACK
6
CONTINUOUS
10
121.155
20
-39.3891
11
121.238
21
-39.2643
0
LINE
8
BLACK
6
CONTINUOUS
10
121.238
20
-39.2643
11
121.344
21
-39.1581
0
LINE
8
BLACK
6
CONTINUOUS
10
121.344
20
-39.1581
11
121.469
21
-39.0747
0
LINE
8
BLACK
6
CONTINUOUS
10
121.469
20
-39.0747
11
121.608
21
-39.0173
0
LINE
8
BLACK
6
CONTINUOUS
10
121.608
20
-39.0173
11
121.755
21
-38.988
0
LINE
8
BLACK
6
CONTINUOUS
10
121.755
20
-38.988
11
121.905
21
-38.988
0
LINE
8
BLACK
6
CONTINUOUS
10
121.905
20
-38.988
11
122.052
21
-39.0173
0
LINE
8
BLACK
6
CONTINUOUS
10
108.111
20
-37.673
11
108.25
21
-37.7305
0
LINE
8
BLACK
6
CONTINUOUS
10
108.25
20
-37.7305
11
108.375
21
-37.8139
0
LINE
8
BLACK
6
CONTINUOUS
10
108.375
20
-37.8139
11
108.481
21
-37.92
0
LINE
8
BLACK
6
CONTINUOUS
10
108.481
20
-37.92
11
108.564
21
-38.0448
0
LINE
8
BLACK
6
CONTINUOUS
10
108.564
20
-38.0448
11
108.622
21
-38.1835
0
LINE
8
BLACK
6
CONTINUOUS
10
108.622
20
-38.1835
11
108.651
21
-38.3307
0
LINE
8
BLACK
6
CONTINUOUS
10
108.651
20
-38.3307
11
108.651
21
-38.4808
0
LINE
8
BLACK
6
CONTINUOUS
10
108.651
20
-38.4808
11
108.622
21
-38.628
0
LINE
8
BLACK
6
CONTINUOUS
10
108.622
20
-38.628
11
108.564
21
-38.7667
0
LINE
8
BLACK
6
CONTINUOUS
10
108.564
20
-38.7667
11
108.481
21
-38.8915
0
LINE
8
BLACK
6
CONTINUOUS
10
108.481
20
-38.8915
11
108.375
21
-38.9976
0
LINE
8
BLACK
6
CONTINUOUS
10
108.375
20
-38.9976
11
108.25
21
-39.081
0
LINE
8
BLACK
6
CONTINUOUS
10
108.25
20
-39.081
11
108.111
21
-39.1385
0
LINE
8
BLACK
6
CONTINUOUS
10
108.111
20
-39.1385
11
107.964
21
-39.1677
0
LINE
8
BLACK
6
CONTINUOUS
10
107.964
20
-39.1677
11
107.814
21
-39.1677
0
LINE
8
BLACK
6
CONTINUOUS
10
107.814
20
-39.1677
11
107.667
21
-39.1385
0
LINE
8
BLACK
6
CONTINUOUS
10
107.667
20
-39.1385
11
107.528
21
-39.081
0
LINE
8
BLACK
6
CONTINUOUS
10
107.528
20
-39.081
11
107.403
21
-38.9976
0
LINE
8
BLACK
6
CONTINUOUS
10
107.403
20
-38.9976
11
107.297
21
-38.8915
0
LINE
8
BLACK
6
CONTINUOUS
10
107.297
20
-38.8915
11
107.214
21
-38.7667
0
LINE
8
BLACK
6
CONTINUOUS
10
107.214
20
-38.7667
11
107.156
21
-38.628
0
LINE
8
BLACK
6
CONTINUOUS
10
107.156
20
-38.628
11
107.127
21
-38.4808
0
LINE
8
BLACK
6
CONTINUOUS
10
107.127
20
-38.4808
11
107.127
21
-38.3307
0
LINE
8
BLACK
6
CONTINUOUS
10
107.127
20
-38.3307
11
107.156
21
-38.1835
0
LINE
8
BLACK
6
CONTINUOUS
10
107.156
20
-38.1835
11
107.214
21
-38.0448
0
LINE
8
BLACK
6
CONTINUOUS
10
107.214
20
-38.0448
11
107.297
21
-37.92
0
LINE
8
BLACK
6
CONTINUOUS
10
107.297
20
-37.92
11
107.403
21
-37.8139
0
LINE
8
BLACK
6
CONTINUOUS
10
107.403
20
-37.8139
11
107.528
21
-37.7305
0
LINE
8
BLACK
6
CONTINUOUS
10
107.528
20
-37.7305
11
107.667
21
-37.673
0
LINE
8
BLACK
6
CONTINUOUS
10
107.667
20
-37.673
11
107.814
21
-37.6437
0
LINE
8
BLACK
6
CONTINUOUS
10
107.814
20
-37.6437
11
107.964
21
-37.6437
0
LINE
8
BLACK
6
CONTINUOUS
10
107.964
20
-37.6437
11
108.111
21
-37.673
0
LINE
8
BLACK
6
CONTINUOUS
10
123.351
20
-37.673
11
123.49
21
-37.7305
0
LINE
8
BLACK
6
CONTINUOUS
10
123.49
20
-37.7305
11
123.615
21
-37.8139
0
LINE
8
BLACK
6
CONTINUOUS
10
123.615
20
-37.8139
11
123.721
21
-37.92
0
LINE
8
BLACK
6
CONTINUOUS
10
123.721
20
-37.92
11
123.804
21
-38.0448
0
LINE
8
BLACK
6
CONTINUOUS
10
123.804
20
-38.0448
11
123.862
21
-38.1835
0
LINE
8
BLACK
6
CONTINUOUS
10
123.862
20
-38.1835
11
123.891
21
-38.3307
0
LINE
8
BLACK
6
CONTINUOUS
10
123.891
20
-38.3307
11
123.891
21
-38.4808
0
LINE
8
BLACK
6
CONTINUOUS
10
123.891
20
-38.4808
11
123.862
21
-38.628
0
LINE
8
BLACK
6
CONTINUOUS
10
123.862
20
-38.628
11
123.804
21
-38.7667
0
LINE
8
BLACK
6
CONTINUOUS
10
123.804
20
-38.7667
11
123.721
21
-38.8915
0
LINE
8
BLACK
6
CONTINUOUS
10
123.721
20
-38.8915
11
123.615
21
-38.9976
0
LINE
8
BLACK
6
CONTINUOUS
10
123.615
20
-38.9976
11
123.49
21
-39.081
0
LINE
8
BLACK
6
CONTINUOUS
10
123.49
20
-39.081
11
123.351
21
-39.1385
0
LINE
8
BLACK
6
CONTINUOUS
10
123.351
20
-39.1385
11
123.204
21
-39.1677
0
LINE
8
BLACK
6
CONTINUOUS
10
123.204
20
-39.1677
11
123.054
21
-39.1677
0
LINE
8
BLACK
6
CONTINUOUS
10
123.054
20
-39.1677
11
122.907
21
-39.1385
0
LINE
8
BLACK
6
CONTINUOUS
10
122.907
20
-39.1385
11
122.768
21
-39.081
0
LINE
8
BLACK
6
CONTINUOUS
10
122.768
20
-39.081
11
122.643
21
-38.9976
0
LINE
8
BLACK
6
CONTINUOUS
10
122.643
20
-38.9976
11
122.537
21
-38.8915
0
LINE
8
BLACK
6
CONTINUOUS
10
122.537
20
-38.8915
11
122.454
21
-38.7667
0
LINE
8
BLACK
6
CONTINUOUS
10
122.454
20
-38.7667
11
122.396
21
-38.628
0
LINE
8
BLACK
6
CONTINUOUS
10
122.396
20
-38.628
11
122.367
21
-38.4808
0
LINE
8
BLACK
6
CONTINUOUS
10
122.367
20
-38.4808
11
122.367
21
-38.3307
0
LINE
8
BLACK
6
CONTINUOUS
10
122.367
20
-38.3307
11
122.396
21
-38.1835
0
LINE
8
BLACK
6
CONTINUOUS
10
122.396
20
-38.1835
11
122.454
21
-38.0448
0
LINE
8
BLACK
6
CONTINUOUS
10
122.454
20
-38.0448
11
122.537
21
-37.92
0
LINE
8
BLACK
6
CONTINUOUS
10
122.537
20
-37.92
11
122.643
21
-37.8139
0
LINE
8
BLACK
6
CONTINUOUS
10
122.643
20
-37.8139
11
122.768
21
-37.7305
0
LINE
8
BLACK
6
CONTINUOUS
10
122.768
20
-37.7305
11
122.907
21
-37.673
0
LINE
8
BLACK
6
CONTINUOUS
10
122.907
20
-37.673
11
123.054
21
-37.6437
0
LINE
8
BLACK
6
CONTINUOUS
10
123.054
20
-37.6437
11
123.204
21
-37.6437
0
LINE
8
BLACK
6
CONTINUOUS
10
123.204
20
-37.6437
11
123.351
21
-37.673
0
LINE
8
BLACK
6
CONTINUOUS
10
122.052
20
-36.4773
11
122.191
21
-36.5347
0
LINE
8
BLACK
6
CONTINUOUS
10
122.191
20
-36.5347
11
122.316
21
-36.6181
0
LINE
8
BLACK
6
CONTINUOUS
10
122.316
20
-36.6181
11
122.422
21
-36.7243
0
LINE
8
BLACK
6
CONTINUOUS
10
122.422
20
-36.7243
11
122.505
21
-36.8491
0
LINE
8
BLACK
6
CONTINUOUS
10
122.505
20
-36.8491
11
122.563
21
-36.9877
0
LINE
8
BLACK
6
CONTINUOUS
10
122.563
20
-36.9877
11
122.592
21
-37.1349
0
LINE
8
BLACK
6
CONTINUOUS
10
122.592
20
-37.1349
11
122.592
21
-37.285
0
LINE
8
BLACK
6
CONTINUOUS
10
122.592
20
-37.285
11
122.563
21
-37.4323
0
LINE
8
BLACK
6
CONTINUOUS
10
122.563
20
-37.4323
11
122.505
21
-37.5709
0
LINE
8
BLACK
6
CONTINUOUS
10
122.505
20
-37.5709
11
122.422
21
-37.6957
0
LINE
8
BLACK
6
CONTINUOUS
10
122.422
20
-37.6957
11
122.316
21
-37.8019
0
LINE
8
BLACK
6
CONTINUOUS
10
122.316
20
-37.8019
11
122.191
21
-37.8853
0
LINE
8
BLACK
6
CONTINUOUS
10
122.191
20
-37.8853
11
122.052
21
-37.9427
0
LINE
8
BLACK
6
CONTINUOUS
10
122.052
20
-37.9427
11
121.905
21
-37.972
0
LINE
8
BLACK
6
CONTINUOUS
10
121.905
20
-37.972
11
121.755
21
-37.972
0
LINE
8
BLACK
6
CONTINUOUS
10
121.755
20
-37.972
11
121.608
21
-37.9427
0
LINE
8
BLACK
6
CONTINUOUS
10
121.608
20
-37.9427
11
121.469
21
-37.8853
0
LINE
8
BLACK
6
CONTINUOUS
10
121.469
20
-37.8853
11
121.344
21
-37.8019
0
LINE
8
BLACK
6
CONTINUOUS
10
121.344
20
-37.8019
11
121.238
21
-37.6957
0
LINE
8
BLACK
6
CONTINUOUS
10
121.238
20
-37.6957
11
121.155
21
-37.5709
0
LINE
8
BLACK
6
CONTINUOUS
10
121.155
20
-37.5709
11
121.097
21
-37.4323
0
LINE
8
BLACK
6
CONTINUOUS
10
121.097
20
-37.4323
11
121.068
21
-37.285
0
LINE
8
BLACK
6
CONTINUOUS
10
121.068
20
-37.285
11
121.068
21
-37.1349
0
LINE
8
BLACK
6
CONTINUOUS
10
121.068
20
-37.1349
11
121.097
21
-36.9877
0
LINE
8
BLACK
6
CONTINUOUS
10
121.097
20
-36.9877
11
121.155
21
-36.8491
0
LINE
8
BLACK
6
CONTINUOUS
10
121.155
20
-36.8491
11
121.238
21
-36.7243
0
LINE
8
BLACK
6
CONTINUOUS
10
121.238
20
-36.7243
11
121.344
21
-36.6181
0
LINE
8
BLACK
6
CONTINUOUS
10
121.344
20
-36.6181
11
121.469
21
-36.5347
0
LINE
8
BLACK
6
CONTINUOUS
10
121.469
20
-36.5347
11
121.608
21
-36.4773
0
LINE
8
BLACK
6
CONTINUOUS
10
121.608
20
-36.4773
11
121.755
21
-36.448
0
LINE
8
BLACK
6
CONTINUOUS
10
121.755
20
-36.448
11
121.905
21
-36.448
0
LINE
8
BLACK
6
CONTINUOUS
10
121.905
20
-36.448
11
122.052
21
-36.4773
0
LINE
8
BLACK
6
CONTINUOUS
10
106.812
20
-36.4773
11
106.951
21
-36.5347
0
LINE
8
BLACK
6
CONTINUOUS
10
106.951
20
-36.5347
11
107.076
21
-36.6181
0
LINE
8
BLACK
6
CONTINUOUS
10
107.076
20
-36.6181
11
107.182
21
-36.7243
0
LINE
8
BLACK
6
CONTINUOUS
10
107.182
20
-36.7243
11
107.265
21
-36.8491
0
LINE
8
BLACK
6
CONTINUOUS
10
107.265
20
-36.8491
11
107.323
21
-36.9877
0
LINE
8
BLACK
6
CONTINUOUS
10
107.323
20
-36.9877
11
107.352
21
-37.1349
0
LINE
8
BLACK
6
CONTINUOUS
10
107.352
20
-37.1349
11
107.352
21
-37.285
0
LINE
8
BLACK
6
CONTINUOUS
10
107.352
20
-37.285
11
107.323
21
-37.4323
0
LINE
8
BLACK
6
CONTINUOUS
10
107.323
20
-37.4323
11
107.265
21
-37.5709
0
LINE
8
BLACK
6
CONTINUOUS
10
107.265
20
-37.5709
11
107.182
21
-37.6957
0
LINE
8
BLACK
6
CONTINUOUS
10
107.182
20
-37.6957
11
107.076
21
-37.8019
0
LINE
8
BLACK
6
CONTINUOUS
10
107.076
20
-37.8019
11
106.951
21
-37.8853
0
LINE
8
BLACK
6
CONTINUOUS
10
106.951
20
-37.8853
11
106.812
21
-37.9427
0
LINE
8
BLACK
6
CONTINUOUS
10
106.812
20
-37.9427
11
106.665
21
-37.972
0
LINE
8
BLACK
6
CONTINUOUS
10
106.665
20
-37.972
11
106.515
21
-37.972
0
LINE
8
BLACK
6
CONTINUOUS
10
106.515
20
-37.972
11
106.368
21
-37.9427
0
LINE
8
BLACK
6
CONTINUOUS
10
106.368
20
-37.9427
11
106.229
21
-37.8853
0
LINE
8
BLACK
6
CONTINUOUS
10
106.229
20
-37.8853
11
106.104
21
-37.8019
0
LINE
8
BLACK
6
CONTINUOUS
10
106.104
20
-37.8019
11
105.998
21
-37.6957
0
LINE
8
BLACK
6
CONTINUOUS
10
105.998
20
-37.6957
11
105.915
21
-37.5709
0
LINE
8
BLACK
6
CONTINUOUS
10
105.915
20
-37.5709
11
105.857
21
-37.4323
0
LINE
8
BLACK
6
CONTINUOUS
10
105.857
20
-37.4323
11
105.828
21
-37.285
0
LINE
8
BLACK
6
CONTINUOUS
10
105.828
20
-37.285
11
105.828
21
-37.1349
0
LINE
8
BLACK
6
CONTINUOUS
10
105.828
20
-37.1349
11
105.857
21
-36.9877
0
LINE
8
BLACK
6
CONTINUOUS
10
105.857
20
-36.9877
11
105.915
21
-36.8491
0
LINE
8
BLACK
6
CONTINUOUS
10
105.915
20
-36.8491
11
105.998
21
-36.7243
0
LINE
8
BLACK
6
CONTINUOUS
10
105.998
20
-36.7243
11
106.104
21
-36.6181
0
LINE
8
BLACK
6
CONTINUOUS
10
106.104
20
-36.6181
11
106.229
21
-36.5347
0
LINE
8
BLACK
6
CONTINUOUS
10
106.229
20
-36.5347
11
106.368
21
-36.4773
0
LINE
8
BLACK
6
CONTINUOUS
10
106.368
20
-36.4773
11
106.515
21
-36.448
0
LINE
8
BLACK
6
CONTINUOUS
10
106.515
20
-36.448
11
106.665
21
-36.448
0
LINE
8
BLACK
6
CONTINUOUS
10
106.665
20
-36.448
11
106.812
21
-36.4773
0
LINE
8
BLACK
6
CONTINUOUS
10
108.111
20
-35.133
11
108.25
21
-35.1905
0
LINE
8
BLACK
6
CONTINUOUS
10
108.25
20
-35.1905
11
108.375
21
-35.2739
0
LINE
8
BLACK
6
CONTINUOUS
10
108.375
20
-35.2739
11
108.481
21
-35.38
0
LINE
8
BLACK
6
CONTINUOUS
10
108.481
20
-35.38
11
108.564
21
-35.5048
0
LINE
8
BLACK
6
CONTINUOUS
10
108.564
20
-35.5048
11
108.622
21
-35.6435
0
LINE
8
BLACK
6
CONTINUOUS
10
108.622
20
-35.6435
11
108.651
21
-35.7907
0
LINE
8
BLACK
6
CONTINUOUS
10
108.651
20
-35.7907
11
108.651
21
-35.9408
0
LINE
8
BLACK
6
CONTINUOUS
10
108.651
20
-35.9408
11
108.622
21
-36.088
0
LINE
8
BLACK
6
CONTINUOUS
10
108.622
20
-36.088
11
108.564
21
-36.2267
0
LINE
8
BLACK
6
CONTINUOUS
10
108.564
20
-36.2267
11
108.481
21
-36.3515
0
LINE
8
BLACK
6
CONTINUOUS
10
108.481
20
-36.3515
11
108.375
21
-36.4576
0
LINE
8
BLACK
6
CONTINUOUS
10
108.375
20
-36.4576
11
108.25
21
-36.541
0
LINE
8
BLACK
6
CONTINUOUS
10
108.25
20
-36.541
11
108.111
21
-36.5985
0
LINE
8
BLACK
6
CONTINUOUS
10
108.111
20
-36.5985
11
107.964
21
-36.6277
0
LINE
8
BLACK
6
CONTINUOUS
10
107.964
20
-36.6277
11
107.814
21
-36.6277
0
LINE
8
BLACK
6
CONTINUOUS
10
107.814
20
-36.6277
11
107.667
21
-36.5985
0
LINE
8
BLACK
6
CONTINUOUS
10
107.667
20
-36.5985
11
107.528
21
-36.541
0
LINE
8
BLACK
6
CONTINUOUS
10
107.528
20
-36.541
11
107.403
21
-36.4576
0
LINE
8
BLACK
6
CONTINUOUS
10
107.403
20
-36.4576
11
107.297
21
-36.3515
0
LINE
8
BLACK
6
CONTINUOUS
10
107.297
20
-36.3515
11
107.214
21
-36.2267
0
LINE
8
BLACK
6
CONTINUOUS
10
107.214
20
-36.2267
11
107.156
21
-36.088
0
LINE
8
BLACK
6
CONTINUOUS
10
107.156
20
-36.088
11
107.127
21
-35.9408
0
LINE
8
BLACK
6
CONTINUOUS
10
107.127
20
-35.9408
11
107.127
21
-35.7907
0
LINE
8
BLACK
6
CONTINUOUS
10
107.127
20
-35.7907
11
107.156
21
-35.6435
0
LINE
8
BLACK
6
CONTINUOUS
10
107.156
20
-35.6435
11
107.214
21
-35.5048
0
LINE
8
BLACK
6
CONTINUOUS
10
107.214
20
-35.5048
11
107.297
21
-35.38
0
LINE
8
BLACK
6
CONTINUOUS
10
107.297
20
-35.38
11
107.403
21
-35.2739
0
LINE
8
BLACK
6
CONTINUOUS
10
107.403
20
-35.2739
11
107.528
21
-35.1905
0
LINE
8
BLACK
6
CONTINUOUS
10
107.528
20
-35.1905
11
107.667
21
-35.133
0
LINE
8
BLACK
6
CONTINUOUS
10
107.667
20
-35.133
11
107.814
21
-35.1037
0
LINE
8
BLACK
6
CONTINUOUS
10
107.814
20
-35.1037
11
107.964
21
-35.1037
0
LINE
8
BLACK
6
CONTINUOUS
10
107.964
20
-35.1037
11
108.111
21
-35.133
0
LINE
8
BLACK
6
CONTINUOUS
10
123.351
20
-35.133
11
123.49
21
-35.1905
0
LINE
8
BLACK
6
CONTINUOUS
10
123.49
20
-35.1905
11
123.615
21
-35.2739
0
LINE
8
BLACK
6
CONTINUOUS
10
123.615
20
-35.2739
11
123.721
21
-35.38
0
LINE
8
BLACK
6
CONTINUOUS
10
123.721
20
-35.38
11
123.804
21
-35.5048
0
LINE
8
BLACK
6
CONTINUOUS
10
123.804
20
-35.5048
11
123.862
21
-35.6435
0
LINE
8
BLACK
6
CONTINUOUS
10
123.862
20
-35.6435
11
123.891
21
-35.7907
0
LINE
8
BLACK
6
CONTINUOUS
10
123.891
20
-35.7907
11
123.891
21
-35.9408
0
LINE
8
BLACK
6
CONTINUOUS
10
123.891
20
-35.9408
11
123.862
21
-36.088
0
LINE
8
BLACK
6
CONTINUOUS
10
123.862
20
-36.088
11
123.804
21
-36.2267
0
LINE
8
BLACK
6
CONTINUOUS
10
123.804
20
-36.2267
11
123.721
21
-36.3515
0
LINE
8
BLACK
6
CONTINUOUS
10
123.721
20
-36.3515
11
123.615
21
-36.4576
0
LINE
8
BLACK
6
CONTINUOUS
10
123.615
20
-36.4576
11
123.49
21
-36.541
0
LINE
8
BLACK
6
CONTINUOUS
10
123.49
20
-36.541
11
123.351
21
-36.5985
0
LINE
8
BLACK
6
CONTINUOUS
10
123.351
20
-36.5985
11
123.204
21
-36.6277
0
LINE
8
BLACK
6
CONTINUOUS
10
123.204
20
-36.6277
11
123.054
21
-36.6277
0
LINE
8
BLACK
6
CONTINUOUS
10
123.054
20
-36.6277
11
122.907
21
-36.5985
0
LINE
8
BLACK
6
CONTINUOUS
10
122.907
20
-36.5985
11
122.768
21
-36.541
0
LINE
8
BLACK
6
CONTINUOUS
10
122.768
20
-36.541
11
122.643
21
-36.4576
0
LINE
8
BLACK
6
CONTINUOUS
10
122.643
20
-36.4576
11
122.537
21
-36.3515
0
LINE
8
BLACK
6
CONTINUOUS
10
122.537
20
-36.3515
11
122.454
21
-36.2267
0
LINE
8
BLACK
6
CONTINUOUS
10
122.454
20
-36.2267
11
122.396
21
-36.088
0
LINE
8
BLACK
6
CONTINUOUS
10
122.396
20
-36.088
11
122.367
21
-35.9408
0
LINE
8
BLACK
6
CONTINUOUS
10
122.367
20
-35.9408
11
122.367
21
-35.7907
0
LINE
8
BLACK
6
CONTINUOUS
10
122.367
20
-35.7907
11
122.396
21
-35.6435
0
LINE
8
BLACK
6
CONTINUOUS
10
122.396
20
-35.6435
11
122.454
21
-35.5048
0
LINE
8
BLACK
6
CONTINUOUS
10
122.454
20
-35.5048
11
122.537
21
-35.38
0
LINE
8
BLACK
6
CONTINUOUS
10
122.537
20
-35.38
11
122.643
21
-35.2739
0
LINE
8
BLACK
6
CONTINUOUS
10
122.643
20
-35.2739
11
122.768
21
-35.1905
0
LINE
8
BLACK
6
CONTINUOUS
10
122.768
20
-35.1905
11
122.907
21
-35.133
0
LINE
8
BLACK
6
CONTINUOUS
10
122.907
20
-35.133
11
123.054
21
-35.1037
0
LINE
8
BLACK
6
CONTINUOUS
10
123.054
20
-35.1037
11
123.204
21
-35.1037
0
LINE
8
BLACK
6
CONTINUOUS
10
123.204
20
-35.1037
11
123.351
21
-35.133
0
LINE
8
BLACK
6
CONTINUOUS
10
122.052
20
-33.9373
11
122.191
21
-33.9947
0
LINE
8
BLACK
6
CONTINUOUS
10
122.191
20
-33.9947
11
122.316
21
-34.0781
0
LINE
8
BLACK
6
CONTINUOUS
10
122.316
20
-34.0781
11
122.422
21
-34.1843
0
LINE
8
BLACK
6
CONTINUOUS
10
122.422
20
-34.1843
11
122.505
21
-34.3091
0
LINE
8
BLACK
6
CONTINUOUS
10
122.505
20
-34.3091
11
122.563
21
-34.4477
0
LINE
8
BLACK
6
CONTINUOUS
10
122.563
20
-34.4477
11
122.592
21
-34.5949
0
LINE
8
BLACK
6
CONTINUOUS
10
122.592
20
-34.5949
11
122.592
21
-34.745
0
LINE
8
BLACK
6
CONTINUOUS
10
122.592
20
-34.745
11
122.563
21
-34.8923
0
LINE
8
BLACK
6
CONTINUOUS
10
122.563
20
-34.8923
11
122.505
21
-35.0309
0
LINE
8
BLACK
6
CONTINUOUS
10
122.505
20
-35.0309
11
122.422
21
-35.1557
0
LINE
8
BLACK
6
CONTINUOUS
10
122.422
20
-35.1557
11
122.316
21
-35.2619
0
LINE
8
BLACK
6
CONTINUOUS
10
122.316
20
-35.2619
11
122.191
21
-35.3453
0
LINE
8
BLACK
6
CONTINUOUS
10
122.191
20
-35.3453
11
122.052
21
-35.4027
0
LINE
8
BLACK
6
CONTINUOUS
10
122.052
20
-35.4027
11
121.905
21
-35.432
0
LINE
8
BLACK
6
CONTINUOUS
10
121.905
20
-35.432
11
121.755
21
-35.432
0
LINE
8
BLACK
6
CONTINUOUS
10
121.755
20
-35.432
11
121.608
21
-35.4027
0
LINE
8
BLACK
6
CONTINUOUS
10
121.608
20
-35.4027
11
121.469
21
-35.3453
0
LINE
8
BLACK
6
CONTINUOUS
10
121.469
20
-35.3453
11
121.344
21
-35.2619
0
LINE
8
BLACK
6
CONTINUOUS
10
121.344
20
-35.2619
11
121.238
21
-35.1557
0
LINE
8
BLACK
6
CONTINUOUS
10
121.238
20
-35.1557
11
121.155
21
-35.0309
0
LINE
8
BLACK
6
CONTINUOUS
10
121.155
20
-35.0309
11
121.097
21
-34.8923
0
LINE
8
BLACK
6
CONTINUOUS
10
121.097
20
-34.8923
11
121.068
21
-34.745
0
LINE
8
BLACK
6
CONTINUOUS
10
121.068
20
-34.745
11
121.068
21
-34.5949
0
LINE
8
BLACK
6
CONTINUOUS
10
121.068
20
-34.5949
11
121.097
21
-34.4477
0
LINE
8
BLACK
6
CONTINUOUS
10
121.097
20
-34.4477
11
121.155
21
-34.3091
0
LINE
8
BLACK
6
CONTINUOUS
10
121.155
20
-34.3091
11
121.238
21
-34.1843
0
LINE
8
BLACK
6
CONTINUOUS
10
121.238
20
-34.1843
11
121.344
21
-34.0781
0
LINE
8
BLACK
6
CONTINUOUS
10
121.344
20
-34.0781
11
121.469
21
-33.9947
0
LINE
8
BLACK
6
CONTINUOUS
10
121.469
20
-33.9947
11
121.608
21
-33.9373
0
LINE
8
BLACK
6
CONTINUOUS
10
121.608
20
-33.9373
11
121.755
21
-33.908
0
LINE
8
BLACK
6
CONTINUOUS
10
121.755
20
-33.908
11
121.905
21
-33.908
0
LINE
8
BLACK
6
CONTINUOUS
10
121.905
20
-33.908
11
122.052
21
-33.9373
0
LINE
8
BLACK
6
CONTINUOUS
10
106.812
20
-33.9373
11
106.951
21
-33.9947
0
LINE
8
BLACK
6
CONTINUOUS
10
106.951
20
-33.9947
11
107.076
21
-34.0781
0
LINE
8
BLACK
6
CONTINUOUS
10
107.076
20
-34.0781
11
107.182
21
-34.1843
0
LINE
8
BLACK
6
CONTINUOUS
10
107.182
20
-34.1843
11
107.265
21
-34.3091
0
LINE
8
BLACK
6
CONTINUOUS
10
107.265
20
-34.3091
11
107.323
21
-34.4477
0
LINE
8
BLACK
6
CONTINUOUS
10
107.323
20
-34.4477
11
107.352
21
-34.5949
0
LINE
8
BLACK
6
CONTINUOUS
10
107.352
20
-34.5949
11
107.352
21
-34.745
0
LINE
8
BLACK
6
CONTINUOUS
10
107.352
20
-34.745
11
107.323
21
-34.8923
0
LINE
8
BLACK
6
CONTINUOUS
10
107.323
20
-34.8923
11
107.265
21
-35.0309
0
LINE
8
BLACK
6
CONTINUOUS
10
107.265
20
-35.0309
11
107.182
21
-35.1557
0
LINE
8
BLACK
6
CONTINUOUS
10
107.182
20
-35.1557
11
107.076
21
-35.2619
0
LINE
8
BLACK
6
CONTINUOUS
10
107.076
20
-35.2619
11
106.951
21
-35.3453
0
LINE
8
BLACK
6
CONTINUOUS
10
106.951
20
-35.3453
11
106.812
21
-35.4027
0
LINE
8
BLACK
6
CONTINUOUS
10
106.812
20
-35.4027
11
106.665
21
-35.432
0
LINE
8
BLACK
6
CONTINUOUS
10
106.665
20
-35.432
11
106.515
21
-35.432
0
LINE
8
BLACK
6
CONTINUOUS
10
106.515
20
-35.432
11
106.368
21
-35.4027
0
LINE
8
BLACK
6
CONTINUOUS
10
106.368
20
-35.4027
11
106.229
21
-35.3453
0
LINE
8
BLACK
6
CONTINUOUS
10
106.229
20
-35.3453
11
106.104
21
-35.2619
0
LINE
8
BLACK
6
CONTINUOUS
10
106.104
20
-35.2619
11
105.998
21
-35.1557
0
LINE
8
BLACK
6
CONTINUOUS
10
105.998
20
-35.1557
11
105.915
21
-35.0309
0
LINE
8
BLACK
6
CONTINUOUS
10
105.915
20
-35.0309
11
105.857
21
-34.8923
0
LINE
8
BLACK
6
CONTINUOUS
10
105.857
20
-34.8923
11
105.828
21
-34.745
0
LINE
8
BLACK
6
CONTINUOUS
10
105.828
20
-34.745
11
105.828
21
-34.5949
0
LINE
8
BLACK
6
CONTINUOUS
10
105.828
20
-34.5949
11
105.857
21
-34.4477
0
LINE
8
BLACK
6
CONTINUOUS
10
105.857
20
-34.4477
11
105.915
21
-34.3091
0
LINE
8
BLACK
6
CONTINUOUS
10
105.915
20
-34.3091
11
105.998
21
-34.1843
0
LINE
8
BLACK
6
CONTINUOUS
10
105.998
20
-34.1843
11
106.104
21
-34.0781
0
LINE
8
BLACK
6
CONTINUOUS
10
106.104
20
-34.0781
11
106.229
21
-33.9947
0
LINE
8
BLACK
6
CONTINUOUS
10
106.229
20
-33.9947
11
106.368
21
-33.9373
0
LINE
8
BLACK
6
CONTINUOUS
10
106.368
20
-33.9373
11
106.515
21
-33.908
0
LINE
8
BLACK
6
CONTINUOUS
10
106.515
20
-33.908
11
106.665
21
-33.908
0
LINE
8
BLACK
6
CONTINUOUS
10
106.665
20
-33.908
11
106.812
21
-33.9373
0
LINE
8
BLACK
6
CONTINUOUS
10
108.111
20
-32.593
11
108.25
21
-32.6505
0
LINE
8
BLACK
6
CONTINUOUS
10
108.25
20
-32.6505
11
108.375
21
-32.7339
0
LINE
8
BLACK
6
CONTINUOUS
10
108.375
20
-32.7339
11
108.481
21
-32.84
0
LINE
8
BLACK
6
CONTINUOUS
10
108.481
20
-32.84
11
108.564
21
-32.9648
0
LINE
8
BLACK
6
CONTINUOUS
10
108.564
20
-32.9648
11
108.622
21
-33.1035
0
LINE
8
BLACK
6
CONTINUOUS
10
108.622
20
-33.1035
11
108.651
21
-33.2507
0
LINE
8
BLACK
6
CONTINUOUS
10
108.651
20
-33.2507
11
108.651
21
-33.4008
0
LINE
8
BLACK
6
CONTINUOUS
10
108.651
20
-33.4008
11
108.622
21
-33.548
0
LINE
8
BLACK
6
CONTINUOUS
10
108.622
20
-33.548
11
108.564
21
-33.6867
0
LINE
8
BLACK
6
CONTINUOUS
10
108.564
20
-33.6867
11
108.481
21
-33.8115
0
LINE
8
BLACK
6
CONTINUOUS
10
108.481
20
-33.8115
11
108.375
21
-33.9176
0
LINE
8
BLACK
6
CONTINUOUS
10
108.375
20
-33.9176
11
108.25
21
-34.001
0
LINE
8
BLACK
6
CONTINUOUS
10
108.25
20
-34.001
11
108.111
21
-34.0585
0
LINE
8
BLACK
6
CONTINUOUS
10
108.111
20
-34.0585
11
107.964
21
-34.0877
0
LINE
8
BLACK
6
CONTINUOUS
10
107.964
20
-34.0877
11
107.814
21
-34.0877
0
LINE
8
BLACK
6
CONTINUOUS
10
107.814
20
-34.0877
11
107.667
21
-34.0585
0
LINE
8
BLACK
6
CONTINUOUS
10
107.667
20
-34.0585
11
107.528
21
-34.001
0
LINE
8
BLACK
6
CONTINUOUS
10
107.528
20
-34.001
11
107.403
21
-33.9176
0
LINE
8
BLACK
6
CONTINUOUS
10
107.403
20
-33.9176
11
107.297
21
-33.8115
0
LINE
8
BLACK
6
CONTINUOUS
10
107.297
20
-33.8115
11
107.214
21
-33.6867
0
LINE
8
BLACK
6
CONTINUOUS
10
107.214
20
-33.6867
11
107.156
21
-33.548
0
LINE
8
BLACK
6
CONTINUOUS
10
107.156
20
-33.548
11
107.127
21
-33.4008
0
LINE
8
BLACK
6
CONTINUOUS
10
107.127
20
-33.4008
11
107.127
21
-33.2507
0
LINE
8
BLACK
6
CONTINUOUS
10
107.127
20
-33.2507
11
107.156
21
-33.1035
0
LINE
8
BLACK
6
CONTINUOUS
10
107.156
20
-33.1035
11
107.214
21
-32.9648
0
LINE
8
BLACK
6
CONTINUOUS
10
107.214
20
-32.9648
11
107.297
21
-32.84
0
LINE
8
BLACK
6
CONTINUOUS
10
107.297
20
-32.84
11
107.403
21
-32.7339
0
LINE
8
BLACK
6
CONTINUOUS
10
107.403
20
-32.7339
11
107.528
21
-32.6505
0
LINE
8
BLACK
6
CONTINUOUS
10
107.528
20
-32.6505
11
107.667
21
-32.593
0
LINE
8
BLACK
6
CONTINUOUS
10
107.667
20
-32.593
11
107.814
21
-32.5637
0
LINE
8
BLACK
6
CONTINUOUS
10
107.814
20
-32.5637
11
107.964
21
-32.5637
0
LINE
8
BLACK
6
CONTINUOUS
10
107.964
20
-32.5637
11
108.111
21
-32.593
0
LINE
8
BLACK
6
CONTINUOUS
10
123.351
20
-32.593
11
123.49
21
-32.6505
0
LINE
8
BLACK
6
CONTINUOUS
10
123.49
20
-32.6505
11
123.615
21
-32.7339
0
LINE
8
BLACK
6
CONTINUOUS
10
123.615
20
-32.7339
11
123.721
21
-32.84
0
LINE
8
BLACK
6
CONTINUOUS
10
123.721
20
-32.84
11
123.804
21
-32.9648
0
LINE
8
BLACK
6
CONTINUOUS
10
123.804
20
-32.9648
11
123.862
21
-33.1035
0
LINE
8
BLACK
6
CONTINUOUS
10
123.862
20
-33.1035
11
123.891
21
-33.2507
0
LINE
8
BLACK
6
CONTINUOUS
10
123.891
20
-33.2507
11
123.891
21
-33.4008
0
LINE
8
BLACK
6
CONTINUOUS
10
123.891
20
-33.4008
11
123.862
21
-33.548
0
LINE
8
BLACK
6
CONTINUOUS
10
123.862
20
-33.548
11
123.804
21
-33.6867
0
LINE
8
BLACK
6
CONTINUOUS
10
123.804
20
-33.6867
11
123.721
21
-33.8115
0
LINE
8
BLACK
6
CONTINUOUS
10
123.721
20
-33.8115
11
123.615
21
-33.9176
0
LINE
8
BLACK
6
CONTINUOUS
10
123.615
20
-33.9176
11
123.49
21
-34.001
0
LINE
8
BLACK
6
CONTINUOUS
10
123.49
20
-34.001
11
123.351
21
-34.0585
0
LINE
8
BLACK
6
CONTINUOUS
10
123.351
20
-34.0585
11
123.204
21
-34.0877
0
LINE
8
BLACK
6
CONTINUOUS
10
123.204
20
-34.0877
11
123.054
21
-34.0877
0
LINE
8
BLACK
6
CONTINUOUS
10
123.054
20
-34.0877
11
122.907
21
-34.0585
0
LINE
8
BLACK
6
CONTINUOUS
10
122.907
20
-34.0585
11
122.768
21
-34.001
0
LINE
8
BLACK
6
CONTINUOUS
10
122.768
20
-34.001
11
122.643
21
-33.9176
0
LINE
8
BLACK
6
CONTINUOUS
10
122.643
20
-33.9176
11
122.537
21
-33.8115
0
LINE
8
BLACK
6
CONTINUOUS
10
122.537
20
-33.8115
11
122.454
21
-33.6867
0
LINE
8
BLACK
6
CONTINUOUS
10
122.454
20
-33.6867
11
122.396
21
-33.548
0
LINE
8
BLACK
6
CONTINUOUS
10
122.396
20
-33.548
11
122.367
21
-33.4008
0
LINE
8
BLACK
6
CONTINUOUS
10
122.367
20
-33.4008
11
122.367
21
-33.2507
0
LINE
8
BLACK
6
CONTINUOUS
10
122.367
20
-33.2507
11
122.396
21
-33.1035
0
LINE
8
BLACK
6
CONTINUOUS
10
122.396
20
-33.1035
11
122.454
21
-32.9648
0
LINE
8
BLACK
6
CONTINUOUS
10
122.454
20
-32.9648
11
122.537
21
-32.84
0
LINE
8
BLACK
6
CONTINUOUS
10
122.537
20
-32.84
11
122.643
21
-32.7339
0
LINE
8
BLACK
6
CONTINUOUS
10
122.643
20
-32.7339
11
122.768
21
-32.6505
0
LINE
8
BLACK
6
CONTINUOUS
10
122.768
20
-32.6505
11
122.907
21
-32.593
0
LINE
8
BLACK
6
CONTINUOUS
10
122.907
20
-32.593
11
123.054
21
-32.5637
0
LINE
8
BLACK
6
CONTINUOUS
10
123.054
20
-32.5637
11
123.204
21
-32.5637
0
LINE
8
BLACK
6
CONTINUOUS
10
123.204
20
-32.5637
11
123.351
21
-32.593
0
LINE
8
BLACK
6
CONTINUOUS
10
122.052
20
-31.3973
11
122.191
21
-31.4547
0
LINE
8
BLACK
6
CONTINUOUS
10
122.191
20
-31.4547
11
122.316
21
-31.5381
0
LINE
8
BLACK
6
CONTINUOUS
10
122.316
20
-31.5381
11
122.422
21
-31.6443
0
LINE
8
BLACK
6
CONTINUOUS
10
122.422
20
-31.6443
11
122.505
21
-31.7691
0
LINE
8
BLACK
6
CONTINUOUS
10
122.505
20
-31.7691
11
122.563
21
-31.9077
0
LINE
8
BLACK
6
CONTINUOUS
10
122.563
20
-31.9077
11
122.592
21
-32.0549
0
LINE
8
BLACK
6
CONTINUOUS
10
122.592
20
-32.0549
11
122.592
21
-32.205
0
LINE
8
BLACK
6
CONTINUOUS
10
122.592
20
-32.205
11
122.563
21
-32.3523
0
LINE
8
BLACK
6
CONTINUOUS
10
122.563
20
-32.3523
11
122.505
21
-32.4909
0
LINE
8
BLACK
6
CONTINUOUS
10
122.505
20
-32.4909
11
122.422
21
-32.6157
0
LINE
8
BLACK
6
CONTINUOUS
10
122.422
20
-32.6157
11
122.316
21
-32.7219
0
LINE
8
BLACK
6
CONTINUOUS
10
122.316
20
-32.7219
11
122.191
21
-32.8053
0
LINE
8
BLACK
6
CONTINUOUS
10
122.191
20
-32.8053
11
122.052
21
-32.8627
0
LINE
8
BLACK
6
CONTINUOUS
10
122.052
20
-32.8627
11
121.905
21
-32.892
0
LINE
8
BLACK
6
CONTINUOUS
10
121.905
20
-32.892
11
121.755
21
-32.892
0
LINE
8
BLACK
6
CONTINUOUS
10
121.755
20
-32.892
11
121.608
21
-32.8627
0
LINE
8
BLACK
6
CONTINUOUS
10
121.608
20
-32.8627
11
121.469
21
-32.8053
0
LINE
8
BLACK
6
CONTINUOUS
10
121.469
20
-32.8053
11
121.344
21
-32.7219
0
LINE
8
BLACK
6
CONTINUOUS
10
121.344
20
-32.7219
11
121.238
21
-32.6157
0
LINE
8
BLACK
6
CONTINUOUS
10
121.238
20
-32.6157
11
121.155
21
-32.4909
0
LINE
8
BLACK
6
CONTINUOUS
10
121.155
20
-32.4909
11
121.097
21
-32.3523
0
LINE
8
BLACK
6
CONTINUOUS
10
121.097
20
-32.3523
11
121.068
21
-32.205
0
LINE
8
BLACK
6
CONTINUOUS
10
121.068
20
-32.205
11
121.068
21
-32.0549
0
LINE
8
BLACK
6
CONTINUOUS
10
121.068
20
-32.0549
11
121.097
21
-31.9077
0
LINE
8
BLACK
6
CONTINUOUS
10
121.097
20
-31.9077
11
121.155
21
-31.7691
0
LINE
8
BLACK
6
CONTINUOUS
10
121.155
20
-31.7691
11
121.238
21
-31.6443
0
LINE
8
BLACK
6
CONTINUOUS
10
121.238
20
-31.6443
11
121.344
21
-31.5381
0
LINE
8
BLACK
6
CONTINUOUS
10
121.344
20
-31.5381
11
121.469
21
-31.4547
0
LINE
8
BLACK
6
CONTINUOUS
10
121.469
20
-31.4547
11
121.608
21
-31.3973
0
LINE
8
BLACK
6
CONTINUOUS
10
121.608
20
-31.3973
11
121.755
21
-31.368
0
LINE
8
BLACK
6
CONTINUOUS
10
121.755
20
-31.368
11
121.905
21
-31.368
0
LINE
8
BLACK
6
CONTINUOUS
10
121.905
20
-31.368
11
122.052
21
-31.3973
0
LINE
8
BLACK
6
CONTINUOUS
10
106.812
20
-31.3973
11
106.951
21
-31.4547
0
LINE
8
BLACK
6
CONTINUOUS
10
106.951
20
-31.4547
11
107.076
21
-31.5381
0
LINE
8
BLACK
6
CONTINUOUS
10
107.076
20
-31.5381
11
107.182
21
-31.6443
0
LINE
8
BLACK
6
CONTINUOUS
10
107.182
20
-31.6443
11
107.265
21
-31.7691
0
LINE
8
BLACK
6
CONTINUOUS
10
107.265
20
-31.7691
11
107.323
21
-31.9077
0
LINE
8
BLACK
6
CONTINUOUS
10
107.323
20
-31.9077
11
107.352
21
-32.0549
0
LINE
8
BLACK
6
CONTINUOUS
10
107.352
20
-32.0549
11
107.352
21
-32.205
0
LINE
8
BLACK
6
CONTINUOUS
10
107.352
20
-32.205
11
107.323
21
-32.3523
0
LINE
8
BLACK
6
CONTINUOUS
10
107.323
20
-32.3523
11
107.265
21
-32.4909
0
LINE
8
BLACK
6
CONTINUOUS
10
107.265
20
-32.4909
11
107.182
21
-32.6157
0
LINE
8
BLACK
6
CONTINUOUS
10
107.182
20
-32.6157
11
107.076
21
-32.7219
0
LINE
8
BLACK
6
CONTINUOUS
10
107.076
20
-32.7219
11
106.951
21
-32.8053
0
LINE
8
BLACK
6
CONTINUOUS
10
106.951
20
-32.8053
11
106.812
21
-32.8627
0
LINE
8
BLACK
6
CONTINUOUS
10
106.812
20
-32.8627
11
106.665
21
-32.892
0
LINE
8
BLACK
6
CONTINUOUS
10
106.665
20
-32.892
11
106.515
21
-32.892
0
LINE
8
BLACK
6
CONTINUOUS
10
106.515
20
-32.892
11
106.368
21
-32.8627
0
LINE
8
BLACK
6
CONTINUOUS
10
106.368
20
-32.8627
11
106.229
21
-32.8053
0
LINE
8
BLACK
6
CONTINUOUS
10
106.229
20
-32.8053
11
106.104
21
-32.7219
0
LINE
8
BLACK
6
CONTINUOUS
10
106.104
20
-32.7219
11
105.998
21
-32.6157
0
LINE
8
BLACK
6
CONTINUOUS
10
105.998
20
-32.6157
11
105.915
21
-32.4909
0
LINE
8
BLACK
6
CONTINUOUS
10
105.915
20
-32.4909
11
105.857
21
-32.3523
0
LINE
8
BLACK
6
CONTINUOUS
10
105.857
20
-32.3523
11
105.828
21
-32.205
0
LINE
8
BLACK
6
CONTINUOUS
10
105.828
20
-32.205
11
105.828
21
-32.0549
0
LINE
8
BLACK
6
CONTINUOUS
10
105.828
20
-32.0549
11
105.857
21
-31.9077
0
LINE
8
BLACK
6
CONTINUOUS
10
105.857
20
-31.9077
11
105.915
21
-31.7691
0
LINE
8
BLACK
6
CONTINUOUS
10
105.915
20
-31.7691
11
105.998
21
-31.6443
0
LINE
8
BLACK
6
CONTINUOUS
10
105.998
20
-31.6443
11
106.104
21
-31.5381
0
LINE
8
BLACK
6
CONTINUOUS
10
106.104
20
-31.5381
11
106.229
21
-31.4547
0
LINE
8
BLACK
6
CONTINUOUS
10
106.229
20
-31.4547
11
106.368
21
-31.3973
0
LINE
8
BLACK
6
CONTINUOUS
10
106.368
20
-31.3973
11
106.515
21
-31.368
0
LINE
8
BLACK
6
CONTINUOUS
10
106.515
20
-31.368
11
106.665
21
-31.368
0
LINE
8
BLACK
6
CONTINUOUS
10
106.665
20
-31.368
11
106.812
21
-31.3973
0
LINE
8
BLACK
6
CONTINUOUS
10
108.111
20
-30.053
11
108.25
21
-30.1105
0
LINE
8
BLACK
6
CONTINUOUS
10
108.25
20
-30.1105
11
108.375
21
-30.1939
0
LINE
8
BLACK
6
CONTINUOUS
10
108.375
20
-30.1939
11
108.481
21
-30.3
0
LINE
8
BLACK
6
CONTINUOUS
10
108.481
20
-30.3
11
108.564
21
-30.4248
0
LINE
8
BLACK
6
CONTINUOUS
10
108.564
20
-30.4248
11
108.622
21
-30.5635
0
LINE
8
BLACK
6
CONTINUOUS
10
108.622
20
-30.5635
11
108.651
21
-30.7107
0
LINE
8
BLACK
6
CONTINUOUS
10
108.651
20
-30.7107
11
108.651
21
-30.8608
0
LINE
8
BLACK
6
CONTINUOUS
10
108.651
20
-30.8608
11
108.622
21
-31.008
0
LINE
8
BLACK
6
CONTINUOUS
10
108.622
20
-31.008
11
108.564
21
-31.1467
0
LINE
8
BLACK
6
CONTINUOUS
10
108.564
20
-31.1467
11
108.481
21
-31.2715
0
LINE
8
BLACK
6
CONTINUOUS
10
108.481
20
-31.2715
11
108.375
21
-31.3776
0
LINE
8
BLACK
6
CONTINUOUS
10
108.375
20
-31.3776
11
108.25
21
-31.461
0
LINE
8
BLACK
6
CONTINUOUS
10
108.25
20
-31.461
11
108.111
21
-31.5185
0
LINE
8
BLACK
6
CONTINUOUS
10
108.111
20
-31.5185
11
107.964
21
-31.5477
0
LINE
8
BLACK
6
CONTINUOUS
10
107.964
20
-31.5477
11
107.814
21
-31.5477
0
LINE
8
BLACK
6
CONTINUOUS
10
107.814
20
-31.5477
11
107.667
21
-31.5185
0
LINE
8
BLACK
6
CONTINUOUS
10
107.667
20
-31.5185
11
107.528
21
-31.461
0
LINE
8
BLACK
6
CONTINUOUS
10
107.528
20
-31.461
11
107.403
21
-31.3776
0
LINE
8
BLACK
6
CONTINUOUS
10
107.403
20
-31.3776
11
107.297
21
-31.2715
0
LINE
8
BLACK
6
CONTINUOUS
10
107.297
20
-31.2715
11
107.214
21
-31.1467
0
LINE
8
BLACK
6
CONTINUOUS
10
107.214
20
-31.1467
11
107.156
21
-31.008
0
LINE
8
BLACK
6
CONTINUOUS
10
107.156
20
-31.008
11
107.127
21
-30.8608
0
LINE
8
BLACK
6
CONTINUOUS
10
107.127
20
-30.8608
11
107.127
21
-30.7107
0
LINE
8
BLACK
6
CONTINUOUS
10
107.127
20
-30.7107
11
107.156
21
-30.5635
0
LINE
8
BLACK
6
CONTINUOUS
10
107.156
20
-30.5635
11
107.214
21
-30.4248
0
LINE
8
BLACK
6
CONTINUOUS
10
107.214
20
-30.4248
11
107.297
21
-30.3
0
LINE
8
BLACK
6
CONTINUOUS
10
107.297
20
-30.3
11
107.403
21
-30.1939
0
LINE
8
BLACK
6
CONTINUOUS
10
107.403
20
-30.1939
11
107.528
21
-30.1105
0
LINE
8
BLACK
6
CONTINUOUS
10
107.528
20
-30.1105
11
107.667
21
-30.053
0
LINE
8
BLACK
6
CONTINUOUS
10
107.667
20
-30.053
11
107.814
21
-30.0237
0
LINE
8
BLACK
6
CONTINUOUS
10
107.814
20
-30.0237
11
107.964
21
-30.0237
0
LINE
8
BLACK
6
CONTINUOUS
10
107.964
20
-30.0237
11
108.111
21
-30.053
0
LINE
8
BLACK
6
CONTINUOUS
10
123.351
20
-30.053
11
123.49
21
-30.1105
0
LINE
8
BLACK
6
CONTINUOUS
10
123.49
20
-30.1105
11
123.615
21
-30.1939
0
LINE
8
BLACK
6
CONTINUOUS
10
123.615
20
-30.1939
11
123.721
21
-30.3
0
LINE
8
BLACK
6
CONTINUOUS
10
123.721
20
-30.3
11
123.804
21
-30.4248
0
LINE
8
BLACK
6
CONTINUOUS
10
123.804
20
-30.4248
11
123.862
21
-30.5635
0
LINE
8
BLACK
6
CONTINUOUS
10
123.862
20
-30.5635
11
123.891
21
-30.7107
0
LINE
8
BLACK
6
CONTINUOUS
10
123.891
20
-30.7107
11
123.891
21
-30.8608
0
LINE
8
BLACK
6
CONTINUOUS
10
123.891
20
-30.8608
11
123.862
21
-31.008
0
LINE
8
BLACK
6
CONTINUOUS
10
123.862
20
-31.008
11
123.804
21
-31.1467
0
LINE
8
BLACK
6
CONTINUOUS
10
123.804
20
-31.1467
11
123.721
21
-31.2715
0
LINE
8
BLACK
6
CONTINUOUS
10
123.721
20
-31.2715
11
123.615
21
-31.3776
0
LINE
8
BLACK
6
CONTINUOUS
10
123.615
20
-31.3776
11
123.49
21
-31.461
0
LINE
8
BLACK
6
CONTINUOUS
10
123.49
20
-31.461
11
123.351
21
-31.5185
0
LINE
8
BLACK
6
CONTINUOUS
10
123.351
20
-31.5185
11
123.204
21
-31.5477
0
LINE
8
BLACK
6
CONTINUOUS
10
123.204
20
-31.5477
11
123.054
21
-31.5477
0
LINE
8
BLACK
6
CONTINUOUS
10
123.054
20
-31.5477
11
122.907
21
-31.5185
0
LINE
8
BLACK
6
CONTINUOUS
10
122.907
20
-31.5185
11
122.768
21
-31.461
0
LINE
8
BLACK
6
CONTINUOUS
10
122.768
20
-31.461
11
122.643
21
-31.3776
0
LINE
8
BLACK
6
CONTINUOUS
10
122.643
20
-31.3776
11
122.537
21
-31.2715
0
LINE
8
BLACK
6
CONTINUOUS
10
122.537
20
-31.2715
11
122.454
21
-31.1467
0
LINE
8
BLACK
6
CONTINUOUS
10
122.454
20
-31.1467
11
122.396
21
-31.008
0
LINE
8
BLACK
6
CONTINUOUS
10
122.396
20
-31.008
11
122.367
21
-30.8608
0
LINE
8
BLACK
6
CONTINUOUS
10
122.367
20
-30.8608
11
122.367
21
-30.7107
0
LINE
8
BLACK
6
CONTINUOUS
10
122.367
20
-30.7107
11
122.396
21
-30.5635
0
LINE
8
BLACK
6
CONTINUOUS
10
122.396
20
-30.5635
11
122.454
21
-30.4248
0
LINE
8
BLACK
6
CONTINUOUS
10
122.454
20
-30.4248
11
122.537
21
-30.3
0
LINE
8
BLACK
6
CONTINUOUS
10
122.537
20
-30.3
11
122.643
21
-30.1939
0
LINE
8
BLACK
6
CONTINUOUS
10
122.643
20
-30.1939
11
122.768
21
-30.1105
0
LINE
8
BLACK
6
CONTINUOUS
10
122.768
20
-30.1105
11
122.907
21
-30.053
0
LINE
8
BLACK
6
CONTINUOUS
10
122.907
20
-30.053
11
123.054
21
-30.0237
0
LINE
8
BLACK
6
CONTINUOUS
10
123.054
20
-30.0237
11
123.204
21
-30.0237
0
LINE
8
BLACK
6
CONTINUOUS
10
123.204
20
-30.0237
11
123.351
21
-30.053
0
LINE
8
BLACK
6
CONTINUOUS
10
122.052
20
-28.8573
11
122.191
21
-28.9147
0
LINE
8
BLACK
6
CONTINUOUS
10
122.191
20
-28.9147
11
122.316
21
-28.9981
0
LINE
8
BLACK
6
CONTINUOUS
10
122.316
20
-28.9981
11
122.422
21
-29.1043
0
LINE
8
BLACK
6
CONTINUOUS
10
122.422
20
-29.1043
11
122.505
21
-29.2291
0
LINE
8
BLACK
6
CONTINUOUS
10
122.505
20
-29.2291
11
122.563
21
-29.3677
0
LINE
8
BLACK
6
CONTINUOUS
10
122.563
20
-29.3677
11
122.592
21
-29.5149
0
LINE
8
BLACK
6
CONTINUOUS
10
122.592
20
-29.5149
11
122.592
21
-29.665
0
LINE
8
BLACK
6
CONTINUOUS
10
122.592
20
-29.665
11
122.563
21
-29.8123
0
LINE
8
BLACK
6
CONTINUOUS
10
122.563
20
-29.8123
11
122.505
21
-29.9509
0
LINE
8
BLACK
6
CONTINUOUS
10
122.505
20
-29.9509
11
122.422
21
-30.0757
0
LINE
8
BLACK
6
CONTINUOUS
10
122.422
20
-30.0757
11
122.316
21
-30.1819
0
LINE
8
BLACK
6
CONTINUOUS
10
122.316
20
-30.1819
11
122.191
21
-30.2653
0
LINE
8
BLACK
6
CONTINUOUS
10
122.191
20
-30.2653
11
122.052
21
-30.3227
0
LINE
8
BLACK
6
CONTINUOUS
10
122.052
20
-30.3227
11
121.905
21
-30.352
0
LINE
8
BLACK
6
CONTINUOUS
10
121.905
20
-30.352
11
121.755
21
-30.352
0
LINE
8
BLACK
6
CONTINUOUS
10
121.755
20
-30.352
11
121.608
21
-30.3227
0
LINE
8
BLACK
6
CONTINUOUS
10
121.608
20
-30.3227
11
121.469
21
-30.2653
0
LINE
8
BLACK
6
CONTINUOUS
10
121.469
20
-30.2653
11
121.344
21
-30.1819
0
LINE
8
BLACK
6
CONTINUOUS
10
121.344
20
-30.1819
11
121.238
21
-30.0757
0
LINE
8
BLACK
6
CONTINUOUS
10
121.238
20
-30.0757
11
121.155
21
-29.9509
0
LINE
8
BLACK
6
CONTINUOUS
10
121.155
20
-29.9509
11
121.097
21
-29.8123
0
LINE
8
BLACK
6
CONTINUOUS
10
121.097
20
-29.8123
11
121.068
21
-29.665
0
LINE
8
BLACK
6
CONTINUOUS
10
121.068
20
-29.665
11
121.068
21
-29.5149
0
LINE
8
BLACK
6
CONTINUOUS
10
121.068
20
-29.5149
11
121.097
21
-29.3677
0
LINE
8
BLACK
6
CONTINUOUS
10
121.097
20
-29.3677
11
121.155
21
-29.2291
0
LINE
8
BLACK
6
CONTINUOUS
10
121.155
20
-29.2291
11
121.238
21
-29.1043
0
LINE
8
BLACK
6
CONTINUOUS
10
121.238
20
-29.1043
11
121.344
21
-28.9981
0
LINE
8
BLACK
6
CONTINUOUS
10
121.344
20
-28.9981
11
121.469
21
-28.9147
0
LINE
8
BLACK
6
CONTINUOUS
10
121.469
20
-28.9147
11
121.608
21
-28.8573
0
LINE
8
BLACK
6
CONTINUOUS
10
121.608
20
-28.8573
11
121.755
21
-28.828
0
LINE
8
BLACK
6
CONTINUOUS
10
121.755
20
-28.828
11
121.905
21
-28.828
0
LINE
8
BLACK
6
CONTINUOUS
10
121.905
20
-28.828
11
122.052
21
-28.8573
0
LINE
8
BLACK
6
CONTINUOUS
10
106.812
20
-28.8573
11
106.951
21
-28.9147
0
LINE
8
BLACK
6
CONTINUOUS
10
106.951
20
-28.9147
11
107.076
21
-28.9981
0
LINE
8
BLACK
6
CONTINUOUS
10
107.076
20
-28.9981
11
107.182
21
-29.1043
0
LINE
8
BLACK
6
CONTINUOUS
10
107.182
20
-29.1043
11
107.265
21
-29.2291
0
LINE
8
BLACK
6
CONTINUOUS
10
107.265
20
-29.2291
11
107.323
21
-29.3677
0
LINE
8
BLACK
6
CONTINUOUS
10
107.323
20
-29.3677
11
107.352
21
-29.5149
0
LINE
8
BLACK
6
CONTINUOUS
10
107.352
20
-29.5149
11
107.352
21
-29.665
0
LINE
8
BLACK
6
CONTINUOUS
10
107.352
20
-29.665
11
107.323
21
-29.8123
0
LINE
8
BLACK
6
CONTINUOUS
10
107.323
20
-29.8123
11
107.265
21
-29.9509
0
LINE
8
BLACK
6
CONTINUOUS
10
107.265
20
-29.9509
11
107.182
21
-30.0757
0
LINE
8
BLACK
6
CONTINUOUS
10
107.182
20
-30.0757
11
107.076
21
-30.1819
0
LINE
8
BLACK
6
CONTINUOUS
10
107.076
20
-30.1819
11
106.951
21
-30.2653
0
LINE
8
BLACK
6
CONTINUOUS
10
106.951
20
-30.2653
11
106.812
21
-30.3227
0
LINE
8
BLACK
6
CONTINUOUS
10
106.812
20
-30.3227
11
106.665
21
-30.352
0
LINE
8
BLACK
6
CONTINUOUS
10
106.665
20
-30.352
11
106.515
21
-30.352
0
LINE
8
BLACK
6
CONTINUOUS
10
106.515
20
-30.352
11
106.368
21
-30.3227
0
LINE
8
BLACK
6
CONTINUOUS
10
106.368
20
-30.3227
11
106.229
21
-30.2653
0
LINE
8
BLACK
6
CONTINUOUS
10
106.229
20
-30.2653
11
106.104
21
-30.1819
0
LINE
8
BLACK
6
CONTINUOUS
10
106.104
20
-30.1819
11
105.998
21
-30.0757
0
LINE
8
BLACK
6
CONTINUOUS
10
105.998
20
-30.0757
11
105.915
21
-29.9509
0
LINE
8
BLACK
6
CONTINUOUS
10
105.915
20
-29.9509
11
105.857
21
-29.8123
0
LINE
8
BLACK
6
CONTINUOUS
10
105.857
20
-29.8123
11
105.828
21
-29.665
0
LINE
8
BLACK
6
CONTINUOUS
10
105.828
20
-29.665
11
105.828
21
-29.5149
0
LINE
8
BLACK
6
CONTINUOUS
10
105.828
20
-29.5149
11
105.857
21
-29.3677
0
LINE
8
BLACK
6
CONTINUOUS
10
105.857
20
-29.3677
11
105.915
21
-29.2291
0
LINE
8
BLACK
6
CONTINUOUS
10
105.915
20
-29.2291
11
105.998
21
-29.1043
0
LINE
8
BLACK
6
CONTINUOUS
10
105.998
20
-29.1043
11
106.104
21
-28.9981
0
LINE
8
BLACK
6
CONTINUOUS
10
106.104
20
-28.9981
11
106.229
21
-28.9147
0
LINE
8
BLACK
6
CONTINUOUS
10
106.229
20
-28.9147
11
106.368
21
-28.8573
0
LINE
8
BLACK
6
CONTINUOUS
10
106.368
20
-28.8573
11
106.515
21
-28.828
0
LINE
8
BLACK
6
CONTINUOUS
10
106.515
20
-28.828
11
106.665
21
-28.828
0
LINE
8
BLACK
6
CONTINUOUS
10
106.665
20
-28.828
11
106.812
21
-28.8573
0
LINE
8
BLACK
6
CONTINUOUS
10
123.351
20
-27.513
11
123.49
21
-27.5705
0
LINE
8
BLACK
6
CONTINUOUS
10
123.49
20
-27.5705
11
123.615
21
-27.6539
0
LINE
8
BLACK
6
CONTINUOUS
10
123.615
20
-27.6539
11
123.721
21
-27.76
0
LINE
8
BLACK
6
CONTINUOUS
10
123.721
20
-27.76
11
123.804
21
-27.8848
0
LINE
8
BLACK
6
CONTINUOUS
10
123.804
20
-27.8848
11
123.862
21
-28.0235
0
LINE
8
BLACK
6
CONTINUOUS
10
123.862
20
-28.0235
11
123.891
21
-28.1707
0
LINE
8
BLACK
6
CONTINUOUS
10
123.891
20
-28.1707
11
123.891
21
-28.3208
0
LINE
8
BLACK
6
CONTINUOUS
10
123.891
20
-28.3208
11
123.862
21
-28.468
0
LINE
8
BLACK
6
CONTINUOUS
10
123.862
20
-28.468
11
123.804
21
-28.6067
0
LINE
8
BLACK
6
CONTINUOUS
10
123.804
20
-28.6067
11
123.721
21
-28.7315
0
LINE
8
BLACK
6
CONTINUOUS
10
123.721
20
-28.7315
11
123.615
21
-28.8376
0
LINE
8
BLACK
6
CONTINUOUS
10
123.615
20
-28.8376
11
123.49
21
-28.921
0
LINE
8
BLACK
6
CONTINUOUS
10
123.49
20
-28.921
11
123.351
21
-28.9785
0
LINE
8
BLACK
6
CONTINUOUS
10
123.351
20
-28.9785
11
123.204
21
-29.0077
0
LINE
8
BLACK
6
CONTINUOUS
10
123.204
20
-29.0077
11
123.054
21
-29.0077
0
LINE
8
BLACK
6
CONTINUOUS
10
123.054
20
-29.0077
11
122.907
21
-28.9785
0
LINE
8
BLACK
6
CONTINUOUS
10
122.907
20
-28.9785
11
122.768
21
-28.921
0
LINE
8
BLACK
6
CONTINUOUS
10
122.768
20
-28.921
11
122.643
21
-28.8376
0
LINE
8
BLACK
6
CONTINUOUS
10
122.643
20
-28.8376
11
122.537
21
-28.7315
0
LINE
8
BLACK
6
CONTINUOUS
10
122.537
20
-28.7315
11
122.454
21
-28.6067
0
LINE
8
BLACK
6
CONTINUOUS
10
122.454
20
-28.6067
11
122.396
21
-28.468
0
LINE
8
BLACK
6
CONTINUOUS
10
122.396
20
-28.468
11
122.367
21
-28.3208
0
LINE
8
BLACK
6
CONTINUOUS
10
122.367
20
-28.3208
11
122.367
21
-28.1707
0
LINE
8
BLACK
6
CONTINUOUS
10
122.367
20
-28.1707
11
122.396
21
-28.0235
0
LINE
8
BLACK
6
CONTINUOUS
10
122.396
20
-28.0235
11
122.454
21
-27.8848
0
LINE
8
BLACK
6
CONTINUOUS
10
122.454
20
-27.8848
11
122.537
21
-27.76
0
LINE
8
BLACK
6
CONTINUOUS
10
122.537
20
-27.76
11
122.643
21
-27.6539
0
LINE
8
BLACK
6
CONTINUOUS
10
122.643
20
-27.6539
11
122.768
21
-27.5705
0
LINE
8
BLACK
6
CONTINUOUS
10
122.768
20
-27.5705
11
122.907
21
-27.513
0
LINE
8
BLACK
6
CONTINUOUS
10
122.907
20
-27.513
11
123.054
21
-27.4837
0
LINE
8
BLACK
6
CONTINUOUS
10
123.054
20
-27.4837
11
123.204
21
-27.4837
0
LINE
8
BLACK
6
CONTINUOUS
10
123.204
20
-27.4837
11
123.351
21
-27.513
0
LINE
8
BLACK
6
CONTINUOUS
10
108.111
20
-27.513
11
108.25
21
-27.5705
0
LINE
8
BLACK
6
CONTINUOUS
10
108.25
20
-27.5705
11
108.375
21
-27.6539
0
LINE
8
BLACK
6
CONTINUOUS
10
108.375
20
-27.6539
11
108.481
21
-27.76
0
LINE
8
BLACK
6
CONTINUOUS
10
108.481
20
-27.76
11
108.564
21
-27.8848
0
LINE
8
BLACK
6
CONTINUOUS
10
108.564
20
-27.8848
11
108.622
21
-28.0235
0
LINE
8
BLACK
6
CONTINUOUS
10
108.622
20
-28.0235
11
108.651
21
-28.1707
0
LINE
8
BLACK
6
CONTINUOUS
10
108.651
20
-28.1707
11
108.651
21
-28.3208
0
LINE
8
BLACK
6
CONTINUOUS
10
108.651
20
-28.3208
11
108.622
21
-28.468
0
LINE
8
BLACK
6
CONTINUOUS
10
108.622
20
-28.468
11
108.564
21
-28.6067
0
LINE
8
BLACK
6
CONTINUOUS
10
108.564
20
-28.6067
11
108.481
21
-28.7315
0
LINE
8
BLACK
6
CONTINUOUS
10
108.481
20
-28.7315
11
108.375
21
-28.8376
0
LINE
8
BLACK
6
CONTINUOUS
10
108.375
20
-28.8376
11
108.25
21
-28.921
0
LINE
8
BLACK
6
CONTINUOUS
10
108.25
20
-28.921
11
108.111
21
-28.9785
0
LINE
8
BLACK
6
CONTINUOUS
10
108.111
20
-28.9785
11
107.964
21
-29.0077
0
LINE
8
BLACK
6
CONTINUOUS
10
107.964
20
-29.0077
11
107.814
21
-29.0077
0
LINE
8
BLACK
6
CONTINUOUS
10
107.814
20
-29.0077
11
107.667
21
-28.9785
0
LINE
8
BLACK
6
CONTINUOUS
10
107.667
20
-28.9785
11
107.528
21
-28.921
0
LINE
8
BLACK
6
CONTINUOUS
10
107.528
20
-28.921
11
107.403
21
-28.8376
0
LINE
8
BLACK
6
CONTINUOUS
10
107.403
20
-28.8376
11
107.297
21
-28.7315
0
LINE
8
BLACK
6
CONTINUOUS
10
107.297
20
-28.7315
11
107.214
21
-28.6067
0
LINE
8
BLACK
6
CONTINUOUS
10
107.214
20
-28.6067
11
107.156
21
-28.468
0
LINE
8
BLACK
6
CONTINUOUS
10
107.156
20
-28.468
11
107.127
21
-28.3208
0
LINE
8
BLACK
6
CONTINUOUS
10
107.127
20
-28.3208
11
107.127
21
-28.1707
0
LINE
8
BLACK
6
CONTINUOUS
10
107.127
20
-28.1707
11
107.156
21
-28.0235
0
LINE
8
BLACK
6
CONTINUOUS
10
107.156
20
-28.0235
11
107.214
21
-27.8848
0
LINE
8
BLACK
6
CONTINUOUS
10
107.214
20
-27.8848
11
107.297
21
-27.76
0
LINE
8
BLACK
6
CONTINUOUS
10
107.297
20
-27.76
11
107.403
21
-27.6539
0
LINE
8
BLACK
6
CONTINUOUS
10
107.403
20
-27.6539
11
107.528
21
-27.5705
0
LINE
8
BLACK
6
CONTINUOUS
10
107.528
20
-27.5705
11
107.667
21
-27.513
0
LINE
8
BLACK
6
CONTINUOUS
10
107.667
20
-27.513
11
107.814
21
-27.4837
0
LINE
8
BLACK
6
CONTINUOUS
10
107.814
20
-27.4837
11
107.964
21
-27.4837
0
LINE
8
BLACK
6
CONTINUOUS
10
107.964
20
-27.4837
11
108.111
21
-27.513
0
LINE
8
BLACK
6
CONTINUOUS
10
122.052
20
-26.3173
11
122.191
21
-26.3747
0
LINE
8
BLACK
6
CONTINUOUS
10
122.191
20
-26.3747
11
122.316
21
-26.4581
0
LINE
8
BLACK
6
CONTINUOUS
10
122.316
20
-26.4581
11
122.422
21
-26.5643
0
LINE
8
BLACK
6
CONTINUOUS
10
122.422
20
-26.5643
11
122.505
21
-26.6891
0
LINE
8
BLACK
6
CONTINUOUS
10
122.505
20
-26.6891
11
122.563
21
-26.8277
0
LINE
8
BLACK
6
CONTINUOUS
10
122.563
20
-26.8277
11
122.592
21
-26.9749
0
LINE
8
BLACK
6
CONTINUOUS
10
122.592
20
-26.9749
11
122.592
21
-27.125
0
LINE
8
BLACK
6
CONTINUOUS
10
122.592
20
-27.125
11
122.563
21
-27.2723
0
LINE
8
BLACK
6
CONTINUOUS
10
122.563
20
-27.2723
11
122.505
21
-27.4109
0
LINE
8
BLACK
6
CONTINUOUS
10
122.505
20
-27.4109
11
122.422
21
-27.5357
0
LINE
8
BLACK
6
CONTINUOUS
10
122.422
20
-27.5357
11
122.316
21
-27.6419
0
LINE
8
BLACK
6
CONTINUOUS
10
122.316
20
-27.6419
11
122.191
21
-27.7253
0
LINE
8
BLACK
6
CONTINUOUS
10
122.191
20
-27.7253
11
122.052
21
-27.7827
0
LINE
8
BLACK
6
CONTINUOUS
10
122.052
20
-27.7827
11
121.905
21
-27.812
0
LINE
8
BLACK
6
CONTINUOUS
10
121.905
20
-27.812
11
121.755
21
-27.812
0
LINE
8
BLACK
6
CONTINUOUS
10
121.755
20
-27.812
11
121.608
21
-27.7827
0
LINE
8
BLACK
6
CONTINUOUS
10
121.608
20
-27.7827
11
121.469
21
-27.7253
0
LINE
8
BLACK
6
CONTINUOUS
10
121.469
20
-27.7253
11
121.344
21
-27.6419
0
LINE
8
BLACK
6
CONTINUOUS
10
121.344
20
-27.6419
11
121.238
21
-27.5357
0
LINE
8
BLACK
6
CONTINUOUS
10
121.238
20
-27.5357
11
121.155
21
-27.4109
0
LINE
8
BLACK
6
CONTINUOUS
10
121.155
20
-27.4109
11
121.097
21
-27.2723
0
LINE
8
BLACK
6
CONTINUOUS
10
121.097
20
-27.2723
11
121.068
21
-27.125
0
LINE
8
BLACK
6
CONTINUOUS
10
121.068
20
-27.125
11
121.068
21
-26.9749
0
LINE
8
BLACK
6
CONTINUOUS
10
121.068
20
-26.9749
11
121.097
21
-26.8277
0
LINE
8
BLACK
6
CONTINUOUS
10
121.097
20
-26.8277
11
121.155
21
-26.6891
0
LINE
8
BLACK
6
CONTINUOUS
10
121.155
20
-26.6891
11
121.238
21
-26.5643
0
LINE
8
BLACK
6
CONTINUOUS
10
121.238
20
-26.5643
11
121.344
21
-26.4581
0
LINE
8
BLACK
6
CONTINUOUS
10
121.344
20
-26.4581
11
121.469
21
-26.3747
0
LINE
8
BLACK
6
CONTINUOUS
10
121.469
20
-26.3747
11
121.608
21
-26.3173
0
LINE
8
BLACK
6
CONTINUOUS
10
121.608
20
-26.3173
11
121.755
21
-26.288
0
LINE
8
BLACK
6
CONTINUOUS
10
121.755
20
-26.288
11
121.905
21
-26.288
0
LINE
8
BLACK
6
CONTINUOUS
10
121.905
20
-26.288
11
122.052
21
-26.3173
0
LINE
8
BLACK
6
CONTINUOUS
10
106.812
20
-26.3173
11
106.951
21
-26.3747
0
LINE
8
BLACK
6
CONTINUOUS
10
106.951
20
-26.3747
11
107.076
21
-26.4581
0
LINE
8
BLACK
6
CONTINUOUS
10
107.076
20
-26.4581
11
107.182
21
-26.5643
0
LINE
8
BLACK
6
CONTINUOUS
10
107.182
20
-26.5643
11
107.265
21
-26.6891
0
LINE
8
BLACK
6
CONTINUOUS
10
107.265
20
-26.6891
11
107.323
21
-26.8277
0
LINE
8
BLACK
6
CONTINUOUS
10
107.323
20
-26.8277
11
107.352
21
-26.9749
0
LINE
8
BLACK
6
CONTINUOUS
10
107.352
20
-26.9749
11
107.352
21
-27.125
0
LINE
8
BLACK
6
CONTINUOUS
10
107.352
20
-27.125
11
107.323
21
-27.2723
0
LINE
8
BLACK
6
CONTINUOUS
10
107.323
20
-27.2723
11
107.265
21
-27.4109
0
LINE
8
BLACK
6
CONTINUOUS
10
107.265
20
-27.4109
11
107.182
21
-27.5357
0
LINE
8
BLACK
6
CONTINUOUS
10
107.182
20
-27.5357
11
107.076
21
-27.6419
0
LINE
8
BLACK
6
CONTINUOUS
10
107.076
20
-27.6419
11
106.951
21
-27.7253
0
LINE
8
BLACK
6
CONTINUOUS
10
106.951
20
-27.7253
11
106.812
21
-27.7827
0
LINE
8
BLACK
6
CONTINUOUS
10
106.812
20
-27.7827
11
106.665
21
-27.812
0
LINE
8
BLACK
6
CONTINUOUS
10
106.665
20
-27.812
11
106.515
21
-27.812
0
LINE
8
BLACK
6
CONTINUOUS
10
106.515
20
-27.812
11
106.368
21
-27.7827
0
LINE
8
BLACK
6
CONTINUOUS
10
106.368
20
-27.7827
11
106.229
21
-27.7253
0
LINE
8
BLACK
6
CONTINUOUS
10
106.229
20
-27.7253
11
106.104
21
-27.6419
0
LINE
8
BLACK
6
CONTINUOUS
10
106.104
20
-27.6419
11
105.998
21
-27.5357
0
LINE
8
BLACK
6
CONTINUOUS
10
105.998
20
-27.5357
11
105.915
21
-27.4109
0
LINE
8
BLACK
6
CONTINUOUS
10
105.915
20
-27.4109
11
105.857
21
-27.2723
0
LINE
8
BLACK
6
CONTINUOUS
10
105.857
20
-27.2723
11
105.828
21
-27.125
0
LINE
8
BLACK
6
CONTINUOUS
10
105.828
20
-27.125
11
105.828
21
-26.9749
0
LINE
8
BLACK
6
CONTINUOUS
10
105.828
20
-26.9749
11
105.857
21
-26.8277
0
LINE
8
BLACK
6
CONTINUOUS
10
105.857
20
-26.8277
11
105.915
21
-26.6891
0
LINE
8
BLACK
6
CONTINUOUS
10
105.915
20
-26.6891
11
105.998
21
-26.5643
0
LINE
8
BLACK
6
CONTINUOUS
10
105.998
20
-26.5643
11
106.104
21
-26.4581
0
LINE
8
BLACK
6
CONTINUOUS
10
106.104
20
-26.4581
11
106.229
21
-26.3747
0
LINE
8
BLACK
6
CONTINUOUS
10
106.229
20
-26.3747
11
106.368
21
-26.3173
0
LINE
8
BLACK
6
CONTINUOUS
10
106.368
20
-26.3173
11
106.515
21
-26.288
0
LINE
8
BLACK
6
CONTINUOUS
10
106.515
20
-26.288
11
106.665
21
-26.288
0
LINE
8
BLACK
6
CONTINUOUS
10
106.665
20
-26.288
11
106.812
21
-26.3173
0
LINE
8
BLACK
6
CONTINUOUS
10
108.111
20
-24.973
11
108.25
21
-25.0305
0
LINE
8
BLACK
6
CONTINUOUS
10
108.25
20
-25.0305
11
108.375
21
-25.1139
0
LINE
8
BLACK
6
CONTINUOUS
10
108.375
20
-25.1139
11
108.481
21
-25.22
0
LINE
8
BLACK
6
CONTINUOUS
10
108.481
20
-25.22
11
108.564
21
-25.3448
0
LINE
8
BLACK
6
CONTINUOUS
10
108.564
20
-25.3448
11
108.622
21
-25.4835
0
LINE
8
BLACK
6
CONTINUOUS
10
108.622
20
-25.4835
11
108.651
21
-25.6307
0
LINE
8
BLACK
6
CONTINUOUS
10
108.651
20
-25.6307
11
108.651
21
-25.7808
0
LINE
8
BLACK
6
CONTINUOUS
10
108.651
20
-25.7808
11
108.622
21
-25.928
0
LINE
8
BLACK
6
CONTINUOUS
10
108.622
20
-25.928
11
108.564
21
-26.0667
0
LINE
8
BLACK
6
CONTINUOUS
10
108.564
20
-26.0667
11
108.481
21
-26.1915
0
LINE
8
BLACK
6
CONTINUOUS
10
108.481
20
-26.1915
11
108.375
21
-26.2976
0
LINE
8
BLACK
6
CONTINUOUS
10
108.375
20
-26.2976
11
108.25
21
-26.381
0
LINE
8
BLACK
6
CONTINUOUS
10
108.25
20
-26.381
11
108.111
21
-26.4385
0
LINE
8
BLACK
6
CONTINUOUS
10
108.111
20
-26.4385
11
107.964
21
-26.4677
0
LINE
8
BLACK
6
CONTINUOUS
10
107.964
20
-26.4677
11
107.814
21
-26.4677
0
LINE
8
BLACK
6
CONTINUOUS
10
107.814
20
-26.4677
11
107.667
21
-26.4385
0
LINE
8
BLACK
6
CONTINUOUS
10
107.667
20
-26.4385
11
107.528
21
-26.381
0
LINE
8
BLACK
6
CONTINUOUS
10
107.528
20
-26.381
11
107.403
21
-26.2976
0
LINE
8
BLACK
6
CONTINUOUS
10
107.403
20
-26.2976
11
107.297
21
-26.1915
0
LINE
8
BLACK
6
CONTINUOUS
10
107.297
20
-26.1915
11
107.214
21
-26.0667
0
LINE
8
BLACK
6
CONTINUOUS
10
107.214
20
-26.0667
11
107.156
21
-25.928
0
LINE
8
BLACK
6
CONTINUOUS
10
107.156
20
-25.928
11
107.127
21
-25.7808
0
LINE
8
BLACK
6
CONTINUOUS
10
107.127
20
-25.7808
11
107.127
21
-25.6307
0
LINE
8
BLACK
6
CONTINUOUS
10
107.127
20
-25.6307
11
107.156
21
-25.4835
0
LINE
8
BLACK
6
CONTINUOUS
10
107.156
20
-25.4835
11
107.214
21
-25.3448
0
LINE
8
BLACK
6
CONTINUOUS
10
107.214
20
-25.3448
11
107.297
21
-25.22
0
LINE
8
BLACK
6
CONTINUOUS
10
107.297
20
-25.22
11
107.403
21
-25.1139
0
LINE
8
BLACK
6
CONTINUOUS
10
107.403
20
-25.1139
11
107.528
21
-25.0305
0
LINE
8
BLACK
6
CONTINUOUS
10
107.528
20
-25.0305
11
107.667
21
-24.973
0
LINE
8
BLACK
6
CONTINUOUS
10
107.667
20
-24.973
11
107.814
21
-24.9437
0
LINE
8
BLACK
6
CONTINUOUS
10
107.814
20
-24.9437
11
107.964
21
-24.9437
0
LINE
8
BLACK
6
CONTINUOUS
10
107.964
20
-24.9437
11
108.111
21
-24.973
0
LINE
8
BLACK
6
CONTINUOUS
10
123.351
20
-24.973
11
123.49
21
-25.0305
0
LINE
8
BLACK
6
CONTINUOUS
10
123.49
20
-25.0305
11
123.615
21
-25.1139
0
LINE
8
BLACK
6
CONTINUOUS
10
123.615
20
-25.1139
11
123.721
21
-25.22
0
LINE
8
BLACK
6
CONTINUOUS
10
123.721
20
-25.22
11
123.804
21
-25.3448
0
LINE
8
BLACK
6
CONTINUOUS
10
123.804
20
-25.3448
11
123.862
21
-25.4835
0
LINE
8
BLACK
6
CONTINUOUS
10
123.862
20
-25.4835
11
123.891
21
-25.6307
0
LINE
8
BLACK
6
CONTINUOUS
10
123.891
20
-25.6307
11
123.891
21
-25.7808
0
LINE
8
BLACK
6
CONTINUOUS
10
123.891
20
-25.7808
11
123.862
21
-25.928
0
LINE
8
BLACK
6
CONTINUOUS
10
123.862
20
-25.928
11
123.804
21
-26.0667
0
LINE
8
BLACK
6
CONTINUOUS
10
123.804
20
-26.0667
11
123.721
21
-26.1915
0
LINE
8
BLACK
6
CONTINUOUS
10
123.721
20
-26.1915
11
123.615
21
-26.2976
0
LINE
8
BLACK
6
CONTINUOUS
10
123.615
20
-26.2976
11
123.49
21
-26.381
0
LINE
8
BLACK
6
CONTINUOUS
10
123.49
20
-26.381
11
123.351
21
-26.4385
0
LINE
8
BLACK
6
CONTINUOUS
10
123.351
20
-26.4385
11
123.204
21
-26.4677
0
LINE
8
BLACK
6
CONTINUOUS
10
123.204
20
-26.4677
11
123.054
21
-26.4677
0
LINE
8
BLACK
6
CONTINUOUS
10
123.054
20
-26.4677
11
122.907
21
-26.4385
0
LINE
8
BLACK
6
CONTINUOUS
10
122.907
20
-26.4385
11
122.768
21
-26.381
0
LINE
8
BLACK
6
CONTINUOUS
10
122.768
20
-26.381
11
122.643
21
-26.2976
0
LINE
8
BLACK
6
CONTINUOUS
10
122.643
20
-26.2976
11
122.537
21
-26.1915
0
LINE
8
BLACK
6
CONTINUOUS
10
122.537
20
-26.1915
11
122.454
21
-26.0667
0
LINE
8
BLACK
6
CONTINUOUS
10
122.454
20
-26.0667
11
122.396
21
-25.928
0
LINE
8
BLACK
6
CONTINUOUS
10
122.396
20
-25.928
11
122.367
21
-25.7808
0
LINE
8
BLACK
6
CONTINUOUS
10
122.367
20
-25.7808
11
122.367
21
-25.6307
0
LINE
8
BLACK
6
CONTINUOUS
10
122.367
20
-25.6307
11
122.396
21
-25.4835
0
LINE
8
BLACK
6
CONTINUOUS
10
122.396
20
-25.4835
11
122.454
21
-25.3448
0
LINE
8
BLACK
6
CONTINUOUS
10
122.454
20
-25.3448
11
122.537
21
-25.22
0
LINE
8
BLACK
6
CONTINUOUS
10
122.537
20
-25.22
11
122.643
21
-25.1139
0
LINE
8
BLACK
6
CONTINUOUS
10
122.643
20
-25.1139
11
122.768
21
-25.0305
0
LINE
8
BLACK
6
CONTINUOUS
10
122.768
20
-25.0305
11
122.907
21
-24.973
0
LINE
8
BLACK
6
CONTINUOUS
10
122.907
20
-24.973
11
123.054
21
-24.9437
0
LINE
8
BLACK
6
CONTINUOUS
10
123.054
20
-24.9437
11
123.204
21
-24.9437
0
LINE
8
BLACK
6
CONTINUOUS
10
123.204
20
-24.9437
11
123.351
21
-24.973
0
LINE
8
BLACK
6
CONTINUOUS
10
122.052
20
-23.7773
11
122.191
21
-23.8347
0
LINE
8
BLACK
6
CONTINUOUS
10
122.191
20
-23.8347
11
122.316
21
-23.9181
0
LINE
8
BLACK
6
CONTINUOUS
10
122.316
20
-23.9181
11
122.422
21
-24.0243
0
LINE
8
BLACK
6
CONTINUOUS
10
122.422
20
-24.0243
11
122.505
21
-24.1491
0
LINE
8
BLACK
6
CONTINUOUS
10
122.505
20
-24.1491
11
122.563
21
-24.2877
0
LINE
8
BLACK
6
CONTINUOUS
10
122.563
20
-24.2877
11
122.592
21
-24.435
0
LINE
8
BLACK
6
CONTINUOUS
10
122.592
20
-24.435
11
122.592
21
-24.585
0
LINE
8
BLACK
6
CONTINUOUS
10
122.592
20
-24.585
11
122.563
21
-24.7323
0
LINE
8
BLACK
6
CONTINUOUS
10
122.563
20
-24.7323
11
122.505
21
-24.8709
0
LINE
8
BLACK
6
CONTINUOUS
10
122.505
20
-24.8709
11
122.422
21
-24.9957
0
LINE
8
BLACK
6
CONTINUOUS
10
122.422
20
-24.9957
11
122.316
21
-25.1019
0
LINE
8
BLACK
6
CONTINUOUS
10
122.316
20
-25.1019
11
122.191
21
-25.1853
0
LINE
8
BLACK
6
CONTINUOUS
10
122.191
20
-25.1853
11
122.052
21
-25.2427
0
LINE
8
BLACK
6
CONTINUOUS
10
122.052
20
-25.2427
11
121.905
21
-25.272
0
LINE
8
BLACK
6
CONTINUOUS
10
121.905
20
-25.272
11
121.755
21
-25.272
0
LINE
8
BLACK
6
CONTINUOUS
10
121.755
20
-25.272
11
121.608
21
-25.2427
0
LINE
8
BLACK
6
CONTINUOUS
10
121.608
20
-25.2427
11
121.469
21
-25.1853
0
LINE
8
BLACK
6
CONTINUOUS
10
121.469
20
-25.1853
11
121.344
21
-25.1019
0
LINE
8
BLACK
6
CONTINUOUS
10
121.344
20
-25.1019
11
121.238
21
-24.9957
0
LINE
8
BLACK
6
CONTINUOUS
10
121.238
20
-24.9957
11
121.155
21
-24.8709
0
LINE
8
BLACK
6
CONTINUOUS
10
121.155
20
-24.8709
11
121.097
21
-24.7323
0
LINE
8
BLACK
6
CONTINUOUS
10
121.097
20
-24.7323
11
121.068
21
-24.585
0
LINE
8
BLACK
6
CONTINUOUS
10
121.068
20
-24.585
11
121.068
21
-24.435
0
LINE
8
BLACK
6
CONTINUOUS
10
121.068
20
-24.435
11
121.097
21
-24.2877
0
LINE
8
BLACK
6
CONTINUOUS
10
121.097
20
-24.2877
11
121.155
21
-24.1491
0
LINE
8
BLACK
6
CONTINUOUS
10
121.155
20
-24.1491
11
121.238
21
-24.0243
0
LINE
8
BLACK
6
CONTINUOUS
10
121.238
20
-24.0243
11
121.344
21
-23.9181
0
LINE
8
BLACK
6
CONTINUOUS
10
121.344
20
-23.9181
11
121.469
21
-23.8347
0
LINE
8
BLACK
6
CONTINUOUS
10
121.469
20
-23.8347
11
121.608
21
-23.7773
0
LINE
8
BLACK
6
CONTINUOUS
10
121.608
20
-23.7773
11
121.755
21
-23.748
0
LINE
8
BLACK
6
CONTINUOUS
10
121.755
20
-23.748
11
121.905
21
-23.748
0
LINE
8
BLACK
6
CONTINUOUS
10
121.905
20
-23.748
11
122.052
21
-23.7773
0
LINE
8
BLACK
6
CONTINUOUS
10
106.812
20
-23.7773
11
106.951
21
-23.8347
0
LINE
8
BLACK
6
CONTINUOUS
10
106.951
20
-23.8347
11
107.076
21
-23.9181
0
LINE
8
BLACK
6
CONTINUOUS
10
107.076
20
-23.9181
11
107.182
21
-24.0243
0
LINE
8
BLACK
6
CONTINUOUS
10
107.182
20
-24.0243
11
107.265
21
-24.1491
0
LINE
8
BLACK
6
CONTINUOUS
10
107.265
20
-24.1491
11
107.323
21
-24.2877
0
LINE
8
BLACK
6
CONTINUOUS
10
107.323
20
-24.2877
11
107.352
21
-24.435
0
LINE
8
BLACK
6
CONTINUOUS
10
107.352
20
-24.435
11
107.352
21
-24.585
0
LINE
8
BLACK
6
CONTINUOUS
10
107.352
20
-24.585
11
107.323
21
-24.7323
0
LINE
8
BLACK
6
CONTINUOUS
10
107.323
20
-24.7323
11
107.265
21
-24.8709
0
LINE
8
BLACK
6
CONTINUOUS
10
107.265
20
-24.8709
11
107.182
21
-24.9957
0
LINE
8
BLACK
6
CONTINUOUS
10
107.182
20
-24.9957
11
107.076
21
-25.1019
0
LINE
8
BLACK
6
CONTINUOUS
10
107.076
20
-25.1019
11
106.951
21
-25.1853
0
LINE
8
BLACK
6
CONTINUOUS
10
106.951
20
-25.1853
11
106.812
21
-25.2427
0
LINE
8
BLACK
6
CONTINUOUS
10
106.812
20
-25.2427
11
106.665
21
-25.272
0
LINE
8
BLACK
6
CONTINUOUS
10
106.665
20
-25.272
11
106.515
21
-25.272
0
LINE
8
BLACK
6
CONTINUOUS
10
106.515
20
-25.272
11
106.368
21
-25.2427
0
LINE
8
BLACK
6
CONTINUOUS
10
106.368
20
-25.2427
11
106.229
21
-25.1853
0
LINE
8
BLACK
6
CONTINUOUS
10
106.229
20
-25.1853
11
106.104
21
-25.1019
0
LINE
8
BLACK
6
CONTINUOUS
10
106.104
20
-25.1019
11
105.998
21
-24.9957
0
LINE
8
BLACK
6
CONTINUOUS
10
105.998
20
-24.9957
11
105.915
21
-24.8709
0
LINE
8
BLACK
6
CONTINUOUS
10
105.915
20
-24.8709
11
105.857
21
-24.7323
0
LINE
8
BLACK
6
CONTINUOUS
10
105.857
20
-24.7323
11
105.828
21
-24.585
0
LINE
8
BLACK
6
CONTINUOUS
10
105.828
20
-24.585
11
105.828
21
-24.435
0
LINE
8
BLACK
6
CONTINUOUS
10
105.828
20
-24.435
11
105.857
21
-24.2877
0
LINE
8
BLACK
6
CONTINUOUS
10
105.857
20
-24.2877
11
105.915
21
-24.1491
0
LINE
8
BLACK
6
CONTINUOUS
10
105.915
20
-24.1491
11
105.998
21
-24.0243
0
LINE
8
BLACK
6
CONTINUOUS
10
105.998
20
-24.0243
11
106.104
21
-23.9181
0
LINE
8
BLACK
6
CONTINUOUS
10
106.104
20
-23.9181
11
106.229
21
-23.8347
0
LINE
8
BLACK
6
CONTINUOUS
10
106.229
20
-23.8347
11
106.368
21
-23.7773
0
LINE
8
BLACK
6
CONTINUOUS
10
106.368
20
-23.7773
11
106.515
21
-23.748
0
LINE
8
BLACK
6
CONTINUOUS
10
106.515
20
-23.748
11
106.665
21
-23.748
0
LINE
8
BLACK
6
CONTINUOUS
10
106.665
20
-23.748
11
106.812
21
-23.7773
0
LINE
8
BLACK
6
CONTINUOUS
10
108.111
20
-22.433
11
108.25
21
-22.4905
0
LINE
8
BLACK
6
CONTINUOUS
10
108.25
20
-22.4905
11
108.375
21
-22.5739
0
LINE
8
BLACK
6
CONTINUOUS
10
108.375
20
-22.5739
11
108.481
21
-22.68
0
LINE
8
BLACK
6
CONTINUOUS
10
108.481
20
-22.68
11
108.564
21
-22.8048
0
LINE
8
BLACK
6
CONTINUOUS
10
108.564
20
-22.8048
11
108.622
21
-22.9435
0
LINE
8
BLACK
6
CONTINUOUS
10
108.622
20
-22.9435
11
108.651
21
-23.0907
0
LINE
8
BLACK
6
CONTINUOUS
10
108.651
20
-23.0907
11
108.651
21
-23.2408
0
LINE
8
BLACK
6
CONTINUOUS
10
108.651
20
-23.2408
11
108.622
21
-23.388
0
LINE
8
BLACK
6
CONTINUOUS
10
108.622
20
-23.388
11
108.564
21
-23.5267
0
LINE
8
BLACK
6
CONTINUOUS
10
108.564
20
-23.5267
11
108.481
21
-23.6515
0
LINE
8
BLACK
6
CONTINUOUS
10
108.481
20
-23.6515
11
108.375
21
-23.7576
0
LINE
8
BLACK
6
CONTINUOUS
10
108.375
20
-23.7576
11
108.25
21
-23.841
0
LINE
8
BLACK
6
CONTINUOUS
10
108.25
20
-23.841
11
108.111
21
-23.8985
0
LINE
8
BLACK
6
CONTINUOUS
10
108.111
20
-23.8985
11
107.964
21
-23.9277
0
LINE
8
BLACK
6
CONTINUOUS
10
107.964
20
-23.9277
11
107.814
21
-23.9277
0
LINE
8
BLACK
6
CONTINUOUS
10
107.814
20
-23.9277
11
107.667
21
-23.8985
0
LINE
8
BLACK
6
CONTINUOUS
10
107.667
20
-23.8985
11
107.528
21
-23.841
0
LINE
8
BLACK
6
CONTINUOUS
10
107.528
20
-23.841
11
107.403
21
-23.7576
0
LINE
8
BLACK
6
CONTINUOUS
10
107.403
20
-23.7576
11
107.297
21
-23.6515
0
LINE
8
BLACK
6
CONTINUOUS
10
107.297
20
-23.6515
11
107.214
21
-23.5267
0
LINE
8
BLACK
6
CONTINUOUS
10
107.214
20
-23.5267
11
107.156
21
-23.388
0
LINE
8
BLACK
6
CONTINUOUS
10
107.156
20
-23.388
11
107.127
21
-23.2408
0
LINE
8
BLACK
6
CONTINUOUS
10
107.127
20
-23.2408
11
107.127
21
-23.0907
0
LINE
8
BLACK
6
CONTINUOUS
10
107.127
20
-23.0907
11
107.156
21
-22.9435
0
LINE
8
BLACK
6
CONTINUOUS
10
107.156
20
-22.9435
11
107.214
21
-22.8048
0
LINE
8
BLACK
6
CONTINUOUS
10
107.214
20
-22.8048
11
107.297
21
-22.68
0
LINE
8
BLACK
6
CONTINUOUS
10
107.297
20
-22.68
11
107.403
21
-22.5739
0
LINE
8
BLACK
6
CONTINUOUS
10
107.403
20
-22.5739
11
107.528
21
-22.4905
0
LINE
8
BLACK
6
CONTINUOUS
10
107.528
20
-22.4905
11
107.667
21
-22.433
0
LINE
8
BLACK
6
CONTINUOUS
10
107.667
20
-22.433
11
107.814
21
-22.4037
0
LINE
8
BLACK
6
CONTINUOUS
10
107.814
20
-22.4037
11
107.964
21
-22.4037
0
LINE
8
BLACK
6
CONTINUOUS
10
107.964
20
-22.4037
11
108.111
21
-22.433
0
LINE
8
BLACK
6
CONTINUOUS
10
123.351
20
-22.433
11
123.49
21
-22.4905
0
LINE
8
BLACK
6
CONTINUOUS
10
123.49
20
-22.4905
11
123.615
21
-22.5739
0
LINE
8
BLACK
6
CONTINUOUS
10
123.615
20
-22.5739
11
123.721
21
-22.68
0
LINE
8
BLACK
6
CONTINUOUS
10
123.721
20
-22.68
11
123.804
21
-22.8048
0
LINE
8
BLACK
6
CONTINUOUS
10
123.804
20
-22.8048
11
123.862
21
-22.9435
0
LINE
8
BLACK
6
CONTINUOUS
10
123.862
20
-22.9435
11
123.891
21
-23.0907
0
LINE
8
BLACK
6
CONTINUOUS
10
123.891
20
-23.0907
11
123.891
21
-23.2408
0
LINE
8
BLACK
6
CONTINUOUS
10
123.891
20
-23.2408
11
123.862
21
-23.388
0
LINE
8
BLACK
6
CONTINUOUS
10
123.862
20
-23.388
11
123.804
21
-23.5267
0
LINE
8
BLACK
6
CONTINUOUS
10
123.804
20
-23.5267
11
123.721
21
-23.6515
0
LINE
8
BLACK
6
CONTINUOUS
10
123.721
20
-23.6515
11
123.615
21
-23.7576
0
LINE
8
BLACK
6
CONTINUOUS
10
123.615
20
-23.7576
11
123.49
21
-23.841
0
LINE
8
BLACK
6
CONTINUOUS
10
123.49
20
-23.841
11
123.351
21
-23.8985
0
LINE
8
BLACK
6
CONTINUOUS
10
123.351
20
-23.8985
11
123.204
21
-23.9277
0
LINE
8
BLACK
6
CONTINUOUS
10
123.204
20
-23.9277
11
123.054
21
-23.9277
0
LINE
8
BLACK
6
CONTINUOUS
10
123.054
20
-23.9277
11
122.907
21
-23.8985
0
LINE
8
BLACK
6
CONTINUOUS
10
122.907
20
-23.8985
11
122.768
21
-23.841
0
LINE
8
BLACK
6
CONTINUOUS
10
122.768
20
-23.841
11
122.643
21
-23.7576
0
LINE
8
BLACK
6
CONTINUOUS
10
122.643
20
-23.7576
11
122.537
21
-23.6515
0
LINE
8
BLACK
6
CONTINUOUS
10
122.537
20
-23.6515
11
122.454
21
-23.5267
0
LINE
8
BLACK
6
CONTINUOUS
10
122.454
20
-23.5267
11
122.396
21
-23.388
0
LINE
8
BLACK
6
CONTINUOUS
10
122.396
20
-23.388
11
122.367
21
-23.2408
0
LINE
8
BLACK
6
CONTINUOUS
10
122.367
20
-23.2408
11
122.367
21
-23.0907
0
LINE
8
BLACK
6
CONTINUOUS
10
122.367
20
-23.0907
11
122.396
21
-22.9435
0
LINE
8
BLACK
6
CONTINUOUS
10
122.396
20
-22.9435
11
122.454
21
-22.8048
0
LINE
8
BLACK
6
CONTINUOUS
10
122.454
20
-22.8048
11
122.537
21
-22.68
0
LINE
8
BLACK
6
CONTINUOUS
10
122.537
20
-22.68
11
122.643
21
-22.5739
0
LINE
8
BLACK
6
CONTINUOUS
10
122.643
20
-22.5739
11
122.768
21
-22.4905
0
LINE
8
BLACK
6
CONTINUOUS
10
122.768
20
-22.4905
11
122.907
21
-22.433
0
LINE
8
BLACK
6
CONTINUOUS
10
122.907
20
-22.433
11
123.054
21
-22.4037
0
LINE
8
BLACK
6
CONTINUOUS
10
123.054
20
-22.4037
11
123.204
21
-22.4037
0
LINE
8
BLACK
6
CONTINUOUS
10
123.204
20
-22.4037
11
123.351
21
-22.433
0
LINE
8
BLACK
6
CONTINUOUS
10
122.052
20
-21.2373
11
122.191
21
-21.2947
0
LINE
8
BLACK
6
CONTINUOUS
10
122.191
20
-21.2947
11
122.316
21
-21.3781
0
LINE
8
BLACK
6
CONTINUOUS
10
122.316
20
-21.3781
11
122.422
21
-21.4843
0
LINE
8
BLACK
6
CONTINUOUS
10
122.422
20
-21.4843
11
122.505
21
-21.6091
0
LINE
8
BLACK
6
CONTINUOUS
10
122.505
20
-21.6091
11
122.563
21
-21.7477
0
LINE
8
BLACK
6
CONTINUOUS
10
122.563
20
-21.7477
11
122.592
21
-21.8949
0
LINE
8
BLACK
6
CONTINUOUS
10
122.592
20
-21.8949
11
122.592
21
-22.045
0
LINE
8
BLACK
6
CONTINUOUS
10
122.592
20
-22.045
11
122.563
21
-22.1923
0
LINE
8
BLACK
6
CONTINUOUS
10
122.563
20
-22.1923
11
122.505
21
-22.3309
0
LINE
8
BLACK
6
CONTINUOUS
10
122.505
20
-22.3309
11
122.422
21
-22.4557
0
LINE
8
BLACK
6
CONTINUOUS
10
122.422
20
-22.4557
11
122.316
21
-22.5619
0
LINE
8
BLACK
6
CONTINUOUS
10
122.316
20
-22.5619
11
122.191
21
-22.6453
0
LINE
8
BLACK
6
CONTINUOUS
10
122.191
20
-22.6453
11
122.052
21
-22.7027
0
LINE
8
BLACK
6
CONTINUOUS
10
122.052
20
-22.7027
11
121.905
21
-22.732
0
LINE
8
BLACK
6
CONTINUOUS
10
121.905
20
-22.732
11
121.755
21
-22.732
0
LINE
8
BLACK
6
CONTINUOUS
10
121.755
20
-22.732
11
121.608
21
-22.7027
0
LINE
8
BLACK
6
CONTINUOUS
10
121.608
20
-22.7027
11
121.469
21
-22.6453
0
LINE
8
BLACK
6
CONTINUOUS
10
121.469
20
-22.6453
11
121.344
21
-22.5619
0
LINE
8
BLACK
6
CONTINUOUS
10
121.344
20
-22.5619
11
121.238
21
-22.4557
0
LINE
8
BLACK
6
CONTINUOUS
10
121.238
20
-22.4557
11
121.155
21
-22.3309
0
LINE
8
BLACK
6
CONTINUOUS
10
121.155
20
-22.3309
11
121.097
21
-22.1923
0
LINE
8
BLACK
6
CONTINUOUS
10
121.097
20
-22.1923
11
121.068
21
-22.045
0
LINE
8
BLACK
6
CONTINUOUS
10
121.068
20
-22.045
11
121.068
21
-21.8949
0
LINE
8
BLACK
6
CONTINUOUS
10
121.068
20
-21.8949
11
121.097
21
-21.7477
0
LINE
8
BLACK
6
CONTINUOUS
10
121.097
20
-21.7477
11
121.155
21
-21.6091
0
LINE
8
BLACK
6
CONTINUOUS
10
121.155
20
-21.6091
11
121.238
21
-21.4843
0
LINE
8
BLACK
6
CONTINUOUS
10
121.238
20
-21.4843
11
121.344
21
-21.3781
0
LINE
8
BLACK
6
CONTINUOUS
10
121.344
20
-21.3781
11
121.469
21
-21.2947
0
LINE
8
BLACK
6
CONTINUOUS
10
121.469
20
-21.2947
11
121.608
21
-21.2373
0
LINE
8
BLACK
6
CONTINUOUS
10
121.608
20
-21.2373
11
121.755
21
-21.208
0
LINE
8
BLACK
6
CONTINUOUS
10
121.755
20
-21.208
11
121.905
21
-21.208
0
LINE
8
BLACK
6
CONTINUOUS
10
121.905
20
-21.208
11
122.052
21
-21.2373
0
LINE
8
BLACK
6
CONTINUOUS
10
106.812
20
-21.2373
11
106.951
21
-21.2947
0
LINE
8
BLACK
6
CONTINUOUS
10
106.951
20
-21.2947
11
107.076
21
-21.3781
0
LINE
8
BLACK
6
CONTINUOUS
10
107.076
20
-21.3781
11
107.182
21
-21.4843
0
LINE
8
BLACK
6
CONTINUOUS
10
107.182
20
-21.4843
11
107.265
21
-21.6091
0
LINE
8
BLACK
6
CONTINUOUS
10
107.265
20
-21.6091
11
107.323
21
-21.7477
0
LINE
8
BLACK
6
CONTINUOUS
10
107.323
20
-21.7477
11
107.352
21
-21.8949
0
LINE
8
BLACK
6
CONTINUOUS
10
107.352
20
-21.8949
11
107.352
21
-22.045
0
LINE
8
BLACK
6
CONTINUOUS
10
107.352
20
-22.045
11
107.323
21
-22.1923
0
LINE
8
BLACK
6
CONTINUOUS
10
107.323
20
-22.1923
11
107.265
21
-22.3309
0
LINE
8
BLACK
6
CONTINUOUS
10
107.265
20
-22.3309
11
107.182
21
-22.4557
0
LINE
8
BLACK
6
CONTINUOUS
10
107.182
20
-22.4557
11
107.076
21
-22.5619
0
LINE
8
BLACK
6
CONTINUOUS
10
107.076
20
-22.5619
11
106.951
21
-22.6453
0
LINE
8
BLACK
6
CONTINUOUS
10
106.951
20
-22.6453
11
106.812
21
-22.7027
0
LINE
8
BLACK
6
CONTINUOUS
10
106.812
20
-22.7027
11
106.665
21
-22.732
0
LINE
8
BLACK
6
CONTINUOUS
10
106.665
20
-22.732
11
106.515
21
-22.732
0
LINE
8
BLACK
6
CONTINUOUS
10
106.515
20
-22.732
11
106.368
21
-22.7027
0
LINE
8
BLACK
6
CONTINUOUS
10
106.368
20
-22.7027
11
106.229
21
-22.6453
0
LINE
8
BLACK
6
CONTINUOUS
10
106.229
20
-22.6453
11
106.104
21
-22.5619
0
LINE
8
BLACK
6
CONTINUOUS
10
106.104
20
-22.5619
11
105.998
21
-22.4557
0
LINE
8
BLACK
6
CONTINUOUS
10
105.998
20
-22.4557
11
105.915
21
-22.3309
0
LINE
8
BLACK
6
CONTINUOUS
10
105.915
20
-22.3309
11
105.857
21
-22.1923
0
LINE
8
BLACK
6
CONTINUOUS
10
105.857
20
-22.1923
11
105.828
21
-22.045
0
LINE
8
BLACK
6
CONTINUOUS
10
105.828
20
-22.045
11
105.828
21
-21.8949
0
LINE
8
BLACK
6
CONTINUOUS
10
105.828
20
-21.8949
11
105.857
21
-21.7477
0
LINE
8
BLACK
6
CONTINUOUS
10
105.857
20
-21.7477
11
105.915
21
-21.6091
0
LINE
8
BLACK
6
CONTINUOUS
10
105.915
20
-21.6091
11
105.998
21
-21.4843
0
LINE
8
BLACK
6
CONTINUOUS
10
105.998
20
-21.4843
11
106.104
21
-21.3781
0
LINE
8
BLACK
6
CONTINUOUS
10
106.104
20
-21.3781
11
106.229
21
-21.2947
0
LINE
8
BLACK
6
CONTINUOUS
10
106.229
20
-21.2947
11
106.368
21
-21.2373
0
LINE
8
BLACK
6
CONTINUOUS
10
106.368
20
-21.2373
11
106.515
21
-21.208
0
LINE
8
BLACK
6
CONTINUOUS
10
106.515
20
-21.208
11
106.665
21
-21.208
0
LINE
8
BLACK
6
CONTINUOUS
10
106.665
20
-21.208
11
106.812
21
-21.2373
0
LINE
8
BLACK
6
CONTINUOUS
10
123.351
20
-19.893
11
123.49
21
-19.9505
0
LINE
8
BLACK
6
CONTINUOUS
10
123.49
20
-19.9505
11
123.615
21
-20.0339
0
LINE
8
BLACK
6
CONTINUOUS
10
123.615
20
-20.0339
11
123.721
21
-20.14
0
LINE
8
BLACK
6
CONTINUOUS
10
123.721
20
-20.14
11
123.804
21
-20.2648
0
LINE
8
BLACK
6
CONTINUOUS
10
123.804
20
-20.2648
11
123.862
21
-20.4035
0
LINE
8
BLACK
6
CONTINUOUS
10
123.862
20
-20.4035
11
123.891
21
-20.5507
0
LINE
8
BLACK
6
CONTINUOUS
10
123.891
20
-20.5507
11
123.891
21
-20.7008
0
LINE
8
BLACK
6
CONTINUOUS
10
123.891
20
-20.7008
11
123.862
21
-20.848
0
LINE
8
BLACK
6
CONTINUOUS
10
123.862
20
-20.848
11
123.804
21
-20.9867
0
LINE
8
BLACK
6
CONTINUOUS
10
123.804
20
-20.9867
11
123.721
21
-21.1115
0
LINE
8
BLACK
6
CONTINUOUS
10
123.721
20
-21.1115
11
123.615
21
-21.2176
0
LINE
8
BLACK
6
CONTINUOUS
10
123.615
20
-21.2176
11
123.49
21
-21.301
0
LINE
8
BLACK
6
CONTINUOUS
10
123.49
20
-21.301
11
123.351
21
-21.3585
0
LINE
8
BLACK
6
CONTINUOUS
10
123.351
20
-21.3585
11
123.204
21
-21.3877
0
LINE
8
BLACK
6
CONTINUOUS
10
123.204
20
-21.3877
11
123.054
21
-21.3877
0
LINE
8
BLACK
6
CONTINUOUS
10
123.054
20
-21.3877
11
122.907
21
-21.3585
0
LINE
8
BLACK
6
CONTINUOUS
10
122.907
20
-21.3585
11
122.768
21
-21.301
0
LINE
8
BLACK
6
CONTINUOUS
10
122.768
20
-21.301
11
122.643
21
-21.2176
0
LINE
8
BLACK
6
CONTINUOUS
10
122.643
20
-21.2176
11
122.537
21
-21.1115
0
LINE
8
BLACK
6
CONTINUOUS
10
122.537
20
-21.1115
11
122.454
21
-20.9867
0
LINE
8
BLACK
6
CONTINUOUS
10
122.454
20
-20.9867
11
122.396
21
-20.848
0
LINE
8
BLACK
6
CONTINUOUS
10
122.396
20
-20.848
11
122.367
21
-20.7008
0
LINE
8
BLACK
6
CONTINUOUS
10
122.367
20
-20.7008
11
122.367
21
-20.5507
0
LINE
8
BLACK
6
CONTINUOUS
10
122.367
20
-20.5507
11
122.396
21
-20.4035
0
LINE
8
BLACK
6
CONTINUOUS
10
122.396
20
-20.4035
11
122.454
21
-20.2648
0
LINE
8
BLACK
6
CONTINUOUS
10
122.454
20
-20.2648
11
122.537
21
-20.14
0
LINE
8
BLACK
6
CONTINUOUS
10
122.537
20
-20.14
11
122.643
21
-20.0339
0
LINE
8
BLACK
6
CONTINUOUS
10
122.643
20
-20.0339
11
122.768
21
-19.9505
0
LINE
8
BLACK
6
CONTINUOUS
10
122.768
20
-19.9505
11
122.907
21
-19.893
0
LINE
8
BLACK
6
CONTINUOUS
10
122.907
20
-19.893
11
123.054
21
-19.8637
0
LINE
8
BLACK
6
CONTINUOUS
10
123.054
20
-19.8637
11
123.204
21
-19.8637
0
LINE
8
BLACK
6
CONTINUOUS
10
123.204
20
-19.8637
11
123.351
21
-19.893
0
LINE
8
BLACK
6
CONTINUOUS
10
108.111
20
-19.893
11
108.25
21
-19.9505
0
LINE
8
BLACK
6
CONTINUOUS
10
108.25
20
-19.9505
11
108.375
21
-20.0339
0
LINE
8
BLACK
6
CONTINUOUS
10
108.375
20
-20.0339
11
108.481
21
-20.14
0
LINE
8
BLACK
6
CONTINUOUS
10
108.481
20
-20.14
11
108.564
21
-20.2648
0
LINE
8
BLACK
6
CONTINUOUS
10
108.564
20
-20.2648
11
108.622
21
-20.4035
0
LINE
8
BLACK
6
CONTINUOUS
10
108.622
20
-20.4035
11
108.651
21
-20.5507
0
LINE
8
BLACK
6
CONTINUOUS
10
108.651
20
-20.5507
11
108.651
21
-20.7008
0
LINE
8
BLACK
6
CONTINUOUS
10
108.651
20
-20.7008
11
108.622
21
-20.848
0
LINE
8
BLACK
6
CONTINUOUS
10
108.622
20
-20.848
11
108.564
21
-20.9867
0
LINE
8
BLACK
6
CONTINUOUS
10
108.564
20
-20.9867
11
108.481
21
-21.1115
0
LINE
8
BLACK
6
CONTINUOUS
10
108.481
20
-21.1115
11
108.375
21
-21.2176
0
LINE
8
BLACK
6
CONTINUOUS
10
108.375
20
-21.2176
11
108.25
21
-21.301
0
LINE
8
BLACK
6
CONTINUOUS
10
108.25
20
-21.301
11
108.111
21
-21.3585
0
LINE
8
BLACK
6
CONTINUOUS
10
108.111
20
-21.3585
11
107.964
21
-21.3877
0
LINE
8
BLACK
6
CONTINUOUS
10
107.964
20
-21.3877
11
107.814
21
-21.3877
0
LINE
8
BLACK
6
CONTINUOUS
10
107.814
20
-21.3877
11
107.667
21
-21.3585
0
LINE
8
BLACK
6
CONTINUOUS
10
107.667
20
-21.3585
11
107.528
21
-21.301
0
LINE
8
BLACK
6
CONTINUOUS
10
107.528
20
-21.301
11
107.403
21
-21.2176
0
LINE
8
BLACK
6
CONTINUOUS
10
107.403
20
-21.2176
11
107.297
21
-21.1115
0
LINE
8
BLACK
6
CONTINUOUS
10
107.297
20
-21.1115
11
107.214
21
-20.9867
0
LINE
8
BLACK
6
CONTINUOUS
10
107.214
20
-20.9867
11
107.156
21
-20.848
0
LINE
8
BLACK
6
CONTINUOUS
10
107.156
20
-20.848
11
107.127
21
-20.7008
0
LINE
8
BLACK
6
CONTINUOUS
10
107.127
20
-20.7008
11
107.127
21
-20.5507
0
LINE
8
BLACK
6
CONTINUOUS
10
107.127
20
-20.5507
11
107.156
21
-20.4035
0
LINE
8
BLACK
6
CONTINUOUS
10
107.156
20
-20.4035
11
107.214
21
-20.2648
0
LINE
8
BLACK
6
CONTINUOUS
10
107.214
20
-20.2648
11
107.297
21
-20.14
0
LINE
8
BLACK
6
CONTINUOUS
10
107.297
20
-20.14
11
107.403
21
-20.0339
0
LINE
8
BLACK
6
CONTINUOUS
10
107.403
20
-20.0339
11
107.528
21
-19.9505
0
LINE
8
BLACK
6
CONTINUOUS
10
107.528
20
-19.9505
11
107.667
21
-19.893
0
LINE
8
BLACK
6
CONTINUOUS
10
107.667
20
-19.893
11
107.814
21
-19.8637
0
LINE
8
BLACK
6
CONTINUOUS
10
107.814
20
-19.8637
11
107.964
21
-19.8637
0
LINE
8
BLACK
6
CONTINUOUS
10
107.964
20
-19.8637
11
108.111
21
-19.893
0
LINE
8
BLACK
6
CONTINUOUS
10
106.812
20
-18.6973
11
106.951
21
-18.7547
0
LINE
8
BLACK
6
CONTINUOUS
10
106.951
20
-18.7547
11
107.076
21
-18.8381
0
LINE
8
BLACK
6
CONTINUOUS
10
107.076
20
-18.8381
11
107.182
21
-18.9443
0
LINE
8
BLACK
6
CONTINUOUS
10
107.182
20
-18.9443
11
107.265
21
-19.0691
0
LINE
8
BLACK
6
CONTINUOUS
10
107.265
20
-19.0691
11
107.323
21
-19.2077
0
LINE
8
BLACK
6
CONTINUOUS
10
107.323
20
-19.2077
11
107.352
21
-19.3549
0
LINE
8
BLACK
6
CONTINUOUS
10
107.352
20
-19.3549
11
107.352
21
-19.5051
0
LINE
8
BLACK
6
CONTINUOUS
10
107.352
20
-19.5051
11
107.323
21
-19.6523
0
LINE
8
BLACK
6
CONTINUOUS
10
107.323
20
-19.6523
11
107.265
21
-19.7909
0
LINE
8
BLACK
6
CONTINUOUS
10
107.265
20
-19.7909
11
107.182
21
-19.9157
0
LINE
8
BLACK
6
CONTINUOUS
10
107.182
20
-19.9157
11
107.076
21
-20.0219
0
LINE
8
BLACK
6
CONTINUOUS
10
107.076
20
-20.0219
11
106.951
21
-20.1053
0
LINE
8
BLACK
6
CONTINUOUS
10
106.951
20
-20.1053
11
106.812
21
-20.1627
0
LINE
8
BLACK
6
CONTINUOUS
10
106.812
20
-20.1627
11
106.665
21
-20.192
0
LINE
8
BLACK
6
CONTINUOUS
10
106.665
20
-20.192
11
106.515
21
-20.192
0
LINE
8
BLACK
6
CONTINUOUS
10
106.515
20
-20.192
11
106.368
21
-20.1627
0
LINE
8
BLACK
6
CONTINUOUS
10
106.368
20
-20.1627
11
106.229
21
-20.1053
0
LINE
8
BLACK
6
CONTINUOUS
10
106.229
20
-20.1053
11
106.104
21
-20.0219
0
LINE
8
BLACK
6
CONTINUOUS
10
106.104
20
-20.0219
11
105.998
21
-19.9157
0
LINE
8
BLACK
6
CONTINUOUS
10
105.998
20
-19.9157
11
105.915
21
-19.7909
0
LINE
8
BLACK
6
CONTINUOUS
10
105.915
20
-19.7909
11
105.857
21
-19.6523
0
LINE
8
BLACK
6
CONTINUOUS
10
105.857
20
-19.6523
11
105.828
21
-19.5051
0
LINE
8
BLACK
6
CONTINUOUS
10
105.828
20
-19.5051
11
105.828
21
-19.3549
0
LINE
8
BLACK
6
CONTINUOUS
10
105.828
20
-19.3549
11
105.857
21
-19.2077
0
LINE
8
BLACK
6
CONTINUOUS
10
105.857
20
-19.2077
11
105.915
21
-19.0691
0
LINE
8
BLACK
6
CONTINUOUS
10
105.915
20
-19.0691
11
105.998
21
-18.9443
0
LINE
8
BLACK
6
CONTINUOUS
10
105.998
20
-18.9443
11
106.104
21
-18.8381
0
LINE
8
BLACK
6
CONTINUOUS
10
106.104
20
-18.8381
11
106.229
21
-18.7547
0
LINE
8
BLACK
6
CONTINUOUS
10
106.229
20
-18.7547
11
106.368
21
-18.6973
0
LINE
8
BLACK
6
CONTINUOUS
10
106.368
20
-18.6973
11
106.515
21
-18.668
0
LINE
8
BLACK
6
CONTINUOUS
10
106.515
20
-18.668
11
106.665
21
-18.668
0
LINE
8
BLACK
6
CONTINUOUS
10
106.665
20
-18.668
11
106.812
21
-18.6973
0
LINE
8
BLACK
6
CONTINUOUS
10
122.052
20
-18.6973
11
122.191
21
-18.7547
0
LINE
8
BLACK
6
CONTINUOUS
10
122.191
20
-18.7547
11
122.316
21
-18.8381
0
LINE
8
BLACK
6
CONTINUOUS
10
122.316
20
-18.8381
11
122.422
21
-18.9443
0
LINE
8
BLACK
6
CONTINUOUS
10
122.422
20
-18.9443
11
122.505
21
-19.0691
0
LINE
8
BLACK
6
CONTINUOUS
10
122.505
20
-19.0691
11
122.563
21
-19.2077
0
LINE
8
BLACK
6
CONTINUOUS
10
122.563
20
-19.2077
11
122.592
21
-19.3549
0
LINE
8
BLACK
6
CONTINUOUS
10
122.592
20
-19.3549
11
122.592
21
-19.5051
0
LINE
8
BLACK
6
CONTINUOUS
10
122.592
20
-19.5051
11
122.563
21
-19.6523
0
LINE
8
BLACK
6
CONTINUOUS
10
122.563
20
-19.6523
11
122.505
21
-19.7909
0
LINE
8
BLACK
6
CONTINUOUS
10
122.505
20
-19.7909
11
122.422
21
-19.9157
0
LINE
8
BLACK
6
CONTINUOUS
10
122.422
20
-19.9157
11
122.316
21
-20.0219
0
LINE
8
BLACK
6
CONTINUOUS
10
122.316
20
-20.0219
11
122.191
21
-20.1053
0
LINE
8
BLACK
6
CONTINUOUS
10
122.191
20
-20.1053
11
122.052
21
-20.1627
0
LINE
8
BLACK
6
CONTINUOUS
10
122.052
20
-20.1627
11
121.905
21
-20.192
0
LINE
8
BLACK
6
CONTINUOUS
10
121.905
20
-20.192
11
121.755
21
-20.192
0
LINE
8
BLACK
6
CONTINUOUS
10
121.755
20
-20.192
11
121.608
21
-20.1627
0
LINE
8
BLACK
6
CONTINUOUS
10
121.608
20
-20.1627
11
121.469
21
-20.1053
0
LINE
8
BLACK
6
CONTINUOUS
10
121.469
20
-20.1053
11
121.344
21
-20.0219
0
LINE
8
BLACK
6
CONTINUOUS
10
121.344
20
-20.0219
11
121.238
21
-19.9157
0
LINE
8
BLACK
6
CONTINUOUS
10
121.238
20
-19.9157
11
121.155
21
-19.7909
0
LINE
8
BLACK
6
CONTINUOUS
10
121.155
20
-19.7909
11
121.097
21
-19.6523
0
LINE
8
BLACK
6
CONTINUOUS
10
121.097
20
-19.6523
11
121.068
21
-19.5051
0
LINE
8
BLACK
6
CONTINUOUS
10
121.068
20
-19.5051
11
121.068
21
-19.3549
0
LINE
8
BLACK
6
CONTINUOUS
10
121.068
20
-19.3549
11
121.097
21
-19.2077
0
LINE
8
BLACK
6
CONTINUOUS
10
121.097
20
-19.2077
11
121.155
21
-19.0691
0
LINE
8
BLACK
6
CONTINUOUS
10
121.155
20
-19.0691
11
121.238
21
-18.9443
0
LINE
8
BLACK
6
CONTINUOUS
10
121.238
20
-18.9443
11
121.344
21
-18.8381
0
LINE
8
BLACK
6
CONTINUOUS
10
121.344
20
-18.8381
11
121.469
21
-18.7547
0
LINE
8
BLACK
6
CONTINUOUS
10
121.469
20
-18.7547
11
121.608
21
-18.6973
0
LINE
8
BLACK
6
CONTINUOUS
10
121.608
20
-18.6973
11
121.755
21
-18.668
0
LINE
8
BLACK
6
CONTINUOUS
10
121.755
20
-18.668
11
121.905
21
-18.668
0
LINE
8
BLACK
6
CONTINUOUS
10
121.905
20
-18.668
11
122.052
21
-18.6973
0
LINE
8
BLACK
6
CONTINUOUS
10
123.351
20
-17.353
11
123.49
21
-17.4105
0
LINE
8
BLACK
6
CONTINUOUS
10
123.49
20
-17.4105
11
123.615
21
-17.4939
0
LINE
8
BLACK
6
CONTINUOUS
10
123.615
20
-17.4939
11
123.721
21
-17.6
0
LINE
8
BLACK
6
CONTINUOUS
10
123.721
20
-17.6
11
123.804
21
-17.7248
0
LINE
8
BLACK
6
CONTINUOUS
10
123.804
20
-17.7248
11
123.862
21
-17.8635
0
LINE
8
BLACK
6
CONTINUOUS
10
123.862
20
-17.8635
11
123.891
21
-18.0107
0
LINE
8
BLACK
6
CONTINUOUS
10
123.891
20
-18.0107
11
123.891
21
-18.1608
0
LINE
8
BLACK
6
CONTINUOUS
10
123.891
20
-18.1608
11
123.862
21
-18.308
0
LINE
8
BLACK
6
CONTINUOUS
10
123.862
20
-18.308
11
123.804
21
-18.4467
0
LINE
8
BLACK
6
CONTINUOUS
10
123.804
20
-18.4467
11
123.721
21
-18.5715
0
LINE
8
BLACK
6
CONTINUOUS
10
123.721
20
-18.5715
11
123.615
21
-18.6776
0
LINE
8
BLACK
6
CONTINUOUS
10
123.615
20
-18.6776
11
123.49
21
-18.761
0
LINE
8
BLACK
6
CONTINUOUS
10
123.49
20
-18.761
11
123.351
21
-18.8185
0
LINE
8
BLACK
6
CONTINUOUS
10
123.351
20
-18.8185
11
123.204
21
-18.8477
0
LINE
8
BLACK
6
CONTINUOUS
10
123.204
20
-18.8477
11
123.054
21
-18.8477
0
LINE
8
BLACK
6
CONTINUOUS
10
123.054
20
-18.8477
11
122.907
21
-18.8185
0
LINE
8
BLACK
6
CONTINUOUS
10
122.907
20
-18.8185
11
122.768
21
-18.761
0
LINE
8
BLACK
6
CONTINUOUS
10
122.768
20
-18.761
11
122.643
21
-18.6776
0
LINE
8
BLACK
6
CONTINUOUS
10
122.643
20
-18.6776
11
122.537
21
-18.5715
0
LINE
8
BLACK
6
CONTINUOUS
10
122.537
20
-18.5715
11
122.454
21
-18.4467
0
LINE
8
BLACK
6
CONTINUOUS
10
122.454
20
-18.4467
11
122.396
21
-18.308
0
LINE
8
BLACK
6
CONTINUOUS
10
122.396
20
-18.308
11
122.367
21
-18.1608
0
LINE
8
BLACK
6
CONTINUOUS
10
122.367
20
-18.1608
11
122.367
21
-18.0107
0
LINE
8
BLACK
6
CONTINUOUS
10
122.367
20
-18.0107
11
122.396
21
-17.8635
0
LINE
8
BLACK
6
CONTINUOUS
10
122.396
20
-17.8635
11
122.454
21
-17.7248
0
LINE
8
BLACK
6
CONTINUOUS
10
122.454
20
-17.7248
11
122.537
21
-17.6
0
LINE
8
BLACK
6
CONTINUOUS
10
122.537
20
-17.6
11
122.643
21
-17.4939
0
LINE
8
BLACK
6
CONTINUOUS
10
122.643
20
-17.4939
11
122.768
21
-17.4105
0
LINE
8
BLACK
6
CONTINUOUS
10
122.768
20
-17.4105
11
122.907
21
-17.353
0
LINE
8
BLACK
6
CONTINUOUS
10
122.907
20
-17.353
11
123.054
21
-17.3237
0
LINE
8
BLACK
6
CONTINUOUS
10
123.054
20
-17.3237
11
123.204
21
-17.3237
0
LINE
8
BLACK
6
CONTINUOUS
10
123.204
20
-17.3237
11
123.351
21
-17.353
0
LINE
8
BLACK
6
CONTINUOUS
10
108.111
20
-17.353
11
108.25
21
-17.4105
0
LINE
8
BLACK
6
CONTINUOUS
10
108.25
20
-17.4105
11
108.375
21
-17.4939
0
LINE
8
BLACK
6
CONTINUOUS
10
108.375
20
-17.4939
11
108.481
21
-17.6
0
LINE
8
BLACK
6
CONTINUOUS
10
108.481
20
-17.6
11
108.564
21
-17.7248
0
LINE
8
BLACK
6
CONTINUOUS
10
108.564
20
-17.7248
11
108.622
21
-17.8635
0
LINE
8
BLACK
6
CONTINUOUS
10
108.622
20
-17.8635
11
108.651
21
-18.0107
0
LINE
8
BLACK
6
CONTINUOUS
10
108.651
20
-18.0107
11
108.651
21
-18.1608
0
LINE
8
BLACK
6
CONTINUOUS
10
108.651
20
-18.1608
11
108.622
21
-18.308
0
LINE
8
BLACK
6
CONTINUOUS
10
108.622
20
-18.308
11
108.564
21
-18.4467
0
LINE
8
BLACK
6
CONTINUOUS
10
108.564
20
-18.4467
11
108.481
21
-18.5715
0
LINE
8
BLACK
6
CONTINUOUS
10
108.481
20
-18.5715
11
108.375
21
-18.6776
0
LINE
8
BLACK
6
CONTINUOUS
10
108.375
20
-18.6776
11
108.25
21
-18.761
0
LINE
8
BLACK
6
CONTINUOUS
10
108.25
20
-18.761
11
108.111
21
-18.8185
0
LINE
8
BLACK
6
CONTINUOUS
10
108.111
20
-18.8185
11
107.964
21
-18.8477
0
LINE
8
BLACK
6
CONTINUOUS
10
107.964
20
-18.8477
11
107.814
21
-18.8477
0
LINE
8
BLACK
6
CONTINUOUS
10
107.814
20
-18.8477
11
107.667
21
-18.8185
0
LINE
8
BLACK
6
CONTINUOUS
10
107.667
20
-18.8185
11
107.528
21
-18.761
0
LINE
8
BLACK
6
CONTINUOUS
10
107.528
20
-18.761
11
107.403
21
-18.6776
0
LINE
8
BLACK
6
CONTINUOUS
10
107.403
20
-18.6776
11
107.297
21
-18.5715
0
LINE
8
BLACK
6
CONTINUOUS
10
107.297
20
-18.5715
11
107.214
21
-18.4467
0
LINE
8
BLACK
6
CONTINUOUS
10
107.214
20
-18.4467
11
107.156
21
-18.308
0
LINE
8
BLACK
6
CONTINUOUS
10
107.156
20
-18.308
11
107.127
21
-18.1608
0
LINE
8
BLACK
6
CONTINUOUS
10
107.127
20
-18.1608
11
107.127
21
-18.0107
0
LINE
8
BLACK
6
CONTINUOUS
10
107.127
20
-18.0107
11
107.156
21
-17.8635
0
LINE
8
BLACK
6
CONTINUOUS
10
107.156
20
-17.8635
11
107.214
21
-17.7248
0
LINE
8
BLACK
6
CONTINUOUS
10
107.214
20
-17.7248
11
107.297
21
-17.6
0
LINE
8
BLACK
6
CONTINUOUS
10
107.297
20
-17.6
11
107.403
21
-17.4939
0
LINE
8
BLACK
6
CONTINUOUS
10
107.403
20
-17.4939
11
107.528
21
-17.4105
0
LINE
8
BLACK
6
CONTINUOUS
10
107.528
20
-17.4105
11
107.667
21
-17.353
0
LINE
8
BLACK
6
CONTINUOUS
10
107.667
20
-17.353
11
107.814
21
-17.3237
0
LINE
8
BLACK
6
CONTINUOUS
10
107.814
20
-17.3237
11
107.964
21
-17.3237
0
LINE
8
BLACK
6
CONTINUOUS
10
107.964
20
-17.3237
11
108.111
21
-17.353
0
LINE
8
BLACK
6
CONTINUOUS
10
122.052
20
-16.1573
11
122.191
21
-16.2147
0
LINE
8
BLACK
6
CONTINUOUS
10
122.191
20
-16.2147
11
122.316
21
-16.2981
0
LINE
8
BLACK
6
CONTINUOUS
10
122.316
20
-16.2981
11
122.422
21
-16.4043
0
LINE
8
BLACK
6
CONTINUOUS
10
122.422
20
-16.4043
11
122.505
21
-16.5291
0
LINE
8
BLACK
6
CONTINUOUS
10
122.505
20
-16.5291
11
122.563
21
-16.6677
0
LINE
8
BLACK
6
CONTINUOUS
10
122.563
20
-16.6677
11
122.592
21
-16.8149
0
LINE
8
BLACK
6
CONTINUOUS
10
122.592
20
-16.8149
11
122.592
21
-16.965
0
LINE
8
BLACK
6
CONTINUOUS
10
122.592
20
-16.965
11
122.563
21
-17.1123
0
LINE
8
BLACK
6
CONTINUOUS
10
122.563
20
-17.1123
11
122.505
21
-17.2509
0
LINE
8
BLACK
6
CONTINUOUS
10
122.505
20
-17.2509
11
122.422
21
-17.3757
0
LINE
8
BLACK
6
CONTINUOUS
10
122.422
20
-17.3757
11
122.316
21
-17.4819
0
LINE
8
BLACK
6
CONTINUOUS
10
122.316
20
-17.4819
11
122.191
21
-17.5653
0
LINE
8
BLACK
6
CONTINUOUS
10
122.191
20
-17.5653
11
122.052
21
-17.6227
0
LINE
8
BLACK
6
CONTINUOUS
10
122.052
20
-17.6227
11
121.905
21
-17.652
0
LINE
8
BLACK
6
CONTINUOUS
10
121.905
20
-17.652
11
121.755
21
-17.652
0
LINE
8
BLACK
6
CONTINUOUS
10
121.755
20
-17.652
11
121.608
21
-17.6227
0
LINE
8
BLACK
6
CONTINUOUS
10
121.608
20
-17.6227
11
121.469
21
-17.5653
0
LINE
8
BLACK
6
CONTINUOUS
10
121.469
20
-17.5653
11
121.344
21
-17.4819
0
LINE
8
BLACK
6
CONTINUOUS
10
121.344
20
-17.4819
11
121.238
21
-17.3757
0
LINE
8
BLACK
6
CONTINUOUS
10
121.238
20
-17.3757
11
121.155
21
-17.2509
0
LINE
8
BLACK
6
CONTINUOUS
10
121.155
20
-17.2509
11
121.097
21
-17.1123
0
LINE
8
BLACK
6
CONTINUOUS
10
121.097
20
-17.1123
11
121.068
21
-16.965
0
LINE
8
BLACK
6
CONTINUOUS
10
121.068
20
-16.965
11
121.068
21
-16.8149
0
LINE
8
BLACK
6
CONTINUOUS
10
121.068
20
-16.8149
11
121.097
21
-16.6677
0
LINE
8
BLACK
6
CONTINUOUS
10
121.097
20
-16.6677
11
121.155
21
-16.5291
0
LINE
8
BLACK
6
CONTINUOUS
10
121.155
20
-16.5291
11
121.238
21
-16.4043
0
LINE
8
BLACK
6
CONTINUOUS
10
121.238
20
-16.4043
11
121.344
21
-16.2981
0
LINE
8
BLACK
6
CONTINUOUS
10
121.344
20
-16.2981
11
121.469
21
-16.2147
0
LINE
8
BLACK
6
CONTINUOUS
10
121.469
20
-16.2147
11
121.608
21
-16.1573
0
LINE
8
BLACK
6
CONTINUOUS
10
121.608
20
-16.1573
11
121.755
21
-16.128
0
LINE
8
BLACK
6
CONTINUOUS
10
121.755
20
-16.128
11
121.905
21
-16.128
0
LINE
8
BLACK
6
CONTINUOUS
10
121.905
20
-16.128
11
122.052
21
-16.1573
0
LINE
8
BLACK
6
CONTINUOUS
10
106.812
20
-16.1573
11
106.951
21
-16.2147
0
LINE
8
BLACK
6
CONTINUOUS
10
106.951
20
-16.2147
11
107.076
21
-16.2981
0
LINE
8
BLACK
6
CONTINUOUS
10
107.076
20
-16.2981
11
107.182
21
-16.4043
0
LINE
8
BLACK
6
CONTINUOUS
10
107.182
20
-16.4043
11
107.265
21
-16.5291
0
LINE
8
BLACK
6
CONTINUOUS
10
107.265
20
-16.5291
11
107.323
21
-16.6677
0
LINE
8
BLACK
6
CONTINUOUS
10
107.323
20
-16.6677
11
107.352
21
-16.8149
0
LINE
8
BLACK
6
CONTINUOUS
10
107.352
20
-16.8149
11
107.352
21
-16.965
0
LINE
8
BLACK
6
CONTINUOUS
10
107.352
20
-16.965
11
107.323
21
-17.1123
0
LINE
8
BLACK
6
CONTINUOUS
10
107.323
20
-17.1123
11
107.265
21
-17.2509
0
LINE
8
BLACK
6
CONTINUOUS
10
107.265
20
-17.2509
11
107.182
21
-17.3757
0
LINE
8
BLACK
6
CONTINUOUS
10
107.182
20
-17.3757
11
107.076
21
-17.4819
0
LINE
8
BLACK
6
CONTINUOUS
10
107.076
20
-17.4819
11
106.951
21
-17.5653
0
LINE
8
BLACK
6
CONTINUOUS
10
106.951
20
-17.5653
11
106.812
21
-17.6227
0
LINE
8
BLACK
6
CONTINUOUS
10
106.812
20
-17.6227
11
106.665
21
-17.652
0
LINE
8
BLACK
6
CONTINUOUS
10
106.665
20
-17.652
11
106.515
21
-17.652
0
LINE
8
BLACK
6
CONTINUOUS
10
106.515
20
-17.652
11
106.368
21
-17.6227
0
LINE
8
BLACK
6
CONTINUOUS
10
106.368
20
-17.6227
11
106.229
21
-17.5653
0
LINE
8
BLACK
6
CONTINUOUS
10
106.229
20
-17.5653
11
106.104
21
-17.4819
0
LINE
8
BLACK
6
CONTINUOUS
10
106.104
20
-17.4819
11
105.998
21
-17.3757
0
LINE
8
BLACK
6
CONTINUOUS
10
105.998
20
-17.3757
11
105.915
21
-17.2509
0
LINE
8
BLACK
6
CONTINUOUS
10
105.915
20
-17.2509
11
105.857
21
-17.1123
0
LINE
8
BLACK
6
CONTINUOUS
10
105.857
20
-17.1123
11
105.828
21
-16.965
0
LINE
8
BLACK
6
CONTINUOUS
10
105.828
20
-16.965
11
105.828
21
-16.8149
0
LINE
8
BLACK
6
CONTINUOUS
10
105.828
20
-16.8149
11
105.857
21
-16.6677
0
LINE
8
BLACK
6
CONTINUOUS
10
105.857
20
-16.6677
11
105.915
21
-16.5291
0
LINE
8
BLACK
6
CONTINUOUS
10
105.915
20
-16.5291
11
105.998
21
-16.4043
0
LINE
8
BLACK
6
CONTINUOUS
10
105.998
20
-16.4043
11
106.104
21
-16.2981
0
LINE
8
BLACK
6
CONTINUOUS
10
106.104
20
-16.2981
11
106.229
21
-16.2147
0
LINE
8
BLACK
6
CONTINUOUS
10
106.229
20
-16.2147
11
106.368
21
-16.1573
0
LINE
8
BLACK
6
CONTINUOUS
10
106.368
20
-16.1573
11
106.515
21
-16.128
0
LINE
8
BLACK
6
CONTINUOUS
10
106.515
20
-16.128
11
106.665
21
-16.128
0
LINE
8
BLACK
6
CONTINUOUS
10
106.665
20
-16.128
11
106.812
21
-16.1573
  0
ENDSEC
  0
EOF
