M48
; DRILL file {KiCad (5.1.4)-1} date 7/7/2020 9:09:37 PM
; FORMAT={-:-/ absolute / inch / decimal}
; #@! TF.CreationDate,2020-07-07T21:09:37-04:00
; #@! TF.GenerationSoftware,Kicad,Pcbnew,(5.1.4)-1
; #@! TF.FileFunction,Plated,1,2,PTH
FMAT,2
INCH
T1C0.0118
T2C0.0157
T3C0.0197
T4C0.0320
T5C0.0394
T6C0.0472
T7C0.0512
T8C0.1063
%
G90
G05
T2
X3.7893Y-1.8628
X3.8809Y-2.0098
X3.9435Y-1.6552
X3.9459Y-1.8408
X4.3471Y-0.8748
X4.3471Y-1.531
X4.5348Y-0.9277
X4.536Y-0.8277
X4.5364Y-1.0277
X4.5382Y-1.2277
X4.539Y-1.3277
X4.5391Y-1.1276
X4.5403Y-1.4674
X4.5881Y-1.6148
T3
X4.2081Y-1.5302
X4.2868Y-1.5302
X4.4057Y-1.531
X4.4844Y-1.531
T4
X4.0156Y-0.4277
X4.0156Y-0.5277
X4.0156Y-0.6277
X4.0156Y-0.7277
X4.0156Y-0.8277
X4.0156Y-0.9277
X4.0156Y-1.0277
X4.0156Y-1.1277
X4.0156Y-1.2277
X4.0156Y-1.3277
X4.0156Y-1.4277
X4.0156Y-1.5277
X4.0668Y-0.4748
X4.0668Y-0.5748
X4.0668Y-0.6748
X4.0668Y-0.7748
X4.0668Y-0.8748
X4.0668Y-0.9748
X4.0668Y-1.0748
X4.0668Y-1.1748
X4.0668Y-1.2748
X4.0668Y-1.3748
X4.0668Y-1.4748
X4.0668Y-1.5748
X4.6156Y-0.4277
X4.6156Y-0.5277
X4.6156Y-0.6277
X4.6156Y-0.7277
X4.6156Y-0.8277
X4.6156Y-0.9277
X4.6156Y-1.0277
X4.6156Y-1.1277
X4.6156Y-1.2277
X4.6156Y-1.3277
X4.6156Y-1.4277
X4.6156Y-1.5277
X4.6668Y-0.4748
X4.6668Y-0.5748
X4.6668Y-0.6748
X4.6668Y-0.7748
X4.6668Y-0.8748
X4.6668Y-0.9748
X4.6668Y-1.0748
X4.6668Y-1.1748
X4.6668Y-1.2748
X4.6668Y-1.3748
X4.6668Y-1.4748
X4.6668Y-1.5748
T5
X2.6811Y-0.9252
X2.9882Y-0.9252
X0.5571Y-2.3425
X0.8642Y-2.3425
X1.2677Y-0.8858
X1.5748Y-0.8858
X0.5571Y-1.0039
X0.8642Y-1.0039
X3.3898Y-1.7913
X3.6969Y-1.7913
X-0.1535Y-1.6732
X0.1535Y-1.6732
X0.5571Y-1.6732
X0.8642Y-1.6732
X1.9724Y-1.3583
X2.2795Y-1.3583
X3.3898Y-2.4606
X3.6969Y-2.4606
X1.9724Y-0.0197
X2.2795Y-0.0197
X3.8976Y-2.0906
X3.8976Y-2.3976
X1.7717Y-2.3543
X1.7717Y-2.6614
X0.3553Y-2.5236
X0.3553Y-2.8307
X2.6811Y-1.5945
X2.9882Y-1.5945
X1.9724Y-0.689
X2.2795Y-0.689
X0.5571Y-0.3346
X0.8642Y-0.3346
X3.3898Y-1.122
X3.6969Y-1.122
X3.8976Y-2.5157
X3.8976Y-2.8228
X-0.1535Y-2.3425
X0.1535Y-2.3425
X1.063Y-2.5236
X1.063Y-2.8307
X2.6811Y-2.2638
X2.9882Y-2.2638
X1.2677Y-2.2244
X1.5748Y-2.2244
X2.4803Y-2.3543
X2.4803Y-2.6614
X1.2677Y-0.2175
X1.5748Y-0.2175
X2.6811Y-0.2559
X2.9882Y-0.2559
X-0.1535Y-0.3346
X0.1535Y-0.3346
X3.3898Y-0.4528
X3.6969Y-0.4528
X-0.1535Y-1.0039
X0.1535Y-1.0039
X1.9724Y-2.0276
X2.2795Y-2.0276
X3.189Y-2.4528
X3.189Y-2.7598
X1.2677Y-1.5551
X1.5748Y-1.5551
T6
X3.3465Y0.0315
X3.5433Y0.1142
X3.7402Y0.0315
X1.2205Y-2.4094
X1.4173Y-2.3268
X1.6142Y-2.4094
X3.3465Y-0.6378
X3.5433Y-0.5551
X3.7402Y-0.6378
X0.5118Y-1.8583
X0.7087Y-1.7756
X0.9055Y-1.8583
X0.5118Y-0.5197
X0.7087Y-0.437
X0.9055Y-0.5197
X1.2205Y-1.0709
X1.4173Y-0.9882
X1.6142Y-1.0709
X-0.1969Y0.1496
X0.0Y0.2323
X0.1969Y0.1496
X1.2205Y-1.7402
X1.4173Y-1.6575
X1.6142Y-1.7402
X3.3465Y-2.6457
X3.5433Y-2.563
X3.7402Y-2.6457
X1.2205Y0.2677
X1.4173Y0.3504
X1.6142Y0.2677
X-0.1969Y-1.8583
X0.0Y-1.7756
X0.1969Y-1.8583
X2.6378Y-0.4409
X2.8346Y-0.3583
X3.0315Y-0.4409
X-0.1969Y-1.189
X0.0Y-1.1063
X0.1969Y-1.189
X2.6378Y-1.1102
X2.8346Y-1.0276
X3.0315Y-1.1102
X2.6378Y-2.4488
X2.8346Y-2.3661
X3.0315Y-2.4488
X0.5118Y-2.5276
X0.7087Y-2.4449
X0.9055Y-2.5276
X3.3465Y-1.3071
X3.5433Y-1.2244
X3.7402Y-1.3071
X0.5118Y0.1496
X0.7087Y0.2323
X0.9055Y0.1496
X1.9291Y-2.2126
X2.126Y-2.1299
X2.3228Y-2.2126
X4.4016Y-2.2835
X4.4016Y-2.6772
X4.4843Y-2.4803
X2.6378Y0.2283
X2.8346Y0.311
X3.0315Y0.2283
X3.3465Y-1.9764
X3.5433Y-1.8937
X3.7402Y-1.9764
X-0.1969Y-2.5276
X0.0Y-2.4449
X0.1969Y-2.5276
X-0.1969Y-0.5197
X0.0Y-0.437
X0.1969Y-0.5197
X1.9291Y-1.5433
X2.126Y-1.4606
X2.3228Y-1.5433
X1.9291Y-0.2047
X2.126Y-0.122
X2.3228Y-0.2047
X2.6378Y-1.7795
X2.8346Y-1.6969
X3.0315Y-1.7795
X0.5118Y-1.189
X0.7087Y-1.1063
X0.9055Y-1.189
X1.2205Y-0.4016
X1.4173Y-0.3189
X1.6142Y-0.4016
X1.9291Y-0.874
X2.126Y-0.7913
X2.3228Y-0.874
X1.9291Y0.4646
X2.126Y0.5472
X2.3228Y0.4646
T7
X4.0451Y-1.7354
X4.0451Y-1.9913
T8
X1.7717Y-0.8858
X0.3543Y-2.3425
X0.3543Y-0.3346
X3.189Y-0.2559
X3.189Y-2.2638
T1
G00X4.2609Y-1.8147
M15
G01X4.2097Y-1.8147
M16
G05
G00X4.2609Y-1.9112
M15
G01X4.2097Y-1.9112
M16
G05
G00X4.3199Y-1.7458
M15
G01X4.2688Y-1.7458
M16
G05
G00X4.3199Y-1.9801
M15
G01X4.2688Y-1.9801
M16
G05
G00X4.4774Y-1.7458
M15
G01X4.4262Y-1.7458
M16
G05
G00X4.4774Y-1.9801
M15
G01X4.4262Y-1.9801
M16
G05
G00X4.5955Y-1.7458
M15
G01X4.5443Y-1.7458
M16
G05
G00X4.5955Y-1.9801
M15
G01X4.5443Y-1.9801
M16
G05
T0
M30
