M48
; DRILL file {KiCad (5.1.4)-1} date 6/14/2020 12:37:31 PM
; FORMAT={-:-/ absolute / inch / decimal}
; #@! TF.CreationDate,2020-06-14T12:37:31-04:00
; #@! TF.GenerationSoftware,Kicad,Pcbnew,(5.1.4)-1
; #@! TF.FileFunction,NonPlated,1,2,NPTH
FMAT,2
INCH
T1C0.0276
T2C0.0669
T3C0.0689
T4C0.1378
T5C0.1570
%
G90
G05
T1
X4.838Y-0.7533
X4.838Y-0.8675
T2
X0.5315Y-2.2441
X0.9646Y-2.2441
X-0.2165Y0.0
X0.2165Y0.0
X3.5236Y-2.3622
X3.9567Y-2.3622
X2.7756Y-2.1654
X3.2087Y-2.1654
X2.7756Y-1.4173
X3.2087Y-1.4173
X2.0276Y-0.4331
X2.4606Y-0.4331
X1.2795Y-2.126
X1.7126Y-2.126
X0.5315Y-1.4961
X0.9646Y-1.4961
X1.2795Y-0.6299
X1.7126Y-0.6299
X4.4882Y-2.5787
X4.4882Y-3.0118
X2.0276Y0.315
X2.4606Y0.315
X-0.2165Y-2.2441
X0.2165Y-2.2441
X0.5315Y-0.748
X0.9646Y-0.748
X3.5236Y-0.1181
X3.9567Y-0.1181
X2.7756Y0.0787
X3.2087Y0.0787
X2.0276Y-1.1811
X2.4606Y-1.1811
X1.2795Y-1.378
X1.7126Y-1.378
X1.2795Y0.1181
X1.7126Y0.1181
X3.5236Y-3.1102
X3.9567Y-3.1102
X0.5315Y-2.9921
X0.9646Y-2.9921
X-0.2165Y-2.9921
X0.2165Y-2.9921
X3.5236Y-1.6142
X3.9567Y-1.6142
X-0.2165Y-0.748
X0.2165Y-0.748
X1.2795Y-2.874
X1.7126Y-2.874
X2.0276Y-1.9291
X2.4606Y-1.9291
X2.7756Y-0.6693
X3.2087Y-0.6693
X-0.2165Y-1.4961
X0.2165Y-1.4961
X2.7756Y-2.9134
X3.2087Y-2.9134
X2.0276Y-2.6772
X2.4606Y-2.6772
X3.5236Y-0.8661
X3.9567Y-0.8661
X0.5315Y0.0
X0.9646Y0.0
T3
X1.2961Y-2.874
X1.6961Y-2.874
X2.0441Y-1.9291
X2.4441Y-1.9291
X2.7921Y-0.6693
X3.1921Y-0.6693
X-0.2Y-1.4961
X0.2Y-1.4961
X2.7921Y-2.9134
X3.1921Y-2.9134
X2.0441Y-2.6772
X2.4441Y-2.6772
X3.5402Y-0.8661
X3.9402Y-0.8661
X0.548Y0.0
X0.948Y0.0
X0.548Y-2.2441
X0.948Y-2.2441
X-0.2Y0.0
X0.2Y0.0
X3.5402Y-2.3622
X3.9402Y-2.3622
X2.7921Y-2.1654
X3.1921Y-2.1654
X2.7921Y-1.4173
X3.1921Y-1.4173
X2.0441Y-0.4331
X2.4441Y-0.4331
X1.2961Y-2.126
X1.6961Y-2.126
X0.548Y-1.4961
X0.948Y-1.4961
X1.2961Y-0.6299
X1.6961Y-0.6299
X4.4882Y-2.5953
X4.4882Y-2.9953
X2.0441Y0.315
X2.4441Y0.315
X-0.2Y-2.2441
X0.2Y-2.2441
X0.548Y-0.748
X0.948Y-0.748
X3.5402Y-0.1181
X3.9402Y-0.1181
X2.7921Y0.0787
X3.1921Y0.0787
X2.0441Y-1.1811
X2.4441Y-1.1811
X1.2961Y-1.378
X1.6961Y-1.378
X1.2961Y0.1181
X1.6961Y0.1181
X3.5402Y-3.1102
X3.9402Y-3.1102
X0.548Y-2.9921
X0.948Y-2.9921
X-0.2Y-2.9921
X0.2Y-2.9921
X3.5402Y-1.6142
X3.9402Y-1.6142
X-0.2Y-0.748
X0.2Y-0.748
T4
X3.3661Y-0.2953
X1.8701Y-1.0039
X3.3661Y-2.2441
X0.374Y-0.374
X0.374Y-2.6181
T5
X2.9921Y-2.1654
X2.9921Y-1.4173
X2.2441Y-0.4331
X1.4961Y-2.126
X0.748Y-1.4961
X1.4961Y-0.6299
X4.4882Y-2.7953
X2.2441Y0.315
X0.0Y-2.2441
X0.748Y-0.748
X3.7402Y-0.1181
X2.9921Y0.0787
X2.2441Y-1.1811
X1.4961Y-1.378
X1.4961Y0.1181
X3.7402Y-3.1102
X0.748Y-2.9921
X0.0Y-2.9921
X3.7402Y-1.6142
X0.0Y-0.748
X1.4961Y-2.874
X2.2441Y-1.9291
X2.9921Y-0.6693
X0.0Y-1.4961
X2.9921Y-2.9134
X2.2441Y-2.6772
X3.7402Y-0.8661
X0.748Y0.0
X0.748Y-2.2441
X0.0Y0.0
X3.7402Y-2.3622
T0
M30
