M48
; DRILL file {KiCad (5.1.4)-1} date 07/30/21 13:44:10
; FORMAT={-:-/ absolute / metric / decimal}
; #@! TF.CreationDate,2021-07-30T13:44:10-04:00
; #@! TF.GenerationSoftware,Kicad,Pcbnew,(5.1.4)-1
; #@! TF.FileFunction,Plated,1,2,PTH
FMAT,2
METRIC
T1C0.400
T2C1.092
T3C1.300
%
G90
G05
T1
X15.922Y-20.553
X16.402Y-70.193
X16.6Y-39.675
X17.516Y-57.247
X19.977Y-39.175
X20.065Y-70.11
X28.612Y-47.835
X33.922Y-52.133
X33.922Y-66.597
X34.215Y-19.687
X34.3Y-36.693
X37.734Y-66.881
X38.005Y-36.692
X41.321Y-20.425
X46.367Y-37.335
X51.971Y-62.145
X52.3Y-14.686
X52.3Y-48.67
X52.956Y-31.261
X57.3Y-50.513
X57.555Y-32.301
X69.785Y-68.17
X70.265Y-20.657
X70.385Y-54.262
X71.523Y-39.161
X73.7Y-37.245
X73.733Y-67.881
X73.774Y-23.302
X77.499Y-8.243
X79.813Y-67.407
X87.09Y-44.324
X87.667Y-71.481
X87.914Y-33.268
X88.217Y-24.764
X88.217Y-59.661
X92.912Y-27.0
X92.914Y-60.918
X109.231Y-65.219
X111.0Y-62.509
T2
X101.148Y-18.058
X101.148Y-20.598
X101.148Y-23.138
X101.148Y-25.678
X101.148Y-28.218
X101.148Y-30.758
X101.148Y-33.298
X101.148Y-35.838
X101.148Y-38.378
X101.148Y-40.918
X101.148Y-43.458
X101.148Y-45.998
X116.388Y-18.058
X116.388Y-20.598
X116.388Y-23.138
X116.388Y-25.678
X116.388Y-28.218
X116.388Y-30.758
X116.388Y-33.298
X116.388Y-35.838
X116.388Y-38.378
X116.388Y-40.918
X116.388Y-43.458
X116.388Y-45.998
T3
X105.518Y-48.688
X112.018Y-48.688
T0
M30
