G04 #@! TF.GenerationSoftware,KiCad,Pcbnew,(5.1.4)-1*
G04 #@! TF.CreationDate,2020-07-05T11:50:33-04:00*
G04 #@! TF.ProjectId,splitreus,73706c69-7472-4657-9573-2e6b69636164,1*
G04 #@! TF.SameCoordinates,Original*
G04 #@! TF.FileFunction,Copper,L1,Top*
G04 #@! TF.FilePolarity,Positive*
%FSLAX46Y46*%
G04 Gerber Fmt 4.6, Leading zero omitted, Abs format (unit mm)*
G04 Created by KiCad (PCBNEW (5.1.4)-1) date 2020-07-05 11:50:33*
%MOMM*%
%LPD*%
G04 APERTURE LIST*
%ADD10C,2.000000*%
%ADD11C,4.500000*%
%ADD12R,0.500000X2.900000*%
%ADD13R,1.200000X1.600000*%
%ADD14R,1.600000X1.600000*%
%ADD15C,1.600000*%
%ADD16R,2.900000X0.500000*%
%ADD17R,1.600000X1.200000*%
%ADD18R,1.524000X1.524000*%
%ADD19O,1.700000X1.700000*%
%ADD20R,1.700000X1.700000*%
%ADD21O,1.800000X0.900000*%
%ADD22C,1.524000*%
G04 APERTURE END LIST*
D10*
X117800000Y-73000000D03*
X119900000Y-68000000D03*
X117800000Y-63000000D03*
X100000000Y-71200000D03*
X95000000Y-69100000D03*
X90000000Y-71200000D03*
X100000000Y-53200000D03*
X95000000Y-51100000D03*
X90000000Y-53200000D03*
X100000000Y-35200000D03*
X95000000Y-33100000D03*
X90000000Y-35200000D03*
X100000000Y-17200000D03*
X95000000Y-15100000D03*
X90000000Y-17200000D03*
X100000000Y800000D03*
X95000000Y2900000D03*
X90000000Y800000D03*
X81000000Y-66200000D03*
X76000000Y-64100000D03*
X71000000Y-66200000D03*
X81000000Y-48200000D03*
X76000000Y-46100000D03*
X71000000Y-48200000D03*
X81000000Y-30200000D03*
X76000000Y-28100000D03*
X71000000Y-30200000D03*
X81000000Y-12200000D03*
X76000000Y-10100000D03*
X71000000Y-12200000D03*
X81000000Y5800000D03*
X76000000Y7900000D03*
X71000000Y5800000D03*
X62000000Y-60200000D03*
X57000000Y-58100000D03*
X52000000Y-60200000D03*
X62000000Y-42200000D03*
X57000000Y-40100000D03*
X52000000Y-42200000D03*
X62000000Y-24200000D03*
X57000000Y-22100000D03*
X52000000Y-24200000D03*
X62000000Y-6200000D03*
X57000000Y-4100000D03*
X52000000Y-6200000D03*
X62000000Y11800000D03*
X57000000Y13900000D03*
X52000000Y11800000D03*
X43000000Y-65200000D03*
X38000000Y-63100000D03*
X33000000Y-65200000D03*
X43000000Y-47200000D03*
X38000000Y-45100000D03*
X33000000Y-47200000D03*
X43000000Y-29200000D03*
X38000000Y-27100000D03*
X33000000Y-29200000D03*
X43000000Y-11200000D03*
X38000000Y-9100000D03*
X33000000Y-11200000D03*
X43000000Y6800000D03*
X38000000Y8900000D03*
X33000000Y6800000D03*
X24000000Y-68200000D03*
X19000000Y-66100000D03*
X14000000Y-68200000D03*
X24000000Y-50200000D03*
X19000000Y-48100000D03*
X14000000Y-50200000D03*
X24000000Y-32200000D03*
X19000000Y-30100000D03*
X14000000Y-32200000D03*
X24000000Y-14200000D03*
X19000000Y-12100000D03*
X14000000Y-14200000D03*
X24000000Y3800000D03*
X19000000Y5900000D03*
X14000000Y3800000D03*
X5000000Y-68200000D03*
X0Y-66100000D03*
X-5000000Y-68200000D03*
X5000000Y-50200000D03*
X0Y-48100000D03*
X-5000000Y-50200000D03*
X5000000Y-32200000D03*
X0Y-30100000D03*
X-5000000Y-32200000D03*
X5000000Y-14200000D03*
X0Y-12100000D03*
X-5000000Y-14200000D03*
X5000000Y3800000D03*
X0Y5900000D03*
X-5000000Y3800000D03*
D11*
X85500000Y-61000000D03*
X85500000Y-7500000D03*
X47500000Y-24000000D03*
X9500000Y-63000000D03*
X9500000Y-9500000D03*
D12*
X104500000Y-57500000D03*
D13*
X104500000Y-58600000D03*
X104500000Y-61400000D03*
D14*
X104500000Y-56100000D03*
D15*
X104500000Y-63900000D03*
D12*
X104500000Y-62500000D03*
X104500000Y-68500000D03*
D13*
X104500000Y-69600000D03*
X104500000Y-72400000D03*
D14*
X104500000Y-67100000D03*
D15*
X104500000Y-74900000D03*
D12*
X104500000Y-73500000D03*
D16*
X97500000Y-66000000D03*
D17*
X96400000Y-66000000D03*
X93600000Y-66000000D03*
D14*
X98900000Y-66000000D03*
D15*
X91100000Y-66000000D03*
D16*
X92500000Y-66000000D03*
X97500000Y-48000000D03*
D17*
X96400000Y-48000000D03*
X93600000Y-48000000D03*
D14*
X98900000Y-48000000D03*
D15*
X91100000Y-48000000D03*
D16*
X92500000Y-48000000D03*
X97500000Y-30000000D03*
D17*
X96400000Y-30000000D03*
X93600000Y-30000000D03*
D14*
X98900000Y-30000000D03*
D15*
X91100000Y-30000000D03*
D16*
X92500000Y-30000000D03*
X97500000Y-12000000D03*
D17*
X96400000Y-12000000D03*
X93600000Y-12000000D03*
D14*
X98900000Y-12000000D03*
D15*
X91100000Y-12000000D03*
D16*
X92500000Y-12000000D03*
D12*
X85500000Y-69500000D03*
D13*
X85500000Y-70600000D03*
X85500000Y-73400000D03*
D14*
X85500000Y-68100000D03*
D15*
X85500000Y-75900000D03*
D12*
X85500000Y-74500000D03*
D16*
X78500000Y-61000000D03*
D17*
X77400000Y-61000000D03*
X74600000Y-61000000D03*
D14*
X79900000Y-61000000D03*
D15*
X72100000Y-61000000D03*
D16*
X73500000Y-61000000D03*
X78500000Y-43000000D03*
D17*
X77400000Y-43000000D03*
X74600000Y-43000000D03*
D14*
X79900000Y-43000000D03*
D15*
X72100000Y-43000000D03*
D16*
X73500000Y-43000000D03*
X78500000Y-25000000D03*
D17*
X77400000Y-25000000D03*
X74600000Y-25000000D03*
D14*
X79900000Y-25000000D03*
D15*
X72100000Y-25000000D03*
D16*
X73500000Y-25000000D03*
X78500000Y-7000000D03*
D17*
X77400000Y-7000000D03*
X74600000Y-7000000D03*
D14*
X79900000Y-7000000D03*
D15*
X72100000Y-7000000D03*
D16*
X73500000Y-7000000D03*
D12*
X66500000Y-61500000D03*
D13*
X66500000Y-62600000D03*
X66500000Y-65400000D03*
D14*
X66500000Y-60100000D03*
D15*
X66500000Y-67900000D03*
D12*
X66500000Y-66500000D03*
D16*
X59500000Y-55000000D03*
D17*
X58400000Y-55000000D03*
X55600000Y-55000000D03*
D14*
X60900000Y-55000000D03*
D15*
X53100000Y-55000000D03*
D16*
X54500000Y-55000000D03*
X59500000Y-37000000D03*
D17*
X58400000Y-37000000D03*
X55600000Y-37000000D03*
D14*
X60900000Y-37000000D03*
D15*
X53100000Y-37000000D03*
D16*
X54500000Y-37000000D03*
X59500000Y-19000000D03*
D17*
X58400000Y-19000000D03*
X55600000Y-19000000D03*
D14*
X60900000Y-19000000D03*
D15*
X53100000Y-19000000D03*
D16*
X54500000Y-19000000D03*
X59500000Y-1000000D03*
D17*
X58400000Y-1000000D03*
X55600000Y-1000000D03*
D14*
X60900000Y-1000000D03*
D15*
X53100000Y-1000000D03*
D16*
X54500000Y-1000000D03*
D12*
X47500000Y-64500000D03*
D13*
X47500000Y-65600000D03*
X47500000Y-68400000D03*
D14*
X47500000Y-63100000D03*
D15*
X47500000Y-70900000D03*
D12*
X47500000Y-69500000D03*
D16*
X40500000Y-60000000D03*
D17*
X39400000Y-60000000D03*
X36600000Y-60000000D03*
D14*
X41900000Y-60000000D03*
D15*
X34100000Y-60000000D03*
D16*
X35500000Y-60000000D03*
X40500000Y-42000000D03*
D17*
X39400000Y-42000000D03*
X36600000Y-42000000D03*
D14*
X41900000Y-42000000D03*
D15*
X34100000Y-42000000D03*
D16*
X35500000Y-42000000D03*
X40500000Y-24000000D03*
D17*
X39400000Y-24000000D03*
X36600000Y-24000000D03*
D14*
X41900000Y-24000000D03*
D15*
X34100000Y-24000000D03*
D16*
X35500000Y-24000000D03*
X40500000Y-6000000D03*
D17*
X39400000Y-6000000D03*
X36600000Y-6000000D03*
D14*
X41900000Y-6000000D03*
D15*
X34100000Y-6000000D03*
D16*
X35500000Y-6000000D03*
D12*
X28500000Y-69500000D03*
D13*
X28500000Y-70600000D03*
X28500000Y-73400000D03*
D14*
X28500000Y-68100000D03*
D15*
X28500000Y-75900000D03*
D12*
X28500000Y-74500000D03*
D16*
X21500000Y-63000000D03*
D17*
X20400000Y-63000000D03*
X17600000Y-63000000D03*
D14*
X22900000Y-63000000D03*
D15*
X15100000Y-63000000D03*
D16*
X16500000Y-63000000D03*
X21500000Y-45000000D03*
D17*
X20400000Y-45000000D03*
X17600000Y-45000000D03*
D14*
X22900000Y-45000000D03*
D15*
X15100000Y-45000000D03*
D16*
X16500000Y-45000000D03*
X21500000Y-27000000D03*
D17*
X20400000Y-27000000D03*
X17600000Y-27000000D03*
D14*
X22900000Y-27000000D03*
D15*
X15100000Y-27000000D03*
D16*
X16500000Y-27000000D03*
X21500000Y-9000000D03*
D17*
X20400000Y-9000000D03*
X17600000Y-9000000D03*
D14*
X22900000Y-9000000D03*
D15*
X15100000Y-9000000D03*
D16*
X16500000Y-9000000D03*
D12*
X9500000Y-69500000D03*
D13*
X9500000Y-70600000D03*
X9500000Y-73400000D03*
D14*
X9500000Y-68100000D03*
D15*
X9500000Y-75900000D03*
D12*
X9500000Y-74500000D03*
D16*
X2500000Y-63000000D03*
D17*
X1400000Y-63000000D03*
X-1400000Y-63000000D03*
D14*
X3900000Y-63000000D03*
D15*
X-3900000Y-63000000D03*
D16*
X-2500000Y-63000000D03*
X2500000Y-45000000D03*
D17*
X1400000Y-45000000D03*
X-1400000Y-45000000D03*
D14*
X3900000Y-45000000D03*
D15*
X-3900000Y-45000000D03*
D16*
X-2500000Y-45000000D03*
X2500000Y-27000000D03*
D17*
X1400000Y-27000000D03*
X-1400000Y-27000000D03*
D14*
X3900000Y-27000000D03*
D15*
X-3900000Y-27000000D03*
D16*
X-2500000Y-27000000D03*
D18*
X116420680Y-40919440D03*
X118420680Y-40919440D03*
X113401640Y-40899120D03*
X111401640Y-40899120D03*
D10*
X107372440Y-52114560D03*
X107372440Y-45614560D03*
D19*
X117126040Y-56636960D03*
X114586040Y-56636960D03*
D20*
X112046040Y-56636960D03*
D21*
X117296360Y-53107600D03*
X120146360Y-53107600D03*
X112096360Y-53107600D03*
X112096360Y-45007600D03*
X117296360Y-45007600D03*
X120146360Y-45007600D03*
D22*
X121830000Y-13230000D03*
X121830000Y-15770000D03*
X121830000Y-18310000D03*
X121830000Y-20850000D03*
X121830000Y-23390000D03*
X121830000Y-25930000D03*
X121830000Y-28470000D03*
X121830000Y-31010000D03*
X121830000Y-33550000D03*
X121830000Y-36090000D03*
X121830000Y-38630000D03*
X121830000Y-41170000D03*
X106590000Y-41170000D03*
X106590000Y-38630000D03*
X106590000Y-36090000D03*
X106590000Y-33550000D03*
X106590000Y-31010000D03*
X106590000Y-28470000D03*
X106590000Y-25930000D03*
X106590000Y-23390000D03*
X106590000Y-20850000D03*
X106590000Y-18310000D03*
X106590000Y-15770000D03*
X106590000Y-13230000D03*
X123128815Y-24585745D03*
X123128815Y-29665745D03*
X107888815Y-14425745D03*
X123128815Y-16965745D03*
X123128815Y-39825745D03*
X107888815Y-42365745D03*
X123128815Y-32205745D03*
X123128815Y-34745745D03*
X107888815Y-32205745D03*
X107888815Y-37285745D03*
X107888815Y-24585745D03*
X107888815Y-22045745D03*
X107888815Y-16965745D03*
X107888815Y-27125745D03*
X123128815Y-42365745D03*
X107888815Y-34745745D03*
X123128815Y-14425745D03*
X123128815Y-19505745D03*
X107888815Y-39825745D03*
X123128815Y-22045745D03*
X123128815Y-27125745D03*
X107888815Y-29665745D03*
X123128815Y-37285745D03*
X107888815Y-19505745D03*
D16*
X2500000Y-9000000D03*
D17*
X1400000Y-9000000D03*
X-1400000Y-9000000D03*
D14*
X3900000Y-9000000D03*
D15*
X-3900000Y-9000000D03*
D16*
X-2500000Y-9000000D03*
M02*
