M48
; DRILL file {KiCad (5.1.4)-1} date 6/14/2020 12:37:31 PM
; FORMAT={-:-/ absolute / inch / decimal}
; #@! TF.CreationDate,2020-06-14T12:37:31-04:00
; #@! TF.GenerationSoftware,Kicad,Pcbnew,(5.1.4)-1
; #@! TF.FileFunction,Plated,1,2,PTH
FMAT,2
INCH
T1C0.0157
T2C0.0236
T3C0.0394
T4C0.0472
T5C0.0512
T6C0.0579
%
G90
G05
T1
X2.6197Y-1.9469
X3.9644Y-0.8082
X3.9991Y-2.0236
X4.0629Y-1.3136
X4.129Y-1.1726
X4.135Y-2.0872
X4.1383Y-1.8232
X4.1446Y-1.4554
X4.163Y-1.4981
X4.1814Y-1.2666
X4.1822Y-1.1322
X4.1933Y-1.5846
X4.2122Y-0.9553
X4.2694Y-2.0424
X4.302Y-2.0826
X4.3272Y-1.8713
X4.338Y-1.4806
X4.3707Y-1.2503
X4.372Y-1.6748
X4.3971Y-1.1556
X4.3977Y-1.406
X4.4163Y-1.8923
X4.4224Y-1.0357
X4.4244Y-1.0799
X4.4358Y-2.0429
X4.439Y-2.0826
X4.4479Y-0.9506
X4.4538Y-1.4682
X4.4789Y-2.0886
X4.49Y-1.678
X4.5003Y-1.2706
X4.5244Y-1.3022
X4.553Y-2.0974
X4.5593Y-1.3514
X4.5819Y-1.2521
X4.6099Y-2.0688
X4.6228Y-1.062
X4.6302Y-1.8518
X4.663Y-1.0711
X4.6843Y-1.5982
X4.7143Y-1.7893
X4.7161Y-1.0479
X4.7212Y-1.8732
X4.7333Y-1.9724
X4.7511Y-1.2706
X4.7519Y-1.1804
X4.7525Y-1.2236
X4.7591Y-1.5826
X4.7621Y-1.7519
X4.7635Y-1.826
X4.776Y-1.6612
X4.8133Y-1.68
X4.8133Y-1.823
X4.8176Y-1.0194
T3
X0.5945Y-1.8701
X0.9016Y-1.8701
X2.0906Y-1.5551
X2.3976Y-1.5551
X2.8386Y-0.2953
X3.1457Y-0.2953
X0.5945Y-1.122
X0.9016Y-1.122
X0.5945Y-0.374
X0.9016Y-0.374
X3.2947Y-1.0299
X3.3931Y-1.0299
X-0.1535Y-2.6181
X0.1535Y-2.6181
X3.5866Y-0.4921
X3.8937Y-0.4921
X-0.1535Y-0.374
X0.1535Y-0.374
X2.0906Y-0.8071
X2.3976Y-0.8071
X1.8701Y-2.6811
X1.8701Y-2.9882
X0.5945Y-2.6181
X0.9016Y-2.6181
X-0.1535Y-1.122
X0.1535Y-1.122
X1.3425Y-1.752
X1.6496Y-1.752
X2.6181Y-2.5236
X2.6181Y-2.8307
X2.0906Y-2.3031
X2.3976Y-2.3031
X4.8592Y-1.0984
X4.8592Y-1.1984
X4.8592Y-1.2984
X4.8592Y-1.3984
X3.5866Y-1.2402
X3.8937Y-1.2402
X2.8386Y-2.5394
X3.1457Y-2.5394
X2.0906Y-0.0591
X2.3976Y-0.0591
X1.122Y-2.8386
X1.122Y-3.1457
X1.3425Y-0.2559
X1.6496Y-0.2559
X2.8386Y-1.0433
X3.1457Y-1.0433
X3.3661Y-2.7598
X3.3661Y-3.0669
X1.3425Y-1.0039
X1.6496Y-1.0039
X1.3425Y-2.5
X1.6496Y-2.5
X4.1142Y-2.878
X4.1142Y-3.185
X3.5866Y-1.9882
X3.8937Y-1.9882
X2.8386Y-1.7913
X3.1457Y-1.7913
X3.5866Y-2.7362
X3.8937Y-2.7362
X-0.1535Y-1.8701
X0.1535Y-1.8701
X4.1142Y-2.4055
X4.1142Y-2.7126
X0.374Y-2.8386
X0.374Y-3.1457
T4
X1.2992Y-3.0236
X1.4961Y-3.1063
X1.6961Y-3.0236
X2.0472Y-2.0787
X2.2441Y-2.1614
X2.4441Y-2.0787
X2.7953Y-0.8189
X2.9921Y-0.9016
X3.1921Y-0.8189
X-0.1969Y-1.6457
X0.0Y-1.7283
X0.2Y-1.6457
X2.7953Y-3.063
X2.9921Y-3.1457
X3.1921Y-3.063
X2.0472Y-2.8268
X2.2441Y-2.9094
X2.4441Y-2.8268
X3.5433Y-1.0157
X3.7402Y-1.0984
X3.9402Y-1.0157
X0.5512Y-0.1496
X0.748Y-0.2323
X0.948Y-0.1496
X0.5512Y-2.3937
X0.748Y-2.4764
X0.948Y-2.3937
X-0.1969Y-0.1496
X0.0Y-0.2323
X0.2Y-0.1496
X3.5433Y-2.5118
X3.7402Y-2.5945
X3.9402Y-2.5118
X2.7953Y-2.315
X2.9921Y-2.3976
X3.1921Y-2.315
X2.7953Y-1.5669
X2.9921Y-1.6496
X3.1921Y-1.5669
X2.0472Y-0.5827
X2.2441Y-0.6654
X2.4441Y-0.5827
X1.2992Y-2.2756
X1.4961Y-2.3583
X1.6961Y-2.2756
X0.5512Y-1.6457
X0.748Y-1.7283
X0.948Y-1.6457
X1.2992Y-0.7795
X1.4961Y-0.8622
X1.6961Y-0.7795
X4.2559Y-2.7953
X4.3386Y-2.5984
X4.3386Y-2.9953
X2.0472Y0.1654
X2.2441Y0.0827
X2.4441Y0.1654
X-0.1969Y-2.3937
X0.0Y-2.4764
X0.2Y-2.3937
X0.5512Y-0.8976
X0.748Y-0.9803
X0.948Y-0.8976
X3.5433Y-0.2677
X3.7402Y-0.3504
X3.9402Y-0.2677
X2.7953Y-0.0709
X2.9921Y-0.1535
X3.1921Y-0.0709
X2.0472Y-1.3307
X2.2441Y-1.4134
X2.4441Y-1.3307
X1.2992Y-1.5276
X1.4961Y-1.6102
X1.6961Y-1.5276
X1.2992Y-0.0315
X1.4961Y-0.1142
X1.6961Y-0.0315
X3.5433Y-3.2598
X3.7402Y-3.3425
X3.9402Y-3.2598
X0.5512Y-3.1417
X0.748Y-3.2244
X0.948Y-3.1417
X-0.1969Y-3.1417
X0.0Y-3.2244
X0.2Y-3.1417
X3.5433Y-1.7638
X3.7402Y-1.8465
X3.9402Y-1.7638
X-0.1969Y-0.8976
X0.0Y-0.9803
X0.2Y-0.8976
T5
X4.6017Y-2.3144
X4.8576Y-2.3144
T6
X1.3461Y-2.026
X1.3945Y-1.9488
X1.3961Y-1.926
X1.3976Y-1.9685
X1.5945Y-1.9685
X1.5949Y-1.926
X1.5976Y-1.9488
X1.6461Y-2.026
X0.598Y-1.3961
X0.6465Y-1.3189
X0.648Y-1.2961
X0.6496Y-1.3386
X0.8465Y-1.3386
X0.8469Y-1.2961
X0.8496Y-1.3189
X0.898Y-1.3961
X1.3461Y-0.5299
X1.3945Y-0.4528
X1.3961Y-0.4299
X1.3976Y-0.4724
X1.5945Y-0.4724
X1.5949Y-0.4299
X1.5976Y-0.4528
X1.6461Y-0.5299
X4.5882Y-2.6453
X4.5882Y-2.9453
X4.6457Y-2.6969
X4.6457Y-2.8937
X4.6654Y-2.6937
X4.6654Y-2.8969
X4.6882Y-2.6953
X4.6882Y-2.8941
X2.0941Y0.415
X2.1425Y0.4921
X2.1441Y0.515
X2.1457Y0.4724
X2.3425Y0.4724
X2.3429Y0.515
X2.3457Y0.4921
X2.3941Y0.415
X-0.15Y-2.1441
X-0.1016Y-2.0669
X-0.1Y-2.0441
X-0.0984Y-2.0866
X0.0984Y-2.0866
X0.0988Y-2.0441
X0.1016Y-2.0669
X0.15Y-2.1441
X0.598Y-0.648
X0.6465Y-0.5709
X0.648Y-0.548
X0.6496Y-0.5906
X0.8465Y-0.5906
X0.8469Y-0.548
X0.8496Y-0.5709
X0.898Y-0.648
X3.5902Y-0.0181
X3.6386Y0.0591
X3.6402Y0.0819
X3.6417Y0.0394
X3.8386Y0.0394
X3.839Y0.0819
X3.8417Y0.0591
X3.8902Y-0.0181
X2.8421Y0.1787
X2.8906Y0.2559
X2.8921Y0.2787
X2.8937Y0.2362
X3.0906Y0.2362
X3.0909Y0.2787
X3.0937Y0.2559
X3.1421Y0.1787
X2.0941Y-1.0811
X2.1425Y-1.0039
X2.1441Y-0.9811
X2.1457Y-1.0236
X2.3425Y-1.0236
X2.3429Y-0.9811
X2.3457Y-1.0039
X2.3941Y-1.0811
X1.3461Y-1.278
X1.3945Y-1.2008
X1.3961Y-1.178
X1.3976Y-1.2205
X1.5945Y-1.2205
X1.5949Y-1.178
X1.5976Y-1.2008
X1.6461Y-1.278
X1.3461Y0.2181
X1.3945Y0.2953
X1.3961Y0.3181
X1.3976Y0.2756
X1.5945Y0.2756
X1.5949Y0.3181
X1.5976Y0.2953
X1.6461Y0.2181
X3.5902Y-3.0102
X3.6386Y-2.9331
X3.6402Y-2.9102
X3.6417Y-2.9528
X3.8386Y-2.9528
X3.839Y-2.9102
X3.8417Y-2.9331
X3.8902Y-3.0102
X0.598Y-2.8921
X0.6465Y-2.815
X0.648Y-2.7921
X0.6496Y-2.8346
X0.8465Y-2.8346
X0.8469Y-2.7921
X0.8496Y-2.815
X0.898Y-2.8921
X-0.15Y-2.8921
X-0.1016Y-2.815
X-0.1Y-2.7921
X-0.0984Y-2.8346
X0.0984Y-2.8346
X0.0988Y-2.7921
X0.1016Y-2.815
X0.15Y-2.8921
X3.5902Y-1.5142
X3.6386Y-1.437
X3.6402Y-1.4142
X3.6417Y-1.4567
X3.8386Y-1.4567
X3.839Y-1.4142
X3.8417Y-1.437
X3.8902Y-1.5142
X-0.15Y-0.648
X-0.1016Y-0.5709
X-0.1Y-0.548
X-0.0984Y-0.5906
X0.0984Y-0.5906
X0.0988Y-0.548
X0.1016Y-0.5709
X0.15Y-0.648
X1.3461Y-2.774
X1.3945Y-2.6969
X1.3961Y-2.674
X1.3976Y-2.7165
X1.5945Y-2.7165
X1.5949Y-2.674
X1.5976Y-2.6969
X1.6461Y-2.774
X2.0941Y-1.8291
X2.1425Y-1.752
X2.1441Y-1.7291
X2.1457Y-1.7717
X2.3425Y-1.7717
X2.3429Y-1.7291
X2.3457Y-1.752
X2.3941Y-1.8291
X2.8421Y-0.5693
X2.8906Y-0.4921
X2.8921Y-0.4693
X2.8937Y-0.5118
X3.0906Y-0.5118
X3.0909Y-0.4693
X3.0937Y-0.4921
X3.1421Y-0.5693
X-0.15Y-1.3961
X-0.1016Y-1.3189
X-0.1Y-1.2961
X-0.0984Y-1.3386
X0.0984Y-1.3386
X0.0988Y-1.2961
X0.1016Y-1.3189
X0.15Y-1.3961
X2.8421Y-2.8134
X2.8906Y-2.7362
X2.8921Y-2.7134
X2.8937Y-2.7559
X3.0906Y-2.7559
X3.0909Y-2.7134
X3.0937Y-2.7362
X3.1421Y-2.8134
X2.0941Y-2.5772
X2.1425Y-2.5
X2.1441Y-2.4772
X2.1457Y-2.5197
X2.3425Y-2.5197
X2.3429Y-2.4772
X2.3457Y-2.5
X2.3941Y-2.5772
X3.5902Y-0.7661
X3.6386Y-0.689
X3.6402Y-0.6661
X3.6417Y-0.7087
X3.8386Y-0.7087
X3.839Y-0.6661
X3.8417Y-0.689
X3.8902Y-0.7661
X0.598Y0.1
X0.6465Y0.1772
X0.648Y0.2
X0.6496Y0.1575
X0.8465Y0.1575
X0.8469Y0.2
X0.8496Y0.1772
X0.898Y0.1
X0.598Y-2.1441
X0.6465Y-2.0669
X0.648Y-2.0441
X0.6496Y-2.0866
X0.8465Y-2.0866
X0.8469Y-2.0441
X0.8496Y-2.0669
X0.898Y-2.1441
X-0.15Y0.1
X-0.1016Y0.1772
X-0.1Y0.2
X-0.0984Y0.1575
X0.0984Y0.1575
X0.0988Y0.2
X0.1016Y0.1772
X0.15Y0.1
X3.5902Y-2.2622
X3.6386Y-2.185
X3.6402Y-2.1622
X3.6417Y-2.2047
X3.8386Y-2.2047
X3.839Y-2.1622
X3.8417Y-2.185
X3.8902Y-2.2622
X2.8421Y-2.0654
X2.8906Y-1.9882
X2.8921Y-1.9654
X2.8937Y-2.0079
X3.0906Y-2.0079
X3.0909Y-1.9654
X3.0937Y-1.9882
X3.1421Y-2.0654
X2.8421Y-1.3173
X2.8906Y-1.2402
X2.8921Y-1.2173
X2.8937Y-1.2598
X3.0906Y-1.2598
X3.0909Y-1.2173
X3.0937Y-1.2402
X3.1421Y-1.3173
X2.0941Y-0.3331
X2.1425Y-0.2559
X2.1441Y-0.2331
X2.1457Y-0.2756
X2.3425Y-0.2756
X2.3429Y-0.2331
X2.3457Y-0.2559
X2.3941Y-0.3331
T2
G00X4.2472Y-0.6735
M15
G01X4.2472Y-0.7207
M16
G05
G00X4.2472Y-0.8388
M15
G01X4.2472Y-0.8703
M16
G05
G00X4.6861Y-0.6735
M15
G01X4.6861Y-0.7207
M16
G05
G00X4.6861Y-0.8388
M15
G01X4.6861Y-0.8703
M16
G05
T0
M30
