G04 #@! TF.GenerationSoftware,KiCad,Pcbnew,(5.1.4)-1*
G04 #@! TF.CreationDate,2020-07-07T21:09:40-04:00*
G04 #@! TF.ProjectId,splitreus,73706c69-7472-4657-9573-2e6b69636164,1*
G04 #@! TF.SameCoordinates,Original*
G04 #@! TF.FileFunction,Profile,NP*
%FSLAX46Y46*%
G04 Gerber Fmt 4.6, Leading zero omitted, Abs format (unit mm)*
G04 Created by KiCad (PCBNEW (5.1.4)-1) date 2020-07-07 21:09:40*
%MOMM*%
%LPD*%
G04 APERTURE LIST*
%ADD10C,0.050000*%
G04 APERTURE END LIST*
D10*
X-7000116Y6099999D02*
G75*
G02X-6000115Y7100000I1000001J0D01*
G01*
X25000000Y7100000D02*
X-6000115Y7100000D01*
X29000000Y10099999D02*
X25000000Y7100000D01*
X43000000Y10099999D02*
X29000000Y10099999D01*
X47000000Y15099999D02*
X43000000Y10099999D01*
X61000000Y15099999D02*
X47000000Y15099999D01*
X64999999Y9099999D02*
X61000000Y15099999D01*
X78999999Y9099999D02*
X64999999Y9099999D01*
X83000000Y4099999D02*
X78999999Y9099999D01*
X96067754Y4099999D02*
X83000000Y4099999D01*
X96067754Y4100001D02*
G75*
G02X97000000Y3212515I-61618J-998101D01*
G01*
X97000000Y-9899999D02*
X97000000Y3212515D01*
X118500000Y-9899999D02*
X97000000Y-9899999D01*
X118500000Y-9899999D02*
G75*
G02X119500000Y-10899999I0J-1000000D01*
G01*
X119500000Y-68900000D02*
X119500000Y-10899999D01*
X119500000Y-68900000D02*
G75*
G02X118500000Y-69900000I-1000000J0D01*
G01*
X100999999Y-69900000D02*
X118500000Y-69900000D01*
X97000000Y-77900000D02*
X100999999Y-69900000D01*
X83000000Y-77900000D02*
X97000000Y-77900000D01*
X78999999Y-72900000D02*
X83000000Y-77900000D01*
X64999999Y-72900000D02*
X78999999Y-72900000D01*
X61000000Y-66900000D02*
X64999999Y-72900000D01*
X47000000Y-66900000D02*
X61000000Y-66900000D01*
X43000000Y-71900000D02*
X47000000Y-66900000D01*
X29000000Y-71900000D02*
X43000000Y-71900000D01*
X25000000Y-74900000D02*
X29000000Y-71900000D01*
X-6009756Y-74888698D02*
X25000000Y-74900000D01*
X-6009756Y-74888697D02*
G75*
G02X-7000115Y-73752807I364J999999D01*
G01*
X-7000115Y6099999D02*
X-7000115Y-73752807D01*
M02*
