M48
; DRILL file {KiCad (5.1.4)-1} date 4/5/2021 8:46:06 AM
; FORMAT={-:-/ absolute / metric / decimal}
; #@! TF.CreationDate,2021-04-05T08:46:06-04:00
; #@! TF.GenerationSoftware,Kicad,Pcbnew,(5.1.4)-1
; #@! TF.FileFunction,NonPlated,1,2,NPTH
FMAT,2
METRIC
T1C0.700
T2C1.200
T3C1.702
T4C3.000
T5C3.988
%
G90
G05
T1
X112.988Y-12.768
X115.888Y-12.768
T2
X115.21Y-51.62
X115.21Y-53.37
X122.21Y-51.62
X122.21Y-53.37
T3
X52.07Y-30.1
X62.23Y-30.1
X90.17Y-60.15
X100.33Y-60.15
X52.07Y8.0
X62.23Y8.0
X13.97Y0.0
X24.13Y0.0
X33.02Y-16.05
X43.18Y-16.05
X71.12Y-74.2
X81.28Y-74.2
X-5.08Y-76.2
X5.08Y-76.2
X33.02Y-54.15
X43.18Y-54.15
X90.17Y-41.1
X100.33Y-41.1
X-5.08Y-19.05
X5.08Y-19.05
X71.12Y-55.15
X81.28Y-55.15
X13.97Y-57.15
X24.13Y-57.15
X114.0Y-65.92
X114.0Y-76.08
X13.97Y-76.2
X24.13Y-76.2
X90.17Y-79.2
X100.33Y-79.2
X71.12Y-17.05
X81.28Y-17.05
X33.02Y3.0
X43.18Y3.0
X52.07Y-49.15
X62.23Y-49.15
X33.02Y-35.1
X43.18Y-35.1
X-5.08Y-38.1
X5.08Y-38.1
X90.17Y-22.05
X100.33Y-22.05
X-5.08Y0.0
X5.08Y0.0
X71.12Y-36.1
X81.28Y-36.1
X52.07Y-11.05
X62.23Y-11.05
X71.12Y2.0
X81.28Y2.0
X33.02Y-73.2
X43.18Y-73.2
X52.07Y-68.2
X62.23Y-68.2
X13.97Y-19.05
X24.13Y-19.05
X-5.08Y-57.15
X5.08Y-57.15
X13.97Y-38.1
X24.13Y-38.1
X90.17Y-3.0
X100.33Y-3.0
T4
X53.34Y-27.56
X54.61Y-25.06
X59.69Y-25.02
X59.72Y-25.06
X60.96Y-27.56
X91.44Y-57.61
X92.71Y-55.11
X97.79Y-55.07
X97.82Y-55.11
X99.06Y-57.61
X53.34Y10.54
X54.61Y13.04
X59.69Y13.08
X59.72Y13.04
X60.96Y10.54
X15.24Y2.54
X16.51Y5.04
X21.59Y5.08
X21.62Y5.04
X22.86Y2.54
X34.29Y-13.51
X35.56Y-11.01
X40.64Y-10.97
X40.67Y-11.01
X41.91Y-13.51
X72.39Y-71.66
X73.66Y-69.16
X78.74Y-69.12
X78.77Y-69.16
X80.01Y-71.66
X-3.81Y-73.66
X-2.54Y-71.16
X2.54Y-71.12
X2.57Y-71.16
X3.81Y-73.66
X34.29Y-51.61
X35.56Y-49.11
X40.64Y-49.07
X40.67Y-49.11
X41.91Y-51.61
X91.44Y-38.56
X92.71Y-36.06
X97.79Y-36.02
X97.82Y-36.06
X99.06Y-38.56
X-3.81Y-16.51
X-2.54Y-14.01
X2.54Y-13.97
X2.57Y-14.01
X3.81Y-16.51
X72.39Y-52.61
X73.66Y-50.11
X78.74Y-50.07
X78.77Y-50.11
X80.01Y-52.61
X15.24Y-54.61
X16.51Y-52.11
X21.59Y-52.07
X21.62Y-52.11
X22.86Y-54.61
X116.54Y-67.19
X116.54Y-74.81
X119.04Y-68.46
X119.04Y-73.57
X119.08Y-73.54
X15.24Y-73.66
X16.51Y-71.16
X21.59Y-71.12
X21.62Y-71.16
X22.86Y-73.66
X91.44Y-76.66
X92.71Y-74.16
X97.79Y-74.12
X97.82Y-74.16
X99.06Y-76.66
X72.39Y-14.51
X73.66Y-12.01
X78.74Y-11.97
X78.77Y-12.01
X80.01Y-14.51
X34.29Y5.54
X35.56Y8.04
X40.64Y8.08
X40.67Y8.04
X41.91Y5.54
X53.34Y-46.61
X54.61Y-44.11
X59.69Y-44.07
X59.72Y-44.11
X60.96Y-46.61
X34.29Y-32.56
X35.56Y-30.06
X40.64Y-30.02
X40.67Y-30.06
X41.91Y-32.56
X-3.81Y-35.56
X-2.54Y-33.06
X2.54Y-33.02
X2.57Y-33.06
X3.81Y-35.56
X91.44Y-19.51
X92.71Y-17.01
X97.79Y-16.97
X97.82Y-17.01
X99.06Y-19.51
X-3.81Y2.54
X-2.54Y5.04
X2.54Y5.08
X2.57Y5.04
X3.81Y2.54
X72.39Y-33.56
X73.66Y-31.06
X78.74Y-31.02
X78.77Y-31.06
X80.01Y-33.56
X53.34Y-8.51
X54.61Y-6.01
X59.69Y-5.97
X59.72Y-6.01
X60.96Y-8.51
X72.39Y4.54
X73.66Y7.04
X78.74Y7.08
X78.77Y7.04
X80.01Y4.54
X34.29Y-70.66
X35.56Y-68.16
X40.64Y-68.12
X40.67Y-68.16
X41.91Y-70.66
X53.34Y-65.66
X54.61Y-63.16
X59.69Y-63.12
X59.72Y-63.16
X60.96Y-65.66
X15.24Y-16.51
X16.51Y-14.01
X21.59Y-13.97
X21.62Y-14.01
X22.86Y-16.51
X-3.81Y-54.61
X-2.54Y-52.11
X2.54Y-52.07
X2.57Y-52.11
X3.81Y-54.61
X15.24Y-35.56
X16.51Y-33.06
X21.59Y-33.02
X21.62Y-33.06
X22.86Y-35.56
X91.44Y-0.46
X92.71Y2.04
X97.79Y2.08
X97.82Y2.04
X99.06Y-0.46
T5
X95.25Y-3.0
X57.15Y-30.1
X95.25Y-60.15
X57.15Y8.0
X19.05Y0.0
X38.1Y-16.05
X76.2Y-74.2
X0.0Y-76.2
X38.1Y-54.15
X95.25Y-41.1
X0.0Y-19.05
X76.2Y-55.15
X19.05Y-57.15
X114.0Y-71.0
X19.05Y-76.2
X95.25Y-79.2
X76.2Y-17.05
X38.1Y3.0
X57.15Y-49.15
X38.1Y-35.1
X0.0Y-38.1
X95.25Y-22.05
X0.0Y0.0
X76.2Y-36.1
X57.15Y-11.05
X76.2Y2.0
X38.1Y-73.2
X57.15Y-68.2
X19.05Y-19.05
X0.0Y-57.15
X19.05Y-38.1
T0
M30
