M48
; DRILL file {KiCad (5.1.4)-1} date 7/7/2020 9:09:37 PM
; FORMAT={-:-/ absolute / inch / decimal}
; #@! TF.CreationDate,2020-07-07T21:09:37-04:00
; #@! TF.GenerationSoftware,Kicad,Pcbnew,(5.1.4)-1
; #@! TF.FileFunction,NonPlated,1,2,NPTH
FMAT,2
INCH
T1C0.0472
T2C0.0669
T3C0.1339
%
G90
G05
T1
X4.3652Y-1.8285
X4.3652Y-1.8974
X4.6408Y-1.8285
X4.6408Y-1.8974
T2
X0.4921Y-0.6693
X0.9252Y-0.6693
X1.2008Y-1.2205
X1.6339Y-1.2205
X-0.2165Y0.0
X0.2165Y0.0
X1.2008Y-1.8898
X1.6339Y-1.8898
X3.3268Y-2.7953
X3.7598Y-2.7953
X1.2008Y0.1181
X1.6339Y0.1181
X-0.2165Y-2.0079
X0.2165Y-2.0079
X2.6181Y-0.5906
X3.0512Y-0.5906
X-0.2165Y-1.3386
X0.2165Y-1.3386
X2.6181Y-1.2598
X3.0512Y-1.2598
X2.6181Y-2.5984
X3.0512Y-2.5984
X0.4921Y-2.6772
X0.9252Y-2.6772
X3.3268Y-1.4567
X3.7598Y-1.4567
X0.4921Y0.0
X0.9252Y0.0
X1.9094Y-2.3622
X2.3425Y-2.3622
X4.252Y-2.2638
X4.252Y-2.6969
X2.6181Y0.0787
X3.0512Y0.0787
X3.3268Y-2.126
X3.7598Y-2.126
X-0.2165Y-2.6772
X0.2165Y-2.6772
X-0.2165Y-0.6693
X0.2165Y-0.6693
X1.9094Y-1.6929
X2.3425Y-1.6929
X1.9094Y-0.3543
X2.3425Y-0.3543
X2.6181Y-1.9291
X3.0512Y-1.9291
X0.4921Y-1.3386
X0.9252Y-1.3386
X1.2008Y-0.5512
X1.6339Y-0.5512
X1.9094Y-1.0236
X2.3425Y-1.0236
X1.9094Y0.315
X2.3425Y0.315
X3.3268Y-0.1181
X3.7598Y-0.1181
X1.2008Y-2.5591
X1.6339Y-2.5591
X3.3268Y-0.7874
X3.7598Y-0.7874
X0.4921Y-2.0079
X0.9252Y-2.0079
T3
X1.4173Y-1.2205
X0.0Y0.0
X1.4173Y-1.8898
X3.5433Y-2.7953
X1.4173Y0.1181
X0.0Y-2.0079
X2.8346Y-0.5906
X0.0Y-1.3386
X2.8346Y-1.2598
X2.8346Y-2.5984
X0.7087Y-2.6772
X3.5433Y-1.4567
X0.7087Y0.0
X2.126Y-2.3622
X4.252Y-2.4803
X2.8346Y0.0787
X3.5433Y-2.126
X0.0Y-2.6772
X0.0Y-0.6693
X2.126Y-1.6929
X2.126Y-0.3543
X2.8346Y-1.9291
X0.7087Y-1.3386
X1.4173Y-0.5512
X2.126Y-1.0236
X2.126Y0.315
X3.5433Y-0.1181
X1.4173Y-2.5591
X3.5433Y-0.7874
X0.7087Y-2.0079
X0.7087Y-0.6693
T0
M30
