G04 #@! TF.GenerationSoftware,KiCad,Pcbnew,(5.1.4)-1*
G04 #@! TF.CreationDate,2020-07-07T21:09:39-04:00*
G04 #@! TF.ProjectId,splitreus,73706c69-7472-4657-9573-2e6b69636164,1*
G04 #@! TF.SameCoordinates,Original*
G04 #@! TF.FileFunction,Legend,Top*
G04 #@! TF.FilePolarity,Positive*
%FSLAX46Y46*%
G04 Gerber Fmt 4.6, Leading zero omitted, Abs format (unit mm)*
G04 Created by KiCad (PCBNEW (5.1.4)-1) date 2020-07-07 21:09:39*
%MOMM*%
%LPD*%
G04 APERTURE LIST*
%ADD10C,0.200000*%
%ADD11C,0.300000*%
%ADD12C,0.400000*%
%ADD13C,0.150000*%
%ADD14C,0.120000*%
%ADD15C,0.100000*%
G04 APERTURE END LIST*
D10*
X113924287Y-52629100D02*
X113924287Y-51629100D01*
X114495716Y-52629100D01*
X114495716Y-51629100D01*
X115400478Y-52629100D02*
X115400478Y-52105291D01*
X115352859Y-52010053D01*
X115257620Y-51962434D01*
X115067144Y-51962434D01*
X114971906Y-52010053D01*
X115400478Y-52581481D02*
X115305240Y-52629100D01*
X115067144Y-52629100D01*
X114971906Y-52581481D01*
X114924287Y-52486243D01*
X114924287Y-52391005D01*
X114971906Y-52295767D01*
X115067144Y-52248148D01*
X115305240Y-52248148D01*
X115400478Y-52200529D01*
X116448097Y-52533862D02*
X116400478Y-52581481D01*
X116257620Y-52629100D01*
X116162382Y-52629100D01*
X116019525Y-52581481D01*
X115924287Y-52486243D01*
X115876668Y-52391005D01*
X115829049Y-52200529D01*
X115829049Y-52057672D01*
X115876668Y-51867196D01*
X115924287Y-51771958D01*
X116019525Y-51676720D01*
X116162382Y-51629100D01*
X116257620Y-51629100D01*
X116400478Y-51676720D01*
X116448097Y-51724339D01*
X117019525Y-52629100D02*
X116924287Y-52581481D01*
X116876668Y-52486243D01*
X116876668Y-51629100D01*
X117305240Y-51962434D02*
X117543335Y-52629100D01*
X117781430Y-51962434D02*
X117543335Y-52629100D01*
X117448097Y-52867196D01*
X117400478Y-52914815D01*
X117305240Y-52962434D01*
X24632220Y-30204714D02*
X24632220Y-30680904D01*
X25108411Y-30728523D01*
X25060792Y-30680904D01*
X25013173Y-30585666D01*
X25013173Y-30347571D01*
X25060792Y-30252333D01*
X25108411Y-30204714D01*
X25203649Y-30157095D01*
X25441744Y-30157095D01*
X25536982Y-30204714D01*
X25584601Y-30252333D01*
X25632220Y-30347571D01*
X25632220Y-30585666D01*
X25584601Y-30680904D01*
X25536982Y-30728523D01*
X24632220Y-29538047D02*
X24632220Y-29442809D01*
X24679840Y-29347571D01*
X24727459Y-29299952D01*
X24822697Y-29252333D01*
X25013173Y-29204714D01*
X25251268Y-29204714D01*
X25441744Y-29252333D01*
X25536982Y-29299952D01*
X25584601Y-29347571D01*
X25632220Y-29442809D01*
X25632220Y-29538047D01*
X25584601Y-29633285D01*
X25536982Y-29680904D01*
X25441744Y-29728523D01*
X25251268Y-29776142D01*
X25013173Y-29776142D01*
X24822697Y-29728523D01*
X24727459Y-29680904D01*
X24679840Y-29633285D01*
X24632220Y-29538047D01*
X24632220Y-28871380D02*
X24632220Y-28204714D01*
X25632220Y-28633285D01*
X24727459Y-27871380D02*
X24679840Y-27823761D01*
X24632220Y-27728523D01*
X24632220Y-27490428D01*
X24679840Y-27395190D01*
X24727459Y-27347571D01*
X24822697Y-27299952D01*
X24917935Y-27299952D01*
X25060792Y-27347571D01*
X25632220Y-27919000D01*
X25632220Y-27299952D01*
X24632220Y-26442809D02*
X24632220Y-26633285D01*
X24679840Y-26728523D01*
X24727459Y-26776142D01*
X24870316Y-26871380D01*
X25060792Y-26919000D01*
X25441744Y-26919000D01*
X25536982Y-26871380D01*
X25584601Y-26823761D01*
X25632220Y-26728523D01*
X25632220Y-26538047D01*
X25584601Y-26442809D01*
X25536982Y-26395190D01*
X25441744Y-26347571D01*
X25203649Y-26347571D01*
X25108411Y-26395190D01*
X25060792Y-26442809D01*
X25013173Y-26538047D01*
X25013173Y-26728523D01*
X25060792Y-26823761D01*
X25108411Y-26871380D01*
X25203649Y-26919000D01*
X25632220Y-25871380D02*
X25632220Y-25680904D01*
X25584601Y-25585666D01*
X25536982Y-25538047D01*
X25394125Y-25442809D01*
X25203649Y-25395190D01*
X24822697Y-25395190D01*
X24727459Y-25442809D01*
X24679840Y-25490428D01*
X24632220Y-25585666D01*
X24632220Y-25776142D01*
X24679840Y-25871380D01*
X24727459Y-25919000D01*
X24822697Y-25966619D01*
X25060792Y-25966619D01*
X25156030Y-25919000D01*
X25203649Y-25871380D01*
X25251268Y-25776142D01*
X25251268Y-25585666D01*
X25203649Y-25490428D01*
X25156030Y-25442809D01*
X25060792Y-25395190D01*
X24632220Y-24538047D02*
X24632220Y-24728523D01*
X24679840Y-24823761D01*
X24727459Y-24871380D01*
X24870316Y-24966619D01*
X25060792Y-25014238D01*
X25441744Y-25014238D01*
X25536982Y-24966619D01*
X25584601Y-24919000D01*
X25632220Y-24823761D01*
X25632220Y-24633285D01*
X25584601Y-24538047D01*
X25536982Y-24490428D01*
X25441744Y-24442809D01*
X25203649Y-24442809D01*
X25108411Y-24490428D01*
X25060792Y-24538047D01*
X25013173Y-24633285D01*
X25013173Y-24823761D01*
X25060792Y-24919000D01*
X25108411Y-24966619D01*
X25203649Y-25014238D01*
X25108411Y-24014238D02*
X25108411Y-23680904D01*
X25632220Y-23538047D02*
X25632220Y-24014238D01*
X24632220Y-24014238D01*
X24632220Y-23538047D01*
X24632220Y-23204714D02*
X24632220Y-22538047D01*
X25632220Y-22966619D01*
X24965554Y-21728523D02*
X25632220Y-21728523D01*
X24584601Y-21966619D02*
X25298887Y-22204714D01*
X25298887Y-21585666D01*
X24727459Y-21252333D02*
X24679840Y-21204714D01*
X24632220Y-21109476D01*
X24632220Y-20871380D01*
X24679840Y-20776142D01*
X24727459Y-20728523D01*
X24822697Y-20680904D01*
X24917935Y-20680904D01*
X25060792Y-20728523D01*
X25632220Y-21299952D01*
X25632220Y-20680904D01*
X24632220Y-20061857D02*
X24632220Y-19966619D01*
X24679840Y-19871380D01*
X24727459Y-19823761D01*
X24822697Y-19776142D01*
X25013173Y-19728523D01*
X25251268Y-19728523D01*
X25441744Y-19776142D01*
X25536982Y-19823761D01*
X25584601Y-19871380D01*
X25632220Y-19966619D01*
X25632220Y-20061857D01*
X25584601Y-20157095D01*
X25536982Y-20204714D01*
X25441744Y-20252333D01*
X25251268Y-20299952D01*
X25013173Y-20299952D01*
X24822697Y-20252333D01*
X24727459Y-20204714D01*
X24679840Y-20157095D01*
X24632220Y-20061857D01*
X24965554Y-18871380D02*
X25632220Y-18871380D01*
X24584601Y-19109476D02*
X25298887Y-19347571D01*
X25298887Y-18728523D01*
X26332220Y-30776142D02*
X26332220Y-30109476D01*
X27332220Y-30538047D01*
X26332220Y-29823761D02*
X26332220Y-29157095D01*
X27332220Y-29585666D01*
X26332220Y-28299952D02*
X26332220Y-28776142D01*
X26808411Y-28823761D01*
X26760792Y-28776142D01*
X26713173Y-28680904D01*
X26713173Y-28442809D01*
X26760792Y-28347571D01*
X26808411Y-28299952D01*
X26903649Y-28252333D01*
X27141744Y-28252333D01*
X27236982Y-28299952D01*
X27284601Y-28347571D01*
X27332220Y-28442809D01*
X27332220Y-28680904D01*
X27284601Y-28776142D01*
X27236982Y-28823761D01*
X26332220Y-27395190D02*
X26332220Y-27585666D01*
X26379840Y-27680904D01*
X26427459Y-27728523D01*
X26570316Y-27823761D01*
X26760792Y-27871380D01*
X27141744Y-27871380D01*
X27236982Y-27823761D01*
X27284601Y-27776142D01*
X27332220Y-27680904D01*
X27332220Y-27490428D01*
X27284601Y-27395190D01*
X27236982Y-27347571D01*
X27141744Y-27299952D01*
X26903649Y-27299952D01*
X26808411Y-27347571D01*
X26760792Y-27395190D01*
X26713173Y-27490428D01*
X26713173Y-27680904D01*
X26760792Y-27776142D01*
X26808411Y-27823761D01*
X26903649Y-27871380D01*
X26808411Y-26871380D02*
X26808411Y-26538047D01*
X27332220Y-26395190D02*
X27332220Y-26871380D01*
X26332220Y-26871380D01*
X26332220Y-26395190D01*
X26332220Y-26061857D02*
X26332220Y-25395190D01*
X27332220Y-25823761D01*
X26332220Y-25109476D02*
X26332220Y-24490428D01*
X26713173Y-24823761D01*
X26713173Y-24680904D01*
X26760792Y-24585666D01*
X26808411Y-24538047D01*
X26903649Y-24490428D01*
X27141744Y-24490428D01*
X27236982Y-24538047D01*
X27284601Y-24585666D01*
X27332220Y-24680904D01*
X27332220Y-24966619D01*
X27284601Y-25061857D01*
X27236982Y-25109476D01*
X26427459Y-24109476D02*
X26379840Y-24061857D01*
X26332220Y-23966619D01*
X26332220Y-23728523D01*
X26379840Y-23633285D01*
X26427459Y-23585666D01*
X26522697Y-23538047D01*
X26617935Y-23538047D01*
X26760792Y-23585666D01*
X27332220Y-24157095D01*
X27332220Y-23538047D01*
X26332220Y-22919000D02*
X26332220Y-22823761D01*
X26379840Y-22728523D01*
X26427459Y-22680904D01*
X26522697Y-22633285D01*
X26713173Y-22585666D01*
X26951268Y-22585666D01*
X27141744Y-22633285D01*
X27236982Y-22680904D01*
X27284601Y-22728523D01*
X27332220Y-22823761D01*
X27332220Y-22919000D01*
X27284601Y-23014238D01*
X27236982Y-23061857D01*
X27141744Y-23109476D01*
X26951268Y-23157095D01*
X26713173Y-23157095D01*
X26522697Y-23109476D01*
X26427459Y-23061857D01*
X26379840Y-23014238D01*
X26332220Y-22919000D01*
X26665554Y-21728523D02*
X27332220Y-21728523D01*
X26284601Y-21966619D02*
X26998887Y-22204714D01*
X26998887Y-21585666D01*
X26808411Y-21204714D02*
X26808411Y-20871380D01*
X27332220Y-20728523D02*
X27332220Y-21204714D01*
X26332220Y-21204714D01*
X26332220Y-20728523D01*
X26332220Y-19871380D02*
X26332220Y-20061857D01*
X26379840Y-20157095D01*
X26427459Y-20204714D01*
X26570316Y-20299952D01*
X26760792Y-20347571D01*
X27141744Y-20347571D01*
X27236982Y-20299952D01*
X27284601Y-20252333D01*
X27332220Y-20157095D01*
X27332220Y-19966619D01*
X27284601Y-19871380D01*
X27236982Y-19823761D01*
X27141744Y-19776142D01*
X26903649Y-19776142D01*
X26808411Y-19823761D01*
X26760792Y-19871380D01*
X26713173Y-19966619D01*
X26713173Y-20157095D01*
X26760792Y-20252333D01*
X26808411Y-20299952D01*
X26903649Y-20347571D01*
X26808411Y-19014238D02*
X26808411Y-19347571D01*
X27332220Y-19347571D02*
X26332220Y-19347571D01*
X26332220Y-18871380D01*
X28032220Y-30776142D02*
X28032220Y-30109476D01*
X29032220Y-30538047D01*
X28365554Y-29299952D02*
X29032220Y-29299952D01*
X27984601Y-29538047D02*
X28698887Y-29776142D01*
X28698887Y-29157095D01*
X28127459Y-28823761D02*
X28079840Y-28776142D01*
X28032220Y-28680904D01*
X28032220Y-28442809D01*
X28079840Y-28347571D01*
X28127459Y-28299952D01*
X28222697Y-28252333D01*
X28317935Y-28252333D01*
X28460792Y-28299952D01*
X29032220Y-28871380D01*
X29032220Y-28252333D01*
X28032220Y-27633285D02*
X28032220Y-27538047D01*
X28079840Y-27442809D01*
X28127459Y-27395190D01*
X28222697Y-27347571D01*
X28413173Y-27299952D01*
X28651268Y-27299952D01*
X28841744Y-27347571D01*
X28936982Y-27395190D01*
X28984601Y-27442809D01*
X29032220Y-27538047D01*
X29032220Y-27633285D01*
X28984601Y-27728523D01*
X28936982Y-27776142D01*
X28841744Y-27823761D01*
X28651268Y-27871380D01*
X28413173Y-27871380D01*
X28222697Y-27823761D01*
X28127459Y-27776142D01*
X28079840Y-27728523D01*
X28032220Y-27633285D01*
X28365554Y-26442809D02*
X29032220Y-26442809D01*
X27984601Y-26680904D02*
X28698887Y-26919000D01*
X28698887Y-26299952D01*
X29032220Y-25919000D02*
X28032220Y-25919000D01*
X28032220Y-25680904D01*
X28079840Y-25538047D01*
X28175078Y-25442809D01*
X28270316Y-25395190D01*
X28460792Y-25347571D01*
X28603649Y-25347571D01*
X28794125Y-25395190D01*
X28889363Y-25442809D01*
X28984601Y-25538047D01*
X29032220Y-25680904D01*
X29032220Y-25919000D01*
X28032220Y-24490428D02*
X28032220Y-24680904D01*
X28079840Y-24776142D01*
X28127459Y-24823761D01*
X28270316Y-24919000D01*
X28460792Y-24966619D01*
X28841744Y-24966619D01*
X28936982Y-24919000D01*
X28984601Y-24871380D01*
X29032220Y-24776142D01*
X29032220Y-24585666D01*
X28984601Y-24490428D01*
X28936982Y-24442809D01*
X28841744Y-24395190D01*
X28603649Y-24395190D01*
X28508411Y-24442809D01*
X28460792Y-24490428D01*
X28413173Y-24585666D01*
X28413173Y-24776142D01*
X28460792Y-24871380D01*
X28508411Y-24919000D01*
X28603649Y-24966619D01*
X28508411Y-23633285D02*
X28508411Y-23966619D01*
X29032220Y-23966619D02*
X28032220Y-23966619D01*
X28032220Y-23490428D01*
X28032220Y-22680904D02*
X28032220Y-22871380D01*
X28079840Y-22966619D01*
X28127459Y-23014238D01*
X28270316Y-23109476D01*
X28460792Y-23157095D01*
X28841744Y-23157095D01*
X28936982Y-23109476D01*
X28984601Y-23061857D01*
X29032220Y-22966619D01*
X29032220Y-22776142D01*
X28984601Y-22680904D01*
X28936982Y-22633285D01*
X28841744Y-22585666D01*
X28603649Y-22585666D01*
X28508411Y-22633285D01*
X28460792Y-22680904D01*
X28413173Y-22776142D01*
X28413173Y-22966619D01*
X28460792Y-23061857D01*
X28508411Y-23109476D01*
X28603649Y-23157095D01*
X28508411Y-22157095D02*
X28508411Y-21823761D01*
X29032220Y-21680904D02*
X29032220Y-22157095D01*
X28032220Y-22157095D01*
X28032220Y-21680904D01*
X28032220Y-20823761D02*
X28032220Y-21014238D01*
X28079840Y-21109476D01*
X28127459Y-21157095D01*
X28270316Y-21252333D01*
X28460792Y-21299952D01*
X28841744Y-21299952D01*
X28936982Y-21252333D01*
X28984601Y-21204714D01*
X29032220Y-21109476D01*
X29032220Y-20919000D01*
X28984601Y-20823761D01*
X28936982Y-20776142D01*
X28841744Y-20728523D01*
X28603649Y-20728523D01*
X28508411Y-20776142D01*
X28460792Y-20823761D01*
X28413173Y-20919000D01*
X28413173Y-21109476D01*
X28460792Y-21204714D01*
X28508411Y-21252333D01*
X28603649Y-21299952D01*
X28032220Y-19823761D02*
X28032220Y-20299952D01*
X28508411Y-20347571D01*
X28460792Y-20299952D01*
X28413173Y-20204714D01*
X28413173Y-19966619D01*
X28460792Y-19871380D01*
X28508411Y-19823761D01*
X28603649Y-19776142D01*
X28841744Y-19776142D01*
X28936982Y-19823761D01*
X28984601Y-19871380D01*
X29032220Y-19966619D01*
X29032220Y-20204714D01*
X28984601Y-20299952D01*
X28936982Y-20347571D01*
X28032220Y-19442809D02*
X28032220Y-18776142D01*
X29032220Y-19204714D01*
X29032220Y-18347571D02*
X29032220Y-18157095D01*
X28984601Y-18061857D01*
X28936982Y-18014238D01*
X28794125Y-17919000D01*
X28603649Y-17871380D01*
X28222697Y-17871380D01*
X28127459Y-17919000D01*
X28079840Y-17966619D01*
X28032220Y-18061857D01*
X28032220Y-18252333D01*
X28079840Y-18347571D01*
X28127459Y-18395190D01*
X28222697Y-18442809D01*
X28460792Y-18442809D01*
X28556030Y-18395190D01*
X28603649Y-18347571D01*
X28651268Y-18252333D01*
X28651268Y-18061857D01*
X28603649Y-17966619D01*
X28556030Y-17919000D01*
X28460792Y-17871380D01*
D11*
X113302805Y-37696571D02*
X112802805Y-36982285D01*
X112445662Y-37696571D02*
X112445662Y-36196571D01*
X113017091Y-36196571D01*
X113159948Y-36268000D01*
X113231377Y-36339428D01*
X113302805Y-36482285D01*
X113302805Y-36696571D01*
X113231377Y-36839428D01*
X113159948Y-36910857D01*
X113017091Y-36982285D01*
X112445662Y-36982285D01*
X108283765Y-37594971D02*
X107569480Y-37594971D01*
X107569480Y-36094971D01*
D10*
X10702380Y-27357142D02*
X10035714Y-27357142D01*
X10226190Y-27357142D02*
X10130952Y-27309523D01*
X10083333Y-27261904D01*
X10035714Y-27166666D01*
X10035714Y-27071428D01*
X10654761Y-26357142D02*
X10702380Y-26452380D01*
X10702380Y-26642857D01*
X10654761Y-26738095D01*
X10559523Y-26785714D01*
X10178571Y-26785714D01*
X10083333Y-26738095D01*
X10035714Y-26642857D01*
X10035714Y-26452380D01*
X10083333Y-26357142D01*
X10178571Y-26309523D01*
X10273809Y-26309523D01*
X10369047Y-26785714D01*
X10035714Y-25976190D02*
X10702380Y-25738095D01*
X10035714Y-25500000D01*
X10702380Y-24595238D02*
X10702380Y-25166666D01*
X10702380Y-24880952D02*
X9702380Y-24880952D01*
X9845238Y-24976190D01*
X9940476Y-25071428D01*
X9988095Y-25166666D01*
X10607142Y-24166666D02*
X10654761Y-24119047D01*
X10702380Y-24166666D01*
X10654761Y-24214285D01*
X10607142Y-24166666D01*
X10702380Y-24166666D01*
X10654761Y-23261904D02*
X10702380Y-23357142D01*
X10702380Y-23547619D01*
X10654761Y-23642857D01*
X10607142Y-23690476D01*
X10511904Y-23738095D01*
X10226190Y-23738095D01*
X10130952Y-23690476D01*
X10083333Y-23642857D01*
X10035714Y-23547619D01*
X10035714Y-23357142D01*
X10083333Y-23261904D01*
X10702380Y-22833333D02*
X9702380Y-22833333D01*
X10702380Y-22404761D02*
X10178571Y-22404761D01*
X10083333Y-22452380D01*
X10035714Y-22547619D01*
X10035714Y-22690476D01*
X10083333Y-22785714D01*
X10130952Y-22833333D01*
X10702380Y-21785714D02*
X10654761Y-21880952D01*
X10607142Y-21928571D01*
X10511904Y-21976190D01*
X10226190Y-21976190D01*
X10130952Y-21928571D01*
X10083333Y-21880952D01*
X10035714Y-21785714D01*
X10035714Y-21642857D01*
X10083333Y-21547619D01*
X10130952Y-21500000D01*
X10226190Y-21452380D01*
X10511904Y-21452380D01*
X10607142Y-21500000D01*
X10654761Y-21547619D01*
X10702380Y-21642857D01*
X10702380Y-21785714D01*
X10654761Y-20595238D02*
X10702380Y-20690476D01*
X10702380Y-20880952D01*
X10654761Y-20976190D01*
X10607142Y-21023809D01*
X10511904Y-21071428D01*
X10226190Y-21071428D01*
X10130952Y-21023809D01*
X10083333Y-20976190D01*
X10035714Y-20880952D01*
X10035714Y-20690476D01*
X10083333Y-20595238D01*
D12*
X10714285Y-52000000D02*
X10857142Y-51714285D01*
X10857142Y-51142857D01*
X10714285Y-50857142D01*
X10428571Y-50714285D01*
X10285714Y-50714285D01*
X10000000Y-50857142D01*
X9857142Y-51142857D01*
X9857142Y-51571428D01*
X9714285Y-51857142D01*
X9428571Y-52000000D01*
X9285714Y-52000000D01*
X9000000Y-51857142D01*
X8857142Y-51571428D01*
X8857142Y-51142857D01*
X9000000Y-50857142D01*
X8857142Y-49428571D02*
X11857142Y-49428571D01*
X9000000Y-49428571D02*
X8857142Y-49142857D01*
X8857142Y-48571428D01*
X9000000Y-48285714D01*
X9142857Y-48142857D01*
X9428571Y-48000000D01*
X10285714Y-48000000D01*
X10571428Y-48142857D01*
X10714285Y-48285714D01*
X10857142Y-48571428D01*
X10857142Y-49142857D01*
X10714285Y-49428571D01*
X10857142Y-46285714D02*
X10714285Y-46571428D01*
X10428571Y-46714285D01*
X7857142Y-46714285D01*
X10857142Y-45142857D02*
X8857142Y-45142857D01*
X7857142Y-45142857D02*
X8000000Y-45285714D01*
X8142857Y-45142857D01*
X8000000Y-45000000D01*
X7857142Y-45142857D01*
X8142857Y-45142857D01*
X8857142Y-44142857D02*
X8857142Y-43000000D01*
X7857142Y-43714285D02*
X10428571Y-43714285D01*
X10714285Y-43571428D01*
X10857142Y-43285714D01*
X10857142Y-43000000D01*
X10857142Y-42000000D02*
X8857142Y-42000000D01*
X9428571Y-42000000D02*
X9142857Y-41857142D01*
X9000000Y-41714285D01*
X8857142Y-41428571D01*
X8857142Y-41142857D01*
X10714285Y-39000000D02*
X10857142Y-39285714D01*
X10857142Y-39857142D01*
X10714285Y-40142857D01*
X10428571Y-40285714D01*
X9285714Y-40285714D01*
X9000000Y-40142857D01*
X8857142Y-39857142D01*
X8857142Y-39285714D01*
X9000000Y-39000000D01*
X9285714Y-38857142D01*
X9571428Y-38857142D01*
X9857142Y-40285714D01*
X8857142Y-36285714D02*
X10857142Y-36285714D01*
X8857142Y-37571428D02*
X10428571Y-37571428D01*
X10714285Y-37428571D01*
X10857142Y-37142857D01*
X10857142Y-36714285D01*
X10714285Y-36428571D01*
X10571428Y-36285714D01*
X10714285Y-35000000D02*
X10857142Y-34714285D01*
X10857142Y-34142857D01*
X10714285Y-33857142D01*
X10428571Y-33714285D01*
X10285714Y-33714285D01*
X10000000Y-33857142D01*
X9857142Y-34142857D01*
X9857142Y-34571428D01*
X9714285Y-34857142D01*
X9428571Y-35000000D01*
X9285714Y-35000000D01*
X9000000Y-34857142D01*
X8857142Y-34571428D01*
X8857142Y-34142857D01*
X9000000Y-33857142D01*
X7857142Y-31142857D02*
X7857142Y-31714285D01*
X8000000Y-32000000D01*
X8142857Y-32142857D01*
X8571428Y-32428571D01*
X9142857Y-32571428D01*
X10285714Y-32571428D01*
X10571428Y-32428571D01*
X10714285Y-32285714D01*
X10857142Y-32000000D01*
X10857142Y-31428571D01*
X10714285Y-31142857D01*
X10571428Y-31000000D01*
X10285714Y-30857142D01*
X9571428Y-30857142D01*
X9285714Y-31000000D01*
X9142857Y-31142857D01*
X9000000Y-31428571D01*
X9000000Y-32000000D01*
X9142857Y-32285714D01*
X9285714Y-32428571D01*
X9571428Y-32571428D01*
X8142857Y-29714285D02*
X8000000Y-29571428D01*
X7857142Y-29285714D01*
X7857142Y-28571428D01*
X8000000Y-28285714D01*
X8142857Y-28142857D01*
X8428571Y-28000000D01*
X8714285Y-28000000D01*
X9142857Y-28142857D01*
X10857142Y-29857142D01*
X10857142Y-28000000D01*
D13*
X98238000Y-65778000D02*
X99762000Y-65778000D01*
X99762000Y-65397000D02*
X98238000Y-65397000D01*
X99762000Y-65270000D02*
X98238000Y-65270000D01*
X98238000Y-70350000D02*
X99762000Y-70350000D01*
X99762000Y-65651000D02*
X98238000Y-65651000D01*
X99762000Y-66032000D02*
X98238000Y-66032000D01*
X98238000Y-65270000D02*
X98238000Y-70350000D01*
X99762000Y-70350000D02*
X99762000Y-65270000D01*
X98238000Y-65524000D02*
X99762000Y-65524000D01*
X99762000Y-65905000D02*
X98238000Y-65905000D01*
X98238000Y-54978000D02*
X99762000Y-54978000D01*
X99762000Y-54597000D02*
X98238000Y-54597000D01*
X99762000Y-54470000D02*
X98238000Y-54470000D01*
X98238000Y-59550000D02*
X99762000Y-59550000D01*
X99762000Y-54851000D02*
X98238000Y-54851000D01*
X99762000Y-55232000D02*
X98238000Y-55232000D01*
X98238000Y-54470000D02*
X98238000Y-59550000D01*
X99762000Y-59550000D02*
X99762000Y-54470000D01*
X98238000Y-54724000D02*
X99762000Y-54724000D01*
X99762000Y-55105000D02*
X98238000Y-55105000D01*
X92022000Y-61738000D02*
X92022000Y-63262000D01*
X92403000Y-63262000D02*
X92403000Y-61738000D01*
X92530000Y-63262000D02*
X92530000Y-61738000D01*
X87450000Y-61738000D02*
X87450000Y-63262000D01*
X92149000Y-63262000D02*
X92149000Y-61738000D01*
X91768000Y-63262000D02*
X91768000Y-61738000D01*
X92530000Y-61738000D02*
X87450000Y-61738000D01*
X87450000Y-63262000D02*
X92530000Y-63262000D01*
X92276000Y-61738000D02*
X92276000Y-63262000D01*
X91895000Y-63262000D02*
X91895000Y-61738000D01*
X92022000Y-44738000D02*
X92022000Y-46262000D01*
X92403000Y-46262000D02*
X92403000Y-44738000D01*
X92530000Y-46262000D02*
X92530000Y-44738000D01*
X87450000Y-44738000D02*
X87450000Y-46262000D01*
X92149000Y-46262000D02*
X92149000Y-44738000D01*
X91768000Y-46262000D02*
X91768000Y-44738000D01*
X92530000Y-44738000D02*
X87450000Y-44738000D01*
X87450000Y-46262000D02*
X92530000Y-46262000D01*
X92276000Y-44738000D02*
X92276000Y-46262000D01*
X91895000Y-46262000D02*
X91895000Y-44738000D01*
X92022000Y-27738000D02*
X92022000Y-29262000D01*
X92403000Y-29262000D02*
X92403000Y-27738000D01*
X92530000Y-29262000D02*
X92530000Y-27738000D01*
X87450000Y-27738000D02*
X87450000Y-29262000D01*
X92149000Y-29262000D02*
X92149000Y-27738000D01*
X91768000Y-29262000D02*
X91768000Y-27738000D01*
X92530000Y-27738000D02*
X87450000Y-27738000D01*
X87450000Y-29262000D02*
X92530000Y-29262000D01*
X92276000Y-27738000D02*
X92276000Y-29262000D01*
X91895000Y-29262000D02*
X91895000Y-27738000D01*
X92022000Y-10738000D02*
X92022000Y-12262000D01*
X92403000Y-12262000D02*
X92403000Y-10738000D01*
X92530000Y-12262000D02*
X92530000Y-10738000D01*
X87450000Y-10738000D02*
X87450000Y-12262000D01*
X92149000Y-12262000D02*
X92149000Y-10738000D01*
X91768000Y-12262000D02*
X91768000Y-10738000D01*
X92530000Y-10738000D02*
X87450000Y-10738000D01*
X87450000Y-12262000D02*
X92530000Y-12262000D01*
X92276000Y-10738000D02*
X92276000Y-12262000D01*
X91895000Y-12262000D02*
X91895000Y-10738000D01*
X80238000Y-64178000D02*
X81762000Y-64178000D01*
X81762000Y-63797000D02*
X80238000Y-63797000D01*
X81762000Y-63670000D02*
X80238000Y-63670000D01*
X80238000Y-68750000D02*
X81762000Y-68750000D01*
X81762000Y-64051000D02*
X80238000Y-64051000D01*
X81762000Y-64432000D02*
X80238000Y-64432000D01*
X80238000Y-63670000D02*
X80238000Y-68750000D01*
X81762000Y-68750000D02*
X81762000Y-63670000D01*
X80238000Y-63924000D02*
X81762000Y-63924000D01*
X81762000Y-64305000D02*
X80238000Y-64305000D01*
X74022000Y-56738000D02*
X74022000Y-58262000D01*
X74403000Y-58262000D02*
X74403000Y-56738000D01*
X74530000Y-58262000D02*
X74530000Y-56738000D01*
X69450000Y-56738000D02*
X69450000Y-58262000D01*
X74149000Y-58262000D02*
X74149000Y-56738000D01*
X73768000Y-58262000D02*
X73768000Y-56738000D01*
X74530000Y-56738000D02*
X69450000Y-56738000D01*
X69450000Y-58262000D02*
X74530000Y-58262000D01*
X74276000Y-56738000D02*
X74276000Y-58262000D01*
X73895000Y-58262000D02*
X73895000Y-56738000D01*
X74022000Y-39738000D02*
X74022000Y-41262000D01*
X74403000Y-41262000D02*
X74403000Y-39738000D01*
X74530000Y-41262000D02*
X74530000Y-39738000D01*
X69450000Y-39738000D02*
X69450000Y-41262000D01*
X74149000Y-41262000D02*
X74149000Y-39738000D01*
X73768000Y-41262000D02*
X73768000Y-39738000D01*
X74530000Y-39738000D02*
X69450000Y-39738000D01*
X69450000Y-41262000D02*
X74530000Y-41262000D01*
X74276000Y-39738000D02*
X74276000Y-41262000D01*
X73895000Y-41262000D02*
X73895000Y-39738000D01*
X74022000Y-22738000D02*
X74022000Y-24262000D01*
X74403000Y-24262000D02*
X74403000Y-22738000D01*
X74530000Y-24262000D02*
X74530000Y-22738000D01*
X69450000Y-22738000D02*
X69450000Y-24262000D01*
X74149000Y-24262000D02*
X74149000Y-22738000D01*
X73768000Y-24262000D02*
X73768000Y-22738000D01*
X74530000Y-22738000D02*
X69450000Y-22738000D01*
X69450000Y-24262000D02*
X74530000Y-24262000D01*
X74276000Y-22738000D02*
X74276000Y-24262000D01*
X73895000Y-24262000D02*
X73895000Y-22738000D01*
X74022000Y-5738000D02*
X74022000Y-7262000D01*
X74403000Y-7262000D02*
X74403000Y-5738000D01*
X74530000Y-7262000D02*
X74530000Y-5738000D01*
X69450000Y-5738000D02*
X69450000Y-7262000D01*
X74149000Y-7262000D02*
X74149000Y-5738000D01*
X73768000Y-7262000D02*
X73768000Y-5738000D01*
X74530000Y-5738000D02*
X69450000Y-5738000D01*
X69450000Y-7262000D02*
X74530000Y-7262000D01*
X74276000Y-5738000D02*
X74276000Y-7262000D01*
X73895000Y-7262000D02*
X73895000Y-5738000D01*
X62238000Y-61678000D02*
X63762000Y-61678000D01*
X63762000Y-61297000D02*
X62238000Y-61297000D01*
X63762000Y-61170000D02*
X62238000Y-61170000D01*
X62238000Y-66250000D02*
X63762000Y-66250000D01*
X63762000Y-61551000D02*
X62238000Y-61551000D01*
X63762000Y-61932000D02*
X62238000Y-61932000D01*
X62238000Y-61170000D02*
X62238000Y-66250000D01*
X63762000Y-66250000D02*
X63762000Y-61170000D01*
X62238000Y-61424000D02*
X63762000Y-61424000D01*
X63762000Y-61805000D02*
X62238000Y-61805000D01*
X56022000Y-50738000D02*
X56022000Y-52262000D01*
X56403000Y-52262000D02*
X56403000Y-50738000D01*
X56530000Y-52262000D02*
X56530000Y-50738000D01*
X51450000Y-50738000D02*
X51450000Y-52262000D01*
X56149000Y-52262000D02*
X56149000Y-50738000D01*
X55768000Y-52262000D02*
X55768000Y-50738000D01*
X56530000Y-50738000D02*
X51450000Y-50738000D01*
X51450000Y-52262000D02*
X56530000Y-52262000D01*
X56276000Y-50738000D02*
X56276000Y-52262000D01*
X55895000Y-52262000D02*
X55895000Y-50738000D01*
X56022000Y-33738000D02*
X56022000Y-35262000D01*
X56403000Y-35262000D02*
X56403000Y-33738000D01*
X56530000Y-35262000D02*
X56530000Y-33738000D01*
X51450000Y-33738000D02*
X51450000Y-35262000D01*
X56149000Y-35262000D02*
X56149000Y-33738000D01*
X55768000Y-35262000D02*
X55768000Y-33738000D01*
X56530000Y-33738000D02*
X51450000Y-33738000D01*
X51450000Y-35262000D02*
X56530000Y-35262000D01*
X56276000Y-33738000D02*
X56276000Y-35262000D01*
X55895000Y-35262000D02*
X55895000Y-33738000D01*
X56022000Y-16738000D02*
X56022000Y-18262000D01*
X56403000Y-18262000D02*
X56403000Y-16738000D01*
X56530000Y-18262000D02*
X56530000Y-16738000D01*
X51450000Y-16738000D02*
X51450000Y-18262000D01*
X56149000Y-18262000D02*
X56149000Y-16738000D01*
X55768000Y-18262000D02*
X55768000Y-16738000D01*
X56530000Y-16738000D02*
X51450000Y-16738000D01*
X51450000Y-18262000D02*
X56530000Y-18262000D01*
X56276000Y-16738000D02*
X56276000Y-18262000D01*
X55895000Y-18262000D02*
X55895000Y-16738000D01*
X56022000Y262000D02*
X56022000Y-1262000D01*
X56403000Y-1262000D02*
X56403000Y262000D01*
X56530000Y-1262000D02*
X56530000Y262000D01*
X51450000Y262000D02*
X51450000Y-1262000D01*
X56149000Y-1262000D02*
X56149000Y262000D01*
X55768000Y-1262000D02*
X55768000Y262000D01*
X56530000Y262000D02*
X51450000Y262000D01*
X51450000Y-1262000D02*
X56530000Y-1262000D01*
X56276000Y262000D02*
X56276000Y-1262000D01*
X55895000Y-1262000D02*
X55895000Y262000D01*
X44238000Y-61678000D02*
X45762000Y-61678000D01*
X45762000Y-61297000D02*
X44238000Y-61297000D01*
X45762000Y-61170000D02*
X44238000Y-61170000D01*
X44238000Y-66250000D02*
X45762000Y-66250000D01*
X45762000Y-61551000D02*
X44238000Y-61551000D01*
X45762000Y-61932000D02*
X44238000Y-61932000D01*
X44238000Y-61170000D02*
X44238000Y-66250000D01*
X45762000Y-66250000D02*
X45762000Y-61170000D01*
X44238000Y-61424000D02*
X45762000Y-61424000D01*
X45762000Y-61805000D02*
X44238000Y-61805000D01*
X38122000Y-55738000D02*
X38122000Y-57262000D01*
X38503000Y-57262000D02*
X38503000Y-55738000D01*
X38630000Y-57262000D02*
X38630000Y-55738000D01*
X33550000Y-55738000D02*
X33550000Y-57262000D01*
X38249000Y-57262000D02*
X38249000Y-55738000D01*
X37868000Y-57262000D02*
X37868000Y-55738000D01*
X38630000Y-55738000D02*
X33550000Y-55738000D01*
X33550000Y-57262000D02*
X38630000Y-57262000D01*
X38376000Y-55738000D02*
X38376000Y-57262000D01*
X37995000Y-57262000D02*
X37995000Y-55738000D01*
X38122000Y-38738000D02*
X38122000Y-40262000D01*
X38503000Y-40262000D02*
X38503000Y-38738000D01*
X38630000Y-40262000D02*
X38630000Y-38738000D01*
X33550000Y-38738000D02*
X33550000Y-40262000D01*
X38249000Y-40262000D02*
X38249000Y-38738000D01*
X37868000Y-40262000D02*
X37868000Y-38738000D01*
X38630000Y-38738000D02*
X33550000Y-38738000D01*
X33550000Y-40262000D02*
X38630000Y-40262000D01*
X38376000Y-38738000D02*
X38376000Y-40262000D01*
X37995000Y-40262000D02*
X37995000Y-38738000D01*
X38122000Y-21738000D02*
X38122000Y-23262000D01*
X38503000Y-23262000D02*
X38503000Y-21738000D01*
X38630000Y-23262000D02*
X38630000Y-21738000D01*
X33550000Y-21738000D02*
X33550000Y-23262000D01*
X38249000Y-23262000D02*
X38249000Y-21738000D01*
X37868000Y-23262000D02*
X37868000Y-21738000D01*
X38630000Y-21738000D02*
X33550000Y-21738000D01*
X33550000Y-23262000D02*
X38630000Y-23262000D01*
X38376000Y-21738000D02*
X38376000Y-23262000D01*
X37995000Y-23262000D02*
X37995000Y-21738000D01*
X38122000Y-4763000D02*
X38122000Y-6287000D01*
X38503000Y-6287000D02*
X38503000Y-4763000D01*
X38630000Y-6287000D02*
X38630000Y-4763000D01*
X33550000Y-4763000D02*
X33550000Y-6287000D01*
X38249000Y-6287000D02*
X38249000Y-4763000D01*
X37868000Y-6287000D02*
X37868000Y-4763000D01*
X38630000Y-4763000D02*
X33550000Y-4763000D01*
X33550000Y-6287000D02*
X38630000Y-6287000D01*
X38376000Y-4763000D02*
X38376000Y-6287000D01*
X37995000Y-6287000D02*
X37995000Y-4763000D01*
X26238000Y-65978000D02*
X27762000Y-65978000D01*
X27762000Y-65597000D02*
X26238000Y-65597000D01*
X27762000Y-65470000D02*
X26238000Y-65470000D01*
X26238000Y-70550000D02*
X27762000Y-70550000D01*
X27762000Y-65851000D02*
X26238000Y-65851000D01*
X27762000Y-66232000D02*
X26238000Y-66232000D01*
X26238000Y-65470000D02*
X26238000Y-70550000D01*
X27762000Y-70550000D02*
X27762000Y-65470000D01*
X26238000Y-65724000D02*
X27762000Y-65724000D01*
X27762000Y-66105000D02*
X26238000Y-66105000D01*
X20072000Y-58738000D02*
X20072000Y-60262000D01*
X20453000Y-60262000D02*
X20453000Y-58738000D01*
X20580000Y-60262000D02*
X20580000Y-58738000D01*
X15500000Y-58738000D02*
X15500000Y-60262000D01*
X20199000Y-60262000D02*
X20199000Y-58738000D01*
X19818000Y-60262000D02*
X19818000Y-58738000D01*
X20580000Y-58738000D02*
X15500000Y-58738000D01*
X15500000Y-60262000D02*
X20580000Y-60262000D01*
X20326000Y-58738000D02*
X20326000Y-60262000D01*
X19945000Y-60262000D02*
X19945000Y-58738000D01*
X20072000Y-41738000D02*
X20072000Y-43262000D01*
X20453000Y-43262000D02*
X20453000Y-41738000D01*
X20580000Y-43262000D02*
X20580000Y-41738000D01*
X15500000Y-41738000D02*
X15500000Y-43262000D01*
X20199000Y-43262000D02*
X20199000Y-41738000D01*
X19818000Y-43262000D02*
X19818000Y-41738000D01*
X20580000Y-41738000D02*
X15500000Y-41738000D01*
X15500000Y-43262000D02*
X20580000Y-43262000D01*
X20326000Y-41738000D02*
X20326000Y-43262000D01*
X19945000Y-43262000D02*
X19945000Y-41738000D01*
X20072000Y-24738000D02*
X20072000Y-26262000D01*
X20453000Y-26262000D02*
X20453000Y-24738000D01*
X20580000Y-26262000D02*
X20580000Y-24738000D01*
X15500000Y-24738000D02*
X15500000Y-26262000D01*
X20199000Y-26262000D02*
X20199000Y-24738000D01*
X19818000Y-26262000D02*
X19818000Y-24738000D01*
X20580000Y-24738000D02*
X15500000Y-24738000D01*
X15500000Y-26262000D02*
X20580000Y-26262000D01*
X20326000Y-24738000D02*
X20326000Y-26262000D01*
X19945000Y-26262000D02*
X19945000Y-24738000D01*
X20072000Y-7738000D02*
X20072000Y-9262000D01*
X20453000Y-9262000D02*
X20453000Y-7738000D01*
X20580000Y-9262000D02*
X20580000Y-7738000D01*
X15500000Y-7738000D02*
X15500000Y-9262000D01*
X20199000Y-9262000D02*
X20199000Y-7738000D01*
X19818000Y-9262000D02*
X19818000Y-7738000D01*
X20580000Y-7738000D02*
X15500000Y-7738000D01*
X15500000Y-9262000D02*
X20580000Y-9262000D01*
X20326000Y-7738000D02*
X20326000Y-9262000D01*
X19945000Y-9262000D02*
X19945000Y-7738000D01*
X8263000Y-65978000D02*
X9787000Y-65978000D01*
X9787000Y-65597000D02*
X8263000Y-65597000D01*
X9787000Y-65470000D02*
X8263000Y-65470000D01*
X8263000Y-70550000D02*
X9787000Y-70550000D01*
X9787000Y-65851000D02*
X8263000Y-65851000D01*
X9787000Y-66232000D02*
X8263000Y-66232000D01*
X8263000Y-65470000D02*
X8263000Y-70550000D01*
X9787000Y-70550000D02*
X9787000Y-65470000D01*
X8263000Y-65724000D02*
X9787000Y-65724000D01*
X9787000Y-66105000D02*
X8263000Y-66105000D01*
X2022000Y-58738000D02*
X2022000Y-60262000D01*
X2403000Y-60262000D02*
X2403000Y-58738000D01*
X2530000Y-60262000D02*
X2530000Y-58738000D01*
X-2550000Y-58738000D02*
X-2550000Y-60262000D01*
X2149000Y-60262000D02*
X2149000Y-58738000D01*
X1768000Y-60262000D02*
X1768000Y-58738000D01*
X2530000Y-58738000D02*
X-2550000Y-58738000D01*
X-2550000Y-60262000D02*
X2530000Y-60262000D01*
X2276000Y-58738000D02*
X2276000Y-60262000D01*
X1895000Y-60262000D02*
X1895000Y-58738000D01*
X2022000Y-41738000D02*
X2022000Y-43262000D01*
X2403000Y-43262000D02*
X2403000Y-41738000D01*
X2530000Y-43262000D02*
X2530000Y-41738000D01*
X-2550000Y-41738000D02*
X-2550000Y-43262000D01*
X2149000Y-43262000D02*
X2149000Y-41738000D01*
X1768000Y-43262000D02*
X1768000Y-41738000D01*
X2530000Y-41738000D02*
X-2550000Y-41738000D01*
X-2550000Y-43262000D02*
X2530000Y-43262000D01*
X2276000Y-41738000D02*
X2276000Y-43262000D01*
X1895000Y-43262000D02*
X1895000Y-41738000D01*
X2022000Y-24738000D02*
X2022000Y-26262000D01*
X2403000Y-26262000D02*
X2403000Y-24738000D01*
X2530000Y-26262000D02*
X2530000Y-24738000D01*
X-2550000Y-24738000D02*
X-2550000Y-26262000D01*
X2149000Y-26262000D02*
X2149000Y-24738000D01*
X1768000Y-26262000D02*
X1768000Y-24738000D01*
X2530000Y-24738000D02*
X-2550000Y-24738000D01*
X-2550000Y-26262000D02*
X2530000Y-26262000D01*
X2276000Y-24738000D02*
X2276000Y-26262000D01*
X1895000Y-26262000D02*
X1895000Y-24738000D01*
X2022000Y-7738000D02*
X2022000Y-9262000D01*
X2403000Y-9262000D02*
X2403000Y-7738000D01*
X2530000Y-9262000D02*
X2530000Y-7738000D01*
X-2550000Y-7738000D02*
X-2550000Y-9262000D01*
X2149000Y-9262000D02*
X2149000Y-7738000D01*
X1768000Y-9262000D02*
X1768000Y-7738000D01*
X2530000Y-7738000D02*
X-2550000Y-7738000D01*
X-2550000Y-9262000D02*
X2530000Y-9262000D01*
X2276000Y-7738000D02*
X2276000Y-9262000D01*
X1895000Y-9262000D02*
X1895000Y-7738000D01*
X107376480Y-45194000D02*
X119376480Y-45194000D01*
X107376480Y-51194000D02*
X107376480Y-45194000D01*
X119376480Y-51194000D02*
X107376480Y-51194000D01*
X119376480Y-45194000D02*
X119376480Y-45694000D01*
X119376480Y-50694000D02*
X121276480Y-50694000D01*
X119376480Y-45694000D02*
X121276480Y-45694000D01*
X119376480Y-51194000D02*
X119376480Y-50694000D01*
X121276480Y-45694000D02*
X121276480Y-50694000D01*
X110999560Y-40157440D02*
X114809560Y-40157440D01*
X110999560Y-37617440D02*
X110999560Y-40157440D01*
X114809560Y-37617440D02*
X110999560Y-37617440D01*
X114809560Y-40157440D02*
X114809560Y-37617440D01*
X109790520Y-37597120D02*
X105980520Y-37597120D01*
X109790520Y-40137120D02*
X109790520Y-37597120D01*
X105980520Y-40137120D02*
X109790520Y-40137120D01*
X105980520Y-37597120D02*
X105980520Y-40137120D01*
X100944560Y-50329160D02*
X101644560Y-50329160D01*
X104444560Y-50329160D02*
X103844560Y-50329160D01*
X104444560Y-44329160D02*
X103844560Y-44329160D01*
X100944560Y-44329160D02*
X101644560Y-44329160D01*
X104444560Y-50329160D02*
X104444560Y-44329160D01*
X100944560Y-44329160D02*
X100944560Y-50329160D01*
X103266680Y-40073720D02*
X100726680Y-40073720D01*
X103266680Y-9593720D02*
X103266680Y-40073720D01*
X100726680Y-9593720D02*
X103266680Y-9593720D01*
X115966680Y-40073720D02*
X115966680Y-9593720D01*
X118506680Y-40073720D02*
X115966680Y-40073720D01*
X115966680Y-9593720D02*
X118506680Y-9593720D01*
X100726680Y-40073720D02*
X100726680Y-7053720D01*
X118506680Y-7053720D02*
X118506680Y-40073720D01*
X100726680Y-7053720D02*
X118506680Y-7053720D01*
D14*
X100706680Y-11953720D02*
X103236680Y-11953720D01*
D15*
G36*
X100776680Y-9643720D02*
G01*
X103216680Y-9663720D01*
X103206680Y-11913720D01*
X100796680Y-11913720D01*
X100786680Y-11923720D01*
X100776680Y-9643720D01*
G37*
X100776680Y-9643720D02*
X103216680Y-9663720D01*
X103206680Y-11913720D01*
X100796680Y-11913720D01*
X100786680Y-11923720D01*
X100776680Y-9643720D01*
D13*
X100711904Y-65771428D02*
X99911904Y-65771428D01*
X99911904Y-65580952D01*
X99950000Y-65466666D01*
X100026190Y-65390476D01*
X100102380Y-65352380D01*
X100254761Y-65314285D01*
X100369047Y-65314285D01*
X100521428Y-65352380D01*
X100597619Y-65390476D01*
X100673809Y-65466666D01*
X100711904Y-65580952D01*
X100711904Y-65771428D01*
X99911904Y-65047619D02*
X99911904Y-64552380D01*
X100216666Y-64819047D01*
X100216666Y-64704761D01*
X100254761Y-64628571D01*
X100292857Y-64590476D01*
X100369047Y-64552380D01*
X100559523Y-64552380D01*
X100635714Y-64590476D01*
X100673809Y-64628571D01*
X100711904Y-64704761D01*
X100711904Y-64933333D01*
X100673809Y-65009523D01*
X100635714Y-65047619D01*
X99911904Y-64057142D02*
X99911904Y-63980952D01*
X99950000Y-63904761D01*
X99988095Y-63866666D01*
X100064285Y-63828571D01*
X100216666Y-63790476D01*
X100407142Y-63790476D01*
X100559523Y-63828571D01*
X100635714Y-63866666D01*
X100673809Y-63904761D01*
X100711904Y-63980952D01*
X100711904Y-64057142D01*
X100673809Y-64133333D01*
X100635714Y-64171428D01*
X100559523Y-64209523D01*
X100407142Y-64247619D01*
X100216666Y-64247619D01*
X100064285Y-64209523D01*
X99988095Y-64171428D01*
X99950000Y-64133333D01*
X99911904Y-64057142D01*
X100711904Y-54971428D02*
X99911904Y-54971428D01*
X99911904Y-54780952D01*
X99950000Y-54666666D01*
X100026190Y-54590476D01*
X100102380Y-54552380D01*
X100254761Y-54514285D01*
X100369047Y-54514285D01*
X100521428Y-54552380D01*
X100597619Y-54590476D01*
X100673809Y-54666666D01*
X100711904Y-54780952D01*
X100711904Y-54971428D01*
X99988095Y-54209523D02*
X99950000Y-54171428D01*
X99911904Y-54095238D01*
X99911904Y-53904761D01*
X99950000Y-53828571D01*
X99988095Y-53790476D01*
X100064285Y-53752380D01*
X100140476Y-53752380D01*
X100254761Y-53790476D01*
X100711904Y-54247619D01*
X100711904Y-53752380D01*
X100711904Y-53371428D02*
X100711904Y-53219047D01*
X100673809Y-53142857D01*
X100635714Y-53104761D01*
X100521428Y-53028571D01*
X100369047Y-52990476D01*
X100064285Y-52990476D01*
X99988095Y-53028571D01*
X99950000Y-53066666D01*
X99911904Y-53142857D01*
X99911904Y-53295238D01*
X99950000Y-53371428D01*
X99988095Y-53409523D01*
X100064285Y-53447619D01*
X100254761Y-53447619D01*
X100330952Y-53409523D01*
X100369047Y-53371428D01*
X100407142Y-53295238D01*
X100407142Y-53142857D01*
X100369047Y-53066666D01*
X100330952Y-53028571D01*
X100254761Y-52990476D01*
X92028571Y-64211904D02*
X92028571Y-63411904D01*
X92219047Y-63411904D01*
X92333333Y-63450000D01*
X92409523Y-63526190D01*
X92447619Y-63602380D01*
X92485714Y-63754761D01*
X92485714Y-63869047D01*
X92447619Y-64021428D01*
X92409523Y-64097619D01*
X92333333Y-64173809D01*
X92219047Y-64211904D01*
X92028571Y-64211904D01*
X92790476Y-63488095D02*
X92828571Y-63450000D01*
X92904761Y-63411904D01*
X93095238Y-63411904D01*
X93171428Y-63450000D01*
X93209523Y-63488095D01*
X93247619Y-63564285D01*
X93247619Y-63640476D01*
X93209523Y-63754761D01*
X92752380Y-64211904D01*
X93247619Y-64211904D01*
X93704761Y-63754761D02*
X93628571Y-63716666D01*
X93590476Y-63678571D01*
X93552380Y-63602380D01*
X93552380Y-63564285D01*
X93590476Y-63488095D01*
X93628571Y-63450000D01*
X93704761Y-63411904D01*
X93857142Y-63411904D01*
X93933333Y-63450000D01*
X93971428Y-63488095D01*
X94009523Y-63564285D01*
X94009523Y-63602380D01*
X93971428Y-63678571D01*
X93933333Y-63716666D01*
X93857142Y-63754761D01*
X93704761Y-63754761D01*
X93628571Y-63792857D01*
X93590476Y-63830952D01*
X93552380Y-63907142D01*
X93552380Y-64059523D01*
X93590476Y-64135714D01*
X93628571Y-64173809D01*
X93704761Y-64211904D01*
X93857142Y-64211904D01*
X93933333Y-64173809D01*
X93971428Y-64135714D01*
X94009523Y-64059523D01*
X94009523Y-63907142D01*
X93971428Y-63830952D01*
X93933333Y-63792857D01*
X93857142Y-63754761D01*
X92028571Y-47211904D02*
X92028571Y-46411904D01*
X92219047Y-46411904D01*
X92333333Y-46450000D01*
X92409523Y-46526190D01*
X92447619Y-46602380D01*
X92485714Y-46754761D01*
X92485714Y-46869047D01*
X92447619Y-47021428D01*
X92409523Y-47097619D01*
X92333333Y-47173809D01*
X92219047Y-47211904D01*
X92028571Y-47211904D01*
X92790476Y-46488095D02*
X92828571Y-46450000D01*
X92904761Y-46411904D01*
X93095238Y-46411904D01*
X93171428Y-46450000D01*
X93209523Y-46488095D01*
X93247619Y-46564285D01*
X93247619Y-46640476D01*
X93209523Y-46754761D01*
X92752380Y-47211904D01*
X93247619Y-47211904D01*
X93514285Y-46411904D02*
X94047619Y-46411904D01*
X93704761Y-47211904D01*
X92028571Y-30211904D02*
X92028571Y-29411904D01*
X92219047Y-29411904D01*
X92333333Y-29450000D01*
X92409523Y-29526190D01*
X92447619Y-29602380D01*
X92485714Y-29754761D01*
X92485714Y-29869047D01*
X92447619Y-30021428D01*
X92409523Y-30097619D01*
X92333333Y-30173809D01*
X92219047Y-30211904D01*
X92028571Y-30211904D01*
X92790476Y-29488095D02*
X92828571Y-29450000D01*
X92904761Y-29411904D01*
X93095238Y-29411904D01*
X93171428Y-29450000D01*
X93209523Y-29488095D01*
X93247619Y-29564285D01*
X93247619Y-29640476D01*
X93209523Y-29754761D01*
X92752380Y-30211904D01*
X93247619Y-30211904D01*
X93933333Y-29411904D02*
X93780952Y-29411904D01*
X93704761Y-29450000D01*
X93666666Y-29488095D01*
X93590476Y-29602380D01*
X93552380Y-29754761D01*
X93552380Y-30059523D01*
X93590476Y-30135714D01*
X93628571Y-30173809D01*
X93704761Y-30211904D01*
X93857142Y-30211904D01*
X93933333Y-30173809D01*
X93971428Y-30135714D01*
X94009523Y-30059523D01*
X94009523Y-29869047D01*
X93971428Y-29792857D01*
X93933333Y-29754761D01*
X93857142Y-29716666D01*
X93704761Y-29716666D01*
X93628571Y-29754761D01*
X93590476Y-29792857D01*
X93552380Y-29869047D01*
X92028571Y-13211904D02*
X92028571Y-12411904D01*
X92219047Y-12411904D01*
X92333333Y-12450000D01*
X92409523Y-12526190D01*
X92447619Y-12602380D01*
X92485714Y-12754761D01*
X92485714Y-12869047D01*
X92447619Y-13021428D01*
X92409523Y-13097619D01*
X92333333Y-13173809D01*
X92219047Y-13211904D01*
X92028571Y-13211904D01*
X92790476Y-12488095D02*
X92828571Y-12450000D01*
X92904761Y-12411904D01*
X93095238Y-12411904D01*
X93171428Y-12450000D01*
X93209523Y-12488095D01*
X93247619Y-12564285D01*
X93247619Y-12640476D01*
X93209523Y-12754761D01*
X92752380Y-13211904D01*
X93247619Y-13211904D01*
X93971428Y-12411904D02*
X93590476Y-12411904D01*
X93552380Y-12792857D01*
X93590476Y-12754761D01*
X93666666Y-12716666D01*
X93857142Y-12716666D01*
X93933333Y-12754761D01*
X93971428Y-12792857D01*
X94009523Y-12869047D01*
X94009523Y-13059523D01*
X93971428Y-13135714D01*
X93933333Y-13173809D01*
X93857142Y-13211904D01*
X93666666Y-13211904D01*
X93590476Y-13173809D01*
X93552380Y-13135714D01*
X82711904Y-64171428D02*
X81911904Y-64171428D01*
X81911904Y-63980952D01*
X81950000Y-63866666D01*
X82026190Y-63790476D01*
X82102380Y-63752380D01*
X82254761Y-63714285D01*
X82369047Y-63714285D01*
X82521428Y-63752380D01*
X82597619Y-63790476D01*
X82673809Y-63866666D01*
X82711904Y-63980952D01*
X82711904Y-64171428D01*
X81988095Y-63409523D02*
X81950000Y-63371428D01*
X81911904Y-63295238D01*
X81911904Y-63104761D01*
X81950000Y-63028571D01*
X81988095Y-62990476D01*
X82064285Y-62952380D01*
X82140476Y-62952380D01*
X82254761Y-62990476D01*
X82711904Y-63447619D01*
X82711904Y-62952380D01*
X82178571Y-62266666D02*
X82711904Y-62266666D01*
X81873809Y-62457142D02*
X82445238Y-62647619D01*
X82445238Y-62152380D01*
X74028571Y-59211904D02*
X74028571Y-58411904D01*
X74219047Y-58411904D01*
X74333333Y-58450000D01*
X74409523Y-58526190D01*
X74447619Y-58602380D01*
X74485714Y-58754761D01*
X74485714Y-58869047D01*
X74447619Y-59021428D01*
X74409523Y-59097619D01*
X74333333Y-59173809D01*
X74219047Y-59211904D01*
X74028571Y-59211904D01*
X74790476Y-58488095D02*
X74828571Y-58450000D01*
X74904761Y-58411904D01*
X75095238Y-58411904D01*
X75171428Y-58450000D01*
X75209523Y-58488095D01*
X75247619Y-58564285D01*
X75247619Y-58640476D01*
X75209523Y-58754761D01*
X74752380Y-59211904D01*
X75247619Y-59211904D01*
X75514285Y-58411904D02*
X76009523Y-58411904D01*
X75742857Y-58716666D01*
X75857142Y-58716666D01*
X75933333Y-58754761D01*
X75971428Y-58792857D01*
X76009523Y-58869047D01*
X76009523Y-59059523D01*
X75971428Y-59135714D01*
X75933333Y-59173809D01*
X75857142Y-59211904D01*
X75628571Y-59211904D01*
X75552380Y-59173809D01*
X75514285Y-59135714D01*
X74028571Y-42211904D02*
X74028571Y-41411904D01*
X74219047Y-41411904D01*
X74333333Y-41450000D01*
X74409523Y-41526190D01*
X74447619Y-41602380D01*
X74485714Y-41754761D01*
X74485714Y-41869047D01*
X74447619Y-42021428D01*
X74409523Y-42097619D01*
X74333333Y-42173809D01*
X74219047Y-42211904D01*
X74028571Y-42211904D01*
X74790476Y-41488095D02*
X74828571Y-41450000D01*
X74904761Y-41411904D01*
X75095238Y-41411904D01*
X75171428Y-41450000D01*
X75209523Y-41488095D01*
X75247619Y-41564285D01*
X75247619Y-41640476D01*
X75209523Y-41754761D01*
X74752380Y-42211904D01*
X75247619Y-42211904D01*
X75552380Y-41488095D02*
X75590476Y-41450000D01*
X75666666Y-41411904D01*
X75857142Y-41411904D01*
X75933333Y-41450000D01*
X75971428Y-41488095D01*
X76009523Y-41564285D01*
X76009523Y-41640476D01*
X75971428Y-41754761D01*
X75514285Y-42211904D01*
X76009523Y-42211904D01*
X74028571Y-25211904D02*
X74028571Y-24411904D01*
X74219047Y-24411904D01*
X74333333Y-24450000D01*
X74409523Y-24526190D01*
X74447619Y-24602380D01*
X74485714Y-24754761D01*
X74485714Y-24869047D01*
X74447619Y-25021428D01*
X74409523Y-25097619D01*
X74333333Y-25173809D01*
X74219047Y-25211904D01*
X74028571Y-25211904D01*
X74790476Y-24488095D02*
X74828571Y-24450000D01*
X74904761Y-24411904D01*
X75095238Y-24411904D01*
X75171428Y-24450000D01*
X75209523Y-24488095D01*
X75247619Y-24564285D01*
X75247619Y-24640476D01*
X75209523Y-24754761D01*
X74752380Y-25211904D01*
X75247619Y-25211904D01*
X76009523Y-25211904D02*
X75552380Y-25211904D01*
X75780952Y-25211904D02*
X75780952Y-24411904D01*
X75704761Y-24526190D01*
X75628571Y-24602380D01*
X75552380Y-24640476D01*
X74028571Y-8211904D02*
X74028571Y-7411904D01*
X74219047Y-7411904D01*
X74333333Y-7450000D01*
X74409523Y-7526190D01*
X74447619Y-7602380D01*
X74485714Y-7754761D01*
X74485714Y-7869047D01*
X74447619Y-8021428D01*
X74409523Y-8097619D01*
X74333333Y-8173809D01*
X74219047Y-8211904D01*
X74028571Y-8211904D01*
X74790476Y-7488095D02*
X74828571Y-7450000D01*
X74904761Y-7411904D01*
X75095238Y-7411904D01*
X75171428Y-7450000D01*
X75209523Y-7488095D01*
X75247619Y-7564285D01*
X75247619Y-7640476D01*
X75209523Y-7754761D01*
X74752380Y-8211904D01*
X75247619Y-8211904D01*
X75742857Y-7411904D02*
X75819047Y-7411904D01*
X75895238Y-7450000D01*
X75933333Y-7488095D01*
X75971428Y-7564285D01*
X76009523Y-7716666D01*
X76009523Y-7907142D01*
X75971428Y-8059523D01*
X75933333Y-8135714D01*
X75895238Y-8173809D01*
X75819047Y-8211904D01*
X75742857Y-8211904D01*
X75666666Y-8173809D01*
X75628571Y-8135714D01*
X75590476Y-8059523D01*
X75552380Y-7907142D01*
X75552380Y-7716666D01*
X75590476Y-7564285D01*
X75628571Y-7488095D01*
X75666666Y-7450000D01*
X75742857Y-7411904D01*
X64711904Y-61671428D02*
X63911904Y-61671428D01*
X63911904Y-61480952D01*
X63950000Y-61366666D01*
X64026190Y-61290476D01*
X64102380Y-61252380D01*
X64254761Y-61214285D01*
X64369047Y-61214285D01*
X64521428Y-61252380D01*
X64597619Y-61290476D01*
X64673809Y-61366666D01*
X64711904Y-61480952D01*
X64711904Y-61671428D01*
X64711904Y-60452380D02*
X64711904Y-60909523D01*
X64711904Y-60680952D02*
X63911904Y-60680952D01*
X64026190Y-60757142D01*
X64102380Y-60833333D01*
X64140476Y-60909523D01*
X64711904Y-60071428D02*
X64711904Y-59919047D01*
X64673809Y-59842857D01*
X64635714Y-59804761D01*
X64521428Y-59728571D01*
X64369047Y-59690476D01*
X64064285Y-59690476D01*
X63988095Y-59728571D01*
X63950000Y-59766666D01*
X63911904Y-59842857D01*
X63911904Y-59995238D01*
X63950000Y-60071428D01*
X63988095Y-60109523D01*
X64064285Y-60147619D01*
X64254761Y-60147619D01*
X64330952Y-60109523D01*
X64369047Y-60071428D01*
X64407142Y-59995238D01*
X64407142Y-59842857D01*
X64369047Y-59766666D01*
X64330952Y-59728571D01*
X64254761Y-59690476D01*
X56028571Y-53211904D02*
X56028571Y-52411904D01*
X56219047Y-52411904D01*
X56333333Y-52450000D01*
X56409523Y-52526190D01*
X56447619Y-52602380D01*
X56485714Y-52754761D01*
X56485714Y-52869047D01*
X56447619Y-53021428D01*
X56409523Y-53097619D01*
X56333333Y-53173809D01*
X56219047Y-53211904D01*
X56028571Y-53211904D01*
X57247619Y-53211904D02*
X56790476Y-53211904D01*
X57019047Y-53211904D02*
X57019047Y-52411904D01*
X56942857Y-52526190D01*
X56866666Y-52602380D01*
X56790476Y-52640476D01*
X57704761Y-52754761D02*
X57628571Y-52716666D01*
X57590476Y-52678571D01*
X57552380Y-52602380D01*
X57552380Y-52564285D01*
X57590476Y-52488095D01*
X57628571Y-52450000D01*
X57704761Y-52411904D01*
X57857142Y-52411904D01*
X57933333Y-52450000D01*
X57971428Y-52488095D01*
X58009523Y-52564285D01*
X58009523Y-52602380D01*
X57971428Y-52678571D01*
X57933333Y-52716666D01*
X57857142Y-52754761D01*
X57704761Y-52754761D01*
X57628571Y-52792857D01*
X57590476Y-52830952D01*
X57552380Y-52907142D01*
X57552380Y-53059523D01*
X57590476Y-53135714D01*
X57628571Y-53173809D01*
X57704761Y-53211904D01*
X57857142Y-53211904D01*
X57933333Y-53173809D01*
X57971428Y-53135714D01*
X58009523Y-53059523D01*
X58009523Y-52907142D01*
X57971428Y-52830952D01*
X57933333Y-52792857D01*
X57857142Y-52754761D01*
X56028571Y-36211904D02*
X56028571Y-35411904D01*
X56219047Y-35411904D01*
X56333333Y-35450000D01*
X56409523Y-35526190D01*
X56447619Y-35602380D01*
X56485714Y-35754761D01*
X56485714Y-35869047D01*
X56447619Y-36021428D01*
X56409523Y-36097619D01*
X56333333Y-36173809D01*
X56219047Y-36211904D01*
X56028571Y-36211904D01*
X57247619Y-36211904D02*
X56790476Y-36211904D01*
X57019047Y-36211904D02*
X57019047Y-35411904D01*
X56942857Y-35526190D01*
X56866666Y-35602380D01*
X56790476Y-35640476D01*
X57514285Y-35411904D02*
X58047619Y-35411904D01*
X57704761Y-36211904D01*
X56028571Y-19211904D02*
X56028571Y-18411904D01*
X56219047Y-18411904D01*
X56333333Y-18450000D01*
X56409523Y-18526190D01*
X56447619Y-18602380D01*
X56485714Y-18754761D01*
X56485714Y-18869047D01*
X56447619Y-19021428D01*
X56409523Y-19097619D01*
X56333333Y-19173809D01*
X56219047Y-19211904D01*
X56028571Y-19211904D01*
X57247619Y-19211904D02*
X56790476Y-19211904D01*
X57019047Y-19211904D02*
X57019047Y-18411904D01*
X56942857Y-18526190D01*
X56866666Y-18602380D01*
X56790476Y-18640476D01*
X57933333Y-18411904D02*
X57780952Y-18411904D01*
X57704761Y-18450000D01*
X57666666Y-18488095D01*
X57590476Y-18602380D01*
X57552380Y-18754761D01*
X57552380Y-19059523D01*
X57590476Y-19135714D01*
X57628571Y-19173809D01*
X57704761Y-19211904D01*
X57857142Y-19211904D01*
X57933333Y-19173809D01*
X57971428Y-19135714D01*
X58009523Y-19059523D01*
X58009523Y-18869047D01*
X57971428Y-18792857D01*
X57933333Y-18754761D01*
X57857142Y-18716666D01*
X57704761Y-18716666D01*
X57628571Y-18754761D01*
X57590476Y-18792857D01*
X57552380Y-18869047D01*
X56028571Y-2211904D02*
X56028571Y-1411904D01*
X56219047Y-1411904D01*
X56333333Y-1450000D01*
X56409523Y-1526190D01*
X56447619Y-1602380D01*
X56485714Y-1754761D01*
X56485714Y-1869047D01*
X56447619Y-2021428D01*
X56409523Y-2097619D01*
X56333333Y-2173809D01*
X56219047Y-2211904D01*
X56028571Y-2211904D01*
X57247619Y-2211904D02*
X56790476Y-2211904D01*
X57019047Y-2211904D02*
X57019047Y-1411904D01*
X56942857Y-1526190D01*
X56866666Y-1602380D01*
X56790476Y-1640476D01*
X57971428Y-1411904D02*
X57590476Y-1411904D01*
X57552380Y-1792857D01*
X57590476Y-1754761D01*
X57666666Y-1716666D01*
X57857142Y-1716666D01*
X57933333Y-1754761D01*
X57971428Y-1792857D01*
X58009523Y-1869047D01*
X58009523Y-2059523D01*
X57971428Y-2135714D01*
X57933333Y-2173809D01*
X57857142Y-2211904D01*
X57666666Y-2211904D01*
X57590476Y-2173809D01*
X57552380Y-2135714D01*
X46711904Y-61671428D02*
X45911904Y-61671428D01*
X45911904Y-61480952D01*
X45950000Y-61366666D01*
X46026190Y-61290476D01*
X46102380Y-61252380D01*
X46254761Y-61214285D01*
X46369047Y-61214285D01*
X46521428Y-61252380D01*
X46597619Y-61290476D01*
X46673809Y-61366666D01*
X46711904Y-61480952D01*
X46711904Y-61671428D01*
X46711904Y-60452380D02*
X46711904Y-60909523D01*
X46711904Y-60680952D02*
X45911904Y-60680952D01*
X46026190Y-60757142D01*
X46102380Y-60833333D01*
X46140476Y-60909523D01*
X46178571Y-59766666D02*
X46711904Y-59766666D01*
X45873809Y-59957142D02*
X46445238Y-60147619D01*
X46445238Y-59652380D01*
X38128571Y-58211904D02*
X38128571Y-57411904D01*
X38319047Y-57411904D01*
X38433333Y-57450000D01*
X38509523Y-57526190D01*
X38547619Y-57602380D01*
X38585714Y-57754761D01*
X38585714Y-57869047D01*
X38547619Y-58021428D01*
X38509523Y-58097619D01*
X38433333Y-58173809D01*
X38319047Y-58211904D01*
X38128571Y-58211904D01*
X39347619Y-58211904D02*
X38890476Y-58211904D01*
X39119047Y-58211904D02*
X39119047Y-57411904D01*
X39042857Y-57526190D01*
X38966666Y-57602380D01*
X38890476Y-57640476D01*
X39614285Y-57411904D02*
X40109523Y-57411904D01*
X39842857Y-57716666D01*
X39957142Y-57716666D01*
X40033333Y-57754761D01*
X40071428Y-57792857D01*
X40109523Y-57869047D01*
X40109523Y-58059523D01*
X40071428Y-58135714D01*
X40033333Y-58173809D01*
X39957142Y-58211904D01*
X39728571Y-58211904D01*
X39652380Y-58173809D01*
X39614285Y-58135714D01*
X38128571Y-41211904D02*
X38128571Y-40411904D01*
X38319047Y-40411904D01*
X38433333Y-40450000D01*
X38509523Y-40526190D01*
X38547619Y-40602380D01*
X38585714Y-40754761D01*
X38585714Y-40869047D01*
X38547619Y-41021428D01*
X38509523Y-41097619D01*
X38433333Y-41173809D01*
X38319047Y-41211904D01*
X38128571Y-41211904D01*
X39347619Y-41211904D02*
X38890476Y-41211904D01*
X39119047Y-41211904D02*
X39119047Y-40411904D01*
X39042857Y-40526190D01*
X38966666Y-40602380D01*
X38890476Y-40640476D01*
X39652380Y-40488095D02*
X39690476Y-40450000D01*
X39766666Y-40411904D01*
X39957142Y-40411904D01*
X40033333Y-40450000D01*
X40071428Y-40488095D01*
X40109523Y-40564285D01*
X40109523Y-40640476D01*
X40071428Y-40754761D01*
X39614285Y-41211904D01*
X40109523Y-41211904D01*
X38128571Y-24211904D02*
X38128571Y-23411904D01*
X38319047Y-23411904D01*
X38433333Y-23450000D01*
X38509523Y-23526190D01*
X38547619Y-23602380D01*
X38585714Y-23754761D01*
X38585714Y-23869047D01*
X38547619Y-24021428D01*
X38509523Y-24097619D01*
X38433333Y-24173809D01*
X38319047Y-24211904D01*
X38128571Y-24211904D01*
X39347619Y-24211904D02*
X38890476Y-24211904D01*
X39119047Y-24211904D02*
X39119047Y-23411904D01*
X39042857Y-23526190D01*
X38966666Y-23602380D01*
X38890476Y-23640476D01*
X40109523Y-24211904D02*
X39652380Y-24211904D01*
X39880952Y-24211904D02*
X39880952Y-23411904D01*
X39804761Y-23526190D01*
X39728571Y-23602380D01*
X39652380Y-23640476D01*
X38128571Y-7236904D02*
X38128571Y-6436904D01*
X38319047Y-6436904D01*
X38433333Y-6475000D01*
X38509523Y-6551190D01*
X38547619Y-6627380D01*
X38585714Y-6779761D01*
X38585714Y-6894047D01*
X38547619Y-7046428D01*
X38509523Y-7122619D01*
X38433333Y-7198809D01*
X38319047Y-7236904D01*
X38128571Y-7236904D01*
X39347619Y-7236904D02*
X38890476Y-7236904D01*
X39119047Y-7236904D02*
X39119047Y-6436904D01*
X39042857Y-6551190D01*
X38966666Y-6627380D01*
X38890476Y-6665476D01*
X39842857Y-6436904D02*
X39919047Y-6436904D01*
X39995238Y-6475000D01*
X40033333Y-6513095D01*
X40071428Y-6589285D01*
X40109523Y-6741666D01*
X40109523Y-6932142D01*
X40071428Y-7084523D01*
X40033333Y-7160714D01*
X39995238Y-7198809D01*
X39919047Y-7236904D01*
X39842857Y-7236904D01*
X39766666Y-7198809D01*
X39728571Y-7160714D01*
X39690476Y-7084523D01*
X39652380Y-6932142D01*
X39652380Y-6741666D01*
X39690476Y-6589285D01*
X39728571Y-6513095D01*
X39766666Y-6475000D01*
X39842857Y-6436904D01*
X28711904Y-65590476D02*
X27911904Y-65590476D01*
X27911904Y-65400000D01*
X27950000Y-65285714D01*
X28026190Y-65209523D01*
X28102380Y-65171428D01*
X28254761Y-65133333D01*
X28369047Y-65133333D01*
X28521428Y-65171428D01*
X28597619Y-65209523D01*
X28673809Y-65285714D01*
X28711904Y-65400000D01*
X28711904Y-65590476D01*
X28711904Y-64752380D02*
X28711904Y-64600000D01*
X28673809Y-64523809D01*
X28635714Y-64485714D01*
X28521428Y-64409523D01*
X28369047Y-64371428D01*
X28064285Y-64371428D01*
X27988095Y-64409523D01*
X27950000Y-64447619D01*
X27911904Y-64523809D01*
X27911904Y-64676190D01*
X27950000Y-64752380D01*
X27988095Y-64790476D01*
X28064285Y-64828571D01*
X28254761Y-64828571D01*
X28330952Y-64790476D01*
X28369047Y-64752380D01*
X28407142Y-64676190D01*
X28407142Y-64523809D01*
X28369047Y-64447619D01*
X28330952Y-64409523D01*
X28254761Y-64371428D01*
X20459523Y-61211904D02*
X20459523Y-60411904D01*
X20650000Y-60411904D01*
X20764285Y-60450000D01*
X20840476Y-60526190D01*
X20878571Y-60602380D01*
X20916666Y-60754761D01*
X20916666Y-60869047D01*
X20878571Y-61021428D01*
X20840476Y-61097619D01*
X20764285Y-61173809D01*
X20650000Y-61211904D01*
X20459523Y-61211904D01*
X21373809Y-60754761D02*
X21297619Y-60716666D01*
X21259523Y-60678571D01*
X21221428Y-60602380D01*
X21221428Y-60564285D01*
X21259523Y-60488095D01*
X21297619Y-60450000D01*
X21373809Y-60411904D01*
X21526190Y-60411904D01*
X21602380Y-60450000D01*
X21640476Y-60488095D01*
X21678571Y-60564285D01*
X21678571Y-60602380D01*
X21640476Y-60678571D01*
X21602380Y-60716666D01*
X21526190Y-60754761D01*
X21373809Y-60754761D01*
X21297619Y-60792857D01*
X21259523Y-60830952D01*
X21221428Y-60907142D01*
X21221428Y-61059523D01*
X21259523Y-61135714D01*
X21297619Y-61173809D01*
X21373809Y-61211904D01*
X21526190Y-61211904D01*
X21602380Y-61173809D01*
X21640476Y-61135714D01*
X21678571Y-61059523D01*
X21678571Y-60907142D01*
X21640476Y-60830952D01*
X21602380Y-60792857D01*
X21526190Y-60754761D01*
X20459523Y-44211904D02*
X20459523Y-43411904D01*
X20650000Y-43411904D01*
X20764285Y-43450000D01*
X20840476Y-43526190D01*
X20878571Y-43602380D01*
X20916666Y-43754761D01*
X20916666Y-43869047D01*
X20878571Y-44021428D01*
X20840476Y-44097619D01*
X20764285Y-44173809D01*
X20650000Y-44211904D01*
X20459523Y-44211904D01*
X21183333Y-43411904D02*
X21716666Y-43411904D01*
X21373809Y-44211904D01*
X20459523Y-27211904D02*
X20459523Y-26411904D01*
X20650000Y-26411904D01*
X20764285Y-26450000D01*
X20840476Y-26526190D01*
X20878571Y-26602380D01*
X20916666Y-26754761D01*
X20916666Y-26869047D01*
X20878571Y-27021428D01*
X20840476Y-27097619D01*
X20764285Y-27173809D01*
X20650000Y-27211904D01*
X20459523Y-27211904D01*
X21602380Y-26411904D02*
X21450000Y-26411904D01*
X21373809Y-26450000D01*
X21335714Y-26488095D01*
X21259523Y-26602380D01*
X21221428Y-26754761D01*
X21221428Y-27059523D01*
X21259523Y-27135714D01*
X21297619Y-27173809D01*
X21373809Y-27211904D01*
X21526190Y-27211904D01*
X21602380Y-27173809D01*
X21640476Y-27135714D01*
X21678571Y-27059523D01*
X21678571Y-26869047D01*
X21640476Y-26792857D01*
X21602380Y-26754761D01*
X21526190Y-26716666D01*
X21373809Y-26716666D01*
X21297619Y-26754761D01*
X21259523Y-26792857D01*
X21221428Y-26869047D01*
X20459523Y-10211904D02*
X20459523Y-9411904D01*
X20650000Y-9411904D01*
X20764285Y-9450000D01*
X20840476Y-9526190D01*
X20878571Y-9602380D01*
X20916666Y-9754761D01*
X20916666Y-9869047D01*
X20878571Y-10021428D01*
X20840476Y-10097619D01*
X20764285Y-10173809D01*
X20650000Y-10211904D01*
X20459523Y-10211904D01*
X21640476Y-9411904D02*
X21259523Y-9411904D01*
X21221428Y-9792857D01*
X21259523Y-9754761D01*
X21335714Y-9716666D01*
X21526190Y-9716666D01*
X21602380Y-9754761D01*
X21640476Y-9792857D01*
X21678571Y-9869047D01*
X21678571Y-10059523D01*
X21640476Y-10135714D01*
X21602380Y-10173809D01*
X21526190Y-10211904D01*
X21335714Y-10211904D01*
X21259523Y-10173809D01*
X21221428Y-10135714D01*
X10736904Y-65590476D02*
X9936904Y-65590476D01*
X9936904Y-65400000D01*
X9975000Y-65285714D01*
X10051190Y-65209523D01*
X10127380Y-65171428D01*
X10279761Y-65133333D01*
X10394047Y-65133333D01*
X10546428Y-65171428D01*
X10622619Y-65209523D01*
X10698809Y-65285714D01*
X10736904Y-65400000D01*
X10736904Y-65590476D01*
X10203571Y-64447619D02*
X10736904Y-64447619D01*
X9898809Y-64638095D02*
X10470238Y-64828571D01*
X10470238Y-64333333D01*
X2409523Y-61211904D02*
X2409523Y-60411904D01*
X2600000Y-60411904D01*
X2714285Y-60450000D01*
X2790476Y-60526190D01*
X2828571Y-60602380D01*
X2866666Y-60754761D01*
X2866666Y-60869047D01*
X2828571Y-61021428D01*
X2790476Y-61097619D01*
X2714285Y-61173809D01*
X2600000Y-61211904D01*
X2409523Y-61211904D01*
X3133333Y-60411904D02*
X3628571Y-60411904D01*
X3361904Y-60716666D01*
X3476190Y-60716666D01*
X3552380Y-60754761D01*
X3590476Y-60792857D01*
X3628571Y-60869047D01*
X3628571Y-61059523D01*
X3590476Y-61135714D01*
X3552380Y-61173809D01*
X3476190Y-61211904D01*
X3247619Y-61211904D01*
X3171428Y-61173809D01*
X3133333Y-61135714D01*
X2409523Y-44211904D02*
X2409523Y-43411904D01*
X2600000Y-43411904D01*
X2714285Y-43450000D01*
X2790476Y-43526190D01*
X2828571Y-43602380D01*
X2866666Y-43754761D01*
X2866666Y-43869047D01*
X2828571Y-44021428D01*
X2790476Y-44097619D01*
X2714285Y-44173809D01*
X2600000Y-44211904D01*
X2409523Y-44211904D01*
X3171428Y-43488095D02*
X3209523Y-43450000D01*
X3285714Y-43411904D01*
X3476190Y-43411904D01*
X3552380Y-43450000D01*
X3590476Y-43488095D01*
X3628571Y-43564285D01*
X3628571Y-43640476D01*
X3590476Y-43754761D01*
X3133333Y-44211904D01*
X3628571Y-44211904D01*
X2409523Y-27211904D02*
X2409523Y-26411904D01*
X2600000Y-26411904D01*
X2714285Y-26450000D01*
X2790476Y-26526190D01*
X2828571Y-26602380D01*
X2866666Y-26754761D01*
X2866666Y-26869047D01*
X2828571Y-27021428D01*
X2790476Y-27097619D01*
X2714285Y-27173809D01*
X2600000Y-27211904D01*
X2409523Y-27211904D01*
X3628571Y-27211904D02*
X3171428Y-27211904D01*
X3400000Y-27211904D02*
X3400000Y-26411904D01*
X3323809Y-26526190D01*
X3247619Y-26602380D01*
X3171428Y-26640476D01*
X2409523Y-10211904D02*
X2409523Y-9411904D01*
X2600000Y-9411904D01*
X2714285Y-9450000D01*
X2790476Y-9526190D01*
X2828571Y-9602380D01*
X2866666Y-9754761D01*
X2866666Y-9869047D01*
X2828571Y-10021428D01*
X2790476Y-10097619D01*
X2714285Y-10173809D01*
X2600000Y-10211904D01*
X2409523Y-10211904D01*
X3361904Y-9411904D02*
X3438095Y-9411904D01*
X3514285Y-9450000D01*
X3552380Y-9488095D01*
X3590476Y-9564285D01*
X3628571Y-9716666D01*
X3628571Y-9907142D01*
X3590476Y-10059523D01*
X3552380Y-10135714D01*
X3514285Y-10173809D01*
X3438095Y-10211904D01*
X3361904Y-10211904D01*
X3285714Y-10173809D01*
X3247619Y-10135714D01*
X3209523Y-10059523D01*
X3171428Y-9907142D01*
X3171428Y-9716666D01*
X3209523Y-9564285D01*
X3247619Y-9488095D01*
X3285714Y-9450000D01*
X3361904Y-9411904D01*
X103106464Y-48491064D02*
X102725512Y-48757731D01*
X103106464Y-48948207D02*
X102306464Y-48948207D01*
X102306464Y-48643445D01*
X102344560Y-48567255D01*
X102382655Y-48529160D01*
X102458845Y-48491064D01*
X102573131Y-48491064D01*
X102649321Y-48529160D01*
X102687417Y-48567255D01*
X102725512Y-48643445D01*
X102725512Y-48948207D01*
X102687417Y-48148207D02*
X102687417Y-47881540D01*
X103106464Y-47767255D02*
X103106464Y-48148207D01*
X102306464Y-48148207D01*
X102306464Y-47767255D01*
X103068369Y-47462493D02*
X103106464Y-47348207D01*
X103106464Y-47157731D01*
X103068369Y-47081540D01*
X103030274Y-47043445D01*
X102954083Y-47005350D01*
X102877893Y-47005350D01*
X102801702Y-47043445D01*
X102763607Y-47081540D01*
X102725512Y-47157731D01*
X102687417Y-47310112D01*
X102649321Y-47386302D01*
X102611226Y-47424398D01*
X102535036Y-47462493D01*
X102458845Y-47462493D01*
X102382655Y-47424398D01*
X102344560Y-47386302D01*
X102306464Y-47310112D01*
X102306464Y-47119636D01*
X102344560Y-47005350D01*
X102687417Y-46662493D02*
X102687417Y-46395826D01*
X103106464Y-46281540D02*
X103106464Y-46662493D01*
X102306464Y-46662493D01*
X102306464Y-46281540D01*
X102306464Y-46052969D02*
X102306464Y-45595826D01*
X103106464Y-45824398D02*
X102306464Y-45824398D01*
M02*
