G04 #@! TF.GenerationSoftware,KiCad,Pcbnew,(5.1.4)-1*
G04 #@! TF.CreationDate,2021-06-12T13:41:32-04:00*
G04 #@! TF.ProjectId,splitreus,73706c69-7472-4657-9573-2e6b69636164,1*
G04 #@! TF.SameCoordinates,Original*
G04 #@! TF.FileFunction,Legend,Bot*
G04 #@! TF.FilePolarity,Positive*
%FSLAX46Y46*%
G04 Gerber Fmt 4.6, Leading zero omitted, Abs format (unit mm)*
G04 Created by KiCad (PCBNEW (5.1.4)-1) date 2021-06-12 13:41:32*
%MOMM*%
%LPD*%
G04 APERTURE LIST*
%ADD10C,0.100000*%
%ADD11C,0.150000*%
%ADD12C,0.120000*%
%ADD13C,0.350000*%
G04 APERTURE END LIST*
D10*
G36*
X99170000Y-10175000D02*
G01*
X99170000Y-14065000D01*
X95900000Y-12115000D01*
X99170000Y-10175000D01*
G37*
X99170000Y-10175000D02*
X99170000Y-14065000D01*
X95900000Y-12115000D01*
X99170000Y-10175000D01*
G36*
X100060000Y-13185000D02*
G01*
X96170000Y-13185000D01*
X98120000Y-9915000D01*
X100060000Y-13185000D01*
G37*
X100060000Y-13185000D02*
X96170000Y-13185000D01*
X98120000Y-9915000D01*
X100060000Y-13185000D01*
G36*
X96150000Y-11105000D02*
G01*
X100040000Y-11105000D01*
X98090000Y-14375000D01*
X96150000Y-11105000D01*
G37*
X96150000Y-11105000D02*
X100040000Y-11105000D01*
X98090000Y-14375000D01*
X96150000Y-11105000D01*
G36*
X97040000Y-14115000D02*
G01*
X97040000Y-10225000D01*
X100310000Y-12175000D01*
X97040000Y-14115000D01*
G37*
X97040000Y-14115000D02*
X97040000Y-10225000D01*
X100310000Y-12175000D01*
X97040000Y-14115000D01*
G36*
X100338000Y-70758000D02*
G01*
X100338000Y-74648000D01*
X97068000Y-72698000D01*
X100338000Y-70758000D01*
G37*
X100338000Y-70758000D02*
X100338000Y-74648000D01*
X97068000Y-72698000D01*
X100338000Y-70758000D01*
G36*
X101228000Y-73768000D02*
G01*
X97338000Y-73768000D01*
X99288000Y-70498000D01*
X101228000Y-73768000D01*
G37*
X101228000Y-73768000D02*
X97338000Y-73768000D01*
X99288000Y-70498000D01*
X101228000Y-73768000D01*
G36*
X97318000Y-71688000D02*
G01*
X101208000Y-71688000D01*
X99258000Y-74958000D01*
X97318000Y-71688000D01*
G37*
X97318000Y-71688000D02*
X101208000Y-71688000D01*
X99258000Y-74958000D01*
X97318000Y-71688000D01*
G36*
X98208000Y-74698000D02*
G01*
X98208000Y-70808000D01*
X101478000Y-72758000D01*
X98208000Y-74698000D01*
G37*
X98208000Y-74698000D02*
X98208000Y-70808000D01*
X101478000Y-72758000D01*
X98208000Y-74698000D01*
G36*
X28460000Y-5970000D02*
G01*
X24570000Y-5970000D01*
X26520000Y-9240000D01*
X28460000Y-5970000D01*
G37*
X28460000Y-5970000D02*
X24570000Y-5970000D01*
X26520000Y-9240000D01*
X28460000Y-5970000D01*
G36*
X27570000Y-8980000D02*
G01*
X27570000Y-5090000D01*
X24300000Y-7040000D01*
X27570000Y-8980000D01*
G37*
X27570000Y-8980000D02*
X27570000Y-5090000D01*
X24300000Y-7040000D01*
X27570000Y-8980000D01*
G36*
X25440000Y-5040000D02*
G01*
X25440000Y-8930000D01*
X28710000Y-6980000D01*
X25440000Y-5040000D01*
G37*
X25440000Y-5040000D02*
X25440000Y-8930000D01*
X28710000Y-6980000D01*
X25440000Y-5040000D01*
G36*
X24550000Y-8050000D02*
G01*
X28440000Y-8050000D01*
X26490000Y-4780000D01*
X24550000Y-8050000D01*
G37*
X24550000Y-8050000D02*
X28440000Y-8050000D01*
X26490000Y-4780000D01*
X24550000Y-8050000D01*
G36*
X66920000Y-4455000D02*
G01*
X66920000Y-8345000D01*
X63650000Y-6395000D01*
X66920000Y-4455000D01*
G37*
X66920000Y-4455000D02*
X66920000Y-8345000D01*
X63650000Y-6395000D01*
X66920000Y-4455000D01*
G36*
X67810000Y-7465000D02*
G01*
X63920000Y-7465000D01*
X65870000Y-4195000D01*
X67810000Y-7465000D01*
G37*
X67810000Y-7465000D02*
X63920000Y-7465000D01*
X65870000Y-4195000D01*
X67810000Y-7465000D01*
G36*
X63900000Y-5385000D02*
G01*
X67790000Y-5385000D01*
X65840000Y-8655000D01*
X63900000Y-5385000D01*
G37*
X63900000Y-5385000D02*
X67790000Y-5385000D01*
X65840000Y-8655000D01*
X63900000Y-5385000D01*
G36*
X64790000Y-8395000D02*
G01*
X64790000Y-4505000D01*
X68060000Y-6455000D01*
X64790000Y-8395000D01*
G37*
X64790000Y-8395000D02*
X64790000Y-4505000D01*
X68060000Y-6455000D01*
X64790000Y-8395000D01*
G36*
X63438000Y-67478000D02*
G01*
X63438000Y-71368000D01*
X60168000Y-69418000D01*
X63438000Y-67478000D01*
G37*
X63438000Y-67478000D02*
X63438000Y-71368000D01*
X60168000Y-69418000D01*
X63438000Y-67478000D01*
G36*
X64328000Y-70488000D02*
G01*
X60438000Y-70488000D01*
X62388000Y-67218000D01*
X64328000Y-70488000D01*
G37*
X64328000Y-70488000D02*
X60438000Y-70488000D01*
X62388000Y-67218000D01*
X64328000Y-70488000D01*
G36*
X60418000Y-68408000D02*
G01*
X64308000Y-68408000D01*
X62358000Y-71678000D01*
X60418000Y-68408000D01*
G37*
X60418000Y-68408000D02*
X64308000Y-68408000D01*
X62358000Y-71678000D01*
X60418000Y-68408000D01*
G36*
X61308000Y-71418000D02*
G01*
X61308000Y-67528000D01*
X64578000Y-69478000D01*
X61308000Y-71418000D01*
G37*
X61308000Y-71418000D02*
X61308000Y-67528000D01*
X64578000Y-69478000D01*
X61308000Y-71418000D01*
G36*
X28428000Y-72068000D02*
G01*
X28428000Y-75958000D01*
X25158000Y-74008000D01*
X28428000Y-72068000D01*
G37*
X28428000Y-72068000D02*
X28428000Y-75958000D01*
X25158000Y-74008000D01*
X28428000Y-72068000D01*
G36*
X29318000Y-75078000D02*
G01*
X25428000Y-75078000D01*
X27378000Y-71808000D01*
X29318000Y-75078000D01*
G37*
X29318000Y-75078000D02*
X25428000Y-75078000D01*
X27378000Y-71808000D01*
X29318000Y-75078000D01*
G36*
X25408000Y-72998000D02*
G01*
X29298000Y-72998000D01*
X27348000Y-76268000D01*
X25408000Y-72998000D01*
G37*
X25408000Y-72998000D02*
X29298000Y-72998000D01*
X27348000Y-76268000D01*
X25408000Y-72998000D01*
G36*
X26298000Y-76008000D02*
G01*
X26298000Y-72118000D01*
X29568000Y-74068000D01*
X26298000Y-76008000D01*
G37*
X26298000Y-76008000D02*
X26298000Y-72118000D01*
X29568000Y-74068000D01*
X26298000Y-76008000D01*
G36*
X12070000Y-39030000D02*
G01*
X12070000Y-42920000D01*
X8800000Y-40970000D01*
X12070000Y-39030000D01*
G37*
X12070000Y-39030000D02*
X12070000Y-42920000D01*
X8800000Y-40970000D01*
X12070000Y-39030000D01*
G36*
X12960000Y-42040000D02*
G01*
X9070000Y-42040000D01*
X11020000Y-38770000D01*
X12960000Y-42040000D01*
G37*
X12960000Y-42040000D02*
X9070000Y-42040000D01*
X11020000Y-38770000D01*
X12960000Y-42040000D01*
G36*
X9050000Y-39960000D02*
G01*
X12940000Y-39960000D01*
X10990000Y-43230000D01*
X9050000Y-39960000D01*
G37*
X9050000Y-39960000D02*
X12940000Y-39960000D01*
X10990000Y-43230000D01*
X9050000Y-39960000D01*
G36*
X9940000Y-42970000D02*
G01*
X9940000Y-39080000D01*
X13210000Y-41030000D01*
X9940000Y-42970000D01*
G37*
X9940000Y-42970000D02*
X9940000Y-39080000D01*
X13210000Y-41030000D01*
X9940000Y-42970000D01*
G36*
X105990000Y-55970000D02*
G01*
X105990000Y-60490000D01*
X105740000Y-60480000D01*
X105240000Y-60530000D01*
X104820000Y-60580000D01*
X104600000Y-60680000D01*
X104090000Y-61060000D01*
X103930000Y-61400000D01*
X103790000Y-61880000D01*
X103780000Y-62480000D01*
X103800000Y-63040000D01*
X103800000Y-64470000D01*
X103220000Y-65050000D01*
X99800000Y-65010000D01*
X99280000Y-64450000D01*
X99280000Y-61530000D01*
X99780000Y-61030000D01*
X100990000Y-61000000D01*
X101160000Y-60870000D01*
X101240000Y-60740000D01*
X101280000Y-60610000D01*
X101300000Y-60440000D01*
X101300000Y-60200000D01*
X101350000Y-55980000D01*
X105990000Y-55970000D01*
G37*
X105990000Y-55970000D02*
X105990000Y-60490000D01*
X105740000Y-60480000D01*
X105240000Y-60530000D01*
X104820000Y-60580000D01*
X104600000Y-60680000D01*
X104090000Y-61060000D01*
X103930000Y-61400000D01*
X103790000Y-61880000D01*
X103780000Y-62480000D01*
X103800000Y-63040000D01*
X103800000Y-64470000D01*
X103220000Y-65050000D01*
X99800000Y-65010000D01*
X99280000Y-64450000D01*
X99280000Y-61530000D01*
X99780000Y-61030000D01*
X100990000Y-61000000D01*
X101160000Y-60870000D01*
X101240000Y-60740000D01*
X101280000Y-60610000D01*
X101300000Y-60440000D01*
X101300000Y-60200000D01*
X101350000Y-55980000D01*
X105990000Y-55970000D01*
D11*
X106000000Y-56000000D02*
X105500000Y-56000000D01*
X101300000Y-60500000D02*
G75*
G02X100800000Y-61000000I-500000J0D01*
G01*
X99300000Y-64500000D02*
X99300000Y-61500000D01*
X99800000Y-65000000D02*
X99300000Y-64500000D01*
X103800000Y-64500000D02*
X103800000Y-62000000D01*
X101900000Y-56000000D02*
X101300000Y-56000000D01*
X103300000Y-65000000D02*
X103800000Y-64500000D01*
X101300000Y-56000000D02*
X101300000Y-60500000D01*
X100800000Y-61000000D02*
X99800000Y-61000000D01*
X99300000Y-61500000D02*
X99800000Y-61000000D01*
X103800000Y-62000000D02*
G75*
G02X105300000Y-60500000I1500000J0D01*
G01*
X106000000Y-60500000D02*
X106000000Y-56000000D01*
X105300000Y-60500000D02*
X106000000Y-60500000D01*
D10*
G36*
X97030000Y-69490000D02*
G01*
X92510000Y-69490000D01*
X92520000Y-69240000D01*
X92470000Y-68740000D01*
X92420000Y-68320000D01*
X92320000Y-68100000D01*
X91940000Y-67590000D01*
X91600000Y-67430000D01*
X91120000Y-67290000D01*
X90520000Y-67280000D01*
X89960000Y-67300000D01*
X88530000Y-67300000D01*
X87950000Y-66720000D01*
X87990000Y-63300000D01*
X88550000Y-62780000D01*
X91470000Y-62780000D01*
X91970000Y-63280000D01*
X92000000Y-64490000D01*
X92130000Y-64660000D01*
X92260000Y-64740000D01*
X92390000Y-64780000D01*
X92560000Y-64800000D01*
X92800000Y-64800000D01*
X97020000Y-64850000D01*
X97030000Y-69490000D01*
G37*
X97030000Y-69490000D02*
X92510000Y-69490000D01*
X92520000Y-69240000D01*
X92470000Y-68740000D01*
X92420000Y-68320000D01*
X92320000Y-68100000D01*
X91940000Y-67590000D01*
X91600000Y-67430000D01*
X91120000Y-67290000D01*
X90520000Y-67280000D01*
X89960000Y-67300000D01*
X88530000Y-67300000D01*
X87950000Y-66720000D01*
X87990000Y-63300000D01*
X88550000Y-62780000D01*
X91470000Y-62780000D01*
X91970000Y-63280000D01*
X92000000Y-64490000D01*
X92130000Y-64660000D01*
X92260000Y-64740000D01*
X92390000Y-64780000D01*
X92560000Y-64800000D01*
X92800000Y-64800000D01*
X97020000Y-64850000D01*
X97030000Y-69490000D01*
D11*
X97000000Y-69500000D02*
X97000000Y-69000000D01*
X92500000Y-64800000D02*
G75*
G02X92000000Y-64300000I0J500000D01*
G01*
X88500000Y-62800000D02*
X91500000Y-62800000D01*
X88000000Y-63300000D02*
X88500000Y-62800000D01*
X88500000Y-67300000D02*
X91000000Y-67300000D01*
X97000000Y-65400000D02*
X97000000Y-64800000D01*
X88000000Y-66800000D02*
X88500000Y-67300000D01*
X97000000Y-64800000D02*
X92500000Y-64800000D01*
X92000000Y-64300000D02*
X92000000Y-63300000D01*
X91500000Y-62800000D02*
X92000000Y-63300000D01*
X91000000Y-67300000D02*
G75*
G02X92500000Y-68800000I0J-1500000D01*
G01*
X92500000Y-69500000D02*
X97000000Y-69500000D01*
X92500000Y-68800000D02*
X92500000Y-69500000D01*
D10*
G36*
X97030000Y-52490000D02*
G01*
X92510000Y-52490000D01*
X92520000Y-52240000D01*
X92470000Y-51740000D01*
X92420000Y-51320000D01*
X92320000Y-51100000D01*
X91940000Y-50590000D01*
X91600000Y-50430000D01*
X91120000Y-50290000D01*
X90520000Y-50280000D01*
X89960000Y-50300000D01*
X88530000Y-50300000D01*
X87950000Y-49720000D01*
X87990000Y-46300000D01*
X88550000Y-45780000D01*
X91470000Y-45780000D01*
X91970000Y-46280000D01*
X92000000Y-47490000D01*
X92130000Y-47660000D01*
X92260000Y-47740000D01*
X92390000Y-47780000D01*
X92560000Y-47800000D01*
X92800000Y-47800000D01*
X97020000Y-47850000D01*
X97030000Y-52490000D01*
G37*
X97030000Y-52490000D02*
X92510000Y-52490000D01*
X92520000Y-52240000D01*
X92470000Y-51740000D01*
X92420000Y-51320000D01*
X92320000Y-51100000D01*
X91940000Y-50590000D01*
X91600000Y-50430000D01*
X91120000Y-50290000D01*
X90520000Y-50280000D01*
X89960000Y-50300000D01*
X88530000Y-50300000D01*
X87950000Y-49720000D01*
X87990000Y-46300000D01*
X88550000Y-45780000D01*
X91470000Y-45780000D01*
X91970000Y-46280000D01*
X92000000Y-47490000D01*
X92130000Y-47660000D01*
X92260000Y-47740000D01*
X92390000Y-47780000D01*
X92560000Y-47800000D01*
X92800000Y-47800000D01*
X97020000Y-47850000D01*
X97030000Y-52490000D01*
D11*
X97000000Y-52500000D02*
X97000000Y-52000000D01*
X92500000Y-47800000D02*
G75*
G02X92000000Y-47300000I0J500000D01*
G01*
X88500000Y-45800000D02*
X91500000Y-45800000D01*
X88000000Y-46300000D02*
X88500000Y-45800000D01*
X88500000Y-50300000D02*
X91000000Y-50300000D01*
X97000000Y-48400000D02*
X97000000Y-47800000D01*
X88000000Y-49800000D02*
X88500000Y-50300000D01*
X97000000Y-47800000D02*
X92500000Y-47800000D01*
X92000000Y-47300000D02*
X92000000Y-46300000D01*
X91500000Y-45800000D02*
X92000000Y-46300000D01*
X91000000Y-50300000D02*
G75*
G02X92500000Y-51800000I0J-1500000D01*
G01*
X92500000Y-52500000D02*
X97000000Y-52500000D01*
X92500000Y-51800000D02*
X92500000Y-52500000D01*
D10*
G36*
X97030000Y-35490000D02*
G01*
X92510000Y-35490000D01*
X92520000Y-35240000D01*
X92470000Y-34740000D01*
X92420000Y-34320000D01*
X92320000Y-34100000D01*
X91940000Y-33590000D01*
X91600000Y-33430000D01*
X91120000Y-33290000D01*
X90520000Y-33280000D01*
X89960000Y-33300000D01*
X88530000Y-33300000D01*
X87950000Y-32720000D01*
X87990000Y-29300000D01*
X88550000Y-28780000D01*
X91470000Y-28780000D01*
X91970000Y-29280000D01*
X92000000Y-30490000D01*
X92130000Y-30660000D01*
X92260000Y-30740000D01*
X92390000Y-30780000D01*
X92560000Y-30800000D01*
X92800000Y-30800000D01*
X97020000Y-30850000D01*
X97030000Y-35490000D01*
G37*
X97030000Y-35490000D02*
X92510000Y-35490000D01*
X92520000Y-35240000D01*
X92470000Y-34740000D01*
X92420000Y-34320000D01*
X92320000Y-34100000D01*
X91940000Y-33590000D01*
X91600000Y-33430000D01*
X91120000Y-33290000D01*
X90520000Y-33280000D01*
X89960000Y-33300000D01*
X88530000Y-33300000D01*
X87950000Y-32720000D01*
X87990000Y-29300000D01*
X88550000Y-28780000D01*
X91470000Y-28780000D01*
X91970000Y-29280000D01*
X92000000Y-30490000D01*
X92130000Y-30660000D01*
X92260000Y-30740000D01*
X92390000Y-30780000D01*
X92560000Y-30800000D01*
X92800000Y-30800000D01*
X97020000Y-30850000D01*
X97030000Y-35490000D01*
D11*
X97000000Y-35500000D02*
X97000000Y-35000000D01*
X92500000Y-30800000D02*
G75*
G02X92000000Y-30300000I0J500000D01*
G01*
X88500000Y-28800000D02*
X91500000Y-28800000D01*
X88000000Y-29300000D02*
X88500000Y-28800000D01*
X88500000Y-33300000D02*
X91000000Y-33300000D01*
X97000000Y-31400000D02*
X97000000Y-30800000D01*
X88000000Y-32800000D02*
X88500000Y-33300000D01*
X97000000Y-30800000D02*
X92500000Y-30800000D01*
X92000000Y-30300000D02*
X92000000Y-29300000D01*
X91500000Y-28800000D02*
X92000000Y-29300000D01*
X91000000Y-33300000D02*
G75*
G02X92500000Y-34800000I0J-1500000D01*
G01*
X92500000Y-35500000D02*
X97000000Y-35500000D01*
X92500000Y-34800000D02*
X92500000Y-35500000D01*
D10*
G36*
X97030000Y-18490000D02*
G01*
X92510000Y-18490000D01*
X92520000Y-18240000D01*
X92470000Y-17740000D01*
X92420000Y-17320000D01*
X92320000Y-17100000D01*
X91940000Y-16590000D01*
X91600000Y-16430000D01*
X91120000Y-16290000D01*
X90520000Y-16280000D01*
X89960000Y-16300000D01*
X88530000Y-16300000D01*
X87950000Y-15720000D01*
X87990000Y-12300000D01*
X88550000Y-11780000D01*
X91470000Y-11780000D01*
X91970000Y-12280000D01*
X92000000Y-13490000D01*
X92130000Y-13660000D01*
X92260000Y-13740000D01*
X92390000Y-13780000D01*
X92560000Y-13800000D01*
X92800000Y-13800000D01*
X97020000Y-13850000D01*
X97030000Y-18490000D01*
G37*
X97030000Y-18490000D02*
X92510000Y-18490000D01*
X92520000Y-18240000D01*
X92470000Y-17740000D01*
X92420000Y-17320000D01*
X92320000Y-17100000D01*
X91940000Y-16590000D01*
X91600000Y-16430000D01*
X91120000Y-16290000D01*
X90520000Y-16280000D01*
X89960000Y-16300000D01*
X88530000Y-16300000D01*
X87950000Y-15720000D01*
X87990000Y-12300000D01*
X88550000Y-11780000D01*
X91470000Y-11780000D01*
X91970000Y-12280000D01*
X92000000Y-13490000D01*
X92130000Y-13660000D01*
X92260000Y-13740000D01*
X92390000Y-13780000D01*
X92560000Y-13800000D01*
X92800000Y-13800000D01*
X97020000Y-13850000D01*
X97030000Y-18490000D01*
D11*
X97000000Y-18500000D02*
X97000000Y-18000000D01*
X92500000Y-13800000D02*
G75*
G02X92000000Y-13300000I0J500000D01*
G01*
X88500000Y-11800000D02*
X91500000Y-11800000D01*
X88000000Y-12300000D02*
X88500000Y-11800000D01*
X88500000Y-16300000D02*
X91000000Y-16300000D01*
X97000000Y-14400000D02*
X97000000Y-13800000D01*
X88000000Y-15800000D02*
X88500000Y-16300000D01*
X97000000Y-13800000D02*
X92500000Y-13800000D01*
X92000000Y-13300000D02*
X92000000Y-12300000D01*
X91500000Y-11800000D02*
X92000000Y-12300000D01*
X91000000Y-16300000D02*
G75*
G02X92500000Y-17800000I0J-1500000D01*
G01*
X92500000Y-18500000D02*
X97000000Y-18500000D01*
X92500000Y-17800000D02*
X92500000Y-18500000D01*
D10*
G36*
X79030000Y-64490000D02*
G01*
X74510000Y-64490000D01*
X74520000Y-64240000D01*
X74470000Y-63740000D01*
X74420000Y-63320000D01*
X74320000Y-63100000D01*
X73940000Y-62590000D01*
X73600000Y-62430000D01*
X73120000Y-62290000D01*
X72520000Y-62280000D01*
X71960000Y-62300000D01*
X70530000Y-62300000D01*
X69950000Y-61720000D01*
X69990000Y-58300000D01*
X70550000Y-57780000D01*
X73470000Y-57780000D01*
X73970000Y-58280000D01*
X74000000Y-59490000D01*
X74130000Y-59660000D01*
X74260000Y-59740000D01*
X74390000Y-59780000D01*
X74560000Y-59800000D01*
X74800000Y-59800000D01*
X79020000Y-59850000D01*
X79030000Y-64490000D01*
G37*
X79030000Y-64490000D02*
X74510000Y-64490000D01*
X74520000Y-64240000D01*
X74470000Y-63740000D01*
X74420000Y-63320000D01*
X74320000Y-63100000D01*
X73940000Y-62590000D01*
X73600000Y-62430000D01*
X73120000Y-62290000D01*
X72520000Y-62280000D01*
X71960000Y-62300000D01*
X70530000Y-62300000D01*
X69950000Y-61720000D01*
X69990000Y-58300000D01*
X70550000Y-57780000D01*
X73470000Y-57780000D01*
X73970000Y-58280000D01*
X74000000Y-59490000D01*
X74130000Y-59660000D01*
X74260000Y-59740000D01*
X74390000Y-59780000D01*
X74560000Y-59800000D01*
X74800000Y-59800000D01*
X79020000Y-59850000D01*
X79030000Y-64490000D01*
D11*
X79000000Y-64500000D02*
X79000000Y-64000000D01*
X74500000Y-59800000D02*
G75*
G02X74000000Y-59300000I0J500000D01*
G01*
X70500000Y-57800000D02*
X73500000Y-57800000D01*
X70000000Y-58300000D02*
X70500000Y-57800000D01*
X70500000Y-62300000D02*
X73000000Y-62300000D01*
X79000000Y-60400000D02*
X79000000Y-59800000D01*
X70000000Y-61800000D02*
X70500000Y-62300000D01*
X79000000Y-59800000D02*
X74500000Y-59800000D01*
X74000000Y-59300000D02*
X74000000Y-58300000D01*
X73500000Y-57800000D02*
X74000000Y-58300000D01*
X73000000Y-62300000D02*
G75*
G02X74500000Y-63800000I0J-1500000D01*
G01*
X74500000Y-64500000D02*
X79000000Y-64500000D01*
X74500000Y-63800000D02*
X74500000Y-64500000D01*
D10*
G36*
X79030000Y-47490000D02*
G01*
X74510000Y-47490000D01*
X74520000Y-47240000D01*
X74470000Y-46740000D01*
X74420000Y-46320000D01*
X74320000Y-46100000D01*
X73940000Y-45590000D01*
X73600000Y-45430000D01*
X73120000Y-45290000D01*
X72520000Y-45280000D01*
X71960000Y-45300000D01*
X70530000Y-45300000D01*
X69950000Y-44720000D01*
X69990000Y-41300000D01*
X70550000Y-40780000D01*
X73470000Y-40780000D01*
X73970000Y-41280000D01*
X74000000Y-42490000D01*
X74130000Y-42660000D01*
X74260000Y-42740000D01*
X74390000Y-42780000D01*
X74560000Y-42800000D01*
X74800000Y-42800000D01*
X79020000Y-42850000D01*
X79030000Y-47490000D01*
G37*
X79030000Y-47490000D02*
X74510000Y-47490000D01*
X74520000Y-47240000D01*
X74470000Y-46740000D01*
X74420000Y-46320000D01*
X74320000Y-46100000D01*
X73940000Y-45590000D01*
X73600000Y-45430000D01*
X73120000Y-45290000D01*
X72520000Y-45280000D01*
X71960000Y-45300000D01*
X70530000Y-45300000D01*
X69950000Y-44720000D01*
X69990000Y-41300000D01*
X70550000Y-40780000D01*
X73470000Y-40780000D01*
X73970000Y-41280000D01*
X74000000Y-42490000D01*
X74130000Y-42660000D01*
X74260000Y-42740000D01*
X74390000Y-42780000D01*
X74560000Y-42800000D01*
X74800000Y-42800000D01*
X79020000Y-42850000D01*
X79030000Y-47490000D01*
D11*
X79000000Y-47500000D02*
X79000000Y-47000000D01*
X74500000Y-42800000D02*
G75*
G02X74000000Y-42300000I0J500000D01*
G01*
X70500000Y-40800000D02*
X73500000Y-40800000D01*
X70000000Y-41300000D02*
X70500000Y-40800000D01*
X70500000Y-45300000D02*
X73000000Y-45300000D01*
X79000000Y-43400000D02*
X79000000Y-42800000D01*
X70000000Y-44800000D02*
X70500000Y-45300000D01*
X79000000Y-42800000D02*
X74500000Y-42800000D01*
X74000000Y-42300000D02*
X74000000Y-41300000D01*
X73500000Y-40800000D02*
X74000000Y-41300000D01*
X73000000Y-45300000D02*
G75*
G02X74500000Y-46800000I0J-1500000D01*
G01*
X74500000Y-47500000D02*
X79000000Y-47500000D01*
X74500000Y-46800000D02*
X74500000Y-47500000D01*
D10*
G36*
X79030000Y-30490000D02*
G01*
X74510000Y-30490000D01*
X74520000Y-30240000D01*
X74470000Y-29740000D01*
X74420000Y-29320000D01*
X74320000Y-29100000D01*
X73940000Y-28590000D01*
X73600000Y-28430000D01*
X73120000Y-28290000D01*
X72520000Y-28280000D01*
X71960000Y-28300000D01*
X70530000Y-28300000D01*
X69950000Y-27720000D01*
X69990000Y-24300000D01*
X70550000Y-23780000D01*
X73470000Y-23780000D01*
X73970000Y-24280000D01*
X74000000Y-25490000D01*
X74130000Y-25660000D01*
X74260000Y-25740000D01*
X74390000Y-25780000D01*
X74560000Y-25800000D01*
X74800000Y-25800000D01*
X79020000Y-25850000D01*
X79030000Y-30490000D01*
G37*
X79030000Y-30490000D02*
X74510000Y-30490000D01*
X74520000Y-30240000D01*
X74470000Y-29740000D01*
X74420000Y-29320000D01*
X74320000Y-29100000D01*
X73940000Y-28590000D01*
X73600000Y-28430000D01*
X73120000Y-28290000D01*
X72520000Y-28280000D01*
X71960000Y-28300000D01*
X70530000Y-28300000D01*
X69950000Y-27720000D01*
X69990000Y-24300000D01*
X70550000Y-23780000D01*
X73470000Y-23780000D01*
X73970000Y-24280000D01*
X74000000Y-25490000D01*
X74130000Y-25660000D01*
X74260000Y-25740000D01*
X74390000Y-25780000D01*
X74560000Y-25800000D01*
X74800000Y-25800000D01*
X79020000Y-25850000D01*
X79030000Y-30490000D01*
D11*
X79000000Y-30500000D02*
X79000000Y-30000000D01*
X74500000Y-25800000D02*
G75*
G02X74000000Y-25300000I0J500000D01*
G01*
X70500000Y-23800000D02*
X73500000Y-23800000D01*
X70000000Y-24300000D02*
X70500000Y-23800000D01*
X70500000Y-28300000D02*
X73000000Y-28300000D01*
X79000000Y-26400000D02*
X79000000Y-25800000D01*
X70000000Y-27800000D02*
X70500000Y-28300000D01*
X79000000Y-25800000D02*
X74500000Y-25800000D01*
X74000000Y-25300000D02*
X74000000Y-24300000D01*
X73500000Y-23800000D02*
X74000000Y-24300000D01*
X73000000Y-28300000D02*
G75*
G02X74500000Y-29800000I0J-1500000D01*
G01*
X74500000Y-30500000D02*
X79000000Y-30500000D01*
X74500000Y-29800000D02*
X74500000Y-30500000D01*
D10*
G36*
X79030000Y-13490000D02*
G01*
X74510000Y-13490000D01*
X74520000Y-13240000D01*
X74470000Y-12740000D01*
X74420000Y-12320000D01*
X74320000Y-12100000D01*
X73940000Y-11590000D01*
X73600000Y-11430000D01*
X73120000Y-11290000D01*
X72520000Y-11280000D01*
X71960000Y-11300000D01*
X70530000Y-11300000D01*
X69950000Y-10720000D01*
X69990000Y-7300000D01*
X70550000Y-6780000D01*
X73470000Y-6780000D01*
X73970000Y-7280000D01*
X74000000Y-8490000D01*
X74130000Y-8660000D01*
X74260000Y-8740000D01*
X74390000Y-8780000D01*
X74560000Y-8800000D01*
X74800000Y-8800000D01*
X79020000Y-8850000D01*
X79030000Y-13490000D01*
G37*
X79030000Y-13490000D02*
X74510000Y-13490000D01*
X74520000Y-13240000D01*
X74470000Y-12740000D01*
X74420000Y-12320000D01*
X74320000Y-12100000D01*
X73940000Y-11590000D01*
X73600000Y-11430000D01*
X73120000Y-11290000D01*
X72520000Y-11280000D01*
X71960000Y-11300000D01*
X70530000Y-11300000D01*
X69950000Y-10720000D01*
X69990000Y-7300000D01*
X70550000Y-6780000D01*
X73470000Y-6780000D01*
X73970000Y-7280000D01*
X74000000Y-8490000D01*
X74130000Y-8660000D01*
X74260000Y-8740000D01*
X74390000Y-8780000D01*
X74560000Y-8800000D01*
X74800000Y-8800000D01*
X79020000Y-8850000D01*
X79030000Y-13490000D01*
D11*
X79000000Y-13500000D02*
X79000000Y-13000000D01*
X74500000Y-8800000D02*
G75*
G02X74000000Y-8300000I0J500000D01*
G01*
X70500000Y-6800000D02*
X73500000Y-6800000D01*
X70000000Y-7300000D02*
X70500000Y-6800000D01*
X70500000Y-11300000D02*
X73000000Y-11300000D01*
X79000000Y-9400000D02*
X79000000Y-8800000D01*
X70000000Y-10800000D02*
X70500000Y-11300000D01*
X79000000Y-8800000D02*
X74500000Y-8800000D01*
X74000000Y-8300000D02*
X74000000Y-7300000D01*
X73500000Y-6800000D02*
X74000000Y-7300000D01*
X73000000Y-11300000D02*
G75*
G02X74500000Y-12800000I0J-1500000D01*
G01*
X74500000Y-13500000D02*
X79000000Y-13500000D01*
X74500000Y-12800000D02*
X74500000Y-13500000D01*
D10*
G36*
X61030000Y-58490000D02*
G01*
X56510000Y-58490000D01*
X56520000Y-58240000D01*
X56470000Y-57740000D01*
X56420000Y-57320000D01*
X56320000Y-57100000D01*
X55940000Y-56590000D01*
X55600000Y-56430000D01*
X55120000Y-56290000D01*
X54520000Y-56280000D01*
X53960000Y-56300000D01*
X52530000Y-56300000D01*
X51950000Y-55720000D01*
X51990000Y-52300000D01*
X52550000Y-51780000D01*
X55470000Y-51780000D01*
X55970000Y-52280000D01*
X56000000Y-53490000D01*
X56130000Y-53660000D01*
X56260000Y-53740000D01*
X56390000Y-53780000D01*
X56560000Y-53800000D01*
X56800000Y-53800000D01*
X61020000Y-53850000D01*
X61030000Y-58490000D01*
G37*
X61030000Y-58490000D02*
X56510000Y-58490000D01*
X56520000Y-58240000D01*
X56470000Y-57740000D01*
X56420000Y-57320000D01*
X56320000Y-57100000D01*
X55940000Y-56590000D01*
X55600000Y-56430000D01*
X55120000Y-56290000D01*
X54520000Y-56280000D01*
X53960000Y-56300000D01*
X52530000Y-56300000D01*
X51950000Y-55720000D01*
X51990000Y-52300000D01*
X52550000Y-51780000D01*
X55470000Y-51780000D01*
X55970000Y-52280000D01*
X56000000Y-53490000D01*
X56130000Y-53660000D01*
X56260000Y-53740000D01*
X56390000Y-53780000D01*
X56560000Y-53800000D01*
X56800000Y-53800000D01*
X61020000Y-53850000D01*
X61030000Y-58490000D01*
D11*
X61000000Y-58500000D02*
X61000000Y-58000000D01*
X56500000Y-53800000D02*
G75*
G02X56000000Y-53300000I0J500000D01*
G01*
X52500000Y-51800000D02*
X55500000Y-51800000D01*
X52000000Y-52300000D02*
X52500000Y-51800000D01*
X52500000Y-56300000D02*
X55000000Y-56300000D01*
X61000000Y-54400000D02*
X61000000Y-53800000D01*
X52000000Y-55800000D02*
X52500000Y-56300000D01*
X61000000Y-53800000D02*
X56500000Y-53800000D01*
X56000000Y-53300000D02*
X56000000Y-52300000D01*
X55500000Y-51800000D02*
X56000000Y-52300000D01*
X55000000Y-56300000D02*
G75*
G02X56500000Y-57800000I0J-1500000D01*
G01*
X56500000Y-58500000D02*
X61000000Y-58500000D01*
X56500000Y-57800000D02*
X56500000Y-58500000D01*
D10*
G36*
X61030000Y-41490000D02*
G01*
X56510000Y-41490000D01*
X56520000Y-41240000D01*
X56470000Y-40740000D01*
X56420000Y-40320000D01*
X56320000Y-40100000D01*
X55940000Y-39590000D01*
X55600000Y-39430000D01*
X55120000Y-39290000D01*
X54520000Y-39280000D01*
X53960000Y-39300000D01*
X52530000Y-39300000D01*
X51950000Y-38720000D01*
X51990000Y-35300000D01*
X52550000Y-34780000D01*
X55470000Y-34780000D01*
X55970000Y-35280000D01*
X56000000Y-36490000D01*
X56130000Y-36660000D01*
X56260000Y-36740000D01*
X56390000Y-36780000D01*
X56560000Y-36800000D01*
X56800000Y-36800000D01*
X61020000Y-36850000D01*
X61030000Y-41490000D01*
G37*
X61030000Y-41490000D02*
X56510000Y-41490000D01*
X56520000Y-41240000D01*
X56470000Y-40740000D01*
X56420000Y-40320000D01*
X56320000Y-40100000D01*
X55940000Y-39590000D01*
X55600000Y-39430000D01*
X55120000Y-39290000D01*
X54520000Y-39280000D01*
X53960000Y-39300000D01*
X52530000Y-39300000D01*
X51950000Y-38720000D01*
X51990000Y-35300000D01*
X52550000Y-34780000D01*
X55470000Y-34780000D01*
X55970000Y-35280000D01*
X56000000Y-36490000D01*
X56130000Y-36660000D01*
X56260000Y-36740000D01*
X56390000Y-36780000D01*
X56560000Y-36800000D01*
X56800000Y-36800000D01*
X61020000Y-36850000D01*
X61030000Y-41490000D01*
D11*
X61000000Y-41500000D02*
X61000000Y-41000000D01*
X56500000Y-36800000D02*
G75*
G02X56000000Y-36300000I0J500000D01*
G01*
X52500000Y-34800000D02*
X55500000Y-34800000D01*
X52000000Y-35300000D02*
X52500000Y-34800000D01*
X52500000Y-39300000D02*
X55000000Y-39300000D01*
X61000000Y-37400000D02*
X61000000Y-36800000D01*
X52000000Y-38800000D02*
X52500000Y-39300000D01*
X61000000Y-36800000D02*
X56500000Y-36800000D01*
X56000000Y-36300000D02*
X56000000Y-35300000D01*
X55500000Y-34800000D02*
X56000000Y-35300000D01*
X55000000Y-39300000D02*
G75*
G02X56500000Y-40800000I0J-1500000D01*
G01*
X56500000Y-41500000D02*
X61000000Y-41500000D01*
X56500000Y-40800000D02*
X56500000Y-41500000D01*
D10*
G36*
X61030000Y-24490000D02*
G01*
X56510000Y-24490000D01*
X56520000Y-24240000D01*
X56470000Y-23740000D01*
X56420000Y-23320000D01*
X56320000Y-23100000D01*
X55940000Y-22590000D01*
X55600000Y-22430000D01*
X55120000Y-22290000D01*
X54520000Y-22280000D01*
X53960000Y-22300000D01*
X52530000Y-22300000D01*
X51950000Y-21720000D01*
X51990000Y-18300000D01*
X52550000Y-17780000D01*
X55470000Y-17780000D01*
X55970000Y-18280000D01*
X56000000Y-19490000D01*
X56130000Y-19660000D01*
X56260000Y-19740000D01*
X56390000Y-19780000D01*
X56560000Y-19800000D01*
X56800000Y-19800000D01*
X61020000Y-19850000D01*
X61030000Y-24490000D01*
G37*
X61030000Y-24490000D02*
X56510000Y-24490000D01*
X56520000Y-24240000D01*
X56470000Y-23740000D01*
X56420000Y-23320000D01*
X56320000Y-23100000D01*
X55940000Y-22590000D01*
X55600000Y-22430000D01*
X55120000Y-22290000D01*
X54520000Y-22280000D01*
X53960000Y-22300000D01*
X52530000Y-22300000D01*
X51950000Y-21720000D01*
X51990000Y-18300000D01*
X52550000Y-17780000D01*
X55470000Y-17780000D01*
X55970000Y-18280000D01*
X56000000Y-19490000D01*
X56130000Y-19660000D01*
X56260000Y-19740000D01*
X56390000Y-19780000D01*
X56560000Y-19800000D01*
X56800000Y-19800000D01*
X61020000Y-19850000D01*
X61030000Y-24490000D01*
D11*
X61000000Y-24500000D02*
X61000000Y-24000000D01*
X56500000Y-19800000D02*
G75*
G02X56000000Y-19300000I0J500000D01*
G01*
X52500000Y-17800000D02*
X55500000Y-17800000D01*
X52000000Y-18300000D02*
X52500000Y-17800000D01*
X52500000Y-22300000D02*
X55000000Y-22300000D01*
X61000000Y-20400000D02*
X61000000Y-19800000D01*
X52000000Y-21800000D02*
X52500000Y-22300000D01*
X61000000Y-19800000D02*
X56500000Y-19800000D01*
X56000000Y-19300000D02*
X56000000Y-18300000D01*
X55500000Y-17800000D02*
X56000000Y-18300000D01*
X55000000Y-22300000D02*
G75*
G02X56500000Y-23800000I0J-1500000D01*
G01*
X56500000Y-24500000D02*
X61000000Y-24500000D01*
X56500000Y-23800000D02*
X56500000Y-24500000D01*
D10*
G36*
X61030000Y-7490000D02*
G01*
X56510000Y-7490000D01*
X56520000Y-7240000D01*
X56470000Y-6740000D01*
X56420000Y-6320000D01*
X56320000Y-6100000D01*
X55940000Y-5590000D01*
X55600000Y-5430000D01*
X55120000Y-5290000D01*
X54520000Y-5280000D01*
X53960000Y-5300000D01*
X52530000Y-5300000D01*
X51950000Y-4720000D01*
X51990000Y-1300000D01*
X52550000Y-780000D01*
X55470000Y-780000D01*
X55970000Y-1280000D01*
X56000000Y-2490000D01*
X56130000Y-2660000D01*
X56260000Y-2740000D01*
X56390000Y-2780000D01*
X56560000Y-2800000D01*
X56800000Y-2800000D01*
X61020000Y-2850000D01*
X61030000Y-7490000D01*
G37*
X61030000Y-7490000D02*
X56510000Y-7490000D01*
X56520000Y-7240000D01*
X56470000Y-6740000D01*
X56420000Y-6320000D01*
X56320000Y-6100000D01*
X55940000Y-5590000D01*
X55600000Y-5430000D01*
X55120000Y-5290000D01*
X54520000Y-5280000D01*
X53960000Y-5300000D01*
X52530000Y-5300000D01*
X51950000Y-4720000D01*
X51990000Y-1300000D01*
X52550000Y-780000D01*
X55470000Y-780000D01*
X55970000Y-1280000D01*
X56000000Y-2490000D01*
X56130000Y-2660000D01*
X56260000Y-2740000D01*
X56390000Y-2780000D01*
X56560000Y-2800000D01*
X56800000Y-2800000D01*
X61020000Y-2850000D01*
X61030000Y-7490000D01*
D11*
X61000000Y-7500000D02*
X61000000Y-7000000D01*
X56500000Y-2800000D02*
G75*
G02X56000000Y-2300000I0J500000D01*
G01*
X52500000Y-800000D02*
X55500000Y-800000D01*
X52000000Y-1300000D02*
X52500000Y-800000D01*
X52500000Y-5300000D02*
X55000000Y-5300000D01*
X61000000Y-3400000D02*
X61000000Y-2800000D01*
X52000000Y-4800000D02*
X52500000Y-5300000D01*
X61000000Y-2800000D02*
X56500000Y-2800000D01*
X56000000Y-2300000D02*
X56000000Y-1300000D01*
X55500000Y-800000D02*
X56000000Y-1300000D01*
X55000000Y-5300000D02*
G75*
G02X56500000Y-6800000I0J-1500000D01*
G01*
X56500000Y-7500000D02*
X61000000Y-7500000D01*
X56500000Y-6800000D02*
X56500000Y-7500000D01*
D10*
G36*
X43030000Y-63490000D02*
G01*
X38510000Y-63490000D01*
X38520000Y-63240000D01*
X38470000Y-62740000D01*
X38420000Y-62320000D01*
X38320000Y-62100000D01*
X37940000Y-61590000D01*
X37600000Y-61430000D01*
X37120000Y-61290000D01*
X36520000Y-61280000D01*
X35960000Y-61300000D01*
X34530000Y-61300000D01*
X33950000Y-60720000D01*
X33990000Y-57300000D01*
X34550000Y-56780000D01*
X37470000Y-56780000D01*
X37970000Y-57280000D01*
X38000000Y-58490000D01*
X38130000Y-58660000D01*
X38260000Y-58740000D01*
X38390000Y-58780000D01*
X38560000Y-58800000D01*
X38800000Y-58800000D01*
X43020000Y-58850000D01*
X43030000Y-63490000D01*
G37*
X43030000Y-63490000D02*
X38510000Y-63490000D01*
X38520000Y-63240000D01*
X38470000Y-62740000D01*
X38420000Y-62320000D01*
X38320000Y-62100000D01*
X37940000Y-61590000D01*
X37600000Y-61430000D01*
X37120000Y-61290000D01*
X36520000Y-61280000D01*
X35960000Y-61300000D01*
X34530000Y-61300000D01*
X33950000Y-60720000D01*
X33990000Y-57300000D01*
X34550000Y-56780000D01*
X37470000Y-56780000D01*
X37970000Y-57280000D01*
X38000000Y-58490000D01*
X38130000Y-58660000D01*
X38260000Y-58740000D01*
X38390000Y-58780000D01*
X38560000Y-58800000D01*
X38800000Y-58800000D01*
X43020000Y-58850000D01*
X43030000Y-63490000D01*
D11*
X43000000Y-63500000D02*
X43000000Y-63000000D01*
X38500000Y-58800000D02*
G75*
G02X38000000Y-58300000I0J500000D01*
G01*
X34500000Y-56800000D02*
X37500000Y-56800000D01*
X34000000Y-57300000D02*
X34500000Y-56800000D01*
X34500000Y-61300000D02*
X37000000Y-61300000D01*
X43000000Y-59400000D02*
X43000000Y-58800000D01*
X34000000Y-60800000D02*
X34500000Y-61300000D01*
X43000000Y-58800000D02*
X38500000Y-58800000D01*
X38000000Y-58300000D02*
X38000000Y-57300000D01*
X37500000Y-56800000D02*
X38000000Y-57300000D01*
X37000000Y-61300000D02*
G75*
G02X38500000Y-62800000I0J-1500000D01*
G01*
X38500000Y-63500000D02*
X43000000Y-63500000D01*
X38500000Y-62800000D02*
X38500000Y-63500000D01*
D10*
G36*
X43030000Y-46490000D02*
G01*
X38510000Y-46490000D01*
X38520000Y-46240000D01*
X38470000Y-45740000D01*
X38420000Y-45320000D01*
X38320000Y-45100000D01*
X37940000Y-44590000D01*
X37600000Y-44430000D01*
X37120000Y-44290000D01*
X36520000Y-44280000D01*
X35960000Y-44300000D01*
X34530000Y-44300000D01*
X33950000Y-43720000D01*
X33990000Y-40300000D01*
X34550000Y-39780000D01*
X37470000Y-39780000D01*
X37970000Y-40280000D01*
X38000000Y-41490000D01*
X38130000Y-41660000D01*
X38260000Y-41740000D01*
X38390000Y-41780000D01*
X38560000Y-41800000D01*
X38800000Y-41800000D01*
X43020000Y-41850000D01*
X43030000Y-46490000D01*
G37*
X43030000Y-46490000D02*
X38510000Y-46490000D01*
X38520000Y-46240000D01*
X38470000Y-45740000D01*
X38420000Y-45320000D01*
X38320000Y-45100000D01*
X37940000Y-44590000D01*
X37600000Y-44430000D01*
X37120000Y-44290000D01*
X36520000Y-44280000D01*
X35960000Y-44300000D01*
X34530000Y-44300000D01*
X33950000Y-43720000D01*
X33990000Y-40300000D01*
X34550000Y-39780000D01*
X37470000Y-39780000D01*
X37970000Y-40280000D01*
X38000000Y-41490000D01*
X38130000Y-41660000D01*
X38260000Y-41740000D01*
X38390000Y-41780000D01*
X38560000Y-41800000D01*
X38800000Y-41800000D01*
X43020000Y-41850000D01*
X43030000Y-46490000D01*
D11*
X43000000Y-46500000D02*
X43000000Y-46000000D01*
X38500000Y-41800000D02*
G75*
G02X38000000Y-41300000I0J500000D01*
G01*
X34500000Y-39800000D02*
X37500000Y-39800000D01*
X34000000Y-40300000D02*
X34500000Y-39800000D01*
X34500000Y-44300000D02*
X37000000Y-44300000D01*
X43000000Y-42400000D02*
X43000000Y-41800000D01*
X34000000Y-43800000D02*
X34500000Y-44300000D01*
X43000000Y-41800000D02*
X38500000Y-41800000D01*
X38000000Y-41300000D02*
X38000000Y-40300000D01*
X37500000Y-39800000D02*
X38000000Y-40300000D01*
X37000000Y-44300000D02*
G75*
G02X38500000Y-45800000I0J-1500000D01*
G01*
X38500000Y-46500000D02*
X43000000Y-46500000D01*
X38500000Y-45800000D02*
X38500000Y-46500000D01*
D10*
G36*
X43030000Y-29490000D02*
G01*
X38510000Y-29490000D01*
X38520000Y-29240000D01*
X38470000Y-28740000D01*
X38420000Y-28320000D01*
X38320000Y-28100000D01*
X37940000Y-27590000D01*
X37600000Y-27430000D01*
X37120000Y-27290000D01*
X36520000Y-27280000D01*
X35960000Y-27300000D01*
X34530000Y-27300000D01*
X33950000Y-26720000D01*
X33990000Y-23300000D01*
X34550000Y-22780000D01*
X37470000Y-22780000D01*
X37970000Y-23280000D01*
X38000000Y-24490000D01*
X38130000Y-24660000D01*
X38260000Y-24740000D01*
X38390000Y-24780000D01*
X38560000Y-24800000D01*
X38800000Y-24800000D01*
X43020000Y-24850000D01*
X43030000Y-29490000D01*
G37*
X43030000Y-29490000D02*
X38510000Y-29490000D01*
X38520000Y-29240000D01*
X38470000Y-28740000D01*
X38420000Y-28320000D01*
X38320000Y-28100000D01*
X37940000Y-27590000D01*
X37600000Y-27430000D01*
X37120000Y-27290000D01*
X36520000Y-27280000D01*
X35960000Y-27300000D01*
X34530000Y-27300000D01*
X33950000Y-26720000D01*
X33990000Y-23300000D01*
X34550000Y-22780000D01*
X37470000Y-22780000D01*
X37970000Y-23280000D01*
X38000000Y-24490000D01*
X38130000Y-24660000D01*
X38260000Y-24740000D01*
X38390000Y-24780000D01*
X38560000Y-24800000D01*
X38800000Y-24800000D01*
X43020000Y-24850000D01*
X43030000Y-29490000D01*
D11*
X43000000Y-29500000D02*
X43000000Y-29000000D01*
X38500000Y-24800000D02*
G75*
G02X38000000Y-24300000I0J500000D01*
G01*
X34500000Y-22800000D02*
X37500000Y-22800000D01*
X34000000Y-23300000D02*
X34500000Y-22800000D01*
X34500000Y-27300000D02*
X37000000Y-27300000D01*
X43000000Y-25400000D02*
X43000000Y-24800000D01*
X34000000Y-26800000D02*
X34500000Y-27300000D01*
X43000000Y-24800000D02*
X38500000Y-24800000D01*
X38000000Y-24300000D02*
X38000000Y-23300000D01*
X37500000Y-22800000D02*
X38000000Y-23300000D01*
X37000000Y-27300000D02*
G75*
G02X38500000Y-28800000I0J-1500000D01*
G01*
X38500000Y-29500000D02*
X43000000Y-29500000D01*
X38500000Y-28800000D02*
X38500000Y-29500000D01*
D10*
G36*
X43030000Y-12490000D02*
G01*
X38510000Y-12490000D01*
X38520000Y-12240000D01*
X38470000Y-11740000D01*
X38420000Y-11320000D01*
X38320000Y-11100000D01*
X37940000Y-10590000D01*
X37600000Y-10430000D01*
X37120000Y-10290000D01*
X36520000Y-10280000D01*
X35960000Y-10300000D01*
X34530000Y-10300000D01*
X33950000Y-9720000D01*
X33990000Y-6300000D01*
X34550000Y-5780000D01*
X37470000Y-5780000D01*
X37970000Y-6280000D01*
X38000000Y-7490000D01*
X38130000Y-7660000D01*
X38260000Y-7740000D01*
X38390000Y-7780000D01*
X38560000Y-7800000D01*
X38800000Y-7800000D01*
X43020000Y-7850000D01*
X43030000Y-12490000D01*
G37*
X43030000Y-12490000D02*
X38510000Y-12490000D01*
X38520000Y-12240000D01*
X38470000Y-11740000D01*
X38420000Y-11320000D01*
X38320000Y-11100000D01*
X37940000Y-10590000D01*
X37600000Y-10430000D01*
X37120000Y-10290000D01*
X36520000Y-10280000D01*
X35960000Y-10300000D01*
X34530000Y-10300000D01*
X33950000Y-9720000D01*
X33990000Y-6300000D01*
X34550000Y-5780000D01*
X37470000Y-5780000D01*
X37970000Y-6280000D01*
X38000000Y-7490000D01*
X38130000Y-7660000D01*
X38260000Y-7740000D01*
X38390000Y-7780000D01*
X38560000Y-7800000D01*
X38800000Y-7800000D01*
X43020000Y-7850000D01*
X43030000Y-12490000D01*
D11*
X43000000Y-12500000D02*
X43000000Y-12000000D01*
X38500000Y-7800000D02*
G75*
G02X38000000Y-7300000I0J500000D01*
G01*
X34500000Y-5800000D02*
X37500000Y-5800000D01*
X34000000Y-6300000D02*
X34500000Y-5800000D01*
X34500000Y-10300000D02*
X37000000Y-10300000D01*
X43000000Y-8400000D02*
X43000000Y-7800000D01*
X34000000Y-9800000D02*
X34500000Y-10300000D01*
X43000000Y-7800000D02*
X38500000Y-7800000D01*
X38000000Y-7300000D02*
X38000000Y-6300000D01*
X37500000Y-5800000D02*
X38000000Y-6300000D01*
X37000000Y-10300000D02*
G75*
G02X38500000Y-11800000I0J-1500000D01*
G01*
X38500000Y-12500000D02*
X43000000Y-12500000D01*
X38500000Y-11800000D02*
X38500000Y-12500000D01*
D10*
G36*
X25030000Y-66490000D02*
G01*
X20510000Y-66490000D01*
X20520000Y-66240000D01*
X20470000Y-65740000D01*
X20420000Y-65320000D01*
X20320000Y-65100000D01*
X19940000Y-64590000D01*
X19600000Y-64430000D01*
X19120000Y-64290000D01*
X18520000Y-64280000D01*
X17960000Y-64300000D01*
X16530000Y-64300000D01*
X15950000Y-63720000D01*
X15990000Y-60300000D01*
X16550000Y-59780000D01*
X19470000Y-59780000D01*
X19970000Y-60280000D01*
X20000000Y-61490000D01*
X20130000Y-61660000D01*
X20260000Y-61740000D01*
X20390000Y-61780000D01*
X20560000Y-61800000D01*
X20800000Y-61800000D01*
X25020000Y-61850000D01*
X25030000Y-66490000D01*
G37*
X25030000Y-66490000D02*
X20510000Y-66490000D01*
X20520000Y-66240000D01*
X20470000Y-65740000D01*
X20420000Y-65320000D01*
X20320000Y-65100000D01*
X19940000Y-64590000D01*
X19600000Y-64430000D01*
X19120000Y-64290000D01*
X18520000Y-64280000D01*
X17960000Y-64300000D01*
X16530000Y-64300000D01*
X15950000Y-63720000D01*
X15990000Y-60300000D01*
X16550000Y-59780000D01*
X19470000Y-59780000D01*
X19970000Y-60280000D01*
X20000000Y-61490000D01*
X20130000Y-61660000D01*
X20260000Y-61740000D01*
X20390000Y-61780000D01*
X20560000Y-61800000D01*
X20800000Y-61800000D01*
X25020000Y-61850000D01*
X25030000Y-66490000D01*
D11*
X25000000Y-66500000D02*
X25000000Y-66000000D01*
X20500000Y-61800000D02*
G75*
G02X20000000Y-61300000I0J500000D01*
G01*
X16500000Y-59800000D02*
X19500000Y-59800000D01*
X16000000Y-60300000D02*
X16500000Y-59800000D01*
X16500000Y-64300000D02*
X19000000Y-64300000D01*
X25000000Y-62400000D02*
X25000000Y-61800000D01*
X16000000Y-63800000D02*
X16500000Y-64300000D01*
X25000000Y-61800000D02*
X20500000Y-61800000D01*
X20000000Y-61300000D02*
X20000000Y-60300000D01*
X19500000Y-59800000D02*
X20000000Y-60300000D01*
X19000000Y-64300000D02*
G75*
G02X20500000Y-65800000I0J-1500000D01*
G01*
X20500000Y-66500000D02*
X25000000Y-66500000D01*
X20500000Y-65800000D02*
X20500000Y-66500000D01*
D10*
G36*
X25030000Y-49490000D02*
G01*
X20510000Y-49490000D01*
X20520000Y-49240000D01*
X20470000Y-48740000D01*
X20420000Y-48320000D01*
X20320000Y-48100000D01*
X19940000Y-47590000D01*
X19600000Y-47430000D01*
X19120000Y-47290000D01*
X18520000Y-47280000D01*
X17960000Y-47300000D01*
X16530000Y-47300000D01*
X15950000Y-46720000D01*
X15990000Y-43300000D01*
X16550000Y-42780000D01*
X19470000Y-42780000D01*
X19970000Y-43280000D01*
X20000000Y-44490000D01*
X20130000Y-44660000D01*
X20260000Y-44740000D01*
X20390000Y-44780000D01*
X20560000Y-44800000D01*
X20800000Y-44800000D01*
X25020000Y-44850000D01*
X25030000Y-49490000D01*
G37*
X25030000Y-49490000D02*
X20510000Y-49490000D01*
X20520000Y-49240000D01*
X20470000Y-48740000D01*
X20420000Y-48320000D01*
X20320000Y-48100000D01*
X19940000Y-47590000D01*
X19600000Y-47430000D01*
X19120000Y-47290000D01*
X18520000Y-47280000D01*
X17960000Y-47300000D01*
X16530000Y-47300000D01*
X15950000Y-46720000D01*
X15990000Y-43300000D01*
X16550000Y-42780000D01*
X19470000Y-42780000D01*
X19970000Y-43280000D01*
X20000000Y-44490000D01*
X20130000Y-44660000D01*
X20260000Y-44740000D01*
X20390000Y-44780000D01*
X20560000Y-44800000D01*
X20800000Y-44800000D01*
X25020000Y-44850000D01*
X25030000Y-49490000D01*
D11*
X25000000Y-49500000D02*
X25000000Y-49000000D01*
X20500000Y-44800000D02*
G75*
G02X20000000Y-44300000I0J500000D01*
G01*
X16500000Y-42800000D02*
X19500000Y-42800000D01*
X16000000Y-43300000D02*
X16500000Y-42800000D01*
X16500000Y-47300000D02*
X19000000Y-47300000D01*
X25000000Y-45400000D02*
X25000000Y-44800000D01*
X16000000Y-46800000D02*
X16500000Y-47300000D01*
X25000000Y-44800000D02*
X20500000Y-44800000D01*
X20000000Y-44300000D02*
X20000000Y-43300000D01*
X19500000Y-42800000D02*
X20000000Y-43300000D01*
X19000000Y-47300000D02*
G75*
G02X20500000Y-48800000I0J-1500000D01*
G01*
X20500000Y-49500000D02*
X25000000Y-49500000D01*
X20500000Y-48800000D02*
X20500000Y-49500000D01*
D10*
G36*
X25030000Y-32490000D02*
G01*
X20510000Y-32490000D01*
X20520000Y-32240000D01*
X20470000Y-31740000D01*
X20420000Y-31320000D01*
X20320000Y-31100000D01*
X19940000Y-30590000D01*
X19600000Y-30430000D01*
X19120000Y-30290000D01*
X18520000Y-30280000D01*
X17960000Y-30300000D01*
X16530000Y-30300000D01*
X15950000Y-29720000D01*
X15990000Y-26300000D01*
X16550000Y-25780000D01*
X19470000Y-25780000D01*
X19970000Y-26280000D01*
X20000000Y-27490000D01*
X20130000Y-27660000D01*
X20260000Y-27740000D01*
X20390000Y-27780000D01*
X20560000Y-27800000D01*
X20800000Y-27800000D01*
X25020000Y-27850000D01*
X25030000Y-32490000D01*
G37*
X25030000Y-32490000D02*
X20510000Y-32490000D01*
X20520000Y-32240000D01*
X20470000Y-31740000D01*
X20420000Y-31320000D01*
X20320000Y-31100000D01*
X19940000Y-30590000D01*
X19600000Y-30430000D01*
X19120000Y-30290000D01*
X18520000Y-30280000D01*
X17960000Y-30300000D01*
X16530000Y-30300000D01*
X15950000Y-29720000D01*
X15990000Y-26300000D01*
X16550000Y-25780000D01*
X19470000Y-25780000D01*
X19970000Y-26280000D01*
X20000000Y-27490000D01*
X20130000Y-27660000D01*
X20260000Y-27740000D01*
X20390000Y-27780000D01*
X20560000Y-27800000D01*
X20800000Y-27800000D01*
X25020000Y-27850000D01*
X25030000Y-32490000D01*
D11*
X25000000Y-32500000D02*
X25000000Y-32000000D01*
X20500000Y-27800000D02*
G75*
G02X20000000Y-27300000I0J500000D01*
G01*
X16500000Y-25800000D02*
X19500000Y-25800000D01*
X16000000Y-26300000D02*
X16500000Y-25800000D01*
X16500000Y-30300000D02*
X19000000Y-30300000D01*
X25000000Y-28400000D02*
X25000000Y-27800000D01*
X16000000Y-29800000D02*
X16500000Y-30300000D01*
X25000000Y-27800000D02*
X20500000Y-27800000D01*
X20000000Y-27300000D02*
X20000000Y-26300000D01*
X19500000Y-25800000D02*
X20000000Y-26300000D01*
X19000000Y-30300000D02*
G75*
G02X20500000Y-31800000I0J-1500000D01*
G01*
X20500000Y-32500000D02*
X25000000Y-32500000D01*
X20500000Y-31800000D02*
X20500000Y-32500000D01*
D10*
G36*
X25030000Y-15490000D02*
G01*
X20510000Y-15490000D01*
X20520000Y-15240000D01*
X20470000Y-14740000D01*
X20420000Y-14320000D01*
X20320000Y-14100000D01*
X19940000Y-13590000D01*
X19600000Y-13430000D01*
X19120000Y-13290000D01*
X18520000Y-13280000D01*
X17960000Y-13300000D01*
X16530000Y-13300000D01*
X15950000Y-12720000D01*
X15990000Y-9300000D01*
X16550000Y-8780000D01*
X19470000Y-8780000D01*
X19970000Y-9280000D01*
X20000000Y-10490000D01*
X20130000Y-10660000D01*
X20260000Y-10740000D01*
X20390000Y-10780000D01*
X20560000Y-10800000D01*
X20800000Y-10800000D01*
X25020000Y-10850000D01*
X25030000Y-15490000D01*
G37*
X25030000Y-15490000D02*
X20510000Y-15490000D01*
X20520000Y-15240000D01*
X20470000Y-14740000D01*
X20420000Y-14320000D01*
X20320000Y-14100000D01*
X19940000Y-13590000D01*
X19600000Y-13430000D01*
X19120000Y-13290000D01*
X18520000Y-13280000D01*
X17960000Y-13300000D01*
X16530000Y-13300000D01*
X15950000Y-12720000D01*
X15990000Y-9300000D01*
X16550000Y-8780000D01*
X19470000Y-8780000D01*
X19970000Y-9280000D01*
X20000000Y-10490000D01*
X20130000Y-10660000D01*
X20260000Y-10740000D01*
X20390000Y-10780000D01*
X20560000Y-10800000D01*
X20800000Y-10800000D01*
X25020000Y-10850000D01*
X25030000Y-15490000D01*
D11*
X25000000Y-15500000D02*
X25000000Y-15000000D01*
X20500000Y-10800000D02*
G75*
G02X20000000Y-10300000I0J500000D01*
G01*
X16500000Y-8800000D02*
X19500000Y-8800000D01*
X16000000Y-9300000D02*
X16500000Y-8800000D01*
X16500000Y-13300000D02*
X19000000Y-13300000D01*
X25000000Y-11400000D02*
X25000000Y-10800000D01*
X16000000Y-12800000D02*
X16500000Y-13300000D01*
X25000000Y-10800000D02*
X20500000Y-10800000D01*
X20000000Y-10300000D02*
X20000000Y-9300000D01*
X19500000Y-8800000D02*
X20000000Y-9300000D01*
X19000000Y-13300000D02*
G75*
G02X20500000Y-14800000I0J-1500000D01*
G01*
X20500000Y-15500000D02*
X25000000Y-15500000D01*
X20500000Y-14800000D02*
X20500000Y-15500000D01*
G36*
X114612635Y-22677030D02*
G01*
X114612635Y-22777030D01*
X115112635Y-22777030D01*
X115112635Y-22677030D01*
X114612635Y-22677030D01*
G37*
X114612635Y-22677030D02*
X114612635Y-22777030D01*
X115112635Y-22777030D01*
X115112635Y-22677030D01*
X114612635Y-22677030D01*
G36*
X114612635Y-22677030D02*
G01*
X114612635Y-22977030D01*
X114712635Y-22977030D01*
X114712635Y-22677030D01*
X114612635Y-22677030D01*
G37*
X114612635Y-22677030D02*
X114612635Y-22977030D01*
X114712635Y-22977030D01*
X114712635Y-22677030D01*
X114612635Y-22677030D01*
G36*
X114612635Y-23277030D02*
G01*
X114612635Y-23477030D01*
X114712635Y-23477030D01*
X114712635Y-23277030D01*
X114612635Y-23277030D01*
G37*
X114612635Y-23277030D02*
X114612635Y-23477030D01*
X114712635Y-23477030D01*
X114712635Y-23277030D01*
X114612635Y-23277030D01*
G36*
X115012635Y-22677030D02*
G01*
X115012635Y-23477030D01*
X115112635Y-23477030D01*
X115112635Y-22677030D01*
X115012635Y-22677030D01*
G37*
X115012635Y-22677030D02*
X115012635Y-23477030D01*
X115112635Y-23477030D01*
X115112635Y-22677030D01*
X115012635Y-22677030D01*
G36*
X114812635Y-23077030D02*
G01*
X114812635Y-23177030D01*
X114912635Y-23177030D01*
X114912635Y-23077030D01*
X114812635Y-23077030D01*
G37*
X114812635Y-23077030D02*
X114812635Y-23177030D01*
X114912635Y-23177030D01*
X114912635Y-23077030D01*
X114812635Y-23077030D01*
X111768000Y-50488000D02*
X111768000Y-49788000D01*
X111768000Y-46988000D02*
X111768000Y-47588000D01*
X105768000Y-46988000D02*
X105768000Y-47588000D01*
X105768000Y-50488000D02*
X105768000Y-49788000D01*
X105768000Y-46988000D02*
X111768000Y-46988000D01*
X111768000Y-50488000D02*
X105768000Y-50488000D01*
X111768000Y-50488000D02*
X105868000Y-50488000D01*
D12*
X74640000Y-23020000D02*
X69230000Y-23020000D01*
X74640000Y-21010000D02*
X74640000Y-23020000D01*
X69290000Y-20990000D02*
X74640000Y-20990000D01*
D10*
G36*
X69460000Y-20984000D02*
G01*
X69460000Y-23030000D01*
X68444000Y-23030000D01*
X68444000Y-20984000D01*
X68952000Y-20984000D01*
X69460000Y-20984000D01*
G37*
X69460000Y-20984000D02*
X69460000Y-23030000D01*
X68444000Y-23030000D01*
X68444000Y-20984000D01*
X68952000Y-20984000D01*
X69460000Y-20984000D01*
D12*
X109980000Y-60360000D02*
X109980000Y-65770000D01*
X111990000Y-60360000D02*
X109980000Y-60360000D01*
X112010000Y-65710000D02*
X112010000Y-60360000D01*
D10*
G36*
X112016000Y-65540000D02*
G01*
X109970000Y-65540000D01*
X109970000Y-66556000D01*
X112016000Y-66556000D01*
X112016000Y-66048000D01*
X112016000Y-65540000D01*
G37*
X112016000Y-65540000D02*
X109970000Y-65540000D01*
X109970000Y-66556000D01*
X112016000Y-66556000D01*
X112016000Y-66048000D01*
X112016000Y-65540000D01*
D12*
X92640000Y-73480000D02*
X87230000Y-73480000D01*
X92640000Y-75490000D02*
X92640000Y-73480000D01*
X87290000Y-75510000D02*
X92640000Y-75510000D01*
D10*
G36*
X87460000Y-75516000D02*
G01*
X87460000Y-73470000D01*
X86444000Y-73470000D01*
X86444000Y-75516000D01*
X86952000Y-75516000D01*
X87460000Y-75516000D01*
G37*
X87460000Y-75516000D02*
X87460000Y-73470000D01*
X86444000Y-73470000D01*
X86444000Y-75516000D01*
X86952000Y-75516000D01*
X87460000Y-75516000D01*
D12*
X92640000Y-59980000D02*
X87230000Y-59980000D01*
X92640000Y-61990000D02*
X92640000Y-59980000D01*
X87290000Y-62010000D02*
X92640000Y-62010000D01*
D10*
G36*
X87460000Y-62016000D02*
G01*
X87460000Y-59970000D01*
X86444000Y-59970000D01*
X86444000Y-62016000D01*
X86952000Y-62016000D01*
X87460000Y-62016000D01*
G37*
X87460000Y-62016000D02*
X87460000Y-59970000D01*
X86444000Y-59970000D01*
X86444000Y-62016000D01*
X86952000Y-62016000D01*
X87460000Y-62016000D01*
D12*
X92640000Y-42980000D02*
X87230000Y-42980000D01*
X92640000Y-44990000D02*
X92640000Y-42980000D01*
X87290000Y-45010000D02*
X92640000Y-45010000D01*
D10*
G36*
X87460000Y-45016000D02*
G01*
X87460000Y-42970000D01*
X86444000Y-42970000D01*
X86444000Y-45016000D01*
X86952000Y-45016000D01*
X87460000Y-45016000D01*
G37*
X87460000Y-45016000D02*
X87460000Y-42970000D01*
X86444000Y-42970000D01*
X86444000Y-45016000D01*
X86952000Y-45016000D01*
X87460000Y-45016000D01*
D12*
X92640000Y-25980000D02*
X87230000Y-25980000D01*
X92640000Y-27990000D02*
X92640000Y-25980000D01*
X87290000Y-28010000D02*
X92640000Y-28010000D01*
D10*
G36*
X87460000Y-28016000D02*
G01*
X87460000Y-25970000D01*
X86444000Y-25970000D01*
X86444000Y-28016000D01*
X86952000Y-28016000D01*
X87460000Y-28016000D01*
G37*
X87460000Y-28016000D02*
X87460000Y-25970000D01*
X86444000Y-25970000D01*
X86444000Y-28016000D01*
X86952000Y-28016000D01*
X87460000Y-28016000D01*
D12*
X74640000Y-68480000D02*
X69230000Y-68480000D01*
X74640000Y-70490000D02*
X74640000Y-68480000D01*
X69290000Y-70510000D02*
X74640000Y-70510000D01*
D10*
G36*
X69460000Y-70516000D02*
G01*
X69460000Y-68470000D01*
X68444000Y-68470000D01*
X68444000Y-70516000D01*
X68952000Y-70516000D01*
X69460000Y-70516000D01*
G37*
X69460000Y-70516000D02*
X69460000Y-68470000D01*
X68444000Y-68470000D01*
X68444000Y-70516000D01*
X68952000Y-70516000D01*
X69460000Y-70516000D01*
D12*
X74640000Y-54980000D02*
X69230000Y-54980000D01*
X74640000Y-56990000D02*
X74640000Y-54980000D01*
X69290000Y-57010000D02*
X74640000Y-57010000D01*
D10*
G36*
X69460000Y-57016000D02*
G01*
X69460000Y-54970000D01*
X68444000Y-54970000D01*
X68444000Y-57016000D01*
X68952000Y-57016000D01*
X69460000Y-57016000D01*
G37*
X69460000Y-57016000D02*
X69460000Y-54970000D01*
X68444000Y-54970000D01*
X68444000Y-57016000D01*
X68952000Y-57016000D01*
X69460000Y-57016000D01*
D12*
X74640000Y-37980000D02*
X69230000Y-37980000D01*
X74640000Y-39990000D02*
X74640000Y-37980000D01*
X69290000Y-40010000D02*
X74640000Y-40010000D01*
D10*
G36*
X69460000Y-40016000D02*
G01*
X69460000Y-37970000D01*
X68444000Y-37970000D01*
X68444000Y-40016000D01*
X68952000Y-40016000D01*
X69460000Y-40016000D01*
G37*
X69460000Y-40016000D02*
X69460000Y-37970000D01*
X68444000Y-37970000D01*
X68444000Y-40016000D01*
X68952000Y-40016000D01*
X69460000Y-40016000D01*
D12*
X56640000Y-62480000D02*
X51230000Y-62480000D01*
X56640000Y-64490000D02*
X56640000Y-62480000D01*
X51290000Y-64510000D02*
X56640000Y-64510000D01*
D10*
G36*
X51460000Y-64516000D02*
G01*
X51460000Y-62470000D01*
X50444000Y-62470000D01*
X50444000Y-64516000D01*
X50952000Y-64516000D01*
X51460000Y-64516000D01*
G37*
X51460000Y-64516000D02*
X51460000Y-62470000D01*
X50444000Y-62470000D01*
X50444000Y-64516000D01*
X50952000Y-64516000D01*
X51460000Y-64516000D01*
D12*
X56640000Y-48980000D02*
X51230000Y-48980000D01*
X56640000Y-50990000D02*
X56640000Y-48980000D01*
X51290000Y-51010000D02*
X56640000Y-51010000D01*
D10*
G36*
X51460000Y-51016000D02*
G01*
X51460000Y-48970000D01*
X50444000Y-48970000D01*
X50444000Y-51016000D01*
X50952000Y-51016000D01*
X51460000Y-51016000D01*
G37*
X51460000Y-51016000D02*
X51460000Y-48970000D01*
X50444000Y-48970000D01*
X50444000Y-51016000D01*
X50952000Y-51016000D01*
X51460000Y-51016000D01*
D12*
X56640000Y-31980000D02*
X51230000Y-31980000D01*
X56640000Y-33990000D02*
X56640000Y-31980000D01*
X51290000Y-34010000D02*
X56640000Y-34010000D01*
D10*
G36*
X51460000Y-34016000D02*
G01*
X51460000Y-31970000D01*
X50444000Y-31970000D01*
X50444000Y-34016000D01*
X50952000Y-34016000D01*
X51460000Y-34016000D01*
G37*
X51460000Y-34016000D02*
X51460000Y-31970000D01*
X50444000Y-31970000D01*
X50444000Y-34016000D01*
X50952000Y-34016000D01*
X51460000Y-34016000D01*
D12*
X56640000Y-14980000D02*
X51230000Y-14980000D01*
X56640000Y-16990000D02*
X56640000Y-14980000D01*
X51290000Y-17010000D02*
X56640000Y-17010000D01*
D10*
G36*
X51460000Y-17016000D02*
G01*
X51460000Y-14970000D01*
X50444000Y-14970000D01*
X50444000Y-17016000D01*
X50952000Y-17016000D01*
X51460000Y-17016000D01*
G37*
X51460000Y-17016000D02*
X51460000Y-14970000D01*
X50444000Y-14970000D01*
X50444000Y-17016000D01*
X50952000Y-17016000D01*
X51460000Y-17016000D01*
D12*
X38640000Y-67480000D02*
X33230000Y-67480000D01*
X38640000Y-69490000D02*
X38640000Y-67480000D01*
X33290000Y-69510000D02*
X38640000Y-69510000D01*
D10*
G36*
X33460000Y-69516000D02*
G01*
X33460000Y-67470000D01*
X32444000Y-67470000D01*
X32444000Y-69516000D01*
X32952000Y-69516000D01*
X33460000Y-69516000D01*
G37*
X33460000Y-69516000D02*
X33460000Y-67470000D01*
X32444000Y-67470000D01*
X32444000Y-69516000D01*
X32952000Y-69516000D01*
X33460000Y-69516000D01*
D12*
X38640000Y-53980000D02*
X33230000Y-53980000D01*
X38640000Y-55990000D02*
X38640000Y-53980000D01*
X33290000Y-56010000D02*
X38640000Y-56010000D01*
D10*
G36*
X33460000Y-56016000D02*
G01*
X33460000Y-53970000D01*
X32444000Y-53970000D01*
X32444000Y-56016000D01*
X32952000Y-56016000D01*
X33460000Y-56016000D01*
G37*
X33460000Y-56016000D02*
X33460000Y-53970000D01*
X32444000Y-53970000D01*
X32444000Y-56016000D01*
X32952000Y-56016000D01*
X33460000Y-56016000D01*
D12*
X38640000Y-36980000D02*
X33230000Y-36980000D01*
X38640000Y-38990000D02*
X38640000Y-36980000D01*
X33290000Y-39010000D02*
X38640000Y-39010000D01*
D10*
G36*
X33460000Y-39016000D02*
G01*
X33460000Y-36970000D01*
X32444000Y-36970000D01*
X32444000Y-39016000D01*
X32952000Y-39016000D01*
X33460000Y-39016000D01*
G37*
X33460000Y-39016000D02*
X33460000Y-36970000D01*
X32444000Y-36970000D01*
X32444000Y-39016000D01*
X32952000Y-39016000D01*
X33460000Y-39016000D01*
D12*
X38640000Y-19980000D02*
X33230000Y-19980000D01*
X38640000Y-21990000D02*
X38640000Y-19980000D01*
X33290000Y-22010000D02*
X38640000Y-22010000D01*
D10*
G36*
X33460000Y-22016000D02*
G01*
X33460000Y-19970000D01*
X32444000Y-19970000D01*
X32444000Y-22016000D01*
X32952000Y-22016000D01*
X33460000Y-22016000D01*
G37*
X33460000Y-22016000D02*
X33460000Y-19970000D01*
X32444000Y-19970000D01*
X32444000Y-22016000D01*
X32952000Y-22016000D01*
X33460000Y-22016000D01*
D12*
X20640000Y-70480000D02*
X15230000Y-70480000D01*
X20640000Y-72490000D02*
X20640000Y-70480000D01*
X15290000Y-72510000D02*
X20640000Y-72510000D01*
D10*
G36*
X15460000Y-72516000D02*
G01*
X15460000Y-70470000D01*
X14444000Y-70470000D01*
X14444000Y-72516000D01*
X14952000Y-72516000D01*
X15460000Y-72516000D01*
G37*
X15460000Y-72516000D02*
X15460000Y-70470000D01*
X14444000Y-70470000D01*
X14444000Y-72516000D01*
X14952000Y-72516000D01*
X15460000Y-72516000D01*
D12*
X20640000Y-56980000D02*
X15230000Y-56980000D01*
X20640000Y-58990000D02*
X20640000Y-56980000D01*
X15290000Y-59010000D02*
X20640000Y-59010000D01*
D10*
G36*
X15460000Y-59016000D02*
G01*
X15460000Y-56970000D01*
X14444000Y-56970000D01*
X14444000Y-59016000D01*
X14952000Y-59016000D01*
X15460000Y-59016000D01*
G37*
X15460000Y-59016000D02*
X15460000Y-56970000D01*
X14444000Y-56970000D01*
X14444000Y-59016000D01*
X14952000Y-59016000D01*
X15460000Y-59016000D01*
D12*
X20640000Y-39980000D02*
X15230000Y-39980000D01*
X20640000Y-41990000D02*
X20640000Y-39980000D01*
X15290000Y-42010000D02*
X20640000Y-42010000D01*
D10*
G36*
X15460000Y-42016000D02*
G01*
X15460000Y-39970000D01*
X14444000Y-39970000D01*
X14444000Y-42016000D01*
X14952000Y-42016000D01*
X15460000Y-42016000D01*
G37*
X15460000Y-42016000D02*
X15460000Y-39970000D01*
X14444000Y-39970000D01*
X14444000Y-42016000D01*
X14952000Y-42016000D01*
X15460000Y-42016000D01*
D12*
X20640000Y-22980000D02*
X15230000Y-22980000D01*
X20640000Y-24990000D02*
X20640000Y-22980000D01*
X15290000Y-25010000D02*
X20640000Y-25010000D01*
D10*
G36*
X15460000Y-25016000D02*
G01*
X15460000Y-22970000D01*
X14444000Y-22970000D01*
X14444000Y-25016000D01*
X14952000Y-25016000D01*
X15460000Y-25016000D01*
G37*
X15460000Y-25016000D02*
X15460000Y-22970000D01*
X14444000Y-22970000D01*
X14444000Y-25016000D01*
X14952000Y-25016000D01*
X15460000Y-25016000D01*
D13*
X108625142Y-24599428D02*
X108720380Y-24885142D01*
X108815619Y-24980380D01*
X109006095Y-25075619D01*
X109291809Y-25075619D01*
X109482285Y-24980380D01*
X109577523Y-24885142D01*
X109672761Y-24694666D01*
X109672761Y-23932761D01*
X107672761Y-23932761D01*
X107672761Y-24599428D01*
X107768000Y-24789904D01*
X107863238Y-24885142D01*
X108053714Y-24980380D01*
X108244190Y-24980380D01*
X108434666Y-24885142D01*
X108529904Y-24789904D01*
X108625142Y-24599428D01*
X108625142Y-23932761D01*
X107672761Y-26313714D02*
X107672761Y-26694666D01*
X107768000Y-26885142D01*
X107958476Y-27075619D01*
X108339428Y-27170857D01*
X109006095Y-27170857D01*
X109387047Y-27075619D01*
X109577523Y-26885142D01*
X109672761Y-26694666D01*
X109672761Y-26313714D01*
X109577523Y-26123238D01*
X109387047Y-25932761D01*
X109006095Y-25837523D01*
X108339428Y-25837523D01*
X107958476Y-25932761D01*
X107768000Y-26123238D01*
X107672761Y-26313714D01*
X107672761Y-27742285D02*
X107672761Y-28885142D01*
X109672761Y-28313714D02*
X107672761Y-28313714D01*
X107672761Y-29266095D02*
X107672761Y-30408952D01*
X109672761Y-29837523D02*
X107672761Y-29837523D01*
X107672761Y-31456571D02*
X107672761Y-31837523D01*
X107768000Y-32028000D01*
X107958476Y-32218476D01*
X108339428Y-32313714D01*
X109006095Y-32313714D01*
X109387047Y-32218476D01*
X109577523Y-32028000D01*
X109672761Y-31837523D01*
X109672761Y-31456571D01*
X109577523Y-31266095D01*
X109387047Y-31075619D01*
X109006095Y-30980380D01*
X108339428Y-30980380D01*
X107958476Y-31075619D01*
X107768000Y-31266095D01*
X107672761Y-31456571D01*
X109672761Y-33170857D02*
X107672761Y-33170857D01*
X109101333Y-33837523D01*
X107672761Y-34504190D01*
X109672761Y-34504190D01*
X107672761Y-36980380D02*
X109291809Y-36980380D01*
X109482285Y-37075619D01*
X109577523Y-37170857D01*
X109672761Y-37361333D01*
X109672761Y-37742285D01*
X109577523Y-37932761D01*
X109482285Y-38028000D01*
X109291809Y-38123238D01*
X107672761Y-38123238D01*
X109672761Y-39075619D02*
X107672761Y-39075619D01*
X107672761Y-39837523D01*
X107768000Y-40028000D01*
X107863238Y-40123238D01*
X108053714Y-40218476D01*
X108339428Y-40218476D01*
X108529904Y-40123238D01*
X108625142Y-40028000D01*
X108720380Y-39837523D01*
X108720380Y-39075619D01*
D11*
X114341333Y-23441809D02*
X114227047Y-23479904D01*
X114036571Y-23479904D01*
X113960380Y-23441809D01*
X113922285Y-23403714D01*
X113884190Y-23327523D01*
X113884190Y-23251333D01*
X113922285Y-23175142D01*
X113960380Y-23137047D01*
X114036571Y-23098952D01*
X114188952Y-23060857D01*
X114265142Y-23022761D01*
X114303238Y-22984666D01*
X114341333Y-22908476D01*
X114341333Y-22832285D01*
X114303238Y-22756095D01*
X114265142Y-22718000D01*
X114188952Y-22679904D01*
X113998476Y-22679904D01*
X113884190Y-22718000D01*
X113655619Y-22679904D02*
X113198476Y-22679904D01*
X113427047Y-23479904D02*
X113427047Y-22679904D01*
X107386604Y-17619904D02*
X106929461Y-17619904D01*
X107158032Y-18419904D02*
X107158032Y-17619904D01*
X106738985Y-17619904D02*
X106205651Y-18419904D01*
X106205651Y-17619904D02*
X106738985Y-18419904D01*
X105748508Y-17619904D02*
X105672318Y-17619904D01*
X105596128Y-17658000D01*
X105558032Y-17696095D01*
X105519937Y-17772285D01*
X105481842Y-17924666D01*
X105481842Y-18115142D01*
X105519937Y-18267523D01*
X105558032Y-18343714D01*
X105596128Y-18381809D01*
X105672318Y-18419904D01*
X105748508Y-18419904D01*
X105824699Y-18381809D01*
X105862794Y-18343714D01*
X105900889Y-18267523D01*
X105938985Y-18115142D01*
X105938985Y-17924666D01*
X105900889Y-17772285D01*
X105862794Y-17696095D01*
X105824699Y-17658000D01*
X105748508Y-17619904D01*
X104567556Y-17581809D02*
X105253270Y-18610380D01*
X104300889Y-18419904D02*
X104300889Y-17619904D01*
X104110413Y-17619904D01*
X103996128Y-17658000D01*
X103919937Y-17734190D01*
X103881842Y-17810380D01*
X103843747Y-17962761D01*
X103843747Y-18077047D01*
X103881842Y-18229428D01*
X103919937Y-18305619D01*
X103996128Y-18381809D01*
X104110413Y-18419904D01*
X104300889Y-18419904D01*
X103577080Y-17619904D02*
X103081842Y-17619904D01*
X103348508Y-17924666D01*
X103234223Y-17924666D01*
X103158032Y-17962761D01*
X103119937Y-18000857D01*
X103081842Y-18077047D01*
X103081842Y-18267523D01*
X103119937Y-18343714D01*
X103158032Y-18381809D01*
X103234223Y-18419904D01*
X103462794Y-18419904D01*
X103538985Y-18381809D01*
X103577080Y-18343714D01*
X114552809Y-43400857D02*
X114438523Y-43438952D01*
X114400428Y-43477047D01*
X114362333Y-43553238D01*
X114362333Y-43667523D01*
X114400428Y-43743714D01*
X114438523Y-43781809D01*
X114514714Y-43819904D01*
X114819476Y-43819904D01*
X114819476Y-43019904D01*
X114552809Y-43019904D01*
X114476619Y-43058000D01*
X114438523Y-43096095D01*
X114400428Y-43172285D01*
X114400428Y-43248476D01*
X114438523Y-43324666D01*
X114476619Y-43362761D01*
X114552809Y-43400857D01*
X114819476Y-43400857D01*
X114057571Y-43096095D02*
X114019476Y-43058000D01*
X113943285Y-43019904D01*
X113752809Y-43019904D01*
X113676619Y-43058000D01*
X113638523Y-43096095D01*
X113600428Y-43172285D01*
X113600428Y-43248476D01*
X113638523Y-43362761D01*
X114095666Y-43819904D01*
X113600428Y-43819904D01*
X114495666Y-35780857D02*
X114762333Y-35780857D01*
X114762333Y-36199904D02*
X114762333Y-35399904D01*
X114381380Y-35399904D01*
X114152809Y-35399904D02*
X113619476Y-35399904D01*
X113962333Y-36199904D01*
X114495666Y-33240857D02*
X114762333Y-33240857D01*
X114762333Y-33659904D02*
X114762333Y-32859904D01*
X114381380Y-32859904D01*
X113733761Y-32859904D02*
X113886142Y-32859904D01*
X113962333Y-32898000D01*
X114000428Y-32936095D01*
X114076619Y-33050380D01*
X114114714Y-33202761D01*
X114114714Y-33507523D01*
X114076619Y-33583714D01*
X114038523Y-33621809D01*
X113962333Y-33659904D01*
X113809952Y-33659904D01*
X113733761Y-33621809D01*
X113695666Y-33583714D01*
X113657571Y-33507523D01*
X113657571Y-33317047D01*
X113695666Y-33240857D01*
X113733761Y-33202761D01*
X113809952Y-33164666D01*
X113962333Y-33164666D01*
X114038523Y-33202761D01*
X114076619Y-33240857D01*
X114114714Y-33317047D01*
X114495666Y-30700857D02*
X114762333Y-30700857D01*
X114762333Y-31119904D02*
X114762333Y-30319904D01*
X114381380Y-30319904D01*
X113695666Y-30319904D02*
X114076619Y-30319904D01*
X114114714Y-30700857D01*
X114076619Y-30662761D01*
X114000428Y-30624666D01*
X113809952Y-30624666D01*
X113733761Y-30662761D01*
X113695666Y-30700857D01*
X113657571Y-30777047D01*
X113657571Y-30967523D01*
X113695666Y-31043714D01*
X113733761Y-31081809D01*
X113809952Y-31119904D01*
X114000428Y-31119904D01*
X114076619Y-31081809D01*
X114114714Y-31043714D01*
X114781380Y-18419904D02*
X115048047Y-18038952D01*
X115238523Y-18419904D02*
X115238523Y-17619904D01*
X114933761Y-17619904D01*
X114857571Y-17658000D01*
X114819476Y-17696095D01*
X114781380Y-17772285D01*
X114781380Y-17886571D01*
X114819476Y-17962761D01*
X114857571Y-18000857D01*
X114933761Y-18038952D01*
X115238523Y-18038952D01*
X114476619Y-18191333D02*
X114095666Y-18191333D01*
X114552809Y-18419904D02*
X114286142Y-17619904D01*
X114019476Y-18419904D01*
X113829000Y-17619904D02*
X113638523Y-18419904D01*
X113486142Y-17848476D01*
X113333761Y-18419904D01*
X113143285Y-17619904D01*
X114838523Y-20198000D02*
X114914714Y-20159904D01*
X115029000Y-20159904D01*
X115143285Y-20198000D01*
X115219476Y-20274190D01*
X115257571Y-20350380D01*
X115295666Y-20502761D01*
X115295666Y-20617047D01*
X115257571Y-20769428D01*
X115219476Y-20845619D01*
X115143285Y-20921809D01*
X115029000Y-20959904D01*
X114952809Y-20959904D01*
X114838523Y-20921809D01*
X114800428Y-20883714D01*
X114800428Y-20617047D01*
X114952809Y-20617047D01*
X114457571Y-20959904D02*
X114457571Y-20159904D01*
X114000428Y-20959904D01*
X114000428Y-20159904D01*
X113619476Y-20959904D02*
X113619476Y-20159904D01*
X113429000Y-20159904D01*
X113314714Y-20198000D01*
X113238523Y-20274190D01*
X113200428Y-20350380D01*
X113162333Y-20502761D01*
X113162333Y-20617047D01*
X113200428Y-20769428D01*
X113238523Y-20845619D01*
X113314714Y-20921809D01*
X113429000Y-20959904D01*
X113619476Y-20959904D01*
X115295666Y-25239904D02*
X115029000Y-26039904D01*
X114762333Y-25239904D01*
X114038523Y-25963714D02*
X114076619Y-26001809D01*
X114190904Y-26039904D01*
X114267095Y-26039904D01*
X114381380Y-26001809D01*
X114457571Y-25925619D01*
X114495666Y-25849428D01*
X114533761Y-25697047D01*
X114533761Y-25582761D01*
X114495666Y-25430380D01*
X114457571Y-25354190D01*
X114381380Y-25278000D01*
X114267095Y-25239904D01*
X114190904Y-25239904D01*
X114076619Y-25278000D01*
X114038523Y-25316095D01*
X113238523Y-25963714D02*
X113276619Y-26001809D01*
X113390904Y-26039904D01*
X113467095Y-26039904D01*
X113581380Y-26001809D01*
X113657571Y-25925619D01*
X113695666Y-25849428D01*
X113733761Y-25697047D01*
X113733761Y-25582761D01*
X113695666Y-25430380D01*
X113657571Y-25354190D01*
X113581380Y-25278000D01*
X113467095Y-25239904D01*
X113390904Y-25239904D01*
X113276619Y-25278000D01*
X113238523Y-25316095D01*
X114495666Y-28160857D02*
X114762333Y-28160857D01*
X114762333Y-28579904D02*
X114762333Y-27779904D01*
X114381380Y-27779904D01*
X113733761Y-28046571D02*
X113733761Y-28579904D01*
X113924238Y-27741809D02*
X114114714Y-28313238D01*
X113619476Y-28313238D01*
X114552809Y-38320857D02*
X114438523Y-38358952D01*
X114400428Y-38397047D01*
X114362333Y-38473238D01*
X114362333Y-38587523D01*
X114400428Y-38663714D01*
X114438523Y-38701809D01*
X114514714Y-38739904D01*
X114819476Y-38739904D01*
X114819476Y-37939904D01*
X114552809Y-37939904D01*
X114476619Y-37978000D01*
X114438523Y-38016095D01*
X114400428Y-38092285D01*
X114400428Y-38168476D01*
X114438523Y-38244666D01*
X114476619Y-38282761D01*
X114552809Y-38320857D01*
X114819476Y-38320857D01*
X113600428Y-38739904D02*
X114057571Y-38739904D01*
X113829000Y-38739904D02*
X113829000Y-37939904D01*
X113905190Y-38054190D01*
X113981380Y-38130380D01*
X114057571Y-38168476D01*
X114552809Y-40860857D02*
X114438523Y-40898952D01*
X114400428Y-40937047D01*
X114362333Y-41013238D01*
X114362333Y-41127523D01*
X114400428Y-41203714D01*
X114438523Y-41241809D01*
X114514714Y-41279904D01*
X114819476Y-41279904D01*
X114819476Y-40479904D01*
X114552809Y-40479904D01*
X114476619Y-40518000D01*
X114438523Y-40556095D01*
X114400428Y-40632285D01*
X114400428Y-40708476D01*
X114438523Y-40784666D01*
X114476619Y-40822761D01*
X114552809Y-40860857D01*
X114819476Y-40860857D01*
X114095666Y-40479904D02*
X113600428Y-40479904D01*
X113867095Y-40784666D01*
X113752809Y-40784666D01*
X113676619Y-40822761D01*
X113638523Y-40860857D01*
X113600428Y-40937047D01*
X113600428Y-41127523D01*
X113638523Y-41203714D01*
X113676619Y-41241809D01*
X113752809Y-41279904D01*
X113981380Y-41279904D01*
X114057571Y-41241809D01*
X114095666Y-41203714D01*
X114552809Y-45940857D02*
X114438523Y-45978952D01*
X114400428Y-46017047D01*
X114362333Y-46093238D01*
X114362333Y-46207523D01*
X114400428Y-46283714D01*
X114438523Y-46321809D01*
X114514714Y-46359904D01*
X114819476Y-46359904D01*
X114819476Y-45559904D01*
X114552809Y-45559904D01*
X114476619Y-45598000D01*
X114438523Y-45636095D01*
X114400428Y-45712285D01*
X114400428Y-45788476D01*
X114438523Y-45864666D01*
X114476619Y-45902761D01*
X114552809Y-45940857D01*
X114819476Y-45940857D01*
X113676619Y-45559904D02*
X113829000Y-45559904D01*
X113905190Y-45598000D01*
X113943285Y-45636095D01*
X114019476Y-45750380D01*
X114057571Y-45902761D01*
X114057571Y-46207523D01*
X114019476Y-46283714D01*
X113981380Y-46321809D01*
X113905190Y-46359904D01*
X113752809Y-46359904D01*
X113676619Y-46321809D01*
X113638523Y-46283714D01*
X113600428Y-46207523D01*
X113600428Y-46017047D01*
X113638523Y-45940857D01*
X113676619Y-45902761D01*
X113752809Y-45864666D01*
X113905190Y-45864666D01*
X113981380Y-45902761D01*
X114019476Y-45940857D01*
X114057571Y-46017047D01*
X103630809Y-45940857D02*
X103516523Y-45978952D01*
X103478428Y-46017047D01*
X103440333Y-46093238D01*
X103440333Y-46207523D01*
X103478428Y-46283714D01*
X103516523Y-46321809D01*
X103592714Y-46359904D01*
X103897476Y-46359904D01*
X103897476Y-45559904D01*
X103630809Y-45559904D01*
X103554619Y-45598000D01*
X103516523Y-45636095D01*
X103478428Y-45712285D01*
X103478428Y-45788476D01*
X103516523Y-45864666D01*
X103554619Y-45902761D01*
X103630809Y-45940857D01*
X103897476Y-45940857D01*
X102716523Y-45559904D02*
X103097476Y-45559904D01*
X103135571Y-45940857D01*
X103097476Y-45902761D01*
X103021285Y-45864666D01*
X102830809Y-45864666D01*
X102754619Y-45902761D01*
X102716523Y-45940857D01*
X102678428Y-46017047D01*
X102678428Y-46207523D01*
X102716523Y-46283714D01*
X102754619Y-46321809D01*
X102830809Y-46359904D01*
X103021285Y-46359904D01*
X103097476Y-46321809D01*
X103135571Y-46283714D01*
X103630809Y-43400857D02*
X103516523Y-43438952D01*
X103478428Y-43477047D01*
X103440333Y-43553238D01*
X103440333Y-43667523D01*
X103478428Y-43743714D01*
X103516523Y-43781809D01*
X103592714Y-43819904D01*
X103897476Y-43819904D01*
X103897476Y-43019904D01*
X103630809Y-43019904D01*
X103554619Y-43058000D01*
X103516523Y-43096095D01*
X103478428Y-43172285D01*
X103478428Y-43248476D01*
X103516523Y-43324666D01*
X103554619Y-43362761D01*
X103630809Y-43400857D01*
X103897476Y-43400857D01*
X102754619Y-43286571D02*
X102754619Y-43819904D01*
X102945095Y-42981809D02*
X103135571Y-43553238D01*
X102640333Y-43553238D01*
X103859380Y-40860857D02*
X103592714Y-40860857D01*
X103478428Y-41279904D02*
X103859380Y-41279904D01*
X103859380Y-40479904D01*
X103478428Y-40479904D01*
X102792714Y-40479904D02*
X102945095Y-40479904D01*
X103021285Y-40518000D01*
X103059380Y-40556095D01*
X103135571Y-40670380D01*
X103173666Y-40822761D01*
X103173666Y-41127523D01*
X103135571Y-41203714D01*
X103097476Y-41241809D01*
X103021285Y-41279904D01*
X102868904Y-41279904D01*
X102792714Y-41241809D01*
X102754619Y-41203714D01*
X102716523Y-41127523D01*
X102716523Y-40937047D01*
X102754619Y-40860857D01*
X102792714Y-40822761D01*
X102868904Y-40784666D01*
X103021285Y-40784666D01*
X103097476Y-40822761D01*
X103135571Y-40860857D01*
X103173666Y-40937047D01*
X103897476Y-38739904D02*
X103897476Y-37939904D01*
X103707000Y-37939904D01*
X103592714Y-37978000D01*
X103516523Y-38054190D01*
X103478428Y-38130380D01*
X103440333Y-38282761D01*
X103440333Y-38397047D01*
X103478428Y-38549428D01*
X103516523Y-38625619D01*
X103592714Y-38701809D01*
X103707000Y-38739904D01*
X103897476Y-38739904D01*
X103173666Y-37939904D02*
X102640333Y-37939904D01*
X102983190Y-38739904D01*
X103440333Y-36123714D02*
X103478428Y-36161809D01*
X103592714Y-36199904D01*
X103668904Y-36199904D01*
X103783190Y-36161809D01*
X103859380Y-36085619D01*
X103897476Y-36009428D01*
X103935571Y-35857047D01*
X103935571Y-35742761D01*
X103897476Y-35590380D01*
X103859380Y-35514190D01*
X103783190Y-35438000D01*
X103668904Y-35399904D01*
X103592714Y-35399904D01*
X103478428Y-35438000D01*
X103440333Y-35476095D01*
X102754619Y-35399904D02*
X102907000Y-35399904D01*
X102983190Y-35438000D01*
X103021285Y-35476095D01*
X103097476Y-35590380D01*
X103135571Y-35742761D01*
X103135571Y-36047523D01*
X103097476Y-36123714D01*
X103059380Y-36161809D01*
X102983190Y-36199904D01*
X102830809Y-36199904D01*
X102754619Y-36161809D01*
X102716523Y-36123714D01*
X102678428Y-36047523D01*
X102678428Y-35857047D01*
X102716523Y-35780857D01*
X102754619Y-35742761D01*
X102830809Y-35704666D01*
X102983190Y-35704666D01*
X103059380Y-35742761D01*
X103097476Y-35780857D01*
X103135571Y-35857047D01*
X103897476Y-33659904D02*
X103897476Y-32859904D01*
X103707000Y-32859904D01*
X103592714Y-32898000D01*
X103516523Y-32974190D01*
X103478428Y-33050380D01*
X103440333Y-33202761D01*
X103440333Y-33317047D01*
X103478428Y-33469428D01*
X103516523Y-33545619D01*
X103592714Y-33621809D01*
X103707000Y-33659904D01*
X103897476Y-33659904D01*
X102754619Y-33126571D02*
X102754619Y-33659904D01*
X102945095Y-32821809D02*
X103135571Y-33393238D01*
X102640333Y-33393238D01*
X103916523Y-22738000D02*
X103992714Y-22699904D01*
X104107000Y-22699904D01*
X104221285Y-22738000D01*
X104297476Y-22814190D01*
X104335571Y-22890380D01*
X104373666Y-23042761D01*
X104373666Y-23157047D01*
X104335571Y-23309428D01*
X104297476Y-23385619D01*
X104221285Y-23461809D01*
X104107000Y-23499904D01*
X104030809Y-23499904D01*
X103916523Y-23461809D01*
X103878428Y-23423714D01*
X103878428Y-23157047D01*
X104030809Y-23157047D01*
X103535571Y-23499904D02*
X103535571Y-22699904D01*
X103078428Y-23499904D01*
X103078428Y-22699904D01*
X102697476Y-23499904D02*
X102697476Y-22699904D01*
X102507000Y-22699904D01*
X102392714Y-22738000D01*
X102316523Y-22814190D01*
X102278428Y-22890380D01*
X102240333Y-23042761D01*
X102240333Y-23157047D01*
X102278428Y-23309428D01*
X102316523Y-23385619D01*
X102392714Y-23461809D01*
X102507000Y-23499904D01*
X102697476Y-23499904D01*
X103916523Y-25278000D02*
X103992714Y-25239904D01*
X104107000Y-25239904D01*
X104221285Y-25278000D01*
X104297476Y-25354190D01*
X104335571Y-25430380D01*
X104373666Y-25582761D01*
X104373666Y-25697047D01*
X104335571Y-25849428D01*
X104297476Y-25925619D01*
X104221285Y-26001809D01*
X104107000Y-26039904D01*
X104030809Y-26039904D01*
X103916523Y-26001809D01*
X103878428Y-25963714D01*
X103878428Y-25697047D01*
X104030809Y-25697047D01*
X103535571Y-26039904D02*
X103535571Y-25239904D01*
X103078428Y-26039904D01*
X103078428Y-25239904D01*
X102697476Y-26039904D02*
X102697476Y-25239904D01*
X102507000Y-25239904D01*
X102392714Y-25278000D01*
X102316523Y-25354190D01*
X102278428Y-25430380D01*
X102240333Y-25582761D01*
X102240333Y-25697047D01*
X102278428Y-25849428D01*
X102316523Y-25925619D01*
X102392714Y-26001809D01*
X102507000Y-26039904D01*
X102697476Y-26039904D01*
X103897476Y-28579904D02*
X103897476Y-27779904D01*
X103707000Y-27779904D01*
X103592714Y-27818000D01*
X103516523Y-27894190D01*
X103478428Y-27970380D01*
X103440333Y-28122761D01*
X103440333Y-28237047D01*
X103478428Y-28389428D01*
X103516523Y-28465619D01*
X103592714Y-28541809D01*
X103707000Y-28579904D01*
X103897476Y-28579904D01*
X102678428Y-28579904D02*
X103135571Y-28579904D01*
X102907000Y-28579904D02*
X102907000Y-27779904D01*
X102983190Y-27894190D01*
X103059380Y-27970380D01*
X103135571Y-28008476D01*
X103897476Y-31119904D02*
X103897476Y-30319904D01*
X103707000Y-30319904D01*
X103592714Y-30358000D01*
X103516523Y-30434190D01*
X103478428Y-30510380D01*
X103440333Y-30662761D01*
X103440333Y-30777047D01*
X103478428Y-30929428D01*
X103516523Y-31005619D01*
X103592714Y-31081809D01*
X103707000Y-31119904D01*
X103897476Y-31119904D01*
X102945095Y-30319904D02*
X102868904Y-30319904D01*
X102792714Y-30358000D01*
X102754619Y-30396095D01*
X102716523Y-30472285D01*
X102678428Y-30624666D01*
X102678428Y-30815142D01*
X102716523Y-30967523D01*
X102754619Y-31043714D01*
X102792714Y-31081809D01*
X102868904Y-31119904D01*
X102945095Y-31119904D01*
X103021285Y-31081809D01*
X103059380Y-31043714D01*
X103097476Y-30967523D01*
X103135571Y-30815142D01*
X103135571Y-30624666D01*
X103097476Y-30472285D01*
X103059380Y-30396095D01*
X103021285Y-30358000D01*
X102945095Y-30319904D01*
X103897476Y-20959904D02*
X103897476Y-20159904D01*
X103707000Y-20159904D01*
X103592714Y-20198000D01*
X103516523Y-20274190D01*
X103478428Y-20350380D01*
X103440333Y-20502761D01*
X103440333Y-20617047D01*
X103478428Y-20769428D01*
X103516523Y-20845619D01*
X103592714Y-20921809D01*
X103707000Y-20959904D01*
X103897476Y-20959904D01*
X103135571Y-20236095D02*
X103097476Y-20198000D01*
X103021285Y-20159904D01*
X102830809Y-20159904D01*
X102754619Y-20198000D01*
X102716523Y-20236095D01*
X102678428Y-20312285D01*
X102678428Y-20388476D01*
X102716523Y-20502761D01*
X103173666Y-20959904D01*
X102678428Y-20959904D01*
X109929904Y-49049904D02*
X110196571Y-48668952D01*
X110387047Y-49049904D02*
X110387047Y-48249904D01*
X110082285Y-48249904D01*
X110006095Y-48288000D01*
X109968000Y-48326095D01*
X109929904Y-48402285D01*
X109929904Y-48516571D01*
X109968000Y-48592761D01*
X110006095Y-48630857D01*
X110082285Y-48668952D01*
X110387047Y-48668952D01*
X109587047Y-48630857D02*
X109320380Y-48630857D01*
X109206095Y-49049904D02*
X109587047Y-49049904D01*
X109587047Y-48249904D01*
X109206095Y-48249904D01*
X108901333Y-49011809D02*
X108787047Y-49049904D01*
X108596571Y-49049904D01*
X108520380Y-49011809D01*
X108482285Y-48973714D01*
X108444190Y-48897523D01*
X108444190Y-48821333D01*
X108482285Y-48745142D01*
X108520380Y-48707047D01*
X108596571Y-48668952D01*
X108748952Y-48630857D01*
X108825142Y-48592761D01*
X108863238Y-48554666D01*
X108901333Y-48478476D01*
X108901333Y-48402285D01*
X108863238Y-48326095D01*
X108825142Y-48288000D01*
X108748952Y-48249904D01*
X108558476Y-48249904D01*
X108444190Y-48288000D01*
X108101333Y-48630857D02*
X107834666Y-48630857D01*
X107720380Y-49049904D02*
X108101333Y-49049904D01*
X108101333Y-48249904D01*
X107720380Y-48249904D01*
X107491809Y-48249904D02*
X107034666Y-48249904D01*
X107263238Y-49049904D02*
X107263238Y-48249904D01*
M02*
