G04 #@! TF.GenerationSoftware,KiCad,Pcbnew,(5.1.4)-1*
G04 #@! TF.CreationDate,2020-06-07T15:02:50-04:00*
G04 #@! TF.ProjectId,splitreus,73706c69-7472-4657-9573-2e6b69636164,1*
G04 #@! TF.SameCoordinates,Original*
G04 #@! TF.FileFunction,Paste,Bot*
G04 #@! TF.FilePolarity,Positive*
%FSLAX46Y46*%
G04 Gerber Fmt 4.6, Leading zero omitted, Abs format (unit mm)*
G04 Created by KiCad (PCBNEW (5.1.4)-1) date 2020-06-07 15:02:50*
%MOMM*%
%LPD*%
G04 APERTURE LIST*
%ADD10R,1.600000X1.200000*%
%ADD11R,1.200000X1.600000*%
G04 APERTURE END LIST*
D10*
X96400000Y-50500000D03*
X93600000Y-50500000D03*
D11*
X104500000Y-63600000D03*
X104500000Y-66400000D03*
X104500000Y-75600000D03*
X104500000Y-78400000D03*
D10*
X96400000Y-69500000D03*
X93600000Y-69500000D03*
X96400000Y-31500000D03*
X93600000Y-31500000D03*
X96400000Y-12500000D03*
X93600000Y-12500000D03*
D11*
X85500000Y-72600000D03*
X85500000Y-75400000D03*
D10*
X77400000Y-64500000D03*
X74600000Y-64500000D03*
X77400000Y-45500000D03*
X74600000Y-45500000D03*
X77400000Y-26500000D03*
X74600000Y-26500000D03*
X77400000Y-7500000D03*
X74600000Y-7500000D03*
D11*
X66500000Y-66600000D03*
X66500000Y-69400000D03*
D10*
X58400000Y-58500000D03*
X55600000Y-58500000D03*
X58400000Y-39500000D03*
X55600000Y-39500000D03*
X58400000Y-1500000D03*
X55600000Y-1500000D03*
D11*
X47500000Y-70600000D03*
X47500000Y-73400000D03*
D10*
X39400000Y-63500000D03*
X36600000Y-63500000D03*
X39400000Y-44500000D03*
X36600000Y-44500000D03*
X39400000Y-25500000D03*
X36600000Y-25500000D03*
X39400000Y-6500000D03*
X36600000Y-6500000D03*
D11*
X28500000Y-74600000D03*
X28500000Y-77400000D03*
D10*
X20400000Y-66500000D03*
X17600000Y-66500000D03*
X20400000Y-47500000D03*
X17600000Y-47500000D03*
X20400000Y-28500000D03*
X17600000Y-28500000D03*
X20400000Y-9500000D03*
X17600000Y-9500000D03*
X58400000Y-20500000D03*
X55600000Y-20500000D03*
D11*
X9500000Y-74600000D03*
X9500000Y-77400000D03*
D10*
X1400000Y-66500000D03*
X-1400000Y-66500000D03*
X1400000Y-47500000D03*
X-1400000Y-47500000D03*
X1400000Y-28500000D03*
X-1400000Y-28500000D03*
X1400000Y-9500000D03*
X-1400000Y-9500000D03*
M02*
