G04 #@! TF.GenerationSoftware,KiCad,Pcbnew,(5.1.4)-1*
G04 #@! TF.CreationDate,2020-07-05T11:50:33-04:00*
G04 #@! TF.ProjectId,splitreus,73706c69-7472-4657-9573-2e6b69636164,1*
G04 #@! TF.SameCoordinates,Original*
G04 #@! TF.FileFunction,Legend,Bot*
G04 #@! TF.FilePolarity,Positive*
%FSLAX46Y46*%
G04 Gerber Fmt 4.6, Leading zero omitted, Abs format (unit mm)*
G04 Created by KiCad (PCBNEW (5.1.4)-1) date 2020-07-05 11:50:33*
%MOMM*%
%LPD*%
G04 APERTURE LIST*
%ADD10C,0.300000*%
%ADD11C,0.200000*%
%ADD12C,0.400000*%
%ADD13C,0.150000*%
%ADD14C,0.120000*%
%ADD15C,0.100000*%
G04 APERTURE END LIST*
D10*
X116890354Y-39728571D02*
X117390354Y-39014285D01*
X117747497Y-39728571D02*
X117747497Y-38228571D01*
X117176068Y-38228571D01*
X117033211Y-38300000D01*
X116961782Y-38371428D01*
X116890354Y-38514285D01*
X116890354Y-38728571D01*
X116961782Y-38871428D01*
X117033211Y-38942857D01*
X117176068Y-39014285D01*
X117747497Y-39014285D01*
X111871314Y-39626971D02*
X112585600Y-39626971D01*
X112585600Y-38126971D01*
D11*
X10702380Y-43928571D02*
X10035714Y-43928571D01*
X10226190Y-43928571D02*
X10130952Y-43976190D01*
X10083333Y-44023809D01*
X10035714Y-44119047D01*
X10035714Y-44214285D01*
X10654761Y-44928571D02*
X10702380Y-44833333D01*
X10702380Y-44642857D01*
X10654761Y-44547619D01*
X10559523Y-44500000D01*
X10178571Y-44500000D01*
X10083333Y-44547619D01*
X10035714Y-44642857D01*
X10035714Y-44833333D01*
X10083333Y-44928571D01*
X10178571Y-44976190D01*
X10273809Y-44976190D01*
X10369047Y-44500000D01*
X10035714Y-45309523D02*
X10702380Y-45547619D01*
X10035714Y-45785714D01*
X10702380Y-46690476D02*
X10702380Y-46119047D01*
X10702380Y-46404761D02*
X9702380Y-46404761D01*
X9845238Y-46309523D01*
X9940476Y-46214285D01*
X9988095Y-46119047D01*
X10607142Y-47119047D02*
X10654761Y-47166666D01*
X10702380Y-47119047D01*
X10654761Y-47071428D01*
X10607142Y-47119047D01*
X10702380Y-47119047D01*
X10702380Y-48119047D02*
X10702380Y-47547619D01*
X10702380Y-47833333D02*
X9702380Y-47833333D01*
X9845238Y-47738095D01*
X9940476Y-47642857D01*
X9988095Y-47547619D01*
D12*
X10714285Y-18000000D02*
X10857142Y-18285714D01*
X10857142Y-18857142D01*
X10714285Y-19142857D01*
X10428571Y-19285714D01*
X10285714Y-19285714D01*
X10000000Y-19142857D01*
X9857142Y-18857142D01*
X9857142Y-18428571D01*
X9714285Y-18142857D01*
X9428571Y-18000000D01*
X9285714Y-18000000D01*
X9000000Y-18142857D01*
X8857142Y-18428571D01*
X8857142Y-18857142D01*
X9000000Y-19142857D01*
X8857142Y-20571428D02*
X11857142Y-20571428D01*
X9000000Y-20571428D02*
X8857142Y-20857142D01*
X8857142Y-21428571D01*
X9000000Y-21714285D01*
X9142857Y-21857142D01*
X9428571Y-22000000D01*
X10285714Y-22000000D01*
X10571428Y-21857142D01*
X10714285Y-21714285D01*
X10857142Y-21428571D01*
X10857142Y-20857142D01*
X10714285Y-20571428D01*
X10857142Y-23714285D02*
X10714285Y-23428571D01*
X10428571Y-23285714D01*
X7857142Y-23285714D01*
X10857142Y-24857142D02*
X8857142Y-24857142D01*
X7857142Y-24857142D02*
X8000000Y-24714285D01*
X8142857Y-24857142D01*
X8000000Y-25000000D01*
X7857142Y-24857142D01*
X8142857Y-24857142D01*
X8857142Y-25857142D02*
X8857142Y-27000000D01*
X7857142Y-26285714D02*
X10428571Y-26285714D01*
X10714285Y-26428571D01*
X10857142Y-26714285D01*
X10857142Y-27000000D01*
X10857142Y-28000000D02*
X8857142Y-28000000D01*
X9428571Y-28000000D02*
X9142857Y-28142857D01*
X9000000Y-28285714D01*
X8857142Y-28571428D01*
X8857142Y-28857142D01*
X10714285Y-31000000D02*
X10857142Y-30714285D01*
X10857142Y-30142857D01*
X10714285Y-29857142D01*
X10428571Y-29714285D01*
X9285714Y-29714285D01*
X9000000Y-29857142D01*
X8857142Y-30142857D01*
X8857142Y-30714285D01*
X9000000Y-31000000D01*
X9285714Y-31142857D01*
X9571428Y-31142857D01*
X9857142Y-29714285D01*
X8857142Y-33714285D02*
X10857142Y-33714285D01*
X8857142Y-32428571D02*
X10428571Y-32428571D01*
X10714285Y-32571428D01*
X10857142Y-32857142D01*
X10857142Y-33285714D01*
X10714285Y-33571428D01*
X10571428Y-33714285D01*
X10714285Y-35000000D02*
X10857142Y-35285714D01*
X10857142Y-35857142D01*
X10714285Y-36142857D01*
X10428571Y-36285714D01*
X10285714Y-36285714D01*
X10000000Y-36142857D01*
X9857142Y-35857142D01*
X9857142Y-35428571D01*
X9714285Y-35142857D01*
X9428571Y-35000000D01*
X9285714Y-35000000D01*
X9000000Y-35142857D01*
X8857142Y-35428571D01*
X8857142Y-35857142D01*
X9000000Y-36142857D01*
X7857142Y-38857142D02*
X7857142Y-38285714D01*
X8000000Y-38000000D01*
X8142857Y-37857142D01*
X8571428Y-37571428D01*
X9142857Y-37428571D01*
X10285714Y-37428571D01*
X10571428Y-37571428D01*
X10714285Y-37714285D01*
X10857142Y-38000000D01*
X10857142Y-38571428D01*
X10714285Y-38857142D01*
X10571428Y-39000000D01*
X10285714Y-39142857D01*
X9571428Y-39142857D01*
X9285714Y-39000000D01*
X9142857Y-38857142D01*
X9000000Y-38571428D01*
X9000000Y-38000000D01*
X9142857Y-37714285D01*
X9285714Y-37571428D01*
X9571428Y-37428571D01*
X8142857Y-40285714D02*
X7999999Y-40428571D01*
X7857142Y-40714285D01*
X7857142Y-41428571D01*
X7999999Y-41714285D01*
X8142857Y-41857142D01*
X8428571Y-42000000D01*
X8714285Y-42000000D01*
X9142857Y-41857142D01*
X10857142Y-40142857D01*
X10857142Y-42000000D01*
D13*
X105262000Y-62540000D02*
X105262000Y-57460000D01*
X105262000Y-57460000D02*
X103738000Y-57460000D01*
X103738000Y-57460000D02*
X103738000Y-62540000D01*
X103738000Y-62540000D02*
X105262000Y-62540000D01*
X105262000Y-57841000D02*
X103738000Y-57841000D01*
X103738000Y-57714000D02*
X105262000Y-57714000D01*
X105262000Y-57587000D02*
X103738000Y-57587000D01*
X103738000Y-57968000D02*
X105262000Y-57968000D01*
X105262000Y-58095000D02*
X103738000Y-58095000D01*
X105262000Y-58222000D02*
X103738000Y-58222000D01*
X105262000Y-73540000D02*
X105262000Y-68460000D01*
X105262000Y-68460000D02*
X103738000Y-68460000D01*
X103738000Y-68460000D02*
X103738000Y-73540000D01*
X103738000Y-73540000D02*
X105262000Y-73540000D01*
X105262000Y-68841000D02*
X103738000Y-68841000D01*
X103738000Y-68714000D02*
X105262000Y-68714000D01*
X105262000Y-68587000D02*
X103738000Y-68587000D01*
X103738000Y-68968000D02*
X105262000Y-68968000D01*
X105262000Y-69095000D02*
X103738000Y-69095000D01*
X105262000Y-69222000D02*
X103738000Y-69222000D01*
X92460000Y-66762000D02*
X97540000Y-66762000D01*
X97540000Y-66762000D02*
X97540000Y-65238000D01*
X97540000Y-65238000D02*
X92460000Y-65238000D01*
X92460000Y-65238000D02*
X92460000Y-66762000D01*
X97159000Y-66762000D02*
X97159000Y-65238000D01*
X97286000Y-65238000D02*
X97286000Y-66762000D01*
X97413000Y-66762000D02*
X97413000Y-65238000D01*
X97032000Y-65238000D02*
X97032000Y-66762000D01*
X96905000Y-66762000D02*
X96905000Y-65238000D01*
X96778000Y-66762000D02*
X96778000Y-65238000D01*
X92460000Y-48762000D02*
X97540000Y-48762000D01*
X97540000Y-48762000D02*
X97540000Y-47238000D01*
X97540000Y-47238000D02*
X92460000Y-47238000D01*
X92460000Y-47238000D02*
X92460000Y-48762000D01*
X97159000Y-48762000D02*
X97159000Y-47238000D01*
X97286000Y-47238000D02*
X97286000Y-48762000D01*
X97413000Y-48762000D02*
X97413000Y-47238000D01*
X97032000Y-47238000D02*
X97032000Y-48762000D01*
X96905000Y-48762000D02*
X96905000Y-47238000D01*
X96778000Y-48762000D02*
X96778000Y-47238000D01*
X92460000Y-30762000D02*
X97540000Y-30762000D01*
X97540000Y-30762000D02*
X97540000Y-29238000D01*
X97540000Y-29238000D02*
X92460000Y-29238000D01*
X92460000Y-29238000D02*
X92460000Y-30762000D01*
X97159000Y-30762000D02*
X97159000Y-29238000D01*
X97286000Y-29238000D02*
X97286000Y-30762000D01*
X97413000Y-30762000D02*
X97413000Y-29238000D01*
X97032000Y-29238000D02*
X97032000Y-30762000D01*
X96905000Y-30762000D02*
X96905000Y-29238000D01*
X96778000Y-30762000D02*
X96778000Y-29238000D01*
X92460000Y-12762000D02*
X97540000Y-12762000D01*
X97540000Y-12762000D02*
X97540000Y-11238000D01*
X97540000Y-11238000D02*
X92460000Y-11238000D01*
X92460000Y-11238000D02*
X92460000Y-12762000D01*
X97159000Y-12762000D02*
X97159000Y-11238000D01*
X97286000Y-11238000D02*
X97286000Y-12762000D01*
X97413000Y-12762000D02*
X97413000Y-11238000D01*
X97032000Y-11238000D02*
X97032000Y-12762000D01*
X96905000Y-12762000D02*
X96905000Y-11238000D01*
X96778000Y-12762000D02*
X96778000Y-11238000D01*
X86262000Y-74540000D02*
X86262000Y-69460000D01*
X86262000Y-69460000D02*
X84738000Y-69460000D01*
X84738000Y-69460000D02*
X84738000Y-74540000D01*
X84738000Y-74540000D02*
X86262000Y-74540000D01*
X86262000Y-69841000D02*
X84738000Y-69841000D01*
X84738000Y-69714000D02*
X86262000Y-69714000D01*
X86262000Y-69587000D02*
X84738000Y-69587000D01*
X84738000Y-69968000D02*
X86262000Y-69968000D01*
X86262000Y-70095000D02*
X84738000Y-70095000D01*
X86262000Y-70222000D02*
X84738000Y-70222000D01*
X73460000Y-61762000D02*
X78540000Y-61762000D01*
X78540000Y-61762000D02*
X78540000Y-60238000D01*
X78540000Y-60238000D02*
X73460000Y-60238000D01*
X73460000Y-60238000D02*
X73460000Y-61762000D01*
X78159000Y-61762000D02*
X78159000Y-60238000D01*
X78286000Y-60238000D02*
X78286000Y-61762000D01*
X78413000Y-61762000D02*
X78413000Y-60238000D01*
X78032000Y-60238000D02*
X78032000Y-61762000D01*
X77905000Y-61762000D02*
X77905000Y-60238000D01*
X77778000Y-61762000D02*
X77778000Y-60238000D01*
X73460000Y-43762000D02*
X78540000Y-43762000D01*
X78540000Y-43762000D02*
X78540000Y-42238000D01*
X78540000Y-42238000D02*
X73460000Y-42238000D01*
X73460000Y-42238000D02*
X73460000Y-43762000D01*
X78159000Y-43762000D02*
X78159000Y-42238000D01*
X78286000Y-42238000D02*
X78286000Y-43762000D01*
X78413000Y-43762000D02*
X78413000Y-42238000D01*
X78032000Y-42238000D02*
X78032000Y-43762000D01*
X77905000Y-43762000D02*
X77905000Y-42238000D01*
X77778000Y-43762000D02*
X77778000Y-42238000D01*
X73460000Y-25762000D02*
X78540000Y-25762000D01*
X78540000Y-25762000D02*
X78540000Y-24238000D01*
X78540000Y-24238000D02*
X73460000Y-24238000D01*
X73460000Y-24238000D02*
X73460000Y-25762000D01*
X78159000Y-25762000D02*
X78159000Y-24238000D01*
X78286000Y-24238000D02*
X78286000Y-25762000D01*
X78413000Y-25762000D02*
X78413000Y-24238000D01*
X78032000Y-24238000D02*
X78032000Y-25762000D01*
X77905000Y-25762000D02*
X77905000Y-24238000D01*
X77778000Y-25762000D02*
X77778000Y-24238000D01*
X73460000Y-7762000D02*
X78540000Y-7762000D01*
X78540000Y-7762000D02*
X78540000Y-6238000D01*
X78540000Y-6238000D02*
X73460000Y-6238000D01*
X73460000Y-6238000D02*
X73460000Y-7762000D01*
X78159000Y-7762000D02*
X78159000Y-6238000D01*
X78286000Y-6238000D02*
X78286000Y-7762000D01*
X78413000Y-7762000D02*
X78413000Y-6238000D01*
X78032000Y-6238000D02*
X78032000Y-7762000D01*
X77905000Y-7762000D02*
X77905000Y-6238000D01*
X77778000Y-7762000D02*
X77778000Y-6238000D01*
X67262000Y-66540000D02*
X67262000Y-61460000D01*
X67262000Y-61460000D02*
X65738000Y-61460000D01*
X65738000Y-61460000D02*
X65738000Y-66540000D01*
X65738000Y-66540000D02*
X67262000Y-66540000D01*
X67262000Y-61841000D02*
X65738000Y-61841000D01*
X65738000Y-61714000D02*
X67262000Y-61714000D01*
X67262000Y-61587000D02*
X65738000Y-61587000D01*
X65738000Y-61968000D02*
X67262000Y-61968000D01*
X67262000Y-62095000D02*
X65738000Y-62095000D01*
X67262000Y-62222000D02*
X65738000Y-62222000D01*
X54460000Y-55762000D02*
X59540000Y-55762000D01*
X59540000Y-55762000D02*
X59540000Y-54238000D01*
X59540000Y-54238000D02*
X54460000Y-54238000D01*
X54460000Y-54238000D02*
X54460000Y-55762000D01*
X59159000Y-55762000D02*
X59159000Y-54238000D01*
X59286000Y-54238000D02*
X59286000Y-55762000D01*
X59413000Y-55762000D02*
X59413000Y-54238000D01*
X59032000Y-54238000D02*
X59032000Y-55762000D01*
X58905000Y-55762000D02*
X58905000Y-54238000D01*
X58778000Y-55762000D02*
X58778000Y-54238000D01*
X54460000Y-37762000D02*
X59540000Y-37762000D01*
X59540000Y-37762000D02*
X59540000Y-36238000D01*
X59540000Y-36238000D02*
X54460000Y-36238000D01*
X54460000Y-36238000D02*
X54460000Y-37762000D01*
X59159000Y-37762000D02*
X59159000Y-36238000D01*
X59286000Y-36238000D02*
X59286000Y-37762000D01*
X59413000Y-37762000D02*
X59413000Y-36238000D01*
X59032000Y-36238000D02*
X59032000Y-37762000D01*
X58905000Y-37762000D02*
X58905000Y-36238000D01*
X58778000Y-37762000D02*
X58778000Y-36238000D01*
X54460000Y-19762000D02*
X59540000Y-19762000D01*
X59540000Y-19762000D02*
X59540000Y-18238000D01*
X59540000Y-18238000D02*
X54460000Y-18238000D01*
X54460000Y-18238000D02*
X54460000Y-19762000D01*
X59159000Y-19762000D02*
X59159000Y-18238000D01*
X59286000Y-18238000D02*
X59286000Y-19762000D01*
X59413000Y-19762000D02*
X59413000Y-18238000D01*
X59032000Y-18238000D02*
X59032000Y-19762000D01*
X58905000Y-19762000D02*
X58905000Y-18238000D01*
X58778000Y-19762000D02*
X58778000Y-18238000D01*
X54460000Y-1762000D02*
X59540000Y-1762000D01*
X59540000Y-1762000D02*
X59540000Y-238000D01*
X59540000Y-238000D02*
X54460000Y-238000D01*
X54460000Y-238000D02*
X54460000Y-1762000D01*
X59159000Y-1762000D02*
X59159000Y-238000D01*
X59286000Y-238000D02*
X59286000Y-1762000D01*
X59413000Y-1762000D02*
X59413000Y-238000D01*
X59032000Y-238000D02*
X59032000Y-1762000D01*
X58905000Y-1762000D02*
X58905000Y-238000D01*
X58778000Y-1762000D02*
X58778000Y-238000D01*
X48262000Y-69540000D02*
X48262000Y-64460000D01*
X48262000Y-64460000D02*
X46738000Y-64460000D01*
X46738000Y-64460000D02*
X46738000Y-69540000D01*
X46738000Y-69540000D02*
X48262000Y-69540000D01*
X48262000Y-64841000D02*
X46738000Y-64841000D01*
X46738000Y-64714000D02*
X48262000Y-64714000D01*
X48262000Y-64587000D02*
X46738000Y-64587000D01*
X46738000Y-64968000D02*
X48262000Y-64968000D01*
X48262000Y-65095000D02*
X46738000Y-65095000D01*
X48262000Y-65222000D02*
X46738000Y-65222000D01*
X35460000Y-60762000D02*
X40540000Y-60762000D01*
X40540000Y-60762000D02*
X40540000Y-59238000D01*
X40540000Y-59238000D02*
X35460000Y-59238000D01*
X35460000Y-59238000D02*
X35460000Y-60762000D01*
X40159000Y-60762000D02*
X40159000Y-59238000D01*
X40286000Y-59238000D02*
X40286000Y-60762000D01*
X40413000Y-60762000D02*
X40413000Y-59238000D01*
X40032000Y-59238000D02*
X40032000Y-60762000D01*
X39905000Y-60762000D02*
X39905000Y-59238000D01*
X39778000Y-60762000D02*
X39778000Y-59238000D01*
X35460000Y-42762000D02*
X40540000Y-42762000D01*
X40540000Y-42762000D02*
X40540000Y-41238000D01*
X40540000Y-41238000D02*
X35460000Y-41238000D01*
X35460000Y-41238000D02*
X35460000Y-42762000D01*
X40159000Y-42762000D02*
X40159000Y-41238000D01*
X40286000Y-41238000D02*
X40286000Y-42762000D01*
X40413000Y-42762000D02*
X40413000Y-41238000D01*
X40032000Y-41238000D02*
X40032000Y-42762000D01*
X39905000Y-42762000D02*
X39905000Y-41238000D01*
X39778000Y-42762000D02*
X39778000Y-41238000D01*
X35460000Y-24762000D02*
X40540000Y-24762000D01*
X40540000Y-24762000D02*
X40540000Y-23238000D01*
X40540000Y-23238000D02*
X35460000Y-23238000D01*
X35460000Y-23238000D02*
X35460000Y-24762000D01*
X40159000Y-24762000D02*
X40159000Y-23238000D01*
X40286000Y-23238000D02*
X40286000Y-24762000D01*
X40413000Y-24762000D02*
X40413000Y-23238000D01*
X40032000Y-23238000D02*
X40032000Y-24762000D01*
X39905000Y-24762000D02*
X39905000Y-23238000D01*
X39778000Y-24762000D02*
X39778000Y-23238000D01*
X35460000Y-6762000D02*
X40540000Y-6762000D01*
X40540000Y-6762000D02*
X40540000Y-5238000D01*
X40540000Y-5238000D02*
X35460000Y-5238000D01*
X35460000Y-5238000D02*
X35460000Y-6762000D01*
X40159000Y-6762000D02*
X40159000Y-5238000D01*
X40286000Y-5238000D02*
X40286000Y-6762000D01*
X40413000Y-6762000D02*
X40413000Y-5238000D01*
X40032000Y-5238000D02*
X40032000Y-6762000D01*
X39905000Y-6762000D02*
X39905000Y-5238000D01*
X39778000Y-6762000D02*
X39778000Y-5238000D01*
X29262000Y-74540000D02*
X29262000Y-69460000D01*
X29262000Y-69460000D02*
X27738000Y-69460000D01*
X27738000Y-69460000D02*
X27738000Y-74540000D01*
X27738000Y-74540000D02*
X29262000Y-74540000D01*
X29262000Y-69841000D02*
X27738000Y-69841000D01*
X27738000Y-69714000D02*
X29262000Y-69714000D01*
X29262000Y-69587000D02*
X27738000Y-69587000D01*
X27738000Y-69968000D02*
X29262000Y-69968000D01*
X29262000Y-70095000D02*
X27738000Y-70095000D01*
X29262000Y-70222000D02*
X27738000Y-70222000D01*
X16460000Y-63762000D02*
X21540000Y-63762000D01*
X21540000Y-63762000D02*
X21540000Y-62238000D01*
X21540000Y-62238000D02*
X16460000Y-62238000D01*
X16460000Y-62238000D02*
X16460000Y-63762000D01*
X21159000Y-63762000D02*
X21159000Y-62238000D01*
X21286000Y-62238000D02*
X21286000Y-63762000D01*
X21413000Y-63762000D02*
X21413000Y-62238000D01*
X21032000Y-62238000D02*
X21032000Y-63762000D01*
X20905000Y-63762000D02*
X20905000Y-62238000D01*
X20778000Y-63762000D02*
X20778000Y-62238000D01*
X16460000Y-45762000D02*
X21540000Y-45762000D01*
X21540000Y-45762000D02*
X21540000Y-44238000D01*
X21540000Y-44238000D02*
X16460000Y-44238000D01*
X16460000Y-44238000D02*
X16460000Y-45762000D01*
X21159000Y-45762000D02*
X21159000Y-44238000D01*
X21286000Y-44238000D02*
X21286000Y-45762000D01*
X21413000Y-45762000D02*
X21413000Y-44238000D01*
X21032000Y-44238000D02*
X21032000Y-45762000D01*
X20905000Y-45762000D02*
X20905000Y-44238000D01*
X20778000Y-45762000D02*
X20778000Y-44238000D01*
X16460000Y-27762000D02*
X21540000Y-27762000D01*
X21540000Y-27762000D02*
X21540000Y-26238000D01*
X21540000Y-26238000D02*
X16460000Y-26238000D01*
X16460000Y-26238000D02*
X16460000Y-27762000D01*
X21159000Y-27762000D02*
X21159000Y-26238000D01*
X21286000Y-26238000D02*
X21286000Y-27762000D01*
X21413000Y-27762000D02*
X21413000Y-26238000D01*
X21032000Y-26238000D02*
X21032000Y-27762000D01*
X20905000Y-27762000D02*
X20905000Y-26238000D01*
X20778000Y-27762000D02*
X20778000Y-26238000D01*
X16460000Y-9762000D02*
X21540000Y-9762000D01*
X21540000Y-9762000D02*
X21540000Y-8238000D01*
X21540000Y-8238000D02*
X16460000Y-8238000D01*
X16460000Y-8238000D02*
X16460000Y-9762000D01*
X21159000Y-9762000D02*
X21159000Y-8238000D01*
X21286000Y-8238000D02*
X21286000Y-9762000D01*
X21413000Y-9762000D02*
X21413000Y-8238000D01*
X21032000Y-8238000D02*
X21032000Y-9762000D01*
X20905000Y-9762000D02*
X20905000Y-8238000D01*
X20778000Y-9762000D02*
X20778000Y-8238000D01*
X10262000Y-74540000D02*
X10262000Y-69460000D01*
X10262000Y-69460000D02*
X8738000Y-69460000D01*
X8738000Y-69460000D02*
X8738000Y-74540000D01*
X8738000Y-74540000D02*
X10262000Y-74540000D01*
X10262000Y-69841000D02*
X8738000Y-69841000D01*
X8738000Y-69714000D02*
X10262000Y-69714000D01*
X10262000Y-69587000D02*
X8738000Y-69587000D01*
X8738000Y-69968000D02*
X10262000Y-69968000D01*
X10262000Y-70095000D02*
X8738000Y-70095000D01*
X10262000Y-70222000D02*
X8738000Y-70222000D01*
X-2540000Y-63762000D02*
X2540000Y-63762000D01*
X2540000Y-63762000D02*
X2540000Y-62238000D01*
X2540000Y-62238000D02*
X-2540000Y-62238000D01*
X-2540000Y-62238000D02*
X-2540000Y-63762000D01*
X2159000Y-63762000D02*
X2159000Y-62238000D01*
X2286000Y-62238000D02*
X2286000Y-63762000D01*
X2413000Y-63762000D02*
X2413000Y-62238000D01*
X2032000Y-62238000D02*
X2032000Y-63762000D01*
X1905000Y-63762000D02*
X1905000Y-62238000D01*
X1778000Y-63762000D02*
X1778000Y-62238000D01*
X-2540000Y-45762000D02*
X2540000Y-45762000D01*
X2540000Y-45762000D02*
X2540000Y-44238000D01*
X2540000Y-44238000D02*
X-2540000Y-44238000D01*
X-2540000Y-44238000D02*
X-2540000Y-45762000D01*
X2159000Y-45762000D02*
X2159000Y-44238000D01*
X2286000Y-44238000D02*
X2286000Y-45762000D01*
X2413000Y-45762000D02*
X2413000Y-44238000D01*
X2032000Y-44238000D02*
X2032000Y-45762000D01*
X1905000Y-45762000D02*
X1905000Y-44238000D01*
X1778000Y-45762000D02*
X1778000Y-44238000D01*
X-2540000Y-27762000D02*
X2540000Y-27762000D01*
X2540000Y-27762000D02*
X2540000Y-26238000D01*
X2540000Y-26238000D02*
X-2540000Y-26238000D01*
X-2540000Y-26238000D02*
X-2540000Y-27762000D01*
X2159000Y-27762000D02*
X2159000Y-26238000D01*
X2286000Y-26238000D02*
X2286000Y-27762000D01*
X2413000Y-27762000D02*
X2413000Y-26238000D01*
X2032000Y-26238000D02*
X2032000Y-27762000D01*
X1905000Y-27762000D02*
X1905000Y-26238000D01*
X1778000Y-27762000D02*
X1778000Y-26238000D01*
X109172440Y-45864560D02*
X108472440Y-45864560D01*
X105672440Y-45864560D02*
X106272440Y-45864560D01*
X105672440Y-51864560D02*
X106272440Y-51864560D01*
X109172440Y-51864560D02*
X108472440Y-51864560D01*
X105672440Y-51864560D02*
X105672440Y-45864560D01*
X109172440Y-45864560D02*
X109172440Y-51864560D01*
X109172440Y-45864560D02*
X109172440Y-51764560D01*
X121858815Y-43635745D02*
X124398815Y-43635745D01*
X109158815Y-13155745D02*
X106618815Y-13155745D01*
X106618815Y-13155745D02*
X106618815Y-43635745D01*
X106618815Y-10615745D02*
X106618815Y-43635745D01*
X124398815Y-10615745D02*
X106618815Y-10615745D01*
X106618815Y-43635745D02*
X109158815Y-43635745D01*
X124398815Y-13155745D02*
X121858815Y-13155745D01*
X124398815Y-43635745D02*
X124398815Y-10615745D01*
X121858815Y-13155745D02*
X121858815Y-43635745D01*
X109158815Y-43635745D02*
X109158815Y-13155745D01*
X124398815Y-43635745D02*
X124398815Y-13155745D01*
D14*
X124400000Y-15510000D02*
X121840000Y-15510000D01*
D15*
G36*
X121880000Y-13200000D02*
G01*
X124340000Y-13190000D01*
X124350000Y-15520000D01*
X121810000Y-15490000D01*
X121880000Y-13200000D01*
G37*
X121880000Y-13200000D02*
X124340000Y-13190000D01*
X124350000Y-15520000D01*
X121810000Y-15490000D01*
X121880000Y-13200000D01*
D13*
X-2540000Y-9762000D02*
X2540000Y-9762000D01*
X2540000Y-9762000D02*
X2540000Y-8238000D01*
X2540000Y-8238000D02*
X-2540000Y-8238000D01*
X-2540000Y-8238000D02*
X-2540000Y-9762000D01*
X2159000Y-9762000D02*
X2159000Y-8238000D01*
X2286000Y-8238000D02*
X2286000Y-9762000D01*
X2413000Y-9762000D02*
X2413000Y-8238000D01*
X2032000Y-8238000D02*
X2032000Y-9762000D01*
X1905000Y-9762000D02*
X1905000Y-8238000D01*
X1778000Y-9762000D02*
X1778000Y-8238000D01*
X106261904Y-59053971D02*
X105461904Y-59053971D01*
X105461904Y-59244447D01*
X105500000Y-59358733D01*
X105576190Y-59434923D01*
X105652380Y-59473019D01*
X105804761Y-59511114D01*
X105919047Y-59511114D01*
X106071428Y-59473019D01*
X106147619Y-59434923D01*
X106223809Y-59358733D01*
X106261904Y-59244447D01*
X106261904Y-59053971D01*
X105461904Y-59777780D02*
X105461904Y-60273019D01*
X105766666Y-60006352D01*
X105766666Y-60120638D01*
X105804761Y-60196828D01*
X105842857Y-60234923D01*
X105919047Y-60273019D01*
X106109523Y-60273019D01*
X106185714Y-60234923D01*
X106223809Y-60196828D01*
X106261904Y-60120638D01*
X106261904Y-59892066D01*
X106223809Y-59815876D01*
X106185714Y-59777780D01*
X105461904Y-60768257D02*
X105461904Y-60844447D01*
X105500000Y-60920638D01*
X105538095Y-60958733D01*
X105614285Y-60996828D01*
X105766666Y-61034923D01*
X105957142Y-61034923D01*
X106109523Y-60996828D01*
X106185714Y-60958733D01*
X106223809Y-60920638D01*
X106261904Y-60844447D01*
X106261904Y-60768257D01*
X106223809Y-60692066D01*
X106185714Y-60653971D01*
X106109523Y-60615876D01*
X105957142Y-60577780D01*
X105766666Y-60577780D01*
X105614285Y-60615876D01*
X105538095Y-60653971D01*
X105500000Y-60692066D01*
X105461904Y-60768257D01*
X106261904Y-70053971D02*
X105461904Y-70053971D01*
X105461904Y-70244447D01*
X105500000Y-70358733D01*
X105576190Y-70434923D01*
X105652380Y-70473019D01*
X105804761Y-70511114D01*
X105919047Y-70511114D01*
X106071428Y-70473019D01*
X106147619Y-70434923D01*
X106223809Y-70358733D01*
X106261904Y-70244447D01*
X106261904Y-70053971D01*
X105538095Y-70815876D02*
X105500000Y-70853971D01*
X105461904Y-70930161D01*
X105461904Y-71120638D01*
X105500000Y-71196828D01*
X105538095Y-71234923D01*
X105614285Y-71273019D01*
X105690476Y-71273019D01*
X105804761Y-71234923D01*
X106261904Y-70777780D01*
X106261904Y-71273019D01*
X106261904Y-71653971D02*
X106261904Y-71806352D01*
X106223809Y-71882542D01*
X106185714Y-71920638D01*
X106071428Y-71996828D01*
X105919047Y-72034923D01*
X105614285Y-72034923D01*
X105538095Y-71996828D01*
X105500000Y-71958733D01*
X105461904Y-71882542D01*
X105461904Y-71730161D01*
X105500000Y-71653971D01*
X105538095Y-71615876D01*
X105614285Y-71577780D01*
X105804761Y-71577780D01*
X105880952Y-71615876D01*
X105919047Y-71653971D01*
X105957142Y-71730161D01*
X105957142Y-71882542D01*
X105919047Y-71958733D01*
X105880952Y-71996828D01*
X105804761Y-72034923D01*
X95946028Y-67761904D02*
X95946028Y-66961904D01*
X95755552Y-66961904D01*
X95641266Y-67000000D01*
X95565076Y-67076190D01*
X95526980Y-67152380D01*
X95488885Y-67304761D01*
X95488885Y-67419047D01*
X95526980Y-67571428D01*
X95565076Y-67647619D01*
X95641266Y-67723809D01*
X95755552Y-67761904D01*
X95946028Y-67761904D01*
X95184123Y-67038095D02*
X95146028Y-67000000D01*
X95069838Y-66961904D01*
X94879361Y-66961904D01*
X94803171Y-67000000D01*
X94765076Y-67038095D01*
X94726980Y-67114285D01*
X94726980Y-67190476D01*
X94765076Y-67304761D01*
X95222219Y-67761904D01*
X94726980Y-67761904D01*
X94269838Y-67304761D02*
X94346028Y-67266666D01*
X94384123Y-67228571D01*
X94422219Y-67152380D01*
X94422219Y-67114285D01*
X94384123Y-67038095D01*
X94346028Y-67000000D01*
X94269838Y-66961904D01*
X94117457Y-66961904D01*
X94041266Y-67000000D01*
X94003171Y-67038095D01*
X93965076Y-67114285D01*
X93965076Y-67152380D01*
X94003171Y-67228571D01*
X94041266Y-67266666D01*
X94117457Y-67304761D01*
X94269838Y-67304761D01*
X94346028Y-67342857D01*
X94384123Y-67380952D01*
X94422219Y-67457142D01*
X94422219Y-67609523D01*
X94384123Y-67685714D01*
X94346028Y-67723809D01*
X94269838Y-67761904D01*
X94117457Y-67761904D01*
X94041266Y-67723809D01*
X94003171Y-67685714D01*
X93965076Y-67609523D01*
X93965076Y-67457142D01*
X94003171Y-67380952D01*
X94041266Y-67342857D01*
X94117457Y-67304761D01*
X95946028Y-49761904D02*
X95946028Y-48961904D01*
X95755552Y-48961904D01*
X95641266Y-49000000D01*
X95565076Y-49076190D01*
X95526980Y-49152380D01*
X95488885Y-49304761D01*
X95488885Y-49419047D01*
X95526980Y-49571428D01*
X95565076Y-49647619D01*
X95641266Y-49723809D01*
X95755552Y-49761904D01*
X95946028Y-49761904D01*
X95184123Y-49038095D02*
X95146028Y-49000000D01*
X95069838Y-48961904D01*
X94879361Y-48961904D01*
X94803171Y-49000000D01*
X94765076Y-49038095D01*
X94726980Y-49114285D01*
X94726980Y-49190476D01*
X94765076Y-49304761D01*
X95222219Y-49761904D01*
X94726980Y-49761904D01*
X94460314Y-48961904D02*
X93926980Y-48961904D01*
X94269838Y-49761904D01*
X95946028Y-31761904D02*
X95946028Y-30961904D01*
X95755552Y-30961904D01*
X95641266Y-31000000D01*
X95565076Y-31076190D01*
X95526980Y-31152380D01*
X95488885Y-31304761D01*
X95488885Y-31419047D01*
X95526980Y-31571428D01*
X95565076Y-31647619D01*
X95641266Y-31723809D01*
X95755552Y-31761904D01*
X95946028Y-31761904D01*
X95184123Y-31038095D02*
X95146028Y-31000000D01*
X95069838Y-30961904D01*
X94879361Y-30961904D01*
X94803171Y-31000000D01*
X94765076Y-31038095D01*
X94726980Y-31114285D01*
X94726980Y-31190476D01*
X94765076Y-31304761D01*
X95222219Y-31761904D01*
X94726980Y-31761904D01*
X94041266Y-30961904D02*
X94193647Y-30961904D01*
X94269838Y-31000000D01*
X94307933Y-31038095D01*
X94384123Y-31152380D01*
X94422219Y-31304761D01*
X94422219Y-31609523D01*
X94384123Y-31685714D01*
X94346028Y-31723809D01*
X94269838Y-31761904D01*
X94117457Y-31761904D01*
X94041266Y-31723809D01*
X94003171Y-31685714D01*
X93965076Y-31609523D01*
X93965076Y-31419047D01*
X94003171Y-31342857D01*
X94041266Y-31304761D01*
X94117457Y-31266666D01*
X94269838Y-31266666D01*
X94346028Y-31304761D01*
X94384123Y-31342857D01*
X94422219Y-31419047D01*
X95946028Y-13761904D02*
X95946028Y-12961904D01*
X95755552Y-12961904D01*
X95641266Y-13000000D01*
X95565076Y-13076190D01*
X95526980Y-13152380D01*
X95488885Y-13304761D01*
X95488885Y-13419047D01*
X95526980Y-13571428D01*
X95565076Y-13647619D01*
X95641266Y-13723809D01*
X95755552Y-13761904D01*
X95946028Y-13761904D01*
X95184123Y-13038095D02*
X95146028Y-13000000D01*
X95069838Y-12961904D01*
X94879361Y-12961904D01*
X94803171Y-13000000D01*
X94765076Y-13038095D01*
X94726980Y-13114285D01*
X94726980Y-13190476D01*
X94765076Y-13304761D01*
X95222219Y-13761904D01*
X94726980Y-13761904D01*
X94003171Y-12961904D02*
X94384123Y-12961904D01*
X94422219Y-13342857D01*
X94384123Y-13304761D01*
X94307933Y-13266666D01*
X94117457Y-13266666D01*
X94041266Y-13304761D01*
X94003171Y-13342857D01*
X93965076Y-13419047D01*
X93965076Y-13609523D01*
X94003171Y-13685714D01*
X94041266Y-13723809D01*
X94117457Y-13761904D01*
X94307933Y-13761904D01*
X94384123Y-13723809D01*
X94422219Y-13685714D01*
X87261904Y-71053971D02*
X86461904Y-71053971D01*
X86461904Y-71244447D01*
X86500000Y-71358733D01*
X86576190Y-71434923D01*
X86652380Y-71473019D01*
X86804761Y-71511114D01*
X86919047Y-71511114D01*
X87071428Y-71473019D01*
X87147619Y-71434923D01*
X87223809Y-71358733D01*
X87261904Y-71244447D01*
X87261904Y-71053971D01*
X86538095Y-71815876D02*
X86500000Y-71853971D01*
X86461904Y-71930161D01*
X86461904Y-72120638D01*
X86500000Y-72196828D01*
X86538095Y-72234923D01*
X86614285Y-72273019D01*
X86690476Y-72273019D01*
X86804761Y-72234923D01*
X87261904Y-71777780D01*
X87261904Y-72273019D01*
X86728571Y-72958733D02*
X87261904Y-72958733D01*
X86423809Y-72768257D02*
X86995238Y-72577780D01*
X86995238Y-73073019D01*
X76946028Y-62761904D02*
X76946028Y-61961904D01*
X76755552Y-61961904D01*
X76641266Y-62000000D01*
X76565076Y-62076190D01*
X76526980Y-62152380D01*
X76488885Y-62304761D01*
X76488885Y-62419047D01*
X76526980Y-62571428D01*
X76565076Y-62647619D01*
X76641266Y-62723809D01*
X76755552Y-62761904D01*
X76946028Y-62761904D01*
X76184123Y-62038095D02*
X76146028Y-62000000D01*
X76069838Y-61961904D01*
X75879361Y-61961904D01*
X75803171Y-62000000D01*
X75765076Y-62038095D01*
X75726980Y-62114285D01*
X75726980Y-62190476D01*
X75765076Y-62304761D01*
X76222219Y-62761904D01*
X75726980Y-62761904D01*
X75460314Y-61961904D02*
X74965076Y-61961904D01*
X75231742Y-62266666D01*
X75117457Y-62266666D01*
X75041266Y-62304761D01*
X75003171Y-62342857D01*
X74965076Y-62419047D01*
X74965076Y-62609523D01*
X75003171Y-62685714D01*
X75041266Y-62723809D01*
X75117457Y-62761904D01*
X75346028Y-62761904D01*
X75422219Y-62723809D01*
X75460314Y-62685714D01*
X76946028Y-44761904D02*
X76946028Y-43961904D01*
X76755552Y-43961904D01*
X76641266Y-44000000D01*
X76565076Y-44076190D01*
X76526980Y-44152380D01*
X76488885Y-44304761D01*
X76488885Y-44419047D01*
X76526980Y-44571428D01*
X76565076Y-44647619D01*
X76641266Y-44723809D01*
X76755552Y-44761904D01*
X76946028Y-44761904D01*
X76184123Y-44038095D02*
X76146028Y-44000000D01*
X76069838Y-43961904D01*
X75879361Y-43961904D01*
X75803171Y-44000000D01*
X75765076Y-44038095D01*
X75726980Y-44114285D01*
X75726980Y-44190476D01*
X75765076Y-44304761D01*
X76222219Y-44761904D01*
X75726980Y-44761904D01*
X75422219Y-44038095D02*
X75384123Y-44000000D01*
X75307933Y-43961904D01*
X75117457Y-43961904D01*
X75041266Y-44000000D01*
X75003171Y-44038095D01*
X74965076Y-44114285D01*
X74965076Y-44190476D01*
X75003171Y-44304761D01*
X75460314Y-44761904D01*
X74965076Y-44761904D01*
X76946028Y-26761904D02*
X76946028Y-25961904D01*
X76755552Y-25961904D01*
X76641266Y-26000000D01*
X76565076Y-26076190D01*
X76526980Y-26152380D01*
X76488885Y-26304761D01*
X76488885Y-26419047D01*
X76526980Y-26571428D01*
X76565076Y-26647619D01*
X76641266Y-26723809D01*
X76755552Y-26761904D01*
X76946028Y-26761904D01*
X76184123Y-26038095D02*
X76146028Y-26000000D01*
X76069838Y-25961904D01*
X75879361Y-25961904D01*
X75803171Y-26000000D01*
X75765076Y-26038095D01*
X75726980Y-26114285D01*
X75726980Y-26190476D01*
X75765076Y-26304761D01*
X76222219Y-26761904D01*
X75726980Y-26761904D01*
X74965076Y-26761904D02*
X75422219Y-26761904D01*
X75193647Y-26761904D02*
X75193647Y-25961904D01*
X75269838Y-26076190D01*
X75346028Y-26152380D01*
X75422219Y-26190476D01*
X76946028Y-8761904D02*
X76946028Y-7961904D01*
X76755552Y-7961904D01*
X76641266Y-8000000D01*
X76565076Y-8076190D01*
X76526980Y-8152380D01*
X76488885Y-8304761D01*
X76488885Y-8419047D01*
X76526980Y-8571428D01*
X76565076Y-8647619D01*
X76641266Y-8723809D01*
X76755552Y-8761904D01*
X76946028Y-8761904D01*
X76184123Y-8038095D02*
X76146028Y-8000000D01*
X76069838Y-7961904D01*
X75879361Y-7961904D01*
X75803171Y-8000000D01*
X75765076Y-8038095D01*
X75726980Y-8114285D01*
X75726980Y-8190476D01*
X75765076Y-8304761D01*
X76222219Y-8761904D01*
X75726980Y-8761904D01*
X75231742Y-7961904D02*
X75155552Y-7961904D01*
X75079361Y-8000000D01*
X75041266Y-8038095D01*
X75003171Y-8114285D01*
X74965076Y-8266666D01*
X74965076Y-8457142D01*
X75003171Y-8609523D01*
X75041266Y-8685714D01*
X75079361Y-8723809D01*
X75155552Y-8761904D01*
X75231742Y-8761904D01*
X75307933Y-8723809D01*
X75346028Y-8685714D01*
X75384123Y-8609523D01*
X75422219Y-8457142D01*
X75422219Y-8266666D01*
X75384123Y-8114285D01*
X75346028Y-8038095D01*
X75307933Y-8000000D01*
X75231742Y-7961904D01*
X68261904Y-63053971D02*
X67461904Y-63053971D01*
X67461904Y-63244447D01*
X67500000Y-63358733D01*
X67576190Y-63434923D01*
X67652380Y-63473019D01*
X67804761Y-63511114D01*
X67919047Y-63511114D01*
X68071428Y-63473019D01*
X68147619Y-63434923D01*
X68223809Y-63358733D01*
X68261904Y-63244447D01*
X68261904Y-63053971D01*
X68261904Y-64273019D02*
X68261904Y-63815876D01*
X68261904Y-64044447D02*
X67461904Y-64044447D01*
X67576190Y-63968257D01*
X67652380Y-63892066D01*
X67690476Y-63815876D01*
X68261904Y-64653971D02*
X68261904Y-64806352D01*
X68223809Y-64882542D01*
X68185714Y-64920638D01*
X68071428Y-64996828D01*
X67919047Y-65034923D01*
X67614285Y-65034923D01*
X67538095Y-64996828D01*
X67500000Y-64958733D01*
X67461904Y-64882542D01*
X67461904Y-64730161D01*
X67500000Y-64653971D01*
X67538095Y-64615876D01*
X67614285Y-64577780D01*
X67804761Y-64577780D01*
X67880952Y-64615876D01*
X67919047Y-64653971D01*
X67957142Y-64730161D01*
X67957142Y-64882542D01*
X67919047Y-64958733D01*
X67880952Y-64996828D01*
X67804761Y-65034923D01*
X57946028Y-56761904D02*
X57946028Y-55961904D01*
X57755552Y-55961904D01*
X57641266Y-56000000D01*
X57565076Y-56076190D01*
X57526980Y-56152380D01*
X57488885Y-56304761D01*
X57488885Y-56419047D01*
X57526980Y-56571428D01*
X57565076Y-56647619D01*
X57641266Y-56723809D01*
X57755552Y-56761904D01*
X57946028Y-56761904D01*
X56726980Y-56761904D02*
X57184123Y-56761904D01*
X56955552Y-56761904D02*
X56955552Y-55961904D01*
X57031742Y-56076190D01*
X57107933Y-56152380D01*
X57184123Y-56190476D01*
X56269838Y-56304761D02*
X56346028Y-56266666D01*
X56384123Y-56228571D01*
X56422219Y-56152380D01*
X56422219Y-56114285D01*
X56384123Y-56038095D01*
X56346028Y-56000000D01*
X56269838Y-55961904D01*
X56117457Y-55961904D01*
X56041266Y-56000000D01*
X56003171Y-56038095D01*
X55965076Y-56114285D01*
X55965076Y-56152380D01*
X56003171Y-56228571D01*
X56041266Y-56266666D01*
X56117457Y-56304761D01*
X56269838Y-56304761D01*
X56346028Y-56342857D01*
X56384123Y-56380952D01*
X56422219Y-56457142D01*
X56422219Y-56609523D01*
X56384123Y-56685714D01*
X56346028Y-56723809D01*
X56269838Y-56761904D01*
X56117457Y-56761904D01*
X56041266Y-56723809D01*
X56003171Y-56685714D01*
X55965076Y-56609523D01*
X55965076Y-56457142D01*
X56003171Y-56380952D01*
X56041266Y-56342857D01*
X56117457Y-56304761D01*
X57946028Y-38761904D02*
X57946028Y-37961904D01*
X57755552Y-37961904D01*
X57641266Y-38000000D01*
X57565076Y-38076190D01*
X57526980Y-38152380D01*
X57488885Y-38304761D01*
X57488885Y-38419047D01*
X57526980Y-38571428D01*
X57565076Y-38647619D01*
X57641266Y-38723809D01*
X57755552Y-38761904D01*
X57946028Y-38761904D01*
X56726980Y-38761904D02*
X57184123Y-38761904D01*
X56955552Y-38761904D02*
X56955552Y-37961904D01*
X57031742Y-38076190D01*
X57107933Y-38152380D01*
X57184123Y-38190476D01*
X56460314Y-37961904D02*
X55926980Y-37961904D01*
X56269838Y-38761904D01*
X57946028Y-20761904D02*
X57946028Y-19961904D01*
X57755552Y-19961904D01*
X57641266Y-20000000D01*
X57565076Y-20076190D01*
X57526980Y-20152380D01*
X57488885Y-20304761D01*
X57488885Y-20419047D01*
X57526980Y-20571428D01*
X57565076Y-20647619D01*
X57641266Y-20723809D01*
X57755552Y-20761904D01*
X57946028Y-20761904D01*
X56726980Y-20761904D02*
X57184123Y-20761904D01*
X56955552Y-20761904D02*
X56955552Y-19961904D01*
X57031742Y-20076190D01*
X57107933Y-20152380D01*
X57184123Y-20190476D01*
X56041266Y-19961904D02*
X56193647Y-19961904D01*
X56269838Y-20000000D01*
X56307933Y-20038095D01*
X56384123Y-20152380D01*
X56422219Y-20304761D01*
X56422219Y-20609523D01*
X56384123Y-20685714D01*
X56346028Y-20723809D01*
X56269838Y-20761904D01*
X56117457Y-20761904D01*
X56041266Y-20723809D01*
X56003171Y-20685714D01*
X55965076Y-20609523D01*
X55965076Y-20419047D01*
X56003171Y-20342857D01*
X56041266Y-20304761D01*
X56117457Y-20266666D01*
X56269838Y-20266666D01*
X56346028Y-20304761D01*
X56384123Y-20342857D01*
X56422219Y-20419047D01*
X57946028Y-2761904D02*
X57946028Y-1961904D01*
X57755552Y-1961904D01*
X57641266Y-2000000D01*
X57565076Y-2076190D01*
X57526980Y-2152380D01*
X57488885Y-2304761D01*
X57488885Y-2419047D01*
X57526980Y-2571428D01*
X57565076Y-2647619D01*
X57641266Y-2723809D01*
X57755552Y-2761904D01*
X57946028Y-2761904D01*
X56726980Y-2761904D02*
X57184123Y-2761904D01*
X56955552Y-2761904D02*
X56955552Y-1961904D01*
X57031742Y-2076190D01*
X57107933Y-2152380D01*
X57184123Y-2190476D01*
X56003171Y-1961904D02*
X56384123Y-1961904D01*
X56422219Y-2342857D01*
X56384123Y-2304761D01*
X56307933Y-2266666D01*
X56117457Y-2266666D01*
X56041266Y-2304761D01*
X56003171Y-2342857D01*
X55965076Y-2419047D01*
X55965076Y-2609523D01*
X56003171Y-2685714D01*
X56041266Y-2723809D01*
X56117457Y-2761904D01*
X56307933Y-2761904D01*
X56384123Y-2723809D01*
X56422219Y-2685714D01*
X49261904Y-66053971D02*
X48461904Y-66053971D01*
X48461904Y-66244447D01*
X48500000Y-66358733D01*
X48576190Y-66434923D01*
X48652380Y-66473019D01*
X48804761Y-66511114D01*
X48919047Y-66511114D01*
X49071428Y-66473019D01*
X49147619Y-66434923D01*
X49223809Y-66358733D01*
X49261904Y-66244447D01*
X49261904Y-66053971D01*
X49261904Y-67273019D02*
X49261904Y-66815876D01*
X49261904Y-67044447D02*
X48461904Y-67044447D01*
X48576190Y-66968257D01*
X48652380Y-66892066D01*
X48690476Y-66815876D01*
X48728571Y-67958733D02*
X49261904Y-67958733D01*
X48423809Y-67768257D02*
X48995238Y-67577780D01*
X48995238Y-68073019D01*
X38946028Y-61761904D02*
X38946028Y-60961904D01*
X38755552Y-60961904D01*
X38641266Y-61000000D01*
X38565076Y-61076190D01*
X38526980Y-61152380D01*
X38488885Y-61304761D01*
X38488885Y-61419047D01*
X38526980Y-61571428D01*
X38565076Y-61647619D01*
X38641266Y-61723809D01*
X38755552Y-61761904D01*
X38946028Y-61761904D01*
X37726980Y-61761904D02*
X38184123Y-61761904D01*
X37955552Y-61761904D02*
X37955552Y-60961904D01*
X38031742Y-61076190D01*
X38107933Y-61152380D01*
X38184123Y-61190476D01*
X37460314Y-60961904D02*
X36965076Y-60961904D01*
X37231742Y-61266666D01*
X37117457Y-61266666D01*
X37041266Y-61304761D01*
X37003171Y-61342857D01*
X36965076Y-61419047D01*
X36965076Y-61609523D01*
X37003171Y-61685714D01*
X37041266Y-61723809D01*
X37117457Y-61761904D01*
X37346028Y-61761904D01*
X37422219Y-61723809D01*
X37460314Y-61685714D01*
X38946028Y-43761904D02*
X38946028Y-42961904D01*
X38755552Y-42961904D01*
X38641266Y-43000000D01*
X38565076Y-43076190D01*
X38526980Y-43152380D01*
X38488885Y-43304761D01*
X38488885Y-43419047D01*
X38526980Y-43571428D01*
X38565076Y-43647619D01*
X38641266Y-43723809D01*
X38755552Y-43761904D01*
X38946028Y-43761904D01*
X37726980Y-43761904D02*
X38184123Y-43761904D01*
X37955552Y-43761904D02*
X37955552Y-42961904D01*
X38031742Y-43076190D01*
X38107933Y-43152380D01*
X38184123Y-43190476D01*
X37422219Y-43038095D02*
X37384123Y-43000000D01*
X37307933Y-42961904D01*
X37117457Y-42961904D01*
X37041266Y-43000000D01*
X37003171Y-43038095D01*
X36965076Y-43114285D01*
X36965076Y-43190476D01*
X37003171Y-43304761D01*
X37460314Y-43761904D01*
X36965076Y-43761904D01*
X38946028Y-25761904D02*
X38946028Y-24961904D01*
X38755552Y-24961904D01*
X38641266Y-25000000D01*
X38565076Y-25076190D01*
X38526980Y-25152380D01*
X38488885Y-25304761D01*
X38488885Y-25419047D01*
X38526980Y-25571428D01*
X38565076Y-25647619D01*
X38641266Y-25723809D01*
X38755552Y-25761904D01*
X38946028Y-25761904D01*
X37726980Y-25761904D02*
X38184123Y-25761904D01*
X37955552Y-25761904D02*
X37955552Y-24961904D01*
X38031742Y-25076190D01*
X38107933Y-25152380D01*
X38184123Y-25190476D01*
X36965076Y-25761904D02*
X37422219Y-25761904D01*
X37193647Y-25761904D02*
X37193647Y-24961904D01*
X37269838Y-25076190D01*
X37346028Y-25152380D01*
X37422219Y-25190476D01*
X38946028Y-7761904D02*
X38946028Y-6961904D01*
X38755552Y-6961904D01*
X38641266Y-7000000D01*
X38565076Y-7076190D01*
X38526980Y-7152380D01*
X38488885Y-7304761D01*
X38488885Y-7419047D01*
X38526980Y-7571428D01*
X38565076Y-7647619D01*
X38641266Y-7723809D01*
X38755552Y-7761904D01*
X38946028Y-7761904D01*
X37726980Y-7761904D02*
X38184123Y-7761904D01*
X37955552Y-7761904D02*
X37955552Y-6961904D01*
X38031742Y-7076190D01*
X38107933Y-7152380D01*
X38184123Y-7190476D01*
X37231742Y-6961904D02*
X37155552Y-6961904D01*
X37079361Y-7000000D01*
X37041266Y-7038095D01*
X37003171Y-7114285D01*
X36965076Y-7266666D01*
X36965076Y-7457142D01*
X37003171Y-7609523D01*
X37041266Y-7685714D01*
X37079361Y-7723809D01*
X37155552Y-7761904D01*
X37231742Y-7761904D01*
X37307933Y-7723809D01*
X37346028Y-7685714D01*
X37384123Y-7609523D01*
X37422219Y-7457142D01*
X37422219Y-7266666D01*
X37384123Y-7114285D01*
X37346028Y-7038095D01*
X37307933Y-7000000D01*
X37231742Y-6961904D01*
X30261904Y-71434923D02*
X29461904Y-71434923D01*
X29461904Y-71625400D01*
X29500000Y-71739685D01*
X29576190Y-71815876D01*
X29652380Y-71853971D01*
X29804761Y-71892066D01*
X29919047Y-71892066D01*
X30071428Y-71853971D01*
X30147619Y-71815876D01*
X30223809Y-71739685D01*
X30261904Y-71625400D01*
X30261904Y-71434923D01*
X30261904Y-72273019D02*
X30261904Y-72425400D01*
X30223809Y-72501590D01*
X30185714Y-72539685D01*
X30071428Y-72615876D01*
X29919047Y-72653971D01*
X29614285Y-72653971D01*
X29538095Y-72615876D01*
X29500000Y-72577780D01*
X29461904Y-72501590D01*
X29461904Y-72349209D01*
X29500000Y-72273019D01*
X29538095Y-72234923D01*
X29614285Y-72196828D01*
X29804761Y-72196828D01*
X29880952Y-72234923D01*
X29919047Y-72273019D01*
X29957142Y-72349209D01*
X29957142Y-72501590D01*
X29919047Y-72577780D01*
X29880952Y-72615876D01*
X29804761Y-72653971D01*
X19565076Y-64761904D02*
X19565076Y-63961904D01*
X19374600Y-63961904D01*
X19260314Y-64000000D01*
X19184123Y-64076190D01*
X19146028Y-64152380D01*
X19107933Y-64304761D01*
X19107933Y-64419047D01*
X19146028Y-64571428D01*
X19184123Y-64647619D01*
X19260314Y-64723809D01*
X19374600Y-64761904D01*
X19565076Y-64761904D01*
X18650790Y-64304761D02*
X18726980Y-64266666D01*
X18765076Y-64228571D01*
X18803171Y-64152380D01*
X18803171Y-64114285D01*
X18765076Y-64038095D01*
X18726980Y-64000000D01*
X18650790Y-63961904D01*
X18498409Y-63961904D01*
X18422219Y-64000000D01*
X18384123Y-64038095D01*
X18346028Y-64114285D01*
X18346028Y-64152380D01*
X18384123Y-64228571D01*
X18422219Y-64266666D01*
X18498409Y-64304761D01*
X18650790Y-64304761D01*
X18726980Y-64342857D01*
X18765076Y-64380952D01*
X18803171Y-64457142D01*
X18803171Y-64609523D01*
X18765076Y-64685714D01*
X18726980Y-64723809D01*
X18650790Y-64761904D01*
X18498409Y-64761904D01*
X18422219Y-64723809D01*
X18384123Y-64685714D01*
X18346028Y-64609523D01*
X18346028Y-64457142D01*
X18384123Y-64380952D01*
X18422219Y-64342857D01*
X18498409Y-64304761D01*
X19565076Y-46761904D02*
X19565076Y-45961904D01*
X19374600Y-45961904D01*
X19260314Y-46000000D01*
X19184123Y-46076190D01*
X19146028Y-46152380D01*
X19107933Y-46304761D01*
X19107933Y-46419047D01*
X19146028Y-46571428D01*
X19184123Y-46647619D01*
X19260314Y-46723809D01*
X19374600Y-46761904D01*
X19565076Y-46761904D01*
X18841266Y-45961904D02*
X18307933Y-45961904D01*
X18650790Y-46761904D01*
X19565076Y-28761904D02*
X19565076Y-27961904D01*
X19374600Y-27961904D01*
X19260314Y-28000000D01*
X19184123Y-28076190D01*
X19146028Y-28152380D01*
X19107933Y-28304761D01*
X19107933Y-28419047D01*
X19146028Y-28571428D01*
X19184123Y-28647619D01*
X19260314Y-28723809D01*
X19374600Y-28761904D01*
X19565076Y-28761904D01*
X18422219Y-27961904D02*
X18574600Y-27961904D01*
X18650790Y-28000000D01*
X18688885Y-28038095D01*
X18765076Y-28152380D01*
X18803171Y-28304761D01*
X18803171Y-28609523D01*
X18765076Y-28685714D01*
X18726980Y-28723809D01*
X18650790Y-28761904D01*
X18498409Y-28761904D01*
X18422219Y-28723809D01*
X18384123Y-28685714D01*
X18346028Y-28609523D01*
X18346028Y-28419047D01*
X18384123Y-28342857D01*
X18422219Y-28304761D01*
X18498409Y-28266666D01*
X18650790Y-28266666D01*
X18726980Y-28304761D01*
X18765076Y-28342857D01*
X18803171Y-28419047D01*
X19565076Y-10761904D02*
X19565076Y-9961904D01*
X19374600Y-9961904D01*
X19260314Y-10000000D01*
X19184123Y-10076190D01*
X19146028Y-10152380D01*
X19107933Y-10304761D01*
X19107933Y-10419047D01*
X19146028Y-10571428D01*
X19184123Y-10647619D01*
X19260314Y-10723809D01*
X19374600Y-10761904D01*
X19565076Y-10761904D01*
X18384123Y-9961904D02*
X18765076Y-9961904D01*
X18803171Y-10342857D01*
X18765076Y-10304761D01*
X18688885Y-10266666D01*
X18498409Y-10266666D01*
X18422219Y-10304761D01*
X18384123Y-10342857D01*
X18346028Y-10419047D01*
X18346028Y-10609523D01*
X18384123Y-10685714D01*
X18422219Y-10723809D01*
X18498409Y-10761904D01*
X18688885Y-10761904D01*
X18765076Y-10723809D01*
X18803171Y-10685714D01*
X11261904Y-71434923D02*
X10461904Y-71434923D01*
X10461904Y-71625400D01*
X10500000Y-71739685D01*
X10576190Y-71815876D01*
X10652380Y-71853971D01*
X10804761Y-71892066D01*
X10919047Y-71892066D01*
X11071428Y-71853971D01*
X11147619Y-71815876D01*
X11223809Y-71739685D01*
X11261904Y-71625400D01*
X11261904Y-71434923D01*
X10728571Y-72577780D02*
X11261904Y-72577780D01*
X10423809Y-72387304D02*
X10995238Y-72196828D01*
X10995238Y-72692066D01*
X565076Y-64761904D02*
X565076Y-63961904D01*
X374600Y-63961904D01*
X260314Y-64000000D01*
X184123Y-64076190D01*
X146028Y-64152380D01*
X107933Y-64304761D01*
X107933Y-64419047D01*
X146028Y-64571428D01*
X184123Y-64647619D01*
X260314Y-64723809D01*
X374600Y-64761904D01*
X565076Y-64761904D01*
X-158733Y-63961904D02*
X-653971Y-63961904D01*
X-387304Y-64266666D01*
X-501590Y-64266666D01*
X-577780Y-64304761D01*
X-615876Y-64342857D01*
X-653971Y-64419047D01*
X-653971Y-64609523D01*
X-615876Y-64685714D01*
X-577780Y-64723809D01*
X-501590Y-64761904D01*
X-273019Y-64761904D01*
X-196828Y-64723809D01*
X-158733Y-64685714D01*
X565076Y-46761904D02*
X565076Y-45961904D01*
X374600Y-45961904D01*
X260314Y-46000000D01*
X184123Y-46076190D01*
X146028Y-46152380D01*
X107933Y-46304761D01*
X107933Y-46419047D01*
X146028Y-46571428D01*
X184123Y-46647619D01*
X260314Y-46723809D01*
X374600Y-46761904D01*
X565076Y-46761904D01*
X-196828Y-46038095D02*
X-234923Y-46000000D01*
X-311114Y-45961904D01*
X-501590Y-45961904D01*
X-577780Y-46000000D01*
X-615876Y-46038095D01*
X-653971Y-46114285D01*
X-653971Y-46190476D01*
X-615876Y-46304761D01*
X-158733Y-46761904D01*
X-653971Y-46761904D01*
X565076Y-28761904D02*
X565076Y-27961904D01*
X374600Y-27961904D01*
X260314Y-28000000D01*
X184123Y-28076190D01*
X146028Y-28152380D01*
X107933Y-28304761D01*
X107933Y-28419047D01*
X146028Y-28571428D01*
X184123Y-28647619D01*
X260314Y-28723809D01*
X374600Y-28761904D01*
X565076Y-28761904D01*
X-653971Y-28761904D02*
X-196828Y-28761904D01*
X-425400Y-28761904D02*
X-425400Y-27961904D01*
X-349209Y-28076190D01*
X-273019Y-28152380D01*
X-196828Y-28190476D01*
X107734344Y-47702655D02*
X107353392Y-47435988D01*
X107734344Y-47245512D02*
X106934344Y-47245512D01*
X106934344Y-47550274D01*
X106972440Y-47626464D01*
X107010535Y-47664560D01*
X107086725Y-47702655D01*
X107201011Y-47702655D01*
X107277201Y-47664560D01*
X107315297Y-47626464D01*
X107353392Y-47550274D01*
X107353392Y-47245512D01*
X107315297Y-48045512D02*
X107315297Y-48312179D01*
X107734344Y-48426464D02*
X107734344Y-48045512D01*
X106934344Y-48045512D01*
X106934344Y-48426464D01*
X107696249Y-48731226D02*
X107734344Y-48845512D01*
X107734344Y-49035988D01*
X107696249Y-49112179D01*
X107658154Y-49150274D01*
X107581963Y-49188369D01*
X107505773Y-49188369D01*
X107429582Y-49150274D01*
X107391487Y-49112179D01*
X107353392Y-49035988D01*
X107315297Y-48883607D01*
X107277201Y-48807417D01*
X107239106Y-48769321D01*
X107162916Y-48731226D01*
X107086725Y-48731226D01*
X107010535Y-48769321D01*
X106972440Y-48807417D01*
X106934344Y-48883607D01*
X106934344Y-49074083D01*
X106972440Y-49188369D01*
X107315297Y-49531226D02*
X107315297Y-49797893D01*
X107734344Y-49912179D02*
X107734344Y-49531226D01*
X106934344Y-49531226D01*
X106934344Y-49912179D01*
X106934344Y-50140750D02*
X106934344Y-50597893D01*
X107734344Y-50369321D02*
X106934344Y-50369321D01*
X565076Y-10761904D02*
X565076Y-9961904D01*
X374600Y-9961904D01*
X260314Y-10000000D01*
X184123Y-10076190D01*
X146028Y-10152380D01*
X107933Y-10304761D01*
X107933Y-10419047D01*
X146028Y-10571428D01*
X184123Y-10647619D01*
X260314Y-10723809D01*
X374600Y-10761904D01*
X565076Y-10761904D01*
X-387304Y-9961904D02*
X-463495Y-9961904D01*
X-539685Y-10000000D01*
X-577780Y-10038095D01*
X-615876Y-10114285D01*
X-653971Y-10266666D01*
X-653971Y-10457142D01*
X-615876Y-10609523D01*
X-577780Y-10685714D01*
X-539685Y-10723809D01*
X-463495Y-10761904D01*
X-387304Y-10761904D01*
X-311114Y-10723809D01*
X-273019Y-10685714D01*
X-234923Y-10609523D01*
X-196828Y-10457142D01*
X-196828Y-10266666D01*
X-234923Y-10114285D01*
X-273019Y-10038095D01*
X-311114Y-10000000D01*
X-387304Y-9961904D01*
M02*
