G04 #@! TF.GenerationSoftware,KiCad,Pcbnew,(5.1.4)-1*
G04 #@! TF.CreationDate,2021-06-26T12:45:11-04:00*
G04 #@! TF.ProjectId,splitreus,73706c69-7472-4657-9573-2e6b69636164,1*
G04 #@! TF.SameCoordinates,Original*
G04 #@! TF.FileFunction,Paste,Top*
G04 #@! TF.FilePolarity,Positive*
%FSLAX46Y46*%
G04 Gerber Fmt 4.6, Leading zero omitted, Abs format (unit mm)*
G04 Created by KiCad (PCBNEW (5.1.4)-1) date 2021-06-26 12:45:11*
%MOMM*%
%LPD*%
G04 APERTURE LIST*
%ADD10R,1.200000X1.600000*%
%ADD11R,1.600000X1.200000*%
G04 APERTURE END LIST*
D10*
X103000000Y-61600000D03*
X103000000Y-64400000D03*
D11*
X91400000Y-75500000D03*
X88600000Y-75500000D03*
X91400000Y-58500000D03*
X88600000Y-58500000D03*
X91400000Y-41500000D03*
X88600000Y-41500000D03*
X91400000Y-24500000D03*
X88600000Y-24500000D03*
X91400000Y-7500000D03*
X88600000Y-7500000D03*
X73400000Y-70500000D03*
X70600000Y-70500000D03*
X73400000Y-53500000D03*
X70600000Y-53500000D03*
X73400000Y-36500000D03*
X70600000Y-36500000D03*
X73400000Y-19500000D03*
X70600000Y-19500000D03*
X73400000Y-2500000D03*
X70600000Y-2500000D03*
X55400000Y-64500000D03*
X52600000Y-64500000D03*
X55400000Y-47500000D03*
X52600000Y-47500000D03*
X55400000Y-30500000D03*
X52600000Y-30500000D03*
X55400000Y-13500000D03*
X52600000Y-13500000D03*
X55400000Y3500000D03*
X52600000Y3500000D03*
X37400000Y-69500000D03*
X34600000Y-69500000D03*
X37400000Y-52500000D03*
X34600000Y-52500000D03*
X37400000Y-35500000D03*
X34600000Y-35500000D03*
X37400000Y-18500000D03*
X34600000Y-18500000D03*
X37400000Y-1525000D03*
X34600000Y-1525000D03*
X19400000Y-72500000D03*
X16600000Y-72500000D03*
X19450000Y-55500000D03*
X16650000Y-55500000D03*
X19450000Y-38500000D03*
X16650000Y-38500000D03*
X19450000Y-21500000D03*
X16650000Y-21500000D03*
X19450000Y-4500000D03*
X16650000Y-4500000D03*
X1400000Y-72500000D03*
X-1400000Y-72500000D03*
X1400000Y-55500000D03*
X-1400000Y-55500000D03*
X1400000Y-38500000D03*
X-1400000Y-38500000D03*
X1400000Y-21500000D03*
X-1400000Y-21500000D03*
X1400000Y-4500000D03*
X-1400000Y-4500000D03*
M02*
