G04 #@! TF.GenerationSoftware,KiCad,Pcbnew,(5.1.4)-1*
G04 #@! TF.CreationDate,2021-09-26T17:53:05-04:00*
G04 #@! TF.ProjectId,splitreus,73706c69-7472-4657-9573-2e6b69636164,1*
G04 #@! TF.SameCoordinates,Original*
G04 #@! TF.FileFunction,Legend,Bot*
G04 #@! TF.FilePolarity,Positive*
%FSLAX46Y46*%
G04 Gerber Fmt 4.6, Leading zero omitted, Abs format (unit mm)*
G04 Created by KiCad (PCBNEW (5.1.4)-1) date 2021-09-26 17:53:05*
%MOMM*%
%LPD*%
G04 APERTURE LIST*
%ADD10C,0.300000*%
%ADD11C,0.500000*%
%ADD12C,0.150000*%
%ADD13C,0.100000*%
G04 APERTURE END LIST*
D10*
X124985714Y-16051142D02*
X126914285Y-17336857D01*
X124985714Y-17051142D02*
X126914285Y-18336857D01*
X124985714Y-18051142D02*
X126914285Y-19336857D01*
X124985714Y-19051142D02*
X126914285Y-20336857D01*
X124985714Y-20051142D02*
X126914285Y-21336857D01*
X124985714Y-21051142D02*
X126914285Y-22336857D01*
X124985714Y-22051142D02*
X126914285Y-23336857D01*
X124985714Y-23051142D02*
X126914285Y-24336857D01*
X124985714Y-24051142D02*
X126914285Y-25336857D01*
X124985714Y-25051142D02*
X126914285Y-26336857D01*
X124985714Y-26051142D02*
X126914285Y-27336857D01*
X124985714Y-27051142D02*
X126914285Y-28336857D01*
X124985714Y-28051142D02*
X126914285Y-29336857D01*
X124985714Y-29051142D02*
X126914285Y-30336857D01*
X124985714Y-30051142D02*
X126914285Y-31336857D01*
X124985714Y-31051142D02*
X126914285Y-32336857D01*
X124985714Y-32051142D02*
X126914285Y-33336857D01*
X124985714Y-33051142D02*
X126914285Y-34336857D01*
X124985714Y-34051142D02*
X126914285Y-35336857D01*
X124985714Y-35051142D02*
X126914285Y-36336857D01*
X124985714Y-36051142D02*
X126914285Y-37336857D01*
X124985714Y-37051142D02*
X126914285Y-38336857D01*
X124985714Y-38051142D02*
X126914285Y-39336857D01*
X124985714Y-39051142D02*
X126914285Y-40336857D01*
X124985714Y-40051142D02*
X126914285Y-41336857D01*
X124985714Y-41051142D02*
X126914285Y-42336857D01*
X124985714Y-42051142D02*
X126914285Y-43336857D01*
X124985714Y-43051142D02*
X126914285Y-44336857D01*
X124985714Y-44051142D02*
X126914285Y-45336857D01*
X124985714Y-45051142D02*
X126914285Y-46336857D01*
X124985714Y-46051142D02*
X126914285Y-47336857D01*
X124985714Y-47051142D02*
X126914285Y-48336857D01*
X124985714Y-48051142D02*
X126914285Y-49336857D01*
X124985714Y-49051142D02*
X126914285Y-50336857D01*
X124985714Y-50051142D02*
X126914285Y-51336857D01*
X124985714Y-51051142D02*
X126914285Y-52336857D01*
X124985714Y-52051142D02*
X126914285Y-53336857D01*
X124985714Y-53051142D02*
X126914285Y-54336857D01*
X124985714Y-54051142D02*
X126914285Y-55336857D01*
X124985714Y-55051142D02*
X126914285Y-56336857D01*
X124985714Y-56051142D02*
X126914285Y-57336857D01*
X124985714Y-57051142D02*
X126914285Y-58336857D01*
X124985714Y-58051142D02*
X126914285Y-59336857D01*
X124985714Y-59051142D02*
X126914285Y-60336857D01*
X124985714Y-60051142D02*
X126914285Y-61336857D01*
X124985714Y-61051142D02*
X126914285Y-62336857D01*
X124985714Y-62051142D02*
X126914285Y-63336857D01*
X124985714Y-63051142D02*
X126914285Y-64336857D01*
X124985714Y-64051142D02*
X126914285Y-65336857D01*
X124985714Y-65051142D02*
X126914285Y-66336857D01*
X124985714Y-66051142D02*
X126914285Y-67336857D01*
X124985714Y-67051142D02*
X126914285Y-68336857D01*
X124985714Y-68051142D02*
X126914285Y-69336857D01*
X124985714Y-69051142D02*
X126914285Y-70336857D01*
X124985714Y-70051142D02*
X126914285Y-71336857D01*
X124985714Y-71051142D02*
X126914285Y-72336857D01*
X124985714Y-72051142D02*
X126914285Y-73336857D01*
X124985714Y-73051142D02*
X126914285Y-74336857D01*
X124985714Y-74051142D02*
X126914285Y-75336857D01*
X124985714Y-75051142D02*
X126914285Y-76336857D01*
X124985714Y-76051142D02*
X126914285Y-77336857D01*
X124985714Y-77051142D02*
X126914285Y-78336857D01*
X124985714Y-78051142D02*
X126914285Y-79336857D01*
X124985714Y-79051142D02*
X126914285Y-80336857D01*
X-12428285Y2704285D02*
X-10499714Y1418571D01*
X-12428285Y1704285D02*
X-10499714Y418571D01*
X-12428285Y704285D02*
X-10499714Y-581428D01*
X-12428285Y-295714D02*
X-10499714Y-1581428D01*
X-12428285Y-1295714D02*
X-10499714Y-2581428D01*
X-12428285Y-2295714D02*
X-10499714Y-3581428D01*
X-12428285Y-3295714D02*
X-10499714Y-4581428D01*
X-12428285Y-4295714D02*
X-10499714Y-5581428D01*
X-12428285Y-5295714D02*
X-10499714Y-6581428D01*
X-12428285Y-6295714D02*
X-10499714Y-7581428D01*
X-12428285Y-7295714D02*
X-10499714Y-8581428D01*
X-12428285Y-8295714D02*
X-10499714Y-9581428D01*
X-12428285Y-9295714D02*
X-10499714Y-10581428D01*
X-12428285Y-10295714D02*
X-10499714Y-11581428D01*
X-12428285Y-11295714D02*
X-10499714Y-12581428D01*
X-12428285Y-12295714D02*
X-10499714Y-13581428D01*
X-12428285Y-13295714D02*
X-10499714Y-14581428D01*
X-12428285Y-14295714D02*
X-10499714Y-15581428D01*
X-12428285Y-15295714D02*
X-10499714Y-16581428D01*
X-12428285Y-16295714D02*
X-10499714Y-17581428D01*
X-12428285Y-17295714D02*
X-10499714Y-18581428D01*
X-12428285Y-18295714D02*
X-10499714Y-19581428D01*
X-12428285Y-19295714D02*
X-10499714Y-20581428D01*
X-12428285Y-20295714D02*
X-10499714Y-21581428D01*
X-12428285Y-21295714D02*
X-10499714Y-22581428D01*
X-12428285Y-22295714D02*
X-10499714Y-23581428D01*
X-12428285Y-23295714D02*
X-10499714Y-24581428D01*
X-12428285Y-24295714D02*
X-10499714Y-25581428D01*
X-10785428Y-29938571D02*
X-10785428Y-29224285D01*
X-12285428Y-29224285D01*
X-12285428Y-30724285D02*
X-12285428Y-31010000D01*
X-12214000Y-31152857D01*
X-12071142Y-31295714D01*
X-11785428Y-31367142D01*
X-11285428Y-31367142D01*
X-10999714Y-31295714D01*
X-10856857Y-31152857D01*
X-10785428Y-31010000D01*
X-10785428Y-30724285D01*
X-10856857Y-30581428D01*
X-10999714Y-30438571D01*
X-11285428Y-30367142D01*
X-11785428Y-30367142D01*
X-12071142Y-30438571D01*
X-12214000Y-30581428D01*
X-12285428Y-30724285D01*
X-11214000Y-31938571D02*
X-11214000Y-32652857D01*
X-10785428Y-31795714D02*
X-12285428Y-32295714D01*
X-10785428Y-32795714D01*
X-10785428Y-33295714D02*
X-12285428Y-33295714D01*
X-12285428Y-33652857D01*
X-12214000Y-33867142D01*
X-12071142Y-34010000D01*
X-11928285Y-34081428D01*
X-11642571Y-34152857D01*
X-11428285Y-34152857D01*
X-11142571Y-34081428D01*
X-10999714Y-34010000D01*
X-10856857Y-33867142D01*
X-10785428Y-33652857D01*
X-10785428Y-33295714D01*
X-10785428Y-34795714D02*
X-12285428Y-34795714D01*
X-10785428Y-35510000D02*
X-12285428Y-35510000D01*
X-10785428Y-36367142D01*
X-12285428Y-36367142D01*
X-12214000Y-37867142D02*
X-12285428Y-37724285D01*
X-12285428Y-37510000D01*
X-12214000Y-37295714D01*
X-12071142Y-37152857D01*
X-11928285Y-37081428D01*
X-11642571Y-37010000D01*
X-11428285Y-37010000D01*
X-11142571Y-37081428D01*
X-10999714Y-37152857D01*
X-10856857Y-37295714D01*
X-10785428Y-37510000D01*
X-10785428Y-37652857D01*
X-10856857Y-37867142D01*
X-10928285Y-37938571D01*
X-11428285Y-37938571D01*
X-11428285Y-37652857D01*
X-12285428Y-39581428D02*
X-12285428Y-40581428D01*
X-10785428Y-39581428D01*
X-10785428Y-40581428D01*
X-12285428Y-41438571D02*
X-12285428Y-41724285D01*
X-12214000Y-41867142D01*
X-12071142Y-42010000D01*
X-11785428Y-42081428D01*
X-11285428Y-42081428D01*
X-10999714Y-42010000D01*
X-10856857Y-41867142D01*
X-10785428Y-41724285D01*
X-10785428Y-41438571D01*
X-10856857Y-41295714D01*
X-10999714Y-41152857D01*
X-11285428Y-41081428D01*
X-11785428Y-41081428D01*
X-12071142Y-41152857D01*
X-12214000Y-41295714D01*
X-12285428Y-41438571D01*
X-10785428Y-42724285D02*
X-12285428Y-42724285D01*
X-10785428Y-43581428D01*
X-12285428Y-43581428D01*
X-11571142Y-44295714D02*
X-11571142Y-44795714D01*
X-10785428Y-45010000D02*
X-10785428Y-44295714D01*
X-12285428Y-44295714D01*
X-12285428Y-45010000D01*
X-12428285Y-47438571D02*
X-10499714Y-48724285D01*
X-12428285Y-48438571D02*
X-10499714Y-49724285D01*
X-12428285Y-49438571D02*
X-10499714Y-50724285D01*
X-12428285Y-50438571D02*
X-10499714Y-51724285D01*
X-12428285Y-51438571D02*
X-10499714Y-52724285D01*
X-12428285Y-52438571D02*
X-10499714Y-53724285D01*
X-12428285Y-53438571D02*
X-10499714Y-54724285D01*
X-12428285Y-54438571D02*
X-10499714Y-55724285D01*
X-12428285Y-55438571D02*
X-10499714Y-56724285D01*
X-12428285Y-56438571D02*
X-10499714Y-57724285D01*
X-12428285Y-57438571D02*
X-10499714Y-58724285D01*
X-12428285Y-58438571D02*
X-10499714Y-59724285D01*
X-12428285Y-59438571D02*
X-10499714Y-60724285D01*
X-12428285Y-60438571D02*
X-10499714Y-61724285D01*
X-12428285Y-61438571D02*
X-10499714Y-62724285D01*
X-12428285Y-62438571D02*
X-10499714Y-63724285D01*
X-12428285Y-63438571D02*
X-10499714Y-64724285D01*
X-12428285Y-64438571D02*
X-10499714Y-65724285D01*
X-12428285Y-65438571D02*
X-10499714Y-66724285D01*
X-12428285Y-66438571D02*
X-10499714Y-67724285D01*
X-12428285Y-67438571D02*
X-10499714Y-68724285D01*
X-12428285Y-68438571D02*
X-10499714Y-69724285D01*
X-12428285Y-69438571D02*
X-10499714Y-70724285D01*
X-12428285Y-70438571D02*
X-10499714Y-71724285D01*
X-12428285Y-71438571D02*
X-10499714Y-72724285D01*
X-12428285Y-72438571D02*
X-10499714Y-73724285D01*
X-12428285Y-73438571D02*
X-10499714Y-74724285D01*
X-12428285Y-74438571D02*
X-10499714Y-75724285D01*
D11*
X115242285Y-43334857D02*
X115099428Y-42906285D01*
X114956571Y-42763428D01*
X114670857Y-42620571D01*
X114242285Y-42620571D01*
X113956571Y-42763428D01*
X113813714Y-42906285D01*
X113670857Y-43192000D01*
X113670857Y-44334857D01*
X116670857Y-44334857D01*
X116670857Y-43334857D01*
X116528000Y-43049142D01*
X116385142Y-42906285D01*
X116099428Y-42763428D01*
X115813714Y-42763428D01*
X115528000Y-42906285D01*
X115385142Y-43049142D01*
X115242285Y-43334857D01*
X115242285Y-44334857D01*
X116670857Y-40763428D02*
X116670857Y-40192000D01*
X116528000Y-39906285D01*
X116242285Y-39620571D01*
X115670857Y-39477714D01*
X114670857Y-39477714D01*
X114099428Y-39620571D01*
X113813714Y-39906285D01*
X113670857Y-40192000D01*
X113670857Y-40763428D01*
X113813714Y-41049142D01*
X114099428Y-41334857D01*
X114670857Y-41477714D01*
X115670857Y-41477714D01*
X116242285Y-41334857D01*
X116528000Y-41049142D01*
X116670857Y-40763428D01*
X116670857Y-38620571D02*
X116670857Y-36906285D01*
X113670857Y-37763428D02*
X116670857Y-37763428D01*
X116670857Y-36334857D02*
X116670857Y-34620571D01*
X113670857Y-35477714D02*
X116670857Y-35477714D01*
X116670857Y-33049142D02*
X116670857Y-32477714D01*
X116528000Y-32192000D01*
X116242285Y-31906285D01*
X115670857Y-31763428D01*
X114670857Y-31763428D01*
X114099428Y-31906285D01*
X113813714Y-32192000D01*
X113670857Y-32477714D01*
X113670857Y-33049142D01*
X113813714Y-33334857D01*
X114099428Y-33620571D01*
X114670857Y-33763428D01*
X115670857Y-33763428D01*
X116242285Y-33620571D01*
X116528000Y-33334857D01*
X116670857Y-33049142D01*
X113670857Y-30477714D02*
X116670857Y-30477714D01*
X114528000Y-29477714D01*
X116670857Y-28477714D01*
X113670857Y-28477714D01*
X116670857Y-24763428D02*
X114242285Y-24763428D01*
X113956571Y-24620571D01*
X113813714Y-24477714D01*
X113670857Y-24192000D01*
X113670857Y-23620571D01*
X113813714Y-23334857D01*
X113956571Y-23192000D01*
X114242285Y-23049142D01*
X116670857Y-23049142D01*
X113670857Y-21620571D02*
X116670857Y-21620571D01*
X116670857Y-20477714D01*
X116528000Y-20192000D01*
X116385142Y-20049142D01*
X116099428Y-19906285D01*
X115670857Y-19906285D01*
X115385142Y-20049142D01*
X115242285Y-20192000D01*
X115099428Y-20477714D01*
X115099428Y-21620571D01*
D12*
X120985000Y-76080000D02*
X120985000Y-67190000D01*
X120604000Y-76080000D02*
X120985000Y-76080000D01*
X116540000Y-76080000D02*
X117556000Y-76080000D01*
X116540000Y-71000000D02*
X116540000Y-76080000D01*
X114635000Y-66809000D02*
X114635000Y-68460000D01*
X114635000Y-64650000D02*
X114635000Y-65031000D01*
X115016000Y-64650000D02*
X114635000Y-64650000D01*
X118445000Y-64650000D02*
X118064000Y-64650000D01*
X114627503Y-68538732D02*
G75*
G02X116540000Y-71000000I-627503J-2461268D01*
G01*
X118445000Y-64650000D02*
G75*
G02X120985000Y-67190000I0J-2540000D01*
G01*
X120000000Y-64000000D02*
X121000000Y-64000000D01*
X121000000Y-77000000D02*
X121000000Y-78000000D01*
X107000000Y-78000000D02*
X107000000Y-77000000D01*
X108000000Y-78000000D02*
X107000000Y-78000000D01*
X107000000Y-65000000D02*
X107000000Y-64000000D01*
X121000000Y-78000000D02*
X120604000Y-78000000D01*
X107000000Y-64000000D02*
X108000000Y-64000000D01*
X121000000Y-64000000D02*
X121000000Y-65000000D01*
X100330000Y-53165000D02*
X91440000Y-53165000D01*
X100330000Y-53546000D02*
X100330000Y-53165000D01*
X100330000Y-57610000D02*
X100330000Y-56594000D01*
X95250000Y-57610000D02*
X100330000Y-57610000D01*
X91059000Y-59515000D02*
X92710000Y-59515000D01*
X88900000Y-59515000D02*
X89281000Y-59515000D01*
X88900000Y-59134000D02*
X88900000Y-59515000D01*
X88900000Y-55705000D02*
X88900000Y-56086000D01*
X92788732Y-59522497D02*
G75*
G02X95250000Y-57610000I2461268J-627503D01*
G01*
X88900000Y-55705000D02*
G75*
G02X91440000Y-53165000I2540000J0D01*
G01*
X88250000Y-54150000D02*
X88250000Y-53150000D01*
X101250000Y-53150000D02*
X102250000Y-53150000D01*
X102250000Y-67150000D02*
X101250000Y-67150000D01*
X102250000Y-66150000D02*
X102250000Y-67150000D01*
X89250000Y-67150000D02*
X88250000Y-67150000D01*
X102250000Y-53150000D02*
X102250000Y-53546000D01*
X88250000Y-67150000D02*
X88250000Y-66150000D01*
X88250000Y-53150000D02*
X89250000Y-53150000D01*
X100330000Y-34115000D02*
X91440000Y-34115000D01*
X100330000Y-34496000D02*
X100330000Y-34115000D01*
X100330000Y-38560000D02*
X100330000Y-37544000D01*
X95250000Y-38560000D02*
X100330000Y-38560000D01*
X91059000Y-40465000D02*
X92710000Y-40465000D01*
X88900000Y-40465000D02*
X89281000Y-40465000D01*
X88900000Y-40084000D02*
X88900000Y-40465000D01*
X88900000Y-36655000D02*
X88900000Y-37036000D01*
X92788732Y-40472497D02*
G75*
G02X95250000Y-38560000I2461268J-627503D01*
G01*
X88900000Y-36655000D02*
G75*
G02X91440000Y-34115000I2540000J0D01*
G01*
X88250000Y-35100000D02*
X88250000Y-34100000D01*
X101250000Y-34100000D02*
X102250000Y-34100000D01*
X102250000Y-48100000D02*
X101250000Y-48100000D01*
X102250000Y-47100000D02*
X102250000Y-48100000D01*
X89250000Y-48100000D02*
X88250000Y-48100000D01*
X102250000Y-34100000D02*
X102250000Y-34496000D01*
X88250000Y-48100000D02*
X88250000Y-47100000D01*
X88250000Y-34100000D02*
X89250000Y-34100000D01*
X100330000Y-15065000D02*
X91440000Y-15065000D01*
X100330000Y-15446000D02*
X100330000Y-15065000D01*
X100330000Y-19510000D02*
X100330000Y-18494000D01*
X95250000Y-19510000D02*
X100330000Y-19510000D01*
X91059000Y-21415000D02*
X92710000Y-21415000D01*
X88900000Y-21415000D02*
X89281000Y-21415000D01*
X88900000Y-21034000D02*
X88900000Y-21415000D01*
X88900000Y-17605000D02*
X88900000Y-17986000D01*
X92788732Y-21422497D02*
G75*
G02X95250000Y-19510000I2461268J-627503D01*
G01*
X88900000Y-17605000D02*
G75*
G02X91440000Y-15065000I2540000J0D01*
G01*
X88250000Y-16050000D02*
X88250000Y-15050000D01*
X101250000Y-15050000D02*
X102250000Y-15050000D01*
X102250000Y-29050000D02*
X101250000Y-29050000D01*
X102250000Y-28050000D02*
X102250000Y-29050000D01*
X89250000Y-29050000D02*
X88250000Y-29050000D01*
X102250000Y-15050000D02*
X102250000Y-15446000D01*
X88250000Y-29050000D02*
X88250000Y-28050000D01*
X88250000Y-15050000D02*
X89250000Y-15050000D01*
X100330000Y3985000D02*
X91440000Y3985000D01*
X100330000Y3604000D02*
X100330000Y3985000D01*
X100330000Y-460000D02*
X100330000Y556000D01*
X95250000Y-460000D02*
X100330000Y-460000D01*
X91059000Y-2365000D02*
X92710000Y-2365000D01*
X88900000Y-2365000D02*
X89281000Y-2365000D01*
X88900000Y-1984000D02*
X88900000Y-2365000D01*
X88900000Y1445000D02*
X88900000Y1064000D01*
X92788732Y-2372497D02*
G75*
G02X95250000Y-460000I2461268J-627503D01*
G01*
X88900000Y1445000D02*
G75*
G02X91440000Y3985000I2540000J0D01*
G01*
X88250000Y3000000D02*
X88250000Y4000000D01*
X101250000Y4000000D02*
X102250000Y4000000D01*
X102250000Y-10000000D02*
X101250000Y-10000000D01*
X102250000Y-9000000D02*
X102250000Y-10000000D01*
X89250000Y-10000000D02*
X88250000Y-10000000D01*
X102250000Y4000000D02*
X102250000Y3604000D01*
X88250000Y-10000000D02*
X88250000Y-9000000D01*
X88250000Y4000000D02*
X89250000Y4000000D01*
X81280000Y-67215000D02*
X72390000Y-67215000D01*
X81280000Y-67596000D02*
X81280000Y-67215000D01*
X81280000Y-71660000D02*
X81280000Y-70644000D01*
X76200000Y-71660000D02*
X81280000Y-71660000D01*
X72009000Y-73565000D02*
X73660000Y-73565000D01*
X69850000Y-73565000D02*
X70231000Y-73565000D01*
X69850000Y-73184000D02*
X69850000Y-73565000D01*
X69850000Y-69755000D02*
X69850000Y-70136000D01*
X73738732Y-73572497D02*
G75*
G02X76200000Y-71660000I2461268J-627503D01*
G01*
X69850000Y-69755000D02*
G75*
G02X72390000Y-67215000I2540000J0D01*
G01*
X69200000Y-68200000D02*
X69200000Y-67200000D01*
X82200000Y-67200000D02*
X83200000Y-67200000D01*
X83200000Y-81200000D02*
X82200000Y-81200000D01*
X83200000Y-80200000D02*
X83200000Y-81200000D01*
X70200000Y-81200000D02*
X69200000Y-81200000D01*
X83200000Y-67200000D02*
X83200000Y-67596000D01*
X69200000Y-81200000D02*
X69200000Y-80200000D01*
X69200000Y-67200000D02*
X70200000Y-67200000D01*
X81280000Y-48165000D02*
X72390000Y-48165000D01*
X81280000Y-48546000D02*
X81280000Y-48165000D01*
X81280000Y-52610000D02*
X81280000Y-51594000D01*
X76200000Y-52610000D02*
X81280000Y-52610000D01*
X72009000Y-54515000D02*
X73660000Y-54515000D01*
X69850000Y-54515000D02*
X70231000Y-54515000D01*
X69850000Y-54134000D02*
X69850000Y-54515000D01*
X69850000Y-50705000D02*
X69850000Y-51086000D01*
X73738732Y-54522497D02*
G75*
G02X76200000Y-52610000I2461268J-627503D01*
G01*
X69850000Y-50705000D02*
G75*
G02X72390000Y-48165000I2540000J0D01*
G01*
X69200000Y-49150000D02*
X69200000Y-48150000D01*
X82200000Y-48150000D02*
X83200000Y-48150000D01*
X83200000Y-62150000D02*
X82200000Y-62150000D01*
X83200000Y-61150000D02*
X83200000Y-62150000D01*
X70200000Y-62150000D02*
X69200000Y-62150000D01*
X83200000Y-48150000D02*
X83200000Y-48546000D01*
X69200000Y-62150000D02*
X69200000Y-61150000D01*
X69200000Y-48150000D02*
X70200000Y-48150000D01*
X81280000Y-29115000D02*
X72390000Y-29115000D01*
X81280000Y-29496000D02*
X81280000Y-29115000D01*
X81280000Y-33560000D02*
X81280000Y-32544000D01*
X76200000Y-33560000D02*
X81280000Y-33560000D01*
X72009000Y-35465000D02*
X73660000Y-35465000D01*
X69850000Y-35465000D02*
X70231000Y-35465000D01*
X69850000Y-35084000D02*
X69850000Y-35465000D01*
X69850000Y-31655000D02*
X69850000Y-32036000D01*
X73738732Y-35472497D02*
G75*
G02X76200000Y-33560000I2461268J-627503D01*
G01*
X69850000Y-31655000D02*
G75*
G02X72390000Y-29115000I2540000J0D01*
G01*
X69200000Y-30100000D02*
X69200000Y-29100000D01*
X82200000Y-29100000D02*
X83200000Y-29100000D01*
X83200000Y-43100000D02*
X82200000Y-43100000D01*
X83200000Y-42100000D02*
X83200000Y-43100000D01*
X70200000Y-43100000D02*
X69200000Y-43100000D01*
X83200000Y-29100000D02*
X83200000Y-29496000D01*
X69200000Y-43100000D02*
X69200000Y-42100000D01*
X69200000Y-29100000D02*
X70200000Y-29100000D01*
X81280000Y-10065000D02*
X72390000Y-10065000D01*
X81280000Y-10446000D02*
X81280000Y-10065000D01*
X81280000Y-14510000D02*
X81280000Y-13494000D01*
X76200000Y-14510000D02*
X81280000Y-14510000D01*
X72009000Y-16415000D02*
X73660000Y-16415000D01*
X69850000Y-16415000D02*
X70231000Y-16415000D01*
X69850000Y-16034000D02*
X69850000Y-16415000D01*
X69850000Y-12605000D02*
X69850000Y-12986000D01*
X73738732Y-16422497D02*
G75*
G02X76200000Y-14510000I2461268J-627503D01*
G01*
X69850000Y-12605000D02*
G75*
G02X72390000Y-10065000I2540000J0D01*
G01*
X69200000Y-11050000D02*
X69200000Y-10050000D01*
X82200000Y-10050000D02*
X83200000Y-10050000D01*
X83200000Y-24050000D02*
X82200000Y-24050000D01*
X83200000Y-23050000D02*
X83200000Y-24050000D01*
X70200000Y-24050000D02*
X69200000Y-24050000D01*
X83200000Y-10050000D02*
X83200000Y-10446000D01*
X69200000Y-24050000D02*
X69200000Y-23050000D01*
X69200000Y-10050000D02*
X70200000Y-10050000D01*
X81280000Y8985000D02*
X72390000Y8985000D01*
X81280000Y8604000D02*
X81280000Y8985000D01*
X81280000Y4540000D02*
X81280000Y5556000D01*
X76200000Y4540000D02*
X81280000Y4540000D01*
X72009000Y2635000D02*
X73660000Y2635000D01*
X69850000Y2635000D02*
X70231000Y2635000D01*
X69850000Y3016000D02*
X69850000Y2635000D01*
X69850000Y6445000D02*
X69850000Y6064000D01*
X73738732Y2627503D02*
G75*
G02X76200000Y4540000I2461268J-627503D01*
G01*
X69850000Y6445000D02*
G75*
G02X72390000Y8985000I2540000J0D01*
G01*
X69200000Y8000000D02*
X69200000Y9000000D01*
X82200000Y9000000D02*
X83200000Y9000000D01*
X83200000Y-5000000D02*
X82200000Y-5000000D01*
X83200000Y-4000000D02*
X83200000Y-5000000D01*
X70200000Y-5000000D02*
X69200000Y-5000000D01*
X83200000Y9000000D02*
X83200000Y8604000D01*
X69200000Y-5000000D02*
X69200000Y-4000000D01*
X69200000Y9000000D02*
X70200000Y9000000D01*
X62230000Y-61215000D02*
X53340000Y-61215000D01*
X62230000Y-61596000D02*
X62230000Y-61215000D01*
X62230000Y-65660000D02*
X62230000Y-64644000D01*
X57150000Y-65660000D02*
X62230000Y-65660000D01*
X52959000Y-67565000D02*
X54610000Y-67565000D01*
X50800000Y-67565000D02*
X51181000Y-67565000D01*
X50800000Y-67184000D02*
X50800000Y-67565000D01*
X50800000Y-63755000D02*
X50800000Y-64136000D01*
X54688732Y-67572497D02*
G75*
G02X57150000Y-65660000I2461268J-627503D01*
G01*
X50800000Y-63755000D02*
G75*
G02X53340000Y-61215000I2540000J0D01*
G01*
X50150000Y-62200000D02*
X50150000Y-61200000D01*
X63150000Y-61200000D02*
X64150000Y-61200000D01*
X64150000Y-75200000D02*
X63150000Y-75200000D01*
X64150000Y-74200000D02*
X64150000Y-75200000D01*
X51150000Y-75200000D02*
X50150000Y-75200000D01*
X64150000Y-61200000D02*
X64150000Y-61596000D01*
X50150000Y-75200000D02*
X50150000Y-74200000D01*
X50150000Y-61200000D02*
X51150000Y-61200000D01*
X62230000Y-42165000D02*
X53340000Y-42165000D01*
X62230000Y-42546000D02*
X62230000Y-42165000D01*
X62230000Y-46610000D02*
X62230000Y-45594000D01*
X57150000Y-46610000D02*
X62230000Y-46610000D01*
X52959000Y-48515000D02*
X54610000Y-48515000D01*
X50800000Y-48515000D02*
X51181000Y-48515000D01*
X50800000Y-48134000D02*
X50800000Y-48515000D01*
X50800000Y-44705000D02*
X50800000Y-45086000D01*
X54688732Y-48522497D02*
G75*
G02X57150000Y-46610000I2461268J-627503D01*
G01*
X50800000Y-44705000D02*
G75*
G02X53340000Y-42165000I2540000J0D01*
G01*
X50150000Y-43150000D02*
X50150000Y-42150000D01*
X63150000Y-42150000D02*
X64150000Y-42150000D01*
X64150000Y-56150000D02*
X63150000Y-56150000D01*
X64150000Y-55150000D02*
X64150000Y-56150000D01*
X51150000Y-56150000D02*
X50150000Y-56150000D01*
X64150000Y-42150000D02*
X64150000Y-42546000D01*
X50150000Y-56150000D02*
X50150000Y-55150000D01*
X50150000Y-42150000D02*
X51150000Y-42150000D01*
X62230000Y-23115000D02*
X53340000Y-23115000D01*
X62230000Y-23496000D02*
X62230000Y-23115000D01*
X62230000Y-27560000D02*
X62230000Y-26544000D01*
X57150000Y-27560000D02*
X62230000Y-27560000D01*
X52959000Y-29465000D02*
X54610000Y-29465000D01*
X50800000Y-29465000D02*
X51181000Y-29465000D01*
X50800000Y-29084000D02*
X50800000Y-29465000D01*
X50800000Y-25655000D02*
X50800000Y-26036000D01*
X54688732Y-29472497D02*
G75*
G02X57150000Y-27560000I2461268J-627503D01*
G01*
X50800000Y-25655000D02*
G75*
G02X53340000Y-23115000I2540000J0D01*
G01*
X50150000Y-24100000D02*
X50150000Y-23100000D01*
X63150000Y-23100000D02*
X64150000Y-23100000D01*
X64150000Y-37100000D02*
X63150000Y-37100000D01*
X64150000Y-36100000D02*
X64150000Y-37100000D01*
X51150000Y-37100000D02*
X50150000Y-37100000D01*
X64150000Y-23100000D02*
X64150000Y-23496000D01*
X50150000Y-37100000D02*
X50150000Y-36100000D01*
X50150000Y-23100000D02*
X51150000Y-23100000D01*
X62230000Y-4065000D02*
X53340000Y-4065000D01*
X62230000Y-4446000D02*
X62230000Y-4065000D01*
X62230000Y-8510000D02*
X62230000Y-7494000D01*
X57150000Y-8510000D02*
X62230000Y-8510000D01*
X52959000Y-10415000D02*
X54610000Y-10415000D01*
X50800000Y-10415000D02*
X51181000Y-10415000D01*
X50800000Y-10034000D02*
X50800000Y-10415000D01*
X50800000Y-6605000D02*
X50800000Y-6986000D01*
X54688732Y-10422497D02*
G75*
G02X57150000Y-8510000I2461268J-627503D01*
G01*
X50800000Y-6605000D02*
G75*
G02X53340000Y-4065000I2540000J0D01*
G01*
X50150000Y-5050000D02*
X50150000Y-4050000D01*
X63150000Y-4050000D02*
X64150000Y-4050000D01*
X64150000Y-18050000D02*
X63150000Y-18050000D01*
X64150000Y-17050000D02*
X64150000Y-18050000D01*
X51150000Y-18050000D02*
X50150000Y-18050000D01*
X64150000Y-4050000D02*
X64150000Y-4446000D01*
X50150000Y-18050000D02*
X50150000Y-17050000D01*
X50150000Y-4050000D02*
X51150000Y-4050000D01*
X62230000Y14985000D02*
X53340000Y14985000D01*
X62230000Y14604000D02*
X62230000Y14985000D01*
X62230000Y10540000D02*
X62230000Y11556000D01*
X57150000Y10540000D02*
X62230000Y10540000D01*
X52959000Y8635000D02*
X54610000Y8635000D01*
X50800000Y8635000D02*
X51181000Y8635000D01*
X50800000Y9016000D02*
X50800000Y8635000D01*
X50800000Y12445000D02*
X50800000Y12064000D01*
X54688732Y8627503D02*
G75*
G02X57150000Y10540000I2461268J-627503D01*
G01*
X50800000Y12445000D02*
G75*
G02X53340000Y14985000I2540000J0D01*
G01*
X50150000Y14000000D02*
X50150000Y15000000D01*
X63150000Y15000000D02*
X64150000Y15000000D01*
X64150000Y1000000D02*
X63150000Y1000000D01*
X64150000Y2000000D02*
X64150000Y1000000D01*
X51150000Y1000000D02*
X50150000Y1000000D01*
X64150000Y15000000D02*
X64150000Y14604000D01*
X50150000Y1000000D02*
X50150000Y2000000D01*
X50150000Y15000000D02*
X51150000Y15000000D01*
X43180000Y-66215000D02*
X34290000Y-66215000D01*
X43180000Y-66596000D02*
X43180000Y-66215000D01*
X43180000Y-70660000D02*
X43180000Y-69644000D01*
X38100000Y-70660000D02*
X43180000Y-70660000D01*
X33909000Y-72565000D02*
X35560000Y-72565000D01*
X31750000Y-72565000D02*
X32131000Y-72565000D01*
X31750000Y-72184000D02*
X31750000Y-72565000D01*
X31750000Y-68755000D02*
X31750000Y-69136000D01*
X35638732Y-72572497D02*
G75*
G02X38100000Y-70660000I2461268J-627503D01*
G01*
X31750000Y-68755000D02*
G75*
G02X34290000Y-66215000I2540000J0D01*
G01*
X31100000Y-67200000D02*
X31100000Y-66200000D01*
X44100000Y-66200000D02*
X45100000Y-66200000D01*
X45100000Y-80200000D02*
X44100000Y-80200000D01*
X45100000Y-79200000D02*
X45100000Y-80200000D01*
X32100000Y-80200000D02*
X31100000Y-80200000D01*
X45100000Y-66200000D02*
X45100000Y-66596000D01*
X31100000Y-80200000D02*
X31100000Y-79200000D01*
X31100000Y-66200000D02*
X32100000Y-66200000D01*
X43180000Y-47165000D02*
X34290000Y-47165000D01*
X43180000Y-47546000D02*
X43180000Y-47165000D01*
X43180000Y-51610000D02*
X43180000Y-50594000D01*
X38100000Y-51610000D02*
X43180000Y-51610000D01*
X33909000Y-53515000D02*
X35560000Y-53515000D01*
X31750000Y-53515000D02*
X32131000Y-53515000D01*
X31750000Y-53134000D02*
X31750000Y-53515000D01*
X31750000Y-49705000D02*
X31750000Y-50086000D01*
X35638732Y-53522497D02*
G75*
G02X38100000Y-51610000I2461268J-627503D01*
G01*
X31750000Y-49705000D02*
G75*
G02X34290000Y-47165000I2540000J0D01*
G01*
X31100000Y-48150000D02*
X31100000Y-47150000D01*
X44100000Y-47150000D02*
X45100000Y-47150000D01*
X45100000Y-61150000D02*
X44100000Y-61150000D01*
X45100000Y-60150000D02*
X45100000Y-61150000D01*
X32100000Y-61150000D02*
X31100000Y-61150000D01*
X45100000Y-47150000D02*
X45100000Y-47546000D01*
X31100000Y-61150000D02*
X31100000Y-60150000D01*
X31100000Y-47150000D02*
X32100000Y-47150000D01*
X43180000Y-28115000D02*
X34290000Y-28115000D01*
X43180000Y-28496000D02*
X43180000Y-28115000D01*
X43180000Y-32560000D02*
X43180000Y-31544000D01*
X38100000Y-32560000D02*
X43180000Y-32560000D01*
X33909000Y-34465000D02*
X35560000Y-34465000D01*
X31750000Y-34465000D02*
X32131000Y-34465000D01*
X31750000Y-34084000D02*
X31750000Y-34465000D01*
X31750000Y-30655000D02*
X31750000Y-31036000D01*
X35638732Y-34472497D02*
G75*
G02X38100000Y-32560000I2461268J-627503D01*
G01*
X31750000Y-30655000D02*
G75*
G02X34290000Y-28115000I2540000J0D01*
G01*
X31100000Y-29100000D02*
X31100000Y-28100000D01*
X44100000Y-28100000D02*
X45100000Y-28100000D01*
X45100000Y-42100000D02*
X44100000Y-42100000D01*
X45100000Y-41100000D02*
X45100000Y-42100000D01*
X32100000Y-42100000D02*
X31100000Y-42100000D01*
X45100000Y-28100000D02*
X45100000Y-28496000D01*
X31100000Y-42100000D02*
X31100000Y-41100000D01*
X31100000Y-28100000D02*
X32100000Y-28100000D01*
X43180000Y-9065000D02*
X34290000Y-9065000D01*
X43180000Y-9446000D02*
X43180000Y-9065000D01*
X43180000Y-13510000D02*
X43180000Y-12494000D01*
X38100000Y-13510000D02*
X43180000Y-13510000D01*
X33909000Y-15415000D02*
X35560000Y-15415000D01*
X31750000Y-15415000D02*
X32131000Y-15415000D01*
X31750000Y-15034000D02*
X31750000Y-15415000D01*
X31750000Y-11605000D02*
X31750000Y-11986000D01*
X35638732Y-15422497D02*
G75*
G02X38100000Y-13510000I2461268J-627503D01*
G01*
X31750000Y-11605000D02*
G75*
G02X34290000Y-9065000I2540000J0D01*
G01*
X31100000Y-10050000D02*
X31100000Y-9050000D01*
X44100000Y-9050000D02*
X45100000Y-9050000D01*
X45100000Y-23050000D02*
X44100000Y-23050000D01*
X45100000Y-22050000D02*
X45100000Y-23050000D01*
X32100000Y-23050000D02*
X31100000Y-23050000D01*
X45100000Y-9050000D02*
X45100000Y-9446000D01*
X31100000Y-23050000D02*
X31100000Y-22050000D01*
X31100000Y-9050000D02*
X32100000Y-9050000D01*
X43180000Y9985000D02*
X34290000Y9985000D01*
X43180000Y9604000D02*
X43180000Y9985000D01*
X43180000Y5540000D02*
X43180000Y6556000D01*
X38100000Y5540000D02*
X43180000Y5540000D01*
X33909000Y3635000D02*
X35560000Y3635000D01*
X31750000Y3635000D02*
X32131000Y3635000D01*
X31750000Y4016000D02*
X31750000Y3635000D01*
X31750000Y7445000D02*
X31750000Y7064000D01*
X35638732Y3627503D02*
G75*
G02X38100000Y5540000I2461268J-627503D01*
G01*
X31750000Y7445000D02*
G75*
G02X34290000Y9985000I2540000J0D01*
G01*
X31100000Y9000000D02*
X31100000Y10000000D01*
X44100000Y10000000D02*
X45100000Y10000000D01*
X45100000Y-4000000D02*
X44100000Y-4000000D01*
X45100000Y-3000000D02*
X45100000Y-4000000D01*
X32100000Y-4000000D02*
X31100000Y-4000000D01*
X45100000Y10000000D02*
X45100000Y9604000D01*
X31100000Y-4000000D02*
X31100000Y-3000000D01*
X31100000Y10000000D02*
X32100000Y10000000D01*
X24130000Y-69215000D02*
X15240000Y-69215000D01*
X24130000Y-69596000D02*
X24130000Y-69215000D01*
X24130000Y-73660000D02*
X24130000Y-72644000D01*
X19050000Y-73660000D02*
X24130000Y-73660000D01*
X14859000Y-75565000D02*
X16510000Y-75565000D01*
X12700000Y-75565000D02*
X13081000Y-75565000D01*
X12700000Y-75184000D02*
X12700000Y-75565000D01*
X12700000Y-71755000D02*
X12700000Y-72136000D01*
X16588732Y-75572497D02*
G75*
G02X19050000Y-73660000I2461268J-627503D01*
G01*
X12700000Y-71755000D02*
G75*
G02X15240000Y-69215000I2540000J0D01*
G01*
X12050000Y-70200000D02*
X12050000Y-69200000D01*
X25050000Y-69200000D02*
X26050000Y-69200000D01*
X26050000Y-83200000D02*
X25050000Y-83200000D01*
X26050000Y-82200000D02*
X26050000Y-83200000D01*
X13050000Y-83200000D02*
X12050000Y-83200000D01*
X26050000Y-69200000D02*
X26050000Y-69596000D01*
X12050000Y-83200000D02*
X12050000Y-82200000D01*
X12050000Y-69200000D02*
X13050000Y-69200000D01*
X24130000Y-50165000D02*
X15240000Y-50165000D01*
X24130000Y-50546000D02*
X24130000Y-50165000D01*
X24130000Y-54610000D02*
X24130000Y-53594000D01*
X19050000Y-54610000D02*
X24130000Y-54610000D01*
X14859000Y-56515000D02*
X16510000Y-56515000D01*
X12700000Y-56515000D02*
X13081000Y-56515000D01*
X12700000Y-56134000D02*
X12700000Y-56515000D01*
X12700000Y-52705000D02*
X12700000Y-53086000D01*
X16588732Y-56522497D02*
G75*
G02X19050000Y-54610000I2461268J-627503D01*
G01*
X12700000Y-52705000D02*
G75*
G02X15240000Y-50165000I2540000J0D01*
G01*
X12050000Y-51150000D02*
X12050000Y-50150000D01*
X25050000Y-50150000D02*
X26050000Y-50150000D01*
X26050000Y-64150000D02*
X25050000Y-64150000D01*
X26050000Y-63150000D02*
X26050000Y-64150000D01*
X13050000Y-64150000D02*
X12050000Y-64150000D01*
X26050000Y-50150000D02*
X26050000Y-50546000D01*
X12050000Y-64150000D02*
X12050000Y-63150000D01*
X12050000Y-50150000D02*
X13050000Y-50150000D01*
X24130000Y-31115000D02*
X15240000Y-31115000D01*
X24130000Y-31496000D02*
X24130000Y-31115000D01*
X24130000Y-35560000D02*
X24130000Y-34544000D01*
X19050000Y-35560000D02*
X24130000Y-35560000D01*
X14859000Y-37465000D02*
X16510000Y-37465000D01*
X12700000Y-37465000D02*
X13081000Y-37465000D01*
X12700000Y-37084000D02*
X12700000Y-37465000D01*
X12700000Y-33655000D02*
X12700000Y-34036000D01*
X16588732Y-37472497D02*
G75*
G02X19050000Y-35560000I2461268J-627503D01*
G01*
X12700000Y-33655000D02*
G75*
G02X15240000Y-31115000I2540000J0D01*
G01*
X12050000Y-32100000D02*
X12050000Y-31100000D01*
X25050000Y-31100000D02*
X26050000Y-31100000D01*
X26050000Y-45100000D02*
X25050000Y-45100000D01*
X26050000Y-44100000D02*
X26050000Y-45100000D01*
X13050000Y-45100000D02*
X12050000Y-45100000D01*
X26050000Y-31100000D02*
X26050000Y-31496000D01*
X12050000Y-45100000D02*
X12050000Y-44100000D01*
X12050000Y-31100000D02*
X13050000Y-31100000D01*
X24130000Y-12065000D02*
X15240000Y-12065000D01*
X24130000Y-12446000D02*
X24130000Y-12065000D01*
X24130000Y-16510000D02*
X24130000Y-15494000D01*
X19050000Y-16510000D02*
X24130000Y-16510000D01*
X14859000Y-18415000D02*
X16510000Y-18415000D01*
X12700000Y-18415000D02*
X13081000Y-18415000D01*
X12700000Y-18034000D02*
X12700000Y-18415000D01*
X12700000Y-14605000D02*
X12700000Y-14986000D01*
X16588732Y-18422497D02*
G75*
G02X19050000Y-16510000I2461268J-627503D01*
G01*
X12700000Y-14605000D02*
G75*
G02X15240000Y-12065000I2540000J0D01*
G01*
X12050000Y-13050000D02*
X12050000Y-12050000D01*
X25050000Y-12050000D02*
X26050000Y-12050000D01*
X26050000Y-26050000D02*
X25050000Y-26050000D01*
X26050000Y-25050000D02*
X26050000Y-26050000D01*
X13050000Y-26050000D02*
X12050000Y-26050000D01*
X26050000Y-12050000D02*
X26050000Y-12446000D01*
X12050000Y-26050000D02*
X12050000Y-25050000D01*
X12050000Y-12050000D02*
X13050000Y-12050000D01*
X24130000Y6985000D02*
X15240000Y6985000D01*
X24130000Y6604000D02*
X24130000Y6985000D01*
X24130000Y2540000D02*
X24130000Y3556000D01*
X19050000Y2540000D02*
X24130000Y2540000D01*
X14859000Y635000D02*
X16510000Y635000D01*
X12700000Y635000D02*
X13081000Y635000D01*
X12700000Y1016000D02*
X12700000Y635000D01*
X12700000Y4445000D02*
X12700000Y4064000D01*
X16588732Y627503D02*
G75*
G02X19050000Y2540000I2461268J-627503D01*
G01*
X12700000Y4445000D02*
G75*
G02X15240000Y6985000I2540000J0D01*
G01*
X12050000Y6000000D02*
X12050000Y7000000D01*
X25050000Y7000000D02*
X26050000Y7000000D01*
X26050000Y-7000000D02*
X25050000Y-7000000D01*
X26050000Y-6000000D02*
X26050000Y-7000000D01*
X13050000Y-7000000D02*
X12050000Y-7000000D01*
X26050000Y7000000D02*
X26050000Y6604000D01*
X12050000Y-7000000D02*
X12050000Y-6000000D01*
X12050000Y7000000D02*
X13050000Y7000000D01*
X5080000Y-69215000D02*
X-3810000Y-69215000D01*
X5080000Y-69596000D02*
X5080000Y-69215000D01*
X5080000Y-73660000D02*
X5080000Y-72644000D01*
X0Y-73660000D02*
X5080000Y-73660000D01*
X-4191000Y-75565000D02*
X-2540000Y-75565000D01*
X-6350000Y-75565000D02*
X-5969000Y-75565000D01*
X-6350000Y-75184000D02*
X-6350000Y-75565000D01*
X-6350000Y-71755000D02*
X-6350000Y-72136000D01*
X-2461268Y-75572497D02*
G75*
G02X0Y-73660000I2461268J-627503D01*
G01*
X-6350000Y-71755000D02*
G75*
G02X-3810000Y-69215000I2540000J0D01*
G01*
X-7000000Y-70200000D02*
X-7000000Y-69200000D01*
X6000000Y-69200000D02*
X7000000Y-69200000D01*
X7000000Y-83200000D02*
X6000000Y-83200000D01*
X7000000Y-82200000D02*
X7000000Y-83200000D01*
X-6000000Y-83200000D02*
X-7000000Y-83200000D01*
X7000000Y-69200000D02*
X7000000Y-69596000D01*
X-7000000Y-83200000D02*
X-7000000Y-82200000D01*
X-7000000Y-69200000D02*
X-6000000Y-69200000D01*
X5080000Y-50165000D02*
X-3810000Y-50165000D01*
X5080000Y-50546000D02*
X5080000Y-50165000D01*
X5080000Y-54610000D02*
X5080000Y-53594000D01*
X0Y-54610000D02*
X5080000Y-54610000D01*
X-4191000Y-56515000D02*
X-2540000Y-56515000D01*
X-6350000Y-56515000D02*
X-5969000Y-56515000D01*
X-6350000Y-56134000D02*
X-6350000Y-56515000D01*
X-6350000Y-52705000D02*
X-6350000Y-53086000D01*
X-2461268Y-56522497D02*
G75*
G02X0Y-54610000I2461268J-627503D01*
G01*
X-6350000Y-52705000D02*
G75*
G02X-3810000Y-50165000I2540000J0D01*
G01*
X-7000000Y-51150000D02*
X-7000000Y-50150000D01*
X6000000Y-50150000D02*
X7000000Y-50150000D01*
X7000000Y-64150000D02*
X6000000Y-64150000D01*
X7000000Y-63150000D02*
X7000000Y-64150000D01*
X-6000000Y-64150000D02*
X-7000000Y-64150000D01*
X7000000Y-50150000D02*
X7000000Y-50546000D01*
X-7000000Y-64150000D02*
X-7000000Y-63150000D01*
X-7000000Y-50150000D02*
X-6000000Y-50150000D01*
X5080000Y-31115000D02*
X-3810000Y-31115000D01*
X5080000Y-31496000D02*
X5080000Y-31115000D01*
X5080000Y-35560000D02*
X5080000Y-34544000D01*
X0Y-35560000D02*
X5080000Y-35560000D01*
X-4191000Y-37465000D02*
X-2540000Y-37465000D01*
X-6350000Y-37465000D02*
X-5969000Y-37465000D01*
X-6350000Y-37084000D02*
X-6350000Y-37465000D01*
X-6350000Y-33655000D02*
X-6350000Y-34036000D01*
X-2461268Y-37472497D02*
G75*
G02X0Y-35560000I2461268J-627503D01*
G01*
X-6350000Y-33655000D02*
G75*
G02X-3810000Y-31115000I2540000J0D01*
G01*
X-7000000Y-32100000D02*
X-7000000Y-31100000D01*
X6000000Y-31100000D02*
X7000000Y-31100000D01*
X7000000Y-45100000D02*
X6000000Y-45100000D01*
X7000000Y-44100000D02*
X7000000Y-45100000D01*
X-6000000Y-45100000D02*
X-7000000Y-45100000D01*
X7000000Y-31100000D02*
X7000000Y-31496000D01*
X-7000000Y-45100000D02*
X-7000000Y-44100000D01*
X-7000000Y-31100000D02*
X-6000000Y-31100000D01*
X5080000Y-12065000D02*
X-3810000Y-12065000D01*
X5080000Y-12446000D02*
X5080000Y-12065000D01*
X5080000Y-16510000D02*
X5080000Y-15494000D01*
X0Y-16510000D02*
X5080000Y-16510000D01*
X-4191000Y-18415000D02*
X-2540000Y-18415000D01*
X-6350000Y-18415000D02*
X-5969000Y-18415000D01*
X-6350000Y-18034000D02*
X-6350000Y-18415000D01*
X-6350000Y-14605000D02*
X-6350000Y-14986000D01*
X-2461268Y-18422497D02*
G75*
G02X0Y-16510000I2461268J-627503D01*
G01*
X-6350000Y-14605000D02*
G75*
G02X-3810000Y-12065000I2540000J0D01*
G01*
X-7000000Y-13050000D02*
X-7000000Y-12050000D01*
X6000000Y-12050000D02*
X7000000Y-12050000D01*
X7000000Y-26050000D02*
X6000000Y-26050000D01*
X7000000Y-25050000D02*
X7000000Y-26050000D01*
X-6000000Y-26050000D02*
X-7000000Y-26050000D01*
X7000000Y-12050000D02*
X7000000Y-12446000D01*
X-7000000Y-26050000D02*
X-7000000Y-25050000D01*
X-7000000Y-12050000D02*
X-6000000Y-12050000D01*
X5080000Y6985000D02*
X-3810000Y6985000D01*
X5080000Y6604000D02*
X5080000Y6985000D01*
X5080000Y2540000D02*
X5080000Y3556000D01*
X0Y2540000D02*
X5080000Y2540000D01*
X-4191000Y635000D02*
X-2540000Y635000D01*
X-6350000Y635000D02*
X-5969000Y635000D01*
X-6350000Y1016000D02*
X-6350000Y635000D01*
X-6350000Y4445000D02*
X-6350000Y4064000D01*
X-2461268Y627503D02*
G75*
G02X0Y2540000I2461268J-627503D01*
G01*
X-6350000Y4445000D02*
G75*
G02X-3810000Y6985000I2540000J0D01*
G01*
X-7000000Y6000000D02*
X-7000000Y7000000D01*
X6000000Y7000000D02*
X7000000Y7000000D01*
X7000000Y-7000000D02*
X6000000Y-7000000D01*
X7000000Y-6000000D02*
X7000000Y-7000000D01*
X-6000000Y-7000000D02*
X-7000000Y-7000000D01*
X7000000Y7000000D02*
X7000000Y6604000D01*
X-7000000Y-7000000D02*
X-7000000Y-6000000D01*
X-7000000Y7000000D02*
X-6000000Y7000000D01*
X100330000Y-72215000D02*
X91440000Y-72215000D01*
X100330000Y-72596000D02*
X100330000Y-72215000D01*
X100330000Y-76660000D02*
X100330000Y-75644000D01*
X95250000Y-76660000D02*
X100330000Y-76660000D01*
X91059000Y-78565000D02*
X92710000Y-78565000D01*
X88900000Y-78565000D02*
X89281000Y-78565000D01*
X88900000Y-78184000D02*
X88900000Y-78565000D01*
X88900000Y-74755000D02*
X88900000Y-75136000D01*
X92788732Y-78572497D02*
G75*
G02X95250000Y-76660000I2461268J-627503D01*
G01*
X88900000Y-74755000D02*
G75*
G02X91440000Y-72215000I2540000J0D01*
G01*
X88250000Y-73200000D02*
X88250000Y-72200000D01*
X101250000Y-72200000D02*
X102250000Y-72200000D01*
X102250000Y-86200000D02*
X101250000Y-86200000D01*
X102250000Y-85200000D02*
X102250000Y-86200000D01*
X89250000Y-86200000D02*
X88250000Y-86200000D01*
X102250000Y-72200000D02*
X102250000Y-72596000D01*
X88250000Y-86200000D02*
X88250000Y-85200000D01*
X88250000Y-72200000D02*
X89250000Y-72200000D01*
D13*
G36*
X110630000Y-66345000D02*
G01*
X110630000Y-69095000D01*
X109390000Y-69070000D01*
X109390000Y-66340000D01*
X110630000Y-66345000D01*
G37*
X110630000Y-66345000D02*
X110630000Y-69095000D01*
X109390000Y-69070000D01*
X109390000Y-66340000D01*
X110630000Y-66345000D01*
G36*
X90595000Y-82570000D02*
G01*
X93345000Y-82570000D01*
X93320000Y-83810000D01*
X90590000Y-83810000D01*
X90595000Y-82570000D01*
G37*
X90595000Y-82570000D02*
X93345000Y-82570000D01*
X93320000Y-83810000D01*
X90590000Y-83810000D01*
X90595000Y-82570000D01*
G36*
X90595000Y-63520000D02*
G01*
X93345000Y-63520000D01*
X93320000Y-64760000D01*
X90590000Y-64760000D01*
X90595000Y-63520000D01*
G37*
X90595000Y-63520000D02*
X93345000Y-63520000D01*
X93320000Y-64760000D01*
X90590000Y-64760000D01*
X90595000Y-63520000D01*
G36*
X90595000Y-44470000D02*
G01*
X93345000Y-44470000D01*
X93320000Y-45710000D01*
X90590000Y-45710000D01*
X90595000Y-44470000D01*
G37*
X90595000Y-44470000D02*
X93345000Y-44470000D01*
X93320000Y-45710000D01*
X90590000Y-45710000D01*
X90595000Y-44470000D01*
G36*
X90595000Y-25420000D02*
G01*
X93345000Y-25420000D01*
X93320000Y-26660000D01*
X90590000Y-26660000D01*
X90595000Y-25420000D01*
G37*
X90595000Y-25420000D02*
X93345000Y-25420000D01*
X93320000Y-26660000D01*
X90590000Y-26660000D01*
X90595000Y-25420000D01*
G36*
X90595000Y-6370000D02*
G01*
X93345000Y-6370000D01*
X93320000Y-7610000D01*
X90590000Y-7610000D01*
X90595000Y-6370000D01*
G37*
X90595000Y-6370000D02*
X93345000Y-6370000D01*
X93320000Y-7610000D01*
X90590000Y-7610000D01*
X90595000Y-6370000D01*
G36*
X71545000Y-77570000D02*
G01*
X74295000Y-77570000D01*
X74270000Y-78810000D01*
X71540000Y-78810000D01*
X71545000Y-77570000D01*
G37*
X71545000Y-77570000D02*
X74295000Y-77570000D01*
X74270000Y-78810000D01*
X71540000Y-78810000D01*
X71545000Y-77570000D01*
G36*
X71545000Y-58520000D02*
G01*
X74295000Y-58520000D01*
X74270000Y-59760000D01*
X71540000Y-59760000D01*
X71545000Y-58520000D01*
G37*
X71545000Y-58520000D02*
X74295000Y-58520000D01*
X74270000Y-59760000D01*
X71540000Y-59760000D01*
X71545000Y-58520000D01*
G36*
X71545000Y-39470000D02*
G01*
X74295000Y-39470000D01*
X74270000Y-40710000D01*
X71540000Y-40710000D01*
X71545000Y-39470000D01*
G37*
X71545000Y-39470000D02*
X74295000Y-39470000D01*
X74270000Y-40710000D01*
X71540000Y-40710000D01*
X71545000Y-39470000D01*
G36*
X71545000Y-20420000D02*
G01*
X74295000Y-20420000D01*
X74270000Y-21660000D01*
X71540000Y-21660000D01*
X71545000Y-20420000D01*
G37*
X71545000Y-20420000D02*
X74295000Y-20420000D01*
X74270000Y-21660000D01*
X71540000Y-21660000D01*
X71545000Y-20420000D01*
G36*
X71545000Y-1370000D02*
G01*
X74295000Y-1370000D01*
X74270000Y-2610000D01*
X71540000Y-2610000D01*
X71545000Y-1370000D01*
G37*
X71545000Y-1370000D02*
X74295000Y-1370000D01*
X74270000Y-2610000D01*
X71540000Y-2610000D01*
X71545000Y-1370000D01*
G36*
X52495000Y-71570000D02*
G01*
X55245000Y-71570000D01*
X55220000Y-72810000D01*
X52490000Y-72810000D01*
X52495000Y-71570000D01*
G37*
X52495000Y-71570000D02*
X55245000Y-71570000D01*
X55220000Y-72810000D01*
X52490000Y-72810000D01*
X52495000Y-71570000D01*
G36*
X52495000Y-52520000D02*
G01*
X55245000Y-52520000D01*
X55220000Y-53760000D01*
X52490000Y-53760000D01*
X52495000Y-52520000D01*
G37*
X52495000Y-52520000D02*
X55245000Y-52520000D01*
X55220000Y-53760000D01*
X52490000Y-53760000D01*
X52495000Y-52520000D01*
G36*
X52495000Y-33470000D02*
G01*
X55245000Y-33470000D01*
X55220000Y-34710000D01*
X52490000Y-34710000D01*
X52495000Y-33470000D01*
G37*
X52495000Y-33470000D02*
X55245000Y-33470000D01*
X55220000Y-34710000D01*
X52490000Y-34710000D01*
X52495000Y-33470000D01*
G36*
X52495000Y-14420000D02*
G01*
X55245000Y-14420000D01*
X55220000Y-15660000D01*
X52490000Y-15660000D01*
X52495000Y-14420000D01*
G37*
X52495000Y-14420000D02*
X55245000Y-14420000D01*
X55220000Y-15660000D01*
X52490000Y-15660000D01*
X52495000Y-14420000D01*
G36*
X52495000Y4630000D02*
G01*
X55245000Y4630000D01*
X55220000Y3390000D01*
X52490000Y3390000D01*
X52495000Y4630000D01*
G37*
X52495000Y4630000D02*
X55245000Y4630000D01*
X55220000Y3390000D01*
X52490000Y3390000D01*
X52495000Y4630000D01*
G36*
X33445000Y-76570000D02*
G01*
X36195000Y-76570000D01*
X36170000Y-77810000D01*
X33440000Y-77810000D01*
X33445000Y-76570000D01*
G37*
X33445000Y-76570000D02*
X36195000Y-76570000D01*
X36170000Y-77810000D01*
X33440000Y-77810000D01*
X33445000Y-76570000D01*
G36*
X33445000Y-57520000D02*
G01*
X36195000Y-57520000D01*
X36170000Y-58760000D01*
X33440000Y-58760000D01*
X33445000Y-57520000D01*
G37*
X33445000Y-57520000D02*
X36195000Y-57520000D01*
X36170000Y-58760000D01*
X33440000Y-58760000D01*
X33445000Y-57520000D01*
G36*
X33445000Y-38470000D02*
G01*
X36195000Y-38470000D01*
X36170000Y-39710000D01*
X33440000Y-39710000D01*
X33445000Y-38470000D01*
G37*
X33445000Y-38470000D02*
X36195000Y-38470000D01*
X36170000Y-39710000D01*
X33440000Y-39710000D01*
X33445000Y-38470000D01*
G36*
X33445000Y-19420000D02*
G01*
X36195000Y-19420000D01*
X36170000Y-20660000D01*
X33440000Y-20660000D01*
X33445000Y-19420000D01*
G37*
X33445000Y-19420000D02*
X36195000Y-19420000D01*
X36170000Y-20660000D01*
X33440000Y-20660000D01*
X33445000Y-19420000D01*
G36*
X33445000Y-370000D02*
G01*
X36195000Y-370000D01*
X36170000Y-1610000D01*
X33440000Y-1610000D01*
X33445000Y-370000D01*
G37*
X33445000Y-370000D02*
X36195000Y-370000D01*
X36170000Y-1610000D01*
X33440000Y-1610000D01*
X33445000Y-370000D01*
G36*
X14395000Y-79570000D02*
G01*
X17145000Y-79570000D01*
X17120000Y-80810000D01*
X14390000Y-80810000D01*
X14395000Y-79570000D01*
G37*
X14395000Y-79570000D02*
X17145000Y-79570000D01*
X17120000Y-80810000D01*
X14390000Y-80810000D01*
X14395000Y-79570000D01*
G36*
X14395000Y-60520000D02*
G01*
X17145000Y-60520000D01*
X17120000Y-61760000D01*
X14390000Y-61760000D01*
X14395000Y-60520000D01*
G37*
X14395000Y-60520000D02*
X17145000Y-60520000D01*
X17120000Y-61760000D01*
X14390000Y-61760000D01*
X14395000Y-60520000D01*
G36*
X14395000Y-41470000D02*
G01*
X17145000Y-41470000D01*
X17120000Y-42710000D01*
X14390000Y-42710000D01*
X14395000Y-41470000D01*
G37*
X14395000Y-41470000D02*
X17145000Y-41470000D01*
X17120000Y-42710000D01*
X14390000Y-42710000D01*
X14395000Y-41470000D01*
G36*
X14395000Y-22420000D02*
G01*
X17145000Y-22420000D01*
X17120000Y-23660000D01*
X14390000Y-23660000D01*
X14395000Y-22420000D01*
G37*
X14395000Y-22420000D02*
X17145000Y-22420000D01*
X17120000Y-23660000D01*
X14390000Y-23660000D01*
X14395000Y-22420000D01*
G36*
X14395000Y-3370000D02*
G01*
X17145000Y-3370000D01*
X17120000Y-4610000D01*
X14390000Y-4610000D01*
X14395000Y-3370000D01*
G37*
X14395000Y-3370000D02*
X17145000Y-3370000D01*
X17120000Y-4610000D01*
X14390000Y-4610000D01*
X14395000Y-3370000D01*
G36*
X-4655000Y-79570000D02*
G01*
X-1905000Y-79570000D01*
X-1930000Y-80810000D01*
X-4660000Y-80810000D01*
X-4655000Y-79570000D01*
G37*
X-4655000Y-79570000D02*
X-1905000Y-79570000D01*
X-1930000Y-80810000D01*
X-4660000Y-80810000D01*
X-4655000Y-79570000D01*
G36*
X-4655000Y-60520000D02*
G01*
X-1905000Y-60520000D01*
X-1930000Y-61760000D01*
X-4660000Y-61760000D01*
X-4655000Y-60520000D01*
G37*
X-4655000Y-60520000D02*
X-1905000Y-60520000D01*
X-1930000Y-61760000D01*
X-4660000Y-61760000D01*
X-4655000Y-60520000D01*
G36*
X-4655000Y-41470000D02*
G01*
X-1905000Y-41470000D01*
X-1930000Y-42710000D01*
X-4660000Y-42710000D01*
X-4655000Y-41470000D01*
G37*
X-4655000Y-41470000D02*
X-1905000Y-41470000D01*
X-1930000Y-42710000D01*
X-4660000Y-42710000D01*
X-4655000Y-41470000D01*
G36*
X-4655000Y-22420000D02*
G01*
X-1905000Y-22420000D01*
X-1930000Y-23660000D01*
X-4660000Y-23660000D01*
X-4655000Y-22420000D01*
G37*
X-4655000Y-22420000D02*
X-1905000Y-22420000D01*
X-1930000Y-23660000D01*
X-4660000Y-23660000D01*
X-4655000Y-22420000D01*
G36*
X-4655000Y-3370000D02*
G01*
X-1905000Y-3370000D01*
X-1930000Y-4610000D01*
X-4660000Y-4610000D01*
X-4655000Y-3370000D01*
G37*
X-4655000Y-3370000D02*
X-1905000Y-3370000D01*
X-1930000Y-4610000D01*
X-4660000Y-4610000D01*
X-4655000Y-3370000D01*
D12*
X109462000Y780000D02*
X108762000Y780000D01*
X105962000Y780000D02*
X106562000Y780000D01*
X105962000Y-5220000D02*
X106562000Y-5220000D01*
X109462000Y-5220000D02*
X108762000Y-5220000D01*
X105962000Y-5220000D02*
X105962000Y780000D01*
X109462000Y780000D02*
X109462000Y-5220000D01*
X109462000Y780000D02*
X109462000Y-5120000D01*
X122394000Y-55040000D02*
X124294000Y-55040000D01*
X122394000Y-55540000D02*
X122394000Y-55040000D01*
X124294000Y-50090000D02*
X124294000Y-55040000D01*
X122394000Y-50040000D02*
X124294000Y-50040000D01*
X110394000Y-49540000D02*
X122394000Y-49540000D01*
X110394000Y-55540000D02*
X110394000Y-49540000D01*
X122394000Y-55540000D02*
X110394000Y-55540000D01*
X122394000Y-49540000D02*
X122394000Y-50040000D01*
X105516000Y-68460000D02*
X105516000Y-73540000D01*
X105516000Y-73540000D02*
X107040000Y-73540000D01*
X107040000Y-73540000D02*
X107040000Y-68460000D01*
X107040000Y-68460000D02*
X105516000Y-68460000D01*
X105516000Y-73159000D02*
X107040000Y-73159000D01*
X107040000Y-73286000D02*
X105516000Y-73286000D01*
X105516000Y-73413000D02*
X107040000Y-73413000D01*
X107040000Y-73032000D02*
X105516000Y-73032000D01*
X105516000Y-72905000D02*
X107040000Y-72905000D01*
X105516000Y-72778000D02*
X107040000Y-72778000D01*
X92710000Y-87762000D02*
X97790000Y-87762000D01*
X97790000Y-87762000D02*
X97790000Y-86238000D01*
X97790000Y-86238000D02*
X92710000Y-86238000D01*
X92710000Y-86238000D02*
X92710000Y-87762000D01*
X97409000Y-87762000D02*
X97409000Y-86238000D01*
X97536000Y-86238000D02*
X97536000Y-87762000D01*
X97663000Y-87762000D02*
X97663000Y-86238000D01*
X97282000Y-86238000D02*
X97282000Y-87762000D01*
X97155000Y-87762000D02*
X97155000Y-86238000D01*
X97028000Y-87762000D02*
X97028000Y-86238000D01*
X92710000Y-68662000D02*
X97790000Y-68662000D01*
X97790000Y-68662000D02*
X97790000Y-67138000D01*
X97790000Y-67138000D02*
X92710000Y-67138000D01*
X92710000Y-67138000D02*
X92710000Y-68662000D01*
X97409000Y-68662000D02*
X97409000Y-67138000D01*
X97536000Y-67138000D02*
X97536000Y-68662000D01*
X97663000Y-68662000D02*
X97663000Y-67138000D01*
X97282000Y-67138000D02*
X97282000Y-68662000D01*
X97155000Y-68662000D02*
X97155000Y-67138000D01*
X97028000Y-68662000D02*
X97028000Y-67138000D01*
X92710000Y-49662000D02*
X97790000Y-49662000D01*
X97790000Y-49662000D02*
X97790000Y-48138000D01*
X97790000Y-48138000D02*
X92710000Y-48138000D01*
X92710000Y-48138000D02*
X92710000Y-49662000D01*
X97409000Y-49662000D02*
X97409000Y-48138000D01*
X97536000Y-48138000D02*
X97536000Y-49662000D01*
X97663000Y-49662000D02*
X97663000Y-48138000D01*
X97282000Y-48138000D02*
X97282000Y-49662000D01*
X97155000Y-49662000D02*
X97155000Y-48138000D01*
X97028000Y-49662000D02*
X97028000Y-48138000D01*
X92710000Y-30662000D02*
X97790000Y-30662000D01*
X97790000Y-30662000D02*
X97790000Y-29138000D01*
X97790000Y-29138000D02*
X92710000Y-29138000D01*
X92710000Y-29138000D02*
X92710000Y-30662000D01*
X97409000Y-30662000D02*
X97409000Y-29138000D01*
X97536000Y-29138000D02*
X97536000Y-30662000D01*
X97663000Y-30662000D02*
X97663000Y-29138000D01*
X97282000Y-29138000D02*
X97282000Y-30662000D01*
X97155000Y-30662000D02*
X97155000Y-29138000D01*
X97028000Y-30662000D02*
X97028000Y-29138000D01*
X92710000Y-11662000D02*
X97790000Y-11662000D01*
X97790000Y-11662000D02*
X97790000Y-10138000D01*
X97790000Y-10138000D02*
X92710000Y-10138000D01*
X92710000Y-10138000D02*
X92710000Y-11662000D01*
X97409000Y-11662000D02*
X97409000Y-10138000D01*
X97536000Y-10138000D02*
X97536000Y-11662000D01*
X97663000Y-11662000D02*
X97663000Y-10138000D01*
X97282000Y-10138000D02*
X97282000Y-11662000D01*
X97155000Y-11662000D02*
X97155000Y-10138000D01*
X97028000Y-11662000D02*
X97028000Y-10138000D01*
X73660000Y-82762000D02*
X78740000Y-82762000D01*
X78740000Y-82762000D02*
X78740000Y-81238000D01*
X78740000Y-81238000D02*
X73660000Y-81238000D01*
X73660000Y-81238000D02*
X73660000Y-82762000D01*
X78359000Y-82762000D02*
X78359000Y-81238000D01*
X78486000Y-81238000D02*
X78486000Y-82762000D01*
X78613000Y-82762000D02*
X78613000Y-81238000D01*
X78232000Y-81238000D02*
X78232000Y-82762000D01*
X78105000Y-82762000D02*
X78105000Y-81238000D01*
X77978000Y-82762000D02*
X77978000Y-81238000D01*
X73660000Y-63662000D02*
X78740000Y-63662000D01*
X78740000Y-63662000D02*
X78740000Y-62138000D01*
X78740000Y-62138000D02*
X73660000Y-62138000D01*
X73660000Y-62138000D02*
X73660000Y-63662000D01*
X78359000Y-63662000D02*
X78359000Y-62138000D01*
X78486000Y-62138000D02*
X78486000Y-63662000D01*
X78613000Y-63662000D02*
X78613000Y-62138000D01*
X78232000Y-62138000D02*
X78232000Y-63662000D01*
X78105000Y-63662000D02*
X78105000Y-62138000D01*
X77978000Y-63662000D02*
X77978000Y-62138000D01*
X73660000Y-44662000D02*
X78740000Y-44662000D01*
X78740000Y-44662000D02*
X78740000Y-43138000D01*
X78740000Y-43138000D02*
X73660000Y-43138000D01*
X73660000Y-43138000D02*
X73660000Y-44662000D01*
X78359000Y-44662000D02*
X78359000Y-43138000D01*
X78486000Y-43138000D02*
X78486000Y-44662000D01*
X78613000Y-44662000D02*
X78613000Y-43138000D01*
X78232000Y-43138000D02*
X78232000Y-44662000D01*
X78105000Y-44662000D02*
X78105000Y-43138000D01*
X77978000Y-44662000D02*
X77978000Y-43138000D01*
X73660000Y-25662000D02*
X78740000Y-25662000D01*
X78740000Y-25662000D02*
X78740000Y-24138000D01*
X78740000Y-24138000D02*
X73660000Y-24138000D01*
X73660000Y-24138000D02*
X73660000Y-25662000D01*
X78359000Y-25662000D02*
X78359000Y-24138000D01*
X78486000Y-24138000D02*
X78486000Y-25662000D01*
X78613000Y-25662000D02*
X78613000Y-24138000D01*
X78232000Y-24138000D02*
X78232000Y-25662000D01*
X78105000Y-25662000D02*
X78105000Y-24138000D01*
X77978000Y-25662000D02*
X77978000Y-24138000D01*
X73660000Y-6662000D02*
X78740000Y-6662000D01*
X78740000Y-6662000D02*
X78740000Y-5138000D01*
X78740000Y-5138000D02*
X73660000Y-5138000D01*
X73660000Y-5138000D02*
X73660000Y-6662000D01*
X78359000Y-6662000D02*
X78359000Y-5138000D01*
X78486000Y-5138000D02*
X78486000Y-6662000D01*
X78613000Y-6662000D02*
X78613000Y-5138000D01*
X78232000Y-5138000D02*
X78232000Y-6662000D01*
X78105000Y-6662000D02*
X78105000Y-5138000D01*
X77978000Y-6662000D02*
X77978000Y-5138000D01*
X54610000Y-76762000D02*
X59690000Y-76762000D01*
X59690000Y-76762000D02*
X59690000Y-75238000D01*
X59690000Y-75238000D02*
X54610000Y-75238000D01*
X54610000Y-75238000D02*
X54610000Y-76762000D01*
X59309000Y-76762000D02*
X59309000Y-75238000D01*
X59436000Y-75238000D02*
X59436000Y-76762000D01*
X59563000Y-76762000D02*
X59563000Y-75238000D01*
X59182000Y-75238000D02*
X59182000Y-76762000D01*
X59055000Y-76762000D02*
X59055000Y-75238000D01*
X58928000Y-76762000D02*
X58928000Y-75238000D01*
X54610000Y-57662000D02*
X59690000Y-57662000D01*
X59690000Y-57662000D02*
X59690000Y-56138000D01*
X59690000Y-56138000D02*
X54610000Y-56138000D01*
X54610000Y-56138000D02*
X54610000Y-57662000D01*
X59309000Y-57662000D02*
X59309000Y-56138000D01*
X59436000Y-56138000D02*
X59436000Y-57662000D01*
X59563000Y-57662000D02*
X59563000Y-56138000D01*
X59182000Y-56138000D02*
X59182000Y-57662000D01*
X59055000Y-57662000D02*
X59055000Y-56138000D01*
X58928000Y-57662000D02*
X58928000Y-56138000D01*
X54610000Y-38662000D02*
X59690000Y-38662000D01*
X59690000Y-38662000D02*
X59690000Y-37138000D01*
X59690000Y-37138000D02*
X54610000Y-37138000D01*
X54610000Y-37138000D02*
X54610000Y-38662000D01*
X59309000Y-38662000D02*
X59309000Y-37138000D01*
X59436000Y-37138000D02*
X59436000Y-38662000D01*
X59563000Y-38662000D02*
X59563000Y-37138000D01*
X59182000Y-37138000D02*
X59182000Y-38662000D01*
X59055000Y-38662000D02*
X59055000Y-37138000D01*
X58928000Y-38662000D02*
X58928000Y-37138000D01*
X54610000Y-19662000D02*
X59690000Y-19662000D01*
X59690000Y-19662000D02*
X59690000Y-18138000D01*
X59690000Y-18138000D02*
X54610000Y-18138000D01*
X54610000Y-18138000D02*
X54610000Y-19662000D01*
X59309000Y-19662000D02*
X59309000Y-18138000D01*
X59436000Y-18138000D02*
X59436000Y-19662000D01*
X59563000Y-19662000D02*
X59563000Y-18138000D01*
X59182000Y-18138000D02*
X59182000Y-19662000D01*
X59055000Y-19662000D02*
X59055000Y-18138000D01*
X58928000Y-19662000D02*
X58928000Y-18138000D01*
X54610000Y-662000D02*
X59690000Y-662000D01*
X59690000Y-662000D02*
X59690000Y862000D01*
X59690000Y862000D02*
X54610000Y862000D01*
X54610000Y862000D02*
X54610000Y-662000D01*
X59309000Y-662000D02*
X59309000Y862000D01*
X59436000Y862000D02*
X59436000Y-662000D01*
X59563000Y-662000D02*
X59563000Y862000D01*
X59182000Y862000D02*
X59182000Y-662000D01*
X59055000Y-662000D02*
X59055000Y862000D01*
X58928000Y-662000D02*
X58928000Y862000D01*
X35560000Y-81762000D02*
X40640000Y-81762000D01*
X40640000Y-81762000D02*
X40640000Y-80238000D01*
X40640000Y-80238000D02*
X35560000Y-80238000D01*
X35560000Y-80238000D02*
X35560000Y-81762000D01*
X40259000Y-81762000D02*
X40259000Y-80238000D01*
X40386000Y-80238000D02*
X40386000Y-81762000D01*
X40513000Y-81762000D02*
X40513000Y-80238000D01*
X40132000Y-80238000D02*
X40132000Y-81762000D01*
X40005000Y-81762000D02*
X40005000Y-80238000D01*
X39878000Y-81762000D02*
X39878000Y-80238000D01*
X35560000Y-62662000D02*
X40640000Y-62662000D01*
X40640000Y-62662000D02*
X40640000Y-61138000D01*
X40640000Y-61138000D02*
X35560000Y-61138000D01*
X35560000Y-61138000D02*
X35560000Y-62662000D01*
X40259000Y-62662000D02*
X40259000Y-61138000D01*
X40386000Y-61138000D02*
X40386000Y-62662000D01*
X40513000Y-62662000D02*
X40513000Y-61138000D01*
X40132000Y-61138000D02*
X40132000Y-62662000D01*
X40005000Y-62662000D02*
X40005000Y-61138000D01*
X39878000Y-62662000D02*
X39878000Y-61138000D01*
X35560000Y-43662000D02*
X40640000Y-43662000D01*
X40640000Y-43662000D02*
X40640000Y-42138000D01*
X40640000Y-42138000D02*
X35560000Y-42138000D01*
X35560000Y-42138000D02*
X35560000Y-43662000D01*
X40259000Y-43662000D02*
X40259000Y-42138000D01*
X40386000Y-42138000D02*
X40386000Y-43662000D01*
X40513000Y-43662000D02*
X40513000Y-42138000D01*
X40132000Y-42138000D02*
X40132000Y-43662000D01*
X40005000Y-43662000D02*
X40005000Y-42138000D01*
X39878000Y-43662000D02*
X39878000Y-42138000D01*
X35560000Y-24662000D02*
X40640000Y-24662000D01*
X40640000Y-24662000D02*
X40640000Y-23138000D01*
X40640000Y-23138000D02*
X35560000Y-23138000D01*
X35560000Y-23138000D02*
X35560000Y-24662000D01*
X40259000Y-24662000D02*
X40259000Y-23138000D01*
X40386000Y-23138000D02*
X40386000Y-24662000D01*
X40513000Y-24662000D02*
X40513000Y-23138000D01*
X40132000Y-23138000D02*
X40132000Y-24662000D01*
X40005000Y-24662000D02*
X40005000Y-23138000D01*
X39878000Y-24662000D02*
X39878000Y-23138000D01*
X35560000Y-5662000D02*
X40640000Y-5662000D01*
X40640000Y-5662000D02*
X40640000Y-4138000D01*
X40640000Y-4138000D02*
X35560000Y-4138000D01*
X35560000Y-4138000D02*
X35560000Y-5662000D01*
X40259000Y-5662000D02*
X40259000Y-4138000D01*
X40386000Y-4138000D02*
X40386000Y-5662000D01*
X40513000Y-5662000D02*
X40513000Y-4138000D01*
X40132000Y-4138000D02*
X40132000Y-5662000D01*
X40005000Y-5662000D02*
X40005000Y-4138000D01*
X39878000Y-5662000D02*
X39878000Y-4138000D01*
X16510000Y-84762000D02*
X21590000Y-84762000D01*
X21590000Y-84762000D02*
X21590000Y-83238000D01*
X21590000Y-83238000D02*
X16510000Y-83238000D01*
X16510000Y-83238000D02*
X16510000Y-84762000D01*
X21209000Y-84762000D02*
X21209000Y-83238000D01*
X21336000Y-83238000D02*
X21336000Y-84762000D01*
X21463000Y-84762000D02*
X21463000Y-83238000D01*
X21082000Y-83238000D02*
X21082000Y-84762000D01*
X20955000Y-84762000D02*
X20955000Y-83238000D01*
X20828000Y-84762000D02*
X20828000Y-83238000D01*
X16510000Y-65662000D02*
X21590000Y-65662000D01*
X21590000Y-65662000D02*
X21590000Y-64138000D01*
X21590000Y-64138000D02*
X16510000Y-64138000D01*
X16510000Y-64138000D02*
X16510000Y-65662000D01*
X21209000Y-65662000D02*
X21209000Y-64138000D01*
X21336000Y-64138000D02*
X21336000Y-65662000D01*
X21463000Y-65662000D02*
X21463000Y-64138000D01*
X21082000Y-64138000D02*
X21082000Y-65662000D01*
X20955000Y-65662000D02*
X20955000Y-64138000D01*
X20828000Y-65662000D02*
X20828000Y-64138000D01*
X16510000Y-46662000D02*
X21590000Y-46662000D01*
X21590000Y-46662000D02*
X21590000Y-45138000D01*
X21590000Y-45138000D02*
X16510000Y-45138000D01*
X16510000Y-45138000D02*
X16510000Y-46662000D01*
X21209000Y-46662000D02*
X21209000Y-45138000D01*
X21336000Y-45138000D02*
X21336000Y-46662000D01*
X21463000Y-46662000D02*
X21463000Y-45138000D01*
X21082000Y-45138000D02*
X21082000Y-46662000D01*
X20955000Y-46662000D02*
X20955000Y-45138000D01*
X20828000Y-46662000D02*
X20828000Y-45138000D01*
X16510000Y-27662000D02*
X21590000Y-27662000D01*
X21590000Y-27662000D02*
X21590000Y-26138000D01*
X21590000Y-26138000D02*
X16510000Y-26138000D01*
X16510000Y-26138000D02*
X16510000Y-27662000D01*
X21209000Y-27662000D02*
X21209000Y-26138000D01*
X21336000Y-26138000D02*
X21336000Y-27662000D01*
X21463000Y-27662000D02*
X21463000Y-26138000D01*
X21082000Y-26138000D02*
X21082000Y-27662000D01*
X20955000Y-27662000D02*
X20955000Y-26138000D01*
X20828000Y-27662000D02*
X20828000Y-26138000D01*
X16510000Y-8662000D02*
X21590000Y-8662000D01*
X21590000Y-8662000D02*
X21590000Y-7138000D01*
X21590000Y-7138000D02*
X16510000Y-7138000D01*
X16510000Y-7138000D02*
X16510000Y-8662000D01*
X21209000Y-8662000D02*
X21209000Y-7138000D01*
X21336000Y-7138000D02*
X21336000Y-8662000D01*
X21463000Y-8662000D02*
X21463000Y-7138000D01*
X21082000Y-7138000D02*
X21082000Y-8662000D01*
X20955000Y-8662000D02*
X20955000Y-7138000D01*
X20828000Y-8662000D02*
X20828000Y-7138000D01*
X-2540000Y-84762000D02*
X2540000Y-84762000D01*
X2540000Y-84762000D02*
X2540000Y-83238000D01*
X2540000Y-83238000D02*
X-2540000Y-83238000D01*
X-2540000Y-83238000D02*
X-2540000Y-84762000D01*
X2159000Y-84762000D02*
X2159000Y-83238000D01*
X2286000Y-83238000D02*
X2286000Y-84762000D01*
X2413000Y-84762000D02*
X2413000Y-83238000D01*
X2032000Y-83238000D02*
X2032000Y-84762000D01*
X1905000Y-84762000D02*
X1905000Y-83238000D01*
X1778000Y-84762000D02*
X1778000Y-83238000D01*
X-2540000Y-65712000D02*
X2540000Y-65712000D01*
X2540000Y-65712000D02*
X2540000Y-64188000D01*
X2540000Y-64188000D02*
X-2540000Y-64188000D01*
X-2540000Y-64188000D02*
X-2540000Y-65712000D01*
X2159000Y-65712000D02*
X2159000Y-64188000D01*
X2286000Y-64188000D02*
X2286000Y-65712000D01*
X2413000Y-65712000D02*
X2413000Y-64188000D01*
X2032000Y-64188000D02*
X2032000Y-65712000D01*
X1905000Y-65712000D02*
X1905000Y-64188000D01*
X1778000Y-65712000D02*
X1778000Y-64188000D01*
X-2540000Y-46662000D02*
X2540000Y-46662000D01*
X2540000Y-46662000D02*
X2540000Y-45138000D01*
X2540000Y-45138000D02*
X-2540000Y-45138000D01*
X-2540000Y-45138000D02*
X-2540000Y-46662000D01*
X2159000Y-46662000D02*
X2159000Y-45138000D01*
X2286000Y-45138000D02*
X2286000Y-46662000D01*
X2413000Y-46662000D02*
X2413000Y-45138000D01*
X2032000Y-45138000D02*
X2032000Y-46662000D01*
X1905000Y-46662000D02*
X1905000Y-45138000D01*
X1778000Y-46662000D02*
X1778000Y-45138000D01*
X-2540000Y-27662000D02*
X2540000Y-27662000D01*
X2540000Y-27662000D02*
X2540000Y-26138000D01*
X2540000Y-26138000D02*
X-2540000Y-26138000D01*
X-2540000Y-26138000D02*
X-2540000Y-27662000D01*
X2159000Y-27662000D02*
X2159000Y-26138000D01*
X2286000Y-26138000D02*
X2286000Y-27662000D01*
X2413000Y-27662000D02*
X2413000Y-26138000D01*
X2032000Y-26138000D02*
X2032000Y-27662000D01*
X1905000Y-27662000D02*
X1905000Y-26138000D01*
X1778000Y-27662000D02*
X1778000Y-26138000D01*
X-2540000Y-8662000D02*
X2540000Y-8662000D01*
X2540000Y-8662000D02*
X2540000Y-7138000D01*
X2540000Y-7138000D02*
X-2540000Y-7138000D01*
X-2540000Y-7138000D02*
X-2540000Y-8662000D01*
X2159000Y-8662000D02*
X2159000Y-7138000D01*
X2286000Y-7138000D02*
X2286000Y-8662000D01*
X2413000Y-8662000D02*
X2413000Y-7138000D01*
X2032000Y-7138000D02*
X2032000Y-8662000D01*
X1905000Y-8662000D02*
X1905000Y-7138000D01*
X1778000Y-8662000D02*
X1778000Y-7138000D01*
X108023904Y-1058095D02*
X107642952Y-791428D01*
X108023904Y-600952D02*
X107223904Y-600952D01*
X107223904Y-905714D01*
X107262000Y-981904D01*
X107300095Y-1020000D01*
X107376285Y-1058095D01*
X107490571Y-1058095D01*
X107566761Y-1020000D01*
X107604857Y-981904D01*
X107642952Y-905714D01*
X107642952Y-600952D01*
X107604857Y-1400952D02*
X107604857Y-1667619D01*
X108023904Y-1781904D02*
X108023904Y-1400952D01*
X107223904Y-1400952D01*
X107223904Y-1781904D01*
X107985809Y-2086666D02*
X108023904Y-2200952D01*
X108023904Y-2391428D01*
X107985809Y-2467619D01*
X107947714Y-2505714D01*
X107871523Y-2543809D01*
X107795333Y-2543809D01*
X107719142Y-2505714D01*
X107681047Y-2467619D01*
X107642952Y-2391428D01*
X107604857Y-2239047D01*
X107566761Y-2162857D01*
X107528666Y-2124761D01*
X107452476Y-2086666D01*
X107376285Y-2086666D01*
X107300095Y-2124761D01*
X107262000Y-2162857D01*
X107223904Y-2239047D01*
X107223904Y-2429523D01*
X107262000Y-2543809D01*
X107604857Y-2886666D02*
X107604857Y-3153333D01*
X108023904Y-3267619D02*
X108023904Y-2886666D01*
X107223904Y-2886666D01*
X107223904Y-3267619D01*
X107223904Y-3496190D02*
X107223904Y-3953333D01*
X108023904Y-3724761D02*
X107223904Y-3724761D01*
X105289904Y-73028571D02*
X104489904Y-73028571D01*
X104489904Y-73219047D01*
X104528000Y-73333333D01*
X104604190Y-73409523D01*
X104680380Y-73447619D01*
X104832761Y-73485714D01*
X104947047Y-73485714D01*
X105099428Y-73447619D01*
X105175619Y-73409523D01*
X105251809Y-73333333D01*
X105289904Y-73219047D01*
X105289904Y-73028571D01*
X104489904Y-73752380D02*
X104489904Y-74247619D01*
X104794666Y-73980952D01*
X104794666Y-74095238D01*
X104832761Y-74171428D01*
X104870857Y-74209523D01*
X104947047Y-74247619D01*
X105137523Y-74247619D01*
X105213714Y-74209523D01*
X105251809Y-74171428D01*
X105289904Y-74095238D01*
X105289904Y-73866666D01*
X105251809Y-73790476D01*
X105213714Y-73752380D01*
X104489904Y-74742857D02*
X104489904Y-74819047D01*
X104528000Y-74895238D01*
X104566095Y-74933333D01*
X104642285Y-74971428D01*
X104794666Y-75009523D01*
X104985142Y-75009523D01*
X105137523Y-74971428D01*
X105213714Y-74933333D01*
X105251809Y-74895238D01*
X105289904Y-74819047D01*
X105289904Y-74742857D01*
X105251809Y-74666666D01*
X105213714Y-74628571D01*
X105137523Y-74590476D01*
X104985142Y-74552380D01*
X104794666Y-74552380D01*
X104642285Y-74590476D01*
X104566095Y-74628571D01*
X104528000Y-74666666D01*
X104489904Y-74742857D01*
X99221428Y-88711904D02*
X99221428Y-87911904D01*
X99030952Y-87911904D01*
X98916666Y-87950000D01*
X98840476Y-88026190D01*
X98802380Y-88102380D01*
X98764285Y-88254761D01*
X98764285Y-88369047D01*
X98802380Y-88521428D01*
X98840476Y-88597619D01*
X98916666Y-88673809D01*
X99030952Y-88711904D01*
X99221428Y-88711904D01*
X98459523Y-87988095D02*
X98421428Y-87950000D01*
X98345238Y-87911904D01*
X98154761Y-87911904D01*
X98078571Y-87950000D01*
X98040476Y-87988095D01*
X98002380Y-88064285D01*
X98002380Y-88140476D01*
X98040476Y-88254761D01*
X98497619Y-88711904D01*
X98002380Y-88711904D01*
X97621428Y-88711904D02*
X97469047Y-88711904D01*
X97392857Y-88673809D01*
X97354761Y-88635714D01*
X97278571Y-88521428D01*
X97240476Y-88369047D01*
X97240476Y-88064285D01*
X97278571Y-87988095D01*
X97316666Y-87950000D01*
X97392857Y-87911904D01*
X97545238Y-87911904D01*
X97621428Y-87950000D01*
X97659523Y-87988095D01*
X97697619Y-88064285D01*
X97697619Y-88254761D01*
X97659523Y-88330952D01*
X97621428Y-88369047D01*
X97545238Y-88407142D01*
X97392857Y-88407142D01*
X97316666Y-88369047D01*
X97278571Y-88330952D01*
X97240476Y-88254761D01*
X99221428Y-69611904D02*
X99221428Y-68811904D01*
X99030952Y-68811904D01*
X98916666Y-68850000D01*
X98840476Y-68926190D01*
X98802380Y-69002380D01*
X98764285Y-69154761D01*
X98764285Y-69269047D01*
X98802380Y-69421428D01*
X98840476Y-69497619D01*
X98916666Y-69573809D01*
X99030952Y-69611904D01*
X99221428Y-69611904D01*
X98459523Y-68888095D02*
X98421428Y-68850000D01*
X98345238Y-68811904D01*
X98154761Y-68811904D01*
X98078571Y-68850000D01*
X98040476Y-68888095D01*
X98002380Y-68964285D01*
X98002380Y-69040476D01*
X98040476Y-69154761D01*
X98497619Y-69611904D01*
X98002380Y-69611904D01*
X97545238Y-69154761D02*
X97621428Y-69116666D01*
X97659523Y-69078571D01*
X97697619Y-69002380D01*
X97697619Y-68964285D01*
X97659523Y-68888095D01*
X97621428Y-68850000D01*
X97545238Y-68811904D01*
X97392857Y-68811904D01*
X97316666Y-68850000D01*
X97278571Y-68888095D01*
X97240476Y-68964285D01*
X97240476Y-69002380D01*
X97278571Y-69078571D01*
X97316666Y-69116666D01*
X97392857Y-69154761D01*
X97545238Y-69154761D01*
X97621428Y-69192857D01*
X97659523Y-69230952D01*
X97697619Y-69307142D01*
X97697619Y-69459523D01*
X97659523Y-69535714D01*
X97621428Y-69573809D01*
X97545238Y-69611904D01*
X97392857Y-69611904D01*
X97316666Y-69573809D01*
X97278571Y-69535714D01*
X97240476Y-69459523D01*
X97240476Y-69307142D01*
X97278571Y-69230952D01*
X97316666Y-69192857D01*
X97392857Y-69154761D01*
X99221428Y-50611904D02*
X99221428Y-49811904D01*
X99030952Y-49811904D01*
X98916666Y-49850000D01*
X98840476Y-49926190D01*
X98802380Y-50002380D01*
X98764285Y-50154761D01*
X98764285Y-50269047D01*
X98802380Y-50421428D01*
X98840476Y-50497619D01*
X98916666Y-50573809D01*
X99030952Y-50611904D01*
X99221428Y-50611904D01*
X98459523Y-49888095D02*
X98421428Y-49850000D01*
X98345238Y-49811904D01*
X98154761Y-49811904D01*
X98078571Y-49850000D01*
X98040476Y-49888095D01*
X98002380Y-49964285D01*
X98002380Y-50040476D01*
X98040476Y-50154761D01*
X98497619Y-50611904D01*
X98002380Y-50611904D01*
X97735714Y-49811904D02*
X97202380Y-49811904D01*
X97545238Y-50611904D01*
X99221428Y-31611904D02*
X99221428Y-30811904D01*
X99030952Y-30811904D01*
X98916666Y-30850000D01*
X98840476Y-30926190D01*
X98802380Y-31002380D01*
X98764285Y-31154761D01*
X98764285Y-31269047D01*
X98802380Y-31421428D01*
X98840476Y-31497619D01*
X98916666Y-31573809D01*
X99030952Y-31611904D01*
X99221428Y-31611904D01*
X98459523Y-30888095D02*
X98421428Y-30850000D01*
X98345238Y-30811904D01*
X98154761Y-30811904D01*
X98078571Y-30850000D01*
X98040476Y-30888095D01*
X98002380Y-30964285D01*
X98002380Y-31040476D01*
X98040476Y-31154761D01*
X98497619Y-31611904D01*
X98002380Y-31611904D01*
X97316666Y-30811904D02*
X97469047Y-30811904D01*
X97545238Y-30850000D01*
X97583333Y-30888095D01*
X97659523Y-31002380D01*
X97697619Y-31154761D01*
X97697619Y-31459523D01*
X97659523Y-31535714D01*
X97621428Y-31573809D01*
X97545238Y-31611904D01*
X97392857Y-31611904D01*
X97316666Y-31573809D01*
X97278571Y-31535714D01*
X97240476Y-31459523D01*
X97240476Y-31269047D01*
X97278571Y-31192857D01*
X97316666Y-31154761D01*
X97392857Y-31116666D01*
X97545238Y-31116666D01*
X97621428Y-31154761D01*
X97659523Y-31192857D01*
X97697619Y-31269047D01*
X99221428Y-12611904D02*
X99221428Y-11811904D01*
X99030952Y-11811904D01*
X98916666Y-11850000D01*
X98840476Y-11926190D01*
X98802380Y-12002380D01*
X98764285Y-12154761D01*
X98764285Y-12269047D01*
X98802380Y-12421428D01*
X98840476Y-12497619D01*
X98916666Y-12573809D01*
X99030952Y-12611904D01*
X99221428Y-12611904D01*
X98459523Y-11888095D02*
X98421428Y-11850000D01*
X98345238Y-11811904D01*
X98154761Y-11811904D01*
X98078571Y-11850000D01*
X98040476Y-11888095D01*
X98002380Y-11964285D01*
X98002380Y-12040476D01*
X98040476Y-12154761D01*
X98497619Y-12611904D01*
X98002380Y-12611904D01*
X97278571Y-11811904D02*
X97659523Y-11811904D01*
X97697619Y-12192857D01*
X97659523Y-12154761D01*
X97583333Y-12116666D01*
X97392857Y-12116666D01*
X97316666Y-12154761D01*
X97278571Y-12192857D01*
X97240476Y-12269047D01*
X97240476Y-12459523D01*
X97278571Y-12535714D01*
X97316666Y-12573809D01*
X97392857Y-12611904D01*
X97583333Y-12611904D01*
X97659523Y-12573809D01*
X97697619Y-12535714D01*
X80171428Y-83711904D02*
X80171428Y-82911904D01*
X79980952Y-82911904D01*
X79866666Y-82950000D01*
X79790476Y-83026190D01*
X79752380Y-83102380D01*
X79714285Y-83254761D01*
X79714285Y-83369047D01*
X79752380Y-83521428D01*
X79790476Y-83597619D01*
X79866666Y-83673809D01*
X79980952Y-83711904D01*
X80171428Y-83711904D01*
X79409523Y-82988095D02*
X79371428Y-82950000D01*
X79295238Y-82911904D01*
X79104761Y-82911904D01*
X79028571Y-82950000D01*
X78990476Y-82988095D01*
X78952380Y-83064285D01*
X78952380Y-83140476D01*
X78990476Y-83254761D01*
X79447619Y-83711904D01*
X78952380Y-83711904D01*
X78266666Y-83178571D02*
X78266666Y-83711904D01*
X78457142Y-82873809D02*
X78647619Y-83445238D01*
X78152380Y-83445238D01*
X80171428Y-64611904D02*
X80171428Y-63811904D01*
X79980952Y-63811904D01*
X79866666Y-63850000D01*
X79790476Y-63926190D01*
X79752380Y-64002380D01*
X79714285Y-64154761D01*
X79714285Y-64269047D01*
X79752380Y-64421428D01*
X79790476Y-64497619D01*
X79866666Y-64573809D01*
X79980952Y-64611904D01*
X80171428Y-64611904D01*
X79409523Y-63888095D02*
X79371428Y-63850000D01*
X79295238Y-63811904D01*
X79104761Y-63811904D01*
X79028571Y-63850000D01*
X78990476Y-63888095D01*
X78952380Y-63964285D01*
X78952380Y-64040476D01*
X78990476Y-64154761D01*
X79447619Y-64611904D01*
X78952380Y-64611904D01*
X78685714Y-63811904D02*
X78190476Y-63811904D01*
X78457142Y-64116666D01*
X78342857Y-64116666D01*
X78266666Y-64154761D01*
X78228571Y-64192857D01*
X78190476Y-64269047D01*
X78190476Y-64459523D01*
X78228571Y-64535714D01*
X78266666Y-64573809D01*
X78342857Y-64611904D01*
X78571428Y-64611904D01*
X78647619Y-64573809D01*
X78685714Y-64535714D01*
X80171428Y-45611904D02*
X80171428Y-44811904D01*
X79980952Y-44811904D01*
X79866666Y-44850000D01*
X79790476Y-44926190D01*
X79752380Y-45002380D01*
X79714285Y-45154761D01*
X79714285Y-45269047D01*
X79752380Y-45421428D01*
X79790476Y-45497619D01*
X79866666Y-45573809D01*
X79980952Y-45611904D01*
X80171428Y-45611904D01*
X79409523Y-44888095D02*
X79371428Y-44850000D01*
X79295238Y-44811904D01*
X79104761Y-44811904D01*
X79028571Y-44850000D01*
X78990476Y-44888095D01*
X78952380Y-44964285D01*
X78952380Y-45040476D01*
X78990476Y-45154761D01*
X79447619Y-45611904D01*
X78952380Y-45611904D01*
X78647619Y-44888095D02*
X78609523Y-44850000D01*
X78533333Y-44811904D01*
X78342857Y-44811904D01*
X78266666Y-44850000D01*
X78228571Y-44888095D01*
X78190476Y-44964285D01*
X78190476Y-45040476D01*
X78228571Y-45154761D01*
X78685714Y-45611904D01*
X78190476Y-45611904D01*
X80171428Y-26611904D02*
X80171428Y-25811904D01*
X79980952Y-25811904D01*
X79866666Y-25850000D01*
X79790476Y-25926190D01*
X79752380Y-26002380D01*
X79714285Y-26154761D01*
X79714285Y-26269047D01*
X79752380Y-26421428D01*
X79790476Y-26497619D01*
X79866666Y-26573809D01*
X79980952Y-26611904D01*
X80171428Y-26611904D01*
X79409523Y-25888095D02*
X79371428Y-25850000D01*
X79295238Y-25811904D01*
X79104761Y-25811904D01*
X79028571Y-25850000D01*
X78990476Y-25888095D01*
X78952380Y-25964285D01*
X78952380Y-26040476D01*
X78990476Y-26154761D01*
X79447619Y-26611904D01*
X78952380Y-26611904D01*
X78190476Y-26611904D02*
X78647619Y-26611904D01*
X78419047Y-26611904D02*
X78419047Y-25811904D01*
X78495238Y-25926190D01*
X78571428Y-26002380D01*
X78647619Y-26040476D01*
X80171428Y-7611904D02*
X80171428Y-6811904D01*
X79980952Y-6811904D01*
X79866666Y-6850000D01*
X79790476Y-6926190D01*
X79752380Y-7002380D01*
X79714285Y-7154761D01*
X79714285Y-7269047D01*
X79752380Y-7421428D01*
X79790476Y-7497619D01*
X79866666Y-7573809D01*
X79980952Y-7611904D01*
X80171428Y-7611904D01*
X79409523Y-6888095D02*
X79371428Y-6850000D01*
X79295238Y-6811904D01*
X79104761Y-6811904D01*
X79028571Y-6850000D01*
X78990476Y-6888095D01*
X78952380Y-6964285D01*
X78952380Y-7040476D01*
X78990476Y-7154761D01*
X79447619Y-7611904D01*
X78952380Y-7611904D01*
X78457142Y-6811904D02*
X78380952Y-6811904D01*
X78304761Y-6850000D01*
X78266666Y-6888095D01*
X78228571Y-6964285D01*
X78190476Y-7116666D01*
X78190476Y-7307142D01*
X78228571Y-7459523D01*
X78266666Y-7535714D01*
X78304761Y-7573809D01*
X78380952Y-7611904D01*
X78457142Y-7611904D01*
X78533333Y-7573809D01*
X78571428Y-7535714D01*
X78609523Y-7459523D01*
X78647619Y-7307142D01*
X78647619Y-7116666D01*
X78609523Y-6964285D01*
X78571428Y-6888095D01*
X78533333Y-6850000D01*
X78457142Y-6811904D01*
X61121428Y-77711904D02*
X61121428Y-76911904D01*
X60930952Y-76911904D01*
X60816666Y-76950000D01*
X60740476Y-77026190D01*
X60702380Y-77102380D01*
X60664285Y-77254761D01*
X60664285Y-77369047D01*
X60702380Y-77521428D01*
X60740476Y-77597619D01*
X60816666Y-77673809D01*
X60930952Y-77711904D01*
X61121428Y-77711904D01*
X59902380Y-77711904D02*
X60359523Y-77711904D01*
X60130952Y-77711904D02*
X60130952Y-76911904D01*
X60207142Y-77026190D01*
X60283333Y-77102380D01*
X60359523Y-77140476D01*
X59521428Y-77711904D02*
X59369047Y-77711904D01*
X59292857Y-77673809D01*
X59254761Y-77635714D01*
X59178571Y-77521428D01*
X59140476Y-77369047D01*
X59140476Y-77064285D01*
X59178571Y-76988095D01*
X59216666Y-76950000D01*
X59292857Y-76911904D01*
X59445238Y-76911904D01*
X59521428Y-76950000D01*
X59559523Y-76988095D01*
X59597619Y-77064285D01*
X59597619Y-77254761D01*
X59559523Y-77330952D01*
X59521428Y-77369047D01*
X59445238Y-77407142D01*
X59292857Y-77407142D01*
X59216666Y-77369047D01*
X59178571Y-77330952D01*
X59140476Y-77254761D01*
X61121428Y-58611904D02*
X61121428Y-57811904D01*
X60930952Y-57811904D01*
X60816666Y-57850000D01*
X60740476Y-57926190D01*
X60702380Y-58002380D01*
X60664285Y-58154761D01*
X60664285Y-58269047D01*
X60702380Y-58421428D01*
X60740476Y-58497619D01*
X60816666Y-58573809D01*
X60930952Y-58611904D01*
X61121428Y-58611904D01*
X59902380Y-58611904D02*
X60359523Y-58611904D01*
X60130952Y-58611904D02*
X60130952Y-57811904D01*
X60207142Y-57926190D01*
X60283333Y-58002380D01*
X60359523Y-58040476D01*
X59445238Y-58154761D02*
X59521428Y-58116666D01*
X59559523Y-58078571D01*
X59597619Y-58002380D01*
X59597619Y-57964285D01*
X59559523Y-57888095D01*
X59521428Y-57850000D01*
X59445238Y-57811904D01*
X59292857Y-57811904D01*
X59216666Y-57850000D01*
X59178571Y-57888095D01*
X59140476Y-57964285D01*
X59140476Y-58002380D01*
X59178571Y-58078571D01*
X59216666Y-58116666D01*
X59292857Y-58154761D01*
X59445238Y-58154761D01*
X59521428Y-58192857D01*
X59559523Y-58230952D01*
X59597619Y-58307142D01*
X59597619Y-58459523D01*
X59559523Y-58535714D01*
X59521428Y-58573809D01*
X59445238Y-58611904D01*
X59292857Y-58611904D01*
X59216666Y-58573809D01*
X59178571Y-58535714D01*
X59140476Y-58459523D01*
X59140476Y-58307142D01*
X59178571Y-58230952D01*
X59216666Y-58192857D01*
X59292857Y-58154761D01*
X61121428Y-39611904D02*
X61121428Y-38811904D01*
X60930952Y-38811904D01*
X60816666Y-38850000D01*
X60740476Y-38926190D01*
X60702380Y-39002380D01*
X60664285Y-39154761D01*
X60664285Y-39269047D01*
X60702380Y-39421428D01*
X60740476Y-39497619D01*
X60816666Y-39573809D01*
X60930952Y-39611904D01*
X61121428Y-39611904D01*
X59902380Y-39611904D02*
X60359523Y-39611904D01*
X60130952Y-39611904D02*
X60130952Y-38811904D01*
X60207142Y-38926190D01*
X60283333Y-39002380D01*
X60359523Y-39040476D01*
X59635714Y-38811904D02*
X59102380Y-38811904D01*
X59445238Y-39611904D01*
X61121428Y-20611904D02*
X61121428Y-19811904D01*
X60930952Y-19811904D01*
X60816666Y-19850000D01*
X60740476Y-19926190D01*
X60702380Y-20002380D01*
X60664285Y-20154761D01*
X60664285Y-20269047D01*
X60702380Y-20421428D01*
X60740476Y-20497619D01*
X60816666Y-20573809D01*
X60930952Y-20611904D01*
X61121428Y-20611904D01*
X59902380Y-20611904D02*
X60359523Y-20611904D01*
X60130952Y-20611904D02*
X60130952Y-19811904D01*
X60207142Y-19926190D01*
X60283333Y-20002380D01*
X60359523Y-20040476D01*
X59216666Y-19811904D02*
X59369047Y-19811904D01*
X59445238Y-19850000D01*
X59483333Y-19888095D01*
X59559523Y-20002380D01*
X59597619Y-20154761D01*
X59597619Y-20459523D01*
X59559523Y-20535714D01*
X59521428Y-20573809D01*
X59445238Y-20611904D01*
X59292857Y-20611904D01*
X59216666Y-20573809D01*
X59178571Y-20535714D01*
X59140476Y-20459523D01*
X59140476Y-20269047D01*
X59178571Y-20192857D01*
X59216666Y-20154761D01*
X59292857Y-20116666D01*
X59445238Y-20116666D01*
X59521428Y-20154761D01*
X59559523Y-20192857D01*
X59597619Y-20269047D01*
X61121428Y-1611904D02*
X61121428Y-811904D01*
X60930952Y-811904D01*
X60816666Y-850000D01*
X60740476Y-926190D01*
X60702380Y-1002380D01*
X60664285Y-1154761D01*
X60664285Y-1269047D01*
X60702380Y-1421428D01*
X60740476Y-1497619D01*
X60816666Y-1573809D01*
X60930952Y-1611904D01*
X61121428Y-1611904D01*
X59902380Y-1611904D02*
X60359523Y-1611904D01*
X60130952Y-1611904D02*
X60130952Y-811904D01*
X60207142Y-926190D01*
X60283333Y-1002380D01*
X60359523Y-1040476D01*
X59178571Y-811904D02*
X59559523Y-811904D01*
X59597619Y-1192857D01*
X59559523Y-1154761D01*
X59483333Y-1116666D01*
X59292857Y-1116666D01*
X59216666Y-1154761D01*
X59178571Y-1192857D01*
X59140476Y-1269047D01*
X59140476Y-1459523D01*
X59178571Y-1535714D01*
X59216666Y-1573809D01*
X59292857Y-1611904D01*
X59483333Y-1611904D01*
X59559523Y-1573809D01*
X59597619Y-1535714D01*
X42071428Y-82711904D02*
X42071428Y-81911904D01*
X41880952Y-81911904D01*
X41766666Y-81950000D01*
X41690476Y-82026190D01*
X41652380Y-82102380D01*
X41614285Y-82254761D01*
X41614285Y-82369047D01*
X41652380Y-82521428D01*
X41690476Y-82597619D01*
X41766666Y-82673809D01*
X41880952Y-82711904D01*
X42071428Y-82711904D01*
X40852380Y-82711904D02*
X41309523Y-82711904D01*
X41080952Y-82711904D02*
X41080952Y-81911904D01*
X41157142Y-82026190D01*
X41233333Y-82102380D01*
X41309523Y-82140476D01*
X40166666Y-82178571D02*
X40166666Y-82711904D01*
X40357142Y-81873809D02*
X40547619Y-82445238D01*
X40052380Y-82445238D01*
X42071428Y-63611904D02*
X42071428Y-62811904D01*
X41880952Y-62811904D01*
X41766666Y-62850000D01*
X41690476Y-62926190D01*
X41652380Y-63002380D01*
X41614285Y-63154761D01*
X41614285Y-63269047D01*
X41652380Y-63421428D01*
X41690476Y-63497619D01*
X41766666Y-63573809D01*
X41880952Y-63611904D01*
X42071428Y-63611904D01*
X40852380Y-63611904D02*
X41309523Y-63611904D01*
X41080952Y-63611904D02*
X41080952Y-62811904D01*
X41157142Y-62926190D01*
X41233333Y-63002380D01*
X41309523Y-63040476D01*
X40585714Y-62811904D02*
X40090476Y-62811904D01*
X40357142Y-63116666D01*
X40242857Y-63116666D01*
X40166666Y-63154761D01*
X40128571Y-63192857D01*
X40090476Y-63269047D01*
X40090476Y-63459523D01*
X40128571Y-63535714D01*
X40166666Y-63573809D01*
X40242857Y-63611904D01*
X40471428Y-63611904D01*
X40547619Y-63573809D01*
X40585714Y-63535714D01*
X42071428Y-44611904D02*
X42071428Y-43811904D01*
X41880952Y-43811904D01*
X41766666Y-43850000D01*
X41690476Y-43926190D01*
X41652380Y-44002380D01*
X41614285Y-44154761D01*
X41614285Y-44269047D01*
X41652380Y-44421428D01*
X41690476Y-44497619D01*
X41766666Y-44573809D01*
X41880952Y-44611904D01*
X42071428Y-44611904D01*
X40852380Y-44611904D02*
X41309523Y-44611904D01*
X41080952Y-44611904D02*
X41080952Y-43811904D01*
X41157142Y-43926190D01*
X41233333Y-44002380D01*
X41309523Y-44040476D01*
X40547619Y-43888095D02*
X40509523Y-43850000D01*
X40433333Y-43811904D01*
X40242857Y-43811904D01*
X40166666Y-43850000D01*
X40128571Y-43888095D01*
X40090476Y-43964285D01*
X40090476Y-44040476D01*
X40128571Y-44154761D01*
X40585714Y-44611904D01*
X40090476Y-44611904D01*
X42071428Y-25611904D02*
X42071428Y-24811904D01*
X41880952Y-24811904D01*
X41766666Y-24850000D01*
X41690476Y-24926190D01*
X41652380Y-25002380D01*
X41614285Y-25154761D01*
X41614285Y-25269047D01*
X41652380Y-25421428D01*
X41690476Y-25497619D01*
X41766666Y-25573809D01*
X41880952Y-25611904D01*
X42071428Y-25611904D01*
X40852380Y-25611904D02*
X41309523Y-25611904D01*
X41080952Y-25611904D02*
X41080952Y-24811904D01*
X41157142Y-24926190D01*
X41233333Y-25002380D01*
X41309523Y-25040476D01*
X40090476Y-25611904D02*
X40547619Y-25611904D01*
X40319047Y-25611904D02*
X40319047Y-24811904D01*
X40395238Y-24926190D01*
X40471428Y-25002380D01*
X40547619Y-25040476D01*
X42071428Y-6611904D02*
X42071428Y-5811904D01*
X41880952Y-5811904D01*
X41766666Y-5850000D01*
X41690476Y-5926190D01*
X41652380Y-6002380D01*
X41614285Y-6154761D01*
X41614285Y-6269047D01*
X41652380Y-6421428D01*
X41690476Y-6497619D01*
X41766666Y-6573809D01*
X41880952Y-6611904D01*
X42071428Y-6611904D01*
X40852380Y-6611904D02*
X41309523Y-6611904D01*
X41080952Y-6611904D02*
X41080952Y-5811904D01*
X41157142Y-5926190D01*
X41233333Y-6002380D01*
X41309523Y-6040476D01*
X40357142Y-5811904D02*
X40280952Y-5811904D01*
X40204761Y-5850000D01*
X40166666Y-5888095D01*
X40128571Y-5964285D01*
X40090476Y-6116666D01*
X40090476Y-6307142D01*
X40128571Y-6459523D01*
X40166666Y-6535714D01*
X40204761Y-6573809D01*
X40280952Y-6611904D01*
X40357142Y-6611904D01*
X40433333Y-6573809D01*
X40471428Y-6535714D01*
X40509523Y-6459523D01*
X40547619Y-6307142D01*
X40547619Y-6116666D01*
X40509523Y-5964285D01*
X40471428Y-5888095D01*
X40433333Y-5850000D01*
X40357142Y-5811904D01*
X22640476Y-85711904D02*
X22640476Y-84911904D01*
X22450000Y-84911904D01*
X22335714Y-84950000D01*
X22259523Y-85026190D01*
X22221428Y-85102380D01*
X22183333Y-85254761D01*
X22183333Y-85369047D01*
X22221428Y-85521428D01*
X22259523Y-85597619D01*
X22335714Y-85673809D01*
X22450000Y-85711904D01*
X22640476Y-85711904D01*
X21802380Y-85711904D02*
X21650000Y-85711904D01*
X21573809Y-85673809D01*
X21535714Y-85635714D01*
X21459523Y-85521428D01*
X21421428Y-85369047D01*
X21421428Y-85064285D01*
X21459523Y-84988095D01*
X21497619Y-84950000D01*
X21573809Y-84911904D01*
X21726190Y-84911904D01*
X21802380Y-84950000D01*
X21840476Y-84988095D01*
X21878571Y-85064285D01*
X21878571Y-85254761D01*
X21840476Y-85330952D01*
X21802380Y-85369047D01*
X21726190Y-85407142D01*
X21573809Y-85407142D01*
X21497619Y-85369047D01*
X21459523Y-85330952D01*
X21421428Y-85254761D01*
X22640476Y-66611904D02*
X22640476Y-65811904D01*
X22450000Y-65811904D01*
X22335714Y-65850000D01*
X22259523Y-65926190D01*
X22221428Y-66002380D01*
X22183333Y-66154761D01*
X22183333Y-66269047D01*
X22221428Y-66421428D01*
X22259523Y-66497619D01*
X22335714Y-66573809D01*
X22450000Y-66611904D01*
X22640476Y-66611904D01*
X21726190Y-66154761D02*
X21802380Y-66116666D01*
X21840476Y-66078571D01*
X21878571Y-66002380D01*
X21878571Y-65964285D01*
X21840476Y-65888095D01*
X21802380Y-65850000D01*
X21726190Y-65811904D01*
X21573809Y-65811904D01*
X21497619Y-65850000D01*
X21459523Y-65888095D01*
X21421428Y-65964285D01*
X21421428Y-66002380D01*
X21459523Y-66078571D01*
X21497619Y-66116666D01*
X21573809Y-66154761D01*
X21726190Y-66154761D01*
X21802380Y-66192857D01*
X21840476Y-66230952D01*
X21878571Y-66307142D01*
X21878571Y-66459523D01*
X21840476Y-66535714D01*
X21802380Y-66573809D01*
X21726190Y-66611904D01*
X21573809Y-66611904D01*
X21497619Y-66573809D01*
X21459523Y-66535714D01*
X21421428Y-66459523D01*
X21421428Y-66307142D01*
X21459523Y-66230952D01*
X21497619Y-66192857D01*
X21573809Y-66154761D01*
X22640476Y-47611904D02*
X22640476Y-46811904D01*
X22450000Y-46811904D01*
X22335714Y-46850000D01*
X22259523Y-46926190D01*
X22221428Y-47002380D01*
X22183333Y-47154761D01*
X22183333Y-47269047D01*
X22221428Y-47421428D01*
X22259523Y-47497619D01*
X22335714Y-47573809D01*
X22450000Y-47611904D01*
X22640476Y-47611904D01*
X21916666Y-46811904D02*
X21383333Y-46811904D01*
X21726190Y-47611904D01*
X22640476Y-28611904D02*
X22640476Y-27811904D01*
X22450000Y-27811904D01*
X22335714Y-27850000D01*
X22259523Y-27926190D01*
X22221428Y-28002380D01*
X22183333Y-28154761D01*
X22183333Y-28269047D01*
X22221428Y-28421428D01*
X22259523Y-28497619D01*
X22335714Y-28573809D01*
X22450000Y-28611904D01*
X22640476Y-28611904D01*
X21497619Y-27811904D02*
X21650000Y-27811904D01*
X21726190Y-27850000D01*
X21764285Y-27888095D01*
X21840476Y-28002380D01*
X21878571Y-28154761D01*
X21878571Y-28459523D01*
X21840476Y-28535714D01*
X21802380Y-28573809D01*
X21726190Y-28611904D01*
X21573809Y-28611904D01*
X21497619Y-28573809D01*
X21459523Y-28535714D01*
X21421428Y-28459523D01*
X21421428Y-28269047D01*
X21459523Y-28192857D01*
X21497619Y-28154761D01*
X21573809Y-28116666D01*
X21726190Y-28116666D01*
X21802380Y-28154761D01*
X21840476Y-28192857D01*
X21878571Y-28269047D01*
X22640476Y-9611904D02*
X22640476Y-8811904D01*
X22450000Y-8811904D01*
X22335714Y-8850000D01*
X22259523Y-8926190D01*
X22221428Y-9002380D01*
X22183333Y-9154761D01*
X22183333Y-9269047D01*
X22221428Y-9421428D01*
X22259523Y-9497619D01*
X22335714Y-9573809D01*
X22450000Y-9611904D01*
X22640476Y-9611904D01*
X21459523Y-8811904D02*
X21840476Y-8811904D01*
X21878571Y-9192857D01*
X21840476Y-9154761D01*
X21764285Y-9116666D01*
X21573809Y-9116666D01*
X21497619Y-9154761D01*
X21459523Y-9192857D01*
X21421428Y-9269047D01*
X21421428Y-9459523D01*
X21459523Y-9535714D01*
X21497619Y-9573809D01*
X21573809Y-9611904D01*
X21764285Y-9611904D01*
X21840476Y-9573809D01*
X21878571Y-9535714D01*
X3590476Y-85711904D02*
X3590476Y-84911904D01*
X3400000Y-84911904D01*
X3285714Y-84950000D01*
X3209523Y-85026190D01*
X3171428Y-85102380D01*
X3133333Y-85254761D01*
X3133333Y-85369047D01*
X3171428Y-85521428D01*
X3209523Y-85597619D01*
X3285714Y-85673809D01*
X3400000Y-85711904D01*
X3590476Y-85711904D01*
X2447619Y-85178571D02*
X2447619Y-85711904D01*
X2638095Y-84873809D02*
X2828571Y-85445238D01*
X2333333Y-85445238D01*
X3590476Y-66661904D02*
X3590476Y-65861904D01*
X3400000Y-65861904D01*
X3285714Y-65900000D01*
X3209523Y-65976190D01*
X3171428Y-66052380D01*
X3133333Y-66204761D01*
X3133333Y-66319047D01*
X3171428Y-66471428D01*
X3209523Y-66547619D01*
X3285714Y-66623809D01*
X3400000Y-66661904D01*
X3590476Y-66661904D01*
X2866666Y-65861904D02*
X2371428Y-65861904D01*
X2638095Y-66166666D01*
X2523809Y-66166666D01*
X2447619Y-66204761D01*
X2409523Y-66242857D01*
X2371428Y-66319047D01*
X2371428Y-66509523D01*
X2409523Y-66585714D01*
X2447619Y-66623809D01*
X2523809Y-66661904D01*
X2752380Y-66661904D01*
X2828571Y-66623809D01*
X2866666Y-66585714D01*
X3590476Y-47611904D02*
X3590476Y-46811904D01*
X3400000Y-46811904D01*
X3285714Y-46850000D01*
X3209523Y-46926190D01*
X3171428Y-47002380D01*
X3133333Y-47154761D01*
X3133333Y-47269047D01*
X3171428Y-47421428D01*
X3209523Y-47497619D01*
X3285714Y-47573809D01*
X3400000Y-47611904D01*
X3590476Y-47611904D01*
X2828571Y-46888095D02*
X2790476Y-46850000D01*
X2714285Y-46811904D01*
X2523809Y-46811904D01*
X2447619Y-46850000D01*
X2409523Y-46888095D01*
X2371428Y-46964285D01*
X2371428Y-47040476D01*
X2409523Y-47154761D01*
X2866666Y-47611904D01*
X2371428Y-47611904D01*
X3590476Y-28611904D02*
X3590476Y-27811904D01*
X3400000Y-27811904D01*
X3285714Y-27850000D01*
X3209523Y-27926190D01*
X3171428Y-28002380D01*
X3133333Y-28154761D01*
X3133333Y-28269047D01*
X3171428Y-28421428D01*
X3209523Y-28497619D01*
X3285714Y-28573809D01*
X3400000Y-28611904D01*
X3590476Y-28611904D01*
X2371428Y-28611904D02*
X2828571Y-28611904D01*
X2600000Y-28611904D02*
X2600000Y-27811904D01*
X2676190Y-27926190D01*
X2752380Y-28002380D01*
X2828571Y-28040476D01*
X3590476Y-9611904D02*
X3590476Y-8811904D01*
X3400000Y-8811904D01*
X3285714Y-8850000D01*
X3209523Y-8926190D01*
X3171428Y-9002380D01*
X3133333Y-9154761D01*
X3133333Y-9269047D01*
X3171428Y-9421428D01*
X3209523Y-9497619D01*
X3285714Y-9573809D01*
X3400000Y-9611904D01*
X3590476Y-9611904D01*
X2638095Y-8811904D02*
X2561904Y-8811904D01*
X2485714Y-8850000D01*
X2447619Y-8888095D01*
X2409523Y-8964285D01*
X2371428Y-9116666D01*
X2371428Y-9307142D01*
X2409523Y-9459523D01*
X2447619Y-9535714D01*
X2485714Y-9573809D01*
X2561904Y-9611904D01*
X2638095Y-9611904D01*
X2714285Y-9573809D01*
X2752380Y-9535714D01*
X2790476Y-9459523D01*
X2828571Y-9307142D01*
X2828571Y-9116666D01*
X2790476Y-8964285D01*
X2752380Y-8888095D01*
X2714285Y-8850000D01*
X2638095Y-8811904D01*
M02*
