M48
; DRILL file {KiCad (5.1.4)-1} date 6/26/2021 12:45:09 PM
; FORMAT={-:-/ absolute / metric / decimal}
; #@! TF.CreationDate,2021-06-26T12:45:09-04:00
; #@! TF.GenerationSoftware,Kicad,Pcbnew,(5.1.4)-1
; #@! TF.FileFunction,Plated,1,2,PTH
FMAT,2
METRIC
T1C1.000
T2C1.092
T3C1.200
T4C1.300
T5C2.200
%
G90
G05
T1
X14.1Y-72.5
X21.9Y-72.5
X14.15Y-38.5
X21.95Y-38.5
X68.1Y-36.5
X75.9Y-36.5
X50.1Y3.5
X57.9Y3.5
X50.1Y-30.5
X57.9Y-30.5
X32.1Y-69.5
X39.9Y-69.5
X14.15Y-55.5
X21.95Y-55.5
X50.1Y-64.5
X57.9Y-64.5
X-3.9Y-21.5
X3.9Y-21.5
X86.1Y-7.5
X93.9Y-7.5
X-3.9Y-4.5
X3.9Y-4.5
X86.1Y-58.5
X93.9Y-58.5
X68.1Y-19.5
X75.9Y-19.5
X103.0Y-59.1
X103.0Y-66.9
X32.1Y-35.5
X39.9Y-35.5
X14.15Y-4.5
X21.95Y-4.5
X86.1Y-41.5
X93.9Y-41.5
X32.1Y-52.5
X39.9Y-52.5
X50.1Y-47.5
X57.9Y-47.5
X-3.9Y-72.5
X3.9Y-72.5
X-3.9Y-55.5
X3.9Y-55.5
X68.1Y-53.5
X75.9Y-53.5
X68.1Y-70.5
X75.9Y-70.5
X86.1Y-75.5
X93.9Y-75.5
X50.1Y-13.5
X57.9Y-13.5
X86.1Y-24.5
X93.9Y-24.5
X32.1Y-18.5
X39.9Y-18.5
X14.15Y-21.5
X21.95Y-21.5
X32.1Y-1.525
X39.9Y-1.525
X68.1Y-2.5
X75.9Y-2.5
X-3.9Y-38.5
X3.9Y-38.5
T2
X101.38Y-18.548
X101.38Y-21.088
X101.38Y-23.628
X101.38Y-26.168
X101.38Y-28.708
X101.38Y-31.248
X101.38Y-33.788
X101.38Y-36.328
X101.38Y-38.868
X101.38Y-41.408
X101.38Y-43.948
X101.38Y-46.488
X116.62Y-18.548
X116.62Y-21.088
X116.62Y-23.628
X116.62Y-26.168
X116.62Y-28.708
X116.62Y-31.248
X116.62Y-33.788
X116.62Y-36.328
X116.62Y-38.868
X116.62Y-41.408
X116.62Y-43.948
X116.62Y-46.488
T3
X13.0Y-47.2
X18.0Y-45.1
X23.0Y-47.2
X67.0Y-28.2
X72.0Y-26.1
X77.0Y-28.2
X67.0Y-62.2
X72.0Y-60.1
X77.0Y-62.2
X111.3Y-58.0
X111.3Y-68.0
X113.4Y-63.0
X85.0Y0.8
X90.0Y2.9
X95.0Y0.8
X67.0Y5.8
X72.0Y7.9
X77.0Y5.8
X49.0Y-5.2
X54.0Y-3.1
X59.0Y-5.2
X-5.0Y-64.2
X0.0Y-62.1
X5.0Y-64.2
X-5.0Y-13.2
X0.0Y-11.1
X5.0Y-13.2
X-5.0Y-47.2
X0.0Y-45.1
X5.0Y-47.2
X-5.0Y-30.2
X0.0Y-28.1
X5.0Y-30.2
X49.0Y-39.2
X54.0Y-37.1
X59.0Y-39.2
X85.0Y-33.2
X90.0Y-31.1
X95.0Y-33.2
X-5.0Y3.8
X0.0Y5.9
X5.0Y3.8
X67.0Y-11.2
X72.0Y-9.1
X77.0Y-11.2
X49.0Y11.8
X54.0Y13.9
X59.0Y11.8
X31.0Y-27.2
X36.0Y-25.1
X41.0Y-27.2
X31.0Y-61.2
X36.0Y-59.1
X41.0Y-61.2
X13.0Y-30.2
X18.0Y-28.1
X23.0Y-30.2
X31.0Y-44.2
X36.0Y-42.1
X41.0Y-44.2
X13.0Y-64.2
X18.0Y-62.1
X23.0Y-64.2
X31.0Y-10.2
X36.0Y-8.1
X41.0Y-10.2
X49.0Y-22.2
X54.0Y-20.1
X59.0Y-22.2
X67.0Y-45.2
X72.0Y-43.1
X77.0Y-45.2
X85.0Y-67.2
X90.0Y-65.1
X95.0Y-67.2
X85.0Y-50.2
X90.0Y-48.1
X95.0Y-50.2
X13.0Y-13.2
X18.0Y-11.1
X23.0Y-13.2
X85.0Y-16.2
X90.0Y-14.1
X95.0Y-16.2
X13.0Y3.8
X18.0Y5.9
X23.0Y3.8
X49.0Y-56.2
X54.0Y-54.1
X59.0Y-56.2
X31.0Y6.8
X36.0Y8.9
X41.0Y6.8
T4
X116.928Y-50.218
X116.928Y-56.718
T5
X45.0Y-22.5
X9.0Y-59.5
X9.0Y-8.5
X81.0Y-57.5
X81.0Y-6.5
X98.978Y-51.428
T0
M30
