G04 #@! TF.GenerationSoftware,KiCad,Pcbnew,(5.1.4)-1*
G04 #@! TF.CreationDate,2021-06-10T17:13:43-04:00*
G04 #@! TF.ProjectId,splitreus,73706c69-7472-4657-9573-2e6b69636164,1*
G04 #@! TF.SameCoordinates,Original*
G04 #@! TF.FileFunction,Profile,NP*
%FSLAX46Y46*%
G04 Gerber Fmt 4.6, Leading zero omitted, Abs format (unit mm)*
G04 Created by KiCad (PCBNEW (5.1.4)-1) date 2021-06-10 17:13:43*
%MOMM*%
%LPD*%
G04 APERTURE LIST*
%ADD10C,0.050000*%
G04 APERTURE END LIST*
D10*
X25693333Y11269999D02*
X26306666Y11730000D01*
X25693332Y11270000D02*
G75*
G02X21883333Y10000000I-3809999J5079999D01*
G01*
X-3650000Y10000000D02*
X21883333Y10000000D01*
X-10000000Y3650000D02*
G75*
G02X-3650000Y10000000I6350000J0D01*
G01*
X-10000000Y-71650000D02*
X-9999999Y3650000D01*
X-3650000Y-78000000D02*
G75*
G02X-10000000Y-71650000I0J6350000D01*
G01*
X23883333Y-78000000D02*
X-3649999Y-78000000D01*
X27693334Y-76730000D02*
G75*
G02X23883333Y-78000000I-3810001J5080001D01*
G01*
X28306666Y-76270000D02*
X27693333Y-76730000D01*
X28306666Y-76270000D02*
G75*
G02X32116666Y-75000000I3810000J-5080000D01*
G01*
X41389906Y-75000000D02*
X32116666Y-75000000D01*
X46348423Y-72616814D02*
G75*
G02X41389906Y-75000000I-4958517J3966814D01*
G01*
X46535325Y-72383186D02*
X46348423Y-72616813D01*
X46535325Y-72383185D02*
G75*
G02X51493842Y-69999999I4958517J-3966814D01*
G01*
X55996031Y-69999999D02*
X51493842Y-69999999D01*
X55996032Y-69999999D02*
G75*
G02X61279551Y-72827653I-1J-6350000D01*
G01*
X61509346Y-73172346D02*
X61279551Y-72827653D01*
X66792865Y-76000000D02*
G75*
G02X61509346Y-73172346I0J6350000D01*
G01*
X74506157Y-76000000D02*
X66792865Y-76000000D01*
X74506157Y-76000000D02*
G75*
G02X79464674Y-78383186I0J-6350000D01*
G01*
X79651576Y-78616813D02*
X79464674Y-78383186D01*
X84610093Y-80999999D02*
G75*
G02X79651576Y-78616813I0J6350000D01*
G01*
X94809047Y-80999999D02*
X84610093Y-80999999D01*
X100626646Y-77195199D02*
G75*
G02X94809047Y-80999999I-5817599J2545200D01*
G01*
X100797446Y-76804800D02*
X100626646Y-77195199D01*
X100797446Y-76804800D02*
G75*
G02X106615045Y-73000000I5817599J-2545200D01*
G01*
X111150000Y-73000000D02*
X106615045Y-73000000D01*
X117500000Y-66650000D02*
G75*
G02X111150000Y-73000000I-6350000J0D01*
G01*
X117499999Y-19350000D02*
X117500000Y-66650000D01*
X111149999Y-13000000D02*
G75*
G02X117499999Y-19350000I0J-6350000D01*
G01*
X106350000Y-13000000D02*
X111149999Y-13000000D01*
X106350000Y-13000000D02*
G75*
G02X100000000Y-6650000I0J6350000D01*
G01*
X100000000Y650000D02*
X100000000Y-6650000D01*
X93650000Y7000000D02*
G75*
G02X100000000Y650000I0J-6350000D01*
G01*
X87493842Y7000000D02*
X93650000Y7000000D01*
X87493842Y7000000D02*
G75*
G02X82535325Y9383186I0J6350000D01*
G01*
X82348423Y9616813D02*
X82535325Y9383186D01*
X77389906Y12000000D02*
G75*
G02X82348423Y9616813I0J-6350000D01*
G01*
X70003968Y12000000D02*
X77389906Y12000000D01*
X70003967Y11999999D02*
G75*
G02X64720448Y14827653I1J6350000D01*
G01*
X64490653Y15172346D02*
X64720448Y14827653D01*
X59207134Y18000000D02*
G75*
G02X64490653Y15172346I0J-6350000D01*
G01*
X48610093Y18000000D02*
X59207134Y18000000D01*
X43651575Y15616813D02*
G75*
G02X48610093Y18000000I4958518J-3966814D01*
G01*
X43464674Y15383186D02*
X43651576Y15616813D01*
X43464674Y15383186D02*
G75*
G02X38506157Y13000000I-4958517J3966814D01*
G01*
X30116666Y13000000D02*
X38506157Y13000000D01*
X26306666Y11730000D02*
G75*
G02X30116666Y13000000I3810000J-5080000D01*
G01*
M02*
