M48
; DRILL file {KiCad (5.1.4)-1} date 6/10/2021 5:13:42 PM
; FORMAT={-:-/ absolute / metric / decimal}
; #@! TF.CreationDate,2021-06-10T17:13:42-04:00
; #@! TF.GenerationSoftware,Kicad,Pcbnew,(5.1.4)-1
; #@! TF.FileFunction,NonPlated,1,2,NPTH
FMAT,2
METRIC
T1C0.991
T2C1.702
T3C2.700
T4C3.000
T5C3.429
%
G90
G05
T1
X12.78Y-38.2
X23.22Y-38.2
X48.78Y-64.2
X59.22Y-64.2
X30.78Y-1.2
X41.22Y-1.2
X-5.22Y-21.2
X5.22Y-21.2
X66.78Y-36.2
X77.22Y-36.2
X30.78Y-69.2
X41.22Y-69.2
X66.78Y-19.2
X77.22Y-19.2
X84.78Y-7.2
X95.22Y-7.2
X111.7Y-57.78
X111.7Y-68.22
X-5.22Y-55.2
X5.22Y-55.2
X84.78Y-41.2
X95.22Y-41.2
X30.78Y-35.2
X41.22Y-35.2
X12.78Y-4.2
X23.22Y-4.2
X48.78Y-30.2
X59.22Y-30.2
X30.78Y-18.2
X41.22Y-18.2
X-5.22Y-4.2
X5.22Y-4.2
X48.78Y-13.2
X59.22Y-13.2
X30.78Y-52.2
X41.22Y-52.2
X66.78Y-53.2
X77.22Y-53.2
X66.78Y-70.2
X77.22Y-70.2
X84.78Y-58.2
X95.22Y-58.2
X84.78Y-24.2
X95.22Y-24.2
X66.78Y-2.2
X77.22Y-2.2
X12.78Y-72.2
X23.22Y-72.2
X-5.22Y-72.2
X5.22Y-72.2
X48.78Y-47.2
X59.22Y-47.2
X12.78Y-21.2
X23.22Y-21.2
X-5.22Y-38.2
X5.22Y-38.2
X48.78Y3.8
X59.22Y3.8
X12.78Y-55.2
X23.22Y-55.2
X84.78Y-75.2
X95.22Y-75.2
T2
X-5.5Y-51.0
X5.5Y-51.0
X84.5Y-37.0
X95.5Y-37.0
X30.5Y-31.0
X41.5Y-31.0
X12.5Y0.0
X23.5Y0.0
X48.5Y-26.0
X59.5Y-26.0
X30.5Y-14.0
X41.5Y-14.0
X-5.5Y0.0
X5.5Y0.0
X48.5Y-9.0
X59.5Y-9.0
X30.5Y-48.0
X41.5Y-48.0
X66.5Y-49.0
X77.5Y-49.0
X66.5Y-66.0
X77.5Y-66.0
X84.5Y-54.0
X95.5Y-54.0
X84.5Y-20.0
X95.5Y-20.0
X66.5Y2.0
X77.5Y2.0
X12.5Y-68.0
X23.5Y-68.0
X-5.5Y-68.0
X5.5Y-68.0
X48.5Y-43.0
X59.5Y-43.0
X12.5Y-17.0
X23.5Y-17.0
X-5.5Y-34.0
X5.5Y-34.0
X48.5Y8.0
X59.5Y8.0
X12.5Y-51.0
X23.5Y-51.0
X84.5Y-71.0
X95.5Y-71.0
X12.5Y-34.0
X23.5Y-34.0
X48.5Y-60.0
X59.5Y-60.0
X30.5Y3.0
X41.5Y3.0
X-5.5Y-17.0
X5.5Y-17.0
X66.5Y-32.0
X77.5Y-32.0
X30.5Y-65.0
X41.5Y-65.0
X66.5Y-15.0
X77.5Y-15.0
X84.5Y-3.0
X95.5Y-3.0
X107.5Y-57.5
X107.5Y-68.5
T3
X-8.5Y-8.5
X-8.5Y-59.5
X99.626Y-11.5
X27.909Y-74.712
X26.091Y9.712
X100.237Y-75.65
T4
X85.0Y-50.25
X90.0Y-48.05
X95.0Y-50.25
X85.0Y-16.25
X90.0Y-14.05
X95.0Y-16.25
X67.0Y5.75
X72.0Y7.95
X77.0Y5.75
X13.0Y-64.25
X18.0Y-62.05
X23.0Y-64.25
X-5.0Y-64.25
X0.0Y-62.05
X5.0Y-64.25
X49.0Y-39.25
X54.0Y-37.05
X59.0Y-39.25
X13.0Y-13.25
X18.0Y-11.05
X23.0Y-13.25
X-5.0Y-30.25
X0.0Y-28.05
X5.0Y-30.25
X49.0Y11.75
X54.0Y13.95
X59.0Y11.75
X13.0Y-47.25
X18.0Y-45.05
X23.0Y-47.25
X85.0Y-67.25
X90.0Y-65.05
X95.0Y-67.25
X13.0Y-30.25
X18.0Y-28.05
X23.0Y-30.25
X49.0Y-56.25
X54.0Y-54.05
X59.0Y-56.25
X31.0Y6.75
X36.0Y8.95
X41.0Y6.75
X-5.0Y-13.25
X0.0Y-11.05
X5.0Y-13.25
X67.0Y-28.25
X72.0Y-26.05
X77.0Y-28.25
X31.0Y-61.25
X36.0Y-59.05
X41.0Y-61.25
X67.0Y-11.25
X72.0Y-9.05
X77.0Y-11.25
X85.0Y0.75
X90.0Y2.95
X95.0Y0.75
X101.55Y-63.0
X103.75Y-58.0
X103.75Y-68.0
X-5.0Y-47.25
X0.0Y-45.05
X5.0Y-47.25
X85.0Y-33.25
X90.0Y-31.05
X95.0Y-33.25
X31.0Y-27.25
X36.0Y-25.05
X41.0Y-27.25
X13.0Y3.75
X18.0Y5.95
X23.0Y3.75
X49.0Y-22.25
X54.0Y-20.05
X59.0Y-22.25
X31.0Y-10.25
X36.0Y-8.05
X41.0Y-10.25
X-5.0Y3.75
X0.0Y5.95
X5.0Y3.75
X49.0Y-5.25
X54.0Y-3.05
X59.0Y-5.25
X31.0Y-44.25
X36.0Y-42.05
X41.0Y-44.25
X67.0Y-45.25
X72.0Y-43.05
X77.0Y-45.25
X67.0Y-62.25
X72.0Y-60.05
X77.0Y-62.25
T5
X90.0Y-54.0
X90.0Y-20.0
X72.0Y2.0
X18.0Y-68.0
X0.0Y-68.0
X54.0Y-43.0
X18.0Y-17.0
X0.0Y-34.0
X54.0Y8.0
X18.0Y-51.0
X90.0Y-71.0
X18.0Y-34.0
X54.0Y-60.0
X36.0Y3.0
X0.0Y-17.0
X72.0Y-32.0
X36.0Y-65.0
X72.0Y-15.0
X90.0Y-3.0
X107.5Y-63.0
X0.0Y-51.0
X90.0Y-37.0
X36.0Y-31.0
X18.0Y0.0
X54.0Y-26.0
X36.0Y-14.0
X0.0Y0.0
X54.0Y-9.0
X36.0Y-48.0
X72.0Y-49.0
X72.0Y-66.0
T0
M30
