G04 #@! TF.GenerationSoftware,KiCad,Pcbnew,(5.1.4)-1*
G04 #@! TF.CreationDate,2021-06-26T12:41:55-04:00*
G04 #@! TF.ProjectId,splitreus,73706c69-7472-4657-9573-2e6b69636164,1*
G04 #@! TF.SameCoordinates,Original*
G04 #@! TF.FileFunction,Copper,L2,Bot*
G04 #@! TF.FilePolarity,Positive*
%FSLAX46Y46*%
G04 Gerber Fmt 4.6, Leading zero omitted, Abs format (unit mm)*
G04 Created by KiCad (PCBNEW (5.1.4)-1) date 2021-06-26 12:41:55*
%MOMM*%
%LPD*%
G04 APERTURE LIST*
%ADD10R,0.500000X2.900000*%
%ADD11R,1.600000X1.600000*%
%ADD12C,1.600000*%
%ADD13R,1.200000X1.600000*%
%ADD14R,2.900000X0.500000*%
%ADD15R,1.600000X1.200000*%
%ADD16C,2.000000*%
%ADD17C,4.400000*%
%ADD18C,1.752600*%
%ADD19R,1.752600X1.752600*%
%ADD20C,0.250000*%
G04 APERTURE END LIST*
D10*
X103000000Y-65450000D03*
D11*
X103000000Y-59100000D03*
D12*
X103000000Y-66900000D03*
D10*
X103000000Y-60500000D03*
D13*
X103000000Y-61600000D03*
X103000000Y-64400000D03*
D14*
X87550000Y-75500000D03*
D11*
X93900000Y-75500000D03*
D12*
X86100000Y-75500000D03*
D14*
X92500000Y-75500000D03*
D15*
X91400000Y-75500000D03*
X88600000Y-75500000D03*
D14*
X87550000Y-58500000D03*
D11*
X93900000Y-58500000D03*
D12*
X86100000Y-58500000D03*
D14*
X92500000Y-58500000D03*
D15*
X91400000Y-58500000D03*
X88600000Y-58500000D03*
D14*
X87550000Y-41500000D03*
D11*
X93900000Y-41500000D03*
D12*
X86100000Y-41500000D03*
D14*
X92500000Y-41500000D03*
D15*
X91400000Y-41500000D03*
X88600000Y-41500000D03*
D14*
X87550000Y-24500000D03*
D11*
X93900000Y-24500000D03*
D12*
X86100000Y-24500000D03*
D14*
X92500000Y-24500000D03*
D15*
X91400000Y-24500000D03*
X88600000Y-24500000D03*
D14*
X87550000Y-7500000D03*
D11*
X93900000Y-7500000D03*
D12*
X86100000Y-7500000D03*
D14*
X92500000Y-7500000D03*
D15*
X91400000Y-7500000D03*
X88600000Y-7500000D03*
D14*
X69550000Y-70500000D03*
D11*
X75900000Y-70500000D03*
D12*
X68100000Y-70500000D03*
D14*
X74500000Y-70500000D03*
D15*
X73400000Y-70500000D03*
X70600000Y-70500000D03*
D14*
X69550000Y-53500000D03*
D11*
X75900000Y-53500000D03*
D12*
X68100000Y-53500000D03*
D14*
X74500000Y-53500000D03*
D15*
X73400000Y-53500000D03*
X70600000Y-53500000D03*
D14*
X69550000Y-36500000D03*
D11*
X75900000Y-36500000D03*
D12*
X68100000Y-36500000D03*
D14*
X74500000Y-36500000D03*
D15*
X73400000Y-36500000D03*
X70600000Y-36500000D03*
D14*
X69550000Y-19500000D03*
D11*
X75900000Y-19500000D03*
D12*
X68100000Y-19500000D03*
D14*
X74500000Y-19500000D03*
D15*
X73400000Y-19500000D03*
X70600000Y-19500000D03*
D14*
X69550000Y-2500000D03*
D11*
X75900000Y-2500000D03*
D12*
X68100000Y-2500000D03*
D14*
X74500000Y-2500000D03*
D15*
X73400000Y-2500000D03*
X70600000Y-2500000D03*
D14*
X51550000Y-64500000D03*
D11*
X57900000Y-64500000D03*
D12*
X50100000Y-64500000D03*
D14*
X56500000Y-64500000D03*
D15*
X55400000Y-64500000D03*
X52600000Y-64500000D03*
D14*
X51550000Y-47500000D03*
D11*
X57900000Y-47500000D03*
D12*
X50100000Y-47500000D03*
D14*
X56500000Y-47500000D03*
D15*
X55400000Y-47500000D03*
X52600000Y-47500000D03*
D14*
X51550000Y-30500000D03*
D11*
X57900000Y-30500000D03*
D12*
X50100000Y-30500000D03*
D14*
X56500000Y-30500000D03*
D15*
X55400000Y-30500000D03*
X52600000Y-30500000D03*
D14*
X51550000Y-13500000D03*
D11*
X57900000Y-13500000D03*
D12*
X50100000Y-13500000D03*
D14*
X56500000Y-13500000D03*
D15*
X55400000Y-13500000D03*
X52600000Y-13500000D03*
D14*
X51550000Y3500000D03*
D11*
X57900000Y3500000D03*
D12*
X50100000Y3500000D03*
D14*
X56500000Y3500000D03*
D15*
X55400000Y3500000D03*
X52600000Y3500000D03*
D14*
X33550000Y-69500000D03*
D11*
X39900000Y-69500000D03*
D12*
X32100000Y-69500000D03*
D14*
X38500000Y-69500000D03*
D15*
X37400000Y-69500000D03*
X34600000Y-69500000D03*
D14*
X33550000Y-52500000D03*
D11*
X39900000Y-52500000D03*
D12*
X32100000Y-52500000D03*
D14*
X38500000Y-52500000D03*
D15*
X37400000Y-52500000D03*
X34600000Y-52500000D03*
D14*
X33550000Y-35500000D03*
D11*
X39900000Y-35500000D03*
D12*
X32100000Y-35500000D03*
D14*
X38500000Y-35500000D03*
D15*
X37400000Y-35500000D03*
X34600000Y-35500000D03*
D14*
X33550000Y-18500000D03*
D11*
X39900000Y-18500000D03*
D12*
X32100000Y-18500000D03*
D14*
X38500000Y-18500000D03*
D15*
X37400000Y-18500000D03*
X34600000Y-18500000D03*
D14*
X33550000Y-1525000D03*
D11*
X39900000Y-1525000D03*
D12*
X32100000Y-1525000D03*
D14*
X38500000Y-1525000D03*
D15*
X37400000Y-1525000D03*
X34600000Y-1525000D03*
D14*
X15550000Y-72500000D03*
D11*
X21900000Y-72500000D03*
D12*
X14100000Y-72500000D03*
D14*
X20500000Y-72500000D03*
D15*
X19400000Y-72500000D03*
X16600000Y-72500000D03*
D14*
X15600000Y-55500000D03*
D11*
X21950000Y-55500000D03*
D12*
X14150000Y-55500000D03*
D14*
X20550000Y-55500000D03*
D15*
X19450000Y-55500000D03*
X16650000Y-55500000D03*
D14*
X15600000Y-38500000D03*
D11*
X21950000Y-38500000D03*
D12*
X14150000Y-38500000D03*
D14*
X20550000Y-38500000D03*
D15*
X19450000Y-38500000D03*
X16650000Y-38500000D03*
D14*
X15600000Y-21500000D03*
D11*
X21950000Y-21500000D03*
D12*
X14150000Y-21500000D03*
D14*
X20550000Y-21500000D03*
D15*
X19450000Y-21500000D03*
X16650000Y-21500000D03*
D14*
X15600000Y-4500000D03*
D11*
X21950000Y-4500000D03*
D12*
X14150000Y-4500000D03*
D14*
X20550000Y-4500000D03*
D15*
X19450000Y-4500000D03*
X16650000Y-4500000D03*
D14*
X-2450000Y-72500000D03*
D11*
X3900000Y-72500000D03*
D12*
X-3900000Y-72500000D03*
D14*
X2500000Y-72500000D03*
D15*
X1400000Y-72500000D03*
X-1400000Y-72500000D03*
D14*
X-2450000Y-55500000D03*
D11*
X3900000Y-55500000D03*
D12*
X-3900000Y-55500000D03*
D14*
X2500000Y-55500000D03*
D15*
X1400000Y-55500000D03*
X-1400000Y-55500000D03*
D14*
X-2450000Y-38500000D03*
D11*
X3900000Y-38500000D03*
D12*
X-3900000Y-38500000D03*
D14*
X2500000Y-38500000D03*
D15*
X1400000Y-38500000D03*
X-1400000Y-38500000D03*
D14*
X-2450000Y-21500000D03*
D11*
X3900000Y-21500000D03*
D12*
X-3900000Y-21500000D03*
D14*
X2500000Y-21500000D03*
D15*
X1400000Y-21500000D03*
X-1400000Y-21500000D03*
D14*
X-2450000Y-4500000D03*
D11*
X3900000Y-4500000D03*
D12*
X-3900000Y-4500000D03*
D14*
X2500000Y-4500000D03*
D15*
X1400000Y-4500000D03*
X-1400000Y-4500000D03*
D16*
X116928000Y-50218000D03*
X116928000Y-56718000D03*
D17*
X98978000Y-51428000D03*
X81000000Y-57500000D03*
X81000000Y-6500000D03*
X45000000Y-22500000D03*
X9000000Y-59500000D03*
X9000000Y-8500000D03*
D18*
X116620000Y-18548000D03*
X101380000Y-46488000D03*
X116620000Y-21088000D03*
X116620000Y-23628000D03*
X116620000Y-26168000D03*
X116620000Y-28708000D03*
X116620000Y-31248000D03*
X116620000Y-33788000D03*
X116620000Y-36328000D03*
X116620000Y-38868000D03*
X116620000Y-41408000D03*
X116620000Y-43948000D03*
X116620000Y-46488000D03*
X101380000Y-43948000D03*
X101380000Y-41408000D03*
X101380000Y-38868000D03*
X101380000Y-36328000D03*
X101380000Y-33788000D03*
X101380000Y-31248000D03*
X101380000Y-28708000D03*
X101380000Y-26168000D03*
X101380000Y-23628000D03*
X101380000Y-21088000D03*
D19*
X101380000Y-18548000D03*
D16*
X5000000Y3800000D03*
X0Y5900000D03*
X-5000000Y3800000D03*
X111300000Y-68000000D03*
X113400000Y-63000000D03*
X111300000Y-58000000D03*
X95000000Y-67200000D03*
X90000000Y-65100000D03*
X85000000Y-67200000D03*
X95000000Y-50200000D03*
X90000000Y-48100000D03*
X85000000Y-50200000D03*
X95000000Y-33200000D03*
X90000000Y-31100000D03*
X85000000Y-33200000D03*
X95000000Y-16200000D03*
X90000000Y-14100000D03*
X85000000Y-16200000D03*
X95000000Y800000D03*
X90000000Y2900000D03*
X85000000Y800000D03*
X77000000Y-62200000D03*
X72000000Y-60100000D03*
X67000000Y-62200000D03*
X77000000Y-45200000D03*
X72000000Y-43100000D03*
X67000000Y-45200000D03*
X77000000Y-28200000D03*
X72000000Y-26100000D03*
X67000000Y-28200000D03*
X77000000Y-11200000D03*
X72000000Y-9100000D03*
X67000000Y-11200000D03*
X77000000Y5800000D03*
X72000000Y7900000D03*
X67000000Y5800000D03*
X59000000Y-56200000D03*
X54000000Y-54100000D03*
X49000000Y-56200000D03*
X59000000Y-39200000D03*
X54000000Y-37100000D03*
X49000000Y-39200000D03*
X59000000Y-22200000D03*
X54000000Y-20100000D03*
X49000000Y-22200000D03*
X59000000Y-5200000D03*
X54000000Y-3100000D03*
X49000000Y-5200000D03*
X59000000Y11800000D03*
X54000000Y13900000D03*
X49000000Y11800000D03*
X41000000Y-61200000D03*
X36000000Y-59100000D03*
X31000000Y-61200000D03*
X41000000Y-44200000D03*
X36000000Y-42100000D03*
X31000000Y-44200000D03*
X41000000Y-27200000D03*
X36000000Y-25100000D03*
X31000000Y-27200000D03*
X41000000Y-10200000D03*
X36000000Y-8100000D03*
X31000000Y-10200000D03*
X41000000Y6800000D03*
X36000000Y8900000D03*
X31000000Y6800000D03*
X23000000Y-64200000D03*
X18000000Y-62100000D03*
X13000000Y-64200000D03*
X23000000Y-47200000D03*
X18000000Y-45100000D03*
X13000000Y-47200000D03*
X23000000Y-30200000D03*
X18000000Y-28100000D03*
X13000000Y-30200000D03*
X23000000Y-13200000D03*
X18000000Y-11100000D03*
X13000000Y-13200000D03*
X23000000Y3800000D03*
X18000000Y5900000D03*
X13000000Y3800000D03*
X5000000Y-64200000D03*
X0Y-62100000D03*
X-5000000Y-64200000D03*
X5000000Y-47200000D03*
X0Y-45100000D03*
X-5000000Y-47200000D03*
X5000000Y-30200000D03*
X0Y-28100000D03*
X-5000000Y-30200000D03*
X5000000Y-13200000D03*
X0Y-11100000D03*
X-5000000Y-13200000D03*
D20*
X-2450000Y-4500000D02*
X-3900000Y-4500000D01*
X-1925000Y-4500000D02*
X-2450000Y-4500000D01*
X-1925000Y-4500000D02*
X-1400000Y-4500000D01*
X-1400000Y-4500000D02*
X-674700Y-4500000D01*
X0Y5900000D02*
X-2061700Y3838300D01*
X-2061700Y3838300D02*
X-2061700Y-2537700D01*
X-2061700Y-2537700D02*
X-674700Y-3924700D01*
X-674700Y-3924700D02*
X-674700Y-4500000D01*
X-2450000Y-21500000D02*
X-3900000Y-21500000D01*
X-1925000Y-21500000D02*
X-2450000Y-21500000D01*
X-1925000Y-21500000D02*
X-1400000Y-21500000D01*
X-1400000Y-21500000D02*
X-674700Y-21500000D01*
X0Y-11100000D02*
X-2061700Y-13161700D01*
X-2061700Y-13161700D02*
X-2061700Y-19537700D01*
X-2061700Y-19537700D02*
X-674700Y-20924700D01*
X-674700Y-20924700D02*
X-674700Y-21500000D01*
X-2450000Y-38500000D02*
X-3900000Y-38500000D01*
X-1925000Y-38500000D02*
X-2450000Y-38500000D01*
X-1925000Y-38500000D02*
X-1400000Y-38500000D01*
X-1400000Y-38500000D02*
X-674700Y-38500000D01*
X0Y-28100000D02*
X-2061700Y-30161700D01*
X-2061700Y-30161700D02*
X-2061700Y-36537700D01*
X-2061700Y-36537700D02*
X-674700Y-37924700D01*
X-674700Y-37924700D02*
X-674700Y-38500000D01*
X-2450000Y-55500000D02*
X-3900000Y-55500000D01*
X-1925000Y-55500000D02*
X-2450000Y-55500000D01*
X-1925000Y-55500000D02*
X-1400000Y-55500000D01*
X-1400000Y-55500000D02*
X-674700Y-55500000D01*
X0Y-45100000D02*
X-2061700Y-47161700D01*
X-2061700Y-47161700D02*
X-2061700Y-53537700D01*
X-2061700Y-53537700D02*
X-674700Y-54924700D01*
X-674700Y-54924700D02*
X-674700Y-55500000D01*
X-1400000Y-72500000D02*
X-1400000Y-71574700D01*
X0Y-62100000D02*
X-2070700Y-64170700D01*
X-2070700Y-64170700D02*
X-2070700Y-70904000D01*
X-2070700Y-70904000D02*
X-1400000Y-71574700D01*
X-3900000Y-72500000D02*
X-2450000Y-72500000D01*
X-2450000Y-72500000D02*
X-1400000Y-72500000D01*
X18000000Y5900000D02*
X14150000Y2050000D01*
X14150000Y2050000D02*
X14150000Y-4500000D01*
X15600000Y-4500000D02*
X14150000Y-4500000D01*
X15600000Y-4500000D02*
X16650000Y-4500000D01*
X15600000Y-21500000D02*
X14150000Y-21500000D01*
X16125000Y-21500000D02*
X15600000Y-21500000D01*
X16125000Y-21500000D02*
X16650000Y-21500000D01*
X16650000Y-21500000D02*
X17375300Y-21500000D01*
X18000000Y-11100000D02*
X15932800Y-13167200D01*
X15932800Y-13167200D02*
X15932800Y-19482200D01*
X15932800Y-19482200D02*
X17375300Y-20924700D01*
X17375300Y-20924700D02*
X17375300Y-21500000D01*
X15600000Y-38500000D02*
X14150000Y-38500000D01*
X16125000Y-38500000D02*
X15600000Y-38500000D01*
X16125000Y-38500000D02*
X16650000Y-38500000D01*
X16650000Y-38500000D02*
X17375300Y-38500000D01*
X18000000Y-28100000D02*
X15932800Y-30167200D01*
X15932800Y-30167200D02*
X15932800Y-36482200D01*
X15932800Y-36482200D02*
X17375300Y-37924700D01*
X17375300Y-37924700D02*
X17375300Y-38500000D01*
X18000000Y-45100000D02*
X14150000Y-48950000D01*
X14150000Y-48950000D02*
X14150000Y-55500000D01*
X15600000Y-55500000D02*
X14150000Y-55500000D01*
X15600000Y-55500000D02*
X16650000Y-55500000D01*
X15550000Y-72500000D02*
X14100000Y-72500000D01*
X16075000Y-72500000D02*
X15550000Y-72500000D01*
X16075000Y-72500000D02*
X16600000Y-72500000D01*
X16600000Y-72500000D02*
X17325300Y-72500000D01*
X18000000Y-62100000D02*
X15938300Y-64161700D01*
X15938300Y-64161700D02*
X15938300Y-70537700D01*
X15938300Y-70537700D02*
X17325300Y-71924700D01*
X17325300Y-71924700D02*
X17325300Y-72500000D01*
X33550000Y-1525000D02*
X32100000Y-1525000D01*
X34075000Y-1525000D02*
X33550000Y-1525000D01*
X34075000Y-1525000D02*
X34600000Y-1525000D01*
X34600000Y-1525000D02*
X35325300Y-1525000D01*
X36000000Y8900000D02*
X33938300Y6838300D01*
X33938300Y6838300D02*
X33938300Y437300D01*
X33938300Y437300D02*
X35325300Y-949700D01*
X35325300Y-949700D02*
X35325300Y-1525000D01*
X33550000Y-18500000D02*
X32100000Y-18500000D01*
X34075000Y-18500000D02*
X33550000Y-18500000D01*
X34075000Y-18500000D02*
X34600000Y-18500000D01*
X34600000Y-18500000D02*
X35325300Y-18500000D01*
X36000000Y-8100000D02*
X33938300Y-10161700D01*
X33938300Y-10161700D02*
X33938300Y-16537700D01*
X33938300Y-16537700D02*
X35325300Y-17924700D01*
X35325300Y-17924700D02*
X35325300Y-18500000D01*
X33550000Y-35500000D02*
X32100000Y-35500000D01*
X34075000Y-35500000D02*
X33550000Y-35500000D01*
X34075000Y-35500000D02*
X34600000Y-35500000D01*
X34600000Y-35500000D02*
X35325300Y-35500000D01*
X36000000Y-25100000D02*
X33938300Y-27161700D01*
X33938300Y-27161700D02*
X33938300Y-33537700D01*
X33938300Y-33537700D02*
X35325300Y-34924700D01*
X35325300Y-34924700D02*
X35325300Y-35500000D01*
X33550000Y-52500000D02*
X32100000Y-52500000D01*
X34075000Y-52500000D02*
X33550000Y-52500000D01*
X34075000Y-52500000D02*
X34600000Y-52500000D01*
X34600000Y-52500000D02*
X35325300Y-52500000D01*
X36000000Y-42100000D02*
X33938300Y-44161700D01*
X33938300Y-44161700D02*
X33938300Y-50537700D01*
X33938300Y-50537700D02*
X35325300Y-51924700D01*
X35325300Y-51924700D02*
X35325300Y-52500000D01*
X33550000Y-69500000D02*
X32100000Y-69500000D01*
X34075000Y-69500000D02*
X33550000Y-69500000D01*
X34075000Y-69500000D02*
X34600000Y-69500000D01*
X34600000Y-69500000D02*
X35325300Y-69500000D01*
X36000000Y-59100000D02*
X33938300Y-61161700D01*
X33938300Y-61161700D02*
X33938300Y-67537700D01*
X33938300Y-67537700D02*
X35325300Y-68924700D01*
X35325300Y-68924700D02*
X35325300Y-69500000D01*
X51550000Y3500000D02*
X50100000Y3500000D01*
X52075000Y3500000D02*
X51550000Y3500000D01*
X52075000Y3500000D02*
X52600000Y3500000D01*
X52600000Y3500000D02*
X53325300Y3500000D01*
X54000000Y13900000D02*
X51938300Y11838300D01*
X51938300Y11838300D02*
X51938300Y5462300D01*
X51938300Y5462300D02*
X53325300Y4075300D01*
X53325300Y4075300D02*
X53325300Y3500000D01*
X51550000Y-13500000D02*
X50100000Y-13500000D01*
X52075000Y-13500000D02*
X51550000Y-13500000D01*
X52075000Y-13500000D02*
X52600000Y-13500000D01*
X52600000Y-13500000D02*
X53325300Y-13500000D01*
X54000000Y-3100000D02*
X51938300Y-5161700D01*
X51938300Y-5161700D02*
X51938300Y-11537700D01*
X51938300Y-11537700D02*
X53325300Y-12924700D01*
X53325300Y-12924700D02*
X53325300Y-13500000D01*
X51550000Y-30500000D02*
X50100000Y-30500000D01*
X52075000Y-30500000D02*
X51550000Y-30500000D01*
X52075000Y-30500000D02*
X52600000Y-30500000D01*
X52600000Y-30500000D02*
X53325300Y-30500000D01*
X54000000Y-20100000D02*
X51938300Y-22161700D01*
X51938300Y-22161700D02*
X51938300Y-28537700D01*
X51938300Y-28537700D02*
X53325300Y-29924700D01*
X53325300Y-29924700D02*
X53325300Y-30500000D01*
X51550000Y-47500000D02*
X50100000Y-47500000D01*
X52075000Y-47500000D02*
X51550000Y-47500000D01*
X52075000Y-47500000D02*
X52600000Y-47500000D01*
X52600000Y-47500000D02*
X53325300Y-47500000D01*
X54000000Y-37100000D02*
X51938300Y-39161700D01*
X51938300Y-39161700D02*
X51938300Y-45537700D01*
X51938300Y-45537700D02*
X53325300Y-46924700D01*
X53325300Y-46924700D02*
X53325300Y-47500000D01*
X51550000Y-64500000D02*
X50100000Y-64500000D01*
X52075000Y-64500000D02*
X51550000Y-64500000D01*
X52075000Y-64500000D02*
X52600000Y-64500000D01*
X52600000Y-64500000D02*
X53325300Y-64500000D01*
X54000000Y-54100000D02*
X51938300Y-56161700D01*
X51938300Y-56161700D02*
X51938300Y-62537700D01*
X51938300Y-62537700D02*
X53325300Y-63924700D01*
X53325300Y-63924700D02*
X53325300Y-64500000D01*
X70600000Y-19500000D02*
X71325300Y-19500000D01*
X69550000Y-19500000D02*
X70437700Y-19500000D01*
X70437700Y-19500000D02*
X70600000Y-19500000D01*
X72000000Y-9100000D02*
X69938300Y-11161700D01*
X69938300Y-11161700D02*
X69938300Y-17537700D01*
X69938300Y-17537700D02*
X71325300Y-18924700D01*
X71325300Y-18924700D02*
X71325300Y-19500000D01*
X68100000Y-19500000D02*
X69550000Y-19500000D01*
X70600000Y-36500000D02*
X71325300Y-36500000D01*
X69550000Y-36500000D02*
X70437700Y-36500000D01*
X70437700Y-36500000D02*
X70600000Y-36500000D01*
X72000000Y-26100000D02*
X69938300Y-28161700D01*
X69938300Y-28161700D02*
X69938300Y-34537700D01*
X69938300Y-34537700D02*
X71325300Y-35924700D01*
X71325300Y-35924700D02*
X71325300Y-36500000D01*
X68100000Y-36500000D02*
X69550000Y-36500000D01*
X70600000Y-53500000D02*
X71325300Y-53500000D01*
X69550000Y-53500000D02*
X70437700Y-53500000D01*
X70437700Y-53500000D02*
X70600000Y-53500000D01*
X72000000Y-43100000D02*
X69938300Y-45161700D01*
X69938300Y-45161700D02*
X69938300Y-51537700D01*
X69938300Y-51537700D02*
X71325300Y-52924700D01*
X71325300Y-52924700D02*
X71325300Y-53500000D01*
X68100000Y-53500000D02*
X69550000Y-53500000D01*
X69550000Y-70500000D02*
X68100000Y-70500000D01*
X70075000Y-70500000D02*
X69550000Y-70500000D01*
X70075000Y-70500000D02*
X70600000Y-70500000D01*
X70600000Y-70500000D02*
X71325300Y-70500000D01*
X72000000Y-60100000D02*
X69938300Y-62161700D01*
X69938300Y-62161700D02*
X69938300Y-68537700D01*
X69938300Y-68537700D02*
X71325300Y-69924700D01*
X71325300Y-69924700D02*
X71325300Y-70500000D01*
X88600000Y-7500000D02*
X88600000Y-6574700D01*
X90000000Y2900000D02*
X87929300Y829300D01*
X87929300Y829300D02*
X87929300Y-5904000D01*
X87929300Y-5904000D02*
X88600000Y-6574700D01*
X86100000Y-7500000D02*
X87550000Y-7500000D01*
X87550000Y-7500000D02*
X88600000Y-7500000D01*
X88600000Y-24500000D02*
X88600000Y-23574700D01*
X90000000Y-14100000D02*
X87929300Y-16170700D01*
X87929300Y-16170700D02*
X87929300Y-22904000D01*
X87929300Y-22904000D02*
X88600000Y-23574700D01*
X86100000Y-24500000D02*
X87550000Y-24500000D01*
X87550000Y-24500000D02*
X88600000Y-24500000D01*
X88600000Y-41500000D02*
X88600000Y-40574700D01*
X90000000Y-31100000D02*
X87929300Y-33170700D01*
X87929300Y-33170700D02*
X87929300Y-39904000D01*
X87929300Y-39904000D02*
X88600000Y-40574700D01*
X86100000Y-41500000D02*
X87550000Y-41500000D01*
X87550000Y-41500000D02*
X88600000Y-41500000D01*
X87550000Y-58500000D02*
X88600000Y-58500000D01*
X86100000Y-58500000D02*
X87550000Y-58500000D01*
X88600000Y-58500000D02*
X88600000Y-57574700D01*
X90000000Y-48100000D02*
X87929300Y-50170700D01*
X87929300Y-50170700D02*
X87929300Y-56904000D01*
X87929300Y-56904000D02*
X88600000Y-57574700D01*
X87550000Y-75500000D02*
X86100000Y-75500000D01*
X88075000Y-75500000D02*
X87550000Y-75500000D01*
X88075000Y-75500000D02*
X88600000Y-75500000D01*
X88600000Y-75500000D02*
X89325300Y-75500000D01*
X90000000Y-65100000D02*
X87938300Y-67161700D01*
X87938300Y-67161700D02*
X87938300Y-73537700D01*
X87938300Y-73537700D02*
X89325300Y-74924700D01*
X89325300Y-74924700D02*
X89325300Y-75500000D01*
X103000000Y-66900000D02*
X103000000Y-65450000D01*
X103000000Y-64400000D02*
X103000000Y-65450000D01*
X95000000Y800000D02*
X98601600Y-2801600D01*
X98601600Y-2801600D02*
X98601600Y-31009600D01*
X98601600Y-31009600D02*
X101380000Y-33788000D01*
X67000000Y5800000D02*
X61000000Y11800000D01*
X61000000Y11800000D02*
X59000000Y11800000D01*
X101380000Y-38868000D02*
X97135100Y-34623100D01*
X97135100Y-34623100D02*
X97135100Y-18335100D01*
X97135100Y-18335100D02*
X95000000Y-16200000D01*
X59000000Y-5200000D02*
X61000000Y-5200000D01*
X61000000Y-5200000D02*
X67000000Y-11200000D01*
X101380000Y-43948000D02*
X96684700Y-39252700D01*
X96684700Y-39252700D02*
X96684700Y-34884700D01*
X96684700Y-34884700D02*
X95000000Y-33200000D01*
X59000000Y-22200000D02*
X61000000Y-22200000D01*
X61000000Y-22200000D02*
X67000000Y-28200000D01*
X59000000Y-39200000D02*
X61000000Y-39200000D01*
X61000000Y-39200000D02*
X67000000Y-45200000D01*
X95000000Y-67200000D02*
X97482600Y-69682600D01*
X97482600Y-69682600D02*
X111524800Y-69682600D01*
X111524800Y-69682600D02*
X115281700Y-65925700D01*
X115281700Y-65925700D02*
X115281700Y-42746300D01*
X115281700Y-42746300D02*
X116620000Y-41408000D01*
X59000000Y-56200000D02*
X61000000Y-56200000D01*
X61000000Y-56200000D02*
X67000000Y-62200000D01*
X111300000Y-58000000D02*
X114733100Y-54566900D01*
X114733100Y-54566900D02*
X114733100Y-38214900D01*
X114733100Y-38214900D02*
X116620000Y-36328000D01*
X111300000Y-58000000D02*
X111300000Y-68000000D01*
X3900000Y-38500000D02*
X4275300Y-38500000D01*
X3200000Y-38500000D02*
X3900000Y-38500000D01*
X3200000Y-55500000D02*
X3387700Y-55500000D01*
X2943900Y-55500000D02*
X3200000Y-55500000D01*
X2500000Y-38500000D02*
X3200000Y-38500000D01*
X3200000Y-38500000D02*
X3200000Y-55500000D01*
X3200000Y-21500000D02*
X3200000Y-36849400D01*
X3200000Y-36849400D02*
X4275300Y-37924700D01*
X4275300Y-37924700D02*
X4275300Y-38500000D01*
X3200000Y-4500000D02*
X3900000Y-4500000D01*
X2500000Y-4500000D02*
X3200000Y-4500000D01*
X3200000Y-4500000D02*
X3200000Y-21500000D01*
X1400000Y-4500000D02*
X2500000Y-4500000D01*
X2500000Y-72500000D02*
X3900000Y-72500000D01*
X3900000Y-71693300D02*
X2943900Y-70737200D01*
X2943900Y-70737200D02*
X2943900Y-55500000D01*
X3900000Y-72500000D02*
X3900000Y-71693300D01*
X1400000Y-72500000D02*
X2500000Y-72500000D01*
X2500000Y-55500000D02*
X2943900Y-55500000D01*
X1400000Y-55500000D02*
X2500000Y-55500000D01*
X3387700Y-55500000D02*
X3900000Y-55500000D01*
X1400000Y-38500000D02*
X2500000Y-38500000D01*
X3200000Y-21500000D02*
X3900000Y-21500000D01*
X2500000Y-21500000D02*
X3200000Y-21500000D01*
X1400000Y-21500000D02*
X2500000Y-21500000D01*
X116620000Y-21377800D02*
X103630200Y-21377800D01*
X103630200Y-21377800D02*
X101380000Y-23628000D01*
X116928000Y-50218000D02*
X117829500Y-49316500D01*
X117829500Y-49316500D02*
X117829500Y-22587300D01*
X117829500Y-22587300D02*
X116620000Y-21377800D01*
X116620000Y-21377800D02*
X116620000Y-21088000D01*
X101380000Y-23628000D02*
X101380000Y-26168000D01*
X75200000Y-2500000D02*
X75900000Y-2500000D01*
X74500000Y-2500000D02*
X75200000Y-2500000D01*
X75200000Y-2500000D02*
X75200000Y-19500000D01*
X73400000Y-2500000D02*
X74500000Y-2500000D01*
X75200000Y-36500000D02*
X75200000Y-53500000D01*
X75200000Y-19500000D02*
X75900000Y-19500000D01*
X74500000Y-19500000D02*
X75200000Y-19500000D01*
X75200000Y-19500000D02*
X75200000Y-36500000D01*
X75900000Y-70500000D02*
X76275300Y-70500000D01*
X74500000Y-70500000D02*
X75900000Y-70500000D01*
X75200000Y-53500000D02*
X75200000Y-68338300D01*
X75200000Y-68338300D02*
X76275300Y-69413600D01*
X76275300Y-69413600D02*
X76275300Y-70500000D01*
X75200000Y-36500000D02*
X75900000Y-36500000D01*
X74500000Y-36500000D02*
X75200000Y-36500000D01*
X73400000Y-70500000D02*
X74500000Y-70500000D01*
X75200000Y-53500000D02*
X75900000Y-53500000D01*
X74500000Y-53500000D02*
X75200000Y-53500000D01*
X73400000Y-53500000D02*
X74500000Y-53500000D01*
X73400000Y-36500000D02*
X74500000Y-36500000D01*
X73400000Y-19500000D02*
X74500000Y-19500000D01*
X39625500Y-69500000D02*
X39900000Y-69500000D01*
X38500000Y-69500000D02*
X39625500Y-69500000D01*
X39900000Y-53625300D02*
X39625500Y-53899800D01*
X39625500Y-53899800D02*
X39625500Y-69500000D01*
X39900000Y-52500000D02*
X39900000Y-53625300D01*
X39900000Y-52500000D02*
X40275300Y-52500000D01*
X38500000Y-52500000D02*
X39900000Y-52500000D01*
X38925600Y-35500000D02*
X38925600Y-50707800D01*
X38925600Y-50707800D02*
X40275300Y-52057500D01*
X40275300Y-52057500D02*
X40275300Y-52500000D01*
X38925600Y-35500000D02*
X39351100Y-35500000D01*
X38500000Y-35500000D02*
X38925600Y-35500000D01*
X37400000Y-69500000D02*
X38500000Y-69500000D01*
X39200000Y-1525000D02*
X39900000Y-1525000D01*
X38500000Y-1525000D02*
X39200000Y-1525000D01*
X39200000Y-1525000D02*
X39200000Y-18500000D01*
X37400000Y-1525000D02*
X38500000Y-1525000D01*
X39200000Y-18500000D02*
X39200000Y-35348900D01*
X39200000Y-35348900D02*
X39351100Y-35500000D01*
X37400000Y-35500000D02*
X38500000Y-35500000D01*
X39900000Y-35500000D02*
X39351100Y-35500000D01*
X39200000Y-18500000D02*
X39900000Y-18500000D01*
X38500000Y-18500000D02*
X39200000Y-18500000D01*
X38500000Y-52500000D02*
X37400000Y-52500000D01*
X37400000Y-18500000D02*
X38500000Y-18500000D01*
X92037300Y-58037300D02*
X92500000Y-58500000D01*
X91400000Y-58037300D02*
X92037300Y-58037300D01*
X92150100Y-41500000D02*
X92037300Y-41612800D01*
X92037300Y-41612800D02*
X92037300Y-58037300D01*
X92150100Y-41500000D02*
X91400000Y-41500000D01*
X92500000Y-41500000D02*
X92150100Y-41500000D01*
X92325100Y-24500000D02*
X92325100Y-39649600D01*
X92325100Y-39649600D02*
X91400000Y-40574700D01*
X91400000Y-41500000D02*
X91400000Y-40574700D01*
X92325100Y-24500000D02*
X92150100Y-24500000D01*
X92500000Y-24500000D02*
X92325100Y-24500000D01*
X92150100Y-7500000D02*
X91400000Y-7500000D01*
X92500000Y-7500000D02*
X92150100Y-7500000D01*
X92150100Y-24500000D02*
X91400000Y-24500000D01*
X92150100Y-7500000D02*
X92150100Y-24500000D01*
X103000000Y-60500000D02*
X103000000Y-59100000D01*
X103000000Y-61600000D02*
X103000000Y-60500000D01*
X92056300Y-75500000D02*
X92500000Y-75500000D01*
X91400000Y-75500000D02*
X92056300Y-75500000D01*
X92056300Y-75500000D02*
X92056300Y-60081600D01*
X92056300Y-60081600D02*
X91400000Y-59425300D01*
X91400000Y-58500000D02*
X91400000Y-59425300D01*
X92500000Y-75500000D02*
X93900000Y-75500000D01*
X93900000Y-58500000D02*
X92500000Y-58500000D01*
X91400000Y-58500000D02*
X91400000Y-58037300D01*
X92500000Y-41500000D02*
X93900000Y-41500000D01*
X92500000Y-24500000D02*
X93900000Y-24500000D01*
X92500000Y-7500000D02*
X93900000Y-7500000D01*
X57200000Y-30500000D02*
X57900000Y-30500000D01*
X56500000Y-30500000D02*
X57200000Y-30500000D01*
X57200000Y-30500000D02*
X57200000Y-47500000D01*
X56262700Y-30500000D02*
X56500000Y-30500000D01*
X56262700Y-30500000D02*
X56025400Y-30500000D01*
X56025400Y-30500000D02*
X55400000Y-30500000D01*
X56025400Y-13500000D02*
X56025400Y-30500000D01*
X56150100Y-13500000D02*
X56025400Y-13500000D01*
X55975100Y-13500000D02*
X56025400Y-13500000D01*
X55975100Y-13500000D02*
X55400000Y-13500000D01*
X56500000Y-13500000D02*
X57900000Y-13500000D01*
X56150100Y3500000D02*
X55400000Y3500000D01*
X56500000Y3500000D02*
X56150100Y3500000D01*
X56500000Y-13500000D02*
X56150100Y-13500000D01*
X56150100Y3500000D02*
X56150100Y-13500000D01*
X57200000Y-47500000D02*
X57200000Y-62176500D01*
X57200000Y-62176500D02*
X55950000Y-63426500D01*
X55950000Y-63426500D02*
X55950000Y-64500000D01*
X57200000Y-47500000D02*
X57900000Y-47500000D01*
X56500000Y-47500000D02*
X57200000Y-47500000D01*
X56500000Y-64500000D02*
X57900000Y-64500000D01*
X55950000Y-64500000D02*
X56500000Y-64500000D01*
X55950000Y-64500000D02*
X55400000Y-64500000D01*
X56500000Y-47500000D02*
X55400000Y-47500000D01*
X56500000Y3500000D02*
X57900000Y3500000D01*
X21351100Y-4500000D02*
X21950000Y-4500000D01*
X20550000Y-4500000D02*
X21351100Y-4500000D01*
X21351100Y-4500000D02*
X21351100Y-21500000D01*
X21650500Y-38500000D02*
X21950000Y-38500000D01*
X21351100Y-38500000D02*
X21650500Y-38500000D01*
X21650500Y-38500000D02*
X21650500Y-53676400D01*
X21650500Y-53676400D02*
X22325300Y-54351200D01*
X22325300Y-54351200D02*
X22325300Y-55500000D01*
X21950000Y-55500000D02*
X22325300Y-55500000D01*
X21600000Y-55500000D02*
X21950000Y-55500000D01*
X20550000Y-38500000D02*
X21351100Y-38500000D01*
X21351100Y-21500000D02*
X21950000Y-21500000D01*
X20550000Y-21500000D02*
X21351100Y-21500000D01*
X21351100Y-21500000D02*
X21351100Y-38500000D01*
X19400000Y-72500000D02*
X20500000Y-72500000D01*
X21900000Y-72500000D02*
X22275300Y-72500000D01*
X20500000Y-72500000D02*
X21900000Y-72500000D01*
X20550000Y-55500000D02*
X21600000Y-55500000D01*
X21600000Y-55500000D02*
X21600000Y-71226500D01*
X21600000Y-71226500D02*
X22275300Y-71901800D01*
X22275300Y-71901800D02*
X22275300Y-72500000D01*
X20000000Y-55500000D02*
X20550000Y-55500000D01*
X20000000Y-55500000D02*
X19450000Y-55500000D01*
X20550000Y-38500000D02*
X19450000Y-38500000D01*
X20550000Y-21500000D02*
X19450000Y-21500000D01*
X20550000Y-4500000D02*
X19450000Y-4500000D01*
X70600000Y-2500000D02*
X71325300Y-2500000D01*
X69550000Y-2500000D02*
X70437700Y-2500000D01*
X70437700Y-2500000D02*
X70600000Y-2500000D01*
X72000000Y7900000D02*
X69938300Y5838300D01*
X69938300Y5838300D02*
X69938300Y-537700D01*
X69938300Y-537700D02*
X71325300Y-1924700D01*
X71325300Y-1924700D02*
X71325300Y-2500000D01*
X68100000Y-2500000D02*
X69550000Y-2500000D01*
M02*
