G04 #@! TF.GenerationSoftware,KiCad,Pcbnew,(5.1.4)-1*
G04 #@! TF.CreationDate,2020-06-07T15:02:50-04:00*
G04 #@! TF.ProjectId,splitreus,73706c69-7472-4657-9573-2e6b69636164,1*
G04 #@! TF.SameCoordinates,Original*
G04 #@! TF.FileFunction,Paste,Top*
G04 #@! TF.FilePolarity,Positive*
%FSLAX46Y46*%
G04 Gerber Fmt 4.6, Leading zero omitted, Abs format (unit mm)*
G04 Created by KiCad (PCBNEW (5.1.4)-1) date 2020-06-07 15:02:50*
%MOMM*%
%LPD*%
G04 APERTURE LIST*
%ADD10R,1.600000X1.200000*%
%ADD11R,1.200000X1.600000*%
%ADD12R,1.000000X0.650000*%
%ADD13R,0.650000X1.000000*%
%ADD14C,0.100000*%
%ADD15C,0.875000*%
%ADD16R,2.000000X2.400000*%
%ADD17R,0.800000X0.900000*%
%ADD18R,0.600000X1.000000*%
%ADD19R,0.600000X1.100000*%
%ADD20R,1.000000X0.600000*%
%ADD21R,0.900000X1.200000*%
%ADD22R,0.600000X0.800000*%
%ADD23R,0.300000X0.800000*%
%ADD24R,1.060000X0.650000*%
G04 APERTURE END LIST*
D10*
X96400000Y-50500000D03*
X93600000Y-50500000D03*
D11*
X104500000Y-63600000D03*
X104500000Y-66400000D03*
X104500000Y-75600000D03*
X104500000Y-78400000D03*
D10*
X96400000Y-69500000D03*
X93600000Y-69500000D03*
X96400000Y-31500000D03*
X93600000Y-31500000D03*
X96400000Y-12500000D03*
X93600000Y-12500000D03*
D11*
X85500000Y-72600000D03*
X85500000Y-75400000D03*
D10*
X77400000Y-64500000D03*
X74600000Y-64500000D03*
X77400000Y-45500000D03*
X74600000Y-45500000D03*
X77400000Y-26500000D03*
X74600000Y-26500000D03*
X77400000Y-7500000D03*
X74600000Y-7500000D03*
D11*
X66500000Y-66600000D03*
X66500000Y-69400000D03*
D10*
X58400000Y-58500000D03*
X55600000Y-58500000D03*
X58400000Y-39500000D03*
X55600000Y-39500000D03*
X58400000Y-1500000D03*
X55600000Y-1500000D03*
D11*
X47500000Y-70600000D03*
X47500000Y-73400000D03*
D10*
X39400000Y-63500000D03*
X36600000Y-63500000D03*
X39400000Y-44500000D03*
X36600000Y-44500000D03*
X39400000Y-25500000D03*
X36600000Y-25500000D03*
X39400000Y-6500000D03*
X36600000Y-6500000D03*
D11*
X28500000Y-74600000D03*
X28500000Y-77400000D03*
D10*
X20400000Y-66500000D03*
X17600000Y-66500000D03*
X20400000Y-47500000D03*
X17600000Y-47500000D03*
X20400000Y-28500000D03*
X17600000Y-28500000D03*
X20400000Y-9500000D03*
X17600000Y-9500000D03*
X58400000Y-20500000D03*
X55600000Y-20500000D03*
D11*
X9500000Y-74600000D03*
X9500000Y-77400000D03*
D10*
X1400000Y-66500000D03*
X-1400000Y-66500000D03*
X1400000Y-47500000D03*
X-1400000Y-47500000D03*
X1400000Y-28500000D03*
X-1400000Y-28500000D03*
X1400000Y-9500000D03*
X-1400000Y-9500000D03*
D12*
X117494200Y-37008800D03*
X107334200Y-39040800D03*
X107334200Y-37770800D03*
X107334200Y-36500800D03*
X107334200Y-35230800D03*
X107334200Y-33960800D03*
X107334200Y-32690800D03*
X107334200Y-31420800D03*
X107334200Y-30150800D03*
X107334200Y-28880800D03*
X107334200Y-27610800D03*
X119572200Y-35230800D03*
X119572200Y-27610800D03*
X119572200Y-33960800D03*
X119572200Y-28880800D03*
X119572200Y-30150800D03*
X119572200Y-31420800D03*
X119572200Y-36500800D03*
X119572200Y-32690800D03*
X119572200Y-37770800D03*
X119572200Y-39040800D03*
D13*
X116603200Y-41259800D03*
X108983200Y-41259800D03*
X115333200Y-41259800D03*
X110253200Y-41259800D03*
X111523200Y-41259800D03*
X112793200Y-41259800D03*
X117873200Y-41259800D03*
X114063200Y-41259800D03*
D12*
X117494200Y-35738800D03*
X117494200Y-34468800D03*
X117494200Y-33198800D03*
X117494200Y-31928800D03*
X117494200Y-30658800D03*
X117494200Y-29388800D03*
X117494200Y-28118800D03*
D13*
X110890200Y-39548800D03*
X109620200Y-39548800D03*
X114700200Y-39548800D03*
X112160200Y-39548800D03*
X115970200Y-39548800D03*
X117240200Y-39548800D03*
X113430200Y-39548800D03*
D14*
G36*
X123205091Y-38689853D02*
G01*
X123226326Y-38693003D01*
X123247150Y-38698219D01*
X123267362Y-38705451D01*
X123286768Y-38714630D01*
X123305181Y-38725666D01*
X123322424Y-38738454D01*
X123338330Y-38752870D01*
X123352746Y-38768776D01*
X123365534Y-38786019D01*
X123376570Y-38804432D01*
X123385749Y-38823838D01*
X123392981Y-38844050D01*
X123398197Y-38864874D01*
X123401347Y-38886109D01*
X123402400Y-38907550D01*
X123402400Y-39345050D01*
X123401347Y-39366491D01*
X123398197Y-39387726D01*
X123392981Y-39408550D01*
X123385749Y-39428762D01*
X123376570Y-39448168D01*
X123365534Y-39466581D01*
X123352746Y-39483824D01*
X123338330Y-39499730D01*
X123322424Y-39514146D01*
X123305181Y-39526934D01*
X123286768Y-39537970D01*
X123267362Y-39547149D01*
X123247150Y-39554381D01*
X123226326Y-39559597D01*
X123205091Y-39562747D01*
X123183650Y-39563800D01*
X122671150Y-39563800D01*
X122649709Y-39562747D01*
X122628474Y-39559597D01*
X122607650Y-39554381D01*
X122587438Y-39547149D01*
X122568032Y-39537970D01*
X122549619Y-39526934D01*
X122532376Y-39514146D01*
X122516470Y-39499730D01*
X122502054Y-39483824D01*
X122489266Y-39466581D01*
X122478230Y-39448168D01*
X122469051Y-39428762D01*
X122461819Y-39408550D01*
X122456603Y-39387726D01*
X122453453Y-39366491D01*
X122452400Y-39345050D01*
X122452400Y-38907550D01*
X122453453Y-38886109D01*
X122456603Y-38864874D01*
X122461819Y-38844050D01*
X122469051Y-38823838D01*
X122478230Y-38804432D01*
X122489266Y-38786019D01*
X122502054Y-38768776D01*
X122516470Y-38752870D01*
X122532376Y-38738454D01*
X122549619Y-38725666D01*
X122568032Y-38714630D01*
X122587438Y-38705451D01*
X122607650Y-38698219D01*
X122628474Y-38693003D01*
X122649709Y-38689853D01*
X122671150Y-38688800D01*
X123183650Y-38688800D01*
X123205091Y-38689853D01*
X123205091Y-38689853D01*
G37*
D15*
X122927400Y-39126300D03*
D14*
G36*
X123205091Y-37114853D02*
G01*
X123226326Y-37118003D01*
X123247150Y-37123219D01*
X123267362Y-37130451D01*
X123286768Y-37139630D01*
X123305181Y-37150666D01*
X123322424Y-37163454D01*
X123338330Y-37177870D01*
X123352746Y-37193776D01*
X123365534Y-37211019D01*
X123376570Y-37229432D01*
X123385749Y-37248838D01*
X123392981Y-37269050D01*
X123398197Y-37289874D01*
X123401347Y-37311109D01*
X123402400Y-37332550D01*
X123402400Y-37770050D01*
X123401347Y-37791491D01*
X123398197Y-37812726D01*
X123392981Y-37833550D01*
X123385749Y-37853762D01*
X123376570Y-37873168D01*
X123365534Y-37891581D01*
X123352746Y-37908824D01*
X123338330Y-37924730D01*
X123322424Y-37939146D01*
X123305181Y-37951934D01*
X123286768Y-37962970D01*
X123267362Y-37972149D01*
X123247150Y-37979381D01*
X123226326Y-37984597D01*
X123205091Y-37987747D01*
X123183650Y-37988800D01*
X122671150Y-37988800D01*
X122649709Y-37987747D01*
X122628474Y-37984597D01*
X122607650Y-37979381D01*
X122587438Y-37972149D01*
X122568032Y-37962970D01*
X122549619Y-37951934D01*
X122532376Y-37939146D01*
X122516470Y-37924730D01*
X122502054Y-37908824D01*
X122489266Y-37891581D01*
X122478230Y-37873168D01*
X122469051Y-37853762D01*
X122461819Y-37833550D01*
X122456603Y-37812726D01*
X122453453Y-37791491D01*
X122452400Y-37770050D01*
X122452400Y-37332550D01*
X122453453Y-37311109D01*
X122456603Y-37289874D01*
X122461819Y-37269050D01*
X122469051Y-37248838D01*
X122478230Y-37229432D01*
X122489266Y-37211019D01*
X122502054Y-37193776D01*
X122516470Y-37177870D01*
X122532376Y-37163454D01*
X122549619Y-37150666D01*
X122568032Y-37139630D01*
X122587438Y-37130451D01*
X122607650Y-37123219D01*
X122628474Y-37118003D01*
X122649709Y-37114853D01*
X122671150Y-37113800D01*
X123183650Y-37113800D01*
X123205091Y-37114853D01*
X123205091Y-37114853D01*
G37*
D15*
X122927400Y-37551300D03*
D14*
G36*
X119191891Y-53802853D02*
G01*
X119213126Y-53806003D01*
X119233950Y-53811219D01*
X119254162Y-53818451D01*
X119273568Y-53827630D01*
X119291981Y-53838666D01*
X119309224Y-53851454D01*
X119325130Y-53865870D01*
X119339546Y-53881776D01*
X119352334Y-53899019D01*
X119363370Y-53917432D01*
X119372549Y-53936838D01*
X119379781Y-53957050D01*
X119384997Y-53977874D01*
X119388147Y-53999109D01*
X119389200Y-54020550D01*
X119389200Y-54458050D01*
X119388147Y-54479491D01*
X119384997Y-54500726D01*
X119379781Y-54521550D01*
X119372549Y-54541762D01*
X119363370Y-54561168D01*
X119352334Y-54579581D01*
X119339546Y-54596824D01*
X119325130Y-54612730D01*
X119309224Y-54627146D01*
X119291981Y-54639934D01*
X119273568Y-54650970D01*
X119254162Y-54660149D01*
X119233950Y-54667381D01*
X119213126Y-54672597D01*
X119191891Y-54675747D01*
X119170450Y-54676800D01*
X118657950Y-54676800D01*
X118636509Y-54675747D01*
X118615274Y-54672597D01*
X118594450Y-54667381D01*
X118574238Y-54660149D01*
X118554832Y-54650970D01*
X118536419Y-54639934D01*
X118519176Y-54627146D01*
X118503270Y-54612730D01*
X118488854Y-54596824D01*
X118476066Y-54579581D01*
X118465030Y-54561168D01*
X118455851Y-54541762D01*
X118448619Y-54521550D01*
X118443403Y-54500726D01*
X118440253Y-54479491D01*
X118439200Y-54458050D01*
X118439200Y-54020550D01*
X118440253Y-53999109D01*
X118443403Y-53977874D01*
X118448619Y-53957050D01*
X118455851Y-53936838D01*
X118465030Y-53917432D01*
X118476066Y-53899019D01*
X118488854Y-53881776D01*
X118503270Y-53865870D01*
X118519176Y-53851454D01*
X118536419Y-53838666D01*
X118554832Y-53827630D01*
X118574238Y-53818451D01*
X118594450Y-53811219D01*
X118615274Y-53806003D01*
X118636509Y-53802853D01*
X118657950Y-53801800D01*
X119170450Y-53801800D01*
X119191891Y-53802853D01*
X119191891Y-53802853D01*
G37*
D15*
X118914200Y-54239300D03*
D14*
G36*
X119191891Y-52227853D02*
G01*
X119213126Y-52231003D01*
X119233950Y-52236219D01*
X119254162Y-52243451D01*
X119273568Y-52252630D01*
X119291981Y-52263666D01*
X119309224Y-52276454D01*
X119325130Y-52290870D01*
X119339546Y-52306776D01*
X119352334Y-52324019D01*
X119363370Y-52342432D01*
X119372549Y-52361838D01*
X119379781Y-52382050D01*
X119384997Y-52402874D01*
X119388147Y-52424109D01*
X119389200Y-52445550D01*
X119389200Y-52883050D01*
X119388147Y-52904491D01*
X119384997Y-52925726D01*
X119379781Y-52946550D01*
X119372549Y-52966762D01*
X119363370Y-52986168D01*
X119352334Y-53004581D01*
X119339546Y-53021824D01*
X119325130Y-53037730D01*
X119309224Y-53052146D01*
X119291981Y-53064934D01*
X119273568Y-53075970D01*
X119254162Y-53085149D01*
X119233950Y-53092381D01*
X119213126Y-53097597D01*
X119191891Y-53100747D01*
X119170450Y-53101800D01*
X118657950Y-53101800D01*
X118636509Y-53100747D01*
X118615274Y-53097597D01*
X118594450Y-53092381D01*
X118574238Y-53085149D01*
X118554832Y-53075970D01*
X118536419Y-53064934D01*
X118519176Y-53052146D01*
X118503270Y-53037730D01*
X118488854Y-53021824D01*
X118476066Y-53004581D01*
X118465030Y-52986168D01*
X118455851Y-52966762D01*
X118448619Y-52946550D01*
X118443403Y-52925726D01*
X118440253Y-52904491D01*
X118439200Y-52883050D01*
X118439200Y-52445550D01*
X118440253Y-52424109D01*
X118443403Y-52402874D01*
X118448619Y-52382050D01*
X118455851Y-52361838D01*
X118465030Y-52342432D01*
X118476066Y-52324019D01*
X118488854Y-52306776D01*
X118503270Y-52290870D01*
X118519176Y-52276454D01*
X118536419Y-52263666D01*
X118554832Y-52252630D01*
X118574238Y-52243451D01*
X118594450Y-52236219D01*
X118615274Y-52231003D01*
X118636509Y-52227853D01*
X118657950Y-52226800D01*
X119170450Y-52226800D01*
X119191891Y-52227853D01*
X119191891Y-52227853D01*
G37*
D15*
X118914200Y-52664300D03*
D14*
G36*
X117056171Y-53802853D02*
G01*
X117077406Y-53806003D01*
X117098230Y-53811219D01*
X117118442Y-53818451D01*
X117137848Y-53827630D01*
X117156261Y-53838666D01*
X117173504Y-53851454D01*
X117189410Y-53865870D01*
X117203826Y-53881776D01*
X117216614Y-53899019D01*
X117227650Y-53917432D01*
X117236829Y-53936838D01*
X117244061Y-53957050D01*
X117249277Y-53977874D01*
X117252427Y-53999109D01*
X117253480Y-54020550D01*
X117253480Y-54458050D01*
X117252427Y-54479491D01*
X117249277Y-54500726D01*
X117244061Y-54521550D01*
X117236829Y-54541762D01*
X117227650Y-54561168D01*
X117216614Y-54579581D01*
X117203826Y-54596824D01*
X117189410Y-54612730D01*
X117173504Y-54627146D01*
X117156261Y-54639934D01*
X117137848Y-54650970D01*
X117118442Y-54660149D01*
X117098230Y-54667381D01*
X117077406Y-54672597D01*
X117056171Y-54675747D01*
X117034730Y-54676800D01*
X116522230Y-54676800D01*
X116500789Y-54675747D01*
X116479554Y-54672597D01*
X116458730Y-54667381D01*
X116438518Y-54660149D01*
X116419112Y-54650970D01*
X116400699Y-54639934D01*
X116383456Y-54627146D01*
X116367550Y-54612730D01*
X116353134Y-54596824D01*
X116340346Y-54579581D01*
X116329310Y-54561168D01*
X116320131Y-54541762D01*
X116312899Y-54521550D01*
X116307683Y-54500726D01*
X116304533Y-54479491D01*
X116303480Y-54458050D01*
X116303480Y-54020550D01*
X116304533Y-53999109D01*
X116307683Y-53977874D01*
X116312899Y-53957050D01*
X116320131Y-53936838D01*
X116329310Y-53917432D01*
X116340346Y-53899019D01*
X116353134Y-53881776D01*
X116367550Y-53865870D01*
X116383456Y-53851454D01*
X116400699Y-53838666D01*
X116419112Y-53827630D01*
X116438518Y-53818451D01*
X116458730Y-53811219D01*
X116479554Y-53806003D01*
X116500789Y-53802853D01*
X116522230Y-53801800D01*
X117034730Y-53801800D01*
X117056171Y-53802853D01*
X117056171Y-53802853D01*
G37*
D15*
X116778480Y-54239300D03*
D14*
G36*
X117056171Y-52227853D02*
G01*
X117077406Y-52231003D01*
X117098230Y-52236219D01*
X117118442Y-52243451D01*
X117137848Y-52252630D01*
X117156261Y-52263666D01*
X117173504Y-52276454D01*
X117189410Y-52290870D01*
X117203826Y-52306776D01*
X117216614Y-52324019D01*
X117227650Y-52342432D01*
X117236829Y-52361838D01*
X117244061Y-52382050D01*
X117249277Y-52402874D01*
X117252427Y-52424109D01*
X117253480Y-52445550D01*
X117253480Y-52883050D01*
X117252427Y-52904491D01*
X117249277Y-52925726D01*
X117244061Y-52946550D01*
X117236829Y-52966762D01*
X117227650Y-52986168D01*
X117216614Y-53004581D01*
X117203826Y-53021824D01*
X117189410Y-53037730D01*
X117173504Y-53052146D01*
X117156261Y-53064934D01*
X117137848Y-53075970D01*
X117118442Y-53085149D01*
X117098230Y-53092381D01*
X117077406Y-53097597D01*
X117056171Y-53100747D01*
X117034730Y-53101800D01*
X116522230Y-53101800D01*
X116500789Y-53100747D01*
X116479554Y-53097597D01*
X116458730Y-53092381D01*
X116438518Y-53085149D01*
X116419112Y-53075970D01*
X116400699Y-53064934D01*
X116383456Y-53052146D01*
X116367550Y-53037730D01*
X116353134Y-53021824D01*
X116340346Y-53004581D01*
X116329310Y-52986168D01*
X116320131Y-52966762D01*
X116312899Y-52946550D01*
X116307683Y-52925726D01*
X116304533Y-52904491D01*
X116303480Y-52883050D01*
X116303480Y-52445550D01*
X116304533Y-52424109D01*
X116307683Y-52402874D01*
X116312899Y-52382050D01*
X116320131Y-52361838D01*
X116329310Y-52342432D01*
X116340346Y-52324019D01*
X116353134Y-52306776D01*
X116367550Y-52290870D01*
X116383456Y-52276454D01*
X116400699Y-52263666D01*
X116419112Y-52252630D01*
X116438518Y-52243451D01*
X116458730Y-52236219D01*
X116479554Y-52231003D01*
X116500789Y-52227853D01*
X116522230Y-52226800D01*
X117034730Y-52226800D01*
X117056171Y-52227853D01*
X117056171Y-52227853D01*
G37*
D15*
X116778480Y-52664300D03*
D14*
G36*
X114920455Y-53802853D02*
G01*
X114941690Y-53806003D01*
X114962514Y-53811219D01*
X114982726Y-53818451D01*
X115002132Y-53827630D01*
X115020545Y-53838666D01*
X115037788Y-53851454D01*
X115053694Y-53865870D01*
X115068110Y-53881776D01*
X115080898Y-53899019D01*
X115091934Y-53917432D01*
X115101113Y-53936838D01*
X115108345Y-53957050D01*
X115113561Y-53977874D01*
X115116711Y-53999109D01*
X115117764Y-54020550D01*
X115117764Y-54458050D01*
X115116711Y-54479491D01*
X115113561Y-54500726D01*
X115108345Y-54521550D01*
X115101113Y-54541762D01*
X115091934Y-54561168D01*
X115080898Y-54579581D01*
X115068110Y-54596824D01*
X115053694Y-54612730D01*
X115037788Y-54627146D01*
X115020545Y-54639934D01*
X115002132Y-54650970D01*
X114982726Y-54660149D01*
X114962514Y-54667381D01*
X114941690Y-54672597D01*
X114920455Y-54675747D01*
X114899014Y-54676800D01*
X114386514Y-54676800D01*
X114365073Y-54675747D01*
X114343838Y-54672597D01*
X114323014Y-54667381D01*
X114302802Y-54660149D01*
X114283396Y-54650970D01*
X114264983Y-54639934D01*
X114247740Y-54627146D01*
X114231834Y-54612730D01*
X114217418Y-54596824D01*
X114204630Y-54579581D01*
X114193594Y-54561168D01*
X114184415Y-54541762D01*
X114177183Y-54521550D01*
X114171967Y-54500726D01*
X114168817Y-54479491D01*
X114167764Y-54458050D01*
X114167764Y-54020550D01*
X114168817Y-53999109D01*
X114171967Y-53977874D01*
X114177183Y-53957050D01*
X114184415Y-53936838D01*
X114193594Y-53917432D01*
X114204630Y-53899019D01*
X114217418Y-53881776D01*
X114231834Y-53865870D01*
X114247740Y-53851454D01*
X114264983Y-53838666D01*
X114283396Y-53827630D01*
X114302802Y-53818451D01*
X114323014Y-53811219D01*
X114343838Y-53806003D01*
X114365073Y-53802853D01*
X114386514Y-53801800D01*
X114899014Y-53801800D01*
X114920455Y-53802853D01*
X114920455Y-53802853D01*
G37*
D15*
X114642764Y-54239300D03*
D14*
G36*
X114920455Y-52227853D02*
G01*
X114941690Y-52231003D01*
X114962514Y-52236219D01*
X114982726Y-52243451D01*
X115002132Y-52252630D01*
X115020545Y-52263666D01*
X115037788Y-52276454D01*
X115053694Y-52290870D01*
X115068110Y-52306776D01*
X115080898Y-52324019D01*
X115091934Y-52342432D01*
X115101113Y-52361838D01*
X115108345Y-52382050D01*
X115113561Y-52402874D01*
X115116711Y-52424109D01*
X115117764Y-52445550D01*
X115117764Y-52883050D01*
X115116711Y-52904491D01*
X115113561Y-52925726D01*
X115108345Y-52946550D01*
X115101113Y-52966762D01*
X115091934Y-52986168D01*
X115080898Y-53004581D01*
X115068110Y-53021824D01*
X115053694Y-53037730D01*
X115037788Y-53052146D01*
X115020545Y-53064934D01*
X115002132Y-53075970D01*
X114982726Y-53085149D01*
X114962514Y-53092381D01*
X114941690Y-53097597D01*
X114920455Y-53100747D01*
X114899014Y-53101800D01*
X114386514Y-53101800D01*
X114365073Y-53100747D01*
X114343838Y-53097597D01*
X114323014Y-53092381D01*
X114302802Y-53085149D01*
X114283396Y-53075970D01*
X114264983Y-53064934D01*
X114247740Y-53052146D01*
X114231834Y-53037730D01*
X114217418Y-53021824D01*
X114204630Y-53004581D01*
X114193594Y-52986168D01*
X114184415Y-52966762D01*
X114177183Y-52946550D01*
X114171967Y-52925726D01*
X114168817Y-52904491D01*
X114167764Y-52883050D01*
X114167764Y-52445550D01*
X114168817Y-52424109D01*
X114171967Y-52402874D01*
X114177183Y-52382050D01*
X114184415Y-52361838D01*
X114193594Y-52342432D01*
X114204630Y-52324019D01*
X114217418Y-52306776D01*
X114231834Y-52290870D01*
X114247740Y-52276454D01*
X114264983Y-52263666D01*
X114283396Y-52252630D01*
X114302802Y-52243451D01*
X114323014Y-52236219D01*
X114343838Y-52231003D01*
X114365073Y-52227853D01*
X114386514Y-52226800D01*
X114899014Y-52226800D01*
X114920455Y-52227853D01*
X114920455Y-52227853D01*
G37*
D15*
X114642764Y-52664300D03*
D16*
X109562800Y-45826400D03*
X105862800Y-45826400D03*
D17*
X121403400Y-50806900D03*
X120453400Y-48806900D03*
X122353400Y-48806900D03*
D18*
X121679000Y-16704800D03*
D19*
X123965000Y-16704800D03*
X121679000Y-23904800D03*
D20*
X120972000Y-19604800D03*
X120972000Y-18104800D03*
X120972000Y-22504800D03*
D18*
X123965000Y-23904800D03*
D14*
G36*
X118247991Y-50157953D02*
G01*
X118269226Y-50161103D01*
X118290050Y-50166319D01*
X118310262Y-50173551D01*
X118329668Y-50182730D01*
X118348081Y-50193766D01*
X118365324Y-50206554D01*
X118381230Y-50220970D01*
X118395646Y-50236876D01*
X118408434Y-50254119D01*
X118419470Y-50272532D01*
X118428649Y-50291938D01*
X118435881Y-50312150D01*
X118441097Y-50332974D01*
X118444247Y-50354209D01*
X118445300Y-50375650D01*
X118445300Y-50813150D01*
X118444247Y-50834591D01*
X118441097Y-50855826D01*
X118435881Y-50876650D01*
X118428649Y-50896862D01*
X118419470Y-50916268D01*
X118408434Y-50934681D01*
X118395646Y-50951924D01*
X118381230Y-50967830D01*
X118365324Y-50982246D01*
X118348081Y-50995034D01*
X118329668Y-51006070D01*
X118310262Y-51015249D01*
X118290050Y-51022481D01*
X118269226Y-51027697D01*
X118247991Y-51030847D01*
X118226550Y-51031900D01*
X117714050Y-51031900D01*
X117692609Y-51030847D01*
X117671374Y-51027697D01*
X117650550Y-51022481D01*
X117630338Y-51015249D01*
X117610932Y-51006070D01*
X117592519Y-50995034D01*
X117575276Y-50982246D01*
X117559370Y-50967830D01*
X117544954Y-50951924D01*
X117532166Y-50934681D01*
X117521130Y-50916268D01*
X117511951Y-50896862D01*
X117504719Y-50876650D01*
X117499503Y-50855826D01*
X117496353Y-50834591D01*
X117495300Y-50813150D01*
X117495300Y-50375650D01*
X117496353Y-50354209D01*
X117499503Y-50332974D01*
X117504719Y-50312150D01*
X117511951Y-50291938D01*
X117521130Y-50272532D01*
X117532166Y-50254119D01*
X117544954Y-50236876D01*
X117559370Y-50220970D01*
X117575276Y-50206554D01*
X117592519Y-50193766D01*
X117610932Y-50182730D01*
X117630338Y-50173551D01*
X117650550Y-50166319D01*
X117671374Y-50161103D01*
X117692609Y-50157953D01*
X117714050Y-50156900D01*
X118226550Y-50156900D01*
X118247991Y-50157953D01*
X118247991Y-50157953D01*
G37*
D15*
X117970300Y-50594400D03*
D14*
G36*
X118247991Y-48582953D02*
G01*
X118269226Y-48586103D01*
X118290050Y-48591319D01*
X118310262Y-48598551D01*
X118329668Y-48607730D01*
X118348081Y-48618766D01*
X118365324Y-48631554D01*
X118381230Y-48645970D01*
X118395646Y-48661876D01*
X118408434Y-48679119D01*
X118419470Y-48697532D01*
X118428649Y-48716938D01*
X118435881Y-48737150D01*
X118441097Y-48757974D01*
X118444247Y-48779209D01*
X118445300Y-48800650D01*
X118445300Y-49238150D01*
X118444247Y-49259591D01*
X118441097Y-49280826D01*
X118435881Y-49301650D01*
X118428649Y-49321862D01*
X118419470Y-49341268D01*
X118408434Y-49359681D01*
X118395646Y-49376924D01*
X118381230Y-49392830D01*
X118365324Y-49407246D01*
X118348081Y-49420034D01*
X118329668Y-49431070D01*
X118310262Y-49440249D01*
X118290050Y-49447481D01*
X118269226Y-49452697D01*
X118247991Y-49455847D01*
X118226550Y-49456900D01*
X117714050Y-49456900D01*
X117692609Y-49455847D01*
X117671374Y-49452697D01*
X117650550Y-49447481D01*
X117630338Y-49440249D01*
X117610932Y-49431070D01*
X117592519Y-49420034D01*
X117575276Y-49407246D01*
X117559370Y-49392830D01*
X117544954Y-49376924D01*
X117532166Y-49359681D01*
X117521130Y-49341268D01*
X117511951Y-49321862D01*
X117504719Y-49301650D01*
X117499503Y-49280826D01*
X117496353Y-49259591D01*
X117495300Y-49238150D01*
X117495300Y-48800650D01*
X117496353Y-48779209D01*
X117499503Y-48757974D01*
X117504719Y-48737150D01*
X117511951Y-48716938D01*
X117521130Y-48697532D01*
X117532166Y-48679119D01*
X117544954Y-48661876D01*
X117559370Y-48645970D01*
X117575276Y-48631554D01*
X117592519Y-48618766D01*
X117610932Y-48607730D01*
X117630338Y-48598551D01*
X117650550Y-48591319D01*
X117671374Y-48586103D01*
X117692609Y-48582953D01*
X117714050Y-48581900D01*
X118226550Y-48581900D01*
X118247991Y-48582953D01*
X118247991Y-48582953D01*
G37*
D15*
X117970300Y-49019400D03*
D14*
G36*
X112784739Y-53802853D02*
G01*
X112805974Y-53806003D01*
X112826798Y-53811219D01*
X112847010Y-53818451D01*
X112866416Y-53827630D01*
X112884829Y-53838666D01*
X112902072Y-53851454D01*
X112917978Y-53865870D01*
X112932394Y-53881776D01*
X112945182Y-53899019D01*
X112956218Y-53917432D01*
X112965397Y-53936838D01*
X112972629Y-53957050D01*
X112977845Y-53977874D01*
X112980995Y-53999109D01*
X112982048Y-54020550D01*
X112982048Y-54458050D01*
X112980995Y-54479491D01*
X112977845Y-54500726D01*
X112972629Y-54521550D01*
X112965397Y-54541762D01*
X112956218Y-54561168D01*
X112945182Y-54579581D01*
X112932394Y-54596824D01*
X112917978Y-54612730D01*
X112902072Y-54627146D01*
X112884829Y-54639934D01*
X112866416Y-54650970D01*
X112847010Y-54660149D01*
X112826798Y-54667381D01*
X112805974Y-54672597D01*
X112784739Y-54675747D01*
X112763298Y-54676800D01*
X112250798Y-54676800D01*
X112229357Y-54675747D01*
X112208122Y-54672597D01*
X112187298Y-54667381D01*
X112167086Y-54660149D01*
X112147680Y-54650970D01*
X112129267Y-54639934D01*
X112112024Y-54627146D01*
X112096118Y-54612730D01*
X112081702Y-54596824D01*
X112068914Y-54579581D01*
X112057878Y-54561168D01*
X112048699Y-54541762D01*
X112041467Y-54521550D01*
X112036251Y-54500726D01*
X112033101Y-54479491D01*
X112032048Y-54458050D01*
X112032048Y-54020550D01*
X112033101Y-53999109D01*
X112036251Y-53977874D01*
X112041467Y-53957050D01*
X112048699Y-53936838D01*
X112057878Y-53917432D01*
X112068914Y-53899019D01*
X112081702Y-53881776D01*
X112096118Y-53865870D01*
X112112024Y-53851454D01*
X112129267Y-53838666D01*
X112147680Y-53827630D01*
X112167086Y-53818451D01*
X112187298Y-53811219D01*
X112208122Y-53806003D01*
X112229357Y-53802853D01*
X112250798Y-53801800D01*
X112763298Y-53801800D01*
X112784739Y-53802853D01*
X112784739Y-53802853D01*
G37*
D15*
X112507048Y-54239300D03*
D14*
G36*
X112784739Y-52227853D02*
G01*
X112805974Y-52231003D01*
X112826798Y-52236219D01*
X112847010Y-52243451D01*
X112866416Y-52252630D01*
X112884829Y-52263666D01*
X112902072Y-52276454D01*
X112917978Y-52290870D01*
X112932394Y-52306776D01*
X112945182Y-52324019D01*
X112956218Y-52342432D01*
X112965397Y-52361838D01*
X112972629Y-52382050D01*
X112977845Y-52402874D01*
X112980995Y-52424109D01*
X112982048Y-52445550D01*
X112982048Y-52883050D01*
X112980995Y-52904491D01*
X112977845Y-52925726D01*
X112972629Y-52946550D01*
X112965397Y-52966762D01*
X112956218Y-52986168D01*
X112945182Y-53004581D01*
X112932394Y-53021824D01*
X112917978Y-53037730D01*
X112902072Y-53052146D01*
X112884829Y-53064934D01*
X112866416Y-53075970D01*
X112847010Y-53085149D01*
X112826798Y-53092381D01*
X112805974Y-53097597D01*
X112784739Y-53100747D01*
X112763298Y-53101800D01*
X112250798Y-53101800D01*
X112229357Y-53100747D01*
X112208122Y-53097597D01*
X112187298Y-53092381D01*
X112167086Y-53085149D01*
X112147680Y-53075970D01*
X112129267Y-53064934D01*
X112112024Y-53052146D01*
X112096118Y-53037730D01*
X112081702Y-53021824D01*
X112068914Y-53004581D01*
X112057878Y-52986168D01*
X112048699Y-52966762D01*
X112041467Y-52946550D01*
X112036251Y-52925726D01*
X112033101Y-52904491D01*
X112032048Y-52883050D01*
X112032048Y-52445550D01*
X112033101Y-52424109D01*
X112036251Y-52402874D01*
X112041467Y-52382050D01*
X112048699Y-52361838D01*
X112057878Y-52342432D01*
X112068914Y-52324019D01*
X112081702Y-52306776D01*
X112096118Y-52290870D01*
X112112024Y-52276454D01*
X112129267Y-52263666D01*
X112147680Y-52252630D01*
X112167086Y-52243451D01*
X112187298Y-52236219D01*
X112208122Y-52231003D01*
X112229357Y-52227853D01*
X112250798Y-52226800D01*
X112763298Y-52226800D01*
X112784739Y-52227853D01*
X112784739Y-52227853D01*
G37*
D15*
X112507048Y-52664300D03*
D14*
G36*
X117032891Y-44582453D02*
G01*
X117054126Y-44585603D01*
X117074950Y-44590819D01*
X117095162Y-44598051D01*
X117114568Y-44607230D01*
X117132981Y-44618266D01*
X117150224Y-44631054D01*
X117166130Y-44645470D01*
X117180546Y-44661376D01*
X117193334Y-44678619D01*
X117204370Y-44697032D01*
X117213549Y-44716438D01*
X117220781Y-44736650D01*
X117225997Y-44757474D01*
X117229147Y-44778709D01*
X117230200Y-44800150D01*
X117230200Y-45237650D01*
X117229147Y-45259091D01*
X117225997Y-45280326D01*
X117220781Y-45301150D01*
X117213549Y-45321362D01*
X117204370Y-45340768D01*
X117193334Y-45359181D01*
X117180546Y-45376424D01*
X117166130Y-45392330D01*
X117150224Y-45406746D01*
X117132981Y-45419534D01*
X117114568Y-45430570D01*
X117095162Y-45439749D01*
X117074950Y-45446981D01*
X117054126Y-45452197D01*
X117032891Y-45455347D01*
X117011450Y-45456400D01*
X116498950Y-45456400D01*
X116477509Y-45455347D01*
X116456274Y-45452197D01*
X116435450Y-45446981D01*
X116415238Y-45439749D01*
X116395832Y-45430570D01*
X116377419Y-45419534D01*
X116360176Y-45406746D01*
X116344270Y-45392330D01*
X116329854Y-45376424D01*
X116317066Y-45359181D01*
X116306030Y-45340768D01*
X116296851Y-45321362D01*
X116289619Y-45301150D01*
X116284403Y-45280326D01*
X116281253Y-45259091D01*
X116280200Y-45237650D01*
X116280200Y-44800150D01*
X116281253Y-44778709D01*
X116284403Y-44757474D01*
X116289619Y-44736650D01*
X116296851Y-44716438D01*
X116306030Y-44697032D01*
X116317066Y-44678619D01*
X116329854Y-44661376D01*
X116344270Y-44645470D01*
X116360176Y-44631054D01*
X116377419Y-44618266D01*
X116395832Y-44607230D01*
X116415238Y-44598051D01*
X116435450Y-44590819D01*
X116456274Y-44585603D01*
X116477509Y-44582453D01*
X116498950Y-44581400D01*
X117011450Y-44581400D01*
X117032891Y-44582453D01*
X117032891Y-44582453D01*
G37*
D15*
X116755200Y-45018900D03*
D14*
G36*
X117032891Y-46157453D02*
G01*
X117054126Y-46160603D01*
X117074950Y-46165819D01*
X117095162Y-46173051D01*
X117114568Y-46182230D01*
X117132981Y-46193266D01*
X117150224Y-46206054D01*
X117166130Y-46220470D01*
X117180546Y-46236376D01*
X117193334Y-46253619D01*
X117204370Y-46272032D01*
X117213549Y-46291438D01*
X117220781Y-46311650D01*
X117225997Y-46332474D01*
X117229147Y-46353709D01*
X117230200Y-46375150D01*
X117230200Y-46812650D01*
X117229147Y-46834091D01*
X117225997Y-46855326D01*
X117220781Y-46876150D01*
X117213549Y-46896362D01*
X117204370Y-46915768D01*
X117193334Y-46934181D01*
X117180546Y-46951424D01*
X117166130Y-46967330D01*
X117150224Y-46981746D01*
X117132981Y-46994534D01*
X117114568Y-47005570D01*
X117095162Y-47014749D01*
X117074950Y-47021981D01*
X117054126Y-47027197D01*
X117032891Y-47030347D01*
X117011450Y-47031400D01*
X116498950Y-47031400D01*
X116477509Y-47030347D01*
X116456274Y-47027197D01*
X116435450Y-47021981D01*
X116415238Y-47014749D01*
X116395832Y-47005570D01*
X116377419Y-46994534D01*
X116360176Y-46981746D01*
X116344270Y-46967330D01*
X116329854Y-46951424D01*
X116317066Y-46934181D01*
X116306030Y-46915768D01*
X116296851Y-46896362D01*
X116289619Y-46876150D01*
X116284403Y-46855326D01*
X116281253Y-46834091D01*
X116280200Y-46812650D01*
X116280200Y-46375150D01*
X116281253Y-46353709D01*
X116284403Y-46332474D01*
X116289619Y-46311650D01*
X116296851Y-46291438D01*
X116306030Y-46272032D01*
X116317066Y-46253619D01*
X116329854Y-46236376D01*
X116344270Y-46220470D01*
X116360176Y-46206054D01*
X116377419Y-46193266D01*
X116395832Y-46182230D01*
X116415238Y-46173051D01*
X116435450Y-46165819D01*
X116456274Y-46160603D01*
X116477509Y-46157453D01*
X116498950Y-46156400D01*
X117011450Y-46156400D01*
X117032891Y-46157453D01*
X117032891Y-46157453D01*
G37*
D15*
X116755200Y-46593900D03*
D21*
X120109000Y-44358600D03*
X123409000Y-44358600D03*
D14*
G36*
X106288691Y-50137953D02*
G01*
X106309926Y-50141103D01*
X106330750Y-50146319D01*
X106350962Y-50153551D01*
X106370368Y-50162730D01*
X106388781Y-50173766D01*
X106406024Y-50186554D01*
X106421930Y-50200970D01*
X106436346Y-50216876D01*
X106449134Y-50234119D01*
X106460170Y-50252532D01*
X106469349Y-50271938D01*
X106476581Y-50292150D01*
X106481797Y-50312974D01*
X106484947Y-50334209D01*
X106486000Y-50355650D01*
X106486000Y-50793150D01*
X106484947Y-50814591D01*
X106481797Y-50835826D01*
X106476581Y-50856650D01*
X106469349Y-50876862D01*
X106460170Y-50896268D01*
X106449134Y-50914681D01*
X106436346Y-50931924D01*
X106421930Y-50947830D01*
X106406024Y-50962246D01*
X106388781Y-50975034D01*
X106370368Y-50986070D01*
X106350962Y-50995249D01*
X106330750Y-51002481D01*
X106309926Y-51007697D01*
X106288691Y-51010847D01*
X106267250Y-51011900D01*
X105754750Y-51011900D01*
X105733309Y-51010847D01*
X105712074Y-51007697D01*
X105691250Y-51002481D01*
X105671038Y-50995249D01*
X105651632Y-50986070D01*
X105633219Y-50975034D01*
X105615976Y-50962246D01*
X105600070Y-50947830D01*
X105585654Y-50931924D01*
X105572866Y-50914681D01*
X105561830Y-50896268D01*
X105552651Y-50876862D01*
X105545419Y-50856650D01*
X105540203Y-50835826D01*
X105537053Y-50814591D01*
X105536000Y-50793150D01*
X105536000Y-50355650D01*
X105537053Y-50334209D01*
X105540203Y-50312974D01*
X105545419Y-50292150D01*
X105552651Y-50271938D01*
X105561830Y-50252532D01*
X105572866Y-50234119D01*
X105585654Y-50216876D01*
X105600070Y-50200970D01*
X105615976Y-50186554D01*
X105633219Y-50173766D01*
X105651632Y-50162730D01*
X105671038Y-50153551D01*
X105691250Y-50146319D01*
X105712074Y-50141103D01*
X105733309Y-50137953D01*
X105754750Y-50136900D01*
X106267250Y-50136900D01*
X106288691Y-50137953D01*
X106288691Y-50137953D01*
G37*
D15*
X106011000Y-50574400D03*
D14*
G36*
X106288691Y-48562953D02*
G01*
X106309926Y-48566103D01*
X106330750Y-48571319D01*
X106350962Y-48578551D01*
X106370368Y-48587730D01*
X106388781Y-48598766D01*
X106406024Y-48611554D01*
X106421930Y-48625970D01*
X106436346Y-48641876D01*
X106449134Y-48659119D01*
X106460170Y-48677532D01*
X106469349Y-48696938D01*
X106476581Y-48717150D01*
X106481797Y-48737974D01*
X106484947Y-48759209D01*
X106486000Y-48780650D01*
X106486000Y-49218150D01*
X106484947Y-49239591D01*
X106481797Y-49260826D01*
X106476581Y-49281650D01*
X106469349Y-49301862D01*
X106460170Y-49321268D01*
X106449134Y-49339681D01*
X106436346Y-49356924D01*
X106421930Y-49372830D01*
X106406024Y-49387246D01*
X106388781Y-49400034D01*
X106370368Y-49411070D01*
X106350962Y-49420249D01*
X106330750Y-49427481D01*
X106309926Y-49432697D01*
X106288691Y-49435847D01*
X106267250Y-49436900D01*
X105754750Y-49436900D01*
X105733309Y-49435847D01*
X105712074Y-49432697D01*
X105691250Y-49427481D01*
X105671038Y-49420249D01*
X105651632Y-49411070D01*
X105633219Y-49400034D01*
X105615976Y-49387246D01*
X105600070Y-49372830D01*
X105585654Y-49356924D01*
X105572866Y-49339681D01*
X105561830Y-49321268D01*
X105552651Y-49301862D01*
X105545419Y-49281650D01*
X105540203Y-49260826D01*
X105537053Y-49239591D01*
X105536000Y-49218150D01*
X105536000Y-48780650D01*
X105537053Y-48759209D01*
X105540203Y-48737974D01*
X105545419Y-48717150D01*
X105552651Y-48696938D01*
X105561830Y-48677532D01*
X105572866Y-48659119D01*
X105585654Y-48641876D01*
X105600070Y-48625970D01*
X105615976Y-48611554D01*
X105633219Y-48598766D01*
X105651632Y-48587730D01*
X105671038Y-48578551D01*
X105691250Y-48571319D01*
X105712074Y-48566103D01*
X105733309Y-48562953D01*
X105754750Y-48561900D01*
X106267250Y-48561900D01*
X106288691Y-48562953D01*
X106288691Y-48562953D01*
G37*
D15*
X106011000Y-48999400D03*
D22*
X110253200Y-22605800D03*
X116653200Y-22605800D03*
X115853200Y-22605800D03*
X111053200Y-22605800D03*
D23*
X112703200Y-22605800D03*
X114203200Y-22605800D03*
X113203200Y-22605800D03*
X113703200Y-22605800D03*
X114703200Y-22605800D03*
X115203200Y-22605800D03*
X112203200Y-22605800D03*
X111703200Y-22605800D03*
D14*
G36*
X106377591Y-53802853D02*
G01*
X106398826Y-53806003D01*
X106419650Y-53811219D01*
X106439862Y-53818451D01*
X106459268Y-53827630D01*
X106477681Y-53838666D01*
X106494924Y-53851454D01*
X106510830Y-53865870D01*
X106525246Y-53881776D01*
X106538034Y-53899019D01*
X106549070Y-53917432D01*
X106558249Y-53936838D01*
X106565481Y-53957050D01*
X106570697Y-53977874D01*
X106573847Y-53999109D01*
X106574900Y-54020550D01*
X106574900Y-54458050D01*
X106573847Y-54479491D01*
X106570697Y-54500726D01*
X106565481Y-54521550D01*
X106558249Y-54541762D01*
X106549070Y-54561168D01*
X106538034Y-54579581D01*
X106525246Y-54596824D01*
X106510830Y-54612730D01*
X106494924Y-54627146D01*
X106477681Y-54639934D01*
X106459268Y-54650970D01*
X106439862Y-54660149D01*
X106419650Y-54667381D01*
X106398826Y-54672597D01*
X106377591Y-54675747D01*
X106356150Y-54676800D01*
X105843650Y-54676800D01*
X105822209Y-54675747D01*
X105800974Y-54672597D01*
X105780150Y-54667381D01*
X105759938Y-54660149D01*
X105740532Y-54650970D01*
X105722119Y-54639934D01*
X105704876Y-54627146D01*
X105688970Y-54612730D01*
X105674554Y-54596824D01*
X105661766Y-54579581D01*
X105650730Y-54561168D01*
X105641551Y-54541762D01*
X105634319Y-54521550D01*
X105629103Y-54500726D01*
X105625953Y-54479491D01*
X105624900Y-54458050D01*
X105624900Y-54020550D01*
X105625953Y-53999109D01*
X105629103Y-53977874D01*
X105634319Y-53957050D01*
X105641551Y-53936838D01*
X105650730Y-53917432D01*
X105661766Y-53899019D01*
X105674554Y-53881776D01*
X105688970Y-53865870D01*
X105704876Y-53851454D01*
X105722119Y-53838666D01*
X105740532Y-53827630D01*
X105759938Y-53818451D01*
X105780150Y-53811219D01*
X105800974Y-53806003D01*
X105822209Y-53802853D01*
X105843650Y-53801800D01*
X106356150Y-53801800D01*
X106377591Y-53802853D01*
X106377591Y-53802853D01*
G37*
D15*
X106099900Y-54239300D03*
D14*
G36*
X106377591Y-52227853D02*
G01*
X106398826Y-52231003D01*
X106419650Y-52236219D01*
X106439862Y-52243451D01*
X106459268Y-52252630D01*
X106477681Y-52263666D01*
X106494924Y-52276454D01*
X106510830Y-52290870D01*
X106525246Y-52306776D01*
X106538034Y-52324019D01*
X106549070Y-52342432D01*
X106558249Y-52361838D01*
X106565481Y-52382050D01*
X106570697Y-52402874D01*
X106573847Y-52424109D01*
X106574900Y-52445550D01*
X106574900Y-52883050D01*
X106573847Y-52904491D01*
X106570697Y-52925726D01*
X106565481Y-52946550D01*
X106558249Y-52966762D01*
X106549070Y-52986168D01*
X106538034Y-53004581D01*
X106525246Y-53021824D01*
X106510830Y-53037730D01*
X106494924Y-53052146D01*
X106477681Y-53064934D01*
X106459268Y-53075970D01*
X106439862Y-53085149D01*
X106419650Y-53092381D01*
X106398826Y-53097597D01*
X106377591Y-53100747D01*
X106356150Y-53101800D01*
X105843650Y-53101800D01*
X105822209Y-53100747D01*
X105800974Y-53097597D01*
X105780150Y-53092381D01*
X105759938Y-53085149D01*
X105740532Y-53075970D01*
X105722119Y-53064934D01*
X105704876Y-53052146D01*
X105688970Y-53037730D01*
X105674554Y-53021824D01*
X105661766Y-53004581D01*
X105650730Y-52986168D01*
X105641551Y-52966762D01*
X105634319Y-52946550D01*
X105629103Y-52925726D01*
X105625953Y-52904491D01*
X105624900Y-52883050D01*
X105624900Y-52445550D01*
X105625953Y-52424109D01*
X105629103Y-52402874D01*
X105634319Y-52382050D01*
X105641551Y-52361838D01*
X105650730Y-52342432D01*
X105661766Y-52324019D01*
X105674554Y-52306776D01*
X105688970Y-52290870D01*
X105704876Y-52276454D01*
X105722119Y-52263666D01*
X105740532Y-52252630D01*
X105759938Y-52243451D01*
X105780150Y-52236219D01*
X105800974Y-52231003D01*
X105822209Y-52227853D01*
X105843650Y-52226800D01*
X106356150Y-52226800D01*
X106377591Y-52227853D01*
X106377591Y-52227853D01*
G37*
D15*
X106099900Y-52664300D03*
D14*
G36*
X108513307Y-52227853D02*
G01*
X108534542Y-52231003D01*
X108555366Y-52236219D01*
X108575578Y-52243451D01*
X108594984Y-52252630D01*
X108613397Y-52263666D01*
X108630640Y-52276454D01*
X108646546Y-52290870D01*
X108660962Y-52306776D01*
X108673750Y-52324019D01*
X108684786Y-52342432D01*
X108693965Y-52361838D01*
X108701197Y-52382050D01*
X108706413Y-52402874D01*
X108709563Y-52424109D01*
X108710616Y-52445550D01*
X108710616Y-52883050D01*
X108709563Y-52904491D01*
X108706413Y-52925726D01*
X108701197Y-52946550D01*
X108693965Y-52966762D01*
X108684786Y-52986168D01*
X108673750Y-53004581D01*
X108660962Y-53021824D01*
X108646546Y-53037730D01*
X108630640Y-53052146D01*
X108613397Y-53064934D01*
X108594984Y-53075970D01*
X108575578Y-53085149D01*
X108555366Y-53092381D01*
X108534542Y-53097597D01*
X108513307Y-53100747D01*
X108491866Y-53101800D01*
X107979366Y-53101800D01*
X107957925Y-53100747D01*
X107936690Y-53097597D01*
X107915866Y-53092381D01*
X107895654Y-53085149D01*
X107876248Y-53075970D01*
X107857835Y-53064934D01*
X107840592Y-53052146D01*
X107824686Y-53037730D01*
X107810270Y-53021824D01*
X107797482Y-53004581D01*
X107786446Y-52986168D01*
X107777267Y-52966762D01*
X107770035Y-52946550D01*
X107764819Y-52925726D01*
X107761669Y-52904491D01*
X107760616Y-52883050D01*
X107760616Y-52445550D01*
X107761669Y-52424109D01*
X107764819Y-52402874D01*
X107770035Y-52382050D01*
X107777267Y-52361838D01*
X107786446Y-52342432D01*
X107797482Y-52324019D01*
X107810270Y-52306776D01*
X107824686Y-52290870D01*
X107840592Y-52276454D01*
X107857835Y-52263666D01*
X107876248Y-52252630D01*
X107895654Y-52243451D01*
X107915866Y-52236219D01*
X107936690Y-52231003D01*
X107957925Y-52227853D01*
X107979366Y-52226800D01*
X108491866Y-52226800D01*
X108513307Y-52227853D01*
X108513307Y-52227853D01*
G37*
D15*
X108235616Y-52664300D03*
D14*
G36*
X108513307Y-53802853D02*
G01*
X108534542Y-53806003D01*
X108555366Y-53811219D01*
X108575578Y-53818451D01*
X108594984Y-53827630D01*
X108613397Y-53838666D01*
X108630640Y-53851454D01*
X108646546Y-53865870D01*
X108660962Y-53881776D01*
X108673750Y-53899019D01*
X108684786Y-53917432D01*
X108693965Y-53936838D01*
X108701197Y-53957050D01*
X108706413Y-53977874D01*
X108709563Y-53999109D01*
X108710616Y-54020550D01*
X108710616Y-54458050D01*
X108709563Y-54479491D01*
X108706413Y-54500726D01*
X108701197Y-54521550D01*
X108693965Y-54541762D01*
X108684786Y-54561168D01*
X108673750Y-54579581D01*
X108660962Y-54596824D01*
X108646546Y-54612730D01*
X108630640Y-54627146D01*
X108613397Y-54639934D01*
X108594984Y-54650970D01*
X108575578Y-54660149D01*
X108555366Y-54667381D01*
X108534542Y-54672597D01*
X108513307Y-54675747D01*
X108491866Y-54676800D01*
X107979366Y-54676800D01*
X107957925Y-54675747D01*
X107936690Y-54672597D01*
X107915866Y-54667381D01*
X107895654Y-54660149D01*
X107876248Y-54650970D01*
X107857835Y-54639934D01*
X107840592Y-54627146D01*
X107824686Y-54612730D01*
X107810270Y-54596824D01*
X107797482Y-54579581D01*
X107786446Y-54561168D01*
X107777267Y-54541762D01*
X107770035Y-54521550D01*
X107764819Y-54500726D01*
X107761669Y-54479491D01*
X107760616Y-54458050D01*
X107760616Y-54020550D01*
X107761669Y-53999109D01*
X107764819Y-53977874D01*
X107770035Y-53957050D01*
X107777267Y-53936838D01*
X107786446Y-53917432D01*
X107797482Y-53899019D01*
X107810270Y-53881776D01*
X107824686Y-53865870D01*
X107840592Y-53851454D01*
X107857835Y-53838666D01*
X107876248Y-53827630D01*
X107895654Y-53818451D01*
X107915866Y-53811219D01*
X107936690Y-53806003D01*
X107957925Y-53802853D01*
X107979366Y-53801800D01*
X108491866Y-53801800D01*
X108513307Y-53802853D01*
X108513307Y-53802853D01*
G37*
D15*
X108235616Y-54239300D03*
D14*
G36*
X110649023Y-53802853D02*
G01*
X110670258Y-53806003D01*
X110691082Y-53811219D01*
X110711294Y-53818451D01*
X110730700Y-53827630D01*
X110749113Y-53838666D01*
X110766356Y-53851454D01*
X110782262Y-53865870D01*
X110796678Y-53881776D01*
X110809466Y-53899019D01*
X110820502Y-53917432D01*
X110829681Y-53936838D01*
X110836913Y-53957050D01*
X110842129Y-53977874D01*
X110845279Y-53999109D01*
X110846332Y-54020550D01*
X110846332Y-54458050D01*
X110845279Y-54479491D01*
X110842129Y-54500726D01*
X110836913Y-54521550D01*
X110829681Y-54541762D01*
X110820502Y-54561168D01*
X110809466Y-54579581D01*
X110796678Y-54596824D01*
X110782262Y-54612730D01*
X110766356Y-54627146D01*
X110749113Y-54639934D01*
X110730700Y-54650970D01*
X110711294Y-54660149D01*
X110691082Y-54667381D01*
X110670258Y-54672597D01*
X110649023Y-54675747D01*
X110627582Y-54676800D01*
X110115082Y-54676800D01*
X110093641Y-54675747D01*
X110072406Y-54672597D01*
X110051582Y-54667381D01*
X110031370Y-54660149D01*
X110011964Y-54650970D01*
X109993551Y-54639934D01*
X109976308Y-54627146D01*
X109960402Y-54612730D01*
X109945986Y-54596824D01*
X109933198Y-54579581D01*
X109922162Y-54561168D01*
X109912983Y-54541762D01*
X109905751Y-54521550D01*
X109900535Y-54500726D01*
X109897385Y-54479491D01*
X109896332Y-54458050D01*
X109896332Y-54020550D01*
X109897385Y-53999109D01*
X109900535Y-53977874D01*
X109905751Y-53957050D01*
X109912983Y-53936838D01*
X109922162Y-53917432D01*
X109933198Y-53899019D01*
X109945986Y-53881776D01*
X109960402Y-53865870D01*
X109976308Y-53851454D01*
X109993551Y-53838666D01*
X110011964Y-53827630D01*
X110031370Y-53818451D01*
X110051582Y-53811219D01*
X110072406Y-53806003D01*
X110093641Y-53802853D01*
X110115082Y-53801800D01*
X110627582Y-53801800D01*
X110649023Y-53802853D01*
X110649023Y-53802853D01*
G37*
D15*
X110371332Y-54239300D03*
D14*
G36*
X110649023Y-52227853D02*
G01*
X110670258Y-52231003D01*
X110691082Y-52236219D01*
X110711294Y-52243451D01*
X110730700Y-52252630D01*
X110749113Y-52263666D01*
X110766356Y-52276454D01*
X110782262Y-52290870D01*
X110796678Y-52306776D01*
X110809466Y-52324019D01*
X110820502Y-52342432D01*
X110829681Y-52361838D01*
X110836913Y-52382050D01*
X110842129Y-52402874D01*
X110845279Y-52424109D01*
X110846332Y-52445550D01*
X110846332Y-52883050D01*
X110845279Y-52904491D01*
X110842129Y-52925726D01*
X110836913Y-52946550D01*
X110829681Y-52966762D01*
X110820502Y-52986168D01*
X110809466Y-53004581D01*
X110796678Y-53021824D01*
X110782262Y-53037730D01*
X110766356Y-53052146D01*
X110749113Y-53064934D01*
X110730700Y-53075970D01*
X110711294Y-53085149D01*
X110691082Y-53092381D01*
X110670258Y-53097597D01*
X110649023Y-53100747D01*
X110627582Y-53101800D01*
X110115082Y-53101800D01*
X110093641Y-53100747D01*
X110072406Y-53097597D01*
X110051582Y-53092381D01*
X110031370Y-53085149D01*
X110011964Y-53075970D01*
X109993551Y-53064934D01*
X109976308Y-53052146D01*
X109960402Y-53037730D01*
X109945986Y-53021824D01*
X109933198Y-53004581D01*
X109922162Y-52986168D01*
X109912983Y-52966762D01*
X109905751Y-52946550D01*
X109900535Y-52925726D01*
X109897385Y-52904491D01*
X109896332Y-52883050D01*
X109896332Y-52445550D01*
X109897385Y-52424109D01*
X109900535Y-52402874D01*
X109905751Y-52382050D01*
X109912983Y-52361838D01*
X109922162Y-52342432D01*
X109933198Y-52324019D01*
X109945986Y-52306776D01*
X109960402Y-52290870D01*
X109976308Y-52276454D01*
X109993551Y-52263666D01*
X110011964Y-52252630D01*
X110031370Y-52243451D01*
X110051582Y-52236219D01*
X110072406Y-52231003D01*
X110093641Y-52227853D01*
X110115082Y-52226800D01*
X110627582Y-52226800D01*
X110649023Y-52227853D01*
X110649023Y-52227853D01*
G37*
D15*
X110371332Y-52664300D03*
D14*
G36*
X112498991Y-46177453D02*
G01*
X112520226Y-46180603D01*
X112541050Y-46185819D01*
X112561262Y-46193051D01*
X112580668Y-46202230D01*
X112599081Y-46213266D01*
X112616324Y-46226054D01*
X112632230Y-46240470D01*
X112646646Y-46256376D01*
X112659434Y-46273619D01*
X112670470Y-46292032D01*
X112679649Y-46311438D01*
X112686881Y-46331650D01*
X112692097Y-46352474D01*
X112695247Y-46373709D01*
X112696300Y-46395150D01*
X112696300Y-46832650D01*
X112695247Y-46854091D01*
X112692097Y-46875326D01*
X112686881Y-46896150D01*
X112679649Y-46916362D01*
X112670470Y-46935768D01*
X112659434Y-46954181D01*
X112646646Y-46971424D01*
X112632230Y-46987330D01*
X112616324Y-47001746D01*
X112599081Y-47014534D01*
X112580668Y-47025570D01*
X112561262Y-47034749D01*
X112541050Y-47041981D01*
X112520226Y-47047197D01*
X112498991Y-47050347D01*
X112477550Y-47051400D01*
X111965050Y-47051400D01*
X111943609Y-47050347D01*
X111922374Y-47047197D01*
X111901550Y-47041981D01*
X111881338Y-47034749D01*
X111861932Y-47025570D01*
X111843519Y-47014534D01*
X111826276Y-47001746D01*
X111810370Y-46987330D01*
X111795954Y-46971424D01*
X111783166Y-46954181D01*
X111772130Y-46935768D01*
X111762951Y-46916362D01*
X111755719Y-46896150D01*
X111750503Y-46875326D01*
X111747353Y-46854091D01*
X111746300Y-46832650D01*
X111746300Y-46395150D01*
X111747353Y-46373709D01*
X111750503Y-46352474D01*
X111755719Y-46331650D01*
X111762951Y-46311438D01*
X111772130Y-46292032D01*
X111783166Y-46273619D01*
X111795954Y-46256376D01*
X111810370Y-46240470D01*
X111826276Y-46226054D01*
X111843519Y-46213266D01*
X111861932Y-46202230D01*
X111881338Y-46193051D01*
X111901550Y-46185819D01*
X111922374Y-46180603D01*
X111943609Y-46177453D01*
X111965050Y-46176400D01*
X112477550Y-46176400D01*
X112498991Y-46177453D01*
X112498991Y-46177453D01*
G37*
D15*
X112221300Y-46613900D03*
D14*
G36*
X112498991Y-44602453D02*
G01*
X112520226Y-44605603D01*
X112541050Y-44610819D01*
X112561262Y-44618051D01*
X112580668Y-44627230D01*
X112599081Y-44638266D01*
X112616324Y-44651054D01*
X112632230Y-44665470D01*
X112646646Y-44681376D01*
X112659434Y-44698619D01*
X112670470Y-44717032D01*
X112679649Y-44736438D01*
X112686881Y-44756650D01*
X112692097Y-44777474D01*
X112695247Y-44798709D01*
X112696300Y-44820150D01*
X112696300Y-45257650D01*
X112695247Y-45279091D01*
X112692097Y-45300326D01*
X112686881Y-45321150D01*
X112679649Y-45341362D01*
X112670470Y-45360768D01*
X112659434Y-45379181D01*
X112646646Y-45396424D01*
X112632230Y-45412330D01*
X112616324Y-45426746D01*
X112599081Y-45439534D01*
X112580668Y-45450570D01*
X112561262Y-45459749D01*
X112541050Y-45466981D01*
X112520226Y-45472197D01*
X112498991Y-45475347D01*
X112477550Y-45476400D01*
X111965050Y-45476400D01*
X111943609Y-45475347D01*
X111922374Y-45472197D01*
X111901550Y-45466981D01*
X111881338Y-45459749D01*
X111861932Y-45450570D01*
X111843519Y-45439534D01*
X111826276Y-45426746D01*
X111810370Y-45412330D01*
X111795954Y-45396424D01*
X111783166Y-45379181D01*
X111772130Y-45360768D01*
X111762951Y-45341362D01*
X111755719Y-45321150D01*
X111750503Y-45300326D01*
X111747353Y-45279091D01*
X111746300Y-45257650D01*
X111746300Y-44820150D01*
X111747353Y-44798709D01*
X111750503Y-44777474D01*
X111755719Y-44756650D01*
X111762951Y-44736438D01*
X111772130Y-44717032D01*
X111783166Y-44698619D01*
X111795954Y-44681376D01*
X111810370Y-44665470D01*
X111826276Y-44651054D01*
X111843519Y-44638266D01*
X111861932Y-44627230D01*
X111881338Y-44618051D01*
X111901550Y-44610819D01*
X111922374Y-44605603D01*
X111943609Y-44602453D01*
X111965050Y-44601400D01*
X112477550Y-44601400D01*
X112498991Y-44602453D01*
X112498991Y-44602453D01*
G37*
D15*
X112221300Y-45038900D03*
D14*
G36*
X123230491Y-26650053D02*
G01*
X123251726Y-26653203D01*
X123272550Y-26658419D01*
X123292762Y-26665651D01*
X123312168Y-26674830D01*
X123330581Y-26685866D01*
X123347824Y-26698654D01*
X123363730Y-26713070D01*
X123378146Y-26728976D01*
X123390934Y-26746219D01*
X123401970Y-26764632D01*
X123411149Y-26784038D01*
X123418381Y-26804250D01*
X123423597Y-26825074D01*
X123426747Y-26846309D01*
X123427800Y-26867750D01*
X123427800Y-27305250D01*
X123426747Y-27326691D01*
X123423597Y-27347926D01*
X123418381Y-27368750D01*
X123411149Y-27388962D01*
X123401970Y-27408368D01*
X123390934Y-27426781D01*
X123378146Y-27444024D01*
X123363730Y-27459930D01*
X123347824Y-27474346D01*
X123330581Y-27487134D01*
X123312168Y-27498170D01*
X123292762Y-27507349D01*
X123272550Y-27514581D01*
X123251726Y-27519797D01*
X123230491Y-27522947D01*
X123209050Y-27524000D01*
X122696550Y-27524000D01*
X122675109Y-27522947D01*
X122653874Y-27519797D01*
X122633050Y-27514581D01*
X122612838Y-27507349D01*
X122593432Y-27498170D01*
X122575019Y-27487134D01*
X122557776Y-27474346D01*
X122541870Y-27459930D01*
X122527454Y-27444024D01*
X122514666Y-27426781D01*
X122503630Y-27408368D01*
X122494451Y-27388962D01*
X122487219Y-27368750D01*
X122482003Y-27347926D01*
X122478853Y-27326691D01*
X122477800Y-27305250D01*
X122477800Y-26867750D01*
X122478853Y-26846309D01*
X122482003Y-26825074D01*
X122487219Y-26804250D01*
X122494451Y-26784038D01*
X122503630Y-26764632D01*
X122514666Y-26746219D01*
X122527454Y-26728976D01*
X122541870Y-26713070D01*
X122557776Y-26698654D01*
X122575019Y-26685866D01*
X122593432Y-26674830D01*
X122612838Y-26665651D01*
X122633050Y-26658419D01*
X122653874Y-26653203D01*
X122675109Y-26650053D01*
X122696550Y-26649000D01*
X123209050Y-26649000D01*
X123230491Y-26650053D01*
X123230491Y-26650053D01*
G37*
D15*
X122952800Y-27086500D03*
D14*
G36*
X123230491Y-28225053D02*
G01*
X123251726Y-28228203D01*
X123272550Y-28233419D01*
X123292762Y-28240651D01*
X123312168Y-28249830D01*
X123330581Y-28260866D01*
X123347824Y-28273654D01*
X123363730Y-28288070D01*
X123378146Y-28303976D01*
X123390934Y-28321219D01*
X123401970Y-28339632D01*
X123411149Y-28359038D01*
X123418381Y-28379250D01*
X123423597Y-28400074D01*
X123426747Y-28421309D01*
X123427800Y-28442750D01*
X123427800Y-28880250D01*
X123426747Y-28901691D01*
X123423597Y-28922926D01*
X123418381Y-28943750D01*
X123411149Y-28963962D01*
X123401970Y-28983368D01*
X123390934Y-29001781D01*
X123378146Y-29019024D01*
X123363730Y-29034930D01*
X123347824Y-29049346D01*
X123330581Y-29062134D01*
X123312168Y-29073170D01*
X123292762Y-29082349D01*
X123272550Y-29089581D01*
X123251726Y-29094797D01*
X123230491Y-29097947D01*
X123209050Y-29099000D01*
X122696550Y-29099000D01*
X122675109Y-29097947D01*
X122653874Y-29094797D01*
X122633050Y-29089581D01*
X122612838Y-29082349D01*
X122593432Y-29073170D01*
X122575019Y-29062134D01*
X122557776Y-29049346D01*
X122541870Y-29034930D01*
X122527454Y-29019024D01*
X122514666Y-29001781D01*
X122503630Y-28983368D01*
X122494451Y-28963962D01*
X122487219Y-28943750D01*
X122482003Y-28922926D01*
X122478853Y-28901691D01*
X122477800Y-28880250D01*
X122477800Y-28442750D01*
X122478853Y-28421309D01*
X122482003Y-28400074D01*
X122487219Y-28379250D01*
X122494451Y-28359038D01*
X122503630Y-28339632D01*
X122514666Y-28321219D01*
X122527454Y-28303976D01*
X122541870Y-28288070D01*
X122557776Y-28273654D01*
X122575019Y-28260866D01*
X122593432Y-28249830D01*
X122612838Y-28240651D01*
X122633050Y-28233419D01*
X122653874Y-28228203D01*
X122675109Y-28225053D01*
X122696550Y-28224000D01*
X123209050Y-28224000D01*
X123230491Y-28225053D01*
X123230491Y-28225053D01*
G37*
D15*
X122952800Y-28661500D03*
D14*
G36*
X123230491Y-30138319D02*
G01*
X123251726Y-30141469D01*
X123272550Y-30146685D01*
X123292762Y-30153917D01*
X123312168Y-30163096D01*
X123330581Y-30174132D01*
X123347824Y-30186920D01*
X123363730Y-30201336D01*
X123378146Y-30217242D01*
X123390934Y-30234485D01*
X123401970Y-30252898D01*
X123411149Y-30272304D01*
X123418381Y-30292516D01*
X123423597Y-30313340D01*
X123426747Y-30334575D01*
X123427800Y-30356016D01*
X123427800Y-30793516D01*
X123426747Y-30814957D01*
X123423597Y-30836192D01*
X123418381Y-30857016D01*
X123411149Y-30877228D01*
X123401970Y-30896634D01*
X123390934Y-30915047D01*
X123378146Y-30932290D01*
X123363730Y-30948196D01*
X123347824Y-30962612D01*
X123330581Y-30975400D01*
X123312168Y-30986436D01*
X123292762Y-30995615D01*
X123272550Y-31002847D01*
X123251726Y-31008063D01*
X123230491Y-31011213D01*
X123209050Y-31012266D01*
X122696550Y-31012266D01*
X122675109Y-31011213D01*
X122653874Y-31008063D01*
X122633050Y-31002847D01*
X122612838Y-30995615D01*
X122593432Y-30986436D01*
X122575019Y-30975400D01*
X122557776Y-30962612D01*
X122541870Y-30948196D01*
X122527454Y-30932290D01*
X122514666Y-30915047D01*
X122503630Y-30896634D01*
X122494451Y-30877228D01*
X122487219Y-30857016D01*
X122482003Y-30836192D01*
X122478853Y-30814957D01*
X122477800Y-30793516D01*
X122477800Y-30356016D01*
X122478853Y-30334575D01*
X122482003Y-30313340D01*
X122487219Y-30292516D01*
X122494451Y-30272304D01*
X122503630Y-30252898D01*
X122514666Y-30234485D01*
X122527454Y-30217242D01*
X122541870Y-30201336D01*
X122557776Y-30186920D01*
X122575019Y-30174132D01*
X122593432Y-30163096D01*
X122612838Y-30153917D01*
X122633050Y-30146685D01*
X122653874Y-30141469D01*
X122675109Y-30138319D01*
X122696550Y-30137266D01*
X123209050Y-30137266D01*
X123230491Y-30138319D01*
X123230491Y-30138319D01*
G37*
D15*
X122952800Y-30574766D03*
D14*
G36*
X123230491Y-31713319D02*
G01*
X123251726Y-31716469D01*
X123272550Y-31721685D01*
X123292762Y-31728917D01*
X123312168Y-31738096D01*
X123330581Y-31749132D01*
X123347824Y-31761920D01*
X123363730Y-31776336D01*
X123378146Y-31792242D01*
X123390934Y-31809485D01*
X123401970Y-31827898D01*
X123411149Y-31847304D01*
X123418381Y-31867516D01*
X123423597Y-31888340D01*
X123426747Y-31909575D01*
X123427800Y-31931016D01*
X123427800Y-32368516D01*
X123426747Y-32389957D01*
X123423597Y-32411192D01*
X123418381Y-32432016D01*
X123411149Y-32452228D01*
X123401970Y-32471634D01*
X123390934Y-32490047D01*
X123378146Y-32507290D01*
X123363730Y-32523196D01*
X123347824Y-32537612D01*
X123330581Y-32550400D01*
X123312168Y-32561436D01*
X123292762Y-32570615D01*
X123272550Y-32577847D01*
X123251726Y-32583063D01*
X123230491Y-32586213D01*
X123209050Y-32587266D01*
X122696550Y-32587266D01*
X122675109Y-32586213D01*
X122653874Y-32583063D01*
X122633050Y-32577847D01*
X122612838Y-32570615D01*
X122593432Y-32561436D01*
X122575019Y-32550400D01*
X122557776Y-32537612D01*
X122541870Y-32523196D01*
X122527454Y-32507290D01*
X122514666Y-32490047D01*
X122503630Y-32471634D01*
X122494451Y-32452228D01*
X122487219Y-32432016D01*
X122482003Y-32411192D01*
X122478853Y-32389957D01*
X122477800Y-32368516D01*
X122477800Y-31931016D01*
X122478853Y-31909575D01*
X122482003Y-31888340D01*
X122487219Y-31867516D01*
X122494451Y-31847304D01*
X122503630Y-31827898D01*
X122514666Y-31809485D01*
X122527454Y-31792242D01*
X122541870Y-31776336D01*
X122557776Y-31761920D01*
X122575019Y-31749132D01*
X122593432Y-31738096D01*
X122612838Y-31728917D01*
X122633050Y-31721685D01*
X122653874Y-31716469D01*
X122675109Y-31713319D01*
X122696550Y-31712266D01*
X123209050Y-31712266D01*
X123230491Y-31713319D01*
X123230491Y-31713319D01*
G37*
D15*
X122952800Y-32149766D03*
D14*
G36*
X123230491Y-35201585D02*
G01*
X123251726Y-35204735D01*
X123272550Y-35209951D01*
X123292762Y-35217183D01*
X123312168Y-35226362D01*
X123330581Y-35237398D01*
X123347824Y-35250186D01*
X123363730Y-35264602D01*
X123378146Y-35280508D01*
X123390934Y-35297751D01*
X123401970Y-35316164D01*
X123411149Y-35335570D01*
X123418381Y-35355782D01*
X123423597Y-35376606D01*
X123426747Y-35397841D01*
X123427800Y-35419282D01*
X123427800Y-35856782D01*
X123426747Y-35878223D01*
X123423597Y-35899458D01*
X123418381Y-35920282D01*
X123411149Y-35940494D01*
X123401970Y-35959900D01*
X123390934Y-35978313D01*
X123378146Y-35995556D01*
X123363730Y-36011462D01*
X123347824Y-36025878D01*
X123330581Y-36038666D01*
X123312168Y-36049702D01*
X123292762Y-36058881D01*
X123272550Y-36066113D01*
X123251726Y-36071329D01*
X123230491Y-36074479D01*
X123209050Y-36075532D01*
X122696550Y-36075532D01*
X122675109Y-36074479D01*
X122653874Y-36071329D01*
X122633050Y-36066113D01*
X122612838Y-36058881D01*
X122593432Y-36049702D01*
X122575019Y-36038666D01*
X122557776Y-36025878D01*
X122541870Y-36011462D01*
X122527454Y-35995556D01*
X122514666Y-35978313D01*
X122503630Y-35959900D01*
X122494451Y-35940494D01*
X122487219Y-35920282D01*
X122482003Y-35899458D01*
X122478853Y-35878223D01*
X122477800Y-35856782D01*
X122477800Y-35419282D01*
X122478853Y-35397841D01*
X122482003Y-35376606D01*
X122487219Y-35355782D01*
X122494451Y-35335570D01*
X122503630Y-35316164D01*
X122514666Y-35297751D01*
X122527454Y-35280508D01*
X122541870Y-35264602D01*
X122557776Y-35250186D01*
X122575019Y-35237398D01*
X122593432Y-35226362D01*
X122612838Y-35217183D01*
X122633050Y-35209951D01*
X122653874Y-35204735D01*
X122675109Y-35201585D01*
X122696550Y-35200532D01*
X123209050Y-35200532D01*
X123230491Y-35201585D01*
X123230491Y-35201585D01*
G37*
D15*
X122952800Y-35638032D03*
D14*
G36*
X123230491Y-33626585D02*
G01*
X123251726Y-33629735D01*
X123272550Y-33634951D01*
X123292762Y-33642183D01*
X123312168Y-33651362D01*
X123330581Y-33662398D01*
X123347824Y-33675186D01*
X123363730Y-33689602D01*
X123378146Y-33705508D01*
X123390934Y-33722751D01*
X123401970Y-33741164D01*
X123411149Y-33760570D01*
X123418381Y-33780782D01*
X123423597Y-33801606D01*
X123426747Y-33822841D01*
X123427800Y-33844282D01*
X123427800Y-34281782D01*
X123426747Y-34303223D01*
X123423597Y-34324458D01*
X123418381Y-34345282D01*
X123411149Y-34365494D01*
X123401970Y-34384900D01*
X123390934Y-34403313D01*
X123378146Y-34420556D01*
X123363730Y-34436462D01*
X123347824Y-34450878D01*
X123330581Y-34463666D01*
X123312168Y-34474702D01*
X123292762Y-34483881D01*
X123272550Y-34491113D01*
X123251726Y-34496329D01*
X123230491Y-34499479D01*
X123209050Y-34500532D01*
X122696550Y-34500532D01*
X122675109Y-34499479D01*
X122653874Y-34496329D01*
X122633050Y-34491113D01*
X122612838Y-34483881D01*
X122593432Y-34474702D01*
X122575019Y-34463666D01*
X122557776Y-34450878D01*
X122541870Y-34436462D01*
X122527454Y-34420556D01*
X122514666Y-34403313D01*
X122503630Y-34384900D01*
X122494451Y-34365494D01*
X122487219Y-34345282D01*
X122482003Y-34324458D01*
X122478853Y-34303223D01*
X122477800Y-34281782D01*
X122477800Y-33844282D01*
X122478853Y-33822841D01*
X122482003Y-33801606D01*
X122487219Y-33780782D01*
X122494451Y-33760570D01*
X122503630Y-33741164D01*
X122514666Y-33722751D01*
X122527454Y-33705508D01*
X122541870Y-33689602D01*
X122557776Y-33675186D01*
X122575019Y-33662398D01*
X122593432Y-33651362D01*
X122612838Y-33642183D01*
X122633050Y-33634951D01*
X122653874Y-33629735D01*
X122675109Y-33626585D01*
X122696550Y-33625532D01*
X123209050Y-33625532D01*
X123230491Y-33626585D01*
X123230491Y-33626585D01*
G37*
D15*
X122952800Y-34063032D03*
D14*
G36*
X114784991Y-46177453D02*
G01*
X114806226Y-46180603D01*
X114827050Y-46185819D01*
X114847262Y-46193051D01*
X114866668Y-46202230D01*
X114885081Y-46213266D01*
X114902324Y-46226054D01*
X114918230Y-46240470D01*
X114932646Y-46256376D01*
X114945434Y-46273619D01*
X114956470Y-46292032D01*
X114965649Y-46311438D01*
X114972881Y-46331650D01*
X114978097Y-46352474D01*
X114981247Y-46373709D01*
X114982300Y-46395150D01*
X114982300Y-46832650D01*
X114981247Y-46854091D01*
X114978097Y-46875326D01*
X114972881Y-46896150D01*
X114965649Y-46916362D01*
X114956470Y-46935768D01*
X114945434Y-46954181D01*
X114932646Y-46971424D01*
X114918230Y-46987330D01*
X114902324Y-47001746D01*
X114885081Y-47014534D01*
X114866668Y-47025570D01*
X114847262Y-47034749D01*
X114827050Y-47041981D01*
X114806226Y-47047197D01*
X114784991Y-47050347D01*
X114763550Y-47051400D01*
X114251050Y-47051400D01*
X114229609Y-47050347D01*
X114208374Y-47047197D01*
X114187550Y-47041981D01*
X114167338Y-47034749D01*
X114147932Y-47025570D01*
X114129519Y-47014534D01*
X114112276Y-47001746D01*
X114096370Y-46987330D01*
X114081954Y-46971424D01*
X114069166Y-46954181D01*
X114058130Y-46935768D01*
X114048951Y-46916362D01*
X114041719Y-46896150D01*
X114036503Y-46875326D01*
X114033353Y-46854091D01*
X114032300Y-46832650D01*
X114032300Y-46395150D01*
X114033353Y-46373709D01*
X114036503Y-46352474D01*
X114041719Y-46331650D01*
X114048951Y-46311438D01*
X114058130Y-46292032D01*
X114069166Y-46273619D01*
X114081954Y-46256376D01*
X114096370Y-46240470D01*
X114112276Y-46226054D01*
X114129519Y-46213266D01*
X114147932Y-46202230D01*
X114167338Y-46193051D01*
X114187550Y-46185819D01*
X114208374Y-46180603D01*
X114229609Y-46177453D01*
X114251050Y-46176400D01*
X114763550Y-46176400D01*
X114784991Y-46177453D01*
X114784991Y-46177453D01*
G37*
D15*
X114507300Y-46613900D03*
D14*
G36*
X114784991Y-44602453D02*
G01*
X114806226Y-44605603D01*
X114827050Y-44610819D01*
X114847262Y-44618051D01*
X114866668Y-44627230D01*
X114885081Y-44638266D01*
X114902324Y-44651054D01*
X114918230Y-44665470D01*
X114932646Y-44681376D01*
X114945434Y-44698619D01*
X114956470Y-44717032D01*
X114965649Y-44736438D01*
X114972881Y-44756650D01*
X114978097Y-44777474D01*
X114981247Y-44798709D01*
X114982300Y-44820150D01*
X114982300Y-45257650D01*
X114981247Y-45279091D01*
X114978097Y-45300326D01*
X114972881Y-45321150D01*
X114965649Y-45341362D01*
X114956470Y-45360768D01*
X114945434Y-45379181D01*
X114932646Y-45396424D01*
X114918230Y-45412330D01*
X114902324Y-45426746D01*
X114885081Y-45439534D01*
X114866668Y-45450570D01*
X114847262Y-45459749D01*
X114827050Y-45466981D01*
X114806226Y-45472197D01*
X114784991Y-45475347D01*
X114763550Y-45476400D01*
X114251050Y-45476400D01*
X114229609Y-45475347D01*
X114208374Y-45472197D01*
X114187550Y-45466981D01*
X114167338Y-45459749D01*
X114147932Y-45450570D01*
X114129519Y-45439534D01*
X114112276Y-45426746D01*
X114096370Y-45412330D01*
X114081954Y-45396424D01*
X114069166Y-45379181D01*
X114058130Y-45360768D01*
X114048951Y-45341362D01*
X114041719Y-45321150D01*
X114036503Y-45300326D01*
X114033353Y-45279091D01*
X114032300Y-45257650D01*
X114032300Y-44820150D01*
X114033353Y-44798709D01*
X114036503Y-44777474D01*
X114041719Y-44756650D01*
X114048951Y-44736438D01*
X114058130Y-44717032D01*
X114069166Y-44698619D01*
X114081954Y-44681376D01*
X114096370Y-44665470D01*
X114112276Y-44651054D01*
X114129519Y-44638266D01*
X114147932Y-44627230D01*
X114167338Y-44618051D01*
X114187550Y-44610819D01*
X114208374Y-44605603D01*
X114229609Y-44602453D01*
X114251050Y-44601400D01*
X114763550Y-44601400D01*
X114784991Y-44602453D01*
X114784991Y-44602453D01*
G37*
D15*
X114507300Y-45038900D03*
D24*
X113287200Y-50756900D03*
X113287200Y-48856900D03*
X115487200Y-48856900D03*
X115487200Y-49806900D03*
X115487200Y-50756900D03*
X108534100Y-48856900D03*
X108534100Y-49806900D03*
X108534100Y-50756900D03*
X110734100Y-50756900D03*
X110734100Y-48856900D03*
M02*
