G04 #@! TF.GenerationSoftware,KiCad,Pcbnew,(5.1.4)-1*
G04 #@! TF.CreationDate,2021-06-26T12:41:55-04:00*
G04 #@! TF.ProjectId,splitreus,73706c69-7472-4657-9573-2e6b69636164,1*
G04 #@! TF.SameCoordinates,Original*
G04 #@! TF.FileFunction,Copper,L1,Top*
G04 #@! TF.FilePolarity,Positive*
%FSLAX46Y46*%
G04 Gerber Fmt 4.6, Leading zero omitted, Abs format (unit mm)*
G04 Created by KiCad (PCBNEW (5.1.4)-1) date 2021-06-26 12:41:55*
%MOMM*%
%LPD*%
G04 APERTURE LIST*
%ADD10R,0.500000X2.900000*%
%ADD11R,1.200000X1.600000*%
%ADD12R,1.600000X1.600000*%
%ADD13C,1.600000*%
%ADD14R,2.900000X0.500000*%
%ADD15R,1.600000X1.200000*%
%ADD16C,2.000000*%
%ADD17C,4.400000*%
%ADD18C,1.752600*%
%ADD19R,1.752600X1.752600*%
%ADD20C,0.250000*%
G04 APERTURE END LIST*
D10*
X103000000Y-60500000D03*
D11*
X103000000Y-61600000D03*
X103000000Y-64400000D03*
D12*
X103000000Y-59100000D03*
D13*
X103000000Y-66900000D03*
D10*
X103000000Y-65500000D03*
D14*
X92500000Y-75500000D03*
D15*
X91400000Y-75500000D03*
X88600000Y-75500000D03*
D12*
X93900000Y-75500000D03*
D13*
X86100000Y-75500000D03*
D14*
X87500000Y-75500000D03*
X92500000Y-58500000D03*
D15*
X91400000Y-58500000D03*
X88600000Y-58500000D03*
D12*
X93900000Y-58500000D03*
D13*
X86100000Y-58500000D03*
D14*
X87500000Y-58500000D03*
X92500000Y-41500000D03*
D15*
X91400000Y-41500000D03*
X88600000Y-41500000D03*
D12*
X93900000Y-41500000D03*
D13*
X86100000Y-41500000D03*
D14*
X87500000Y-41500000D03*
X92500000Y-24500000D03*
D15*
X91400000Y-24500000D03*
X88600000Y-24500000D03*
D12*
X93900000Y-24500000D03*
D13*
X86100000Y-24500000D03*
D14*
X87500000Y-24500000D03*
X92500000Y-7500000D03*
D15*
X91400000Y-7500000D03*
X88600000Y-7500000D03*
D12*
X93900000Y-7500000D03*
D13*
X86100000Y-7500000D03*
D14*
X87500000Y-7500000D03*
X74500000Y-70500000D03*
D15*
X73400000Y-70500000D03*
X70600000Y-70500000D03*
D12*
X75900000Y-70500000D03*
D13*
X68100000Y-70500000D03*
D14*
X69500000Y-70500000D03*
X74500000Y-53500000D03*
D15*
X73400000Y-53500000D03*
X70600000Y-53500000D03*
D12*
X75900000Y-53500000D03*
D13*
X68100000Y-53500000D03*
D14*
X69500000Y-53500000D03*
X74500000Y-36500000D03*
D15*
X73400000Y-36500000D03*
X70600000Y-36500000D03*
D12*
X75900000Y-36500000D03*
D13*
X68100000Y-36500000D03*
D14*
X69500000Y-36500000D03*
X74500000Y-19500000D03*
D15*
X73400000Y-19500000D03*
X70600000Y-19500000D03*
D12*
X75900000Y-19500000D03*
D13*
X68100000Y-19500000D03*
D14*
X69500000Y-19500000D03*
X74500000Y-2500000D03*
D15*
X73400000Y-2500000D03*
X70600000Y-2500000D03*
D12*
X75900000Y-2500000D03*
D13*
X68100000Y-2500000D03*
D14*
X69500000Y-2500000D03*
X56500000Y-64500000D03*
D15*
X55400000Y-64500000D03*
X52600000Y-64500000D03*
D12*
X57900000Y-64500000D03*
D13*
X50100000Y-64500000D03*
D14*
X51500000Y-64500000D03*
X56500000Y-47500000D03*
D15*
X55400000Y-47500000D03*
X52600000Y-47500000D03*
D12*
X57900000Y-47500000D03*
D13*
X50100000Y-47500000D03*
D14*
X51500000Y-47500000D03*
X56500000Y-30500000D03*
D15*
X55400000Y-30500000D03*
X52600000Y-30500000D03*
D12*
X57900000Y-30500000D03*
D13*
X50100000Y-30500000D03*
D14*
X51500000Y-30500000D03*
X56500000Y-13500000D03*
D15*
X55400000Y-13500000D03*
X52600000Y-13500000D03*
D12*
X57900000Y-13500000D03*
D13*
X50100000Y-13500000D03*
D14*
X51500000Y-13500000D03*
X56500000Y3500000D03*
D15*
X55400000Y3500000D03*
X52600000Y3500000D03*
D12*
X57900000Y3500000D03*
D13*
X50100000Y3500000D03*
D14*
X51500000Y3500000D03*
X38500000Y-69500000D03*
D15*
X37400000Y-69500000D03*
X34600000Y-69500000D03*
D12*
X39900000Y-69500000D03*
D13*
X32100000Y-69500000D03*
D14*
X33500000Y-69500000D03*
X38500000Y-52500000D03*
D15*
X37400000Y-52500000D03*
X34600000Y-52500000D03*
D12*
X39900000Y-52500000D03*
D13*
X32100000Y-52500000D03*
D14*
X33500000Y-52500000D03*
X38500000Y-35500000D03*
D15*
X37400000Y-35500000D03*
X34600000Y-35500000D03*
D12*
X39900000Y-35500000D03*
D13*
X32100000Y-35500000D03*
D14*
X33500000Y-35500000D03*
X38500000Y-18500000D03*
D15*
X37400000Y-18500000D03*
X34600000Y-18500000D03*
D12*
X39900000Y-18500000D03*
D13*
X32100000Y-18500000D03*
D14*
X33500000Y-18500000D03*
X38500000Y-1525000D03*
D15*
X37400000Y-1525000D03*
X34600000Y-1525000D03*
D12*
X39900000Y-1525000D03*
D13*
X32100000Y-1525000D03*
D14*
X33500000Y-1525000D03*
X20500000Y-72500000D03*
D15*
X19400000Y-72500000D03*
X16600000Y-72500000D03*
D12*
X21900000Y-72500000D03*
D13*
X14100000Y-72500000D03*
D14*
X15500000Y-72500000D03*
X20550000Y-55500000D03*
D15*
X19450000Y-55500000D03*
X16650000Y-55500000D03*
D12*
X21950000Y-55500000D03*
D13*
X14150000Y-55500000D03*
D14*
X15550000Y-55500000D03*
X20550000Y-38500000D03*
D15*
X19450000Y-38500000D03*
X16650000Y-38500000D03*
D12*
X21950000Y-38500000D03*
D13*
X14150000Y-38500000D03*
D14*
X15550000Y-38500000D03*
X20550000Y-21500000D03*
D15*
X19450000Y-21500000D03*
X16650000Y-21500000D03*
D12*
X21950000Y-21500000D03*
D13*
X14150000Y-21500000D03*
D14*
X15550000Y-21500000D03*
X20550000Y-4500000D03*
D15*
X19450000Y-4500000D03*
X16650000Y-4500000D03*
D12*
X21950000Y-4500000D03*
D13*
X14150000Y-4500000D03*
D14*
X15550000Y-4500000D03*
X2500000Y-72500000D03*
D15*
X1400000Y-72500000D03*
X-1400000Y-72500000D03*
D12*
X3900000Y-72500000D03*
D13*
X-3900000Y-72500000D03*
D14*
X-2500000Y-72500000D03*
X2500000Y-55500000D03*
D15*
X1400000Y-55500000D03*
X-1400000Y-55500000D03*
D12*
X3900000Y-55500000D03*
D13*
X-3900000Y-55500000D03*
D14*
X-2500000Y-55500000D03*
X2500000Y-38500000D03*
D15*
X1400000Y-38500000D03*
X-1400000Y-38500000D03*
D12*
X3900000Y-38500000D03*
D13*
X-3900000Y-38500000D03*
D14*
X-2500000Y-38500000D03*
X2500000Y-21500000D03*
D15*
X1400000Y-21500000D03*
X-1400000Y-21500000D03*
D12*
X3900000Y-21500000D03*
D13*
X-3900000Y-21500000D03*
D14*
X-2500000Y-21500000D03*
X2500000Y-4500000D03*
D15*
X1400000Y-4500000D03*
X-1400000Y-4500000D03*
D12*
X3900000Y-4500000D03*
D13*
X-3900000Y-4500000D03*
D14*
X-2500000Y-4500000D03*
D16*
X116928000Y-50218000D03*
X116928000Y-56718000D03*
D17*
X98978000Y-51428000D03*
X81000000Y-57500000D03*
X81000000Y-6500000D03*
X45000000Y-22500000D03*
X9000000Y-59500000D03*
X9000000Y-8500000D03*
D18*
X116620000Y-18548000D03*
X101380000Y-46488000D03*
X116620000Y-21088000D03*
X116620000Y-23628000D03*
X116620000Y-26168000D03*
X116620000Y-28708000D03*
X116620000Y-31248000D03*
X116620000Y-33788000D03*
X116620000Y-36328000D03*
X116620000Y-38868000D03*
X116620000Y-41408000D03*
X116620000Y-43948000D03*
X116620000Y-46488000D03*
X101380000Y-43948000D03*
X101380000Y-41408000D03*
X101380000Y-38868000D03*
X101380000Y-36328000D03*
X101380000Y-33788000D03*
X101380000Y-31248000D03*
X101380000Y-28708000D03*
X101380000Y-26168000D03*
X101380000Y-23628000D03*
X101380000Y-21088000D03*
D19*
X101380000Y-18548000D03*
D16*
X5000000Y3800000D03*
X0Y5900000D03*
X-5000000Y3800000D03*
X111300000Y-68000000D03*
X113400000Y-63000000D03*
X111300000Y-58000000D03*
X95000000Y-67200000D03*
X90000000Y-65100000D03*
X85000000Y-67200000D03*
X95000000Y-50200000D03*
X90000000Y-48100000D03*
X85000000Y-50200000D03*
X95000000Y-33200000D03*
X90000000Y-31100000D03*
X85000000Y-33200000D03*
X95000000Y-16200000D03*
X90000000Y-14100000D03*
X85000000Y-16200000D03*
X95000000Y800000D03*
X90000000Y2900000D03*
X85000000Y800000D03*
X77000000Y-62200000D03*
X72000000Y-60100000D03*
X67000000Y-62200000D03*
X77000000Y-45200000D03*
X72000000Y-43100000D03*
X67000000Y-45200000D03*
X77000000Y-28200000D03*
X72000000Y-26100000D03*
X67000000Y-28200000D03*
X77000000Y-11200000D03*
X72000000Y-9100000D03*
X67000000Y-11200000D03*
X77000000Y5800000D03*
X72000000Y7900000D03*
X67000000Y5800000D03*
X59000000Y-56200000D03*
X54000000Y-54100000D03*
X49000000Y-56200000D03*
X59000000Y-39200000D03*
X54000000Y-37100000D03*
X49000000Y-39200000D03*
X59000000Y-22200000D03*
X54000000Y-20100000D03*
X49000000Y-22200000D03*
X59000000Y-5200000D03*
X54000000Y-3100000D03*
X49000000Y-5200000D03*
X59000000Y11800000D03*
X54000000Y13900000D03*
X49000000Y11800000D03*
X41000000Y-61200000D03*
X36000000Y-59100000D03*
X31000000Y-61200000D03*
X41000000Y-44200000D03*
X36000000Y-42100000D03*
X31000000Y-44200000D03*
X41000000Y-27200000D03*
X36000000Y-25100000D03*
X31000000Y-27200000D03*
X41000000Y-10200000D03*
X36000000Y-8100000D03*
X31000000Y-10200000D03*
X41000000Y6800000D03*
X36000000Y8900000D03*
X31000000Y6800000D03*
X23000000Y-64200000D03*
X18000000Y-62100000D03*
X13000000Y-64200000D03*
X23000000Y-47200000D03*
X18000000Y-45100000D03*
X13000000Y-47200000D03*
X23000000Y-30200000D03*
X18000000Y-28100000D03*
X13000000Y-30200000D03*
X23000000Y-13200000D03*
X18000000Y-11100000D03*
X13000000Y-13200000D03*
X23000000Y3800000D03*
X18000000Y5900000D03*
X13000000Y3800000D03*
X5000000Y-64200000D03*
X0Y-62100000D03*
X-5000000Y-64200000D03*
X5000000Y-47200000D03*
X0Y-45100000D03*
X-5000000Y-47200000D03*
X5000000Y-30200000D03*
X0Y-28100000D03*
X-5000000Y-30200000D03*
X5000000Y-13200000D03*
X0Y-11100000D03*
X-5000000Y-13200000D03*
D20*
X-3900000Y-4500000D02*
X-2500000Y-4500000D01*
X-2500000Y-4500000D02*
X-1400000Y-4500000D01*
X-3900000Y-21500000D02*
X-2500000Y-21500000D01*
X-2500000Y-21500000D02*
X-1400000Y-21500000D01*
X-3900000Y-38500000D02*
X-2500000Y-38500000D01*
X-2500000Y-38500000D02*
X-1400000Y-38500000D01*
X-3900000Y-55500000D02*
X-2500000Y-55500000D01*
X-2500000Y-55500000D02*
X-1400000Y-55500000D01*
X-3900000Y-72500000D02*
X-2500000Y-72500000D01*
X-2500000Y-72500000D02*
X-1400000Y-72500000D01*
X14150000Y-4500000D02*
X15550000Y-4500000D01*
X15550000Y-4500000D02*
X16650000Y-4500000D01*
X14150000Y-21500000D02*
X15550000Y-21500000D01*
X15550000Y-21500000D02*
X16650000Y-21500000D01*
X14150000Y-38500000D02*
X15550000Y-38500000D01*
X15550000Y-38500000D02*
X16650000Y-38500000D01*
X14150000Y-55500000D02*
X15550000Y-55500000D01*
X15550000Y-55500000D02*
X16650000Y-55500000D01*
X14100000Y-72500000D02*
X15500000Y-72500000D01*
X15500000Y-72500000D02*
X16600000Y-72500000D01*
X32100000Y-1525000D02*
X33500000Y-1525000D01*
X33500000Y-1525000D02*
X34600000Y-1525000D01*
X32100000Y-18500000D02*
X33500000Y-18500000D01*
X33500000Y-18500000D02*
X34600000Y-18500000D01*
X32100000Y-35500000D02*
X33500000Y-35500000D01*
X33500000Y-35500000D02*
X34600000Y-35500000D01*
X32100000Y-52500000D02*
X33500000Y-52500000D01*
X33500000Y-52500000D02*
X34600000Y-52500000D01*
X32100000Y-69500000D02*
X33500000Y-69500000D01*
X33500000Y-69500000D02*
X34600000Y-69500000D01*
X50100000Y3500000D02*
X51500000Y3500000D01*
X51500000Y3500000D02*
X52600000Y3500000D01*
X50100000Y-13500000D02*
X51500000Y-13500000D01*
X51500000Y-13500000D02*
X52600000Y-13500000D01*
X50100000Y-30500000D02*
X51500000Y-30500000D01*
X51500000Y-30500000D02*
X52600000Y-30500000D01*
X50100000Y-47500000D02*
X51500000Y-47500000D01*
X51500000Y-47500000D02*
X52600000Y-47500000D01*
X50100000Y-64500000D02*
X51500000Y-64500000D01*
X51500000Y-64500000D02*
X52600000Y-64500000D01*
X68100000Y-19500000D02*
X69500000Y-19500000D01*
X69500000Y-19500000D02*
X70600000Y-19500000D01*
X68100000Y-36500000D02*
X69500000Y-36500000D01*
X69500000Y-36500000D02*
X70600000Y-36500000D01*
X68100000Y-53500000D02*
X69500000Y-53500000D01*
X69500000Y-53500000D02*
X70600000Y-53500000D01*
X68100000Y-70500000D02*
X69500000Y-70500000D01*
X69500000Y-70500000D02*
X70600000Y-70500000D01*
X86100000Y-7500000D02*
X87500000Y-7500000D01*
X87500000Y-7500000D02*
X88600000Y-7500000D01*
X86100000Y-24500000D02*
X87500000Y-24500000D01*
X87500000Y-24500000D02*
X88600000Y-24500000D01*
X86100000Y-41500000D02*
X87500000Y-41500000D01*
X87500000Y-41500000D02*
X88600000Y-41500000D01*
X86100000Y-58500000D02*
X87500000Y-58500000D01*
X87500000Y-58500000D02*
X88600000Y-58500000D01*
X86100000Y-75500000D02*
X87500000Y-75500000D01*
X87500000Y-75500000D02*
X88600000Y-75500000D01*
X103000000Y-65500000D02*
X103000000Y-66900000D01*
X103000000Y-64950000D02*
X103000000Y-65500000D01*
X103000000Y-64950000D02*
X103000000Y-64400000D01*
X103000000Y-64400000D02*
X103000000Y-63724700D01*
X103000000Y-63724700D02*
X103431400Y-63724700D01*
X103431400Y-63724700D02*
X104752300Y-65045600D01*
X104752300Y-65045600D02*
X111354400Y-65045600D01*
X111354400Y-65045600D02*
X113400000Y-63000000D01*
X-5000000Y3800000D02*
X5000000Y3800000D01*
X85000000Y800000D02*
X95000000Y800000D01*
X77000000Y5800000D02*
X82000000Y800000D01*
X82000000Y800000D02*
X85000000Y800000D01*
X67000000Y5800000D02*
X77000000Y5800000D01*
X49000000Y11800000D02*
X46000000Y11800000D01*
X46000000Y11800000D02*
X41000000Y6800000D01*
X59000000Y11800000D02*
X49000000Y11800000D01*
X41000000Y6800000D02*
X31000000Y6800000D01*
X31000000Y6800000D02*
X28000000Y3800000D01*
X28000000Y3800000D02*
X23000000Y3800000D01*
X23000000Y3800000D02*
X13000000Y3800000D01*
X13000000Y3800000D02*
X5000000Y3800000D01*
X5000000Y-13200000D02*
X13000000Y-13200000D01*
X-5000000Y-13200000D02*
X5000000Y-13200000D01*
X95000000Y-16200000D02*
X85000000Y-16200000D01*
X77000000Y-11200000D02*
X80000000Y-11200000D01*
X80000000Y-11200000D02*
X85000000Y-16200000D01*
X67000000Y-11200000D02*
X77000000Y-11200000D01*
X49000000Y-5200000D02*
X59000000Y-5200000D01*
X49000000Y-5200000D02*
X46000000Y-5200000D01*
X46000000Y-5200000D02*
X41000000Y-10200000D01*
X31000000Y-10200000D02*
X41000000Y-10200000D01*
X23000000Y-13200000D02*
X26000000Y-10200000D01*
X26000000Y-10200000D02*
X31000000Y-10200000D01*
X13000000Y-13200000D02*
X23000000Y-13200000D01*
X95000000Y-33200000D02*
X85000000Y-33200000D01*
X77000000Y-28200000D02*
X80000000Y-28200000D01*
X80000000Y-28200000D02*
X85000000Y-33200000D01*
X67000000Y-28200000D02*
X77000000Y-28200000D01*
X49000000Y-22200000D02*
X59000000Y-22200000D01*
X41000000Y-27200000D02*
X44000000Y-27200000D01*
X44000000Y-27200000D02*
X49000000Y-22200000D01*
X31000000Y-27200000D02*
X41000000Y-27200000D01*
X23000000Y-30200000D02*
X26000000Y-27200000D01*
X26000000Y-27200000D02*
X31000000Y-27200000D01*
X13000000Y-30200000D02*
X23000000Y-30200000D01*
X5000000Y-30200000D02*
X13000000Y-30200000D01*
X-5000000Y-30200000D02*
X5000000Y-30200000D01*
X105481800Y-46488000D02*
X116620000Y-46488000D01*
X85000000Y-50200000D02*
X95000000Y-50200000D01*
X77000000Y-45200000D02*
X80000000Y-45200000D01*
X80000000Y-45200000D02*
X85000000Y-50200000D01*
X67000000Y-45200000D02*
X77000000Y-45200000D01*
X49000000Y-39200000D02*
X59000000Y-39200000D01*
X49000000Y-39200000D02*
X46000000Y-39200000D01*
X46000000Y-39200000D02*
X41000000Y-44200000D01*
X31000000Y-44200000D02*
X41000000Y-44200000D01*
X23000000Y-47200000D02*
X26000000Y-44200000D01*
X26000000Y-44200000D02*
X31000000Y-44200000D01*
X13000000Y-47200000D02*
X23000000Y-47200000D01*
X5000000Y-47200000D02*
X13000000Y-47200000D01*
X-5000000Y-47200000D02*
X5000000Y-47200000D01*
X95000000Y-50200000D02*
X96892000Y-48308000D01*
X103661800Y-48308000D02*
X105481800Y-46488000D01*
X96892000Y-48308000D02*
X103661800Y-48308000D01*
X77000000Y-62200000D02*
X80000000Y-62200000D01*
X80000000Y-62200000D02*
X85000000Y-67200000D01*
X67000000Y-62200000D02*
X77000000Y-62200000D01*
X49000000Y-56200000D02*
X59000000Y-56200000D01*
X49000000Y-56200000D02*
X46000000Y-56200000D01*
X46000000Y-56200000D02*
X41000000Y-61200000D01*
X5000000Y-64200000D02*
X13000000Y-64200000D01*
X-5000000Y-64200000D02*
X5000000Y-64200000D01*
X95000000Y-67200000D02*
X85000000Y-67200000D01*
X31000000Y-61200000D02*
X41000000Y-61200000D01*
X23000000Y-64200000D02*
X26000000Y-61200000D01*
X26000000Y-61200000D02*
X31000000Y-61200000D01*
X13000000Y-64200000D02*
X23000000Y-64200000D01*
X3900000Y-21500000D02*
X5025300Y-21500000D01*
X5025300Y-21500000D02*
X6550700Y-19974600D01*
X6550700Y-19974600D02*
X48874600Y-19974600D01*
X48874600Y-19974600D02*
X50374200Y-21474200D01*
X50374200Y-21474200D02*
X54725800Y-21474200D01*
X54725800Y-21474200D02*
X55368400Y-20831600D01*
X55368400Y-20831600D02*
X59981600Y-20831600D01*
X59981600Y-20831600D02*
X61179000Y-22029000D01*
X61179000Y-22029000D02*
X100439000Y-22029000D01*
X100439000Y-22029000D02*
X101380000Y-21088000D01*
X2500000Y-21500000D02*
X3900000Y-21500000D01*
X2500000Y-72500000D02*
X1400000Y-72500000D01*
X3900000Y-72500000D02*
X2500000Y-72500000D01*
X2500000Y-55500000D02*
X1400000Y-55500000D01*
X3900000Y-55500000D02*
X2500000Y-55500000D01*
X2500000Y-38500000D02*
X1400000Y-38500000D01*
X3900000Y-38500000D02*
X2500000Y-38500000D01*
X1400000Y-21500000D02*
X2500000Y-21500000D01*
X1400000Y-4500000D02*
X2500000Y-4500000D01*
X3900000Y-4500000D02*
X2500000Y-4500000D01*
X116620000Y-43948000D02*
X112810000Y-40138000D01*
X112810000Y-40138000D02*
X95437200Y-40138000D01*
X95437200Y-40138000D02*
X94987000Y-39687800D01*
X94987000Y-39687800D02*
X80213100Y-39687800D01*
X80213100Y-39687800D02*
X77025300Y-36500000D01*
X75900000Y-36500000D02*
X77025300Y-36500000D01*
X75900000Y-36500000D02*
X74500000Y-36500000D01*
X74500000Y-53500000D02*
X75900000Y-53500000D01*
X74500000Y-70500000D02*
X73400000Y-70500000D01*
X75900000Y-70500000D02*
X74500000Y-70500000D01*
X74500000Y-53500000D02*
X73400000Y-53500000D01*
X73400000Y-36500000D02*
X74500000Y-36500000D01*
X73400000Y-19500000D02*
X74500000Y-19500000D01*
X75900000Y-19500000D02*
X74500000Y-19500000D01*
X73400000Y-2500000D02*
X74500000Y-2500000D01*
X75900000Y-2500000D02*
X74500000Y-2500000D01*
X39900000Y-35500000D02*
X58200000Y-35500000D01*
X58200000Y-35500000D02*
X63063100Y-40363100D01*
X63063100Y-40363100D02*
X94912700Y-40363100D01*
X94912700Y-40363100D02*
X95957600Y-41408000D01*
X95957600Y-41408000D02*
X101380000Y-41408000D01*
X38500000Y-35500000D02*
X39900000Y-35500000D01*
X37400000Y-69500000D02*
X38500000Y-69500000D01*
X39900000Y-69500000D02*
X38500000Y-69500000D01*
X37400000Y-52500000D02*
X38500000Y-52500000D01*
X39900000Y-52500000D02*
X38500000Y-52500000D01*
X37400000Y-35500000D02*
X38500000Y-35500000D01*
X38500000Y-18500000D02*
X37400000Y-18500000D01*
X39900000Y-18500000D02*
X38500000Y-18500000D01*
X37400000Y-1525000D02*
X38500000Y-1525000D01*
X39900000Y-1525000D02*
X38500000Y-1525000D01*
X93900000Y-24500000D02*
X95025300Y-24500000D01*
X95025300Y-24500000D02*
X100503300Y-29978000D01*
X100503300Y-29978000D02*
X107730000Y-29978000D01*
X107730000Y-29978000D02*
X116620000Y-38868000D01*
X93900000Y-24500000D02*
X92500000Y-24500000D01*
X103000000Y-59100000D02*
X95625300Y-59100000D01*
X95625300Y-59100000D02*
X95025300Y-58500000D01*
X93900000Y-58500000D02*
X95025300Y-58500000D01*
X103000000Y-59100000D02*
X103000000Y-60500000D01*
X103000000Y-61600000D02*
X103000000Y-60500000D01*
X91400000Y-75500000D02*
X92500000Y-75500000D01*
X93900000Y-75500000D02*
X92500000Y-75500000D01*
X91400000Y-58500000D02*
X92500000Y-58500000D01*
X93900000Y-58500000D02*
X92500000Y-58500000D01*
X91400000Y-41500000D02*
X92500000Y-41500000D01*
X93900000Y-41500000D02*
X92500000Y-41500000D01*
X91400000Y-24500000D02*
X92500000Y-24500000D01*
X91400000Y-7500000D02*
X92500000Y-7500000D01*
X93900000Y-7500000D02*
X92500000Y-7500000D01*
X57900000Y-47500000D02*
X59025300Y-47500000D01*
X59025300Y-47500000D02*
X62689700Y-43835600D01*
X62689700Y-43835600D02*
X67735600Y-43835600D01*
X67735600Y-43835600D02*
X68374200Y-44474200D01*
X68374200Y-44474200D02*
X75850300Y-44474200D01*
X75850300Y-44474200D02*
X76455800Y-43868700D01*
X76455800Y-43868700D02*
X98760700Y-43868700D01*
X98760700Y-43868700D02*
X101380000Y-46488000D01*
X56500000Y-47500000D02*
X57900000Y-47500000D01*
X55400000Y-64500000D02*
X56500000Y-64500000D01*
X57900000Y-64500000D02*
X56500000Y-64500000D01*
X55400000Y-47500000D02*
X56500000Y-47500000D01*
X55400000Y-30500000D02*
X56500000Y-30500000D01*
X57900000Y-30500000D02*
X56500000Y-30500000D01*
X55400000Y-13500000D02*
X56500000Y-13500000D01*
X57900000Y-13500000D02*
X56500000Y-13500000D01*
X55400000Y3500000D02*
X56500000Y3500000D01*
X57900000Y3500000D02*
X56500000Y3500000D01*
X21950000Y-38500000D02*
X23075300Y-38500000D01*
X23075300Y-38500000D02*
X27212600Y-34362700D01*
X27212600Y-34362700D02*
X83525000Y-34362700D01*
X83525000Y-34362700D02*
X84118400Y-34956100D01*
X84118400Y-34956100D02*
X100008100Y-34956100D01*
X100008100Y-34956100D02*
X101380000Y-36328000D01*
X20550000Y-38500000D02*
X21950000Y-38500000D01*
X20500000Y-72500000D02*
X19400000Y-72500000D01*
X21900000Y-72500000D02*
X20500000Y-72500000D01*
X19450000Y-55500000D02*
X20550000Y-55500000D01*
X21950000Y-55500000D02*
X20550000Y-55500000D01*
X19450000Y-38500000D02*
X20550000Y-38500000D01*
X19450000Y-21500000D02*
X20550000Y-21500000D01*
X21950000Y-21500000D02*
X20550000Y-21500000D01*
X19450000Y-4500000D02*
X20550000Y-4500000D01*
X21950000Y-4500000D02*
X20550000Y-4500000D01*
X68100000Y-2500000D02*
X69500000Y-2500000D01*
X69500000Y-2500000D02*
X70600000Y-2500000D01*
X116928000Y-56718000D02*
X115556000Y-55346000D01*
X115556000Y-55346000D02*
X115556000Y-49282500D01*
X115556000Y-49282500D02*
X117874700Y-46963800D01*
X117874700Y-46963800D02*
X117874700Y-24882700D01*
X117874700Y-24882700D02*
X116620000Y-23628000D01*
M02*
