  0
SECTION
  2
HEADER
  9
$ANGBASE
  50
0.0
  9
$ANGDIR
  70
1
  9
$MEASUREMENT
  70
1
  0
ENDSEC
  0
SECTION
  2
TABLES
  0
TABLE
  2
LTYPE
  70
4
  0
LTYPE
  5
40F
  2
CONTINUOUS
  70
0
  3
Solid line
  72
65
  73
0
  40
0.0
  0
LTYPE
  5
410
  2
DASHDOT
 70
0
  3
Dash Dot ____ _ ____ _
 72
65
 73
4
 40
2.0
 49
1.25
 49
-0.25
 49
0.25
 49
-0.25
  0
LTYPE
  5
411
  2
DASHED
 70
0
  3
Dashed __ __ __ __ __
 72
65
 73
2
 40
0.75
 49
0.5
 49
-0.25
  0
LTYPE
  5
43B
  2
DOTTED
 70
0
  3
Dotted .  .  .  .
 72
65
 73
2
 40
0.2
 49
0.0
 49
-0.2
  0
ENDTAB
  0
TABLE
  2
STYLE
  70
4
  0
STYLE
  2
KICAD
  70
0
  40
0
  41
1
  42
1
  50
0
  71
0
  3
isocp.shx
  0
STYLE
  2
KICADB
  70
0
  40
0
  41
1
  42
1
  50
0
  71
0
  3
isocp.shx
  0
STYLE
  2
KICADI
  70
0
  40
0
  41
1
  42
1
  50
15
  71
0
  3
isocp.shx
  0
STYLE
  2
KICADBI
  70
0
  40
0
  41
1
  42
1
  50
15
  71
0
  3
isocp.shx
  0
ENDTAB
  0
TABLE
  2
LAYER
  70
1
  0
LAYER
  2
BLACK
  70
0
  62
7
  6
CONTINUOUS
  0
ENDTAB
  0
ENDSEC
  0
SECTION
  2
ENTITIES
0
LINE
8
BLACK
6
CONTINUOUS
10
97.45
20
-87.6
11
95.85
21
-87.6
0
LINE
8
BLACK
6
CONTINUOUS
10
95.85
20
-87.6
11
95.85
21
-86.4
0
LINE
8
BLACK
6
CONTINUOUS
10
95.85
20
-86.4
11
97.45
21
-86.4
0
LINE
8
BLACK
6
CONTINUOUS
10
97.45
20
-86.4
11
97.45
21
-87.6
0
LINE
8
BLACK
6
CONTINUOUS
10
94.65
20
-87.6
11
93.05
21
-87.6
0
LINE
8
BLACK
6
CONTINUOUS
10
93.05
20
-87.6
11
93.05
21
-86.4
0
LINE
8
BLACK
6
CONTINUOUS
10
93.05
20
-86.4
11
94.65
21
-86.4
0
LINE
8
BLACK
6
CONTINUOUS
10
94.65
20
-86.4
11
94.65
21
-87.6
0
LINE
8
BLACK
6
CONTINUOUS
10
99.5
20
-85.25
11
97
21
-85.25
0
LINE
8
BLACK
6
CONTINUOUS
10
97
20
-85.25
11
97
21
-84.25
0
LINE
8
BLACK
6
CONTINUOUS
10
97
20
-84.25
11
99.5
21
-84.25
0
LINE
8
BLACK
6
CONTINUOUS
10
99.5
20
-84.25
11
99.5
21
-85.25
0
LINE
8
BLACK
6
CONTINUOUS
10
93.5
20
-85.25
11
91
21
-85.25
0
LINE
8
BLACK
6
CONTINUOUS
10
91
20
-85.25
11
91
21
-84.25
0
LINE
8
BLACK
6
CONTINUOUS
10
91
20
-84.25
11
93.5
21
-84.25
0
LINE
8
BLACK
6
CONTINUOUS
10
93.5
20
-84.25
11
93.5
21
-85.25
0
LINE
8
BLACK
6
CONTINUOUS
10
18.45
20
-84.6
11
16.85
21
-84.6
0
LINE
8
BLACK
6
CONTINUOUS
10
16.85
20
-84.6
11
16.85
21
-83.4
0
LINE
8
BLACK
6
CONTINUOUS
10
16.85
20
-83.4
11
18.45
21
-83.4
0
LINE
8
BLACK
6
CONTINUOUS
10
18.45
20
-83.4
11
18.45
21
-84.6
0
LINE
8
BLACK
6
CONTINUOUS
10
21.25
20
-84.6
11
19.65
21
-84.6
0
LINE
8
BLACK
6
CONTINUOUS
10
19.65
20
-84.6
11
19.65
21
-83.4
0
LINE
8
BLACK
6
CONTINUOUS
10
19.65
20
-83.4
11
21.25
21
-83.4
0
LINE
8
BLACK
6
CONTINUOUS
10
21.25
20
-83.4
11
21.25
21
-84.6
0
LINE
8
BLACK
6
CONTINUOUS
10
-0.6
20
-84.6
11
-2.2
21
-84.6
0
LINE
8
BLACK
6
CONTINUOUS
10
-2.2
20
-84.6
11
-2.2
21
-83.4
0
LINE
8
BLACK
6
CONTINUOUS
10
-2.2
20
-83.4
11
-0.6
21
-83.4
0
LINE
8
BLACK
6
CONTINUOUS
10
-0.6
20
-83.4
11
-0.6
21
-84.6
0
LINE
8
BLACK
6
CONTINUOUS
10
2.2
20
-84.6
11
0.6
21
-84.6
0
LINE
8
BLACK
6
CONTINUOUS
10
0.6
20
-84.6
11
0.6
21
-83.4
0
LINE
8
BLACK
6
CONTINUOUS
10
0.6
20
-83.4
11
2.2
21
-83.4
0
LINE
8
BLACK
6
CONTINUOUS
10
2.2
20
-83.4
11
2.2
21
-84.6
0
LINE
8
BLACK
6
CONTINUOUS
10
93.5
20
-83.65
11
91
21
-83.65
0
LINE
8
BLACK
6
CONTINUOUS
10
91
20
-83.65
11
91
21
-82.65
0
LINE
8
BLACK
6
CONTINUOUS
10
91
20
-82.65
11
93.5
21
-82.65
0
LINE
8
BLACK
6
CONTINUOUS
10
93.5
20
-82.65
11
93.5
21
-83.65
0
LINE
8
BLACK
6
CONTINUOUS
10
99.5
20
-83.65
11
97
21
-83.65
0
LINE
8
BLACK
6
CONTINUOUS
10
97
20
-83.65
11
97
21
-82.65
0
LINE
8
BLACK
6
CONTINUOUS
10
97
20
-82.65
11
99.5
21
-82.65
0
LINE
8
BLACK
6
CONTINUOUS
10
99.5
20
-82.65
11
99.5
21
-83.65
0
LINE
8
BLACK
6
CONTINUOUS
10
75.6
20
-82.6
11
74
21
-82.6
0
LINE
8
BLACK
6
CONTINUOUS
10
74
20
-82.6
11
74
21
-81.4
0
LINE
8
BLACK
6
CONTINUOUS
10
74
20
-81.4
11
75.6
21
-81.4
0
LINE
8
BLACK
6
CONTINUOUS
10
75.6
20
-81.4
11
75.6
21
-82.6
0
LINE
8
BLACK
6
CONTINUOUS
10
78.4
20
-82.6
11
76.8
21
-82.6
0
LINE
8
BLACK
6
CONTINUOUS
10
76.8
20
-82.6
11
76.8
21
-81.4
0
LINE
8
BLACK
6
CONTINUOUS
10
76.8
20
-81.4
11
78.4
21
-81.4
0
LINE
8
BLACK
6
CONTINUOUS
10
78.4
20
-81.4
11
78.4
21
-82.6
0
LINE
8
BLACK
6
CONTINUOUS
10
4.25
20
-82.25
11
1.75
21
-82.25
0
LINE
8
BLACK
6
CONTINUOUS
10
1.75
20
-82.25
11
1.75
21
-81.25
0
LINE
8
BLACK
6
CONTINUOUS
10
1.75
20
-81.25
11
4.25
21
-81.25
0
LINE
8
BLACK
6
CONTINUOUS
10
4.25
20
-81.25
11
4.25
21
-82.25
0
LINE
8
BLACK
6
CONTINUOUS
10
-1.75
20
-82.25
11
-4.25
21
-82.25
0
LINE
8
BLACK
6
CONTINUOUS
10
-4.25
20
-82.25
11
-4.25
21
-81.25
0
LINE
8
BLACK
6
CONTINUOUS
10
-4.25
20
-81.25
11
-1.75
21
-81.25
0
LINE
8
BLACK
6
CONTINUOUS
10
-1.75
20
-81.25
11
-1.75
21
-82.25
0
LINE
8
BLACK
6
CONTINUOUS
10
17.3
20
-82.25
11
14.8
21
-82.25
0
LINE
8
BLACK
6
CONTINUOUS
10
14.8
20
-82.25
11
14.8
21
-81.25
0
LINE
8
BLACK
6
CONTINUOUS
10
14.8
20
-81.25
11
17.3
21
-81.25
0
LINE
8
BLACK
6
CONTINUOUS
10
17.3
20
-81.25
11
17.3
21
-82.25
0
LINE
8
BLACK
6
CONTINUOUS
10
23.3
20
-82.25
11
20.8
21
-82.25
0
LINE
8
BLACK
6
CONTINUOUS
10
20.8
20
-82.25
11
20.8
21
-81.25
0
LINE
8
BLACK
6
CONTINUOUS
10
20.8
20
-81.25
11
23.3
21
-81.25
0
LINE
8
BLACK
6
CONTINUOUS
10
23.3
20
-81.25
11
23.3
21
-82.25
0
LINE
8
BLACK
6
CONTINUOUS
10
37.5
20
-81.6
11
35.9
21
-81.6
0
LINE
8
BLACK
6
CONTINUOUS
10
35.9
20
-81.6
11
35.9
21
-80.4
0
LINE
8
BLACK
6
CONTINUOUS
10
35.9
20
-80.4
11
37.5
21
-80.4
0
LINE
8
BLACK
6
CONTINUOUS
10
37.5
20
-80.4
11
37.5
21
-81.6
0
LINE
8
BLACK
6
CONTINUOUS
10
40.3
20
-81.6
11
38.7
21
-81.6
0
LINE
8
BLACK
6
CONTINUOUS
10
38.7
20
-81.6
11
38.7
21
-80.4
0
LINE
8
BLACK
6
CONTINUOUS
10
38.7
20
-80.4
11
40.3
21
-80.4
0
LINE
8
BLACK
6
CONTINUOUS
10
40.3
20
-80.4
11
40.3
21
-81.6
0
LINE
8
BLACK
6
CONTINUOUS
10
17.3
20
-80.65
11
14.8
21
-80.65
0
LINE
8
BLACK
6
CONTINUOUS
10
14.8
20
-80.65
11
14.8
21
-79.65
0
LINE
8
BLACK
6
CONTINUOUS
10
14.8
20
-79.65
11
17.3
21
-79.65
0
LINE
8
BLACK
6
CONTINUOUS
10
17.3
20
-79.65
11
17.3
21
-80.65
0
LINE
8
BLACK
6
CONTINUOUS
10
23.3
20
-80.65
11
20.8
21
-80.65
0
LINE
8
BLACK
6
CONTINUOUS
10
20.8
20
-80.65
11
20.8
21
-79.65
0
LINE
8
BLACK
6
CONTINUOUS
10
20.8
20
-79.65
11
23.3
21
-79.65
0
LINE
8
BLACK
6
CONTINUOUS
10
23.3
20
-79.65
11
23.3
21
-80.65
0
LINE
8
BLACK
6
CONTINUOUS
10
4.25
20
-80.65
11
1.75
21
-80.65
0
LINE
8
BLACK
6
CONTINUOUS
10
1.75
20
-80.65
11
1.75
21
-79.65
0
LINE
8
BLACK
6
CONTINUOUS
10
1.75
20
-79.65
11
4.25
21
-79.65
0
LINE
8
BLACK
6
CONTINUOUS
10
4.25
20
-79.65
11
4.25
21
-80.65
0
LINE
8
BLACK
6
CONTINUOUS
10
-1.75
20
-80.65
11
-4.25
21
-80.65
0
LINE
8
BLACK
6
CONTINUOUS
10
-4.25
20
-80.65
11
-4.25
21
-79.65
0
LINE
8
BLACK
6
CONTINUOUS
10
-4.25
20
-79.65
11
-1.75
21
-79.65
0
LINE
8
BLACK
6
CONTINUOUS
10
-1.75
20
-79.65
11
-1.75
21
-80.65
0
LINE
8
BLACK
6
CONTINUOUS
10
74.45
20
-80.25
11
71.95
21
-80.25
0
LINE
8
BLACK
6
CONTINUOUS
10
71.95
20
-80.25
11
71.95
21
-79.25
0
LINE
8
BLACK
6
CONTINUOUS
10
71.95
20
-79.25
11
74.45
21
-79.25
0
LINE
8
BLACK
6
CONTINUOUS
10
74.45
20
-79.25
11
74.45
21
-80.25
0
LINE
8
BLACK
6
CONTINUOUS
10
80.45
20
-80.25
11
77.95
21
-80.25
0
LINE
8
BLACK
6
CONTINUOUS
10
77.95
20
-80.25
11
77.95
21
-79.25
0
LINE
8
BLACK
6
CONTINUOUS
10
77.95
20
-79.25
11
80.45
21
-79.25
0
LINE
8
BLACK
6
CONTINUOUS
10
80.45
20
-79.25
11
80.45
21
-80.25
0
LINE
8
BLACK
6
CONTINUOUS
10
117.79
20
-79.835
11
115.29
21
-79.835
0
LINE
8
BLACK
6
CONTINUOUS
10
115.29
20
-79.835
11
115.29
21
-77.285
0
LINE
8
BLACK
6
CONTINUOUS
10
115.29
20
-77.285
11
117.79
21
-77.285
0
LINE
8
BLACK
6
CONTINUOUS
10
117.79
20
-77.285
11
117.79
21
-79.835
0
LINE
8
BLACK
6
CONTINUOUS
10
36.35
20
-79.25
11
33.85
21
-79.25
0
LINE
8
BLACK
6
CONTINUOUS
10
33.85
20
-79.25
11
33.85
21
-78.25
0
LINE
8
BLACK
6
CONTINUOUS
10
33.85
20
-78.25
11
36.35
21
-78.25
0
LINE
8
BLACK
6
CONTINUOUS
10
36.35
20
-78.25
11
36.35
21
-79.25
0
LINE
8
BLACK
6
CONTINUOUS
10
42.35
20
-79.25
11
39.85
21
-79.25
0
LINE
8
BLACK
6
CONTINUOUS
10
39.85
20
-79.25
11
39.85
21
-78.25
0
LINE
8
BLACK
6
CONTINUOUS
10
39.85
20
-78.25
11
42.35
21
-78.25
0
LINE
8
BLACK
6
CONTINUOUS
10
42.35
20
-78.25
11
42.35
21
-79.25
0
LINE
8
BLACK
6
CONTINUOUS
10
74.45
20
-78.65
11
71.95
21
-78.65
0
LINE
8
BLACK
6
CONTINUOUS
10
71.95
20
-78.65
11
71.95
21
-77.65
0
LINE
8
BLACK
6
CONTINUOUS
10
71.95
20
-77.65
11
74.45
21
-77.65
0
LINE
8
BLACK
6
CONTINUOUS
10
74.45
20
-77.65
11
74.45
21
-78.65
0
LINE
8
BLACK
6
CONTINUOUS
10
80.45
20
-78.65
11
77.95
21
-78.65
0
LINE
8
BLACK
6
CONTINUOUS
10
77.95
20
-78.65
11
77.95
21
-77.65
0
LINE
8
BLACK
6
CONTINUOUS
10
77.95
20
-77.65
11
80.45
21
-77.65
0
LINE
8
BLACK
6
CONTINUOUS
10
80.45
20
-77.65
11
80.45
21
-78.65
0
LINE
8
BLACK
6
CONTINUOUS
10
104.085
20
-77.91
11
101.535
21
-77.91
0
LINE
8
BLACK
6
CONTINUOUS
10
101.535
20
-77.91
11
101.535
21
-75.41
0
LINE
8
BLACK
6
CONTINUOUS
10
101.535
20
-75.41
11
104.085
21
-75.41
0
LINE
8
BLACK
6
CONTINUOUS
10
104.085
20
-75.41
11
104.085
21
-77.91
0
LINE
8
BLACK
6
CONTINUOUS
10
42.35
20
-77.65
11
39.85
21
-77.65
0
LINE
8
BLACK
6
CONTINUOUS
10
39.85
20
-77.65
11
39.85
21
-76.65
0
LINE
8
BLACK
6
CONTINUOUS
10
39.85
20
-76.65
11
42.35
21
-76.65
0
LINE
8
BLACK
6
CONTINUOUS
10
42.35
20
-76.65
11
42.35
21
-77.65
0
LINE
8
BLACK
6
CONTINUOUS
10
36.35
20
-77.65
11
33.85
21
-77.65
0
LINE
8
BLACK
6
CONTINUOUS
10
33.85
20
-77.65
11
33.85
21
-76.65
0
LINE
8
BLACK
6
CONTINUOUS
10
33.85
20
-76.65
11
36.35
21
-76.65
0
LINE
8
BLACK
6
CONTINUOUS
10
36.35
20
-76.65
11
36.35
21
-77.65
0
LINE
8
BLACK
6
CONTINUOUS
10
59.35
20
-76.6
11
57.75
21
-76.6
0
LINE
8
BLACK
6
CONTINUOUS
10
57.75
20
-76.6
11
57.75
21
-75.4
0
LINE
8
BLACK
6
CONTINUOUS
10
57.75
20
-75.4
11
59.35
21
-75.4
0
LINE
8
BLACK
6
CONTINUOUS
10
59.35
20
-75.4
11
59.35
21
-76.6
0
LINE
8
BLACK
6
CONTINUOUS
10
56.55
20
-76.6
11
54.95
21
-76.6
0
LINE
8
BLACK
6
CONTINUOUS
10
54.95
20
-76.6
11
54.95
21
-75.4
0
LINE
8
BLACK
6
CONTINUOUS
10
54.95
20
-75.4
11
56.55
21
-75.4
0
LINE
8
BLACK
6
CONTINUOUS
10
56.55
20
-75.4
11
56.55
21
-76.6
0
LINE
8
BLACK
6
CONTINUOUS
10
90.235
20
-75.37
11
87.685
21
-75.37
0
LINE
8
BLACK
6
CONTINUOUS
10
87.685
20
-75.37
11
87.685
21
-72.87
0
LINE
8
BLACK
6
CONTINUOUS
10
87.685
20
-72.87
11
90.235
21
-72.87
0
LINE
8
BLACK
6
CONTINUOUS
10
90.235
20
-72.87
11
90.235
21
-75.37
0
LINE
8
BLACK
6
CONTINUOUS
10
110.55
20
-75.25
11
109.55
21
-75.25
0
LINE
8
BLACK
6
CONTINUOUS
10
109.55
20
-75.25
11
109.55
21
-72.75
0
LINE
8
BLACK
6
CONTINUOUS
10
109.55
20
-72.75
11
110.55
21
-72.75
0
LINE
8
BLACK
6
CONTINUOUS
10
110.55
20
-72.75
11
110.55
21
-75.25
0
LINE
8
BLACK
6
CONTINUOUS
10
108.95
20
-75.25
11
107.95
21
-75.25
0
LINE
8
BLACK
6
CONTINUOUS
10
107.95
20
-75.25
11
107.95
21
-72.75
0
LINE
8
BLACK
6
CONTINUOUS
10
107.95
20
-72.75
11
108.95
21
-72.75
0
LINE
8
BLACK
6
CONTINUOUS
10
108.95
20
-72.75
11
108.95
21
-75.25
0
LINE
8
BLACK
6
CONTINUOUS
10
27.885
20
-74.91
11
25.335
21
-74.91
0
LINE
8
BLACK
6
CONTINUOUS
10
25.335
20
-74.91
11
25.335
21
-72.41
0
LINE
8
BLACK
6
CONTINUOUS
10
25.335
20
-72.41
11
27.885
21
-72.41
0
LINE
8
BLACK
6
CONTINUOUS
10
27.885
20
-72.41
11
27.885
21
-74.91
0
LINE
8
BLACK
6
CONTINUOUS
10
8.835
20
-74.91
11
6.285
21
-74.91
0
LINE
8
BLACK
6
CONTINUOUS
10
6.285
20
-74.91
11
6.285
21
-72.41
0
LINE
8
BLACK
6
CONTINUOUS
10
6.285
20
-72.41
11
8.835
21
-72.41
0
LINE
8
BLACK
6
CONTINUOUS
10
8.835
20
-72.41
11
8.835
21
-74.91
0
LINE
8
BLACK
6
CONTINUOUS
10
55.4
20
-74.25
11
52.9
21
-74.25
0
LINE
8
BLACK
6
CONTINUOUS
10
52.9
20
-74.25
11
52.9
21
-73.25
0
LINE
8
BLACK
6
CONTINUOUS
10
52.9
20
-73.25
11
55.4
21
-73.25
0
LINE
8
BLACK
6
CONTINUOUS
10
55.4
20
-73.25
11
55.4
21
-74.25
0
LINE
8
BLACK
6
CONTINUOUS
10
61.4
20
-74.25
11
58.9
21
-74.25
0
LINE
8
BLACK
6
CONTINUOUS
10
58.9
20
-74.25
11
58.9
21
-73.25
0
LINE
8
BLACK
6
CONTINUOUS
10
58.9
20
-73.25
11
61.4
21
-73.25
0
LINE
8
BLACK
6
CONTINUOUS
10
61.4
20
-73.25
11
61.4
21
-74.25
0
LINE
8
BLACK
6
CONTINUOUS
10
85.035
20
-72.91
11
82.485
21
-72.91
0
LINE
8
BLACK
6
CONTINUOUS
10
82.485
20
-72.91
11
82.485
21
-70.41
0
LINE
8
BLACK
6
CONTINUOUS
10
82.485
20
-70.41
11
85.035
21
-70.41
0
LINE
8
BLACK
6
CONTINUOUS
10
85.035
20
-70.41
11
85.035
21
-72.91
0
LINE
8
BLACK
6
CONTINUOUS
10
61.4
20
-72.65
11
58.9
21
-72.65
0
LINE
8
BLACK
6
CONTINUOUS
10
58.9
20
-72.65
11
58.9
21
-71.65
0
LINE
8
BLACK
6
CONTINUOUS
10
58.9
20
-71.65
11
61.4
21
-71.65
0
LINE
8
BLACK
6
CONTINUOUS
10
61.4
20
-71.65
11
61.4
21
-72.65
0
LINE
8
BLACK
6
CONTINUOUS
10
55.4
20
-72.65
11
52.9
21
-72.65
0
LINE
8
BLACK
6
CONTINUOUS
10
52.9
20
-72.65
11
52.9
21
-71.65
0
LINE
8
BLACK
6
CONTINUOUS
10
52.9
20
-71.65
11
55.4
21
-71.65
0
LINE
8
BLACK
6
CONTINUOUS
10
55.4
20
-71.65
11
55.4
21
-72.65
0
LINE
8
BLACK
6
CONTINUOUS
10
14.035
20
-72.37
11
11.485
21
-72.37
0
LINE
8
BLACK
6
CONTINUOUS
10
11.485
20
-72.37
11
11.485
21
-69.87
0
LINE
8
BLACK
6
CONTINUOUS
10
11.485
20
-69.87
11
14.035
21
-69.87
0
LINE
8
BLACK
6
CONTINUOUS
10
14.035
20
-69.87
11
14.035
21
-72.37
0
LINE
8
BLACK
6
CONTINUOUS
10
-5.015
20
-72.37
11
-7.565
21
-72.37
0
LINE
8
BLACK
6
CONTINUOUS
10
-7.565
20
-72.37
11
-7.565
21
-69.87
0
LINE
8
BLACK
6
CONTINUOUS
10
-7.565
20
-69.87
11
-5.015
21
-69.87
0
LINE
8
BLACK
6
CONTINUOUS
10
-5.015
20
-69.87
11
-5.015
21
-72.37
0
LINE
8
BLACK
6
CONTINUOUS
10
106.528
20
-72.188
11
105.328
21
-72.188
0
LINE
8
BLACK
6
CONTINUOUS
10
105.328
20
-72.188
11
105.328
21
-70.588
0
LINE
8
BLACK
6
CONTINUOUS
10
105.328
20
-70.588
11
106.528
21
-70.588
0
LINE
8
BLACK
6
CONTINUOUS
10
106.528
20
-70.588
11
106.528
21
-72.188
0
LINE
8
BLACK
6
CONTINUOUS
10
46.935
20
-71.91
11
44.385
21
-71.91
0
LINE
8
BLACK
6
CONTINUOUS
10
44.385
20
-71.91
11
44.385
21
-69.41
0
LINE
8
BLACK
6
CONTINUOUS
10
44.385
20
-69.41
11
46.935
21
-69.41
0
LINE
8
BLACK
6
CONTINUOUS
10
46.935
20
-69.41
11
46.935
21
-71.91
0
LINE
8
BLACK
6
CONTINUOUS
10
71.185
20
-70.37
11
68.635
21
-70.37
0
LINE
8
BLACK
6
CONTINUOUS
10
68.635
20
-70.37
11
68.635
21
-67.87
0
LINE
8
BLACK
6
CONTINUOUS
10
68.635
20
-67.87
11
71.185
21
-67.87
0
LINE
8
BLACK
6
CONTINUOUS
10
71.185
20
-67.87
11
71.185
21
-70.37
0
LINE
8
BLACK
6
CONTINUOUS
10
94.65
20
-70.1
11
93.05
21
-70.1
0
LINE
8
BLACK
6
CONTINUOUS
10
93.05
20
-70.1
11
93.05
21
-68.9
0
LINE
8
BLACK
6
CONTINUOUS
10
93.05
20
-68.9
11
94.65
21
-68.9
0
LINE
8
BLACK
6
CONTINUOUS
10
94.65
20
-68.9
11
94.65
21
-70.1
0
LINE
8
BLACK
6
CONTINUOUS
10
97.45
20
-70.1
11
95.85
21
-70.1
0
LINE
8
BLACK
6
CONTINUOUS
10
95.85
20
-70.1
11
95.85
21
-68.9
0
LINE
8
BLACK
6
CONTINUOUS
10
95.85
20
-68.9
11
97.45
21
-68.9
0
LINE
8
BLACK
6
CONTINUOUS
10
97.45
20
-68.9
11
97.45
21
-70.1
0
LINE
8
BLACK
6
CONTINUOUS
10
106.528
20
-69.388
11
105.328
21
-69.388
0
LINE
8
BLACK
6
CONTINUOUS
10
105.328
20
-69.388
11
105.328
21
-67.788
0
LINE
8
BLACK
6
CONTINUOUS
10
105.328
20
-67.788
11
106.528
21
-67.788
0
LINE
8
BLACK
6
CONTINUOUS
10
106.528
20
-67.788
11
106.528
21
-69.388
0
LINE
8
BLACK
6
CONTINUOUS
10
33.085
20
-69.37
11
30.535
21
-69.37
0
LINE
8
BLACK
6
CONTINUOUS
10
30.535
20
-69.37
11
30.535
21
-66.87
0
LINE
8
BLACK
6
CONTINUOUS
10
30.535
20
-66.87
11
33.085
21
-66.87
0
LINE
8
BLACK
6
CONTINUOUS
10
33.085
20
-66.87
11
33.085
21
-69.37
0
LINE
8
BLACK
6
CONTINUOUS
10
110.55
20
-69.25
11
109.55
21
-69.25
0
LINE
8
BLACK
6
CONTINUOUS
10
109.55
20
-69.25
11
109.55
21
-66.75
0
LINE
8
BLACK
6
CONTINUOUS
10
109.55
20
-66.75
11
110.55
21
-66.75
0
LINE
8
BLACK
6
CONTINUOUS
10
110.55
20
-66.75
11
110.55
21
-69.25
0
LINE
8
BLACK
6
CONTINUOUS
10
108.95
20
-69.25
11
107.95
21
-69.25
0
LINE
8
BLACK
6
CONTINUOUS
10
107.95
20
-69.25
11
107.95
21
-66.75
0
LINE
8
BLACK
6
CONTINUOUS
10
107.95
20
-66.75
11
108.95
21
-66.75
0
LINE
8
BLACK
6
CONTINUOUS
10
108.95
20
-66.75
11
108.95
21
-69.25
0
LINE
8
BLACK
6
CONTINUOUS
10
21.25
20
-67.1
11
19.65
21
-67.1
0
LINE
8
BLACK
6
CONTINUOUS
10
19.65
20
-67.1
11
19.65
21
-65.9
0
LINE
8
BLACK
6
CONTINUOUS
10
19.65
20
-65.9
11
21.25
21
-65.9
0
LINE
8
BLACK
6
CONTINUOUS
10
21.25
20
-65.9
11
21.25
21
-67.1
0
LINE
8
BLACK
6
CONTINUOUS
10
18.45
20
-67.1
11
16.85
21
-67.1
0
LINE
8
BLACK
6
CONTINUOUS
10
16.85
20
-67.1
11
16.85
21
-65.9
0
LINE
8
BLACK
6
CONTINUOUS
10
16.85
20
-65.9
11
18.45
21
-65.9
0
LINE
8
BLACK
6
CONTINUOUS
10
18.45
20
-65.9
11
18.45
21
-67.1
0
LINE
8
BLACK
6
CONTINUOUS
10
2.2
20
-67.1
11
0.6
21
-67.1
0
LINE
8
BLACK
6
CONTINUOUS
10
0.6
20
-67.1
11
0.6
21
-65.9
0
LINE
8
BLACK
6
CONTINUOUS
10
0.6
20
-65.9
11
2.2
21
-65.9
0
LINE
8
BLACK
6
CONTINUOUS
10
2.2
20
-65.9
11
2.2
21
-67.1
0
LINE
8
BLACK
6
CONTINUOUS
10
-0.6
20
-67.1
11
-2.2
21
-67.1
0
LINE
8
BLACK
6
CONTINUOUS
10
-2.2
20
-67.1
11
-2.2
21
-65.9
0
LINE
8
BLACK
6
CONTINUOUS
10
-2.2
20
-65.9
11
-0.6
21
-65.9
0
LINE
8
BLACK
6
CONTINUOUS
10
-0.6
20
-65.9
11
-0.6
21
-67.1
0
LINE
8
BLACK
6
CONTINUOUS
10
65.985
20
-66.91
11
63.435
21
-66.91
0
LINE
8
BLACK
6
CONTINUOUS
10
63.435
20
-66.91
11
63.435
21
-64.41
0
LINE
8
BLACK
6
CONTINUOUS
10
63.435
20
-64.41
11
65.985
21
-64.41
0
LINE
8
BLACK
6
CONTINUOUS
10
65.985
20
-64.41
11
65.985
21
-66.91
0
LINE
8
BLACK
6
CONTINUOUS
10
99.5
20
-66.2
11
97
21
-66.2
0
LINE
8
BLACK
6
CONTINUOUS
10
97
20
-66.2
11
97
21
-65.2
0
LINE
8
BLACK
6
CONTINUOUS
10
97
20
-65.2
11
99.5
21
-65.2
0
LINE
8
BLACK
6
CONTINUOUS
10
99.5
20
-65.2
11
99.5
21
-66.2
0
LINE
8
BLACK
6
CONTINUOUS
10
93.5
20
-66.2
11
91
21
-66.2
0
LINE
8
BLACK
6
CONTINUOUS
10
91
20
-66.2
11
91
21
-65.2
0
LINE
8
BLACK
6
CONTINUOUS
10
91
20
-65.2
11
93.5
21
-65.2
0
LINE
8
BLACK
6
CONTINUOUS
10
93.5
20
-65.2
11
93.5
21
-66.2
0
LINE
8
BLACK
6
CONTINUOUS
10
120.33
20
-65.985
11
117.83
21
-65.985
0
LINE
8
BLACK
6
CONTINUOUS
10
117.83
20
-65.985
11
117.83
21
-63.435
0
LINE
8
BLACK
6
CONTINUOUS
10
117.83
20
-63.435
11
120.33
21
-63.435
0
LINE
8
BLACK
6
CONTINUOUS
10
120.33
20
-63.435
11
120.33
21
-65.985
0
LINE
8
BLACK
6
CONTINUOUS
10
75.6
20
-65.1
11
74
21
-65.1
0
LINE
8
BLACK
6
CONTINUOUS
10
74
20
-65.1
11
74
21
-63.9
0
LINE
8
BLACK
6
CONTINUOUS
10
74
20
-63.9
11
75.6
21
-63.9
0
LINE
8
BLACK
6
CONTINUOUS
10
75.6
20
-63.9
11
75.6
21
-65.1
0
LINE
8
BLACK
6
CONTINUOUS
10
78.4
20
-65.1
11
76.8
21
-65.1
0
LINE
8
BLACK
6
CONTINUOUS
10
76.8
20
-65.1
11
76.8
21
-63.9
0
LINE
8
BLACK
6
CONTINUOUS
10
76.8
20
-63.9
11
78.4
21
-63.9
0
LINE
8
BLACK
6
CONTINUOUS
10
78.4
20
-63.9
11
78.4
21
-65.1
0
LINE
8
BLACK
6
CONTINUOUS
10
93.5
20
-64.6
11
91
21
-64.6
0
LINE
8
BLACK
6
CONTINUOUS
10
91
20
-64.6
11
91
21
-63.6
0
LINE
8
BLACK
6
CONTINUOUS
10
91
20
-63.6
11
93.5
21
-63.6
0
LINE
8
BLACK
6
CONTINUOUS
10
93.5
20
-63.6
11
93.5
21
-64.6
0
LINE
8
BLACK
6
CONTINUOUS
10
99.5
20
-64.6
11
97
21
-64.6
0
LINE
8
BLACK
6
CONTINUOUS
10
97
20
-64.6
11
97
21
-63.6
0
LINE
8
BLACK
6
CONTINUOUS
10
97
20
-63.6
11
99.5
21
-63.6
0
LINE
8
BLACK
6
CONTINUOUS
10
99.5
20
-63.6
11
99.5
21
-64.6
0
LINE
8
BLACK
6
CONTINUOUS
10
52.135
20
-64.37
11
49.585
21
-64.37
0
LINE
8
BLACK
6
CONTINUOUS
10
49.585
20
-64.37
11
49.585
21
-61.87
0
LINE
8
BLACK
6
CONTINUOUS
10
49.585
20
-61.87
11
52.135
21
-61.87
0
LINE
8
BLACK
6
CONTINUOUS
10
52.135
20
-61.87
11
52.135
21
-64.37
0
LINE
8
BLACK
6
CONTINUOUS
10
40.3
20
-64.1
11
38.7
21
-64.1
0
LINE
8
BLACK
6
CONTINUOUS
10
38.7
20
-64.1
11
38.7
21
-62.9
0
LINE
8
BLACK
6
CONTINUOUS
10
38.7
20
-62.9
11
40.3
21
-62.9
0
LINE
8
BLACK
6
CONTINUOUS
10
40.3
20
-62.9
11
40.3
21
-64.1
0
LINE
8
BLACK
6
CONTINUOUS
10
37.5
20
-64.1
11
35.9
21
-64.1
0
LINE
8
BLACK
6
CONTINUOUS
10
35.9
20
-64.1
11
35.9
21
-62.9
0
LINE
8
BLACK
6
CONTINUOUS
10
35.9
20
-62.9
11
37.5
21
-62.9
0
LINE
8
BLACK
6
CONTINUOUS
10
37.5
20
-62.9
11
37.5
21
-64.1
0
LINE
8
BLACK
6
CONTINUOUS
10
-1.75
20
-63.2
11
-4.25
21
-63.2
0
LINE
8
BLACK
6
CONTINUOUS
10
-4.25
20
-63.2
11
-4.25
21
-62.2
0
LINE
8
BLACK
6
CONTINUOUS
10
-4.25
20
-62.2
11
-1.75
21
-62.2
0
LINE
8
BLACK
6
CONTINUOUS
10
-1.75
20
-62.2
11
-1.75
21
-63.2
0
LINE
8
BLACK
6
CONTINUOUS
10
4.25
20
-63.2
11
1.75
21
-63.2
0
LINE
8
BLACK
6
CONTINUOUS
10
1.75
20
-63.2
11
1.75
21
-62.2
0
LINE
8
BLACK
6
CONTINUOUS
10
1.75
20
-62.2
11
4.25
21
-62.2
0
LINE
8
BLACK
6
CONTINUOUS
10
4.25
20
-62.2
11
4.25
21
-63.2
0
LINE
8
BLACK
6
CONTINUOUS
10
23.3
20
-63.2
11
20.8
21
-63.2
0
LINE
8
BLACK
6
CONTINUOUS
10
20.8
20
-63.2
11
20.8
21
-62.2
0
LINE
8
BLACK
6
CONTINUOUS
10
20.8
20
-62.2
11
23.3
21
-62.2
0
LINE
8
BLACK
6
CONTINUOUS
10
23.3
20
-62.2
11
23.3
21
-63.2
0
LINE
8
BLACK
6
CONTINUOUS
10
17.3
20
-63.2
11
14.8
21
-63.2
0
LINE
8
BLACK
6
CONTINUOUS
10
14.8
20
-63.2
11
14.8
21
-62.2
0
LINE
8
BLACK
6
CONTINUOUS
10
14.8
20
-62.2
11
17.3
21
-62.2
0
LINE
8
BLACK
6
CONTINUOUS
10
17.3
20
-62.2
11
17.3
21
-63.2
0
LINE
8
BLACK
6
CONTINUOUS
10
4.25
20
-61.6
11
1.75
21
-61.6
0
LINE
8
BLACK
6
CONTINUOUS
10
1.75
20
-61.6
11
1.75
21
-60.6
0
LINE
8
BLACK
6
CONTINUOUS
10
1.75
20
-60.6
11
4.25
21
-60.6
0
LINE
8
BLACK
6
CONTINUOUS
10
4.25
20
-60.6
11
4.25
21
-61.6
0
LINE
8
BLACK
6
CONTINUOUS
10
-1.75
20
-61.6
11
-4.25
21
-61.6
0
LINE
8
BLACK
6
CONTINUOUS
10
-4.25
20
-61.6
11
-4.25
21
-60.6
0
LINE
8
BLACK
6
CONTINUOUS
10
-4.25
20
-60.6
11
-1.75
21
-60.6
0
LINE
8
BLACK
6
CONTINUOUS
10
-1.75
20
-60.6
11
-1.75
21
-61.6
0
LINE
8
BLACK
6
CONTINUOUS
10
23.3
20
-61.6
11
20.8
21
-61.6
0
LINE
8
BLACK
6
CONTINUOUS
10
20.8
20
-61.6
11
20.8
21
-60.6
0
LINE
8
BLACK
6
CONTINUOUS
10
20.8
20
-60.6
11
23.3
21
-60.6
0
LINE
8
BLACK
6
CONTINUOUS
10
23.3
20
-60.6
11
23.3
21
-61.6
0
LINE
8
BLACK
6
CONTINUOUS
10
17.3
20
-61.6
11
14.8
21
-61.6
0
LINE
8
BLACK
6
CONTINUOUS
10
14.8
20
-61.6
11
14.8
21
-60.6
0
LINE
8
BLACK
6
CONTINUOUS
10
14.8
20
-60.6
11
17.3
21
-60.6
0
LINE
8
BLACK
6
CONTINUOUS
10
17.3
20
-60.6
11
17.3
21
-61.6
0
LINE
8
BLACK
6
CONTINUOUS
10
74.45
20
-61.2
11
71.95
21
-61.2
0
LINE
8
BLACK
6
CONTINUOUS
10
71.95
20
-61.2
11
71.95
21
-60.2
0
LINE
8
BLACK
6
CONTINUOUS
10
71.95
20
-60.2
11
74.45
21
-60.2
0
LINE
8
BLACK
6
CONTINUOUS
10
74.45
20
-60.2
11
74.45
21
-61.2
0
LINE
8
BLACK
6
CONTINUOUS
10
80.45
20
-61.2
11
77.95
21
-61.2
0
LINE
8
BLACK
6
CONTINUOUS
10
77.95
20
-61.2
11
77.95
21
-60.2
0
LINE
8
BLACK
6
CONTINUOUS
10
77.95
20
-60.2
11
80.45
21
-60.2
0
LINE
8
BLACK
6
CONTINUOUS
10
80.45
20
-60.2
11
80.45
21
-61.2
0
LINE
8
BLACK
6
CONTINUOUS
10
36.35
20
-60.2
11
33.85
21
-60.2
0
LINE
8
BLACK
6
CONTINUOUS
10
33.85
20
-60.2
11
33.85
21
-59.2
0
LINE
8
BLACK
6
CONTINUOUS
10
33.85
20
-59.2
11
36.35
21
-59.2
0
LINE
8
BLACK
6
CONTINUOUS
10
36.35
20
-59.2
11
36.35
21
-60.2
0
LINE
8
BLACK
6
CONTINUOUS
10
42.35
20
-60.2
11
39.85
21
-60.2
0
LINE
8
BLACK
6
CONTINUOUS
10
39.85
20
-60.2
11
39.85
21
-59.2
0
LINE
8
BLACK
6
CONTINUOUS
10
39.85
20
-59.2
11
42.35
21
-59.2
0
LINE
8
BLACK
6
CONTINUOUS
10
42.35
20
-59.2
11
42.35
21
-60.2
0
LINE
8
BLACK
6
CONTINUOUS
10
74.45
20
-59.6
11
71.95
21
-59.6
0
LINE
8
BLACK
6
CONTINUOUS
10
71.95
20
-59.6
11
71.95
21
-58.6
0
LINE
8
BLACK
6
CONTINUOUS
10
71.95
20
-58.6
11
74.45
21
-58.6
0
LINE
8
BLACK
6
CONTINUOUS
10
74.45
20
-58.6
11
74.45
21
-59.6
0
LINE
8
BLACK
6
CONTINUOUS
10
80.45
20
-59.6
11
77.95
21
-59.6
0
LINE
8
BLACK
6
CONTINUOUS
10
77.95
20
-59.6
11
77.95
21
-58.6
0
LINE
8
BLACK
6
CONTINUOUS
10
77.95
20
-58.6
11
80.45
21
-58.6
0
LINE
8
BLACK
6
CONTINUOUS
10
80.45
20
-58.6
11
80.45
21
-59.6
0
LINE
8
BLACK
6
CONTINUOUS
10
59.35
20
-59.1
11
57.75
21
-59.1
0
LINE
8
BLACK
6
CONTINUOUS
10
57.75
20
-59.1
11
57.75
21
-57.9
0
LINE
8
BLACK
6
CONTINUOUS
10
57.75
20
-57.9
11
59.35
21
-57.9
0
LINE
8
BLACK
6
CONTINUOUS
10
59.35
20
-57.9
11
59.35
21
-59.1
0
LINE
8
BLACK
6
CONTINUOUS
10
56.55
20
-59.1
11
54.95
21
-59.1
0
LINE
8
BLACK
6
CONTINUOUS
10
54.95
20
-59.1
11
54.95
21
-57.9
0
LINE
8
BLACK
6
CONTINUOUS
10
54.95
20
-57.9
11
56.55
21
-57.9
0
LINE
8
BLACK
6
CONTINUOUS
10
56.55
20
-57.9
11
56.55
21
-59.1
0
LINE
8
BLACK
6
CONTINUOUS
10
104.085
20
-58.86
11
101.535
21
-58.86
0
LINE
8
BLACK
6
CONTINUOUS
10
101.535
20
-58.86
11
101.535
21
-56.36
0
LINE
8
BLACK
6
CONTINUOUS
10
101.535
20
-56.36
11
104.085
21
-56.36
0
LINE
8
BLACK
6
CONTINUOUS
10
104.085
20
-56.36
11
104.085
21
-58.86
0
LINE
8
BLACK
6
CONTINUOUS
10
36.35
20
-58.6
11
33.85
21
-58.6
0
LINE
8
BLACK
6
CONTINUOUS
10
33.85
20
-58.6
11
33.85
21
-57.6
0
LINE
8
BLACK
6
CONTINUOUS
10
33.85
20
-57.6
11
36.35
21
-57.6
0
LINE
8
BLACK
6
CONTINUOUS
10
36.35
20
-57.6
11
36.35
21
-58.6
0
LINE
8
BLACK
6
CONTINUOUS
10
42.35
20
-58.6
11
39.85
21
-58.6
0
LINE
8
BLACK
6
CONTINUOUS
10
39.85
20
-58.6
11
39.85
21
-57.6
0
LINE
8
BLACK
6
CONTINUOUS
10
39.85
20
-57.6
11
42.35
21
-57.6
0
LINE
8
BLACK
6
CONTINUOUS
10
42.35
20
-57.6
11
42.35
21
-58.6
0
LINE
8
BLACK
6
CONTINUOUS
10
90.235
20
-56.32
11
87.685
21
-56.32
0
LINE
8
BLACK
6
CONTINUOUS
10
87.685
20
-56.32
11
87.685
21
-53.82
0
LINE
8
BLACK
6
CONTINUOUS
10
87.685
20
-53.82
11
90.235
21
-53.82
0
LINE
8
BLACK
6
CONTINUOUS
10
90.235
20
-53.82
11
90.235
21
-56.32
0
LINE
8
BLACK
6
CONTINUOUS
10
27.885
20
-55.86
11
25.335
21
-55.86
0
LINE
8
BLACK
6
CONTINUOUS
10
25.335
20
-55.86
11
25.335
21
-53.36
0
LINE
8
BLACK
6
CONTINUOUS
10
25.335
20
-53.36
11
27.885
21
-53.36
0
LINE
8
BLACK
6
CONTINUOUS
10
27.885
20
-53.36
11
27.885
21
-55.86
0
LINE
8
BLACK
6
CONTINUOUS
10
8.835
20
-55.86
11
6.285
21
-55.86
0
LINE
8
BLACK
6
CONTINUOUS
10
6.285
20
-55.86
11
6.285
21
-53.36
0
LINE
8
BLACK
6
CONTINUOUS
10
6.285
20
-53.36
11
8.835
21
-53.36
0
LINE
8
BLACK
6
CONTINUOUS
10
8.835
20
-53.36
11
8.835
21
-55.86
0
LINE
8
BLACK
6
CONTINUOUS
10
61.4
20
-55.2
11
58.9
21
-55.2
0
LINE
8
BLACK
6
CONTINUOUS
10
58.9
20
-55.2
11
58.9
21
-54.2
0
LINE
8
BLACK
6
CONTINUOUS
10
58.9
20
-54.2
11
61.4
21
-54.2
0
LINE
8
BLACK
6
CONTINUOUS
10
61.4
20
-54.2
11
61.4
21
-55.2
0
LINE
8
BLACK
6
CONTINUOUS
10
55.4
20
-55.2
11
52.9
21
-55.2
0
LINE
8
BLACK
6
CONTINUOUS
10
52.9
20
-55.2
11
52.9
21
-54.2
0
LINE
8
BLACK
6
CONTINUOUS
10
52.9
20
-54.2
11
55.4
21
-54.2
0
LINE
8
BLACK
6
CONTINUOUS
10
55.4
20
-54.2
11
55.4
21
-55.2
0
LINE
8
BLACK
6
CONTINUOUS
10
85.035
20
-53.86
11
82.485
21
-53.86
0
LINE
8
BLACK
6
CONTINUOUS
10
82.485
20
-53.86
11
82.485
21
-51.36
0
LINE
8
BLACK
6
CONTINUOUS
10
82.485
20
-51.36
11
85.035
21
-51.36
0
LINE
8
BLACK
6
CONTINUOUS
10
85.035
20
-51.36
11
85.035
21
-53.86
0
LINE
8
BLACK
6
CONTINUOUS
10
61.4
20
-53.6
11
58.9
21
-53.6
0
LINE
8
BLACK
6
CONTINUOUS
10
58.9
20
-53.6
11
58.9
21
-52.6
0
LINE
8
BLACK
6
CONTINUOUS
10
58.9
20
-52.6
11
61.4
21
-52.6
0
LINE
8
BLACK
6
CONTINUOUS
10
61.4
20
-52.6
11
61.4
21
-53.6
0
LINE
8
BLACK
6
CONTINUOUS
10
55.4
20
-53.6
11
52.9
21
-53.6
0
LINE
8
BLACK
6
CONTINUOUS
10
52.9
20
-53.6
11
52.9
21
-52.6
0
LINE
8
BLACK
6
CONTINUOUS
10
52.9
20
-52.6
11
55.4
21
-52.6
0
LINE
8
BLACK
6
CONTINUOUS
10
55.4
20
-52.6
11
55.4
21
-53.6
0
LINE
8
BLACK
6
CONTINUOUS
10
14.035
20
-53.32
11
11.485
21
-53.32
0
LINE
8
BLACK
6
CONTINUOUS
10
11.485
20
-53.32
11
11.485
21
-50.82
0
LINE
8
BLACK
6
CONTINUOUS
10
11.485
20
-50.82
11
14.035
21
-50.82
0
LINE
8
BLACK
6
CONTINUOUS
10
14.035
20
-50.82
11
14.035
21
-53.32
0
LINE
8
BLACK
6
CONTINUOUS
10
-5.015
20
-53.32
11
-7.565
21
-53.32
0
LINE
8
BLACK
6
CONTINUOUS
10
-7.565
20
-53.32
11
-7.565
21
-50.82
0
LINE
8
BLACK
6
CONTINUOUS
10
-7.565
20
-50.82
11
-5.015
21
-50.82
0
LINE
8
BLACK
6
CONTINUOUS
10
-5.015
20
-50.82
11
-5.015
21
-53.32
0
LINE
8
BLACK
6
CONTINUOUS
10
46.935
20
-52.86
11
44.385
21
-52.86
0
LINE
8
BLACK
6
CONTINUOUS
10
44.385
20
-52.86
11
44.385
21
-50.36
0
LINE
8
BLACK
6
CONTINUOUS
10
44.385
20
-50.36
11
46.935
21
-50.36
0
LINE
8
BLACK
6
CONTINUOUS
10
46.935
20
-50.36
11
46.935
21
-52.86
0
LINE
8
BLACK
6
CONTINUOUS
10
71.185
20
-51.32
11
68.635
21
-51.32
0
LINE
8
BLACK
6
CONTINUOUS
10
68.635
20
-51.32
11
68.635
21
-48.82
0
LINE
8
BLACK
6
CONTINUOUS
10
68.635
20
-48.82
11
71.185
21
-48.82
0
LINE
8
BLACK
6
CONTINUOUS
10
71.185
20
-48.82
11
71.185
21
-51.32
0
LINE
8
BLACK
6
CONTINUOUS
10
97.45
20
-51.1
11
95.85
21
-51.1
0
LINE
8
BLACK
6
CONTINUOUS
10
95.85
20
-51.1
11
95.85
21
-49.9
0
LINE
8
BLACK
6
CONTINUOUS
10
95.85
20
-49.9
11
97.45
21
-49.9
0
LINE
8
BLACK
6
CONTINUOUS
10
97.45
20
-49.9
11
97.45
21
-51.1
0
LINE
8
BLACK
6
CONTINUOUS
10
94.65
20
-51.1
11
93.05
21
-51.1
0
LINE
8
BLACK
6
CONTINUOUS
10
93.05
20
-51.1
11
93.05
21
-49.9
0
LINE
8
BLACK
6
CONTINUOUS
10
93.05
20
-49.9
11
94.65
21
-49.9
0
LINE
8
BLACK
6
CONTINUOUS
10
94.65
20
-49.9
11
94.65
21
-51.1
0
LINE
8
BLACK
6
CONTINUOUS
10
33.085
20
-50.32
11
30.535
21
-50.32
0
LINE
8
BLACK
6
CONTINUOUS
10
30.535
20
-50.32
11
30.535
21
-47.82
0
LINE
8
BLACK
6
CONTINUOUS
10
30.535
20
-47.82
11
33.085
21
-47.82
0
LINE
8
BLACK
6
CONTINUOUS
10
33.085
20
-47.82
11
33.085
21
-50.32
0
LINE
8
BLACK
6
CONTINUOUS
10
-0.6
20
-48.1
11
-2.2
21
-48.1
0
LINE
8
BLACK
6
CONTINUOUS
10
-2.2
20
-48.1
11
-2.2
21
-46.9
0
LINE
8
BLACK
6
CONTINUOUS
10
-2.2
20
-46.9
11
-0.6
21
-46.9
0
LINE
8
BLACK
6
CONTINUOUS
10
-0.6
20
-46.9
11
-0.6
21
-48.1
0
LINE
8
BLACK
6
CONTINUOUS
10
2.2
20
-48.1
11
0.6
21
-48.1
0
LINE
8
BLACK
6
CONTINUOUS
10
0.6
20
-48.1
11
0.6
21
-46.9
0
LINE
8
BLACK
6
CONTINUOUS
10
0.6
20
-46.9
11
2.2
21
-46.9
0
LINE
8
BLACK
6
CONTINUOUS
10
2.2
20
-46.9
11
2.2
21
-48.1
0
LINE
8
BLACK
6
CONTINUOUS
10
18.45
20
-48.1
11
16.85
21
-48.1
0
LINE
8
BLACK
6
CONTINUOUS
10
16.85
20
-48.1
11
16.85
21
-46.9
0
LINE
8
BLACK
6
CONTINUOUS
10
16.85
20
-46.9
11
18.45
21
-46.9
0
LINE
8
BLACK
6
CONTINUOUS
10
18.45
20
-46.9
11
18.45
21
-48.1
0
LINE
8
BLACK
6
CONTINUOUS
10
21.25
20
-48.1
11
19.65
21
-48.1
0
LINE
8
BLACK
6
CONTINUOUS
10
19.65
20
-48.1
11
19.65
21
-46.9
0
LINE
8
BLACK
6
CONTINUOUS
10
19.65
20
-46.9
11
21.25
21
-46.9
0
LINE
8
BLACK
6
CONTINUOUS
10
21.25
20
-46.9
11
21.25
21
-48.1
0
LINE
8
BLACK
6
CONTINUOUS
10
65.985
20
-47.86
11
63.435
21
-47.86
0
LINE
8
BLACK
6
CONTINUOUS
10
63.435
20
-47.86
11
63.435
21
-45.36
0
LINE
8
BLACK
6
CONTINUOUS
10
63.435
20
-45.36
11
65.985
21
-45.36
0
LINE
8
BLACK
6
CONTINUOUS
10
65.985
20
-45.36
11
65.985
21
-47.86
0
LINE
8
BLACK
6
CONTINUOUS
10
93.5
20
-47.15
11
91
21
-47.15
0
LINE
8
BLACK
6
CONTINUOUS
10
91
20
-47.15
11
91
21
-46.15
0
LINE
8
BLACK
6
CONTINUOUS
10
91
20
-46.15
11
93.5
21
-46.15
0
LINE
8
BLACK
6
CONTINUOUS
10
93.5
20
-46.15
11
93.5
21
-47.15
0
LINE
8
BLACK
6
CONTINUOUS
10
99.5
20
-47.15
11
97
21
-47.15
0
LINE
8
BLACK
6
CONTINUOUS
10
97
20
-47.15
11
97
21
-46.15
0
LINE
8
BLACK
6
CONTINUOUS
10
97
20
-46.15
11
99.5
21
-46.15
0
LINE
8
BLACK
6
CONTINUOUS
10
99.5
20
-46.15
11
99.5
21
-47.15
0
LINE
8
BLACK
6
CONTINUOUS
10
75.6
20
-46.1
11
74
21
-46.1
0
LINE
8
BLACK
6
CONTINUOUS
10
74
20
-46.1
11
74
21
-44.9
0
LINE
8
BLACK
6
CONTINUOUS
10
74
20
-44.9
11
75.6
21
-44.9
0
LINE
8
BLACK
6
CONTINUOUS
10
75.6
20
-44.9
11
75.6
21
-46.1
0
LINE
8
BLACK
6
CONTINUOUS
10
78.4
20
-46.1
11
76.8
21
-46.1
0
LINE
8
BLACK
6
CONTINUOUS
10
76.8
20
-46.1
11
76.8
21
-44.9
0
LINE
8
BLACK
6
CONTINUOUS
10
76.8
20
-44.9
11
78.4
21
-44.9
0
LINE
8
BLACK
6
CONTINUOUS
10
78.4
20
-44.9
11
78.4
21
-46.1
0
LINE
8
BLACK
6
CONTINUOUS
10
93.5
20
-45.55
11
91
21
-45.55
0
LINE
8
BLACK
6
CONTINUOUS
10
91
20
-45.55
11
91
21
-44.55
0
LINE
8
BLACK
6
CONTINUOUS
10
91
20
-44.55
11
93.5
21
-44.55
0
LINE
8
BLACK
6
CONTINUOUS
10
93.5
20
-44.55
11
93.5
21
-45.55
0
LINE
8
BLACK
6
CONTINUOUS
10
99.5
20
-45.55
11
97
21
-45.55
0
LINE
8
BLACK
6
CONTINUOUS
10
97
20
-45.55
11
97
21
-44.55
0
LINE
8
BLACK
6
CONTINUOUS
10
97
20
-44.55
11
99.5
21
-44.55
0
LINE
8
BLACK
6
CONTINUOUS
10
99.5
20
-44.55
11
99.5
21
-45.55
0
LINE
8
BLACK
6
CONTINUOUS
10
52.135
20
-45.32
11
49.585
21
-45.32
0
LINE
8
BLACK
6
CONTINUOUS
10
49.585
20
-45.32
11
49.585
21
-42.82
0
LINE
8
BLACK
6
CONTINUOUS
10
49.585
20
-42.82
11
52.135
21
-42.82
0
LINE
8
BLACK
6
CONTINUOUS
10
52.135
20
-42.82
11
52.135
21
-45.32
0
LINE
8
BLACK
6
CONTINUOUS
10
40.3
20
-45.1
11
38.7
21
-45.1
0
LINE
8
BLACK
6
CONTINUOUS
10
38.7
20
-45.1
11
38.7
21
-43.9
0
LINE
8
BLACK
6
CONTINUOUS
10
38.7
20
-43.9
11
40.3
21
-43.9
0
LINE
8
BLACK
6
CONTINUOUS
10
40.3
20
-43.9
11
40.3
21
-45.1
0
LINE
8
BLACK
6
CONTINUOUS
10
37.5
20
-45.1
11
35.9
21
-45.1
0
LINE
8
BLACK
6
CONTINUOUS
10
35.9
20
-45.1
11
35.9
21
-43.9
0
LINE
8
BLACK
6
CONTINUOUS
10
35.9
20
-43.9
11
37.5
21
-43.9
0
LINE
8
BLACK
6
CONTINUOUS
10
37.5
20
-43.9
11
37.5
21
-45.1
0
LINE
8
BLACK
6
CONTINUOUS
10
-1.75
20
-44.15
11
-4.25
21
-44.15
0
LINE
8
BLACK
6
CONTINUOUS
10
-4.25
20
-44.15
11
-4.25
21
-43.15
0
LINE
8
BLACK
6
CONTINUOUS
10
-4.25
20
-43.15
11
-1.75
21
-43.15
0
LINE
8
BLACK
6
CONTINUOUS
10
-1.75
20
-43.15
11
-1.75
21
-44.15
0
LINE
8
BLACK
6
CONTINUOUS
10
4.25
20
-44.15
11
1.75
21
-44.15
0
LINE
8
BLACK
6
CONTINUOUS
10
1.75
20
-44.15
11
1.75
21
-43.15
0
LINE
8
BLACK
6
CONTINUOUS
10
1.75
20
-43.15
11
4.25
21
-43.15
0
LINE
8
BLACK
6
CONTINUOUS
10
4.25
20
-43.15
11
4.25
21
-44.15
0
LINE
8
BLACK
6
CONTINUOUS
10
23.3
20
-44.15
11
20.8
21
-44.15
0
LINE
8
BLACK
6
CONTINUOUS
10
20.8
20
-44.15
11
20.8
21
-43.15
0
LINE
8
BLACK
6
CONTINUOUS
10
20.8
20
-43.15
11
23.3
21
-43.15
0
LINE
8
BLACK
6
CONTINUOUS
10
23.3
20
-43.15
11
23.3
21
-44.15
0
LINE
8
BLACK
6
CONTINUOUS
10
17.3
20
-44.15
11
14.8
21
-44.15
0
LINE
8
BLACK
6
CONTINUOUS
10
14.8
20
-44.15
11
14.8
21
-43.15
0
LINE
8
BLACK
6
CONTINUOUS
10
14.8
20
-43.15
11
17.3
21
-43.15
0
LINE
8
BLACK
6
CONTINUOUS
10
17.3
20
-43.15
11
17.3
21
-44.15
0
LINE
8
BLACK
6
CONTINUOUS
10
17.3
20
-42.55
11
14.8
21
-42.55
0
LINE
8
BLACK
6
CONTINUOUS
10
14.8
20
-42.55
11
14.8
21
-41.55
0
LINE
8
BLACK
6
CONTINUOUS
10
14.8
20
-41.55
11
17.3
21
-41.55
0
LINE
8
BLACK
6
CONTINUOUS
10
17.3
20
-41.55
11
17.3
21
-42.55
0
LINE
8
BLACK
6
CONTINUOUS
10
-1.75
20
-42.55
11
-4.25
21
-42.55
0
LINE
8
BLACK
6
CONTINUOUS
10
-4.25
20
-42.55
11
-4.25
21
-41.55
0
LINE
8
BLACK
6
CONTINUOUS
10
-4.25
20
-41.55
11
-1.75
21
-41.55
0
LINE
8
BLACK
6
CONTINUOUS
10
-1.75
20
-41.55
11
-1.75
21
-42.55
0
LINE
8
BLACK
6
CONTINUOUS
10
23.3
20
-42.55
11
20.8
21
-42.55
0
LINE
8
BLACK
6
CONTINUOUS
10
20.8
20
-42.55
11
20.8
21
-41.55
0
LINE
8
BLACK
6
CONTINUOUS
10
20.8
20
-41.55
11
23.3
21
-41.55
0
LINE
8
BLACK
6
CONTINUOUS
10
23.3
20
-41.55
11
23.3
21
-42.55
0
LINE
8
BLACK
6
CONTINUOUS
10
4.25
20
-42.55
11
1.75
21
-42.55
0
LINE
8
BLACK
6
CONTINUOUS
10
1.75
20
-42.55
11
1.75
21
-41.55
0
LINE
8
BLACK
6
CONTINUOUS
10
1.75
20
-41.55
11
4.25
21
-41.55
0
LINE
8
BLACK
6
CONTINUOUS
10
4.25
20
-41.55
11
4.25
21
-42.55
0
LINE
8
BLACK
6
CONTINUOUS
10
74.45
20
-42.15
11
71.95
21
-42.15
0
LINE
8
BLACK
6
CONTINUOUS
10
71.95
20
-42.15
11
71.95
21
-41.15
0
LINE
8
BLACK
6
CONTINUOUS
10
71.95
20
-41.15
11
74.45
21
-41.15
0
LINE
8
BLACK
6
CONTINUOUS
10
74.45
20
-41.15
11
74.45
21
-42.15
0
LINE
8
BLACK
6
CONTINUOUS
10
80.45
20
-42.15
11
77.95
21
-42.15
0
LINE
8
BLACK
6
CONTINUOUS
10
77.95
20
-42.15
11
77.95
21
-41.15
0
LINE
8
BLACK
6
CONTINUOUS
10
77.95
20
-41.15
11
80.45
21
-41.15
0
LINE
8
BLACK
6
CONTINUOUS
10
80.45
20
-41.15
11
80.45
21
-42.15
0
LINE
8
BLACK
6
CONTINUOUS
10
36.35
20
-41.15
11
33.85
21
-41.15
0
LINE
8
BLACK
6
CONTINUOUS
10
33.85
20
-41.15
11
33.85
21
-40.15
0
LINE
8
BLACK
6
CONTINUOUS
10
33.85
20
-40.15
11
36.35
21
-40.15
0
LINE
8
BLACK
6
CONTINUOUS
10
36.35
20
-40.15
11
36.35
21
-41.15
0
LINE
8
BLACK
6
CONTINUOUS
10
42.35
20
-41.15
11
39.85
21
-41.15
0
LINE
8
BLACK
6
CONTINUOUS
10
39.85
20
-41.15
11
39.85
21
-40.15
0
LINE
8
BLACK
6
CONTINUOUS
10
39.85
20
-40.15
11
42.35
21
-40.15
0
LINE
8
BLACK
6
CONTINUOUS
10
42.35
20
-40.15
11
42.35
21
-41.15
0
LINE
8
BLACK
6
CONTINUOUS
10
74.45
20
-40.55
11
71.95
21
-40.55
0
LINE
8
BLACK
6
CONTINUOUS
10
71.95
20
-40.55
11
71.95
21
-39.55
0
LINE
8
BLACK
6
CONTINUOUS
10
71.95
20
-39.55
11
74.45
21
-39.55
0
LINE
8
BLACK
6
CONTINUOUS
10
74.45
20
-39.55
11
74.45
21
-40.55
0
LINE
8
BLACK
6
CONTINUOUS
10
80.45
20
-40.55
11
77.95
21
-40.55
0
LINE
8
BLACK
6
CONTINUOUS
10
77.95
20
-40.55
11
77.95
21
-39.55
0
LINE
8
BLACK
6
CONTINUOUS
10
77.95
20
-39.55
11
80.45
21
-39.55
0
LINE
8
BLACK
6
CONTINUOUS
10
80.45
20
-39.55
11
80.45
21
-40.55
0
LINE
8
BLACK
6
CONTINUOUS
10
59.35
20
-40.1
11
57.75
21
-40.1
0
LINE
8
BLACK
6
CONTINUOUS
10
57.75
20
-40.1
11
57.75
21
-38.9
0
LINE
8
BLACK
6
CONTINUOUS
10
57.75
20
-38.9
11
59.35
21
-38.9
0
LINE
8
BLACK
6
CONTINUOUS
10
59.35
20
-38.9
11
59.35
21
-40.1
0
LINE
8
BLACK
6
CONTINUOUS
10
56.55
20
-40.1
11
54.95
21
-40.1
0
LINE
8
BLACK
6
CONTINUOUS
10
54.95
20
-40.1
11
54.95
21
-38.9
0
LINE
8
BLACK
6
CONTINUOUS
10
54.95
20
-38.9
11
56.55
21
-38.9
0
LINE
8
BLACK
6
CONTINUOUS
10
56.55
20
-38.9
11
56.55
21
-40.1
0
LINE
8
BLACK
6
CONTINUOUS
10
104.085
20
-39.81
11
101.535
21
-39.81
0
LINE
8
BLACK
6
CONTINUOUS
10
101.535
20
-39.81
11
101.535
21
-37.31
0
LINE
8
BLACK
6
CONTINUOUS
10
101.535
20
-37.31
11
104.085
21
-37.31
0
LINE
8
BLACK
6
CONTINUOUS
10
104.085
20
-37.31
11
104.085
21
-39.81
0
LINE
8
BLACK
6
CONTINUOUS
10
42.35
20
-39.55
11
39.85
21
-39.55
0
LINE
8
BLACK
6
CONTINUOUS
10
39.85
20
-39.55
11
39.85
21
-38.55
0
LINE
8
BLACK
6
CONTINUOUS
10
39.85
20
-38.55
11
42.35
21
-38.55
0
LINE
8
BLACK
6
CONTINUOUS
10
42.35
20
-38.55
11
42.35
21
-39.55
0
LINE
8
BLACK
6
CONTINUOUS
10
36.35
20
-39.55
11
33.85
21
-39.55
0
LINE
8
BLACK
6
CONTINUOUS
10
33.85
20
-39.55
11
33.85
21
-38.55
0
LINE
8
BLACK
6
CONTINUOUS
10
33.85
20
-38.55
11
36.35
21
-38.55
0
LINE
8
BLACK
6
CONTINUOUS
10
36.35
20
-38.55
11
36.35
21
-39.55
0
LINE
8
BLACK
6
CONTINUOUS
10
90.235
20
-37.27
11
87.685
21
-37.27
0
LINE
8
BLACK
6
CONTINUOUS
10
87.685
20
-37.27
11
87.685
21
-34.77
0
LINE
8
BLACK
6
CONTINUOUS
10
87.685
20
-34.77
11
90.235
21
-34.77
0
LINE
8
BLACK
6
CONTINUOUS
10
90.235
20
-34.77
11
90.235
21
-37.27
0
LINE
8
BLACK
6
CONTINUOUS
10
8.835
20
-36.81
11
6.285
21
-36.81
0
LINE
8
BLACK
6
CONTINUOUS
10
6.285
20
-36.81
11
6.285
21
-34.31
0
LINE
8
BLACK
6
CONTINUOUS
10
6.285
20
-34.31
11
8.835
21
-34.31
0
LINE
8
BLACK
6
CONTINUOUS
10
8.835
20
-34.31
11
8.835
21
-36.81
0
LINE
8
BLACK
6
CONTINUOUS
10
27.885
20
-36.81
11
25.335
21
-36.81
0
LINE
8
BLACK
6
CONTINUOUS
10
25.335
20
-36.81
11
25.335
21
-34.31
0
LINE
8
BLACK
6
CONTINUOUS
10
25.335
20
-34.31
11
27.885
21
-34.31
0
LINE
8
BLACK
6
CONTINUOUS
10
27.885
20
-34.31
11
27.885
21
-36.81
0
LINE
8
BLACK
6
CONTINUOUS
10
61.4
20
-36.15
11
58.9
21
-36.15
0
LINE
8
BLACK
6
CONTINUOUS
10
58.9
20
-36.15
11
58.9
21
-35.15
0
LINE
8
BLACK
6
CONTINUOUS
10
58.9
20
-35.15
11
61.4
21
-35.15
0
LINE
8
BLACK
6
CONTINUOUS
10
61.4
20
-35.15
11
61.4
21
-36.15
0
LINE
8
BLACK
6
CONTINUOUS
10
55.4
20
-36.15
11
52.9
21
-36.15
0
LINE
8
BLACK
6
CONTINUOUS
10
52.9
20
-36.15
11
52.9
21
-35.15
0
LINE
8
BLACK
6
CONTINUOUS
10
52.9
20
-35.15
11
55.4
21
-35.15
0
LINE
8
BLACK
6
CONTINUOUS
10
55.4
20
-35.15
11
55.4
21
-36.15
0
LINE
8
BLACK
6
CONTINUOUS
10
85.035
20
-34.81
11
82.485
21
-34.81
0
LINE
8
BLACK
6
CONTINUOUS
10
82.485
20
-34.81
11
82.485
21
-32.31
0
LINE
8
BLACK
6
CONTINUOUS
10
82.485
20
-32.31
11
85.035
21
-32.31
0
LINE
8
BLACK
6
CONTINUOUS
10
85.035
20
-32.31
11
85.035
21
-34.81
0
LINE
8
BLACK
6
CONTINUOUS
10
55.4
20
-34.55
11
52.9
21
-34.55
0
LINE
8
BLACK
6
CONTINUOUS
10
52.9
20
-34.55
11
52.9
21
-33.55
0
LINE
8
BLACK
6
CONTINUOUS
10
52.9
20
-33.55
11
55.4
21
-33.55
0
LINE
8
BLACK
6
CONTINUOUS
10
55.4
20
-33.55
11
55.4
21
-34.55
0
LINE
8
BLACK
6
CONTINUOUS
10
61.4
20
-34.55
11
58.9
21
-34.55
0
LINE
8
BLACK
6
CONTINUOUS
10
58.9
20
-34.55
11
58.9
21
-33.55
0
LINE
8
BLACK
6
CONTINUOUS
10
58.9
20
-33.55
11
61.4
21
-33.55
0
LINE
8
BLACK
6
CONTINUOUS
10
61.4
20
-33.55
11
61.4
21
-34.55
0
LINE
8
BLACK
6
CONTINUOUS
10
14.035
20
-34.27
11
11.485
21
-34.27
0
LINE
8
BLACK
6
CONTINUOUS
10
11.485
20
-34.27
11
11.485
21
-31.77
0
LINE
8
BLACK
6
CONTINUOUS
10
11.485
20
-31.77
11
14.035
21
-31.77
0
LINE
8
BLACK
6
CONTINUOUS
10
14.035
20
-31.77
11
14.035
21
-34.27
0
LINE
8
BLACK
6
CONTINUOUS
10
-5.015
20
-34.27
11
-7.565
21
-34.27
0
LINE
8
BLACK
6
CONTINUOUS
10
-7.565
20
-34.27
11
-7.565
21
-31.77
0
LINE
8
BLACK
6
CONTINUOUS
10
-7.565
20
-31.77
11
-5.015
21
-31.77
0
LINE
8
BLACK
6
CONTINUOUS
10
-5.015
20
-31.77
11
-5.015
21
-34.27
0
LINE
8
BLACK
6
CONTINUOUS
10
46.935
20
-33.81
11
44.385
21
-33.81
0
LINE
8
BLACK
6
CONTINUOUS
10
44.385
20
-33.81
11
44.385
21
-31.31
0
LINE
8
BLACK
6
CONTINUOUS
10
44.385
20
-31.31
11
46.935
21
-31.31
0
LINE
8
BLACK
6
CONTINUOUS
10
46.935
20
-31.31
11
46.935
21
-33.81
0
LINE
8
BLACK
6
CONTINUOUS
10
71.185
20
-32.27
11
68.635
21
-32.27
0
LINE
8
BLACK
6
CONTINUOUS
10
68.635
20
-32.27
11
68.635
21
-29.77
0
LINE
8
BLACK
6
CONTINUOUS
10
68.635
20
-29.77
11
71.185
21
-29.77
0
LINE
8
BLACK
6
CONTINUOUS
10
71.185
20
-29.77
11
71.185
21
-32.27
0
LINE
8
BLACK
6
CONTINUOUS
10
94.65
20
-32.1
11
93.05
21
-32.1
0
LINE
8
BLACK
6
CONTINUOUS
10
93.05
20
-32.1
11
93.05
21
-30.9
0
LINE
8
BLACK
6
CONTINUOUS
10
93.05
20
-30.9
11
94.65
21
-30.9
0
LINE
8
BLACK
6
CONTINUOUS
10
94.65
20
-30.9
11
94.65
21
-32.1
0
LINE
8
BLACK
6
CONTINUOUS
10
97.45
20
-32.1
11
95.85
21
-32.1
0
LINE
8
BLACK
6
CONTINUOUS
10
95.85
20
-32.1
11
95.85
21
-30.9
0
LINE
8
BLACK
6
CONTINUOUS
10
95.85
20
-30.9
11
97.45
21
-30.9
0
LINE
8
BLACK
6
CONTINUOUS
10
97.45
20
-30.9
11
97.45
21
-32.1
0
LINE
8
BLACK
6
CONTINUOUS
10
33.085
20
-31.27
11
30.535
21
-31.27
0
LINE
8
BLACK
6
CONTINUOUS
10
30.535
20
-31.27
11
30.535
21
-28.77
0
LINE
8
BLACK
6
CONTINUOUS
10
30.535
20
-28.77
11
33.085
21
-28.77
0
LINE
8
BLACK
6
CONTINUOUS
10
33.085
20
-28.77
11
33.085
21
-31.27
0
LINE
8
BLACK
6
CONTINUOUS
10
21.25
20
-29.1
11
19.65
21
-29.1
0
LINE
8
BLACK
6
CONTINUOUS
10
19.65
20
-29.1
11
19.65
21
-27.9
0
LINE
8
BLACK
6
CONTINUOUS
10
19.65
20
-27.9
11
21.25
21
-27.9
0
LINE
8
BLACK
6
CONTINUOUS
10
21.25
20
-27.9
11
21.25
21
-29.1
0
LINE
8
BLACK
6
CONTINUOUS
10
2.2
20
-29.1
11
0.6
21
-29.1
0
LINE
8
BLACK
6
CONTINUOUS
10
0.6
20
-29.1
11
0.6
21
-27.9
0
LINE
8
BLACK
6
CONTINUOUS
10
0.6
20
-27.9
11
2.2
21
-27.9
0
LINE
8
BLACK
6
CONTINUOUS
10
2.2
20
-27.9
11
2.2
21
-29.1
0
LINE
8
BLACK
6
CONTINUOUS
10
18.45
20
-29.1
11
16.85
21
-29.1
0
LINE
8
BLACK
6
CONTINUOUS
10
16.85
20
-29.1
11
16.85
21
-27.9
0
LINE
8
BLACK
6
CONTINUOUS
10
16.85
20
-27.9
11
18.45
21
-27.9
0
LINE
8
BLACK
6
CONTINUOUS
10
18.45
20
-27.9
11
18.45
21
-29.1
0
LINE
8
BLACK
6
CONTINUOUS
10
-0.6
20
-29.1
11
-2.2
21
-29.1
0
LINE
8
BLACK
6
CONTINUOUS
10
-2.2
20
-29.1
11
-2.2
21
-27.9
0
LINE
8
BLACK
6
CONTINUOUS
10
-2.2
20
-27.9
11
-0.6
21
-27.9
0
LINE
8
BLACK
6
CONTINUOUS
10
-0.6
20
-27.9
11
-0.6
21
-29.1
0
LINE
8
BLACK
6
CONTINUOUS
10
65.985
20
-28.81
11
63.435
21
-28.81
0
LINE
8
BLACK
6
CONTINUOUS
10
63.435
20
-28.81
11
63.435
21
-26.31
0
LINE
8
BLACK
6
CONTINUOUS
10
63.435
20
-26.31
11
65.985
21
-26.31
0
LINE
8
BLACK
6
CONTINUOUS
10
65.985
20
-26.31
11
65.985
21
-28.81
0
LINE
8
BLACK
6
CONTINUOUS
10
99.5
20
-28.1
11
97
21
-28.1
0
LINE
8
BLACK
6
CONTINUOUS
10
97
20
-28.1
11
97
21
-27.1
0
LINE
8
BLACK
6
CONTINUOUS
10
97
20
-27.1
11
99.5
21
-27.1
0
LINE
8
BLACK
6
CONTINUOUS
10
99.5
20
-27.1
11
99.5
21
-28.1
0
LINE
8
BLACK
6
CONTINUOUS
10
93.5
20
-28.1
11
91
21
-28.1
0
LINE
8
BLACK
6
CONTINUOUS
10
91
20
-28.1
11
91
21
-27.1
0
LINE
8
BLACK
6
CONTINUOUS
10
91
20
-27.1
11
93.5
21
-27.1
0
LINE
8
BLACK
6
CONTINUOUS
10
93.5
20
-27.1
11
93.5
21
-28.1
0
LINE
8
BLACK
6
CONTINUOUS
10
75.6
20
-27.1
11
74
21
-27.1
0
LINE
8
BLACK
6
CONTINUOUS
10
74
20
-27.1
11
74
21
-25.9
0
LINE
8
BLACK
6
CONTINUOUS
10
74
20
-25.9
11
75.6
21
-25.9
0
LINE
8
BLACK
6
CONTINUOUS
10
75.6
20
-25.9
11
75.6
21
-27.1
0
LINE
8
BLACK
6
CONTINUOUS
10
78.4
20
-27.1
11
76.8
21
-27.1
0
LINE
8
BLACK
6
CONTINUOUS
10
76.8
20
-27.1
11
76.8
21
-25.9
0
LINE
8
BLACK
6
CONTINUOUS
10
76.8
20
-25.9
11
78.4
21
-25.9
0
LINE
8
BLACK
6
CONTINUOUS
10
78.4
20
-25.9
11
78.4
21
-27.1
0
LINE
8
BLACK
6
CONTINUOUS
10
99.5
20
-26.5
11
97
21
-26.5
0
LINE
8
BLACK
6
CONTINUOUS
10
97
20
-26.5
11
97
21
-25.5
0
LINE
8
BLACK
6
CONTINUOUS
10
97
20
-25.5
11
99.5
21
-25.5
0
LINE
8
BLACK
6
CONTINUOUS
10
99.5
20
-25.5
11
99.5
21
-26.5
0
LINE
8
BLACK
6
CONTINUOUS
10
93.5
20
-26.5
11
91
21
-26.5
0
LINE
8
BLACK
6
CONTINUOUS
10
91
20
-26.5
11
91
21
-25.5
0
LINE
8
BLACK
6
CONTINUOUS
10
91
20
-25.5
11
93.5
21
-25.5
0
LINE
8
BLACK
6
CONTINUOUS
10
93.5
20
-25.5
11
93.5
21
-26.5
0
LINE
8
BLACK
6
CONTINUOUS
10
52.135
20
-26.27
11
49.585
21
-26.27
0
LINE
8
BLACK
6
CONTINUOUS
10
49.585
20
-26.27
11
49.585
21
-23.77
0
LINE
8
BLACK
6
CONTINUOUS
10
49.585
20
-23.77
11
52.135
21
-23.77
0
LINE
8
BLACK
6
CONTINUOUS
10
52.135
20
-23.77
11
52.135
21
-26.27
0
LINE
8
BLACK
6
CONTINUOUS
10
40.3
20
-26.1
11
38.7
21
-26.1
0
LINE
8
BLACK
6
CONTINUOUS
10
38.7
20
-26.1
11
38.7
21
-24.9
0
LINE
8
BLACK
6
CONTINUOUS
10
38.7
20
-24.9
11
40.3
21
-24.9
0
LINE
8
BLACK
6
CONTINUOUS
10
40.3
20
-24.9
11
40.3
21
-26.1
0
LINE
8
BLACK
6
CONTINUOUS
10
37.5
20
-26.1
11
35.9
21
-26.1
0
LINE
8
BLACK
6
CONTINUOUS
10
35.9
20
-26.1
11
35.9
21
-24.9
0
LINE
8
BLACK
6
CONTINUOUS
10
35.9
20
-24.9
11
37.5
21
-24.9
0
LINE
8
BLACK
6
CONTINUOUS
10
37.5
20
-24.9
11
37.5
21
-26.1
0
LINE
8
BLACK
6
CONTINUOUS
10
23.3
20
-25.1
11
20.8
21
-25.1
0
LINE
8
BLACK
6
CONTINUOUS
10
20.8
20
-25.1
11
20.8
21
-24.1
0
LINE
8
BLACK
6
CONTINUOUS
10
20.8
20
-24.1
11
23.3
21
-24.1
0
LINE
8
BLACK
6
CONTINUOUS
10
23.3
20
-24.1
11
23.3
21
-25.1
0
LINE
8
BLACK
6
CONTINUOUS
10
17.3
20
-25.1
11
14.8
21
-25.1
0
LINE
8
BLACK
6
CONTINUOUS
10
14.8
20
-25.1
11
14.8
21
-24.1
0
LINE
8
BLACK
6
CONTINUOUS
10
14.8
20
-24.1
11
17.3
21
-24.1
0
LINE
8
BLACK
6
CONTINUOUS
10
17.3
20
-24.1
11
17.3
21
-25.1
0
LINE
8
BLACK
6
CONTINUOUS
10
-1.75
20
-25.1
11
-4.25
21
-25.1
0
LINE
8
BLACK
6
CONTINUOUS
10
-4.25
20
-25.1
11
-4.25
21
-24.1
0
LINE
8
BLACK
6
CONTINUOUS
10
-4.25
20
-24.1
11
-1.75
21
-24.1
0
LINE
8
BLACK
6
CONTINUOUS
10
-1.75
20
-24.1
11
-1.75
21
-25.1
0
LINE
8
BLACK
6
CONTINUOUS
10
4.25
20
-25.1
11
1.75
21
-25.1
0
LINE
8
BLACK
6
CONTINUOUS
10
1.75
20
-25.1
11
1.75
21
-24.1
0
LINE
8
BLACK
6
CONTINUOUS
10
1.75
20
-24.1
11
4.25
21
-24.1
0
LINE
8
BLACK
6
CONTINUOUS
10
4.25
20
-24.1
11
4.25
21
-25.1
0
LINE
8
BLACK
6
CONTINUOUS
10
17.3
20
-23.5
11
14.8
21
-23.5
0
LINE
8
BLACK
6
CONTINUOUS
10
14.8
20
-23.5
11
14.8
21
-22.5
0
LINE
8
BLACK
6
CONTINUOUS
10
14.8
20
-22.5
11
17.3
21
-22.5
0
LINE
8
BLACK
6
CONTINUOUS
10
17.3
20
-22.5
11
17.3
21
-23.5
0
LINE
8
BLACK
6
CONTINUOUS
10
-1.75
20
-23.5
11
-4.25
21
-23.5
0
LINE
8
BLACK
6
CONTINUOUS
10
-4.25
20
-23.5
11
-4.25
21
-22.5
0
LINE
8
BLACK
6
CONTINUOUS
10
-4.25
20
-22.5
11
-1.75
21
-22.5
0
LINE
8
BLACK
6
CONTINUOUS
10
-1.75
20
-22.5
11
-1.75
21
-23.5
0
LINE
8
BLACK
6
CONTINUOUS
10
4.25
20
-23.5
11
1.75
21
-23.5
0
LINE
8
BLACK
6
CONTINUOUS
10
1.75
20
-23.5
11
1.75
21
-22.5
0
LINE
8
BLACK
6
CONTINUOUS
10
1.75
20
-22.5
11
4.25
21
-22.5
0
LINE
8
BLACK
6
CONTINUOUS
10
4.25
20
-22.5
11
4.25
21
-23.5
0
LINE
8
BLACK
6
CONTINUOUS
10
23.3
20
-23.5
11
20.8
21
-23.5
0
LINE
8
BLACK
6
CONTINUOUS
10
20.8
20
-23.5
11
20.8
21
-22.5
0
LINE
8
BLACK
6
CONTINUOUS
10
20.8
20
-22.5
11
23.3
21
-22.5
0
LINE
8
BLACK
6
CONTINUOUS
10
23.3
20
-22.5
11
23.3
21
-23.5
0
LINE
8
BLACK
6
CONTINUOUS
10
74.45
20
-23.1
11
71.95
21
-23.1
0
LINE
8
BLACK
6
CONTINUOUS
10
71.95
20
-23.1
11
71.95
21
-22.1
0
LINE
8
BLACK
6
CONTINUOUS
10
71.95
20
-22.1
11
74.45
21
-22.1
0
LINE
8
BLACK
6
CONTINUOUS
10
74.45
20
-22.1
11
74.45
21
-23.1
0
LINE
8
BLACK
6
CONTINUOUS
10
80.45
20
-23.1
11
77.95
21
-23.1
0
LINE
8
BLACK
6
CONTINUOUS
10
77.95
20
-23.1
11
77.95
21
-22.1
0
LINE
8
BLACK
6
CONTINUOUS
10
77.95
20
-22.1
11
80.45
21
-22.1
0
LINE
8
BLACK
6
CONTINUOUS
10
80.45
20
-22.1
11
80.45
21
-23.1
0
LINE
8
BLACK
6
CONTINUOUS
10
42.35
20
-22.1
11
39.85
21
-22.1
0
LINE
8
BLACK
6
CONTINUOUS
10
39.85
20
-22.1
11
39.85
21
-21.1
0
LINE
8
BLACK
6
CONTINUOUS
10
39.85
20
-21.1
11
42.35
21
-21.1
0
LINE
8
BLACK
6
CONTINUOUS
10
42.35
20
-21.1
11
42.35
21
-22.1
0
LINE
8
BLACK
6
CONTINUOUS
10
36.35
20
-22.1
11
33.85
21
-22.1
0
LINE
8
BLACK
6
CONTINUOUS
10
33.85
20
-22.1
11
33.85
21
-21.1
0
LINE
8
BLACK
6
CONTINUOUS
10
33.85
20
-21.1
11
36.35
21
-21.1
0
LINE
8
BLACK
6
CONTINUOUS
10
36.35
20
-21.1
11
36.35
21
-22.1
0
LINE
8
BLACK
6
CONTINUOUS
10
74.45
20
-21.5
11
71.95
21
-21.5
0
LINE
8
BLACK
6
CONTINUOUS
10
71.95
20
-21.5
11
71.95
21
-20.5
0
LINE
8
BLACK
6
CONTINUOUS
10
71.95
20
-20.5
11
74.45
21
-20.5
0
LINE
8
BLACK
6
CONTINUOUS
10
74.45
20
-20.5
11
74.45
21
-21.5
0
LINE
8
BLACK
6
CONTINUOUS
10
80.45
20
-21.5
11
77.95
21
-21.5
0
LINE
8
BLACK
6
CONTINUOUS
10
77.95
20
-21.5
11
77.95
21
-20.5
0
LINE
8
BLACK
6
CONTINUOUS
10
77.95
20
-20.5
11
80.45
21
-20.5
0
LINE
8
BLACK
6
CONTINUOUS
10
80.45
20
-20.5
11
80.45
21
-21.5
0
LINE
8
BLACK
6
CONTINUOUS
10
59.35
20
-21.1
11
57.75
21
-21.1
0
LINE
8
BLACK
6
CONTINUOUS
10
57.75
20
-21.1
11
57.75
21
-19.9
0
LINE
8
BLACK
6
CONTINUOUS
10
57.75
20
-19.9
11
59.35
21
-19.9
0
LINE
8
BLACK
6
CONTINUOUS
10
59.35
20
-19.9
11
59.35
21
-21.1
0
LINE
8
BLACK
6
CONTINUOUS
10
56.55
20
-21.1
11
54.95
21
-21.1
0
LINE
8
BLACK
6
CONTINUOUS
10
54.95
20
-21.1
11
54.95
21
-19.9
0
LINE
8
BLACK
6
CONTINUOUS
10
54.95
20
-19.9
11
56.55
21
-19.9
0
LINE
8
BLACK
6
CONTINUOUS
10
56.55
20
-19.9
11
56.55
21
-21.1
0
LINE
8
BLACK
6
CONTINUOUS
10
104.085
20
-20.76
11
101.535
21
-20.76
0
LINE
8
BLACK
6
CONTINUOUS
10
101.535
20
-20.76
11
101.535
21
-18.26
0
LINE
8
BLACK
6
CONTINUOUS
10
101.535
20
-18.26
11
104.085
21
-18.26
0
LINE
8
BLACK
6
CONTINUOUS
10
104.085
20
-18.26
11
104.085
21
-20.76
0
LINE
8
BLACK
6
CONTINUOUS
10
42.35
20
-20.5
11
39.85
21
-20.5
0
LINE
8
BLACK
6
CONTINUOUS
10
39.85
20
-20.5
11
39.85
21
-19.5
0
LINE
8
BLACK
6
CONTINUOUS
10
39.85
20
-19.5
11
42.35
21
-19.5
0
LINE
8
BLACK
6
CONTINUOUS
10
42.35
20
-19.5
11
42.35
21
-20.5
0
LINE
8
BLACK
6
CONTINUOUS
10
36.35
20
-20.5
11
33.85
21
-20.5
0
LINE
8
BLACK
6
CONTINUOUS
10
33.85
20
-20.5
11
33.85
21
-19.5
0
LINE
8
BLACK
6
CONTINUOUS
10
33.85
20
-19.5
11
36.35
21
-19.5
0
LINE
8
BLACK
6
CONTINUOUS
10
36.35
20
-19.5
11
36.35
21
-20.5
0
LINE
8
BLACK
6
CONTINUOUS
10
90.235
20
-18.22
11
87.685
21
-18.22
0
LINE
8
BLACK
6
CONTINUOUS
10
87.685
20
-18.22
11
87.685
21
-15.72
0
LINE
8
BLACK
6
CONTINUOUS
10
87.685
20
-15.72
11
90.235
21
-15.72
0
LINE
8
BLACK
6
CONTINUOUS
10
90.235
20
-15.72
11
90.235
21
-18.22
0
LINE
8
BLACK
6
CONTINUOUS
10
27.885
20
-17.76
11
25.335
21
-17.76
0
LINE
8
BLACK
6
CONTINUOUS
10
25.335
20
-17.76
11
25.335
21
-15.26
0
LINE
8
BLACK
6
CONTINUOUS
10
25.335
20
-15.26
11
27.885
21
-15.26
0
LINE
8
BLACK
6
CONTINUOUS
10
27.885
20
-15.26
11
27.885
21
-17.76
0
LINE
8
BLACK
6
CONTINUOUS
10
8.835
20
-17.76
11
6.285
21
-17.76
0
LINE
8
BLACK
6
CONTINUOUS
10
6.285
20
-17.76
11
6.285
21
-15.26
0
LINE
8
BLACK
6
CONTINUOUS
10
6.285
20
-15.26
11
8.835
21
-15.26
0
LINE
8
BLACK
6
CONTINUOUS
10
8.835
20
-15.26
11
8.835
21
-17.76
0
LINE
8
BLACK
6
CONTINUOUS
10
61.4
20
-17.1
11
58.9
21
-17.1
0
LINE
8
BLACK
6
CONTINUOUS
10
58.9
20
-17.1
11
58.9
21
-16.1
0
LINE
8
BLACK
6
CONTINUOUS
10
58.9
20
-16.1
11
61.4
21
-16.1
0
LINE
8
BLACK
6
CONTINUOUS
10
61.4
20
-16.1
11
61.4
21
-17.1
0
LINE
8
BLACK
6
CONTINUOUS
10
55.4
20
-17.1
11
52.9
21
-17.1
0
LINE
8
BLACK
6
CONTINUOUS
10
52.9
20
-17.1
11
52.9
21
-16.1
0
LINE
8
BLACK
6
CONTINUOUS
10
52.9
20
-16.1
11
55.4
21
-16.1
0
LINE
8
BLACK
6
CONTINUOUS
10
55.4
20
-16.1
11
55.4
21
-17.1
0
LINE
8
BLACK
6
CONTINUOUS
10
85.035
20
-15.76
11
82.485
21
-15.76
0
LINE
8
BLACK
6
CONTINUOUS
10
82.485
20
-15.76
11
82.485
21
-13.26
0
LINE
8
BLACK
6
CONTINUOUS
10
82.485
20
-13.26
11
85.035
21
-13.26
0
LINE
8
BLACK
6
CONTINUOUS
10
85.035
20
-13.26
11
85.035
21
-15.76
0
LINE
8
BLACK
6
CONTINUOUS
10
55.4
20
-15.5
11
52.9
21
-15.5
0
LINE
8
BLACK
6
CONTINUOUS
10
52.9
20
-15.5
11
52.9
21
-14.5
0
LINE
8
BLACK
6
CONTINUOUS
10
52.9
20
-14.5
11
55.4
21
-14.5
0
LINE
8
BLACK
6
CONTINUOUS
10
55.4
20
-14.5
11
55.4
21
-15.5
0
LINE
8
BLACK
6
CONTINUOUS
10
61.4
20
-15.5
11
58.9
21
-15.5
0
LINE
8
BLACK
6
CONTINUOUS
10
58.9
20
-15.5
11
58.9
21
-14.5
0
LINE
8
BLACK
6
CONTINUOUS
10
58.9
20
-14.5
11
61.4
21
-14.5
0
LINE
8
BLACK
6
CONTINUOUS
10
61.4
20
-14.5
11
61.4
21
-15.5
0
LINE
8
BLACK
6
CONTINUOUS
10
-5.015
20
-15.22
11
-7.565
21
-15.22
0
LINE
8
BLACK
6
CONTINUOUS
10
-7.565
20
-15.22
11
-7.565
21
-12.72
0
LINE
8
BLACK
6
CONTINUOUS
10
-7.565
20
-12.72
11
-5.015
21
-12.72
0
LINE
8
BLACK
6
CONTINUOUS
10
-5.015
20
-12.72
11
-5.015
21
-15.22
0
LINE
8
BLACK
6
CONTINUOUS
10
14.035
20
-15.22
11
11.485
21
-15.22
0
LINE
8
BLACK
6
CONTINUOUS
10
11.485
20
-15.22
11
11.485
21
-12.72
0
LINE
8
BLACK
6
CONTINUOUS
10
11.485
20
-12.72
11
14.035
21
-12.72
0
LINE
8
BLACK
6
CONTINUOUS
10
14.035
20
-12.72
11
14.035
21
-15.22
0
LINE
8
BLACK
6
CONTINUOUS
10
46.935
20
-14.76
11
44.385
21
-14.76
0
LINE
8
BLACK
6
CONTINUOUS
10
44.385
20
-14.76
11
44.385
21
-12.26
0
LINE
8
BLACK
6
CONTINUOUS
10
44.385
20
-12.26
11
46.935
21
-12.26
0
LINE
8
BLACK
6
CONTINUOUS
10
46.935
20
-12.26
11
46.935
21
-14.76
0
LINE
8
BLACK
6
CONTINUOUS
10
71.185
20
-13.22
11
68.635
21
-13.22
0
LINE
8
BLACK
6
CONTINUOUS
10
68.635
20
-13.22
11
68.635
21
-10.72
0
LINE
8
BLACK
6
CONTINUOUS
10
68.635
20
-10.72
11
71.185
21
-10.72
0
LINE
8
BLACK
6
CONTINUOUS
10
71.185
20
-10.72
11
71.185
21
-13.22
0
LINE
8
BLACK
6
CONTINUOUS
10
94.65
20
-13.1
11
93.05
21
-13.1
0
LINE
8
BLACK
6
CONTINUOUS
10
93.05
20
-13.1
11
93.05
21
-11.9
0
LINE
8
BLACK
6
CONTINUOUS
10
93.05
20
-11.9
11
94.65
21
-11.9
0
LINE
8
BLACK
6
CONTINUOUS
10
94.65
20
-11.9
11
94.65
21
-13.1
0
LINE
8
BLACK
6
CONTINUOUS
10
97.45
20
-13.1
11
95.85
21
-13.1
0
LINE
8
BLACK
6
CONTINUOUS
10
95.85
20
-13.1
11
95.85
21
-11.9
0
LINE
8
BLACK
6
CONTINUOUS
10
95.85
20
-11.9
11
97.45
21
-11.9
0
LINE
8
BLACK
6
CONTINUOUS
10
97.45
20
-11.9
11
97.45
21
-13.1
0
LINE
8
BLACK
6
CONTINUOUS
10
33.085
20
-12.22
11
30.535
21
-12.22
0
LINE
8
BLACK
6
CONTINUOUS
10
30.535
20
-12.22
11
30.535
21
-9.72
0
LINE
8
BLACK
6
CONTINUOUS
10
30.535
20
-9.72
11
33.085
21
-9.72
0
LINE
8
BLACK
6
CONTINUOUS
10
33.085
20
-9.72
11
33.085
21
-12.22
0
LINE
8
BLACK
6
CONTINUOUS
10
-0.6
20
-10.1
11
-2.2
21
-10.1
0
LINE
8
BLACK
6
CONTINUOUS
10
-2.2
20
-10.1
11
-2.2
21
-8.9
0
LINE
8
BLACK
6
CONTINUOUS
10
-2.2
20
-8.9
11
-0.6
21
-8.9
0
LINE
8
BLACK
6
CONTINUOUS
10
-0.6
20
-8.9
11
-0.6
21
-10.1
0
LINE
8
BLACK
6
CONTINUOUS
10
21.25
20
-10.1
11
19.65
21
-10.1
0
LINE
8
BLACK
6
CONTINUOUS
10
19.65
20
-10.1
11
19.65
21
-8.9
0
LINE
8
BLACK
6
CONTINUOUS
10
19.65
20
-8.9
11
21.25
21
-8.9
0
LINE
8
BLACK
6
CONTINUOUS
10
21.25
20
-8.9
11
21.25
21
-10.1
0
LINE
8
BLACK
6
CONTINUOUS
10
18.45
20
-10.1
11
16.85
21
-10.1
0
LINE
8
BLACK
6
CONTINUOUS
10
16.85
20
-10.1
11
16.85
21
-8.9
0
LINE
8
BLACK
6
CONTINUOUS
10
16.85
20
-8.9
11
18.45
21
-8.9
0
LINE
8
BLACK
6
CONTINUOUS
10
18.45
20
-8.9
11
18.45
21
-10.1
0
LINE
8
BLACK
6
CONTINUOUS
10
2.2
20
-10.1
11
0.6
21
-10.1
0
LINE
8
BLACK
6
CONTINUOUS
10
0.6
20
-10.1
11
0.6
21
-8.9
0
LINE
8
BLACK
6
CONTINUOUS
10
0.6
20
-8.9
11
2.2
21
-8.9
0
LINE
8
BLACK
6
CONTINUOUS
10
2.2
20
-8.9
11
2.2
21
-10.1
0
LINE
8
BLACK
6
CONTINUOUS
10
65.985
20
-9.76
11
63.435
21
-9.76
0
LINE
8
BLACK
6
CONTINUOUS
10
63.435
20
-9.76
11
63.435
21
-7.26
0
LINE
8
BLACK
6
CONTINUOUS
10
63.435
20
-7.26
11
65.985
21
-7.26
0
LINE
8
BLACK
6
CONTINUOUS
10
65.985
20
-7.26
11
65.985
21
-9.76
0
LINE
8
BLACK
6
CONTINUOUS
10
99.5
20
-9.05
11
97
21
-9.05
0
LINE
8
BLACK
6
CONTINUOUS
10
97
20
-9.05
11
97
21
-8.05
0
LINE
8
BLACK
6
CONTINUOUS
10
97
20
-8.05
11
99.5
21
-8.05
0
LINE
8
BLACK
6
CONTINUOUS
10
99.5
20
-8.05
11
99.5
21
-9.05
0
LINE
8
BLACK
6
CONTINUOUS
10
93.5
20
-9.05
11
91
21
-9.05
0
LINE
8
BLACK
6
CONTINUOUS
10
91
20
-9.05
11
91
21
-8.05
0
LINE
8
BLACK
6
CONTINUOUS
10
91
20
-8.05
11
93.5
21
-8.05
0
LINE
8
BLACK
6
CONTINUOUS
10
93.5
20
-8.05
11
93.5
21
-9.05
0
LINE
8
BLACK
6
CONTINUOUS
10
78.4
20
-8.1
11
76.8
21
-8.1
0
LINE
8
BLACK
6
CONTINUOUS
10
76.8
20
-8.1
11
76.8
21
-6.9
0
LINE
8
BLACK
6
CONTINUOUS
10
76.8
20
-6.9
11
78.4
21
-6.9
0
LINE
8
BLACK
6
CONTINUOUS
10
78.4
20
-6.9
11
78.4
21
-8.1
0
LINE
8
BLACK
6
CONTINUOUS
10
75.6
20
-8.1
11
74
21
-8.1
0
LINE
8
BLACK
6
CONTINUOUS
10
74
20
-8.1
11
74
21
-6.9
0
LINE
8
BLACK
6
CONTINUOUS
10
74
20
-6.9
11
75.6
21
-6.9
0
LINE
8
BLACK
6
CONTINUOUS
10
75.6
20
-6.9
11
75.6
21
-8.1
0
LINE
8
BLACK
6
CONTINUOUS
10
99.5
20
-7.45
11
97
21
-7.45
0
LINE
8
BLACK
6
CONTINUOUS
10
97
20
-7.45
11
97
21
-6.45
0
LINE
8
BLACK
6
CONTINUOUS
10
97
20
-6.45
11
99.5
21
-6.45
0
LINE
8
BLACK
6
CONTINUOUS
10
99.5
20
-6.45
11
99.5
21
-7.45
0
LINE
8
BLACK
6
CONTINUOUS
10
93.5
20
-7.45
11
91
21
-7.45
0
LINE
8
BLACK
6
CONTINUOUS
10
91
20
-7.45
11
91
21
-6.45
0
LINE
8
BLACK
6
CONTINUOUS
10
91
20
-6.45
11
93.5
21
-6.45
0
LINE
8
BLACK
6
CONTINUOUS
10
93.5
20
-6.45
11
93.5
21
-7.45
0
LINE
8
BLACK
6
CONTINUOUS
10
52.135
20
-7.22
11
49.585
21
-7.22
0
LINE
8
BLACK
6
CONTINUOUS
10
49.585
20
-7.22
11
49.585
21
-4.72
0
LINE
8
BLACK
6
CONTINUOUS
10
49.585
20
-4.72
11
52.135
21
-4.72
0
LINE
8
BLACK
6
CONTINUOUS
10
52.135
20
-4.72
11
52.135
21
-7.22
0
LINE
8
BLACK
6
CONTINUOUS
10
37.5
20
-7.1
11
35.9
21
-7.1
0
LINE
8
BLACK
6
CONTINUOUS
10
35.9
20
-7.1
11
35.9
21
-5.9
0
LINE
8
BLACK
6
CONTINUOUS
10
35.9
20
-5.9
11
37.5
21
-5.9
0
LINE
8
BLACK
6
CONTINUOUS
10
37.5
20
-5.9
11
37.5
21
-7.1
0
LINE
8
BLACK
6
CONTINUOUS
10
40.3
20
-7.1
11
38.7
21
-7.1
0
LINE
8
BLACK
6
CONTINUOUS
10
38.7
20
-7.1
11
38.7
21
-5.9
0
LINE
8
BLACK
6
CONTINUOUS
10
38.7
20
-5.9
11
40.3
21
-5.9
0
LINE
8
BLACK
6
CONTINUOUS
10
40.3
20
-5.9
11
40.3
21
-7.1
0
LINE
8
BLACK
6
CONTINUOUS
10
-1.75
20
-6.05
11
-4.25
21
-6.05
0
LINE
8
BLACK
6
CONTINUOUS
10
-4.25
20
-6.05
11
-4.25
21
-5.05
0
LINE
8
BLACK
6
CONTINUOUS
10
-4.25
20
-5.05
11
-1.75
21
-5.05
0
LINE
8
BLACK
6
CONTINUOUS
10
-1.75
20
-5.05
11
-1.75
21
-6.05
0
LINE
8
BLACK
6
CONTINUOUS
10
4.25
20
-6.05
11
1.75
21
-6.05
0
LINE
8
BLACK
6
CONTINUOUS
10
1.75
20
-6.05
11
1.75
21
-5.05
0
LINE
8
BLACK
6
CONTINUOUS
10
1.75
20
-5.05
11
4.25
21
-5.05
0
LINE
8
BLACK
6
CONTINUOUS
10
4.25
20
-5.05
11
4.25
21
-6.05
0
LINE
8
BLACK
6
CONTINUOUS
10
17.3
20
-6.05
11
14.8
21
-6.05
0
LINE
8
BLACK
6
CONTINUOUS
10
14.8
20
-6.05
11
14.8
21
-5.05
0
LINE
8
BLACK
6
CONTINUOUS
10
14.8
20
-5.05
11
17.3
21
-5.05
0
LINE
8
BLACK
6
CONTINUOUS
10
17.3
20
-5.05
11
17.3
21
-6.05
0
LINE
8
BLACK
6
CONTINUOUS
10
23.3
20
-6.05
11
20.8
21
-6.05
0
LINE
8
BLACK
6
CONTINUOUS
10
20.8
20
-6.05
11
20.8
21
-5.05
0
LINE
8
BLACK
6
CONTINUOUS
10
20.8
20
-5.05
11
23.3
21
-5.05
0
LINE
8
BLACK
6
CONTINUOUS
10
23.3
20
-5.05
11
23.3
21
-6.05
0
LINE
8
BLACK
6
CONTINUOUS
10
-1.75
20
-4.45
11
-4.25
21
-4.45
0
LINE
8
BLACK
6
CONTINUOUS
10
-4.25
20
-4.45
11
-4.25
21
-3.45
0
LINE
8
BLACK
6
CONTINUOUS
10
-4.25
20
-3.45
11
-1.75
21
-3.45
0
LINE
8
BLACK
6
CONTINUOUS
10
-1.75
20
-3.45
11
-1.75
21
-4.45
0
LINE
8
BLACK
6
CONTINUOUS
10
4.25
20
-4.45
11
1.75
21
-4.45
0
LINE
8
BLACK
6
CONTINUOUS
10
1.75
20
-4.45
11
1.75
21
-3.45
0
LINE
8
BLACK
6
CONTINUOUS
10
1.75
20
-3.45
11
4.25
21
-3.45
0
LINE
8
BLACK
6
CONTINUOUS
10
4.25
20
-3.45
11
4.25
21
-4.45
0
LINE
8
BLACK
6
CONTINUOUS
10
17.3
20
-4.45
11
14.8
21
-4.45
0
LINE
8
BLACK
6
CONTINUOUS
10
14.8
20
-4.45
11
14.8
21
-3.45
0
LINE
8
BLACK
6
CONTINUOUS
10
14.8
20
-3.45
11
17.3
21
-3.45
0
LINE
8
BLACK
6
CONTINUOUS
10
17.3
20
-3.45
11
17.3
21
-4.45
0
LINE
8
BLACK
6
CONTINUOUS
10
23.3
20
-4.45
11
20.8
21
-4.45
0
LINE
8
BLACK
6
CONTINUOUS
10
20.8
20
-4.45
11
20.8
21
-3.45
0
LINE
8
BLACK
6
CONTINUOUS
10
20.8
20
-3.45
11
23.3
21
-3.45
0
LINE
8
BLACK
6
CONTINUOUS
10
23.3
20
-3.45
11
23.3
21
-4.45
0
LINE
8
BLACK
6
CONTINUOUS
10
80.45
20
-4.05
11
77.95
21
-4.05
0
LINE
8
BLACK
6
CONTINUOUS
10
77.95
20
-4.05
11
77.95
21
-3.05
0
LINE
8
BLACK
6
CONTINUOUS
10
77.95
20
-3.05
11
80.45
21
-3.05
0
LINE
8
BLACK
6
CONTINUOUS
10
80.45
20
-3.05
11
80.45
21
-4.05
0
LINE
8
BLACK
6
CONTINUOUS
10
74.45
20
-4.05
11
71.95
21
-4.05
0
LINE
8
BLACK
6
CONTINUOUS
10
71.95
20
-4.05
11
71.95
21
-3.05
0
LINE
8
BLACK
6
CONTINUOUS
10
71.95
20
-3.05
11
74.45
21
-3.05
0
LINE
8
BLACK
6
CONTINUOUS
10
74.45
20
-3.05
11
74.45
21
-4.05
0
LINE
8
BLACK
6
CONTINUOUS
10
36.35
20
-3.05
11
33.85
21
-3.05
0
LINE
8
BLACK
6
CONTINUOUS
10
33.85
20
-3.05
11
33.85
21
-2.05
0
LINE
8
BLACK
6
CONTINUOUS
10
33.85
20
-2.05
11
36.35
21
-2.05
0
LINE
8
BLACK
6
CONTINUOUS
10
36.35
20
-2.05
11
36.35
21
-3.05
0
LINE
8
BLACK
6
CONTINUOUS
10
42.35
20
-3.05
11
39.85
21
-3.05
0
LINE
8
BLACK
6
CONTINUOUS
10
39.85
20
-3.05
11
39.85
21
-2.05
0
LINE
8
BLACK
6
CONTINUOUS
10
39.85
20
-2.05
11
42.35
21
-2.05
0
LINE
8
BLACK
6
CONTINUOUS
10
42.35
20
-2.05
11
42.35
21
-3.05
0
LINE
8
BLACK
6
CONTINUOUS
10
80.45
20
-2.45
11
77.95
21
-2.45
0
LINE
8
BLACK
6
CONTINUOUS
10
77.95
20
-2.45
11
77.95
21
-1.45
0
LINE
8
BLACK
6
CONTINUOUS
10
77.95
20
-1.45
11
80.45
21
-1.45
0
LINE
8
BLACK
6
CONTINUOUS
10
80.45
20
-1.45
11
80.45
21
-2.45
0
LINE
8
BLACK
6
CONTINUOUS
10
74.45
20
-2.45
11
71.95
21
-2.45
0
LINE
8
BLACK
6
CONTINUOUS
10
71.95
20
-2.45
11
71.95
21
-1.45
0
LINE
8
BLACK
6
CONTINUOUS
10
71.95
20
-1.45
11
74.45
21
-1.45
0
LINE
8
BLACK
6
CONTINUOUS
10
74.45
20
-1.45
11
74.45
21
-2.45
0
LINE
8
BLACK
6
CONTINUOUS
10
59.35
20
-2.1
11
57.75
21
-2.1
0
LINE
8
BLACK
6
CONTINUOUS
10
57.75
20
-2.1
11
57.75
21
-0.9
0
LINE
8
BLACK
6
CONTINUOUS
10
57.75
20
-0.9
11
59.35
21
-0.9
0
LINE
8
BLACK
6
CONTINUOUS
10
59.35
20
-0.9
11
59.35
21
-2.1
0
LINE
8
BLACK
6
CONTINUOUS
10
56.55
20
-2.1
11
54.95
21
-2.1
0
LINE
8
BLACK
6
CONTINUOUS
10
54.95
20
-2.1
11
54.95
21
-0.9
0
LINE
8
BLACK
6
CONTINUOUS
10
54.95
20
-0.9
11
56.55
21
-0.9
0
LINE
8
BLACK
6
CONTINUOUS
10
56.55
20
-0.9
11
56.55
21
-2.1
0
LINE
8
BLACK
6
CONTINUOUS
10
104.085
20
-1.71
11
101.535
21
-1.71
0
LINE
8
BLACK
6
CONTINUOUS
10
101.535
20
-1.71
11
101.535
21
0.79
0
LINE
8
BLACK
6
CONTINUOUS
10
101.535
20
0.79
11
104.085
21
0.79
0
LINE
8
BLACK
6
CONTINUOUS
10
104.085
20
0.79
11
104.085
21
-1.71
0
LINE
8
BLACK
6
CONTINUOUS
10
36.35
20
-1.45
11
33.85
21
-1.45
0
LINE
8
BLACK
6
CONTINUOUS
10
33.85
20
-1.45
11
33.85
21
-0.45
0
LINE
8
BLACK
6
CONTINUOUS
10
33.85
20
-0.45
11
36.35
21
-0.45
0
LINE
8
BLACK
6
CONTINUOUS
10
36.35
20
-0.45
11
36.35
21
-1.45
0
LINE
8
BLACK
6
CONTINUOUS
10
42.35
20
-1.45
11
39.85
21
-1.45
0
LINE
8
BLACK
6
CONTINUOUS
10
39.85
20
-1.45
11
39.85
21
-0.45
0
LINE
8
BLACK
6
CONTINUOUS
10
39.85
20
-0.45
11
42.35
21
-0.45
0
LINE
8
BLACK
6
CONTINUOUS
10
42.35
20
-0.45
11
42.35
21
-1.45
0
LINE
8
BLACK
6
CONTINUOUS
10
90.235
20
0.83
11
87.685
21
0.83
0
LINE
8
BLACK
6
CONTINUOUS
10
87.685
20
0.83
11
87.685
21
3.33
0
LINE
8
BLACK
6
CONTINUOUS
10
87.685
20
3.33
11
90.235
21
3.33
0
LINE
8
BLACK
6
CONTINUOUS
10
90.235
20
3.33
11
90.235
21
0.83
0
LINE
8
BLACK
6
CONTINUOUS
10
27.885
20
1.29
11
25.335
21
1.29
0
LINE
8
BLACK
6
CONTINUOUS
10
25.335
20
1.29
11
25.335
21
3.79
0
LINE
8
BLACK
6
CONTINUOUS
10
25.335
20
3.79
11
27.885
21
3.79
0
LINE
8
BLACK
6
CONTINUOUS
10
27.885
20
3.79
11
27.885
21
1.29
0
LINE
8
BLACK
6
CONTINUOUS
10
8.835
20
1.29
11
6.285
21
1.29
0
LINE
8
BLACK
6
CONTINUOUS
10
6.285
20
1.29
11
6.285
21
3.79
0
LINE
8
BLACK
6
CONTINUOUS
10
6.285
20
3.79
11
8.835
21
3.79
0
LINE
8
BLACK
6
CONTINUOUS
10
8.835
20
3.79
11
8.835
21
1.29
0
LINE
8
BLACK
6
CONTINUOUS
10
61.4
20
1.95
11
58.9
21
1.95
0
LINE
8
BLACK
6
CONTINUOUS
10
58.9
20
1.95
11
58.9
21
2.95
0
LINE
8
BLACK
6
CONTINUOUS
10
58.9
20
2.95
11
61.4
21
2.95
0
LINE
8
BLACK
6
CONTINUOUS
10
61.4
20
2.95
11
61.4
21
1.95
0
LINE
8
BLACK
6
CONTINUOUS
10
55.4
20
1.95
11
52.9
21
1.95
0
LINE
8
BLACK
6
CONTINUOUS
10
52.9
20
1.95
11
52.9
21
2.95
0
LINE
8
BLACK
6
CONTINUOUS
10
52.9
20
2.95
11
55.4
21
2.95
0
LINE
8
BLACK
6
CONTINUOUS
10
55.4
20
2.95
11
55.4
21
1.95
0
LINE
8
BLACK
6
CONTINUOUS
10
85.035
20
3.29
11
82.485
21
3.29
0
LINE
8
BLACK
6
CONTINUOUS
10
82.485
20
3.29
11
82.485
21
5.79
0
LINE
8
BLACK
6
CONTINUOUS
10
82.485
20
5.79
11
85.035
21
5.79
0
LINE
8
BLACK
6
CONTINUOUS
10
85.035
20
5.79
11
85.035
21
3.29
0
LINE
8
BLACK
6
CONTINUOUS
10
55.4
20
3.55
11
52.9
21
3.55
0
LINE
8
BLACK
6
CONTINUOUS
10
52.9
20
3.55
11
52.9
21
4.55
0
LINE
8
BLACK
6
CONTINUOUS
10
52.9
20
4.55
11
55.4
21
4.55
0
LINE
8
BLACK
6
CONTINUOUS
10
55.4
20
4.55
11
55.4
21
3.55
0
LINE
8
BLACK
6
CONTINUOUS
10
61.4
20
3.55
11
58.9
21
3.55
0
LINE
8
BLACK
6
CONTINUOUS
10
58.9
20
3.55
11
58.9
21
4.55
0
LINE
8
BLACK
6
CONTINUOUS
10
58.9
20
4.55
11
61.4
21
4.55
0
LINE
8
BLACK
6
CONTINUOUS
10
61.4
20
4.55
11
61.4
21
3.55
0
LINE
8
BLACK
6
CONTINUOUS
10
14.035
20
3.83
11
11.485
21
3.83
0
LINE
8
BLACK
6
CONTINUOUS
10
11.485
20
3.83
11
11.485
21
6.33
0
LINE
8
BLACK
6
CONTINUOUS
10
11.485
20
6.33
11
14.035
21
6.33
0
LINE
8
BLACK
6
CONTINUOUS
10
14.035
20
6.33
11
14.035
21
3.83
0
LINE
8
BLACK
6
CONTINUOUS
10
-5.015
20
3.83
11
-7.565
21
3.83
0
LINE
8
BLACK
6
CONTINUOUS
10
-7.565
20
3.83
11
-7.565
21
6.33
0
LINE
8
BLACK
6
CONTINUOUS
10
-7.565
20
6.33
11
-5.015
21
6.33
0
LINE
8
BLACK
6
CONTINUOUS
10
-5.015
20
6.33
11
-5.015
21
3.83
0
LINE
8
BLACK
6
CONTINUOUS
10
46.935
20
4.29
11
44.385
21
4.29
0
LINE
8
BLACK
6
CONTINUOUS
10
44.385
20
4.29
11
44.385
21
6.79
0
LINE
8
BLACK
6
CONTINUOUS
10
44.385
20
6.79
11
46.935
21
6.79
0
LINE
8
BLACK
6
CONTINUOUS
10
46.935
20
6.79
11
46.935
21
4.29
0
LINE
8
BLACK
6
CONTINUOUS
10
97.75
20
5.002
11
97.15
21
5.002
0
LINE
8
BLACK
6
CONTINUOUS
10
97.15
20
5.002
11
97.15
21
6.002
0
LINE
8
BLACK
6
CONTINUOUS
10
97.15
20
6.002
11
97.75
21
6.002
0
LINE
8
BLACK
6
CONTINUOUS
10
97.75
20
6.002
11
97.75
21
5.002
0
LINE
8
BLACK
6
CONTINUOUS
10
96.25
20
5.002
11
95.65
21
5.002
0
LINE
8
BLACK
6
CONTINUOUS
10
95.65
20
5.002
11
95.65
21
6.002
0
LINE
8
BLACK
6
CONTINUOUS
10
95.65
20
6.002
11
96.25
21
6.002
0
LINE
8
BLACK
6
CONTINUOUS
10
96.25
20
6.002
11
96.25
21
5.002
0
LINE
8
BLACK
6
CONTINUOUS
10
71.185
20
5.83
11
68.635
21
5.83
0
LINE
8
BLACK
6
CONTINUOUS
10
68.635
20
5.83
11
68.635
21
8.33
0
LINE
8
BLACK
6
CONTINUOUS
10
68.635
20
8.33
11
71.185
21
8.33
0
LINE
8
BLACK
6
CONTINUOUS
10
71.185
20
8.33
11
71.185
21
5.83
0
LINE
8
BLACK
6
CONTINUOUS
10
99.35
20
5.909
11
98.35
21
5.909
0
LINE
8
BLACK
6
CONTINUOUS
10
98.35
20
5.909
11
98.35
21
6.509
0
LINE
8
BLACK
6
CONTINUOUS
10
98.35
20
6.509
11
99.35
21
6.509
0
LINE
8
BLACK
6
CONTINUOUS
10
99.35
20
6.509
11
99.35
21
5.909
0
LINE
8
BLACK
6
CONTINUOUS
10
92.2
20
5.919
11
91.1
21
5.919
0
LINE
8
BLACK
6
CONTINUOUS
10
91.1
20
5.919
11
91.1
21
6.519
0
LINE
8
BLACK
6
CONTINUOUS
10
91.1
20
6.519
11
92.2
21
6.519
0
LINE
8
BLACK
6
CONTINUOUS
10
92.2
20
6.519
11
92.2
21
5.919
0
LINE
8
BLACK
6
CONTINUOUS
10
33.085
20
6.83
11
30.535
21
6.83
0
LINE
8
BLACK
6
CONTINUOUS
10
30.535
20
6.83
11
30.535
21
9.33
0
LINE
8
BLACK
6
CONTINUOUS
10
30.535
20
9.33
11
33.085
21
9.33
0
LINE
8
BLACK
6
CONTINUOUS
10
33.085
20
9.33
11
33.085
21
6.83
0
LINE
8
BLACK
6
CONTINUOUS
10
92.15
20
8.195
11
91.15
21
8.195
0
LINE
8
BLACK
6
CONTINUOUS
10
91.15
20
8.195
11
91.15
21
8.795
0
LINE
8
BLACK
6
CONTINUOUS
10
91.15
20
8.795
11
92.15
21
8.795
0
LINE
8
BLACK
6
CONTINUOUS
10
92.15
20
8.795
11
92.15
21
8.195
0
LINE
8
BLACK
6
CONTINUOUS
10
99.4
20
8.195
11
98.3
21
8.195
0
LINE
8
BLACK
6
CONTINUOUS
10
98.3
20
8.195
11
98.3
21
8.795
0
LINE
8
BLACK
6
CONTINUOUS
10
98.3
20
8.795
11
99.4
21
8.795
0
LINE
8
BLACK
6
CONTINUOUS
10
99.4
20
8.795
11
99.4
21
8.195
0
LINE
8
BLACK
6
CONTINUOUS
10
65.985
20
9.29
11
63.435
21
9.29
0
LINE
8
BLACK
6
CONTINUOUS
10
63.435
20
9.29
11
63.435
21
11.79
0
LINE
8
BLACK
6
CONTINUOUS
10
63.435
20
11.79
11
65.985
21
11.79
0
LINE
8
BLACK
6
CONTINUOUS
10
65.985
20
11.79
11
65.985
21
9.29
0
LINE
8
BLACK
6
CONTINUOUS
10
52.135
20
11.83
11
49.585
21
11.83
0
LINE
8
BLACK
6
CONTINUOUS
10
49.585
20
11.83
11
49.585
21
14.33
0
LINE
8
BLACK
6
CONTINUOUS
10
49.585
20
14.33
11
52.135
21
14.33
0
LINE
8
BLACK
6
CONTINUOUS
10
52.135
20
14.33
11
52.135
21
11.83
  0
ENDSEC
  0
EOF
