G04 #@! TF.GenerationSoftware,KiCad,Pcbnew,(5.1.4)-1*
G04 #@! TF.CreationDate,2021-04-02T13:50:05-04:00*
G04 #@! TF.ProjectId,splitreus,73706c69-7472-4657-9573-2e6b69636164,1*
G04 #@! TF.SameCoordinates,Original*
G04 #@! TF.FileFunction,Profile,NP*
%FSLAX46Y46*%
G04 Gerber Fmt 4.6, Leading zero omitted, Abs format (unit mm)*
G04 Created by KiCad (PCBNEW (5.1.4)-1) date 2021-04-02 13:50:05*
%MOMM*%
%LPD*%
G04 APERTURE LIST*
%ADD10C,0.050000*%
G04 APERTURE END LIST*
D10*
X107738000Y-72698000D02*
X107738000Y-69288000D01*
X110748000Y-72698000D02*
X107738000Y-72698000D01*
X110748000Y-69288000D02*
X110748000Y-72698000D01*
X107738000Y-69288000D02*
X110748000Y-69288000D01*
X93528000Y-85468000D02*
X93528000Y-82418000D01*
X96978000Y-85468000D02*
X93528000Y-85468000D01*
X96978000Y-82418000D02*
X96978000Y-85468000D01*
X93528000Y-82418000D02*
X96978000Y-82418000D01*
X93538000Y-66398000D02*
X93538000Y-63378000D01*
X96958000Y-66398000D02*
X93538000Y-66398000D01*
X96958000Y-63378000D02*
X96958000Y-66398000D01*
X93538000Y-63378000D02*
X96958000Y-63378000D01*
X93538000Y-47368000D02*
X93538000Y-44328000D01*
X96958000Y-47368000D02*
X93538000Y-47368000D01*
X96958000Y-44328000D02*
X96958000Y-47368000D01*
X93538000Y-44328000D02*
X96958000Y-44328000D01*
X93528000Y-28308000D02*
X93528000Y-25258000D01*
X96968000Y-28308000D02*
X93528000Y-28308000D01*
X96968000Y-25258000D02*
X96968000Y-28308000D01*
X93528000Y-25258000D02*
X96968000Y-25258000D01*
X93528000Y-9258000D02*
X93528000Y-6228000D01*
X96958000Y-9258000D02*
X93528000Y-9258000D01*
X96958000Y-6228000D02*
X96958000Y-9258000D01*
X93528000Y-6228000D02*
X96958000Y-6228000D01*
X74488000Y-4278000D02*
X74488000Y-1228000D01*
X77908000Y-4278000D02*
X74488000Y-4278000D01*
X77908000Y-1228000D02*
X77908000Y-4278000D01*
X74488000Y-1228000D02*
X77908000Y-1228000D01*
X74488000Y-23308000D02*
X74488000Y-20278000D01*
X77908000Y-23308000D02*
X74488000Y-23308000D01*
X77908000Y-20278000D02*
X77908000Y-23308000D01*
X74488000Y-20278000D02*
X77908000Y-20278000D01*
X74488000Y-42368000D02*
X74488000Y-39328000D01*
X77908000Y-42368000D02*
X74488000Y-42368000D01*
X77908000Y-39328000D02*
X77908000Y-42368000D01*
X74488000Y-39328000D02*
X77908000Y-39328000D01*
X74478000Y-61418000D02*
X74478000Y-58378000D01*
X77918000Y-61418000D02*
X74478000Y-61418000D01*
X77918000Y-58378000D02*
X77918000Y-61418000D01*
X74478000Y-58378000D02*
X77918000Y-58378000D01*
X74488000Y-77418000D02*
X74488000Y-80468000D01*
X77898000Y-77418000D02*
X74488000Y-77418000D01*
X77898000Y-80468000D02*
X77898000Y-77418000D01*
X74488000Y-80468000D02*
X77898000Y-80468000D01*
X55428000Y-74468000D02*
X55428000Y-71428000D01*
X58868000Y-74468000D02*
X55428000Y-74468000D01*
X58868000Y-71428000D02*
X58868000Y-74468000D01*
X55428000Y-71428000D02*
X58868000Y-71428000D01*
X55428000Y-55418000D02*
X55428000Y-52368000D01*
X58868000Y-55418000D02*
X55428000Y-55418000D01*
X58868000Y-52368000D02*
X58868000Y-55418000D01*
X55428000Y-52368000D02*
X58868000Y-52368000D01*
X55428000Y-36358000D02*
X55428000Y-33338000D01*
X58868000Y-36358000D02*
X55428000Y-36358000D01*
X58868000Y-33338000D02*
X58868000Y-36358000D01*
X55428000Y-33338000D02*
X58868000Y-33338000D01*
X55438000Y-17308000D02*
X55438000Y-14268000D01*
X58858000Y-17308000D02*
X55438000Y-17308000D01*
X58858000Y-14268000D02*
X58858000Y-17308000D01*
X55438000Y-14268000D02*
X58858000Y-14268000D01*
X55438000Y1732000D02*
X55438000Y4782000D01*
X58848000Y1732000D02*
X55438000Y1732000D01*
X58848000Y4782000D02*
X58848000Y1732000D01*
X55438000Y4782000D02*
X58848000Y4782000D01*
X36378000Y-3258000D02*
X36378000Y-218000D01*
X39808000Y-3258000D02*
X36378000Y-3258000D01*
X39808000Y-218000D02*
X39808000Y-3258000D01*
X36378000Y-218000D02*
X39808000Y-218000D01*
X36388000Y-22308000D02*
X36388000Y-19278000D01*
X39818000Y-22308000D02*
X36388000Y-22308000D01*
X39818000Y-19278000D02*
X39818000Y-22308000D01*
X36388000Y-19278000D02*
X39818000Y-19278000D01*
X36378000Y-41378000D02*
X36378000Y-38308000D01*
X39828000Y-41378000D02*
X36378000Y-41378000D01*
X39828000Y-38308000D02*
X39828000Y-41378000D01*
X36378000Y-38308000D02*
X39828000Y-38308000D01*
X36378000Y-60418000D02*
X36378000Y-57368000D01*
X39808000Y-60418000D02*
X36378000Y-60418000D01*
X39808000Y-57368000D02*
X39808000Y-60418000D01*
X36378000Y-57368000D02*
X39808000Y-57368000D01*
X36378000Y-79448000D02*
X36378000Y-76418000D01*
X39818000Y-79448000D02*
X36378000Y-79448000D01*
X39818000Y-76418000D02*
X39818000Y-79448000D01*
X36378000Y-76418000D02*
X39818000Y-76418000D01*
X17328000Y-82468000D02*
X17328000Y-79418000D01*
X20768000Y-82468000D02*
X17328000Y-82468000D01*
X20768000Y-79418000D02*
X20768000Y-82468000D01*
X17328000Y-79418000D02*
X20768000Y-79418000D01*
X17338000Y-63418000D02*
X17338000Y-60368000D01*
X20748000Y-63418000D02*
X17338000Y-63418000D01*
X20748000Y-60368000D02*
X20748000Y-63418000D01*
X17338000Y-60368000D02*
X20748000Y-60368000D01*
X17348000Y-25308000D02*
X17348000Y-22278000D01*
X20748000Y-25308000D02*
X17348000Y-25308000D01*
X20748000Y-22278000D02*
X20748000Y-25308000D01*
X17348000Y-22278000D02*
X20748000Y-22278000D01*
X17348000Y-6258000D02*
X17348000Y-3228000D01*
X20748000Y-6258000D02*
X17348000Y-6258000D01*
X20748000Y-3228000D02*
X20748000Y-6258000D01*
X17348000Y-3228000D02*
X20748000Y-3228000D01*
X-1712000Y-82458000D02*
X-1712000Y-79438000D01*
X1708000Y-82458000D02*
X-1712000Y-82458000D01*
X1708000Y-79438000D02*
X1708000Y-82458000D01*
X-1712000Y-79438000D02*
X1708000Y-79438000D01*
X-1712000Y-63408000D02*
X-1712000Y-60388000D01*
X1698000Y-63408000D02*
X-1712000Y-63408000D01*
X1698000Y-60388000D02*
X1698000Y-63408000D01*
X-1712000Y-60388000D02*
X1698000Y-60388000D01*
X-1702000Y-44328000D02*
X-1702000Y-41328000D01*
X1708000Y-44328000D02*
X-1702000Y-44328000D01*
X1708000Y-41328000D02*
X1708000Y-44328000D01*
X-1702000Y-41328000D02*
X1708000Y-41328000D01*
X-1712000Y-25278000D02*
X-1712000Y-22288000D01*
X1698000Y-25278000D02*
X-1712000Y-25278000D01*
X1698000Y-22288000D02*
X1698000Y-25278000D01*
X-1712000Y-22288000D02*
X1698000Y-22288000D01*
X-1712000Y-6258000D02*
X-1712000Y-3258000D01*
X1698000Y-6258000D02*
X-1712000Y-6258000D01*
X1698000Y-3258000D02*
X1698000Y-6258000D01*
X-1712000Y-3258000D02*
X1698000Y-3258000D01*
X26725401Y10990664D02*
X28776832Y12209335D01*
X26725401Y10990664D02*
G75*
G02X23482231Y10100000I-3243170J5459336D01*
G01*
X-3649999Y10100000D02*
X23482231Y10100000D01*
X-9999999Y3750000D02*
G75*
G02X-3649999Y10100000I6350000J0D01*
G01*
X-10000000Y-79750000D02*
X-9999999Y3750000D01*
X-3650000Y-86100000D02*
G75*
G02X-10000000Y-79750000I0J6350000D01*
G01*
X25129997Y-86100000D02*
X-3649999Y-86100000D01*
X28373167Y-85209336D02*
G75*
G02X25129997Y-86100000I-3243170J5459337D01*
G01*
X30424598Y-83990664D02*
X28373167Y-85209335D01*
X30424598Y-83990664D02*
G75*
G02X33667768Y-83100000I3243170J-5459336D01*
G01*
X43722137Y-83100000D02*
X33667768Y-83100000D01*
X48189872Y-81262411D02*
G75*
G02X43722137Y-83100000I-4467735J4512412D01*
G01*
X49527941Y-79937588D02*
X48189871Y-81262411D01*
X49527942Y-79937589D02*
G75*
G02X53995675Y-78100000I4467733J-4512410D01*
G01*
X59798583Y-78100000D02*
X53995675Y-78100000D01*
X59798583Y-78099999D02*
G75*
G02X64656819Y-80360984I0J-6350000D01*
G01*
X65900827Y-81839015D02*
X64656819Y-80360984D01*
X70759063Y-84100000D02*
G75*
G02X65900827Y-81839015I0J6350000D01*
G01*
X79354324Y-84100000D02*
X70759063Y-84100000D01*
X79354324Y-84099999D02*
G75*
G02X83822058Y-85937588I0J-6350001D01*
G01*
X85160128Y-87262411D02*
X83822058Y-85937588D01*
X89627862Y-89100000D02*
G75*
G02X85160128Y-87262411I0J6350000D01*
G01*
X100403071Y-89100000D02*
X89627862Y-89100000D01*
X105772724Y-86139592D02*
G75*
G02X100403071Y-89100000I-5369653J3389593D01*
G01*
X107085208Y-84060407D02*
X105772723Y-86139592D01*
X107085208Y-84060407D02*
G75*
G02X112454860Y-81100000I5369652J-3389593D01*
G01*
X117950000Y-81100000D02*
X112454860Y-81100000D01*
X124300000Y-74750000D02*
G75*
G02X117950000Y-81100000I-6350000J0D01*
G01*
X124300000Y-17449999D02*
X124300000Y-74750000D01*
X117950000Y-11099999D02*
G75*
G02X124300000Y-17449999I0J-6350000D01*
G01*
X111600000Y-11099999D02*
X117950000Y-11100000D01*
X111600000Y-11100000D02*
G75*
G02X105250000Y-4750000I0J6350000D01*
G01*
X105250000Y750000D02*
X105250000Y-4750000D01*
X98900000Y7100000D02*
G75*
G02X105250000Y750000I0J-6350000D01*
G01*
X92095675Y7100000D02*
X98900000Y7100000D01*
X92095675Y7099999D02*
G75*
G02X87627941Y8937588I0J6350001D01*
G01*
X86289871Y10262411D02*
X87627941Y8937588D01*
X81822137Y12100000D02*
G75*
G02X86289871Y10262411I0J-6350000D01*
G01*
X73551416Y12100000D02*
X81822137Y12100000D01*
X73551417Y12099999D02*
G75*
G02X68693180Y14360984I-1J6350001D01*
G01*
X67449172Y15839015D02*
X68693180Y14360984D01*
X62590936Y18100000D02*
G75*
G02X67449172Y15839015I0J-6350000D01*
G01*
X51527862Y18100000D02*
X62590936Y18100000D01*
X47060127Y16262411D02*
G75*
G02X51527862Y18100000I4467735J-4512412D01*
G01*
X45722058Y14937588D02*
X47060128Y16262411D01*
X45722058Y14937589D02*
G75*
G02X41254324Y13100000I-4467734J4512411D01*
G01*
X32020002Y13100000D02*
X41254324Y13100000D01*
X28776832Y12209336D02*
G75*
G02X32020002Y13100000I3243170J-5459336D01*
G01*
M02*
