G04 #@! TF.GenerationSoftware,KiCad,Pcbnew,(5.1.4)-1*
G04 #@! TF.CreationDate,2021-07-30T13:44:11-04:00*
G04 #@! TF.ProjectId,splitreus,73706c69-7472-4657-9573-2e6b69636164,1*
G04 #@! TF.SameCoordinates,Original*
G04 #@! TF.FileFunction,Legend,Top*
G04 #@! TF.FilePolarity,Positive*
%FSLAX46Y46*%
G04 Gerber Fmt 4.6, Leading zero omitted, Abs format (unit mm)*
G04 Created by KiCad (PCBNEW (5.1.4)-1) date 2021-07-30 13:44:11*
%MOMM*%
%LPD*%
G04 APERTURE LIST*
%ADD10C,0.100000*%
%ADD11C,0.150000*%
%ADD12C,0.120000*%
%ADD13C,0.500000*%
G04 APERTURE END LIST*
D10*
G36*
X100060000Y-13175000D02*
G01*
X96170000Y-13175000D01*
X98120000Y-9905000D01*
X100060000Y-13175000D01*
G37*
X100060000Y-13175000D02*
X96170000Y-13175000D01*
X98120000Y-9905000D01*
X100060000Y-13175000D01*
G36*
X99170000Y-10165000D02*
G01*
X99170000Y-14055000D01*
X95900000Y-12105000D01*
X99170000Y-10165000D01*
G37*
X99170000Y-10165000D02*
X99170000Y-14055000D01*
X95900000Y-12105000D01*
X99170000Y-10165000D01*
G36*
X97040000Y-14105000D02*
G01*
X97040000Y-10215000D01*
X100310000Y-12165000D01*
X97040000Y-14105000D01*
G37*
X97040000Y-14105000D02*
X97040000Y-10215000D01*
X100310000Y-12165000D01*
X97040000Y-14105000D01*
G36*
X96150000Y-11095000D02*
G01*
X100040000Y-11095000D01*
X98090000Y-14365000D01*
X96150000Y-11095000D01*
G37*
X96150000Y-11095000D02*
X100040000Y-11095000D01*
X98090000Y-14365000D01*
X96150000Y-11095000D01*
G36*
X101228000Y-73758000D02*
G01*
X97338000Y-73758000D01*
X99288000Y-70488000D01*
X101228000Y-73758000D01*
G37*
X101228000Y-73758000D02*
X97338000Y-73758000D01*
X99288000Y-70488000D01*
X101228000Y-73758000D01*
G36*
X100338000Y-70748000D02*
G01*
X100338000Y-74638000D01*
X97068000Y-72688000D01*
X100338000Y-70748000D01*
G37*
X100338000Y-70748000D02*
X100338000Y-74638000D01*
X97068000Y-72688000D01*
X100338000Y-70748000D01*
G36*
X98208000Y-74688000D02*
G01*
X98208000Y-70798000D01*
X101478000Y-72748000D01*
X98208000Y-74688000D01*
G37*
X98208000Y-74688000D02*
X98208000Y-70798000D01*
X101478000Y-72748000D01*
X98208000Y-74688000D01*
G36*
X97318000Y-71678000D02*
G01*
X101208000Y-71678000D01*
X99258000Y-74948000D01*
X97318000Y-71678000D01*
G37*
X97318000Y-71678000D02*
X101208000Y-71678000D01*
X99258000Y-74948000D01*
X97318000Y-71678000D01*
G36*
X27570000Y-8970000D02*
G01*
X27570000Y-5080000D01*
X24300000Y-7030000D01*
X27570000Y-8970000D01*
G37*
X27570000Y-8970000D02*
X27570000Y-5080000D01*
X24300000Y-7030000D01*
X27570000Y-8970000D01*
G36*
X28460000Y-5960000D02*
G01*
X24570000Y-5960000D01*
X26520000Y-9230000D01*
X28460000Y-5960000D01*
G37*
X28460000Y-5960000D02*
X24570000Y-5960000D01*
X26520000Y-9230000D01*
X28460000Y-5960000D01*
G36*
X24550000Y-8040000D02*
G01*
X28440000Y-8040000D01*
X26490000Y-4770000D01*
X24550000Y-8040000D01*
G37*
X24550000Y-8040000D02*
X28440000Y-8040000D01*
X26490000Y-4770000D01*
X24550000Y-8040000D01*
G36*
X25440000Y-5030000D02*
G01*
X25440000Y-8920000D01*
X28710000Y-6970000D01*
X25440000Y-5030000D01*
G37*
X25440000Y-5030000D02*
X25440000Y-8920000D01*
X28710000Y-6970000D01*
X25440000Y-5030000D01*
G36*
X67810000Y-7455000D02*
G01*
X63920000Y-7455000D01*
X65870000Y-4185000D01*
X67810000Y-7455000D01*
G37*
X67810000Y-7455000D02*
X63920000Y-7455000D01*
X65870000Y-4185000D01*
X67810000Y-7455000D01*
G36*
X66920000Y-4445000D02*
G01*
X66920000Y-8335000D01*
X63650000Y-6385000D01*
X66920000Y-4445000D01*
G37*
X66920000Y-4445000D02*
X66920000Y-8335000D01*
X63650000Y-6385000D01*
X66920000Y-4445000D01*
G36*
X64790000Y-8385000D02*
G01*
X64790000Y-4495000D01*
X68060000Y-6445000D01*
X64790000Y-8385000D01*
G37*
X64790000Y-8385000D02*
X64790000Y-4495000D01*
X68060000Y-6445000D01*
X64790000Y-8385000D01*
G36*
X63900000Y-5375000D02*
G01*
X67790000Y-5375000D01*
X65840000Y-8645000D01*
X63900000Y-5375000D01*
G37*
X63900000Y-5375000D02*
X67790000Y-5375000D01*
X65840000Y-8645000D01*
X63900000Y-5375000D01*
G36*
X64328000Y-70478000D02*
G01*
X60438000Y-70478000D01*
X62388000Y-67208000D01*
X64328000Y-70478000D01*
G37*
X64328000Y-70478000D02*
X60438000Y-70478000D01*
X62388000Y-67208000D01*
X64328000Y-70478000D01*
G36*
X63438000Y-67468000D02*
G01*
X63438000Y-71358000D01*
X60168000Y-69408000D01*
X63438000Y-67468000D01*
G37*
X63438000Y-67468000D02*
X63438000Y-71358000D01*
X60168000Y-69408000D01*
X63438000Y-67468000D01*
G36*
X61308000Y-71408000D02*
G01*
X61308000Y-67518000D01*
X64578000Y-69468000D01*
X61308000Y-71408000D01*
G37*
X61308000Y-71408000D02*
X61308000Y-67518000D01*
X64578000Y-69468000D01*
X61308000Y-71408000D01*
G36*
X60418000Y-68398000D02*
G01*
X64308000Y-68398000D01*
X62358000Y-71668000D01*
X60418000Y-68398000D01*
G37*
X60418000Y-68398000D02*
X64308000Y-68398000D01*
X62358000Y-71668000D01*
X60418000Y-68398000D01*
G36*
X29318000Y-75068000D02*
G01*
X25428000Y-75068000D01*
X27378000Y-71798000D01*
X29318000Y-75068000D01*
G37*
X29318000Y-75068000D02*
X25428000Y-75068000D01*
X27378000Y-71798000D01*
X29318000Y-75068000D01*
G36*
X28428000Y-72058000D02*
G01*
X28428000Y-75948000D01*
X25158000Y-73998000D01*
X28428000Y-72058000D01*
G37*
X28428000Y-72058000D02*
X28428000Y-75948000D01*
X25158000Y-73998000D01*
X28428000Y-72058000D01*
G36*
X26298000Y-75998000D02*
G01*
X26298000Y-72108000D01*
X29568000Y-74058000D01*
X26298000Y-75998000D01*
G37*
X26298000Y-75998000D02*
X26298000Y-72108000D01*
X29568000Y-74058000D01*
X26298000Y-75998000D01*
G36*
X25408000Y-72988000D02*
G01*
X29298000Y-72988000D01*
X27348000Y-76258000D01*
X25408000Y-72988000D01*
G37*
X25408000Y-72988000D02*
X29298000Y-72988000D01*
X27348000Y-76258000D01*
X25408000Y-72988000D01*
G36*
X12960000Y-42030000D02*
G01*
X9070000Y-42030000D01*
X11020000Y-38760000D01*
X12960000Y-42030000D01*
G37*
X12960000Y-42030000D02*
X9070000Y-42030000D01*
X11020000Y-38760000D01*
X12960000Y-42030000D01*
G36*
X12070000Y-39020000D02*
G01*
X12070000Y-42910000D01*
X8800000Y-40960000D01*
X12070000Y-39020000D01*
G37*
X12070000Y-39020000D02*
X12070000Y-42910000D01*
X8800000Y-40960000D01*
X12070000Y-39020000D01*
G36*
X9940000Y-42960000D02*
G01*
X9940000Y-39070000D01*
X13210000Y-41020000D01*
X9940000Y-42960000D01*
G37*
X9940000Y-42960000D02*
X9940000Y-39070000D01*
X13210000Y-41020000D01*
X9940000Y-42960000D01*
G36*
X9050000Y-39950000D02*
G01*
X12940000Y-39950000D01*
X10990000Y-43220000D01*
X9050000Y-39950000D01*
G37*
X9050000Y-39950000D02*
X12940000Y-39950000D01*
X10990000Y-43220000D01*
X9050000Y-39950000D01*
G36*
X105990000Y-65520000D02*
G01*
X105990000Y-70000000D01*
X101250000Y-70000000D01*
X101250000Y-65070000D01*
X100790000Y-64930000D01*
X99780000Y-64910000D01*
X99280000Y-64350000D01*
X99280000Y-61530000D01*
X99810000Y-60970000D01*
X103300000Y-60970000D01*
X103810000Y-61490000D01*
X103810000Y-64270000D01*
X103940000Y-64700000D01*
X104140000Y-64950000D01*
X104420000Y-65230000D01*
X104740000Y-65390000D01*
X105360000Y-65540000D01*
X105980000Y-65520000D01*
X105990000Y-65520000D01*
G37*
X105990000Y-65520000D02*
X105990000Y-70000000D01*
X101250000Y-70000000D01*
X101250000Y-65070000D01*
X100790000Y-64930000D01*
X99780000Y-64910000D01*
X99280000Y-64350000D01*
X99280000Y-61530000D01*
X99810000Y-60970000D01*
X103300000Y-60970000D01*
X103810000Y-61490000D01*
X103810000Y-64270000D01*
X103940000Y-64700000D01*
X104140000Y-64950000D01*
X104420000Y-65230000D01*
X104740000Y-65390000D01*
X105360000Y-65540000D01*
X105980000Y-65520000D01*
X105990000Y-65520000D01*
D11*
X106000000Y-70000000D02*
X105500000Y-70000000D01*
X101300000Y-65500000D02*
G75*
G03X100800000Y-65000000I-500000J0D01*
G01*
X99300000Y-61500000D02*
X99300000Y-64500000D01*
X99800000Y-61000000D02*
X99300000Y-61500000D01*
X103800000Y-61500000D02*
X103800000Y-64000000D01*
X101900000Y-70000000D02*
X101300000Y-70000000D01*
X103300000Y-61000000D02*
X103800000Y-61500000D01*
X101300000Y-70000000D02*
X101300000Y-65500000D01*
X100800000Y-65000000D02*
X99800000Y-65000000D01*
X99300000Y-64500000D02*
X99800000Y-65000000D01*
X103800000Y-64000000D02*
G75*
G03X105300000Y-65500000I1500000J0D01*
G01*
X106000000Y-65500000D02*
X106000000Y-70000000D01*
X105300000Y-65500000D02*
X106000000Y-65500000D01*
D10*
G36*
X87480000Y-69490000D02*
G01*
X83000000Y-69490000D01*
X83000000Y-64750000D01*
X87930000Y-64750000D01*
X88070000Y-64290000D01*
X88090000Y-63280000D01*
X88650000Y-62780000D01*
X91470000Y-62780000D01*
X92030000Y-63310000D01*
X92030000Y-66800000D01*
X91510000Y-67310000D01*
X88730000Y-67310000D01*
X88300000Y-67440000D01*
X88050000Y-67640000D01*
X87770000Y-67920000D01*
X87610000Y-68240000D01*
X87460000Y-68860000D01*
X87480000Y-69480000D01*
X87480000Y-69490000D01*
G37*
X87480000Y-69490000D02*
X83000000Y-69490000D01*
X83000000Y-64750000D01*
X87930000Y-64750000D01*
X88070000Y-64290000D01*
X88090000Y-63280000D01*
X88650000Y-62780000D01*
X91470000Y-62780000D01*
X92030000Y-63310000D01*
X92030000Y-66800000D01*
X91510000Y-67310000D01*
X88730000Y-67310000D01*
X88300000Y-67440000D01*
X88050000Y-67640000D01*
X87770000Y-67920000D01*
X87610000Y-68240000D01*
X87460000Y-68860000D01*
X87480000Y-69480000D01*
X87480000Y-69490000D01*
D11*
X83000000Y-69500000D02*
X83000000Y-69000000D01*
X87500000Y-64800000D02*
G75*
G03X88000000Y-64300000I0J500000D01*
G01*
X91500000Y-62800000D02*
X88500000Y-62800000D01*
X92000000Y-63300000D02*
X91500000Y-62800000D01*
X91500000Y-67300000D02*
X89000000Y-67300000D01*
X83000000Y-65400000D02*
X83000000Y-64800000D01*
X92000000Y-66800000D02*
X91500000Y-67300000D01*
X83000000Y-64800000D02*
X87500000Y-64800000D01*
X88000000Y-64300000D02*
X88000000Y-63300000D01*
X88500000Y-62800000D02*
X88000000Y-63300000D01*
X89000000Y-67300000D02*
G75*
G03X87500000Y-68800000I0J-1500000D01*
G01*
X87500000Y-69500000D02*
X83000000Y-69500000D01*
X87500000Y-68800000D02*
X87500000Y-69500000D01*
D10*
G36*
X87480000Y-52490000D02*
G01*
X83000000Y-52490000D01*
X83000000Y-47750000D01*
X87930000Y-47750000D01*
X88070000Y-47290000D01*
X88090000Y-46280000D01*
X88650000Y-45780000D01*
X91470000Y-45780000D01*
X92030000Y-46310000D01*
X92030000Y-49800000D01*
X91510000Y-50310000D01*
X88730000Y-50310000D01*
X88300000Y-50440000D01*
X88050000Y-50640000D01*
X87770000Y-50920000D01*
X87610000Y-51240000D01*
X87460000Y-51860000D01*
X87480000Y-52480000D01*
X87480000Y-52490000D01*
G37*
X87480000Y-52490000D02*
X83000000Y-52490000D01*
X83000000Y-47750000D01*
X87930000Y-47750000D01*
X88070000Y-47290000D01*
X88090000Y-46280000D01*
X88650000Y-45780000D01*
X91470000Y-45780000D01*
X92030000Y-46310000D01*
X92030000Y-49800000D01*
X91510000Y-50310000D01*
X88730000Y-50310000D01*
X88300000Y-50440000D01*
X88050000Y-50640000D01*
X87770000Y-50920000D01*
X87610000Y-51240000D01*
X87460000Y-51860000D01*
X87480000Y-52480000D01*
X87480000Y-52490000D01*
D11*
X83000000Y-52500000D02*
X83000000Y-52000000D01*
X87500000Y-47800000D02*
G75*
G03X88000000Y-47300000I0J500000D01*
G01*
X91500000Y-45800000D02*
X88500000Y-45800000D01*
X92000000Y-46300000D02*
X91500000Y-45800000D01*
X91500000Y-50300000D02*
X89000000Y-50300000D01*
X83000000Y-48400000D02*
X83000000Y-47800000D01*
X92000000Y-49800000D02*
X91500000Y-50300000D01*
X83000000Y-47800000D02*
X87500000Y-47800000D01*
X88000000Y-47300000D02*
X88000000Y-46300000D01*
X88500000Y-45800000D02*
X88000000Y-46300000D01*
X89000000Y-50300000D02*
G75*
G03X87500000Y-51800000I0J-1500000D01*
G01*
X87500000Y-52500000D02*
X83000000Y-52500000D01*
X87500000Y-51800000D02*
X87500000Y-52500000D01*
D10*
G36*
X87480000Y-35490000D02*
G01*
X83000000Y-35490000D01*
X83000000Y-30750000D01*
X87930000Y-30750000D01*
X88070000Y-30290000D01*
X88090000Y-29280000D01*
X88650000Y-28780000D01*
X91470000Y-28780000D01*
X92030000Y-29310000D01*
X92030000Y-32800000D01*
X91510000Y-33310000D01*
X88730000Y-33310000D01*
X88300000Y-33440000D01*
X88050000Y-33640000D01*
X87770000Y-33920000D01*
X87610000Y-34240000D01*
X87460000Y-34860000D01*
X87480000Y-35480000D01*
X87480000Y-35490000D01*
G37*
X87480000Y-35490000D02*
X83000000Y-35490000D01*
X83000000Y-30750000D01*
X87930000Y-30750000D01*
X88070000Y-30290000D01*
X88090000Y-29280000D01*
X88650000Y-28780000D01*
X91470000Y-28780000D01*
X92030000Y-29310000D01*
X92030000Y-32800000D01*
X91510000Y-33310000D01*
X88730000Y-33310000D01*
X88300000Y-33440000D01*
X88050000Y-33640000D01*
X87770000Y-33920000D01*
X87610000Y-34240000D01*
X87460000Y-34860000D01*
X87480000Y-35480000D01*
X87480000Y-35490000D01*
D11*
X83000000Y-35500000D02*
X83000000Y-35000000D01*
X87500000Y-30800000D02*
G75*
G03X88000000Y-30300000I0J500000D01*
G01*
X91500000Y-28800000D02*
X88500000Y-28800000D01*
X92000000Y-29300000D02*
X91500000Y-28800000D01*
X91500000Y-33300000D02*
X89000000Y-33300000D01*
X83000000Y-31400000D02*
X83000000Y-30800000D01*
X92000000Y-32800000D02*
X91500000Y-33300000D01*
X83000000Y-30800000D02*
X87500000Y-30800000D01*
X88000000Y-30300000D02*
X88000000Y-29300000D01*
X88500000Y-28800000D02*
X88000000Y-29300000D01*
X89000000Y-33300000D02*
G75*
G03X87500000Y-34800000I0J-1500000D01*
G01*
X87500000Y-35500000D02*
X83000000Y-35500000D01*
X87500000Y-34800000D02*
X87500000Y-35500000D01*
D10*
G36*
X87480000Y-18490000D02*
G01*
X83000000Y-18490000D01*
X83000000Y-13750000D01*
X87930000Y-13750000D01*
X88070000Y-13290000D01*
X88090000Y-12280000D01*
X88650000Y-11780000D01*
X91470000Y-11780000D01*
X92030000Y-12310000D01*
X92030000Y-15800000D01*
X91510000Y-16310000D01*
X88730000Y-16310000D01*
X88300000Y-16440000D01*
X88050000Y-16640000D01*
X87770000Y-16920000D01*
X87610000Y-17240000D01*
X87460000Y-17860000D01*
X87480000Y-18480000D01*
X87480000Y-18490000D01*
G37*
X87480000Y-18490000D02*
X83000000Y-18490000D01*
X83000000Y-13750000D01*
X87930000Y-13750000D01*
X88070000Y-13290000D01*
X88090000Y-12280000D01*
X88650000Y-11780000D01*
X91470000Y-11780000D01*
X92030000Y-12310000D01*
X92030000Y-15800000D01*
X91510000Y-16310000D01*
X88730000Y-16310000D01*
X88300000Y-16440000D01*
X88050000Y-16640000D01*
X87770000Y-16920000D01*
X87610000Y-17240000D01*
X87460000Y-17860000D01*
X87480000Y-18480000D01*
X87480000Y-18490000D01*
D11*
X83000000Y-18500000D02*
X83000000Y-18000000D01*
X87500000Y-13800000D02*
G75*
G03X88000000Y-13300000I0J500000D01*
G01*
X91500000Y-11800000D02*
X88500000Y-11800000D01*
X92000000Y-12300000D02*
X91500000Y-11800000D01*
X91500000Y-16300000D02*
X89000000Y-16300000D01*
X83000000Y-14400000D02*
X83000000Y-13800000D01*
X92000000Y-15800000D02*
X91500000Y-16300000D01*
X83000000Y-13800000D02*
X87500000Y-13800000D01*
X88000000Y-13300000D02*
X88000000Y-12300000D01*
X88500000Y-11800000D02*
X88000000Y-12300000D01*
X89000000Y-16300000D02*
G75*
G03X87500000Y-17800000I0J-1500000D01*
G01*
X87500000Y-18500000D02*
X83000000Y-18500000D01*
X87500000Y-17800000D02*
X87500000Y-18500000D01*
D10*
G36*
X69480000Y-64490000D02*
G01*
X65000000Y-64490000D01*
X65000000Y-59750000D01*
X69930000Y-59750000D01*
X70070000Y-59290000D01*
X70090000Y-58280000D01*
X70650000Y-57780000D01*
X73470000Y-57780000D01*
X74030000Y-58310000D01*
X74030000Y-61800000D01*
X73510000Y-62310000D01*
X70730000Y-62310000D01*
X70300000Y-62440000D01*
X70050000Y-62640000D01*
X69770000Y-62920000D01*
X69610000Y-63240000D01*
X69460000Y-63860000D01*
X69480000Y-64480000D01*
X69480000Y-64490000D01*
G37*
X69480000Y-64490000D02*
X65000000Y-64490000D01*
X65000000Y-59750000D01*
X69930000Y-59750000D01*
X70070000Y-59290000D01*
X70090000Y-58280000D01*
X70650000Y-57780000D01*
X73470000Y-57780000D01*
X74030000Y-58310000D01*
X74030000Y-61800000D01*
X73510000Y-62310000D01*
X70730000Y-62310000D01*
X70300000Y-62440000D01*
X70050000Y-62640000D01*
X69770000Y-62920000D01*
X69610000Y-63240000D01*
X69460000Y-63860000D01*
X69480000Y-64480000D01*
X69480000Y-64490000D01*
D11*
X65000000Y-64500000D02*
X65000000Y-64000000D01*
X69500000Y-59800000D02*
G75*
G03X70000000Y-59300000I0J500000D01*
G01*
X73500000Y-57800000D02*
X70500000Y-57800000D01*
X74000000Y-58300000D02*
X73500000Y-57800000D01*
X73500000Y-62300000D02*
X71000000Y-62300000D01*
X65000000Y-60400000D02*
X65000000Y-59800000D01*
X74000000Y-61800000D02*
X73500000Y-62300000D01*
X65000000Y-59800000D02*
X69500000Y-59800000D01*
X70000000Y-59300000D02*
X70000000Y-58300000D01*
X70500000Y-57800000D02*
X70000000Y-58300000D01*
X71000000Y-62300000D02*
G75*
G03X69500000Y-63800000I0J-1500000D01*
G01*
X69500000Y-64500000D02*
X65000000Y-64500000D01*
X69500000Y-63800000D02*
X69500000Y-64500000D01*
D10*
G36*
X69480000Y-47490000D02*
G01*
X65000000Y-47490000D01*
X65000000Y-42750000D01*
X69930000Y-42750000D01*
X70070000Y-42290000D01*
X70090000Y-41280000D01*
X70650000Y-40780000D01*
X73470000Y-40780000D01*
X74030000Y-41310000D01*
X74030000Y-44800000D01*
X73510000Y-45310000D01*
X70730000Y-45310000D01*
X70300000Y-45440000D01*
X70050000Y-45640000D01*
X69770000Y-45920000D01*
X69610000Y-46240000D01*
X69460000Y-46860000D01*
X69480000Y-47480000D01*
X69480000Y-47490000D01*
G37*
X69480000Y-47490000D02*
X65000000Y-47490000D01*
X65000000Y-42750000D01*
X69930000Y-42750000D01*
X70070000Y-42290000D01*
X70090000Y-41280000D01*
X70650000Y-40780000D01*
X73470000Y-40780000D01*
X74030000Y-41310000D01*
X74030000Y-44800000D01*
X73510000Y-45310000D01*
X70730000Y-45310000D01*
X70300000Y-45440000D01*
X70050000Y-45640000D01*
X69770000Y-45920000D01*
X69610000Y-46240000D01*
X69460000Y-46860000D01*
X69480000Y-47480000D01*
X69480000Y-47490000D01*
D11*
X65000000Y-47500000D02*
X65000000Y-47000000D01*
X69500000Y-42800000D02*
G75*
G03X70000000Y-42300000I0J500000D01*
G01*
X73500000Y-40800000D02*
X70500000Y-40800000D01*
X74000000Y-41300000D02*
X73500000Y-40800000D01*
X73500000Y-45300000D02*
X71000000Y-45300000D01*
X65000000Y-43400000D02*
X65000000Y-42800000D01*
X74000000Y-44800000D02*
X73500000Y-45300000D01*
X65000000Y-42800000D02*
X69500000Y-42800000D01*
X70000000Y-42300000D02*
X70000000Y-41300000D01*
X70500000Y-40800000D02*
X70000000Y-41300000D01*
X71000000Y-45300000D02*
G75*
G03X69500000Y-46800000I0J-1500000D01*
G01*
X69500000Y-47500000D02*
X65000000Y-47500000D01*
X69500000Y-46800000D02*
X69500000Y-47500000D01*
D10*
G36*
X69480000Y-30490000D02*
G01*
X65000000Y-30490000D01*
X65000000Y-25750000D01*
X69930000Y-25750000D01*
X70070000Y-25290000D01*
X70090000Y-24280000D01*
X70650000Y-23780000D01*
X73470000Y-23780000D01*
X74030000Y-24310000D01*
X74030000Y-27800000D01*
X73510000Y-28310000D01*
X70730000Y-28310000D01*
X70300000Y-28440000D01*
X70050000Y-28640000D01*
X69770000Y-28920000D01*
X69610000Y-29240000D01*
X69460000Y-29860000D01*
X69480000Y-30480000D01*
X69480000Y-30490000D01*
G37*
X69480000Y-30490000D02*
X65000000Y-30490000D01*
X65000000Y-25750000D01*
X69930000Y-25750000D01*
X70070000Y-25290000D01*
X70090000Y-24280000D01*
X70650000Y-23780000D01*
X73470000Y-23780000D01*
X74030000Y-24310000D01*
X74030000Y-27800000D01*
X73510000Y-28310000D01*
X70730000Y-28310000D01*
X70300000Y-28440000D01*
X70050000Y-28640000D01*
X69770000Y-28920000D01*
X69610000Y-29240000D01*
X69460000Y-29860000D01*
X69480000Y-30480000D01*
X69480000Y-30490000D01*
D11*
X65000000Y-30500000D02*
X65000000Y-30000000D01*
X69500000Y-25800000D02*
G75*
G03X70000000Y-25300000I0J500000D01*
G01*
X73500000Y-23800000D02*
X70500000Y-23800000D01*
X74000000Y-24300000D02*
X73500000Y-23800000D01*
X73500000Y-28300000D02*
X71000000Y-28300000D01*
X65000000Y-26400000D02*
X65000000Y-25800000D01*
X74000000Y-27800000D02*
X73500000Y-28300000D01*
X65000000Y-25800000D02*
X69500000Y-25800000D01*
X70000000Y-25300000D02*
X70000000Y-24300000D01*
X70500000Y-23800000D02*
X70000000Y-24300000D01*
X71000000Y-28300000D02*
G75*
G03X69500000Y-29800000I0J-1500000D01*
G01*
X69500000Y-30500000D02*
X65000000Y-30500000D01*
X69500000Y-29800000D02*
X69500000Y-30500000D01*
D10*
G36*
X69480000Y-13490000D02*
G01*
X65000000Y-13490000D01*
X65000000Y-8750000D01*
X69930000Y-8750000D01*
X70070000Y-8290000D01*
X70090000Y-7280000D01*
X70650000Y-6780000D01*
X73470000Y-6780000D01*
X74030000Y-7310000D01*
X74030000Y-10800000D01*
X73510000Y-11310000D01*
X70730000Y-11310000D01*
X70300000Y-11440000D01*
X70050000Y-11640000D01*
X69770000Y-11920000D01*
X69610000Y-12240000D01*
X69460000Y-12860000D01*
X69480000Y-13480000D01*
X69480000Y-13490000D01*
G37*
X69480000Y-13490000D02*
X65000000Y-13490000D01*
X65000000Y-8750000D01*
X69930000Y-8750000D01*
X70070000Y-8290000D01*
X70090000Y-7280000D01*
X70650000Y-6780000D01*
X73470000Y-6780000D01*
X74030000Y-7310000D01*
X74030000Y-10800000D01*
X73510000Y-11310000D01*
X70730000Y-11310000D01*
X70300000Y-11440000D01*
X70050000Y-11640000D01*
X69770000Y-11920000D01*
X69610000Y-12240000D01*
X69460000Y-12860000D01*
X69480000Y-13480000D01*
X69480000Y-13490000D01*
D11*
X65000000Y-13500000D02*
X65000000Y-13000000D01*
X69500000Y-8800000D02*
G75*
G03X70000000Y-8300000I0J500000D01*
G01*
X73500000Y-6800000D02*
X70500000Y-6800000D01*
X74000000Y-7300000D02*
X73500000Y-6800000D01*
X73500000Y-11300000D02*
X71000000Y-11300000D01*
X65000000Y-9400000D02*
X65000000Y-8800000D01*
X74000000Y-10800000D02*
X73500000Y-11300000D01*
X65000000Y-8800000D02*
X69500000Y-8800000D01*
X70000000Y-8300000D02*
X70000000Y-7300000D01*
X70500000Y-6800000D02*
X70000000Y-7300000D01*
X71000000Y-11300000D02*
G75*
G03X69500000Y-12800000I0J-1500000D01*
G01*
X69500000Y-13500000D02*
X65000000Y-13500000D01*
X69500000Y-12800000D02*
X69500000Y-13500000D01*
D10*
G36*
X51480000Y-58490000D02*
G01*
X47000000Y-58490000D01*
X47000000Y-53750000D01*
X51930000Y-53750000D01*
X52070000Y-53290000D01*
X52090000Y-52280000D01*
X52650000Y-51780000D01*
X55470000Y-51780000D01*
X56030000Y-52310000D01*
X56030000Y-55800000D01*
X55510000Y-56310000D01*
X52730000Y-56310000D01*
X52300000Y-56440000D01*
X52050000Y-56640000D01*
X51770000Y-56920000D01*
X51610000Y-57240000D01*
X51460000Y-57860000D01*
X51480000Y-58480000D01*
X51480000Y-58490000D01*
G37*
X51480000Y-58490000D02*
X47000000Y-58490000D01*
X47000000Y-53750000D01*
X51930000Y-53750000D01*
X52070000Y-53290000D01*
X52090000Y-52280000D01*
X52650000Y-51780000D01*
X55470000Y-51780000D01*
X56030000Y-52310000D01*
X56030000Y-55800000D01*
X55510000Y-56310000D01*
X52730000Y-56310000D01*
X52300000Y-56440000D01*
X52050000Y-56640000D01*
X51770000Y-56920000D01*
X51610000Y-57240000D01*
X51460000Y-57860000D01*
X51480000Y-58480000D01*
X51480000Y-58490000D01*
D11*
X47000000Y-58500000D02*
X47000000Y-58000000D01*
X51500000Y-53800000D02*
G75*
G03X52000000Y-53300000I0J500000D01*
G01*
X55500000Y-51800000D02*
X52500000Y-51800000D01*
X56000000Y-52300000D02*
X55500000Y-51800000D01*
X55500000Y-56300000D02*
X53000000Y-56300000D01*
X47000000Y-54400000D02*
X47000000Y-53800000D01*
X56000000Y-55800000D02*
X55500000Y-56300000D01*
X47000000Y-53800000D02*
X51500000Y-53800000D01*
X52000000Y-53300000D02*
X52000000Y-52300000D01*
X52500000Y-51800000D02*
X52000000Y-52300000D01*
X53000000Y-56300000D02*
G75*
G03X51500000Y-57800000I0J-1500000D01*
G01*
X51500000Y-58500000D02*
X47000000Y-58500000D01*
X51500000Y-57800000D02*
X51500000Y-58500000D01*
D10*
G36*
X51480000Y-41490000D02*
G01*
X47000000Y-41490000D01*
X47000000Y-36750000D01*
X51930000Y-36750000D01*
X52070000Y-36290000D01*
X52090000Y-35280000D01*
X52650000Y-34780000D01*
X55470000Y-34780000D01*
X56030000Y-35310000D01*
X56030000Y-38800000D01*
X55510000Y-39310000D01*
X52730000Y-39310000D01*
X52300000Y-39440000D01*
X52050000Y-39640000D01*
X51770000Y-39920000D01*
X51610000Y-40240000D01*
X51460000Y-40860000D01*
X51480000Y-41480000D01*
X51480000Y-41490000D01*
G37*
X51480000Y-41490000D02*
X47000000Y-41490000D01*
X47000000Y-36750000D01*
X51930000Y-36750000D01*
X52070000Y-36290000D01*
X52090000Y-35280000D01*
X52650000Y-34780000D01*
X55470000Y-34780000D01*
X56030000Y-35310000D01*
X56030000Y-38800000D01*
X55510000Y-39310000D01*
X52730000Y-39310000D01*
X52300000Y-39440000D01*
X52050000Y-39640000D01*
X51770000Y-39920000D01*
X51610000Y-40240000D01*
X51460000Y-40860000D01*
X51480000Y-41480000D01*
X51480000Y-41490000D01*
D11*
X47000000Y-41500000D02*
X47000000Y-41000000D01*
X51500000Y-36800000D02*
G75*
G03X52000000Y-36300000I0J500000D01*
G01*
X55500000Y-34800000D02*
X52500000Y-34800000D01*
X56000000Y-35300000D02*
X55500000Y-34800000D01*
X55500000Y-39300000D02*
X53000000Y-39300000D01*
X47000000Y-37400000D02*
X47000000Y-36800000D01*
X56000000Y-38800000D02*
X55500000Y-39300000D01*
X47000000Y-36800000D02*
X51500000Y-36800000D01*
X52000000Y-36300000D02*
X52000000Y-35300000D01*
X52500000Y-34800000D02*
X52000000Y-35300000D01*
X53000000Y-39300000D02*
G75*
G03X51500000Y-40800000I0J-1500000D01*
G01*
X51500000Y-41500000D02*
X47000000Y-41500000D01*
X51500000Y-40800000D02*
X51500000Y-41500000D01*
D10*
G36*
X51480000Y-24490000D02*
G01*
X47000000Y-24490000D01*
X47000000Y-19750000D01*
X51930000Y-19750000D01*
X52070000Y-19290000D01*
X52090000Y-18280000D01*
X52650000Y-17780000D01*
X55470000Y-17780000D01*
X56030000Y-18310000D01*
X56030000Y-21800000D01*
X55510000Y-22310000D01*
X52730000Y-22310000D01*
X52300000Y-22440000D01*
X52050000Y-22640000D01*
X51770000Y-22920000D01*
X51610000Y-23240000D01*
X51460000Y-23860000D01*
X51480000Y-24480000D01*
X51480000Y-24490000D01*
G37*
X51480000Y-24490000D02*
X47000000Y-24490000D01*
X47000000Y-19750000D01*
X51930000Y-19750000D01*
X52070000Y-19290000D01*
X52090000Y-18280000D01*
X52650000Y-17780000D01*
X55470000Y-17780000D01*
X56030000Y-18310000D01*
X56030000Y-21800000D01*
X55510000Y-22310000D01*
X52730000Y-22310000D01*
X52300000Y-22440000D01*
X52050000Y-22640000D01*
X51770000Y-22920000D01*
X51610000Y-23240000D01*
X51460000Y-23860000D01*
X51480000Y-24480000D01*
X51480000Y-24490000D01*
D11*
X47000000Y-24500000D02*
X47000000Y-24000000D01*
X51500000Y-19800000D02*
G75*
G03X52000000Y-19300000I0J500000D01*
G01*
X55500000Y-17800000D02*
X52500000Y-17800000D01*
X56000000Y-18300000D02*
X55500000Y-17800000D01*
X55500000Y-22300000D02*
X53000000Y-22300000D01*
X47000000Y-20400000D02*
X47000000Y-19800000D01*
X56000000Y-21800000D02*
X55500000Y-22300000D01*
X47000000Y-19800000D02*
X51500000Y-19800000D01*
X52000000Y-19300000D02*
X52000000Y-18300000D01*
X52500000Y-17800000D02*
X52000000Y-18300000D01*
X53000000Y-22300000D02*
G75*
G03X51500000Y-23800000I0J-1500000D01*
G01*
X51500000Y-24500000D02*
X47000000Y-24500000D01*
X51500000Y-23800000D02*
X51500000Y-24500000D01*
D10*
G36*
X51480000Y-7490000D02*
G01*
X47000000Y-7490000D01*
X47000000Y-2750000D01*
X51930000Y-2750000D01*
X52070000Y-2290000D01*
X52090000Y-1280000D01*
X52650000Y-780000D01*
X55470000Y-780000D01*
X56030000Y-1310000D01*
X56030000Y-4800000D01*
X55510000Y-5310000D01*
X52730000Y-5310000D01*
X52300000Y-5440000D01*
X52050000Y-5640000D01*
X51770000Y-5920000D01*
X51610000Y-6240000D01*
X51460000Y-6860000D01*
X51480000Y-7480000D01*
X51480000Y-7490000D01*
G37*
X51480000Y-7490000D02*
X47000000Y-7490000D01*
X47000000Y-2750000D01*
X51930000Y-2750000D01*
X52070000Y-2290000D01*
X52090000Y-1280000D01*
X52650000Y-780000D01*
X55470000Y-780000D01*
X56030000Y-1310000D01*
X56030000Y-4800000D01*
X55510000Y-5310000D01*
X52730000Y-5310000D01*
X52300000Y-5440000D01*
X52050000Y-5640000D01*
X51770000Y-5920000D01*
X51610000Y-6240000D01*
X51460000Y-6860000D01*
X51480000Y-7480000D01*
X51480000Y-7490000D01*
D11*
X47000000Y-7500000D02*
X47000000Y-7000000D01*
X51500000Y-2800000D02*
G75*
G03X52000000Y-2300000I0J500000D01*
G01*
X55500000Y-800000D02*
X52500000Y-800000D01*
X56000000Y-1300000D02*
X55500000Y-800000D01*
X55500000Y-5300000D02*
X53000000Y-5300000D01*
X47000000Y-3400000D02*
X47000000Y-2800000D01*
X56000000Y-4800000D02*
X55500000Y-5300000D01*
X47000000Y-2800000D02*
X51500000Y-2800000D01*
X52000000Y-2300000D02*
X52000000Y-1300000D01*
X52500000Y-800000D02*
X52000000Y-1300000D01*
X53000000Y-5300000D02*
G75*
G03X51500000Y-6800000I0J-1500000D01*
G01*
X51500000Y-7500000D02*
X47000000Y-7500000D01*
X51500000Y-6800000D02*
X51500000Y-7500000D01*
D10*
G36*
X33480000Y-63490000D02*
G01*
X29000000Y-63490000D01*
X29000000Y-58750000D01*
X33930000Y-58750000D01*
X34070000Y-58290000D01*
X34090000Y-57280000D01*
X34650000Y-56780000D01*
X37470000Y-56780000D01*
X38030000Y-57310000D01*
X38030000Y-60800000D01*
X37510000Y-61310000D01*
X34730000Y-61310000D01*
X34300000Y-61440000D01*
X34050000Y-61640000D01*
X33770000Y-61920000D01*
X33610000Y-62240000D01*
X33460000Y-62860000D01*
X33480000Y-63480000D01*
X33480000Y-63490000D01*
G37*
X33480000Y-63490000D02*
X29000000Y-63490000D01*
X29000000Y-58750000D01*
X33930000Y-58750000D01*
X34070000Y-58290000D01*
X34090000Y-57280000D01*
X34650000Y-56780000D01*
X37470000Y-56780000D01*
X38030000Y-57310000D01*
X38030000Y-60800000D01*
X37510000Y-61310000D01*
X34730000Y-61310000D01*
X34300000Y-61440000D01*
X34050000Y-61640000D01*
X33770000Y-61920000D01*
X33610000Y-62240000D01*
X33460000Y-62860000D01*
X33480000Y-63480000D01*
X33480000Y-63490000D01*
D11*
X29000000Y-63500000D02*
X29000000Y-63000000D01*
X33500000Y-58800000D02*
G75*
G03X34000000Y-58300000I0J500000D01*
G01*
X37500000Y-56800000D02*
X34500000Y-56800000D01*
X38000000Y-57300000D02*
X37500000Y-56800000D01*
X37500000Y-61300000D02*
X35000000Y-61300000D01*
X29000000Y-59400000D02*
X29000000Y-58800000D01*
X38000000Y-60800000D02*
X37500000Y-61300000D01*
X29000000Y-58800000D02*
X33500000Y-58800000D01*
X34000000Y-58300000D02*
X34000000Y-57300000D01*
X34500000Y-56800000D02*
X34000000Y-57300000D01*
X35000000Y-61300000D02*
G75*
G03X33500000Y-62800000I0J-1500000D01*
G01*
X33500000Y-63500000D02*
X29000000Y-63500000D01*
X33500000Y-62800000D02*
X33500000Y-63500000D01*
D10*
G36*
X33480000Y-46490000D02*
G01*
X29000000Y-46490000D01*
X29000000Y-41750000D01*
X33930000Y-41750000D01*
X34070000Y-41290000D01*
X34090000Y-40280000D01*
X34650000Y-39780000D01*
X37470000Y-39780000D01*
X38030000Y-40310000D01*
X38030000Y-43800000D01*
X37510000Y-44310000D01*
X34730000Y-44310000D01*
X34300000Y-44440000D01*
X34050000Y-44640000D01*
X33770000Y-44920000D01*
X33610000Y-45240000D01*
X33460000Y-45860000D01*
X33480000Y-46480000D01*
X33480000Y-46490000D01*
G37*
X33480000Y-46490000D02*
X29000000Y-46490000D01*
X29000000Y-41750000D01*
X33930000Y-41750000D01*
X34070000Y-41290000D01*
X34090000Y-40280000D01*
X34650000Y-39780000D01*
X37470000Y-39780000D01*
X38030000Y-40310000D01*
X38030000Y-43800000D01*
X37510000Y-44310000D01*
X34730000Y-44310000D01*
X34300000Y-44440000D01*
X34050000Y-44640000D01*
X33770000Y-44920000D01*
X33610000Y-45240000D01*
X33460000Y-45860000D01*
X33480000Y-46480000D01*
X33480000Y-46490000D01*
D11*
X29000000Y-46500000D02*
X29000000Y-46000000D01*
X33500000Y-41800000D02*
G75*
G03X34000000Y-41300000I0J500000D01*
G01*
X37500000Y-39800000D02*
X34500000Y-39800000D01*
X38000000Y-40300000D02*
X37500000Y-39800000D01*
X37500000Y-44300000D02*
X35000000Y-44300000D01*
X29000000Y-42400000D02*
X29000000Y-41800000D01*
X38000000Y-43800000D02*
X37500000Y-44300000D01*
X29000000Y-41800000D02*
X33500000Y-41800000D01*
X34000000Y-41300000D02*
X34000000Y-40300000D01*
X34500000Y-39800000D02*
X34000000Y-40300000D01*
X35000000Y-44300000D02*
G75*
G03X33500000Y-45800000I0J-1500000D01*
G01*
X33500000Y-46500000D02*
X29000000Y-46500000D01*
X33500000Y-45800000D02*
X33500000Y-46500000D01*
D10*
G36*
X33480000Y-29490000D02*
G01*
X29000000Y-29490000D01*
X29000000Y-24750000D01*
X33930000Y-24750000D01*
X34070000Y-24290000D01*
X34090000Y-23280000D01*
X34650000Y-22780000D01*
X37470000Y-22780000D01*
X38030000Y-23310000D01*
X38030000Y-26800000D01*
X37510000Y-27310000D01*
X34730000Y-27310000D01*
X34300000Y-27440000D01*
X34050000Y-27640000D01*
X33770000Y-27920000D01*
X33610000Y-28240000D01*
X33460000Y-28860000D01*
X33480000Y-29480000D01*
X33480000Y-29490000D01*
G37*
X33480000Y-29490000D02*
X29000000Y-29490000D01*
X29000000Y-24750000D01*
X33930000Y-24750000D01*
X34070000Y-24290000D01*
X34090000Y-23280000D01*
X34650000Y-22780000D01*
X37470000Y-22780000D01*
X38030000Y-23310000D01*
X38030000Y-26800000D01*
X37510000Y-27310000D01*
X34730000Y-27310000D01*
X34300000Y-27440000D01*
X34050000Y-27640000D01*
X33770000Y-27920000D01*
X33610000Y-28240000D01*
X33460000Y-28860000D01*
X33480000Y-29480000D01*
X33480000Y-29490000D01*
D11*
X29000000Y-29500000D02*
X29000000Y-29000000D01*
X33500000Y-24800000D02*
G75*
G03X34000000Y-24300000I0J500000D01*
G01*
X37500000Y-22800000D02*
X34500000Y-22800000D01*
X38000000Y-23300000D02*
X37500000Y-22800000D01*
X37500000Y-27300000D02*
X35000000Y-27300000D01*
X29000000Y-25400000D02*
X29000000Y-24800000D01*
X38000000Y-26800000D02*
X37500000Y-27300000D01*
X29000000Y-24800000D02*
X33500000Y-24800000D01*
X34000000Y-24300000D02*
X34000000Y-23300000D01*
X34500000Y-22800000D02*
X34000000Y-23300000D01*
X35000000Y-27300000D02*
G75*
G03X33500000Y-28800000I0J-1500000D01*
G01*
X33500000Y-29500000D02*
X29000000Y-29500000D01*
X33500000Y-28800000D02*
X33500000Y-29500000D01*
D10*
G36*
X33480000Y-12490000D02*
G01*
X29000000Y-12490000D01*
X29000000Y-7750000D01*
X33930000Y-7750000D01*
X34070000Y-7290000D01*
X34090000Y-6280000D01*
X34650000Y-5780000D01*
X37470000Y-5780000D01*
X38030000Y-6310000D01*
X38030000Y-9800000D01*
X37510000Y-10310000D01*
X34730000Y-10310000D01*
X34300000Y-10440000D01*
X34050000Y-10640000D01*
X33770000Y-10920000D01*
X33610000Y-11240000D01*
X33460000Y-11860000D01*
X33480000Y-12480000D01*
X33480000Y-12490000D01*
G37*
X33480000Y-12490000D02*
X29000000Y-12490000D01*
X29000000Y-7750000D01*
X33930000Y-7750000D01*
X34070000Y-7290000D01*
X34090000Y-6280000D01*
X34650000Y-5780000D01*
X37470000Y-5780000D01*
X38030000Y-6310000D01*
X38030000Y-9800000D01*
X37510000Y-10310000D01*
X34730000Y-10310000D01*
X34300000Y-10440000D01*
X34050000Y-10640000D01*
X33770000Y-10920000D01*
X33610000Y-11240000D01*
X33460000Y-11860000D01*
X33480000Y-12480000D01*
X33480000Y-12490000D01*
D11*
X29000000Y-12500000D02*
X29000000Y-12000000D01*
X33500000Y-7800000D02*
G75*
G03X34000000Y-7300000I0J500000D01*
G01*
X37500000Y-5800000D02*
X34500000Y-5800000D01*
X38000000Y-6300000D02*
X37500000Y-5800000D01*
X37500000Y-10300000D02*
X35000000Y-10300000D01*
X29000000Y-8400000D02*
X29000000Y-7800000D01*
X38000000Y-9800000D02*
X37500000Y-10300000D01*
X29000000Y-7800000D02*
X33500000Y-7800000D01*
X34000000Y-7300000D02*
X34000000Y-6300000D01*
X34500000Y-5800000D02*
X34000000Y-6300000D01*
X35000000Y-10300000D02*
G75*
G03X33500000Y-11800000I0J-1500000D01*
G01*
X33500000Y-12500000D02*
X29000000Y-12500000D01*
X33500000Y-11800000D02*
X33500000Y-12500000D01*
D10*
G36*
X15480000Y-66490000D02*
G01*
X11000000Y-66490000D01*
X11000000Y-61750000D01*
X15930000Y-61750000D01*
X16070000Y-61290000D01*
X16090000Y-60280000D01*
X16650000Y-59780000D01*
X19470000Y-59780000D01*
X20030000Y-60310000D01*
X20030000Y-63800000D01*
X19510000Y-64310000D01*
X16730000Y-64310000D01*
X16300000Y-64440000D01*
X16050000Y-64640000D01*
X15770000Y-64920000D01*
X15610000Y-65240000D01*
X15460000Y-65860000D01*
X15480000Y-66480000D01*
X15480000Y-66490000D01*
G37*
X15480000Y-66490000D02*
X11000000Y-66490000D01*
X11000000Y-61750000D01*
X15930000Y-61750000D01*
X16070000Y-61290000D01*
X16090000Y-60280000D01*
X16650000Y-59780000D01*
X19470000Y-59780000D01*
X20030000Y-60310000D01*
X20030000Y-63800000D01*
X19510000Y-64310000D01*
X16730000Y-64310000D01*
X16300000Y-64440000D01*
X16050000Y-64640000D01*
X15770000Y-64920000D01*
X15610000Y-65240000D01*
X15460000Y-65860000D01*
X15480000Y-66480000D01*
X15480000Y-66490000D01*
D11*
X11000000Y-66500000D02*
X11000000Y-66000000D01*
X15500000Y-61800000D02*
G75*
G03X16000000Y-61300000I0J500000D01*
G01*
X19500000Y-59800000D02*
X16500000Y-59800000D01*
X20000000Y-60300000D02*
X19500000Y-59800000D01*
X19500000Y-64300000D02*
X17000000Y-64300000D01*
X11000000Y-62400000D02*
X11000000Y-61800000D01*
X20000000Y-63800000D02*
X19500000Y-64300000D01*
X11000000Y-61800000D02*
X15500000Y-61800000D01*
X16000000Y-61300000D02*
X16000000Y-60300000D01*
X16500000Y-59800000D02*
X16000000Y-60300000D01*
X17000000Y-64300000D02*
G75*
G03X15500000Y-65800000I0J-1500000D01*
G01*
X15500000Y-66500000D02*
X11000000Y-66500000D01*
X15500000Y-65800000D02*
X15500000Y-66500000D01*
D10*
G36*
X15480000Y-49490000D02*
G01*
X11000000Y-49490000D01*
X11000000Y-44750000D01*
X15930000Y-44750000D01*
X16070000Y-44290000D01*
X16090000Y-43280000D01*
X16650000Y-42780000D01*
X19470000Y-42780000D01*
X20030000Y-43310000D01*
X20030000Y-46800000D01*
X19510000Y-47310000D01*
X16730000Y-47310000D01*
X16300000Y-47440000D01*
X16050000Y-47640000D01*
X15770000Y-47920000D01*
X15610000Y-48240000D01*
X15460000Y-48860000D01*
X15480000Y-49480000D01*
X15480000Y-49490000D01*
G37*
X15480000Y-49490000D02*
X11000000Y-49490000D01*
X11000000Y-44750000D01*
X15930000Y-44750000D01*
X16070000Y-44290000D01*
X16090000Y-43280000D01*
X16650000Y-42780000D01*
X19470000Y-42780000D01*
X20030000Y-43310000D01*
X20030000Y-46800000D01*
X19510000Y-47310000D01*
X16730000Y-47310000D01*
X16300000Y-47440000D01*
X16050000Y-47640000D01*
X15770000Y-47920000D01*
X15610000Y-48240000D01*
X15460000Y-48860000D01*
X15480000Y-49480000D01*
X15480000Y-49490000D01*
D11*
X11000000Y-49500000D02*
X11000000Y-49000000D01*
X15500000Y-44800000D02*
G75*
G03X16000000Y-44300000I0J500000D01*
G01*
X19500000Y-42800000D02*
X16500000Y-42800000D01*
X20000000Y-43300000D02*
X19500000Y-42800000D01*
X19500000Y-47300000D02*
X17000000Y-47300000D01*
X11000000Y-45400000D02*
X11000000Y-44800000D01*
X20000000Y-46800000D02*
X19500000Y-47300000D01*
X11000000Y-44800000D02*
X15500000Y-44800000D01*
X16000000Y-44300000D02*
X16000000Y-43300000D01*
X16500000Y-42800000D02*
X16000000Y-43300000D01*
X17000000Y-47300000D02*
G75*
G03X15500000Y-48800000I0J-1500000D01*
G01*
X15500000Y-49500000D02*
X11000000Y-49500000D01*
X15500000Y-48800000D02*
X15500000Y-49500000D01*
D10*
G36*
X15480000Y-32490000D02*
G01*
X11000000Y-32490000D01*
X11000000Y-27750000D01*
X15930000Y-27750000D01*
X16070000Y-27290000D01*
X16090000Y-26280000D01*
X16650000Y-25780000D01*
X19470000Y-25780000D01*
X20030000Y-26310000D01*
X20030000Y-29800000D01*
X19510000Y-30310000D01*
X16730000Y-30310000D01*
X16300000Y-30440000D01*
X16050000Y-30640000D01*
X15770000Y-30920000D01*
X15610000Y-31240000D01*
X15460000Y-31860000D01*
X15480000Y-32480000D01*
X15480000Y-32490000D01*
G37*
X15480000Y-32490000D02*
X11000000Y-32490000D01*
X11000000Y-27750000D01*
X15930000Y-27750000D01*
X16070000Y-27290000D01*
X16090000Y-26280000D01*
X16650000Y-25780000D01*
X19470000Y-25780000D01*
X20030000Y-26310000D01*
X20030000Y-29800000D01*
X19510000Y-30310000D01*
X16730000Y-30310000D01*
X16300000Y-30440000D01*
X16050000Y-30640000D01*
X15770000Y-30920000D01*
X15610000Y-31240000D01*
X15460000Y-31860000D01*
X15480000Y-32480000D01*
X15480000Y-32490000D01*
D11*
X11000000Y-32500000D02*
X11000000Y-32000000D01*
X15500000Y-27800000D02*
G75*
G03X16000000Y-27300000I0J500000D01*
G01*
X19500000Y-25800000D02*
X16500000Y-25800000D01*
X20000000Y-26300000D02*
X19500000Y-25800000D01*
X19500000Y-30300000D02*
X17000000Y-30300000D01*
X11000000Y-28400000D02*
X11000000Y-27800000D01*
X20000000Y-29800000D02*
X19500000Y-30300000D01*
X11000000Y-27800000D02*
X15500000Y-27800000D01*
X16000000Y-27300000D02*
X16000000Y-26300000D01*
X16500000Y-25800000D02*
X16000000Y-26300000D01*
X17000000Y-30300000D02*
G75*
G03X15500000Y-31800000I0J-1500000D01*
G01*
X15500000Y-32500000D02*
X11000000Y-32500000D01*
X15500000Y-31800000D02*
X15500000Y-32500000D01*
D10*
G36*
X15480000Y-15490000D02*
G01*
X11000000Y-15490000D01*
X11000000Y-10750000D01*
X15930000Y-10750000D01*
X16070000Y-10290000D01*
X16090000Y-9280000D01*
X16650000Y-8780000D01*
X19470000Y-8780000D01*
X20030000Y-9310000D01*
X20030000Y-12800000D01*
X19510000Y-13310000D01*
X16730000Y-13310000D01*
X16300000Y-13440000D01*
X16050000Y-13640000D01*
X15770000Y-13920000D01*
X15610000Y-14240000D01*
X15460000Y-14860000D01*
X15480000Y-15480000D01*
X15480000Y-15490000D01*
G37*
X15480000Y-15490000D02*
X11000000Y-15490000D01*
X11000000Y-10750000D01*
X15930000Y-10750000D01*
X16070000Y-10290000D01*
X16090000Y-9280000D01*
X16650000Y-8780000D01*
X19470000Y-8780000D01*
X20030000Y-9310000D01*
X20030000Y-12800000D01*
X19510000Y-13310000D01*
X16730000Y-13310000D01*
X16300000Y-13440000D01*
X16050000Y-13640000D01*
X15770000Y-13920000D01*
X15610000Y-14240000D01*
X15460000Y-14860000D01*
X15480000Y-15480000D01*
X15480000Y-15490000D01*
D11*
X11000000Y-15500000D02*
X11000000Y-15000000D01*
X15500000Y-10800000D02*
G75*
G03X16000000Y-10300000I0J500000D01*
G01*
X19500000Y-8800000D02*
X16500000Y-8800000D01*
X20000000Y-9300000D02*
X19500000Y-8800000D01*
X19500000Y-13300000D02*
X17000000Y-13300000D01*
X11000000Y-11400000D02*
X11000000Y-10800000D01*
X20000000Y-12800000D02*
X19500000Y-13300000D01*
X11000000Y-10800000D02*
X15500000Y-10800000D01*
X16000000Y-10300000D02*
X16000000Y-9300000D01*
X16500000Y-8800000D02*
X16000000Y-9300000D01*
X17000000Y-13300000D02*
G75*
G03X15500000Y-14800000I0J-1500000D01*
G01*
X15500000Y-15500000D02*
X11000000Y-15500000D01*
X15500000Y-14800000D02*
X15500000Y-15500000D01*
G36*
X113699568Y-23267360D02*
G01*
X113699568Y-23467360D01*
X113599568Y-23467360D01*
X113599568Y-23267360D01*
X113699568Y-23267360D01*
G37*
X113699568Y-23267360D02*
X113699568Y-23467360D01*
X113599568Y-23467360D01*
X113599568Y-23267360D01*
X113699568Y-23267360D01*
G36*
X113299568Y-22667360D02*
G01*
X113299568Y-23467360D01*
X113199568Y-23467360D01*
X113199568Y-22667360D01*
X113299568Y-22667360D01*
G37*
X113299568Y-22667360D02*
X113299568Y-23467360D01*
X113199568Y-23467360D01*
X113199568Y-22667360D01*
X113299568Y-22667360D01*
G36*
X113699568Y-22667360D02*
G01*
X113699568Y-22767360D01*
X113199568Y-22767360D01*
X113199568Y-22667360D01*
X113699568Y-22667360D01*
G37*
X113699568Y-22667360D02*
X113699568Y-22767360D01*
X113199568Y-22767360D01*
X113199568Y-22667360D01*
X113699568Y-22667360D01*
G36*
X113499568Y-23067360D02*
G01*
X113499568Y-23167360D01*
X113399568Y-23167360D01*
X113399568Y-23067360D01*
X113499568Y-23067360D01*
G37*
X113499568Y-23067360D02*
X113499568Y-23167360D01*
X113399568Y-23167360D01*
X113399568Y-23067360D01*
X113499568Y-23067360D01*
G36*
X113699568Y-22667360D02*
G01*
X113699568Y-22967360D01*
X113599568Y-22967360D01*
X113599568Y-22667360D01*
X113699568Y-22667360D01*
G37*
X113699568Y-22667360D02*
X113699568Y-22967360D01*
X113599568Y-22967360D01*
X113599568Y-22667360D01*
X113699568Y-22667360D01*
X111768000Y-50488000D02*
X111768000Y-49788000D01*
X111768000Y-46988000D02*
X111768000Y-47588000D01*
X105768000Y-46988000D02*
X105768000Y-47588000D01*
X105768000Y-50488000D02*
X105768000Y-49788000D01*
X111768000Y-46988000D02*
X105768000Y-46988000D01*
X105768000Y-50488000D02*
X111768000Y-50488000D01*
D12*
X74640000Y-23020000D02*
X69230000Y-23020000D01*
X74640000Y-21010000D02*
X74640000Y-23020000D01*
X69290000Y-20990000D02*
X74640000Y-20990000D01*
D10*
G36*
X69460000Y-20984000D02*
G01*
X69460000Y-23030000D01*
X68444000Y-23030000D01*
X68444000Y-20984000D01*
X68952000Y-20984000D01*
X69460000Y-20984000D01*
G37*
X69460000Y-20984000D02*
X69460000Y-23030000D01*
X68444000Y-23030000D01*
X68444000Y-20984000D01*
X68952000Y-20984000D01*
X69460000Y-20984000D01*
D12*
X109980000Y-60360000D02*
X109980000Y-65770000D01*
X111990000Y-60360000D02*
X109980000Y-60360000D01*
X112010000Y-65710000D02*
X112010000Y-60360000D01*
D10*
G36*
X112016000Y-65540000D02*
G01*
X109970000Y-65540000D01*
X109970000Y-66556000D01*
X112016000Y-66556000D01*
X112016000Y-66048000D01*
X112016000Y-65540000D01*
G37*
X112016000Y-65540000D02*
X109970000Y-65540000D01*
X109970000Y-66556000D01*
X112016000Y-66556000D01*
X112016000Y-66048000D01*
X112016000Y-65540000D01*
D12*
X92640000Y-73480000D02*
X87230000Y-73480000D01*
X92640000Y-75490000D02*
X92640000Y-73480000D01*
X87290000Y-75510000D02*
X92640000Y-75510000D01*
D10*
G36*
X87460000Y-75516000D02*
G01*
X87460000Y-73470000D01*
X86444000Y-73470000D01*
X86444000Y-75516000D01*
X86952000Y-75516000D01*
X87460000Y-75516000D01*
G37*
X87460000Y-75516000D02*
X87460000Y-73470000D01*
X86444000Y-73470000D01*
X86444000Y-75516000D01*
X86952000Y-75516000D01*
X87460000Y-75516000D01*
D12*
X92640000Y-59980000D02*
X87230000Y-59980000D01*
X92640000Y-61990000D02*
X92640000Y-59980000D01*
X87290000Y-62010000D02*
X92640000Y-62010000D01*
D10*
G36*
X87460000Y-62016000D02*
G01*
X87460000Y-59970000D01*
X86444000Y-59970000D01*
X86444000Y-62016000D01*
X86952000Y-62016000D01*
X87460000Y-62016000D01*
G37*
X87460000Y-62016000D02*
X87460000Y-59970000D01*
X86444000Y-59970000D01*
X86444000Y-62016000D01*
X86952000Y-62016000D01*
X87460000Y-62016000D01*
D12*
X92640000Y-42980000D02*
X87230000Y-42980000D01*
X92640000Y-44990000D02*
X92640000Y-42980000D01*
X87290000Y-45010000D02*
X92640000Y-45010000D01*
D10*
G36*
X87460000Y-45016000D02*
G01*
X87460000Y-42970000D01*
X86444000Y-42970000D01*
X86444000Y-45016000D01*
X86952000Y-45016000D01*
X87460000Y-45016000D01*
G37*
X87460000Y-45016000D02*
X87460000Y-42970000D01*
X86444000Y-42970000D01*
X86444000Y-45016000D01*
X86952000Y-45016000D01*
X87460000Y-45016000D01*
D12*
X92640000Y-25980000D02*
X87230000Y-25980000D01*
X92640000Y-27990000D02*
X92640000Y-25980000D01*
X87290000Y-28010000D02*
X92640000Y-28010000D01*
D10*
G36*
X87460000Y-28016000D02*
G01*
X87460000Y-25970000D01*
X86444000Y-25970000D01*
X86444000Y-28016000D01*
X86952000Y-28016000D01*
X87460000Y-28016000D01*
G37*
X87460000Y-28016000D02*
X87460000Y-25970000D01*
X86444000Y-25970000D01*
X86444000Y-28016000D01*
X86952000Y-28016000D01*
X87460000Y-28016000D01*
D12*
X74640000Y-68480000D02*
X69230000Y-68480000D01*
X74640000Y-70490000D02*
X74640000Y-68480000D01*
X69290000Y-70510000D02*
X74640000Y-70510000D01*
D10*
G36*
X69460000Y-70516000D02*
G01*
X69460000Y-68470000D01*
X68444000Y-68470000D01*
X68444000Y-70516000D01*
X68952000Y-70516000D01*
X69460000Y-70516000D01*
G37*
X69460000Y-70516000D02*
X69460000Y-68470000D01*
X68444000Y-68470000D01*
X68444000Y-70516000D01*
X68952000Y-70516000D01*
X69460000Y-70516000D01*
D12*
X74640000Y-54980000D02*
X69230000Y-54980000D01*
X74640000Y-56990000D02*
X74640000Y-54980000D01*
X69290000Y-57010000D02*
X74640000Y-57010000D01*
D10*
G36*
X69460000Y-57016000D02*
G01*
X69460000Y-54970000D01*
X68444000Y-54970000D01*
X68444000Y-57016000D01*
X68952000Y-57016000D01*
X69460000Y-57016000D01*
G37*
X69460000Y-57016000D02*
X69460000Y-54970000D01*
X68444000Y-54970000D01*
X68444000Y-57016000D01*
X68952000Y-57016000D01*
X69460000Y-57016000D01*
D12*
X74640000Y-37980000D02*
X69230000Y-37980000D01*
X74640000Y-39990000D02*
X74640000Y-37980000D01*
X69290000Y-40010000D02*
X74640000Y-40010000D01*
D10*
G36*
X69460000Y-40016000D02*
G01*
X69460000Y-37970000D01*
X68444000Y-37970000D01*
X68444000Y-40016000D01*
X68952000Y-40016000D01*
X69460000Y-40016000D01*
G37*
X69460000Y-40016000D02*
X69460000Y-37970000D01*
X68444000Y-37970000D01*
X68444000Y-40016000D01*
X68952000Y-40016000D01*
X69460000Y-40016000D01*
D12*
X56640000Y-62480000D02*
X51230000Y-62480000D01*
X56640000Y-64490000D02*
X56640000Y-62480000D01*
X51290000Y-64510000D02*
X56640000Y-64510000D01*
D10*
G36*
X51460000Y-64516000D02*
G01*
X51460000Y-62470000D01*
X50444000Y-62470000D01*
X50444000Y-64516000D01*
X50952000Y-64516000D01*
X51460000Y-64516000D01*
G37*
X51460000Y-64516000D02*
X51460000Y-62470000D01*
X50444000Y-62470000D01*
X50444000Y-64516000D01*
X50952000Y-64516000D01*
X51460000Y-64516000D01*
D12*
X56640000Y-48980000D02*
X51230000Y-48980000D01*
X56640000Y-50990000D02*
X56640000Y-48980000D01*
X51290000Y-51010000D02*
X56640000Y-51010000D01*
D10*
G36*
X51460000Y-51016000D02*
G01*
X51460000Y-48970000D01*
X50444000Y-48970000D01*
X50444000Y-51016000D01*
X50952000Y-51016000D01*
X51460000Y-51016000D01*
G37*
X51460000Y-51016000D02*
X51460000Y-48970000D01*
X50444000Y-48970000D01*
X50444000Y-51016000D01*
X50952000Y-51016000D01*
X51460000Y-51016000D01*
D12*
X56640000Y-31980000D02*
X51230000Y-31980000D01*
X56640000Y-33990000D02*
X56640000Y-31980000D01*
X51290000Y-34010000D02*
X56640000Y-34010000D01*
D10*
G36*
X51460000Y-34016000D02*
G01*
X51460000Y-31970000D01*
X50444000Y-31970000D01*
X50444000Y-34016000D01*
X50952000Y-34016000D01*
X51460000Y-34016000D01*
G37*
X51460000Y-34016000D02*
X51460000Y-31970000D01*
X50444000Y-31970000D01*
X50444000Y-34016000D01*
X50952000Y-34016000D01*
X51460000Y-34016000D01*
D12*
X56640000Y-14980000D02*
X51230000Y-14980000D01*
X56640000Y-16990000D02*
X56640000Y-14980000D01*
X51290000Y-17010000D02*
X56640000Y-17010000D01*
D10*
G36*
X51460000Y-17016000D02*
G01*
X51460000Y-14970000D01*
X50444000Y-14970000D01*
X50444000Y-17016000D01*
X50952000Y-17016000D01*
X51460000Y-17016000D01*
G37*
X51460000Y-17016000D02*
X51460000Y-14970000D01*
X50444000Y-14970000D01*
X50444000Y-17016000D01*
X50952000Y-17016000D01*
X51460000Y-17016000D01*
D12*
X38640000Y-67480000D02*
X33230000Y-67480000D01*
X38640000Y-69490000D02*
X38640000Y-67480000D01*
X33290000Y-69510000D02*
X38640000Y-69510000D01*
D10*
G36*
X33460000Y-69516000D02*
G01*
X33460000Y-67470000D01*
X32444000Y-67470000D01*
X32444000Y-69516000D01*
X32952000Y-69516000D01*
X33460000Y-69516000D01*
G37*
X33460000Y-69516000D02*
X33460000Y-67470000D01*
X32444000Y-67470000D01*
X32444000Y-69516000D01*
X32952000Y-69516000D01*
X33460000Y-69516000D01*
D12*
X38640000Y-53980000D02*
X33230000Y-53980000D01*
X38640000Y-55990000D02*
X38640000Y-53980000D01*
X33290000Y-56010000D02*
X38640000Y-56010000D01*
D10*
G36*
X33460000Y-56016000D02*
G01*
X33460000Y-53970000D01*
X32444000Y-53970000D01*
X32444000Y-56016000D01*
X32952000Y-56016000D01*
X33460000Y-56016000D01*
G37*
X33460000Y-56016000D02*
X33460000Y-53970000D01*
X32444000Y-53970000D01*
X32444000Y-56016000D01*
X32952000Y-56016000D01*
X33460000Y-56016000D01*
D12*
X38640000Y-36980000D02*
X33230000Y-36980000D01*
X38640000Y-38990000D02*
X38640000Y-36980000D01*
X33290000Y-39010000D02*
X38640000Y-39010000D01*
D10*
G36*
X33460000Y-39016000D02*
G01*
X33460000Y-36970000D01*
X32444000Y-36970000D01*
X32444000Y-39016000D01*
X32952000Y-39016000D01*
X33460000Y-39016000D01*
G37*
X33460000Y-39016000D02*
X33460000Y-36970000D01*
X32444000Y-36970000D01*
X32444000Y-39016000D01*
X32952000Y-39016000D01*
X33460000Y-39016000D01*
D12*
X38640000Y-19980000D02*
X33230000Y-19980000D01*
X38640000Y-21990000D02*
X38640000Y-19980000D01*
X33290000Y-22010000D02*
X38640000Y-22010000D01*
D10*
G36*
X33460000Y-22016000D02*
G01*
X33460000Y-19970000D01*
X32444000Y-19970000D01*
X32444000Y-22016000D01*
X32952000Y-22016000D01*
X33460000Y-22016000D01*
G37*
X33460000Y-22016000D02*
X33460000Y-19970000D01*
X32444000Y-19970000D01*
X32444000Y-22016000D01*
X32952000Y-22016000D01*
X33460000Y-22016000D01*
D12*
X20640000Y-70480000D02*
X15230000Y-70480000D01*
X20640000Y-72490000D02*
X20640000Y-70480000D01*
X15290000Y-72510000D02*
X20640000Y-72510000D01*
D10*
G36*
X15460000Y-72516000D02*
G01*
X15460000Y-70470000D01*
X14444000Y-70470000D01*
X14444000Y-72516000D01*
X14952000Y-72516000D01*
X15460000Y-72516000D01*
G37*
X15460000Y-72516000D02*
X15460000Y-70470000D01*
X14444000Y-70470000D01*
X14444000Y-72516000D01*
X14952000Y-72516000D01*
X15460000Y-72516000D01*
D12*
X20640000Y-56980000D02*
X15230000Y-56980000D01*
X20640000Y-58990000D02*
X20640000Y-56980000D01*
X15290000Y-59010000D02*
X20640000Y-59010000D01*
D10*
G36*
X15460000Y-59016000D02*
G01*
X15460000Y-56970000D01*
X14444000Y-56970000D01*
X14444000Y-59016000D01*
X14952000Y-59016000D01*
X15460000Y-59016000D01*
G37*
X15460000Y-59016000D02*
X15460000Y-56970000D01*
X14444000Y-56970000D01*
X14444000Y-59016000D01*
X14952000Y-59016000D01*
X15460000Y-59016000D01*
D12*
X20640000Y-39980000D02*
X15230000Y-39980000D01*
X20640000Y-41990000D02*
X20640000Y-39980000D01*
X15290000Y-42010000D02*
X20640000Y-42010000D01*
D10*
G36*
X15460000Y-42016000D02*
G01*
X15460000Y-39970000D01*
X14444000Y-39970000D01*
X14444000Y-42016000D01*
X14952000Y-42016000D01*
X15460000Y-42016000D01*
G37*
X15460000Y-42016000D02*
X15460000Y-39970000D01*
X14444000Y-39970000D01*
X14444000Y-42016000D01*
X14952000Y-42016000D01*
X15460000Y-42016000D01*
D12*
X20640000Y-22980000D02*
X15230000Y-22980000D01*
X20640000Y-24990000D02*
X20640000Y-22980000D01*
X15290000Y-25010000D02*
X20640000Y-25010000D01*
D10*
G36*
X15460000Y-25016000D02*
G01*
X15460000Y-22970000D01*
X14444000Y-22970000D01*
X14444000Y-25016000D01*
X14952000Y-25016000D01*
X15460000Y-25016000D01*
G37*
X15460000Y-25016000D02*
X15460000Y-22970000D01*
X14444000Y-22970000D01*
X14444000Y-25016000D01*
X14952000Y-25016000D01*
X15460000Y-25016000D01*
D13*
X107125142Y-40170857D02*
X107125142Y-38456571D01*
X110125142Y-39313714D02*
X107125142Y-39313714D01*
X107125142Y-36885142D02*
X107125142Y-36313714D01*
X107268000Y-36028000D01*
X107553714Y-35742285D01*
X108125142Y-35599428D01*
X109125142Y-35599428D01*
X109696571Y-35742285D01*
X109982285Y-36028000D01*
X110125142Y-36313714D01*
X110125142Y-36885142D01*
X109982285Y-37170857D01*
X109696571Y-37456571D01*
X109125142Y-37599428D01*
X108125142Y-37599428D01*
X107553714Y-37456571D01*
X107268000Y-37170857D01*
X107125142Y-36885142D01*
X110125142Y-34313714D02*
X107125142Y-34313714D01*
X107125142Y-33170857D01*
X107268000Y-32885142D01*
X107410857Y-32742285D01*
X107696571Y-32599428D01*
X108125142Y-32599428D01*
X108410857Y-32742285D01*
X108553714Y-32885142D01*
X108696571Y-33170857D01*
X108696571Y-34313714D01*
X107125142Y-29028000D02*
X109553714Y-29028000D01*
X109839428Y-28885142D01*
X109982285Y-28742285D01*
X110125142Y-28456571D01*
X110125142Y-27885142D01*
X109982285Y-27599428D01*
X109839428Y-27456571D01*
X109553714Y-27313714D01*
X107125142Y-27313714D01*
X110125142Y-25885142D02*
X107125142Y-25885142D01*
X107125142Y-24742285D01*
X107268000Y-24456571D01*
X107410857Y-24313714D01*
X107696571Y-24170857D01*
X108125142Y-24170857D01*
X108410857Y-24313714D01*
X108553714Y-24456571D01*
X108696571Y-24742285D01*
X108696571Y-25885142D01*
D11*
X103005651Y-17619904D02*
X103462794Y-17619904D01*
X103234223Y-18419904D02*
X103234223Y-17619904D01*
X103653270Y-17619904D02*
X104186604Y-18419904D01*
X104186604Y-17619904D02*
X103653270Y-18419904D01*
X104643747Y-17619904D02*
X104719937Y-17619904D01*
X104796128Y-17658000D01*
X104834223Y-17696095D01*
X104872318Y-17772285D01*
X104910413Y-17924666D01*
X104910413Y-18115142D01*
X104872318Y-18267523D01*
X104834223Y-18343714D01*
X104796128Y-18381809D01*
X104719937Y-18419904D01*
X104643747Y-18419904D01*
X104567556Y-18381809D01*
X104529461Y-18343714D01*
X104491366Y-18267523D01*
X104453270Y-18115142D01*
X104453270Y-17924666D01*
X104491366Y-17772285D01*
X104529461Y-17696095D01*
X104567556Y-17658000D01*
X104643747Y-17619904D01*
X105824699Y-17581809D02*
X105138985Y-18610380D01*
X106091366Y-18419904D02*
X106091366Y-17619904D01*
X106281842Y-17619904D01*
X106396128Y-17658000D01*
X106472318Y-17734190D01*
X106510413Y-17810380D01*
X106548508Y-17962761D01*
X106548508Y-18077047D01*
X106510413Y-18229428D01*
X106472318Y-18305619D01*
X106396128Y-18381809D01*
X106281842Y-18419904D01*
X106091366Y-18419904D01*
X106815175Y-17619904D02*
X107310413Y-17619904D01*
X107043747Y-17924666D01*
X107158032Y-17924666D01*
X107234223Y-17962761D01*
X107272318Y-18000857D01*
X107310413Y-18077047D01*
X107310413Y-18267523D01*
X107272318Y-18343714D01*
X107234223Y-18381809D01*
X107158032Y-18419904D01*
X106929461Y-18419904D01*
X106853270Y-18381809D01*
X106815175Y-18343714D01*
X102716523Y-20959904D02*
X102716523Y-20159904D01*
X102907000Y-20159904D01*
X103021285Y-20198000D01*
X103097476Y-20274190D01*
X103135571Y-20350380D01*
X103173666Y-20502761D01*
X103173666Y-20617047D01*
X103135571Y-20769428D01*
X103097476Y-20845619D01*
X103021285Y-20921809D01*
X102907000Y-20959904D01*
X102716523Y-20959904D01*
X103478428Y-20236095D02*
X103516523Y-20198000D01*
X103592714Y-20159904D01*
X103783190Y-20159904D01*
X103859380Y-20198000D01*
X103897476Y-20236095D01*
X103935571Y-20312285D01*
X103935571Y-20388476D01*
X103897476Y-20502761D01*
X103440333Y-20959904D01*
X103935571Y-20959904D01*
X102716523Y-31119904D02*
X102716523Y-30319904D01*
X102907000Y-30319904D01*
X103021285Y-30358000D01*
X103097476Y-30434190D01*
X103135571Y-30510380D01*
X103173666Y-30662761D01*
X103173666Y-30777047D01*
X103135571Y-30929428D01*
X103097476Y-31005619D01*
X103021285Y-31081809D01*
X102907000Y-31119904D01*
X102716523Y-31119904D01*
X103668904Y-30319904D02*
X103745095Y-30319904D01*
X103821285Y-30358000D01*
X103859380Y-30396095D01*
X103897476Y-30472285D01*
X103935571Y-30624666D01*
X103935571Y-30815142D01*
X103897476Y-30967523D01*
X103859380Y-31043714D01*
X103821285Y-31081809D01*
X103745095Y-31119904D01*
X103668904Y-31119904D01*
X103592714Y-31081809D01*
X103554619Y-31043714D01*
X103516523Y-30967523D01*
X103478428Y-30815142D01*
X103478428Y-30624666D01*
X103516523Y-30472285D01*
X103554619Y-30396095D01*
X103592714Y-30358000D01*
X103668904Y-30319904D01*
X102716523Y-28579904D02*
X102716523Y-27779904D01*
X102907000Y-27779904D01*
X103021285Y-27818000D01*
X103097476Y-27894190D01*
X103135571Y-27970380D01*
X103173666Y-28122761D01*
X103173666Y-28237047D01*
X103135571Y-28389428D01*
X103097476Y-28465619D01*
X103021285Y-28541809D01*
X102907000Y-28579904D01*
X102716523Y-28579904D01*
X103935571Y-28579904D02*
X103478428Y-28579904D01*
X103707000Y-28579904D02*
X103707000Y-27779904D01*
X103630809Y-27894190D01*
X103554619Y-27970380D01*
X103478428Y-28008476D01*
X102697476Y-25278000D02*
X102621285Y-25239904D01*
X102507000Y-25239904D01*
X102392714Y-25278000D01*
X102316523Y-25354190D01*
X102278428Y-25430380D01*
X102240333Y-25582761D01*
X102240333Y-25697047D01*
X102278428Y-25849428D01*
X102316523Y-25925619D01*
X102392714Y-26001809D01*
X102507000Y-26039904D01*
X102583190Y-26039904D01*
X102697476Y-26001809D01*
X102735571Y-25963714D01*
X102735571Y-25697047D01*
X102583190Y-25697047D01*
X103078428Y-26039904D02*
X103078428Y-25239904D01*
X103535571Y-26039904D01*
X103535571Y-25239904D01*
X103916523Y-26039904D02*
X103916523Y-25239904D01*
X104107000Y-25239904D01*
X104221285Y-25278000D01*
X104297476Y-25354190D01*
X104335571Y-25430380D01*
X104373666Y-25582761D01*
X104373666Y-25697047D01*
X104335571Y-25849428D01*
X104297476Y-25925619D01*
X104221285Y-26001809D01*
X104107000Y-26039904D01*
X103916523Y-26039904D01*
X102697476Y-22738000D02*
X102621285Y-22699904D01*
X102507000Y-22699904D01*
X102392714Y-22738000D01*
X102316523Y-22814190D01*
X102278428Y-22890380D01*
X102240333Y-23042761D01*
X102240333Y-23157047D01*
X102278428Y-23309428D01*
X102316523Y-23385619D01*
X102392714Y-23461809D01*
X102507000Y-23499904D01*
X102583190Y-23499904D01*
X102697476Y-23461809D01*
X102735571Y-23423714D01*
X102735571Y-23157047D01*
X102583190Y-23157047D01*
X103078428Y-23499904D02*
X103078428Y-22699904D01*
X103535571Y-23499904D01*
X103535571Y-22699904D01*
X103916523Y-23499904D02*
X103916523Y-22699904D01*
X104107000Y-22699904D01*
X104221285Y-22738000D01*
X104297476Y-22814190D01*
X104335571Y-22890380D01*
X104373666Y-23042761D01*
X104373666Y-23157047D01*
X104335571Y-23309428D01*
X104297476Y-23385619D01*
X104221285Y-23461809D01*
X104107000Y-23499904D01*
X103916523Y-23499904D01*
X102716523Y-33659904D02*
X102716523Y-32859904D01*
X102907000Y-32859904D01*
X103021285Y-32898000D01*
X103097476Y-32974190D01*
X103135571Y-33050380D01*
X103173666Y-33202761D01*
X103173666Y-33317047D01*
X103135571Y-33469428D01*
X103097476Y-33545619D01*
X103021285Y-33621809D01*
X102907000Y-33659904D01*
X102716523Y-33659904D01*
X103859380Y-33126571D02*
X103859380Y-33659904D01*
X103668904Y-32821809D02*
X103478428Y-33393238D01*
X103973666Y-33393238D01*
X103173666Y-36123714D02*
X103135571Y-36161809D01*
X103021285Y-36199904D01*
X102945095Y-36199904D01*
X102830809Y-36161809D01*
X102754619Y-36085619D01*
X102716523Y-36009428D01*
X102678428Y-35857047D01*
X102678428Y-35742761D01*
X102716523Y-35590380D01*
X102754619Y-35514190D01*
X102830809Y-35438000D01*
X102945095Y-35399904D01*
X103021285Y-35399904D01*
X103135571Y-35438000D01*
X103173666Y-35476095D01*
X103859380Y-35399904D02*
X103707000Y-35399904D01*
X103630809Y-35438000D01*
X103592714Y-35476095D01*
X103516523Y-35590380D01*
X103478428Y-35742761D01*
X103478428Y-36047523D01*
X103516523Y-36123714D01*
X103554619Y-36161809D01*
X103630809Y-36199904D01*
X103783190Y-36199904D01*
X103859380Y-36161809D01*
X103897476Y-36123714D01*
X103935571Y-36047523D01*
X103935571Y-35857047D01*
X103897476Y-35780857D01*
X103859380Y-35742761D01*
X103783190Y-35704666D01*
X103630809Y-35704666D01*
X103554619Y-35742761D01*
X103516523Y-35780857D01*
X103478428Y-35857047D01*
X102716523Y-38739904D02*
X102716523Y-37939904D01*
X102907000Y-37939904D01*
X103021285Y-37978000D01*
X103097476Y-38054190D01*
X103135571Y-38130380D01*
X103173666Y-38282761D01*
X103173666Y-38397047D01*
X103135571Y-38549428D01*
X103097476Y-38625619D01*
X103021285Y-38701809D01*
X102907000Y-38739904D01*
X102716523Y-38739904D01*
X103440333Y-37939904D02*
X103973666Y-37939904D01*
X103630809Y-38739904D01*
X102754619Y-40860857D02*
X103021285Y-40860857D01*
X103135571Y-41279904D02*
X102754619Y-41279904D01*
X102754619Y-40479904D01*
X103135571Y-40479904D01*
X103821285Y-40479904D02*
X103668904Y-40479904D01*
X103592714Y-40518000D01*
X103554619Y-40556095D01*
X103478428Y-40670380D01*
X103440333Y-40822761D01*
X103440333Y-41127523D01*
X103478428Y-41203714D01*
X103516523Y-41241809D01*
X103592714Y-41279904D01*
X103745095Y-41279904D01*
X103821285Y-41241809D01*
X103859380Y-41203714D01*
X103897476Y-41127523D01*
X103897476Y-40937047D01*
X103859380Y-40860857D01*
X103821285Y-40822761D01*
X103745095Y-40784666D01*
X103592714Y-40784666D01*
X103516523Y-40822761D01*
X103478428Y-40860857D01*
X103440333Y-40937047D01*
X102983190Y-43400857D02*
X103097476Y-43438952D01*
X103135571Y-43477047D01*
X103173666Y-43553238D01*
X103173666Y-43667523D01*
X103135571Y-43743714D01*
X103097476Y-43781809D01*
X103021285Y-43819904D01*
X102716523Y-43819904D01*
X102716523Y-43019904D01*
X102983190Y-43019904D01*
X103059380Y-43058000D01*
X103097476Y-43096095D01*
X103135571Y-43172285D01*
X103135571Y-43248476D01*
X103097476Y-43324666D01*
X103059380Y-43362761D01*
X102983190Y-43400857D01*
X102716523Y-43400857D01*
X103859380Y-43286571D02*
X103859380Y-43819904D01*
X103668904Y-42981809D02*
X103478428Y-43553238D01*
X103973666Y-43553238D01*
X102983190Y-45940857D02*
X103097476Y-45978952D01*
X103135571Y-46017047D01*
X103173666Y-46093238D01*
X103173666Y-46207523D01*
X103135571Y-46283714D01*
X103097476Y-46321809D01*
X103021285Y-46359904D01*
X102716523Y-46359904D01*
X102716523Y-45559904D01*
X102983190Y-45559904D01*
X103059380Y-45598000D01*
X103097476Y-45636095D01*
X103135571Y-45712285D01*
X103135571Y-45788476D01*
X103097476Y-45864666D01*
X103059380Y-45902761D01*
X102983190Y-45940857D01*
X102716523Y-45940857D01*
X103897476Y-45559904D02*
X103516523Y-45559904D01*
X103478428Y-45940857D01*
X103516523Y-45902761D01*
X103592714Y-45864666D01*
X103783190Y-45864666D01*
X103859380Y-45902761D01*
X103897476Y-45940857D01*
X103935571Y-46017047D01*
X103935571Y-46207523D01*
X103897476Y-46283714D01*
X103859380Y-46321809D01*
X103783190Y-46359904D01*
X103592714Y-46359904D01*
X103516523Y-46321809D01*
X103478428Y-46283714D01*
X113905190Y-45940857D02*
X114019476Y-45978952D01*
X114057571Y-46017047D01*
X114095666Y-46093238D01*
X114095666Y-46207523D01*
X114057571Y-46283714D01*
X114019476Y-46321809D01*
X113943285Y-46359904D01*
X113638523Y-46359904D01*
X113638523Y-45559904D01*
X113905190Y-45559904D01*
X113981380Y-45598000D01*
X114019476Y-45636095D01*
X114057571Y-45712285D01*
X114057571Y-45788476D01*
X114019476Y-45864666D01*
X113981380Y-45902761D01*
X113905190Y-45940857D01*
X113638523Y-45940857D01*
X114781380Y-45559904D02*
X114629000Y-45559904D01*
X114552809Y-45598000D01*
X114514714Y-45636095D01*
X114438523Y-45750380D01*
X114400428Y-45902761D01*
X114400428Y-46207523D01*
X114438523Y-46283714D01*
X114476619Y-46321809D01*
X114552809Y-46359904D01*
X114705190Y-46359904D01*
X114781380Y-46321809D01*
X114819476Y-46283714D01*
X114857571Y-46207523D01*
X114857571Y-46017047D01*
X114819476Y-45940857D01*
X114781380Y-45902761D01*
X114705190Y-45864666D01*
X114552809Y-45864666D01*
X114476619Y-45902761D01*
X114438523Y-45940857D01*
X114400428Y-46017047D01*
X113905190Y-40860857D02*
X114019476Y-40898952D01*
X114057571Y-40937047D01*
X114095666Y-41013238D01*
X114095666Y-41127523D01*
X114057571Y-41203714D01*
X114019476Y-41241809D01*
X113943285Y-41279904D01*
X113638523Y-41279904D01*
X113638523Y-40479904D01*
X113905190Y-40479904D01*
X113981380Y-40518000D01*
X114019476Y-40556095D01*
X114057571Y-40632285D01*
X114057571Y-40708476D01*
X114019476Y-40784666D01*
X113981380Y-40822761D01*
X113905190Y-40860857D01*
X113638523Y-40860857D01*
X114362333Y-40479904D02*
X114857571Y-40479904D01*
X114590904Y-40784666D01*
X114705190Y-40784666D01*
X114781380Y-40822761D01*
X114819476Y-40860857D01*
X114857571Y-40937047D01*
X114857571Y-41127523D01*
X114819476Y-41203714D01*
X114781380Y-41241809D01*
X114705190Y-41279904D01*
X114476619Y-41279904D01*
X114400428Y-41241809D01*
X114362333Y-41203714D01*
X113905190Y-38320857D02*
X114019476Y-38358952D01*
X114057571Y-38397047D01*
X114095666Y-38473238D01*
X114095666Y-38587523D01*
X114057571Y-38663714D01*
X114019476Y-38701809D01*
X113943285Y-38739904D01*
X113638523Y-38739904D01*
X113638523Y-37939904D01*
X113905190Y-37939904D01*
X113981380Y-37978000D01*
X114019476Y-38016095D01*
X114057571Y-38092285D01*
X114057571Y-38168476D01*
X114019476Y-38244666D01*
X113981380Y-38282761D01*
X113905190Y-38320857D01*
X113638523Y-38320857D01*
X114857571Y-38739904D02*
X114400428Y-38739904D01*
X114629000Y-38739904D02*
X114629000Y-37939904D01*
X114552809Y-38054190D01*
X114476619Y-38130380D01*
X114400428Y-38168476D01*
X113962333Y-28160857D02*
X113695666Y-28160857D01*
X113695666Y-28579904D02*
X113695666Y-27779904D01*
X114076619Y-27779904D01*
X114724238Y-28046571D02*
X114724238Y-28579904D01*
X114533761Y-27741809D02*
X114343285Y-28313238D01*
X114838523Y-28313238D01*
X113162333Y-25239904D02*
X113429000Y-26039904D01*
X113695666Y-25239904D01*
X114419476Y-25963714D02*
X114381380Y-26001809D01*
X114267095Y-26039904D01*
X114190904Y-26039904D01*
X114076619Y-26001809D01*
X114000428Y-25925619D01*
X113962333Y-25849428D01*
X113924238Y-25697047D01*
X113924238Y-25582761D01*
X113962333Y-25430380D01*
X114000428Y-25354190D01*
X114076619Y-25278000D01*
X114190904Y-25239904D01*
X114267095Y-25239904D01*
X114381380Y-25278000D01*
X114419476Y-25316095D01*
X115219476Y-25963714D02*
X115181380Y-26001809D01*
X115067095Y-26039904D01*
X114990904Y-26039904D01*
X114876619Y-26001809D01*
X114800428Y-25925619D01*
X114762333Y-25849428D01*
X114724238Y-25697047D01*
X114724238Y-25582761D01*
X114762333Y-25430380D01*
X114800428Y-25354190D01*
X114876619Y-25278000D01*
X114990904Y-25239904D01*
X115067095Y-25239904D01*
X115181380Y-25278000D01*
X115219476Y-25316095D01*
X113967786Y-23431809D02*
X114082072Y-23469904D01*
X114272548Y-23469904D01*
X114348739Y-23431809D01*
X114386834Y-23393714D01*
X114424929Y-23317523D01*
X114424929Y-23241333D01*
X114386834Y-23165142D01*
X114348739Y-23127047D01*
X114272548Y-23088952D01*
X114120167Y-23050857D01*
X114043977Y-23012761D01*
X114005881Y-22974666D01*
X113967786Y-22898476D01*
X113967786Y-22822285D01*
X114005881Y-22746095D01*
X114043977Y-22708000D01*
X114120167Y-22669904D01*
X114310643Y-22669904D01*
X114424929Y-22708000D01*
X114653500Y-22669904D02*
X115110643Y-22669904D01*
X114882072Y-23469904D02*
X114882072Y-22669904D01*
X113619476Y-20198000D02*
X113543285Y-20159904D01*
X113429000Y-20159904D01*
X113314714Y-20198000D01*
X113238523Y-20274190D01*
X113200428Y-20350380D01*
X113162333Y-20502761D01*
X113162333Y-20617047D01*
X113200428Y-20769428D01*
X113238523Y-20845619D01*
X113314714Y-20921809D01*
X113429000Y-20959904D01*
X113505190Y-20959904D01*
X113619476Y-20921809D01*
X113657571Y-20883714D01*
X113657571Y-20617047D01*
X113505190Y-20617047D01*
X114000428Y-20959904D02*
X114000428Y-20159904D01*
X114457571Y-20959904D01*
X114457571Y-20159904D01*
X114838523Y-20959904D02*
X114838523Y-20159904D01*
X115029000Y-20159904D01*
X115143285Y-20198000D01*
X115219476Y-20274190D01*
X115257571Y-20350380D01*
X115295666Y-20502761D01*
X115295666Y-20617047D01*
X115257571Y-20769428D01*
X115219476Y-20845619D01*
X115143285Y-20921809D01*
X115029000Y-20959904D01*
X114838523Y-20959904D01*
X113676619Y-18419904D02*
X113409952Y-18038952D01*
X113219476Y-18419904D02*
X113219476Y-17619904D01*
X113524238Y-17619904D01*
X113600428Y-17658000D01*
X113638523Y-17696095D01*
X113676619Y-17772285D01*
X113676619Y-17886571D01*
X113638523Y-17962761D01*
X113600428Y-18000857D01*
X113524238Y-18038952D01*
X113219476Y-18038952D01*
X113981380Y-18191333D02*
X114362333Y-18191333D01*
X113905190Y-18419904D02*
X114171857Y-17619904D01*
X114438523Y-18419904D01*
X114629000Y-17619904D02*
X114819476Y-18419904D01*
X114971857Y-17848476D01*
X115124238Y-18419904D01*
X115314714Y-17619904D01*
X113962333Y-30700857D02*
X113695666Y-30700857D01*
X113695666Y-31119904D02*
X113695666Y-30319904D01*
X114076619Y-30319904D01*
X114762333Y-30319904D02*
X114381380Y-30319904D01*
X114343285Y-30700857D01*
X114381380Y-30662761D01*
X114457571Y-30624666D01*
X114648047Y-30624666D01*
X114724238Y-30662761D01*
X114762333Y-30700857D01*
X114800428Y-30777047D01*
X114800428Y-30967523D01*
X114762333Y-31043714D01*
X114724238Y-31081809D01*
X114648047Y-31119904D01*
X114457571Y-31119904D01*
X114381380Y-31081809D01*
X114343285Y-31043714D01*
X113962333Y-33240857D02*
X113695666Y-33240857D01*
X113695666Y-33659904D02*
X113695666Y-32859904D01*
X114076619Y-32859904D01*
X114724238Y-32859904D02*
X114571857Y-32859904D01*
X114495666Y-32898000D01*
X114457571Y-32936095D01*
X114381380Y-33050380D01*
X114343285Y-33202761D01*
X114343285Y-33507523D01*
X114381380Y-33583714D01*
X114419476Y-33621809D01*
X114495666Y-33659904D01*
X114648047Y-33659904D01*
X114724238Y-33621809D01*
X114762333Y-33583714D01*
X114800428Y-33507523D01*
X114800428Y-33317047D01*
X114762333Y-33240857D01*
X114724238Y-33202761D01*
X114648047Y-33164666D01*
X114495666Y-33164666D01*
X114419476Y-33202761D01*
X114381380Y-33240857D01*
X114343285Y-33317047D01*
X113962333Y-35780857D02*
X113695666Y-35780857D01*
X113695666Y-36199904D02*
X113695666Y-35399904D01*
X114076619Y-35399904D01*
X114305190Y-35399904D02*
X114838523Y-35399904D01*
X114495666Y-36199904D01*
X113905190Y-43400857D02*
X114019476Y-43438952D01*
X114057571Y-43477047D01*
X114095666Y-43553238D01*
X114095666Y-43667523D01*
X114057571Y-43743714D01*
X114019476Y-43781809D01*
X113943285Y-43819904D01*
X113638523Y-43819904D01*
X113638523Y-43019904D01*
X113905190Y-43019904D01*
X113981380Y-43058000D01*
X114019476Y-43096095D01*
X114057571Y-43172285D01*
X114057571Y-43248476D01*
X114019476Y-43324666D01*
X113981380Y-43362761D01*
X113905190Y-43400857D01*
X113638523Y-43400857D01*
X114400428Y-43096095D02*
X114438523Y-43058000D01*
X114514714Y-43019904D01*
X114705190Y-43019904D01*
X114781380Y-43058000D01*
X114819476Y-43096095D01*
X114857571Y-43172285D01*
X114857571Y-43248476D01*
X114819476Y-43362761D01*
X114362333Y-43819904D01*
X114857571Y-43819904D01*
X107606095Y-49049904D02*
X107339428Y-48668952D01*
X107148952Y-49049904D02*
X107148952Y-48249904D01*
X107453714Y-48249904D01*
X107529904Y-48288000D01*
X107568000Y-48326095D01*
X107606095Y-48402285D01*
X107606095Y-48516571D01*
X107568000Y-48592761D01*
X107529904Y-48630857D01*
X107453714Y-48668952D01*
X107148952Y-48668952D01*
X107948952Y-48630857D02*
X108215619Y-48630857D01*
X108329904Y-49049904D02*
X107948952Y-49049904D01*
X107948952Y-48249904D01*
X108329904Y-48249904D01*
X108634666Y-49011809D02*
X108748952Y-49049904D01*
X108939428Y-49049904D01*
X109015619Y-49011809D01*
X109053714Y-48973714D01*
X109091809Y-48897523D01*
X109091809Y-48821333D01*
X109053714Y-48745142D01*
X109015619Y-48707047D01*
X108939428Y-48668952D01*
X108787047Y-48630857D01*
X108710857Y-48592761D01*
X108672761Y-48554666D01*
X108634666Y-48478476D01*
X108634666Y-48402285D01*
X108672761Y-48326095D01*
X108710857Y-48288000D01*
X108787047Y-48249904D01*
X108977523Y-48249904D01*
X109091809Y-48288000D01*
X109434666Y-48630857D02*
X109701333Y-48630857D01*
X109815619Y-49049904D02*
X109434666Y-49049904D01*
X109434666Y-48249904D01*
X109815619Y-48249904D01*
X110044190Y-48249904D02*
X110501333Y-48249904D01*
X110272761Y-49049904D02*
X110272761Y-48249904D01*
M02*
