G04 #@! TF.GenerationSoftware,KiCad,Pcbnew,(5.1.4)-1*
G04 #@! TF.CreationDate,2021-09-26T17:53:05-04:00*
G04 #@! TF.ProjectId,splitreus,73706c69-7472-4657-9573-2e6b69636164,1*
G04 #@! TF.SameCoordinates,Original*
G04 #@! TF.FileFunction,Copper,L2,Bot*
G04 #@! TF.FilePolarity,Positive*
%FSLAX46Y46*%
G04 Gerber Fmt 4.6, Leading zero omitted, Abs format (unit mm)*
G04 Created by KiCad (PCBNEW (5.1.4)-1) date 2021-09-26 17:53:05*
%MOMM*%
%LPD*%
G04 APERTURE LIST*
%ADD10R,0.600000X1.000000*%
%ADD11R,1.000000X0.600000*%
%ADD12R,1.100000X0.600000*%
%ADD13C,1.500000*%
%ADD14C,1.752600*%
%ADD15R,1.752600X1.752600*%
%ADD16R,1.250000X1.250000*%
%ADD17R,2.500000X2.550000*%
%ADD18R,2.550000X2.500000*%
%ADD19R,1.000000X2.500000*%
%ADD20R,2.500000X1.000000*%
%ADD21O,1.700000X1.700000*%
%ADD22R,1.700000X1.700000*%
%ADD23C,2.000000*%
%ADD24R,2.100000X1.000000*%
%ADD25R,0.500000X2.900000*%
%ADD26R,1.600000X1.600000*%
%ADD27C,1.600000*%
%ADD28R,1.200000X1.600000*%
%ADD29R,2.900000X0.500000*%
%ADD30R,1.600000X1.200000*%
%ADD31C,0.800000*%
%ADD32C,0.250000*%
G04 APERTURE END LIST*
D10*
X93050000Y5502000D03*
D11*
X98850000Y6209000D03*
D12*
X98850000Y8495000D03*
X91650000Y6209000D03*
D10*
X95950000Y5502000D03*
X97450000Y5502000D03*
D11*
X91650000Y8495000D03*
D13*
X107798000Y-15658000D03*
X123038000Y-15778000D03*
D14*
X123038000Y-18158000D03*
X107798000Y-46098000D03*
X123038000Y-20698000D03*
X123038000Y-23238000D03*
X123038000Y-25778000D03*
X123038000Y-28318000D03*
X123038000Y-30858000D03*
X123038000Y-33398000D03*
X123038000Y-35938000D03*
X123038000Y-38478000D03*
X123038000Y-41018000D03*
X123038000Y-43558000D03*
X123038000Y-46098000D03*
X107798000Y-43558000D03*
X107798000Y-41018000D03*
X107798000Y-38478000D03*
X107798000Y-35938000D03*
X107798000Y-33398000D03*
X107798000Y-30858000D03*
X107798000Y-28318000D03*
X107798000Y-25778000D03*
X107798000Y-23238000D03*
X107798000Y-20698000D03*
D15*
X107798000Y-18158000D03*
D16*
X116600000Y-79200000D03*
X116530000Y-62800000D03*
X119000000Y-77850000D03*
X119080000Y-64070000D03*
D17*
X119080000Y-77290000D03*
X116540000Y-63440000D03*
D16*
X103450000Y-57550000D03*
X87050000Y-57620000D03*
X102100000Y-55150000D03*
X88320000Y-55070000D03*
D18*
X101540000Y-55070000D03*
X87690000Y-57610000D03*
D16*
X103450000Y-38500000D03*
X87050000Y-38570000D03*
X102100000Y-36100000D03*
X88320000Y-36020000D03*
D18*
X101540000Y-36020000D03*
X87690000Y-38560000D03*
D16*
X103450000Y-19450000D03*
X87050000Y-19520000D03*
X102100000Y-17050000D03*
X88320000Y-16970000D03*
D18*
X101540000Y-16970000D03*
X87690000Y-19510000D03*
D16*
X103450000Y-400000D03*
X87050000Y-470000D03*
X102100000Y2000000D03*
X88320000Y2080000D03*
D18*
X101540000Y2080000D03*
X87690000Y-460000D03*
D16*
X84400000Y-71600000D03*
X68000000Y-71670000D03*
X83050000Y-69200000D03*
X69270000Y-69120000D03*
D18*
X82490000Y-69120000D03*
X68640000Y-71660000D03*
D16*
X84400000Y-52550000D03*
X68000000Y-52620000D03*
X83050000Y-50150000D03*
X69270000Y-50070000D03*
D18*
X82490000Y-50070000D03*
X68640000Y-52610000D03*
D16*
X84400000Y-33500000D03*
X68000000Y-33570000D03*
X83050000Y-31100000D03*
X69270000Y-31020000D03*
D18*
X82490000Y-31020000D03*
X68640000Y-33560000D03*
D16*
X84400000Y-14450000D03*
X68000000Y-14520000D03*
X83050000Y-12050000D03*
X69270000Y-11970000D03*
D18*
X82490000Y-11970000D03*
X68640000Y-14510000D03*
D16*
X84400000Y4600000D03*
X68000000Y4530000D03*
X83050000Y7000000D03*
X69270000Y7080000D03*
D18*
X82490000Y7080000D03*
X68640000Y4540000D03*
D16*
X65350000Y-65600000D03*
X48950000Y-65670000D03*
X64000000Y-63200000D03*
X50220000Y-63120000D03*
D18*
X63440000Y-63120000D03*
X49590000Y-65660000D03*
D16*
X65350000Y-46550000D03*
X48950000Y-46620000D03*
X64000000Y-44150000D03*
X50220000Y-44070000D03*
D18*
X63440000Y-44070000D03*
X49590000Y-46610000D03*
D16*
X65350000Y-27500000D03*
X48950000Y-27570000D03*
X64000000Y-25100000D03*
X50220000Y-25020000D03*
D18*
X63440000Y-25020000D03*
X49590000Y-27560000D03*
D16*
X65350000Y-8450000D03*
X48950000Y-8520000D03*
X64000000Y-6050000D03*
X50220000Y-5970000D03*
D18*
X63440000Y-5970000D03*
X49590000Y-8510000D03*
D16*
X65350000Y10600000D03*
X48950000Y10530000D03*
X64000000Y13000000D03*
X50220000Y13080000D03*
D18*
X63440000Y13080000D03*
X49590000Y10540000D03*
D16*
X46300000Y-70600000D03*
X29900000Y-70670000D03*
X44950000Y-68200000D03*
X31170000Y-68120000D03*
D18*
X44390000Y-68120000D03*
X30540000Y-70660000D03*
D16*
X46300000Y-51550000D03*
X29900000Y-51620000D03*
X44950000Y-49150000D03*
X31170000Y-49070000D03*
D18*
X44390000Y-49070000D03*
X30540000Y-51610000D03*
D16*
X46300000Y-32500000D03*
X29900000Y-32570000D03*
X44950000Y-30100000D03*
X31170000Y-30020000D03*
D18*
X44390000Y-30020000D03*
X30540000Y-32560000D03*
D16*
X46300000Y-13450000D03*
X29900000Y-13520000D03*
X44950000Y-11050000D03*
X31170000Y-10970000D03*
D18*
X44390000Y-10970000D03*
X30540000Y-13510000D03*
D16*
X46300000Y5600000D03*
X29900000Y5530000D03*
X44950000Y8000000D03*
X31170000Y8080000D03*
D18*
X44390000Y8080000D03*
X30540000Y5540000D03*
D16*
X27250000Y-73600000D03*
X10850000Y-73670000D03*
X25900000Y-71200000D03*
X12120000Y-71120000D03*
D18*
X25340000Y-71120000D03*
X11490000Y-73660000D03*
D16*
X27250000Y-54550000D03*
X10850000Y-54620000D03*
X25900000Y-52150000D03*
X12120000Y-52070000D03*
D18*
X25340000Y-52070000D03*
X11490000Y-54610000D03*
D16*
X27250000Y-35500000D03*
X10850000Y-35570000D03*
X25900000Y-33100000D03*
X12120000Y-33020000D03*
D18*
X25340000Y-33020000D03*
X11490000Y-35560000D03*
D16*
X27250000Y-16450000D03*
X10850000Y-16520000D03*
X25900000Y-14050000D03*
X12120000Y-13970000D03*
D18*
X25340000Y-13970000D03*
X11490000Y-16510000D03*
D16*
X27250000Y2600000D03*
X10850000Y2530000D03*
X25900000Y5000000D03*
X12120000Y5080000D03*
D18*
X25340000Y5080000D03*
X11490000Y2540000D03*
D16*
X8200000Y-73600000D03*
X-8200000Y-73670000D03*
X6850000Y-71200000D03*
X-6930000Y-71120000D03*
D18*
X6290000Y-71120000D03*
X-7560000Y-73660000D03*
D16*
X8200000Y-54550000D03*
X-8200000Y-54620000D03*
X6850000Y-52150000D03*
X-6930000Y-52070000D03*
D18*
X6290000Y-52070000D03*
X-7560000Y-54610000D03*
D16*
X8200000Y-35500000D03*
X-8200000Y-35570000D03*
X6850000Y-33100000D03*
X-6930000Y-33020000D03*
D18*
X6290000Y-33020000D03*
X-7560000Y-35560000D03*
D16*
X8200000Y-16450000D03*
X-8200000Y-16520000D03*
X6850000Y-14050000D03*
X-6930000Y-13970000D03*
D18*
X6290000Y-13970000D03*
X-7560000Y-16510000D03*
D16*
X8200000Y2600000D03*
X-8200000Y2530000D03*
X6850000Y5000000D03*
X-6930000Y5080000D03*
D18*
X6290000Y5080000D03*
X-7560000Y2540000D03*
D16*
X103450000Y-76600000D03*
X87050000Y-76670000D03*
X102100000Y-74200000D03*
X88320000Y-74120000D03*
D18*
X101540000Y-74120000D03*
X87690000Y-76660000D03*
D19*
X108450000Y-74000000D03*
X110050000Y-74000000D03*
X108450000Y-68000000D03*
X110050000Y-68000000D03*
D20*
X98250000Y-84750000D03*
X98250000Y-83150000D03*
X92250000Y-84750000D03*
X92250000Y-83150000D03*
X98250000Y-65700000D03*
X98250000Y-64100000D03*
X92250000Y-65700000D03*
X92250000Y-64100000D03*
X98250000Y-46650000D03*
X98250000Y-45050000D03*
X92250000Y-46650000D03*
X92250000Y-45050000D03*
X98250000Y-27600000D03*
X98250000Y-26000000D03*
X92250000Y-27600000D03*
X92250000Y-26000000D03*
X98250000Y-8550000D03*
X98250000Y-6950000D03*
X92250000Y-8550000D03*
X92250000Y-6950000D03*
X79200000Y-79750000D03*
X79200000Y-78150000D03*
X73200000Y-79750000D03*
X73200000Y-78150000D03*
X79200000Y-60700000D03*
X79200000Y-59100000D03*
X73200000Y-60700000D03*
X73200000Y-59100000D03*
X79200000Y-41650000D03*
X79200000Y-40050000D03*
X73200000Y-41650000D03*
X73200000Y-40050000D03*
X79200000Y-22600000D03*
X79200000Y-21000000D03*
X73200000Y-22600000D03*
X73200000Y-21000000D03*
X79200000Y-3550000D03*
X79200000Y-1950000D03*
X73200000Y-3550000D03*
X73200000Y-1950000D03*
X60150000Y-73750000D03*
X60150000Y-72150000D03*
X54150000Y-73750000D03*
X54150000Y-72150000D03*
X60150000Y-54700000D03*
X60150000Y-53100000D03*
X54150000Y-54700000D03*
X54150000Y-53100000D03*
X60150000Y-35650000D03*
X60150000Y-34050000D03*
X54150000Y-35650000D03*
X54150000Y-34050000D03*
X60150000Y-16600000D03*
X60150000Y-15000000D03*
X54150000Y-16600000D03*
X54150000Y-15000000D03*
X60150000Y2450000D03*
X60150000Y4050000D03*
X54150000Y2450000D03*
X54150000Y4050000D03*
X41100000Y-78750000D03*
X41100000Y-77150000D03*
X35100000Y-78750000D03*
X35100000Y-77150000D03*
X41100000Y-59700000D03*
X41100000Y-58100000D03*
X35100000Y-59700000D03*
X35100000Y-58100000D03*
X41100000Y-40650000D03*
X41100000Y-39050000D03*
X35100000Y-40650000D03*
X35100000Y-39050000D03*
X41100000Y-21600000D03*
X41100000Y-20000000D03*
X35100000Y-21600000D03*
X35100000Y-20000000D03*
X41100000Y-2550000D03*
X41100000Y-950000D03*
X35100000Y-2550000D03*
X35100000Y-950000D03*
X22050000Y-81750000D03*
X22050000Y-80150000D03*
X16050000Y-81750000D03*
X16050000Y-80150000D03*
X22050000Y-62700000D03*
X22050000Y-61100000D03*
X16050000Y-62700000D03*
X16050000Y-61100000D03*
X22050000Y-43650000D03*
X22050000Y-42050000D03*
X16050000Y-43650000D03*
X16050000Y-42050000D03*
X22050000Y-24600000D03*
X22050000Y-23000000D03*
X16050000Y-24600000D03*
X16050000Y-23000000D03*
X22050000Y-5550000D03*
X22050000Y-3950000D03*
X16050000Y-5550000D03*
X16050000Y-3950000D03*
X3000000Y-81750000D03*
X3000000Y-80150000D03*
X-3000000Y-81750000D03*
X-3000000Y-80150000D03*
X3000000Y-62700000D03*
X3000000Y-61100000D03*
X-3000000Y-62700000D03*
X-3000000Y-61100000D03*
X3000000Y-43650000D03*
X3000000Y-42050000D03*
X-3000000Y-43650000D03*
X-3000000Y-42050000D03*
X3000000Y-24600000D03*
X3000000Y-23000000D03*
X-3000000Y-24600000D03*
X-3000000Y-23000000D03*
X3000000Y-5550000D03*
X3000000Y-3950000D03*
X-3000000Y-5550000D03*
X-3000000Y-3950000D03*
D21*
X113798000Y-18148000D03*
D22*
X116338000Y-18148000D03*
D23*
X107662000Y-5470000D03*
X107662000Y1030000D03*
D24*
X112094000Y-50440000D03*
X110594000Y-54640000D03*
X119094000Y-50440000D03*
X116094000Y-50440000D03*
X119094000Y-56390000D03*
X116094000Y-56390000D03*
X112094000Y-56390000D03*
X110594000Y-52190000D03*
D25*
X106278000Y-68550000D03*
D26*
X106278000Y-74900000D03*
D27*
X106278000Y-67100000D03*
D25*
X106278000Y-73500000D03*
D28*
X106278000Y-72400000D03*
X106278000Y-69600000D03*
D29*
X92800000Y-87000000D03*
D26*
X99150000Y-87000000D03*
D27*
X91350000Y-87000000D03*
D29*
X97750000Y-87000000D03*
D30*
X96650000Y-87000000D03*
X93850000Y-87000000D03*
D29*
X92800000Y-67900000D03*
D26*
X99150000Y-67900000D03*
D27*
X91350000Y-67900000D03*
D29*
X97750000Y-67900000D03*
D30*
X96650000Y-67900000D03*
X93850000Y-67900000D03*
D29*
X92800000Y-48900000D03*
D26*
X99150000Y-48900000D03*
D27*
X91350000Y-48900000D03*
D29*
X97750000Y-48900000D03*
D30*
X96650000Y-48900000D03*
X93850000Y-48900000D03*
D29*
X92800000Y-29900000D03*
D26*
X99150000Y-29900000D03*
D27*
X91350000Y-29900000D03*
D29*
X97750000Y-29900000D03*
D30*
X96650000Y-29900000D03*
X93850000Y-29900000D03*
D29*
X92800000Y-10900000D03*
D26*
X99150000Y-10900000D03*
D27*
X91350000Y-10900000D03*
D29*
X97750000Y-10900000D03*
D30*
X96650000Y-10900000D03*
X93850000Y-10900000D03*
D29*
X73750000Y-82000000D03*
D26*
X80100000Y-82000000D03*
D27*
X72300000Y-82000000D03*
D29*
X78700000Y-82000000D03*
D30*
X77600000Y-82000000D03*
X74800000Y-82000000D03*
D29*
X73750000Y-62900000D03*
D26*
X80100000Y-62900000D03*
D27*
X72300000Y-62900000D03*
D29*
X78700000Y-62900000D03*
D30*
X77600000Y-62900000D03*
X74800000Y-62900000D03*
D29*
X73750000Y-43900000D03*
D26*
X80100000Y-43900000D03*
D27*
X72300000Y-43900000D03*
D29*
X78700000Y-43900000D03*
D30*
X77600000Y-43900000D03*
X74800000Y-43900000D03*
D29*
X73750000Y-24900000D03*
D26*
X80100000Y-24900000D03*
D27*
X72300000Y-24900000D03*
D29*
X78700000Y-24900000D03*
D30*
X77600000Y-24900000D03*
X74800000Y-24900000D03*
D29*
X73750000Y-5900000D03*
D26*
X80100000Y-5900000D03*
D27*
X72300000Y-5900000D03*
D29*
X78700000Y-5900000D03*
D30*
X77600000Y-5900000D03*
X74800000Y-5900000D03*
D29*
X54700000Y-76000000D03*
D26*
X61050000Y-76000000D03*
D27*
X53250000Y-76000000D03*
D29*
X59650000Y-76000000D03*
D30*
X58550000Y-76000000D03*
X55750000Y-76000000D03*
D29*
X54700000Y-56900000D03*
D26*
X61050000Y-56900000D03*
D27*
X53250000Y-56900000D03*
D29*
X59650000Y-56900000D03*
D30*
X58550000Y-56900000D03*
X55750000Y-56900000D03*
D29*
X54700000Y-37900000D03*
D26*
X61050000Y-37900000D03*
D27*
X53250000Y-37900000D03*
D29*
X59650000Y-37900000D03*
D30*
X58550000Y-37900000D03*
X55750000Y-37900000D03*
D29*
X54700000Y-18900000D03*
D26*
X61050000Y-18900000D03*
D27*
X53250000Y-18900000D03*
D29*
X59650000Y-18900000D03*
D30*
X58550000Y-18900000D03*
X55750000Y-18900000D03*
D29*
X54700000Y100000D03*
D26*
X61050000Y100000D03*
D27*
X53250000Y100000D03*
D29*
X59650000Y100000D03*
D30*
X58550000Y100000D03*
X55750000Y100000D03*
D29*
X35650000Y-81000000D03*
D26*
X42000000Y-81000000D03*
D27*
X34200000Y-81000000D03*
D29*
X40600000Y-81000000D03*
D30*
X39500000Y-81000000D03*
X36700000Y-81000000D03*
D29*
X35650000Y-61900000D03*
D26*
X42000000Y-61900000D03*
D27*
X34200000Y-61900000D03*
D29*
X40600000Y-61900000D03*
D30*
X39500000Y-61900000D03*
X36700000Y-61900000D03*
D29*
X35650000Y-42900000D03*
D26*
X42000000Y-42900000D03*
D27*
X34200000Y-42900000D03*
D29*
X40600000Y-42900000D03*
D30*
X39500000Y-42900000D03*
X36700000Y-42900000D03*
D29*
X35650000Y-23900000D03*
D26*
X42000000Y-23900000D03*
D27*
X34200000Y-23900000D03*
D29*
X40600000Y-23900000D03*
D30*
X39500000Y-23900000D03*
X36700000Y-23900000D03*
D29*
X35650000Y-4900000D03*
D26*
X42000000Y-4900000D03*
D27*
X34200000Y-4900000D03*
D29*
X40600000Y-4900000D03*
D30*
X39500000Y-4900000D03*
X36700000Y-4900000D03*
D29*
X16600000Y-84000000D03*
D26*
X22950000Y-84000000D03*
D27*
X15150000Y-84000000D03*
D29*
X21550000Y-84000000D03*
D30*
X20450000Y-84000000D03*
X17650000Y-84000000D03*
D29*
X16600000Y-64900000D03*
D26*
X22950000Y-64900000D03*
D27*
X15150000Y-64900000D03*
D29*
X21550000Y-64900000D03*
D30*
X20450000Y-64900000D03*
X17650000Y-64900000D03*
D29*
X16600000Y-45900000D03*
D26*
X22950000Y-45900000D03*
D27*
X15150000Y-45900000D03*
D29*
X21550000Y-45900000D03*
D30*
X20450000Y-45900000D03*
X17650000Y-45900000D03*
D29*
X16600000Y-26900000D03*
D26*
X22950000Y-26900000D03*
D27*
X15150000Y-26900000D03*
D29*
X21550000Y-26900000D03*
D30*
X20450000Y-26900000D03*
X17650000Y-26900000D03*
D29*
X16600000Y-7900000D03*
D26*
X22950000Y-7900000D03*
D27*
X15150000Y-7900000D03*
D29*
X21550000Y-7900000D03*
D30*
X20450000Y-7900000D03*
X17650000Y-7900000D03*
D29*
X-2450000Y-84000000D03*
D26*
X3900000Y-84000000D03*
D27*
X-3900000Y-84000000D03*
D29*
X2500000Y-84000000D03*
D30*
X1400000Y-84000000D03*
X-1400000Y-84000000D03*
D29*
X-2450000Y-64950000D03*
D26*
X3900000Y-64950000D03*
D27*
X-3900000Y-64950000D03*
D29*
X2500000Y-64950000D03*
D30*
X1400000Y-64950000D03*
X-1400000Y-64950000D03*
D29*
X-2450000Y-45900000D03*
D26*
X3900000Y-45900000D03*
D27*
X-3900000Y-45900000D03*
D29*
X2500000Y-45900000D03*
D30*
X1400000Y-45900000D03*
X-1400000Y-45900000D03*
D29*
X-2450000Y-26900000D03*
D26*
X3900000Y-26900000D03*
D27*
X-3900000Y-26900000D03*
D29*
X2500000Y-26900000D03*
D30*
X1400000Y-26900000D03*
X-1400000Y-26900000D03*
D29*
X-2450000Y-7900000D03*
D26*
X3900000Y-7900000D03*
D27*
X-3900000Y-7900000D03*
D29*
X2500000Y-7900000D03*
D30*
X1400000Y-7900000D03*
X-1400000Y-7900000D03*
D31*
X82730000Y-46550000D03*
X78599000Y-65908000D03*
X6269200Y-63260600D03*
X30642100Y-25248900D03*
X5301800Y-25993500D03*
X59932200Y-31289500D03*
X41100000Y-37524700D03*
X51044500Y-71843700D03*
X47620300Y-76830400D03*
X4855500Y-42472400D03*
X70046200Y-29143200D03*
X81270800Y-64189000D03*
X37862900Y-63781100D03*
X52049700Y-58874600D03*
X41100000Y-18866800D03*
X23910300Y-42050000D03*
X3798500Y-21877200D03*
X59900700Y-13890900D03*
X100717400Y-64100000D03*
X98319900Y-43322800D03*
X110718700Y-42288000D03*
X99825300Y-24883600D03*
X60150000Y-70619900D03*
X41100000Y-76024200D03*
X42957900Y-58100000D03*
X23904000Y-61470800D03*
X4858800Y-80290200D03*
X23924900Y-23499900D03*
X104070700Y-6950000D03*
X98250000Y-81897200D03*
X111169800Y-74219400D03*
X80360100Y-77045700D03*
X79200000Y-38903300D03*
X79273300Y-19862300D03*
X80308700Y-843400D03*
X59494500Y5161700D03*
X40968900Y155700D03*
X23911100Y-80150000D03*
X23932300Y-3950000D03*
X3927700Y-59963800D03*
X5206400Y-3318900D03*
X85257000Y-49844900D03*
X79265500Y-9852700D03*
X47255600Y-23471000D03*
X-5906900Y-23291200D03*
X-4872300Y-24348600D03*
X44653200Y-20946400D03*
X89353800Y-25790100D03*
X57430500Y-21821000D03*
X45610800Y-18095400D03*
X33136000Y-78750000D03*
X90285800Y-8550000D03*
X52271500Y-16600000D03*
X68812800Y-47595200D03*
X14191900Y-43540600D03*
X33234000Y-59427300D03*
X-5318400Y-80154000D03*
X73385600Y-7160800D03*
X62798900Y-51541600D03*
X52299600Y-35364100D03*
X55552200Y-2053000D03*
X33221700Y-40229100D03*
X14183700Y-81459000D03*
X12721400Y-59944500D03*
X-4871100Y-62518000D03*
X-4859300Y-43650000D03*
X16749000Y-6675000D03*
X-5333200Y-4179100D03*
X108450000Y-66126500D03*
X92563700Y-66805700D03*
X90388300Y-84241300D03*
X90395000Y-46661200D03*
X71233000Y-79750000D03*
X71339200Y-59936700D03*
X71346200Y-40957800D03*
X71341600Y-22600000D03*
X33228400Y-2364400D03*
X14182500Y-23927200D03*
X119092000Y-47178000D03*
X52044600Y-59958700D03*
X60178100Y-58805400D03*
X21369300Y-40399000D03*
X30180000Y-26900000D03*
X28904900Y-63036300D03*
X105182000Y410800D03*
X96054900Y6629700D03*
X13342900Y-79018200D03*
X4865800Y-5449400D03*
X-6532400Y-9324000D03*
X4885200Y-24281400D03*
X-3503200Y-2809100D03*
X-9160300Y-47851300D03*
X4859700Y-43759600D03*
X-4575300Y-21966200D03*
X274600Y-66105100D03*
X-3298400Y-40917300D03*
X4852300Y-82027000D03*
X-4126800Y-59981300D03*
X-4115800Y-79034200D03*
X35100000Y-76009400D03*
X23901900Y-5550000D03*
X23925300Y-24600000D03*
X13249900Y-3950000D03*
X24664800Y-43586700D03*
X28411800Y-21952600D03*
X14186900Y-22693900D03*
X18853700Y-65945400D03*
X13562700Y-42050000D03*
X23942100Y-60306300D03*
X23937900Y-81750000D03*
X52269600Y-72272900D03*
X42964200Y-2838900D03*
X42982600Y-21600000D03*
X33235100Y-774500D03*
X42138200Y-18716800D03*
X42961100Y-40364200D03*
X42961100Y-59915600D03*
X33230200Y-38755500D03*
X44141000Y-78407500D03*
X47287500Y-56939300D03*
X35100000Y-56939300D03*
X71303900Y-78395800D03*
X62003400Y3203700D03*
X62003600Y-16600000D03*
X52266400Y3471500D03*
X57261800Y-40222200D03*
X52295000Y-14831400D03*
X63321100Y-54692600D03*
X62167100Y-32131500D03*
X54150000Y-32938400D03*
X62037200Y-73750000D03*
X52296600Y-52992000D03*
X90395200Y-82960500D03*
X81061800Y-3782300D03*
X81081000Y-22600000D03*
X71314700Y-2404500D03*
X81063000Y-41937700D03*
X71321900Y-21000000D03*
X75990900Y-63967100D03*
X71323300Y-39748600D03*
X82912400Y-78958100D03*
X71344300Y-58719100D03*
X100113200Y-8733500D03*
X100107200Y-27551100D03*
X90397000Y-6711300D03*
X100103000Y-46489200D03*
X102141500Y-24040300D03*
X90381100Y-26224400D03*
X100120000Y-65994700D03*
X90374000Y-45121500D03*
X100120800Y-84032300D03*
X90398600Y-64251300D03*
X108450000Y-75867900D03*
X110050000Y-66124000D03*
X98366000Y5027000D03*
X97468000Y7963200D03*
X104433400Y-11215200D03*
D32*
X-7560000Y2540000D02*
X-8190000Y2540000D01*
X-8190000Y2540000D02*
X-8200000Y2530000D01*
X-2450000Y-7900000D02*
X-3900000Y-7900000D01*
X-1400000Y-7900000D02*
X-2450000Y-7900000D01*
X-7560000Y-16510000D02*
X-8190000Y-16510000D01*
X-8190000Y-16510000D02*
X-8200000Y-16520000D01*
X-2450000Y-26900000D02*
X-3900000Y-26900000D01*
X-1400000Y-26900000D02*
X-2450000Y-26900000D01*
X-7560000Y-35560000D02*
X-8190000Y-35560000D01*
X-8190000Y-35560000D02*
X-8200000Y-35570000D01*
X-2450000Y-45900000D02*
X-3900000Y-45900000D01*
X-1400000Y-45900000D02*
X-2450000Y-45900000D01*
X-7560000Y-54610000D02*
X-8190000Y-54610000D01*
X-8190000Y-54610000D02*
X-8200000Y-54620000D01*
X-2450000Y-64950000D02*
X-3900000Y-64950000D01*
X-1400000Y-64950000D02*
X-2450000Y-64950000D01*
X-7560000Y-73660000D02*
X-8190000Y-73660000D01*
X-8190000Y-73660000D02*
X-8200000Y-73670000D01*
X-2450000Y-84000000D02*
X-3900000Y-84000000D01*
X-1400000Y-84000000D02*
X-2450000Y-84000000D01*
X11490000Y2540000D02*
X10860000Y2540000D01*
X10860000Y2540000D02*
X10850000Y2530000D01*
X16600000Y-7900000D02*
X15150000Y-7900000D01*
X17650000Y-7900000D02*
X16600000Y-7900000D01*
X11490000Y-16510000D02*
X10860000Y-16510000D01*
X10860000Y-16510000D02*
X10850000Y-16520000D01*
X16600000Y-26900000D02*
X15150000Y-26900000D01*
X17650000Y-26900000D02*
X16600000Y-26900000D01*
X11490000Y-35560000D02*
X10860000Y-35560000D01*
X10860000Y-35560000D02*
X10850000Y-35570000D01*
X16600000Y-45900000D02*
X15150000Y-45900000D01*
X17650000Y-45900000D02*
X16600000Y-45900000D01*
X11490000Y-54610000D02*
X10860000Y-54610000D01*
X10860000Y-54610000D02*
X10850000Y-54620000D01*
X16600000Y-64900000D02*
X15150000Y-64900000D01*
X17650000Y-64900000D02*
X16600000Y-64900000D01*
X11490000Y-73660000D02*
X10860000Y-73660000D01*
X10860000Y-73660000D02*
X10850000Y-73670000D01*
X16600000Y-84000000D02*
X15150000Y-84000000D01*
X17650000Y-84000000D02*
X16600000Y-84000000D01*
X30540000Y5540000D02*
X29910000Y5540000D01*
X29910000Y5540000D02*
X29900000Y5530000D01*
X35650000Y-4900000D02*
X34200000Y-4900000D01*
X36700000Y-4900000D02*
X35650000Y-4900000D01*
X30540000Y-13510000D02*
X29910000Y-13510000D01*
X29910000Y-13510000D02*
X29900000Y-13520000D01*
X35650000Y-23900000D02*
X34200000Y-23900000D01*
X36700000Y-23900000D02*
X35650000Y-23900000D01*
X30540000Y-32560000D02*
X29910000Y-32560000D01*
X29910000Y-32560000D02*
X29900000Y-32570000D01*
X35650000Y-42900000D02*
X34200000Y-42900000D01*
X36700000Y-42900000D02*
X35650000Y-42900000D01*
X30540000Y-51610000D02*
X29910000Y-51610000D01*
X29910000Y-51610000D02*
X29900000Y-51620000D01*
X35650000Y-61900000D02*
X34200000Y-61900000D01*
X36700000Y-61900000D02*
X35650000Y-61900000D01*
X30540000Y-70660000D02*
X29910000Y-70660000D01*
X29910000Y-70660000D02*
X29900000Y-70670000D01*
X35650000Y-81000000D02*
X34200000Y-81000000D01*
X36700000Y-81000000D02*
X35650000Y-81000000D01*
X49590000Y10540000D02*
X48960000Y10540000D01*
X48960000Y10540000D02*
X48950000Y10530000D01*
X54700000Y100000D02*
X53250000Y100000D01*
X55750000Y100000D02*
X54700000Y100000D01*
X49590000Y-8510000D02*
X48960000Y-8510000D01*
X48960000Y-8510000D02*
X48950000Y-8520000D01*
X54700000Y-18900000D02*
X53250000Y-18900000D01*
X55750000Y-18900000D02*
X54700000Y-18900000D01*
X49590000Y-27560000D02*
X48960000Y-27560000D01*
X48960000Y-27560000D02*
X48950000Y-27570000D01*
X54700000Y-37900000D02*
X53250000Y-37900000D01*
X55750000Y-37900000D02*
X54700000Y-37900000D01*
X49590000Y-46610000D02*
X48960000Y-46610000D01*
X48960000Y-46610000D02*
X48950000Y-46620000D01*
X54700000Y-56900000D02*
X53250000Y-56900000D01*
X55750000Y-56900000D02*
X54700000Y-56900000D01*
X49590000Y-65660000D02*
X48960000Y-65660000D01*
X48960000Y-65660000D02*
X48950000Y-65670000D01*
X54700000Y-76000000D02*
X53250000Y-76000000D01*
X55750000Y-76000000D02*
X54700000Y-76000000D01*
X68640000Y-14510000D02*
X68010000Y-14510000D01*
X68010000Y-14510000D02*
X68000000Y-14520000D01*
X73750000Y-24900000D02*
X72300000Y-24900000D01*
X74800000Y-24900000D02*
X73750000Y-24900000D01*
X68640000Y-33560000D02*
X68010000Y-33560000D01*
X68010000Y-33560000D02*
X68000000Y-33570000D01*
X73750000Y-43900000D02*
X72300000Y-43900000D01*
X74800000Y-43900000D02*
X73750000Y-43900000D01*
X68640000Y-52610000D02*
X68010000Y-52610000D01*
X68010000Y-52610000D02*
X68000000Y-52620000D01*
X73750000Y-62900000D02*
X72300000Y-62900000D01*
X74800000Y-62900000D02*
X73750000Y-62900000D01*
X68640000Y-71660000D02*
X68010000Y-71660000D01*
X68010000Y-71660000D02*
X68000000Y-71670000D01*
X73750000Y-82000000D02*
X72300000Y-82000000D01*
X74800000Y-82000000D02*
X73750000Y-82000000D01*
X87690000Y-460000D02*
X87060000Y-460000D01*
X87060000Y-460000D02*
X87050000Y-470000D01*
X92800000Y-10900000D02*
X91350000Y-10900000D01*
X93850000Y-10900000D02*
X92800000Y-10900000D01*
X87690000Y-19510000D02*
X87060000Y-19510000D01*
X87060000Y-19510000D02*
X87050000Y-19520000D01*
X92800000Y-29900000D02*
X91350000Y-29900000D01*
X93850000Y-29900000D02*
X92800000Y-29900000D01*
X87690000Y-38560000D02*
X87060000Y-38560000D01*
X87060000Y-38560000D02*
X87050000Y-38570000D01*
X92800000Y-48900000D02*
X91350000Y-48900000D01*
X93850000Y-48900000D02*
X92800000Y-48900000D01*
X87690000Y-57610000D02*
X87060000Y-57610000D01*
X87060000Y-57610000D02*
X87050000Y-57620000D01*
X92800000Y-67900000D02*
X91350000Y-67900000D01*
X93850000Y-67900000D02*
X92800000Y-67900000D01*
X87690000Y-76660000D02*
X87060000Y-76660000D01*
X87060000Y-76660000D02*
X87050000Y-76670000D01*
X92800000Y-87000000D02*
X91350000Y-87000000D01*
X93850000Y-87000000D02*
X92800000Y-87000000D01*
X106278000Y-68550000D02*
X106278000Y-67100000D01*
X106278000Y-69600000D02*
X106278000Y-68550000D01*
X116530000Y-62800000D02*
X116540000Y-62810000D01*
X116540000Y-62810000D02*
X116540000Y-63440000D01*
X103450000Y-400000D02*
X103450000Y-1350300D01*
X103450000Y-400000D02*
X103450000Y75200D01*
X107798000Y-33398000D02*
X109023400Y-32172600D01*
X109023400Y-32172600D02*
X109023400Y-22758100D01*
X109023400Y-22758100D02*
X108233300Y-21968000D01*
X108233300Y-21968000D02*
X107314200Y-21968000D01*
X107314200Y-21968000D02*
X105246400Y-19900200D01*
X105246400Y-19900200D02*
X105246400Y-3146700D01*
X105246400Y-3146700D02*
X103450000Y-1350300D01*
X103450000Y75200D02*
X103450000Y550300D01*
X102100000Y2000000D02*
X102100000Y1049700D01*
X102100000Y1049700D02*
X102599400Y550300D01*
X102599400Y550300D02*
X103450000Y550300D01*
X101540000Y2080000D02*
X102020000Y2080000D01*
X102020000Y2080000D02*
X102100000Y2000000D01*
X84400000Y4600000D02*
X84400000Y5550300D01*
X83050000Y7000000D02*
X83050000Y6049700D01*
X83050000Y6049700D02*
X83549400Y5550300D01*
X83549400Y5550300D02*
X84400000Y5550300D01*
X82490000Y7080000D02*
X82970000Y7080000D01*
X82970000Y7080000D02*
X83050000Y7000000D01*
X65350000Y10600000D02*
X65350000Y11550300D01*
X64000000Y13000000D02*
X64000000Y12049700D01*
X64000000Y12049700D02*
X64499400Y11550300D01*
X64499400Y11550300D02*
X65350000Y11550300D01*
X63440000Y13080000D02*
X63920000Y13080000D01*
X63920000Y13080000D02*
X64000000Y13000000D01*
X46300000Y5600000D02*
X46300000Y6550300D01*
X44950000Y8000000D02*
X44950000Y7049700D01*
X44950000Y7049700D02*
X45449400Y6550300D01*
X45449400Y6550300D02*
X46300000Y6550300D01*
X44390000Y8080000D02*
X44870000Y8080000D01*
X44870000Y8080000D02*
X44950000Y8000000D01*
X27250000Y2600000D02*
X27250000Y3550300D01*
X25900000Y5000000D02*
X25900000Y4049700D01*
X25900000Y4049700D02*
X26399400Y3550300D01*
X26399400Y3550300D02*
X27250000Y3550300D01*
X25340000Y5080000D02*
X25820000Y5080000D01*
X25820000Y5080000D02*
X25900000Y5000000D01*
X8200000Y2600000D02*
X8200000Y3550300D01*
X6850000Y5000000D02*
X6850000Y4049700D01*
X6850000Y4049700D02*
X7349400Y3550300D01*
X7349400Y3550300D02*
X8200000Y3550300D01*
X6290000Y5080000D02*
X6770000Y5080000D01*
X6770000Y5080000D02*
X6850000Y5000000D01*
X103450000Y-19450000D02*
X103450000Y-18499700D01*
X102100000Y-17050000D02*
X102100000Y-18000300D01*
X102100000Y-18000300D02*
X102599400Y-18499700D01*
X102599400Y-18499700D02*
X103450000Y-18499700D01*
X101540000Y-16970000D02*
X102020000Y-16970000D01*
X102020000Y-16970000D02*
X102100000Y-17050000D01*
X8200000Y-16450000D02*
X8200000Y-15499700D01*
X6850000Y-14050000D02*
X6850000Y-15000300D01*
X6850000Y-15000300D02*
X7349400Y-15499700D01*
X7349400Y-15499700D02*
X8200000Y-15499700D01*
X6290000Y-13970000D02*
X6770000Y-13970000D01*
X6770000Y-13970000D02*
X6850000Y-14050000D01*
X107798000Y-38478000D02*
X103450000Y-34130000D01*
X103450000Y-34130000D02*
X103450000Y-19450000D01*
X84400000Y-14450000D02*
X84400000Y-13499700D01*
X83050000Y-12050000D02*
X83050000Y-13000300D01*
X83050000Y-13000300D02*
X83549400Y-13499700D01*
X83549400Y-13499700D02*
X84400000Y-13499700D01*
X82490000Y-11970000D02*
X82970000Y-11970000D01*
X82970000Y-11970000D02*
X83050000Y-12050000D01*
X65350000Y-8450000D02*
X65350000Y-7499700D01*
X64000000Y-6050000D02*
X64000000Y-7000300D01*
X64000000Y-7000300D02*
X64499400Y-7499700D01*
X64499400Y-7499700D02*
X65350000Y-7499700D01*
X63440000Y-5970000D02*
X63920000Y-5970000D01*
X63920000Y-5970000D02*
X64000000Y-6050000D01*
X46300000Y-13450000D02*
X46300000Y-12499700D01*
X44950000Y-11050000D02*
X44950000Y-12000300D01*
X44950000Y-12000300D02*
X45449400Y-12499700D01*
X45449400Y-12499700D02*
X46300000Y-12499700D01*
X44390000Y-10970000D02*
X44870000Y-10970000D01*
X44870000Y-10970000D02*
X44950000Y-11050000D01*
X27250000Y-16450000D02*
X27250000Y-15499700D01*
X25900000Y-14050000D02*
X25900000Y-15000300D01*
X25900000Y-15000300D02*
X26399400Y-15499700D01*
X26399400Y-15499700D02*
X27250000Y-15499700D01*
X25340000Y-13970000D02*
X25820000Y-13970000D01*
X25820000Y-13970000D02*
X25900000Y-14050000D01*
X103450000Y-38500000D02*
X103450000Y-39450300D01*
X103450000Y-39450300D02*
X103690300Y-39450300D01*
X103690300Y-39450300D02*
X107798000Y-43558000D01*
X103450000Y-38024800D02*
X103450000Y-38500000D01*
X103450000Y-38024800D02*
X103450000Y-37549700D01*
X102100000Y-36100000D02*
X102100000Y-37050300D01*
X102100000Y-37050300D02*
X102599400Y-37549700D01*
X102599400Y-37549700D02*
X103450000Y-37549700D01*
X101540000Y-36020000D02*
X102020000Y-36020000D01*
X102020000Y-36020000D02*
X102100000Y-36100000D01*
X84400000Y-33500000D02*
X84400000Y-32549700D01*
X83050000Y-31100000D02*
X83050000Y-32050300D01*
X83050000Y-32050300D02*
X83549400Y-32549700D01*
X83549400Y-32549700D02*
X84400000Y-32549700D01*
X82490000Y-31020000D02*
X82970000Y-31020000D01*
X82970000Y-31020000D02*
X83050000Y-31100000D01*
X65350000Y-27500000D02*
X65350000Y-26549700D01*
X64000000Y-25100000D02*
X64000000Y-26050300D01*
X64000000Y-26050300D02*
X64499400Y-26549700D01*
X64499400Y-26549700D02*
X65350000Y-26549700D01*
X63440000Y-25020000D02*
X63920000Y-25020000D01*
X63920000Y-25020000D02*
X64000000Y-25100000D01*
X46300000Y-32500000D02*
X46300000Y-31549700D01*
X44950000Y-30100000D02*
X44950000Y-31050300D01*
X44950000Y-31050300D02*
X45449400Y-31549700D01*
X45449400Y-31549700D02*
X46300000Y-31549700D01*
X44390000Y-30020000D02*
X44870000Y-30020000D01*
X44870000Y-30020000D02*
X44950000Y-30100000D01*
X27250000Y-35500000D02*
X27250000Y-34549700D01*
X25900000Y-33100000D02*
X25900000Y-34050300D01*
X25900000Y-34050300D02*
X26399400Y-34549700D01*
X26399400Y-34549700D02*
X27250000Y-34549700D01*
X25340000Y-33020000D02*
X25820000Y-33020000D01*
X25820000Y-33020000D02*
X25900000Y-33100000D01*
X8200000Y-35500000D02*
X8200000Y-34549700D01*
X6850000Y-33100000D02*
X6850000Y-34050300D01*
X6850000Y-34050300D02*
X7349400Y-34549700D01*
X7349400Y-34549700D02*
X8200000Y-34549700D01*
X6290000Y-33020000D02*
X6770000Y-33020000D01*
X6770000Y-33020000D02*
X6850000Y-33100000D01*
X82730000Y-50070000D02*
X82730000Y-46550000D01*
X82730000Y-50070000D02*
X82970000Y-50070000D01*
X82970000Y-50070000D02*
X83050000Y-50150000D01*
X82490000Y-50070000D02*
X82730000Y-50070000D01*
X65350000Y-46550000D02*
X65350000Y-45599700D01*
X64000000Y-44150000D02*
X64000000Y-45100300D01*
X64000000Y-45100300D02*
X64499400Y-45599700D01*
X64499400Y-45599700D02*
X65350000Y-45599700D01*
X63440000Y-44070000D02*
X63920000Y-44070000D01*
X63920000Y-44070000D02*
X64000000Y-44150000D01*
X103450000Y-57550000D02*
X103450000Y-56599700D01*
X102100000Y-55150000D02*
X102100000Y-56100300D01*
X102100000Y-56100300D02*
X102599400Y-56599700D01*
X102599400Y-56599700D02*
X103450000Y-56599700D01*
X101540000Y-55070000D02*
X102020000Y-55070000D01*
X102020000Y-55070000D02*
X102100000Y-55150000D01*
X84400000Y-52550000D02*
X84400000Y-51599700D01*
X83050000Y-50150000D02*
X83050000Y-51100300D01*
X83050000Y-51100300D02*
X83549400Y-51599700D01*
X83549400Y-51599700D02*
X84400000Y-51599700D01*
X46300000Y-51550000D02*
X46300000Y-50599700D01*
X44950000Y-49150000D02*
X44950000Y-50100300D01*
X44950000Y-50100300D02*
X45449400Y-50599700D01*
X45449400Y-50599700D02*
X46300000Y-50599700D01*
X44390000Y-49070000D02*
X44870000Y-49070000D01*
X44870000Y-49070000D02*
X44950000Y-49150000D01*
X27250000Y-54550000D02*
X27250000Y-53599700D01*
X25900000Y-52150000D02*
X25900000Y-53100300D01*
X25900000Y-53100300D02*
X26399400Y-53599700D01*
X26399400Y-53599700D02*
X27250000Y-53599700D01*
X25340000Y-52070000D02*
X25820000Y-52070000D01*
X25820000Y-52070000D02*
X25900000Y-52150000D01*
X8200000Y-54550000D02*
X8200000Y-53599700D01*
X6850000Y-52150000D02*
X6850000Y-53100300D01*
X6850000Y-53100300D02*
X7349400Y-53599700D01*
X7349400Y-53599700D02*
X8200000Y-53599700D01*
X6290000Y-52070000D02*
X6770000Y-52070000D01*
X6770000Y-52070000D02*
X6850000Y-52150000D01*
X82490000Y-69120000D02*
X82490000Y-67544700D01*
X82490000Y-67544700D02*
X80235700Y-67544700D01*
X80235700Y-67544700D02*
X78599000Y-65908000D01*
X82490000Y-69120000D02*
X82970000Y-69120000D01*
X82970000Y-69120000D02*
X83050000Y-69200000D01*
X65350000Y-65600000D02*
X65350000Y-64649700D01*
X64000000Y-63200000D02*
X64000000Y-64150300D01*
X64000000Y-64150300D02*
X64499400Y-64649700D01*
X64499400Y-64649700D02*
X65350000Y-64649700D01*
X63440000Y-63120000D02*
X63920000Y-63120000D01*
X63920000Y-63120000D02*
X64000000Y-63200000D01*
X46300000Y-70600000D02*
X46300000Y-69649700D01*
X44950000Y-68200000D02*
X44950000Y-69150300D01*
X44950000Y-69150300D02*
X45449400Y-69649700D01*
X45449400Y-69649700D02*
X46300000Y-69649700D01*
X44390000Y-68120000D02*
X44870000Y-68120000D01*
X44870000Y-68120000D02*
X44950000Y-68200000D01*
X27250000Y-73600000D02*
X27250000Y-72649700D01*
X25900000Y-71200000D02*
X25900000Y-72150300D01*
X25900000Y-72150300D02*
X26399400Y-72649700D01*
X26399400Y-72649700D02*
X27250000Y-72649700D01*
X25340000Y-71120000D02*
X25820000Y-71120000D01*
X25820000Y-71120000D02*
X25900000Y-71200000D01*
X8200000Y-73600000D02*
X8200000Y-72649700D01*
X6850000Y-71200000D02*
X6850000Y-72150300D01*
X6850000Y-72150300D02*
X7349400Y-72649700D01*
X7349400Y-72649700D02*
X8200000Y-72649700D01*
X6290000Y-71120000D02*
X6770000Y-71120000D01*
X6770000Y-71120000D02*
X6850000Y-71200000D01*
X103450000Y-76600000D02*
X103450000Y-75649700D01*
X102100000Y-74200000D02*
X102100000Y-75150300D01*
X102100000Y-75150300D02*
X102599400Y-75649700D01*
X102599400Y-75649700D02*
X103450000Y-75649700D01*
X101540000Y-74120000D02*
X102020000Y-74120000D01*
X102020000Y-74120000D02*
X102100000Y-74200000D01*
X119080000Y-77290000D02*
X120655300Y-77290000D01*
X120655300Y-77290000D02*
X121836200Y-76109100D01*
X121836200Y-76109100D02*
X121836200Y-37139800D01*
X121836200Y-37139800D02*
X123038000Y-35938000D01*
X119000000Y-77850000D02*
X119000000Y-77370000D01*
X119000000Y-77370000D02*
X119080000Y-77290000D01*
X5025300Y-26900000D02*
X5421100Y-26900000D01*
X5421100Y-26900000D02*
X6071500Y-26249600D01*
X6071500Y-26249600D02*
X6071500Y-21822500D01*
X6071500Y-21822500D02*
X697200Y-16448200D01*
X697200Y-16448200D02*
X697200Y-9528100D01*
X697200Y-9528100D02*
X1400000Y-8825300D01*
X6269200Y-63260600D02*
X7038600Y-64030000D01*
X7038600Y-64030000D02*
X7038600Y-67250800D01*
X7038600Y-67250800D02*
X9600800Y-69813000D01*
X9600800Y-69813000D02*
X9600800Y-79424500D01*
X9600800Y-79424500D02*
X5025300Y-84000000D01*
X6269200Y-63260600D02*
X6269200Y-60120200D01*
X6269200Y-60120200D02*
X690000Y-54541000D01*
X690000Y-54541000D02*
X690000Y-47535300D01*
X690000Y-47535300D02*
X1400000Y-46825300D01*
X3900000Y-84000000D02*
X5025300Y-84000000D01*
X1400000Y-26900000D02*
X1400000Y-27825300D01*
X1400000Y-27825300D02*
X668600Y-28556700D01*
X668600Y-28556700D02*
X668600Y-35442500D01*
X668600Y-35442500D02*
X5609900Y-40383800D01*
X5609900Y-40383800D02*
X5609900Y-44049400D01*
X5609900Y-44049400D02*
X4884600Y-44774700D01*
X4884600Y-44774700D02*
X3900000Y-44774700D01*
X1400000Y-26900000D02*
X2500000Y-26900000D01*
X3900000Y-45900000D02*
X3900000Y-44774700D01*
X3900000Y-26900000D02*
X5025300Y-26900000D01*
X2500000Y-26900000D02*
X3900000Y-26900000D01*
X1400000Y-45900000D02*
X1400000Y-46825300D01*
X1400000Y-7900000D02*
X1400000Y-8825300D01*
X2500000Y-7900000D02*
X3900000Y-7900000D01*
X2500000Y-84000000D02*
X3900000Y-84000000D01*
X1400000Y-84000000D02*
X2500000Y-84000000D01*
X1400000Y-64950000D02*
X2500000Y-64950000D01*
X2500000Y-64950000D02*
X3900000Y-64950000D01*
X1400000Y-45900000D02*
X2500000Y-45900000D01*
X2500000Y-45900000D02*
X3900000Y-45900000D01*
X1400000Y-7900000D02*
X2500000Y-7900000D01*
X107798000Y-18158000D02*
X107798000Y-19359600D01*
X116781700Y-50440000D02*
X116781700Y-27967800D01*
X116781700Y-27967800D02*
X108173500Y-19359600D01*
X108173500Y-19359600D02*
X107798000Y-19359600D01*
X116781700Y-50440000D02*
X117469300Y-50440000D01*
X116094000Y-50440000D02*
X116781700Y-50440000D01*
X116094000Y-56390000D02*
X117469300Y-56390000D01*
X117469300Y-56390000D02*
X117469300Y-50440000D01*
X41100000Y-37524700D02*
X33781100Y-37524700D01*
X33781100Y-37524700D02*
X31785700Y-35529300D01*
X31785700Y-35529300D02*
X31785700Y-34346800D01*
X31785700Y-34346800D02*
X32140400Y-33992100D01*
X32140400Y-33992100D02*
X32140400Y-26747200D01*
X32140400Y-26747200D02*
X30642100Y-25248900D01*
X4793400Y-25485100D02*
X5621200Y-24657300D01*
X5621200Y-24657300D02*
X5621200Y-23962300D01*
X5621200Y-23962300D02*
X4658900Y-23000000D01*
X4658900Y-23000000D02*
X4575300Y-23000000D01*
X5301800Y-25993500D02*
X4793400Y-25485100D01*
X4793400Y-25485100D02*
X4618700Y-25659800D01*
X4618700Y-25659800D02*
X759600Y-25659800D01*
X759600Y-25659800D02*
X-88900Y-26508300D01*
X-88900Y-26508300D02*
X-88900Y-34862900D01*
X-88900Y-34862900D02*
X-2354300Y-37128300D01*
X-2354300Y-37128300D02*
X-2354300Y-39102500D01*
X-2354300Y-39102500D02*
X-876700Y-40580100D01*
X-876700Y-40580100D02*
X1530100Y-40580100D01*
X1530100Y-40580100D02*
X3000000Y-42050000D01*
X60150000Y-34050000D02*
X59932200Y-33832200D01*
X59932200Y-33832200D02*
X59932200Y-31289500D01*
X41100000Y-39050000D02*
X41100000Y-37524700D01*
X51044500Y-71843700D02*
X51044500Y-73406200D01*
X51044500Y-73406200D02*
X47620300Y-76830400D01*
X3000000Y-42050000D02*
X4575300Y-42050000D01*
X4855500Y-42472400D02*
X4575300Y-42192200D01*
X4575300Y-42192200D02*
X4575300Y-42050000D01*
X4575300Y-23000000D02*
X4575300Y-22331200D01*
X4575300Y-22331200D02*
X4121300Y-21877200D01*
X4121300Y-21877200D02*
X3798500Y-21877200D01*
X71818900Y-19471700D02*
X69921700Y-17574500D01*
X69921700Y-17574500D02*
X69921700Y-16292700D01*
X69921700Y-16292700D02*
X70262400Y-15952000D01*
X70262400Y-15952000D02*
X70262400Y-902100D01*
X79273300Y-19862300D02*
X72209500Y-19862300D01*
X72209500Y-19862300D02*
X71818900Y-19471700D01*
X71818900Y-19471700D02*
X70046200Y-21244400D01*
X70046200Y-21244400D02*
X70046200Y-29143200D01*
X23625300Y-42050000D02*
X23910300Y-42050000D01*
X104070700Y-6950000D02*
X103708100Y-7312600D01*
X103708100Y-7312600D02*
X103708100Y-11521500D01*
X103708100Y-11521500D02*
X104405100Y-12218500D01*
X104405100Y-12218500D02*
X104405100Y-19845100D01*
X104405100Y-19845100D02*
X107798000Y-23238000D01*
X80775300Y-59100000D02*
X81270800Y-59595500D01*
X81270800Y-59595500D02*
X81270800Y-64189000D01*
X79200000Y-59100000D02*
X80775300Y-59100000D01*
X70262400Y-902100D02*
X65310300Y4050000D01*
X65310300Y4050000D02*
X60150000Y4050000D01*
X79987700Y-1950000D02*
X78939800Y-902100D01*
X78939800Y-902100D02*
X70262400Y-902100D01*
X79273300Y-21000000D02*
X79273300Y-19862300D01*
X41100000Y-76024200D02*
X37546000Y-76024200D01*
X37546000Y-76024200D02*
X35761000Y-74239200D01*
X35761000Y-74239200D02*
X35761000Y-72213000D01*
X35761000Y-72213000D02*
X37862900Y-70111100D01*
X37862900Y-70111100D02*
X37862900Y-63781100D01*
X60150000Y-53100000D02*
X59092600Y-52042600D01*
X59092600Y-52042600D02*
X52210500Y-52042600D01*
X52210500Y-52042600D02*
X51550100Y-52703000D01*
X51550100Y-52703000D02*
X51550100Y-58375000D01*
X51550100Y-58375000D02*
X52049700Y-58874600D01*
X41100000Y-20000000D02*
X41100000Y-18866800D01*
X3000000Y-23000000D02*
X4575300Y-23000000D01*
X104070700Y-6950000D02*
X99825300Y-6950000D01*
X59900700Y-13890900D02*
X53208000Y-13890900D01*
X53208000Y-13890900D02*
X50851400Y-11534300D01*
X50851400Y-11534300D02*
X50851400Y-10281100D01*
X50851400Y-10281100D02*
X51193200Y-9939300D01*
X51193200Y-9939300D02*
X51193200Y-4704800D01*
X51193200Y-4704800D02*
X47128800Y-640400D01*
X60150000Y-15000000D02*
X59900700Y-14750700D01*
X59900700Y-14750700D02*
X59900700Y-13890900D01*
X23625300Y-23000000D02*
X27750000Y-27124700D01*
X27750000Y-27124700D02*
X27750000Y-34283500D01*
X27750000Y-34283500D02*
X28200300Y-34733800D01*
X28200300Y-34733800D02*
X28200300Y-37475000D01*
X28200300Y-37475000D02*
X23625300Y-42050000D01*
X98250000Y-64100000D02*
X100717400Y-64100000D01*
X79987700Y-1950000D02*
X80775300Y-1950000D01*
X79200000Y-1950000D02*
X79987700Y-1950000D01*
X98250000Y-45050000D02*
X98319900Y-44980100D01*
X98319900Y-44980100D02*
X98319900Y-43322800D01*
X110718700Y-42288000D02*
X110718700Y-39653100D01*
X110718700Y-39653100D02*
X108273600Y-37208000D01*
X108273600Y-37208000D02*
X107303500Y-37208000D01*
X107303500Y-37208000D02*
X106565200Y-36469700D01*
X106565200Y-36469700D02*
X106565200Y-27010800D01*
X106565200Y-27010800D02*
X107798000Y-25778000D01*
X110718700Y-50440000D02*
X110718700Y-42288000D01*
X99825300Y-26000000D02*
X99825300Y-24883600D01*
X98250000Y-26000000D02*
X99825300Y-26000000D01*
X60150000Y-72150000D02*
X60150000Y-70619900D01*
X41100000Y-77150000D02*
X41100000Y-76024200D01*
X42675300Y-58100000D02*
X42957900Y-58100000D01*
X41100000Y-58100000D02*
X42675300Y-58100000D01*
X23625300Y-61100000D02*
X23904000Y-61378700D01*
X23904000Y-61378700D02*
X23904000Y-61470800D01*
X23904000Y-61470800D02*
X27779200Y-65346000D01*
X27779200Y-65346000D02*
X27779200Y-72383500D01*
X27779200Y-72383500D02*
X28229500Y-72833800D01*
X28229500Y-72833800D02*
X28229500Y-75545800D01*
X28229500Y-75545800D02*
X23768200Y-80007100D01*
X22050000Y-42050000D02*
X23625300Y-42050000D01*
X40968900Y155700D02*
X28038000Y155700D01*
X28038000Y155700D02*
X23932300Y-3950000D01*
X3000000Y-80150000D02*
X4718600Y-80150000D01*
X4718600Y-80150000D02*
X4858800Y-80290200D01*
X3000000Y-80150000D02*
X3000000Y-75783500D01*
X3000000Y-75783500D02*
X660000Y-73443500D01*
X660000Y-73443500D02*
X660000Y-70320200D01*
X660000Y-70320200D02*
X5066200Y-65914000D01*
X5066200Y-65914000D02*
X5066200Y-62529900D01*
X5066200Y-62529900D02*
X3318200Y-60781800D01*
X23625300Y-23000000D02*
X23625300Y-23200300D01*
X23625300Y-23200300D02*
X23924900Y-23499900D01*
X22050000Y-23000000D02*
X23625300Y-23000000D01*
X3318200Y-60781800D02*
X3484800Y-60615200D01*
X3484800Y-60615200D02*
X3484800Y-60406700D01*
X3484800Y-60406700D02*
X3927700Y-59963800D01*
X112094000Y-50440000D02*
X110718700Y-50440000D01*
X23768200Y-80007100D02*
X23911100Y-80150000D01*
X23625300Y-80150000D02*
X23768200Y-80007100D01*
X107798000Y-23238000D02*
X107798000Y-25778000D01*
X98250000Y-83150000D02*
X98250000Y-81897200D01*
X110500200Y-73549800D02*
X110050000Y-74000000D01*
X110718700Y-56390000D02*
X110718700Y-57117400D01*
X110718700Y-57117400D02*
X111110100Y-57508800D01*
X111110100Y-57508800D02*
X111110100Y-72939900D01*
X111110100Y-72939900D02*
X110500200Y-73549800D01*
X110500200Y-73549800D02*
X111169800Y-74219400D01*
X98250000Y-6950000D02*
X99825300Y-6950000D01*
X80775300Y-1950000D02*
X84672900Y-5847600D01*
X84672900Y-5847600D02*
X97147600Y-5847600D01*
X97147600Y-5847600D02*
X98250000Y-6950000D01*
X79200000Y-78150000D02*
X80775300Y-78150000D01*
X80775300Y-78150000D02*
X80775300Y-77460900D01*
X80775300Y-77460900D02*
X80360100Y-77045700D01*
X79200000Y-40050000D02*
X79200000Y-38903300D01*
X79200000Y-21000000D02*
X79273300Y-21000000D01*
X80775300Y-1950000D02*
X80775300Y-1310000D01*
X80775300Y-1310000D02*
X80308700Y-843400D01*
X47128800Y-640400D02*
X41100000Y-640400D01*
X59266400Y4933600D02*
X59041300Y5158700D01*
X59041300Y5158700D02*
X52927900Y5158700D01*
X52927900Y5158700D02*
X47128800Y-640400D01*
X60150000Y4050000D02*
X59266400Y4933600D01*
X59266400Y4933600D02*
X59494500Y5161700D01*
X41100000Y-640400D02*
X41100000Y-950000D01*
X40968900Y155700D02*
X40968900Y-509300D01*
X40968900Y-509300D02*
X41100000Y-640400D01*
X22050000Y-80150000D02*
X23625300Y-80150000D01*
X22050000Y-61100000D02*
X23625300Y-61100000D01*
X22050000Y-3950000D02*
X23932300Y-3950000D01*
X5206400Y-3318900D02*
X5677100Y-2848200D01*
X5677100Y-2848200D02*
X20948200Y-2848200D01*
X20948200Y-2848200D02*
X22050000Y-3950000D01*
X3000000Y-61100000D02*
X3318200Y-60781800D01*
X4575300Y-3950000D02*
X5206400Y-3318900D01*
X3000000Y-3950000D02*
X4575300Y-3950000D01*
X112094000Y-56390000D02*
X110718700Y-56390000D01*
X85257000Y-49844900D02*
X85350400Y-49938300D01*
X85350400Y-49938300D02*
X85350400Y-53941000D01*
X85350400Y-53941000D02*
X82228200Y-57063200D01*
X82228200Y-57063200D02*
X82228200Y-64307800D01*
X82228200Y-64307800D02*
X81576100Y-64959900D01*
X81576100Y-64959900D02*
X80949400Y-64959900D01*
X80949400Y-64959900D02*
X80100000Y-64110500D01*
X80100000Y-64110500D02*
X80100000Y-62900000D01*
X81225300Y-43900000D02*
X85257000Y-47931700D01*
X85257000Y-47931700D02*
X85257000Y-49844900D01*
X81225300Y-43900000D02*
X85361800Y-39763500D01*
X85361800Y-39763500D02*
X85361800Y-28858300D01*
X85361800Y-28858300D02*
X80278200Y-23774700D01*
X80278200Y-23774700D02*
X80100000Y-23774700D01*
X77600000Y-43900000D02*
X78700000Y-43900000D01*
X79265500Y-5900000D02*
X80100000Y-5900000D01*
X78700000Y-5900000D02*
X79265500Y-5900000D01*
X79265500Y-5900000D02*
X79265500Y-9852700D01*
X77600000Y-62900000D02*
X77600000Y-63825300D01*
X77600000Y-63825300D02*
X76870300Y-64555000D01*
X76870300Y-64555000D02*
X76870300Y-71453800D01*
X76870300Y-71453800D02*
X81229700Y-75813200D01*
X81229700Y-75813200D02*
X81229700Y-80026300D01*
X81229700Y-80026300D02*
X80381300Y-80874700D01*
X80381300Y-80874700D02*
X80100000Y-80874700D01*
X77600000Y-62900000D02*
X78700000Y-62900000D01*
X80100000Y-82000000D02*
X80100000Y-80874700D01*
X80100000Y-43900000D02*
X81225300Y-43900000D01*
X77600000Y-5900000D02*
X78700000Y-5900000D01*
X80100000Y-24900000D02*
X80100000Y-23774700D01*
X78700000Y-82000000D02*
X80100000Y-82000000D01*
X77600000Y-82000000D02*
X78700000Y-82000000D01*
X78700000Y-62900000D02*
X80100000Y-62900000D01*
X78700000Y-43900000D02*
X80100000Y-43900000D01*
X77600000Y-24900000D02*
X78700000Y-24900000D01*
X78700000Y-24900000D02*
X80100000Y-24900000D01*
X42000000Y-79874700D02*
X42260700Y-79874700D01*
X42260700Y-79874700D02*
X42715000Y-79420400D01*
X42715000Y-79420400D02*
X42715000Y-74398500D01*
X42715000Y-74398500D02*
X38760000Y-70443500D01*
X38760000Y-70443500D02*
X38760000Y-63565300D01*
X38760000Y-63565300D02*
X39500000Y-62825300D01*
X42000000Y-41774700D02*
X42650300Y-41774700D01*
X42650300Y-41774700D02*
X47250400Y-37174600D01*
X47250400Y-37174600D02*
X47250400Y-24757200D01*
X47250400Y-24757200D02*
X46609900Y-24116700D01*
X47255600Y-23471000D02*
X47255600Y-15400700D01*
X47255600Y-15400700D02*
X47705900Y-14950400D01*
X47705900Y-14950400D02*
X47705900Y-12087800D01*
X47705900Y-12087800D02*
X47255600Y-11637500D01*
X47255600Y-11637500D02*
X47255600Y-10182400D01*
X47255600Y-10182400D02*
X41973200Y-4900000D01*
X41973200Y-4900000D02*
X41300000Y-4900000D01*
X41300000Y-4900000D02*
X42000000Y-4900000D01*
X40600000Y-4900000D02*
X41300000Y-4900000D01*
X46609900Y-24116700D02*
X47255600Y-23471000D01*
X43125300Y-23900000D02*
X43342000Y-24116700D01*
X43342000Y-24116700D02*
X46609900Y-24116700D01*
X39500000Y-61900000D02*
X39500000Y-62825300D01*
X39500000Y-61900000D02*
X40600000Y-61900000D01*
X42000000Y-81000000D02*
X42000000Y-79874700D01*
X39500000Y-42900000D02*
X39500000Y-43825300D01*
X39500000Y-43825300D02*
X38760000Y-44565300D01*
X38760000Y-44565300D02*
X38760000Y-51393500D01*
X38760000Y-51393500D02*
X43690700Y-56324200D01*
X43690700Y-56324200D02*
X43690700Y-61334600D01*
X43690700Y-61334600D02*
X43125300Y-61900000D01*
X39500000Y-42900000D02*
X40600000Y-42900000D01*
X42000000Y-61900000D02*
X43125300Y-61900000D01*
X42000000Y-23900000D02*
X43125300Y-23900000D01*
X42000000Y-42900000D02*
X42000000Y-41774700D01*
X39500000Y-4900000D02*
X40600000Y-4900000D01*
X42000000Y-81000000D02*
X40600000Y-81000000D01*
X39500000Y-80537300D02*
X40137300Y-80537300D01*
X40137300Y-80537300D02*
X40600000Y-81000000D01*
X39500000Y-81000000D02*
X39500000Y-80537300D01*
X40600000Y-61900000D02*
X42000000Y-61900000D01*
X40600000Y-42900000D02*
X42000000Y-42900000D01*
X39500000Y-23900000D02*
X40600000Y-23900000D01*
X40600000Y-23900000D02*
X42000000Y-23900000D01*
X-4575300Y-5550000D02*
X-5799900Y-6774600D01*
X-5799900Y-6774600D02*
X-5800000Y-6774600D01*
X-5800000Y-6774600D02*
X-5800000Y-17814400D01*
X-5800000Y-17814400D02*
X-6259600Y-18274000D01*
X-6259600Y-18274000D02*
X-6259600Y-22938500D01*
X-6259600Y-22938500D02*
X-5906900Y-23291200D01*
X-4872300Y-24600000D02*
X-4872300Y-24348600D01*
X-4859300Y-43650000D02*
X-6256200Y-42253100D01*
X-6256200Y-42253100D02*
X-6256200Y-37288700D01*
X-6256200Y-37288700D02*
X-5959600Y-36992100D01*
X-5959600Y-36992100D02*
X-5959600Y-25687300D01*
X-5959600Y-25687300D02*
X-4872300Y-24600000D01*
X-4872300Y-24600000D02*
X-4575300Y-24600000D01*
X44653200Y-20946400D02*
X45610800Y-19988800D01*
X45610800Y-19988800D02*
X45610800Y-18095400D01*
X35100000Y-21600000D02*
X36133400Y-22633400D01*
X36133400Y-22633400D02*
X43037200Y-22633400D01*
X43037200Y-22633400D02*
X44653200Y-21017400D01*
X44653200Y-21017400D02*
X44653200Y-20946400D01*
X90285800Y-8550000D02*
X89293200Y-9542600D01*
X89293200Y-9542600D02*
X89293200Y-20939300D01*
X89293200Y-20939300D02*
X88983700Y-21248800D01*
X88983700Y-21248800D02*
X88983700Y-25420000D01*
X88983700Y-25420000D02*
X89353800Y-25790100D01*
X89353800Y-25790100D02*
X89353800Y-26279100D01*
X89353800Y-26279100D02*
X90674700Y-27600000D01*
X62595800Y-58061600D02*
X57835800Y-58061600D01*
X57835800Y-58061600D02*
X57309000Y-57534800D01*
X57309000Y-57534800D02*
X57309000Y-56550900D01*
X57309000Y-56550900D02*
X56532700Y-55774600D01*
X56532700Y-55774600D02*
X55224600Y-55774600D01*
X55224600Y-55774600D02*
X54150000Y-54700000D01*
X71233000Y-79750000D02*
X66750700Y-75267700D01*
X66750700Y-75267700D02*
X66750700Y-64551000D01*
X66750700Y-64551000D02*
X65887200Y-63687500D01*
X65887200Y-63687500D02*
X65887200Y-61353000D01*
X65887200Y-61353000D02*
X62595800Y-58061600D01*
X62798900Y-51541600D02*
X62595800Y-51744700D01*
X62595800Y-51744700D02*
X62595800Y-58061600D01*
X56885500Y-21821000D02*
X56885500Y-26948100D01*
X56885500Y-26948100D02*
X52574700Y-31258900D01*
X52574700Y-31258900D02*
X52574700Y-35650000D01*
X54150000Y-16600000D02*
X55502000Y-17952000D01*
X55502000Y-17952000D02*
X56665300Y-17952000D01*
X56665300Y-17952000D02*
X56885500Y-18172200D01*
X56885500Y-18172200D02*
X56885500Y-21821000D01*
X56885500Y-21821000D02*
X57430500Y-21821000D01*
X45610800Y-18095400D02*
X45610800Y-16395200D01*
X45610800Y-16395200D02*
X47255600Y-14750400D01*
X47255600Y-14750400D02*
X47255600Y-12499700D01*
X47255600Y-12499700D02*
X46805300Y-12049400D01*
X46805300Y-12049400D02*
X46805300Y-10369000D01*
X46805300Y-10369000D02*
X45264300Y-8828000D01*
X45264300Y-8828000D02*
X41480600Y-8828000D01*
X41480600Y-8828000D02*
X38179000Y-5526400D01*
X38179000Y-5526400D02*
X38179000Y-4489700D01*
X38179000Y-4489700D02*
X37463900Y-3774600D01*
X37463900Y-3774600D02*
X36324600Y-3774600D01*
X36324600Y-3774600D02*
X35100000Y-2550000D01*
X35100000Y-78750000D02*
X33136000Y-78750000D01*
X16050000Y-81750000D02*
X17174600Y-82874600D01*
X17174600Y-82874600D02*
X18454600Y-82874600D01*
X18454600Y-82874600D02*
X19184000Y-83604000D01*
X19184000Y-83604000D02*
X19184000Y-84642500D01*
X19184000Y-84642500D02*
X19666900Y-85125400D01*
X19666900Y-85125400D02*
X26760600Y-85125400D01*
X26760600Y-85125400D02*
X33136000Y-78750000D01*
X54150000Y-73750000D02*
X52474900Y-73750000D01*
X52474900Y-73750000D02*
X43643400Y-82581500D01*
X43643400Y-82581500D02*
X38506100Y-82581500D01*
X38506100Y-82581500D02*
X37924200Y-81999600D01*
X37924200Y-81999600D02*
X37924200Y-80339900D01*
X37924200Y-80339900D02*
X37458900Y-79874600D01*
X37458900Y-79874600D02*
X36224600Y-79874600D01*
X36224600Y-79874600D02*
X35100000Y-78750000D01*
X90674700Y-8550000D02*
X90285800Y-8550000D01*
X54150000Y-16600000D02*
X52271500Y-16600000D01*
X70252900Y-47595200D02*
X70252900Y-43021800D01*
X70252900Y-43021800D02*
X71624700Y-41650000D01*
X68812800Y-47595200D02*
X70252900Y-47595200D01*
X71624700Y-60700000D02*
X69893900Y-58969200D01*
X69893900Y-58969200D02*
X69893900Y-54388600D01*
X69893900Y-54388600D02*
X70252900Y-54029600D01*
X70252900Y-54029600D02*
X70252900Y-47595200D01*
X14388000Y-43736700D02*
X14191900Y-43540600D01*
X14388000Y-43736700D02*
X13318300Y-44806400D01*
X13318300Y-44806400D02*
X13318300Y-55814200D01*
X13318300Y-55814200D02*
X12721500Y-56411000D01*
X12721500Y-56411000D02*
X12721500Y-59944500D01*
X12721500Y-59944500D02*
X12721400Y-59944500D01*
X14474700Y-43650000D02*
X14388000Y-43736700D01*
X33234000Y-59427300D02*
X33524700Y-59427300D01*
X33524700Y-59427300D02*
X33524700Y-59700000D01*
X35100000Y-40650000D02*
X36153400Y-41703400D01*
X36153400Y-41703400D02*
X37407400Y-41703400D01*
X37407400Y-41703400D02*
X37856900Y-42152900D01*
X37856900Y-42152900D02*
X37856900Y-50976700D01*
X37856900Y-50976700D02*
X33524700Y-55308900D01*
X33524700Y-55308900D02*
X33524700Y-59427300D01*
X-5318400Y-80154000D02*
X-4575300Y-80897100D01*
X-4575300Y-80897100D02*
X-4575300Y-81750000D01*
X-4325900Y-63063200D02*
X-5956800Y-64694100D01*
X-5956800Y-64694100D02*
X-5956800Y-75089300D01*
X-5956800Y-75089300D02*
X-6312600Y-75445100D01*
X-6312600Y-75445100D02*
X-6312600Y-79159800D01*
X-6312600Y-79159800D02*
X-5318400Y-80154000D01*
X-3962700Y-62700000D02*
X-6308900Y-60353800D01*
X-6308900Y-60353800D02*
X-6308900Y-56423300D01*
X-6308900Y-56423300D02*
X-5640900Y-55755300D01*
X-5640900Y-55755300D02*
X-5640900Y-44715600D01*
X-5640900Y-44715600D02*
X-4575300Y-43650000D01*
X-3787600Y-81750000D02*
X-2479600Y-83058000D01*
X-2479600Y-83058000D02*
X-410500Y-83058000D01*
X-410500Y-83058000D02*
X0Y-83468500D01*
X0Y-83468500D02*
X0Y-84504100D01*
X0Y-84504100D02*
X621300Y-85125400D01*
X621300Y-85125400D02*
X10517300Y-85125400D01*
X10517300Y-85125400D02*
X14183700Y-81459000D01*
X-3787600Y-81750000D02*
X-4575300Y-81750000D01*
X-3000000Y-81750000D02*
X-3787600Y-81750000D01*
X91462400Y-46650000D02*
X92516700Y-47704300D01*
X92516700Y-47704300D02*
X100042500Y-47704300D01*
X100042500Y-47704300D02*
X108450000Y-56111800D01*
X92250000Y-27600000D02*
X90674700Y-27600000D01*
X92250000Y-8550000D02*
X90674700Y-8550000D01*
X73200000Y-3550000D02*
X71624700Y-3550000D01*
X71624700Y-3550000D02*
X71163100Y-4011600D01*
X71163100Y-4011600D02*
X71163100Y-6355600D01*
X71163100Y-6355600D02*
X71832900Y-7025400D01*
X71832900Y-7025400D02*
X73250200Y-7025400D01*
X73250200Y-7025400D02*
X73385600Y-7160800D01*
X52574700Y-35650000D02*
X52299600Y-35374900D01*
X52299600Y-35374900D02*
X52299600Y-35364100D01*
X54150000Y-35650000D02*
X52574700Y-35650000D01*
X54150000Y2450000D02*
X55193400Y1406600D01*
X55193400Y1406600D02*
X56349800Y1406600D01*
X56349800Y1406600D02*
X56875400Y881000D01*
X56875400Y881000D02*
X56875400Y-729800D01*
X56875400Y-729800D02*
X55552200Y-2053000D01*
X35100000Y-40650000D02*
X33524700Y-40650000D01*
X33221700Y-40229100D02*
X33524700Y-40532100D01*
X33524700Y-40532100D02*
X33524700Y-40650000D01*
X35100000Y-59700000D02*
X33524700Y-59700000D01*
X33228400Y-2364400D02*
X33414000Y-2550000D01*
X33414000Y-2550000D02*
X33524700Y-2550000D01*
X14474700Y-81750000D02*
X14183700Y-81459000D01*
X14474700Y-62700000D02*
X12721400Y-60946700D01*
X12721400Y-60946700D02*
X12721400Y-59944500D01*
X-3962700Y-62700000D02*
X-4325900Y-63063200D01*
X-4871100Y-62518000D02*
X-4325900Y-63063200D01*
X-4859300Y-43650000D02*
X-4575300Y-43650000D01*
X-3000000Y-24600000D02*
X-4575300Y-24600000D01*
X16749000Y-6675000D02*
X16050000Y-5976000D01*
X16050000Y-5976000D02*
X16050000Y-5550000D01*
X92250000Y-84750000D02*
X90674700Y-84750000D01*
X-3000000Y-5550000D02*
X-4575300Y-5550000D01*
X-4575300Y-5550000D02*
X-4575300Y-4937000D01*
X-4575300Y-4937000D02*
X-5333200Y-4179100D01*
X123038000Y-28318000D02*
X123038000Y-25778000D01*
X108450000Y-66126500D02*
X108450000Y-68000000D01*
X108450000Y-56111800D02*
X108450000Y-66126500D01*
X92563700Y-66805700D02*
X92563700Y-66013700D01*
X92563700Y-66013700D02*
X92250000Y-65700000D01*
X90674700Y-84750000D02*
X90674700Y-84527700D01*
X90674700Y-84527700D02*
X90388300Y-84241300D01*
X110718600Y-54640000D02*
X109246800Y-56111800D01*
X109246800Y-56111800D02*
X108450000Y-56111800D01*
X91462400Y-46650000D02*
X90674700Y-46650000D01*
X92250000Y-46650000D02*
X91462400Y-46650000D01*
X90395000Y-46661200D02*
X90406200Y-46650000D01*
X90406200Y-46650000D02*
X90674700Y-46650000D01*
X71233000Y-79750000D02*
X73200000Y-79750000D01*
X71339200Y-59936700D02*
X71624700Y-60222200D01*
X71624700Y-60222200D02*
X71624700Y-60700000D01*
X73200000Y-60700000D02*
X71624700Y-60700000D01*
X73200000Y-41650000D02*
X71624700Y-41650000D01*
X71346200Y-40957800D02*
X71624700Y-41236300D01*
X71624700Y-41236300D02*
X71624700Y-41650000D01*
X71624700Y-22600000D02*
X71341600Y-22600000D01*
X73200000Y-22600000D02*
X71624700Y-22600000D01*
X35100000Y-2550000D02*
X33524700Y-2550000D01*
X16050000Y-5550000D02*
X14474700Y-5550000D01*
X16050000Y-81750000D02*
X14474700Y-81750000D01*
X16050000Y-43650000D02*
X14474700Y-43650000D01*
X16050000Y-62700000D02*
X14474700Y-62700000D01*
X14182500Y-23927200D02*
X14474700Y-24219400D01*
X14474700Y-24219400D02*
X14474700Y-24600000D01*
X14474700Y-24600000D02*
X12735000Y-22860300D01*
X12735000Y-22860300D02*
X12735000Y-18297500D01*
X12735000Y-18297500D02*
X13249900Y-17782600D01*
X13249900Y-17782600D02*
X13249900Y-6774800D01*
X13249900Y-6774800D02*
X14474700Y-5550000D01*
X16050000Y-24600000D02*
X14474700Y-24600000D01*
X-3000000Y-43650000D02*
X-4575300Y-43650000D01*
X-3000000Y-62700000D02*
X-3962700Y-62700000D01*
X110594000Y-54640000D02*
X110718600Y-54640000D01*
X110769000Y-54640000D02*
X110718600Y-54640000D01*
X110769000Y-54640000D02*
X111969300Y-54640000D01*
X110594000Y-52190000D02*
X111969300Y-52190000D01*
X111969300Y-52190000D02*
X111969300Y-54640000D01*
X119092000Y-46612315D02*
X119092000Y-47178000D01*
X119092000Y-28484725D02*
X119092000Y-46612315D01*
X123038000Y-25778000D02*
X121798725Y-25778000D01*
X121798725Y-25778000D02*
X119092000Y-28484725D01*
X100074900Y-67122100D02*
X99727400Y-66774700D01*
X99727400Y-66774700D02*
X99150000Y-66774700D01*
X105352700Y-72400000D02*
X100074900Y-67122100D01*
X99150000Y-50025300D02*
X99575300Y-50025300D01*
X99575300Y-50025300D02*
X104400400Y-54850400D01*
X104400400Y-54850400D02*
X104400400Y-62796600D01*
X104400400Y-62796600D02*
X100074900Y-67122100D01*
X99150000Y-48900000D02*
X99150000Y-50025300D01*
X97750000Y-48900000D02*
X99150000Y-48900000D01*
X96650000Y-10900000D02*
X96650000Y-11825300D01*
X96650000Y-11825300D02*
X95914900Y-12560400D01*
X95914900Y-12560400D02*
X95914900Y-19322800D01*
X95914900Y-19322800D02*
X100832900Y-24240800D01*
X100832900Y-24240800D02*
X100832900Y-27935800D01*
X100832900Y-27935800D02*
X99994000Y-28774700D01*
X99994000Y-28774700D02*
X99150000Y-28774700D01*
X96650000Y-10900000D02*
X97750000Y-10900000D01*
X99150000Y-29900000D02*
X99150000Y-28774700D01*
X97750000Y-29900000D02*
X99150000Y-29900000D01*
X106278000Y-73500000D02*
X106278000Y-74900000D01*
X105815400Y-72400000D02*
X106278000Y-72862600D01*
X106278000Y-72862600D02*
X106278000Y-73500000D01*
X105815400Y-72400000D02*
X105352700Y-72400000D01*
X106278000Y-72400000D02*
X105815400Y-72400000D01*
X99150000Y-87000000D02*
X99150000Y-85874700D01*
X99150000Y-85874700D02*
X99431300Y-85874700D01*
X99431300Y-85874700D02*
X106278000Y-79028000D01*
X106278000Y-79028000D02*
X106278000Y-74900000D01*
X97750000Y-87000000D02*
X99150000Y-87000000D01*
X96650000Y-87000000D02*
X97750000Y-87000000D01*
X97750000Y-67900000D02*
X99150000Y-67900000D01*
X96650000Y-67900000D02*
X97750000Y-67900000D01*
X96650000Y-48900000D02*
X97750000Y-48900000D01*
X99150000Y-67900000D02*
X99150000Y-66774700D01*
X96650000Y-29900000D02*
X97750000Y-29900000D01*
X97750000Y-10900000D02*
X99150000Y-10900000D01*
X52044600Y-59958700D02*
X51097600Y-59011700D01*
X51097600Y-59011700D02*
X51097600Y-51876400D01*
X51097600Y-51876400D02*
X57780000Y-45194000D01*
X57780000Y-45194000D02*
X57780000Y-40879200D01*
X57780000Y-40879200D02*
X58061800Y-40597400D01*
X58061800Y-40597400D02*
X58061800Y-39996400D01*
X58061800Y-39996400D02*
X57780000Y-39714600D01*
X57780000Y-39714600D02*
X57780000Y-39595300D01*
X57780000Y-39595300D02*
X58550000Y-38825300D01*
X58550000Y-37900000D02*
X58550000Y-38825300D01*
X58550000Y-37900000D02*
X59650000Y-37900000D01*
X58550000Y-19825300D02*
X58550000Y-21727300D01*
X58550000Y-21727300D02*
X57835600Y-22441700D01*
X57835600Y-22441700D02*
X57835600Y-27369100D01*
X57835600Y-27369100D02*
X61441800Y-30975300D01*
X61441800Y-30975300D02*
X61441800Y-32431900D01*
X61441800Y-32431900D02*
X61725400Y-32715500D01*
X61725400Y-32715500D02*
X61725400Y-36285700D01*
X61725400Y-36285700D02*
X61236400Y-36774700D01*
X61236400Y-36774700D02*
X61050000Y-36774700D01*
X61050000Y-74874700D02*
X62034600Y-74874700D01*
X62034600Y-74874700D02*
X66300300Y-70609000D01*
X66300300Y-70609000D02*
X66300300Y-64737500D01*
X66300300Y-64737500D02*
X65040400Y-63477600D01*
X65040400Y-63477600D02*
X65040400Y-61725200D01*
X65040400Y-61725200D02*
X62120600Y-58805400D01*
X62120600Y-58805400D02*
X60178100Y-58805400D01*
X61050000Y-76000000D02*
X61050000Y-74874700D01*
X58550000Y-18900000D02*
X58550000Y-19825300D01*
X58550000Y-18900000D02*
X59650000Y-18900000D01*
X61050000Y-37900000D02*
X61050000Y-36774700D01*
X61050000Y-18900000D02*
X61050000Y-17774700D01*
X60350000Y100000D02*
X60462700Y100000D01*
X60462700Y100000D02*
X66337500Y-5774800D01*
X66337500Y-5774800D02*
X66337500Y-13331200D01*
X66337500Y-13331200D02*
X61894000Y-17774700D01*
X61894000Y-17774700D02*
X61050000Y-17774700D01*
X60350000Y100000D02*
X61050000Y100000D01*
X59650000Y100000D02*
X60350000Y100000D01*
X59650000Y-76000000D02*
X61050000Y-76000000D01*
X58550000Y-76000000D02*
X59650000Y-76000000D01*
X58550000Y-56900000D02*
X59650000Y-56900000D01*
X59650000Y-56900000D02*
X61050000Y-56900000D01*
X59650000Y-37900000D02*
X61050000Y-37900000D01*
X59650000Y-18900000D02*
X61050000Y-18900000D01*
X58550000Y100000D02*
X59650000Y100000D01*
X20450000Y-26900000D02*
X20450000Y-27825300D01*
X20450000Y-27825300D02*
X19728900Y-28546400D01*
X19728900Y-28546400D02*
X19728900Y-35029300D01*
X19728900Y-35029300D02*
X21369300Y-36669700D01*
X21369300Y-36669700D02*
X21369300Y-40399000D01*
X20450000Y-26900000D02*
X21550000Y-26900000D01*
X30180000Y-26900000D02*
X29904900Y-26624900D01*
X29904900Y-26624900D02*
X29904900Y-20856500D01*
X29904900Y-20856500D02*
X28930900Y-19882500D01*
X28930900Y-19882500D02*
X28930900Y-13881600D01*
X28930900Y-13881600D02*
X24074600Y-9025300D01*
X24074600Y-9025300D02*
X22950000Y-9025300D01*
X22950000Y-7900000D02*
X22950000Y-9025300D01*
X21550000Y-7900000D02*
X22950000Y-7900000D01*
X22950000Y-44774700D02*
X23204600Y-44774700D01*
X23204600Y-44774700D02*
X28454600Y-50024700D01*
X28454600Y-50024700D02*
X28454600Y-62586000D01*
X28454600Y-62586000D02*
X28904900Y-63036300D01*
X28904900Y-63036300D02*
X28904900Y-72010100D01*
X28904900Y-72010100D02*
X29137300Y-72242500D01*
X29137300Y-72242500D02*
X29137300Y-77672000D01*
X29137300Y-77672000D02*
X23934600Y-82874700D01*
X23934600Y-82874700D02*
X22950000Y-82874700D01*
X22950000Y-84000000D02*
X22950000Y-82874700D01*
X20450000Y-7900000D02*
X21550000Y-7900000D01*
X22950000Y-45900000D02*
X22950000Y-44774700D01*
X21550000Y-84000000D02*
X22950000Y-84000000D01*
X20450000Y-84000000D02*
X21550000Y-84000000D01*
X20450000Y-64900000D02*
X21550000Y-64900000D01*
X21550000Y-64900000D02*
X22950000Y-64900000D01*
X20450000Y-45900000D02*
X21550000Y-45900000D01*
X21550000Y-45900000D02*
X22950000Y-45900000D01*
X21550000Y-26900000D02*
X22950000Y-26900000D01*
X68640000Y4540000D02*
X68010000Y4540000D01*
X68010000Y4540000D02*
X68000000Y4530000D01*
X73750000Y-5900000D02*
X72300000Y-5900000D01*
X74800000Y-5900000D02*
X73750000Y-5900000D01*
X123038000Y-23238000D02*
X115090700Y-23238000D01*
X115090700Y-23238000D02*
X108809100Y-16956400D01*
X108809100Y-16956400D02*
X107512100Y-16956400D01*
X107512100Y-16956400D02*
X105696700Y-15141000D01*
X105696700Y-15141000D02*
X105696700Y-103900D01*
X105696700Y-103900D02*
X105182000Y410800D01*
X115162700Y-18148000D02*
X115162700Y-17780600D01*
X115162700Y-17780600D02*
X114354800Y-16972700D01*
X114354800Y-16972700D02*
X109594600Y-16972700D01*
X109594600Y-16972700D02*
X108894000Y-16272100D01*
X108894000Y-16272100D02*
X108894000Y-12264400D01*
X108894000Y-12264400D02*
X106147000Y-9517400D01*
X106147000Y-9517400D02*
X106147000Y473900D01*
X106147000Y473900D02*
X99766100Y6854800D01*
X99766100Y6854800D02*
X97215300Y6854800D01*
X97215300Y6854800D02*
X96990200Y6629700D01*
X96990200Y6629700D02*
X96054900Y6629700D01*
X95950000Y5502000D02*
X95950000Y6524800D01*
X95950000Y6524800D02*
X96054900Y6629700D01*
X116338000Y-18148000D02*
X115162700Y-18148000D01*
X13342900Y-79018200D02*
X12735700Y-78411000D01*
X12735700Y-78411000D02*
X12735700Y-75446800D01*
X12735700Y-75446800D02*
X13090400Y-75092100D01*
X13090400Y-75092100D02*
X13090400Y-66411900D01*
X13090400Y-66411900D02*
X9395900Y-62717400D01*
X9395900Y-62717400D02*
X9395900Y-15298900D01*
X9395900Y-15298900D02*
X7890400Y-13793400D01*
X7890400Y-13793400D02*
X7890400Y-8675200D01*
X7890400Y-8675200D02*
X4765200Y-5550000D01*
X14474700Y-80150000D02*
X13342900Y-79018200D01*
X4765200Y-5550000D02*
X4865800Y-5449400D01*
X3000000Y-5550000D02*
X4765200Y-5550000D01*
X16050000Y-80150000D02*
X14474700Y-80150000D01*
X4575300Y-24600000D02*
X4885200Y-24290100D01*
X4885200Y-24290100D02*
X4885200Y-24281400D01*
X-3503200Y-3450800D02*
X-3503200Y-3950000D01*
X-3503200Y-2809100D02*
X-3503200Y-3450800D01*
X-3503200Y-3450800D02*
X-5664500Y-3450800D01*
X-5664500Y-3450800D02*
X-6532400Y-4318700D01*
X-6532400Y-4318700D02*
X-6532400Y-9324000D01*
X3000000Y-24600000D02*
X4575300Y-24600000D01*
X-3000000Y-3950000D02*
X-3503200Y-3950000D01*
X-4575300Y-23000000D02*
X-9160300Y-27585000D01*
X-9160300Y-27585000D02*
X-9160300Y-47851300D01*
X3000000Y-43650000D02*
X4750100Y-43650000D01*
X4750100Y-43650000D02*
X4859700Y-43759600D01*
X-3000000Y-23000000D02*
X-4575300Y-23000000D01*
X-4575300Y-23000000D02*
X-4575300Y-21966200D01*
X3000000Y-62700000D02*
X1887600Y-63812400D01*
X1887600Y-63812400D02*
X658900Y-63812400D01*
X658900Y-63812400D02*
X274600Y-64196700D01*
X274600Y-64196700D02*
X274600Y-66105100D01*
X-3298400Y-40917300D02*
X-3298400Y-42050000D01*
X-3000000Y-42050000D02*
X-3298400Y-42050000D01*
X-3000000Y-61100000D02*
X-1536200Y-59636200D01*
X-1536200Y-59636200D02*
X2911000Y-59636200D01*
X2911000Y-59636200D02*
X3357100Y-59190100D01*
X3357100Y-59190100D02*
X4248900Y-59190100D01*
X4248900Y-59190100D02*
X5543900Y-60485100D01*
X5543900Y-60485100D02*
X5543900Y-63561000D01*
X5543900Y-63561000D02*
X6032000Y-64049100D01*
X6032000Y-64049100D02*
X6032100Y-64049100D01*
X6032100Y-64049100D02*
X6032100Y-67477100D01*
X6032100Y-67477100D02*
X9150400Y-70595400D01*
X9150400Y-70595400D02*
X9150400Y-77728900D01*
X9150400Y-77728900D02*
X4852300Y-82027000D01*
X3000000Y-81750000D02*
X4575300Y-81750000D01*
X4575300Y-81750000D02*
X4852300Y-82027000D01*
X-4575300Y-61100000D02*
X-4575300Y-60429800D01*
X-4575300Y-60429800D02*
X-4126800Y-59981300D01*
X-3000000Y-61100000D02*
X-4575300Y-61100000D01*
X-3000000Y-80150000D02*
X-4575300Y-80150000D01*
X-4575300Y-80150000D02*
X-4575300Y-79493700D01*
X-4575300Y-79493700D02*
X-4115800Y-79034200D01*
X22050000Y-5550000D02*
X20742000Y-6858000D01*
X20742000Y-6858000D02*
X19594400Y-6858000D01*
X19594400Y-6858000D02*
X19318800Y-7133600D01*
X19318800Y-7133600D02*
X19318800Y-8644600D01*
X19318800Y-8644600D02*
X22068500Y-11394300D01*
X22068500Y-11394300D02*
X25802100Y-11394300D01*
X25802100Y-11394300D02*
X28200300Y-13792500D01*
X28200300Y-13792500D02*
X28200300Y-20013700D01*
X28200300Y-20013700D02*
X29193300Y-21006700D01*
X29193300Y-21006700D02*
X29193300Y-27161300D01*
X29193300Y-27161300D02*
X28932000Y-27422600D01*
X28932000Y-27422600D02*
X28932000Y-33966400D01*
X28932000Y-33966400D02*
X29108600Y-34143000D01*
X29108600Y-34143000D02*
X29108600Y-44247100D01*
X29108600Y-44247100D02*
X28939600Y-44416100D01*
X28939600Y-44416100D02*
X28939600Y-60352600D01*
X28939600Y-60352600D02*
X32140400Y-63553400D01*
X32140400Y-63553400D02*
X32140400Y-72092100D01*
X32140400Y-72092100D02*
X31785700Y-72446800D01*
X31785700Y-72446800D02*
X31785700Y-73629300D01*
X31785700Y-73629300D02*
X34165800Y-76009400D01*
X34165800Y-76009400D02*
X35100000Y-76009400D01*
X23901900Y-5550000D02*
X22050000Y-5550000D01*
X35100000Y-77150000D02*
X35100000Y-76009400D01*
X23625300Y-24600000D02*
X23925300Y-24600000D01*
X22050000Y-24600000D02*
X23625300Y-24600000D01*
X22050000Y-24600000D02*
X20962700Y-25687300D01*
X20962700Y-25687300D02*
X14895200Y-25687300D01*
X14895200Y-25687300D02*
X9889600Y-20681700D01*
X9889600Y-20681700D02*
X9889600Y-12003300D01*
X9889600Y-12003300D02*
X12475300Y-9417600D01*
X12475300Y-9417600D02*
X12475300Y-4724600D01*
X12475300Y-4724600D02*
X13249900Y-3950000D01*
X14474700Y-3950000D02*
X13249900Y-3950000D01*
X16050000Y-3950000D02*
X14474700Y-3950000D01*
X24664800Y-43586700D02*
X28650600Y-39600900D01*
X28650600Y-39600900D02*
X28650600Y-34547200D01*
X28650600Y-34547200D02*
X28411800Y-34308400D01*
X28411800Y-34308400D02*
X28411800Y-21952600D01*
X24664800Y-43586700D02*
X23688600Y-43586700D01*
X23688600Y-43586700D02*
X23625300Y-43650000D01*
X22050000Y-43650000D02*
X23625300Y-43650000D01*
X14186900Y-22693900D02*
X14474700Y-22981700D01*
X14474700Y-22981700D02*
X14474700Y-23000000D01*
X16050000Y-23000000D02*
X14474700Y-23000000D01*
X18853700Y-63774600D02*
X14872000Y-63774600D01*
X14872000Y-63774600D02*
X9889600Y-58792200D01*
X9889600Y-58792200D02*
X9889600Y-45723100D01*
X9889600Y-45723100D02*
X13562700Y-42050000D01*
X22050000Y-62700000D02*
X20975400Y-63774600D01*
X20975400Y-63774600D02*
X18853700Y-63774600D01*
X18853700Y-65945400D02*
X18853700Y-63774600D01*
X14474700Y-42050000D02*
X13562700Y-42050000D01*
X16050000Y-42050000D02*
X14474700Y-42050000D01*
X23942100Y-60306300D02*
X23674800Y-60039000D01*
X23674800Y-60039000D02*
X17111000Y-60039000D01*
X17111000Y-60039000D02*
X16050000Y-61100000D01*
X23937900Y-81750000D02*
X28679800Y-77008100D01*
X28679800Y-77008100D02*
X28679800Y-72647200D01*
X28679800Y-72647200D02*
X28229500Y-72196900D01*
X28229500Y-72196900D02*
X28229500Y-64593700D01*
X28229500Y-64593700D02*
X23942100Y-60306300D01*
X22050000Y-81750000D02*
X23937900Y-81750000D01*
X42964200Y-2838900D02*
X47989600Y-7864300D01*
X47989600Y-7864300D02*
X47989600Y-11734600D01*
X47989600Y-11734600D02*
X48156200Y-11901200D01*
X48156200Y-11901200D02*
X48156200Y-15236100D01*
X48156200Y-15236100D02*
X47989600Y-15402700D01*
X47989600Y-15402700D02*
X47989600Y-34929100D01*
X47989600Y-34929100D02*
X51193200Y-38132700D01*
X51193200Y-38132700D02*
X51193200Y-48071200D01*
X51193200Y-48071200D02*
X50621900Y-48642500D01*
X50621900Y-48642500D02*
X50621900Y-59365000D01*
X50621900Y-59365000D02*
X51268700Y-60011800D01*
X51268700Y-60011800D02*
X51268700Y-67045700D01*
X51268700Y-67045700D02*
X50885500Y-67428900D01*
X50885500Y-67428900D02*
X50885500Y-70643000D01*
X50885500Y-70643000D02*
X52392500Y-72150000D01*
X52392500Y-72150000D02*
X52269600Y-72272900D01*
X54150000Y-72150000D02*
X52392500Y-72150000D01*
X41100000Y-2550000D02*
X42675300Y-2550000D01*
X42675300Y-2550000D02*
X42964200Y-2838900D01*
X42924000Y-21600000D02*
X42982600Y-21600000D01*
X42562700Y-21600000D02*
X42924000Y-21600000D01*
X42924000Y-21600000D02*
X42924000Y-17575000D01*
X42924000Y-17575000D02*
X38080100Y-12731100D01*
X38080100Y-12731100D02*
X38080100Y-10755500D01*
X38080100Y-10755500D02*
X32478700Y-5154100D01*
X32478700Y-5154100D02*
X32478700Y-1530900D01*
X32478700Y-1530900D02*
X33235100Y-774500D01*
X41100000Y-21600000D02*
X42562700Y-21600000D01*
X35100000Y-950000D02*
X33410600Y-950000D01*
X33410600Y-950000D02*
X33235100Y-774500D01*
X34312400Y-20000000D02*
X35359800Y-18952600D01*
X35359800Y-18952600D02*
X39791300Y-18952600D01*
X39791300Y-18952600D02*
X40657200Y-18086700D01*
X40657200Y-18086700D02*
X41508100Y-18086700D01*
X41508100Y-18086700D02*
X42138200Y-18716800D01*
X34312400Y-20000000D02*
X33524700Y-20000000D01*
X35100000Y-20000000D02*
X34312400Y-20000000D01*
X42675300Y-40364200D02*
X42675300Y-40650000D01*
X33524700Y-20000000D02*
X33063000Y-20461700D01*
X33063000Y-20461700D02*
X33063000Y-24861900D01*
X33063000Y-24861900D02*
X38575700Y-30374600D01*
X38575700Y-30374600D02*
X38575700Y-32159200D01*
X38575700Y-32159200D02*
X42675300Y-36258800D01*
X42675300Y-36258800D02*
X42675300Y-40364200D01*
X42675300Y-40364200D02*
X42961100Y-40364200D01*
X41100000Y-40650000D02*
X42675300Y-40650000D01*
X33230200Y-38755500D02*
X32140400Y-39845300D01*
X32140400Y-39845300D02*
X32140400Y-53042100D01*
X32140400Y-53042100D02*
X31841000Y-53341500D01*
X31841000Y-53341500D02*
X31841000Y-59066000D01*
X31841000Y-59066000D02*
X33549600Y-60774600D01*
X33549600Y-60774600D02*
X40025400Y-60774600D01*
X40025400Y-60774600D02*
X41100000Y-59700000D01*
X41100000Y-59700000D02*
X42745500Y-59700000D01*
X42745500Y-59700000D02*
X42961100Y-59915600D01*
X33230200Y-38755500D02*
X33524700Y-39050000D01*
X35100000Y-39050000D02*
X33524700Y-39050000D01*
X44141000Y-78407500D02*
X47287500Y-75261000D01*
X47287500Y-75261000D02*
X47287500Y-56939300D01*
X41100000Y-78750000D02*
X39975400Y-79874600D01*
X39975400Y-79874600D02*
X38734200Y-79874600D01*
X38734200Y-79874600D02*
X38374600Y-80234200D01*
X38374600Y-80234200D02*
X38374600Y-81783100D01*
X38374600Y-81783100D02*
X38716900Y-82125400D01*
X38716900Y-82125400D02*
X42989000Y-82125400D01*
X42989000Y-82125400D02*
X44141000Y-80973400D01*
X44141000Y-80973400D02*
X44141000Y-78407500D01*
X35100000Y-58100000D02*
X35100000Y-56939300D01*
X71587200Y-78112500D02*
X69885700Y-76411000D01*
X69885700Y-76411000D02*
X69885700Y-73446800D01*
X69885700Y-73446800D02*
X70240400Y-73092100D01*
X70240400Y-73092100D02*
X70240400Y-66503800D01*
X70240400Y-66503800D02*
X66562600Y-62826000D01*
X66562600Y-62826000D02*
X66562600Y-47912200D01*
X66562600Y-47912200D02*
X66815100Y-47659700D01*
X66815100Y-47659700D02*
X66815100Y-2639800D01*
X66815100Y-2639800D02*
X61725300Y2450000D01*
X71587200Y-78112500D02*
X71624700Y-78150000D01*
X71587200Y-78112500D02*
X71303900Y-78395800D01*
X61725300Y2450000D02*
X61725300Y2925600D01*
X61725300Y2925600D02*
X62003400Y3203700D01*
X73200000Y-78150000D02*
X71624700Y-78150000D01*
X60150000Y2450000D02*
X61725300Y2450000D01*
X61725300Y-16600000D02*
X62003600Y-16600000D01*
X61725300Y-16600000D02*
X61725300Y-12301900D01*
X61725300Y-12301900D02*
X57056800Y-7633400D01*
X57056800Y-7633400D02*
X57056800Y-5797300D01*
X57056800Y-5797300D02*
X52070300Y-810800D01*
X52070300Y-810800D02*
X52070300Y3275400D01*
X52070300Y3275400D02*
X52266400Y3471500D01*
X60150000Y-16600000D02*
X61725300Y-16600000D01*
X52574700Y4050000D02*
X52574700Y3779800D01*
X52574700Y3779800D02*
X52266400Y3471500D01*
X54150000Y4050000D02*
X52574700Y4050000D01*
X57261800Y-36704300D02*
X59095700Y-36704300D01*
X59095700Y-36704300D02*
X60150000Y-35650000D01*
X52295000Y-14831400D02*
X51193200Y-15933200D01*
X51193200Y-15933200D02*
X51193200Y-28989300D01*
X51193200Y-28989300D02*
X50862900Y-29319600D01*
X50862900Y-29319600D02*
X50862900Y-34953100D01*
X50862900Y-34953100D02*
X52614100Y-36704300D01*
X52614100Y-36704300D02*
X57261800Y-36704300D01*
X57261800Y-36704300D02*
X57261800Y-40222200D01*
X54150000Y-15000000D02*
X52463600Y-15000000D01*
X52463600Y-15000000D02*
X52295000Y-14831400D01*
X63171300Y-50441300D02*
X63547400Y-50817400D01*
X63547400Y-50817400D02*
X63547400Y-54466300D01*
X63547400Y-54466300D02*
X63321100Y-54692600D01*
X63171300Y-50441300D02*
X62809800Y-50441300D01*
X62809800Y-50441300D02*
X61725300Y-51525800D01*
X61725300Y-51525800D02*
X61725300Y-54700000D01*
X62167100Y-32131500D02*
X66337500Y-36301900D01*
X66337500Y-36301900D02*
X66337500Y-47275100D01*
X66337500Y-47275100D02*
X63171300Y-50441300D01*
X60150000Y-54700000D02*
X61725300Y-54700000D01*
X54150000Y-34050000D02*
X54150000Y-32938400D01*
X61725300Y-73750000D02*
X61725300Y-69358800D01*
X61725300Y-69358800D02*
X57810000Y-65443500D01*
X57810000Y-65443500D02*
X57810000Y-63053600D01*
X57810000Y-63053600D02*
X52102600Y-57346200D01*
X52102600Y-57346200D02*
X52102600Y-53336100D01*
X52102600Y-53336100D02*
X52338700Y-53100000D01*
X61725300Y-73750000D02*
X62037200Y-73750000D01*
X52338700Y-53100000D02*
X52338700Y-53034100D01*
X52338700Y-53034100D02*
X52296600Y-52992000D01*
X52574700Y-53100000D02*
X52338700Y-53100000D01*
X54150000Y-53100000D02*
X52574700Y-53100000D01*
X60150000Y-73750000D02*
X61725300Y-73750000D01*
X90395200Y-82960500D02*
X85350400Y-77915700D01*
X85350400Y-77915700D02*
X85350400Y-68876400D01*
X85350400Y-68876400D02*
X84292500Y-67818500D01*
X84292500Y-67818500D02*
X84292500Y-55635800D01*
X84292500Y-55635800D02*
X85982300Y-53946000D01*
X85982300Y-53946000D02*
X85982300Y-21497200D01*
X85982300Y-21497200D02*
X85532100Y-21047000D01*
X85532100Y-21047000D02*
X85532100Y-11908100D01*
X85532100Y-11908100D02*
X82054100Y-8430100D01*
X82054100Y-8430100D02*
X82054100Y-4774600D01*
X82054100Y-4774600D02*
X81061800Y-3782300D01*
X92250000Y-83150000D02*
X90584700Y-83150000D01*
X90584700Y-83150000D02*
X90395200Y-82960500D01*
X79200000Y-3550000D02*
X80829500Y-3550000D01*
X80829500Y-3550000D02*
X81061800Y-3782300D01*
X80775300Y-22600000D02*
X81081000Y-22600000D01*
X71314700Y-2404500D02*
X70712800Y-3006400D01*
X70712800Y-3006400D02*
X70712800Y-6621600D01*
X70712800Y-6621600D02*
X71627800Y-7536600D01*
X71627800Y-7536600D02*
X71787000Y-7536600D01*
X71787000Y-7536600D02*
X76867500Y-12617100D01*
X76867500Y-12617100D02*
X76867500Y-14301000D01*
X76867500Y-14301000D02*
X80775300Y-18208800D01*
X80775300Y-18208800D02*
X80775300Y-22600000D01*
X79200000Y-22600000D02*
X80775300Y-22600000D01*
X71624700Y-1950000D02*
X71624700Y-2094500D01*
X71624700Y-2094500D02*
X71314700Y-2404500D01*
X73200000Y-1950000D02*
X71624700Y-1950000D01*
X80775300Y-41650000D02*
X80775300Y-37351900D01*
X80775300Y-37351900D02*
X75851200Y-32427800D01*
X75851200Y-32427800D02*
X75851200Y-30121200D01*
X75851200Y-30121200D02*
X70556200Y-24826200D01*
X70556200Y-24826200D02*
X70556200Y-21765700D01*
X70556200Y-21765700D02*
X71321900Y-21000000D01*
X79200000Y-41650000D02*
X80775300Y-41650000D01*
X80775300Y-41650000D02*
X81063000Y-41937700D01*
X71624700Y-21000000D02*
X71321900Y-21000000D01*
X73200000Y-21000000D02*
X71624700Y-21000000D01*
X75990900Y-61774600D02*
X72022100Y-61774600D01*
X72022100Y-61774600D02*
X67013000Y-56765500D01*
X67013000Y-56765500D02*
X67013000Y-48098700D01*
X67013000Y-48098700D02*
X67463100Y-47648600D01*
X67463100Y-47648600D02*
X67463100Y-43608800D01*
X67463100Y-43608800D02*
X71323300Y-39748600D01*
X79200000Y-60700000D02*
X78125400Y-61774600D01*
X78125400Y-61774600D02*
X75990900Y-61774600D01*
X75990900Y-63967100D02*
X75990900Y-61774600D01*
X71624700Y-40050000D02*
X71323300Y-39748600D01*
X73200000Y-40050000D02*
X71624700Y-40050000D01*
X79200000Y-79750000D02*
X77875300Y-81074700D01*
X77875300Y-81074700D02*
X76665200Y-81074700D01*
X76665200Y-81074700D02*
X76474600Y-81265300D01*
X76474600Y-81265300D02*
X76474600Y-82821700D01*
X76474600Y-82821700D02*
X76804300Y-83151400D01*
X76804300Y-83151400D02*
X81023400Y-83151400D01*
X81023400Y-83151400D02*
X82912400Y-81262400D01*
X82912400Y-81262400D02*
X82912400Y-78958100D01*
X73200000Y-59100000D02*
X71624700Y-59100000D01*
X71344300Y-58719100D02*
X71624700Y-58999500D01*
X71624700Y-58999500D02*
X71624700Y-59100000D01*
X98250000Y-8550000D02*
X99929700Y-8550000D01*
X99929700Y-8550000D02*
X100113200Y-8733500D01*
X90635700Y-6950000D02*
X87369600Y-10216100D01*
X87369600Y-10216100D02*
X87369600Y-16583500D01*
X87369600Y-16583500D02*
X86038600Y-17914500D01*
X86038600Y-17914500D02*
X86038600Y-20916500D01*
X86038600Y-20916500D02*
X87323700Y-22201600D01*
X87323700Y-22201600D02*
X87323700Y-24899000D01*
X87323700Y-24899000D02*
X91068000Y-28643300D01*
X91068000Y-28643300D02*
X97206700Y-28643300D01*
X97206700Y-28643300D02*
X98250000Y-27600000D01*
X90635700Y-6950000D02*
X90397000Y-6711300D01*
X92250000Y-6950000D02*
X90635700Y-6950000D01*
X98250000Y-27600000D02*
X100058300Y-27600000D01*
X100058300Y-27600000D02*
X100107200Y-27551100D01*
X99825300Y-46489200D02*
X100103000Y-46489200D01*
X99825300Y-46489200D02*
X99825300Y-46650000D01*
X102141500Y-24040300D02*
X102141500Y-29054800D01*
X102141500Y-29054800D02*
X95928600Y-35267700D01*
X95928600Y-35267700D02*
X95928600Y-38362100D01*
X95928600Y-38362100D02*
X99825300Y-42258800D01*
X99825300Y-42258800D02*
X99825300Y-46489200D01*
X98250000Y-46650000D02*
X99825300Y-46650000D01*
X92250000Y-26000000D02*
X90605500Y-26000000D01*
X90605500Y-26000000D02*
X90381100Y-26224400D01*
X90374000Y-45121500D02*
X89601600Y-45893900D01*
X89601600Y-45893900D02*
X89601600Y-49300500D01*
X89601600Y-49300500D02*
X95725700Y-55424600D01*
X95725700Y-55424600D02*
X95725700Y-57209200D01*
X95725700Y-57209200D02*
X101447000Y-62930500D01*
X101447000Y-62930500D02*
X101447000Y-64667700D01*
X101447000Y-64667700D02*
X100120000Y-65994700D01*
X92250000Y-45050000D02*
X90445500Y-45050000D01*
X90445500Y-45050000D02*
X90374000Y-45121500D01*
X98250000Y-65700000D02*
X99825300Y-65700000D01*
X99825300Y-65700000D02*
X100120000Y-65994700D01*
X99825300Y-84032300D02*
X99825300Y-80358800D01*
X99825300Y-80358800D02*
X95725700Y-76259200D01*
X95725700Y-76259200D02*
X95725700Y-74474600D01*
X95725700Y-74474600D02*
X90216700Y-68965600D01*
X90216700Y-68965600D02*
X90216700Y-64433200D01*
X90216700Y-64433200D02*
X90398600Y-64251300D01*
X99825300Y-84032300D02*
X99825300Y-84750000D01*
X99825300Y-84032300D02*
X100120800Y-84032300D01*
X98250000Y-84750000D02*
X99825300Y-84750000D01*
X92250000Y-64100000D02*
X90549900Y-64100000D01*
X90549900Y-64100000D02*
X90398600Y-64251300D01*
X108450000Y-75575300D02*
X108450000Y-75867900D01*
X108450000Y-75575300D02*
X108450000Y-74000000D01*
X108450000Y-75575300D02*
X110910200Y-75575300D01*
X110910200Y-75575300D02*
X111941600Y-74543900D01*
X111941600Y-74543900D02*
X111941600Y-73754900D01*
X111941600Y-73754900D02*
X111655800Y-73469100D01*
X111655800Y-73469100D02*
X111655800Y-63828200D01*
X111655800Y-63828200D02*
X119094000Y-56390000D01*
X119094000Y-56390000D02*
X120469300Y-56390000D01*
X119094000Y-50440000D02*
X120469300Y-50440000D01*
X120469300Y-56390000D02*
X120469300Y-55667900D01*
X120469300Y-55667900D02*
X119953500Y-55152100D01*
X119953500Y-55152100D02*
X119953500Y-51781100D01*
X119953500Y-51781100D02*
X120469300Y-51265300D01*
X120469300Y-51265300D02*
X120469300Y-50440000D01*
X110050000Y-68000000D02*
X110050000Y-66124000D01*
X97450000Y5502000D02*
X97450000Y4676700D01*
X97450000Y4676700D02*
X98015700Y4676700D01*
X98015700Y4676700D02*
X98366000Y5027000D01*
X93050000Y5502000D02*
X93050000Y6327300D01*
X93050000Y6327300D02*
X93875300Y6327300D01*
X93875300Y6327300D02*
X95605200Y8057200D01*
X95605200Y8057200D02*
X97374000Y8057200D01*
X97374000Y8057200D02*
X97468000Y7963200D01*
X93050000Y5202000D02*
X93050000Y5502000D01*
X93050000Y5202000D02*
X93050000Y4676700D01*
X93050000Y4676700D02*
X95230100Y2496600D01*
X95230100Y2496600D02*
X95230100Y402600D01*
X95230100Y402600D02*
X100504600Y-4871900D01*
X100504600Y-4871900D02*
X103088300Y-4871900D01*
X103088300Y-4871900D02*
X104796100Y-6579700D01*
X104796100Y-6579700D02*
X104796100Y-10852500D01*
X104796100Y-10852500D02*
X104433400Y-11215200D01*
M02*
