M48
; DRILL file {KiCad (5.1.4)-1} date 09/26/21 17:53:04
; FORMAT={-:-/ absolute / metric / decimal}
; #@! TF.CreationDate,2021-09-26T17:53:04-04:00
; #@! TF.GenerationSoftware,Kicad,Pcbnew,(5.1.4)-1
; #@! TF.FileFunction,Plated,1,2,PTH
FMAT,2
METRIC
T1C0.300
T2C0.400
T3C0.850
T4C1.000
T5C1.092
T6C1.300
%
G90
G05
T2
X-9.16Y-47.851
X-6.532Y-9.324
X-5.907Y-23.291
X-5.333Y-4.179
X-5.318Y-80.154
X-4.872Y-24.349
X-4.871Y-62.518
X-4.859Y-43.65
X-4.575Y-21.966
X-4.127Y-59.981
X-4.116Y-79.034
X-3.503Y-2.809
X-3.298Y-40.917
X0.275Y-66.105
X3.798Y-21.877
X3.928Y-59.964
X4.852Y-82.027
X4.856Y-42.472
X4.859Y-80.29
X4.86Y-43.76
X4.866Y-5.449
X4.885Y-24.281
X5.206Y-3.319
X5.302Y-25.993
X6.269Y-63.261
X12.721Y-59.944
X13.25Y-3.95
X13.343Y-79.018
X13.563Y-42.05
X14.182Y-23.927
X14.184Y-81.459
X14.187Y-22.694
X14.192Y-43.541
X16.749Y-6.675
X18.854Y-65.945
X21.369Y-40.399
X23.902Y-5.55
X23.904Y-61.471
X23.91Y-42.05
X23.911Y-80.15
X23.925Y-23.5
X23.925Y-24.6
X23.932Y-3.95
X23.938Y-81.75
X23.942Y-60.306
X24.665Y-43.587
X28.412Y-21.953
X28.905Y-63.036
X30.18Y-26.9
X30.642Y-25.249
X33.136Y-78.75
X33.222Y-40.229
X33.228Y-2.364
X33.23Y-38.755
X33.234Y-59.427
X33.235Y-0.774
X35.1Y-56.939
X35.1Y-76.009
X37.863Y-63.781
X40.969Y0.156
X41.1Y-18.867
X41.1Y-37.525
X41.1Y-76.024
X42.138Y-18.717
X42.958Y-58.1
X42.961Y-40.364
X42.961Y-59.916
X42.964Y-2.839
X42.983Y-21.6
X44.141Y-78.407
X44.653Y-20.946
X45.611Y-18.095
X47.256Y-23.471
X47.287Y-56.939
X47.62Y-76.83
X51.044Y-71.844
X52.045Y-59.959
X52.05Y-58.875
X52.266Y3.471
X52.27Y-72.273
X52.271Y-16.6
X52.295Y-14.831
X52.297Y-52.992
X52.3Y-35.364
X54.15Y-32.938
X55.552Y-2.053
X57.262Y-40.222
X57.43Y-21.821
X59.494Y5.162
X59.901Y-13.891
X59.932Y-31.29
X60.15Y-70.62
X60.178Y-58.805
X62.003Y3.204
X62.004Y-16.6
X62.037Y-73.75
X62.167Y-32.131
X62.799Y-51.542
X63.321Y-54.693
X68.813Y-47.595
X70.046Y-29.143
X71.233Y-79.75
X71.304Y-78.396
X71.315Y-2.405
X71.322Y-21.0
X71.323Y-39.749
X71.339Y-59.937
X71.342Y-22.6
X71.344Y-58.719
X71.346Y-40.958
X73.386Y-7.161
X75.991Y-63.967
X78.599Y-65.908
X79.2Y-38.903
X79.266Y-9.853
X79.273Y-19.862
X80.309Y-0.843
X80.36Y-77.046
X81.062Y-3.782
X81.063Y-41.938
X81.081Y-22.6
X81.271Y-64.189
X82.73Y-46.55
X82.912Y-78.958
X85.257Y-49.845
X89.354Y-25.79
X90.286Y-8.55
X90.374Y-45.121
X90.381Y-26.224
X90.388Y-84.241
X90.395Y-46.661
X90.395Y-82.96
X90.397Y-6.711
X90.399Y-64.251
X92.564Y-66.806
X96.055Y6.63
X97.468Y7.963
X98.25Y-81.897
X98.32Y-43.323
X98.366Y5.027
X99.825Y-24.884
X100.103Y-46.489
X100.107Y-27.551
X100.113Y-8.733
X100.12Y-65.995
X100.121Y-84.032
X100.717Y-64.1
X102.141Y-24.04
X104.071Y-6.95
X104.433Y-11.215
X105.182Y0.411
X108.45Y-66.126
X108.45Y-75.868
X110.05Y-66.124
X110.719Y-42.288
X111.17Y-74.219
X119.092Y-47.178
T3
X107.798Y-15.658
X123.038Y-15.778
T4
X-8.2Y-35.57
X-6.93Y-33.02
X6.85Y-33.1
X8.2Y-35.5
X106.278Y-67.1
X106.278Y-74.9
X34.2Y-4.9
X42.0Y-4.9
X10.85Y-73.67
X12.12Y-71.12
X25.9Y-71.2
X27.25Y-73.6
X15.15Y-45.9
X22.95Y-45.9
X113.798Y-18.148
X116.338Y-18.148
X48.95Y-65.67
X50.22Y-63.12
X64.0Y-63.2
X65.35Y-65.6
X53.25Y-18.9
X61.05Y-18.9
X91.35Y-87.0
X99.15Y-87.0
X-8.2Y-16.52
X-6.93Y-13.97
X6.85Y-14.05
X8.2Y-16.45
X68.0Y-33.57
X69.27Y-31.02
X83.05Y-31.1
X84.4Y-33.5
X116.53Y-62.8
X116.6Y-79.2
X119.0Y-77.85
X119.08Y-64.07
X34.2Y-61.9
X42.0Y-61.9
X72.3Y-62.9
X80.1Y-62.9
X87.05Y-76.67
X88.32Y-74.12
X102.1Y-74.2
X103.45Y-76.6
X29.9Y-70.67
X31.17Y-68.12
X44.95Y-68.2
X46.3Y-70.6
X15.15Y-64.9
X22.95Y-64.9
X72.3Y-5.9
X80.1Y-5.9
X48.95Y-8.52
X50.22Y-5.97
X64.0Y-6.05
X65.35Y-8.45
X-3.9Y-64.95
X3.9Y-64.95
X29.9Y5.53
X31.17Y8.08
X44.95Y8.0
X46.3Y5.6
X-8.2Y-73.67
X-6.93Y-71.12
X6.85Y-71.2
X8.2Y-73.6
X-8.2Y2.53
X-6.93Y5.08
X6.85Y5.0
X8.2Y2.6
X53.25Y-76.0
X61.05Y-76.0
X53.25Y-37.9
X61.05Y-37.9
X15.15Y-84.0
X22.95Y-84.0
X72.3Y-24.9
X80.1Y-24.9
X87.05Y-38.57
X88.32Y-36.02
X102.1Y-36.1
X103.45Y-38.5
X68.0Y-52.62
X69.27Y-50.07
X83.05Y-50.15
X84.4Y-52.55
X-3.9Y-84.0
X3.9Y-84.0
X87.05Y-57.62
X88.32Y-55.07
X102.1Y-55.15
X103.45Y-57.55
X48.95Y-46.62
X50.22Y-44.07
X64.0Y-44.15
X65.35Y-46.55
X-3.9Y-26.9
X3.9Y-26.9
X91.35Y-29.9
X99.15Y-29.9
X10.85Y-16.52
X12.12Y-13.97
X25.9Y-14.05
X27.25Y-16.45
X68.0Y-14.52
X69.27Y-11.97
X83.05Y-12.05
X84.4Y-14.45
X34.2Y-42.9
X42.0Y-42.9
X91.35Y-10.9
X99.15Y-10.9
X29.9Y-51.62
X31.17Y-49.07
X44.95Y-49.15
X46.3Y-51.55
X15.15Y-7.9
X22.95Y-7.9
X29.9Y-13.52
X31.17Y-10.97
X44.95Y-11.05
X46.3Y-13.45
X-3.9Y-45.9
X3.9Y-45.9
X10.85Y-54.62
X12.12Y-52.07
X25.9Y-52.15
X27.25Y-54.55
X68.0Y4.53
X69.27Y7.08
X83.05Y7.0
X84.4Y4.6
X-8.2Y-54.62
X-6.93Y-52.07
X6.85Y-52.15
X8.2Y-54.55
X53.25Y-56.9
X61.05Y-56.9
X15.15Y-26.9
X22.95Y-26.9
X91.35Y-48.9
X99.15Y-48.9
X48.95Y-27.57
X50.22Y-25.02
X64.0Y-25.1
X65.35Y-27.5
X53.25Y0.1
X61.05Y0.1
X72.3Y-43.9
X80.1Y-43.9
X87.05Y-0.47
X88.32Y2.08
X102.1Y2.0
X103.45Y-0.4
X-3.9Y-7.9
X3.9Y-7.9
X68.0Y-71.67
X69.27Y-69.12
X83.05Y-69.2
X84.4Y-71.6
X34.2Y-81.0
X42.0Y-81.0
X72.3Y-82.0
X80.1Y-82.0
X10.85Y-35.57
X12.12Y-33.02
X25.9Y-33.1
X27.25Y-35.5
X48.95Y10.53
X50.22Y13.08
X64.0Y13.0
X65.35Y10.6
X34.2Y-23.9
X42.0Y-23.9
X91.35Y-67.9
X99.15Y-67.9
X29.9Y-32.57
X31.17Y-30.02
X44.95Y-30.1
X46.3Y-32.5
X87.05Y-19.52
X88.32Y-16.97
X102.1Y-17.05
X103.45Y-19.45
X10.85Y2.53
X12.12Y5.08
X25.9Y5.0
X27.25Y2.6
T5
X107.798Y-18.158
X107.798Y-20.698
X107.798Y-23.238
X107.798Y-25.778
X107.798Y-28.318
X107.798Y-30.858
X107.798Y-33.398
X107.798Y-35.938
X107.798Y-38.478
X107.798Y-41.018
X107.798Y-43.558
X107.798Y-46.098
X123.038Y-18.158
X123.038Y-20.698
X123.038Y-23.238
X123.038Y-25.778
X123.038Y-28.318
X123.038Y-30.858
X123.038Y-33.398
X123.038Y-35.938
X123.038Y-38.478
X123.038Y-41.018
X123.038Y-43.558
X123.038Y-46.098
T6
X107.662Y1.03
X107.662Y-5.47
T1
G00X111.244Y-52.19
M15
G01X109.944Y-52.19
M16
G05
G00X111.244Y-54.64
M15
G01X109.944Y-54.64
M16
G05
G00X112.744Y-50.44
M15
G01X111.444Y-50.44
M16
G05
G00X112.744Y-56.39
M15
G01X111.444Y-56.39
M16
G05
G00X116.744Y-50.44
M15
G01X115.444Y-50.44
M16
G05
G00X116.744Y-56.39
M15
G01X115.444Y-56.39
M16
G05
G00X119.744Y-50.44
M15
G01X118.444Y-50.44
M16
G05
G00X119.744Y-56.39
M15
G01X118.444Y-56.39
M16
G05
T0
M30
