G04 #@! TF.GenerationSoftware,KiCad,Pcbnew,(5.1.4)-1*
G04 #@! TF.CreationDate,2020-06-14T12:37:33-04:00*
G04 #@! TF.ProjectId,splitreus,73706c69-7472-4657-9573-2e6b69636164,1*
G04 #@! TF.SameCoordinates,Original*
G04 #@! TF.FileFunction,Paste,Top*
G04 #@! TF.FilePolarity,Positive*
%FSLAX46Y46*%
G04 Gerber Fmt 4.6, Leading zero omitted, Abs format (unit mm)*
G04 Created by KiCad (PCBNEW (5.1.4)-1) date 2020-06-14 12:37:33*
%MOMM*%
%LPD*%
G04 APERTURE LIST*
%ADD10C,0.100000*%
%ADD11C,0.875000*%
%ADD12R,0.900000X0.800000*%
%ADD13R,1.000000X0.650000*%
%ADD14R,0.650000X1.000000*%
%ADD15R,1.000000X1.800000*%
%ADD16R,1.600000X1.200000*%
%ADD17R,1.200000X1.600000*%
%ADD18R,0.600000X1.000000*%
%ADD19R,0.600000X1.100000*%
%ADD20R,1.000000X0.600000*%
%ADD21R,0.900000X1.200000*%
%ADD22R,0.600000X0.800000*%
%ADD23R,0.300000X0.800000*%
%ADD24R,1.060000X0.650000*%
G04 APERTURE END LIST*
D10*
G36*
X117174691Y-55479253D02*
G01*
X117195926Y-55482403D01*
X117216750Y-55487619D01*
X117236962Y-55494851D01*
X117256368Y-55504030D01*
X117274781Y-55515066D01*
X117292024Y-55527854D01*
X117307930Y-55542270D01*
X117322346Y-55558176D01*
X117335134Y-55575419D01*
X117346170Y-55593832D01*
X117355349Y-55613238D01*
X117362581Y-55633450D01*
X117367797Y-55654274D01*
X117370947Y-55675509D01*
X117372000Y-55696950D01*
X117372000Y-56134450D01*
X117370947Y-56155891D01*
X117367797Y-56177126D01*
X117362581Y-56197950D01*
X117355349Y-56218162D01*
X117346170Y-56237568D01*
X117335134Y-56255981D01*
X117322346Y-56273224D01*
X117307930Y-56289130D01*
X117292024Y-56303546D01*
X117274781Y-56316334D01*
X117256368Y-56327370D01*
X117236962Y-56336549D01*
X117216750Y-56343781D01*
X117195926Y-56348997D01*
X117174691Y-56352147D01*
X117153250Y-56353200D01*
X116640750Y-56353200D01*
X116619309Y-56352147D01*
X116598074Y-56348997D01*
X116577250Y-56343781D01*
X116557038Y-56336549D01*
X116537632Y-56327370D01*
X116519219Y-56316334D01*
X116501976Y-56303546D01*
X116486070Y-56289130D01*
X116471654Y-56273224D01*
X116458866Y-56255981D01*
X116447830Y-56237568D01*
X116438651Y-56218162D01*
X116431419Y-56197950D01*
X116426203Y-56177126D01*
X116423053Y-56155891D01*
X116422000Y-56134450D01*
X116422000Y-55696950D01*
X116423053Y-55675509D01*
X116426203Y-55654274D01*
X116431419Y-55633450D01*
X116438651Y-55613238D01*
X116447830Y-55593832D01*
X116458866Y-55575419D01*
X116471654Y-55558176D01*
X116486070Y-55542270D01*
X116501976Y-55527854D01*
X116519219Y-55515066D01*
X116537632Y-55504030D01*
X116557038Y-55494851D01*
X116577250Y-55487619D01*
X116598074Y-55482403D01*
X116619309Y-55479253D01*
X116640750Y-55478200D01*
X117153250Y-55478200D01*
X117174691Y-55479253D01*
X117174691Y-55479253D01*
G37*
D11*
X116897000Y-55915700D03*
D10*
G36*
X117174691Y-53904253D02*
G01*
X117195926Y-53907403D01*
X117216750Y-53912619D01*
X117236962Y-53919851D01*
X117256368Y-53929030D01*
X117274781Y-53940066D01*
X117292024Y-53952854D01*
X117307930Y-53967270D01*
X117322346Y-53983176D01*
X117335134Y-54000419D01*
X117346170Y-54018832D01*
X117355349Y-54038238D01*
X117362581Y-54058450D01*
X117367797Y-54079274D01*
X117370947Y-54100509D01*
X117372000Y-54121950D01*
X117372000Y-54559450D01*
X117370947Y-54580891D01*
X117367797Y-54602126D01*
X117362581Y-54622950D01*
X117355349Y-54643162D01*
X117346170Y-54662568D01*
X117335134Y-54680981D01*
X117322346Y-54698224D01*
X117307930Y-54714130D01*
X117292024Y-54728546D01*
X117274781Y-54741334D01*
X117256368Y-54752370D01*
X117236962Y-54761549D01*
X117216750Y-54768781D01*
X117195926Y-54773997D01*
X117174691Y-54777147D01*
X117153250Y-54778200D01*
X116640750Y-54778200D01*
X116619309Y-54777147D01*
X116598074Y-54773997D01*
X116577250Y-54768781D01*
X116557038Y-54761549D01*
X116537632Y-54752370D01*
X116519219Y-54741334D01*
X116501976Y-54728546D01*
X116486070Y-54714130D01*
X116471654Y-54698224D01*
X116458866Y-54680981D01*
X116447830Y-54662568D01*
X116438651Y-54643162D01*
X116431419Y-54622950D01*
X116426203Y-54602126D01*
X116423053Y-54580891D01*
X116422000Y-54559450D01*
X116422000Y-54121950D01*
X116423053Y-54100509D01*
X116426203Y-54079274D01*
X116431419Y-54058450D01*
X116438651Y-54038238D01*
X116447830Y-54018832D01*
X116458866Y-54000419D01*
X116471654Y-53983176D01*
X116486070Y-53967270D01*
X116501976Y-53952854D01*
X116519219Y-53940066D01*
X116537632Y-53929030D01*
X116557038Y-53919851D01*
X116577250Y-53912619D01*
X116598074Y-53907403D01*
X116619309Y-53904253D01*
X116640750Y-53903200D01*
X117153250Y-53903200D01*
X117174691Y-53904253D01*
X117174691Y-53904253D01*
G37*
D11*
X116897000Y-54340700D03*
D10*
G36*
X115061691Y-55479253D02*
G01*
X115082926Y-55482403D01*
X115103750Y-55487619D01*
X115123962Y-55494851D01*
X115143368Y-55504030D01*
X115161781Y-55515066D01*
X115179024Y-55527854D01*
X115194930Y-55542270D01*
X115209346Y-55558176D01*
X115222134Y-55575419D01*
X115233170Y-55593832D01*
X115242349Y-55613238D01*
X115249581Y-55633450D01*
X115254797Y-55654274D01*
X115257947Y-55675509D01*
X115259000Y-55696950D01*
X115259000Y-56134450D01*
X115257947Y-56155891D01*
X115254797Y-56177126D01*
X115249581Y-56197950D01*
X115242349Y-56218162D01*
X115233170Y-56237568D01*
X115222134Y-56255981D01*
X115209346Y-56273224D01*
X115194930Y-56289130D01*
X115179024Y-56303546D01*
X115161781Y-56316334D01*
X115143368Y-56327370D01*
X115123962Y-56336549D01*
X115103750Y-56343781D01*
X115082926Y-56348997D01*
X115061691Y-56352147D01*
X115040250Y-56353200D01*
X114527750Y-56353200D01*
X114506309Y-56352147D01*
X114485074Y-56348997D01*
X114464250Y-56343781D01*
X114444038Y-56336549D01*
X114424632Y-56327370D01*
X114406219Y-56316334D01*
X114388976Y-56303546D01*
X114373070Y-56289130D01*
X114358654Y-56273224D01*
X114345866Y-56255981D01*
X114334830Y-56237568D01*
X114325651Y-56218162D01*
X114318419Y-56197950D01*
X114313203Y-56177126D01*
X114310053Y-56155891D01*
X114309000Y-56134450D01*
X114309000Y-55696950D01*
X114310053Y-55675509D01*
X114313203Y-55654274D01*
X114318419Y-55633450D01*
X114325651Y-55613238D01*
X114334830Y-55593832D01*
X114345866Y-55575419D01*
X114358654Y-55558176D01*
X114373070Y-55542270D01*
X114388976Y-55527854D01*
X114406219Y-55515066D01*
X114424632Y-55504030D01*
X114444038Y-55494851D01*
X114464250Y-55487619D01*
X114485074Y-55482403D01*
X114506309Y-55479253D01*
X114527750Y-55478200D01*
X115040250Y-55478200D01*
X115061691Y-55479253D01*
X115061691Y-55479253D01*
G37*
D11*
X114784000Y-55915700D03*
D10*
G36*
X115061691Y-53904253D02*
G01*
X115082926Y-53907403D01*
X115103750Y-53912619D01*
X115123962Y-53919851D01*
X115143368Y-53929030D01*
X115161781Y-53940066D01*
X115179024Y-53952854D01*
X115194930Y-53967270D01*
X115209346Y-53983176D01*
X115222134Y-54000419D01*
X115233170Y-54018832D01*
X115242349Y-54038238D01*
X115249581Y-54058450D01*
X115254797Y-54079274D01*
X115257947Y-54100509D01*
X115259000Y-54121950D01*
X115259000Y-54559450D01*
X115257947Y-54580891D01*
X115254797Y-54602126D01*
X115249581Y-54622950D01*
X115242349Y-54643162D01*
X115233170Y-54662568D01*
X115222134Y-54680981D01*
X115209346Y-54698224D01*
X115194930Y-54714130D01*
X115179024Y-54728546D01*
X115161781Y-54741334D01*
X115143368Y-54752370D01*
X115123962Y-54761549D01*
X115103750Y-54768781D01*
X115082926Y-54773997D01*
X115061691Y-54777147D01*
X115040250Y-54778200D01*
X114527750Y-54778200D01*
X114506309Y-54777147D01*
X114485074Y-54773997D01*
X114464250Y-54768781D01*
X114444038Y-54761549D01*
X114424632Y-54752370D01*
X114406219Y-54741334D01*
X114388976Y-54728546D01*
X114373070Y-54714130D01*
X114358654Y-54698224D01*
X114345866Y-54680981D01*
X114334830Y-54662568D01*
X114325651Y-54643162D01*
X114318419Y-54622950D01*
X114313203Y-54602126D01*
X114310053Y-54580891D01*
X114309000Y-54559450D01*
X114309000Y-54121950D01*
X114310053Y-54100509D01*
X114313203Y-54079274D01*
X114318419Y-54058450D01*
X114325651Y-54038238D01*
X114334830Y-54018832D01*
X114345866Y-54000419D01*
X114358654Y-53983176D01*
X114373070Y-53967270D01*
X114388976Y-53952854D01*
X114406219Y-53940066D01*
X114424632Y-53929030D01*
X114444038Y-53919851D01*
X114464250Y-53912619D01*
X114485074Y-53907403D01*
X114506309Y-53904253D01*
X114527750Y-53903200D01*
X115040250Y-53903200D01*
X115061691Y-53904253D01*
X115061691Y-53904253D01*
G37*
D11*
X114784000Y-54340700D03*
D10*
G36*
X112949691Y-55479253D02*
G01*
X112970926Y-55482403D01*
X112991750Y-55487619D01*
X113011962Y-55494851D01*
X113031368Y-55504030D01*
X113049781Y-55515066D01*
X113067024Y-55527854D01*
X113082930Y-55542270D01*
X113097346Y-55558176D01*
X113110134Y-55575419D01*
X113121170Y-55593832D01*
X113130349Y-55613238D01*
X113137581Y-55633450D01*
X113142797Y-55654274D01*
X113145947Y-55675509D01*
X113147000Y-55696950D01*
X113147000Y-56134450D01*
X113145947Y-56155891D01*
X113142797Y-56177126D01*
X113137581Y-56197950D01*
X113130349Y-56218162D01*
X113121170Y-56237568D01*
X113110134Y-56255981D01*
X113097346Y-56273224D01*
X113082930Y-56289130D01*
X113067024Y-56303546D01*
X113049781Y-56316334D01*
X113031368Y-56327370D01*
X113011962Y-56336549D01*
X112991750Y-56343781D01*
X112970926Y-56348997D01*
X112949691Y-56352147D01*
X112928250Y-56353200D01*
X112415750Y-56353200D01*
X112394309Y-56352147D01*
X112373074Y-56348997D01*
X112352250Y-56343781D01*
X112332038Y-56336549D01*
X112312632Y-56327370D01*
X112294219Y-56316334D01*
X112276976Y-56303546D01*
X112261070Y-56289130D01*
X112246654Y-56273224D01*
X112233866Y-56255981D01*
X112222830Y-56237568D01*
X112213651Y-56218162D01*
X112206419Y-56197950D01*
X112201203Y-56177126D01*
X112198053Y-56155891D01*
X112197000Y-56134450D01*
X112197000Y-55696950D01*
X112198053Y-55675509D01*
X112201203Y-55654274D01*
X112206419Y-55633450D01*
X112213651Y-55613238D01*
X112222830Y-55593832D01*
X112233866Y-55575419D01*
X112246654Y-55558176D01*
X112261070Y-55542270D01*
X112276976Y-55527854D01*
X112294219Y-55515066D01*
X112312632Y-55504030D01*
X112332038Y-55494851D01*
X112352250Y-55487619D01*
X112373074Y-55482403D01*
X112394309Y-55479253D01*
X112415750Y-55478200D01*
X112928250Y-55478200D01*
X112949691Y-55479253D01*
X112949691Y-55479253D01*
G37*
D11*
X112672000Y-55915700D03*
D10*
G36*
X112949691Y-53904253D02*
G01*
X112970926Y-53907403D01*
X112991750Y-53912619D01*
X113011962Y-53919851D01*
X113031368Y-53929030D01*
X113049781Y-53940066D01*
X113067024Y-53952854D01*
X113082930Y-53967270D01*
X113097346Y-53983176D01*
X113110134Y-54000419D01*
X113121170Y-54018832D01*
X113130349Y-54038238D01*
X113137581Y-54058450D01*
X113142797Y-54079274D01*
X113145947Y-54100509D01*
X113147000Y-54121950D01*
X113147000Y-54559450D01*
X113145947Y-54580891D01*
X113142797Y-54602126D01*
X113137581Y-54622950D01*
X113130349Y-54643162D01*
X113121170Y-54662568D01*
X113110134Y-54680981D01*
X113097346Y-54698224D01*
X113082930Y-54714130D01*
X113067024Y-54728546D01*
X113049781Y-54741334D01*
X113031368Y-54752370D01*
X113011962Y-54761549D01*
X112991750Y-54768781D01*
X112970926Y-54773997D01*
X112949691Y-54777147D01*
X112928250Y-54778200D01*
X112415750Y-54778200D01*
X112394309Y-54777147D01*
X112373074Y-54773997D01*
X112352250Y-54768781D01*
X112332038Y-54761549D01*
X112312632Y-54752370D01*
X112294219Y-54741334D01*
X112276976Y-54728546D01*
X112261070Y-54714130D01*
X112246654Y-54698224D01*
X112233866Y-54680981D01*
X112222830Y-54662568D01*
X112213651Y-54643162D01*
X112206419Y-54622950D01*
X112201203Y-54602126D01*
X112198053Y-54580891D01*
X112197000Y-54559450D01*
X112197000Y-54121950D01*
X112198053Y-54100509D01*
X112201203Y-54079274D01*
X112206419Y-54058450D01*
X112213651Y-54038238D01*
X112222830Y-54018832D01*
X112233866Y-54000419D01*
X112246654Y-53983176D01*
X112261070Y-53967270D01*
X112276976Y-53952854D01*
X112294219Y-53940066D01*
X112312632Y-53929030D01*
X112332038Y-53919851D01*
X112352250Y-53912619D01*
X112373074Y-53907403D01*
X112394309Y-53904253D01*
X112415750Y-53903200D01*
X112928250Y-53903200D01*
X112949691Y-53904253D01*
X112949691Y-53904253D01*
G37*
D11*
X112672000Y-54340700D03*
D10*
G36*
X110837691Y-55479253D02*
G01*
X110858926Y-55482403D01*
X110879750Y-55487619D01*
X110899962Y-55494851D01*
X110919368Y-55504030D01*
X110937781Y-55515066D01*
X110955024Y-55527854D01*
X110970930Y-55542270D01*
X110985346Y-55558176D01*
X110998134Y-55575419D01*
X111009170Y-55593832D01*
X111018349Y-55613238D01*
X111025581Y-55633450D01*
X111030797Y-55654274D01*
X111033947Y-55675509D01*
X111035000Y-55696950D01*
X111035000Y-56134450D01*
X111033947Y-56155891D01*
X111030797Y-56177126D01*
X111025581Y-56197950D01*
X111018349Y-56218162D01*
X111009170Y-56237568D01*
X110998134Y-56255981D01*
X110985346Y-56273224D01*
X110970930Y-56289130D01*
X110955024Y-56303546D01*
X110937781Y-56316334D01*
X110919368Y-56327370D01*
X110899962Y-56336549D01*
X110879750Y-56343781D01*
X110858926Y-56348997D01*
X110837691Y-56352147D01*
X110816250Y-56353200D01*
X110303750Y-56353200D01*
X110282309Y-56352147D01*
X110261074Y-56348997D01*
X110240250Y-56343781D01*
X110220038Y-56336549D01*
X110200632Y-56327370D01*
X110182219Y-56316334D01*
X110164976Y-56303546D01*
X110149070Y-56289130D01*
X110134654Y-56273224D01*
X110121866Y-56255981D01*
X110110830Y-56237568D01*
X110101651Y-56218162D01*
X110094419Y-56197950D01*
X110089203Y-56177126D01*
X110086053Y-56155891D01*
X110085000Y-56134450D01*
X110085000Y-55696950D01*
X110086053Y-55675509D01*
X110089203Y-55654274D01*
X110094419Y-55633450D01*
X110101651Y-55613238D01*
X110110830Y-55593832D01*
X110121866Y-55575419D01*
X110134654Y-55558176D01*
X110149070Y-55542270D01*
X110164976Y-55527854D01*
X110182219Y-55515066D01*
X110200632Y-55504030D01*
X110220038Y-55494851D01*
X110240250Y-55487619D01*
X110261074Y-55482403D01*
X110282309Y-55479253D01*
X110303750Y-55478200D01*
X110816250Y-55478200D01*
X110837691Y-55479253D01*
X110837691Y-55479253D01*
G37*
D11*
X110560000Y-55915700D03*
D10*
G36*
X110837691Y-53904253D02*
G01*
X110858926Y-53907403D01*
X110879750Y-53912619D01*
X110899962Y-53919851D01*
X110919368Y-53929030D01*
X110937781Y-53940066D01*
X110955024Y-53952854D01*
X110970930Y-53967270D01*
X110985346Y-53983176D01*
X110998134Y-54000419D01*
X111009170Y-54018832D01*
X111018349Y-54038238D01*
X111025581Y-54058450D01*
X111030797Y-54079274D01*
X111033947Y-54100509D01*
X111035000Y-54121950D01*
X111035000Y-54559450D01*
X111033947Y-54580891D01*
X111030797Y-54602126D01*
X111025581Y-54622950D01*
X111018349Y-54643162D01*
X111009170Y-54662568D01*
X110998134Y-54680981D01*
X110985346Y-54698224D01*
X110970930Y-54714130D01*
X110955024Y-54728546D01*
X110937781Y-54741334D01*
X110919368Y-54752370D01*
X110899962Y-54761549D01*
X110879750Y-54768781D01*
X110858926Y-54773997D01*
X110837691Y-54777147D01*
X110816250Y-54778200D01*
X110303750Y-54778200D01*
X110282309Y-54777147D01*
X110261074Y-54773997D01*
X110240250Y-54768781D01*
X110220038Y-54761549D01*
X110200632Y-54752370D01*
X110182219Y-54741334D01*
X110164976Y-54728546D01*
X110149070Y-54714130D01*
X110134654Y-54698224D01*
X110121866Y-54680981D01*
X110110830Y-54662568D01*
X110101651Y-54643162D01*
X110094419Y-54622950D01*
X110089203Y-54602126D01*
X110086053Y-54580891D01*
X110085000Y-54559450D01*
X110085000Y-54121950D01*
X110086053Y-54100509D01*
X110089203Y-54079274D01*
X110094419Y-54058450D01*
X110101651Y-54038238D01*
X110110830Y-54018832D01*
X110121866Y-54000419D01*
X110134654Y-53983176D01*
X110149070Y-53967270D01*
X110164976Y-53952854D01*
X110182219Y-53940066D01*
X110200632Y-53929030D01*
X110220038Y-53919851D01*
X110240250Y-53912619D01*
X110261074Y-53907403D01*
X110282309Y-53904253D01*
X110303750Y-53903200D01*
X110816250Y-53903200D01*
X110837691Y-53904253D01*
X110837691Y-53904253D01*
G37*
D11*
X110560000Y-54340700D03*
D10*
G36*
X108725691Y-55479253D02*
G01*
X108746926Y-55482403D01*
X108767750Y-55487619D01*
X108787962Y-55494851D01*
X108807368Y-55504030D01*
X108825781Y-55515066D01*
X108843024Y-55527854D01*
X108858930Y-55542270D01*
X108873346Y-55558176D01*
X108886134Y-55575419D01*
X108897170Y-55593832D01*
X108906349Y-55613238D01*
X108913581Y-55633450D01*
X108918797Y-55654274D01*
X108921947Y-55675509D01*
X108923000Y-55696950D01*
X108923000Y-56134450D01*
X108921947Y-56155891D01*
X108918797Y-56177126D01*
X108913581Y-56197950D01*
X108906349Y-56218162D01*
X108897170Y-56237568D01*
X108886134Y-56255981D01*
X108873346Y-56273224D01*
X108858930Y-56289130D01*
X108843024Y-56303546D01*
X108825781Y-56316334D01*
X108807368Y-56327370D01*
X108787962Y-56336549D01*
X108767750Y-56343781D01*
X108746926Y-56348997D01*
X108725691Y-56352147D01*
X108704250Y-56353200D01*
X108191750Y-56353200D01*
X108170309Y-56352147D01*
X108149074Y-56348997D01*
X108128250Y-56343781D01*
X108108038Y-56336549D01*
X108088632Y-56327370D01*
X108070219Y-56316334D01*
X108052976Y-56303546D01*
X108037070Y-56289130D01*
X108022654Y-56273224D01*
X108009866Y-56255981D01*
X107998830Y-56237568D01*
X107989651Y-56218162D01*
X107982419Y-56197950D01*
X107977203Y-56177126D01*
X107974053Y-56155891D01*
X107973000Y-56134450D01*
X107973000Y-55696950D01*
X107974053Y-55675509D01*
X107977203Y-55654274D01*
X107982419Y-55633450D01*
X107989651Y-55613238D01*
X107998830Y-55593832D01*
X108009866Y-55575419D01*
X108022654Y-55558176D01*
X108037070Y-55542270D01*
X108052976Y-55527854D01*
X108070219Y-55515066D01*
X108088632Y-55504030D01*
X108108038Y-55494851D01*
X108128250Y-55487619D01*
X108149074Y-55482403D01*
X108170309Y-55479253D01*
X108191750Y-55478200D01*
X108704250Y-55478200D01*
X108725691Y-55479253D01*
X108725691Y-55479253D01*
G37*
D11*
X108448000Y-55915700D03*
D10*
G36*
X108725691Y-53904253D02*
G01*
X108746926Y-53907403D01*
X108767750Y-53912619D01*
X108787962Y-53919851D01*
X108807368Y-53929030D01*
X108825781Y-53940066D01*
X108843024Y-53952854D01*
X108858930Y-53967270D01*
X108873346Y-53983176D01*
X108886134Y-54000419D01*
X108897170Y-54018832D01*
X108906349Y-54038238D01*
X108913581Y-54058450D01*
X108918797Y-54079274D01*
X108921947Y-54100509D01*
X108923000Y-54121950D01*
X108923000Y-54559450D01*
X108921947Y-54580891D01*
X108918797Y-54602126D01*
X108913581Y-54622950D01*
X108906349Y-54643162D01*
X108897170Y-54662568D01*
X108886134Y-54680981D01*
X108873346Y-54698224D01*
X108858930Y-54714130D01*
X108843024Y-54728546D01*
X108825781Y-54741334D01*
X108807368Y-54752370D01*
X108787962Y-54761549D01*
X108767750Y-54768781D01*
X108746926Y-54773997D01*
X108725691Y-54777147D01*
X108704250Y-54778200D01*
X108191750Y-54778200D01*
X108170309Y-54777147D01*
X108149074Y-54773997D01*
X108128250Y-54768781D01*
X108108038Y-54761549D01*
X108088632Y-54752370D01*
X108070219Y-54741334D01*
X108052976Y-54728546D01*
X108037070Y-54714130D01*
X108022654Y-54698224D01*
X108009866Y-54680981D01*
X107998830Y-54662568D01*
X107989651Y-54643162D01*
X107982419Y-54622950D01*
X107977203Y-54602126D01*
X107974053Y-54580891D01*
X107973000Y-54559450D01*
X107973000Y-54121950D01*
X107974053Y-54100509D01*
X107977203Y-54079274D01*
X107982419Y-54058450D01*
X107989651Y-54038238D01*
X107998830Y-54018832D01*
X108009866Y-54000419D01*
X108022654Y-53983176D01*
X108037070Y-53967270D01*
X108052976Y-53952854D01*
X108070219Y-53940066D01*
X108088632Y-53929030D01*
X108108038Y-53919851D01*
X108128250Y-53912619D01*
X108149074Y-53907403D01*
X108170309Y-53904253D01*
X108191750Y-53903200D01*
X108704250Y-53903200D01*
X108725691Y-53904253D01*
X108725691Y-53904253D01*
G37*
D11*
X108448000Y-54340700D03*
D10*
G36*
X106612691Y-55479253D02*
G01*
X106633926Y-55482403D01*
X106654750Y-55487619D01*
X106674962Y-55494851D01*
X106694368Y-55504030D01*
X106712781Y-55515066D01*
X106730024Y-55527854D01*
X106745930Y-55542270D01*
X106760346Y-55558176D01*
X106773134Y-55575419D01*
X106784170Y-55593832D01*
X106793349Y-55613238D01*
X106800581Y-55633450D01*
X106805797Y-55654274D01*
X106808947Y-55675509D01*
X106810000Y-55696950D01*
X106810000Y-56134450D01*
X106808947Y-56155891D01*
X106805797Y-56177126D01*
X106800581Y-56197950D01*
X106793349Y-56218162D01*
X106784170Y-56237568D01*
X106773134Y-56255981D01*
X106760346Y-56273224D01*
X106745930Y-56289130D01*
X106730024Y-56303546D01*
X106712781Y-56316334D01*
X106694368Y-56327370D01*
X106674962Y-56336549D01*
X106654750Y-56343781D01*
X106633926Y-56348997D01*
X106612691Y-56352147D01*
X106591250Y-56353200D01*
X106078750Y-56353200D01*
X106057309Y-56352147D01*
X106036074Y-56348997D01*
X106015250Y-56343781D01*
X105995038Y-56336549D01*
X105975632Y-56327370D01*
X105957219Y-56316334D01*
X105939976Y-56303546D01*
X105924070Y-56289130D01*
X105909654Y-56273224D01*
X105896866Y-56255981D01*
X105885830Y-56237568D01*
X105876651Y-56218162D01*
X105869419Y-56197950D01*
X105864203Y-56177126D01*
X105861053Y-56155891D01*
X105860000Y-56134450D01*
X105860000Y-55696950D01*
X105861053Y-55675509D01*
X105864203Y-55654274D01*
X105869419Y-55633450D01*
X105876651Y-55613238D01*
X105885830Y-55593832D01*
X105896866Y-55575419D01*
X105909654Y-55558176D01*
X105924070Y-55542270D01*
X105939976Y-55527854D01*
X105957219Y-55515066D01*
X105975632Y-55504030D01*
X105995038Y-55494851D01*
X106015250Y-55487619D01*
X106036074Y-55482403D01*
X106057309Y-55479253D01*
X106078750Y-55478200D01*
X106591250Y-55478200D01*
X106612691Y-55479253D01*
X106612691Y-55479253D01*
G37*
D11*
X106335000Y-55915700D03*
D10*
G36*
X106612691Y-53904253D02*
G01*
X106633926Y-53907403D01*
X106654750Y-53912619D01*
X106674962Y-53919851D01*
X106694368Y-53929030D01*
X106712781Y-53940066D01*
X106730024Y-53952854D01*
X106745930Y-53967270D01*
X106760346Y-53983176D01*
X106773134Y-54000419D01*
X106784170Y-54018832D01*
X106793349Y-54038238D01*
X106800581Y-54058450D01*
X106805797Y-54079274D01*
X106808947Y-54100509D01*
X106810000Y-54121950D01*
X106810000Y-54559450D01*
X106808947Y-54580891D01*
X106805797Y-54602126D01*
X106800581Y-54622950D01*
X106793349Y-54643162D01*
X106784170Y-54662568D01*
X106773134Y-54680981D01*
X106760346Y-54698224D01*
X106745930Y-54714130D01*
X106730024Y-54728546D01*
X106712781Y-54741334D01*
X106694368Y-54752370D01*
X106674962Y-54761549D01*
X106654750Y-54768781D01*
X106633926Y-54773997D01*
X106612691Y-54777147D01*
X106591250Y-54778200D01*
X106078750Y-54778200D01*
X106057309Y-54777147D01*
X106036074Y-54773997D01*
X106015250Y-54768781D01*
X105995038Y-54761549D01*
X105975632Y-54752370D01*
X105957219Y-54741334D01*
X105939976Y-54728546D01*
X105924070Y-54714130D01*
X105909654Y-54698224D01*
X105896866Y-54680981D01*
X105885830Y-54662568D01*
X105876651Y-54643162D01*
X105869419Y-54622950D01*
X105864203Y-54602126D01*
X105861053Y-54580891D01*
X105860000Y-54559450D01*
X105860000Y-54121950D01*
X105861053Y-54100509D01*
X105864203Y-54079274D01*
X105869419Y-54058450D01*
X105876651Y-54038238D01*
X105885830Y-54018832D01*
X105896866Y-54000419D01*
X105909654Y-53983176D01*
X105924070Y-53967270D01*
X105939976Y-53952854D01*
X105957219Y-53940066D01*
X105975632Y-53929030D01*
X105995038Y-53919851D01*
X106015250Y-53912619D01*
X106036074Y-53907403D01*
X106057309Y-53904253D01*
X106078750Y-53903200D01*
X106591250Y-53903200D01*
X106612691Y-53904253D01*
X106612691Y-53904253D01*
G37*
D11*
X106335000Y-54340700D03*
D10*
G36*
X121401691Y-50399253D02*
G01*
X121422926Y-50402403D01*
X121443750Y-50407619D01*
X121463962Y-50414851D01*
X121483368Y-50424030D01*
X121501781Y-50435066D01*
X121519024Y-50447854D01*
X121534930Y-50462270D01*
X121549346Y-50478176D01*
X121562134Y-50495419D01*
X121573170Y-50513832D01*
X121582349Y-50533238D01*
X121589581Y-50553450D01*
X121594797Y-50574274D01*
X121597947Y-50595509D01*
X121599000Y-50616950D01*
X121599000Y-51054450D01*
X121597947Y-51075891D01*
X121594797Y-51097126D01*
X121589581Y-51117950D01*
X121582349Y-51138162D01*
X121573170Y-51157568D01*
X121562134Y-51175981D01*
X121549346Y-51193224D01*
X121534930Y-51209130D01*
X121519024Y-51223546D01*
X121501781Y-51236334D01*
X121483368Y-51247370D01*
X121463962Y-51256549D01*
X121443750Y-51263781D01*
X121422926Y-51268997D01*
X121401691Y-51272147D01*
X121380250Y-51273200D01*
X120867750Y-51273200D01*
X120846309Y-51272147D01*
X120825074Y-51268997D01*
X120804250Y-51263781D01*
X120784038Y-51256549D01*
X120764632Y-51247370D01*
X120746219Y-51236334D01*
X120728976Y-51223546D01*
X120713070Y-51209130D01*
X120698654Y-51193224D01*
X120685866Y-51175981D01*
X120674830Y-51157568D01*
X120665651Y-51138162D01*
X120658419Y-51117950D01*
X120653203Y-51097126D01*
X120650053Y-51075891D01*
X120649000Y-51054450D01*
X120649000Y-50616950D01*
X120650053Y-50595509D01*
X120653203Y-50574274D01*
X120658419Y-50553450D01*
X120665651Y-50533238D01*
X120674830Y-50513832D01*
X120685866Y-50495419D01*
X120698654Y-50478176D01*
X120713070Y-50462270D01*
X120728976Y-50447854D01*
X120746219Y-50435066D01*
X120764632Y-50424030D01*
X120784038Y-50414851D01*
X120804250Y-50407619D01*
X120825074Y-50402403D01*
X120846309Y-50399253D01*
X120867750Y-50398200D01*
X121380250Y-50398200D01*
X121401691Y-50399253D01*
X121401691Y-50399253D01*
G37*
D11*
X121124000Y-50835700D03*
D10*
G36*
X121401691Y-48824253D02*
G01*
X121422926Y-48827403D01*
X121443750Y-48832619D01*
X121463962Y-48839851D01*
X121483368Y-48849030D01*
X121501781Y-48860066D01*
X121519024Y-48872854D01*
X121534930Y-48887270D01*
X121549346Y-48903176D01*
X121562134Y-48920419D01*
X121573170Y-48938832D01*
X121582349Y-48958238D01*
X121589581Y-48978450D01*
X121594797Y-48999274D01*
X121597947Y-49020509D01*
X121599000Y-49041950D01*
X121599000Y-49479450D01*
X121597947Y-49500891D01*
X121594797Y-49522126D01*
X121589581Y-49542950D01*
X121582349Y-49563162D01*
X121573170Y-49582568D01*
X121562134Y-49600981D01*
X121549346Y-49618224D01*
X121534930Y-49634130D01*
X121519024Y-49648546D01*
X121501781Y-49661334D01*
X121483368Y-49672370D01*
X121463962Y-49681549D01*
X121443750Y-49688781D01*
X121422926Y-49693997D01*
X121401691Y-49697147D01*
X121380250Y-49698200D01*
X120867750Y-49698200D01*
X120846309Y-49697147D01*
X120825074Y-49693997D01*
X120804250Y-49688781D01*
X120784038Y-49681549D01*
X120764632Y-49672370D01*
X120746219Y-49661334D01*
X120728976Y-49648546D01*
X120713070Y-49634130D01*
X120698654Y-49618224D01*
X120685866Y-49600981D01*
X120674830Y-49582568D01*
X120665651Y-49563162D01*
X120658419Y-49542950D01*
X120653203Y-49522126D01*
X120650053Y-49500891D01*
X120649000Y-49479450D01*
X120649000Y-49041950D01*
X120650053Y-49020509D01*
X120653203Y-48999274D01*
X120658419Y-48978450D01*
X120665651Y-48958238D01*
X120674830Y-48938832D01*
X120685866Y-48920419D01*
X120698654Y-48903176D01*
X120713070Y-48887270D01*
X120728976Y-48872854D01*
X120746219Y-48860066D01*
X120764632Y-48849030D01*
X120784038Y-48839851D01*
X120804250Y-48832619D01*
X120825074Y-48827403D01*
X120846309Y-48824253D01*
X120867750Y-48823200D01*
X121380250Y-48823200D01*
X121401691Y-48824253D01*
X121401691Y-48824253D01*
G37*
D11*
X121124000Y-49260700D03*
D10*
G36*
X119287691Y-48824253D02*
G01*
X119308926Y-48827403D01*
X119329750Y-48832619D01*
X119349962Y-48839851D01*
X119369368Y-48849030D01*
X119387781Y-48860066D01*
X119405024Y-48872854D01*
X119420930Y-48887270D01*
X119435346Y-48903176D01*
X119448134Y-48920419D01*
X119459170Y-48938832D01*
X119468349Y-48958238D01*
X119475581Y-48978450D01*
X119480797Y-48999274D01*
X119483947Y-49020509D01*
X119485000Y-49041950D01*
X119485000Y-49479450D01*
X119483947Y-49500891D01*
X119480797Y-49522126D01*
X119475581Y-49542950D01*
X119468349Y-49563162D01*
X119459170Y-49582568D01*
X119448134Y-49600981D01*
X119435346Y-49618224D01*
X119420930Y-49634130D01*
X119405024Y-49648546D01*
X119387781Y-49661334D01*
X119369368Y-49672370D01*
X119349962Y-49681549D01*
X119329750Y-49688781D01*
X119308926Y-49693997D01*
X119287691Y-49697147D01*
X119266250Y-49698200D01*
X118753750Y-49698200D01*
X118732309Y-49697147D01*
X118711074Y-49693997D01*
X118690250Y-49688781D01*
X118670038Y-49681549D01*
X118650632Y-49672370D01*
X118632219Y-49661334D01*
X118614976Y-49648546D01*
X118599070Y-49634130D01*
X118584654Y-49618224D01*
X118571866Y-49600981D01*
X118560830Y-49582568D01*
X118551651Y-49563162D01*
X118544419Y-49542950D01*
X118539203Y-49522126D01*
X118536053Y-49500891D01*
X118535000Y-49479450D01*
X118535000Y-49041950D01*
X118536053Y-49020509D01*
X118539203Y-48999274D01*
X118544419Y-48978450D01*
X118551651Y-48958238D01*
X118560830Y-48938832D01*
X118571866Y-48920419D01*
X118584654Y-48903176D01*
X118599070Y-48887270D01*
X118614976Y-48872854D01*
X118632219Y-48860066D01*
X118650632Y-48849030D01*
X118670038Y-48839851D01*
X118690250Y-48832619D01*
X118711074Y-48827403D01*
X118732309Y-48824253D01*
X118753750Y-48823200D01*
X119266250Y-48823200D01*
X119287691Y-48824253D01*
X119287691Y-48824253D01*
G37*
D11*
X119010000Y-49260700D03*
D10*
G36*
X119287691Y-50399253D02*
G01*
X119308926Y-50402403D01*
X119329750Y-50407619D01*
X119349962Y-50414851D01*
X119369368Y-50424030D01*
X119387781Y-50435066D01*
X119405024Y-50447854D01*
X119420930Y-50462270D01*
X119435346Y-50478176D01*
X119448134Y-50495419D01*
X119459170Y-50513832D01*
X119468349Y-50533238D01*
X119475581Y-50553450D01*
X119480797Y-50574274D01*
X119483947Y-50595509D01*
X119485000Y-50616950D01*
X119485000Y-51054450D01*
X119483947Y-51075891D01*
X119480797Y-51097126D01*
X119475581Y-51117950D01*
X119468349Y-51138162D01*
X119459170Y-51157568D01*
X119448134Y-51175981D01*
X119435346Y-51193224D01*
X119420930Y-51209130D01*
X119405024Y-51223546D01*
X119387781Y-51236334D01*
X119369368Y-51247370D01*
X119349962Y-51256549D01*
X119329750Y-51263781D01*
X119308926Y-51268997D01*
X119287691Y-51272147D01*
X119266250Y-51273200D01*
X118753750Y-51273200D01*
X118732309Y-51272147D01*
X118711074Y-51268997D01*
X118690250Y-51263781D01*
X118670038Y-51256549D01*
X118650632Y-51247370D01*
X118632219Y-51236334D01*
X118614976Y-51223546D01*
X118599070Y-51209130D01*
X118584654Y-51193224D01*
X118571866Y-51175981D01*
X118560830Y-51157568D01*
X118551651Y-51138162D01*
X118544419Y-51117950D01*
X118539203Y-51097126D01*
X118536053Y-51075891D01*
X118535000Y-51054450D01*
X118535000Y-50616950D01*
X118536053Y-50595509D01*
X118539203Y-50574274D01*
X118544419Y-50553450D01*
X118551651Y-50533238D01*
X118560830Y-50513832D01*
X118571866Y-50495419D01*
X118584654Y-50478176D01*
X118599070Y-50462270D01*
X118614976Y-50447854D01*
X118632219Y-50435066D01*
X118650632Y-50424030D01*
X118670038Y-50414851D01*
X118690250Y-50407619D01*
X118711074Y-50402403D01*
X118732309Y-50399253D01*
X118753750Y-50398200D01*
X119266250Y-50398200D01*
X119287691Y-50399253D01*
X119287691Y-50399253D01*
G37*
D11*
X119010000Y-50835700D03*
D10*
G36*
X117174691Y-50399253D02*
G01*
X117195926Y-50402403D01*
X117216750Y-50407619D01*
X117236962Y-50414851D01*
X117256368Y-50424030D01*
X117274781Y-50435066D01*
X117292024Y-50447854D01*
X117307930Y-50462270D01*
X117322346Y-50478176D01*
X117335134Y-50495419D01*
X117346170Y-50513832D01*
X117355349Y-50533238D01*
X117362581Y-50553450D01*
X117367797Y-50574274D01*
X117370947Y-50595509D01*
X117372000Y-50616950D01*
X117372000Y-51054450D01*
X117370947Y-51075891D01*
X117367797Y-51097126D01*
X117362581Y-51117950D01*
X117355349Y-51138162D01*
X117346170Y-51157568D01*
X117335134Y-51175981D01*
X117322346Y-51193224D01*
X117307930Y-51209130D01*
X117292024Y-51223546D01*
X117274781Y-51236334D01*
X117256368Y-51247370D01*
X117236962Y-51256549D01*
X117216750Y-51263781D01*
X117195926Y-51268997D01*
X117174691Y-51272147D01*
X117153250Y-51273200D01*
X116640750Y-51273200D01*
X116619309Y-51272147D01*
X116598074Y-51268997D01*
X116577250Y-51263781D01*
X116557038Y-51256549D01*
X116537632Y-51247370D01*
X116519219Y-51236334D01*
X116501976Y-51223546D01*
X116486070Y-51209130D01*
X116471654Y-51193224D01*
X116458866Y-51175981D01*
X116447830Y-51157568D01*
X116438651Y-51138162D01*
X116431419Y-51117950D01*
X116426203Y-51097126D01*
X116423053Y-51075891D01*
X116422000Y-51054450D01*
X116422000Y-50616950D01*
X116423053Y-50595509D01*
X116426203Y-50574274D01*
X116431419Y-50553450D01*
X116438651Y-50533238D01*
X116447830Y-50513832D01*
X116458866Y-50495419D01*
X116471654Y-50478176D01*
X116486070Y-50462270D01*
X116501976Y-50447854D01*
X116519219Y-50435066D01*
X116537632Y-50424030D01*
X116557038Y-50414851D01*
X116577250Y-50407619D01*
X116598074Y-50402403D01*
X116619309Y-50399253D01*
X116640750Y-50398200D01*
X117153250Y-50398200D01*
X117174691Y-50399253D01*
X117174691Y-50399253D01*
G37*
D11*
X116897000Y-50835700D03*
D10*
G36*
X117174691Y-48824253D02*
G01*
X117195926Y-48827403D01*
X117216750Y-48832619D01*
X117236962Y-48839851D01*
X117256368Y-48849030D01*
X117274781Y-48860066D01*
X117292024Y-48872854D01*
X117307930Y-48887270D01*
X117322346Y-48903176D01*
X117335134Y-48920419D01*
X117346170Y-48938832D01*
X117355349Y-48958238D01*
X117362581Y-48978450D01*
X117367797Y-48999274D01*
X117370947Y-49020509D01*
X117372000Y-49041950D01*
X117372000Y-49479450D01*
X117370947Y-49500891D01*
X117367797Y-49522126D01*
X117362581Y-49542950D01*
X117355349Y-49563162D01*
X117346170Y-49582568D01*
X117335134Y-49600981D01*
X117322346Y-49618224D01*
X117307930Y-49634130D01*
X117292024Y-49648546D01*
X117274781Y-49661334D01*
X117256368Y-49672370D01*
X117236962Y-49681549D01*
X117216750Y-49688781D01*
X117195926Y-49693997D01*
X117174691Y-49697147D01*
X117153250Y-49698200D01*
X116640750Y-49698200D01*
X116619309Y-49697147D01*
X116598074Y-49693997D01*
X116577250Y-49688781D01*
X116557038Y-49681549D01*
X116537632Y-49672370D01*
X116519219Y-49661334D01*
X116501976Y-49648546D01*
X116486070Y-49634130D01*
X116471654Y-49618224D01*
X116458866Y-49600981D01*
X116447830Y-49582568D01*
X116438651Y-49563162D01*
X116431419Y-49542950D01*
X116426203Y-49522126D01*
X116423053Y-49500891D01*
X116422000Y-49479450D01*
X116422000Y-49041950D01*
X116423053Y-49020509D01*
X116426203Y-48999274D01*
X116431419Y-48978450D01*
X116438651Y-48958238D01*
X116447830Y-48938832D01*
X116458866Y-48920419D01*
X116471654Y-48903176D01*
X116486070Y-48887270D01*
X116501976Y-48872854D01*
X116519219Y-48860066D01*
X116537632Y-48849030D01*
X116557038Y-48839851D01*
X116577250Y-48832619D01*
X116598074Y-48827403D01*
X116619309Y-48824253D01*
X116640750Y-48823200D01*
X117153250Y-48823200D01*
X117174691Y-48824253D01*
X117174691Y-48824253D01*
G37*
D11*
X116897000Y-49260700D03*
D10*
G36*
X115060691Y-48824253D02*
G01*
X115081926Y-48827403D01*
X115102750Y-48832619D01*
X115122962Y-48839851D01*
X115142368Y-48849030D01*
X115160781Y-48860066D01*
X115178024Y-48872854D01*
X115193930Y-48887270D01*
X115208346Y-48903176D01*
X115221134Y-48920419D01*
X115232170Y-48938832D01*
X115241349Y-48958238D01*
X115248581Y-48978450D01*
X115253797Y-48999274D01*
X115256947Y-49020509D01*
X115258000Y-49041950D01*
X115258000Y-49479450D01*
X115256947Y-49500891D01*
X115253797Y-49522126D01*
X115248581Y-49542950D01*
X115241349Y-49563162D01*
X115232170Y-49582568D01*
X115221134Y-49600981D01*
X115208346Y-49618224D01*
X115193930Y-49634130D01*
X115178024Y-49648546D01*
X115160781Y-49661334D01*
X115142368Y-49672370D01*
X115122962Y-49681549D01*
X115102750Y-49688781D01*
X115081926Y-49693997D01*
X115060691Y-49697147D01*
X115039250Y-49698200D01*
X114526750Y-49698200D01*
X114505309Y-49697147D01*
X114484074Y-49693997D01*
X114463250Y-49688781D01*
X114443038Y-49681549D01*
X114423632Y-49672370D01*
X114405219Y-49661334D01*
X114387976Y-49648546D01*
X114372070Y-49634130D01*
X114357654Y-49618224D01*
X114344866Y-49600981D01*
X114333830Y-49582568D01*
X114324651Y-49563162D01*
X114317419Y-49542950D01*
X114312203Y-49522126D01*
X114309053Y-49500891D01*
X114308000Y-49479450D01*
X114308000Y-49041950D01*
X114309053Y-49020509D01*
X114312203Y-48999274D01*
X114317419Y-48978450D01*
X114324651Y-48958238D01*
X114333830Y-48938832D01*
X114344866Y-48920419D01*
X114357654Y-48903176D01*
X114372070Y-48887270D01*
X114387976Y-48872854D01*
X114405219Y-48860066D01*
X114423632Y-48849030D01*
X114443038Y-48839851D01*
X114463250Y-48832619D01*
X114484074Y-48827403D01*
X114505309Y-48824253D01*
X114526750Y-48823200D01*
X115039250Y-48823200D01*
X115060691Y-48824253D01*
X115060691Y-48824253D01*
G37*
D11*
X114783000Y-49260700D03*
D10*
G36*
X115060691Y-50399253D02*
G01*
X115081926Y-50402403D01*
X115102750Y-50407619D01*
X115122962Y-50414851D01*
X115142368Y-50424030D01*
X115160781Y-50435066D01*
X115178024Y-50447854D01*
X115193930Y-50462270D01*
X115208346Y-50478176D01*
X115221134Y-50495419D01*
X115232170Y-50513832D01*
X115241349Y-50533238D01*
X115248581Y-50553450D01*
X115253797Y-50574274D01*
X115256947Y-50595509D01*
X115258000Y-50616950D01*
X115258000Y-51054450D01*
X115256947Y-51075891D01*
X115253797Y-51097126D01*
X115248581Y-51117950D01*
X115241349Y-51138162D01*
X115232170Y-51157568D01*
X115221134Y-51175981D01*
X115208346Y-51193224D01*
X115193930Y-51209130D01*
X115178024Y-51223546D01*
X115160781Y-51236334D01*
X115142368Y-51247370D01*
X115122962Y-51256549D01*
X115102750Y-51263781D01*
X115081926Y-51268997D01*
X115060691Y-51272147D01*
X115039250Y-51273200D01*
X114526750Y-51273200D01*
X114505309Y-51272147D01*
X114484074Y-51268997D01*
X114463250Y-51263781D01*
X114443038Y-51256549D01*
X114423632Y-51247370D01*
X114405219Y-51236334D01*
X114387976Y-51223546D01*
X114372070Y-51209130D01*
X114357654Y-51193224D01*
X114344866Y-51175981D01*
X114333830Y-51157568D01*
X114324651Y-51138162D01*
X114317419Y-51117950D01*
X114312203Y-51097126D01*
X114309053Y-51075891D01*
X114308000Y-51054450D01*
X114308000Y-50616950D01*
X114309053Y-50595509D01*
X114312203Y-50574274D01*
X114317419Y-50553450D01*
X114324651Y-50533238D01*
X114333830Y-50513832D01*
X114344866Y-50495419D01*
X114357654Y-50478176D01*
X114372070Y-50462270D01*
X114387976Y-50447854D01*
X114405219Y-50435066D01*
X114423632Y-50424030D01*
X114443038Y-50414851D01*
X114463250Y-50407619D01*
X114484074Y-50402403D01*
X114505309Y-50399253D01*
X114526750Y-50398200D01*
X115039250Y-50398200D01*
X115060691Y-50399253D01*
X115060691Y-50399253D01*
G37*
D11*
X114783000Y-50835700D03*
D10*
G36*
X112946691Y-50399253D02*
G01*
X112967926Y-50402403D01*
X112988750Y-50407619D01*
X113008962Y-50414851D01*
X113028368Y-50424030D01*
X113046781Y-50435066D01*
X113064024Y-50447854D01*
X113079930Y-50462270D01*
X113094346Y-50478176D01*
X113107134Y-50495419D01*
X113118170Y-50513832D01*
X113127349Y-50533238D01*
X113134581Y-50553450D01*
X113139797Y-50574274D01*
X113142947Y-50595509D01*
X113144000Y-50616950D01*
X113144000Y-51054450D01*
X113142947Y-51075891D01*
X113139797Y-51097126D01*
X113134581Y-51117950D01*
X113127349Y-51138162D01*
X113118170Y-51157568D01*
X113107134Y-51175981D01*
X113094346Y-51193224D01*
X113079930Y-51209130D01*
X113064024Y-51223546D01*
X113046781Y-51236334D01*
X113028368Y-51247370D01*
X113008962Y-51256549D01*
X112988750Y-51263781D01*
X112967926Y-51268997D01*
X112946691Y-51272147D01*
X112925250Y-51273200D01*
X112412750Y-51273200D01*
X112391309Y-51272147D01*
X112370074Y-51268997D01*
X112349250Y-51263781D01*
X112329038Y-51256549D01*
X112309632Y-51247370D01*
X112291219Y-51236334D01*
X112273976Y-51223546D01*
X112258070Y-51209130D01*
X112243654Y-51193224D01*
X112230866Y-51175981D01*
X112219830Y-51157568D01*
X112210651Y-51138162D01*
X112203419Y-51117950D01*
X112198203Y-51097126D01*
X112195053Y-51075891D01*
X112194000Y-51054450D01*
X112194000Y-50616950D01*
X112195053Y-50595509D01*
X112198203Y-50574274D01*
X112203419Y-50553450D01*
X112210651Y-50533238D01*
X112219830Y-50513832D01*
X112230866Y-50495419D01*
X112243654Y-50478176D01*
X112258070Y-50462270D01*
X112273976Y-50447854D01*
X112291219Y-50435066D01*
X112309632Y-50424030D01*
X112329038Y-50414851D01*
X112349250Y-50407619D01*
X112370074Y-50402403D01*
X112391309Y-50399253D01*
X112412750Y-50398200D01*
X112925250Y-50398200D01*
X112946691Y-50399253D01*
X112946691Y-50399253D01*
G37*
D11*
X112669000Y-50835700D03*
D10*
G36*
X112946691Y-48824253D02*
G01*
X112967926Y-48827403D01*
X112988750Y-48832619D01*
X113008962Y-48839851D01*
X113028368Y-48849030D01*
X113046781Y-48860066D01*
X113064024Y-48872854D01*
X113079930Y-48887270D01*
X113094346Y-48903176D01*
X113107134Y-48920419D01*
X113118170Y-48938832D01*
X113127349Y-48958238D01*
X113134581Y-48978450D01*
X113139797Y-48999274D01*
X113142947Y-49020509D01*
X113144000Y-49041950D01*
X113144000Y-49479450D01*
X113142947Y-49500891D01*
X113139797Y-49522126D01*
X113134581Y-49542950D01*
X113127349Y-49563162D01*
X113118170Y-49582568D01*
X113107134Y-49600981D01*
X113094346Y-49618224D01*
X113079930Y-49634130D01*
X113064024Y-49648546D01*
X113046781Y-49661334D01*
X113028368Y-49672370D01*
X113008962Y-49681549D01*
X112988750Y-49688781D01*
X112967926Y-49693997D01*
X112946691Y-49697147D01*
X112925250Y-49698200D01*
X112412750Y-49698200D01*
X112391309Y-49697147D01*
X112370074Y-49693997D01*
X112349250Y-49688781D01*
X112329038Y-49681549D01*
X112309632Y-49672370D01*
X112291219Y-49661334D01*
X112273976Y-49648546D01*
X112258070Y-49634130D01*
X112243654Y-49618224D01*
X112230866Y-49600981D01*
X112219830Y-49582568D01*
X112210651Y-49563162D01*
X112203419Y-49542950D01*
X112198203Y-49522126D01*
X112195053Y-49500891D01*
X112194000Y-49479450D01*
X112194000Y-49041950D01*
X112195053Y-49020509D01*
X112198203Y-48999274D01*
X112203419Y-48978450D01*
X112210651Y-48958238D01*
X112219830Y-48938832D01*
X112230866Y-48920419D01*
X112243654Y-48903176D01*
X112258070Y-48887270D01*
X112273976Y-48872854D01*
X112291219Y-48860066D01*
X112309632Y-48849030D01*
X112329038Y-48839851D01*
X112349250Y-48832619D01*
X112370074Y-48827403D01*
X112391309Y-48824253D01*
X112412750Y-48823200D01*
X112925250Y-48823200D01*
X112946691Y-48824253D01*
X112946691Y-48824253D01*
G37*
D11*
X112669000Y-49260700D03*
D10*
G36*
X110833691Y-50399253D02*
G01*
X110854926Y-50402403D01*
X110875750Y-50407619D01*
X110895962Y-50414851D01*
X110915368Y-50424030D01*
X110933781Y-50435066D01*
X110951024Y-50447854D01*
X110966930Y-50462270D01*
X110981346Y-50478176D01*
X110994134Y-50495419D01*
X111005170Y-50513832D01*
X111014349Y-50533238D01*
X111021581Y-50553450D01*
X111026797Y-50574274D01*
X111029947Y-50595509D01*
X111031000Y-50616950D01*
X111031000Y-51054450D01*
X111029947Y-51075891D01*
X111026797Y-51097126D01*
X111021581Y-51117950D01*
X111014349Y-51138162D01*
X111005170Y-51157568D01*
X110994134Y-51175981D01*
X110981346Y-51193224D01*
X110966930Y-51209130D01*
X110951024Y-51223546D01*
X110933781Y-51236334D01*
X110915368Y-51247370D01*
X110895962Y-51256549D01*
X110875750Y-51263781D01*
X110854926Y-51268997D01*
X110833691Y-51272147D01*
X110812250Y-51273200D01*
X110299750Y-51273200D01*
X110278309Y-51272147D01*
X110257074Y-51268997D01*
X110236250Y-51263781D01*
X110216038Y-51256549D01*
X110196632Y-51247370D01*
X110178219Y-51236334D01*
X110160976Y-51223546D01*
X110145070Y-51209130D01*
X110130654Y-51193224D01*
X110117866Y-51175981D01*
X110106830Y-51157568D01*
X110097651Y-51138162D01*
X110090419Y-51117950D01*
X110085203Y-51097126D01*
X110082053Y-51075891D01*
X110081000Y-51054450D01*
X110081000Y-50616950D01*
X110082053Y-50595509D01*
X110085203Y-50574274D01*
X110090419Y-50553450D01*
X110097651Y-50533238D01*
X110106830Y-50513832D01*
X110117866Y-50495419D01*
X110130654Y-50478176D01*
X110145070Y-50462270D01*
X110160976Y-50447854D01*
X110178219Y-50435066D01*
X110196632Y-50424030D01*
X110216038Y-50414851D01*
X110236250Y-50407619D01*
X110257074Y-50402403D01*
X110278309Y-50399253D01*
X110299750Y-50398200D01*
X110812250Y-50398200D01*
X110833691Y-50399253D01*
X110833691Y-50399253D01*
G37*
D11*
X110556000Y-50835700D03*
D10*
G36*
X110833691Y-48824253D02*
G01*
X110854926Y-48827403D01*
X110875750Y-48832619D01*
X110895962Y-48839851D01*
X110915368Y-48849030D01*
X110933781Y-48860066D01*
X110951024Y-48872854D01*
X110966930Y-48887270D01*
X110981346Y-48903176D01*
X110994134Y-48920419D01*
X111005170Y-48938832D01*
X111014349Y-48958238D01*
X111021581Y-48978450D01*
X111026797Y-48999274D01*
X111029947Y-49020509D01*
X111031000Y-49041950D01*
X111031000Y-49479450D01*
X111029947Y-49500891D01*
X111026797Y-49522126D01*
X111021581Y-49542950D01*
X111014349Y-49563162D01*
X111005170Y-49582568D01*
X110994134Y-49600981D01*
X110981346Y-49618224D01*
X110966930Y-49634130D01*
X110951024Y-49648546D01*
X110933781Y-49661334D01*
X110915368Y-49672370D01*
X110895962Y-49681549D01*
X110875750Y-49688781D01*
X110854926Y-49693997D01*
X110833691Y-49697147D01*
X110812250Y-49698200D01*
X110299750Y-49698200D01*
X110278309Y-49697147D01*
X110257074Y-49693997D01*
X110236250Y-49688781D01*
X110216038Y-49681549D01*
X110196632Y-49672370D01*
X110178219Y-49661334D01*
X110160976Y-49648546D01*
X110145070Y-49634130D01*
X110130654Y-49618224D01*
X110117866Y-49600981D01*
X110106830Y-49582568D01*
X110097651Y-49563162D01*
X110090419Y-49542950D01*
X110085203Y-49522126D01*
X110082053Y-49500891D01*
X110081000Y-49479450D01*
X110081000Y-49041950D01*
X110082053Y-49020509D01*
X110085203Y-48999274D01*
X110090419Y-48978450D01*
X110097651Y-48958238D01*
X110106830Y-48938832D01*
X110117866Y-48920419D01*
X110130654Y-48903176D01*
X110145070Y-48887270D01*
X110160976Y-48872854D01*
X110178219Y-48860066D01*
X110196632Y-48849030D01*
X110216038Y-48839851D01*
X110236250Y-48832619D01*
X110257074Y-48827403D01*
X110278309Y-48824253D01*
X110299750Y-48823200D01*
X110812250Y-48823200D01*
X110833691Y-48824253D01*
X110833691Y-48824253D01*
G37*
D11*
X110556000Y-49260700D03*
D10*
G36*
X108719691Y-48824253D02*
G01*
X108740926Y-48827403D01*
X108761750Y-48832619D01*
X108781962Y-48839851D01*
X108801368Y-48849030D01*
X108819781Y-48860066D01*
X108837024Y-48872854D01*
X108852930Y-48887270D01*
X108867346Y-48903176D01*
X108880134Y-48920419D01*
X108891170Y-48938832D01*
X108900349Y-48958238D01*
X108907581Y-48978450D01*
X108912797Y-48999274D01*
X108915947Y-49020509D01*
X108917000Y-49041950D01*
X108917000Y-49479450D01*
X108915947Y-49500891D01*
X108912797Y-49522126D01*
X108907581Y-49542950D01*
X108900349Y-49563162D01*
X108891170Y-49582568D01*
X108880134Y-49600981D01*
X108867346Y-49618224D01*
X108852930Y-49634130D01*
X108837024Y-49648546D01*
X108819781Y-49661334D01*
X108801368Y-49672370D01*
X108781962Y-49681549D01*
X108761750Y-49688781D01*
X108740926Y-49693997D01*
X108719691Y-49697147D01*
X108698250Y-49698200D01*
X108185750Y-49698200D01*
X108164309Y-49697147D01*
X108143074Y-49693997D01*
X108122250Y-49688781D01*
X108102038Y-49681549D01*
X108082632Y-49672370D01*
X108064219Y-49661334D01*
X108046976Y-49648546D01*
X108031070Y-49634130D01*
X108016654Y-49618224D01*
X108003866Y-49600981D01*
X107992830Y-49582568D01*
X107983651Y-49563162D01*
X107976419Y-49542950D01*
X107971203Y-49522126D01*
X107968053Y-49500891D01*
X107967000Y-49479450D01*
X107967000Y-49041950D01*
X107968053Y-49020509D01*
X107971203Y-48999274D01*
X107976419Y-48978450D01*
X107983651Y-48958238D01*
X107992830Y-48938832D01*
X108003866Y-48920419D01*
X108016654Y-48903176D01*
X108031070Y-48887270D01*
X108046976Y-48872854D01*
X108064219Y-48860066D01*
X108082632Y-48849030D01*
X108102038Y-48839851D01*
X108122250Y-48832619D01*
X108143074Y-48827403D01*
X108164309Y-48824253D01*
X108185750Y-48823200D01*
X108698250Y-48823200D01*
X108719691Y-48824253D01*
X108719691Y-48824253D01*
G37*
D11*
X108442000Y-49260700D03*
D10*
G36*
X108719691Y-50399253D02*
G01*
X108740926Y-50402403D01*
X108761750Y-50407619D01*
X108781962Y-50414851D01*
X108801368Y-50424030D01*
X108819781Y-50435066D01*
X108837024Y-50447854D01*
X108852930Y-50462270D01*
X108867346Y-50478176D01*
X108880134Y-50495419D01*
X108891170Y-50513832D01*
X108900349Y-50533238D01*
X108907581Y-50553450D01*
X108912797Y-50574274D01*
X108915947Y-50595509D01*
X108917000Y-50616950D01*
X108917000Y-51054450D01*
X108915947Y-51075891D01*
X108912797Y-51097126D01*
X108907581Y-51117950D01*
X108900349Y-51138162D01*
X108891170Y-51157568D01*
X108880134Y-51175981D01*
X108867346Y-51193224D01*
X108852930Y-51209130D01*
X108837024Y-51223546D01*
X108819781Y-51236334D01*
X108801368Y-51247370D01*
X108781962Y-51256549D01*
X108761750Y-51263781D01*
X108740926Y-51268997D01*
X108719691Y-51272147D01*
X108698250Y-51273200D01*
X108185750Y-51273200D01*
X108164309Y-51272147D01*
X108143074Y-51268997D01*
X108122250Y-51263781D01*
X108102038Y-51256549D01*
X108082632Y-51247370D01*
X108064219Y-51236334D01*
X108046976Y-51223546D01*
X108031070Y-51209130D01*
X108016654Y-51193224D01*
X108003866Y-51175981D01*
X107992830Y-51157568D01*
X107983651Y-51138162D01*
X107976419Y-51117950D01*
X107971203Y-51097126D01*
X107968053Y-51075891D01*
X107967000Y-51054450D01*
X107967000Y-50616950D01*
X107968053Y-50595509D01*
X107971203Y-50574274D01*
X107976419Y-50553450D01*
X107983651Y-50533238D01*
X107992830Y-50513832D01*
X108003866Y-50495419D01*
X108016654Y-50478176D01*
X108031070Y-50462270D01*
X108046976Y-50447854D01*
X108064219Y-50435066D01*
X108082632Y-50424030D01*
X108102038Y-50414851D01*
X108122250Y-50407619D01*
X108143074Y-50402403D01*
X108164309Y-50399253D01*
X108185750Y-50398200D01*
X108698250Y-50398200D01*
X108719691Y-50399253D01*
X108719691Y-50399253D01*
G37*
D11*
X108442000Y-50835700D03*
D10*
G36*
X106605691Y-50399253D02*
G01*
X106626926Y-50402403D01*
X106647750Y-50407619D01*
X106667962Y-50414851D01*
X106687368Y-50424030D01*
X106705781Y-50435066D01*
X106723024Y-50447854D01*
X106738930Y-50462270D01*
X106753346Y-50478176D01*
X106766134Y-50495419D01*
X106777170Y-50513832D01*
X106786349Y-50533238D01*
X106793581Y-50553450D01*
X106798797Y-50574274D01*
X106801947Y-50595509D01*
X106803000Y-50616950D01*
X106803000Y-51054450D01*
X106801947Y-51075891D01*
X106798797Y-51097126D01*
X106793581Y-51117950D01*
X106786349Y-51138162D01*
X106777170Y-51157568D01*
X106766134Y-51175981D01*
X106753346Y-51193224D01*
X106738930Y-51209130D01*
X106723024Y-51223546D01*
X106705781Y-51236334D01*
X106687368Y-51247370D01*
X106667962Y-51256549D01*
X106647750Y-51263781D01*
X106626926Y-51268997D01*
X106605691Y-51272147D01*
X106584250Y-51273200D01*
X106071750Y-51273200D01*
X106050309Y-51272147D01*
X106029074Y-51268997D01*
X106008250Y-51263781D01*
X105988038Y-51256549D01*
X105968632Y-51247370D01*
X105950219Y-51236334D01*
X105932976Y-51223546D01*
X105917070Y-51209130D01*
X105902654Y-51193224D01*
X105889866Y-51175981D01*
X105878830Y-51157568D01*
X105869651Y-51138162D01*
X105862419Y-51117950D01*
X105857203Y-51097126D01*
X105854053Y-51075891D01*
X105853000Y-51054450D01*
X105853000Y-50616950D01*
X105854053Y-50595509D01*
X105857203Y-50574274D01*
X105862419Y-50553450D01*
X105869651Y-50533238D01*
X105878830Y-50513832D01*
X105889866Y-50495419D01*
X105902654Y-50478176D01*
X105917070Y-50462270D01*
X105932976Y-50447854D01*
X105950219Y-50435066D01*
X105968632Y-50424030D01*
X105988038Y-50414851D01*
X106008250Y-50407619D01*
X106029074Y-50402403D01*
X106050309Y-50399253D01*
X106071750Y-50398200D01*
X106584250Y-50398200D01*
X106605691Y-50399253D01*
X106605691Y-50399253D01*
G37*
D11*
X106328000Y-50835700D03*
D10*
G36*
X106605691Y-48824253D02*
G01*
X106626926Y-48827403D01*
X106647750Y-48832619D01*
X106667962Y-48839851D01*
X106687368Y-48849030D01*
X106705781Y-48860066D01*
X106723024Y-48872854D01*
X106738930Y-48887270D01*
X106753346Y-48903176D01*
X106766134Y-48920419D01*
X106777170Y-48938832D01*
X106786349Y-48958238D01*
X106793581Y-48978450D01*
X106798797Y-48999274D01*
X106801947Y-49020509D01*
X106803000Y-49041950D01*
X106803000Y-49479450D01*
X106801947Y-49500891D01*
X106798797Y-49522126D01*
X106793581Y-49542950D01*
X106786349Y-49563162D01*
X106777170Y-49582568D01*
X106766134Y-49600981D01*
X106753346Y-49618224D01*
X106738930Y-49634130D01*
X106723024Y-49648546D01*
X106705781Y-49661334D01*
X106687368Y-49672370D01*
X106667962Y-49681549D01*
X106647750Y-49688781D01*
X106626926Y-49693997D01*
X106605691Y-49697147D01*
X106584250Y-49698200D01*
X106071750Y-49698200D01*
X106050309Y-49697147D01*
X106029074Y-49693997D01*
X106008250Y-49688781D01*
X105988038Y-49681549D01*
X105968632Y-49672370D01*
X105950219Y-49661334D01*
X105932976Y-49648546D01*
X105917070Y-49634130D01*
X105902654Y-49618224D01*
X105889866Y-49600981D01*
X105878830Y-49582568D01*
X105869651Y-49563162D01*
X105862419Y-49542950D01*
X105857203Y-49522126D01*
X105854053Y-49500891D01*
X105853000Y-49479450D01*
X105853000Y-49041950D01*
X105854053Y-49020509D01*
X105857203Y-48999274D01*
X105862419Y-48978450D01*
X105869651Y-48958238D01*
X105878830Y-48938832D01*
X105889866Y-48920419D01*
X105902654Y-48903176D01*
X105917070Y-48887270D01*
X105932976Y-48872854D01*
X105950219Y-48860066D01*
X105968632Y-48849030D01*
X105988038Y-48839851D01*
X106008250Y-48832619D01*
X106029074Y-48827403D01*
X106050309Y-48824253D01*
X106071750Y-48823200D01*
X106584250Y-48823200D01*
X106605691Y-48824253D01*
X106605691Y-48824253D01*
G37*
D11*
X106328000Y-49260700D03*
D12*
X118747000Y-44498300D03*
X116747000Y-45448300D03*
X116747000Y-43548300D03*
D13*
X117494000Y-37008800D03*
X107334000Y-39040800D03*
X107334000Y-37770800D03*
X107334000Y-36500800D03*
X107334000Y-35230800D03*
X107334000Y-33960800D03*
X107334000Y-32690800D03*
X107334000Y-31420800D03*
X107334000Y-30150800D03*
X107334000Y-28880800D03*
X107334000Y-27610800D03*
X119572000Y-35230800D03*
X119572000Y-27610800D03*
X119572000Y-33960800D03*
X119572000Y-28880800D03*
X119572000Y-30150800D03*
X119572000Y-31420800D03*
X119572000Y-36500800D03*
X119572000Y-32690800D03*
X119572000Y-37770800D03*
X119572000Y-39040800D03*
D14*
X116603000Y-41259800D03*
X108983000Y-41259800D03*
X115333000Y-41259800D03*
X110253000Y-41259800D03*
X111523000Y-41259800D03*
X112793000Y-41259800D03*
X117873000Y-41259800D03*
X114063000Y-41259800D03*
D13*
X117494000Y-35738800D03*
X117494000Y-34468800D03*
X117494000Y-33198800D03*
X117494000Y-31928800D03*
X117494000Y-30658800D03*
X117494000Y-29388800D03*
X117494000Y-28118800D03*
D14*
X110890000Y-39548800D03*
X109620000Y-39548800D03*
X114700000Y-39548800D03*
X112160000Y-39548800D03*
X115970000Y-39548800D03*
X117240000Y-39548800D03*
X113430000Y-39548800D03*
D15*
X109064000Y-44498300D03*
X106564000Y-44498300D03*
D16*
X96400000Y-50500000D03*
X93600000Y-50500000D03*
D17*
X104500000Y-63600000D03*
X104500000Y-66400000D03*
X104500000Y-75600000D03*
X104500000Y-78400000D03*
D16*
X96400000Y-69500000D03*
X93600000Y-69500000D03*
X96400000Y-31500000D03*
X93600000Y-31500000D03*
X96400000Y-12500000D03*
X93600000Y-12500000D03*
D17*
X85500000Y-72600000D03*
X85500000Y-75400000D03*
D16*
X77400000Y-64500000D03*
X74600000Y-64500000D03*
X77400000Y-45500000D03*
X74600000Y-45500000D03*
X77400000Y-26500000D03*
X74600000Y-26500000D03*
X77400000Y-7500000D03*
X74600000Y-7500000D03*
D17*
X66500000Y-66600000D03*
X66500000Y-69400000D03*
D16*
X58400000Y-58500000D03*
X55600000Y-58500000D03*
X58400000Y-39500000D03*
X55600000Y-39500000D03*
X58400000Y-1500000D03*
X55600000Y-1500000D03*
D17*
X47500000Y-70600000D03*
X47500000Y-73400000D03*
D16*
X39400000Y-63500000D03*
X36600000Y-63500000D03*
X39400000Y-44500000D03*
X36600000Y-44500000D03*
X39400000Y-25500000D03*
X36600000Y-25500000D03*
X39400000Y-6500000D03*
X36600000Y-6500000D03*
D17*
X28500000Y-74600000D03*
X28500000Y-77400000D03*
D16*
X20400000Y-66500000D03*
X17600000Y-66500000D03*
X20400000Y-47500000D03*
X17600000Y-47500000D03*
X20400000Y-28500000D03*
X17600000Y-28500000D03*
X20400000Y-9500000D03*
X17600000Y-9500000D03*
X58400000Y-20500000D03*
X55600000Y-20500000D03*
D17*
X9500000Y-74600000D03*
X9500000Y-77400000D03*
D16*
X1400000Y-66500000D03*
X-1400000Y-66500000D03*
X1400000Y-47500000D03*
X-1400000Y-47500000D03*
X1400000Y-28500000D03*
X-1400000Y-28500000D03*
X1400000Y-9500000D03*
X-1400000Y-9500000D03*
D18*
X121743000Y-16984200D03*
D19*
X124029000Y-16984200D03*
X121743000Y-24184200D03*
D20*
X121036000Y-19884200D03*
X121036000Y-18384200D03*
X121036000Y-22784200D03*
D18*
X124029000Y-24184200D03*
D10*
G36*
X106277691Y-19431353D02*
G01*
X106298926Y-19434503D01*
X106319750Y-19439719D01*
X106339962Y-19446951D01*
X106359368Y-19456130D01*
X106377781Y-19467166D01*
X106395024Y-19479954D01*
X106410930Y-19494370D01*
X106425346Y-19510276D01*
X106438134Y-19527519D01*
X106449170Y-19545932D01*
X106458349Y-19565338D01*
X106465581Y-19585550D01*
X106470797Y-19606374D01*
X106473947Y-19627609D01*
X106475000Y-19649050D01*
X106475000Y-20086550D01*
X106473947Y-20107991D01*
X106470797Y-20129226D01*
X106465581Y-20150050D01*
X106458349Y-20170262D01*
X106449170Y-20189668D01*
X106438134Y-20208081D01*
X106425346Y-20225324D01*
X106410930Y-20241230D01*
X106395024Y-20255646D01*
X106377781Y-20268434D01*
X106359368Y-20279470D01*
X106339962Y-20288649D01*
X106319750Y-20295881D01*
X106298926Y-20301097D01*
X106277691Y-20304247D01*
X106256250Y-20305300D01*
X105743750Y-20305300D01*
X105722309Y-20304247D01*
X105701074Y-20301097D01*
X105680250Y-20295881D01*
X105660038Y-20288649D01*
X105640632Y-20279470D01*
X105622219Y-20268434D01*
X105604976Y-20255646D01*
X105589070Y-20241230D01*
X105574654Y-20225324D01*
X105561866Y-20208081D01*
X105550830Y-20189668D01*
X105541651Y-20170262D01*
X105534419Y-20150050D01*
X105529203Y-20129226D01*
X105526053Y-20107991D01*
X105525000Y-20086550D01*
X105525000Y-19649050D01*
X105526053Y-19627609D01*
X105529203Y-19606374D01*
X105534419Y-19585550D01*
X105541651Y-19565338D01*
X105550830Y-19545932D01*
X105561866Y-19527519D01*
X105574654Y-19510276D01*
X105589070Y-19494370D01*
X105604976Y-19479954D01*
X105622219Y-19467166D01*
X105640632Y-19456130D01*
X105660038Y-19446951D01*
X105680250Y-19439719D01*
X105701074Y-19434503D01*
X105722309Y-19431353D01*
X105743750Y-19430300D01*
X106256250Y-19430300D01*
X106277691Y-19431353D01*
X106277691Y-19431353D01*
G37*
D11*
X106000000Y-19867800D03*
D10*
G36*
X106277691Y-21006353D02*
G01*
X106298926Y-21009503D01*
X106319750Y-21014719D01*
X106339962Y-21021951D01*
X106359368Y-21031130D01*
X106377781Y-21042166D01*
X106395024Y-21054954D01*
X106410930Y-21069370D01*
X106425346Y-21085276D01*
X106438134Y-21102519D01*
X106449170Y-21120932D01*
X106458349Y-21140338D01*
X106465581Y-21160550D01*
X106470797Y-21181374D01*
X106473947Y-21202609D01*
X106475000Y-21224050D01*
X106475000Y-21661550D01*
X106473947Y-21682991D01*
X106470797Y-21704226D01*
X106465581Y-21725050D01*
X106458349Y-21745262D01*
X106449170Y-21764668D01*
X106438134Y-21783081D01*
X106425346Y-21800324D01*
X106410930Y-21816230D01*
X106395024Y-21830646D01*
X106377781Y-21843434D01*
X106359368Y-21854470D01*
X106339962Y-21863649D01*
X106319750Y-21870881D01*
X106298926Y-21876097D01*
X106277691Y-21879247D01*
X106256250Y-21880300D01*
X105743750Y-21880300D01*
X105722309Y-21879247D01*
X105701074Y-21876097D01*
X105680250Y-21870881D01*
X105660038Y-21863649D01*
X105640632Y-21854470D01*
X105622219Y-21843434D01*
X105604976Y-21830646D01*
X105589070Y-21816230D01*
X105574654Y-21800324D01*
X105561866Y-21783081D01*
X105550830Y-21764668D01*
X105541651Y-21745262D01*
X105534419Y-21725050D01*
X105529203Y-21704226D01*
X105526053Y-21682991D01*
X105525000Y-21661550D01*
X105525000Y-21224050D01*
X105526053Y-21202609D01*
X105529203Y-21181374D01*
X105534419Y-21160550D01*
X105541651Y-21140338D01*
X105550830Y-21120932D01*
X105561866Y-21102519D01*
X105574654Y-21085276D01*
X105589070Y-21069370D01*
X105604976Y-21054954D01*
X105622219Y-21042166D01*
X105640632Y-21031130D01*
X105660038Y-21021951D01*
X105680250Y-21014719D01*
X105701074Y-21009503D01*
X105722309Y-21006353D01*
X105743750Y-21005300D01*
X106256250Y-21005300D01*
X106277691Y-21006353D01*
X106277691Y-21006353D01*
G37*
D11*
X106000000Y-21442800D03*
D21*
X119169000Y-55128200D03*
X122469000Y-55128200D03*
D10*
G36*
X106277691Y-17567253D02*
G01*
X106298926Y-17570403D01*
X106319750Y-17575619D01*
X106339962Y-17582851D01*
X106359368Y-17592030D01*
X106377781Y-17603066D01*
X106395024Y-17615854D01*
X106410930Y-17630270D01*
X106425346Y-17646176D01*
X106438134Y-17663419D01*
X106449170Y-17681832D01*
X106458349Y-17701238D01*
X106465581Y-17721450D01*
X106470797Y-17742274D01*
X106473947Y-17763509D01*
X106475000Y-17784950D01*
X106475000Y-18222450D01*
X106473947Y-18243891D01*
X106470797Y-18265126D01*
X106465581Y-18285950D01*
X106458349Y-18306162D01*
X106449170Y-18325568D01*
X106438134Y-18343981D01*
X106425346Y-18361224D01*
X106410930Y-18377130D01*
X106395024Y-18391546D01*
X106377781Y-18404334D01*
X106359368Y-18415370D01*
X106339962Y-18424549D01*
X106319750Y-18431781D01*
X106298926Y-18436997D01*
X106277691Y-18440147D01*
X106256250Y-18441200D01*
X105743750Y-18441200D01*
X105722309Y-18440147D01*
X105701074Y-18436997D01*
X105680250Y-18431781D01*
X105660038Y-18424549D01*
X105640632Y-18415370D01*
X105622219Y-18404334D01*
X105604976Y-18391546D01*
X105589070Y-18377130D01*
X105574654Y-18361224D01*
X105561866Y-18343981D01*
X105550830Y-18325568D01*
X105541651Y-18306162D01*
X105534419Y-18285950D01*
X105529203Y-18265126D01*
X105526053Y-18243891D01*
X105525000Y-18222450D01*
X105525000Y-17784950D01*
X105526053Y-17763509D01*
X105529203Y-17742274D01*
X105534419Y-17721450D01*
X105541651Y-17701238D01*
X105550830Y-17681832D01*
X105561866Y-17663419D01*
X105574654Y-17646176D01*
X105589070Y-17630270D01*
X105604976Y-17615854D01*
X105622219Y-17603066D01*
X105640632Y-17592030D01*
X105660038Y-17582851D01*
X105680250Y-17575619D01*
X105701074Y-17570403D01*
X105722309Y-17567253D01*
X105743750Y-17566200D01*
X106256250Y-17566200D01*
X106277691Y-17567253D01*
X106277691Y-17567253D01*
G37*
D11*
X106000000Y-18003700D03*
D10*
G36*
X106277691Y-15992253D02*
G01*
X106298926Y-15995403D01*
X106319750Y-16000619D01*
X106339962Y-16007851D01*
X106359368Y-16017030D01*
X106377781Y-16028066D01*
X106395024Y-16040854D01*
X106410930Y-16055270D01*
X106425346Y-16071176D01*
X106438134Y-16088419D01*
X106449170Y-16106832D01*
X106458349Y-16126238D01*
X106465581Y-16146450D01*
X106470797Y-16167274D01*
X106473947Y-16188509D01*
X106475000Y-16209950D01*
X106475000Y-16647450D01*
X106473947Y-16668891D01*
X106470797Y-16690126D01*
X106465581Y-16710950D01*
X106458349Y-16731162D01*
X106449170Y-16750568D01*
X106438134Y-16768981D01*
X106425346Y-16786224D01*
X106410930Y-16802130D01*
X106395024Y-16816546D01*
X106377781Y-16829334D01*
X106359368Y-16840370D01*
X106339962Y-16849549D01*
X106319750Y-16856781D01*
X106298926Y-16861997D01*
X106277691Y-16865147D01*
X106256250Y-16866200D01*
X105743750Y-16866200D01*
X105722309Y-16865147D01*
X105701074Y-16861997D01*
X105680250Y-16856781D01*
X105660038Y-16849549D01*
X105640632Y-16840370D01*
X105622219Y-16829334D01*
X105604976Y-16816546D01*
X105589070Y-16802130D01*
X105574654Y-16786224D01*
X105561866Y-16768981D01*
X105550830Y-16750568D01*
X105541651Y-16731162D01*
X105534419Y-16710950D01*
X105529203Y-16690126D01*
X105526053Y-16668891D01*
X105525000Y-16647450D01*
X105525000Y-16209950D01*
X105526053Y-16188509D01*
X105529203Y-16167274D01*
X105534419Y-16146450D01*
X105541651Y-16126238D01*
X105550830Y-16106832D01*
X105561866Y-16088419D01*
X105574654Y-16071176D01*
X105589070Y-16055270D01*
X105604976Y-16040854D01*
X105622219Y-16028066D01*
X105640632Y-16017030D01*
X105660038Y-16007851D01*
X105680250Y-16000619D01*
X105701074Y-15995403D01*
X105722309Y-15992253D01*
X105743750Y-15991200D01*
X106256250Y-15991200D01*
X106277691Y-15992253D01*
X106277691Y-15992253D01*
G37*
D11*
X106000000Y-16428700D03*
D22*
X110253000Y-22605800D03*
X116653000Y-22605800D03*
X115853000Y-22605800D03*
X111053000Y-22605800D03*
D23*
X112703000Y-22605800D03*
X114203000Y-22605800D03*
X113203000Y-22605800D03*
X113703000Y-22605800D03*
X114703000Y-22605800D03*
X115203000Y-22605800D03*
X112203000Y-22605800D03*
X111703000Y-22605800D03*
D24*
X120913000Y-45448300D03*
X120913000Y-43548300D03*
X123113000Y-43548300D03*
X123113000Y-44498300D03*
X123113000Y-45448300D03*
X112381000Y-43548300D03*
X112381000Y-44498300D03*
X112381000Y-45448300D03*
X114581000Y-45448300D03*
X114581000Y-43548300D03*
M02*
