G04 #@! TF.GenerationSoftware,KiCad,Pcbnew,(5.1.4)-1*
G04 #@! TF.CreationDate,2021-06-10T17:13:43-04:00*
G04 #@! TF.ProjectId,splitreus,73706c69-7472-4657-9573-2e6b69636164,1*
G04 #@! TF.SameCoordinates,Original*
G04 #@! TF.FileFunction,Legend,Bot*
G04 #@! TF.FilePolarity,Positive*
%FSLAX46Y46*%
G04 Gerber Fmt 4.6, Leading zero omitted, Abs format (unit mm)*
G04 Created by KiCad (PCBNEW (5.1.4)-1) date 2021-06-10 17:13:43*
%MOMM*%
%LPD*%
G04 APERTURE LIST*
%ADD10C,0.100000*%
%ADD11C,0.150000*%
%ADD12C,0.120000*%
%ADD13C,0.381000*%
G04 APERTURE END LIST*
D10*
G36*
X98887000Y-73310000D02*
G01*
X102957000Y-75660000D01*
X98877000Y-77960000D01*
X98887000Y-73310000D01*
G37*
X98887000Y-73310000D02*
X102957000Y-75660000D01*
X98877000Y-77960000D01*
X98887000Y-73310000D01*
G36*
X101607000Y-77980000D02*
G01*
X97537000Y-75630000D01*
X101617000Y-73330000D01*
X101607000Y-77980000D01*
G37*
X101607000Y-77980000D02*
X97537000Y-75630000D01*
X101617000Y-73330000D01*
X101607000Y-77980000D01*
G36*
X102597000Y-74290000D02*
G01*
X100247000Y-78360000D01*
X97947000Y-74280000D01*
X102597000Y-74290000D01*
G37*
X102597000Y-74290000D02*
X100247000Y-78360000D01*
X97947000Y-74280000D01*
X102597000Y-74290000D01*
G36*
X97887000Y-77030000D02*
G01*
X100237000Y-72960000D01*
X102537000Y-77040000D01*
X97887000Y-77030000D01*
G37*
X97887000Y-77030000D02*
X100237000Y-72960000D01*
X102537000Y-77040000D01*
X97887000Y-77030000D01*
G36*
X97276000Y-12880000D02*
G01*
X99626000Y-8810000D01*
X101926000Y-12890000D01*
X97276000Y-12880000D01*
G37*
X97276000Y-12880000D02*
X99626000Y-8810000D01*
X101926000Y-12890000D01*
X97276000Y-12880000D01*
G36*
X101986000Y-10140000D02*
G01*
X99636000Y-14210000D01*
X97336000Y-10130000D01*
X101986000Y-10140000D01*
G37*
X101986000Y-10140000D02*
X99636000Y-14210000D01*
X97336000Y-10130000D01*
X101986000Y-10140000D01*
G36*
X100996000Y-13830000D02*
G01*
X96926000Y-11480000D01*
X101006000Y-9180000D01*
X100996000Y-13830000D01*
G37*
X100996000Y-13830000D02*
X96926000Y-11480000D01*
X101006000Y-9180000D01*
X100996000Y-13830000D01*
G36*
X98276000Y-9160000D02*
G01*
X102346000Y-11510000D01*
X98266000Y-13810000D01*
X98276000Y-9160000D01*
G37*
X98276000Y-9160000D02*
X102346000Y-11510000D01*
X98266000Y-13810000D01*
X98276000Y-9160000D01*
G36*
X26559000Y-72372000D02*
G01*
X30629000Y-74722000D01*
X26549000Y-77022000D01*
X26559000Y-72372000D01*
G37*
X26559000Y-72372000D02*
X30629000Y-74722000D01*
X26549000Y-77022000D01*
X26559000Y-72372000D01*
G36*
X29279000Y-77042000D02*
G01*
X25209000Y-74692000D01*
X29289000Y-72392000D01*
X29279000Y-77042000D01*
G37*
X29279000Y-77042000D02*
X25209000Y-74692000D01*
X29289000Y-72392000D01*
X29279000Y-77042000D01*
G36*
X30269000Y-73352000D02*
G01*
X27919000Y-77422000D01*
X25619000Y-73342000D01*
X30269000Y-73352000D01*
G37*
X30269000Y-73352000D02*
X27919000Y-77422000D01*
X25619000Y-73342000D01*
X30269000Y-73352000D01*
G36*
X25559000Y-76092000D02*
G01*
X27909000Y-72022000D01*
X30209000Y-76102000D01*
X25559000Y-76092000D01*
G37*
X25559000Y-76092000D02*
X27909000Y-72022000D01*
X30209000Y-76102000D01*
X25559000Y-76092000D01*
G36*
X24741000Y12052006D02*
G01*
X28811000Y9702006D01*
X24731000Y7402006D01*
X24741000Y12052006D01*
G37*
X24741000Y12052006D02*
X28811000Y9702006D01*
X24731000Y7402006D01*
X24741000Y12052006D01*
G36*
X27461000Y7382006D02*
G01*
X23391000Y9732006D01*
X27471000Y12032006D01*
X27461000Y7382006D01*
G37*
X27461000Y7382006D02*
X23391000Y9732006D01*
X27471000Y12032006D01*
X27461000Y7382006D01*
G36*
X28451000Y11072006D02*
G01*
X26101000Y7002006D01*
X23801000Y11082006D01*
X28451000Y11072006D01*
G37*
X28451000Y11072006D02*
X26101000Y7002006D01*
X23801000Y11082006D01*
X28451000Y11072006D01*
G36*
X23741000Y8332006D02*
G01*
X26091000Y12402006D01*
X28391000Y8322006D01*
X23741000Y8332006D01*
G37*
X23741000Y8332006D02*
X26091000Y12402006D01*
X28391000Y8322006D01*
X23741000Y8332006D01*
G36*
X-9850000Y-57160000D02*
G01*
X-5780000Y-59510000D01*
X-9860000Y-61810000D01*
X-9850000Y-57160000D01*
G37*
X-9850000Y-57160000D02*
X-5780000Y-59510000D01*
X-9860000Y-61810000D01*
X-9850000Y-57160000D01*
G36*
X-7130000Y-61830000D02*
G01*
X-11200000Y-59480000D01*
X-7120000Y-57180000D01*
X-7130000Y-61830000D01*
G37*
X-7130000Y-61830000D02*
X-11200000Y-59480000D01*
X-7120000Y-57180000D01*
X-7130000Y-61830000D01*
G36*
X-6140000Y-58140000D02*
G01*
X-8490000Y-62210000D01*
X-10790000Y-58130000D01*
X-6140000Y-58140000D01*
G37*
X-6140000Y-58140000D02*
X-8490000Y-62210000D01*
X-10790000Y-58130000D01*
X-6140000Y-58140000D01*
G36*
X-10850000Y-60880000D02*
G01*
X-8500000Y-56810000D01*
X-6200000Y-60890000D01*
X-10850000Y-60880000D01*
G37*
X-10850000Y-60880000D02*
X-8500000Y-56810000D01*
X-6200000Y-60890000D01*
X-10850000Y-60880000D01*
G36*
X-9850000Y-6160000D02*
G01*
X-5780000Y-8510000D01*
X-9860000Y-10810000D01*
X-9850000Y-6160000D01*
G37*
X-9850000Y-6160000D02*
X-5780000Y-8510000D01*
X-9860000Y-10810000D01*
X-9850000Y-6160000D01*
G36*
X-7130000Y-10830000D02*
G01*
X-11200000Y-8480000D01*
X-7120000Y-6180000D01*
X-7130000Y-10830000D01*
G37*
X-7130000Y-10830000D02*
X-11200000Y-8480000D01*
X-7120000Y-6180000D01*
X-7130000Y-10830000D01*
G36*
X-6140000Y-7140000D02*
G01*
X-8490000Y-11210000D01*
X-10790000Y-7130000D01*
X-6140000Y-7140000D01*
G37*
X-6140000Y-7140000D02*
X-8490000Y-11210000D01*
X-10790000Y-7130000D01*
X-6140000Y-7140000D01*
G36*
X-10850000Y-9880000D02*
G01*
X-8500000Y-5810000D01*
X-6200000Y-9890000D01*
X-10850000Y-9880000D01*
G37*
X-10850000Y-9880000D02*
X-8500000Y-5810000D01*
X-6200000Y-9890000D01*
X-10850000Y-9880000D01*
D11*
X116048000Y-51628000D02*
X116048000Y-50928000D01*
X116048000Y-48128000D02*
X116048000Y-48728000D01*
X110048000Y-48128000D02*
X110048000Y-48728000D01*
X110048000Y-51628000D02*
X110048000Y-50928000D01*
X110048000Y-48128000D02*
X116048000Y-48128000D01*
X116048000Y-51628000D02*
X110048000Y-51628000D01*
X116048000Y-51628000D02*
X110148000Y-51628000D01*
D12*
X74640000Y-23020000D02*
X69230000Y-23020000D01*
X74640000Y-21010000D02*
X74640000Y-23020000D01*
X69290000Y-20990000D02*
X74640000Y-20990000D01*
D10*
G36*
X69460000Y-20984000D02*
G01*
X69460000Y-23030000D01*
X68444000Y-23030000D01*
X68444000Y-20984000D01*
X68952000Y-20984000D01*
X69460000Y-20984000D01*
G37*
X69460000Y-20984000D02*
X69460000Y-23030000D01*
X68444000Y-23030000D01*
X68444000Y-20984000D01*
X68952000Y-20984000D01*
X69460000Y-20984000D01*
D13*
X102418000Y-17278000D02*
X99878000Y-17278000D01*
X117658000Y-14738000D02*
X99878000Y-14738000D01*
X99878000Y-14738000D02*
X99878000Y-47758000D01*
X99878000Y-47758000D02*
X117658000Y-47758000D01*
X117658000Y-47758000D02*
X117658000Y-14738000D01*
D11*
G36*
X114612635Y-23167030D02*
G01*
X114612635Y-23267030D01*
X115112635Y-23267030D01*
X115112635Y-23167030D01*
X114612635Y-23167030D01*
G37*
X114612635Y-23167030D02*
X114612635Y-23267030D01*
X115112635Y-23267030D01*
X115112635Y-23167030D01*
X114612635Y-23167030D01*
G36*
X114612635Y-23167030D02*
G01*
X114612635Y-23467030D01*
X114712635Y-23467030D01*
X114712635Y-23167030D01*
X114612635Y-23167030D01*
G37*
X114612635Y-23167030D02*
X114612635Y-23467030D01*
X114712635Y-23467030D01*
X114712635Y-23167030D01*
X114612635Y-23167030D01*
G36*
X114612635Y-23767030D02*
G01*
X114612635Y-23967030D01*
X114712635Y-23967030D01*
X114712635Y-23767030D01*
X114612635Y-23767030D01*
G37*
X114612635Y-23767030D02*
X114612635Y-23967030D01*
X114712635Y-23967030D01*
X114712635Y-23767030D01*
X114612635Y-23767030D01*
G36*
X115012635Y-23167030D02*
G01*
X115012635Y-23967030D01*
X115112635Y-23967030D01*
X115112635Y-23167030D01*
X115012635Y-23167030D01*
G37*
X115012635Y-23167030D02*
X115012635Y-23967030D01*
X115112635Y-23967030D01*
X115112635Y-23167030D01*
X115012635Y-23167030D01*
G36*
X114812635Y-23567030D02*
G01*
X114812635Y-23667030D01*
X114912635Y-23667030D01*
X114912635Y-23567030D01*
X114812635Y-23567030D01*
G37*
X114812635Y-23567030D02*
X114812635Y-23667030D01*
X114912635Y-23667030D01*
X114912635Y-23567030D01*
X114812635Y-23567030D01*
D13*
X102418000Y-17278000D02*
X102418000Y-19818000D01*
X102418000Y-19818000D02*
X99878000Y-19818000D01*
D11*
X105300000Y-60500000D02*
X106000000Y-60500000D01*
X106000000Y-60500000D02*
X106000000Y-56000000D01*
X103800000Y-62000000D02*
G75*
G02X105300000Y-60500000I1500000J0D01*
G01*
X99300000Y-61500000D02*
X99800000Y-61000000D01*
X100800000Y-61000000D02*
X99800000Y-61000000D01*
X101300000Y-56000000D02*
X101300000Y-60500000D01*
X103300000Y-65000000D02*
X103800000Y-64500000D01*
X101900000Y-56000000D02*
X101300000Y-56000000D01*
X103800000Y-64500000D02*
X103800000Y-62000000D01*
X99800000Y-65000000D02*
X99300000Y-64500000D01*
X99300000Y-64500000D02*
X99300000Y-61500000D01*
X101300000Y-60500000D02*
G75*
G02X100800000Y-61000000I-500000J0D01*
G01*
X106000000Y-56000000D02*
X105500000Y-56000000D01*
X100500000Y-57000000D02*
X100500000Y-56000000D01*
X100500000Y-70000000D02*
X100500000Y-69000000D01*
X101500000Y-70000000D02*
X100500000Y-70000000D01*
X114500000Y-70000000D02*
X113500000Y-70000000D01*
X114500000Y-69000000D02*
X114500000Y-70000000D01*
X113500000Y-56000000D02*
X114500000Y-56000000D01*
X100500000Y-56000000D02*
X101500000Y-56000000D01*
X114500000Y-56000000D02*
X114500000Y-57000000D01*
X92500000Y-68800000D02*
X92500000Y-69500000D01*
X92500000Y-69500000D02*
X97000000Y-69500000D01*
X91000000Y-67300000D02*
G75*
G02X92500000Y-68800000I0J-1500000D01*
G01*
X91500000Y-62800000D02*
X92000000Y-63300000D01*
X92000000Y-64300000D02*
X92000000Y-63300000D01*
X97000000Y-64800000D02*
X92500000Y-64800000D01*
X88000000Y-66800000D02*
X88500000Y-67300000D01*
X97000000Y-65400000D02*
X97000000Y-64800000D01*
X88500000Y-67300000D02*
X91000000Y-67300000D01*
X88000000Y-63300000D02*
X88500000Y-62800000D01*
X88500000Y-62800000D02*
X91500000Y-62800000D01*
X92500000Y-64800000D02*
G75*
G02X92000000Y-64300000I0J500000D01*
G01*
X97000000Y-69500000D02*
X97000000Y-69000000D01*
X96000000Y-64000000D02*
X97000000Y-64000000D01*
X83000000Y-64000000D02*
X84000000Y-64000000D01*
X83000000Y-65000000D02*
X83000000Y-64000000D01*
X83000000Y-78000000D02*
X83000000Y-77000000D01*
X84000000Y-78000000D02*
X83000000Y-78000000D01*
X97000000Y-77000000D02*
X97000000Y-78000000D01*
X97000000Y-64000000D02*
X97000000Y-65000000D01*
X97000000Y-78000000D02*
X96000000Y-78000000D01*
X92500000Y-51800000D02*
X92500000Y-52500000D01*
X92500000Y-52500000D02*
X97000000Y-52500000D01*
X91000000Y-50300000D02*
G75*
G02X92500000Y-51800000I0J-1500000D01*
G01*
X91500000Y-45800000D02*
X92000000Y-46300000D01*
X92000000Y-47300000D02*
X92000000Y-46300000D01*
X97000000Y-47800000D02*
X92500000Y-47800000D01*
X88000000Y-49800000D02*
X88500000Y-50300000D01*
X97000000Y-48400000D02*
X97000000Y-47800000D01*
X88500000Y-50300000D02*
X91000000Y-50300000D01*
X88000000Y-46300000D02*
X88500000Y-45800000D01*
X88500000Y-45800000D02*
X91500000Y-45800000D01*
X92500000Y-47800000D02*
G75*
G02X92000000Y-47300000I0J500000D01*
G01*
X97000000Y-52500000D02*
X97000000Y-52000000D01*
X96000000Y-47000000D02*
X97000000Y-47000000D01*
X83000000Y-47000000D02*
X84000000Y-47000000D01*
X83000000Y-48000000D02*
X83000000Y-47000000D01*
X83000000Y-61000000D02*
X83000000Y-60000000D01*
X84000000Y-61000000D02*
X83000000Y-61000000D01*
X97000000Y-60000000D02*
X97000000Y-61000000D01*
X97000000Y-47000000D02*
X97000000Y-48000000D01*
X97000000Y-61000000D02*
X96000000Y-61000000D01*
X92500000Y-34800000D02*
X92500000Y-35500000D01*
X92500000Y-35500000D02*
X97000000Y-35500000D01*
X91000000Y-33300000D02*
G75*
G02X92500000Y-34800000I0J-1500000D01*
G01*
X91500000Y-28800000D02*
X92000000Y-29300000D01*
X92000000Y-30300000D02*
X92000000Y-29300000D01*
X97000000Y-30800000D02*
X92500000Y-30800000D01*
X88000000Y-32800000D02*
X88500000Y-33300000D01*
X97000000Y-31400000D02*
X97000000Y-30800000D01*
X88500000Y-33300000D02*
X91000000Y-33300000D01*
X88000000Y-29300000D02*
X88500000Y-28800000D01*
X88500000Y-28800000D02*
X91500000Y-28800000D01*
X92500000Y-30800000D02*
G75*
G02X92000000Y-30300000I0J500000D01*
G01*
X97000000Y-35500000D02*
X97000000Y-35000000D01*
X96000000Y-30000000D02*
X97000000Y-30000000D01*
X83000000Y-30000000D02*
X84000000Y-30000000D01*
X83000000Y-31000000D02*
X83000000Y-30000000D01*
X83000000Y-44000000D02*
X83000000Y-43000000D01*
X84000000Y-44000000D02*
X83000000Y-44000000D01*
X97000000Y-43000000D02*
X97000000Y-44000000D01*
X97000000Y-30000000D02*
X97000000Y-31000000D01*
X97000000Y-44000000D02*
X96000000Y-44000000D01*
X92500000Y-17800000D02*
X92500000Y-18500000D01*
X92500000Y-18500000D02*
X97000000Y-18500000D01*
X91000000Y-16300000D02*
G75*
G02X92500000Y-17800000I0J-1500000D01*
G01*
X91500000Y-11800000D02*
X92000000Y-12300000D01*
X92000000Y-13300000D02*
X92000000Y-12300000D01*
X97000000Y-13800000D02*
X92500000Y-13800000D01*
X88000000Y-15800000D02*
X88500000Y-16300000D01*
X97000000Y-14400000D02*
X97000000Y-13800000D01*
X88500000Y-16300000D02*
X91000000Y-16300000D01*
X88000000Y-12300000D02*
X88500000Y-11800000D01*
X88500000Y-11800000D02*
X91500000Y-11800000D01*
X92500000Y-13800000D02*
G75*
G02X92000000Y-13300000I0J500000D01*
G01*
X97000000Y-18500000D02*
X97000000Y-18000000D01*
X96000000Y-13000000D02*
X97000000Y-13000000D01*
X83000000Y-13000000D02*
X84000000Y-13000000D01*
X83000000Y-14000000D02*
X83000000Y-13000000D01*
X83000000Y-27000000D02*
X83000000Y-26000000D01*
X84000000Y-27000000D02*
X83000000Y-27000000D01*
X97000000Y-26000000D02*
X97000000Y-27000000D01*
X97000000Y-13000000D02*
X97000000Y-14000000D01*
X97000000Y-27000000D02*
X96000000Y-27000000D01*
X92500000Y-800000D02*
X92500000Y-1500000D01*
X92500000Y-1500000D02*
X97000000Y-1500000D01*
X91000000Y700000D02*
G75*
G02X92500000Y-800000I0J-1500000D01*
G01*
X91500000Y5200000D02*
X92000000Y4700000D01*
X92000000Y3700000D02*
X92000000Y4700000D01*
X97000000Y3200000D02*
X92500000Y3200000D01*
X88000000Y1200000D02*
X88500000Y700000D01*
X97000000Y2600000D02*
X97000000Y3200000D01*
X88500000Y700000D02*
X91000000Y700000D01*
X88000000Y4700000D02*
X88500000Y5200000D01*
X88500000Y5200000D02*
X91500000Y5200000D01*
X92500000Y3200000D02*
G75*
G02X92000000Y3700000I0J500000D01*
G01*
X97000000Y-1500000D02*
X97000000Y-1000000D01*
X96000000Y4000000D02*
X97000000Y4000000D01*
X83000000Y4000000D02*
X84000000Y4000000D01*
X83000000Y3000000D02*
X83000000Y4000000D01*
X83000000Y-10000000D02*
X83000000Y-9000000D01*
X84000000Y-10000000D02*
X83000000Y-10000000D01*
X97000000Y-9000000D02*
X97000000Y-10000000D01*
X97000000Y4000000D02*
X97000000Y3000000D01*
X97000000Y-10000000D02*
X96000000Y-10000000D01*
X74500000Y-63800000D02*
X74500000Y-64500000D01*
X74500000Y-64500000D02*
X79000000Y-64500000D01*
X73000000Y-62300000D02*
G75*
G02X74500000Y-63800000I0J-1500000D01*
G01*
X73500000Y-57800000D02*
X74000000Y-58300000D01*
X74000000Y-59300000D02*
X74000000Y-58300000D01*
X79000000Y-59800000D02*
X74500000Y-59800000D01*
X70000000Y-61800000D02*
X70500000Y-62300000D01*
X79000000Y-60400000D02*
X79000000Y-59800000D01*
X70500000Y-62300000D02*
X73000000Y-62300000D01*
X70000000Y-58300000D02*
X70500000Y-57800000D01*
X70500000Y-57800000D02*
X73500000Y-57800000D01*
X74500000Y-59800000D02*
G75*
G02X74000000Y-59300000I0J500000D01*
G01*
X79000000Y-64500000D02*
X79000000Y-64000000D01*
X78000000Y-59000000D02*
X79000000Y-59000000D01*
X65000000Y-59000000D02*
X66000000Y-59000000D01*
X65000000Y-60000000D02*
X65000000Y-59000000D01*
X65000000Y-73000000D02*
X65000000Y-72000000D01*
X66000000Y-73000000D02*
X65000000Y-73000000D01*
X79000000Y-72000000D02*
X79000000Y-73000000D01*
X79000000Y-59000000D02*
X79000000Y-60000000D01*
X79000000Y-73000000D02*
X78000000Y-73000000D01*
X74500000Y-46800000D02*
X74500000Y-47500000D01*
X74500000Y-47500000D02*
X79000000Y-47500000D01*
X73000000Y-45300000D02*
G75*
G02X74500000Y-46800000I0J-1500000D01*
G01*
X73500000Y-40800000D02*
X74000000Y-41300000D01*
X74000000Y-42300000D02*
X74000000Y-41300000D01*
X79000000Y-42800000D02*
X74500000Y-42800000D01*
X70000000Y-44800000D02*
X70500000Y-45300000D01*
X79000000Y-43400000D02*
X79000000Y-42800000D01*
X70500000Y-45300000D02*
X73000000Y-45300000D01*
X70000000Y-41300000D02*
X70500000Y-40800000D01*
X70500000Y-40800000D02*
X73500000Y-40800000D01*
X74500000Y-42800000D02*
G75*
G02X74000000Y-42300000I0J500000D01*
G01*
X79000000Y-47500000D02*
X79000000Y-47000000D01*
X78000000Y-42000000D02*
X79000000Y-42000000D01*
X65000000Y-42000000D02*
X66000000Y-42000000D01*
X65000000Y-43000000D02*
X65000000Y-42000000D01*
X65000000Y-56000000D02*
X65000000Y-55000000D01*
X66000000Y-56000000D02*
X65000000Y-56000000D01*
X79000000Y-55000000D02*
X79000000Y-56000000D01*
X79000000Y-42000000D02*
X79000000Y-43000000D01*
X79000000Y-56000000D02*
X78000000Y-56000000D01*
X74500000Y-29800000D02*
X74500000Y-30500000D01*
X74500000Y-30500000D02*
X79000000Y-30500000D01*
X73000000Y-28300000D02*
G75*
G02X74500000Y-29800000I0J-1500000D01*
G01*
X73500000Y-23800000D02*
X74000000Y-24300000D01*
X74000000Y-25300000D02*
X74000000Y-24300000D01*
X79000000Y-25800000D02*
X74500000Y-25800000D01*
X70000000Y-27800000D02*
X70500000Y-28300000D01*
X79000000Y-26400000D02*
X79000000Y-25800000D01*
X70500000Y-28300000D02*
X73000000Y-28300000D01*
X70000000Y-24300000D02*
X70500000Y-23800000D01*
X70500000Y-23800000D02*
X73500000Y-23800000D01*
X74500000Y-25800000D02*
G75*
G02X74000000Y-25300000I0J500000D01*
G01*
X79000000Y-30500000D02*
X79000000Y-30000000D01*
X78000000Y-25000000D02*
X79000000Y-25000000D01*
X65000000Y-25000000D02*
X66000000Y-25000000D01*
X65000000Y-26000000D02*
X65000000Y-25000000D01*
X65000000Y-39000000D02*
X65000000Y-38000000D01*
X66000000Y-39000000D02*
X65000000Y-39000000D01*
X79000000Y-38000000D02*
X79000000Y-39000000D01*
X79000000Y-25000000D02*
X79000000Y-26000000D01*
X79000000Y-39000000D02*
X78000000Y-39000000D01*
X74500000Y-12800000D02*
X74500000Y-13500000D01*
X74500000Y-13500000D02*
X79000000Y-13500000D01*
X73000000Y-11300000D02*
G75*
G02X74500000Y-12800000I0J-1500000D01*
G01*
X73500000Y-6800000D02*
X74000000Y-7300000D01*
X74000000Y-8300000D02*
X74000000Y-7300000D01*
X79000000Y-8800000D02*
X74500000Y-8800000D01*
X70000000Y-10800000D02*
X70500000Y-11300000D01*
X79000000Y-9400000D02*
X79000000Y-8800000D01*
X70500000Y-11300000D02*
X73000000Y-11300000D01*
X70000000Y-7300000D02*
X70500000Y-6800000D01*
X70500000Y-6800000D02*
X73500000Y-6800000D01*
X74500000Y-8800000D02*
G75*
G02X74000000Y-8300000I0J500000D01*
G01*
X79000000Y-13500000D02*
X79000000Y-13000000D01*
X78000000Y-8000000D02*
X79000000Y-8000000D01*
X65000000Y-8000000D02*
X66000000Y-8000000D01*
X65000000Y-9000000D02*
X65000000Y-8000000D01*
X65000000Y-22000000D02*
X65000000Y-21000000D01*
X66000000Y-22000000D02*
X65000000Y-22000000D01*
X79000000Y-21000000D02*
X79000000Y-22000000D01*
X79000000Y-8000000D02*
X79000000Y-9000000D01*
X79000000Y-22000000D02*
X78000000Y-22000000D01*
X74500000Y4200000D02*
X74500000Y3500000D01*
X74500000Y3500000D02*
X79000000Y3500000D01*
X73000000Y5700000D02*
G75*
G02X74500000Y4200000I0J-1500000D01*
G01*
X73500000Y10200000D02*
X74000000Y9700000D01*
X74000000Y8700000D02*
X74000000Y9700000D01*
X79000000Y8200000D02*
X74500000Y8200000D01*
X70000000Y6200000D02*
X70500000Y5700000D01*
X79000000Y7600000D02*
X79000000Y8200000D01*
X70500000Y5700000D02*
X73000000Y5700000D01*
X70000000Y9700000D02*
X70500000Y10200000D01*
X70500000Y10200000D02*
X73500000Y10200000D01*
X74500000Y8200000D02*
G75*
G02X74000000Y8700000I0J500000D01*
G01*
X79000000Y3500000D02*
X79000000Y4000000D01*
X78000000Y9000000D02*
X79000000Y9000000D01*
X65000000Y9000000D02*
X66000000Y9000000D01*
X65000000Y8000000D02*
X65000000Y9000000D01*
X65000000Y-5000000D02*
X65000000Y-4000000D01*
X66000000Y-5000000D02*
X65000000Y-5000000D01*
X79000000Y-4000000D02*
X79000000Y-5000000D01*
X79000000Y9000000D02*
X79000000Y8000000D01*
X79000000Y-5000000D02*
X78000000Y-5000000D01*
X56500000Y-57800000D02*
X56500000Y-58500000D01*
X56500000Y-58500000D02*
X61000000Y-58500000D01*
X55000000Y-56300000D02*
G75*
G02X56500000Y-57800000I0J-1500000D01*
G01*
X55500000Y-51800000D02*
X56000000Y-52300000D01*
X56000000Y-53300000D02*
X56000000Y-52300000D01*
X61000000Y-53800000D02*
X56500000Y-53800000D01*
X52000000Y-55800000D02*
X52500000Y-56300000D01*
X61000000Y-54400000D02*
X61000000Y-53800000D01*
X52500000Y-56300000D02*
X55000000Y-56300000D01*
X52000000Y-52300000D02*
X52500000Y-51800000D01*
X52500000Y-51800000D02*
X55500000Y-51800000D01*
X56500000Y-53800000D02*
G75*
G02X56000000Y-53300000I0J500000D01*
G01*
X61000000Y-58500000D02*
X61000000Y-58000000D01*
X60000000Y-53000000D02*
X61000000Y-53000000D01*
X47000000Y-53000000D02*
X48000000Y-53000000D01*
X47000000Y-54000000D02*
X47000000Y-53000000D01*
X47000000Y-67000000D02*
X47000000Y-66000000D01*
X48000000Y-67000000D02*
X47000000Y-67000000D01*
X61000000Y-66000000D02*
X61000000Y-67000000D01*
X61000000Y-53000000D02*
X61000000Y-54000000D01*
X61000000Y-67000000D02*
X60000000Y-67000000D01*
X56500000Y-40800000D02*
X56500000Y-41500000D01*
X56500000Y-41500000D02*
X61000000Y-41500000D01*
X55000000Y-39300000D02*
G75*
G02X56500000Y-40800000I0J-1500000D01*
G01*
X55500000Y-34800000D02*
X56000000Y-35300000D01*
X56000000Y-36300000D02*
X56000000Y-35300000D01*
X61000000Y-36800000D02*
X56500000Y-36800000D01*
X52000000Y-38800000D02*
X52500000Y-39300000D01*
X61000000Y-37400000D02*
X61000000Y-36800000D01*
X52500000Y-39300000D02*
X55000000Y-39300000D01*
X52000000Y-35300000D02*
X52500000Y-34800000D01*
X52500000Y-34800000D02*
X55500000Y-34800000D01*
X56500000Y-36800000D02*
G75*
G02X56000000Y-36300000I0J500000D01*
G01*
X61000000Y-41500000D02*
X61000000Y-41000000D01*
X60000000Y-36000000D02*
X61000000Y-36000000D01*
X47000000Y-36000000D02*
X48000000Y-36000000D01*
X47000000Y-37000000D02*
X47000000Y-36000000D01*
X47000000Y-50000000D02*
X47000000Y-49000000D01*
X48000000Y-50000000D02*
X47000000Y-50000000D01*
X61000000Y-49000000D02*
X61000000Y-50000000D01*
X61000000Y-36000000D02*
X61000000Y-37000000D01*
X61000000Y-50000000D02*
X60000000Y-50000000D01*
X56500000Y-23800000D02*
X56500000Y-24500000D01*
X56500000Y-24500000D02*
X61000000Y-24500000D01*
X55000000Y-22300000D02*
G75*
G02X56500000Y-23800000I0J-1500000D01*
G01*
X55500000Y-17800000D02*
X56000000Y-18300000D01*
X56000000Y-19300000D02*
X56000000Y-18300000D01*
X61000000Y-19800000D02*
X56500000Y-19800000D01*
X52000000Y-21800000D02*
X52500000Y-22300000D01*
X61000000Y-20400000D02*
X61000000Y-19800000D01*
X52500000Y-22300000D02*
X55000000Y-22300000D01*
X52000000Y-18300000D02*
X52500000Y-17800000D01*
X52500000Y-17800000D02*
X55500000Y-17800000D01*
X56500000Y-19800000D02*
G75*
G02X56000000Y-19300000I0J500000D01*
G01*
X61000000Y-24500000D02*
X61000000Y-24000000D01*
X60000000Y-19000000D02*
X61000000Y-19000000D01*
X47000000Y-19000000D02*
X48000000Y-19000000D01*
X47000000Y-20000000D02*
X47000000Y-19000000D01*
X47000000Y-33000000D02*
X47000000Y-32000000D01*
X48000000Y-33000000D02*
X47000000Y-33000000D01*
X61000000Y-32000000D02*
X61000000Y-33000000D01*
X61000000Y-19000000D02*
X61000000Y-20000000D01*
X61000000Y-33000000D02*
X60000000Y-33000000D01*
X56500000Y-6800000D02*
X56500000Y-7500000D01*
X56500000Y-7500000D02*
X61000000Y-7500000D01*
X55000000Y-5300000D02*
G75*
G02X56500000Y-6800000I0J-1500000D01*
G01*
X55500000Y-800000D02*
X56000000Y-1300000D01*
X56000000Y-2300000D02*
X56000000Y-1300000D01*
X61000000Y-2800000D02*
X56500000Y-2800000D01*
X52000000Y-4800000D02*
X52500000Y-5300000D01*
X61000000Y-3400000D02*
X61000000Y-2800000D01*
X52500000Y-5300000D02*
X55000000Y-5300000D01*
X52000000Y-1300000D02*
X52500000Y-800000D01*
X52500000Y-800000D02*
X55500000Y-800000D01*
X56500000Y-2800000D02*
G75*
G02X56000000Y-2300000I0J500000D01*
G01*
X61000000Y-7500000D02*
X61000000Y-7000000D01*
X60000000Y-2000000D02*
X61000000Y-2000000D01*
X47000000Y-2000000D02*
X48000000Y-2000000D01*
X47000000Y-3000000D02*
X47000000Y-2000000D01*
X47000000Y-16000000D02*
X47000000Y-15000000D01*
X48000000Y-16000000D02*
X47000000Y-16000000D01*
X61000000Y-15000000D02*
X61000000Y-16000000D01*
X61000000Y-2000000D02*
X61000000Y-3000000D01*
X61000000Y-16000000D02*
X60000000Y-16000000D01*
X56500000Y10200000D02*
X56500000Y9500000D01*
X56500000Y9500000D02*
X61000000Y9500000D01*
X55000000Y11700000D02*
G75*
G02X56500000Y10200000I0J-1500000D01*
G01*
X55500000Y16200000D02*
X56000000Y15700000D01*
X56000000Y14700000D02*
X56000000Y15700000D01*
X61000000Y14200000D02*
X56500000Y14200000D01*
X52000000Y12200000D02*
X52500000Y11700000D01*
X61000000Y13600000D02*
X61000000Y14200000D01*
X52500000Y11700000D02*
X55000000Y11700000D01*
X52000000Y15700000D02*
X52500000Y16200000D01*
X52500000Y16200000D02*
X55500000Y16200000D01*
X56500000Y14200000D02*
G75*
G02X56000000Y14700000I0J500000D01*
G01*
X61000000Y9500000D02*
X61000000Y10000000D01*
X60000000Y15000000D02*
X61000000Y15000000D01*
X47000000Y15000000D02*
X48000000Y15000000D01*
X47000000Y14000000D02*
X47000000Y15000000D01*
X47000000Y1000000D02*
X47000000Y2000000D01*
X48000000Y1000000D02*
X47000000Y1000000D01*
X61000000Y2000000D02*
X61000000Y1000000D01*
X61000000Y15000000D02*
X61000000Y14000000D01*
X61000000Y1000000D02*
X60000000Y1000000D01*
X38500000Y-62800000D02*
X38500000Y-63500000D01*
X38500000Y-63500000D02*
X43000000Y-63500000D01*
X37000000Y-61300000D02*
G75*
G02X38500000Y-62800000I0J-1500000D01*
G01*
X37500000Y-56800000D02*
X38000000Y-57300000D01*
X38000000Y-58300000D02*
X38000000Y-57300000D01*
X43000000Y-58800000D02*
X38500000Y-58800000D01*
X34000000Y-60800000D02*
X34500000Y-61300000D01*
X43000000Y-59400000D02*
X43000000Y-58800000D01*
X34500000Y-61300000D02*
X37000000Y-61300000D01*
X34000000Y-57300000D02*
X34500000Y-56800000D01*
X34500000Y-56800000D02*
X37500000Y-56800000D01*
X38500000Y-58800000D02*
G75*
G02X38000000Y-58300000I0J500000D01*
G01*
X43000000Y-63500000D02*
X43000000Y-63000000D01*
X42000000Y-58000000D02*
X43000000Y-58000000D01*
X29000000Y-58000000D02*
X30000000Y-58000000D01*
X29000000Y-59000000D02*
X29000000Y-58000000D01*
X29000000Y-72000000D02*
X29000000Y-71000000D01*
X30000000Y-72000000D02*
X29000000Y-72000000D01*
X43000000Y-71000000D02*
X43000000Y-72000000D01*
X43000000Y-58000000D02*
X43000000Y-59000000D01*
X43000000Y-72000000D02*
X42000000Y-72000000D01*
X38500000Y-45800000D02*
X38500000Y-46500000D01*
X38500000Y-46500000D02*
X43000000Y-46500000D01*
X37000000Y-44300000D02*
G75*
G02X38500000Y-45800000I0J-1500000D01*
G01*
X37500000Y-39800000D02*
X38000000Y-40300000D01*
X38000000Y-41300000D02*
X38000000Y-40300000D01*
X43000000Y-41800000D02*
X38500000Y-41800000D01*
X34000000Y-43800000D02*
X34500000Y-44300000D01*
X43000000Y-42400000D02*
X43000000Y-41800000D01*
X34500000Y-44300000D02*
X37000000Y-44300000D01*
X34000000Y-40300000D02*
X34500000Y-39800000D01*
X34500000Y-39800000D02*
X37500000Y-39800000D01*
X38500000Y-41800000D02*
G75*
G02X38000000Y-41300000I0J500000D01*
G01*
X43000000Y-46500000D02*
X43000000Y-46000000D01*
X42000000Y-41000000D02*
X43000000Y-41000000D01*
X29000000Y-41000000D02*
X30000000Y-41000000D01*
X29000000Y-42000000D02*
X29000000Y-41000000D01*
X29000000Y-55000000D02*
X29000000Y-54000000D01*
X30000000Y-55000000D02*
X29000000Y-55000000D01*
X43000000Y-54000000D02*
X43000000Y-55000000D01*
X43000000Y-41000000D02*
X43000000Y-42000000D01*
X43000000Y-55000000D02*
X42000000Y-55000000D01*
X38500000Y-28800000D02*
X38500000Y-29500000D01*
X38500000Y-29500000D02*
X43000000Y-29500000D01*
X37000000Y-27300000D02*
G75*
G02X38500000Y-28800000I0J-1500000D01*
G01*
X37500000Y-22800000D02*
X38000000Y-23300000D01*
X38000000Y-24300000D02*
X38000000Y-23300000D01*
X43000000Y-24800000D02*
X38500000Y-24800000D01*
X34000000Y-26800000D02*
X34500000Y-27300000D01*
X43000000Y-25400000D02*
X43000000Y-24800000D01*
X34500000Y-27300000D02*
X37000000Y-27300000D01*
X34000000Y-23300000D02*
X34500000Y-22800000D01*
X34500000Y-22800000D02*
X37500000Y-22800000D01*
X38500000Y-24800000D02*
G75*
G02X38000000Y-24300000I0J500000D01*
G01*
X43000000Y-29500000D02*
X43000000Y-29000000D01*
X42000000Y-24000000D02*
X43000000Y-24000000D01*
X29000000Y-24000000D02*
X30000000Y-24000000D01*
X29000000Y-25000000D02*
X29000000Y-24000000D01*
X29000000Y-38000000D02*
X29000000Y-37000000D01*
X30000000Y-38000000D02*
X29000000Y-38000000D01*
X43000000Y-37000000D02*
X43000000Y-38000000D01*
X43000000Y-24000000D02*
X43000000Y-25000000D01*
X43000000Y-38000000D02*
X42000000Y-38000000D01*
X38500000Y-11800000D02*
X38500000Y-12500000D01*
X38500000Y-12500000D02*
X43000000Y-12500000D01*
X37000000Y-10300000D02*
G75*
G02X38500000Y-11800000I0J-1500000D01*
G01*
X37500000Y-5800000D02*
X38000000Y-6300000D01*
X38000000Y-7300000D02*
X38000000Y-6300000D01*
X43000000Y-7800000D02*
X38500000Y-7800000D01*
X34000000Y-9800000D02*
X34500000Y-10300000D01*
X43000000Y-8400000D02*
X43000000Y-7800000D01*
X34500000Y-10300000D02*
X37000000Y-10300000D01*
X34000000Y-6300000D02*
X34500000Y-5800000D01*
X34500000Y-5800000D02*
X37500000Y-5800000D01*
X38500000Y-7800000D02*
G75*
G02X38000000Y-7300000I0J500000D01*
G01*
X43000000Y-12500000D02*
X43000000Y-12000000D01*
X42000000Y-7000000D02*
X43000000Y-7000000D01*
X29000000Y-7000000D02*
X30000000Y-7000000D01*
X29000000Y-8000000D02*
X29000000Y-7000000D01*
X29000000Y-21000000D02*
X29000000Y-20000000D01*
X30000000Y-21000000D02*
X29000000Y-21000000D01*
X43000000Y-20000000D02*
X43000000Y-21000000D01*
X43000000Y-7000000D02*
X43000000Y-8000000D01*
X43000000Y-21000000D02*
X42000000Y-21000000D01*
X38500000Y5200000D02*
X38500000Y4500000D01*
X38500000Y4500000D02*
X43000000Y4500000D01*
X37000000Y6700000D02*
G75*
G02X38500000Y5200000I0J-1500000D01*
G01*
X37500000Y11200000D02*
X38000000Y10700000D01*
X38000000Y9700000D02*
X38000000Y10700000D01*
X43000000Y9200000D02*
X38500000Y9200000D01*
X34000000Y7200000D02*
X34500000Y6700000D01*
X43000000Y8600000D02*
X43000000Y9200000D01*
X34500000Y6700000D02*
X37000000Y6700000D01*
X34000000Y10700000D02*
X34500000Y11200000D01*
X34500000Y11200000D02*
X37500000Y11200000D01*
X38500000Y9200000D02*
G75*
G02X38000000Y9700000I0J500000D01*
G01*
X43000000Y4500000D02*
X43000000Y5000000D01*
X42000000Y10000000D02*
X43000000Y10000000D01*
X29000000Y10000000D02*
X30000000Y10000000D01*
X29000000Y9000000D02*
X29000000Y10000000D01*
X29000000Y-4000000D02*
X29000000Y-3000000D01*
X30000000Y-4000000D02*
X29000000Y-4000000D01*
X43000000Y-3000000D02*
X43000000Y-4000000D01*
X43000000Y10000000D02*
X43000000Y9000000D01*
X43000000Y-4000000D02*
X42000000Y-4000000D01*
X20500000Y-65800000D02*
X20500000Y-66500000D01*
X20500000Y-66500000D02*
X25000000Y-66500000D01*
X19000000Y-64300000D02*
G75*
G02X20500000Y-65800000I0J-1500000D01*
G01*
X19500000Y-59800000D02*
X20000000Y-60300000D01*
X20000000Y-61300000D02*
X20000000Y-60300000D01*
X25000000Y-61800000D02*
X20500000Y-61800000D01*
X16000000Y-63800000D02*
X16500000Y-64300000D01*
X25000000Y-62400000D02*
X25000000Y-61800000D01*
X16500000Y-64300000D02*
X19000000Y-64300000D01*
X16000000Y-60300000D02*
X16500000Y-59800000D01*
X16500000Y-59800000D02*
X19500000Y-59800000D01*
X20500000Y-61800000D02*
G75*
G02X20000000Y-61300000I0J500000D01*
G01*
X25000000Y-66500000D02*
X25000000Y-66000000D01*
X24000000Y-61000000D02*
X25000000Y-61000000D01*
X11000000Y-61000000D02*
X12000000Y-61000000D01*
X11000000Y-62000000D02*
X11000000Y-61000000D01*
X11000000Y-75000000D02*
X11000000Y-74000000D01*
X12000000Y-75000000D02*
X11000000Y-75000000D01*
X25000000Y-74000000D02*
X25000000Y-75000000D01*
X25000000Y-61000000D02*
X25000000Y-62000000D01*
X25000000Y-75000000D02*
X24000000Y-75000000D01*
X20500000Y-48800000D02*
X20500000Y-49500000D01*
X20500000Y-49500000D02*
X25000000Y-49500000D01*
X19000000Y-47300000D02*
G75*
G02X20500000Y-48800000I0J-1500000D01*
G01*
X19500000Y-42800000D02*
X20000000Y-43300000D01*
X20000000Y-44300000D02*
X20000000Y-43300000D01*
X25000000Y-44800000D02*
X20500000Y-44800000D01*
X16000000Y-46800000D02*
X16500000Y-47300000D01*
X25000000Y-45400000D02*
X25000000Y-44800000D01*
X16500000Y-47300000D02*
X19000000Y-47300000D01*
X16000000Y-43300000D02*
X16500000Y-42800000D01*
X16500000Y-42800000D02*
X19500000Y-42800000D01*
X20500000Y-44800000D02*
G75*
G02X20000000Y-44300000I0J500000D01*
G01*
X25000000Y-49500000D02*
X25000000Y-49000000D01*
X24000000Y-44000000D02*
X25000000Y-44000000D01*
X11000000Y-44000000D02*
X12000000Y-44000000D01*
X11000000Y-45000000D02*
X11000000Y-44000000D01*
X11000000Y-58000000D02*
X11000000Y-57000000D01*
X12000000Y-58000000D02*
X11000000Y-58000000D01*
X25000000Y-57000000D02*
X25000000Y-58000000D01*
X25000000Y-44000000D02*
X25000000Y-45000000D01*
X25000000Y-58000000D02*
X24000000Y-58000000D01*
X20500000Y-31800000D02*
X20500000Y-32500000D01*
X20500000Y-32500000D02*
X25000000Y-32500000D01*
X19000000Y-30300000D02*
G75*
G02X20500000Y-31800000I0J-1500000D01*
G01*
X19500000Y-25800000D02*
X20000000Y-26300000D01*
X20000000Y-27300000D02*
X20000000Y-26300000D01*
X25000000Y-27800000D02*
X20500000Y-27800000D01*
X16000000Y-29800000D02*
X16500000Y-30300000D01*
X25000000Y-28400000D02*
X25000000Y-27800000D01*
X16500000Y-30300000D02*
X19000000Y-30300000D01*
X16000000Y-26300000D02*
X16500000Y-25800000D01*
X16500000Y-25800000D02*
X19500000Y-25800000D01*
X20500000Y-27800000D02*
G75*
G02X20000000Y-27300000I0J500000D01*
G01*
X25000000Y-32500000D02*
X25000000Y-32000000D01*
X24000000Y-27000000D02*
X25000000Y-27000000D01*
X11000000Y-27000000D02*
X12000000Y-27000000D01*
X11000000Y-28000000D02*
X11000000Y-27000000D01*
X11000000Y-41000000D02*
X11000000Y-40000000D01*
X12000000Y-41000000D02*
X11000000Y-41000000D01*
X25000000Y-40000000D02*
X25000000Y-41000000D01*
X25000000Y-27000000D02*
X25000000Y-28000000D01*
X25000000Y-41000000D02*
X24000000Y-41000000D01*
X20500000Y-14800000D02*
X20500000Y-15500000D01*
X20500000Y-15500000D02*
X25000000Y-15500000D01*
X19000000Y-13300000D02*
G75*
G02X20500000Y-14800000I0J-1500000D01*
G01*
X19500000Y-8800000D02*
X20000000Y-9300000D01*
X20000000Y-10300000D02*
X20000000Y-9300000D01*
X25000000Y-10800000D02*
X20500000Y-10800000D01*
X16000000Y-12800000D02*
X16500000Y-13300000D01*
X25000000Y-11400000D02*
X25000000Y-10800000D01*
X16500000Y-13300000D02*
X19000000Y-13300000D01*
X16000000Y-9300000D02*
X16500000Y-8800000D01*
X16500000Y-8800000D02*
X19500000Y-8800000D01*
X20500000Y-10800000D02*
G75*
G02X20000000Y-10300000I0J500000D01*
G01*
X25000000Y-15500000D02*
X25000000Y-15000000D01*
X24000000Y-10000000D02*
X25000000Y-10000000D01*
X11000000Y-10000000D02*
X12000000Y-10000000D01*
X11000000Y-11000000D02*
X11000000Y-10000000D01*
X11000000Y-24000000D02*
X11000000Y-23000000D01*
X12000000Y-24000000D02*
X11000000Y-24000000D01*
X25000000Y-23000000D02*
X25000000Y-24000000D01*
X25000000Y-10000000D02*
X25000000Y-11000000D01*
X25000000Y-24000000D02*
X24000000Y-24000000D01*
X20500000Y2200000D02*
X20500000Y1500000D01*
X20500000Y1500000D02*
X25000000Y1500000D01*
X19000000Y3700000D02*
G75*
G02X20500000Y2200000I0J-1500000D01*
G01*
X19500000Y8200000D02*
X20000000Y7700000D01*
X20000000Y6700000D02*
X20000000Y7700000D01*
X25000000Y6200000D02*
X20500000Y6200000D01*
X16000000Y4200000D02*
X16500000Y3700000D01*
X25000000Y5600000D02*
X25000000Y6200000D01*
X16500000Y3700000D02*
X19000000Y3700000D01*
X16000000Y7700000D02*
X16500000Y8200000D01*
X16500000Y8200000D02*
X19500000Y8200000D01*
X20500000Y6200000D02*
G75*
G02X20000000Y6700000I0J500000D01*
G01*
X25000000Y1500000D02*
X25000000Y2000000D01*
X24000000Y7000000D02*
X25000000Y7000000D01*
X11000000Y7000000D02*
X12000000Y7000000D01*
X11000000Y6000000D02*
X11000000Y7000000D01*
X11000000Y-7000000D02*
X11000000Y-6000000D01*
X12000000Y-7000000D02*
X11000000Y-7000000D01*
X25000000Y-6000000D02*
X25000000Y-7000000D01*
X25000000Y7000000D02*
X25000000Y6000000D01*
X25000000Y-7000000D02*
X24000000Y-7000000D01*
X2500000Y-65800000D02*
X2500000Y-66500000D01*
X2500000Y-66500000D02*
X7000000Y-66500000D01*
X1000000Y-64300000D02*
G75*
G02X2500000Y-65800000I0J-1500000D01*
G01*
X1500000Y-59800000D02*
X2000000Y-60300000D01*
X2000000Y-61300000D02*
X2000000Y-60300000D01*
X7000000Y-61800000D02*
X2500000Y-61800000D01*
X-2000000Y-63800000D02*
X-1500000Y-64300000D01*
X7000000Y-62400000D02*
X7000000Y-61800000D01*
X-1500000Y-64300000D02*
X1000000Y-64300000D01*
X-2000000Y-60300000D02*
X-1500000Y-59800000D01*
X-1500000Y-59800000D02*
X1500000Y-59800000D01*
X2500000Y-61800000D02*
G75*
G02X2000000Y-61300000I0J500000D01*
G01*
X7000000Y-66500000D02*
X7000000Y-66000000D01*
X6000000Y-61000000D02*
X7000000Y-61000000D01*
X-7000000Y-61000000D02*
X-6000000Y-61000000D01*
X-7000000Y-62000000D02*
X-7000000Y-61000000D01*
X-7000000Y-75000000D02*
X-7000000Y-74000000D01*
X-6000000Y-75000000D02*
X-7000000Y-75000000D01*
X7000000Y-74000000D02*
X7000000Y-75000000D01*
X7000000Y-61000000D02*
X7000000Y-62000000D01*
X7000000Y-75000000D02*
X6000000Y-75000000D01*
X2500000Y-48800000D02*
X2500000Y-49500000D01*
X2500000Y-49500000D02*
X7000000Y-49500000D01*
X1000000Y-47300000D02*
G75*
G02X2500000Y-48800000I0J-1500000D01*
G01*
X1500000Y-42800000D02*
X2000000Y-43300000D01*
X2000000Y-44300000D02*
X2000000Y-43300000D01*
X7000000Y-44800000D02*
X2500000Y-44800000D01*
X-2000000Y-46800000D02*
X-1500000Y-47300000D01*
X7000000Y-45400000D02*
X7000000Y-44800000D01*
X-1500000Y-47300000D02*
X1000000Y-47300000D01*
X-2000000Y-43300000D02*
X-1500000Y-42800000D01*
X-1500000Y-42800000D02*
X1500000Y-42800000D01*
X2500000Y-44800000D02*
G75*
G02X2000000Y-44300000I0J500000D01*
G01*
X7000000Y-49500000D02*
X7000000Y-49000000D01*
X6000000Y-44000000D02*
X7000000Y-44000000D01*
X-7000000Y-44000000D02*
X-6000000Y-44000000D01*
X-7000000Y-45000000D02*
X-7000000Y-44000000D01*
X-7000000Y-58000000D02*
X-7000000Y-57000000D01*
X-6000000Y-58000000D02*
X-7000000Y-58000000D01*
X7000000Y-57000000D02*
X7000000Y-58000000D01*
X7000000Y-44000000D02*
X7000000Y-45000000D01*
X7000000Y-58000000D02*
X6000000Y-58000000D01*
X2500000Y-31800000D02*
X2500000Y-32500000D01*
X2500000Y-32500000D02*
X7000000Y-32500000D01*
X1000000Y-30300000D02*
G75*
G02X2500000Y-31800000I0J-1500000D01*
G01*
X1500000Y-25800000D02*
X2000000Y-26300000D01*
X2000000Y-27300000D02*
X2000000Y-26300000D01*
X7000000Y-27800000D02*
X2500000Y-27800000D01*
X-2000000Y-29800000D02*
X-1500000Y-30300000D01*
X7000000Y-28400000D02*
X7000000Y-27800000D01*
X-1500000Y-30300000D02*
X1000000Y-30300000D01*
X-2000000Y-26300000D02*
X-1500000Y-25800000D01*
X-1500000Y-25800000D02*
X1500000Y-25800000D01*
X2500000Y-27800000D02*
G75*
G02X2000000Y-27300000I0J500000D01*
G01*
X7000000Y-32500000D02*
X7000000Y-32000000D01*
X6000000Y-27000000D02*
X7000000Y-27000000D01*
X-7000000Y-27000000D02*
X-6000000Y-27000000D01*
X-7000000Y-28000000D02*
X-7000000Y-27000000D01*
X-7000000Y-41000000D02*
X-7000000Y-40000000D01*
X-6000000Y-41000000D02*
X-7000000Y-41000000D01*
X7000000Y-40000000D02*
X7000000Y-41000000D01*
X7000000Y-27000000D02*
X7000000Y-28000000D01*
X7000000Y-41000000D02*
X6000000Y-41000000D01*
X2500000Y-14800000D02*
X2500000Y-15500000D01*
X2500000Y-15500000D02*
X7000000Y-15500000D01*
X1000000Y-13300000D02*
G75*
G02X2500000Y-14800000I0J-1500000D01*
G01*
X1500000Y-8800000D02*
X2000000Y-9300000D01*
X2000000Y-10300000D02*
X2000000Y-9300000D01*
X7000000Y-10800000D02*
X2500000Y-10800000D01*
X-2000000Y-12800000D02*
X-1500000Y-13300000D01*
X7000000Y-11400000D02*
X7000000Y-10800000D01*
X-1500000Y-13300000D02*
X1000000Y-13300000D01*
X-2000000Y-9300000D02*
X-1500000Y-8800000D01*
X-1500000Y-8800000D02*
X1500000Y-8800000D01*
X2500000Y-10800000D02*
G75*
G02X2000000Y-10300000I0J500000D01*
G01*
X7000000Y-15500000D02*
X7000000Y-15000000D01*
X6000000Y-10000000D02*
X7000000Y-10000000D01*
X-7000000Y-10000000D02*
X-6000000Y-10000000D01*
X-7000000Y-11000000D02*
X-7000000Y-10000000D01*
X-7000000Y-24000000D02*
X-7000000Y-23000000D01*
X-6000000Y-24000000D02*
X-7000000Y-24000000D01*
X7000000Y-23000000D02*
X7000000Y-24000000D01*
X7000000Y-10000000D02*
X7000000Y-11000000D01*
X7000000Y-24000000D02*
X6000000Y-24000000D01*
X2500000Y2200000D02*
X2500000Y1500000D01*
X2500000Y1500000D02*
X7000000Y1500000D01*
X1000000Y3700000D02*
G75*
G02X2500000Y2200000I0J-1500000D01*
G01*
X1500000Y8200000D02*
X2000000Y7700000D01*
X2000000Y6700000D02*
X2000000Y7700000D01*
X7000000Y6200000D02*
X2500000Y6200000D01*
X-2000000Y4200000D02*
X-1500000Y3700000D01*
X7000000Y5600000D02*
X7000000Y6200000D01*
X-1500000Y3700000D02*
X1000000Y3700000D01*
X-2000000Y7700000D02*
X-1500000Y8200000D01*
X-1500000Y8200000D02*
X1500000Y8200000D01*
X2500000Y6200000D02*
G75*
G02X2000000Y6700000I0J500000D01*
G01*
X7000000Y1500000D02*
X7000000Y2000000D01*
X6000000Y7000000D02*
X7000000Y7000000D01*
X-7000000Y7000000D02*
X-6000000Y7000000D01*
X-7000000Y6000000D02*
X-7000000Y7000000D01*
X-7000000Y-7000000D02*
X-7000000Y-6000000D01*
X-6000000Y-7000000D02*
X-7000000Y-7000000D01*
X7000000Y-6000000D02*
X7000000Y-7000000D01*
X7000000Y7000000D02*
X7000000Y6000000D01*
X7000000Y-7000000D02*
X6000000Y-7000000D01*
D12*
X112980000Y-60360000D02*
X112980000Y-65770000D01*
X114990000Y-60360000D02*
X112980000Y-60360000D01*
X115010000Y-65710000D02*
X115010000Y-60360000D01*
D10*
G36*
X115016000Y-65540000D02*
G01*
X112970000Y-65540000D01*
X112970000Y-66556000D01*
X115016000Y-66556000D01*
X115016000Y-66048000D01*
X115016000Y-65540000D01*
G37*
X115016000Y-65540000D02*
X112970000Y-65540000D01*
X112970000Y-66556000D01*
X115016000Y-66556000D01*
X115016000Y-66048000D01*
X115016000Y-65540000D01*
D12*
X92640000Y-74680000D02*
X87230000Y-74680000D01*
X92640000Y-76690000D02*
X92640000Y-74680000D01*
X87290000Y-76710000D02*
X92640000Y-76710000D01*
D10*
G36*
X87460000Y-76716000D02*
G01*
X87460000Y-74670000D01*
X86444000Y-74670000D01*
X86444000Y-76716000D01*
X86952000Y-76716000D01*
X87460000Y-76716000D01*
G37*
X87460000Y-76716000D02*
X87460000Y-74670000D01*
X86444000Y-74670000D01*
X86444000Y-76716000D01*
X86952000Y-76716000D01*
X87460000Y-76716000D01*
D12*
X92640000Y-59980000D02*
X87230000Y-59980000D01*
X92640000Y-61990000D02*
X92640000Y-59980000D01*
X87290000Y-62010000D02*
X92640000Y-62010000D01*
D10*
G36*
X87460000Y-62016000D02*
G01*
X87460000Y-59970000D01*
X86444000Y-59970000D01*
X86444000Y-62016000D01*
X86952000Y-62016000D01*
X87460000Y-62016000D01*
G37*
X87460000Y-62016000D02*
X87460000Y-59970000D01*
X86444000Y-59970000D01*
X86444000Y-62016000D01*
X86952000Y-62016000D01*
X87460000Y-62016000D01*
D12*
X92640000Y-42980000D02*
X87230000Y-42980000D01*
X92640000Y-44990000D02*
X92640000Y-42980000D01*
X87290000Y-45010000D02*
X92640000Y-45010000D01*
D10*
G36*
X87460000Y-45016000D02*
G01*
X87460000Y-42970000D01*
X86444000Y-42970000D01*
X86444000Y-45016000D01*
X86952000Y-45016000D01*
X87460000Y-45016000D01*
G37*
X87460000Y-45016000D02*
X87460000Y-42970000D01*
X86444000Y-42970000D01*
X86444000Y-45016000D01*
X86952000Y-45016000D01*
X87460000Y-45016000D01*
D12*
X92640000Y-25980000D02*
X87230000Y-25980000D01*
X92640000Y-27990000D02*
X92640000Y-25980000D01*
X87290000Y-28010000D02*
X92640000Y-28010000D01*
D10*
G36*
X87460000Y-28016000D02*
G01*
X87460000Y-25970000D01*
X86444000Y-25970000D01*
X86444000Y-28016000D01*
X86952000Y-28016000D01*
X87460000Y-28016000D01*
G37*
X87460000Y-28016000D02*
X87460000Y-25970000D01*
X86444000Y-25970000D01*
X86444000Y-28016000D01*
X86952000Y-28016000D01*
X87460000Y-28016000D01*
D12*
X92640000Y-8980000D02*
X87230000Y-8980000D01*
X92640000Y-10990000D02*
X92640000Y-8980000D01*
X87290000Y-11010000D02*
X92640000Y-11010000D01*
D10*
G36*
X87460000Y-11016000D02*
G01*
X87460000Y-8970000D01*
X86444000Y-8970000D01*
X86444000Y-11016000D01*
X86952000Y-11016000D01*
X87460000Y-11016000D01*
G37*
X87460000Y-11016000D02*
X87460000Y-8970000D01*
X86444000Y-8970000D01*
X86444000Y-11016000D01*
X86952000Y-11016000D01*
X87460000Y-11016000D01*
D12*
X74640000Y-69680000D02*
X69230000Y-69680000D01*
X74640000Y-71690000D02*
X74640000Y-69680000D01*
X69290000Y-71710000D02*
X74640000Y-71710000D01*
D10*
G36*
X69460000Y-71716000D02*
G01*
X69460000Y-69670000D01*
X68444000Y-69670000D01*
X68444000Y-71716000D01*
X68952000Y-71716000D01*
X69460000Y-71716000D01*
G37*
X69460000Y-71716000D02*
X69460000Y-69670000D01*
X68444000Y-69670000D01*
X68444000Y-71716000D01*
X68952000Y-71716000D01*
X69460000Y-71716000D01*
D12*
X74640000Y-54980000D02*
X69230000Y-54980000D01*
X74640000Y-56990000D02*
X74640000Y-54980000D01*
X69290000Y-57010000D02*
X74640000Y-57010000D01*
D10*
G36*
X69460000Y-57016000D02*
G01*
X69460000Y-54970000D01*
X68444000Y-54970000D01*
X68444000Y-57016000D01*
X68952000Y-57016000D01*
X69460000Y-57016000D01*
G37*
X69460000Y-57016000D02*
X69460000Y-54970000D01*
X68444000Y-54970000D01*
X68444000Y-57016000D01*
X68952000Y-57016000D01*
X69460000Y-57016000D01*
D12*
X74640000Y-37980000D02*
X69230000Y-37980000D01*
X74640000Y-39990000D02*
X74640000Y-37980000D01*
X69290000Y-40010000D02*
X74640000Y-40010000D01*
D10*
G36*
X69460000Y-40016000D02*
G01*
X69460000Y-37970000D01*
X68444000Y-37970000D01*
X68444000Y-40016000D01*
X68952000Y-40016000D01*
X69460000Y-40016000D01*
G37*
X69460000Y-40016000D02*
X69460000Y-37970000D01*
X68444000Y-37970000D01*
X68444000Y-40016000D01*
X68952000Y-40016000D01*
X69460000Y-40016000D01*
D12*
X74640000Y-3980000D02*
X69230000Y-3980000D01*
X74640000Y-5990000D02*
X74640000Y-3980000D01*
X69290000Y-6010000D02*
X74640000Y-6010000D01*
D10*
G36*
X69460000Y-6016000D02*
G01*
X69460000Y-3970000D01*
X68444000Y-3970000D01*
X68444000Y-6016000D01*
X68952000Y-6016000D01*
X69460000Y-6016000D01*
G37*
X69460000Y-6016000D02*
X69460000Y-3970000D01*
X68444000Y-3970000D01*
X68444000Y-6016000D01*
X68952000Y-6016000D01*
X69460000Y-6016000D01*
D12*
X56640000Y-63680000D02*
X51230000Y-63680000D01*
X56640000Y-65690000D02*
X56640000Y-63680000D01*
X51290000Y-65710000D02*
X56640000Y-65710000D01*
D10*
G36*
X51460000Y-65716000D02*
G01*
X51460000Y-63670000D01*
X50444000Y-63670000D01*
X50444000Y-65716000D01*
X50952000Y-65716000D01*
X51460000Y-65716000D01*
G37*
X51460000Y-65716000D02*
X51460000Y-63670000D01*
X50444000Y-63670000D01*
X50444000Y-65716000D01*
X50952000Y-65716000D01*
X51460000Y-65716000D01*
D12*
X56640000Y-48980000D02*
X51230000Y-48980000D01*
X56640000Y-50990000D02*
X56640000Y-48980000D01*
X51290000Y-51010000D02*
X56640000Y-51010000D01*
D10*
G36*
X51460000Y-51016000D02*
G01*
X51460000Y-48970000D01*
X50444000Y-48970000D01*
X50444000Y-51016000D01*
X50952000Y-51016000D01*
X51460000Y-51016000D01*
G37*
X51460000Y-51016000D02*
X51460000Y-48970000D01*
X50444000Y-48970000D01*
X50444000Y-51016000D01*
X50952000Y-51016000D01*
X51460000Y-51016000D01*
D12*
X56640000Y-31980000D02*
X51230000Y-31980000D01*
X56640000Y-33990000D02*
X56640000Y-31980000D01*
X51290000Y-34010000D02*
X56640000Y-34010000D01*
D10*
G36*
X51460000Y-34016000D02*
G01*
X51460000Y-31970000D01*
X50444000Y-31970000D01*
X50444000Y-34016000D01*
X50952000Y-34016000D01*
X51460000Y-34016000D01*
G37*
X51460000Y-34016000D02*
X51460000Y-31970000D01*
X50444000Y-31970000D01*
X50444000Y-34016000D01*
X50952000Y-34016000D01*
X51460000Y-34016000D01*
D12*
X56640000Y-14980000D02*
X51230000Y-14980000D01*
X56640000Y-16990000D02*
X56640000Y-14980000D01*
X51290000Y-17010000D02*
X56640000Y-17010000D01*
D10*
G36*
X51460000Y-17016000D02*
G01*
X51460000Y-14970000D01*
X50444000Y-14970000D01*
X50444000Y-17016000D01*
X50952000Y-17016000D01*
X51460000Y-17016000D01*
G37*
X51460000Y-17016000D02*
X51460000Y-14970000D01*
X50444000Y-14970000D01*
X50444000Y-17016000D01*
X50952000Y-17016000D01*
X51460000Y-17016000D01*
D12*
X56640000Y2020000D02*
X51230000Y2020000D01*
X56640000Y10000D02*
X56640000Y2020000D01*
X51290000Y-10000D02*
X56640000Y-10000D01*
D10*
G36*
X51460000Y-16000D02*
G01*
X51460000Y2030000D01*
X50444000Y2030000D01*
X50444000Y-16000D01*
X50952000Y-16000D01*
X51460000Y-16000D01*
G37*
X51460000Y-16000D02*
X51460000Y2030000D01*
X50444000Y2030000D01*
X50444000Y-16000D01*
X50952000Y-16000D01*
X51460000Y-16000D01*
D12*
X38640000Y-68680000D02*
X33230000Y-68680000D01*
X38640000Y-70690000D02*
X38640000Y-68680000D01*
X33290000Y-70710000D02*
X38640000Y-70710000D01*
D10*
G36*
X33460000Y-70716000D02*
G01*
X33460000Y-68670000D01*
X32444000Y-68670000D01*
X32444000Y-70716000D01*
X32952000Y-70716000D01*
X33460000Y-70716000D01*
G37*
X33460000Y-70716000D02*
X33460000Y-68670000D01*
X32444000Y-68670000D01*
X32444000Y-70716000D01*
X32952000Y-70716000D01*
X33460000Y-70716000D01*
D12*
X38640000Y-53980000D02*
X33230000Y-53980000D01*
X38640000Y-55990000D02*
X38640000Y-53980000D01*
X33290000Y-56010000D02*
X38640000Y-56010000D01*
D10*
G36*
X33460000Y-56016000D02*
G01*
X33460000Y-53970000D01*
X32444000Y-53970000D01*
X32444000Y-56016000D01*
X32952000Y-56016000D01*
X33460000Y-56016000D01*
G37*
X33460000Y-56016000D02*
X33460000Y-53970000D01*
X32444000Y-53970000D01*
X32444000Y-56016000D01*
X32952000Y-56016000D01*
X33460000Y-56016000D01*
D12*
X38640000Y-36980000D02*
X33230000Y-36980000D01*
X38640000Y-38990000D02*
X38640000Y-36980000D01*
X33290000Y-39010000D02*
X38640000Y-39010000D01*
D10*
G36*
X33460000Y-39016000D02*
G01*
X33460000Y-36970000D01*
X32444000Y-36970000D01*
X32444000Y-39016000D01*
X32952000Y-39016000D01*
X33460000Y-39016000D01*
G37*
X33460000Y-39016000D02*
X33460000Y-36970000D01*
X32444000Y-36970000D01*
X32444000Y-39016000D01*
X32952000Y-39016000D01*
X33460000Y-39016000D01*
D12*
X38640000Y-19980000D02*
X33230000Y-19980000D01*
X38640000Y-21990000D02*
X38640000Y-19980000D01*
X33290000Y-22010000D02*
X38640000Y-22010000D01*
D10*
G36*
X33460000Y-22016000D02*
G01*
X33460000Y-19970000D01*
X32444000Y-19970000D01*
X32444000Y-22016000D01*
X32952000Y-22016000D01*
X33460000Y-22016000D01*
G37*
X33460000Y-22016000D02*
X33460000Y-19970000D01*
X32444000Y-19970000D01*
X32444000Y-22016000D01*
X32952000Y-22016000D01*
X33460000Y-22016000D01*
D12*
X38640000Y-2980000D02*
X33230000Y-2980000D01*
X38640000Y-4990000D02*
X38640000Y-2980000D01*
X33290000Y-5010000D02*
X38640000Y-5010000D01*
D10*
G36*
X33460000Y-5016000D02*
G01*
X33460000Y-2970000D01*
X32444000Y-2970000D01*
X32444000Y-5016000D01*
X32952000Y-5016000D01*
X33460000Y-5016000D01*
G37*
X33460000Y-5016000D02*
X33460000Y-2970000D01*
X32444000Y-2970000D01*
X32444000Y-5016000D01*
X32952000Y-5016000D01*
X33460000Y-5016000D01*
D12*
X20640000Y-71680000D02*
X15230000Y-71680000D01*
X20640000Y-73690000D02*
X20640000Y-71680000D01*
X15290000Y-73710000D02*
X20640000Y-73710000D01*
D10*
G36*
X15460000Y-73716000D02*
G01*
X15460000Y-71670000D01*
X14444000Y-71670000D01*
X14444000Y-73716000D01*
X14952000Y-73716000D01*
X15460000Y-73716000D01*
G37*
X15460000Y-73716000D02*
X15460000Y-71670000D01*
X14444000Y-71670000D01*
X14444000Y-73716000D01*
X14952000Y-73716000D01*
X15460000Y-73716000D01*
D12*
X20640000Y-56980000D02*
X15230000Y-56980000D01*
X20640000Y-58990000D02*
X20640000Y-56980000D01*
X15290000Y-59010000D02*
X20640000Y-59010000D01*
D10*
G36*
X15460000Y-59016000D02*
G01*
X15460000Y-56970000D01*
X14444000Y-56970000D01*
X14444000Y-59016000D01*
X14952000Y-59016000D01*
X15460000Y-59016000D01*
G37*
X15460000Y-59016000D02*
X15460000Y-56970000D01*
X14444000Y-56970000D01*
X14444000Y-59016000D01*
X14952000Y-59016000D01*
X15460000Y-59016000D01*
D12*
X20640000Y-39980000D02*
X15230000Y-39980000D01*
X20640000Y-41990000D02*
X20640000Y-39980000D01*
X15290000Y-42010000D02*
X20640000Y-42010000D01*
D10*
G36*
X15460000Y-42016000D02*
G01*
X15460000Y-39970000D01*
X14444000Y-39970000D01*
X14444000Y-42016000D01*
X14952000Y-42016000D01*
X15460000Y-42016000D01*
G37*
X15460000Y-42016000D02*
X15460000Y-39970000D01*
X14444000Y-39970000D01*
X14444000Y-42016000D01*
X14952000Y-42016000D01*
X15460000Y-42016000D01*
D12*
X20640000Y-22980000D02*
X15230000Y-22980000D01*
X20640000Y-24990000D02*
X20640000Y-22980000D01*
X15290000Y-25010000D02*
X20640000Y-25010000D01*
D10*
G36*
X15460000Y-25016000D02*
G01*
X15460000Y-22970000D01*
X14444000Y-22970000D01*
X14444000Y-25016000D01*
X14952000Y-25016000D01*
X15460000Y-25016000D01*
G37*
X15460000Y-25016000D02*
X15460000Y-22970000D01*
X14444000Y-22970000D01*
X14444000Y-25016000D01*
X14952000Y-25016000D01*
X15460000Y-25016000D01*
D12*
X20640000Y-5980000D02*
X15230000Y-5980000D01*
X20640000Y-7990000D02*
X20640000Y-5980000D01*
X15290000Y-8010000D02*
X20640000Y-8010000D01*
D10*
G36*
X15460000Y-8016000D02*
G01*
X15460000Y-5970000D01*
X14444000Y-5970000D01*
X14444000Y-8016000D01*
X14952000Y-8016000D01*
X15460000Y-8016000D01*
G37*
X15460000Y-8016000D02*
X15460000Y-5970000D01*
X14444000Y-5970000D01*
X14444000Y-8016000D01*
X14952000Y-8016000D01*
X15460000Y-8016000D01*
D12*
X2640000Y-71680000D02*
X-2770000Y-71680000D01*
X2640000Y-73690000D02*
X2640000Y-71680000D01*
X-2710000Y-73710000D02*
X2640000Y-73710000D01*
D10*
G36*
X-2540000Y-73716000D02*
G01*
X-2540000Y-71670000D01*
X-3556000Y-71670000D01*
X-3556000Y-73716000D01*
X-3048000Y-73716000D01*
X-2540000Y-73716000D01*
G37*
X-2540000Y-73716000D02*
X-2540000Y-71670000D01*
X-3556000Y-71670000D01*
X-3556000Y-73716000D01*
X-3048000Y-73716000D01*
X-2540000Y-73716000D01*
D12*
X2640000Y-56980000D02*
X-2770000Y-56980000D01*
X2640000Y-58990000D02*
X2640000Y-56980000D01*
X-2710000Y-59010000D02*
X2640000Y-59010000D01*
D10*
G36*
X-2540000Y-59016000D02*
G01*
X-2540000Y-56970000D01*
X-3556000Y-56970000D01*
X-3556000Y-59016000D01*
X-3048000Y-59016000D01*
X-2540000Y-59016000D01*
G37*
X-2540000Y-59016000D02*
X-2540000Y-56970000D01*
X-3556000Y-56970000D01*
X-3556000Y-59016000D01*
X-3048000Y-59016000D01*
X-2540000Y-59016000D01*
D12*
X2640000Y-39980000D02*
X-2770000Y-39980000D01*
X2640000Y-41990000D02*
X2640000Y-39980000D01*
X-2710000Y-42010000D02*
X2640000Y-42010000D01*
D10*
G36*
X-2540000Y-42016000D02*
G01*
X-2540000Y-39970000D01*
X-3556000Y-39970000D01*
X-3556000Y-42016000D01*
X-3048000Y-42016000D01*
X-2540000Y-42016000D01*
G37*
X-2540000Y-42016000D02*
X-2540000Y-39970000D01*
X-3556000Y-39970000D01*
X-3556000Y-42016000D01*
X-3048000Y-42016000D01*
X-2540000Y-42016000D01*
D12*
X2640000Y-22980000D02*
X-2770000Y-22980000D01*
X2640000Y-24990000D02*
X2640000Y-22980000D01*
X-2710000Y-25010000D02*
X2640000Y-25010000D01*
D10*
G36*
X-2540000Y-25016000D02*
G01*
X-2540000Y-22970000D01*
X-3556000Y-22970000D01*
X-3556000Y-25016000D01*
X-3048000Y-25016000D01*
X-2540000Y-25016000D01*
G37*
X-2540000Y-25016000D02*
X-2540000Y-22970000D01*
X-3556000Y-22970000D01*
X-3556000Y-25016000D01*
X-3048000Y-25016000D01*
X-2540000Y-25016000D01*
D12*
X2640000Y-5980000D02*
X-2770000Y-5980000D01*
X2640000Y-7990000D02*
X2640000Y-5980000D01*
X-2710000Y-8010000D02*
X2640000Y-8010000D01*
D10*
G36*
X-2540000Y-8016000D02*
G01*
X-2540000Y-5970000D01*
X-3556000Y-5970000D01*
X-3556000Y-8016000D01*
X-3048000Y-8016000D01*
X-2540000Y-8016000D01*
G37*
X-2540000Y-8016000D02*
X-2540000Y-5970000D01*
X-3556000Y-5970000D01*
X-3556000Y-8016000D01*
X-3048000Y-8016000D01*
X-2540000Y-8016000D01*
D11*
X114209904Y-50189904D02*
X114476571Y-49808952D01*
X114667047Y-50189904D02*
X114667047Y-49389904D01*
X114362285Y-49389904D01*
X114286095Y-49428000D01*
X114248000Y-49466095D01*
X114209904Y-49542285D01*
X114209904Y-49656571D01*
X114248000Y-49732761D01*
X114286095Y-49770857D01*
X114362285Y-49808952D01*
X114667047Y-49808952D01*
X113867047Y-49770857D02*
X113600380Y-49770857D01*
X113486095Y-50189904D02*
X113867047Y-50189904D01*
X113867047Y-49389904D01*
X113486095Y-49389904D01*
X113181333Y-50151809D02*
X113067047Y-50189904D01*
X112876571Y-50189904D01*
X112800380Y-50151809D01*
X112762285Y-50113714D01*
X112724190Y-50037523D01*
X112724190Y-49961333D01*
X112762285Y-49885142D01*
X112800380Y-49847047D01*
X112876571Y-49808952D01*
X113028952Y-49770857D01*
X113105142Y-49732761D01*
X113143238Y-49694666D01*
X113181333Y-49618476D01*
X113181333Y-49542285D01*
X113143238Y-49466095D01*
X113105142Y-49428000D01*
X113028952Y-49389904D01*
X112838476Y-49389904D01*
X112724190Y-49428000D01*
X112381333Y-49770857D02*
X112114666Y-49770857D01*
X112000380Y-50189904D02*
X112381333Y-50189904D01*
X112381333Y-49389904D01*
X112000380Y-49389904D01*
X111771809Y-49389904D02*
X111314666Y-49389904D01*
X111543238Y-50189904D02*
X111543238Y-49389904D01*
X107386604Y-18109904D02*
X106929461Y-18109904D01*
X107158032Y-18909904D02*
X107158032Y-18109904D01*
X106738985Y-18109904D02*
X106205651Y-18909904D01*
X106205651Y-18109904D02*
X106738985Y-18909904D01*
X105748508Y-18109904D02*
X105672318Y-18109904D01*
X105596128Y-18148000D01*
X105558032Y-18186095D01*
X105519937Y-18262285D01*
X105481842Y-18414666D01*
X105481842Y-18605142D01*
X105519937Y-18757523D01*
X105558032Y-18833714D01*
X105596128Y-18871809D01*
X105672318Y-18909904D01*
X105748508Y-18909904D01*
X105824699Y-18871809D01*
X105862794Y-18833714D01*
X105900889Y-18757523D01*
X105938985Y-18605142D01*
X105938985Y-18414666D01*
X105900889Y-18262285D01*
X105862794Y-18186095D01*
X105824699Y-18148000D01*
X105748508Y-18109904D01*
X104567556Y-18071809D02*
X105253270Y-19100380D01*
X104300889Y-18909904D02*
X104300889Y-18109904D01*
X104110413Y-18109904D01*
X103996128Y-18148000D01*
X103919937Y-18224190D01*
X103881842Y-18300380D01*
X103843747Y-18452761D01*
X103843747Y-18567047D01*
X103881842Y-18719428D01*
X103919937Y-18795619D01*
X103996128Y-18871809D01*
X104110413Y-18909904D01*
X104300889Y-18909904D01*
X103577080Y-18109904D02*
X103081842Y-18109904D01*
X103348508Y-18414666D01*
X103234223Y-18414666D01*
X103158032Y-18452761D01*
X103119937Y-18490857D01*
X103081842Y-18567047D01*
X103081842Y-18757523D01*
X103119937Y-18833714D01*
X103158032Y-18871809D01*
X103234223Y-18909904D01*
X103462794Y-18909904D01*
X103538985Y-18871809D01*
X103577080Y-18833714D01*
X107386604Y-18109904D02*
X106929461Y-18109904D01*
X107158032Y-18909904D02*
X107158032Y-18109904D01*
X106738985Y-18109904D02*
X106205651Y-18909904D01*
X106205651Y-18109904D02*
X106738985Y-18909904D01*
X105748508Y-18109904D02*
X105672318Y-18109904D01*
X105596128Y-18148000D01*
X105558032Y-18186095D01*
X105519937Y-18262285D01*
X105481842Y-18414666D01*
X105481842Y-18605142D01*
X105519937Y-18757523D01*
X105558032Y-18833714D01*
X105596128Y-18871809D01*
X105672318Y-18909904D01*
X105748508Y-18909904D01*
X105824699Y-18871809D01*
X105862794Y-18833714D01*
X105900889Y-18757523D01*
X105938985Y-18605142D01*
X105938985Y-18414666D01*
X105900889Y-18262285D01*
X105862794Y-18186095D01*
X105824699Y-18148000D01*
X105748508Y-18109904D01*
X104567556Y-18071809D02*
X105253270Y-19100380D01*
X104300889Y-18909904D02*
X104300889Y-18109904D01*
X104110413Y-18109904D01*
X103996128Y-18148000D01*
X103919937Y-18224190D01*
X103881842Y-18300380D01*
X103843747Y-18452761D01*
X103843747Y-18567047D01*
X103881842Y-18719428D01*
X103919937Y-18795619D01*
X103996128Y-18871809D01*
X104110413Y-18909904D01*
X104300889Y-18909904D01*
X103577080Y-18109904D02*
X103081842Y-18109904D01*
X103348508Y-18414666D01*
X103234223Y-18414666D01*
X103158032Y-18452761D01*
X103119937Y-18490857D01*
X103081842Y-18567047D01*
X103081842Y-18757523D01*
X103119937Y-18833714D01*
X103158032Y-18871809D01*
X103234223Y-18909904D01*
X103462794Y-18909904D01*
X103538985Y-18871809D01*
X103577080Y-18833714D01*
X103897476Y-21449904D02*
X103897476Y-20649904D01*
X103707000Y-20649904D01*
X103592714Y-20688000D01*
X103516523Y-20764190D01*
X103478428Y-20840380D01*
X103440333Y-20992761D01*
X103440333Y-21107047D01*
X103478428Y-21259428D01*
X103516523Y-21335619D01*
X103592714Y-21411809D01*
X103707000Y-21449904D01*
X103897476Y-21449904D01*
X103135571Y-20726095D02*
X103097476Y-20688000D01*
X103021285Y-20649904D01*
X102830809Y-20649904D01*
X102754619Y-20688000D01*
X102716523Y-20726095D01*
X102678428Y-20802285D01*
X102678428Y-20878476D01*
X102716523Y-20992761D01*
X103173666Y-21449904D01*
X102678428Y-21449904D01*
X103897476Y-31609904D02*
X103897476Y-30809904D01*
X103707000Y-30809904D01*
X103592714Y-30848000D01*
X103516523Y-30924190D01*
X103478428Y-31000380D01*
X103440333Y-31152761D01*
X103440333Y-31267047D01*
X103478428Y-31419428D01*
X103516523Y-31495619D01*
X103592714Y-31571809D01*
X103707000Y-31609904D01*
X103897476Y-31609904D01*
X102945095Y-30809904D02*
X102868904Y-30809904D01*
X102792714Y-30848000D01*
X102754619Y-30886095D01*
X102716523Y-30962285D01*
X102678428Y-31114666D01*
X102678428Y-31305142D01*
X102716523Y-31457523D01*
X102754619Y-31533714D01*
X102792714Y-31571809D01*
X102868904Y-31609904D01*
X102945095Y-31609904D01*
X103021285Y-31571809D01*
X103059380Y-31533714D01*
X103097476Y-31457523D01*
X103135571Y-31305142D01*
X103135571Y-31114666D01*
X103097476Y-30962285D01*
X103059380Y-30886095D01*
X103021285Y-30848000D01*
X102945095Y-30809904D01*
X103897476Y-29069904D02*
X103897476Y-28269904D01*
X103707000Y-28269904D01*
X103592714Y-28308000D01*
X103516523Y-28384190D01*
X103478428Y-28460380D01*
X103440333Y-28612761D01*
X103440333Y-28727047D01*
X103478428Y-28879428D01*
X103516523Y-28955619D01*
X103592714Y-29031809D01*
X103707000Y-29069904D01*
X103897476Y-29069904D01*
X102678428Y-29069904D02*
X103135571Y-29069904D01*
X102907000Y-29069904D02*
X102907000Y-28269904D01*
X102983190Y-28384190D01*
X103059380Y-28460380D01*
X103135571Y-28498476D01*
X103916523Y-25768000D02*
X103992714Y-25729904D01*
X104107000Y-25729904D01*
X104221285Y-25768000D01*
X104297476Y-25844190D01*
X104335571Y-25920380D01*
X104373666Y-26072761D01*
X104373666Y-26187047D01*
X104335571Y-26339428D01*
X104297476Y-26415619D01*
X104221285Y-26491809D01*
X104107000Y-26529904D01*
X104030809Y-26529904D01*
X103916523Y-26491809D01*
X103878428Y-26453714D01*
X103878428Y-26187047D01*
X104030809Y-26187047D01*
X103535571Y-26529904D02*
X103535571Y-25729904D01*
X103078428Y-26529904D01*
X103078428Y-25729904D01*
X102697476Y-26529904D02*
X102697476Y-25729904D01*
X102507000Y-25729904D01*
X102392714Y-25768000D01*
X102316523Y-25844190D01*
X102278428Y-25920380D01*
X102240333Y-26072761D01*
X102240333Y-26187047D01*
X102278428Y-26339428D01*
X102316523Y-26415619D01*
X102392714Y-26491809D01*
X102507000Y-26529904D01*
X102697476Y-26529904D01*
X103897476Y-34149904D02*
X103897476Y-33349904D01*
X103707000Y-33349904D01*
X103592714Y-33388000D01*
X103516523Y-33464190D01*
X103478428Y-33540380D01*
X103440333Y-33692761D01*
X103440333Y-33807047D01*
X103478428Y-33959428D01*
X103516523Y-34035619D01*
X103592714Y-34111809D01*
X103707000Y-34149904D01*
X103897476Y-34149904D01*
X102754619Y-33616571D02*
X102754619Y-34149904D01*
X102945095Y-33311809D02*
X103135571Y-33883238D01*
X102640333Y-33883238D01*
X103440333Y-36613714D02*
X103478428Y-36651809D01*
X103592714Y-36689904D01*
X103668904Y-36689904D01*
X103783190Y-36651809D01*
X103859380Y-36575619D01*
X103897476Y-36499428D01*
X103935571Y-36347047D01*
X103935571Y-36232761D01*
X103897476Y-36080380D01*
X103859380Y-36004190D01*
X103783190Y-35928000D01*
X103668904Y-35889904D01*
X103592714Y-35889904D01*
X103478428Y-35928000D01*
X103440333Y-35966095D01*
X102754619Y-35889904D02*
X102907000Y-35889904D01*
X102983190Y-35928000D01*
X103021285Y-35966095D01*
X103097476Y-36080380D01*
X103135571Y-36232761D01*
X103135571Y-36537523D01*
X103097476Y-36613714D01*
X103059380Y-36651809D01*
X102983190Y-36689904D01*
X102830809Y-36689904D01*
X102754619Y-36651809D01*
X102716523Y-36613714D01*
X102678428Y-36537523D01*
X102678428Y-36347047D01*
X102716523Y-36270857D01*
X102754619Y-36232761D01*
X102830809Y-36194666D01*
X102983190Y-36194666D01*
X103059380Y-36232761D01*
X103097476Y-36270857D01*
X103135571Y-36347047D01*
X103897476Y-39229904D02*
X103897476Y-38429904D01*
X103707000Y-38429904D01*
X103592714Y-38468000D01*
X103516523Y-38544190D01*
X103478428Y-38620380D01*
X103440333Y-38772761D01*
X103440333Y-38887047D01*
X103478428Y-39039428D01*
X103516523Y-39115619D01*
X103592714Y-39191809D01*
X103707000Y-39229904D01*
X103897476Y-39229904D01*
X103173666Y-38429904D02*
X102640333Y-38429904D01*
X102983190Y-39229904D01*
X103859380Y-41350857D02*
X103592714Y-41350857D01*
X103478428Y-41769904D02*
X103859380Y-41769904D01*
X103859380Y-40969904D01*
X103478428Y-40969904D01*
X102792714Y-40969904D02*
X102945095Y-40969904D01*
X103021285Y-41008000D01*
X103059380Y-41046095D01*
X103135571Y-41160380D01*
X103173666Y-41312761D01*
X103173666Y-41617523D01*
X103135571Y-41693714D01*
X103097476Y-41731809D01*
X103021285Y-41769904D01*
X102868904Y-41769904D01*
X102792714Y-41731809D01*
X102754619Y-41693714D01*
X102716523Y-41617523D01*
X102716523Y-41427047D01*
X102754619Y-41350857D01*
X102792714Y-41312761D01*
X102868904Y-41274666D01*
X103021285Y-41274666D01*
X103097476Y-41312761D01*
X103135571Y-41350857D01*
X103173666Y-41427047D01*
X103630809Y-43890857D02*
X103516523Y-43928952D01*
X103478428Y-43967047D01*
X103440333Y-44043238D01*
X103440333Y-44157523D01*
X103478428Y-44233714D01*
X103516523Y-44271809D01*
X103592714Y-44309904D01*
X103897476Y-44309904D01*
X103897476Y-43509904D01*
X103630809Y-43509904D01*
X103554619Y-43548000D01*
X103516523Y-43586095D01*
X103478428Y-43662285D01*
X103478428Y-43738476D01*
X103516523Y-43814666D01*
X103554619Y-43852761D01*
X103630809Y-43890857D01*
X103897476Y-43890857D01*
X102754619Y-43776571D02*
X102754619Y-44309904D01*
X102945095Y-43471809D02*
X103135571Y-44043238D01*
X102640333Y-44043238D01*
X103630809Y-46430857D02*
X103516523Y-46468952D01*
X103478428Y-46507047D01*
X103440333Y-46583238D01*
X103440333Y-46697523D01*
X103478428Y-46773714D01*
X103516523Y-46811809D01*
X103592714Y-46849904D01*
X103897476Y-46849904D01*
X103897476Y-46049904D01*
X103630809Y-46049904D01*
X103554619Y-46088000D01*
X103516523Y-46126095D01*
X103478428Y-46202285D01*
X103478428Y-46278476D01*
X103516523Y-46354666D01*
X103554619Y-46392761D01*
X103630809Y-46430857D01*
X103897476Y-46430857D01*
X102716523Y-46049904D02*
X103097476Y-46049904D01*
X103135571Y-46430857D01*
X103097476Y-46392761D01*
X103021285Y-46354666D01*
X102830809Y-46354666D01*
X102754619Y-46392761D01*
X102716523Y-46430857D01*
X102678428Y-46507047D01*
X102678428Y-46697523D01*
X102716523Y-46773714D01*
X102754619Y-46811809D01*
X102830809Y-46849904D01*
X103021285Y-46849904D01*
X103097476Y-46811809D01*
X103135571Y-46773714D01*
X114552809Y-46430857D02*
X114438523Y-46468952D01*
X114400428Y-46507047D01*
X114362333Y-46583238D01*
X114362333Y-46697523D01*
X114400428Y-46773714D01*
X114438523Y-46811809D01*
X114514714Y-46849904D01*
X114819476Y-46849904D01*
X114819476Y-46049904D01*
X114552809Y-46049904D01*
X114476619Y-46088000D01*
X114438523Y-46126095D01*
X114400428Y-46202285D01*
X114400428Y-46278476D01*
X114438523Y-46354666D01*
X114476619Y-46392761D01*
X114552809Y-46430857D01*
X114819476Y-46430857D01*
X113676619Y-46049904D02*
X113829000Y-46049904D01*
X113905190Y-46088000D01*
X113943285Y-46126095D01*
X114019476Y-46240380D01*
X114057571Y-46392761D01*
X114057571Y-46697523D01*
X114019476Y-46773714D01*
X113981380Y-46811809D01*
X113905190Y-46849904D01*
X113752809Y-46849904D01*
X113676619Y-46811809D01*
X113638523Y-46773714D01*
X113600428Y-46697523D01*
X113600428Y-46507047D01*
X113638523Y-46430857D01*
X113676619Y-46392761D01*
X113752809Y-46354666D01*
X113905190Y-46354666D01*
X113981380Y-46392761D01*
X114019476Y-46430857D01*
X114057571Y-46507047D01*
X114552809Y-41350857D02*
X114438523Y-41388952D01*
X114400428Y-41427047D01*
X114362333Y-41503238D01*
X114362333Y-41617523D01*
X114400428Y-41693714D01*
X114438523Y-41731809D01*
X114514714Y-41769904D01*
X114819476Y-41769904D01*
X114819476Y-40969904D01*
X114552809Y-40969904D01*
X114476619Y-41008000D01*
X114438523Y-41046095D01*
X114400428Y-41122285D01*
X114400428Y-41198476D01*
X114438523Y-41274666D01*
X114476619Y-41312761D01*
X114552809Y-41350857D01*
X114819476Y-41350857D01*
X114095666Y-40969904D02*
X113600428Y-40969904D01*
X113867095Y-41274666D01*
X113752809Y-41274666D01*
X113676619Y-41312761D01*
X113638523Y-41350857D01*
X113600428Y-41427047D01*
X113600428Y-41617523D01*
X113638523Y-41693714D01*
X113676619Y-41731809D01*
X113752809Y-41769904D01*
X113981380Y-41769904D01*
X114057571Y-41731809D01*
X114095666Y-41693714D01*
X114552809Y-38810857D02*
X114438523Y-38848952D01*
X114400428Y-38887047D01*
X114362333Y-38963238D01*
X114362333Y-39077523D01*
X114400428Y-39153714D01*
X114438523Y-39191809D01*
X114514714Y-39229904D01*
X114819476Y-39229904D01*
X114819476Y-38429904D01*
X114552809Y-38429904D01*
X114476619Y-38468000D01*
X114438523Y-38506095D01*
X114400428Y-38582285D01*
X114400428Y-38658476D01*
X114438523Y-38734666D01*
X114476619Y-38772761D01*
X114552809Y-38810857D01*
X114819476Y-38810857D01*
X113600428Y-39229904D02*
X114057571Y-39229904D01*
X113829000Y-39229904D02*
X113829000Y-38429904D01*
X113905190Y-38544190D01*
X113981380Y-38620380D01*
X114057571Y-38658476D01*
X114495666Y-28650857D02*
X114762333Y-28650857D01*
X114762333Y-29069904D02*
X114762333Y-28269904D01*
X114381380Y-28269904D01*
X113733761Y-28536571D02*
X113733761Y-29069904D01*
X113924238Y-28231809D02*
X114114714Y-28803238D01*
X113619476Y-28803238D01*
X115295666Y-25729904D02*
X115029000Y-26529904D01*
X114762333Y-25729904D01*
X114038523Y-26453714D02*
X114076619Y-26491809D01*
X114190904Y-26529904D01*
X114267095Y-26529904D01*
X114381380Y-26491809D01*
X114457571Y-26415619D01*
X114495666Y-26339428D01*
X114533761Y-26187047D01*
X114533761Y-26072761D01*
X114495666Y-25920380D01*
X114457571Y-25844190D01*
X114381380Y-25768000D01*
X114267095Y-25729904D01*
X114190904Y-25729904D01*
X114076619Y-25768000D01*
X114038523Y-25806095D01*
X113238523Y-26453714D02*
X113276619Y-26491809D01*
X113390904Y-26529904D01*
X113467095Y-26529904D01*
X113581380Y-26491809D01*
X113657571Y-26415619D01*
X113695666Y-26339428D01*
X113733761Y-26187047D01*
X113733761Y-26072761D01*
X113695666Y-25920380D01*
X113657571Y-25844190D01*
X113581380Y-25768000D01*
X113467095Y-25729904D01*
X113390904Y-25729904D01*
X113276619Y-25768000D01*
X113238523Y-25806095D01*
X114781380Y-18909904D02*
X115048047Y-18528952D01*
X115238523Y-18909904D02*
X115238523Y-18109904D01*
X114933761Y-18109904D01*
X114857571Y-18148000D01*
X114819476Y-18186095D01*
X114781380Y-18262285D01*
X114781380Y-18376571D01*
X114819476Y-18452761D01*
X114857571Y-18490857D01*
X114933761Y-18528952D01*
X115238523Y-18528952D01*
X114476619Y-18681333D02*
X114095666Y-18681333D01*
X114552809Y-18909904D02*
X114286142Y-18109904D01*
X114019476Y-18909904D01*
X113829000Y-18109904D02*
X113638523Y-18909904D01*
X113486142Y-18338476D01*
X113333761Y-18909904D01*
X113143285Y-18109904D01*
X114781380Y-18909904D02*
X115048047Y-18528952D01*
X115238523Y-18909904D02*
X115238523Y-18109904D01*
X114933761Y-18109904D01*
X114857571Y-18148000D01*
X114819476Y-18186095D01*
X114781380Y-18262285D01*
X114781380Y-18376571D01*
X114819476Y-18452761D01*
X114857571Y-18490857D01*
X114933761Y-18528952D01*
X115238523Y-18528952D01*
X114476619Y-18681333D02*
X114095666Y-18681333D01*
X114552809Y-18909904D02*
X114286142Y-18109904D01*
X114019476Y-18909904D01*
X113829000Y-18109904D02*
X113638523Y-18909904D01*
X113486142Y-18338476D01*
X113333761Y-18909904D01*
X113143285Y-18109904D01*
X114838523Y-20688000D02*
X114914714Y-20649904D01*
X115029000Y-20649904D01*
X115143285Y-20688000D01*
X115219476Y-20764190D01*
X115257571Y-20840380D01*
X115295666Y-20992761D01*
X115295666Y-21107047D01*
X115257571Y-21259428D01*
X115219476Y-21335619D01*
X115143285Y-21411809D01*
X115029000Y-21449904D01*
X114952809Y-21449904D01*
X114838523Y-21411809D01*
X114800428Y-21373714D01*
X114800428Y-21107047D01*
X114952809Y-21107047D01*
X114457571Y-21449904D02*
X114457571Y-20649904D01*
X114000428Y-21449904D01*
X114000428Y-20649904D01*
X113619476Y-21449904D02*
X113619476Y-20649904D01*
X113429000Y-20649904D01*
X113314714Y-20688000D01*
X113238523Y-20764190D01*
X113200428Y-20840380D01*
X113162333Y-20992761D01*
X113162333Y-21107047D01*
X113200428Y-21259428D01*
X113238523Y-21335619D01*
X113314714Y-21411809D01*
X113429000Y-21449904D01*
X113619476Y-21449904D01*
X115295666Y-25729904D02*
X115029000Y-26529904D01*
X114762333Y-25729904D01*
X114038523Y-26453714D02*
X114076619Y-26491809D01*
X114190904Y-26529904D01*
X114267095Y-26529904D01*
X114381380Y-26491809D01*
X114457571Y-26415619D01*
X114495666Y-26339428D01*
X114533761Y-26187047D01*
X114533761Y-26072761D01*
X114495666Y-25920380D01*
X114457571Y-25844190D01*
X114381380Y-25768000D01*
X114267095Y-25729904D01*
X114190904Y-25729904D01*
X114076619Y-25768000D01*
X114038523Y-25806095D01*
X113238523Y-26453714D02*
X113276619Y-26491809D01*
X113390904Y-26529904D01*
X113467095Y-26529904D01*
X113581380Y-26491809D01*
X113657571Y-26415619D01*
X113695666Y-26339428D01*
X113733761Y-26187047D01*
X113733761Y-26072761D01*
X113695666Y-25920380D01*
X113657571Y-25844190D01*
X113581380Y-25768000D01*
X113467095Y-25729904D01*
X113390904Y-25729904D01*
X113276619Y-25768000D01*
X113238523Y-25806095D01*
X114495666Y-28650857D02*
X114762333Y-28650857D01*
X114762333Y-29069904D02*
X114762333Y-28269904D01*
X114381380Y-28269904D01*
X113733761Y-28536571D02*
X113733761Y-29069904D01*
X113924238Y-28231809D02*
X114114714Y-28803238D01*
X113619476Y-28803238D01*
X114552809Y-38810857D02*
X114438523Y-38848952D01*
X114400428Y-38887047D01*
X114362333Y-38963238D01*
X114362333Y-39077523D01*
X114400428Y-39153714D01*
X114438523Y-39191809D01*
X114514714Y-39229904D01*
X114819476Y-39229904D01*
X114819476Y-38429904D01*
X114552809Y-38429904D01*
X114476619Y-38468000D01*
X114438523Y-38506095D01*
X114400428Y-38582285D01*
X114400428Y-38658476D01*
X114438523Y-38734666D01*
X114476619Y-38772761D01*
X114552809Y-38810857D01*
X114819476Y-38810857D01*
X113600428Y-39229904D02*
X114057571Y-39229904D01*
X113829000Y-39229904D02*
X113829000Y-38429904D01*
X113905190Y-38544190D01*
X113981380Y-38620380D01*
X114057571Y-38658476D01*
X114552809Y-41350857D02*
X114438523Y-41388952D01*
X114400428Y-41427047D01*
X114362333Y-41503238D01*
X114362333Y-41617523D01*
X114400428Y-41693714D01*
X114438523Y-41731809D01*
X114514714Y-41769904D01*
X114819476Y-41769904D01*
X114819476Y-40969904D01*
X114552809Y-40969904D01*
X114476619Y-41008000D01*
X114438523Y-41046095D01*
X114400428Y-41122285D01*
X114400428Y-41198476D01*
X114438523Y-41274666D01*
X114476619Y-41312761D01*
X114552809Y-41350857D01*
X114819476Y-41350857D01*
X114095666Y-40969904D02*
X113600428Y-40969904D01*
X113867095Y-41274666D01*
X113752809Y-41274666D01*
X113676619Y-41312761D01*
X113638523Y-41350857D01*
X113600428Y-41427047D01*
X113600428Y-41617523D01*
X113638523Y-41693714D01*
X113676619Y-41731809D01*
X113752809Y-41769904D01*
X113981380Y-41769904D01*
X114057571Y-41731809D01*
X114095666Y-41693714D01*
X114552809Y-46430857D02*
X114438523Y-46468952D01*
X114400428Y-46507047D01*
X114362333Y-46583238D01*
X114362333Y-46697523D01*
X114400428Y-46773714D01*
X114438523Y-46811809D01*
X114514714Y-46849904D01*
X114819476Y-46849904D01*
X114819476Y-46049904D01*
X114552809Y-46049904D01*
X114476619Y-46088000D01*
X114438523Y-46126095D01*
X114400428Y-46202285D01*
X114400428Y-46278476D01*
X114438523Y-46354666D01*
X114476619Y-46392761D01*
X114552809Y-46430857D01*
X114819476Y-46430857D01*
X113676619Y-46049904D02*
X113829000Y-46049904D01*
X113905190Y-46088000D01*
X113943285Y-46126095D01*
X114019476Y-46240380D01*
X114057571Y-46392761D01*
X114057571Y-46697523D01*
X114019476Y-46773714D01*
X113981380Y-46811809D01*
X113905190Y-46849904D01*
X113752809Y-46849904D01*
X113676619Y-46811809D01*
X113638523Y-46773714D01*
X113600428Y-46697523D01*
X113600428Y-46507047D01*
X113638523Y-46430857D01*
X113676619Y-46392761D01*
X113752809Y-46354666D01*
X113905190Y-46354666D01*
X113981380Y-46392761D01*
X114019476Y-46430857D01*
X114057571Y-46507047D01*
X103630809Y-46430857D02*
X103516523Y-46468952D01*
X103478428Y-46507047D01*
X103440333Y-46583238D01*
X103440333Y-46697523D01*
X103478428Y-46773714D01*
X103516523Y-46811809D01*
X103592714Y-46849904D01*
X103897476Y-46849904D01*
X103897476Y-46049904D01*
X103630809Y-46049904D01*
X103554619Y-46088000D01*
X103516523Y-46126095D01*
X103478428Y-46202285D01*
X103478428Y-46278476D01*
X103516523Y-46354666D01*
X103554619Y-46392761D01*
X103630809Y-46430857D01*
X103897476Y-46430857D01*
X102716523Y-46049904D02*
X103097476Y-46049904D01*
X103135571Y-46430857D01*
X103097476Y-46392761D01*
X103021285Y-46354666D01*
X102830809Y-46354666D01*
X102754619Y-46392761D01*
X102716523Y-46430857D01*
X102678428Y-46507047D01*
X102678428Y-46697523D01*
X102716523Y-46773714D01*
X102754619Y-46811809D01*
X102830809Y-46849904D01*
X103021285Y-46849904D01*
X103097476Y-46811809D01*
X103135571Y-46773714D01*
X103630809Y-43890857D02*
X103516523Y-43928952D01*
X103478428Y-43967047D01*
X103440333Y-44043238D01*
X103440333Y-44157523D01*
X103478428Y-44233714D01*
X103516523Y-44271809D01*
X103592714Y-44309904D01*
X103897476Y-44309904D01*
X103897476Y-43509904D01*
X103630809Y-43509904D01*
X103554619Y-43548000D01*
X103516523Y-43586095D01*
X103478428Y-43662285D01*
X103478428Y-43738476D01*
X103516523Y-43814666D01*
X103554619Y-43852761D01*
X103630809Y-43890857D01*
X103897476Y-43890857D01*
X102754619Y-43776571D02*
X102754619Y-44309904D01*
X102945095Y-43471809D02*
X103135571Y-44043238D01*
X102640333Y-44043238D01*
X103859380Y-41350857D02*
X103592714Y-41350857D01*
X103478428Y-41769904D02*
X103859380Y-41769904D01*
X103859380Y-40969904D01*
X103478428Y-40969904D01*
X102792714Y-40969904D02*
X102945095Y-40969904D01*
X103021285Y-41008000D01*
X103059380Y-41046095D01*
X103135571Y-41160380D01*
X103173666Y-41312761D01*
X103173666Y-41617523D01*
X103135571Y-41693714D01*
X103097476Y-41731809D01*
X103021285Y-41769904D01*
X102868904Y-41769904D01*
X102792714Y-41731809D01*
X102754619Y-41693714D01*
X102716523Y-41617523D01*
X102716523Y-41427047D01*
X102754619Y-41350857D01*
X102792714Y-41312761D01*
X102868904Y-41274666D01*
X103021285Y-41274666D01*
X103097476Y-41312761D01*
X103135571Y-41350857D01*
X103173666Y-41427047D01*
X103897476Y-39229904D02*
X103897476Y-38429904D01*
X103707000Y-38429904D01*
X103592714Y-38468000D01*
X103516523Y-38544190D01*
X103478428Y-38620380D01*
X103440333Y-38772761D01*
X103440333Y-38887047D01*
X103478428Y-39039428D01*
X103516523Y-39115619D01*
X103592714Y-39191809D01*
X103707000Y-39229904D01*
X103897476Y-39229904D01*
X103173666Y-38429904D02*
X102640333Y-38429904D01*
X102983190Y-39229904D01*
X103440333Y-36613714D02*
X103478428Y-36651809D01*
X103592714Y-36689904D01*
X103668904Y-36689904D01*
X103783190Y-36651809D01*
X103859380Y-36575619D01*
X103897476Y-36499428D01*
X103935571Y-36347047D01*
X103935571Y-36232761D01*
X103897476Y-36080380D01*
X103859380Y-36004190D01*
X103783190Y-35928000D01*
X103668904Y-35889904D01*
X103592714Y-35889904D01*
X103478428Y-35928000D01*
X103440333Y-35966095D01*
X102754619Y-35889904D02*
X102907000Y-35889904D01*
X102983190Y-35928000D01*
X103021285Y-35966095D01*
X103097476Y-36080380D01*
X103135571Y-36232761D01*
X103135571Y-36537523D01*
X103097476Y-36613714D01*
X103059380Y-36651809D01*
X102983190Y-36689904D01*
X102830809Y-36689904D01*
X102754619Y-36651809D01*
X102716523Y-36613714D01*
X102678428Y-36537523D01*
X102678428Y-36347047D01*
X102716523Y-36270857D01*
X102754619Y-36232761D01*
X102830809Y-36194666D01*
X102983190Y-36194666D01*
X103059380Y-36232761D01*
X103097476Y-36270857D01*
X103135571Y-36347047D01*
X103897476Y-34149904D02*
X103897476Y-33349904D01*
X103707000Y-33349904D01*
X103592714Y-33388000D01*
X103516523Y-33464190D01*
X103478428Y-33540380D01*
X103440333Y-33692761D01*
X103440333Y-33807047D01*
X103478428Y-33959428D01*
X103516523Y-34035619D01*
X103592714Y-34111809D01*
X103707000Y-34149904D01*
X103897476Y-34149904D01*
X102754619Y-33616571D02*
X102754619Y-34149904D01*
X102945095Y-33311809D02*
X103135571Y-33883238D01*
X102640333Y-33883238D01*
X103916523Y-23228000D02*
X103992714Y-23189904D01*
X104107000Y-23189904D01*
X104221285Y-23228000D01*
X104297476Y-23304190D01*
X104335571Y-23380380D01*
X104373666Y-23532761D01*
X104373666Y-23647047D01*
X104335571Y-23799428D01*
X104297476Y-23875619D01*
X104221285Y-23951809D01*
X104107000Y-23989904D01*
X104030809Y-23989904D01*
X103916523Y-23951809D01*
X103878428Y-23913714D01*
X103878428Y-23647047D01*
X104030809Y-23647047D01*
X103535571Y-23989904D02*
X103535571Y-23189904D01*
X103078428Y-23989904D01*
X103078428Y-23189904D01*
X102697476Y-23989904D02*
X102697476Y-23189904D01*
X102507000Y-23189904D01*
X102392714Y-23228000D01*
X102316523Y-23304190D01*
X102278428Y-23380380D01*
X102240333Y-23532761D01*
X102240333Y-23647047D01*
X102278428Y-23799428D01*
X102316523Y-23875619D01*
X102392714Y-23951809D01*
X102507000Y-23989904D01*
X102697476Y-23989904D01*
X103916523Y-25768000D02*
X103992714Y-25729904D01*
X104107000Y-25729904D01*
X104221285Y-25768000D01*
X104297476Y-25844190D01*
X104335571Y-25920380D01*
X104373666Y-26072761D01*
X104373666Y-26187047D01*
X104335571Y-26339428D01*
X104297476Y-26415619D01*
X104221285Y-26491809D01*
X104107000Y-26529904D01*
X104030809Y-26529904D01*
X103916523Y-26491809D01*
X103878428Y-26453714D01*
X103878428Y-26187047D01*
X104030809Y-26187047D01*
X103535571Y-26529904D02*
X103535571Y-25729904D01*
X103078428Y-26529904D01*
X103078428Y-25729904D01*
X102697476Y-26529904D02*
X102697476Y-25729904D01*
X102507000Y-25729904D01*
X102392714Y-25768000D01*
X102316523Y-25844190D01*
X102278428Y-25920380D01*
X102240333Y-26072761D01*
X102240333Y-26187047D01*
X102278428Y-26339428D01*
X102316523Y-26415619D01*
X102392714Y-26491809D01*
X102507000Y-26529904D01*
X102697476Y-26529904D01*
X103897476Y-29069904D02*
X103897476Y-28269904D01*
X103707000Y-28269904D01*
X103592714Y-28308000D01*
X103516523Y-28384190D01*
X103478428Y-28460380D01*
X103440333Y-28612761D01*
X103440333Y-28727047D01*
X103478428Y-28879428D01*
X103516523Y-28955619D01*
X103592714Y-29031809D01*
X103707000Y-29069904D01*
X103897476Y-29069904D01*
X102678428Y-29069904D02*
X103135571Y-29069904D01*
X102907000Y-29069904D02*
X102907000Y-28269904D01*
X102983190Y-28384190D01*
X103059380Y-28460380D01*
X103135571Y-28498476D01*
X103897476Y-31609904D02*
X103897476Y-30809904D01*
X103707000Y-30809904D01*
X103592714Y-30848000D01*
X103516523Y-30924190D01*
X103478428Y-31000380D01*
X103440333Y-31152761D01*
X103440333Y-31267047D01*
X103478428Y-31419428D01*
X103516523Y-31495619D01*
X103592714Y-31571809D01*
X103707000Y-31609904D01*
X103897476Y-31609904D01*
X102945095Y-30809904D02*
X102868904Y-30809904D01*
X102792714Y-30848000D01*
X102754619Y-30886095D01*
X102716523Y-30962285D01*
X102678428Y-31114666D01*
X102678428Y-31305142D01*
X102716523Y-31457523D01*
X102754619Y-31533714D01*
X102792714Y-31571809D01*
X102868904Y-31609904D01*
X102945095Y-31609904D01*
X103021285Y-31571809D01*
X103059380Y-31533714D01*
X103097476Y-31457523D01*
X103135571Y-31305142D01*
X103135571Y-31114666D01*
X103097476Y-30962285D01*
X103059380Y-30886095D01*
X103021285Y-30848000D01*
X102945095Y-30809904D01*
X103897476Y-21449904D02*
X103897476Y-20649904D01*
X103707000Y-20649904D01*
X103592714Y-20688000D01*
X103516523Y-20764190D01*
X103478428Y-20840380D01*
X103440333Y-20992761D01*
X103440333Y-21107047D01*
X103478428Y-21259428D01*
X103516523Y-21335619D01*
X103592714Y-21411809D01*
X103707000Y-21449904D01*
X103897476Y-21449904D01*
X103135571Y-20726095D02*
X103097476Y-20688000D01*
X103021285Y-20649904D01*
X102830809Y-20649904D01*
X102754619Y-20688000D01*
X102716523Y-20726095D01*
X102678428Y-20802285D01*
X102678428Y-20878476D01*
X102716523Y-20992761D01*
X103173666Y-21449904D01*
X102678428Y-21449904D01*
X109809761Y-56745476D02*
X109857380Y-56888333D01*
X109857380Y-57126428D01*
X109809761Y-57221666D01*
X109762142Y-57269285D01*
X109666904Y-57316904D01*
X109571666Y-57316904D01*
X109476428Y-57269285D01*
X109428809Y-57221666D01*
X109381190Y-57126428D01*
X109333571Y-56935952D01*
X109285952Y-56840714D01*
X109238333Y-56793095D01*
X109143095Y-56745476D01*
X109047857Y-56745476D01*
X108952619Y-56793095D01*
X108905000Y-56840714D01*
X108857380Y-56935952D01*
X108857380Y-57174047D01*
X108905000Y-57316904D01*
X108857380Y-57650238D02*
X109857380Y-57888333D01*
X109143095Y-58078809D01*
X109857380Y-58269285D01*
X108857380Y-58507380D01*
X108857380Y-58793095D02*
X108857380Y-59412142D01*
X109238333Y-59078809D01*
X109238333Y-59221666D01*
X109285952Y-59316904D01*
X109333571Y-59364523D01*
X109428809Y-59412142D01*
X109666904Y-59412142D01*
X109762142Y-59364523D01*
X109809761Y-59316904D01*
X109857380Y-59221666D01*
X109857380Y-58935952D01*
X109809761Y-58840714D01*
X109762142Y-58793095D01*
X108857380Y-60031190D02*
X108857380Y-60126428D01*
X108905000Y-60221666D01*
X108952619Y-60269285D01*
X109047857Y-60316904D01*
X109238333Y-60364523D01*
X109476428Y-60364523D01*
X109666904Y-60316904D01*
X109762142Y-60269285D01*
X109809761Y-60221666D01*
X109857380Y-60126428D01*
X109857380Y-60031190D01*
X109809761Y-59935952D01*
X109762142Y-59888333D01*
X109666904Y-59840714D01*
X109476428Y-59793095D01*
X109238333Y-59793095D01*
X109047857Y-59840714D01*
X108952619Y-59888333D01*
X108905000Y-59935952D01*
X108857380Y-60031190D01*
X96254523Y-73309761D02*
X96111666Y-73357380D01*
X95873571Y-73357380D01*
X95778333Y-73309761D01*
X95730714Y-73262142D01*
X95683095Y-73166904D01*
X95683095Y-73071666D01*
X95730714Y-72976428D01*
X95778333Y-72928809D01*
X95873571Y-72881190D01*
X96064047Y-72833571D01*
X96159285Y-72785952D01*
X96206904Y-72738333D01*
X96254523Y-72643095D01*
X96254523Y-72547857D01*
X96206904Y-72452619D01*
X96159285Y-72405000D01*
X96064047Y-72357380D01*
X95825952Y-72357380D01*
X95683095Y-72405000D01*
X95349761Y-72357380D02*
X95111666Y-73357380D01*
X94921190Y-72643095D01*
X94730714Y-73357380D01*
X94492619Y-72357380D01*
X94159285Y-72452619D02*
X94111666Y-72405000D01*
X94016428Y-72357380D01*
X93778333Y-72357380D01*
X93683095Y-72405000D01*
X93635476Y-72452619D01*
X93587857Y-72547857D01*
X93587857Y-72643095D01*
X93635476Y-72785952D01*
X94206904Y-73357380D01*
X93587857Y-73357380D01*
X93111666Y-73357380D02*
X92921190Y-73357380D01*
X92825952Y-73309761D01*
X92778333Y-73262142D01*
X92683095Y-73119285D01*
X92635476Y-72928809D01*
X92635476Y-72547857D01*
X92683095Y-72452619D01*
X92730714Y-72405000D01*
X92825952Y-72357380D01*
X93016428Y-72357380D01*
X93111666Y-72405000D01*
X93159285Y-72452619D01*
X93206904Y-72547857D01*
X93206904Y-72785952D01*
X93159285Y-72881190D01*
X93111666Y-72928809D01*
X93016428Y-72976428D01*
X92825952Y-72976428D01*
X92730714Y-72928809D01*
X92683095Y-72881190D01*
X92635476Y-72785952D01*
X96254523Y-56309761D02*
X96111666Y-56357380D01*
X95873571Y-56357380D01*
X95778333Y-56309761D01*
X95730714Y-56262142D01*
X95683095Y-56166904D01*
X95683095Y-56071666D01*
X95730714Y-55976428D01*
X95778333Y-55928809D01*
X95873571Y-55881190D01*
X96064047Y-55833571D01*
X96159285Y-55785952D01*
X96206904Y-55738333D01*
X96254523Y-55643095D01*
X96254523Y-55547857D01*
X96206904Y-55452619D01*
X96159285Y-55405000D01*
X96064047Y-55357380D01*
X95825952Y-55357380D01*
X95683095Y-55405000D01*
X95349761Y-55357380D02*
X95111666Y-56357380D01*
X94921190Y-55643095D01*
X94730714Y-56357380D01*
X94492619Y-55357380D01*
X94159285Y-55452619D02*
X94111666Y-55405000D01*
X94016428Y-55357380D01*
X93778333Y-55357380D01*
X93683095Y-55405000D01*
X93635476Y-55452619D01*
X93587857Y-55547857D01*
X93587857Y-55643095D01*
X93635476Y-55785952D01*
X94206904Y-56357380D01*
X93587857Y-56357380D01*
X93016428Y-55785952D02*
X93111666Y-55738333D01*
X93159285Y-55690714D01*
X93206904Y-55595476D01*
X93206904Y-55547857D01*
X93159285Y-55452619D01*
X93111666Y-55405000D01*
X93016428Y-55357380D01*
X92825952Y-55357380D01*
X92730714Y-55405000D01*
X92683095Y-55452619D01*
X92635476Y-55547857D01*
X92635476Y-55595476D01*
X92683095Y-55690714D01*
X92730714Y-55738333D01*
X92825952Y-55785952D01*
X93016428Y-55785952D01*
X93111666Y-55833571D01*
X93159285Y-55881190D01*
X93206904Y-55976428D01*
X93206904Y-56166904D01*
X93159285Y-56262142D01*
X93111666Y-56309761D01*
X93016428Y-56357380D01*
X92825952Y-56357380D01*
X92730714Y-56309761D01*
X92683095Y-56262142D01*
X92635476Y-56166904D01*
X92635476Y-55976428D01*
X92683095Y-55881190D01*
X92730714Y-55833571D01*
X92825952Y-55785952D01*
X96254523Y-39309761D02*
X96111666Y-39357380D01*
X95873571Y-39357380D01*
X95778333Y-39309761D01*
X95730714Y-39262142D01*
X95683095Y-39166904D01*
X95683095Y-39071666D01*
X95730714Y-38976428D01*
X95778333Y-38928809D01*
X95873571Y-38881190D01*
X96064047Y-38833571D01*
X96159285Y-38785952D01*
X96206904Y-38738333D01*
X96254523Y-38643095D01*
X96254523Y-38547857D01*
X96206904Y-38452619D01*
X96159285Y-38405000D01*
X96064047Y-38357380D01*
X95825952Y-38357380D01*
X95683095Y-38405000D01*
X95349761Y-38357380D02*
X95111666Y-39357380D01*
X94921190Y-38643095D01*
X94730714Y-39357380D01*
X94492619Y-38357380D01*
X94159285Y-38452619D02*
X94111666Y-38405000D01*
X94016428Y-38357380D01*
X93778333Y-38357380D01*
X93683095Y-38405000D01*
X93635476Y-38452619D01*
X93587857Y-38547857D01*
X93587857Y-38643095D01*
X93635476Y-38785952D01*
X94206904Y-39357380D01*
X93587857Y-39357380D01*
X93254523Y-38357380D02*
X92587857Y-38357380D01*
X93016428Y-39357380D01*
X96254523Y-22309761D02*
X96111666Y-22357380D01*
X95873571Y-22357380D01*
X95778333Y-22309761D01*
X95730714Y-22262142D01*
X95683095Y-22166904D01*
X95683095Y-22071666D01*
X95730714Y-21976428D01*
X95778333Y-21928809D01*
X95873571Y-21881190D01*
X96064047Y-21833571D01*
X96159285Y-21785952D01*
X96206904Y-21738333D01*
X96254523Y-21643095D01*
X96254523Y-21547857D01*
X96206904Y-21452619D01*
X96159285Y-21405000D01*
X96064047Y-21357380D01*
X95825952Y-21357380D01*
X95683095Y-21405000D01*
X95349761Y-21357380D02*
X95111666Y-22357380D01*
X94921190Y-21643095D01*
X94730714Y-22357380D01*
X94492619Y-21357380D01*
X94159285Y-21452619D02*
X94111666Y-21405000D01*
X94016428Y-21357380D01*
X93778333Y-21357380D01*
X93683095Y-21405000D01*
X93635476Y-21452619D01*
X93587857Y-21547857D01*
X93587857Y-21643095D01*
X93635476Y-21785952D01*
X94206904Y-22357380D01*
X93587857Y-22357380D01*
X92730714Y-21357380D02*
X92921190Y-21357380D01*
X93016428Y-21405000D01*
X93064047Y-21452619D01*
X93159285Y-21595476D01*
X93206904Y-21785952D01*
X93206904Y-22166904D01*
X93159285Y-22262142D01*
X93111666Y-22309761D01*
X93016428Y-22357380D01*
X92825952Y-22357380D01*
X92730714Y-22309761D01*
X92683095Y-22262142D01*
X92635476Y-22166904D01*
X92635476Y-21928809D01*
X92683095Y-21833571D01*
X92730714Y-21785952D01*
X92825952Y-21738333D01*
X93016428Y-21738333D01*
X93111666Y-21785952D01*
X93159285Y-21833571D01*
X93206904Y-21928809D01*
X96254523Y-5309761D02*
X96111666Y-5357380D01*
X95873571Y-5357380D01*
X95778333Y-5309761D01*
X95730714Y-5262142D01*
X95683095Y-5166904D01*
X95683095Y-5071666D01*
X95730714Y-4976428D01*
X95778333Y-4928809D01*
X95873571Y-4881190D01*
X96064047Y-4833571D01*
X96159285Y-4785952D01*
X96206904Y-4738333D01*
X96254523Y-4643095D01*
X96254523Y-4547857D01*
X96206904Y-4452619D01*
X96159285Y-4405000D01*
X96064047Y-4357380D01*
X95825952Y-4357380D01*
X95683095Y-4405000D01*
X95349761Y-4357380D02*
X95111666Y-5357380D01*
X94921190Y-4643095D01*
X94730714Y-5357380D01*
X94492619Y-4357380D01*
X94159285Y-4452619D02*
X94111666Y-4405000D01*
X94016428Y-4357380D01*
X93778333Y-4357380D01*
X93683095Y-4405000D01*
X93635476Y-4452619D01*
X93587857Y-4547857D01*
X93587857Y-4643095D01*
X93635476Y-4785952D01*
X94206904Y-5357380D01*
X93587857Y-5357380D01*
X92683095Y-4357380D02*
X93159285Y-4357380D01*
X93206904Y-4833571D01*
X93159285Y-4785952D01*
X93064047Y-4738333D01*
X92825952Y-4738333D01*
X92730714Y-4785952D01*
X92683095Y-4833571D01*
X92635476Y-4928809D01*
X92635476Y-5166904D01*
X92683095Y-5262142D01*
X92730714Y-5309761D01*
X92825952Y-5357380D01*
X93064047Y-5357380D01*
X93159285Y-5309761D01*
X93206904Y-5262142D01*
X78254523Y-68309761D02*
X78111666Y-68357380D01*
X77873571Y-68357380D01*
X77778333Y-68309761D01*
X77730714Y-68262142D01*
X77683095Y-68166904D01*
X77683095Y-68071666D01*
X77730714Y-67976428D01*
X77778333Y-67928809D01*
X77873571Y-67881190D01*
X78064047Y-67833571D01*
X78159285Y-67785952D01*
X78206904Y-67738333D01*
X78254523Y-67643095D01*
X78254523Y-67547857D01*
X78206904Y-67452619D01*
X78159285Y-67405000D01*
X78064047Y-67357380D01*
X77825952Y-67357380D01*
X77683095Y-67405000D01*
X77349761Y-67357380D02*
X77111666Y-68357380D01*
X76921190Y-67643095D01*
X76730714Y-68357380D01*
X76492619Y-67357380D01*
X76159285Y-67452619D02*
X76111666Y-67405000D01*
X76016428Y-67357380D01*
X75778333Y-67357380D01*
X75683095Y-67405000D01*
X75635476Y-67452619D01*
X75587857Y-67547857D01*
X75587857Y-67643095D01*
X75635476Y-67785952D01*
X76206904Y-68357380D01*
X75587857Y-68357380D01*
X74730714Y-67690714D02*
X74730714Y-68357380D01*
X74968809Y-67309761D02*
X75206904Y-68024047D01*
X74587857Y-68024047D01*
X78254523Y-51309761D02*
X78111666Y-51357380D01*
X77873571Y-51357380D01*
X77778333Y-51309761D01*
X77730714Y-51262142D01*
X77683095Y-51166904D01*
X77683095Y-51071666D01*
X77730714Y-50976428D01*
X77778333Y-50928809D01*
X77873571Y-50881190D01*
X78064047Y-50833571D01*
X78159285Y-50785952D01*
X78206904Y-50738333D01*
X78254523Y-50643095D01*
X78254523Y-50547857D01*
X78206904Y-50452619D01*
X78159285Y-50405000D01*
X78064047Y-50357380D01*
X77825952Y-50357380D01*
X77683095Y-50405000D01*
X77349761Y-50357380D02*
X77111666Y-51357380D01*
X76921190Y-50643095D01*
X76730714Y-51357380D01*
X76492619Y-50357380D01*
X76159285Y-50452619D02*
X76111666Y-50405000D01*
X76016428Y-50357380D01*
X75778333Y-50357380D01*
X75683095Y-50405000D01*
X75635476Y-50452619D01*
X75587857Y-50547857D01*
X75587857Y-50643095D01*
X75635476Y-50785952D01*
X76206904Y-51357380D01*
X75587857Y-51357380D01*
X75254523Y-50357380D02*
X74635476Y-50357380D01*
X74968809Y-50738333D01*
X74825952Y-50738333D01*
X74730714Y-50785952D01*
X74683095Y-50833571D01*
X74635476Y-50928809D01*
X74635476Y-51166904D01*
X74683095Y-51262142D01*
X74730714Y-51309761D01*
X74825952Y-51357380D01*
X75111666Y-51357380D01*
X75206904Y-51309761D01*
X75254523Y-51262142D01*
X78254523Y-34309761D02*
X78111666Y-34357380D01*
X77873571Y-34357380D01*
X77778333Y-34309761D01*
X77730714Y-34262142D01*
X77683095Y-34166904D01*
X77683095Y-34071666D01*
X77730714Y-33976428D01*
X77778333Y-33928809D01*
X77873571Y-33881190D01*
X78064047Y-33833571D01*
X78159285Y-33785952D01*
X78206904Y-33738333D01*
X78254523Y-33643095D01*
X78254523Y-33547857D01*
X78206904Y-33452619D01*
X78159285Y-33405000D01*
X78064047Y-33357380D01*
X77825952Y-33357380D01*
X77683095Y-33405000D01*
X77349761Y-33357380D02*
X77111666Y-34357380D01*
X76921190Y-33643095D01*
X76730714Y-34357380D01*
X76492619Y-33357380D01*
X76159285Y-33452619D02*
X76111666Y-33405000D01*
X76016428Y-33357380D01*
X75778333Y-33357380D01*
X75683095Y-33405000D01*
X75635476Y-33452619D01*
X75587857Y-33547857D01*
X75587857Y-33643095D01*
X75635476Y-33785952D01*
X76206904Y-34357380D01*
X75587857Y-34357380D01*
X75206904Y-33452619D02*
X75159285Y-33405000D01*
X75064047Y-33357380D01*
X74825952Y-33357380D01*
X74730714Y-33405000D01*
X74683095Y-33452619D01*
X74635476Y-33547857D01*
X74635476Y-33643095D01*
X74683095Y-33785952D01*
X75254523Y-34357380D01*
X74635476Y-34357380D01*
X78254523Y-17309761D02*
X78111666Y-17357380D01*
X77873571Y-17357380D01*
X77778333Y-17309761D01*
X77730714Y-17262142D01*
X77683095Y-17166904D01*
X77683095Y-17071666D01*
X77730714Y-16976428D01*
X77778333Y-16928809D01*
X77873571Y-16881190D01*
X78064047Y-16833571D01*
X78159285Y-16785952D01*
X78206904Y-16738333D01*
X78254523Y-16643095D01*
X78254523Y-16547857D01*
X78206904Y-16452619D01*
X78159285Y-16405000D01*
X78064047Y-16357380D01*
X77825952Y-16357380D01*
X77683095Y-16405000D01*
X77349761Y-16357380D02*
X77111666Y-17357380D01*
X76921190Y-16643095D01*
X76730714Y-17357380D01*
X76492619Y-16357380D01*
X76159285Y-16452619D02*
X76111666Y-16405000D01*
X76016428Y-16357380D01*
X75778333Y-16357380D01*
X75683095Y-16405000D01*
X75635476Y-16452619D01*
X75587857Y-16547857D01*
X75587857Y-16643095D01*
X75635476Y-16785952D01*
X76206904Y-17357380D01*
X75587857Y-17357380D01*
X74635476Y-17357380D02*
X75206904Y-17357380D01*
X74921190Y-17357380D02*
X74921190Y-16357380D01*
X75016428Y-16500238D01*
X75111666Y-16595476D01*
X75206904Y-16643095D01*
X78254523Y-309761D02*
X78111666Y-357380D01*
X77873571Y-357380D01*
X77778333Y-309761D01*
X77730714Y-262142D01*
X77683095Y-166904D01*
X77683095Y-71666D01*
X77730714Y23571D01*
X77778333Y71190D01*
X77873571Y118809D01*
X78064047Y166428D01*
X78159285Y214047D01*
X78206904Y261666D01*
X78254523Y356904D01*
X78254523Y452142D01*
X78206904Y547380D01*
X78159285Y595000D01*
X78064047Y642619D01*
X77825952Y642619D01*
X77683095Y595000D01*
X77349761Y642619D02*
X77111666Y-357380D01*
X76921190Y356904D01*
X76730714Y-357380D01*
X76492619Y642619D01*
X76159285Y547380D02*
X76111666Y595000D01*
X76016428Y642619D01*
X75778333Y642619D01*
X75683095Y595000D01*
X75635476Y547380D01*
X75587857Y452142D01*
X75587857Y356904D01*
X75635476Y214047D01*
X76206904Y-357380D01*
X75587857Y-357380D01*
X74968809Y642619D02*
X74873571Y642619D01*
X74778333Y595000D01*
X74730714Y547380D01*
X74683095Y452142D01*
X74635476Y261666D01*
X74635476Y23571D01*
X74683095Y-166904D01*
X74730714Y-262142D01*
X74778333Y-309761D01*
X74873571Y-357380D01*
X74968809Y-357380D01*
X75064047Y-309761D01*
X75111666Y-262142D01*
X75159285Y-166904D01*
X75206904Y23571D01*
X75206904Y261666D01*
X75159285Y452142D01*
X75111666Y547380D01*
X75064047Y595000D01*
X74968809Y642619D01*
X60254523Y-62309761D02*
X60111666Y-62357380D01*
X59873571Y-62357380D01*
X59778333Y-62309761D01*
X59730714Y-62262142D01*
X59683095Y-62166904D01*
X59683095Y-62071666D01*
X59730714Y-61976428D01*
X59778333Y-61928809D01*
X59873571Y-61881190D01*
X60064047Y-61833571D01*
X60159285Y-61785952D01*
X60206904Y-61738333D01*
X60254523Y-61643095D01*
X60254523Y-61547857D01*
X60206904Y-61452619D01*
X60159285Y-61405000D01*
X60064047Y-61357380D01*
X59825952Y-61357380D01*
X59683095Y-61405000D01*
X59349761Y-61357380D02*
X59111666Y-62357380D01*
X58921190Y-61643095D01*
X58730714Y-62357380D01*
X58492619Y-61357380D01*
X57587857Y-62357380D02*
X58159285Y-62357380D01*
X57873571Y-62357380D02*
X57873571Y-61357380D01*
X57968809Y-61500238D01*
X58064047Y-61595476D01*
X58159285Y-61643095D01*
X57111666Y-62357380D02*
X56921190Y-62357380D01*
X56825952Y-62309761D01*
X56778333Y-62262142D01*
X56683095Y-62119285D01*
X56635476Y-61928809D01*
X56635476Y-61547857D01*
X56683095Y-61452619D01*
X56730714Y-61405000D01*
X56825952Y-61357380D01*
X57016428Y-61357380D01*
X57111666Y-61405000D01*
X57159285Y-61452619D01*
X57206904Y-61547857D01*
X57206904Y-61785952D01*
X57159285Y-61881190D01*
X57111666Y-61928809D01*
X57016428Y-61976428D01*
X56825952Y-61976428D01*
X56730714Y-61928809D01*
X56683095Y-61881190D01*
X56635476Y-61785952D01*
X60254523Y-45309761D02*
X60111666Y-45357380D01*
X59873571Y-45357380D01*
X59778333Y-45309761D01*
X59730714Y-45262142D01*
X59683095Y-45166904D01*
X59683095Y-45071666D01*
X59730714Y-44976428D01*
X59778333Y-44928809D01*
X59873571Y-44881190D01*
X60064047Y-44833571D01*
X60159285Y-44785952D01*
X60206904Y-44738333D01*
X60254523Y-44643095D01*
X60254523Y-44547857D01*
X60206904Y-44452619D01*
X60159285Y-44405000D01*
X60064047Y-44357380D01*
X59825952Y-44357380D01*
X59683095Y-44405000D01*
X59349761Y-44357380D02*
X59111666Y-45357380D01*
X58921190Y-44643095D01*
X58730714Y-45357380D01*
X58492619Y-44357380D01*
X57587857Y-45357380D02*
X58159285Y-45357380D01*
X57873571Y-45357380D02*
X57873571Y-44357380D01*
X57968809Y-44500238D01*
X58064047Y-44595476D01*
X58159285Y-44643095D01*
X57016428Y-44785952D02*
X57111666Y-44738333D01*
X57159285Y-44690714D01*
X57206904Y-44595476D01*
X57206904Y-44547857D01*
X57159285Y-44452619D01*
X57111666Y-44405000D01*
X57016428Y-44357380D01*
X56825952Y-44357380D01*
X56730714Y-44405000D01*
X56683095Y-44452619D01*
X56635476Y-44547857D01*
X56635476Y-44595476D01*
X56683095Y-44690714D01*
X56730714Y-44738333D01*
X56825952Y-44785952D01*
X57016428Y-44785952D01*
X57111666Y-44833571D01*
X57159285Y-44881190D01*
X57206904Y-44976428D01*
X57206904Y-45166904D01*
X57159285Y-45262142D01*
X57111666Y-45309761D01*
X57016428Y-45357380D01*
X56825952Y-45357380D01*
X56730714Y-45309761D01*
X56683095Y-45262142D01*
X56635476Y-45166904D01*
X56635476Y-44976428D01*
X56683095Y-44881190D01*
X56730714Y-44833571D01*
X56825952Y-44785952D01*
X60254523Y-28309761D02*
X60111666Y-28357380D01*
X59873571Y-28357380D01*
X59778333Y-28309761D01*
X59730714Y-28262142D01*
X59683095Y-28166904D01*
X59683095Y-28071666D01*
X59730714Y-27976428D01*
X59778333Y-27928809D01*
X59873571Y-27881190D01*
X60064047Y-27833571D01*
X60159285Y-27785952D01*
X60206904Y-27738333D01*
X60254523Y-27643095D01*
X60254523Y-27547857D01*
X60206904Y-27452619D01*
X60159285Y-27405000D01*
X60064047Y-27357380D01*
X59825952Y-27357380D01*
X59683095Y-27405000D01*
X59349761Y-27357380D02*
X59111666Y-28357380D01*
X58921190Y-27643095D01*
X58730714Y-28357380D01*
X58492619Y-27357380D01*
X57587857Y-28357380D02*
X58159285Y-28357380D01*
X57873571Y-28357380D02*
X57873571Y-27357380D01*
X57968809Y-27500238D01*
X58064047Y-27595476D01*
X58159285Y-27643095D01*
X57254523Y-27357380D02*
X56587857Y-27357380D01*
X57016428Y-28357380D01*
X60254523Y-11309761D02*
X60111666Y-11357380D01*
X59873571Y-11357380D01*
X59778333Y-11309761D01*
X59730714Y-11262142D01*
X59683095Y-11166904D01*
X59683095Y-11071666D01*
X59730714Y-10976428D01*
X59778333Y-10928809D01*
X59873571Y-10881190D01*
X60064047Y-10833571D01*
X60159285Y-10785952D01*
X60206904Y-10738333D01*
X60254523Y-10643095D01*
X60254523Y-10547857D01*
X60206904Y-10452619D01*
X60159285Y-10405000D01*
X60064047Y-10357380D01*
X59825952Y-10357380D01*
X59683095Y-10405000D01*
X59349761Y-10357380D02*
X59111666Y-11357380D01*
X58921190Y-10643095D01*
X58730714Y-11357380D01*
X58492619Y-10357380D01*
X57587857Y-11357380D02*
X58159285Y-11357380D01*
X57873571Y-11357380D02*
X57873571Y-10357380D01*
X57968809Y-10500238D01*
X58064047Y-10595476D01*
X58159285Y-10643095D01*
X56730714Y-10357380D02*
X56921190Y-10357380D01*
X57016428Y-10405000D01*
X57064047Y-10452619D01*
X57159285Y-10595476D01*
X57206904Y-10785952D01*
X57206904Y-11166904D01*
X57159285Y-11262142D01*
X57111666Y-11309761D01*
X57016428Y-11357380D01*
X56825952Y-11357380D01*
X56730714Y-11309761D01*
X56683095Y-11262142D01*
X56635476Y-11166904D01*
X56635476Y-10928809D01*
X56683095Y-10833571D01*
X56730714Y-10785952D01*
X56825952Y-10738333D01*
X57016428Y-10738333D01*
X57111666Y-10785952D01*
X57159285Y-10833571D01*
X57206904Y-10928809D01*
X60254523Y5690238D02*
X60111666Y5642619D01*
X59873571Y5642619D01*
X59778333Y5690238D01*
X59730714Y5737857D01*
X59683095Y5833095D01*
X59683095Y5928333D01*
X59730714Y6023571D01*
X59778333Y6071190D01*
X59873571Y6118809D01*
X60064047Y6166428D01*
X60159285Y6214047D01*
X60206904Y6261666D01*
X60254523Y6356904D01*
X60254523Y6452142D01*
X60206904Y6547380D01*
X60159285Y6595000D01*
X60064047Y6642619D01*
X59825952Y6642619D01*
X59683095Y6595000D01*
X59349761Y6642619D02*
X59111666Y5642619D01*
X58921190Y6356904D01*
X58730714Y5642619D01*
X58492619Y6642619D01*
X57587857Y5642619D02*
X58159285Y5642619D01*
X57873571Y5642619D02*
X57873571Y6642619D01*
X57968809Y6499761D01*
X58064047Y6404523D01*
X58159285Y6356904D01*
X56683095Y6642619D02*
X57159285Y6642619D01*
X57206904Y6166428D01*
X57159285Y6214047D01*
X57064047Y6261666D01*
X56825952Y6261666D01*
X56730714Y6214047D01*
X56683095Y6166428D01*
X56635476Y6071190D01*
X56635476Y5833095D01*
X56683095Y5737857D01*
X56730714Y5690238D01*
X56825952Y5642619D01*
X57064047Y5642619D01*
X57159285Y5690238D01*
X57206904Y5737857D01*
X42254523Y-67309761D02*
X42111666Y-67357380D01*
X41873571Y-67357380D01*
X41778333Y-67309761D01*
X41730714Y-67262142D01*
X41683095Y-67166904D01*
X41683095Y-67071666D01*
X41730714Y-66976428D01*
X41778333Y-66928809D01*
X41873571Y-66881190D01*
X42064047Y-66833571D01*
X42159285Y-66785952D01*
X42206904Y-66738333D01*
X42254523Y-66643095D01*
X42254523Y-66547857D01*
X42206904Y-66452619D01*
X42159285Y-66405000D01*
X42064047Y-66357380D01*
X41825952Y-66357380D01*
X41683095Y-66405000D01*
X41349761Y-66357380D02*
X41111666Y-67357380D01*
X40921190Y-66643095D01*
X40730714Y-67357380D01*
X40492619Y-66357380D01*
X39587857Y-67357380D02*
X40159285Y-67357380D01*
X39873571Y-67357380D02*
X39873571Y-66357380D01*
X39968809Y-66500238D01*
X40064047Y-66595476D01*
X40159285Y-66643095D01*
X38730714Y-66690714D02*
X38730714Y-67357380D01*
X38968809Y-66309761D02*
X39206904Y-67024047D01*
X38587857Y-67024047D01*
X42254523Y-50309761D02*
X42111666Y-50357380D01*
X41873571Y-50357380D01*
X41778333Y-50309761D01*
X41730714Y-50262142D01*
X41683095Y-50166904D01*
X41683095Y-50071666D01*
X41730714Y-49976428D01*
X41778333Y-49928809D01*
X41873571Y-49881190D01*
X42064047Y-49833571D01*
X42159285Y-49785952D01*
X42206904Y-49738333D01*
X42254523Y-49643095D01*
X42254523Y-49547857D01*
X42206904Y-49452619D01*
X42159285Y-49405000D01*
X42064047Y-49357380D01*
X41825952Y-49357380D01*
X41683095Y-49405000D01*
X41349761Y-49357380D02*
X41111666Y-50357380D01*
X40921190Y-49643095D01*
X40730714Y-50357380D01*
X40492619Y-49357380D01*
X39587857Y-50357380D02*
X40159285Y-50357380D01*
X39873571Y-50357380D02*
X39873571Y-49357380D01*
X39968809Y-49500238D01*
X40064047Y-49595476D01*
X40159285Y-49643095D01*
X39254523Y-49357380D02*
X38635476Y-49357380D01*
X38968809Y-49738333D01*
X38825952Y-49738333D01*
X38730714Y-49785952D01*
X38683095Y-49833571D01*
X38635476Y-49928809D01*
X38635476Y-50166904D01*
X38683095Y-50262142D01*
X38730714Y-50309761D01*
X38825952Y-50357380D01*
X39111666Y-50357380D01*
X39206904Y-50309761D01*
X39254523Y-50262142D01*
X42254523Y-33309761D02*
X42111666Y-33357380D01*
X41873571Y-33357380D01*
X41778333Y-33309761D01*
X41730714Y-33262142D01*
X41683095Y-33166904D01*
X41683095Y-33071666D01*
X41730714Y-32976428D01*
X41778333Y-32928809D01*
X41873571Y-32881190D01*
X42064047Y-32833571D01*
X42159285Y-32785952D01*
X42206904Y-32738333D01*
X42254523Y-32643095D01*
X42254523Y-32547857D01*
X42206904Y-32452619D01*
X42159285Y-32405000D01*
X42064047Y-32357380D01*
X41825952Y-32357380D01*
X41683095Y-32405000D01*
X41349761Y-32357380D02*
X41111666Y-33357380D01*
X40921190Y-32643095D01*
X40730714Y-33357380D01*
X40492619Y-32357380D01*
X39587857Y-33357380D02*
X40159285Y-33357380D01*
X39873571Y-33357380D02*
X39873571Y-32357380D01*
X39968809Y-32500238D01*
X40064047Y-32595476D01*
X40159285Y-32643095D01*
X39206904Y-32452619D02*
X39159285Y-32405000D01*
X39064047Y-32357380D01*
X38825952Y-32357380D01*
X38730714Y-32405000D01*
X38683095Y-32452619D01*
X38635476Y-32547857D01*
X38635476Y-32643095D01*
X38683095Y-32785952D01*
X39254523Y-33357380D01*
X38635476Y-33357380D01*
X42254523Y-16309761D02*
X42111666Y-16357380D01*
X41873571Y-16357380D01*
X41778333Y-16309761D01*
X41730714Y-16262142D01*
X41683095Y-16166904D01*
X41683095Y-16071666D01*
X41730714Y-15976428D01*
X41778333Y-15928809D01*
X41873571Y-15881190D01*
X42064047Y-15833571D01*
X42159285Y-15785952D01*
X42206904Y-15738333D01*
X42254523Y-15643095D01*
X42254523Y-15547857D01*
X42206904Y-15452619D01*
X42159285Y-15405000D01*
X42064047Y-15357380D01*
X41825952Y-15357380D01*
X41683095Y-15405000D01*
X41349761Y-15357380D02*
X41111666Y-16357380D01*
X40921190Y-15643095D01*
X40730714Y-16357380D01*
X40492619Y-15357380D01*
X39587857Y-16357380D02*
X40159285Y-16357380D01*
X39873571Y-16357380D02*
X39873571Y-15357380D01*
X39968809Y-15500238D01*
X40064047Y-15595476D01*
X40159285Y-15643095D01*
X38635476Y-16357380D02*
X39206904Y-16357380D01*
X38921190Y-16357380D02*
X38921190Y-15357380D01*
X39016428Y-15500238D01*
X39111666Y-15595476D01*
X39206904Y-15643095D01*
X42254523Y690238D02*
X42111666Y642619D01*
X41873571Y642619D01*
X41778333Y690238D01*
X41730714Y737857D01*
X41683095Y833095D01*
X41683095Y928333D01*
X41730714Y1023571D01*
X41778333Y1071190D01*
X41873571Y1118809D01*
X42064047Y1166428D01*
X42159285Y1214047D01*
X42206904Y1261666D01*
X42254523Y1356904D01*
X42254523Y1452142D01*
X42206904Y1547380D01*
X42159285Y1595000D01*
X42064047Y1642619D01*
X41825952Y1642619D01*
X41683095Y1595000D01*
X41349761Y1642619D02*
X41111666Y642619D01*
X40921190Y1356904D01*
X40730714Y642619D01*
X40492619Y1642619D01*
X39587857Y642619D02*
X40159285Y642619D01*
X39873571Y642619D02*
X39873571Y1642619D01*
X39968809Y1499761D01*
X40064047Y1404523D01*
X40159285Y1356904D01*
X38968809Y1642619D02*
X38873571Y1642619D01*
X38778333Y1595000D01*
X38730714Y1547380D01*
X38683095Y1452142D01*
X38635476Y1261666D01*
X38635476Y1023571D01*
X38683095Y833095D01*
X38730714Y737857D01*
X38778333Y690238D01*
X38873571Y642619D01*
X38968809Y642619D01*
X39064047Y690238D01*
X39111666Y737857D01*
X39159285Y833095D01*
X39206904Y1023571D01*
X39206904Y1261666D01*
X39159285Y1452142D01*
X39111666Y1547380D01*
X39064047Y1595000D01*
X38968809Y1642619D01*
X23778333Y-70309761D02*
X23635476Y-70357380D01*
X23397380Y-70357380D01*
X23302142Y-70309761D01*
X23254523Y-70262142D01*
X23206904Y-70166904D01*
X23206904Y-70071666D01*
X23254523Y-69976428D01*
X23302142Y-69928809D01*
X23397380Y-69881190D01*
X23587857Y-69833571D01*
X23683095Y-69785952D01*
X23730714Y-69738333D01*
X23778333Y-69643095D01*
X23778333Y-69547857D01*
X23730714Y-69452619D01*
X23683095Y-69405000D01*
X23587857Y-69357380D01*
X23349761Y-69357380D01*
X23206904Y-69405000D01*
X22873571Y-69357380D02*
X22635476Y-70357380D01*
X22445000Y-69643095D01*
X22254523Y-70357380D01*
X22016428Y-69357380D01*
X21587857Y-70357380D02*
X21397380Y-70357380D01*
X21302142Y-70309761D01*
X21254523Y-70262142D01*
X21159285Y-70119285D01*
X21111666Y-69928809D01*
X21111666Y-69547857D01*
X21159285Y-69452619D01*
X21206904Y-69405000D01*
X21302142Y-69357380D01*
X21492619Y-69357380D01*
X21587857Y-69405000D01*
X21635476Y-69452619D01*
X21683095Y-69547857D01*
X21683095Y-69785952D01*
X21635476Y-69881190D01*
X21587857Y-69928809D01*
X21492619Y-69976428D01*
X21302142Y-69976428D01*
X21206904Y-69928809D01*
X21159285Y-69881190D01*
X21111666Y-69785952D01*
X23778333Y-53309761D02*
X23635476Y-53357380D01*
X23397380Y-53357380D01*
X23302142Y-53309761D01*
X23254523Y-53262142D01*
X23206904Y-53166904D01*
X23206904Y-53071666D01*
X23254523Y-52976428D01*
X23302142Y-52928809D01*
X23397380Y-52881190D01*
X23587857Y-52833571D01*
X23683095Y-52785952D01*
X23730714Y-52738333D01*
X23778333Y-52643095D01*
X23778333Y-52547857D01*
X23730714Y-52452619D01*
X23683095Y-52405000D01*
X23587857Y-52357380D01*
X23349761Y-52357380D01*
X23206904Y-52405000D01*
X22873571Y-52357380D02*
X22635476Y-53357380D01*
X22445000Y-52643095D01*
X22254523Y-53357380D01*
X22016428Y-52357380D01*
X21492619Y-52785952D02*
X21587857Y-52738333D01*
X21635476Y-52690714D01*
X21683095Y-52595476D01*
X21683095Y-52547857D01*
X21635476Y-52452619D01*
X21587857Y-52405000D01*
X21492619Y-52357380D01*
X21302142Y-52357380D01*
X21206904Y-52405000D01*
X21159285Y-52452619D01*
X21111666Y-52547857D01*
X21111666Y-52595476D01*
X21159285Y-52690714D01*
X21206904Y-52738333D01*
X21302142Y-52785952D01*
X21492619Y-52785952D01*
X21587857Y-52833571D01*
X21635476Y-52881190D01*
X21683095Y-52976428D01*
X21683095Y-53166904D01*
X21635476Y-53262142D01*
X21587857Y-53309761D01*
X21492619Y-53357380D01*
X21302142Y-53357380D01*
X21206904Y-53309761D01*
X21159285Y-53262142D01*
X21111666Y-53166904D01*
X21111666Y-52976428D01*
X21159285Y-52881190D01*
X21206904Y-52833571D01*
X21302142Y-52785952D01*
X23778333Y-36309761D02*
X23635476Y-36357380D01*
X23397380Y-36357380D01*
X23302142Y-36309761D01*
X23254523Y-36262142D01*
X23206904Y-36166904D01*
X23206904Y-36071666D01*
X23254523Y-35976428D01*
X23302142Y-35928809D01*
X23397380Y-35881190D01*
X23587857Y-35833571D01*
X23683095Y-35785952D01*
X23730714Y-35738333D01*
X23778333Y-35643095D01*
X23778333Y-35547857D01*
X23730714Y-35452619D01*
X23683095Y-35405000D01*
X23587857Y-35357380D01*
X23349761Y-35357380D01*
X23206904Y-35405000D01*
X22873571Y-35357380D02*
X22635476Y-36357380D01*
X22445000Y-35643095D01*
X22254523Y-36357380D01*
X22016428Y-35357380D01*
X21730714Y-35357380D02*
X21064047Y-35357380D01*
X21492619Y-36357380D01*
X23778333Y-19309761D02*
X23635476Y-19357380D01*
X23397380Y-19357380D01*
X23302142Y-19309761D01*
X23254523Y-19262142D01*
X23206904Y-19166904D01*
X23206904Y-19071666D01*
X23254523Y-18976428D01*
X23302142Y-18928809D01*
X23397380Y-18881190D01*
X23587857Y-18833571D01*
X23683095Y-18785952D01*
X23730714Y-18738333D01*
X23778333Y-18643095D01*
X23778333Y-18547857D01*
X23730714Y-18452619D01*
X23683095Y-18405000D01*
X23587857Y-18357380D01*
X23349761Y-18357380D01*
X23206904Y-18405000D01*
X22873571Y-18357380D02*
X22635476Y-19357380D01*
X22445000Y-18643095D01*
X22254523Y-19357380D01*
X22016428Y-18357380D01*
X21206904Y-18357380D02*
X21397380Y-18357380D01*
X21492619Y-18405000D01*
X21540238Y-18452619D01*
X21635476Y-18595476D01*
X21683095Y-18785952D01*
X21683095Y-19166904D01*
X21635476Y-19262142D01*
X21587857Y-19309761D01*
X21492619Y-19357380D01*
X21302142Y-19357380D01*
X21206904Y-19309761D01*
X21159285Y-19262142D01*
X21111666Y-19166904D01*
X21111666Y-18928809D01*
X21159285Y-18833571D01*
X21206904Y-18785952D01*
X21302142Y-18738333D01*
X21492619Y-18738333D01*
X21587857Y-18785952D01*
X21635476Y-18833571D01*
X21683095Y-18928809D01*
X23778333Y-2309761D02*
X23635476Y-2357380D01*
X23397380Y-2357380D01*
X23302142Y-2309761D01*
X23254523Y-2262142D01*
X23206904Y-2166904D01*
X23206904Y-2071666D01*
X23254523Y-1976428D01*
X23302142Y-1928809D01*
X23397380Y-1881190D01*
X23587857Y-1833571D01*
X23683095Y-1785952D01*
X23730714Y-1738333D01*
X23778333Y-1643095D01*
X23778333Y-1547857D01*
X23730714Y-1452619D01*
X23683095Y-1405000D01*
X23587857Y-1357380D01*
X23349761Y-1357380D01*
X23206904Y-1405000D01*
X22873571Y-1357380D02*
X22635476Y-2357380D01*
X22445000Y-1643095D01*
X22254523Y-2357380D01*
X22016428Y-1357380D01*
X21159285Y-1357380D02*
X21635476Y-1357380D01*
X21683095Y-1833571D01*
X21635476Y-1785952D01*
X21540238Y-1738333D01*
X21302142Y-1738333D01*
X21206904Y-1785952D01*
X21159285Y-1833571D01*
X21111666Y-1928809D01*
X21111666Y-2166904D01*
X21159285Y-2262142D01*
X21206904Y-2309761D01*
X21302142Y-2357380D01*
X21540238Y-2357380D01*
X21635476Y-2309761D01*
X21683095Y-2262142D01*
X5778333Y-70309761D02*
X5635476Y-70357380D01*
X5397380Y-70357380D01*
X5302142Y-70309761D01*
X5254523Y-70262142D01*
X5206904Y-70166904D01*
X5206904Y-70071666D01*
X5254523Y-69976428D01*
X5302142Y-69928809D01*
X5397380Y-69881190D01*
X5587857Y-69833571D01*
X5683095Y-69785952D01*
X5730714Y-69738333D01*
X5778333Y-69643095D01*
X5778333Y-69547857D01*
X5730714Y-69452619D01*
X5683095Y-69405000D01*
X5587857Y-69357380D01*
X5349761Y-69357380D01*
X5206904Y-69405000D01*
X4873571Y-69357380D02*
X4635476Y-70357380D01*
X4445000Y-69643095D01*
X4254523Y-70357380D01*
X4016428Y-69357380D01*
X3206904Y-69690714D02*
X3206904Y-70357380D01*
X3445000Y-69309761D02*
X3683095Y-70024047D01*
X3064047Y-70024047D01*
X5778333Y-53309761D02*
X5635476Y-53357380D01*
X5397380Y-53357380D01*
X5302142Y-53309761D01*
X5254523Y-53262142D01*
X5206904Y-53166904D01*
X5206904Y-53071666D01*
X5254523Y-52976428D01*
X5302142Y-52928809D01*
X5397380Y-52881190D01*
X5587857Y-52833571D01*
X5683095Y-52785952D01*
X5730714Y-52738333D01*
X5778333Y-52643095D01*
X5778333Y-52547857D01*
X5730714Y-52452619D01*
X5683095Y-52405000D01*
X5587857Y-52357380D01*
X5349761Y-52357380D01*
X5206904Y-52405000D01*
X4873571Y-52357380D02*
X4635476Y-53357380D01*
X4445000Y-52643095D01*
X4254523Y-53357380D01*
X4016428Y-52357380D01*
X3730714Y-52357380D02*
X3111666Y-52357380D01*
X3445000Y-52738333D01*
X3302142Y-52738333D01*
X3206904Y-52785952D01*
X3159285Y-52833571D01*
X3111666Y-52928809D01*
X3111666Y-53166904D01*
X3159285Y-53262142D01*
X3206904Y-53309761D01*
X3302142Y-53357380D01*
X3587857Y-53357380D01*
X3683095Y-53309761D01*
X3730714Y-53262142D01*
X5778333Y-36309761D02*
X5635476Y-36357380D01*
X5397380Y-36357380D01*
X5302142Y-36309761D01*
X5254523Y-36262142D01*
X5206904Y-36166904D01*
X5206904Y-36071666D01*
X5254523Y-35976428D01*
X5302142Y-35928809D01*
X5397380Y-35881190D01*
X5587857Y-35833571D01*
X5683095Y-35785952D01*
X5730714Y-35738333D01*
X5778333Y-35643095D01*
X5778333Y-35547857D01*
X5730714Y-35452619D01*
X5683095Y-35405000D01*
X5587857Y-35357380D01*
X5349761Y-35357380D01*
X5206904Y-35405000D01*
X4873571Y-35357380D02*
X4635476Y-36357380D01*
X4445000Y-35643095D01*
X4254523Y-36357380D01*
X4016428Y-35357380D01*
X3683095Y-35452619D02*
X3635476Y-35405000D01*
X3540238Y-35357380D01*
X3302142Y-35357380D01*
X3206904Y-35405000D01*
X3159285Y-35452619D01*
X3111666Y-35547857D01*
X3111666Y-35643095D01*
X3159285Y-35785952D01*
X3730714Y-36357380D01*
X3111666Y-36357380D01*
X5778333Y-19309761D02*
X5635476Y-19357380D01*
X5397380Y-19357380D01*
X5302142Y-19309761D01*
X5254523Y-19262142D01*
X5206904Y-19166904D01*
X5206904Y-19071666D01*
X5254523Y-18976428D01*
X5302142Y-18928809D01*
X5397380Y-18881190D01*
X5587857Y-18833571D01*
X5683095Y-18785952D01*
X5730714Y-18738333D01*
X5778333Y-18643095D01*
X5778333Y-18547857D01*
X5730714Y-18452619D01*
X5683095Y-18405000D01*
X5587857Y-18357380D01*
X5349761Y-18357380D01*
X5206904Y-18405000D01*
X4873571Y-18357380D02*
X4635476Y-19357380D01*
X4445000Y-18643095D01*
X4254523Y-19357380D01*
X4016428Y-18357380D01*
X3111666Y-19357380D02*
X3683095Y-19357380D01*
X3397380Y-19357380D02*
X3397380Y-18357380D01*
X3492619Y-18500238D01*
X3587857Y-18595476D01*
X3683095Y-18643095D01*
X5778333Y-2309761D02*
X5635476Y-2357380D01*
X5397380Y-2357380D01*
X5302142Y-2309761D01*
X5254523Y-2262142D01*
X5206904Y-2166904D01*
X5206904Y-2071666D01*
X5254523Y-1976428D01*
X5302142Y-1928809D01*
X5397380Y-1881190D01*
X5587857Y-1833571D01*
X5683095Y-1785952D01*
X5730714Y-1738333D01*
X5778333Y-1643095D01*
X5778333Y-1547857D01*
X5730714Y-1452619D01*
X5683095Y-1405000D01*
X5587857Y-1357380D01*
X5349761Y-1357380D01*
X5206904Y-1405000D01*
X4873571Y-1357380D02*
X4635476Y-2357380D01*
X4445000Y-1643095D01*
X4254523Y-2357380D01*
X4016428Y-1357380D01*
X3445000Y-1357380D02*
X3349761Y-1357380D01*
X3254523Y-1405000D01*
X3206904Y-1452619D01*
X3159285Y-1547857D01*
X3111666Y-1738333D01*
X3111666Y-1976428D01*
X3159285Y-2166904D01*
X3206904Y-2262142D01*
X3254523Y-2309761D01*
X3349761Y-2357380D01*
X3445000Y-2357380D01*
X3540238Y-2309761D01*
X3587857Y-2262142D01*
X3635476Y-2166904D01*
X3683095Y-1976428D01*
X3683095Y-1738333D01*
X3635476Y-1547857D01*
X3587857Y-1452619D01*
X3540238Y-1405000D01*
X3445000Y-1357380D01*
M02*
