G04 #@! TF.GenerationSoftware,KiCad,Pcbnew,(5.1.4)-1*
G04 #@! TF.CreationDate,2020-06-07T15:02:50-04:00*
G04 #@! TF.ProjectId,splitreus,73706c69-7472-4657-9573-2e6b69636164,1*
G04 #@! TF.SameCoordinates,Original*
G04 #@! TF.FileFunction,Legend,Bot*
G04 #@! TF.FilePolarity,Positive*
%FSLAX46Y46*%
G04 Gerber Fmt 4.6, Leading zero omitted, Abs format (unit mm)*
G04 Created by KiCad (PCBNEW (5.1.4)-1) date 2020-06-07 15:02:50*
%MOMM*%
%LPD*%
G04 APERTURE LIST*
%ADD10C,0.200000*%
%ADD11C,0.400000*%
%ADD12C,0.150000*%
G04 APERTURE END LIST*
D10*
X10702380Y-43928571D02*
X10035714Y-43928571D01*
X10226190Y-43928571D02*
X10130952Y-43976190D01*
X10083333Y-44023809D01*
X10035714Y-44119047D01*
X10035714Y-44214285D01*
X10654761Y-44928571D02*
X10702380Y-44833333D01*
X10702380Y-44642857D01*
X10654761Y-44547619D01*
X10559523Y-44500000D01*
X10178571Y-44500000D01*
X10083333Y-44547619D01*
X10035714Y-44642857D01*
X10035714Y-44833333D01*
X10083333Y-44928571D01*
X10178571Y-44976190D01*
X10273809Y-44976190D01*
X10369047Y-44500000D01*
X10035714Y-45309523D02*
X10702380Y-45547619D01*
X10035714Y-45785714D01*
X10702380Y-46690476D02*
X10702380Y-46119047D01*
X10702380Y-46404761D02*
X9702380Y-46404761D01*
X9845238Y-46309523D01*
X9940476Y-46214285D01*
X9988095Y-46119047D01*
X10607142Y-47119047D02*
X10654761Y-47166666D01*
X10702380Y-47119047D01*
X10654761Y-47071428D01*
X10607142Y-47119047D01*
X10702380Y-47119047D01*
X9702380Y-47785714D02*
X9702380Y-47880952D01*
X9750000Y-47976190D01*
X9797619Y-48023809D01*
X9892857Y-48071428D01*
X10083333Y-48119047D01*
X10321428Y-48119047D01*
X10511904Y-48071428D01*
X10607142Y-48023809D01*
X10654761Y-47976190D01*
X10702380Y-47880952D01*
X10702380Y-47785714D01*
X10654761Y-47690476D01*
X10607142Y-47642857D01*
X10511904Y-47595238D01*
X10321428Y-47547619D01*
X10083333Y-47547619D01*
X9892857Y-47595238D01*
X9797619Y-47642857D01*
X9750000Y-47690476D01*
X9702380Y-47785714D01*
D11*
X10714285Y-18000000D02*
X10857142Y-18285714D01*
X10857142Y-18857142D01*
X10714285Y-19142857D01*
X10428571Y-19285714D01*
X10285714Y-19285714D01*
X10000000Y-19142857D01*
X9857142Y-18857142D01*
X9857142Y-18428571D01*
X9714285Y-18142857D01*
X9428571Y-18000000D01*
X9285714Y-18000000D01*
X9000000Y-18142857D01*
X8857142Y-18428571D01*
X8857142Y-18857142D01*
X9000000Y-19142857D01*
X8857142Y-20571428D02*
X11857142Y-20571428D01*
X9000000Y-20571428D02*
X8857142Y-20857142D01*
X8857142Y-21428571D01*
X9000000Y-21714285D01*
X9142857Y-21857142D01*
X9428571Y-22000000D01*
X10285714Y-22000000D01*
X10571428Y-21857142D01*
X10714285Y-21714285D01*
X10857142Y-21428571D01*
X10857142Y-20857142D01*
X10714285Y-20571428D01*
X10857142Y-23714285D02*
X10714285Y-23428571D01*
X10428571Y-23285714D01*
X7857142Y-23285714D01*
X10857142Y-24857142D02*
X8857142Y-24857142D01*
X7857142Y-24857142D02*
X8000000Y-24714285D01*
X8142857Y-24857142D01*
X8000000Y-25000000D01*
X7857142Y-24857142D01*
X8142857Y-24857142D01*
X8857142Y-25857142D02*
X8857142Y-27000000D01*
X7857142Y-26285714D02*
X10428571Y-26285714D01*
X10714285Y-26428571D01*
X10857142Y-26714285D01*
X10857142Y-27000000D01*
X10857142Y-28000000D02*
X8857142Y-28000000D01*
X9428571Y-28000000D02*
X9142857Y-28142857D01*
X9000000Y-28285714D01*
X8857142Y-28571428D01*
X8857142Y-28857142D01*
X10714285Y-31000000D02*
X10857142Y-30714285D01*
X10857142Y-30142857D01*
X10714285Y-29857142D01*
X10428571Y-29714285D01*
X9285714Y-29714285D01*
X9000000Y-29857142D01*
X8857142Y-30142857D01*
X8857142Y-30714285D01*
X9000000Y-31000000D01*
X9285714Y-31142857D01*
X9571428Y-31142857D01*
X9857142Y-29714285D01*
X8857142Y-33714285D02*
X10857142Y-33714285D01*
X8857142Y-32428571D02*
X10428571Y-32428571D01*
X10714285Y-32571428D01*
X10857142Y-32857142D01*
X10857142Y-33285714D01*
X10714285Y-33571428D01*
X10571428Y-33714285D01*
X10714285Y-35000000D02*
X10857142Y-35285714D01*
X10857142Y-35857142D01*
X10714285Y-36142857D01*
X10428571Y-36285714D01*
X10285714Y-36285714D01*
X10000000Y-36142857D01*
X9857142Y-35857142D01*
X9857142Y-35428571D01*
X9714285Y-35142857D01*
X9428571Y-35000000D01*
X9285714Y-35000000D01*
X9000000Y-35142857D01*
X8857142Y-35428571D01*
X8857142Y-35857142D01*
X9000000Y-36142857D01*
X7857142Y-38857142D02*
X7857142Y-38285714D01*
X8000000Y-38000000D01*
X8142857Y-37857142D01*
X8571428Y-37571428D01*
X9142857Y-37428571D01*
X10285714Y-37428571D01*
X10571428Y-37571428D01*
X10714285Y-37714285D01*
X10857142Y-38000000D01*
X10857142Y-38571428D01*
X10714285Y-38857142D01*
X10571428Y-39000000D01*
X10285714Y-39142857D01*
X9571428Y-39142857D01*
X9285714Y-39000000D01*
X9142857Y-38857142D01*
X9000000Y-38571428D01*
X9000000Y-38000000D01*
X9142857Y-37714285D01*
X9285714Y-37571428D01*
X9571428Y-37428571D01*
X8142857Y-40285714D02*
X7999999Y-40428571D01*
X7857142Y-40714285D01*
X7857142Y-41428571D01*
X7999999Y-41714285D01*
X8142857Y-41857142D01*
X8428571Y-42000000D01*
X8714285Y-42000000D01*
X9142857Y-41857142D01*
X10857142Y-40142857D01*
X10857142Y-42000000D01*
D12*
X92460000Y-51262000D02*
X97540000Y-51262000D01*
X97540000Y-51262000D02*
X97540000Y-49738000D01*
X97540000Y-49738000D02*
X92460000Y-49738000D01*
X92460000Y-49738000D02*
X92460000Y-51262000D01*
X97159000Y-51262000D02*
X97159000Y-49738000D01*
X97286000Y-49738000D02*
X97286000Y-51262000D01*
X97413000Y-51262000D02*
X97413000Y-49738000D01*
X97032000Y-49738000D02*
X97032000Y-51262000D01*
X96905000Y-51262000D02*
X96905000Y-49738000D01*
X96778000Y-51262000D02*
X96778000Y-49738000D01*
X105262000Y-67540000D02*
X105262000Y-62460000D01*
X105262000Y-62460000D02*
X103738000Y-62460000D01*
X103738000Y-62460000D02*
X103738000Y-67540000D01*
X103738000Y-67540000D02*
X105262000Y-67540000D01*
X105262000Y-62841000D02*
X103738000Y-62841000D01*
X103738000Y-62714000D02*
X105262000Y-62714000D01*
X105262000Y-62587000D02*
X103738000Y-62587000D01*
X103738000Y-62968000D02*
X105262000Y-62968000D01*
X105262000Y-63095000D02*
X103738000Y-63095000D01*
X105262000Y-63222000D02*
X103738000Y-63222000D01*
X105262000Y-79540000D02*
X105262000Y-74460000D01*
X105262000Y-74460000D02*
X103738000Y-74460000D01*
X103738000Y-74460000D02*
X103738000Y-79540000D01*
X103738000Y-79540000D02*
X105262000Y-79540000D01*
X105262000Y-74841000D02*
X103738000Y-74841000D01*
X103738000Y-74714000D02*
X105262000Y-74714000D01*
X105262000Y-74587000D02*
X103738000Y-74587000D01*
X103738000Y-74968000D02*
X105262000Y-74968000D01*
X105262000Y-75095000D02*
X103738000Y-75095000D01*
X105262000Y-75222000D02*
X103738000Y-75222000D01*
X92460000Y-70262000D02*
X97540000Y-70262000D01*
X97540000Y-70262000D02*
X97540000Y-68738000D01*
X97540000Y-68738000D02*
X92460000Y-68738000D01*
X92460000Y-68738000D02*
X92460000Y-70262000D01*
X97159000Y-70262000D02*
X97159000Y-68738000D01*
X97286000Y-68738000D02*
X97286000Y-70262000D01*
X97413000Y-70262000D02*
X97413000Y-68738000D01*
X97032000Y-68738000D02*
X97032000Y-70262000D01*
X96905000Y-70262000D02*
X96905000Y-68738000D01*
X96778000Y-70262000D02*
X96778000Y-68738000D01*
X92460000Y-32262000D02*
X97540000Y-32262000D01*
X97540000Y-32262000D02*
X97540000Y-30738000D01*
X97540000Y-30738000D02*
X92460000Y-30738000D01*
X92460000Y-30738000D02*
X92460000Y-32262000D01*
X97159000Y-32262000D02*
X97159000Y-30738000D01*
X97286000Y-30738000D02*
X97286000Y-32262000D01*
X97413000Y-32262000D02*
X97413000Y-30738000D01*
X97032000Y-30738000D02*
X97032000Y-32262000D01*
X96905000Y-32262000D02*
X96905000Y-30738000D01*
X96778000Y-32262000D02*
X96778000Y-30738000D01*
X92460000Y-13262000D02*
X97540000Y-13262000D01*
X97540000Y-13262000D02*
X97540000Y-11738000D01*
X97540000Y-11738000D02*
X92460000Y-11738000D01*
X92460000Y-11738000D02*
X92460000Y-13262000D01*
X97159000Y-13262000D02*
X97159000Y-11738000D01*
X97286000Y-11738000D02*
X97286000Y-13262000D01*
X97413000Y-13262000D02*
X97413000Y-11738000D01*
X97032000Y-11738000D02*
X97032000Y-13262000D01*
X96905000Y-13262000D02*
X96905000Y-11738000D01*
X96778000Y-13262000D02*
X96778000Y-11738000D01*
X86262000Y-76540000D02*
X86262000Y-71460000D01*
X86262000Y-71460000D02*
X84738000Y-71460000D01*
X84738000Y-71460000D02*
X84738000Y-76540000D01*
X84738000Y-76540000D02*
X86262000Y-76540000D01*
X86262000Y-71841000D02*
X84738000Y-71841000D01*
X84738000Y-71714000D02*
X86262000Y-71714000D01*
X86262000Y-71587000D02*
X84738000Y-71587000D01*
X84738000Y-71968000D02*
X86262000Y-71968000D01*
X86262000Y-72095000D02*
X84738000Y-72095000D01*
X86262000Y-72222000D02*
X84738000Y-72222000D01*
X73460000Y-65262000D02*
X78540000Y-65262000D01*
X78540000Y-65262000D02*
X78540000Y-63738000D01*
X78540000Y-63738000D02*
X73460000Y-63738000D01*
X73460000Y-63738000D02*
X73460000Y-65262000D01*
X78159000Y-65262000D02*
X78159000Y-63738000D01*
X78286000Y-63738000D02*
X78286000Y-65262000D01*
X78413000Y-65262000D02*
X78413000Y-63738000D01*
X78032000Y-63738000D02*
X78032000Y-65262000D01*
X77905000Y-65262000D02*
X77905000Y-63738000D01*
X77778000Y-65262000D02*
X77778000Y-63738000D01*
X73460000Y-46262000D02*
X78540000Y-46262000D01*
X78540000Y-46262000D02*
X78540000Y-44738000D01*
X78540000Y-44738000D02*
X73460000Y-44738000D01*
X73460000Y-44738000D02*
X73460000Y-46262000D01*
X78159000Y-46262000D02*
X78159000Y-44738000D01*
X78286000Y-44738000D02*
X78286000Y-46262000D01*
X78413000Y-46262000D02*
X78413000Y-44738000D01*
X78032000Y-44738000D02*
X78032000Y-46262000D01*
X77905000Y-46262000D02*
X77905000Y-44738000D01*
X77778000Y-46262000D02*
X77778000Y-44738000D01*
X73460000Y-27262000D02*
X78540000Y-27262000D01*
X78540000Y-27262000D02*
X78540000Y-25738000D01*
X78540000Y-25738000D02*
X73460000Y-25738000D01*
X73460000Y-25738000D02*
X73460000Y-27262000D01*
X78159000Y-27262000D02*
X78159000Y-25738000D01*
X78286000Y-25738000D02*
X78286000Y-27262000D01*
X78413000Y-27262000D02*
X78413000Y-25738000D01*
X78032000Y-25738000D02*
X78032000Y-27262000D01*
X77905000Y-27262000D02*
X77905000Y-25738000D01*
X77778000Y-27262000D02*
X77778000Y-25738000D01*
X73460000Y-8262000D02*
X78540000Y-8262000D01*
X78540000Y-8262000D02*
X78540000Y-6738000D01*
X78540000Y-6738000D02*
X73460000Y-6738000D01*
X73460000Y-6738000D02*
X73460000Y-8262000D01*
X78159000Y-8262000D02*
X78159000Y-6738000D01*
X78286000Y-6738000D02*
X78286000Y-8262000D01*
X78413000Y-8262000D02*
X78413000Y-6738000D01*
X78032000Y-6738000D02*
X78032000Y-8262000D01*
X77905000Y-8262000D02*
X77905000Y-6738000D01*
X77778000Y-8262000D02*
X77778000Y-6738000D01*
X67262000Y-70540000D02*
X67262000Y-65460000D01*
X67262000Y-65460000D02*
X65738000Y-65460000D01*
X65738000Y-65460000D02*
X65738000Y-70540000D01*
X65738000Y-70540000D02*
X67262000Y-70540000D01*
X67262000Y-65841000D02*
X65738000Y-65841000D01*
X65738000Y-65714000D02*
X67262000Y-65714000D01*
X67262000Y-65587000D02*
X65738000Y-65587000D01*
X65738000Y-65968000D02*
X67262000Y-65968000D01*
X67262000Y-66095000D02*
X65738000Y-66095000D01*
X67262000Y-66222000D02*
X65738000Y-66222000D01*
X54460000Y-59262000D02*
X59540000Y-59262000D01*
X59540000Y-59262000D02*
X59540000Y-57738000D01*
X59540000Y-57738000D02*
X54460000Y-57738000D01*
X54460000Y-57738000D02*
X54460000Y-59262000D01*
X59159000Y-59262000D02*
X59159000Y-57738000D01*
X59286000Y-57738000D02*
X59286000Y-59262000D01*
X59413000Y-59262000D02*
X59413000Y-57738000D01*
X59032000Y-57738000D02*
X59032000Y-59262000D01*
X58905000Y-59262000D02*
X58905000Y-57738000D01*
X58778000Y-59262000D02*
X58778000Y-57738000D01*
X54460000Y-40262000D02*
X59540000Y-40262000D01*
X59540000Y-40262000D02*
X59540000Y-38738000D01*
X59540000Y-38738000D02*
X54460000Y-38738000D01*
X54460000Y-38738000D02*
X54460000Y-40262000D01*
X59159000Y-40262000D02*
X59159000Y-38738000D01*
X59286000Y-38738000D02*
X59286000Y-40262000D01*
X59413000Y-40262000D02*
X59413000Y-38738000D01*
X59032000Y-38738000D02*
X59032000Y-40262000D01*
X58905000Y-40262000D02*
X58905000Y-38738000D01*
X58778000Y-40262000D02*
X58778000Y-38738000D01*
X54460000Y-2262000D02*
X59540000Y-2262000D01*
X59540000Y-2262000D02*
X59540000Y-738000D01*
X59540000Y-738000D02*
X54460000Y-738000D01*
X54460000Y-738000D02*
X54460000Y-2262000D01*
X59159000Y-2262000D02*
X59159000Y-738000D01*
X59286000Y-738000D02*
X59286000Y-2262000D01*
X59413000Y-2262000D02*
X59413000Y-738000D01*
X59032000Y-738000D02*
X59032000Y-2262000D01*
X58905000Y-2262000D02*
X58905000Y-738000D01*
X58778000Y-2262000D02*
X58778000Y-738000D01*
X48262000Y-74540000D02*
X48262000Y-69460000D01*
X48262000Y-69460000D02*
X46738000Y-69460000D01*
X46738000Y-69460000D02*
X46738000Y-74540000D01*
X46738000Y-74540000D02*
X48262000Y-74540000D01*
X48262000Y-69841000D02*
X46738000Y-69841000D01*
X46738000Y-69714000D02*
X48262000Y-69714000D01*
X48262000Y-69587000D02*
X46738000Y-69587000D01*
X46738000Y-69968000D02*
X48262000Y-69968000D01*
X48262000Y-70095000D02*
X46738000Y-70095000D01*
X48262000Y-70222000D02*
X46738000Y-70222000D01*
X35460000Y-64262000D02*
X40540000Y-64262000D01*
X40540000Y-64262000D02*
X40540000Y-62738000D01*
X40540000Y-62738000D02*
X35460000Y-62738000D01*
X35460000Y-62738000D02*
X35460000Y-64262000D01*
X40159000Y-64262000D02*
X40159000Y-62738000D01*
X40286000Y-62738000D02*
X40286000Y-64262000D01*
X40413000Y-64262000D02*
X40413000Y-62738000D01*
X40032000Y-62738000D02*
X40032000Y-64262000D01*
X39905000Y-64262000D02*
X39905000Y-62738000D01*
X39778000Y-64262000D02*
X39778000Y-62738000D01*
X35460000Y-45262000D02*
X40540000Y-45262000D01*
X40540000Y-45262000D02*
X40540000Y-43738000D01*
X40540000Y-43738000D02*
X35460000Y-43738000D01*
X35460000Y-43738000D02*
X35460000Y-45262000D01*
X40159000Y-45262000D02*
X40159000Y-43738000D01*
X40286000Y-43738000D02*
X40286000Y-45262000D01*
X40413000Y-45262000D02*
X40413000Y-43738000D01*
X40032000Y-43738000D02*
X40032000Y-45262000D01*
X39905000Y-45262000D02*
X39905000Y-43738000D01*
X39778000Y-45262000D02*
X39778000Y-43738000D01*
X35460000Y-26262000D02*
X40540000Y-26262000D01*
X40540000Y-26262000D02*
X40540000Y-24738000D01*
X40540000Y-24738000D02*
X35460000Y-24738000D01*
X35460000Y-24738000D02*
X35460000Y-26262000D01*
X40159000Y-26262000D02*
X40159000Y-24738000D01*
X40286000Y-24738000D02*
X40286000Y-26262000D01*
X40413000Y-26262000D02*
X40413000Y-24738000D01*
X40032000Y-24738000D02*
X40032000Y-26262000D01*
X39905000Y-26262000D02*
X39905000Y-24738000D01*
X39778000Y-26262000D02*
X39778000Y-24738000D01*
X35460000Y-7262000D02*
X40540000Y-7262000D01*
X40540000Y-7262000D02*
X40540000Y-5738000D01*
X40540000Y-5738000D02*
X35460000Y-5738000D01*
X35460000Y-5738000D02*
X35460000Y-7262000D01*
X40159000Y-7262000D02*
X40159000Y-5738000D01*
X40286000Y-5738000D02*
X40286000Y-7262000D01*
X40413000Y-7262000D02*
X40413000Y-5738000D01*
X40032000Y-5738000D02*
X40032000Y-7262000D01*
X39905000Y-7262000D02*
X39905000Y-5738000D01*
X39778000Y-7262000D02*
X39778000Y-5738000D01*
X29262000Y-78540000D02*
X29262000Y-73460000D01*
X29262000Y-73460000D02*
X27738000Y-73460000D01*
X27738000Y-73460000D02*
X27738000Y-78540000D01*
X27738000Y-78540000D02*
X29262000Y-78540000D01*
X29262000Y-73841000D02*
X27738000Y-73841000D01*
X27738000Y-73714000D02*
X29262000Y-73714000D01*
X29262000Y-73587000D02*
X27738000Y-73587000D01*
X27738000Y-73968000D02*
X29262000Y-73968000D01*
X29262000Y-74095000D02*
X27738000Y-74095000D01*
X29262000Y-74222000D02*
X27738000Y-74222000D01*
X16460000Y-67262000D02*
X21540000Y-67262000D01*
X21540000Y-67262000D02*
X21540000Y-65738000D01*
X21540000Y-65738000D02*
X16460000Y-65738000D01*
X16460000Y-65738000D02*
X16460000Y-67262000D01*
X21159000Y-67262000D02*
X21159000Y-65738000D01*
X21286000Y-65738000D02*
X21286000Y-67262000D01*
X21413000Y-67262000D02*
X21413000Y-65738000D01*
X21032000Y-65738000D02*
X21032000Y-67262000D01*
X20905000Y-67262000D02*
X20905000Y-65738000D01*
X20778000Y-67262000D02*
X20778000Y-65738000D01*
X16460000Y-48262000D02*
X21540000Y-48262000D01*
X21540000Y-48262000D02*
X21540000Y-46738000D01*
X21540000Y-46738000D02*
X16460000Y-46738000D01*
X16460000Y-46738000D02*
X16460000Y-48262000D01*
X21159000Y-48262000D02*
X21159000Y-46738000D01*
X21286000Y-46738000D02*
X21286000Y-48262000D01*
X21413000Y-48262000D02*
X21413000Y-46738000D01*
X21032000Y-46738000D02*
X21032000Y-48262000D01*
X20905000Y-48262000D02*
X20905000Y-46738000D01*
X20778000Y-48262000D02*
X20778000Y-46738000D01*
X16460000Y-29262000D02*
X21540000Y-29262000D01*
X21540000Y-29262000D02*
X21540000Y-27738000D01*
X21540000Y-27738000D02*
X16460000Y-27738000D01*
X16460000Y-27738000D02*
X16460000Y-29262000D01*
X21159000Y-29262000D02*
X21159000Y-27738000D01*
X21286000Y-27738000D02*
X21286000Y-29262000D01*
X21413000Y-29262000D02*
X21413000Y-27738000D01*
X21032000Y-27738000D02*
X21032000Y-29262000D01*
X20905000Y-29262000D02*
X20905000Y-27738000D01*
X20778000Y-29262000D02*
X20778000Y-27738000D01*
X16460000Y-10262000D02*
X21540000Y-10262000D01*
X21540000Y-10262000D02*
X21540000Y-8738000D01*
X21540000Y-8738000D02*
X16460000Y-8738000D01*
X16460000Y-8738000D02*
X16460000Y-10262000D01*
X21159000Y-10262000D02*
X21159000Y-8738000D01*
X21286000Y-8738000D02*
X21286000Y-10262000D01*
X21413000Y-10262000D02*
X21413000Y-8738000D01*
X21032000Y-8738000D02*
X21032000Y-10262000D01*
X20905000Y-10262000D02*
X20905000Y-8738000D01*
X20778000Y-10262000D02*
X20778000Y-8738000D01*
X54460000Y-21262000D02*
X59540000Y-21262000D01*
X59540000Y-21262000D02*
X59540000Y-19738000D01*
X59540000Y-19738000D02*
X54460000Y-19738000D01*
X54460000Y-19738000D02*
X54460000Y-21262000D01*
X59159000Y-21262000D02*
X59159000Y-19738000D01*
X59286000Y-19738000D02*
X59286000Y-21262000D01*
X59413000Y-21262000D02*
X59413000Y-19738000D01*
X59032000Y-19738000D02*
X59032000Y-21262000D01*
X58905000Y-21262000D02*
X58905000Y-19738000D01*
X58778000Y-21262000D02*
X58778000Y-19738000D01*
X10262000Y-78540000D02*
X10262000Y-73460000D01*
X10262000Y-73460000D02*
X8738000Y-73460000D01*
X8738000Y-73460000D02*
X8738000Y-78540000D01*
X8738000Y-78540000D02*
X10262000Y-78540000D01*
X10262000Y-73841000D02*
X8738000Y-73841000D01*
X8738000Y-73714000D02*
X10262000Y-73714000D01*
X10262000Y-73587000D02*
X8738000Y-73587000D01*
X8738000Y-73968000D02*
X10262000Y-73968000D01*
X10262000Y-74095000D02*
X8738000Y-74095000D01*
X10262000Y-74222000D02*
X8738000Y-74222000D01*
X-2540000Y-67262000D02*
X2540000Y-67262000D01*
X2540000Y-67262000D02*
X2540000Y-65738000D01*
X2540000Y-65738000D02*
X-2540000Y-65738000D01*
X-2540000Y-65738000D02*
X-2540000Y-67262000D01*
X2159000Y-67262000D02*
X2159000Y-65738000D01*
X2286000Y-65738000D02*
X2286000Y-67262000D01*
X2413000Y-67262000D02*
X2413000Y-65738000D01*
X2032000Y-65738000D02*
X2032000Y-67262000D01*
X1905000Y-67262000D02*
X1905000Y-65738000D01*
X1778000Y-67262000D02*
X1778000Y-65738000D01*
X-2540000Y-48262000D02*
X2540000Y-48262000D01*
X2540000Y-48262000D02*
X2540000Y-46738000D01*
X2540000Y-46738000D02*
X-2540000Y-46738000D01*
X-2540000Y-46738000D02*
X-2540000Y-48262000D01*
X2159000Y-48262000D02*
X2159000Y-46738000D01*
X2286000Y-46738000D02*
X2286000Y-48262000D01*
X2413000Y-48262000D02*
X2413000Y-46738000D01*
X2032000Y-46738000D02*
X2032000Y-48262000D01*
X1905000Y-48262000D02*
X1905000Y-46738000D01*
X1778000Y-48262000D02*
X1778000Y-46738000D01*
X-2540000Y-29262000D02*
X2540000Y-29262000D01*
X2540000Y-29262000D02*
X2540000Y-27738000D01*
X2540000Y-27738000D02*
X-2540000Y-27738000D01*
X-2540000Y-27738000D02*
X-2540000Y-29262000D01*
X2159000Y-29262000D02*
X2159000Y-27738000D01*
X2286000Y-27738000D02*
X2286000Y-29262000D01*
X2413000Y-29262000D02*
X2413000Y-27738000D01*
X2032000Y-27738000D02*
X2032000Y-29262000D01*
X1905000Y-29262000D02*
X1905000Y-27738000D01*
X1778000Y-29262000D02*
X1778000Y-27738000D01*
X-2540000Y-10262000D02*
X2540000Y-10262000D01*
X2540000Y-10262000D02*
X2540000Y-8738000D01*
X2540000Y-8738000D02*
X-2540000Y-8738000D01*
X-2540000Y-8738000D02*
X-2540000Y-10262000D01*
X2159000Y-10262000D02*
X2159000Y-8738000D01*
X2286000Y-8738000D02*
X2286000Y-10262000D01*
X2413000Y-10262000D02*
X2413000Y-8738000D01*
X2032000Y-8738000D02*
X2032000Y-10262000D01*
X1905000Y-10262000D02*
X1905000Y-8738000D01*
X1778000Y-10262000D02*
X1778000Y-8738000D01*
X120721000Y-59309300D02*
X121421000Y-59309300D01*
X124221000Y-59309300D02*
X123621000Y-59309300D01*
X124221000Y-53309300D02*
X123621000Y-53309300D01*
X120721000Y-53309300D02*
X121421000Y-53309300D01*
X124221000Y-53309300D02*
X124221000Y-59309300D01*
X120721000Y-59309300D02*
X120721000Y-53309300D01*
X120721000Y-59309300D02*
X120721000Y-53409300D01*
X95946028Y-52261904D02*
X95946028Y-51461904D01*
X95755552Y-51461904D01*
X95641266Y-51500000D01*
X95565076Y-51576190D01*
X95526980Y-51652380D01*
X95488885Y-51804761D01*
X95488885Y-51919047D01*
X95526980Y-52071428D01*
X95565076Y-52147619D01*
X95641266Y-52223809D01*
X95755552Y-52261904D01*
X95946028Y-52261904D01*
X95184123Y-51538095D02*
X95146028Y-51500000D01*
X95069838Y-51461904D01*
X94879361Y-51461904D01*
X94803171Y-51500000D01*
X94765076Y-51538095D01*
X94726980Y-51614285D01*
X94726980Y-51690476D01*
X94765076Y-51804761D01*
X95222219Y-52261904D01*
X94726980Y-52261904D01*
X94460314Y-51461904D02*
X93926980Y-51461904D01*
X94269838Y-52261904D01*
X106261904Y-64053971D02*
X105461904Y-64053971D01*
X105461904Y-64244447D01*
X105500000Y-64358733D01*
X105576190Y-64434923D01*
X105652380Y-64473019D01*
X105804761Y-64511114D01*
X105919047Y-64511114D01*
X106071428Y-64473019D01*
X106147619Y-64434923D01*
X106223809Y-64358733D01*
X106261904Y-64244447D01*
X106261904Y-64053971D01*
X105461904Y-64777780D02*
X105461904Y-65273019D01*
X105766666Y-65006352D01*
X105766666Y-65120638D01*
X105804761Y-65196828D01*
X105842857Y-65234923D01*
X105919047Y-65273019D01*
X106109523Y-65273019D01*
X106185714Y-65234923D01*
X106223809Y-65196828D01*
X106261904Y-65120638D01*
X106261904Y-64892066D01*
X106223809Y-64815876D01*
X106185714Y-64777780D01*
X105461904Y-65768257D02*
X105461904Y-65844447D01*
X105500000Y-65920638D01*
X105538095Y-65958733D01*
X105614285Y-65996828D01*
X105766666Y-66034923D01*
X105957142Y-66034923D01*
X106109523Y-65996828D01*
X106185714Y-65958733D01*
X106223809Y-65920638D01*
X106261904Y-65844447D01*
X106261904Y-65768257D01*
X106223809Y-65692066D01*
X106185714Y-65653971D01*
X106109523Y-65615876D01*
X105957142Y-65577780D01*
X105766666Y-65577780D01*
X105614285Y-65615876D01*
X105538095Y-65653971D01*
X105500000Y-65692066D01*
X105461904Y-65768257D01*
X106261904Y-76053971D02*
X105461904Y-76053971D01*
X105461904Y-76244447D01*
X105500000Y-76358733D01*
X105576190Y-76434923D01*
X105652380Y-76473019D01*
X105804761Y-76511114D01*
X105919047Y-76511114D01*
X106071428Y-76473019D01*
X106147619Y-76434923D01*
X106223809Y-76358733D01*
X106261904Y-76244447D01*
X106261904Y-76053971D01*
X105538095Y-76815876D02*
X105500000Y-76853971D01*
X105461904Y-76930161D01*
X105461904Y-77120638D01*
X105500000Y-77196828D01*
X105538095Y-77234923D01*
X105614285Y-77273019D01*
X105690476Y-77273019D01*
X105804761Y-77234923D01*
X106261904Y-76777780D01*
X106261904Y-77273019D01*
X106261904Y-77653971D02*
X106261904Y-77806352D01*
X106223809Y-77882542D01*
X106185714Y-77920638D01*
X106071428Y-77996828D01*
X105919047Y-78034923D01*
X105614285Y-78034923D01*
X105538095Y-77996828D01*
X105500000Y-77958733D01*
X105461904Y-77882542D01*
X105461904Y-77730161D01*
X105500000Y-77653971D01*
X105538095Y-77615876D01*
X105614285Y-77577780D01*
X105804761Y-77577780D01*
X105880952Y-77615876D01*
X105919047Y-77653971D01*
X105957142Y-77730161D01*
X105957142Y-77882542D01*
X105919047Y-77958733D01*
X105880952Y-77996828D01*
X105804761Y-78034923D01*
X95946028Y-71261904D02*
X95946028Y-70461904D01*
X95755552Y-70461904D01*
X95641266Y-70500000D01*
X95565076Y-70576190D01*
X95526980Y-70652380D01*
X95488885Y-70804761D01*
X95488885Y-70919047D01*
X95526980Y-71071428D01*
X95565076Y-71147619D01*
X95641266Y-71223809D01*
X95755552Y-71261904D01*
X95946028Y-71261904D01*
X95184123Y-70538095D02*
X95146028Y-70500000D01*
X95069838Y-70461904D01*
X94879361Y-70461904D01*
X94803171Y-70500000D01*
X94765076Y-70538095D01*
X94726980Y-70614285D01*
X94726980Y-70690476D01*
X94765076Y-70804761D01*
X95222219Y-71261904D01*
X94726980Y-71261904D01*
X94269838Y-70804761D02*
X94346028Y-70766666D01*
X94384123Y-70728571D01*
X94422219Y-70652380D01*
X94422219Y-70614285D01*
X94384123Y-70538095D01*
X94346028Y-70500000D01*
X94269838Y-70461904D01*
X94117457Y-70461904D01*
X94041266Y-70500000D01*
X94003171Y-70538095D01*
X93965076Y-70614285D01*
X93965076Y-70652380D01*
X94003171Y-70728571D01*
X94041266Y-70766666D01*
X94117457Y-70804761D01*
X94269838Y-70804761D01*
X94346028Y-70842857D01*
X94384123Y-70880952D01*
X94422219Y-70957142D01*
X94422219Y-71109523D01*
X94384123Y-71185714D01*
X94346028Y-71223809D01*
X94269838Y-71261904D01*
X94117457Y-71261904D01*
X94041266Y-71223809D01*
X94003171Y-71185714D01*
X93965076Y-71109523D01*
X93965076Y-70957142D01*
X94003171Y-70880952D01*
X94041266Y-70842857D01*
X94117457Y-70804761D01*
X95946028Y-33261904D02*
X95946028Y-32461904D01*
X95755552Y-32461904D01*
X95641266Y-32500000D01*
X95565076Y-32576190D01*
X95526980Y-32652380D01*
X95488885Y-32804761D01*
X95488885Y-32919047D01*
X95526980Y-33071428D01*
X95565076Y-33147619D01*
X95641266Y-33223809D01*
X95755552Y-33261904D01*
X95946028Y-33261904D01*
X95184123Y-32538095D02*
X95146028Y-32500000D01*
X95069838Y-32461904D01*
X94879361Y-32461904D01*
X94803171Y-32500000D01*
X94765076Y-32538095D01*
X94726980Y-32614285D01*
X94726980Y-32690476D01*
X94765076Y-32804761D01*
X95222219Y-33261904D01*
X94726980Y-33261904D01*
X94041266Y-32461904D02*
X94193647Y-32461904D01*
X94269838Y-32500000D01*
X94307933Y-32538095D01*
X94384123Y-32652380D01*
X94422219Y-32804761D01*
X94422219Y-33109523D01*
X94384123Y-33185714D01*
X94346028Y-33223809D01*
X94269838Y-33261904D01*
X94117457Y-33261904D01*
X94041266Y-33223809D01*
X94003171Y-33185714D01*
X93965076Y-33109523D01*
X93965076Y-32919047D01*
X94003171Y-32842857D01*
X94041266Y-32804761D01*
X94117457Y-32766666D01*
X94269838Y-32766666D01*
X94346028Y-32804761D01*
X94384123Y-32842857D01*
X94422219Y-32919047D01*
X95946028Y-14261904D02*
X95946028Y-13461904D01*
X95755552Y-13461904D01*
X95641266Y-13500000D01*
X95565076Y-13576190D01*
X95526980Y-13652380D01*
X95488885Y-13804761D01*
X95488885Y-13919047D01*
X95526980Y-14071428D01*
X95565076Y-14147619D01*
X95641266Y-14223809D01*
X95755552Y-14261904D01*
X95946028Y-14261904D01*
X95184123Y-13538095D02*
X95146028Y-13500000D01*
X95069838Y-13461904D01*
X94879361Y-13461904D01*
X94803171Y-13500000D01*
X94765076Y-13538095D01*
X94726980Y-13614285D01*
X94726980Y-13690476D01*
X94765076Y-13804761D01*
X95222219Y-14261904D01*
X94726980Y-14261904D01*
X94003171Y-13461904D02*
X94384123Y-13461904D01*
X94422219Y-13842857D01*
X94384123Y-13804761D01*
X94307933Y-13766666D01*
X94117457Y-13766666D01*
X94041266Y-13804761D01*
X94003171Y-13842857D01*
X93965076Y-13919047D01*
X93965076Y-14109523D01*
X94003171Y-14185714D01*
X94041266Y-14223809D01*
X94117457Y-14261904D01*
X94307933Y-14261904D01*
X94384123Y-14223809D01*
X94422219Y-14185714D01*
X87261904Y-73053971D02*
X86461904Y-73053971D01*
X86461904Y-73244447D01*
X86500000Y-73358733D01*
X86576190Y-73434923D01*
X86652380Y-73473019D01*
X86804761Y-73511114D01*
X86919047Y-73511114D01*
X87071428Y-73473019D01*
X87147619Y-73434923D01*
X87223809Y-73358733D01*
X87261904Y-73244447D01*
X87261904Y-73053971D01*
X86538095Y-73815876D02*
X86500000Y-73853971D01*
X86461904Y-73930161D01*
X86461904Y-74120638D01*
X86500000Y-74196828D01*
X86538095Y-74234923D01*
X86614285Y-74273019D01*
X86690476Y-74273019D01*
X86804761Y-74234923D01*
X87261904Y-73777780D01*
X87261904Y-74273019D01*
X86728571Y-74958733D02*
X87261904Y-74958733D01*
X86423809Y-74768257D02*
X86995238Y-74577780D01*
X86995238Y-75073019D01*
X76946028Y-66261904D02*
X76946028Y-65461904D01*
X76755552Y-65461904D01*
X76641266Y-65500000D01*
X76565076Y-65576190D01*
X76526980Y-65652380D01*
X76488885Y-65804761D01*
X76488885Y-65919047D01*
X76526980Y-66071428D01*
X76565076Y-66147619D01*
X76641266Y-66223809D01*
X76755552Y-66261904D01*
X76946028Y-66261904D01*
X76184123Y-65538095D02*
X76146028Y-65500000D01*
X76069838Y-65461904D01*
X75879361Y-65461904D01*
X75803171Y-65500000D01*
X75765076Y-65538095D01*
X75726980Y-65614285D01*
X75726980Y-65690476D01*
X75765076Y-65804761D01*
X76222219Y-66261904D01*
X75726980Y-66261904D01*
X75460314Y-65461904D02*
X74965076Y-65461904D01*
X75231742Y-65766666D01*
X75117457Y-65766666D01*
X75041266Y-65804761D01*
X75003171Y-65842857D01*
X74965076Y-65919047D01*
X74965076Y-66109523D01*
X75003171Y-66185714D01*
X75041266Y-66223809D01*
X75117457Y-66261904D01*
X75346028Y-66261904D01*
X75422219Y-66223809D01*
X75460314Y-66185714D01*
X76946028Y-47261904D02*
X76946028Y-46461904D01*
X76755552Y-46461904D01*
X76641266Y-46500000D01*
X76565076Y-46576190D01*
X76526980Y-46652380D01*
X76488885Y-46804761D01*
X76488885Y-46919047D01*
X76526980Y-47071428D01*
X76565076Y-47147619D01*
X76641266Y-47223809D01*
X76755552Y-47261904D01*
X76946028Y-47261904D01*
X76184123Y-46538095D02*
X76146028Y-46500000D01*
X76069838Y-46461904D01*
X75879361Y-46461904D01*
X75803171Y-46500000D01*
X75765076Y-46538095D01*
X75726980Y-46614285D01*
X75726980Y-46690476D01*
X75765076Y-46804761D01*
X76222219Y-47261904D01*
X75726980Y-47261904D01*
X75422219Y-46538095D02*
X75384123Y-46500000D01*
X75307933Y-46461904D01*
X75117457Y-46461904D01*
X75041266Y-46500000D01*
X75003171Y-46538095D01*
X74965076Y-46614285D01*
X74965076Y-46690476D01*
X75003171Y-46804761D01*
X75460314Y-47261904D01*
X74965076Y-47261904D01*
X76946028Y-28261904D02*
X76946028Y-27461904D01*
X76755552Y-27461904D01*
X76641266Y-27500000D01*
X76565076Y-27576190D01*
X76526980Y-27652380D01*
X76488885Y-27804761D01*
X76488885Y-27919047D01*
X76526980Y-28071428D01*
X76565076Y-28147619D01*
X76641266Y-28223809D01*
X76755552Y-28261904D01*
X76946028Y-28261904D01*
X76184123Y-27538095D02*
X76146028Y-27500000D01*
X76069838Y-27461904D01*
X75879361Y-27461904D01*
X75803171Y-27500000D01*
X75765076Y-27538095D01*
X75726980Y-27614285D01*
X75726980Y-27690476D01*
X75765076Y-27804761D01*
X76222219Y-28261904D01*
X75726980Y-28261904D01*
X74965076Y-28261904D02*
X75422219Y-28261904D01*
X75193647Y-28261904D02*
X75193647Y-27461904D01*
X75269838Y-27576190D01*
X75346028Y-27652380D01*
X75422219Y-27690476D01*
X76946028Y-9261904D02*
X76946028Y-8461904D01*
X76755552Y-8461904D01*
X76641266Y-8500000D01*
X76565076Y-8576190D01*
X76526980Y-8652380D01*
X76488885Y-8804761D01*
X76488885Y-8919047D01*
X76526980Y-9071428D01*
X76565076Y-9147619D01*
X76641266Y-9223809D01*
X76755552Y-9261904D01*
X76946028Y-9261904D01*
X76184123Y-8538095D02*
X76146028Y-8500000D01*
X76069838Y-8461904D01*
X75879361Y-8461904D01*
X75803171Y-8500000D01*
X75765076Y-8538095D01*
X75726980Y-8614285D01*
X75726980Y-8690476D01*
X75765076Y-8804761D01*
X76222219Y-9261904D01*
X75726980Y-9261904D01*
X75231742Y-8461904D02*
X75155552Y-8461904D01*
X75079361Y-8500000D01*
X75041266Y-8538095D01*
X75003171Y-8614285D01*
X74965076Y-8766666D01*
X74965076Y-8957142D01*
X75003171Y-9109523D01*
X75041266Y-9185714D01*
X75079361Y-9223809D01*
X75155552Y-9261904D01*
X75231742Y-9261904D01*
X75307933Y-9223809D01*
X75346028Y-9185714D01*
X75384123Y-9109523D01*
X75422219Y-8957142D01*
X75422219Y-8766666D01*
X75384123Y-8614285D01*
X75346028Y-8538095D01*
X75307933Y-8500000D01*
X75231742Y-8461904D01*
X68261904Y-67053971D02*
X67461904Y-67053971D01*
X67461904Y-67244447D01*
X67500000Y-67358733D01*
X67576190Y-67434923D01*
X67652380Y-67473019D01*
X67804761Y-67511114D01*
X67919047Y-67511114D01*
X68071428Y-67473019D01*
X68147619Y-67434923D01*
X68223809Y-67358733D01*
X68261904Y-67244447D01*
X68261904Y-67053971D01*
X68261904Y-68273019D02*
X68261904Y-67815876D01*
X68261904Y-68044447D02*
X67461904Y-68044447D01*
X67576190Y-67968257D01*
X67652380Y-67892066D01*
X67690476Y-67815876D01*
X68261904Y-68653971D02*
X68261904Y-68806352D01*
X68223809Y-68882542D01*
X68185714Y-68920638D01*
X68071428Y-68996828D01*
X67919047Y-69034923D01*
X67614285Y-69034923D01*
X67538095Y-68996828D01*
X67500000Y-68958733D01*
X67461904Y-68882542D01*
X67461904Y-68730161D01*
X67500000Y-68653971D01*
X67538095Y-68615876D01*
X67614285Y-68577780D01*
X67804761Y-68577780D01*
X67880952Y-68615876D01*
X67919047Y-68653971D01*
X67957142Y-68730161D01*
X67957142Y-68882542D01*
X67919047Y-68958733D01*
X67880952Y-68996828D01*
X67804761Y-69034923D01*
X57946028Y-60261904D02*
X57946028Y-59461904D01*
X57755552Y-59461904D01*
X57641266Y-59500000D01*
X57565076Y-59576190D01*
X57526980Y-59652380D01*
X57488885Y-59804761D01*
X57488885Y-59919047D01*
X57526980Y-60071428D01*
X57565076Y-60147619D01*
X57641266Y-60223809D01*
X57755552Y-60261904D01*
X57946028Y-60261904D01*
X56726980Y-60261904D02*
X57184123Y-60261904D01*
X56955552Y-60261904D02*
X56955552Y-59461904D01*
X57031742Y-59576190D01*
X57107933Y-59652380D01*
X57184123Y-59690476D01*
X56269838Y-59804761D02*
X56346028Y-59766666D01*
X56384123Y-59728571D01*
X56422219Y-59652380D01*
X56422219Y-59614285D01*
X56384123Y-59538095D01*
X56346028Y-59500000D01*
X56269838Y-59461904D01*
X56117457Y-59461904D01*
X56041266Y-59500000D01*
X56003171Y-59538095D01*
X55965076Y-59614285D01*
X55965076Y-59652380D01*
X56003171Y-59728571D01*
X56041266Y-59766666D01*
X56117457Y-59804761D01*
X56269838Y-59804761D01*
X56346028Y-59842857D01*
X56384123Y-59880952D01*
X56422219Y-59957142D01*
X56422219Y-60109523D01*
X56384123Y-60185714D01*
X56346028Y-60223809D01*
X56269838Y-60261904D01*
X56117457Y-60261904D01*
X56041266Y-60223809D01*
X56003171Y-60185714D01*
X55965076Y-60109523D01*
X55965076Y-59957142D01*
X56003171Y-59880952D01*
X56041266Y-59842857D01*
X56117457Y-59804761D01*
X57946028Y-41261904D02*
X57946028Y-40461904D01*
X57755552Y-40461904D01*
X57641266Y-40500000D01*
X57565076Y-40576190D01*
X57526980Y-40652380D01*
X57488885Y-40804761D01*
X57488885Y-40919047D01*
X57526980Y-41071428D01*
X57565076Y-41147619D01*
X57641266Y-41223809D01*
X57755552Y-41261904D01*
X57946028Y-41261904D01*
X56726980Y-41261904D02*
X57184123Y-41261904D01*
X56955552Y-41261904D02*
X56955552Y-40461904D01*
X57031742Y-40576190D01*
X57107933Y-40652380D01*
X57184123Y-40690476D01*
X56460314Y-40461904D02*
X55926980Y-40461904D01*
X56269838Y-41261904D01*
X57946028Y-3261904D02*
X57946028Y-2461904D01*
X57755552Y-2461904D01*
X57641266Y-2500000D01*
X57565076Y-2576190D01*
X57526980Y-2652380D01*
X57488885Y-2804761D01*
X57488885Y-2919047D01*
X57526980Y-3071428D01*
X57565076Y-3147619D01*
X57641266Y-3223809D01*
X57755552Y-3261904D01*
X57946028Y-3261904D01*
X56726980Y-3261904D02*
X57184123Y-3261904D01*
X56955552Y-3261904D02*
X56955552Y-2461904D01*
X57031742Y-2576190D01*
X57107933Y-2652380D01*
X57184123Y-2690476D01*
X56003171Y-2461904D02*
X56384123Y-2461904D01*
X56422219Y-2842857D01*
X56384123Y-2804761D01*
X56307933Y-2766666D01*
X56117457Y-2766666D01*
X56041266Y-2804761D01*
X56003171Y-2842857D01*
X55965076Y-2919047D01*
X55965076Y-3109523D01*
X56003171Y-3185714D01*
X56041266Y-3223809D01*
X56117457Y-3261904D01*
X56307933Y-3261904D01*
X56384123Y-3223809D01*
X56422219Y-3185714D01*
X49261904Y-71053971D02*
X48461904Y-71053971D01*
X48461904Y-71244447D01*
X48500000Y-71358733D01*
X48576190Y-71434923D01*
X48652380Y-71473019D01*
X48804761Y-71511114D01*
X48919047Y-71511114D01*
X49071428Y-71473019D01*
X49147619Y-71434923D01*
X49223809Y-71358733D01*
X49261904Y-71244447D01*
X49261904Y-71053971D01*
X49261904Y-72273019D02*
X49261904Y-71815876D01*
X49261904Y-72044447D02*
X48461904Y-72044447D01*
X48576190Y-71968257D01*
X48652380Y-71892066D01*
X48690476Y-71815876D01*
X48728571Y-72958733D02*
X49261904Y-72958733D01*
X48423809Y-72768257D02*
X48995238Y-72577780D01*
X48995238Y-73073019D01*
X38946028Y-65261904D02*
X38946028Y-64461904D01*
X38755552Y-64461904D01*
X38641266Y-64500000D01*
X38565076Y-64576190D01*
X38526980Y-64652380D01*
X38488885Y-64804761D01*
X38488885Y-64919047D01*
X38526980Y-65071428D01*
X38565076Y-65147619D01*
X38641266Y-65223809D01*
X38755552Y-65261904D01*
X38946028Y-65261904D01*
X37726980Y-65261904D02*
X38184123Y-65261904D01*
X37955552Y-65261904D02*
X37955552Y-64461904D01*
X38031742Y-64576190D01*
X38107933Y-64652380D01*
X38184123Y-64690476D01*
X37460314Y-64461904D02*
X36965076Y-64461904D01*
X37231742Y-64766666D01*
X37117457Y-64766666D01*
X37041266Y-64804761D01*
X37003171Y-64842857D01*
X36965076Y-64919047D01*
X36965076Y-65109523D01*
X37003171Y-65185714D01*
X37041266Y-65223809D01*
X37117457Y-65261904D01*
X37346028Y-65261904D01*
X37422219Y-65223809D01*
X37460314Y-65185714D01*
X38946028Y-46261904D02*
X38946028Y-45461904D01*
X38755552Y-45461904D01*
X38641266Y-45500000D01*
X38565076Y-45576190D01*
X38526980Y-45652380D01*
X38488885Y-45804761D01*
X38488885Y-45919047D01*
X38526980Y-46071428D01*
X38565076Y-46147619D01*
X38641266Y-46223809D01*
X38755552Y-46261904D01*
X38946028Y-46261904D01*
X37726980Y-46261904D02*
X38184123Y-46261904D01*
X37955552Y-46261904D02*
X37955552Y-45461904D01*
X38031742Y-45576190D01*
X38107933Y-45652380D01*
X38184123Y-45690476D01*
X37422219Y-45538095D02*
X37384123Y-45500000D01*
X37307933Y-45461904D01*
X37117457Y-45461904D01*
X37041266Y-45500000D01*
X37003171Y-45538095D01*
X36965076Y-45614285D01*
X36965076Y-45690476D01*
X37003171Y-45804761D01*
X37460314Y-46261904D01*
X36965076Y-46261904D01*
X38946028Y-27261904D02*
X38946028Y-26461904D01*
X38755552Y-26461904D01*
X38641266Y-26500000D01*
X38565076Y-26576190D01*
X38526980Y-26652380D01*
X38488885Y-26804761D01*
X38488885Y-26919047D01*
X38526980Y-27071428D01*
X38565076Y-27147619D01*
X38641266Y-27223809D01*
X38755552Y-27261904D01*
X38946028Y-27261904D01*
X37726980Y-27261904D02*
X38184123Y-27261904D01*
X37955552Y-27261904D02*
X37955552Y-26461904D01*
X38031742Y-26576190D01*
X38107933Y-26652380D01*
X38184123Y-26690476D01*
X36965076Y-27261904D02*
X37422219Y-27261904D01*
X37193647Y-27261904D02*
X37193647Y-26461904D01*
X37269838Y-26576190D01*
X37346028Y-26652380D01*
X37422219Y-26690476D01*
X38946028Y-8261904D02*
X38946028Y-7461904D01*
X38755552Y-7461904D01*
X38641266Y-7500000D01*
X38565076Y-7576190D01*
X38526980Y-7652380D01*
X38488885Y-7804761D01*
X38488885Y-7919047D01*
X38526980Y-8071428D01*
X38565076Y-8147619D01*
X38641266Y-8223809D01*
X38755552Y-8261904D01*
X38946028Y-8261904D01*
X37726980Y-8261904D02*
X38184123Y-8261904D01*
X37955552Y-8261904D02*
X37955552Y-7461904D01*
X38031742Y-7576190D01*
X38107933Y-7652380D01*
X38184123Y-7690476D01*
X37231742Y-7461904D02*
X37155552Y-7461904D01*
X37079361Y-7500000D01*
X37041266Y-7538095D01*
X37003171Y-7614285D01*
X36965076Y-7766666D01*
X36965076Y-7957142D01*
X37003171Y-8109523D01*
X37041266Y-8185714D01*
X37079361Y-8223809D01*
X37155552Y-8261904D01*
X37231742Y-8261904D01*
X37307933Y-8223809D01*
X37346028Y-8185714D01*
X37384123Y-8109523D01*
X37422219Y-7957142D01*
X37422219Y-7766666D01*
X37384123Y-7614285D01*
X37346028Y-7538095D01*
X37307933Y-7500000D01*
X37231742Y-7461904D01*
X30261904Y-75434923D02*
X29461904Y-75434923D01*
X29461904Y-75625400D01*
X29500000Y-75739685D01*
X29576190Y-75815876D01*
X29652380Y-75853971D01*
X29804761Y-75892066D01*
X29919047Y-75892066D01*
X30071428Y-75853971D01*
X30147619Y-75815876D01*
X30223809Y-75739685D01*
X30261904Y-75625400D01*
X30261904Y-75434923D01*
X30261904Y-76273019D02*
X30261904Y-76425400D01*
X30223809Y-76501590D01*
X30185714Y-76539685D01*
X30071428Y-76615876D01*
X29919047Y-76653971D01*
X29614285Y-76653971D01*
X29538095Y-76615876D01*
X29500000Y-76577780D01*
X29461904Y-76501590D01*
X29461904Y-76349209D01*
X29500000Y-76273019D01*
X29538095Y-76234923D01*
X29614285Y-76196828D01*
X29804761Y-76196828D01*
X29880952Y-76234923D01*
X29919047Y-76273019D01*
X29957142Y-76349209D01*
X29957142Y-76501590D01*
X29919047Y-76577780D01*
X29880952Y-76615876D01*
X29804761Y-76653971D01*
X19565076Y-68261904D02*
X19565076Y-67461904D01*
X19374600Y-67461904D01*
X19260314Y-67500000D01*
X19184123Y-67576190D01*
X19146028Y-67652380D01*
X19107933Y-67804761D01*
X19107933Y-67919047D01*
X19146028Y-68071428D01*
X19184123Y-68147619D01*
X19260314Y-68223809D01*
X19374600Y-68261904D01*
X19565076Y-68261904D01*
X18650790Y-67804761D02*
X18726980Y-67766666D01*
X18765076Y-67728571D01*
X18803171Y-67652380D01*
X18803171Y-67614285D01*
X18765076Y-67538095D01*
X18726980Y-67500000D01*
X18650790Y-67461904D01*
X18498409Y-67461904D01*
X18422219Y-67500000D01*
X18384123Y-67538095D01*
X18346028Y-67614285D01*
X18346028Y-67652380D01*
X18384123Y-67728571D01*
X18422219Y-67766666D01*
X18498409Y-67804761D01*
X18650790Y-67804761D01*
X18726980Y-67842857D01*
X18765076Y-67880952D01*
X18803171Y-67957142D01*
X18803171Y-68109523D01*
X18765076Y-68185714D01*
X18726980Y-68223809D01*
X18650790Y-68261904D01*
X18498409Y-68261904D01*
X18422219Y-68223809D01*
X18384123Y-68185714D01*
X18346028Y-68109523D01*
X18346028Y-67957142D01*
X18384123Y-67880952D01*
X18422219Y-67842857D01*
X18498409Y-67804761D01*
X19565076Y-49261904D02*
X19565076Y-48461904D01*
X19374600Y-48461904D01*
X19260314Y-48500000D01*
X19184123Y-48576190D01*
X19146028Y-48652380D01*
X19107933Y-48804761D01*
X19107933Y-48919047D01*
X19146028Y-49071428D01*
X19184123Y-49147619D01*
X19260314Y-49223809D01*
X19374600Y-49261904D01*
X19565076Y-49261904D01*
X18841266Y-48461904D02*
X18307933Y-48461904D01*
X18650790Y-49261904D01*
X19565076Y-30261904D02*
X19565076Y-29461904D01*
X19374600Y-29461904D01*
X19260314Y-29500000D01*
X19184123Y-29576190D01*
X19146028Y-29652380D01*
X19107933Y-29804761D01*
X19107933Y-29919047D01*
X19146028Y-30071428D01*
X19184123Y-30147619D01*
X19260314Y-30223809D01*
X19374600Y-30261904D01*
X19565076Y-30261904D01*
X18422219Y-29461904D02*
X18574600Y-29461904D01*
X18650790Y-29500000D01*
X18688885Y-29538095D01*
X18765076Y-29652380D01*
X18803171Y-29804761D01*
X18803171Y-30109523D01*
X18765076Y-30185714D01*
X18726980Y-30223809D01*
X18650790Y-30261904D01*
X18498409Y-30261904D01*
X18422219Y-30223809D01*
X18384123Y-30185714D01*
X18346028Y-30109523D01*
X18346028Y-29919047D01*
X18384123Y-29842857D01*
X18422219Y-29804761D01*
X18498409Y-29766666D01*
X18650790Y-29766666D01*
X18726980Y-29804761D01*
X18765076Y-29842857D01*
X18803171Y-29919047D01*
X19565076Y-11261904D02*
X19565076Y-10461904D01*
X19374600Y-10461904D01*
X19260314Y-10500000D01*
X19184123Y-10576190D01*
X19146028Y-10652380D01*
X19107933Y-10804761D01*
X19107933Y-10919047D01*
X19146028Y-11071428D01*
X19184123Y-11147619D01*
X19260314Y-11223809D01*
X19374600Y-11261904D01*
X19565076Y-11261904D01*
X18384123Y-10461904D02*
X18765076Y-10461904D01*
X18803171Y-10842857D01*
X18765076Y-10804761D01*
X18688885Y-10766666D01*
X18498409Y-10766666D01*
X18422219Y-10804761D01*
X18384123Y-10842857D01*
X18346028Y-10919047D01*
X18346028Y-11109523D01*
X18384123Y-11185714D01*
X18422219Y-11223809D01*
X18498409Y-11261904D01*
X18688885Y-11261904D01*
X18765076Y-11223809D01*
X18803171Y-11185714D01*
X57946028Y-22261904D02*
X57946028Y-21461904D01*
X57755552Y-21461904D01*
X57641266Y-21500000D01*
X57565076Y-21576190D01*
X57526980Y-21652380D01*
X57488885Y-21804761D01*
X57488885Y-21919047D01*
X57526980Y-22071428D01*
X57565076Y-22147619D01*
X57641266Y-22223809D01*
X57755552Y-22261904D01*
X57946028Y-22261904D01*
X56726980Y-22261904D02*
X57184123Y-22261904D01*
X56955552Y-22261904D02*
X56955552Y-21461904D01*
X57031742Y-21576190D01*
X57107933Y-21652380D01*
X57184123Y-21690476D01*
X56041266Y-21461904D02*
X56193647Y-21461904D01*
X56269838Y-21500000D01*
X56307933Y-21538095D01*
X56384123Y-21652380D01*
X56422219Y-21804761D01*
X56422219Y-22109523D01*
X56384123Y-22185714D01*
X56346028Y-22223809D01*
X56269838Y-22261904D01*
X56117457Y-22261904D01*
X56041266Y-22223809D01*
X56003171Y-22185714D01*
X55965076Y-22109523D01*
X55965076Y-21919047D01*
X56003171Y-21842857D01*
X56041266Y-21804761D01*
X56117457Y-21766666D01*
X56269838Y-21766666D01*
X56346028Y-21804761D01*
X56384123Y-21842857D01*
X56422219Y-21919047D01*
X11261904Y-75434923D02*
X10461904Y-75434923D01*
X10461904Y-75625400D01*
X10500000Y-75739685D01*
X10576190Y-75815876D01*
X10652380Y-75853971D01*
X10804761Y-75892066D01*
X10919047Y-75892066D01*
X11071428Y-75853971D01*
X11147619Y-75815876D01*
X11223809Y-75739685D01*
X11261904Y-75625400D01*
X11261904Y-75434923D01*
X10728571Y-76577780D02*
X11261904Y-76577780D01*
X10423809Y-76387304D02*
X10995238Y-76196828D01*
X10995238Y-76692066D01*
X565076Y-68261904D02*
X565076Y-67461904D01*
X374600Y-67461904D01*
X260314Y-67500000D01*
X184123Y-67576190D01*
X146028Y-67652380D01*
X107933Y-67804761D01*
X107933Y-67919047D01*
X146028Y-68071428D01*
X184123Y-68147619D01*
X260314Y-68223809D01*
X374600Y-68261904D01*
X565076Y-68261904D01*
X-158733Y-67461904D02*
X-653971Y-67461904D01*
X-387304Y-67766666D01*
X-501590Y-67766666D01*
X-577780Y-67804761D01*
X-615876Y-67842857D01*
X-653971Y-67919047D01*
X-653971Y-68109523D01*
X-615876Y-68185714D01*
X-577780Y-68223809D01*
X-501590Y-68261904D01*
X-273019Y-68261904D01*
X-196828Y-68223809D01*
X-158733Y-68185714D01*
X565076Y-49261904D02*
X565076Y-48461904D01*
X374600Y-48461904D01*
X260314Y-48500000D01*
X184123Y-48576190D01*
X146028Y-48652380D01*
X107933Y-48804761D01*
X107933Y-48919047D01*
X146028Y-49071428D01*
X184123Y-49147619D01*
X260314Y-49223809D01*
X374600Y-49261904D01*
X565076Y-49261904D01*
X-196828Y-48538095D02*
X-234923Y-48500000D01*
X-311114Y-48461904D01*
X-501590Y-48461904D01*
X-577780Y-48500000D01*
X-615876Y-48538095D01*
X-653971Y-48614285D01*
X-653971Y-48690476D01*
X-615876Y-48804761D01*
X-158733Y-49261904D01*
X-653971Y-49261904D01*
X565076Y-30261904D02*
X565076Y-29461904D01*
X374600Y-29461904D01*
X260314Y-29500000D01*
X184123Y-29576190D01*
X146028Y-29652380D01*
X107933Y-29804761D01*
X107933Y-29919047D01*
X146028Y-30071428D01*
X184123Y-30147619D01*
X260314Y-30223809D01*
X374600Y-30261904D01*
X565076Y-30261904D01*
X-653971Y-30261904D02*
X-196828Y-30261904D01*
X-425400Y-30261904D02*
X-425400Y-29461904D01*
X-349209Y-29576190D01*
X-273019Y-29652380D01*
X-196828Y-29690476D01*
X565076Y-11261904D02*
X565076Y-10461904D01*
X374600Y-10461904D01*
X260314Y-10500000D01*
X184123Y-10576190D01*
X146028Y-10652380D01*
X107933Y-10804761D01*
X107933Y-10919047D01*
X146028Y-11071428D01*
X184123Y-11147619D01*
X260314Y-11223809D01*
X374600Y-11261904D01*
X565076Y-11261904D01*
X-387304Y-10461904D02*
X-463495Y-10461904D01*
X-539685Y-10500000D01*
X-577780Y-10538095D01*
X-615876Y-10614285D01*
X-653971Y-10766666D01*
X-653971Y-10957142D01*
X-615876Y-11109523D01*
X-577780Y-11185714D01*
X-539685Y-11223809D01*
X-463495Y-11261904D01*
X-387304Y-11261904D01*
X-311114Y-11223809D01*
X-273019Y-11185714D01*
X-234923Y-11109523D01*
X-196828Y-10957142D01*
X-196828Y-10766666D01*
X-234923Y-10614285D01*
X-273019Y-10538095D01*
X-311114Y-10500000D01*
X-387304Y-10461904D01*
X122882904Y-55147395D02*
X122501952Y-54880728D01*
X122882904Y-54690252D02*
X122082904Y-54690252D01*
X122082904Y-54995014D01*
X122121000Y-55071204D01*
X122159095Y-55109300D01*
X122235285Y-55147395D01*
X122349571Y-55147395D01*
X122425761Y-55109300D01*
X122463857Y-55071204D01*
X122501952Y-54995014D01*
X122501952Y-54690252D01*
X122463857Y-55490252D02*
X122463857Y-55756919D01*
X122882904Y-55871204D02*
X122882904Y-55490252D01*
X122082904Y-55490252D01*
X122082904Y-55871204D01*
X122844809Y-56175966D02*
X122882904Y-56290252D01*
X122882904Y-56480728D01*
X122844809Y-56556919D01*
X122806714Y-56595014D01*
X122730523Y-56633109D01*
X122654333Y-56633109D01*
X122578142Y-56595014D01*
X122540047Y-56556919D01*
X122501952Y-56480728D01*
X122463857Y-56328347D01*
X122425761Y-56252157D01*
X122387666Y-56214061D01*
X122311476Y-56175966D01*
X122235285Y-56175966D01*
X122159095Y-56214061D01*
X122121000Y-56252157D01*
X122082904Y-56328347D01*
X122082904Y-56518823D01*
X122121000Y-56633109D01*
X122463857Y-56975966D02*
X122463857Y-57242633D01*
X122882904Y-57356919D02*
X122882904Y-56975966D01*
X122082904Y-56975966D01*
X122082904Y-57356919D01*
X122082904Y-57585490D02*
X122082904Y-58042633D01*
X122882904Y-57814061D02*
X122082904Y-57814061D01*
X96809523Y-44559761D02*
X96666666Y-44607380D01*
X96428571Y-44607380D01*
X96333333Y-44559761D01*
X96285714Y-44512142D01*
X96238095Y-44416904D01*
X96238095Y-44321666D01*
X96285714Y-44226428D01*
X96333333Y-44178809D01*
X96428571Y-44131190D01*
X96619047Y-44083571D01*
X96714285Y-44035952D01*
X96761904Y-43988333D01*
X96809523Y-43893095D01*
X96809523Y-43797857D01*
X96761904Y-43702619D01*
X96714285Y-43655000D01*
X96619047Y-43607380D01*
X96380952Y-43607380D01*
X96238095Y-43655000D01*
X95904761Y-43607380D02*
X95666666Y-44607380D01*
X95476190Y-43893095D01*
X95285714Y-44607380D01*
X95047619Y-43607380D01*
X94714285Y-43702619D02*
X94666666Y-43655000D01*
X94571428Y-43607380D01*
X94333333Y-43607380D01*
X94238095Y-43655000D01*
X94190476Y-43702619D01*
X94142857Y-43797857D01*
X94142857Y-43893095D01*
X94190476Y-44035952D01*
X94761904Y-44607380D01*
X94142857Y-44607380D01*
X93809523Y-43607380D02*
X93142857Y-43607380D01*
X93571428Y-44607380D01*
X96809523Y-63559761D02*
X96666666Y-63607380D01*
X96428571Y-63607380D01*
X96333333Y-63559761D01*
X96285714Y-63512142D01*
X96238095Y-63416904D01*
X96238095Y-63321666D01*
X96285714Y-63226428D01*
X96333333Y-63178809D01*
X96428571Y-63131190D01*
X96619047Y-63083571D01*
X96714285Y-63035952D01*
X96761904Y-62988333D01*
X96809523Y-62893095D01*
X96809523Y-62797857D01*
X96761904Y-62702619D01*
X96714285Y-62655000D01*
X96619047Y-62607380D01*
X96380952Y-62607380D01*
X96238095Y-62655000D01*
X95904761Y-62607380D02*
X95666666Y-63607380D01*
X95476190Y-62893095D01*
X95285714Y-63607380D01*
X95047619Y-62607380D01*
X94714285Y-62702619D02*
X94666666Y-62655000D01*
X94571428Y-62607380D01*
X94333333Y-62607380D01*
X94238095Y-62655000D01*
X94190476Y-62702619D01*
X94142857Y-62797857D01*
X94142857Y-62893095D01*
X94190476Y-63035952D01*
X94761904Y-63607380D01*
X94142857Y-63607380D01*
X93571428Y-63035952D02*
X93666666Y-62988333D01*
X93714285Y-62940714D01*
X93761904Y-62845476D01*
X93761904Y-62797857D01*
X93714285Y-62702619D01*
X93666666Y-62655000D01*
X93571428Y-62607380D01*
X93380952Y-62607380D01*
X93285714Y-62655000D01*
X93238095Y-62702619D01*
X93190476Y-62797857D01*
X93190476Y-62845476D01*
X93238095Y-62940714D01*
X93285714Y-62988333D01*
X93380952Y-63035952D01*
X93571428Y-63035952D01*
X93666666Y-63083571D01*
X93714285Y-63131190D01*
X93761904Y-63226428D01*
X93761904Y-63416904D01*
X93714285Y-63512142D01*
X93666666Y-63559761D01*
X93571428Y-63607380D01*
X93380952Y-63607380D01*
X93285714Y-63559761D01*
X93238095Y-63512142D01*
X93190476Y-63416904D01*
X93190476Y-63226428D01*
X93238095Y-63131190D01*
X93285714Y-63083571D01*
X93380952Y-63035952D01*
X111249761Y-69190476D02*
X111297380Y-69333333D01*
X111297380Y-69571428D01*
X111249761Y-69666666D01*
X111202142Y-69714285D01*
X111106904Y-69761904D01*
X111011666Y-69761904D01*
X110916428Y-69714285D01*
X110868809Y-69666666D01*
X110821190Y-69571428D01*
X110773571Y-69380952D01*
X110725952Y-69285714D01*
X110678333Y-69238095D01*
X110583095Y-69190476D01*
X110487857Y-69190476D01*
X110392619Y-69238095D01*
X110345000Y-69285714D01*
X110297380Y-69380952D01*
X110297380Y-69619047D01*
X110345000Y-69761904D01*
X110297380Y-70095238D02*
X111297380Y-70333333D01*
X110583095Y-70523809D01*
X111297380Y-70714285D01*
X110297380Y-70952380D01*
X110297380Y-71238095D02*
X110297380Y-71857142D01*
X110678333Y-71523809D01*
X110678333Y-71666666D01*
X110725952Y-71761904D01*
X110773571Y-71809523D01*
X110868809Y-71857142D01*
X111106904Y-71857142D01*
X111202142Y-71809523D01*
X111249761Y-71761904D01*
X111297380Y-71666666D01*
X111297380Y-71380952D01*
X111249761Y-71285714D01*
X111202142Y-71238095D01*
X110297380Y-72476190D02*
X110297380Y-72571428D01*
X110345000Y-72666666D01*
X110392619Y-72714285D01*
X110487857Y-72761904D01*
X110678333Y-72809523D01*
X110916428Y-72809523D01*
X111106904Y-72761904D01*
X111202142Y-72714285D01*
X111249761Y-72666666D01*
X111297380Y-72571428D01*
X111297380Y-72476190D01*
X111249761Y-72380952D01*
X111202142Y-72333333D01*
X111106904Y-72285714D01*
X110916428Y-72238095D01*
X110678333Y-72238095D01*
X110487857Y-72285714D01*
X110392619Y-72333333D01*
X110345000Y-72380952D01*
X110297380Y-72476190D01*
X39809523Y-76559761D02*
X39666666Y-76607380D01*
X39428571Y-76607380D01*
X39333333Y-76559761D01*
X39285714Y-76512142D01*
X39238095Y-76416904D01*
X39238095Y-76321666D01*
X39285714Y-76226428D01*
X39333333Y-76178809D01*
X39428571Y-76131190D01*
X39619047Y-76083571D01*
X39714285Y-76035952D01*
X39761904Y-75988333D01*
X39809523Y-75893095D01*
X39809523Y-75797857D01*
X39761904Y-75702619D01*
X39714285Y-75655000D01*
X39619047Y-75607380D01*
X39380952Y-75607380D01*
X39238095Y-75655000D01*
X38904761Y-75607380D02*
X38666666Y-76607380D01*
X38476190Y-75893095D01*
X38285714Y-76607380D01*
X38047619Y-75607380D01*
X37142857Y-76607380D02*
X37714285Y-76607380D01*
X37428571Y-76607380D02*
X37428571Y-75607380D01*
X37523809Y-75750238D01*
X37619047Y-75845476D01*
X37714285Y-75893095D01*
X36285714Y-75940714D02*
X36285714Y-76607380D01*
X36523809Y-75559761D02*
X36761904Y-76274047D01*
X36142857Y-76274047D01*
X96809523Y-82559761D02*
X96666666Y-82607380D01*
X96428571Y-82607380D01*
X96333333Y-82559761D01*
X96285714Y-82512142D01*
X96238095Y-82416904D01*
X96238095Y-82321666D01*
X96285714Y-82226428D01*
X96333333Y-82178809D01*
X96428571Y-82131190D01*
X96619047Y-82083571D01*
X96714285Y-82035952D01*
X96761904Y-81988333D01*
X96809523Y-81893095D01*
X96809523Y-81797857D01*
X96761904Y-81702619D01*
X96714285Y-81655000D01*
X96619047Y-81607380D01*
X96380952Y-81607380D01*
X96238095Y-81655000D01*
X95904761Y-81607380D02*
X95666666Y-82607380D01*
X95476190Y-81893095D01*
X95285714Y-82607380D01*
X95047619Y-81607380D01*
X94714285Y-81702619D02*
X94666666Y-81655000D01*
X94571428Y-81607380D01*
X94333333Y-81607380D01*
X94238095Y-81655000D01*
X94190476Y-81702619D01*
X94142857Y-81797857D01*
X94142857Y-81893095D01*
X94190476Y-82035952D01*
X94761904Y-82607380D01*
X94142857Y-82607380D01*
X93666666Y-82607380D02*
X93476190Y-82607380D01*
X93380952Y-82559761D01*
X93333333Y-82512142D01*
X93238095Y-82369285D01*
X93190476Y-82178809D01*
X93190476Y-81797857D01*
X93238095Y-81702619D01*
X93285714Y-81655000D01*
X93380952Y-81607380D01*
X93571428Y-81607380D01*
X93666666Y-81655000D01*
X93714285Y-81702619D01*
X93761904Y-81797857D01*
X93761904Y-82035952D01*
X93714285Y-82131190D01*
X93666666Y-82178809D01*
X93571428Y-82226428D01*
X93380952Y-82226428D01*
X93285714Y-82178809D01*
X93238095Y-82131190D01*
X93190476Y-82035952D01*
X96809523Y-25559761D02*
X96666666Y-25607380D01*
X96428571Y-25607380D01*
X96333333Y-25559761D01*
X96285714Y-25512142D01*
X96238095Y-25416904D01*
X96238095Y-25321666D01*
X96285714Y-25226428D01*
X96333333Y-25178809D01*
X96428571Y-25131190D01*
X96619047Y-25083571D01*
X96714285Y-25035952D01*
X96761904Y-24988333D01*
X96809523Y-24893095D01*
X96809523Y-24797857D01*
X96761904Y-24702619D01*
X96714285Y-24655000D01*
X96619047Y-24607380D01*
X96380952Y-24607380D01*
X96238095Y-24655000D01*
X95904761Y-24607380D02*
X95666666Y-25607380D01*
X95476190Y-24893095D01*
X95285714Y-25607380D01*
X95047619Y-24607380D01*
X94714285Y-24702619D02*
X94666666Y-24655000D01*
X94571428Y-24607380D01*
X94333333Y-24607380D01*
X94238095Y-24655000D01*
X94190476Y-24702619D01*
X94142857Y-24797857D01*
X94142857Y-24893095D01*
X94190476Y-25035952D01*
X94761904Y-25607380D01*
X94142857Y-25607380D01*
X93285714Y-24607380D02*
X93476190Y-24607380D01*
X93571428Y-24655000D01*
X93619047Y-24702619D01*
X93714285Y-24845476D01*
X93761904Y-25035952D01*
X93761904Y-25416904D01*
X93714285Y-25512142D01*
X93666666Y-25559761D01*
X93571428Y-25607380D01*
X93380952Y-25607380D01*
X93285714Y-25559761D01*
X93238095Y-25512142D01*
X93190476Y-25416904D01*
X93190476Y-25178809D01*
X93238095Y-25083571D01*
X93285714Y-25035952D01*
X93380952Y-24988333D01*
X93571428Y-24988333D01*
X93666666Y-25035952D01*
X93714285Y-25083571D01*
X93761904Y-25178809D01*
X96809523Y-6559761D02*
X96666666Y-6607380D01*
X96428571Y-6607380D01*
X96333333Y-6559761D01*
X96285714Y-6512142D01*
X96238095Y-6416904D01*
X96238095Y-6321666D01*
X96285714Y-6226428D01*
X96333333Y-6178809D01*
X96428571Y-6131190D01*
X96619047Y-6083571D01*
X96714285Y-6035952D01*
X96761904Y-5988333D01*
X96809523Y-5893095D01*
X96809523Y-5797857D01*
X96761904Y-5702619D01*
X96714285Y-5655000D01*
X96619047Y-5607380D01*
X96380952Y-5607380D01*
X96238095Y-5655000D01*
X95904761Y-5607380D02*
X95666666Y-6607380D01*
X95476190Y-5893095D01*
X95285714Y-6607380D01*
X95047619Y-5607380D01*
X94714285Y-5702619D02*
X94666666Y-5655000D01*
X94571428Y-5607380D01*
X94333333Y-5607380D01*
X94238095Y-5655000D01*
X94190476Y-5702619D01*
X94142857Y-5797857D01*
X94142857Y-5893095D01*
X94190476Y-6035952D01*
X94761904Y-6607380D01*
X94142857Y-6607380D01*
X93238095Y-5607380D02*
X93714285Y-5607380D01*
X93761904Y-6083571D01*
X93714285Y-6035952D01*
X93619047Y-5988333D01*
X93380952Y-5988333D01*
X93285714Y-6035952D01*
X93238095Y-6083571D01*
X93190476Y-6178809D01*
X93190476Y-6416904D01*
X93238095Y-6512142D01*
X93285714Y-6559761D01*
X93380952Y-6607380D01*
X93619047Y-6607380D01*
X93714285Y-6559761D01*
X93761904Y-6512142D01*
X77809523Y-77559761D02*
X77666666Y-77607380D01*
X77428571Y-77607380D01*
X77333333Y-77559761D01*
X77285714Y-77512142D01*
X77238095Y-77416904D01*
X77238095Y-77321666D01*
X77285714Y-77226428D01*
X77333333Y-77178809D01*
X77428571Y-77131190D01*
X77619047Y-77083571D01*
X77714285Y-77035952D01*
X77761904Y-76988333D01*
X77809523Y-76893095D01*
X77809523Y-76797857D01*
X77761904Y-76702619D01*
X77714285Y-76655000D01*
X77619047Y-76607380D01*
X77380952Y-76607380D01*
X77238095Y-76655000D01*
X76904761Y-76607380D02*
X76666666Y-77607380D01*
X76476190Y-76893095D01*
X76285714Y-77607380D01*
X76047619Y-76607380D01*
X75714285Y-76702619D02*
X75666666Y-76655000D01*
X75571428Y-76607380D01*
X75333333Y-76607380D01*
X75238095Y-76655000D01*
X75190476Y-76702619D01*
X75142857Y-76797857D01*
X75142857Y-76893095D01*
X75190476Y-77035952D01*
X75761904Y-77607380D01*
X75142857Y-77607380D01*
X74285714Y-76940714D02*
X74285714Y-77607380D01*
X74523809Y-76559761D02*
X74761904Y-77274047D01*
X74142857Y-77274047D01*
X77809523Y-58559761D02*
X77666666Y-58607380D01*
X77428571Y-58607380D01*
X77333333Y-58559761D01*
X77285714Y-58512142D01*
X77238095Y-58416904D01*
X77238095Y-58321666D01*
X77285714Y-58226428D01*
X77333333Y-58178809D01*
X77428571Y-58131190D01*
X77619047Y-58083571D01*
X77714285Y-58035952D01*
X77761904Y-57988333D01*
X77809523Y-57893095D01*
X77809523Y-57797857D01*
X77761904Y-57702619D01*
X77714285Y-57655000D01*
X77619047Y-57607380D01*
X77380952Y-57607380D01*
X77238095Y-57655000D01*
X76904761Y-57607380D02*
X76666666Y-58607380D01*
X76476190Y-57893095D01*
X76285714Y-58607380D01*
X76047619Y-57607380D01*
X75714285Y-57702619D02*
X75666666Y-57655000D01*
X75571428Y-57607380D01*
X75333333Y-57607380D01*
X75238095Y-57655000D01*
X75190476Y-57702619D01*
X75142857Y-57797857D01*
X75142857Y-57893095D01*
X75190476Y-58035952D01*
X75761904Y-58607380D01*
X75142857Y-58607380D01*
X74809523Y-57607380D02*
X74190476Y-57607380D01*
X74523809Y-57988333D01*
X74380952Y-57988333D01*
X74285714Y-58035952D01*
X74238095Y-58083571D01*
X74190476Y-58178809D01*
X74190476Y-58416904D01*
X74238095Y-58512142D01*
X74285714Y-58559761D01*
X74380952Y-58607380D01*
X74666666Y-58607380D01*
X74761904Y-58559761D01*
X74809523Y-58512142D01*
X77809523Y-39559761D02*
X77666666Y-39607380D01*
X77428571Y-39607380D01*
X77333333Y-39559761D01*
X77285714Y-39512142D01*
X77238095Y-39416904D01*
X77238095Y-39321666D01*
X77285714Y-39226428D01*
X77333333Y-39178809D01*
X77428571Y-39131190D01*
X77619047Y-39083571D01*
X77714285Y-39035952D01*
X77761904Y-38988333D01*
X77809523Y-38893095D01*
X77809523Y-38797857D01*
X77761904Y-38702619D01*
X77714285Y-38655000D01*
X77619047Y-38607380D01*
X77380952Y-38607380D01*
X77238095Y-38655000D01*
X76904761Y-38607380D02*
X76666666Y-39607380D01*
X76476190Y-38893095D01*
X76285714Y-39607380D01*
X76047619Y-38607380D01*
X75714285Y-38702619D02*
X75666666Y-38655000D01*
X75571428Y-38607380D01*
X75333333Y-38607380D01*
X75238095Y-38655000D01*
X75190476Y-38702619D01*
X75142857Y-38797857D01*
X75142857Y-38893095D01*
X75190476Y-39035952D01*
X75761904Y-39607380D01*
X75142857Y-39607380D01*
X74761904Y-38702619D02*
X74714285Y-38655000D01*
X74619047Y-38607380D01*
X74380952Y-38607380D01*
X74285714Y-38655000D01*
X74238095Y-38702619D01*
X74190476Y-38797857D01*
X74190476Y-38893095D01*
X74238095Y-39035952D01*
X74809523Y-39607380D01*
X74190476Y-39607380D01*
X77809523Y-20559761D02*
X77666666Y-20607380D01*
X77428571Y-20607380D01*
X77333333Y-20559761D01*
X77285714Y-20512142D01*
X77238095Y-20416904D01*
X77238095Y-20321666D01*
X77285714Y-20226428D01*
X77333333Y-20178809D01*
X77428571Y-20131190D01*
X77619047Y-20083571D01*
X77714285Y-20035952D01*
X77761904Y-19988333D01*
X77809523Y-19893095D01*
X77809523Y-19797857D01*
X77761904Y-19702619D01*
X77714285Y-19655000D01*
X77619047Y-19607380D01*
X77380952Y-19607380D01*
X77238095Y-19655000D01*
X76904761Y-19607380D02*
X76666666Y-20607380D01*
X76476190Y-19893095D01*
X76285714Y-20607380D01*
X76047619Y-19607380D01*
X75714285Y-19702619D02*
X75666666Y-19655000D01*
X75571428Y-19607380D01*
X75333333Y-19607380D01*
X75238095Y-19655000D01*
X75190476Y-19702619D01*
X75142857Y-19797857D01*
X75142857Y-19893095D01*
X75190476Y-20035952D01*
X75761904Y-20607380D01*
X75142857Y-20607380D01*
X74190476Y-20607380D02*
X74761904Y-20607380D01*
X74476190Y-20607380D02*
X74476190Y-19607380D01*
X74571428Y-19750238D01*
X74666666Y-19845476D01*
X74761904Y-19893095D01*
X77809523Y-1559761D02*
X77666666Y-1607380D01*
X77428571Y-1607380D01*
X77333333Y-1559761D01*
X77285714Y-1512142D01*
X77238095Y-1416904D01*
X77238095Y-1321666D01*
X77285714Y-1226428D01*
X77333333Y-1178809D01*
X77428571Y-1131190D01*
X77619047Y-1083571D01*
X77714285Y-1035952D01*
X77761904Y-988333D01*
X77809523Y-893095D01*
X77809523Y-797857D01*
X77761904Y-702619D01*
X77714285Y-655000D01*
X77619047Y-607380D01*
X77380952Y-607380D01*
X77238095Y-655000D01*
X76904761Y-607380D02*
X76666666Y-1607380D01*
X76476190Y-893095D01*
X76285714Y-1607380D01*
X76047619Y-607380D01*
X75714285Y-702619D02*
X75666666Y-655000D01*
X75571428Y-607380D01*
X75333333Y-607380D01*
X75238095Y-655000D01*
X75190476Y-702619D01*
X75142857Y-797857D01*
X75142857Y-893095D01*
X75190476Y-1035952D01*
X75761904Y-1607380D01*
X75142857Y-1607380D01*
X74523809Y-607380D02*
X74428571Y-607380D01*
X74333333Y-655000D01*
X74285714Y-702619D01*
X74238095Y-797857D01*
X74190476Y-988333D01*
X74190476Y-1226428D01*
X74238095Y-1416904D01*
X74285714Y-1512142D01*
X74333333Y-1559761D01*
X74428571Y-1607380D01*
X74523809Y-1607380D01*
X74619047Y-1559761D01*
X74666666Y-1512142D01*
X74714285Y-1416904D01*
X74761904Y-1226428D01*
X74761904Y-988333D01*
X74714285Y-797857D01*
X74666666Y-702619D01*
X74619047Y-655000D01*
X74523809Y-607380D01*
X58809523Y-71559761D02*
X58666666Y-71607380D01*
X58428571Y-71607380D01*
X58333333Y-71559761D01*
X58285714Y-71512142D01*
X58238095Y-71416904D01*
X58238095Y-71321666D01*
X58285714Y-71226428D01*
X58333333Y-71178809D01*
X58428571Y-71131190D01*
X58619047Y-71083571D01*
X58714285Y-71035952D01*
X58761904Y-70988333D01*
X58809523Y-70893095D01*
X58809523Y-70797857D01*
X58761904Y-70702619D01*
X58714285Y-70655000D01*
X58619047Y-70607380D01*
X58380952Y-70607380D01*
X58238095Y-70655000D01*
X57904761Y-70607380D02*
X57666666Y-71607380D01*
X57476190Y-70893095D01*
X57285714Y-71607380D01*
X57047619Y-70607380D01*
X56142857Y-71607380D02*
X56714285Y-71607380D01*
X56428571Y-71607380D02*
X56428571Y-70607380D01*
X56523809Y-70750238D01*
X56619047Y-70845476D01*
X56714285Y-70893095D01*
X55666666Y-71607380D02*
X55476190Y-71607380D01*
X55380952Y-71559761D01*
X55333333Y-71512142D01*
X55238095Y-71369285D01*
X55190476Y-71178809D01*
X55190476Y-70797857D01*
X55238095Y-70702619D01*
X55285714Y-70655000D01*
X55380952Y-70607380D01*
X55571428Y-70607380D01*
X55666666Y-70655000D01*
X55714285Y-70702619D01*
X55761904Y-70797857D01*
X55761904Y-71035952D01*
X55714285Y-71131190D01*
X55666666Y-71178809D01*
X55571428Y-71226428D01*
X55380952Y-71226428D01*
X55285714Y-71178809D01*
X55238095Y-71131190D01*
X55190476Y-71035952D01*
X58809523Y-52559761D02*
X58666666Y-52607380D01*
X58428571Y-52607380D01*
X58333333Y-52559761D01*
X58285714Y-52512142D01*
X58238095Y-52416904D01*
X58238095Y-52321666D01*
X58285714Y-52226428D01*
X58333333Y-52178809D01*
X58428571Y-52131190D01*
X58619047Y-52083571D01*
X58714285Y-52035952D01*
X58761904Y-51988333D01*
X58809523Y-51893095D01*
X58809523Y-51797857D01*
X58761904Y-51702619D01*
X58714285Y-51655000D01*
X58619047Y-51607380D01*
X58380952Y-51607380D01*
X58238095Y-51655000D01*
X57904761Y-51607380D02*
X57666666Y-52607380D01*
X57476190Y-51893095D01*
X57285714Y-52607380D01*
X57047619Y-51607380D01*
X56142857Y-52607380D02*
X56714285Y-52607380D01*
X56428571Y-52607380D02*
X56428571Y-51607380D01*
X56523809Y-51750238D01*
X56619047Y-51845476D01*
X56714285Y-51893095D01*
X55571428Y-52035952D02*
X55666666Y-51988333D01*
X55714285Y-51940714D01*
X55761904Y-51845476D01*
X55761904Y-51797857D01*
X55714285Y-51702619D01*
X55666666Y-51655000D01*
X55571428Y-51607380D01*
X55380952Y-51607380D01*
X55285714Y-51655000D01*
X55238095Y-51702619D01*
X55190476Y-51797857D01*
X55190476Y-51845476D01*
X55238095Y-51940714D01*
X55285714Y-51988333D01*
X55380952Y-52035952D01*
X55571428Y-52035952D01*
X55666666Y-52083571D01*
X55714285Y-52131190D01*
X55761904Y-52226428D01*
X55761904Y-52416904D01*
X55714285Y-52512142D01*
X55666666Y-52559761D01*
X55571428Y-52607380D01*
X55380952Y-52607380D01*
X55285714Y-52559761D01*
X55238095Y-52512142D01*
X55190476Y-52416904D01*
X55190476Y-52226428D01*
X55238095Y-52131190D01*
X55285714Y-52083571D01*
X55380952Y-52035952D01*
X58809523Y-33559761D02*
X58666666Y-33607380D01*
X58428571Y-33607380D01*
X58333333Y-33559761D01*
X58285714Y-33512142D01*
X58238095Y-33416904D01*
X58238095Y-33321666D01*
X58285714Y-33226428D01*
X58333333Y-33178809D01*
X58428571Y-33131190D01*
X58619047Y-33083571D01*
X58714285Y-33035952D01*
X58761904Y-32988333D01*
X58809523Y-32893095D01*
X58809523Y-32797857D01*
X58761904Y-32702619D01*
X58714285Y-32655000D01*
X58619047Y-32607380D01*
X58380952Y-32607380D01*
X58238095Y-32655000D01*
X57904761Y-32607380D02*
X57666666Y-33607380D01*
X57476190Y-32893095D01*
X57285714Y-33607380D01*
X57047619Y-32607380D01*
X56142857Y-33607380D02*
X56714285Y-33607380D01*
X56428571Y-33607380D02*
X56428571Y-32607380D01*
X56523809Y-32750238D01*
X56619047Y-32845476D01*
X56714285Y-32893095D01*
X55809523Y-32607380D02*
X55142857Y-32607380D01*
X55571428Y-33607380D01*
X58809523Y-14559761D02*
X58666666Y-14607380D01*
X58428571Y-14607380D01*
X58333333Y-14559761D01*
X58285714Y-14512142D01*
X58238095Y-14416904D01*
X58238095Y-14321666D01*
X58285714Y-14226428D01*
X58333333Y-14178809D01*
X58428571Y-14131190D01*
X58619047Y-14083571D01*
X58714285Y-14035952D01*
X58761904Y-13988333D01*
X58809523Y-13893095D01*
X58809523Y-13797857D01*
X58761904Y-13702619D01*
X58714285Y-13655000D01*
X58619047Y-13607380D01*
X58380952Y-13607380D01*
X58238095Y-13655000D01*
X57904761Y-13607380D02*
X57666666Y-14607380D01*
X57476190Y-13893095D01*
X57285714Y-14607380D01*
X57047619Y-13607380D01*
X56142857Y-14607380D02*
X56714285Y-14607380D01*
X56428571Y-14607380D02*
X56428571Y-13607380D01*
X56523809Y-13750238D01*
X56619047Y-13845476D01*
X56714285Y-13893095D01*
X55285714Y-13607380D02*
X55476190Y-13607380D01*
X55571428Y-13655000D01*
X55619047Y-13702619D01*
X55714285Y-13845476D01*
X55761904Y-14035952D01*
X55761904Y-14416904D01*
X55714285Y-14512142D01*
X55666666Y-14559761D01*
X55571428Y-14607380D01*
X55380952Y-14607380D01*
X55285714Y-14559761D01*
X55238095Y-14512142D01*
X55190476Y-14416904D01*
X55190476Y-14178809D01*
X55238095Y-14083571D01*
X55285714Y-14035952D01*
X55380952Y-13988333D01*
X55571428Y-13988333D01*
X55666666Y-14035952D01*
X55714285Y-14083571D01*
X55761904Y-14178809D01*
X39809523Y-57559761D02*
X39666666Y-57607380D01*
X39428571Y-57607380D01*
X39333333Y-57559761D01*
X39285714Y-57512142D01*
X39238095Y-57416904D01*
X39238095Y-57321666D01*
X39285714Y-57226428D01*
X39333333Y-57178809D01*
X39428571Y-57131190D01*
X39619047Y-57083571D01*
X39714285Y-57035952D01*
X39761904Y-56988333D01*
X39809523Y-56893095D01*
X39809523Y-56797857D01*
X39761904Y-56702619D01*
X39714285Y-56655000D01*
X39619047Y-56607380D01*
X39380952Y-56607380D01*
X39238095Y-56655000D01*
X38904761Y-56607380D02*
X38666666Y-57607380D01*
X38476190Y-56893095D01*
X38285714Y-57607380D01*
X38047619Y-56607380D01*
X37142857Y-57607380D02*
X37714285Y-57607380D01*
X37428571Y-57607380D02*
X37428571Y-56607380D01*
X37523809Y-56750238D01*
X37619047Y-56845476D01*
X37714285Y-56893095D01*
X36809523Y-56607380D02*
X36190476Y-56607380D01*
X36523809Y-56988333D01*
X36380952Y-56988333D01*
X36285714Y-57035952D01*
X36238095Y-57083571D01*
X36190476Y-57178809D01*
X36190476Y-57416904D01*
X36238095Y-57512142D01*
X36285714Y-57559761D01*
X36380952Y-57607380D01*
X36666666Y-57607380D01*
X36761904Y-57559761D01*
X36809523Y-57512142D01*
X39809523Y-38559761D02*
X39666666Y-38607380D01*
X39428571Y-38607380D01*
X39333333Y-38559761D01*
X39285714Y-38512142D01*
X39238095Y-38416904D01*
X39238095Y-38321666D01*
X39285714Y-38226428D01*
X39333333Y-38178809D01*
X39428571Y-38131190D01*
X39619047Y-38083571D01*
X39714285Y-38035952D01*
X39761904Y-37988333D01*
X39809523Y-37893095D01*
X39809523Y-37797857D01*
X39761904Y-37702619D01*
X39714285Y-37655000D01*
X39619047Y-37607380D01*
X39380952Y-37607380D01*
X39238095Y-37655000D01*
X38904761Y-37607380D02*
X38666666Y-38607380D01*
X38476190Y-37893095D01*
X38285714Y-38607380D01*
X38047619Y-37607380D01*
X37142857Y-38607380D02*
X37714285Y-38607380D01*
X37428571Y-38607380D02*
X37428571Y-37607380D01*
X37523809Y-37750238D01*
X37619047Y-37845476D01*
X37714285Y-37893095D01*
X36761904Y-37702619D02*
X36714285Y-37655000D01*
X36619047Y-37607380D01*
X36380952Y-37607380D01*
X36285714Y-37655000D01*
X36238095Y-37702619D01*
X36190476Y-37797857D01*
X36190476Y-37893095D01*
X36238095Y-38035952D01*
X36809523Y-38607380D01*
X36190476Y-38607380D01*
X39809523Y-19559761D02*
X39666666Y-19607380D01*
X39428571Y-19607380D01*
X39333333Y-19559761D01*
X39285714Y-19512142D01*
X39238095Y-19416904D01*
X39238095Y-19321666D01*
X39285714Y-19226428D01*
X39333333Y-19178809D01*
X39428571Y-19131190D01*
X39619047Y-19083571D01*
X39714285Y-19035952D01*
X39761904Y-18988333D01*
X39809523Y-18893095D01*
X39809523Y-18797857D01*
X39761904Y-18702619D01*
X39714285Y-18655000D01*
X39619047Y-18607380D01*
X39380952Y-18607380D01*
X39238095Y-18655000D01*
X38904761Y-18607380D02*
X38666666Y-19607380D01*
X38476190Y-18893095D01*
X38285714Y-19607380D01*
X38047619Y-18607380D01*
X37142857Y-19607380D02*
X37714285Y-19607380D01*
X37428571Y-19607380D02*
X37428571Y-18607380D01*
X37523809Y-18750238D01*
X37619047Y-18845476D01*
X37714285Y-18893095D01*
X36190476Y-19607380D02*
X36761904Y-19607380D01*
X36476190Y-19607380D02*
X36476190Y-18607380D01*
X36571428Y-18750238D01*
X36666666Y-18845476D01*
X36761904Y-18893095D01*
X39809523Y-559761D02*
X39666666Y-607380D01*
X39428571Y-607380D01*
X39333333Y-559761D01*
X39285714Y-512142D01*
X39238095Y-416904D01*
X39238095Y-321666D01*
X39285714Y-226428D01*
X39333333Y-178809D01*
X39428571Y-131190D01*
X39619047Y-83571D01*
X39714285Y-35952D01*
X39761904Y11666D01*
X39809523Y106904D01*
X39809523Y202142D01*
X39761904Y297380D01*
X39714285Y345000D01*
X39619047Y392619D01*
X39380952Y392619D01*
X39238095Y345000D01*
X38904761Y392619D02*
X38666666Y-607380D01*
X38476190Y106904D01*
X38285714Y-607380D01*
X38047619Y392619D01*
X37142857Y-607380D02*
X37714285Y-607380D01*
X37428571Y-607380D02*
X37428571Y392619D01*
X37523809Y249761D01*
X37619047Y154523D01*
X37714285Y106904D01*
X36523809Y392619D02*
X36428571Y392619D01*
X36333333Y345000D01*
X36285714Y297380D01*
X36238095Y202142D01*
X36190476Y11666D01*
X36190476Y-226428D01*
X36238095Y-416904D01*
X36285714Y-512142D01*
X36333333Y-559761D01*
X36428571Y-607380D01*
X36523809Y-607380D01*
X36619047Y-559761D01*
X36666666Y-512142D01*
X36714285Y-416904D01*
X36761904Y-226428D01*
X36761904Y11666D01*
X36714285Y202142D01*
X36666666Y297380D01*
X36619047Y345000D01*
X36523809Y392619D01*
X20333333Y-79559761D02*
X20190476Y-79607380D01*
X19952380Y-79607380D01*
X19857142Y-79559761D01*
X19809523Y-79512142D01*
X19761904Y-79416904D01*
X19761904Y-79321666D01*
X19809523Y-79226428D01*
X19857142Y-79178809D01*
X19952380Y-79131190D01*
X20142857Y-79083571D01*
X20238095Y-79035952D01*
X20285714Y-78988333D01*
X20333333Y-78893095D01*
X20333333Y-78797857D01*
X20285714Y-78702619D01*
X20238095Y-78655000D01*
X20142857Y-78607380D01*
X19904761Y-78607380D01*
X19761904Y-78655000D01*
X19428571Y-78607380D02*
X19190476Y-79607380D01*
X19000000Y-78893095D01*
X18809523Y-79607380D01*
X18571428Y-78607380D01*
X18142857Y-79607380D02*
X17952380Y-79607380D01*
X17857142Y-79559761D01*
X17809523Y-79512142D01*
X17714285Y-79369285D01*
X17666666Y-79178809D01*
X17666666Y-78797857D01*
X17714285Y-78702619D01*
X17761904Y-78655000D01*
X17857142Y-78607380D01*
X18047619Y-78607380D01*
X18142857Y-78655000D01*
X18190476Y-78702619D01*
X18238095Y-78797857D01*
X18238095Y-79035952D01*
X18190476Y-79131190D01*
X18142857Y-79178809D01*
X18047619Y-79226428D01*
X17857142Y-79226428D01*
X17761904Y-79178809D01*
X17714285Y-79131190D01*
X17666666Y-79035952D01*
X20333333Y-60559761D02*
X20190476Y-60607380D01*
X19952380Y-60607380D01*
X19857142Y-60559761D01*
X19809523Y-60512142D01*
X19761904Y-60416904D01*
X19761904Y-60321666D01*
X19809523Y-60226428D01*
X19857142Y-60178809D01*
X19952380Y-60131190D01*
X20142857Y-60083571D01*
X20238095Y-60035952D01*
X20285714Y-59988333D01*
X20333333Y-59893095D01*
X20333333Y-59797857D01*
X20285714Y-59702619D01*
X20238095Y-59655000D01*
X20142857Y-59607380D01*
X19904761Y-59607380D01*
X19761904Y-59655000D01*
X19428571Y-59607380D02*
X19190476Y-60607380D01*
X19000000Y-59893095D01*
X18809523Y-60607380D01*
X18571428Y-59607380D01*
X18047619Y-60035952D02*
X18142857Y-59988333D01*
X18190476Y-59940714D01*
X18238095Y-59845476D01*
X18238095Y-59797857D01*
X18190476Y-59702619D01*
X18142857Y-59655000D01*
X18047619Y-59607380D01*
X17857142Y-59607380D01*
X17761904Y-59655000D01*
X17714285Y-59702619D01*
X17666666Y-59797857D01*
X17666666Y-59845476D01*
X17714285Y-59940714D01*
X17761904Y-59988333D01*
X17857142Y-60035952D01*
X18047619Y-60035952D01*
X18142857Y-60083571D01*
X18190476Y-60131190D01*
X18238095Y-60226428D01*
X18238095Y-60416904D01*
X18190476Y-60512142D01*
X18142857Y-60559761D01*
X18047619Y-60607380D01*
X17857142Y-60607380D01*
X17761904Y-60559761D01*
X17714285Y-60512142D01*
X17666666Y-60416904D01*
X17666666Y-60226428D01*
X17714285Y-60131190D01*
X17761904Y-60083571D01*
X17857142Y-60035952D01*
X20333333Y-41559761D02*
X20190476Y-41607380D01*
X19952380Y-41607380D01*
X19857142Y-41559761D01*
X19809523Y-41512142D01*
X19761904Y-41416904D01*
X19761904Y-41321666D01*
X19809523Y-41226428D01*
X19857142Y-41178809D01*
X19952380Y-41131190D01*
X20142857Y-41083571D01*
X20238095Y-41035952D01*
X20285714Y-40988333D01*
X20333333Y-40893095D01*
X20333333Y-40797857D01*
X20285714Y-40702619D01*
X20238095Y-40655000D01*
X20142857Y-40607380D01*
X19904761Y-40607380D01*
X19761904Y-40655000D01*
X19428571Y-40607380D02*
X19190476Y-41607380D01*
X19000000Y-40893095D01*
X18809523Y-41607380D01*
X18571428Y-40607380D01*
X18285714Y-40607380D02*
X17619047Y-40607380D01*
X18047619Y-41607380D01*
X20333333Y-22559761D02*
X20190476Y-22607380D01*
X19952380Y-22607380D01*
X19857142Y-22559761D01*
X19809523Y-22512142D01*
X19761904Y-22416904D01*
X19761904Y-22321666D01*
X19809523Y-22226428D01*
X19857142Y-22178809D01*
X19952380Y-22131190D01*
X20142857Y-22083571D01*
X20238095Y-22035952D01*
X20285714Y-21988333D01*
X20333333Y-21893095D01*
X20333333Y-21797857D01*
X20285714Y-21702619D01*
X20238095Y-21655000D01*
X20142857Y-21607380D01*
X19904761Y-21607380D01*
X19761904Y-21655000D01*
X19428571Y-21607380D02*
X19190476Y-22607380D01*
X19000000Y-21893095D01*
X18809523Y-22607380D01*
X18571428Y-21607380D01*
X17761904Y-21607380D02*
X17952380Y-21607380D01*
X18047619Y-21655000D01*
X18095238Y-21702619D01*
X18190476Y-21845476D01*
X18238095Y-22035952D01*
X18238095Y-22416904D01*
X18190476Y-22512142D01*
X18142857Y-22559761D01*
X18047619Y-22607380D01*
X17857142Y-22607380D01*
X17761904Y-22559761D01*
X17714285Y-22512142D01*
X17666666Y-22416904D01*
X17666666Y-22178809D01*
X17714285Y-22083571D01*
X17761904Y-22035952D01*
X17857142Y-21988333D01*
X18047619Y-21988333D01*
X18142857Y-22035952D01*
X18190476Y-22083571D01*
X18238095Y-22178809D01*
X20333333Y-3559761D02*
X20190476Y-3607380D01*
X19952380Y-3607380D01*
X19857142Y-3559761D01*
X19809523Y-3512142D01*
X19761904Y-3416904D01*
X19761904Y-3321666D01*
X19809523Y-3226428D01*
X19857142Y-3178809D01*
X19952380Y-3131190D01*
X20142857Y-3083571D01*
X20238095Y-3035952D01*
X20285714Y-2988333D01*
X20333333Y-2893095D01*
X20333333Y-2797857D01*
X20285714Y-2702619D01*
X20238095Y-2655000D01*
X20142857Y-2607380D01*
X19904761Y-2607380D01*
X19761904Y-2655000D01*
X19428571Y-2607380D02*
X19190476Y-3607380D01*
X19000000Y-2893095D01*
X18809523Y-3607380D01*
X18571428Y-2607380D01*
X17714285Y-2607380D02*
X18190476Y-2607380D01*
X18238095Y-3083571D01*
X18190476Y-3035952D01*
X18095238Y-2988333D01*
X17857142Y-2988333D01*
X17761904Y-3035952D01*
X17714285Y-3083571D01*
X17666666Y-3178809D01*
X17666666Y-3416904D01*
X17714285Y-3512142D01*
X17761904Y-3559761D01*
X17857142Y-3607380D01*
X18095238Y-3607380D01*
X18190476Y-3559761D01*
X18238095Y-3512142D01*
X58809523Y4440238D02*
X58666666Y4392619D01*
X58428571Y4392619D01*
X58333333Y4440238D01*
X58285714Y4487857D01*
X58238095Y4583095D01*
X58238095Y4678333D01*
X58285714Y4773571D01*
X58333333Y4821190D01*
X58428571Y4868809D01*
X58619047Y4916428D01*
X58714285Y4964047D01*
X58761904Y5011666D01*
X58809523Y5106904D01*
X58809523Y5202142D01*
X58761904Y5297380D01*
X58714285Y5345000D01*
X58619047Y5392619D01*
X58380952Y5392619D01*
X58238095Y5345000D01*
X57904761Y5392619D02*
X57666666Y4392619D01*
X57476190Y5106904D01*
X57285714Y4392619D01*
X57047619Y5392619D01*
X56142857Y4392619D02*
X56714285Y4392619D01*
X56428571Y4392619D02*
X56428571Y5392619D01*
X56523809Y5249761D01*
X56619047Y5154523D01*
X56714285Y5106904D01*
X55238095Y5392619D02*
X55714285Y5392619D01*
X55761904Y4916428D01*
X55714285Y4964047D01*
X55619047Y5011666D01*
X55380952Y5011666D01*
X55285714Y4964047D01*
X55238095Y4916428D01*
X55190476Y4821190D01*
X55190476Y4583095D01*
X55238095Y4487857D01*
X55285714Y4440238D01*
X55380952Y4392619D01*
X55619047Y4392619D01*
X55714285Y4440238D01*
X55761904Y4487857D01*
X1333333Y-79559761D02*
X1190476Y-79607380D01*
X952380Y-79607380D01*
X857142Y-79559761D01*
X809523Y-79512142D01*
X761904Y-79416904D01*
X761904Y-79321666D01*
X809523Y-79226428D01*
X857142Y-79178809D01*
X952380Y-79131190D01*
X1142857Y-79083571D01*
X1238095Y-79035952D01*
X1285714Y-78988333D01*
X1333333Y-78893095D01*
X1333333Y-78797857D01*
X1285714Y-78702619D01*
X1238095Y-78655000D01*
X1142857Y-78607380D01*
X904761Y-78607380D01*
X761904Y-78655000D01*
X428571Y-78607380D02*
X190476Y-79607380D01*
X0Y-78893095D01*
X-190476Y-79607380D01*
X-428571Y-78607380D01*
X-1238095Y-78940714D02*
X-1238095Y-79607380D01*
X-999999Y-78559761D02*
X-761904Y-79274047D01*
X-1380952Y-79274047D01*
X1333333Y-60559761D02*
X1190476Y-60607380D01*
X952380Y-60607380D01*
X857142Y-60559761D01*
X809523Y-60512142D01*
X761904Y-60416904D01*
X761904Y-60321666D01*
X809523Y-60226428D01*
X857142Y-60178809D01*
X952380Y-60131190D01*
X1142857Y-60083571D01*
X1238095Y-60035952D01*
X1285714Y-59988333D01*
X1333333Y-59893095D01*
X1333333Y-59797857D01*
X1285714Y-59702619D01*
X1238095Y-59655000D01*
X1142857Y-59607380D01*
X904761Y-59607380D01*
X761904Y-59655000D01*
X428571Y-59607380D02*
X190476Y-60607380D01*
X0Y-59893095D01*
X-190476Y-60607380D01*
X-428571Y-59607380D01*
X-714285Y-59607380D02*
X-1333333Y-59607380D01*
X-999999Y-59988333D01*
X-1142857Y-59988333D01*
X-1238095Y-60035952D01*
X-1285714Y-60083571D01*
X-1333333Y-60178809D01*
X-1333333Y-60416904D01*
X-1285714Y-60512142D01*
X-1238095Y-60559761D01*
X-1142857Y-60607380D01*
X-857142Y-60607380D01*
X-761904Y-60559761D01*
X-714285Y-60512142D01*
X1333333Y-41559761D02*
X1190476Y-41607380D01*
X952380Y-41607380D01*
X857142Y-41559761D01*
X809523Y-41512142D01*
X761904Y-41416904D01*
X761904Y-41321666D01*
X809523Y-41226428D01*
X857142Y-41178809D01*
X952380Y-41131190D01*
X1142857Y-41083571D01*
X1238095Y-41035952D01*
X1285714Y-40988333D01*
X1333333Y-40893095D01*
X1333333Y-40797857D01*
X1285714Y-40702619D01*
X1238095Y-40655000D01*
X1142857Y-40607380D01*
X904761Y-40607380D01*
X761904Y-40655000D01*
X428571Y-40607380D02*
X190476Y-41607380D01*
X0Y-40893095D01*
X-190476Y-41607380D01*
X-428571Y-40607380D01*
X-761904Y-40702619D02*
X-809523Y-40655000D01*
X-904761Y-40607380D01*
X-1142857Y-40607380D01*
X-1238095Y-40655000D01*
X-1285714Y-40702619D01*
X-1333333Y-40797857D01*
X-1333333Y-40893095D01*
X-1285714Y-41035952D01*
X-714285Y-41607380D01*
X-1333333Y-41607380D01*
X1333333Y-22559761D02*
X1190476Y-22607380D01*
X952380Y-22607380D01*
X857142Y-22559761D01*
X809523Y-22512142D01*
X761904Y-22416904D01*
X761904Y-22321666D01*
X809523Y-22226428D01*
X857142Y-22178809D01*
X952380Y-22131190D01*
X1142857Y-22083571D01*
X1238095Y-22035952D01*
X1285714Y-21988333D01*
X1333333Y-21893095D01*
X1333333Y-21797857D01*
X1285714Y-21702619D01*
X1238095Y-21655000D01*
X1142857Y-21607380D01*
X904761Y-21607380D01*
X761904Y-21655000D01*
X428571Y-21607380D02*
X190476Y-22607380D01*
X0Y-21893095D01*
X-190476Y-22607380D01*
X-428571Y-21607380D01*
X-1333333Y-22607380D02*
X-761904Y-22607380D01*
X-1047619Y-22607380D02*
X-1047619Y-21607380D01*
X-952380Y-21750238D01*
X-857142Y-21845476D01*
X-761904Y-21893095D01*
X1333333Y-3559761D02*
X1190476Y-3607380D01*
X952380Y-3607380D01*
X857142Y-3559761D01*
X809523Y-3512142D01*
X761904Y-3416904D01*
X761904Y-3321666D01*
X809523Y-3226428D01*
X857142Y-3178809D01*
X952380Y-3131190D01*
X1142857Y-3083571D01*
X1238095Y-3035952D01*
X1285714Y-2988333D01*
X1333333Y-2893095D01*
X1333333Y-2797857D01*
X1285714Y-2702619D01*
X1238095Y-2655000D01*
X1142857Y-2607380D01*
X904761Y-2607380D01*
X761904Y-2655000D01*
X428571Y-2607380D02*
X190476Y-3607380D01*
X0Y-2893095D01*
X-190476Y-3607380D01*
X-428571Y-2607380D01*
X-999999Y-2607380D02*
X-1095238Y-2607380D01*
X-1190476Y-2655000D01*
X-1238095Y-2702619D01*
X-1285714Y-2797857D01*
X-1333333Y-2988333D01*
X-1333333Y-3226428D01*
X-1285714Y-3416904D01*
X-1238095Y-3512142D01*
X-1190476Y-3559761D01*
X-1095238Y-3607380D01*
X-999999Y-3607380D01*
X-904761Y-3559761D01*
X-857142Y-3512142D01*
X-809523Y-3416904D01*
X-761904Y-3226428D01*
X-761904Y-2988333D01*
X-809523Y-2797857D01*
X-857142Y-2702619D01*
X-904761Y-2655000D01*
X-999999Y-2607380D01*
M02*
