  0
SECTION
  2
HEADER
  9
$ANGBASE
  50
0.0
  9
$ANGDIR
  70
1
  9
$MEASUREMENT
  70
1
  0
ENDSEC
  0
SECTION
  2
TABLES
  0
TABLE
  2
LTYPE
  70
4
  0
LTYPE
  5
40F
  2
CONTINUOUS
  70
0
  3
Solid line
  72
65
  73
0
  40
0.0
  0
LTYPE
  5
410
  2
DASHDOT
 70
0
  3
Dash Dot ____ _ ____ _
 72
65
 73
4
 40
2.0
 49
1.25
 49
-0.25
 49
0.25
 49
-0.25
  0
LTYPE
  5
411
  2
DASHED
 70
0
  3
Dashed __ __ __ __ __
 72
65
 73
2
 40
0.75
 49
0.5
 49
-0.25
  0
LTYPE
  5
43B
  2
DOTTED
 70
0
  3
Dotted .  .  .  .
 72
65
 73
2
 40
0.2
 49
0.0
 49
-0.2
  0
ENDTAB
  0
TABLE
  2
STYLE
  70
4
  0
STYLE
  2
KICAD
  70
0
  40
0
  41
1
  42
1
  50
0
  71
0
  3
isocp.shx
  0
STYLE
  2
KICADB
  70
0
  40
0
  41
1
  42
1
  50
0
  71
0
  3
isocp.shx
  0
STYLE
  2
KICADI
  70
0
  40
0
  41
1
  42
1
  50
15
  71
0
  3
isocp.shx
  0
STYLE
  2
KICADBI
  70
0
  40
0
  41
1
  42
1
  50
15
  71
0
  3
isocp.shx
  0
ENDTAB
  0
TABLE
  2
LAYER
  70
1
  0
LAYER
  2
BLACK
  70
0
  62
7
  6
CONTINUOUS
  0
ENDTAB
  0
ENDSEC
  0
SECTION
  2
ENTITIES
0
LINE
8
BLACK
6
CONTINUOUS
10
88.6287
20
-88.9461
11
87.6598
21
-88.7135
0
LINE
8
BLACK
6
CONTINUOUS
10
87.6598
20
-88.7135
11
87.656
21
-88.7123
0
LINE
8
BLACK
6
CONTINUOUS
10
87.656
20
-88.7123
11
86.7355
21
-88.331
0
LINE
8
BLACK
6
CONTINUOUS
10
86.7355
20
-88.331
11
86.732
21
-88.3292
0
LINE
8
BLACK
6
CONTINUOUS
10
86.732
20
-88.3292
11
86.732
21
-88.3292
0
LINE
8
BLACK
6
CONTINUOUS
10
86.732
20
-88.3292
11
85.8824
21
-87.8086
0
LINE
8
BLACK
6
CONTINUOUS
10
85.8824
20
-87.8086
11
85.8824
21
-87.8086
0
LINE
8
BLACK
6
CONTINUOUS
10
85.8824
20
-87.8086
11
85.8824
21
-87.8086
0
LINE
8
BLACK
6
CONTINUOUS
10
85.8824
20
-87.8086
11
85.8824
21
-87.8086
0
LINE
8
BLACK
6
CONTINUOUS
10
85.8824
20
-87.8086
11
85.881
21
-87.8076
0
LINE
8
BLACK
6
CONTINUOUS
10
85.881
20
-87.8076
11
85.8792
21
-87.8063
0
LINE
8
BLACK
6
CONTINUOUS
10
85.8792
20
-87.8063
11
85.1441
21
-87.1816
0
LINE
8
BLACK
6
CONTINUOUS
10
85.1441
20
-87.1816
11
85.1434
21
-87.181
0
LINE
8
BLACK
6
CONTINUOUS
10
85.1434
20
-87.181
11
83.8052
21
-85.856
0
LINE
8
BLACK
6
CONTINUOUS
10
83.8052
20
-85.856
11
83.072
21
-85.233
0
LINE
8
BLACK
6
CONTINUOUS
10
83.072
20
-85.233
11
82.2258
21
-84.7145
0
LINE
8
BLACK
6
CONTINUOUS
10
82.2258
20
-84.7145
11
81.3088
21
-84.3346
0
LINE
8
BLACK
6
CONTINUOUS
10
81.3088
20
-84.3346
11
80.3438
21
-84.1029
0
LINE
8
BLACK
6
CONTINUOUS
10
80.3438
20
-84.1029
11
79.3534
21
-84.025
0
LINE
8
BLACK
6
CONTINUOUS
10
79.3534
20
-84.025
11
70.7578
21
-84.025
0
LINE
8
BLACK
6
CONTINUOUS
10
70.7578
20
-84.025
11
70.7569
21
-84.0249
0
LINE
8
BLACK
6
CONTINUOUS
10
70.7569
20
-84.0249
11
69.7637
21
-83.9467
0
LINE
8
BLACK
6
CONTINUOUS
10
69.7637
20
-83.9467
11
69.7637
21
-83.9467
0
LINE
8
BLACK
6
CONTINUOUS
10
69.7637
20
-83.9467
11
69.7599
21
-83.9461
0
LINE
8
BLACK
6
CONTINUOUS
10
69.7599
20
-83.9461
11
68.791
21
-83.7135
0
LINE
8
BLACK
6
CONTINUOUS
10
68.791
20
-83.7135
11
68.7872
21
-83.7123
0
LINE
8
BLACK
6
CONTINUOUS
10
68.7872
20
-83.7123
11
67.8667
21
-83.331
0
LINE
8
BLACK
6
CONTINUOUS
10
67.8667
20
-83.331
11
67.8632
21
-83.3292
0
LINE
8
BLACK
6
CONTINUOUS
10
67.8632
20
-83.3292
11
67.8632
21
-83.3292
0
LINE
8
BLACK
6
CONTINUOUS
10
67.8632
20
-83.3292
11
67.0136
21
-82.8086
0
LINE
8
BLACK
6
CONTINUOUS
10
67.0136
20
-82.8086
11
67.0104
21
-82.8063
0
LINE
8
BLACK
6
CONTINUOUS
10
67.0104
20
-82.8063
11
66.2527
21
-82.1591
0
LINE
8
BLACK
6
CONTINUOUS
10
66.2527
20
-82.1591
11
66.2516
21
-82.1581
0
LINE
8
BLACK
6
CONTINUOUS
10
66.2516
20
-82.1581
11
66.2505
21
-82.157
0
LINE
8
BLACK
6
CONTINUOUS
10
66.2505
20
-82.157
11
65.8829
21
-81.7564
0
LINE
8
BLACK
6
CONTINUOUS
10
65.8829
20
-81.7564
11
65.8825
21
-81.756
0
LINE
8
BLACK
6
CONTINUOUS
10
65.8825
20
-81.756
11
64.638
21
-80.2775
0
LINE
8
BLACK
6
CONTINUOUS
10
64.638
20
-80.2775
11
64.2713
21
-79.8779
0
LINE
8
BLACK
6
CONTINUOUS
10
64.2713
20
-79.8779
11
63.5163
21
-79.233
0
LINE
8
BLACK
6
CONTINUOUS
10
63.5163
20
-79.233
11
62.67
21
-78.7145
0
LINE
8
BLACK
6
CONTINUOUS
10
62.67
20
-78.7145
11
61.7531
21
-78.3346
0
LINE
8
BLACK
6
CONTINUOUS
10
61.7531
20
-78.3346
11
60.788
21
-78.1029
0
LINE
8
BLACK
6
CONTINUOUS
10
60.788
20
-78.1029
11
59.7976
21
-78.025
0
LINE
8
BLACK
6
CONTINUOUS
10
59.7976
20
-78.025
11
53.9966
21
-78.025
0
LINE
8
BLACK
6
CONTINUOUS
10
53.9966
20
-78.025
11
53.0374
21
-78.0981
0
LINE
8
BLACK
6
CONTINUOUS
10
53.0374
20
-78.0981
11
52.0711
21
-78.325
0
LINE
8
BLACK
6
CONTINUOUS
10
52.0711
20
-78.325
11
51.1523
21
-78.7002
0
LINE
8
BLACK
6
CONTINUOUS
10
51.1523
20
-78.7002
11
50.3035
21
-79.2146
0
LINE
8
BLACK
6
CONTINUOUS
10
50.3035
20
-79.2146
11
49.5448
21
-79.856
0
LINE
8
BLACK
6
CONTINUOUS
10
49.5448
20
-79.856
11
48.2066
21
-81.181
0
LINE
8
BLACK
6
CONTINUOUS
10
48.2066
20
-81.181
11
48.2059
21
-81.1816
0
LINE
8
BLACK
6
CONTINUOUS
10
48.2059
20
-81.1816
11
47.4451
21
-81.8249
0
LINE
8
BLACK
6
CONTINUOUS
10
47.4451
20
-81.8249
11
47.4419
21
-81.8271
0
LINE
8
BLACK
6
CONTINUOUS
10
47.4419
20
-81.8271
11
46.5897
21
-82.3435
0
LINE
8
BLACK
6
CONTINUOUS
10
46.5897
20
-82.3435
11
46.5862
21
-82.3453
0
LINE
8
BLACK
6
CONTINUOUS
10
46.5862
20
-82.3453
11
45.6638
21
-82.722
0
LINE
8
BLACK
6
CONTINUOUS
10
45.6638
20
-82.722
11
45.66
21
-82.7232
0
LINE
8
BLACK
6
CONTINUOUS
10
45.66
20
-82.7232
11
44.69
21
-82.951
0
LINE
8
BLACK
6
CONTINUOUS
10
44.69
20
-82.951
11
44.6881
21
-82.9513
0
LINE
8
BLACK
6
CONTINUOUS
10
44.6881
20
-82.9513
11
44.6862
21
-82.9516
0
LINE
8
BLACK
6
CONTINUOUS
10
44.6862
20
-82.9516
11
43.7243
21
-83.0249
0
LINE
8
BLACK
6
CONTINUOUS
10
43.7243
20
-83.0249
11
43.7234
21
-83.025
0
LINE
8
BLACK
6
CONTINUOUS
10
43.7234
20
-83.025
11
33.6682
21
-83.025
0
LINE
8
BLACK
6
CONTINUOUS
10
33.6682
20
-83.025
11
33.2588
21
-83.0383
0
LINE
8
BLACK
6
CONTINUOUS
10
33.2588
20
-83.0383
11
32.2759
21
-83.1801
0
LINE
8
BLACK
6
CONTINUOUS
10
32.2759
20
-83.1801
11
31.3278
21
-83.4738
0
LINE
8
BLACK
6
CONTINUOUS
10
31.3278
20
-83.4738
11
30.4365
21
-83.9127
0
LINE
8
BLACK
6
CONTINUOUS
10
30.4365
20
-83.9127
11
28.3849
21
-85.1315
0
LINE
8
BLACK
6
CONTINUOUS
10
28.3849
20
-85.1315
11
28.3841
21
-85.1318
0
LINE
8
BLACK
6
CONTINUOUS
10
28.3841
20
-85.1318
11
27.4903
21
-85.5719
0
LINE
8
BLACK
6
CONTINUOUS
10
27.4903
20
-85.5719
11
27.4866
21
-85.5733
0
LINE
8
BLACK
6
CONTINUOUS
10
27.4866
20
-85.5733
11
26.5348
21
-85.8682
0
LINE
8
BLACK
6
CONTINUOUS
10
26.5348
20
-85.8682
11
26.531
21
-85.8691
0
LINE
8
BLACK
6
CONTINUOUS
10
26.531
20
-85.8691
11
25.5448
21
-86.0114
0
LINE
8
BLACK
6
CONTINUOUS
10
25.5448
20
-86.0114
11
25.5434
21
-86.0115
0
LINE
8
BLACK
6
CONTINUOUS
10
25.5434
20
-86.0115
11
25.542
21
-86.0117
0
LINE
8
BLACK
6
CONTINUOUS
10
25.542
20
-86.0117
11
25.1316
21
-86.025
0
LINE
8
BLACK
6
CONTINUOUS
10
25.1316
20
-86.025
11
25.1312
21
-86.025
0
LINE
8
BLACK
6
CONTINUOUS
10
25.1312
20
-86.025
11
-3.65122
21
-86.025
0
LINE
8
BLACK
6
CONTINUOUS
10
-3.65122
20
-86.025
11
-3.65219
21
-86.0249
0
LINE
8
BLACK
6
CONTINUOUS
10
-3.65219
20
-86.0249
11
-4.64532
21
-85.9467
0
LINE
8
BLACK
6
CONTINUOUS
10
-4.64532
20
-85.9467
11
-4.64532
21
-85.9467
0
LINE
8
BLACK
6
CONTINUOUS
10
-4.64532
20
-85.9467
11
-4.6492
21
-85.9461
0
LINE
8
BLACK
6
CONTINUOUS
10
-4.6492
20
-85.9461
11
-5.61809
21
-85.7135
0
LINE
8
BLACK
6
CONTINUOUS
10
-5.61809
20
-85.7135
11
-5.62183
21
-85.7123
0
LINE
8
BLACK
6
CONTINUOUS
10
-5.62183
20
-85.7123
11
-6.54241
21
-85.331
0
LINE
8
BLACK
6
CONTINUOUS
10
-6.54241
20
-85.331
11
-6.5459
21
-85.3292
0
LINE
8
BLACK
6
CONTINUOUS
10
-6.5459
20
-85.3292
11
-6.54591
21
-85.3292
0
LINE
8
BLACK
6
CONTINUOUS
10
-6.54591
20
-85.3292
11
-7.3955
21
-84.8086
0
LINE
8
BLACK
6
CONTINUOUS
10
-7.3955
20
-84.8086
11
-7.39867
21
-84.8063
0
LINE
8
BLACK
6
CONTINUOUS
10
-7.39867
20
-84.8063
11
-8.15636
21
-84.1591
0
LINE
8
BLACK
6
CONTINUOUS
10
-8.15636
20
-84.1591
11
-8.15914
21
-84.1564
0
LINE
8
BLACK
6
CONTINUOUS
10
-8.15914
20
-84.1564
11
-8.80626
21
-83.3987
0
LINE
8
BLACK
6
CONTINUOUS
10
-8.80626
20
-83.3987
11
-8.80627
21
-83.3987
0
LINE
8
BLACK
6
CONTINUOUS
10
-8.80627
20
-83.3987
11
-8.80857
21
-83.3955
0
LINE
8
BLACK
6
CONTINUOUS
10
-8.80857
20
-83.3955
11
-9.3292
21
-82.5459
0
LINE
8
BLACK
6
CONTINUOUS
10
-9.3292
20
-82.5459
11
-9.32921
21
-82.5459
0
LINE
8
BLACK
6
CONTINUOUS
10
-9.32921
20
-82.5459
11
-9.33099
21
-82.5424
0
LINE
8
BLACK
6
CONTINUOUS
10
-9.33099
20
-82.5424
11
-9.7123
21
-81.6218
0
LINE
8
BLACK
6
CONTINUOUS
10
-9.7123
20
-81.6218
11
-9.71287
21
-81.6201
0
LINE
8
BLACK
6
CONTINUOUS
10
-9.71287
20
-81.6201
11
-9.71347
21
-81.6183
0
LINE
8
BLACK
6
CONTINUOUS
10
-9.71347
20
-81.6183
11
-9.92831
21
-80.7558
0
LINE
8
BLACK
6
CONTINUOUS
10
-9.92831
20
-80.7558
11
-9.92837
21
-80.7554
0
LINE
8
BLACK
6
CONTINUOUS
10
-9.92837
20
-80.7554
11
-9.92848
21
-80.755
0
LINE
8
BLACK
6
CONTINUOUS
10
-9.92848
20
-80.755
11
-10.0352
21
-80.2636
0
LINE
8
BLACK
6
CONTINUOUS
10
-10.0352
20
-80.2636
11
-10.3589
21
-79.3249
0
LINE
8
BLACK
6
CONTINUOUS
10
-10.3589
20
-79.3249
11
-10.8252
21
-78.4488
0
LINE
8
BLACK
6
CONTINUOUS
10
-10.8252
20
-78.4488
11
-11.424
21
-77.6548
0
LINE
8
BLACK
6
CONTINUOUS
10
-11.424
20
-77.6548
11
-11.424
21
-77.6548
0
LINE
8
BLACK
6
CONTINUOUS
10
-11.424
20
-77.6548
11
-12.024
21
-76.8593
0
LINE
8
BLACK
6
CONTINUOUS
10
-12.024
20
-76.8593
11
-12.0261
21
-76.856
0
LINE
8
BLACK
6
CONTINUOUS
10
-12.0261
20
-76.856
11
-12.4943
21
-75.9764
0
LINE
8
BLACK
6
CONTINUOUS
10
-12.4943
20
-75.9764
11
-12.4959
21
-75.9728
0
LINE
8
BLACK
6
CONTINUOUS
10
-12.4959
20
-75.9728
11
-12.8207
21
-75.0308
0
LINE
8
BLACK
6
CONTINUOUS
10
-12.8207
20
-75.0308
11
-12.8217
21
-75.027
0
LINE
8
BLACK
6
CONTINUOUS
10
-12.8217
20
-75.027
11
-12.9951
21
-74.0458
0
LINE
8
BLACK
6
CONTINUOUS
10
-12.9951
20
-74.0458
11
-12.9953
21
-74.0442
0
LINE
8
BLACK
6
CONTINUOUS
10
-12.9953
20
-74.0442
11
-12.9955
21
-74.0426
0
LINE
8
BLACK
6
CONTINUOUS
10
-12.9955
20
-74.0426
11
-13.0249
21
-73.4318
0
LINE
8
BLACK
6
CONTINUOUS
10
-13.0249
20
-73.4318
11
-13.025
21
-73.4313
0
LINE
8
BLACK
6
CONTINUOUS
10
-13.025
20
-73.4313
11
-13.025
21
0.197434
0
LINE
8
BLACK
6
CONTINUOUS
10
-13.025
20
0.197434
11
-13.0249
21
0.198363
0
LINE
8
BLACK
6
CONTINUOUS
10
-13.0249
20
0.198363
11
-12.9467
21
1.19154
0
LINE
8
BLACK
6
CONTINUOUS
10
-12.9467
20
1.19154
11
-12.9461
21
1.19541
0
LINE
8
BLACK
6
CONTINUOUS
10
-12.9461
20
1.19541
11
-12.9461
21
1.19542
0
LINE
8
BLACK
6
CONTINUOUS
10
-12.9461
20
1.19542
11
-12.7135
21
2.16431
0
LINE
8
BLACK
6
CONTINUOUS
10
-12.7135
20
2.16431
11
-12.7123
21
2.16804
0
LINE
8
BLACK
6
CONTINUOUS
10
-12.7123
20
2.16804
11
-12.331
21
3.08862
0
LINE
8
BLACK
6
CONTINUOUS
10
-12.331
20
3.08862
11
-12.3292
21
3.09212
0
LINE
8
BLACK
6
CONTINUOUS
10
-12.3292
20
3.09212
11
-12.3292
21
3.09212
0
LINE
8
BLACK
6
CONTINUOUS
10
-12.3292
20
3.09212
11
-11.8086
21
3.94171
0
LINE
8
BLACK
6
CONTINUOUS
10
-11.8086
20
3.94171
11
-11.8063
21
3.94489
0
LINE
8
BLACK
6
CONTINUOUS
10
-11.8063
20
3.94489
11
-11.1591
21
4.70258
0
LINE
8
BLACK
6
CONTINUOUS
10
-11.1591
20
4.70258
11
-11.1581
21
4.70366
0
LINE
8
BLACK
6
CONTINUOUS
10
-11.1581
20
4.70366
11
-11.157
21
4.70479
0
LINE
8
BLACK
6
CONTINUOUS
10
-11.157
20
4.70479
11
-10.7388
21
5.08723
0
LINE
8
BLACK
6
CONTINUOUS
10
-10.7388
20
5.08723
11
-10.7387
21
5.08734
0
LINE
8
BLACK
6
CONTINUOUS
10
-10.7387
20
5.08734
11
-10.7385
21
5.08748
0
LINE
8
BLACK
6
CONTINUOUS
10
-10.7385
20
5.08748
11
-10.4534
21
5.34071
0
LINE
8
BLACK
6
CONTINUOUS
10
-10.4534
20
5.34071
11
-9.78683
21
6.07686
0
LINE
8
BLACK
6
CONTINUOUS
10
-9.78683
20
6.07686
11
-9.24286
21
6.90934
0
LINE
8
BLACK
6
CONTINUOUS
10
-9.24286
20
6.90934
11
-9.24285
21
6.90935
0
LINE
8
BLACK
6
CONTINUOUS
10
-9.24285
20
6.90935
11
-8.6978
21
7.7435
0
LINE
8
BLACK
6
CONTINUOUS
10
-8.6978
20
7.7435
11
-8.69541
21
7.7466
0
LINE
8
BLACK
6
CONTINUOUS
10
-8.69541
20
7.7466
11
-8.02658
21
8.48521
0
LINE
8
BLACK
6
CONTINUOUS
10
-8.02658
20
8.48521
11
-8.02373
21
8.4879
0
LINE
8
BLACK
6
CONTINUOUS
10
-8.02373
20
8.4879
11
-7.24759
21
9.11279
0
LINE
8
BLACK
6
CONTINUOUS
10
-7.24759
20
9.11279
11
-7.24435
21
9.11501
0
LINE
8
BLACK
6
CONTINUOUS
10
-7.24435
20
9.11501
11
-6.38002
21
9.61079
0
LINE
8
BLACK
6
CONTINUOUS
10
-6.38002
20
9.61079
11
-6.37647
21
9.61247
0
LINE
8
BLACK
6
CONTINUOUS
10
-6.37647
20
9.61247
11
-5.44522
21
9.96693
0
LINE
8
BLACK
6
CONTINUOUS
10
-5.44522
20
9.96693
11
-5.44231
21
9.96778
0
LINE
8
BLACK
6
CONTINUOUS
10
-5.44231
20
9.96778
11
-5.44145
21
9.96803
0
LINE
8
BLACK
6
CONTINUOUS
10
-5.44145
20
9.96803
11
-4.46622
21
10.1725
0
LINE
8
BLACK
6
CONTINUOUS
10
-4.46622
20
10.1725
11
-4.46447
21
10.1727
0
LINE
8
BLACK
6
CONTINUOUS
10
-4.46447
20
10.1727
11
-4.46269
21
10.1729
0
LINE
8
BLACK
6
CONTINUOUS
10
-4.46269
20
10.1729
11
-3.65199
21
10.2249
0
LINE
8
BLACK
6
CONTINUOUS
10
-3.65199
20
10.2249
11
-3.65122
21
10.225
0
LINE
8
BLACK
6
CONTINUOUS
10
-3.65122
20
10.225
11
23.4818
21
10.225
0
LINE
8
BLACK
6
CONTINUOUS
10
23.4818
20
10.225
11
23.8912
21
10.2383
0
LINE
8
BLACK
6
CONTINUOUS
10
23.8912
20
10.2383
11
24.8741
21
10.3801
0
LINE
8
BLACK
6
CONTINUOUS
10
24.8741
20
10.3801
11
25.8222
21
10.6738
0
LINE
8
BLACK
6
CONTINUOUS
10
25.8222
20
10.6738
11
26.7135
21
11.1127
0
LINE
8
BLACK
6
CONTINUOUS
10
26.7135
20
11.1127
11
28.7651
21
12.3315
0
LINE
8
BLACK
6
CONTINUOUS
10
28.7651
20
12.3315
11
28.7659
21
12.3318
0
LINE
8
BLACK
6
CONTINUOUS
10
28.7659
20
12.3318
11
29.6597
21
12.7719
0
LINE
8
BLACK
6
CONTINUOUS
10
29.6597
20
12.7719
11
29.6634
21
12.7733
0
LINE
8
BLACK
6
CONTINUOUS
10
29.6634
20
12.7733
11
30.6152
21
13.0682
0
LINE
8
BLACK
6
CONTINUOUS
10
30.6152
20
13.0682
11
30.619
21
13.0691
0
LINE
8
BLACK
6
CONTINUOUS
10
30.619
20
13.0691
11
31.6052
21
13.2114
0
LINE
8
BLACK
6
CONTINUOUS
10
31.6052
20
13.2114
11
31.6066
21
13.2115
0
LINE
8
BLACK
6
CONTINUOUS
10
31.6066
20
13.2115
11
31.608
21
13.2117
0
LINE
8
BLACK
6
CONTINUOUS
10
31.608
20
13.2117
11
32.0184
21
13.225
0
LINE
8
BLACK
6
CONTINUOUS
10
32.0184
20
13.225
11
32.0188
21
13.225
0
LINE
8
BLACK
6
CONTINUOUS
10
32.0188
20
13.225
11
41.2534
21
13.225
0
LINE
8
BLACK
6
CONTINUOUS
10
41.2534
20
13.225
11
42.2126
21
13.2981
0
LINE
8
BLACK
6
CONTINUOUS
10
42.2126
20
13.2981
11
43.1789
21
13.525
0
LINE
8
BLACK
6
CONTINUOUS
10
43.1789
20
13.525
11
44.0977
21
13.9002
0
LINE
8
BLACK
6
CONTINUOUS
10
44.0977
20
13.9002
11
44.9465
21
14.4146
0
LINE
8
BLACK
6
CONTINUOUS
10
44.9465
20
14.4146
11
45.7052
21
15.0561
0
LINE
8
BLACK
6
CONTINUOUS
10
45.7052
20
15.0561
11
47.0434
21
16.381
0
LINE
8
BLACK
6
CONTINUOUS
10
47.0434
20
16.381
11
47.0441
21
16.3816
0
LINE
8
BLACK
6
CONTINUOUS
10
47.0441
20
16.3816
11
47.8049
21
17.0249
0
LINE
8
BLACK
6
CONTINUOUS
10
47.8049
20
17.0249
11
47.8062
21
17.0258
0
LINE
8
BLACK
6
CONTINUOUS
10
47.8062
20
17.0258
11
47.8081
21
17.0271
0
LINE
8
BLACK
6
CONTINUOUS
10
47.8081
20
17.0271
11
48.6602
21
17.5435
0
LINE
8
BLACK
6
CONTINUOUS
10
48.6602
20
17.5435
11
48.6638
21
17.5453
0
LINE
8
BLACK
6
CONTINUOUS
10
48.6638
20
17.5453
11
49.5862
21
17.922
0
LINE
8
BLACK
6
CONTINUOUS
10
49.5862
20
17.922
11
49.59
21
17.9232
0
LINE
8
BLACK
6
CONTINUOUS
10
49.59
20
17.9232
11
50.56
21
18.151
0
LINE
8
BLACK
6
CONTINUOUS
10
50.56
20
18.151
11
50.5619
21
18.1513
0
LINE
8
BLACK
6
CONTINUOUS
10
50.5619
20
18.1513
11
50.5638
21
18.1516
0
LINE
8
BLACK
6
CONTINUOUS
10
50.5638
20
18.1516
11
51.5257
21
18.2249
0
LINE
8
BLACK
6
CONTINUOUS
10
51.5257
20
18.2249
11
51.5266
21
18.225
0
LINE
8
BLACK
6
CONTINUOUS
10
51.5266
20
18.225
11
62.5922
21
18.225
0
LINE
8
BLACK
6
CONTINUOUS
10
62.5922
20
18.225
11
62.5931
21
18.2249
0
LINE
8
BLACK
6
CONTINUOUS
10
62.5931
20
18.2249
11
63.5863
21
18.1467
0
LINE
8
BLACK
6
CONTINUOUS
10
63.5863
20
18.1467
11
63.5901
21
18.1461
0
LINE
8
BLACK
6
CONTINUOUS
10
63.5901
20
18.1461
11
63.5901
21
18.1461
0
LINE
8
BLACK
6
CONTINUOUS
10
63.5901
20
18.1461
11
64.559
21
17.9135
0
LINE
8
BLACK
6
CONTINUOUS
10
64.559
20
17.9135
11
64.5628
21
17.9123
0
LINE
8
BLACK
6
CONTINUOUS
10
64.5628
20
17.9123
11
65.4833
21
17.531
0
LINE
8
BLACK
6
CONTINUOUS
10
65.4833
20
17.531
11
65.4868
21
17.5292
0
LINE
8
BLACK
6
CONTINUOUS
10
65.4868
20
17.5292
11
65.4868
21
17.5292
0
LINE
8
BLACK
6
CONTINUOUS
10
65.4868
20
17.5292
11
66.3364
21
17.0086
0
LINE
8
BLACK
6
CONTINUOUS
10
66.3364
20
17.0086
11
66.3396
21
17.0063
0
LINE
8
BLACK
6
CONTINUOUS
10
66.3396
20
17.0063
11
67.0973
21
16.3591
0
LINE
8
BLACK
6
CONTINUOUS
10
67.0973
20
16.3591
11
67.0984
21
16.3581
0
LINE
8
BLACK
6
CONTINUOUS
10
67.0984
20
16.3581
11
67.0995
21
16.357
0
LINE
8
BLACK
6
CONTINUOUS
10
67.0995
20
16.357
11
67.4671
21
15.9564
0
LINE
8
BLACK
6
CONTINUOUS
10
67.4671
20
15.9564
11
67.4675
21
15.956
0
LINE
8
BLACK
6
CONTINUOUS
10
67.4675
20
15.956
11
68.712
21
14.4775
0
LINE
8
BLACK
6
CONTINUOUS
10
68.712
20
14.4775
11
69.0787
21
14.0779
0
LINE
8
BLACK
6
CONTINUOUS
10
69.0787
20
14.0779
11
69.8337
21
13.433
0
LINE
8
BLACK
6
CONTINUOUS
10
69.8337
20
13.433
11
70.68
21
12.9145
0
LINE
8
BLACK
6
CONTINUOUS
10
70.68
20
12.9145
11
71.5969
21
12.5346
0
LINE
8
BLACK
6
CONTINUOUS
10
71.5969
20
12.5346
11
72.562
21
12.3029
0
LINE
8
BLACK
6
CONTINUOUS
10
72.562
20
12.3029
11
73.5524
21
12.225
0
LINE
8
BLACK
6
CONTINUOUS
10
73.5524
20
12.225
11
81.8234
21
12.225
0
LINE
8
BLACK
6
CONTINUOUS
10
81.8234
20
12.225
11
81.8243
21
12.2249
0
LINE
8
BLACK
6
CONTINUOUS
10
81.8243
20
12.2249
11
82.8175
21
12.1467
0
LINE
8
BLACK
6
CONTINUOUS
10
82.8175
20
12.1467
11
82.8213
21
12.1461
0
LINE
8
BLACK
6
CONTINUOUS
10
82.8213
20
12.1461
11
82.8213
21
12.1461
0
LINE
8
BLACK
6
CONTINUOUS
10
82.8213
20
12.1461
11
83.7902
21
11.9135
0
LINE
8
BLACK
6
CONTINUOUS
10
83.7902
20
11.9135
11
83.794
21
11.9123
0
LINE
8
BLACK
6
CONTINUOUS
10
83.794
20
11.9123
11
84.7145
21
11.531
0
LINE
8
BLACK
6
CONTINUOUS
10
84.7145
20
11.531
11
84.718
21
11.5292
0
LINE
8
BLACK
6
CONTINUOUS
10
84.718
20
11.5292
11
84.718
21
11.5292
0
LINE
8
BLACK
6
CONTINUOUS
10
84.718
20
11.5292
11
85.5676
21
11.0086
0
LINE
8
BLACK
6
CONTINUOUS
10
85.5676
20
11.0086
11
85.5689
21
11.0076
0
LINE
8
BLACK
6
CONTINUOUS
10
85.5689
20
11.0076
11
85.5702
21
11.0068
0
LINE
8
BLACK
6
CONTINUOUS
10
85.5702
20
11.0068
11
86.0307
21
10.6383
0
LINE
8
BLACK
6
CONTINUOUS
10
86.0307
20
10.6383
11
86.4901
21
10.2708
0
LINE
8
BLACK
6
CONTINUOUS
10
86.4901
20
10.2708
11
87.3366
21
9.75204
0
LINE
8
BLACK
6
CONTINUOUS
10
87.3366
20
9.75204
11
88.2536
21
9.37223
0
LINE
8
BLACK
6
CONTINUOUS
10
88.2536
20
9.37223
11
89.2187
21
9.14054
0
LINE
8
BLACK
6
CONTINUOUS
10
89.2187
20
9.14054
11
90.2091
21
9.06259
0
LINE
8
BLACK
6
CONTINUOUS
10
90.2091
20
9.06259
11
102.901
21
9.06259
0
LINE
8
BLACK
6
CONTINUOUS
10
102.901
20
9.06259
11
102.902
21
9.0625
0
LINE
8
BLACK
6
CONTINUOUS
10
102.902
20
9.0625
11
103.895
21
8.98433
0
LINE
8
BLACK
6
CONTINUOUS
10
103.895
20
8.98433
11
103.899
21
8.98372
0
LINE
8
BLACK
6
CONTINUOUS
10
103.899
20
8.98372
11
103.899
21
8.98372
0
LINE
8
BLACK
6
CONTINUOUS
10
103.899
20
8.98372
11
104.868
21
8.75111
0
LINE
8
BLACK
6
CONTINUOUS
10
104.868
20
8.75111
11
104.872
21
8.74989
0
LINE
8
BLACK
6
CONTINUOUS
10
104.872
20
8.74989
11
105.792
21
8.36858
0
LINE
8
BLACK
6
CONTINUOUS
10
105.792
20
8.36858
11
105.796
21
8.36679
0
LINE
8
BLACK
6
CONTINUOUS
10
105.796
20
8.36679
11
105.796
21
8.36679
0
LINE
8
BLACK
6
CONTINUOUS
10
105.796
20
8.36679
11
106.645
21
7.84616
0
LINE
8
BLACK
6
CONTINUOUS
10
106.645
20
7.84616
11
106.649
21
7.84386
0
LINE
8
BLACK
6
CONTINUOUS
10
106.649
20
7.84386
11
107.406
21
7.19673
0
LINE
8
BLACK
6
CONTINUOUS
10
107.406
20
7.19673
11
107.409
21
7.19395
0
LINE
8
BLACK
6
CONTINUOUS
10
107.409
20
7.19395
11
108.056
21
6.43626
0
LINE
8
BLACK
6
CONTINUOUS
10
108.056
20
6.43626
11
108.059
21
6.43309
0
LINE
8
BLACK
6
CONTINUOUS
10
108.059
20
6.43309
11
108.579
21
5.5835
0
LINE
8
BLACK
6
CONTINUOUS
10
108.579
20
5.5835
11
108.579
21
5.58349
0
LINE
8
BLACK
6
CONTINUOUS
10
108.579
20
5.58349
11
108.581
21
5.57999
0
LINE
8
BLACK
6
CONTINUOUS
10
108.581
20
5.57999
11
108.962
21
4.65941
0
LINE
8
BLACK
6
CONTINUOUS
10
108.962
20
4.65941
11
108.964
21
4.65568
0
LINE
8
BLACK
6
CONTINUOUS
10
108.964
20
4.65568
11
109.196
21
3.68678
0
LINE
8
BLACK
6
CONTINUOUS
10
109.196
20
3.68678
11
109.196
21
3.68678
0
LINE
8
BLACK
6
CONTINUOUS
10
109.196
20
3.68678
11
109.197
21
3.68291
0
LINE
8
BLACK
6
CONTINUOUS
10
109.197
20
3.68291
11
109.275
21
2.68974
0
LINE
8
BLACK
6
CONTINUOUS
10
109.275
20
2.68974
11
109.275
21
2.68881
0
LINE
8
BLACK
6
CONTINUOUS
10
109.275
20
2.68881
11
109.275
21
-16.1062
0
LINE
8
BLACK
6
CONTINUOUS
10
109.275
20
-16.1062
11
121.501
21
-16.1062
0
LINE
8
BLACK
6
CONTINUOUS
10
121.501
20
-16.1062
11
121.545
21
-15.8383
0
LINE
8
BLACK
6
CONTINUOUS
10
121.545
20
-15.8383
11
121.545
21
-15.838
0
LINE
8
BLACK
6
CONTINUOUS
10
121.545
20
-15.838
11
121.546
21
-15.8358
0
LINE
8
BLACK
6
CONTINUOUS
10
121.546
20
-15.8358
11
121.546
21
-15.8336
0
LINE
8
BLACK
6
CONTINUOUS
10
121.546
20
-15.8336
11
121.649
21
-15.5595
0
LINE
8
BLACK
6
CONTINUOUS
10
121.649
20
-15.5595
11
121.649
21
-15.5592
0
LINE
8
BLACK
6
CONTINUOUS
10
121.649
20
-15.5592
11
121.65
21
-15.5572
0
LINE
8
BLACK
6
CONTINUOUS
10
121.65
20
-15.5572
11
121.651
21
-15.5551
0
LINE
8
BLACK
6
CONTINUOUS
10
121.651
20
-15.5551
11
121.805
21
-15.3063
0
LINE
8
BLACK
6
CONTINUOUS
10
121.805
20
-15.3063
11
121.806
21
-15.306
0
LINE
8
BLACK
6
CONTINUOUS
10
121.806
20
-15.306
11
121.807
21
-15.3042
0
LINE
8
BLACK
6
CONTINUOUS
10
121.807
20
-15.3042
11
121.808
21
-15.3024
0
LINE
8
BLACK
6
CONTINUOUS
10
121.808
20
-15.3024
11
122.008
21
-15.0882
0
LINE
8
BLACK
6
CONTINUOUS
10
122.008
20
-15.0882
11
122.008
21
-15.0882
0
LINE
8
BLACK
6
CONTINUOUS
10
122.008
20
-15.0882
11
122.008
21
-15.0882
0
LINE
8
BLACK
6
CONTINUOUS
10
122.008
20
-15.0882
11
122.008
21
-15.088
0
LINE
8
BLACK
6
CONTINUOUS
10
122.008
20
-15.088
11
122.01
21
-15.0865
0
LINE
8
BLACK
6
CONTINUOUS
10
122.01
20
-15.0865
11
122.012
21
-15.085
0
LINE
8
BLACK
6
CONTINUOUS
10
122.012
20
-15.085
11
122.249
21
-14.9136
0
LINE
8
BLACK
6
CONTINUOUS
10
122.249
20
-14.9136
11
122.249
21
-14.9134
0
LINE
8
BLACK
6
CONTINUOUS
10
122.249
20
-14.9134
11
122.251
21
-14.9123
0
LINE
8
BLACK
6
CONTINUOUS
10
122.251
20
-14.9123
11
122.253
21
-14.9112
0
LINE
8
BLACK
6
CONTINUOUS
10
122.253
20
-14.9112
11
122.519
21
-14.7892
0
LINE
8
BLACK
6
CONTINUOUS
10
122.519
20
-14.7892
11
122.52
21
-14.7891
0
LINE
8
BLACK
6
CONTINUOUS
10
122.52
20
-14.7891
11
122.522
21
-14.7883
0
LINE
8
BLACK
6
CONTINUOUS
10
122.522
20
-14.7883
11
122.524
21
-14.7876
0
LINE
8
BLACK
6
CONTINUOUS
10
122.524
20
-14.7876
11
122.809
21
-14.7197
0
LINE
8
BLACK
6
CONTINUOUS
10
122.809
20
-14.7197
11
122.809
21
-14.7196
0
LINE
8
BLACK
6
CONTINUOUS
10
122.809
20
-14.7196
11
122.811
21
-14.7193
0
LINE
8
BLACK
6
CONTINUOUS
10
122.811
20
-14.7193
11
122.814
21
-14.719
0
LINE
8
BLACK
6
CONTINUOUS
10
122.814
20
-14.719
11
123.106
21
-14.7077
0
LINE
8
BLACK
6
CONTINUOUS
10
123.106
20
-14.7077
11
123.106
21
-14.7076
0
LINE
8
BLACK
6
CONTINUOUS
10
123.106
20
-14.7076
11
123.109
21
-14.7078
0
LINE
8
BLACK
6
CONTINUOUS
10
123.109
20
-14.7078
11
123.111
21
-14.7079
0
LINE
8
BLACK
6
CONTINUOUS
10
123.111
20
-14.7079
11
123.4
21
-14.7536
0
LINE
8
BLACK
6
CONTINUOUS
10
123.4
20
-14.7536
11
123.4
21
-14.7537
0
LINE
8
BLACK
6
CONTINUOUS
10
123.4
20
-14.7537
11
123.403
21
-14.7543
0
LINE
8
BLACK
6
CONTINUOUS
10
123.403
20
-14.7543
11
123.405
21
-14.7548
0
LINE
8
BLACK
6
CONTINUOUS
10
123.405
20
-14.7548
11
123.68
21
-14.8558
0
LINE
8
BLACK
6
CONTINUOUS
10
123.68
20
-14.8558
11
123.68
21
-14.8559
0
LINE
8
BLACK
6
CONTINUOUS
10
123.68
20
-14.8559
11
123.682
21
-14.857
0
LINE
8
BLACK
6
CONTINUOUS
10
123.682
20
-14.857
11
123.684
21
-14.8579
0
LINE
8
BLACK
6
CONTINUOUS
10
123.684
20
-14.8579
11
123.934
21
-15.0104
0
LINE
8
BLACK
6
CONTINUOUS
10
123.934
20
-15.0104
11
123.934
21
-15.0106
0
LINE
8
BLACK
6
CONTINUOUS
10
123.934
20
-15.0106
11
123.936
21
-15.0119
0
LINE
8
BLACK
6
CONTINUOUS
10
123.936
20
-15.0119
11
123.938
21
-15.0133
0
LINE
8
BLACK
6
CONTINUOUS
10
123.938
20
-15.0133
11
124.153
21
-15.2114
0
LINE
8
BLACK
6
CONTINUOUS
10
124.153
20
-15.2114
11
124.154
21
-15.2116
0
LINE
8
BLACK
6
CONTINUOUS
10
124.154
20
-15.2116
11
124.155
21
-15.2126
0
LINE
8
BLACK
6
CONTINUOUS
10
124.155
20
-15.2126
11
124.155
21
-15.2135
0
LINE
8
BLACK
6
CONTINUOUS
10
124.155
20
-15.2135
11
124.199
21
-15.2638
0
LINE
8
BLACK
6
CONTINUOUS
10
124.199
20
-15.2638
11
124.199
21
-15.2639
0
LINE
8
BLACK
6
CONTINUOUS
10
124.199
20
-15.2639
11
124.199
21
-15.2639
0
LINE
8
BLACK
6
CONTINUOUS
10
124.199
20
-15.2639
11
124.328
21
-15.4172
0
LINE
8
BLACK
6
CONTINUOUS
10
124.328
20
-15.4172
11
125.039
21
-16.1133
0
LINE
8
BLACK
6
CONTINUOUS
10
125.039
20
-16.1133
11
125.039
21
-16.1133
0
LINE
8
BLACK
6
CONTINUOUS
10
125.039
20
-16.1133
11
125.752
21
-16.8103
0
LINE
8
BLACK
6
CONTINUOUS
10
125.752
20
-16.8103
11
125.754
21
-16.8133
0
LINE
8
BLACK
6
CONTINUOUS
10
125.754
20
-16.8133
11
126.348
21
-17.6131
0
LINE
8
BLACK
6
CONTINUOUS
10
126.348
20
-17.6131
11
126.35
21
-17.6164
0
LINE
8
BLACK
6
CONTINUOUS
10
126.35
20
-17.6164
11
126.812
21
-18.4993
0
LINE
8
BLACK
6
CONTINUOUS
10
126.812
20
-18.4993
11
126.814
21
-18.5029
0
LINE
8
BLACK
6
CONTINUOUS
10
126.814
20
-18.5029
11
127.132
21
-19.4472
0
LINE
8
BLACK
6
CONTINUOUS
10
127.132
20
-19.4472
11
127.133
21
-19.451
0
LINE
8
BLACK
6
CONTINUOUS
10
127.133
20
-19.451
11
127.299
21
-20.4335
0
LINE
8
BLACK
6
CONTINUOUS
10
127.299
20
-20.4335
11
127.299
21
-20.435
0
LINE
8
BLACK
6
CONTINUOUS
10
127.299
20
-20.435
11
127.3
21
-20.4365
0
LINE
8
BLACK
6
CONTINUOUS
10
127.3
20
-20.4365
11
127.325
21
-21.002
0
LINE
8
BLACK
6
CONTINUOUS
10
127.325
20
-21.002
11
127.325
21
-21.0026
0
LINE
8
BLACK
6
CONTINUOUS
10
127.325
20
-21.0026
11
127.325
21
-43.8396
0
LINE
8
BLACK
6
CONTINUOUS
10
127.325
20
-43.8396
11
127.325
21
-43.8406
0
LINE
8
BLACK
6
CONTINUOUS
10
127.325
20
-43.8406
11
127.247
21
-44.8337
0
LINE
8
BLACK
6
CONTINUOUS
10
127.247
20
-44.8337
11
127.247
21
-44.8337
0
LINE
8
BLACK
6
CONTINUOUS
10
127.247
20
-44.8337
11
127.246
21
-44.8376
0
LINE
8
BLACK
6
CONTINUOUS
10
127.246
20
-44.8376
11
127.014
21
-45.8065
0
LINE
8
BLACK
6
CONTINUOUS
10
127.014
20
-45.8065
11
127.012
21
-45.8102
0
LINE
8
BLACK
6
CONTINUOUS
10
127.012
20
-45.8102
11
126.631
21
-46.7308
0
LINE
8
BLACK
6
CONTINUOUS
10
126.631
20
-46.7308
11
126.629
21
-46.7343
0
LINE
8
BLACK
6
CONTINUOUS
10
126.629
20
-46.7343
11
126.629
21
-46.7343
0
LINE
8
BLACK
6
CONTINUOUS
10
126.629
20
-46.7343
11
126.109
21
-47.5839
0
LINE
8
BLACK
6
CONTINUOUS
10
126.109
20
-47.5839
11
126.106
21
-47.5871
0
LINE
8
BLACK
6
CONTINUOUS
10
126.106
20
-47.5871
11
125.459
21
-48.3448
0
LINE
8
BLACK
6
CONTINUOUS
10
125.459
20
-48.3448
11
125.456
21
-48.3476
0
LINE
8
BLACK
6
CONTINUOUS
10
125.456
20
-48.3476
11
124.699
21
-48.9947
0
LINE
8
BLACK
6
CONTINUOUS
10
124.699
20
-48.9947
11
124.697
21
-48.9957
0
LINE
8
BLACK
6
CONTINUOUS
10
124.697
20
-48.9957
11
124.696
21
-48.9967
0
LINE
8
BLACK
6
CONTINUOUS
10
124.696
20
-48.9967
11
124.092
21
-49.3846
0
LINE
8
BLACK
6
CONTINUOUS
10
124.092
20
-49.3846
11
124.092
21
-57.9092
0
LINE
8
BLACK
6
CONTINUOUS
10
124.092
20
-57.9092
11
124.908
21
-58.4574
0
LINE
8
BLACK
6
CONTINUOUS
10
124.908
20
-58.4574
11
124.911
21
-58.4598
0
LINE
8
BLACK
6
CONTINUOUS
10
124.911
20
-58.4598
11
125.641
21
-59.1381
0
LINE
8
BLACK
6
CONTINUOUS
10
125.641
20
-59.1381
11
125.642
21
-59.1394
0
LINE
8
BLACK
6
CONTINUOUS
10
125.642
20
-59.1394
11
125.643
21
-59.1409
0
LINE
8
BLACK
6
CONTINUOUS
10
125.643
20
-59.1409
11
126.258
21
-59.925
0
LINE
8
BLACK
6
CONTINUOUS
10
126.258
20
-59.925
11
126.259
21
-59.9265
0
LINE
8
BLACK
6
CONTINUOUS
10
126.259
20
-59.9265
11
126.26
21
-59.9283
0
LINE
8
BLACK
6
CONTINUOUS
10
126.26
20
-59.9283
11
126.745
21
-60.7989
0
LINE
8
BLACK
6
CONTINUOUS
10
126.745
20
-60.7989
11
126.747
21
-60.8024
0
LINE
8
BLACK
6
CONTINUOUS
10
126.747
20
-60.8024
11
127.089
21
-61.7381
0
LINE
8
BLACK
6
CONTINUOUS
10
127.089
20
-61.7381
11
127.09
21
-61.7419
0
LINE
8
BLACK
6
CONTINUOUS
10
127.09
20
-61.7419
11
127.282
21
-62.7197
0
LINE
8
BLACK
6
CONTINUOUS
10
127.282
20
-62.7197
11
127.283
21
-62.7214
0
LINE
8
BLACK
6
CONTINUOUS
10
127.283
20
-62.7214
11
127.283
21
-62.7231
0
LINE
8
BLACK
6
CONTINUOUS
10
127.283
20
-62.7231
11
127.325
21
-63.4531
0
LINE
8
BLACK
6
CONTINUOUS
10
127.325
20
-63.4531
11
127.325
21
-63.4539
0
LINE
8
BLACK
6
CONTINUOUS
10
127.325
20
-63.4539
11
127.325
21
-70.9974
0
LINE
8
BLACK
6
CONTINUOUS
10
127.325
20
-70.9974
11
127.325
21
-70.9984
0
LINE
8
BLACK
6
CONTINUOUS
10
127.325
20
-70.9984
11
127.247
21
-71.9915
0
LINE
8
BLACK
6
CONTINUOUS
10
127.247
20
-71.9915
11
127.247
21
-71.9915
0
LINE
8
BLACK
6
CONTINUOUS
10
127.247
20
-71.9915
11
127.246
21
-71.9954
0
LINE
8
BLACK
6
CONTINUOUS
10
127.246
20
-71.9954
11
127.014
21
-72.9643
0
LINE
8
BLACK
6
CONTINUOUS
10
127.014
20
-72.9643
11
127.012
21
-72.968
0
LINE
8
BLACK
6
CONTINUOUS
10
127.012
20
-72.968
11
126.631
21
-73.8886
0
LINE
8
BLACK
6
CONTINUOUS
10
126.631
20
-73.8886
11
126.629
21
-73.8921
0
LINE
8
BLACK
6
CONTINUOUS
10
126.629
20
-73.8921
11
126.109
21
-74.7417
0
LINE
8
BLACK
6
CONTINUOUS
10
126.109
20
-74.7417
11
126.106
21
-74.7449
0
LINE
8
BLACK
6
CONTINUOUS
10
126.106
20
-74.7449
11
125.459
21
-75.5026
0
LINE
8
BLACK
6
CONTINUOUS
10
125.459
20
-75.5026
11
125.458
21
-75.5037
0
LINE
8
BLACK
6
CONTINUOUS
10
125.458
20
-75.5037
11
125.457
21
-75.5048
0
LINE
8
BLACK
6
CONTINUOUS
10
125.457
20
-75.5048
11
125.039
21
-75.8872
0
LINE
8
BLACK
6
CONTINUOUS
10
125.039
20
-75.8872
11
125.039
21
-75.8873
0
LINE
8
BLACK
6
CONTINUOUS
10
125.039
20
-75.8873
11
125.039
21
-75.8875
0
LINE
8
BLACK
6
CONTINUOUS
10
125.039
20
-75.8875
11
124.753
21
-76.1407
0
LINE
8
BLACK
6
CONTINUOUS
10
124.753
20
-76.1407
11
124.087
21
-76.8769
0
LINE
8
BLACK
6
CONTINUOUS
10
124.087
20
-76.8769
11
123.543
21
-77.7093
0
LINE
8
BLACK
6
CONTINUOUS
10
123.543
20
-77.7093
11
123.543
21
-77.7094
0
LINE
8
BLACK
6
CONTINUOUS
10
123.543
20
-77.7094
11
122.998
21
-78.5435
0
LINE
8
BLACK
6
CONTINUOUS
10
122.998
20
-78.5435
11
122.995
21
-78.5466
0
LINE
8
BLACK
6
CONTINUOUS
10
122.995
20
-78.5466
11
122.327
21
-79.2852
0
LINE
8
BLACK
6
CONTINUOUS
10
122.327
20
-79.2852
11
122.325
21
-79.287
0
LINE
8
BLACK
6
CONTINUOUS
10
122.325
20
-79.287
11
122.324
21
-79.2879
0
LINE
8
BLACK
6
CONTINUOUS
10
122.324
20
-79.2879
11
121.548
21
-79.9128
0
LINE
8
BLACK
6
CONTINUOUS
10
121.548
20
-79.9128
11
121.544
21
-79.915
0
LINE
8
BLACK
6
CONTINUOUS
10
121.544
20
-79.915
11
120.68
21
-80.4108
0
LINE
8
BLACK
6
CONTINUOUS
10
120.68
20
-80.4108
11
120.678
21
-80.4119
0
LINE
8
BLACK
6
CONTINUOUS
10
120.678
20
-80.4119
11
120.676
21
-80.4125
0
LINE
8
BLACK
6
CONTINUOUS
10
120.676
20
-80.4125
11
119.745
21
-80.7669
0
LINE
8
BLACK
6
CONTINUOUS
10
119.745
20
-80.7669
11
119.741
21
-80.768
0
LINE
8
BLACK
6
CONTINUOUS
10
119.741
20
-80.768
11
118.766
21
-80.9725
0
LINE
8
BLACK
6
CONTINUOUS
10
118.766
20
-80.9725
11
118.764
21
-80.9727
0
LINE
8
BLACK
6
CONTINUOUS
10
118.764
20
-80.9727
11
118.763
21
-80.9729
0
LINE
8
BLACK
6
CONTINUOUS
10
118.763
20
-80.9729
11
117.952
21
-81.0249
0
LINE
8
BLACK
6
CONTINUOUS
10
117.952
20
-81.0249
11
117.951
21
-81.025
0
LINE
8
BLACK
6
CONTINUOUS
10
117.951
20
-81.025
11
112.455
21
-81.025
0
LINE
8
BLACK
6
CONTINUOUS
10
112.455
20
-81.025
11
112.043
21
-81.0384
0
LINE
8
BLACK
6
CONTINUOUS
10
112.043
20
-81.0384
11
111.06
21
-81.1807
0
LINE
8
BLACK
6
CONTINUOUS
10
111.06
20
-81.1807
11
110.112
21
-81.4749
0
LINE
8
BLACK
6
CONTINUOUS
10
110.112
20
-81.4749
11
109.222
21
-81.9136
0
LINE
8
BLACK
6
CONTINUOUS
10
109.222
20
-81.9136
11
108.411
21
-82.4863
0
LINE
8
BLACK
6
CONTINUOUS
10
108.411
20
-82.4863
11
107.7
21
-83.1787
0
LINE
8
BLACK
6
CONTINUOUS
10
107.7
20
-83.1787
11
107.106
21
-83.9746
0
LINE
8
BLACK
6
CONTINUOUS
10
107.106
20
-83.9746
11
105.793
21
-86.054
0
LINE
8
BLACK
6
CONTINUOUS
10
105.793
20
-86.054
11
105.793
21
-86.0547
0
LINE
8
BLACK
6
CONTINUOUS
10
105.793
20
-86.0547
11
105.196
21
-86.8528
0
LINE
8
BLACK
6
CONTINUOUS
10
105.196
20
-86.8528
11
105.194
21
-86.8558
0
LINE
8
BLACK
6
CONTINUOUS
10
105.194
20
-86.8558
11
104.48
21
-87.5509
0
LINE
8
BLACK
6
CONTINUOUS
10
104.48
20
-87.5509
11
104.477
21
-87.5534
0
LINE
8
BLACK
6
CONTINUOUS
10
104.477
20
-87.5534
11
103.663
21
-88.1283
0
LINE
8
BLACK
6
CONTINUOUS
10
103.663
20
-88.1283
11
103.663
21
-88.1283
0
LINE
8
BLACK
6
CONTINUOUS
10
103.663
20
-88.1283
11
103.66
21
-88.1303
0
LINE
8
BLACK
6
CONTINUOUS
10
103.66
20
-88.1303
11
102.766
21
-88.5709
0
LINE
8
BLACK
6
CONTINUOUS
10
102.766
20
-88.5709
11
102.766
21
-88.5709
0
LINE
8
BLACK
6
CONTINUOUS
10
102.766
20
-88.5709
11
102.762
21
-88.5723
0
LINE
8
BLACK
6
CONTINUOUS
10
102.762
20
-88.5723
11
101.811
21
-88.8676
0
LINE
8
BLACK
6
CONTINUOUS
10
101.811
20
-88.8676
11
101.807
21
-88.8685
0
LINE
8
BLACK
6
CONTINUOUS
10
101.807
20
-88.8685
11
100.821
21
-89.0112
0
LINE
8
BLACK
6
CONTINUOUS
10
100.821
20
-89.0112
11
100.819
21
-89.0113
0
LINE
8
BLACK
6
CONTINUOUS
10
100.819
20
-89.0113
11
100.818
21
-89.0115
0
LINE
8
BLACK
6
CONTINUOUS
10
100.818
20
-89.0115
11
100.405
21
-89.025
0
LINE
8
BLACK
6
CONTINUOUS
10
100.405
20
-89.025
11
100.404
21
-89.025
0
LINE
8
BLACK
6
CONTINUOUS
10
100.404
20
-89.025
11
89.6266
21
-89.025
0
LINE
8
BLACK
6
CONTINUOUS
10
89.6266
20
-89.025
11
89.6257
21
-89.0249
0
LINE
8
BLACK
6
CONTINUOUS
10
89.6257
20
-89.0249
11
88.6325
21
-88.9467
0
LINE
8
BLACK
6
CONTINUOUS
10
88.6325
20
-88.9467
11
88.6325
21
-88.9467
0
LINE
8
BLACK
6
CONTINUOUS
10
88.6325
20
-88.9467
11
88.6287
21
-88.9461
0
LINE
8
BLACK
6
CONTINUOUS
10
83.103
20
-85.1937
11
83.8381
21
-85.8184
0
LINE
8
BLACK
6
CONTINUOUS
10
83.8381
20
-85.8184
11
83.8388
21
-85.819
0
LINE
8
BLACK
6
CONTINUOUS
10
83.8388
20
-85.819
11
85.177
21
-87.144
0
LINE
8
BLACK
6
CONTINUOUS
10
85.177
20
-87.144
11
85.9101
21
-87.767
0
LINE
8
BLACK
6
CONTINUOUS
10
85.9101
20
-87.767
11
86.7564
21
-88.2855
0
LINE
8
BLACK
6
CONTINUOUS
10
86.7564
20
-88.2855
11
87.6734
21
-88.6654
0
LINE
8
BLACK
6
CONTINUOUS
10
87.6734
20
-88.6654
11
88.6384
21
-88.8971
0
LINE
8
BLACK
6
CONTINUOUS
10
88.6384
20
-88.8971
11
89.6288
21
-88.975
0
LINE
8
BLACK
6
CONTINUOUS
10
89.6288
20
-88.975
11
100.403
21
-88.975
0
LINE
8
BLACK
6
CONTINUOUS
10
100.403
20
-88.975
11
100.815
21
-88.9616
0
LINE
8
BLACK
6
CONTINUOUS
10
100.815
20
-88.9616
11
101.798
21
-88.8193
0
LINE
8
BLACK
6
CONTINUOUS
10
101.798
20
-88.8193
11
102.746
21
-88.5251
0
LINE
8
BLACK
6
CONTINUOUS
10
102.746
20
-88.5251
11
103.636
21
-88.0864
0
LINE
8
BLACK
6
CONTINUOUS
10
103.636
20
-88.0864
11
104.446
21
-87.5137
0
LINE
8
BLACK
6
CONTINUOUS
10
104.446
20
-87.5137
11
105.158
21
-86.8213
0
LINE
8
BLACK
6
CONTINUOUS
10
105.158
20
-86.8213
11
105.752
21
-86.0254
0
LINE
8
BLACK
6
CONTINUOUS
10
105.752
20
-86.0254
11
107.065
21
-83.946
0
LINE
8
BLACK
6
CONTINUOUS
10
107.065
20
-83.946
11
107.065
21
-83.9453
0
LINE
8
BLACK
6
CONTINUOUS
10
107.065
20
-83.9453
11
107.662
21
-83.1472
0
LINE
8
BLACK
6
CONTINUOUS
10
107.662
20
-83.1472
11
107.664
21
-83.1442
0
LINE
8
BLACK
6
CONTINUOUS
10
107.664
20
-83.1442
11
108.378
21
-82.4491
0
LINE
8
BLACK
6
CONTINUOUS
10
108.378
20
-82.4491
11
108.381
21
-82.4466
0
LINE
8
BLACK
6
CONTINUOUS
10
108.381
20
-82.4466
11
109.195
21
-81.8717
0
LINE
8
BLACK
6
CONTINUOUS
10
109.195
20
-81.8717
11
109.198
21
-81.8697
0
LINE
8
BLACK
6
CONTINUOUS
10
109.198
20
-81.8697
11
110.092
21
-81.4291
0
LINE
8
BLACK
6
CONTINUOUS
10
110.092
20
-81.4291
11
110.092
21
-81.4291
0
LINE
8
BLACK
6
CONTINUOUS
10
110.092
20
-81.4291
11
110.096
21
-81.4277
0
LINE
8
BLACK
6
CONTINUOUS
10
110.096
20
-81.4277
11
111.047
21
-81.1324
0
LINE
8
BLACK
6
CONTINUOUS
10
111.047
20
-81.1324
11
111.047
21
-81.1324
0
LINE
8
BLACK
6
CONTINUOUS
10
111.047
20
-81.1324
11
111.051
21
-81.1315
0
LINE
8
BLACK
6
CONTINUOUS
10
111.051
20
-81.1315
11
112.037
21
-80.9888
0
LINE
8
BLACK
6
CONTINUOUS
10
112.037
20
-80.9888
11
112.039
21
-80.9887
0
LINE
8
BLACK
6
CONTINUOUS
10
112.039
20
-80.9887
11
112.04
21
-80.9885
0
LINE
8
BLACK
6
CONTINUOUS
10
112.04
20
-80.9885
11
112.453
21
-80.975
0
LINE
8
BLACK
6
CONTINUOUS
10
112.453
20
-80.975
11
112.454
21
-80.975
0
LINE
8
BLACK
6
CONTINUOUS
10
112.454
20
-80.975
11
117.949
21
-80.975
0
LINE
8
BLACK
6
CONTINUOUS
10
117.949
20
-80.975
11
118.758
21
-80.9232
0
LINE
8
BLACK
6
CONTINUOUS
10
118.758
20
-80.9232
11
119.729
21
-80.7195
0
LINE
8
BLACK
6
CONTINUOUS
10
119.729
20
-80.7195
11
120.657
21
-80.3664
0
LINE
8
BLACK
6
CONTINUOUS
10
120.657
20
-80.3664
11
121.518
21
-79.8726
0
LINE
8
BLACK
6
CONTINUOUS
10
121.518
20
-79.8726
11
122.291
21
-79.2502
0
LINE
8
BLACK
6
CONTINUOUS
10
122.291
20
-79.2502
11
122.957
21
-78.5145
0
LINE
8
BLACK
6
CONTINUOUS
10
122.957
20
-78.5145
11
123.501
21
-77.682
0
LINE
8
BLACK
6
CONTINUOUS
10
123.501
20
-77.682
11
123.501
21
-77.682
0
LINE
8
BLACK
6
CONTINUOUS
10
123.501
20
-77.682
11
124.046
21
-76.8479
0
LINE
8
BLACK
6
CONTINUOUS
10
124.046
20
-76.8479
11
124.048
21
-76.8448
0
LINE
8
BLACK
6
CONTINUOUS
10
124.048
20
-76.8448
11
124.717
21
-76.1061
0
LINE
8
BLACK
6
CONTINUOUS
10
124.717
20
-76.1061
11
124.718
21
-76.1052
0
LINE
8
BLACK
6
CONTINUOUS
10
124.718
20
-76.1052
11
124.719
21
-76.1042
0
LINE
8
BLACK
6
CONTINUOUS
10
124.719
20
-76.1042
11
125.005
21
-75.8502
0
LINE
8
BLACK
6
CONTINUOUS
10
125.005
20
-75.8502
11
125.422
21
-75.4689
0
LINE
8
BLACK
6
CONTINUOUS
10
125.422
20
-75.4689
11
126.067
21
-74.7139
0
LINE
8
BLACK
6
CONTINUOUS
10
126.067
20
-74.7139
11
126.586
21
-73.8677
0
LINE
8
BLACK
6
CONTINUOUS
10
126.586
20
-73.8677
11
126.965
21
-72.9507
0
LINE
8
BLACK
6
CONTINUOUS
10
126.965
20
-72.9507
11
127.197
21
-71.9857
0
LINE
8
BLACK
6
CONTINUOUS
10
127.197
20
-71.9857
11
127.275
21
-70.9952
0
LINE
8
BLACK
6
CONTINUOUS
10
127.275
20
-70.9952
11
127.275
21
-63.4558
0
LINE
8
BLACK
6
CONTINUOUS
10
127.275
20
-63.4558
11
127.233
21
-62.7276
0
LINE
8
BLACK
6
CONTINUOUS
10
127.233
20
-62.7276
11
127.042
21
-61.7535
0
LINE
8
BLACK
6
CONTINUOUS
10
127.042
20
-61.7535
11
126.701
21
-60.8215
0
LINE
8
BLACK
6
CONTINUOUS
10
126.701
20
-60.8215
11
126.218
21
-59.9543
0
LINE
8
BLACK
6
CONTINUOUS
10
126.218
20
-59.9543
11
125.605
21
-59.1733
0
LINE
8
BLACK
6
CONTINUOUS
10
125.605
20
-59.1733
11
124.878
21
-58.4978
0
LINE
8
BLACK
6
CONTINUOUS
10
124.878
20
-58.4978
11
124.054
21
-57.944
0
LINE
8
BLACK
6
CONTINUOUS
10
124.054
20
-57.944
11
124.053
21
-57.9434
0
LINE
8
BLACK
6
CONTINUOUS
10
124.053
20
-57.9434
11
124.049
21
-57.9403
0
LINE
8
BLACK
6
CONTINUOUS
10
124.049
20
-57.9403
11
124.046
21
-57.9365
0
LINE
8
BLACK
6
CONTINUOUS
10
124.046
20
-57.9365
11
124.043
21
-57.9321
0
LINE
8
BLACK
6
CONTINUOUS
10
124.043
20
-57.9321
11
124.042
21
-57.9274
0
LINE
8
BLACK
6
CONTINUOUS
10
124.042
20
-57.9274
11
124.042
21
-57.9237
0
LINE
8
BLACK
6
CONTINUOUS
10
124.042
20
-57.9237
11
124.042
21
-49.3698
0
LINE
8
BLACK
6
CONTINUOUS
10
124.042
20
-49.3698
11
124.042
21
-49.3661
0
LINE
8
BLACK
6
CONTINUOUS
10
124.042
20
-49.3661
11
124.043
21
-49.3614
0
LINE
8
BLACK
6
CONTINUOUS
10
124.043
20
-49.3614
11
124.046
21
-49.357
0
LINE
8
BLACK
6
CONTINUOUS
10
124.046
20
-49.357
11
124.047
21
-49.3552
0
LINE
8
BLACK
6
CONTINUOUS
10
124.047
20
-49.3552
11
124.047
21
-49.3551
0
LINE
8
BLACK
6
CONTINUOUS
10
124.047
20
-49.3551
11
124.047
21
-49.3551
0
LINE
8
BLACK
6
CONTINUOUS
10
124.047
20
-49.3551
11
124.049
21
-49.3532
0
LINE
8
BLACK
6
CONTINUOUS
10
124.049
20
-49.3532
11
124.053
21
-49.3501
0
LINE
8
BLACK
6
CONTINUOUS
10
124.053
20
-49.3501
11
124.054
21
-49.3494
0
LINE
8
BLACK
6
CONTINUOUS
10
124.054
20
-49.3494
11
124.667
21
-48.9556
0
LINE
8
BLACK
6
CONTINUOUS
10
124.667
20
-48.9556
11
125.422
21
-48.3108
0
LINE
8
BLACK
6
CONTINUOUS
10
125.422
20
-48.3108
11
126.067
21
-47.5561
0
LINE
8
BLACK
6
CONTINUOUS
10
126.067
20
-47.5561
11
126.586
21
-46.7099
0
LINE
8
BLACK
6
CONTINUOUS
10
126.586
20
-46.7099
11
126.965
21
-45.7929
0
LINE
8
BLACK
6
CONTINUOUS
10
126.965
20
-45.7929
11
127.197
21
-44.8279
0
LINE
8
BLACK
6
CONTINUOUS
10
127.197
20
-44.8279
11
127.275
21
-43.8374
0
LINE
8
BLACK
6
CONTINUOUS
10
127.275
20
-43.8374
11
127.275
21
-21.0044
0
LINE
8
BLACK
6
CONTINUOUS
10
127.275
20
-21.0044
11
127.25
21
-20.4403
0
LINE
8
BLACK
6
CONTINUOUS
10
127.25
20
-20.4403
11
127.084
21
-19.4613
0
LINE
8
BLACK
6
CONTINUOUS
10
127.084
20
-19.4613
11
126.767
21
-18.5208
0
LINE
8
BLACK
6
CONTINUOUS
10
126.767
20
-18.5208
11
126.307
21
-17.6413
0
LINE
8
BLACK
6
CONTINUOUS
10
126.307
20
-17.6413
11
125.715
21
-16.8447
0
LINE
8
BLACK
6
CONTINUOUS
10
125.715
20
-16.8447
11
125.004
21
-16.1491
0
LINE
8
BLACK
6
CONTINUOUS
10
125.004
20
-16.1491
11
125.004
21
-16.1491
0
LINE
8
BLACK
6
CONTINUOUS
10
125.004
20
-16.1491
11
124.292
21
-15.4521
0
LINE
8
BLACK
6
CONTINUOUS
10
124.292
20
-15.4521
11
124.292
21
-15.4512
0
LINE
8
BLACK
6
CONTINUOUS
10
124.292
20
-15.4512
11
124.291
21
-15.4504
0
LINE
8
BLACK
6
CONTINUOUS
10
124.291
20
-15.4504
11
124.16
21
-15.2962
0
LINE
8
BLACK
6
CONTINUOUS
10
124.16
20
-15.2962
11
124.118
21
-15.2472
0
LINE
8
BLACK
6
CONTINUOUS
10
124.118
20
-15.2472
11
123.906
21
-15.0518
0
LINE
8
BLACK
6
CONTINUOUS
10
123.906
20
-15.0518
11
123.66
21
-14.9019
0
LINE
8
BLACK
6
CONTINUOUS
10
123.66
20
-14.9019
11
123.39
21
-14.8026
0
LINE
8
BLACK
6
CONTINUOUS
10
123.39
20
-14.8026
11
123.106
21
-14.7577
0
LINE
8
BLACK
6
CONTINUOUS
10
123.106
20
-14.7577
11
122.818
21
-14.7689
0
LINE
8
BLACK
6
CONTINUOUS
10
122.818
20
-14.7689
11
122.538
21
-14.8357
0
LINE
8
BLACK
6
CONTINUOUS
10
122.538
20
-14.8357
11
122.276
21
-14.9556
0
LINE
8
BLACK
6
CONTINUOUS
10
122.276
20
-14.9556
11
122.043
21
-15.1241
0
LINE
8
BLACK
6
CONTINUOUS
10
122.043
20
-15.1241
11
121.847
21
-15.3347
0
LINE
8
BLACK
6
CONTINUOUS
10
121.847
20
-15.3347
11
121.695
21
-15.5794
0
LINE
8
BLACK
6
CONTINUOUS
10
121.695
20
-15.5794
11
121.594
21
-15.8489
0
LINE
8
BLACK
6
CONTINUOUS
10
121.594
20
-15.8489
11
121.547
21
-16.1345
0
LINE
8
BLACK
6
CONTINUOUS
10
121.547
20
-16.1345
11
121.547
21
-16.1361
0
LINE
8
BLACK
6
CONTINUOUS
10
121.547
20
-16.1361
11
121.545
21
-16.1408
0
LINE
8
BLACK
6
CONTINUOUS
10
121.545
20
-16.1408
11
121.543
21
-16.1452
0
LINE
8
BLACK
6
CONTINUOUS
10
121.543
20
-16.1452
11
121.54
21
-16.149
0
LINE
8
BLACK
6
CONTINUOUS
10
121.54
20
-16.149
11
121.536
21
-16.1521
0
LINE
8
BLACK
6
CONTINUOUS
10
121.536
20
-16.1521
11
121.532
21
-16.1544
0
LINE
8
BLACK
6
CONTINUOUS
10
121.532
20
-16.1544
11
121.527
21
-16.1559
0
LINE
8
BLACK
6
CONTINUOUS
10
121.527
20
-16.1559
11
121.523
21
-16.1562
0
LINE
8
BLACK
6
CONTINUOUS
10
121.523
20
-16.1562
11
109.251
21
-16.1562
0
LINE
8
BLACK
6
CONTINUOUS
10
109.251
20
-16.1562
11
109.25
21
-16.1563
0
LINE
8
BLACK
6
CONTINUOUS
10
109.25
20
-16.1563
11
109.245
21
-16.1559
0
LINE
8
BLACK
6
CONTINUOUS
10
109.245
20
-16.1559
11
109.24
21
-16.1544
0
LINE
8
BLACK
6
CONTINUOUS
10
109.24
20
-16.1544
11
109.236
21
-16.1521
0
LINE
8
BLACK
6
CONTINUOUS
10
109.236
20
-16.1521
11
109.232
21
-16.149
0
LINE
8
BLACK
6
CONTINUOUS
10
109.232
20
-16.149
11
109.23
21
-16.1461
0
LINE
8
BLACK
6
CONTINUOUS
10
109.23
20
-16.1461
11
109.229
21
-16.1452
0
LINE
8
BLACK
6
CONTINUOUS
10
109.229
20
-16.1452
11
109.227
21
-16.1408
0
LINE
8
BLACK
6
CONTINUOUS
10
109.227
20
-16.1408
11
109.225
21
-16.1361
0
LINE
8
BLACK
6
CONTINUOUS
10
109.225
20
-16.1361
11
109.225
21
-16.1312
0
LINE
8
BLACK
6
CONTINUOUS
10
109.225
20
-16.1312
11
109.225
21
-16.13
0
LINE
8
BLACK
6
CONTINUOUS
10
109.225
20
-16.13
11
109.225
21
2.68659
0
LINE
8
BLACK
6
CONTINUOUS
10
109.225
20
2.68659
11
109.147
21
3.67703
0
LINE
8
BLACK
6
CONTINUOUS
10
109.147
20
3.67703
11
108.915
21
4.64209
0
LINE
8
BLACK
6
CONTINUOUS
10
108.915
20
4.64209
11
108.536
21
5.55904
0
LINE
8
BLACK
6
CONTINUOUS
10
108.536
20
5.55904
11
108.017
21
6.40528
0
LINE
8
BLACK
6
CONTINUOUS
10
108.017
20
6.40528
11
107.372
21
7.15998
0
LINE
8
BLACK
6
CONTINUOUS
10
107.372
20
7.15998
11
106.618
21
7.80456
0
LINE
8
BLACK
6
CONTINUOUS
10
106.618
20
7.80456
11
105.771
21
8.32313
0
LINE
8
BLACK
6
CONTINUOUS
10
105.771
20
8.32313
11
104.855
21
8.70295
0
LINE
8
BLACK
6
CONTINUOUS
10
104.855
20
8.70295
11
103.889
21
8.93464
0
LINE
8
BLACK
6
CONTINUOUS
10
103.889
20
8.93464
11
102.899
21
9.01259
0
LINE
8
BLACK
6
CONTINUOUS
10
102.899
20
9.01259
11
90.2069
21
9.01259
0
LINE
8
BLACK
6
CONTINUOUS
10
90.2069
20
9.01259
11
90.206
21
9.01268
0
LINE
8
BLACK
6
CONTINUOUS
10
90.206
20
9.01268
11
89.2128
21
9.09084
0
LINE
8
BLACK
6
CONTINUOUS
10
89.2128
20
9.09084
11
89.2128
21
9.09084
0
LINE
8
BLACK
6
CONTINUOUS
10
89.2128
20
9.09084
11
89.2089
21
9.09146
0
LINE
8
BLACK
6
CONTINUOUS
10
89.2089
20
9.09146
11
88.24
21
9.32407
0
LINE
8
BLACK
6
CONTINUOUS
10
88.24
20
9.32407
11
88.2363
21
9.32528
0
LINE
8
BLACK
6
CONTINUOUS
10
88.2363
20
9.32528
11
87.3157
21
9.7066
0
LINE
8
BLACK
6
CONTINUOUS
10
87.3157
20
9.7066
11
87.3122
21
9.70838
0
LINE
8
BLACK
6
CONTINUOUS
10
87.3122
20
9.70838
11
87.3122
21
9.70838
0
LINE
8
BLACK
6
CONTINUOUS
10
87.3122
20
9.70838
11
86.4626
21
10.229
0
LINE
8
BLACK
6
CONTINUOUS
10
86.4626
20
10.229
11
86.4613
21
10.2299
0
LINE
8
BLACK
6
CONTINUOUS
10
86.4613
20
10.2299
11
86.46
21
10.2308
0
LINE
8
BLACK
6
CONTINUOUS
10
86.46
20
10.2308
11
85.9995
21
10.5993
0
LINE
8
BLACK
6
CONTINUOUS
10
85.9995
20
10.5993
11
85.5402
21
10.9668
0
LINE
8
BLACK
6
CONTINUOUS
10
85.5402
20
10.9668
11
84.6936
21
11.4855
0
LINE
8
BLACK
6
CONTINUOUS
10
84.6936
20
11.4855
11
83.7766
21
11.8654
0
LINE
8
BLACK
6
CONTINUOUS
10
83.7766
20
11.8654
11
82.8116
21
12.0971
0
LINE
8
BLACK
6
CONTINUOUS
10
82.8116
20
12.0971
11
81.8211
21
12.175
0
LINE
8
BLACK
6
CONTINUOUS
10
81.8211
20
12.175
11
73.5502
21
12.175
0
LINE
8
BLACK
6
CONTINUOUS
10
73.5502
20
12.175
11
73.5493
21
12.1751
0
LINE
8
BLACK
6
CONTINUOUS
10
73.5493
20
12.1751
11
72.5561
21
12.2533
0
LINE
8
BLACK
6
CONTINUOUS
10
72.5561
20
12.2533
11
72.5561
21
12.2533
0
LINE
8
BLACK
6
CONTINUOUS
10
72.5561
20
12.2533
11
72.5522
21
12.2539
0
LINE
8
BLACK
6
CONTINUOUS
10
72.5522
20
12.2539
11
71.5833
21
12.4865
0
LINE
8
BLACK
6
CONTINUOUS
10
71.5833
20
12.4865
11
71.5796
21
12.4877
0
LINE
8
BLACK
6
CONTINUOUS
10
71.5796
20
12.4877
11
70.659
21
12.869
0
LINE
8
BLACK
6
CONTINUOUS
10
70.659
20
12.869
11
70.6555
21
12.8708
0
LINE
8
BLACK
6
CONTINUOUS
10
70.6555
20
12.8708
11
69.8059
21
13.3914
0
LINE
8
BLACK
6
CONTINUOUS
10
69.8059
20
13.3914
11
69.8027
21
13.3937
0
LINE
8
BLACK
6
CONTINUOUS
10
69.8027
20
13.3937
11
69.0451
21
14.0409
0
LINE
8
BLACK
6
CONTINUOUS
10
69.0451
20
14.0409
11
69.044
21
14.0419
0
LINE
8
BLACK
6
CONTINUOUS
10
69.044
20
14.0419
11
69.0429
21
14.043
0
LINE
8
BLACK
6
CONTINUOUS
10
69.0429
20
14.043
11
68.6752
21
14.4436
0
LINE
8
BLACK
6
CONTINUOUS
10
68.6752
20
14.4436
11
68.6748
21
14.444
0
LINE
8
BLACK
6
CONTINUOUS
10
68.6748
20
14.444
11
67.4304
21
15.9225
0
LINE
8
BLACK
6
CONTINUOUS
10
67.4304
20
15.9225
11
67.0637
21
16.3221
0
LINE
8
BLACK
6
CONTINUOUS
10
67.0637
20
16.3221
11
66.3086
21
16.967
0
LINE
8
BLACK
6
CONTINUOUS
10
66.3086
20
16.967
11
65.4624
21
17.4855
0
LINE
8
BLACK
6
CONTINUOUS
10
65.4624
20
17.4855
11
64.5454
21
17.8654
0
LINE
8
BLACK
6
CONTINUOUS
10
64.5454
20
17.8654
11
63.5804
21
18.0971
0
LINE
8
BLACK
6
CONTINUOUS
10
63.5804
20
18.0971
11
62.59
21
18.175
0
LINE
8
BLACK
6
CONTINUOUS
10
62.59
20
18.175
11
51.5288
21
18.175
0
LINE
8
BLACK
6
CONTINUOUS
10
51.5288
20
18.175
11
50.5695
21
18.1019
0
LINE
8
BLACK
6
CONTINUOUS
10
50.5695
20
18.1019
11
49.6033
21
17.875
0
LINE
8
BLACK
6
CONTINUOUS
10
49.6033
20
17.875
11
48.6845
21
17.4998
0
LINE
8
BLACK
6
CONTINUOUS
10
48.6845
20
17.4998
11
47.8357
21
16.9854
0
LINE
8
BLACK
6
CONTINUOUS
10
47.8357
20
16.9854
11
47.077
21
16.344
0
LINE
8
BLACK
6
CONTINUOUS
10
47.077
20
16.344
11
45.7388
21
15.019
0
LINE
8
BLACK
6
CONTINUOUS
10
45.7388
20
15.019
11
45.7381
21
15.0184
0
LINE
8
BLACK
6
CONTINUOUS
10
45.7381
20
15.0184
11
44.9773
21
14.3751
0
LINE
8
BLACK
6
CONTINUOUS
10
44.9773
20
14.3751
11
44.9741
21
14.3729
0
LINE
8
BLACK
6
CONTINUOUS
10
44.9741
20
14.3729
11
44.1219
21
13.8565
0
LINE
8
BLACK
6
CONTINUOUS
10
44.1219
20
13.8565
11
44.1186
21
13.8548
0
LINE
8
BLACK
6
CONTINUOUS
10
44.1186
20
13.8548
11
44.1184
21
13.8547
0
LINE
8
BLACK
6
CONTINUOUS
10
44.1184
20
13.8547
11
43.196
21
13.478
0
LINE
8
BLACK
6
CONTINUOUS
10
43.196
20
13.478
11
43.1922
21
13.4768
0
LINE
8
BLACK
6
CONTINUOUS
10
43.1922
20
13.4768
11
42.2222
21
13.249
0
LINE
8
BLACK
6
CONTINUOUS
10
42.2222
20
13.249
11
42.2203
21
13.2487
0
LINE
8
BLACK
6
CONTINUOUS
10
42.2203
20
13.2487
11
42.2184
21
13.2484
0
LINE
8
BLACK
6
CONTINUOUS
10
42.2184
20
13.2484
11
41.2564
21
13.1751
0
LINE
8
BLACK
6
CONTINUOUS
10
41.2564
20
13.1751
11
41.2555
21
13.175
0
LINE
8
BLACK
6
CONTINUOUS
10
41.2555
20
13.175
11
32.0204
21
13.175
0
LINE
8
BLACK
6
CONTINUOUS
10
32.0204
20
13.175
11
31.611
21
13.1617
0
LINE
8
BLACK
6
CONTINUOUS
10
31.611
20
13.1617
11
30.6281
21
13.0199
0
LINE
8
BLACK
6
CONTINUOUS
10
30.6281
20
13.0199
11
29.6801
21
12.7262
0
LINE
8
BLACK
6
CONTINUOUS
10
29.6801
20
12.7262
11
28.7888
21
12.2873
0
LINE
8
BLACK
6
CONTINUOUS
10
28.7888
20
12.2873
11
26.7371
21
11.0685
0
LINE
8
BLACK
6
CONTINUOUS
10
26.7371
20
11.0685
11
26.7363
21
11.0682
0
LINE
8
BLACK
6
CONTINUOUS
10
26.7363
20
11.0682
11
25.8425
21
10.6281
0
LINE
8
BLACK
6
CONTINUOUS
10
25.8425
20
10.6281
11
25.8388
21
10.6267
0
LINE
8
BLACK
6
CONTINUOUS
10
25.8388
20
10.6267
11
24.887
21
10.3318
0
LINE
8
BLACK
6
CONTINUOUS
10
24.887
20
10.3318
11
24.8832
21
10.3309
0
LINE
8
BLACK
6
CONTINUOUS
10
24.8832
20
10.3309
11
23.897
21
10.1886
0
LINE
8
BLACK
6
CONTINUOUS
10
23.897
20
10.1886
11
23.8956
21
10.1885
0
LINE
8
BLACK
6
CONTINUOUS
10
23.8956
20
10.1885
11
23.8942
21
10.1883
0
LINE
8
BLACK
6
CONTINUOUS
10
23.8942
20
10.1883
11
23.4838
21
10.175
0
LINE
8
BLACK
6
CONTINUOUS
10
23.4838
20
10.175
11
23.4834
21
10.175
0
LINE
8
BLACK
6
CONTINUOUS
10
23.4834
20
10.175
11
-3.64919
21
10.175
0
LINE
8
BLACK
6
CONTINUOUS
10
-3.64919
20
10.175
11
-4.45771
21
10.1232
0
LINE
8
BLACK
6
CONTINUOUS
10
-4.45771
20
10.1232
11
-5.42927
21
9.9195
0
LINE
8
BLACK
6
CONTINUOUS
10
-5.42927
20
9.9195
11
-6.35684
21
9.56644
0
LINE
8
BLACK
6
CONTINUOUS
10
-6.35684
20
9.56644
11
-7.21777
21
9.07261
0
LINE
8
BLACK
6
CONTINUOUS
10
-7.21777
20
9.07261
11
-7.99084
21
8.45019
0
LINE
8
BLACK
6
CONTINUOUS
10
-7.99084
20
8.45019
11
-8.65702
21
7.7145
0
LINE
8
BLACK
6
CONTINUOUS
10
-8.65702
20
7.7145
11
-9.20099
21
6.88201
0
LINE
8
BLACK
6
CONTINUOUS
10
-9.20099
20
6.88201
11
-9.201
21
6.882
0
LINE
8
BLACK
6
CONTINUOUS
10
-9.201
20
6.882
11
-9.74605
21
6.04786
0
LINE
8
BLACK
6
CONTINUOUS
10
-9.74605
20
6.04786
11
-9.74844
21
6.04475
0
LINE
8
BLACK
6
CONTINUOUS
10
-9.74844
20
6.04475
11
-10.4173
21
5.30614
0
LINE
8
BLACK
6
CONTINUOUS
10
-10.4173
20
5.30614
11
-10.4183
21
5.30521
0
LINE
8
BLACK
6
CONTINUOUS
10
-10.4183
20
5.30521
11
-10.4192
21
5.30423
0
LINE
8
BLACK
6
CONTINUOUS
10
-10.4192
20
5.30423
11
-10.7052
21
5.05023
0
LINE
8
BLACK
6
CONTINUOUS
10
-10.7052
20
5.05023
11
-11.1221
21
4.66893
0
LINE
8
BLACK
6
CONTINUOUS
10
-11.1221
20
4.66893
11
-11.767
21
3.91392
0
LINE
8
BLACK
6
CONTINUOUS
10
-11.767
20
3.91392
11
-12.2855
21
3.06767
0
LINE
8
BLACK
6
CONTINUOUS
10
-12.2855
20
3.06767
11
-12.6654
21
2.15073
0
LINE
8
BLACK
6
CONTINUOUS
10
-12.6654
20
2.15073
11
-12.8971
21
1.18565
0
LINE
8
BLACK
6
CONTINUOUS
10
-12.8971
20
1.18565
11
-12.975
21
0.195234
0
LINE
8
BLACK
6
CONTINUOUS
10
-12.975
20
0.195234
11
-12.975
21
-73.4294
0
LINE
8
BLACK
6
CONTINUOUS
10
-12.975
20
-73.4294
11
-12.9456
21
-74.0386
0
LINE
8
BLACK
6
CONTINUOUS
10
-12.9456
20
-74.0386
11
-12.7728
21
-75.0163
0
LINE
8
BLACK
6
CONTINUOUS
10
-12.7728
20
-75.0163
11
-12.4492
21
-75.9546
0
LINE
8
BLACK
6
CONTINUOUS
10
-12.4492
20
-75.9546
11
-11.9829
21
-76.8307
0
LINE
8
BLACK
6
CONTINUOUS
10
-11.9829
20
-76.8307
11
-11.3841
21
-77.6247
0
LINE
8
BLACK
6
CONTINUOUS
10
-11.3841
20
-77.6247
11
-11.3841
21
-77.6247
0
LINE
8
BLACK
6
CONTINUOUS
10
-11.3841
20
-77.6247
11
-10.7841
21
-78.4202
0
LINE
8
BLACK
6
CONTINUOUS
10
-10.7841
20
-78.4202
11
-10.782
21
-78.4235
0
LINE
8
BLACK
6
CONTINUOUS
10
-10.782
20
-78.4235
11
-10.3138
21
-79.3031
0
LINE
8
BLACK
6
CONTINUOUS
10
-10.3138
20
-79.3031
11
-10.3138
21
-79.3031
0
LINE
8
BLACK
6
CONTINUOUS
10
-10.3138
20
-79.3031
11
-10.3122
21
-79.3067
0
LINE
8
BLACK
6
CONTINUOUS
10
-10.3122
20
-79.3067
11
-9.98741
21
-80.2487
0
LINE
8
BLACK
6
CONTINUOUS
10
-9.98741
20
-80.2487
11
-9.98704
21
-80.2501
0
LINE
8
BLACK
6
CONTINUOUS
10
-9.98704
20
-80.2501
11
-9.98661
21
-80.2516
0
LINE
8
BLACK
6
CONTINUOUS
10
-9.98661
20
-80.2516
11
-9.8797
21
-80.744
0
LINE
8
BLACK
6
CONTINUOUS
10
-9.8797
20
-80.744
11
-9.6654
21
-81.6044
0
LINE
8
BLACK
6
CONTINUOUS
10
-9.6654
20
-81.6044
11
-9.28555
21
-82.5215
0
LINE
8
BLACK
6
CONTINUOUS
10
-9.28555
20
-82.5215
11
-8.76697
21
-83.3677
0
LINE
8
BLACK
6
CONTINUOUS
10
-8.76697
20
-83.3677
11
-8.1224
21
-84.1224
0
LINE
8
BLACK
6
CONTINUOUS
10
-8.1224
20
-84.1224
11
-7.3677
21
-84.767
0
LINE
8
BLACK
6
CONTINUOUS
10
-7.3677
20
-84.767
11
-6.52145
21
-85.2855
0
LINE
8
BLACK
6
CONTINUOUS
10
-6.52145
20
-85.2855
11
-5.60451
21
-85.6654
0
LINE
8
BLACK
6
CONTINUOUS
10
-5.60451
20
-85.6654
11
-4.63944
21
-85.8971
0
LINE
8
BLACK
6
CONTINUOUS
10
-4.63944
20
-85.8971
11
-3.649
21
-85.975
0
LINE
8
BLACK
6
CONTINUOUS
10
-3.649
20
-85.975
11
25.1296
21
-85.975
0
LINE
8
BLACK
6
CONTINUOUS
10
25.1296
20
-85.975
11
25.539
21
-85.9617
0
LINE
8
BLACK
6
CONTINUOUS
10
25.539
20
-85.9617
11
26.5219
21
-85.8199
0
LINE
8
BLACK
6
CONTINUOUS
10
26.5219
20
-85.8199
11
27.4699
21
-85.5262
0
LINE
8
BLACK
6
CONTINUOUS
10
27.4699
20
-85.5262
11
28.3612
21
-85.0873
0
LINE
8
BLACK
6
CONTINUOUS
10
28.3612
20
-85.0873
11
30.4129
21
-83.8685
0
LINE
8
BLACK
6
CONTINUOUS
10
30.4129
20
-83.8685
11
30.4137
21
-83.8682
0
LINE
8
BLACK
6
CONTINUOUS
10
30.4137
20
-83.8682
11
31.3075
21
-83.4281
0
LINE
8
BLACK
6
CONTINUOUS
10
31.3075
20
-83.4281
11
31.3112
21
-83.4267
0
LINE
8
BLACK
6
CONTINUOUS
10
31.3112
20
-83.4267
11
32.263
21
-83.1318
0
LINE
8
BLACK
6
CONTINUOUS
10
32.263
20
-83.1318
11
32.2668
21
-83.1309
0
LINE
8
BLACK
6
CONTINUOUS
10
32.2668
20
-83.1309
11
33.253
21
-82.9886
0
LINE
8
BLACK
6
CONTINUOUS
10
33.253
20
-82.9886
11
33.2544
21
-82.9885
0
LINE
8
BLACK
6
CONTINUOUS
10
33.2544
20
-82.9885
11
33.2558
21
-82.9883
0
LINE
8
BLACK
6
CONTINUOUS
10
33.2558
20
-82.9883
11
33.6662
21
-82.975
0
LINE
8
BLACK
6
CONTINUOUS
10
33.6662
20
-82.975
11
33.6666
21
-82.975
0
LINE
8
BLACK
6
CONTINUOUS
10
33.6666
20
-82.975
11
43.7212
21
-82.975
0
LINE
8
BLACK
6
CONTINUOUS
10
43.7212
20
-82.975
11
44.6805
21
-82.9019
0
LINE
8
BLACK
6
CONTINUOUS
10
44.6805
20
-82.9019
11
45.6467
21
-82.675
0
LINE
8
BLACK
6
CONTINUOUS
10
45.6467
20
-82.675
11
46.5655
21
-82.2998
0
LINE
8
BLACK
6
CONTINUOUS
10
46.5655
20
-82.2998
11
47.4143
21
-81.7854
0
LINE
8
BLACK
6
CONTINUOUS
10
47.4143
20
-81.7854
11
48.173
21
-81.144
0
LINE
8
BLACK
6
CONTINUOUS
10
48.173
20
-81.144
11
49.5112
21
-79.819
0
LINE
8
BLACK
6
CONTINUOUS
10
49.5112
20
-79.819
11
49.512
21
-79.8184
0
LINE
8
BLACK
6
CONTINUOUS
10
49.512
20
-79.8184
11
50.2727
21
-79.1751
0
LINE
8
BLACK
6
CONTINUOUS
10
50.2727
20
-79.1751
11
50.274
21
-79.1742
0
LINE
8
BLACK
6
CONTINUOUS
10
50.274
20
-79.1742
11
50.2759
21
-79.1729
0
LINE
8
BLACK
6
CONTINUOUS
10
50.2759
20
-79.1729
11
51.1281
21
-78.6565
0
LINE
8
BLACK
6
CONTINUOUS
10
51.1281
20
-78.6565
11
51.1316
21
-78.6547
0
LINE
8
BLACK
6
CONTINUOUS
10
51.1316
20
-78.6547
11
52.054
21
-78.278
0
LINE
8
BLACK
6
CONTINUOUS
10
52.054
20
-78.278
11
52.0578
21
-78.2768
0
LINE
8
BLACK
6
CONTINUOUS
10
52.0578
20
-78.2768
11
53.0278
21
-78.049
0
LINE
8
BLACK
6
CONTINUOUS
10
53.0278
20
-78.049
11
53.0297
21
-78.0487
0
LINE
8
BLACK
6
CONTINUOUS
10
53.0297
20
-78.0487
11
53.0316
21
-78.0484
0
LINE
8
BLACK
6
CONTINUOUS
10
53.0316
20
-78.0484
11
53.9936
21
-77.9751
0
LINE
8
BLACK
6
CONTINUOUS
10
53.9936
20
-77.9751
11
53.9945
21
-77.975
0
LINE
8
BLACK
6
CONTINUOUS
10
53.9945
20
-77.975
11
59.7998
21
-77.975
0
LINE
8
BLACK
6
CONTINUOUS
10
59.7998
20
-77.975
11
59.8007
21
-77.9751
0
LINE
8
BLACK
6
CONTINUOUS
10
59.8007
20
-77.9751
11
60.7939
21
-78.0533
0
LINE
8
BLACK
6
CONTINUOUS
10
60.7939
20
-78.0533
11
60.7978
21
-78.0539
0
LINE
8
BLACK
6
CONTINUOUS
10
60.7978
20
-78.0539
11
60.7978
21
-78.0539
0
LINE
8
BLACK
6
CONTINUOUS
10
60.7978
20
-78.0539
11
61.7667
21
-78.2865
0
LINE
8
BLACK
6
CONTINUOUS
10
61.7667
20
-78.2865
11
61.7704
21
-78.2877
0
LINE
8
BLACK
6
CONTINUOUS
10
61.7704
20
-78.2877
11
62.691
21
-78.669
0
LINE
8
BLACK
6
CONTINUOUS
10
62.691
20
-78.669
11
62.6945
21
-78.6708
0
LINE
8
BLACK
6
CONTINUOUS
10
62.6945
20
-78.6708
11
62.6945
21
-78.6708
0
LINE
8
BLACK
6
CONTINUOUS
10
62.6945
20
-78.6708
11
63.5441
21
-79.1914
0
LINE
8
BLACK
6
CONTINUOUS
10
63.5441
20
-79.1914
11
63.5473
21
-79.1937
0
LINE
8
BLACK
6
CONTINUOUS
10
63.5473
20
-79.1937
11
64.3049
21
-79.8409
0
LINE
8
BLACK
6
CONTINUOUS
10
64.3049
20
-79.8409
11
64.306
21
-79.8419
0
LINE
8
BLACK
6
CONTINUOUS
10
64.306
20
-79.8419
11
64.3071
21
-79.843
0
LINE
8
BLACK
6
CONTINUOUS
10
64.3071
20
-79.843
11
64.6748
21
-80.2436
0
LINE
8
BLACK
6
CONTINUOUS
10
64.6748
20
-80.2436
11
64.6752
21
-80.244
0
LINE
8
BLACK
6
CONTINUOUS
10
64.6752
20
-80.244
11
65.9196
21
-81.7225
0
LINE
8
BLACK
6
CONTINUOUS
10
65.9196
20
-81.7225
11
66.2863
21
-82.1221
0
LINE
8
BLACK
6
CONTINUOUS
10
66.2863
20
-82.1221
11
67.0414
21
-82.767
0
LINE
8
BLACK
6
CONTINUOUS
10
67.0414
20
-82.767
11
67.8876
21
-83.2855
0
LINE
8
BLACK
6
CONTINUOUS
10
67.8876
20
-83.2855
11
68.8046
21
-83.6654
0
LINE
8
BLACK
6
CONTINUOUS
10
68.8046
20
-83.6654
11
69.7696
21
-83.8971
0
LINE
8
BLACK
6
CONTINUOUS
10
69.7696
20
-83.8971
11
70.76
21
-83.975
0
LINE
8
BLACK
6
CONTINUOUS
10
70.76
20
-83.975
11
79.3555
21
-83.975
0
LINE
8
BLACK
6
CONTINUOUS
10
79.3555
20
-83.975
11
79.3564
21
-83.9751
0
LINE
8
BLACK
6
CONTINUOUS
10
79.3564
20
-83.9751
11
80.3496
21
-84.0533
0
LINE
8
BLACK
6
CONTINUOUS
10
80.3496
20
-84.0533
11
80.3535
21
-84.0539
0
LINE
8
BLACK
6
CONTINUOUS
10
80.3535
20
-84.0539
11
80.3535
21
-84.0539
0
LINE
8
BLACK
6
CONTINUOUS
10
80.3535
20
-84.0539
11
81.3224
21
-84.2865
0
LINE
8
BLACK
6
CONTINUOUS
10
81.3224
20
-84.2865
11
81.3261
21
-84.2877
0
LINE
8
BLACK
6
CONTINUOUS
10
81.3261
20
-84.2877
11
82.2467
21
-84.669
0
LINE
8
BLACK
6
CONTINUOUS
10
82.2467
20
-84.669
11
82.2502
21
-84.6708
0
LINE
8
BLACK
6
CONTINUOUS
10
82.2502
20
-84.6708
11
82.2502
21
-84.6708
0
LINE
8
BLACK
6
CONTINUOUS
10
82.2502
20
-84.6708
11
83.0998
21
-85.1914
0
LINE
8
BLACK
6
CONTINUOUS
10
83.0998
20
-85.1914
11
83.1016
21
-85.1927
0
LINE
8
BLACK
6
CONTINUOUS
10
83.1016
20
-85.1927
11
83.1029
21
-85.1937
0
LINE
8
BLACK
6
CONTINUOUS
10
83.1029
20
-85.1937
11
83.103
21
-85.1937
0
LINE
8
BLACK
6
CONTINUOUS
10
83.103
20
-85.1937
11
83.103
21
-85.1937
0
LINE
8
BLACK
6
CONTINUOUS
10
96.9792
20
-82.393
11
96.9792
21
-82.393
0
LINE
8
BLACK
6
CONTINUOUS
10
96.9792
20
-82.393
11
96.9829
21
-82.3934
0
LINE
8
BLACK
6
CONTINUOUS
10
96.9829
20
-82.3934
11
96.9876
21
-82.3948
0
LINE
8
BLACK
6
CONTINUOUS
10
96.9876
20
-82.3948
11
96.992
21
-82.3971
0
LINE
8
BLACK
6
CONTINUOUS
10
96.992
20
-82.3971
11
96.9958
21
-82.4002
0
LINE
8
BLACK
6
CONTINUOUS
10
96.9958
20
-82.4002
11
96.9989
21
-82.404
0
LINE
8
BLACK
6
CONTINUOUS
10
96.9989
20
-82.404
11
97.0012
21
-82.4084
0
LINE
8
BLACK
6
CONTINUOUS
10
97.0012
20
-82.4084
11
97.0026
21
-82.4131
0
LINE
8
BLACK
6
CONTINUOUS
10
97.0026
20
-82.4131
11
97.0031
21
-82.418
0
LINE
8
BLACK
6
CONTINUOUS
10
97.0031
20
-82.418
11
97.003
21
-82.4192
0
LINE
8
BLACK
6
CONTINUOUS
10
97.003
20
-82.4192
11
97.003
21
-85.4668
0
LINE
8
BLACK
6
CONTINUOUS
10
97.003
20
-85.4668
11
97.0031
21
-85.468
0
LINE
8
BLACK
6
CONTINUOUS
10
97.0031
20
-85.468
11
97.003
21
-85.4692
0
LINE
8
BLACK
6
CONTINUOUS
10
97.003
20
-85.4692
11
97.003
21
-85.4692
0
LINE
8
BLACK
6
CONTINUOUS
10
97.003
20
-85.4692
11
97.0026
21
-85.4729
0
LINE
8
BLACK
6
CONTINUOUS
10
97.0026
20
-85.4729
11
97.0012
21
-85.4776
0
LINE
8
BLACK
6
CONTINUOUS
10
97.0012
20
-85.4776
11
96.9989
21
-85.482
0
LINE
8
BLACK
6
CONTINUOUS
10
96.9989
20
-85.482
11
96.9958
21
-85.4858
0
LINE
8
BLACK
6
CONTINUOUS
10
96.9958
20
-85.4858
11
96.992
21
-85.4889
0
LINE
8
BLACK
6
CONTINUOUS
10
96.992
20
-85.4889
11
96.9876
21
-85.4912
0
LINE
8
BLACK
6
CONTINUOUS
10
96.9876
20
-85.4912
11
96.9829
21
-85.4926
0
LINE
8
BLACK
6
CONTINUOUS
10
96.9829
20
-85.4926
11
96.978
21
-85.4931
0
LINE
8
BLACK
6
CONTINUOUS
10
96.978
20
-85.4931
11
96.9768
21
-85.493
0
LINE
8
BLACK
6
CONTINUOUS
10
96.9768
20
-85.493
11
93.5292
21
-85.493
0
LINE
8
BLACK
6
CONTINUOUS
10
93.5292
20
-85.493
11
93.528
21
-85.4931
0
LINE
8
BLACK
6
CONTINUOUS
10
93.528
20
-85.4931
11
93.5231
21
-85.4926
0
LINE
8
BLACK
6
CONTINUOUS
10
93.5231
20
-85.4926
11
93.5184
21
-85.4912
0
LINE
8
BLACK
6
CONTINUOUS
10
93.5184
20
-85.4912
11
93.514
21
-85.4889
0
LINE
8
BLACK
6
CONTINUOUS
10
93.514
20
-85.4889
11
93.5102
21
-85.4858
0
LINE
8
BLACK
6
CONTINUOUS
10
93.5102
20
-85.4858
11
93.5071
21
-85.482
0
LINE
8
BLACK
6
CONTINUOUS
10
93.5071
20
-85.482
11
93.5048
21
-85.4776
0
LINE
8
BLACK
6
CONTINUOUS
10
93.5048
20
-85.4776
11
93.5034
21
-85.4729
0
LINE
8
BLACK
6
CONTINUOUS
10
93.5034
20
-85.4729
11
93.5029
21
-85.468
0
LINE
8
BLACK
6
CONTINUOUS
10
93.5029
20
-85.468
11
93.503
21
-85.4668
0
LINE
8
BLACK
6
CONTINUOUS
10
93.503
20
-85.4668
11
93.503
21
-82.4192
0
LINE
8
BLACK
6
CONTINUOUS
10
93.503
20
-82.4192
11
93.5029
21
-82.418
0
LINE
8
BLACK
6
CONTINUOUS
10
93.5029
20
-82.418
11
93.5034
21
-82.4131
0
LINE
8
BLACK
6
CONTINUOUS
10
93.5034
20
-82.4131
11
93.5048
21
-82.4084
0
LINE
8
BLACK
6
CONTINUOUS
10
93.5048
20
-82.4084
11
93.5071
21
-82.404
0
LINE
8
BLACK
6
CONTINUOUS
10
93.5071
20
-82.404
11
93.5102
21
-82.4002
0
LINE
8
BLACK
6
CONTINUOUS
10
93.5102
20
-82.4002
11
93.514
21
-82.3971
0
LINE
8
BLACK
6
CONTINUOUS
10
93.514
20
-82.3971
11
93.5184
21
-82.3948
0
LINE
8
BLACK
6
CONTINUOUS
10
93.5184
20
-82.3948
11
93.5231
21
-82.3934
0
LINE
8
BLACK
6
CONTINUOUS
10
93.5231
20
-82.3934
11
93.5268
21
-82.393
0
LINE
8
BLACK
6
CONTINUOUS
10
93.5268
20
-82.393
11
93.5268
21
-82.393
0
LINE
8
BLACK
6
CONTINUOUS
10
93.5268
20
-82.393
11
93.528
21
-82.3929
0
LINE
8
BLACK
6
CONTINUOUS
10
93.528
20
-82.3929
11
93.5292
21
-82.393
0
LINE
8
BLACK
6
CONTINUOUS
10
93.5292
20
-82.393
11
96.9768
21
-82.393
0
LINE
8
BLACK
6
CONTINUOUS
10
96.9768
20
-82.393
11
96.978
21
-82.3929
0
LINE
8
BLACK
6
CONTINUOUS
10
96.978
20
-82.3929
11
96.9792
21
-82.393
0
LINE
8
BLACK
6
CONTINUOUS
10
93.553
20
-82.443
11
93.553
21
-85.443
0
LINE
8
BLACK
6
CONTINUOUS
10
93.553
20
-85.443
11
96.953
21
-85.443
0
LINE
8
BLACK
6
CONTINUOUS
10
96.953
20
-85.443
11
96.953
21
-82.443
0
LINE
8
BLACK
6
CONTINUOUS
10
96.953
20
-82.443
11
93.553
21
-82.443
0
LINE
8
BLACK
6
CONTINUOUS
10
20.7692
20
-79.393
11
20.7692
21
-79.393
0
LINE
8
BLACK
6
CONTINUOUS
10
20.7692
20
-79.393
11
20.7729
21
-79.3934
0
LINE
8
BLACK
6
CONTINUOUS
10
20.7729
20
-79.3934
11
20.7776
21
-79.3948
0
LINE
8
BLACK
6
CONTINUOUS
10
20.7776
20
-79.3948
11
20.782
21
-79.3971
0
LINE
8
BLACK
6
CONTINUOUS
10
20.782
20
-79.3971
11
20.7858
21
-79.4002
0
LINE
8
BLACK
6
CONTINUOUS
10
20.7858
20
-79.4002
11
20.7889
21
-79.404
0
LINE
8
BLACK
6
CONTINUOUS
10
20.7889
20
-79.404
11
20.7912
21
-79.4084
0
LINE
8
BLACK
6
CONTINUOUS
10
20.7912
20
-79.4084
11
20.7926
21
-79.4131
0
LINE
8
BLACK
6
CONTINUOUS
10
20.7926
20
-79.4131
11
20.7931
21
-79.418
0
LINE
8
BLACK
6
CONTINUOUS
10
20.7931
20
-79.418
11
20.793
21
-79.4192
0
LINE
8
BLACK
6
CONTINUOUS
10
20.793
20
-79.4192
11
20.793
21
-82.4668
0
LINE
8
BLACK
6
CONTINUOUS
10
20.793
20
-82.4668
11
20.7931
21
-82.468
0
LINE
8
BLACK
6
CONTINUOUS
10
20.7931
20
-82.468
11
20.793
21
-82.4692
0
LINE
8
BLACK
6
CONTINUOUS
10
20.793
20
-82.4692
11
20.793
21
-82.4692
0
LINE
8
BLACK
6
CONTINUOUS
10
20.793
20
-82.4692
11
20.7926
21
-82.4729
0
LINE
8
BLACK
6
CONTINUOUS
10
20.7926
20
-82.4729
11
20.7912
21
-82.4776
0
LINE
8
BLACK
6
CONTINUOUS
10
20.7912
20
-82.4776
11
20.7889
21
-82.482
0
LINE
8
BLACK
6
CONTINUOUS
10
20.7889
20
-82.482
11
20.7858
21
-82.4858
0
LINE
8
BLACK
6
CONTINUOUS
10
20.7858
20
-82.4858
11
20.782
21
-82.4889
0
LINE
8
BLACK
6
CONTINUOUS
10
20.782
20
-82.4889
11
20.7776
21
-82.4912
0
LINE
8
BLACK
6
CONTINUOUS
10
20.7776
20
-82.4912
11
20.7729
21
-82.4926
0
LINE
8
BLACK
6
CONTINUOUS
10
20.7729
20
-82.4926
11
20.768
21
-82.4931
0
LINE
8
BLACK
6
CONTINUOUS
10
20.768
20
-82.4931
11
20.7668
21
-82.493
0
LINE
8
BLACK
6
CONTINUOUS
10
20.7668
20
-82.493
11
17.3292
21
-82.493
0
LINE
8
BLACK
6
CONTINUOUS
10
17.3292
20
-82.493
11
17.328
21
-82.4931
0
LINE
8
BLACK
6
CONTINUOUS
10
17.328
20
-82.4931
11
17.3231
21
-82.4926
0
LINE
8
BLACK
6
CONTINUOUS
10
17.3231
20
-82.4926
11
17.3184
21
-82.4912
0
LINE
8
BLACK
6
CONTINUOUS
10
17.3184
20
-82.4912
11
17.314
21
-82.4889
0
LINE
8
BLACK
6
CONTINUOUS
10
17.314
20
-82.4889
11
17.3102
21
-82.4858
0
LINE
8
BLACK
6
CONTINUOUS
10
17.3102
20
-82.4858
11
17.3091
21
-82.4844
0
LINE
8
BLACK
6
CONTINUOUS
10
17.3091
20
-82.4844
11
17.3071
21
-82.482
0
LINE
8
BLACK
6
CONTINUOUS
10
17.3071
20
-82.482
11
17.3048
21
-82.4776
0
LINE
8
BLACK
6
CONTINUOUS
10
17.3048
20
-82.4776
11
17.3034
21
-82.4729
0
LINE
8
BLACK
6
CONTINUOUS
10
17.3034
20
-82.4729
11
17.3029
21
-82.468
0
LINE
8
BLACK
6
CONTINUOUS
10
17.3029
20
-82.468
11
17.303
21
-82.4668
0
LINE
8
BLACK
6
CONTINUOUS
10
17.303
20
-82.4668
11
17.303
21
-79.4192
0
LINE
8
BLACK
6
CONTINUOUS
10
17.303
20
-79.4192
11
17.3029
21
-79.418
0
LINE
8
BLACK
6
CONTINUOUS
10
17.3029
20
-79.418
11
17.3034
21
-79.4131
0
LINE
8
BLACK
6
CONTINUOUS
10
17.3034
20
-79.4131
11
17.3048
21
-79.4084
0
LINE
8
BLACK
6
CONTINUOUS
10
17.3048
20
-79.4084
11
17.3071
21
-79.404
0
LINE
8
BLACK
6
CONTINUOUS
10
17.3071
20
-79.404
11
17.3102
21
-79.4002
0
LINE
8
BLACK
6
CONTINUOUS
10
17.3102
20
-79.4002
11
17.314
21
-79.3971
0
LINE
8
BLACK
6
CONTINUOUS
10
17.314
20
-79.3971
11
17.3184
21
-79.3948
0
LINE
8
BLACK
6
CONTINUOUS
10
17.3184
20
-79.3948
11
17.3231
21
-79.3934
0
LINE
8
BLACK
6
CONTINUOUS
10
17.3231
20
-79.3934
11
17.3268
21
-79.393
0
LINE
8
BLACK
6
CONTINUOUS
10
17.3268
20
-79.393
11
17.3268
21
-79.393
0
LINE
8
BLACK
6
CONTINUOUS
10
17.3268
20
-79.393
11
17.328
21
-79.3929
0
LINE
8
BLACK
6
CONTINUOUS
10
17.328
20
-79.3929
11
17.3292
21
-79.393
0
LINE
8
BLACK
6
CONTINUOUS
10
17.3292
20
-79.393
11
20.7668
21
-79.393
0
LINE
8
BLACK
6
CONTINUOUS
10
20.7668
20
-79.393
11
20.768
21
-79.3929
0
LINE
8
BLACK
6
CONTINUOUS
10
20.768
20
-79.3929
11
20.7692
21
-79.393
0
LINE
8
BLACK
6
CONTINUOUS
10
17.353
20
-79.443
11
17.353
21
-82.443
0
LINE
8
BLACK
6
CONTINUOUS
10
17.353
20
-82.443
11
20.743
21
-82.443
0
LINE
8
BLACK
6
CONTINUOUS
10
20.743
20
-82.443
11
20.743
21
-79.443
0
LINE
8
BLACK
6
CONTINUOUS
10
20.743
20
-79.443
11
17.353
21
-79.443
0
LINE
8
BLACK
6
CONTINUOUS
10
1.70922
20
-79.413
11
1.70922
21
-79.413
0
LINE
8
BLACK
6
CONTINUOUS
10
1.70922
20
-79.413
11
1.7129
21
-79.4134
0
LINE
8
BLACK
6
CONTINUOUS
10
1.7129
20
-79.4134
11
1.71761
21
-79.4148
0
LINE
8
BLACK
6
CONTINUOUS
10
1.71761
20
-79.4148
11
1.72196
21
-79.4171
0
LINE
8
BLACK
6
CONTINUOUS
10
1.72196
20
-79.4171
11
1.72576
21
-79.4202
0
LINE
8
BLACK
6
CONTINUOUS
10
1.72576
20
-79.4202
11
1.72889
21
-79.424
0
LINE
8
BLACK
6
CONTINUOUS
10
1.72889
20
-79.424
11
1.73121
21
-79.4284
0
LINE
8
BLACK
6
CONTINUOUS
10
1.73121
20
-79.4284
11
1.73264
21
-79.4331
0
LINE
8
BLACK
6
CONTINUOUS
10
1.73264
20
-79.4331
11
1.73312
21
-79.438
0
LINE
8
BLACK
6
CONTINUOUS
10
1.73312
20
-79.438
11
1.733
21
-79.4392
0
LINE
8
BLACK
6
CONTINUOUS
10
1.733
20
-79.4392
11
1.733
21
-82.4568
0
LINE
8
BLACK
6
CONTINUOUS
10
1.733
20
-82.4568
11
1.73312
21
-82.458
0
LINE
8
BLACK
6
CONTINUOUS
10
1.73312
20
-82.458
11
1.733
21
-82.4592
0
LINE
8
BLACK
6
CONTINUOUS
10
1.733
20
-82.4592
11
1.733
21
-82.4592
0
LINE
8
BLACK
6
CONTINUOUS
10
1.733
20
-82.4592
11
1.73264
21
-82.4629
0
LINE
8
BLACK
6
CONTINUOUS
10
1.73264
20
-82.4629
11
1.73121
21
-82.4676
0
LINE
8
BLACK
6
CONTINUOUS
10
1.73121
20
-82.4676
11
1.72889
21
-82.472
0
LINE
8
BLACK
6
CONTINUOUS
10
1.72889
20
-82.472
11
1.72576
21
-82.4758
0
LINE
8
BLACK
6
CONTINUOUS
10
1.72576
20
-82.4758
11
1.72196
21
-82.4789
0
LINE
8
BLACK
6
CONTINUOUS
10
1.72196
20
-82.4789
11
1.71761
21
-82.4812
0
LINE
8
BLACK
6
CONTINUOUS
10
1.71761
20
-82.4812
11
1.7129
21
-82.4826
0
LINE
8
BLACK
6
CONTINUOUS
10
1.7129
20
-82.4826
11
1.708
21
-82.4831
0
LINE
8
BLACK
6
CONTINUOUS
10
1.708
20
-82.4831
11
1.70678
21
-82.483
0
LINE
8
BLACK
6
CONTINUOUS
10
1.70678
20
-82.483
11
-1.71078
21
-82.483
0
LINE
8
BLACK
6
CONTINUOUS
10
-1.71078
20
-82.483
11
-1.712
21
-82.4831
0
LINE
8
BLACK
6
CONTINUOUS
10
-1.712
20
-82.4831
11
-1.7169
21
-82.4826
0
LINE
8
BLACK
6
CONTINUOUS
10
-1.7169
20
-82.4826
11
-1.72161
21
-82.4812
0
LINE
8
BLACK
6
CONTINUOUS
10
-1.72161
20
-82.4812
11
-1.72596
21
-82.4789
0
LINE
8
BLACK
6
CONTINUOUS
10
-1.72596
20
-82.4789
11
-1.72976
21
-82.4758
0
LINE
8
BLACK
6
CONTINUOUS
10
-1.72976
20
-82.4758
11
-1.73036
21
-82.475
0
LINE
8
BLACK
6
CONTINUOUS
10
-1.73036
20
-82.475
11
-1.73289
21
-82.472
0
LINE
8
BLACK
6
CONTINUOUS
10
-1.73289
20
-82.472
11
-1.73521
21
-82.4676
0
LINE
8
BLACK
6
CONTINUOUS
10
-1.73521
20
-82.4676
11
-1.73664
21
-82.4629
0
LINE
8
BLACK
6
CONTINUOUS
10
-1.73664
20
-82.4629
11
-1.73712
21
-82.458
0
LINE
8
BLACK
6
CONTINUOUS
10
-1.73712
20
-82.458
11
-1.737
21
-82.4568
0
LINE
8
BLACK
6
CONTINUOUS
10
-1.737
20
-82.4568
11
-1.737
21
-79.4392
0
LINE
8
BLACK
6
CONTINUOUS
10
-1.737
20
-79.4392
11
-1.73712
21
-79.438
0
LINE
8
BLACK
6
CONTINUOUS
10
-1.73712
20
-79.438
11
-1.73664
21
-79.4331
0
LINE
8
BLACK
6
CONTINUOUS
10
-1.73664
20
-79.4331
11
-1.73521
21
-79.4284
0
LINE
8
BLACK
6
CONTINUOUS
10
-1.73521
20
-79.4284
11
-1.73289
21
-79.424
0
LINE
8
BLACK
6
CONTINUOUS
10
-1.73289
20
-79.424
11
-1.72976
21
-79.4202
0
LINE
8
BLACK
6
CONTINUOUS
10
-1.72976
20
-79.4202
11
-1.72596
21
-79.4171
0
LINE
8
BLACK
6
CONTINUOUS
10
-1.72596
20
-79.4171
11
-1.72161
21
-79.4148
0
LINE
8
BLACK
6
CONTINUOUS
10
-1.72161
20
-79.4148
11
-1.7169
21
-79.4134
0
LINE
8
BLACK
6
CONTINUOUS
10
-1.7169
20
-79.4134
11
-1.71322
21
-79.413
0
LINE
8
BLACK
6
CONTINUOUS
10
-1.71322
20
-79.413
11
-1.71322
21
-79.413
0
LINE
8
BLACK
6
CONTINUOUS
10
-1.71322
20
-79.413
11
-1.712
21
-79.4129
0
LINE
8
BLACK
6
CONTINUOUS
10
-1.712
20
-79.4129
11
-1.71078
21
-79.413
0
LINE
8
BLACK
6
CONTINUOUS
10
-1.71078
20
-79.413
11
1.70678
21
-79.413
0
LINE
8
BLACK
6
CONTINUOUS
10
1.70678
20
-79.413
11
1.708
21
-79.4129
0
LINE
8
BLACK
6
CONTINUOUS
10
1.708
20
-79.4129
11
1.70922
21
-79.413
0
LINE
8
BLACK
6
CONTINUOUS
10
-1.687
20
-79.463
11
-1.687
21
-82.433
0
LINE
8
BLACK
6
CONTINUOUS
10
-1.687
20
-82.433
11
1.683
21
-82.433
0
LINE
8
BLACK
6
CONTINUOUS
10
1.683
20
-82.433
11
1.683
21
-79.463
0
LINE
8
BLACK
6
CONTINUOUS
10
1.683
20
-79.463
11
-1.687
21
-79.463
0
LINE
8
BLACK
6
CONTINUOUS
10
77.8992
20
-77.393
11
77.9029
21
-77.3934
0
LINE
8
BLACK
6
CONTINUOUS
10
77.9029
20
-77.3934
11
77.9076
21
-77.3948
0
LINE
8
BLACK
6
CONTINUOUS
10
77.9076
20
-77.3948
11
77.912
21
-77.3971
0
LINE
8
BLACK
6
CONTINUOUS
10
77.912
20
-77.3971
11
77.9158
21
-77.4002
0
LINE
8
BLACK
6
CONTINUOUS
10
77.9158
20
-77.4002
11
77.9189
21
-77.404
0
LINE
8
BLACK
6
CONTINUOUS
10
77.9189
20
-77.404
11
77.9212
21
-77.4084
0
LINE
8
BLACK
6
CONTINUOUS
10
77.9212
20
-77.4084
11
77.9226
21
-77.4131
0
LINE
8
BLACK
6
CONTINUOUS
10
77.9226
20
-77.4131
11
77.9231
21
-77.418
0
LINE
8
BLACK
6
CONTINUOUS
10
77.9231
20
-77.418
11
77.923
21
-77.4192
0
LINE
8
BLACK
6
CONTINUOUS
10
77.923
20
-77.4192
11
77.923
21
-80.4668
0
LINE
8
BLACK
6
CONTINUOUS
10
77.923
20
-80.4668
11
77.9231
21
-80.468
0
LINE
8
BLACK
6
CONTINUOUS
10
77.9231
20
-80.468
11
77.9226
21
-80.4729
0
LINE
8
BLACK
6
CONTINUOUS
10
77.9226
20
-80.4729
11
77.9212
21
-80.4776
0
LINE
8
BLACK
6
CONTINUOUS
10
77.9212
20
-80.4776
11
77.9189
21
-80.482
0
LINE
8
BLACK
6
CONTINUOUS
10
77.9189
20
-80.482
11
77.9158
21
-80.4858
0
LINE
8
BLACK
6
CONTINUOUS
10
77.9158
20
-80.4858
11
77.912
21
-80.4889
0
LINE
8
BLACK
6
CONTINUOUS
10
77.912
20
-80.4889
11
77.9076
21
-80.4912
0
LINE
8
BLACK
6
CONTINUOUS
10
77.9076
20
-80.4912
11
77.9029
21
-80.4926
0
LINE
8
BLACK
6
CONTINUOUS
10
77.9029
20
-80.4926
11
77.8992
21
-80.493
0
LINE
8
BLACK
6
CONTINUOUS
10
77.8992
20
-80.493
11
77.8992
21
-80.493
0
LINE
8
BLACK
6
CONTINUOUS
10
77.8992
20
-80.493
11
77.898
21
-80.4931
0
LINE
8
BLACK
6
CONTINUOUS
10
77.898
20
-80.4931
11
77.8968
21
-80.493
0
LINE
8
BLACK
6
CONTINUOUS
10
77.8968
20
-80.493
11
74.4892
21
-80.493
0
LINE
8
BLACK
6
CONTINUOUS
10
74.4892
20
-80.493
11
74.488
21
-80.4931
0
LINE
8
BLACK
6
CONTINUOUS
10
74.488
20
-80.4931
11
74.4868
21
-80.493
0
LINE
8
BLACK
6
CONTINUOUS
10
74.4868
20
-80.493
11
74.4868
21
-80.493
0
LINE
8
BLACK
6
CONTINUOUS
10
74.4868
20
-80.493
11
74.4831
21
-80.4926
0
LINE
8
BLACK
6
CONTINUOUS
10
74.4831
20
-80.4926
11
74.4784
21
-80.4912
0
LINE
8
BLACK
6
CONTINUOUS
10
74.4784
20
-80.4912
11
74.474
21
-80.4889
0
LINE
8
BLACK
6
CONTINUOUS
10
74.474
20
-80.4889
11
74.4702
21
-80.4858
0
LINE
8
BLACK
6
CONTINUOUS
10
74.4702
20
-80.4858
11
74.4671
21
-80.482
0
LINE
8
BLACK
6
CONTINUOUS
10
74.4671
20
-80.482
11
74.4648
21
-80.4776
0
LINE
8
BLACK
6
CONTINUOUS
10
74.4648
20
-80.4776
11
74.4634
21
-80.4729
0
LINE
8
BLACK
6
CONTINUOUS
10
74.4634
20
-80.4729
11
74.4629
21
-80.468
0
LINE
8
BLACK
6
CONTINUOUS
10
74.4629
20
-80.468
11
74.463
21
-80.4668
0
LINE
8
BLACK
6
CONTINUOUS
10
74.463
20
-80.4668
11
74.463
21
-77.4192
0
LINE
8
BLACK
6
CONTINUOUS
10
74.463
20
-77.4192
11
74.4629
21
-77.418
0
LINE
8
BLACK
6
CONTINUOUS
10
74.4629
20
-77.418
11
74.4634
21
-77.4131
0
LINE
8
BLACK
6
CONTINUOUS
10
74.4634
20
-77.4131
11
74.4648
21
-77.4084
0
LINE
8
BLACK
6
CONTINUOUS
10
74.4648
20
-77.4084
11
74.4671
21
-77.404
0
LINE
8
BLACK
6
CONTINUOUS
10
74.4671
20
-77.404
11
74.4702
21
-77.4002
0
LINE
8
BLACK
6
CONTINUOUS
10
74.4702
20
-77.4002
11
74.474
21
-77.3971
0
LINE
8
BLACK
6
CONTINUOUS
10
74.474
20
-77.3971
11
74.4784
21
-77.3948
0
LINE
8
BLACK
6
CONTINUOUS
10
74.4784
20
-77.3948
11
74.4831
21
-77.3934
0
LINE
8
BLACK
6
CONTINUOUS
10
74.4831
20
-77.3934
11
74.4868
21
-77.393
0
LINE
8
BLACK
6
CONTINUOUS
10
74.4868
20
-77.393
11
74.488
21
-77.3929
0
LINE
8
BLACK
6
CONTINUOUS
10
74.488
20
-77.3929
11
74.4892
21
-77.393
0
LINE
8
BLACK
6
CONTINUOUS
10
74.4892
20
-77.393
11
77.8968
21
-77.393
0
LINE
8
BLACK
6
CONTINUOUS
10
77.8968
20
-77.393
11
77.898
21
-77.3929
0
LINE
8
BLACK
6
CONTINUOUS
10
77.898
20
-77.3929
11
77.8992
21
-77.393
0
LINE
8
BLACK
6
CONTINUOUS
10
74.513
20
-77.443
11
74.513
21
-80.443
0
LINE
8
BLACK
6
CONTINUOUS
10
74.513
20
-80.443
11
77.873
21
-80.443
0
LINE
8
BLACK
6
CONTINUOUS
10
77.873
20
-80.443
11
77.873
21
-77.443
0
LINE
8
BLACK
6
CONTINUOUS
10
77.873
20
-77.443
11
74.513
21
-77.443
0
LINE
8
BLACK
6
CONTINUOUS
10
39.8192
20
-76.393
11
39.8192
21
-76.393
0
LINE
8
BLACK
6
CONTINUOUS
10
39.8192
20
-76.393
11
39.8229
21
-76.3934
0
LINE
8
BLACK
6
CONTINUOUS
10
39.8229
20
-76.3934
11
39.8276
21
-76.3948
0
LINE
8
BLACK
6
CONTINUOUS
10
39.8276
20
-76.3948
11
39.832
21
-76.3971
0
LINE
8
BLACK
6
CONTINUOUS
10
39.832
20
-76.3971
11
39.8358
21
-76.4002
0
LINE
8
BLACK
6
CONTINUOUS
10
39.8358
20
-76.4002
11
39.8389
21
-76.404
0
LINE
8
BLACK
6
CONTINUOUS
10
39.8389
20
-76.404
11
39.8412
21
-76.4084
0
LINE
8
BLACK
6
CONTINUOUS
10
39.8412
20
-76.4084
11
39.8426
21
-76.4131
0
LINE
8
BLACK
6
CONTINUOUS
10
39.8426
20
-76.4131
11
39.8431
21
-76.418
0
LINE
8
BLACK
6
CONTINUOUS
10
39.8431
20
-76.418
11
39.843
21
-76.4192
0
LINE
8
BLACK
6
CONTINUOUS
10
39.843
20
-76.4192
11
39.843
21
-79.4468
0
LINE
8
BLACK
6
CONTINUOUS
10
39.843
20
-79.4468
11
39.8431
21
-79.448
0
LINE
8
BLACK
6
CONTINUOUS
10
39.8431
20
-79.448
11
39.843
21
-79.4492
0
LINE
8
BLACK
6
CONTINUOUS
10
39.843
20
-79.4492
11
39.843
21
-79.4492
0
LINE
8
BLACK
6
CONTINUOUS
10
39.843
20
-79.4492
11
39.8426
21
-79.4529
0
LINE
8
BLACK
6
CONTINUOUS
10
39.8426
20
-79.4529
11
39.8412
21
-79.4576
0
LINE
8
BLACK
6
CONTINUOUS
10
39.8412
20
-79.4576
11
39.8389
21
-79.462
0
LINE
8
BLACK
6
CONTINUOUS
10
39.8389
20
-79.462
11
39.8358
21
-79.4658
0
LINE
8
BLACK
6
CONTINUOUS
10
39.8358
20
-79.4658
11
39.832
21
-79.4689
0
LINE
8
BLACK
6
CONTINUOUS
10
39.832
20
-79.4689
11
39.8276
21
-79.4712
0
LINE
8
BLACK
6
CONTINUOUS
10
39.8276
20
-79.4712
11
39.8229
21
-79.4726
0
LINE
8
BLACK
6
CONTINUOUS
10
39.8229
20
-79.4726
11
39.818
21
-79.4731
0
LINE
8
BLACK
6
CONTINUOUS
10
39.818
20
-79.4731
11
39.8168
21
-79.473
0
LINE
8
BLACK
6
CONTINUOUS
10
39.8168
20
-79.473
11
36.3792
21
-79.473
0
LINE
8
BLACK
6
CONTINUOUS
10
36.3792
20
-79.473
11
36.378
21
-79.4731
0
LINE
8
BLACK
6
CONTINUOUS
10
36.378
20
-79.4731
11
36.3731
21
-79.4726
0
LINE
8
BLACK
6
CONTINUOUS
10
36.3731
20
-79.4726
11
36.3684
21
-79.4712
0
LINE
8
BLACK
6
CONTINUOUS
10
36.3684
20
-79.4712
11
36.364
21
-79.4689
0
LINE
8
BLACK
6
CONTINUOUS
10
36.364
20
-79.4689
11
36.3602
21
-79.4658
0
LINE
8
BLACK
6
CONTINUOUS
10
36.3602
20
-79.4658
11
36.3577
21
-79.4626
0
LINE
8
BLACK
6
CONTINUOUS
10
36.3577
20
-79.4626
11
36.3571
21
-79.462
0
LINE
8
BLACK
6
CONTINUOUS
10
36.3571
20
-79.462
11
36.3548
21
-79.4576
0
LINE
8
BLACK
6
CONTINUOUS
10
36.3548
20
-79.4576
11
36.3534
21
-79.4529
0
LINE
8
BLACK
6
CONTINUOUS
10
36.3534
20
-79.4529
11
36.3529
21
-79.448
0
LINE
8
BLACK
6
CONTINUOUS
10
36.3529
20
-79.448
11
36.353
21
-79.4468
0
LINE
8
BLACK
6
CONTINUOUS
10
36.353
20
-79.4468
11
36.353
21
-76.4192
0
LINE
8
BLACK
6
CONTINUOUS
10
36.353
20
-76.4192
11
36.3529
21
-76.418
0
LINE
8
BLACK
6
CONTINUOUS
10
36.3529
20
-76.418
11
36.3534
21
-76.4131
0
LINE
8
BLACK
6
CONTINUOUS
10
36.3534
20
-76.4131
11
36.3548
21
-76.4084
0
LINE
8
BLACK
6
CONTINUOUS
10
36.3548
20
-76.4084
11
36.3571
21
-76.404
0
LINE
8
BLACK
6
CONTINUOUS
10
36.3571
20
-76.404
11
36.3602
21
-76.4002
0
LINE
8
BLACK
6
CONTINUOUS
10
36.3602
20
-76.4002
11
36.364
21
-76.3971
0
LINE
8
BLACK
6
CONTINUOUS
10
36.364
20
-76.3971
11
36.3684
21
-76.3948
0
LINE
8
BLACK
6
CONTINUOUS
10
36.3684
20
-76.3948
11
36.3731
21
-76.3934
0
LINE
8
BLACK
6
CONTINUOUS
10
36.3731
20
-76.3934
11
36.3768
21
-76.393
0
LINE
8
BLACK
6
CONTINUOUS
10
36.3768
20
-76.393
11
36.3768
21
-76.393
0
LINE
8
BLACK
6
CONTINUOUS
10
36.3768
20
-76.393
11
36.378
21
-76.3929
0
LINE
8
BLACK
6
CONTINUOUS
10
36.378
20
-76.3929
11
36.3792
21
-76.393
0
LINE
8
BLACK
6
CONTINUOUS
10
36.3792
20
-76.393
11
39.8168
21
-76.393
0
LINE
8
BLACK
6
CONTINUOUS
10
39.8168
20
-76.393
11
39.818
21
-76.3929
0
LINE
8
BLACK
6
CONTINUOUS
10
39.818
20
-76.3929
11
39.8192
21
-76.393
0
LINE
8
BLACK
6
CONTINUOUS
10
36.403
20
-76.443
11
36.403
21
-79.423
0
LINE
8
BLACK
6
CONTINUOUS
10
36.403
20
-79.423
11
39.793
21
-79.423
0
LINE
8
BLACK
6
CONTINUOUS
10
39.793
20
-79.423
11
39.793
21
-76.443
0
LINE
8
BLACK
6
CONTINUOUS
10
39.793
20
-76.443
11
36.403
21
-76.443
0
LINE
8
BLACK
6
CONTINUOUS
10
58.8692
20
-71.403
11
58.8692
21
-71.403
0
LINE
8
BLACK
6
CONTINUOUS
10
58.8692
20
-71.403
11
58.8729
21
-71.4034
0
LINE
8
BLACK
6
CONTINUOUS
10
58.8729
20
-71.4034
11
58.8776
21
-71.4048
0
LINE
8
BLACK
6
CONTINUOUS
10
58.8776
20
-71.4048
11
58.882
21
-71.4071
0
LINE
8
BLACK
6
CONTINUOUS
10
58.882
20
-71.4071
11
58.8858
21
-71.4102
0
LINE
8
BLACK
6
CONTINUOUS
10
58.8858
20
-71.4102
11
58.8889
21
-71.414
0
LINE
8
BLACK
6
CONTINUOUS
10
58.8889
20
-71.414
11
58.8912
21
-71.4184
0
LINE
8
BLACK
6
CONTINUOUS
10
58.8912
20
-71.4184
11
58.8926
21
-71.4231
0
LINE
8
BLACK
6
CONTINUOUS
10
58.8926
20
-71.4231
11
58.8931
21
-71.428
0
LINE
8
BLACK
6
CONTINUOUS
10
58.8931
20
-71.428
11
58.893
21
-71.4292
0
LINE
8
BLACK
6
CONTINUOUS
10
58.893
20
-71.4292
11
58.893
21
-74.4668
0
LINE
8
BLACK
6
CONTINUOUS
10
58.893
20
-74.4668
11
58.8931
21
-74.468
0
LINE
8
BLACK
6
CONTINUOUS
10
58.8931
20
-74.468
11
58.893
21
-74.4692
0
LINE
8
BLACK
6
CONTINUOUS
10
58.893
20
-74.4692
11
58.893
21
-74.4692
0
LINE
8
BLACK
6
CONTINUOUS
10
58.893
20
-74.4692
11
58.8926
21
-74.4729
0
LINE
8
BLACK
6
CONTINUOUS
10
58.8926
20
-74.4729
11
58.8912
21
-74.4776
0
LINE
8
BLACK
6
CONTINUOUS
10
58.8912
20
-74.4776
11
58.8889
21
-74.482
0
LINE
8
BLACK
6
CONTINUOUS
10
58.8889
20
-74.482
11
58.8858
21
-74.4858
0
LINE
8
BLACK
6
CONTINUOUS
10
58.8858
20
-74.4858
11
58.882
21
-74.4889
0
LINE
8
BLACK
6
CONTINUOUS
10
58.882
20
-74.4889
11
58.8776
21
-74.4912
0
LINE
8
BLACK
6
CONTINUOUS
10
58.8776
20
-74.4912
11
58.8729
21
-74.4926
0
LINE
8
BLACK
6
CONTINUOUS
10
58.8729
20
-74.4926
11
58.868
21
-74.4931
0
LINE
8
BLACK
6
CONTINUOUS
10
58.868
20
-74.4931
11
58.8668
21
-74.493
0
LINE
8
BLACK
6
CONTINUOUS
10
58.8668
20
-74.493
11
55.4292
21
-74.493
0
LINE
8
BLACK
6
CONTINUOUS
10
55.4292
20
-74.493
11
55.428
21
-74.4931
0
LINE
8
BLACK
6
CONTINUOUS
10
55.428
20
-74.4931
11
55.4231
21
-74.4926
0
LINE
8
BLACK
6
CONTINUOUS
10
55.4231
20
-74.4926
11
55.4184
21
-74.4912
0
LINE
8
BLACK
6
CONTINUOUS
10
55.4184
20
-74.4912
11
55.414
21
-74.4889
0
LINE
8
BLACK
6
CONTINUOUS
10
55.414
20
-74.4889
11
55.4102
21
-74.4858
0
LINE
8
BLACK
6
CONTINUOUS
10
55.4102
20
-74.4858
11
55.4071
21
-74.482
0
LINE
8
BLACK
6
CONTINUOUS
10
55.4071
20
-74.482
11
55.4048
21
-74.4776
0
LINE
8
BLACK
6
CONTINUOUS
10
55.4048
20
-74.4776
11
55.4034
21
-74.4729
0
LINE
8
BLACK
6
CONTINUOUS
10
55.4034
20
-74.4729
11
55.4029
21
-74.468
0
LINE
8
BLACK
6
CONTINUOUS
10
55.4029
20
-74.468
11
55.403
21
-74.4668
0
LINE
8
BLACK
6
CONTINUOUS
10
55.403
20
-74.4668
11
55.403
21
-71.4292
0
LINE
8
BLACK
6
CONTINUOUS
10
55.403
20
-71.4292
11
55.4029
21
-71.428
0
LINE
8
BLACK
6
CONTINUOUS
10
55.4029
20
-71.428
11
55.4034
21
-71.4231
0
LINE
8
BLACK
6
CONTINUOUS
10
55.4034
20
-71.4231
11
55.4048
21
-71.4184
0
LINE
8
BLACK
6
CONTINUOUS
10
55.4048
20
-71.4184
11
55.4071
21
-71.414
0
LINE
8
BLACK
6
CONTINUOUS
10
55.4071
20
-71.414
11
55.4102
21
-71.4102
0
LINE
8
BLACK
6
CONTINUOUS
10
55.4102
20
-71.4102
11
55.414
21
-71.4071
0
LINE
8
BLACK
6
CONTINUOUS
10
55.414
20
-71.4071
11
55.4184
21
-71.4048
0
LINE
8
BLACK
6
CONTINUOUS
10
55.4184
20
-71.4048
11
55.4231
21
-71.4034
0
LINE
8
BLACK
6
CONTINUOUS
10
55.4231
20
-71.4034
11
55.4268
21
-71.403
0
LINE
8
BLACK
6
CONTINUOUS
10
55.4268
20
-71.403
11
55.4268
21
-71.403
0
LINE
8
BLACK
6
CONTINUOUS
10
55.4268
20
-71.403
11
55.428
21
-71.4029
0
LINE
8
BLACK
6
CONTINUOUS
10
55.428
20
-71.4029
11
55.4292
21
-71.403
0
LINE
8
BLACK
6
CONTINUOUS
10
55.4292
20
-71.403
11
58.8668
21
-71.403
0
LINE
8
BLACK
6
CONTINUOUS
10
58.8668
20
-71.403
11
58.868
21
-71.4029
0
LINE
8
BLACK
6
CONTINUOUS
10
58.868
20
-71.4029
11
58.8692
21
-71.403
0
LINE
8
BLACK
6
CONTINUOUS
10
55.453
20
-71.453
11
55.453
21
-74.443
0
LINE
8
BLACK
6
CONTINUOUS
10
55.453
20
-74.443
11
58.843
21
-74.443
0
LINE
8
BLACK
6
CONTINUOUS
10
58.843
20
-74.443
11
58.843
21
-71.453
0
LINE
8
BLACK
6
CONTINUOUS
10
58.843
20
-71.453
11
55.453
21
-71.453
0
LINE
8
BLACK
6
CONTINUOUS
10
110.749
20
-69.263
11
110.749
21
-69.263
0
LINE
8
BLACK
6
CONTINUOUS
10
110.749
20
-69.263
11
110.753
21
-69.2634
0
LINE
8
BLACK
6
CONTINUOUS
10
110.753
20
-69.2634
11
110.758
21
-69.2648
0
LINE
8
BLACK
6
CONTINUOUS
10
110.758
20
-69.2648
11
110.762
21
-69.2671
0
LINE
8
BLACK
6
CONTINUOUS
10
110.762
20
-69.2671
11
110.766
21
-69.2702
0
LINE
8
BLACK
6
CONTINUOUS
10
110.766
20
-69.2702
11
110.769
21
-69.274
0
LINE
8
BLACK
6
CONTINUOUS
10
110.769
20
-69.274
11
110.771
21
-69.2784
0
LINE
8
BLACK
6
CONTINUOUS
10
110.771
20
-69.2784
11
110.773
21
-69.2831
0
LINE
8
BLACK
6
CONTINUOUS
10
110.773
20
-69.2831
11
110.773
21
-69.288
0
LINE
8
BLACK
6
CONTINUOUS
10
110.773
20
-69.288
11
110.773
21
-69.2892
0
LINE
8
BLACK
6
CONTINUOUS
10
110.773
20
-69.2892
11
110.773
21
-72.6968
0
LINE
8
BLACK
6
CONTINUOUS
10
110.773
20
-72.6968
11
110.773
21
-72.698
0
LINE
8
BLACK
6
CONTINUOUS
10
110.773
20
-72.698
11
110.773
21
-72.6992
0
LINE
8
BLACK
6
CONTINUOUS
10
110.773
20
-72.6992
11
110.773
21
-72.6992
0
LINE
8
BLACK
6
CONTINUOUS
10
110.773
20
-72.6992
11
110.773
21
-72.7029
0
LINE
8
BLACK
6
CONTINUOUS
10
110.773
20
-72.7029
11
110.771
21
-72.7076
0
LINE
8
BLACK
6
CONTINUOUS
10
110.771
20
-72.7076
11
110.769
21
-72.712
0
LINE
8
BLACK
6
CONTINUOUS
10
110.769
20
-72.712
11
110.766
21
-72.7158
0
LINE
8
BLACK
6
CONTINUOUS
10
110.766
20
-72.7158
11
110.762
21
-72.7189
0
LINE
8
BLACK
6
CONTINUOUS
10
110.762
20
-72.7189
11
110.758
21
-72.7212
0
LINE
8
BLACK
6
CONTINUOUS
10
110.758
20
-72.7212
11
110.753
21
-72.7226
0
LINE
8
BLACK
6
CONTINUOUS
10
110.753
20
-72.7226
11
110.748
21
-72.7231
0
LINE
8
BLACK
6
CONTINUOUS
10
110.748
20
-72.7231
11
110.747
21
-72.723
0
LINE
8
BLACK
6
CONTINUOUS
10
110.747
20
-72.723
11
107.739
21
-72.723
0
LINE
8
BLACK
6
CONTINUOUS
10
107.739
20
-72.723
11
107.738
21
-72.7231
0
LINE
8
BLACK
6
CONTINUOUS
10
107.738
20
-72.7231
11
107.733
21
-72.7226
0
LINE
8
BLACK
6
CONTINUOUS
10
107.733
20
-72.7226
11
107.728
21
-72.7212
0
LINE
8
BLACK
6
CONTINUOUS
10
107.728
20
-72.7212
11
107.724
21
-72.7189
0
LINE
8
BLACK
6
CONTINUOUS
10
107.724
20
-72.7189
11
107.72
21
-72.7158
0
LINE
8
BLACK
6
CONTINUOUS
10
107.72
20
-72.7158
11
107.717
21
-72.712
0
LINE
8
BLACK
6
CONTINUOUS
10
107.717
20
-72.712
11
107.715
21
-72.7076
0
LINE
8
BLACK
6
CONTINUOUS
10
107.715
20
-72.7076
11
107.713
21
-72.7029
0
LINE
8
BLACK
6
CONTINUOUS
10
107.713
20
-72.7029
11
107.713
21
-72.698
0
LINE
8
BLACK
6
CONTINUOUS
10
107.713
20
-72.698
11
107.713
21
-72.6968
0
LINE
8
BLACK
6
CONTINUOUS
10
107.713
20
-72.6968
11
107.713
21
-69.2892
0
LINE
8
BLACK
6
CONTINUOUS
10
107.713
20
-69.2892
11
107.713
21
-69.288
0
LINE
8
BLACK
6
CONTINUOUS
10
107.713
20
-69.288
11
107.713
21
-69.2831
0
LINE
8
BLACK
6
CONTINUOUS
10
107.713
20
-69.2831
11
107.715
21
-69.2784
0
LINE
8
BLACK
6
CONTINUOUS
10
107.715
20
-69.2784
11
107.717
21
-69.274
0
LINE
8
BLACK
6
CONTINUOUS
10
107.717
20
-69.274
11
107.72
21
-69.2702
0
LINE
8
BLACK
6
CONTINUOUS
10
107.72
20
-69.2702
11
107.724
21
-69.2671
0
LINE
8
BLACK
6
CONTINUOUS
10
107.724
20
-69.2671
11
107.728
21
-69.2648
0
LINE
8
BLACK
6
CONTINUOUS
10
107.728
20
-69.2648
11
107.733
21
-69.2634
0
LINE
8
BLACK
6
CONTINUOUS
10
107.733
20
-69.2634
11
107.737
21
-69.263
0
LINE
8
BLACK
6
CONTINUOUS
10
107.737
20
-69.263
11
107.737
21
-69.263
0
LINE
8
BLACK
6
CONTINUOUS
10
107.737
20
-69.263
11
107.738
21
-69.2629
0
LINE
8
BLACK
6
CONTINUOUS
10
107.738
20
-69.2629
11
107.739
21
-69.263
0
LINE
8
BLACK
6
CONTINUOUS
10
107.739
20
-69.263
11
110.747
21
-69.263
0
LINE
8
BLACK
6
CONTINUOUS
10
110.747
20
-69.263
11
110.748
21
-69.2629
0
LINE
8
BLACK
6
CONTINUOUS
10
110.748
20
-69.2629
11
110.749
21
-69.263
0
LINE
8
BLACK
6
CONTINUOUS
10
107.763
20
-69.313
11
107.763
21
-72.673
0
LINE
8
BLACK
6
CONTINUOUS
10
107.763
20
-72.673
11
110.723
21
-72.673
0
LINE
8
BLACK
6
CONTINUOUS
10
110.723
20
-72.673
11
110.723
21
-69.313
0
LINE
8
BLACK
6
CONTINUOUS
10
110.723
20
-69.313
11
107.763
21
-69.313
0
LINE
8
BLACK
6
CONTINUOUS
10
96.9592
20
-63.353
11
96.9592
21
-63.353
0
LINE
8
BLACK
6
CONTINUOUS
10
96.9592
20
-63.353
11
96.9629
21
-63.3534
0
LINE
8
BLACK
6
CONTINUOUS
10
96.9629
20
-63.3534
11
96.9676
21
-63.3548
0
LINE
8
BLACK
6
CONTINUOUS
10
96.9676
20
-63.3548
11
96.972
21
-63.3571
0
LINE
8
BLACK
6
CONTINUOUS
10
96.972
20
-63.3571
11
96.9758
21
-63.3602
0
LINE
8
BLACK
6
CONTINUOUS
10
96.9758
20
-63.3602
11
96.9789
21
-63.364
0
LINE
8
BLACK
6
CONTINUOUS
10
96.9789
20
-63.364
11
96.9812
21
-63.3684
0
LINE
8
BLACK
6
CONTINUOUS
10
96.9812
20
-63.3684
11
96.9826
21
-63.3731
0
LINE
8
BLACK
6
CONTINUOUS
10
96.9826
20
-63.3731
11
96.9831
21
-63.378
0
LINE
8
BLACK
6
CONTINUOUS
10
96.9831
20
-63.378
11
96.983
21
-63.3792
0
LINE
8
BLACK
6
CONTINUOUS
10
96.983
20
-63.3792
11
96.983
21
-66.3968
0
LINE
8
BLACK
6
CONTINUOUS
10
96.983
20
-66.3968
11
96.9831
21
-66.398
0
LINE
8
BLACK
6
CONTINUOUS
10
96.9831
20
-66.398
11
96.983
21
-66.3992
0
LINE
8
BLACK
6
CONTINUOUS
10
96.983
20
-66.3992
11
96.983
21
-66.3992
0
LINE
8
BLACK
6
CONTINUOUS
10
96.983
20
-66.3992
11
96.9826
21
-66.4029
0
LINE
8
BLACK
6
CONTINUOUS
10
96.9826
20
-66.4029
11
96.9812
21
-66.4076
0
LINE
8
BLACK
6
CONTINUOUS
10
96.9812
20
-66.4076
11
96.9789
21
-66.412
0
LINE
8
BLACK
6
CONTINUOUS
10
96.9789
20
-66.412
11
96.9758
21
-66.4158
0
LINE
8
BLACK
6
CONTINUOUS
10
96.9758
20
-66.4158
11
96.972
21
-66.4189
0
LINE
8
BLACK
6
CONTINUOUS
10
96.972
20
-66.4189
11
96.9676
21
-66.4212
0
LINE
8
BLACK
6
CONTINUOUS
10
96.9676
20
-66.4212
11
96.9629
21
-66.4226
0
LINE
8
BLACK
6
CONTINUOUS
10
96.9629
20
-66.4226
11
96.958
21
-66.4231
0
LINE
8
BLACK
6
CONTINUOUS
10
96.958
20
-66.4231
11
96.9568
21
-66.423
0
LINE
8
BLACK
6
CONTINUOUS
10
96.9568
20
-66.423
11
93.5392
21
-66.423
0
LINE
8
BLACK
6
CONTINUOUS
10
93.5392
20
-66.423
11
93.538
21
-66.4231
0
LINE
8
BLACK
6
CONTINUOUS
10
93.538
20
-66.4231
11
93.5331
21
-66.4226
0
LINE
8
BLACK
6
CONTINUOUS
10
93.5331
20
-66.4226
11
93.5284
21
-66.4212
0
LINE
8
BLACK
6
CONTINUOUS
10
93.5284
20
-66.4212
11
93.524
21
-66.4189
0
LINE
8
BLACK
6
CONTINUOUS
10
93.524
20
-66.4189
11
93.5202
21
-66.4158
0
LINE
8
BLACK
6
CONTINUOUS
10
93.5202
20
-66.4158
11
93.5171
21
-66.412
0
LINE
8
BLACK
6
CONTINUOUS
10
93.5171
20
-66.412
11
93.5148
21
-66.4076
0
LINE
8
BLACK
6
CONTINUOUS
10
93.5148
20
-66.4076
11
93.5134
21
-66.4029
0
LINE
8
BLACK
6
CONTINUOUS
10
93.5134
20
-66.4029
11
93.5129
21
-66.398
0
LINE
8
BLACK
6
CONTINUOUS
10
93.5129
20
-66.398
11
93.513
21
-66.3968
0
LINE
8
BLACK
6
CONTINUOUS
10
93.513
20
-66.3968
11
93.513
21
-63.3792
0
LINE
8
BLACK
6
CONTINUOUS
10
93.513
20
-63.3792
11
93.5129
21
-63.378
0
LINE
8
BLACK
6
CONTINUOUS
10
93.5129
20
-63.378
11
93.5134
21
-63.3731
0
LINE
8
BLACK
6
CONTINUOUS
10
93.5134
20
-63.3731
11
93.5148
21
-63.3684
0
LINE
8
BLACK
6
CONTINUOUS
10
93.5148
20
-63.3684
11
93.5171
21
-63.364
0
LINE
8
BLACK
6
CONTINUOUS
10
93.5171
20
-63.364
11
93.5202
21
-63.3602
0
LINE
8
BLACK
6
CONTINUOUS
10
93.5202
20
-63.3602
11
93.524
21
-63.3571
0
LINE
8
BLACK
6
CONTINUOUS
10
93.524
20
-63.3571
11
93.5284
21
-63.3548
0
LINE
8
BLACK
6
CONTINUOUS
10
93.5284
20
-63.3548
11
93.5331
21
-63.3534
0
LINE
8
BLACK
6
CONTINUOUS
10
93.5331
20
-63.3534
11
93.5368
21
-63.353
0
LINE
8
BLACK
6
CONTINUOUS
10
93.5368
20
-63.353
11
93.5368
21
-63.353
0
LINE
8
BLACK
6
CONTINUOUS
10
93.5368
20
-63.353
11
93.538
21
-63.3529
0
LINE
8
BLACK
6
CONTINUOUS
10
93.538
20
-63.3529
11
93.5392
21
-63.353
0
LINE
8
BLACK
6
CONTINUOUS
10
93.5392
20
-63.353
11
96.9568
21
-63.353
0
LINE
8
BLACK
6
CONTINUOUS
10
96.9568
20
-63.353
11
96.958
21
-63.3529
0
LINE
8
BLACK
6
CONTINUOUS
10
96.958
20
-63.3529
11
96.9592
21
-63.353
0
LINE
8
BLACK
6
CONTINUOUS
10
93.563
20
-63.403
11
93.563
21
-66.373
0
LINE
8
BLACK
6
CONTINUOUS
10
93.563
20
-66.373
11
96.933
21
-66.373
0
LINE
8
BLACK
6
CONTINUOUS
10
96.933
20
-66.373
11
96.933
21
-63.403
0
LINE
8
BLACK
6
CONTINUOUS
10
96.933
20
-63.403
11
93.563
21
-63.403
0
LINE
8
BLACK
6
CONTINUOUS
10
20.7492
20
-60.343
11
20.7492
21
-60.343
0
LINE
8
BLACK
6
CONTINUOUS
10
20.7492
20
-60.343
11
20.7529
21
-60.3434
0
LINE
8
BLACK
6
CONTINUOUS
10
20.7529
20
-60.3434
11
20.7576
21
-60.3448
0
LINE
8
BLACK
6
CONTINUOUS
10
20.7576
20
-60.3448
11
20.762
21
-60.3471
0
LINE
8
BLACK
6
CONTINUOUS
10
20.762
20
-60.3471
11
20.7658
21
-60.3502
0
LINE
8
BLACK
6
CONTINUOUS
10
20.7658
20
-60.3502
11
20.7689
21
-60.354
0
LINE
8
BLACK
6
CONTINUOUS
10
20.7689
20
-60.354
11
20.7712
21
-60.3584
0
LINE
8
BLACK
6
CONTINUOUS
10
20.7712
20
-60.3584
11
20.7726
21
-60.3631
0
LINE
8
BLACK
6
CONTINUOUS
10
20.7726
20
-60.3631
11
20.7731
21
-60.368
0
LINE
8
BLACK
6
CONTINUOUS
10
20.7731
20
-60.368
11
20.773
21
-60.3692
0
LINE
8
BLACK
6
CONTINUOUS
10
20.773
20
-60.3692
11
20.773
21
-63.4168
0
LINE
8
BLACK
6
CONTINUOUS
10
20.773
20
-63.4168
11
20.7731
21
-63.418
0
LINE
8
BLACK
6
CONTINUOUS
10
20.7731
20
-63.418
11
20.773
21
-63.4192
0
LINE
8
BLACK
6
CONTINUOUS
10
20.773
20
-63.4192
11
20.773
21
-63.4192
0
LINE
8
BLACK
6
CONTINUOUS
10
20.773
20
-63.4192
11
20.7726
21
-63.4229
0
LINE
8
BLACK
6
CONTINUOUS
10
20.7726
20
-63.4229
11
20.7712
21
-63.4276
0
LINE
8
BLACK
6
CONTINUOUS
10
20.7712
20
-63.4276
11
20.7689
21
-63.432
0
LINE
8
BLACK
6
CONTINUOUS
10
20.7689
20
-63.432
11
20.7658
21
-63.4358
0
LINE
8
BLACK
6
CONTINUOUS
10
20.7658
20
-63.4358
11
20.762
21
-63.4389
0
LINE
8
BLACK
6
CONTINUOUS
10
20.762
20
-63.4389
11
20.7576
21
-63.4412
0
LINE
8
BLACK
6
CONTINUOUS
10
20.7576
20
-63.4412
11
20.7529
21
-63.4426
0
LINE
8
BLACK
6
CONTINUOUS
10
20.7529
20
-63.4426
11
20.748
21
-63.4431
0
LINE
8
BLACK
6
CONTINUOUS
10
20.748
20
-63.4431
11
20.7468
21
-63.443
0
LINE
8
BLACK
6
CONTINUOUS
10
20.7468
20
-63.443
11
17.3392
21
-63.443
0
LINE
8
BLACK
6
CONTINUOUS
10
17.3392
20
-63.443
11
17.338
21
-63.4431
0
LINE
8
BLACK
6
CONTINUOUS
10
17.338
20
-63.4431
11
17.3331
21
-63.4426
0
LINE
8
BLACK
6
CONTINUOUS
10
17.3331
20
-63.4426
11
17.3284
21
-63.4412
0
LINE
8
BLACK
6
CONTINUOUS
10
17.3284
20
-63.4412
11
17.324
21
-63.4389
0
LINE
8
BLACK
6
CONTINUOUS
10
17.324
20
-63.4389
11
17.3202
21
-63.4358
0
LINE
8
BLACK
6
CONTINUOUS
10
17.3202
20
-63.4358
11
17.3189
21
-63.4342
0
LINE
8
BLACK
6
CONTINUOUS
10
17.3189
20
-63.4342
11
17.3171
21
-63.432
0
LINE
8
BLACK
6
CONTINUOUS
10
17.3171
20
-63.432
11
17.3148
21
-63.4276
0
LINE
8
BLACK
6
CONTINUOUS
10
17.3148
20
-63.4276
11
17.3134
21
-63.4229
0
LINE
8
BLACK
6
CONTINUOUS
10
17.3134
20
-63.4229
11
17.3129
21
-63.418
0
LINE
8
BLACK
6
CONTINUOUS
10
17.3129
20
-63.418
11
17.313
21
-63.4168
0
LINE
8
BLACK
6
CONTINUOUS
10
17.313
20
-63.4168
11
17.313
21
-60.3692
0
LINE
8
BLACK
6
CONTINUOUS
10
17.313
20
-60.3692
11
17.3129
21
-60.368
0
LINE
8
BLACK
6
CONTINUOUS
10
17.3129
20
-60.368
11
17.3134
21
-60.3631
0
LINE
8
BLACK
6
CONTINUOUS
10
17.3134
20
-60.3631
11
17.3148
21
-60.3584
0
LINE
8
BLACK
6
CONTINUOUS
10
17.3148
20
-60.3584
11
17.3171
21
-60.354
0
LINE
8
BLACK
6
CONTINUOUS
10
17.3171
20
-60.354
11
17.3202
21
-60.3502
0
LINE
8
BLACK
6
CONTINUOUS
10
17.3202
20
-60.3502
11
17.324
21
-60.3471
0
LINE
8
BLACK
6
CONTINUOUS
10
17.324
20
-60.3471
11
17.3284
21
-60.3448
0
LINE
8
BLACK
6
CONTINUOUS
10
17.3284
20
-60.3448
11
17.3331
21
-60.3434
0
LINE
8
BLACK
6
CONTINUOUS
10
17.3331
20
-60.3434
11
17.3368
21
-60.343
0
LINE
8
BLACK
6
CONTINUOUS
10
17.3368
20
-60.343
11
17.3368
21
-60.343
0
LINE
8
BLACK
6
CONTINUOUS
10
17.3368
20
-60.343
11
17.338
21
-60.3429
0
LINE
8
BLACK
6
CONTINUOUS
10
17.338
20
-60.3429
11
17.3392
21
-60.343
0
LINE
8
BLACK
6
CONTINUOUS
10
17.3392
20
-60.343
11
20.7468
21
-60.343
0
LINE
8
BLACK
6
CONTINUOUS
10
20.7468
20
-60.343
11
20.748
21
-60.3429
0
LINE
8
BLACK
6
CONTINUOUS
10
20.748
20
-60.3429
11
20.7492
21
-60.343
0
LINE
8
BLACK
6
CONTINUOUS
10
17.363
20
-60.393
11
17.363
21
-63.393
0
LINE
8
BLACK
6
CONTINUOUS
10
17.363
20
-63.393
11
20.723
21
-63.393
0
LINE
8
BLACK
6
CONTINUOUS
10
20.723
20
-63.393
11
20.723
21
-60.393
0
LINE
8
BLACK
6
CONTINUOUS
10
20.723
20
-60.393
11
17.363
21
-60.393
0
LINE
8
BLACK
6
CONTINUOUS
10
1.69922
20
-60.363
11
1.69922
21
-60.363
0
LINE
8
BLACK
6
CONTINUOUS
10
1.69922
20
-60.363
11
1.7029
21
-60.3634
0
LINE
8
BLACK
6
CONTINUOUS
10
1.7029
20
-60.3634
11
1.70761
21
-60.3648
0
LINE
8
BLACK
6
CONTINUOUS
10
1.70761
20
-60.3648
11
1.71196
21
-60.3671
0
LINE
8
BLACK
6
CONTINUOUS
10
1.71196
20
-60.3671
11
1.71576
21
-60.3702
0
LINE
8
BLACK
6
CONTINUOUS
10
1.71576
20
-60.3702
11
1.71889
21
-60.374
0
LINE
8
BLACK
6
CONTINUOUS
10
1.71889
20
-60.374
11
1.72121
21
-60.3784
0
LINE
8
BLACK
6
CONTINUOUS
10
1.72121
20
-60.3784
11
1.72264
21
-60.3831
0
LINE
8
BLACK
6
CONTINUOUS
10
1.72264
20
-60.3831
11
1.72312
21
-60.388
0
LINE
8
BLACK
6
CONTINUOUS
10
1.72312
20
-60.388
11
1.723
21
-60.3892
0
LINE
8
BLACK
6
CONTINUOUS
10
1.723
20
-60.3892
11
1.723
21
-63.4068
0
LINE
8
BLACK
6
CONTINUOUS
10
1.723
20
-63.4068
11
1.72312
21
-63.408
0
LINE
8
BLACK
6
CONTINUOUS
10
1.72312
20
-63.408
11
1.723
21
-63.4092
0
LINE
8
BLACK
6
CONTINUOUS
10
1.723
20
-63.4092
11
1.723
21
-63.4092
0
LINE
8
BLACK
6
CONTINUOUS
10
1.723
20
-63.4092
11
1.72264
21
-63.4129
0
LINE
8
BLACK
6
CONTINUOUS
10
1.72264
20
-63.4129
11
1.72121
21
-63.4176
0
LINE
8
BLACK
6
CONTINUOUS
10
1.72121
20
-63.4176
11
1.71889
21
-63.422
0
LINE
8
BLACK
6
CONTINUOUS
10
1.71889
20
-63.422
11
1.71576
21
-63.4258
0
LINE
8
BLACK
6
CONTINUOUS
10
1.71576
20
-63.4258
11
1.71196
21
-63.4289
0
LINE
8
BLACK
6
CONTINUOUS
10
1.71196
20
-63.4289
11
1.70761
21
-63.4312
0
LINE
8
BLACK
6
CONTINUOUS
10
1.70761
20
-63.4312
11
1.7029
21
-63.4326
0
LINE
8
BLACK
6
CONTINUOUS
10
1.7029
20
-63.4326
11
1.698
21
-63.4331
0
LINE
8
BLACK
6
CONTINUOUS
10
1.698
20
-63.4331
11
1.69678
21
-63.433
0
LINE
8
BLACK
6
CONTINUOUS
10
1.69678
20
-63.433
11
-1.71078
21
-63.433
0
LINE
8
BLACK
6
CONTINUOUS
10
-1.71078
20
-63.433
11
-1.712
21
-63.4331
0
LINE
8
BLACK
6
CONTINUOUS
10
-1.712
20
-63.4331
11
-1.7169
21
-63.4326
0
LINE
8
BLACK
6
CONTINUOUS
10
-1.7169
20
-63.4326
11
-1.72161
21
-63.4312
0
LINE
8
BLACK
6
CONTINUOUS
10
-1.72161
20
-63.4312
11
-1.72596
21
-63.4289
0
LINE
8
BLACK
6
CONTINUOUS
10
-1.72596
20
-63.4289
11
-1.72976
21
-63.4258
0
LINE
8
BLACK
6
CONTINUOUS
10
-1.72976
20
-63.4258
11
-1.73289
21
-63.422
0
LINE
8
BLACK
6
CONTINUOUS
10
-1.73289
20
-63.422
11
-1.73521
21
-63.4176
0
LINE
8
BLACK
6
CONTINUOUS
10
-1.73521
20
-63.4176
11
-1.73664
21
-63.4129
0
LINE
8
BLACK
6
CONTINUOUS
10
-1.73664
20
-63.4129
11
-1.73712
21
-63.408
0
LINE
8
BLACK
6
CONTINUOUS
10
-1.73712
20
-63.408
11
-1.737
21
-63.4068
0
LINE
8
BLACK
6
CONTINUOUS
10
-1.737
20
-63.4068
11
-1.737
21
-60.3892
0
LINE
8
BLACK
6
CONTINUOUS
10
-1.737
20
-60.3892
11
-1.73712
21
-60.388
0
LINE
8
BLACK
6
CONTINUOUS
10
-1.73712
20
-60.388
11
-1.73664
21
-60.3831
0
LINE
8
BLACK
6
CONTINUOUS
10
-1.73664
20
-60.3831
11
-1.73521
21
-60.3784
0
LINE
8
BLACK
6
CONTINUOUS
10
-1.73521
20
-60.3784
11
-1.73289
21
-60.374
0
LINE
8
BLACK
6
CONTINUOUS
10
-1.73289
20
-60.374
11
-1.72976
21
-60.3702
0
LINE
8
BLACK
6
CONTINUOUS
10
-1.72976
20
-60.3702
11
-1.72596
21
-60.3671
0
LINE
8
BLACK
6
CONTINUOUS
10
-1.72596
20
-60.3671
11
-1.72161
21
-60.3648
0
LINE
8
BLACK
6
CONTINUOUS
10
-1.72161
20
-60.3648
11
-1.7169
21
-60.3634
0
LINE
8
BLACK
6
CONTINUOUS
10
-1.7169
20
-60.3634
11
-1.71322
21
-60.363
0
LINE
8
BLACK
6
CONTINUOUS
10
-1.71322
20
-60.363
11
-1.71322
21
-60.363
0
LINE
8
BLACK
6
CONTINUOUS
10
-1.71322
20
-60.363
11
-1.712
21
-60.3629
0
LINE
8
BLACK
6
CONTINUOUS
10
-1.712
20
-60.3629
11
-1.71078
21
-60.363
0
LINE
8
BLACK
6
CONTINUOUS
10
-1.71078
20
-60.363
11
1.69678
21
-60.363
0
LINE
8
BLACK
6
CONTINUOUS
10
1.69678
20
-60.363
11
1.698
21
-60.3629
0
LINE
8
BLACK
6
CONTINUOUS
10
1.698
20
-60.3629
11
1.69922
21
-60.363
0
LINE
8
BLACK
6
CONTINUOUS
10
-1.687
20
-60.413
11
-1.687
21
-63.383
0
LINE
8
BLACK
6
CONTINUOUS
10
-1.687
20
-63.383
11
1.673
21
-63.383
0
LINE
8
BLACK
6
CONTINUOUS
10
1.673
20
-63.383
11
1.673
21
-60.413
0
LINE
8
BLACK
6
CONTINUOUS
10
1.673
20
-60.413
11
-1.687
21
-60.413
0
LINE
8
BLACK
6
CONTINUOUS
10
77.9192
20
-58.353
11
77.9192
21
-58.353
0
LINE
8
BLACK
6
CONTINUOUS
10
77.9192
20
-58.353
11
77.9229
21
-58.3534
0
LINE
8
BLACK
6
CONTINUOUS
10
77.9229
20
-58.3534
11
77.9276
21
-58.3548
0
LINE
8
BLACK
6
CONTINUOUS
10
77.9276
20
-58.3548
11
77.932
21
-58.3571
0
LINE
8
BLACK
6
CONTINUOUS
10
77.932
20
-58.3571
11
77.9358
21
-58.3602
0
LINE
8
BLACK
6
CONTINUOUS
10
77.9358
20
-58.3602
11
77.9389
21
-58.364
0
LINE
8
BLACK
6
CONTINUOUS
10
77.9389
20
-58.364
11
77.9412
21
-58.3684
0
LINE
8
BLACK
6
CONTINUOUS
10
77.9412
20
-58.3684
11
77.9426
21
-58.3731
0
LINE
8
BLACK
6
CONTINUOUS
10
77.9426
20
-58.3731
11
77.9431
21
-58.378
0
LINE
8
BLACK
6
CONTINUOUS
10
77.9431
20
-58.378
11
77.943
21
-58.3792
0
LINE
8
BLACK
6
CONTINUOUS
10
77.943
20
-58.3792
11
77.943
21
-61.4168
0
LINE
8
BLACK
6
CONTINUOUS
10
77.943
20
-61.4168
11
77.9431
21
-61.418
0
LINE
8
BLACK
6
CONTINUOUS
10
77.9431
20
-61.418
11
77.943
21
-61.4192
0
LINE
8
BLACK
6
CONTINUOUS
10
77.943
20
-61.4192
11
77.943
21
-61.4192
0
LINE
8
BLACK
6
CONTINUOUS
10
77.943
20
-61.4192
11
77.9426
21
-61.4229
0
LINE
8
BLACK
6
CONTINUOUS
10
77.9426
20
-61.4229
11
77.9412
21
-61.4276
0
LINE
8
BLACK
6
CONTINUOUS
10
77.9412
20
-61.4276
11
77.9389
21
-61.432
0
LINE
8
BLACK
6
CONTINUOUS
10
77.9389
20
-61.432
11
77.9358
21
-61.4358
0
LINE
8
BLACK
6
CONTINUOUS
10
77.9358
20
-61.4358
11
77.932
21
-61.4389
0
LINE
8
BLACK
6
CONTINUOUS
10
77.932
20
-61.4389
11
77.9276
21
-61.4412
0
LINE
8
BLACK
6
CONTINUOUS
10
77.9276
20
-61.4412
11
77.9229
21
-61.4426
0
LINE
8
BLACK
6
CONTINUOUS
10
77.9229
20
-61.4426
11
77.918
21
-61.4431
0
LINE
8
BLACK
6
CONTINUOUS
10
77.918
20
-61.4431
11
77.9168
21
-61.443
0
LINE
8
BLACK
6
CONTINUOUS
10
77.9168
20
-61.443
11
74.4792
21
-61.443
0
LINE
8
BLACK
6
CONTINUOUS
10
74.4792
20
-61.443
11
74.478
21
-61.4431
0
LINE
8
BLACK
6
CONTINUOUS
10
74.478
20
-61.4431
11
74.4731
21
-61.4426
0
LINE
8
BLACK
6
CONTINUOUS
10
74.4731
20
-61.4426
11
74.4684
21
-61.4412
0
LINE
8
BLACK
6
CONTINUOUS
10
74.4684
20
-61.4412
11
74.464
21
-61.4389
0
LINE
8
BLACK
6
CONTINUOUS
10
74.464
20
-61.4389
11
74.4602
21
-61.4358
0
LINE
8
BLACK
6
CONTINUOUS
10
74.4602
20
-61.4358
11
74.4571
21
-61.432
0
LINE
8
BLACK
6
CONTINUOUS
10
74.4571
20
-61.432
11
74.4548
21
-61.4276
0
LINE
8
BLACK
6
CONTINUOUS
10
74.4548
20
-61.4276
11
74.4534
21
-61.4229
0
LINE
8
BLACK
6
CONTINUOUS
10
74.4534
20
-61.4229
11
74.4529
21
-61.418
0
LINE
8
BLACK
6
CONTINUOUS
10
74.4529
20
-61.418
11
74.453
21
-61.4168
0
LINE
8
BLACK
6
CONTINUOUS
10
74.453
20
-61.4168
11
74.453
21
-58.3792
0
LINE
8
BLACK
6
CONTINUOUS
10
74.453
20
-58.3792
11
74.4529
21
-58.378
0
LINE
8
BLACK
6
CONTINUOUS
10
74.4529
20
-58.378
11
74.4534
21
-58.3731
0
LINE
8
BLACK
6
CONTINUOUS
10
74.4534
20
-58.3731
11
74.4548
21
-58.3684
0
LINE
8
BLACK
6
CONTINUOUS
10
74.4548
20
-58.3684
11
74.4571
21
-58.364
0
LINE
8
BLACK
6
CONTINUOUS
10
74.4571
20
-58.364
11
74.4602
21
-58.3602
0
LINE
8
BLACK
6
CONTINUOUS
10
74.4602
20
-58.3602
11
74.464
21
-58.3571
0
LINE
8
BLACK
6
CONTINUOUS
10
74.464
20
-58.3571
11
74.4684
21
-58.3548
0
LINE
8
BLACK
6
CONTINUOUS
10
74.4684
20
-58.3548
11
74.4731
21
-58.3534
0
LINE
8
BLACK
6
CONTINUOUS
10
74.4731
20
-58.3534
11
74.4768
21
-58.353
0
LINE
8
BLACK
6
CONTINUOUS
10
74.4768
20
-58.353
11
74.4768
21
-58.353
0
LINE
8
BLACK
6
CONTINUOUS
10
74.4768
20
-58.353
11
74.478
21
-58.3529
0
LINE
8
BLACK
6
CONTINUOUS
10
74.478
20
-58.3529
11
74.4792
21
-58.353
0
LINE
8
BLACK
6
CONTINUOUS
10
74.4792
20
-58.353
11
77.9168
21
-58.353
0
LINE
8
BLACK
6
CONTINUOUS
10
77.9168
20
-58.353
11
77.918
21
-58.3529
0
LINE
8
BLACK
6
CONTINUOUS
10
77.918
20
-58.3529
11
77.9192
21
-58.353
0
LINE
8
BLACK
6
CONTINUOUS
10
74.503
20
-58.403
11
74.503
21
-61.393
0
LINE
8
BLACK
6
CONTINUOUS
10
74.503
20
-61.393
11
77.893
21
-61.393
0
LINE
8
BLACK
6
CONTINUOUS
10
77.893
20
-61.393
11
77.893
21
-58.403
0
LINE
8
BLACK
6
CONTINUOUS
10
77.893
20
-58.403
11
74.503
21
-58.403
0
LINE
8
BLACK
6
CONTINUOUS
10
39.8092
20
-57.343
11
39.8092
21
-57.343
0
LINE
8
BLACK
6
CONTINUOUS
10
39.8092
20
-57.343
11
39.8129
21
-57.3434
0
LINE
8
BLACK
6
CONTINUOUS
10
39.8129
20
-57.3434
11
39.8176
21
-57.3448
0
LINE
8
BLACK
6
CONTINUOUS
10
39.8176
20
-57.3448
11
39.822
21
-57.3471
0
LINE
8
BLACK
6
CONTINUOUS
10
39.822
20
-57.3471
11
39.8258
21
-57.3502
0
LINE
8
BLACK
6
CONTINUOUS
10
39.8258
20
-57.3502
11
39.8289
21
-57.354
0
LINE
8
BLACK
6
CONTINUOUS
10
39.8289
20
-57.354
11
39.8312
21
-57.3584
0
LINE
8
BLACK
6
CONTINUOUS
10
39.8312
20
-57.3584
11
39.8326
21
-57.3631
0
LINE
8
BLACK
6
CONTINUOUS
10
39.8326
20
-57.3631
11
39.8331
21
-57.368
0
LINE
8
BLACK
6
CONTINUOUS
10
39.8331
20
-57.368
11
39.833
21
-57.3692
0
LINE
8
BLACK
6
CONTINUOUS
10
39.833
20
-57.3692
11
39.833
21
-60.4168
0
LINE
8
BLACK
6
CONTINUOUS
10
39.833
20
-60.4168
11
39.8331
21
-60.418
0
LINE
8
BLACK
6
CONTINUOUS
10
39.8331
20
-60.418
11
39.833
21
-60.4192
0
LINE
8
BLACK
6
CONTINUOUS
10
39.833
20
-60.4192
11
39.833
21
-60.4192
0
LINE
8
BLACK
6
CONTINUOUS
10
39.833
20
-60.4192
11
39.8326
21
-60.4229
0
LINE
8
BLACK
6
CONTINUOUS
10
39.8326
20
-60.4229
11
39.8312
21
-60.4276
0
LINE
8
BLACK
6
CONTINUOUS
10
39.8312
20
-60.4276
11
39.8289
21
-60.432
0
LINE
8
BLACK
6
CONTINUOUS
10
39.8289
20
-60.432
11
39.8258
21
-60.4358
0
LINE
8
BLACK
6
CONTINUOUS
10
39.8258
20
-60.4358
11
39.822
21
-60.4389
0
LINE
8
BLACK
6
CONTINUOUS
10
39.822
20
-60.4389
11
39.8176
21
-60.4412
0
LINE
8
BLACK
6
CONTINUOUS
10
39.8176
20
-60.4412
11
39.8129
21
-60.4426
0
LINE
8
BLACK
6
CONTINUOUS
10
39.8129
20
-60.4426
11
39.808
21
-60.4431
0
LINE
8
BLACK
6
CONTINUOUS
10
39.808
20
-60.4431
11
39.8068
21
-60.443
0
LINE
8
BLACK
6
CONTINUOUS
10
39.8068
20
-60.443
11
36.3792
21
-60.443
0
LINE
8
BLACK
6
CONTINUOUS
10
36.3792
20
-60.443
11
36.378
21
-60.4431
0
LINE
8
BLACK
6
CONTINUOUS
10
36.378
20
-60.4431
11
36.3731
21
-60.4426
0
LINE
8
BLACK
6
CONTINUOUS
10
36.3731
20
-60.4426
11
36.3684
21
-60.4412
0
LINE
8
BLACK
6
CONTINUOUS
10
36.3684
20
-60.4412
11
36.364
21
-60.4389
0
LINE
8
BLACK
6
CONTINUOUS
10
36.364
20
-60.4389
11
36.3602
21
-60.4358
0
LINE
8
BLACK
6
CONTINUOUS
10
36.3602
20
-60.4358
11
36.3571
21
-60.432
0
LINE
8
BLACK
6
CONTINUOUS
10
36.3571
20
-60.432
11
36.3548
21
-60.4276
0
LINE
8
BLACK
6
CONTINUOUS
10
36.3548
20
-60.4276
11
36.3534
21
-60.4229
0
LINE
8
BLACK
6
CONTINUOUS
10
36.3534
20
-60.4229
11
36.3529
21
-60.418
0
LINE
8
BLACK
6
CONTINUOUS
10
36.3529
20
-60.418
11
36.353
21
-60.4168
0
LINE
8
BLACK
6
CONTINUOUS
10
36.353
20
-60.4168
11
36.353
21
-57.3692
0
LINE
8
BLACK
6
CONTINUOUS
10
36.353
20
-57.3692
11
36.3529
21
-57.368
0
LINE
8
BLACK
6
CONTINUOUS
10
36.3529
20
-57.368
11
36.3534
21
-57.3631
0
LINE
8
BLACK
6
CONTINUOUS
10
36.3534
20
-57.3631
11
36.3548
21
-57.3584
0
LINE
8
BLACK
6
CONTINUOUS
10
36.3548
20
-57.3584
11
36.3571
21
-57.354
0
LINE
8
BLACK
6
CONTINUOUS
10
36.3571
20
-57.354
11
36.3602
21
-57.3502
0
LINE
8
BLACK
6
CONTINUOUS
10
36.3602
20
-57.3502
11
36.364
21
-57.3471
0
LINE
8
BLACK
6
CONTINUOUS
10
36.364
20
-57.3471
11
36.3684
21
-57.3448
0
LINE
8
BLACK
6
CONTINUOUS
10
36.3684
20
-57.3448
11
36.3731
21
-57.3434
0
LINE
8
BLACK
6
CONTINUOUS
10
36.3731
20
-57.3434
11
36.3768
21
-57.343
0
LINE
8
BLACK
6
CONTINUOUS
10
36.3768
20
-57.343
11
36.3768
21
-57.343
0
LINE
8
BLACK
6
CONTINUOUS
10
36.3768
20
-57.343
11
36.378
21
-57.3429
0
LINE
8
BLACK
6
CONTINUOUS
10
36.378
20
-57.3429
11
36.3792
21
-57.343
0
LINE
8
BLACK
6
CONTINUOUS
10
36.3792
20
-57.343
11
39.8068
21
-57.343
0
LINE
8
BLACK
6
CONTINUOUS
10
39.8068
20
-57.343
11
39.808
21
-57.3429
0
LINE
8
BLACK
6
CONTINUOUS
10
39.808
20
-57.3429
11
39.8092
21
-57.343
0
LINE
8
BLACK
6
CONTINUOUS
10
36.403
20
-57.393
11
36.403
21
-60.393
0
LINE
8
BLACK
6
CONTINUOUS
10
36.403
20
-60.393
11
39.783
21
-60.393
0
LINE
8
BLACK
6
CONTINUOUS
10
39.783
20
-60.393
11
39.783
21
-57.393
0
LINE
8
BLACK
6
CONTINUOUS
10
39.783
20
-57.393
11
36.403
21
-57.393
0
LINE
8
BLACK
6
CONTINUOUS
10
58.8692
20
-52.343
11
58.8692
21
-52.343
0
LINE
8
BLACK
6
CONTINUOUS
10
58.8692
20
-52.343
11
58.8729
21
-52.3434
0
LINE
8
BLACK
6
CONTINUOUS
10
58.8729
20
-52.3434
11
58.8776
21
-52.3448
0
LINE
8
BLACK
6
CONTINUOUS
10
58.8776
20
-52.3448
11
58.882
21
-52.3471
0
LINE
8
BLACK
6
CONTINUOUS
10
58.882
20
-52.3471
11
58.8858
21
-52.3502
0
LINE
8
BLACK
6
CONTINUOUS
10
58.8858
20
-52.3502
11
58.8889
21
-52.354
0
LINE
8
BLACK
6
CONTINUOUS
10
58.8889
20
-52.354
11
58.8912
21
-52.3584
0
LINE
8
BLACK
6
CONTINUOUS
10
58.8912
20
-52.3584
11
58.8926
21
-52.3631
0
LINE
8
BLACK
6
CONTINUOUS
10
58.8926
20
-52.3631
11
58.8931
21
-52.368
0
LINE
8
BLACK
6
CONTINUOUS
10
58.8931
20
-52.368
11
58.893
21
-52.3692
0
LINE
8
BLACK
6
CONTINUOUS
10
58.893
20
-52.3692
11
58.893
21
-55.4168
0
LINE
8
BLACK
6
CONTINUOUS
10
58.893
20
-55.4168
11
58.8931
21
-55.418
0
LINE
8
BLACK
6
CONTINUOUS
10
58.8931
20
-55.418
11
58.893
21
-55.4192
0
LINE
8
BLACK
6
CONTINUOUS
10
58.893
20
-55.4192
11
58.893
21
-55.4192
0
LINE
8
BLACK
6
CONTINUOUS
10
58.893
20
-55.4192
11
58.8926
21
-55.4229
0
LINE
8
BLACK
6
CONTINUOUS
10
58.8926
20
-55.4229
11
58.8912
21
-55.4276
0
LINE
8
BLACK
6
CONTINUOUS
10
58.8912
20
-55.4276
11
58.8889
21
-55.432
0
LINE
8
BLACK
6
CONTINUOUS
10
58.8889
20
-55.432
11
58.8858
21
-55.4358
0
LINE
8
BLACK
6
CONTINUOUS
10
58.8858
20
-55.4358
11
58.882
21
-55.4389
0
LINE
8
BLACK
6
CONTINUOUS
10
58.882
20
-55.4389
11
58.8776
21
-55.4412
0
LINE
8
BLACK
6
CONTINUOUS
10
58.8776
20
-55.4412
11
58.8729
21
-55.4426
0
LINE
8
BLACK
6
CONTINUOUS
10
58.8729
20
-55.4426
11
58.868
21
-55.4431
0
LINE
8
BLACK
6
CONTINUOUS
10
58.868
20
-55.4431
11
58.8668
21
-55.443
0
LINE
8
BLACK
6
CONTINUOUS
10
58.8668
20
-55.443
11
55.4292
21
-55.443
0
LINE
8
BLACK
6
CONTINUOUS
10
55.4292
20
-55.443
11
55.428
21
-55.4431
0
LINE
8
BLACK
6
CONTINUOUS
10
55.428
20
-55.4431
11
55.4231
21
-55.4426
0
LINE
8
BLACK
6
CONTINUOUS
10
55.4231
20
-55.4426
11
55.4184
21
-55.4412
0
LINE
8
BLACK
6
CONTINUOUS
10
55.4184
20
-55.4412
11
55.414
21
-55.4389
0
LINE
8
BLACK
6
CONTINUOUS
10
55.414
20
-55.4389
11
55.4102
21
-55.4358
0
LINE
8
BLACK
6
CONTINUOUS
10
55.4102
20
-55.4358
11
55.4071
21
-55.432
0
LINE
8
BLACK
6
CONTINUOUS
10
55.4071
20
-55.432
11
55.4048
21
-55.4276
0
LINE
8
BLACK
6
CONTINUOUS
10
55.4048
20
-55.4276
11
55.4034
21
-55.4229
0
LINE
8
BLACK
6
CONTINUOUS
10
55.4034
20
-55.4229
11
55.4029
21
-55.418
0
LINE
8
BLACK
6
CONTINUOUS
10
55.4029
20
-55.418
11
55.403
21
-55.4168
0
LINE
8
BLACK
6
CONTINUOUS
10
55.403
20
-55.4168
11
55.403
21
-52.3692
0
LINE
8
BLACK
6
CONTINUOUS
10
55.403
20
-52.3692
11
55.4029
21
-52.368
0
LINE
8
BLACK
6
CONTINUOUS
10
55.4029
20
-52.368
11
55.4034
21
-52.3631
0
LINE
8
BLACK
6
CONTINUOUS
10
55.4034
20
-52.3631
11
55.4048
21
-52.3584
0
LINE
8
BLACK
6
CONTINUOUS
10
55.4048
20
-52.3584
11
55.4071
21
-52.354
0
LINE
8
BLACK
6
CONTINUOUS
10
55.4071
20
-52.354
11
55.4102
21
-52.3502
0
LINE
8
BLACK
6
CONTINUOUS
10
55.4102
20
-52.3502
11
55.414
21
-52.3471
0
LINE
8
BLACK
6
CONTINUOUS
10
55.414
20
-52.3471
11
55.4184
21
-52.3448
0
LINE
8
BLACK
6
CONTINUOUS
10
55.4184
20
-52.3448
11
55.4231
21
-52.3434
0
LINE
8
BLACK
6
CONTINUOUS
10
55.4231
20
-52.3434
11
55.4268
21
-52.343
0
LINE
8
BLACK
6
CONTINUOUS
10
55.4268
20
-52.343
11
55.4268
21
-52.343
0
LINE
8
BLACK
6
CONTINUOUS
10
55.4268
20
-52.343
11
55.428
21
-52.3429
0
LINE
8
BLACK
6
CONTINUOUS
10
55.428
20
-52.3429
11
55.4292
21
-52.343
0
LINE
8
BLACK
6
CONTINUOUS
10
55.4292
20
-52.343
11
58.8668
21
-52.343
0
LINE
8
BLACK
6
CONTINUOUS
10
58.8668
20
-52.343
11
58.868
21
-52.3429
0
LINE
8
BLACK
6
CONTINUOUS
10
58.868
20
-52.3429
11
58.8692
21
-52.343
0
LINE
8
BLACK
6
CONTINUOUS
10
55.453
20
-52.393
11
55.453
21
-55.393
0
LINE
8
BLACK
6
CONTINUOUS
10
55.453
20
-55.393
11
58.843
21
-55.393
0
LINE
8
BLACK
6
CONTINUOUS
10
58.843
20
-55.393
11
58.843
21
-52.393
0
LINE
8
BLACK
6
CONTINUOUS
10
58.843
20
-52.393
11
55.453
21
-52.393
0
LINE
8
BLACK
6
CONTINUOUS
10
96.9592
20
-44.303
11
96.9592
21
-44.303
0
LINE
8
BLACK
6
CONTINUOUS
10
96.9592
20
-44.303
11
96.9629
21
-44.3034
0
LINE
8
BLACK
6
CONTINUOUS
10
96.9629
20
-44.3034
11
96.9676
21
-44.3048
0
LINE
8
BLACK
6
CONTINUOUS
10
96.9676
20
-44.3048
11
96.972
21
-44.3071
0
LINE
8
BLACK
6
CONTINUOUS
10
96.972
20
-44.3071
11
96.9758
21
-44.3102
0
LINE
8
BLACK
6
CONTINUOUS
10
96.9758
20
-44.3102
11
96.9789
21
-44.314
0
LINE
8
BLACK
6
CONTINUOUS
10
96.9789
20
-44.314
11
96.9812
21
-44.3184
0
LINE
8
BLACK
6
CONTINUOUS
10
96.9812
20
-44.3184
11
96.9826
21
-44.3231
0
LINE
8
BLACK
6
CONTINUOUS
10
96.9826
20
-44.3231
11
96.9831
21
-44.328
0
LINE
8
BLACK
6
CONTINUOUS
10
96.9831
20
-44.328
11
96.983
21
-44.3292
0
LINE
8
BLACK
6
CONTINUOUS
10
96.983
20
-44.3292
11
96.983
21
-47.3668
0
LINE
8
BLACK
6
CONTINUOUS
10
96.983
20
-47.3668
11
96.9831
21
-47.368
0
LINE
8
BLACK
6
CONTINUOUS
10
96.9831
20
-47.368
11
96.983
21
-47.3692
0
LINE
8
BLACK
6
CONTINUOUS
10
96.983
20
-47.3692
11
96.983
21
-47.3692
0
LINE
8
BLACK
6
CONTINUOUS
10
96.983
20
-47.3692
11
96.9826
21
-47.3729
0
LINE
8
BLACK
6
CONTINUOUS
10
96.9826
20
-47.3729
11
96.9812
21
-47.3776
0
LINE
8
BLACK
6
CONTINUOUS
10
96.9812
20
-47.3776
11
96.9789
21
-47.382
0
LINE
8
BLACK
6
CONTINUOUS
10
96.9789
20
-47.382
11
96.9758
21
-47.3858
0
LINE
8
BLACK
6
CONTINUOUS
10
96.9758
20
-47.3858
11
96.972
21
-47.3889
0
LINE
8
BLACK
6
CONTINUOUS
10
96.972
20
-47.3889
11
96.9676
21
-47.3912
0
LINE
8
BLACK
6
CONTINUOUS
10
96.9676
20
-47.3912
11
96.9629
21
-47.3926
0
LINE
8
BLACK
6
CONTINUOUS
10
96.9629
20
-47.3926
11
96.958
21
-47.3931
0
LINE
8
BLACK
6
CONTINUOUS
10
96.958
20
-47.3931
11
96.9568
21
-47.393
0
LINE
8
BLACK
6
CONTINUOUS
10
96.9568
20
-47.393
11
93.5392
21
-47.393
0
LINE
8
BLACK
6
CONTINUOUS
10
93.5392
20
-47.393
11
93.538
21
-47.3931
0
LINE
8
BLACK
6
CONTINUOUS
10
93.538
20
-47.3931
11
93.5331
21
-47.3926
0
LINE
8
BLACK
6
CONTINUOUS
10
93.5331
20
-47.3926
11
93.5284
21
-47.3912
0
LINE
8
BLACK
6
CONTINUOUS
10
93.5284
20
-47.3912
11
93.524
21
-47.3889
0
LINE
8
BLACK
6
CONTINUOUS
10
93.524
20
-47.3889
11
93.5202
21
-47.3858
0
LINE
8
BLACK
6
CONTINUOUS
10
93.5202
20
-47.3858
11
93.5171
21
-47.382
0
LINE
8
BLACK
6
CONTINUOUS
10
93.5171
20
-47.382
11
93.5148
21
-47.3776
0
LINE
8
BLACK
6
CONTINUOUS
10
93.5148
20
-47.3776
11
93.5134
21
-47.3729
0
LINE
8
BLACK
6
CONTINUOUS
10
93.5134
20
-47.3729
11
93.5129
21
-47.368
0
LINE
8
BLACK
6
CONTINUOUS
10
93.5129
20
-47.368
11
93.513
21
-47.3668
0
LINE
8
BLACK
6
CONTINUOUS
10
93.513
20
-47.3668
11
93.513
21
-44.3292
0
LINE
8
BLACK
6
CONTINUOUS
10
93.513
20
-44.3292
11
93.5129
21
-44.328
0
LINE
8
BLACK
6
CONTINUOUS
10
93.5129
20
-44.328
11
93.5134
21
-44.3231
0
LINE
8
BLACK
6
CONTINUOUS
10
93.5134
20
-44.3231
11
93.5148
21
-44.3184
0
LINE
8
BLACK
6
CONTINUOUS
10
93.5148
20
-44.3184
11
93.5171
21
-44.314
0
LINE
8
BLACK
6
CONTINUOUS
10
93.5171
20
-44.314
11
93.5202
21
-44.3102
0
LINE
8
BLACK
6
CONTINUOUS
10
93.5202
20
-44.3102
11
93.524
21
-44.3071
0
LINE
8
BLACK
6
CONTINUOUS
10
93.524
20
-44.3071
11
93.5284
21
-44.3048
0
LINE
8
BLACK
6
CONTINUOUS
10
93.5284
20
-44.3048
11
93.5331
21
-44.3034
0
LINE
8
BLACK
6
CONTINUOUS
10
93.5331
20
-44.3034
11
93.5368
21
-44.303
0
LINE
8
BLACK
6
CONTINUOUS
10
93.5368
20
-44.303
11
93.5368
21
-44.303
0
LINE
8
BLACK
6
CONTINUOUS
10
93.5368
20
-44.303
11
93.538
21
-44.3029
0
LINE
8
BLACK
6
CONTINUOUS
10
93.538
20
-44.3029
11
93.5392
21
-44.303
0
LINE
8
BLACK
6
CONTINUOUS
10
93.5392
20
-44.303
11
96.9568
21
-44.303
0
LINE
8
BLACK
6
CONTINUOUS
10
96.9568
20
-44.303
11
96.958
21
-44.3029
0
LINE
8
BLACK
6
CONTINUOUS
10
96.958
20
-44.3029
11
96.9592
21
-44.303
0
LINE
8
BLACK
6
CONTINUOUS
10
93.563
20
-44.353
11
93.563
21
-47.343
0
LINE
8
BLACK
6
CONTINUOUS
10
93.563
20
-47.343
11
96.933
21
-47.343
0
LINE
8
BLACK
6
CONTINUOUS
10
96.933
20
-47.343
11
96.933
21
-44.353
0
LINE
8
BLACK
6
CONTINUOUS
10
96.933
20
-44.353
11
93.563
21
-44.353
0
LINE
8
BLACK
6
CONTINUOUS
10
20.7492
20
-41.293
11
20.7492
21
-41.293
0
LINE
8
BLACK
6
CONTINUOUS
10
20.7492
20
-41.293
11
20.7529
21
-41.2934
0
LINE
8
BLACK
6
CONTINUOUS
10
20.7529
20
-41.2934
11
20.7576
21
-41.2948
0
LINE
8
BLACK
6
CONTINUOUS
10
20.7576
20
-41.2948
11
20.762
21
-41.2971
0
LINE
8
BLACK
6
CONTINUOUS
10
20.762
20
-41.2971
11
20.7658
21
-41.3002
0
LINE
8
BLACK
6
CONTINUOUS
10
20.7658
20
-41.3002
11
20.7689
21
-41.304
0
LINE
8
BLACK
6
CONTINUOUS
10
20.7689
20
-41.304
11
20.7712
21
-41.3084
0
LINE
8
BLACK
6
CONTINUOUS
10
20.7712
20
-41.3084
11
20.7726
21
-41.3131
0
LINE
8
BLACK
6
CONTINUOUS
10
20.7726
20
-41.3131
11
20.7731
21
-41.318
0
LINE
8
BLACK
6
CONTINUOUS
10
20.7731
20
-41.318
11
20.773
21
-41.3192
0
LINE
8
BLACK
6
CONTINUOUS
10
20.773
20
-41.3192
11
20.773
21
-44.3668
0
LINE
8
BLACK
6
CONTINUOUS
10
20.773
20
-44.3668
11
20.7731
21
-44.368
0
LINE
8
BLACK
6
CONTINUOUS
10
20.7731
20
-44.368
11
20.773
21
-44.3692
0
LINE
8
BLACK
6
CONTINUOUS
10
20.773
20
-44.3692
11
20.773
21
-44.3692
0
LINE
8
BLACK
6
CONTINUOUS
10
20.773
20
-44.3692
11
20.7726
21
-44.3729
0
LINE
8
BLACK
6
CONTINUOUS
10
20.7726
20
-44.3729
11
20.7712
21
-44.3776
0
LINE
8
BLACK
6
CONTINUOUS
10
20.7712
20
-44.3776
11
20.7689
21
-44.382
0
LINE
8
BLACK
6
CONTINUOUS
10
20.7689
20
-44.382
11
20.7658
21
-44.3858
0
LINE
8
BLACK
6
CONTINUOUS
10
20.7658
20
-44.3858
11
20.762
21
-44.3889
0
LINE
8
BLACK
6
CONTINUOUS
10
20.762
20
-44.3889
11
20.7576
21
-44.3912
0
LINE
8
BLACK
6
CONTINUOUS
10
20.7576
20
-44.3912
11
20.7529
21
-44.3926
0
LINE
8
BLACK
6
CONTINUOUS
10
20.7529
20
-44.3926
11
20.748
21
-44.3931
0
LINE
8
BLACK
6
CONTINUOUS
10
20.748
20
-44.3931
11
20.7468
21
-44.393
0
LINE
8
BLACK
6
CONTINUOUS
10
20.7468
20
-44.393
11
17.3392
21
-44.393
0
LINE
8
BLACK
6
CONTINUOUS
10
17.3392
20
-44.393
11
17.338
21
-44.3931
0
LINE
8
BLACK
6
CONTINUOUS
10
17.338
20
-44.3931
11
17.3331
21
-44.3926
0
LINE
8
BLACK
6
CONTINUOUS
10
17.3331
20
-44.3926
11
17.3284
21
-44.3912
0
LINE
8
BLACK
6
CONTINUOUS
10
17.3284
20
-44.3912
11
17.324
21
-44.3889
0
LINE
8
BLACK
6
CONTINUOUS
10
17.324
20
-44.3889
11
17.3202
21
-44.3858
0
LINE
8
BLACK
6
CONTINUOUS
10
17.3202
20
-44.3858
11
17.3171
21
-44.382
0
LINE
8
BLACK
6
CONTINUOUS
10
17.3171
20
-44.382
11
17.3148
21
-44.3776
0
LINE
8
BLACK
6
CONTINUOUS
10
17.3148
20
-44.3776
11
17.3134
21
-44.3729
0
LINE
8
BLACK
6
CONTINUOUS
10
17.3134
20
-44.3729
11
17.3129
21
-44.368
0
LINE
8
BLACK
6
CONTINUOUS
10
17.3129
20
-44.368
11
17.313
21
-44.3668
0
LINE
8
BLACK
6
CONTINUOUS
10
17.313
20
-44.3668
11
17.313
21
-41.3192
0
LINE
8
BLACK
6
CONTINUOUS
10
17.313
20
-41.3192
11
17.3129
21
-41.318
0
LINE
8
BLACK
6
CONTINUOUS
10
17.3129
20
-41.318
11
17.3134
21
-41.3131
0
LINE
8
BLACK
6
CONTINUOUS
10
17.3134
20
-41.3131
11
17.3148
21
-41.3084
0
LINE
8
BLACK
6
CONTINUOUS
10
17.3148
20
-41.3084
11
17.3171
21
-41.304
0
LINE
8
BLACK
6
CONTINUOUS
10
17.3171
20
-41.304
11
17.3202
21
-41.3002
0
LINE
8
BLACK
6
CONTINUOUS
10
17.3202
20
-41.3002
11
17.324
21
-41.2971
0
LINE
8
BLACK
6
CONTINUOUS
10
17.324
20
-41.2971
11
17.3284
21
-41.2948
0
LINE
8
BLACK
6
CONTINUOUS
10
17.3284
20
-41.2948
11
17.3331
21
-41.2934
0
LINE
8
BLACK
6
CONTINUOUS
10
17.3331
20
-41.2934
11
17.3368
21
-41.293
0
LINE
8
BLACK
6
CONTINUOUS
10
17.3368
20
-41.293
11
17.3368
21
-41.293
0
LINE
8
BLACK
6
CONTINUOUS
10
17.3368
20
-41.293
11
17.338
21
-41.2929
0
LINE
8
BLACK
6
CONTINUOUS
10
17.338
20
-41.2929
11
17.3392
21
-41.293
0
LINE
8
BLACK
6
CONTINUOUS
10
17.3392
20
-41.293
11
20.7468
21
-41.293
0
LINE
8
BLACK
6
CONTINUOUS
10
20.7468
20
-41.293
11
20.748
21
-41.2929
0
LINE
8
BLACK
6
CONTINUOUS
10
20.748
20
-41.2929
11
20.7492
21
-41.293
0
LINE
8
BLACK
6
CONTINUOUS
10
17.363
20
-41.343
11
17.363
21
-44.343
0
LINE
8
BLACK
6
CONTINUOUS
10
17.363
20
-44.343
11
20.723
21
-44.343
0
LINE
8
BLACK
6
CONTINUOUS
10
20.723
20
-44.343
11
20.723
21
-41.343
0
LINE
8
BLACK
6
CONTINUOUS
10
20.723
20
-41.343
11
17.363
21
-41.343
0
LINE
8
BLACK
6
CONTINUOUS
10
1.70922
20
-41.303
11
1.70922
21
-41.303
0
LINE
8
BLACK
6
CONTINUOUS
10
1.70922
20
-41.303
11
1.7129
21
-41.3034
0
LINE
8
BLACK
6
CONTINUOUS
10
1.7129
20
-41.3034
11
1.71761
21
-41.3048
0
LINE
8
BLACK
6
CONTINUOUS
10
1.71761
20
-41.3048
11
1.72196
21
-41.3071
0
LINE
8
BLACK
6
CONTINUOUS
10
1.72196
20
-41.3071
11
1.72576
21
-41.3102
0
LINE
8
BLACK
6
CONTINUOUS
10
1.72576
20
-41.3102
11
1.72889
21
-41.314
0
LINE
8
BLACK
6
CONTINUOUS
10
1.72889
20
-41.314
11
1.73121
21
-41.3184
0
LINE
8
BLACK
6
CONTINUOUS
10
1.73121
20
-41.3184
11
1.73264
21
-41.3231
0
LINE
8
BLACK
6
CONTINUOUS
10
1.73264
20
-41.3231
11
1.73312
21
-41.328
0
LINE
8
BLACK
6
CONTINUOUS
10
1.73312
20
-41.328
11
1.733
21
-41.3292
0
LINE
8
BLACK
6
CONTINUOUS
10
1.733
20
-41.3292
11
1.733
21
-44.3268
0
LINE
8
BLACK
6
CONTINUOUS
10
1.733
20
-44.3268
11
1.73312
21
-44.328
0
LINE
8
BLACK
6
CONTINUOUS
10
1.73312
20
-44.328
11
1.733
21
-44.3292
0
LINE
8
BLACK
6
CONTINUOUS
10
1.733
20
-44.3292
11
1.733
21
-44.3292
0
LINE
8
BLACK
6
CONTINUOUS
10
1.733
20
-44.3292
11
1.73264
21
-44.3329
0
LINE
8
BLACK
6
CONTINUOUS
10
1.73264
20
-44.3329
11
1.73121
21
-44.3376
0
LINE
8
BLACK
6
CONTINUOUS
10
1.73121
20
-44.3376
11
1.72889
21
-44.342
0
LINE
8
BLACK
6
CONTINUOUS
10
1.72889
20
-44.342
11
1.72576
21
-44.3458
0
LINE
8
BLACK
6
CONTINUOUS
10
1.72576
20
-44.3458
11
1.72196
21
-44.3489
0
LINE
8
BLACK
6
CONTINUOUS
10
1.72196
20
-44.3489
11
1.71761
21
-44.3512
0
LINE
8
BLACK
6
CONTINUOUS
10
1.71761
20
-44.3512
11
1.7129
21
-44.3526
0
LINE
8
BLACK
6
CONTINUOUS
10
1.7129
20
-44.3526
11
1.708
21
-44.3531
0
LINE
8
BLACK
6
CONTINUOUS
10
1.708
20
-44.3531
11
1.70678
21
-44.353
0
LINE
8
BLACK
6
CONTINUOUS
10
1.70678
20
-44.353
11
-1.70078
21
-44.353
0
LINE
8
BLACK
6
CONTINUOUS
10
-1.70078
20
-44.353
11
-1.702
21
-44.3531
0
LINE
8
BLACK
6
CONTINUOUS
10
-1.702
20
-44.3531
11
-1.7069
21
-44.3526
0
LINE
8
BLACK
6
CONTINUOUS
10
-1.7069
20
-44.3526
11
-1.71161
21
-44.3512
0
LINE
8
BLACK
6
CONTINUOUS
10
-1.71161
20
-44.3512
11
-1.71596
21
-44.3489
0
LINE
8
BLACK
6
CONTINUOUS
10
-1.71596
20
-44.3489
11
-1.71976
21
-44.3458
0
LINE
8
BLACK
6
CONTINUOUS
10
-1.71976
20
-44.3458
11
-1.72203
21
-44.343
0
LINE
8
BLACK
6
CONTINUOUS
10
-1.72203
20
-44.343
11
-1.72289
21
-44.342
0
LINE
8
BLACK
6
CONTINUOUS
10
-1.72289
20
-44.342
11
-1.72521
21
-44.3376
0
LINE
8
BLACK
6
CONTINUOUS
10
-1.72521
20
-44.3376
11
-1.72664
21
-44.3329
0
LINE
8
BLACK
6
CONTINUOUS
10
-1.72664
20
-44.3329
11
-1.72712
21
-44.328
0
LINE
8
BLACK
6
CONTINUOUS
10
-1.72712
20
-44.328
11
-1.727
21
-44.3268
0
LINE
8
BLACK
6
CONTINUOUS
10
-1.727
20
-44.3268
11
-1.727
21
-41.3292
0
LINE
8
BLACK
6
CONTINUOUS
10
-1.727
20
-41.3292
11
-1.72712
21
-41.328
0
LINE
8
BLACK
6
CONTINUOUS
10
-1.72712
20
-41.328
11
-1.72664
21
-41.3231
0
LINE
8
BLACK
6
CONTINUOUS
10
-1.72664
20
-41.3231
11
-1.72521
21
-41.3184
0
LINE
8
BLACK
6
CONTINUOUS
10
-1.72521
20
-41.3184
11
-1.72289
21
-41.314
0
LINE
8
BLACK
6
CONTINUOUS
10
-1.72289
20
-41.314
11
-1.71976
21
-41.3102
0
LINE
8
BLACK
6
CONTINUOUS
10
-1.71976
20
-41.3102
11
-1.71596
21
-41.3071
0
LINE
8
BLACK
6
CONTINUOUS
10
-1.71596
20
-41.3071
11
-1.71161
21
-41.3048
0
LINE
8
BLACK
6
CONTINUOUS
10
-1.71161
20
-41.3048
11
-1.7069
21
-41.3034
0
LINE
8
BLACK
6
CONTINUOUS
10
-1.7069
20
-41.3034
11
-1.70322
21
-41.303
0
LINE
8
BLACK
6
CONTINUOUS
10
-1.70322
20
-41.303
11
-1.70322
21
-41.303
0
LINE
8
BLACK
6
CONTINUOUS
10
-1.70322
20
-41.303
11
-1.702
21
-41.3029
0
LINE
8
BLACK
6
CONTINUOUS
10
-1.702
20
-41.3029
11
-1.70078
21
-41.303
0
LINE
8
BLACK
6
CONTINUOUS
10
-1.70078
20
-41.303
11
1.70678
21
-41.303
0
LINE
8
BLACK
6
CONTINUOUS
10
1.70678
20
-41.303
11
1.708
21
-41.3029
0
LINE
8
BLACK
6
CONTINUOUS
10
1.708
20
-41.3029
11
1.70922
21
-41.303
0
LINE
8
BLACK
6
CONTINUOUS
10
-1.677
20
-41.353
11
-1.677
21
-44.303
0
LINE
8
BLACK
6
CONTINUOUS
10
-1.677
20
-44.303
11
1.683
21
-44.303
0
LINE
8
BLACK
6
CONTINUOUS
10
1.683
20
-44.303
11
1.683
21
-41.353
0
LINE
8
BLACK
6
CONTINUOUS
10
1.683
20
-41.353
11
-1.677
21
-41.353
0
LINE
8
BLACK
6
CONTINUOUS
10
77.9092
20
-39.303
11
77.9092
21
-39.303
0
LINE
8
BLACK
6
CONTINUOUS
10
77.9092
20
-39.303
11
77.9129
21
-39.3034
0
LINE
8
BLACK
6
CONTINUOUS
10
77.9129
20
-39.3034
11
77.9176
21
-39.3048
0
LINE
8
BLACK
6
CONTINUOUS
10
77.9176
20
-39.3048
11
77.922
21
-39.3071
0
LINE
8
BLACK
6
CONTINUOUS
10
77.922
20
-39.3071
11
77.9258
21
-39.3102
0
LINE
8
BLACK
6
CONTINUOUS
10
77.9258
20
-39.3102
11
77.9289
21
-39.314
0
LINE
8
BLACK
6
CONTINUOUS
10
77.9289
20
-39.314
11
77.9312
21
-39.3184
0
LINE
8
BLACK
6
CONTINUOUS
10
77.9312
20
-39.3184
11
77.9326
21
-39.3231
0
LINE
8
BLACK
6
CONTINUOUS
10
77.9326
20
-39.3231
11
77.9331
21
-39.328
0
LINE
8
BLACK
6
CONTINUOUS
10
77.9331
20
-39.328
11
77.933
21
-39.3292
0
LINE
8
BLACK
6
CONTINUOUS
10
77.933
20
-39.3292
11
77.933
21
-42.3668
0
LINE
8
BLACK
6
CONTINUOUS
10
77.933
20
-42.3668
11
77.9331
21
-42.368
0
LINE
8
BLACK
6
CONTINUOUS
10
77.9331
20
-42.368
11
77.933
21
-42.3692
0
LINE
8
BLACK
6
CONTINUOUS
10
77.933
20
-42.3692
11
77.933
21
-42.3692
0
LINE
8
BLACK
6
CONTINUOUS
10
77.933
20
-42.3692
11
77.9326
21
-42.3729
0
LINE
8
BLACK
6
CONTINUOUS
10
77.9326
20
-42.3729
11
77.9312
21
-42.3776
0
LINE
8
BLACK
6
CONTINUOUS
10
77.9312
20
-42.3776
11
77.9289
21
-42.382
0
LINE
8
BLACK
6
CONTINUOUS
10
77.9289
20
-42.382
11
77.9258
21
-42.3858
0
LINE
8
BLACK
6
CONTINUOUS
10
77.9258
20
-42.3858
11
77.922
21
-42.3889
0
LINE
8
BLACK
6
CONTINUOUS
10
77.922
20
-42.3889
11
77.9176
21
-42.3912
0
LINE
8
BLACK
6
CONTINUOUS
10
77.9176
20
-42.3912
11
77.9129
21
-42.3926
0
LINE
8
BLACK
6
CONTINUOUS
10
77.9129
20
-42.3926
11
77.908
21
-42.3931
0
LINE
8
BLACK
6
CONTINUOUS
10
77.908
20
-42.3931
11
77.9068
21
-42.393
0
LINE
8
BLACK
6
CONTINUOUS
10
77.9068
20
-42.393
11
74.4892
21
-42.393
0
LINE
8
BLACK
6
CONTINUOUS
10
74.4892
20
-42.393
11
74.488
21
-42.3931
0
LINE
8
BLACK
6
CONTINUOUS
10
74.488
20
-42.3931
11
74.4831
21
-42.3926
0
LINE
8
BLACK
6
CONTINUOUS
10
74.4831
20
-42.3926
11
74.4784
21
-42.3912
0
LINE
8
BLACK
6
CONTINUOUS
10
74.4784
20
-42.3912
11
74.474
21
-42.3889
0
LINE
8
BLACK
6
CONTINUOUS
10
74.474
20
-42.3889
11
74.4702
21
-42.3858
0
LINE
8
BLACK
6
CONTINUOUS
10
74.4702
20
-42.3858
11
74.4671
21
-42.382
0
LINE
8
BLACK
6
CONTINUOUS
10
74.4671
20
-42.382
11
74.4648
21
-42.3776
0
LINE
8
BLACK
6
CONTINUOUS
10
74.4648
20
-42.3776
11
74.4634
21
-42.3729
0
LINE
8
BLACK
6
CONTINUOUS
10
74.4634
20
-42.3729
11
74.4629
21
-42.368
0
LINE
8
BLACK
6
CONTINUOUS
10
74.4629
20
-42.368
11
74.463
21
-42.3668
0
LINE
8
BLACK
6
CONTINUOUS
10
74.463
20
-42.3668
11
74.463
21
-39.3292
0
LINE
8
BLACK
6
CONTINUOUS
10
74.463
20
-39.3292
11
74.4629
21
-39.328
0
LINE
8
BLACK
6
CONTINUOUS
10
74.4629
20
-39.328
11
74.4634
21
-39.3231
0
LINE
8
BLACK
6
CONTINUOUS
10
74.4634
20
-39.3231
11
74.4648
21
-39.3184
0
LINE
8
BLACK
6
CONTINUOUS
10
74.4648
20
-39.3184
11
74.4671
21
-39.314
0
LINE
8
BLACK
6
CONTINUOUS
10
74.4671
20
-39.314
11
74.4702
21
-39.3102
0
LINE
8
BLACK
6
CONTINUOUS
10
74.4702
20
-39.3102
11
74.474
21
-39.3071
0
LINE
8
BLACK
6
CONTINUOUS
10
74.474
20
-39.3071
11
74.4784
21
-39.3048
0
LINE
8
BLACK
6
CONTINUOUS
10
74.4784
20
-39.3048
11
74.4831
21
-39.3034
0
LINE
8
BLACK
6
CONTINUOUS
10
74.4831
20
-39.3034
11
74.4868
21
-39.303
0
LINE
8
BLACK
6
CONTINUOUS
10
74.4868
20
-39.303
11
74.4868
21
-39.303
0
LINE
8
BLACK
6
CONTINUOUS
10
74.4868
20
-39.303
11
74.488
21
-39.3029
0
LINE
8
BLACK
6
CONTINUOUS
10
74.488
20
-39.3029
11
74.4892
21
-39.303
0
LINE
8
BLACK
6
CONTINUOUS
10
74.4892
20
-39.303
11
77.9068
21
-39.303
0
LINE
8
BLACK
6
CONTINUOUS
10
77.9068
20
-39.303
11
77.908
21
-39.3029
0
LINE
8
BLACK
6
CONTINUOUS
10
77.908
20
-39.3029
11
77.9092
21
-39.303
0
LINE
8
BLACK
6
CONTINUOUS
10
74.513
20
-39.353
11
74.513
21
-42.343
0
LINE
8
BLACK
6
CONTINUOUS
10
74.513
20
-42.343
11
77.883
21
-42.343
0
LINE
8
BLACK
6
CONTINUOUS
10
77.883
20
-42.343
11
77.883
21
-39.353
0
LINE
8
BLACK
6
CONTINUOUS
10
77.883
20
-39.353
11
74.513
21
-39.353
0
LINE
8
BLACK
6
CONTINUOUS
10
39.8292
20
-38.283
11
39.8292
21
-38.283
0
LINE
8
BLACK
6
CONTINUOUS
10
39.8292
20
-38.283
11
39.8329
21
-38.2834
0
LINE
8
BLACK
6
CONTINUOUS
10
39.8329
20
-38.2834
11
39.8376
21
-38.2848
0
LINE
8
BLACK
6
CONTINUOUS
10
39.8376
20
-38.2848
11
39.842
21
-38.2871
0
LINE
8
BLACK
6
CONTINUOUS
10
39.842
20
-38.2871
11
39.8458
21
-38.2902
0
LINE
8
BLACK
6
CONTINUOUS
10
39.8458
20
-38.2902
11
39.8489
21
-38.294
0
LINE
8
BLACK
6
CONTINUOUS
10
39.8489
20
-38.294
11
39.8512
21
-38.2984
0
LINE
8
BLACK
6
CONTINUOUS
10
39.8512
20
-38.2984
11
39.8526
21
-38.3031
0
LINE
8
BLACK
6
CONTINUOUS
10
39.8526
20
-38.3031
11
39.8531
21
-38.308
0
LINE
8
BLACK
6
CONTINUOUS
10
39.8531
20
-38.308
11
39.853
21
-38.3092
0
LINE
8
BLACK
6
CONTINUOUS
10
39.853
20
-38.3092
11
39.853
21
-41.3768
0
LINE
8
BLACK
6
CONTINUOUS
10
39.853
20
-41.3768
11
39.8531
21
-41.378
0
LINE
8
BLACK
6
CONTINUOUS
10
39.8531
20
-41.378
11
39.853
21
-41.3792
0
LINE
8
BLACK
6
CONTINUOUS
10
39.853
20
-41.3792
11
39.853
21
-41.3792
0
LINE
8
BLACK
6
CONTINUOUS
10
39.853
20
-41.3792
11
39.8526
21
-41.3829
0
LINE
8
BLACK
6
CONTINUOUS
10
39.8526
20
-41.3829
11
39.8512
21
-41.3876
0
LINE
8
BLACK
6
CONTINUOUS
10
39.8512
20
-41.3876
11
39.8489
21
-41.392
0
LINE
8
BLACK
6
CONTINUOUS
10
39.8489
20
-41.392
11
39.8458
21
-41.3958
0
LINE
8
BLACK
6
CONTINUOUS
10
39.8458
20
-41.3958
11
39.842
21
-41.3989
0
LINE
8
BLACK
6
CONTINUOUS
10
39.842
20
-41.3989
11
39.8376
21
-41.4012
0
LINE
8
BLACK
6
CONTINUOUS
10
39.8376
20
-41.4012
11
39.8329
21
-41.4026
0
LINE
8
BLACK
6
CONTINUOUS
10
39.8329
20
-41.4026
11
39.828
21
-41.4031
0
LINE
8
BLACK
6
CONTINUOUS
10
39.828
20
-41.4031
11
39.8268
21
-41.403
0
LINE
8
BLACK
6
CONTINUOUS
10
39.8268
20
-41.403
11
36.3792
21
-41.403
0
LINE
8
BLACK
6
CONTINUOUS
10
36.3792
20
-41.403
11
36.378
21
-41.4031
0
LINE
8
BLACK
6
CONTINUOUS
10
36.378
20
-41.4031
11
36.3731
21
-41.4026
0
LINE
8
BLACK
6
CONTINUOUS
10
36.3731
20
-41.4026
11
36.3684
21
-41.4012
0
LINE
8
BLACK
6
CONTINUOUS
10
36.3684
20
-41.4012
11
36.364
21
-41.3989
0
LINE
8
BLACK
6
CONTINUOUS
10
36.364
20
-41.3989
11
36.3602
21
-41.3958
0
LINE
8
BLACK
6
CONTINUOUS
10
36.3602
20
-41.3958
11
36.3571
21
-41.392
0
LINE
8
BLACK
6
CONTINUOUS
10
36.3571
20
-41.392
11
36.3548
21
-41.3876
0
LINE
8
BLACK
6
CONTINUOUS
10
36.3548
20
-41.3876
11
36.3534
21
-41.3829
0
LINE
8
BLACK
6
CONTINUOUS
10
36.3534
20
-41.3829
11
36.3529
21
-41.378
0
LINE
8
BLACK
6
CONTINUOUS
10
36.3529
20
-41.378
11
36.353
21
-41.3768
0
LINE
8
BLACK
6
CONTINUOUS
10
36.353
20
-41.3768
11
36.353
21
-38.3092
0
LINE
8
BLACK
6
CONTINUOUS
10
36.353
20
-38.3092
11
36.3529
21
-38.308
0
LINE
8
BLACK
6
CONTINUOUS
10
36.3529
20
-38.308
11
36.3534
21
-38.3031
0
LINE
8
BLACK
6
CONTINUOUS
10
36.3534
20
-38.3031
11
36.3548
21
-38.2984
0
LINE
8
BLACK
6
CONTINUOUS
10
36.3548
20
-38.2984
11
36.3571
21
-38.294
0
LINE
8
BLACK
6
CONTINUOUS
10
36.3571
20
-38.294
11
36.3602
21
-38.2902
0
LINE
8
BLACK
6
CONTINUOUS
10
36.3602
20
-38.2902
11
36.364
21
-38.2871
0
LINE
8
BLACK
6
CONTINUOUS
10
36.364
20
-38.2871
11
36.3684
21
-38.2848
0
LINE
8
BLACK
6
CONTINUOUS
10
36.3684
20
-38.2848
11
36.3731
21
-38.2834
0
LINE
8
BLACK
6
CONTINUOUS
10
36.3731
20
-38.2834
11
36.3768
21
-38.283
0
LINE
8
BLACK
6
CONTINUOUS
10
36.3768
20
-38.283
11
36.3768
21
-38.283
0
LINE
8
BLACK
6
CONTINUOUS
10
36.3768
20
-38.283
11
36.378
21
-38.2829
0
LINE
8
BLACK
6
CONTINUOUS
10
36.378
20
-38.2829
11
36.3792
21
-38.283
0
LINE
8
BLACK
6
CONTINUOUS
10
36.3792
20
-38.283
11
39.8268
21
-38.283
0
LINE
8
BLACK
6
CONTINUOUS
10
39.8268
20
-38.283
11
39.828
21
-38.2829
0
LINE
8
BLACK
6
CONTINUOUS
10
39.828
20
-38.2829
11
39.8292
21
-38.283
0
LINE
8
BLACK
6
CONTINUOUS
10
36.403
20
-38.333
11
36.403
21
-41.353
0
LINE
8
BLACK
6
CONTINUOUS
10
36.403
20
-41.353
11
39.803
21
-41.353
0
LINE
8
BLACK
6
CONTINUOUS
10
39.803
20
-41.353
11
39.803
21
-38.333
0
LINE
8
BLACK
6
CONTINUOUS
10
39.803
20
-38.333
11
36.403
21
-38.333
0
LINE
8
BLACK
6
CONTINUOUS
10
58.8692
20
-33.313
11
58.8692
21
-33.313
0
LINE
8
BLACK
6
CONTINUOUS
10
58.8692
20
-33.313
11
58.8729
21
-33.3134
0
LINE
8
BLACK
6
CONTINUOUS
10
58.8729
20
-33.3134
11
58.8776
21
-33.3148
0
LINE
8
BLACK
6
CONTINUOUS
10
58.8776
20
-33.3148
11
58.882
21
-33.3171
0
LINE
8
BLACK
6
CONTINUOUS
10
58.882
20
-33.3171
11
58.8858
21
-33.3202
0
LINE
8
BLACK
6
CONTINUOUS
10
58.8858
20
-33.3202
11
58.8889
21
-33.324
0
LINE
8
BLACK
6
CONTINUOUS
10
58.8889
20
-33.324
11
58.8912
21
-33.3284
0
LINE
8
BLACK
6
CONTINUOUS
10
58.8912
20
-33.3284
11
58.8926
21
-33.3331
0
LINE
8
BLACK
6
CONTINUOUS
10
58.8926
20
-33.3331
11
58.8931
21
-33.338
0
LINE
8
BLACK
6
CONTINUOUS
10
58.8931
20
-33.338
11
58.893
21
-33.3392
0
LINE
8
BLACK
6
CONTINUOUS
10
58.893
20
-33.3392
11
58.893
21
-36.3568
0
LINE
8
BLACK
6
CONTINUOUS
10
58.893
20
-36.3568
11
58.8931
21
-36.358
0
LINE
8
BLACK
6
CONTINUOUS
10
58.8931
20
-36.358
11
58.893
21
-36.3592
0
LINE
8
BLACK
6
CONTINUOUS
10
58.893
20
-36.3592
11
58.893
21
-36.3592
0
LINE
8
BLACK
6
CONTINUOUS
10
58.893
20
-36.3592
11
58.8926
21
-36.3629
0
LINE
8
BLACK
6
CONTINUOUS
10
58.8926
20
-36.3629
11
58.8912
21
-36.3676
0
LINE
8
BLACK
6
CONTINUOUS
10
58.8912
20
-36.3676
11
58.8889
21
-36.372
0
LINE
8
BLACK
6
CONTINUOUS
10
58.8889
20
-36.372
11
58.8858
21
-36.3758
0
LINE
8
BLACK
6
CONTINUOUS
10
58.8858
20
-36.3758
11
58.882
21
-36.3789
0
LINE
8
BLACK
6
CONTINUOUS
10
58.882
20
-36.3789
11
58.8776
21
-36.3812
0
LINE
8
BLACK
6
CONTINUOUS
10
58.8776
20
-36.3812
11
58.8729
21
-36.3826
0
LINE
8
BLACK
6
CONTINUOUS
10
58.8729
20
-36.3826
11
58.868
21
-36.3831
0
LINE
8
BLACK
6
CONTINUOUS
10
58.868
20
-36.3831
11
58.8668
21
-36.383
0
LINE
8
BLACK
6
CONTINUOUS
10
58.8668
20
-36.383
11
55.4292
21
-36.383
0
LINE
8
BLACK
6
CONTINUOUS
10
55.4292
20
-36.383
11
55.428
21
-36.3831
0
LINE
8
BLACK
6
CONTINUOUS
10
55.428
20
-36.3831
11
55.4231
21
-36.3826
0
LINE
8
BLACK
6
CONTINUOUS
10
55.4231
20
-36.3826
11
55.4184
21
-36.3812
0
LINE
8
BLACK
6
CONTINUOUS
10
55.4184
20
-36.3812
11
55.414
21
-36.3789
0
LINE
8
BLACK
6
CONTINUOUS
10
55.414
20
-36.3789
11
55.4102
21
-36.3758
0
LINE
8
BLACK
6
CONTINUOUS
10
55.4102
20
-36.3758
11
55.4071
21
-36.372
0
LINE
8
BLACK
6
CONTINUOUS
10
55.4071
20
-36.372
11
55.4048
21
-36.3676
0
LINE
8
BLACK
6
CONTINUOUS
10
55.4048
20
-36.3676
11
55.4034
21
-36.3629
0
LINE
8
BLACK
6
CONTINUOUS
10
55.4034
20
-36.3629
11
55.4029
21
-36.358
0
LINE
8
BLACK
6
CONTINUOUS
10
55.4029
20
-36.358
11
55.403
21
-36.3568
0
LINE
8
BLACK
6
CONTINUOUS
10
55.403
20
-36.3568
11
55.403
21
-33.3392
0
LINE
8
BLACK
6
CONTINUOUS
10
55.403
20
-33.3392
11
55.4029
21
-33.338
0
LINE
8
BLACK
6
CONTINUOUS
10
55.4029
20
-33.338
11
55.4034
21
-33.3331
0
LINE
8
BLACK
6
CONTINUOUS
10
55.4034
20
-33.3331
11
55.4048
21
-33.3284
0
LINE
8
BLACK
6
CONTINUOUS
10
55.4048
20
-33.3284
11
55.4071
21
-33.324
0
LINE
8
BLACK
6
CONTINUOUS
10
55.4071
20
-33.324
11
55.4102
21
-33.3202
0
LINE
8
BLACK
6
CONTINUOUS
10
55.4102
20
-33.3202
11
55.414
21
-33.3171
0
LINE
8
BLACK
6
CONTINUOUS
10
55.414
20
-33.3171
11
55.4184
21
-33.3148
0
LINE
8
BLACK
6
CONTINUOUS
10
55.4184
20
-33.3148
11
55.4231
21
-33.3134
0
LINE
8
BLACK
6
CONTINUOUS
10
55.4231
20
-33.3134
11
55.4268
21
-33.313
0
LINE
8
BLACK
6
CONTINUOUS
10
55.4268
20
-33.313
11
55.4268
21
-33.313
0
LINE
8
BLACK
6
CONTINUOUS
10
55.4268
20
-33.313
11
55.428
21
-33.3129
0
LINE
8
BLACK
6
CONTINUOUS
10
55.428
20
-33.3129
11
55.4292
21
-33.313
0
LINE
8
BLACK
6
CONTINUOUS
10
55.4292
20
-33.313
11
58.8668
21
-33.313
0
LINE
8
BLACK
6
CONTINUOUS
10
58.8668
20
-33.313
11
58.868
21
-33.3129
0
LINE
8
BLACK
6
CONTINUOUS
10
58.868
20
-33.3129
11
58.8692
21
-33.313
0
LINE
8
BLACK
6
CONTINUOUS
10
55.453
20
-33.363
11
55.453
21
-36.333
0
LINE
8
BLACK
6
CONTINUOUS
10
55.453
20
-36.333
11
58.843
21
-36.333
0
LINE
8
BLACK
6
CONTINUOUS
10
58.843
20
-36.333
11
58.843
21
-33.363
0
LINE
8
BLACK
6
CONTINUOUS
10
58.843
20
-33.363
11
55.453
21
-33.363
0
LINE
8
BLACK
6
CONTINUOUS
10
96.9692
20
-25.233
11
96.9692
21
-25.233
0
LINE
8
BLACK
6
CONTINUOUS
10
96.9692
20
-25.233
11
96.9729
21
-25.2334
0
LINE
8
BLACK
6
CONTINUOUS
10
96.9729
20
-25.2334
11
96.9776
21
-25.2348
0
LINE
8
BLACK
6
CONTINUOUS
10
96.9776
20
-25.2348
11
96.982
21
-25.2371
0
LINE
8
BLACK
6
CONTINUOUS
10
96.982
20
-25.2371
11
96.9858
21
-25.2402
0
LINE
8
BLACK
6
CONTINUOUS
10
96.9858
20
-25.2402
11
96.9889
21
-25.244
0
LINE
8
BLACK
6
CONTINUOUS
10
96.9889
20
-25.244
11
96.9912
21
-25.2484
0
LINE
8
BLACK
6
CONTINUOUS
10
96.9912
20
-25.2484
11
96.9926
21
-25.2531
0
LINE
8
BLACK
6
CONTINUOUS
10
96.9926
20
-25.2531
11
96.9931
21
-25.258
0
LINE
8
BLACK
6
CONTINUOUS
10
96.9931
20
-25.258
11
96.993
21
-25.2592
0
LINE
8
BLACK
6
CONTINUOUS
10
96.993
20
-25.2592
11
96.993
21
-28.3068
0
LINE
8
BLACK
6
CONTINUOUS
10
96.993
20
-28.3068
11
96.9931
21
-28.308
0
LINE
8
BLACK
6
CONTINUOUS
10
96.9931
20
-28.308
11
96.993
21
-28.3092
0
LINE
8
BLACK
6
CONTINUOUS
10
96.993
20
-28.3092
11
96.993
21
-28.3092
0
LINE
8
BLACK
6
CONTINUOUS
10
96.993
20
-28.3092
11
96.9926
21
-28.3129
0
LINE
8
BLACK
6
CONTINUOUS
10
96.9926
20
-28.3129
11
96.9912
21
-28.3176
0
LINE
8
BLACK
6
CONTINUOUS
10
96.9912
20
-28.3176
11
96.9889
21
-28.322
0
LINE
8
BLACK
6
CONTINUOUS
10
96.9889
20
-28.322
11
96.9858
21
-28.3258
0
LINE
8
BLACK
6
CONTINUOUS
10
96.9858
20
-28.3258
11
96.982
21
-28.3289
0
LINE
8
BLACK
6
CONTINUOUS
10
96.982
20
-28.3289
11
96.9776
21
-28.3312
0
LINE
8
BLACK
6
CONTINUOUS
10
96.9776
20
-28.3312
11
96.9729
21
-28.3326
0
LINE
8
BLACK
6
CONTINUOUS
10
96.9729
20
-28.3326
11
96.968
21
-28.3331
0
LINE
8
BLACK
6
CONTINUOUS
10
96.968
20
-28.3331
11
96.9668
21
-28.333
0
LINE
8
BLACK
6
CONTINUOUS
10
96.9668
20
-28.333
11
93.5292
21
-28.333
0
LINE
8
BLACK
6
CONTINUOUS
10
93.5292
20
-28.333
11
93.528
21
-28.3331
0
LINE
8
BLACK
6
CONTINUOUS
10
93.528
20
-28.3331
11
93.5231
21
-28.3326
0
LINE
8
BLACK
6
CONTINUOUS
10
93.5231
20
-28.3326
11
93.5184
21
-28.3312
0
LINE
8
BLACK
6
CONTINUOUS
10
93.5184
20
-28.3312
11
93.514
21
-28.3289
0
LINE
8
BLACK
6
CONTINUOUS
10
93.514
20
-28.3289
11
93.5102
21
-28.3258
0
LINE
8
BLACK
6
CONTINUOUS
10
93.5102
20
-28.3258
11
93.5071
21
-28.322
0
LINE
8
BLACK
6
CONTINUOUS
10
93.5071
20
-28.322
11
93.5048
21
-28.3176
0
LINE
8
BLACK
6
CONTINUOUS
10
93.5048
20
-28.3176
11
93.5034
21
-28.3129
0
LINE
8
BLACK
6
CONTINUOUS
10
93.5034
20
-28.3129
11
93.5029
21
-28.308
0
LINE
8
BLACK
6
CONTINUOUS
10
93.5029
20
-28.308
11
93.503
21
-28.3068
0
LINE
8
BLACK
6
CONTINUOUS
10
93.503
20
-28.3068
11
93.503
21
-25.2592
0
LINE
8
BLACK
6
CONTINUOUS
10
93.503
20
-25.2592
11
93.5029
21
-25.258
0
LINE
8
BLACK
6
CONTINUOUS
10
93.5029
20
-25.258
11
93.5034
21
-25.2531
0
LINE
8
BLACK
6
CONTINUOUS
10
93.5034
20
-25.2531
11
93.5048
21
-25.2484
0
LINE
8
BLACK
6
CONTINUOUS
10
93.5048
20
-25.2484
11
93.5071
21
-25.244
0
LINE
8
BLACK
6
CONTINUOUS
10
93.5071
20
-25.244
11
93.5102
21
-25.2402
0
LINE
8
BLACK
6
CONTINUOUS
10
93.5102
20
-25.2402
11
93.514
21
-25.2371
0
LINE
8
BLACK
6
CONTINUOUS
10
93.514
20
-25.2371
11
93.5184
21
-25.2348
0
LINE
8
BLACK
6
CONTINUOUS
10
93.5184
20
-25.2348
11
93.5231
21
-25.2334
0
LINE
8
BLACK
6
CONTINUOUS
10
93.5231
20
-25.2334
11
93.5268
21
-25.233
0
LINE
8
BLACK
6
CONTINUOUS
10
93.5268
20
-25.233
11
93.5268
21
-25.233
0
LINE
8
BLACK
6
CONTINUOUS
10
93.5268
20
-25.233
11
93.528
21
-25.2329
0
LINE
8
BLACK
6
CONTINUOUS
10
93.528
20
-25.2329
11
93.5292
21
-25.233
0
LINE
8
BLACK
6
CONTINUOUS
10
93.5292
20
-25.233
11
96.9668
21
-25.233
0
LINE
8
BLACK
6
CONTINUOUS
10
96.9668
20
-25.233
11
96.968
21
-25.2329
0
LINE
8
BLACK
6
CONTINUOUS
10
96.968
20
-25.2329
11
96.9692
21
-25.233
0
LINE
8
BLACK
6
CONTINUOUS
10
93.553
20
-25.283
11
93.553
21
-28.283
0
LINE
8
BLACK
6
CONTINUOUS
10
93.553
20
-28.283
11
96.943
21
-28.283
0
LINE
8
BLACK
6
CONTINUOUS
10
96.943
20
-28.283
11
96.943
21
-25.283
0
LINE
8
BLACK
6
CONTINUOUS
10
96.943
20
-25.283
11
93.553
21
-25.283
0
LINE
8
BLACK
6
CONTINUOUS
10
20.7492
20
-22.253
11
20.7492
21
-22.253
0
LINE
8
BLACK
6
CONTINUOUS
10
20.7492
20
-22.253
11
20.7529
21
-22.2534
0
LINE
8
BLACK
6
CONTINUOUS
10
20.7529
20
-22.2534
11
20.7576
21
-22.2548
0
LINE
8
BLACK
6
CONTINUOUS
10
20.7576
20
-22.2548
11
20.762
21
-22.2571
0
LINE
8
BLACK
6
CONTINUOUS
10
20.762
20
-22.2571
11
20.7658
21
-22.2602
0
LINE
8
BLACK
6
CONTINUOUS
10
20.7658
20
-22.2602
11
20.7689
21
-22.264
0
LINE
8
BLACK
6
CONTINUOUS
10
20.7689
20
-22.264
11
20.7712
21
-22.2684
0
LINE
8
BLACK
6
CONTINUOUS
10
20.7712
20
-22.2684
11
20.7726
21
-22.2731
0
LINE
8
BLACK
6
CONTINUOUS
10
20.7726
20
-22.2731
11
20.7731
21
-22.278
0
LINE
8
BLACK
6
CONTINUOUS
10
20.7731
20
-22.278
11
20.773
21
-22.2792
0
LINE
8
BLACK
6
CONTINUOUS
10
20.773
20
-22.2792
11
20.773
21
-25.3068
0
LINE
8
BLACK
6
CONTINUOUS
10
20.773
20
-25.3068
11
20.7731
21
-25.308
0
LINE
8
BLACK
6
CONTINUOUS
10
20.7731
20
-25.308
11
20.773
21
-25.3092
0
LINE
8
BLACK
6
CONTINUOUS
10
20.773
20
-25.3092
11
20.773
21
-25.3092
0
LINE
8
BLACK
6
CONTINUOUS
10
20.773
20
-25.3092
11
20.7726
21
-25.3129
0
LINE
8
BLACK
6
CONTINUOUS
10
20.7726
20
-25.3129
11
20.7712
21
-25.3176
0
LINE
8
BLACK
6
CONTINUOUS
10
20.7712
20
-25.3176
11
20.7689
21
-25.322
0
LINE
8
BLACK
6
CONTINUOUS
10
20.7689
20
-25.322
11
20.7658
21
-25.3258
0
LINE
8
BLACK
6
CONTINUOUS
10
20.7658
20
-25.3258
11
20.762
21
-25.3289
0
LINE
8
BLACK
6
CONTINUOUS
10
20.762
20
-25.3289
11
20.7576
21
-25.3312
0
LINE
8
BLACK
6
CONTINUOUS
10
20.7576
20
-25.3312
11
20.7529
21
-25.3326
0
LINE
8
BLACK
6
CONTINUOUS
10
20.7529
20
-25.3326
11
20.748
21
-25.3331
0
LINE
8
BLACK
6
CONTINUOUS
10
20.748
20
-25.3331
11
20.7468
21
-25.333
0
LINE
8
BLACK
6
CONTINUOUS
10
20.7468
20
-25.333
11
17.3492
21
-25.333
0
LINE
8
BLACK
6
CONTINUOUS
10
17.3492
20
-25.333
11
17.348
21
-25.3331
0
LINE
8
BLACK
6
CONTINUOUS
10
17.348
20
-25.3331
11
17.3431
21
-25.3326
0
LINE
8
BLACK
6
CONTINUOUS
10
17.3431
20
-25.3326
11
17.3384
21
-25.3312
0
LINE
8
BLACK
6
CONTINUOUS
10
17.3384
20
-25.3312
11
17.334
21
-25.3289
0
LINE
8
BLACK
6
CONTINUOUS
10
17.334
20
-25.3289
11
17.3302
21
-25.3258
0
LINE
8
BLACK
6
CONTINUOUS
10
17.3302
20
-25.3258
11
17.3271
21
-25.322
0
LINE
8
BLACK
6
CONTINUOUS
10
17.3271
20
-25.322
11
17.3248
21
-25.3176
0
LINE
8
BLACK
6
CONTINUOUS
10
17.3248
20
-25.3176
11
17.3234
21
-25.3129
0
LINE
8
BLACK
6
CONTINUOUS
10
17.3234
20
-25.3129
11
17.3229
21
-25.308
0
LINE
8
BLACK
6
CONTINUOUS
10
17.3229
20
-25.308
11
17.323
21
-25.3068
0
LINE
8
BLACK
6
CONTINUOUS
10
17.323
20
-25.3068
11
17.323
21
-22.2792
0
LINE
8
BLACK
6
CONTINUOUS
10
17.323
20
-22.2792
11
17.3229
21
-22.278
0
LINE
8
BLACK
6
CONTINUOUS
10
17.3229
20
-22.278
11
17.3234
21
-22.2731
0
LINE
8
BLACK
6
CONTINUOUS
10
17.3234
20
-22.2731
11
17.3248
21
-22.2684
0
LINE
8
BLACK
6
CONTINUOUS
10
17.3248
20
-22.2684
11
17.3271
21
-22.264
0
LINE
8
BLACK
6
CONTINUOUS
10
17.3271
20
-22.264
11
17.3302
21
-22.2602
0
LINE
8
BLACK
6
CONTINUOUS
10
17.3302
20
-22.2602
11
17.334
21
-22.2571
0
LINE
8
BLACK
6
CONTINUOUS
10
17.334
20
-22.2571
11
17.3384
21
-22.2548
0
LINE
8
BLACK
6
CONTINUOUS
10
17.3384
20
-22.2548
11
17.3431
21
-22.2534
0
LINE
8
BLACK
6
CONTINUOUS
10
17.3431
20
-22.2534
11
17.3468
21
-22.253
0
LINE
8
BLACK
6
CONTINUOUS
10
17.3468
20
-22.253
11
17.3468
21
-22.253
0
LINE
8
BLACK
6
CONTINUOUS
10
17.3468
20
-22.253
11
17.348
21
-22.2529
0
LINE
8
BLACK
6
CONTINUOUS
10
17.348
20
-22.2529
11
17.3492
21
-22.253
0
LINE
8
BLACK
6
CONTINUOUS
10
17.3492
20
-22.253
11
20.7468
21
-22.253
0
LINE
8
BLACK
6
CONTINUOUS
10
20.7468
20
-22.253
11
20.748
21
-22.2529
0
LINE
8
BLACK
6
CONTINUOUS
10
20.748
20
-22.2529
11
20.7492
21
-22.253
0
LINE
8
BLACK
6
CONTINUOUS
10
17.373
20
-22.303
11
17.373
21
-25.283
0
LINE
8
BLACK
6
CONTINUOUS
10
17.373
20
-25.283
11
20.723
21
-25.283
0
LINE
8
BLACK
6
CONTINUOUS
10
20.723
20
-25.283
11
20.723
21
-22.303
0
LINE
8
BLACK
6
CONTINUOUS
10
20.723
20
-22.303
11
17.373
21
-22.303
0
LINE
8
BLACK
6
CONTINUOUS
10
1.69922
20
-22.263
11
1.69922
21
-22.263
0
LINE
8
BLACK
6
CONTINUOUS
10
1.69922
20
-22.263
11
1.7029
21
-22.2634
0
LINE
8
BLACK
6
CONTINUOUS
10
1.7029
20
-22.2634
11
1.70761
21
-22.2648
0
LINE
8
BLACK
6
CONTINUOUS
10
1.70761
20
-22.2648
11
1.71196
21
-22.2671
0
LINE
8
BLACK
6
CONTINUOUS
10
1.71196
20
-22.2671
11
1.71576
21
-22.2702
0
LINE
8
BLACK
6
CONTINUOUS
10
1.71576
20
-22.2702
11
1.71889
21
-22.274
0
LINE
8
BLACK
6
CONTINUOUS
10
1.71889
20
-22.274
11
1.72121
21
-22.2784
0
LINE
8
BLACK
6
CONTINUOUS
10
1.72121
20
-22.2784
11
1.72264
21
-22.2831
0
LINE
8
BLACK
6
CONTINUOUS
10
1.72264
20
-22.2831
11
1.72312
21
-22.288
0
LINE
8
BLACK
6
CONTINUOUS
10
1.72312
20
-22.288
11
1.723
21
-22.2892
0
LINE
8
BLACK
6
CONTINUOUS
10
1.723
20
-22.2892
11
1.723
21
-25.2768
0
LINE
8
BLACK
6
CONTINUOUS
10
1.723
20
-25.2768
11
1.72312
21
-25.278
0
LINE
8
BLACK
6
CONTINUOUS
10
1.72312
20
-25.278
11
1.723
21
-25.2792
0
LINE
8
BLACK
6
CONTINUOUS
10
1.723
20
-25.2792
11
1.723
21
-25.2792
0
LINE
8
BLACK
6
CONTINUOUS
10
1.723
20
-25.2792
11
1.72264
21
-25.2829
0
LINE
8
BLACK
6
CONTINUOUS
10
1.72264
20
-25.2829
11
1.72121
21
-25.2876
0
LINE
8
BLACK
6
CONTINUOUS
10
1.72121
20
-25.2876
11
1.71889
21
-25.292
0
LINE
8
BLACK
6
CONTINUOUS
10
1.71889
20
-25.292
11
1.71576
21
-25.2958
0
LINE
8
BLACK
6
CONTINUOUS
10
1.71576
20
-25.2958
11
1.71196
21
-25.2989
0
LINE
8
BLACK
6
CONTINUOUS
10
1.71196
20
-25.2989
11
1.70761
21
-25.3012
0
LINE
8
BLACK
6
CONTINUOUS
10
1.70761
20
-25.3012
11
1.7029
21
-25.3026
0
LINE
8
BLACK
6
CONTINUOUS
10
1.7029
20
-25.3026
11
1.698
21
-25.3031
0
LINE
8
BLACK
6
CONTINUOUS
10
1.698
20
-25.3031
11
1.69678
21
-25.303
0
LINE
8
BLACK
6
CONTINUOUS
10
1.69678
20
-25.303
11
-1.71078
21
-25.303
0
LINE
8
BLACK
6
CONTINUOUS
10
-1.71078
20
-25.303
11
-1.712
21
-25.3031
0
LINE
8
BLACK
6
CONTINUOUS
10
-1.712
20
-25.3031
11
-1.7169
21
-25.3026
0
LINE
8
BLACK
6
CONTINUOUS
10
-1.7169
20
-25.3026
11
-1.72161
21
-25.3012
0
LINE
8
BLACK
6
CONTINUOUS
10
-1.72161
20
-25.3012
11
-1.72596
21
-25.2989
0
LINE
8
BLACK
6
CONTINUOUS
10
-1.72596
20
-25.2989
11
-1.72976
21
-25.2958
0
LINE
8
BLACK
6
CONTINUOUS
10
-1.72976
20
-25.2958
11
-1.73289
21
-25.292
0
LINE
8
BLACK
6
CONTINUOUS
10
-1.73289
20
-25.292
11
-1.73521
21
-25.2876
0
LINE
8
BLACK
6
CONTINUOUS
10
-1.73521
20
-25.2876
11
-1.73664
21
-25.2829
0
LINE
8
BLACK
6
CONTINUOUS
10
-1.73664
20
-25.2829
11
-1.73712
21
-25.278
0
LINE
8
BLACK
6
CONTINUOUS
10
-1.73712
20
-25.278
11
-1.737
21
-25.2768
0
LINE
8
BLACK
6
CONTINUOUS
10
-1.737
20
-25.2768
11
-1.737
21
-22.2892
0
LINE
8
BLACK
6
CONTINUOUS
10
-1.737
20
-22.2892
11
-1.73712
21
-22.288
0
LINE
8
BLACK
6
CONTINUOUS
10
-1.73712
20
-22.288
11
-1.73664
21
-22.2831
0
LINE
8
BLACK
6
CONTINUOUS
10
-1.73664
20
-22.2831
11
-1.73521
21
-22.2784
0
LINE
8
BLACK
6
CONTINUOUS
10
-1.73521
20
-22.2784
11
-1.73289
21
-22.274
0
LINE
8
BLACK
6
CONTINUOUS
10
-1.73289
20
-22.274
11
-1.72976
21
-22.2702
0
LINE
8
BLACK
6
CONTINUOUS
10
-1.72976
20
-22.2702
11
-1.72596
21
-22.2671
0
LINE
8
BLACK
6
CONTINUOUS
10
-1.72596
20
-22.2671
11
-1.72161
21
-22.2648
0
LINE
8
BLACK
6
CONTINUOUS
10
-1.72161
20
-22.2648
11
-1.7169
21
-22.2634
0
LINE
8
BLACK
6
CONTINUOUS
10
-1.7169
20
-22.2634
11
-1.71322
21
-22.263
0
LINE
8
BLACK
6
CONTINUOUS
10
-1.71322
20
-22.263
11
-1.71322
21
-22.263
0
LINE
8
BLACK
6
CONTINUOUS
10
-1.71322
20
-22.263
11
-1.712
21
-22.2629
0
LINE
8
BLACK
6
CONTINUOUS
10
-1.712
20
-22.2629
11
-1.71078
21
-22.263
0
LINE
8
BLACK
6
CONTINUOUS
10
-1.71078
20
-22.263
11
1.69678
21
-22.263
0
LINE
8
BLACK
6
CONTINUOUS
10
1.69678
20
-22.263
11
1.698
21
-22.2629
0
LINE
8
BLACK
6
CONTINUOUS
10
1.698
20
-22.2629
11
1.69922
21
-22.263
0
LINE
8
BLACK
6
CONTINUOUS
10
-1.687
20
-22.313
11
-1.687
21
-25.253
0
LINE
8
BLACK
6
CONTINUOUS
10
-1.687
20
-25.253
11
1.673
21
-25.253
0
LINE
8
BLACK
6
CONTINUOUS
10
1.673
20
-25.253
11
1.673
21
-22.313
0
LINE
8
BLACK
6
CONTINUOUS
10
1.673
20
-22.313
11
-1.687
21
-22.313
0
LINE
8
BLACK
6
CONTINUOUS
10
77.9092
20
-20.253
11
77.9092
21
-20.253
0
LINE
8
BLACK
6
CONTINUOUS
10
77.9092
20
-20.253
11
77.9129
21
-20.2534
0
LINE
8
BLACK
6
CONTINUOUS
10
77.9129
20
-20.2534
11
77.9176
21
-20.2548
0
LINE
8
BLACK
6
CONTINUOUS
10
77.9176
20
-20.2548
11
77.922
21
-20.2571
0
LINE
8
BLACK
6
CONTINUOUS
10
77.922
20
-20.2571
11
77.9258
21
-20.2602
0
LINE
8
BLACK
6
CONTINUOUS
10
77.9258
20
-20.2602
11
77.9289
21
-20.264
0
LINE
8
BLACK
6
CONTINUOUS
10
77.9289
20
-20.264
11
77.9312
21
-20.2684
0
LINE
8
BLACK
6
CONTINUOUS
10
77.9312
20
-20.2684
11
77.9326
21
-20.2731
0
LINE
8
BLACK
6
CONTINUOUS
10
77.9326
20
-20.2731
11
77.9331
21
-20.278
0
LINE
8
BLACK
6
CONTINUOUS
10
77.9331
20
-20.278
11
77.933
21
-20.2792
0
LINE
8
BLACK
6
CONTINUOUS
10
77.933
20
-20.2792
11
77.933
21
-23.3068
0
LINE
8
BLACK
6
CONTINUOUS
10
77.933
20
-23.3068
11
77.9331
21
-23.308
0
LINE
8
BLACK
6
CONTINUOUS
10
77.9331
20
-23.308
11
77.933
21
-23.3092
0
LINE
8
BLACK
6
CONTINUOUS
10
77.933
20
-23.3092
11
77.933
21
-23.3092
0
LINE
8
BLACK
6
CONTINUOUS
10
77.933
20
-23.3092
11
77.9326
21
-23.3129
0
LINE
8
BLACK
6
CONTINUOUS
10
77.9326
20
-23.3129
11
77.9312
21
-23.3176
0
LINE
8
BLACK
6
CONTINUOUS
10
77.9312
20
-23.3176
11
77.9289
21
-23.322
0
LINE
8
BLACK
6
CONTINUOUS
10
77.9289
20
-23.322
11
77.9258
21
-23.3258
0
LINE
8
BLACK
6
CONTINUOUS
10
77.9258
20
-23.3258
11
77.922
21
-23.3289
0
LINE
8
BLACK
6
CONTINUOUS
10
77.922
20
-23.3289
11
77.9176
21
-23.3312
0
LINE
8
BLACK
6
CONTINUOUS
10
77.9176
20
-23.3312
11
77.9129
21
-23.3326
0
LINE
8
BLACK
6
CONTINUOUS
10
77.9129
20
-23.3326
11
77.908
21
-23.3331
0
LINE
8
BLACK
6
CONTINUOUS
10
77.908
20
-23.3331
11
77.9068
21
-23.333
0
LINE
8
BLACK
6
CONTINUOUS
10
77.9068
20
-23.333
11
74.4892
21
-23.333
0
LINE
8
BLACK
6
CONTINUOUS
10
74.4892
20
-23.333
11
74.488
21
-23.3331
0
LINE
8
BLACK
6
CONTINUOUS
10
74.488
20
-23.3331
11
74.4831
21
-23.3326
0
LINE
8
BLACK
6
CONTINUOUS
10
74.4831
20
-23.3326
11
74.4784
21
-23.3312
0
LINE
8
BLACK
6
CONTINUOUS
10
74.4784
20
-23.3312
11
74.474
21
-23.3289
0
LINE
8
BLACK
6
CONTINUOUS
10
74.474
20
-23.3289
11
74.4702
21
-23.3258
0
LINE
8
BLACK
6
CONTINUOUS
10
74.4702
20
-23.3258
11
74.4671
21
-23.322
0
LINE
8
BLACK
6
CONTINUOUS
10
74.4671
20
-23.322
11
74.4648
21
-23.3176
0
LINE
8
BLACK
6
CONTINUOUS
10
74.4648
20
-23.3176
11
74.4634
21
-23.3129
0
LINE
8
BLACK
6
CONTINUOUS
10
74.4634
20
-23.3129
11
74.4629
21
-23.308
0
LINE
8
BLACK
6
CONTINUOUS
10
74.4629
20
-23.308
11
74.463
21
-23.3068
0
LINE
8
BLACK
6
CONTINUOUS
10
74.463
20
-23.3068
11
74.463
21
-20.2792
0
LINE
8
BLACK
6
CONTINUOUS
10
74.463
20
-20.2792
11
74.4629
21
-20.278
0
LINE
8
BLACK
6
CONTINUOUS
10
74.4629
20
-20.278
11
74.4634
21
-20.2731
0
LINE
8
BLACK
6
CONTINUOUS
10
74.4634
20
-20.2731
11
74.4648
21
-20.2684
0
LINE
8
BLACK
6
CONTINUOUS
10
74.4648
20
-20.2684
11
74.4671
21
-20.264
0
LINE
8
BLACK
6
CONTINUOUS
10
74.4671
20
-20.264
11
74.4702
21
-20.2602
0
LINE
8
BLACK
6
CONTINUOUS
10
74.4702
20
-20.2602
11
74.474
21
-20.2571
0
LINE
8
BLACK
6
CONTINUOUS
10
74.474
20
-20.2571
11
74.4784
21
-20.2548
0
LINE
8
BLACK
6
CONTINUOUS
10
74.4784
20
-20.2548
11
74.4831
21
-20.2534
0
LINE
8
BLACK
6
CONTINUOUS
10
74.4831
20
-20.2534
11
74.4868
21
-20.253
0
LINE
8
BLACK
6
CONTINUOUS
10
74.4868
20
-20.253
11
74.4868
21
-20.253
0
LINE
8
BLACK
6
CONTINUOUS
10
74.4868
20
-20.253
11
74.488
21
-20.2529
0
LINE
8
BLACK
6
CONTINUOUS
10
74.488
20
-20.2529
11
74.4892
21
-20.253
0
LINE
8
BLACK
6
CONTINUOUS
10
74.4892
20
-20.253
11
77.9068
21
-20.253
0
LINE
8
BLACK
6
CONTINUOUS
10
77.9068
20
-20.253
11
77.908
21
-20.2529
0
LINE
8
BLACK
6
CONTINUOUS
10
77.908
20
-20.2529
11
77.9092
21
-20.253
0
LINE
8
BLACK
6
CONTINUOUS
10
74.513
20
-20.303
11
74.513
21
-23.283
0
LINE
8
BLACK
6
CONTINUOUS
10
74.513
20
-23.283
11
77.883
21
-23.283
0
LINE
8
BLACK
6
CONTINUOUS
10
77.883
20
-23.283
11
77.883
21
-20.303
0
LINE
8
BLACK
6
CONTINUOUS
10
77.883
20
-20.303
11
74.513
21
-20.303
0
LINE
8
BLACK
6
CONTINUOUS
10
39.8192
20
-19.253
11
39.8192
21
-19.253
0
LINE
8
BLACK
6
CONTINUOUS
10
39.8192
20
-19.253
11
39.8229
21
-19.2534
0
LINE
8
BLACK
6
CONTINUOUS
10
39.8229
20
-19.2534
11
39.8276
21
-19.2548
0
LINE
8
BLACK
6
CONTINUOUS
10
39.8276
20
-19.2548
11
39.832
21
-19.2571
0
LINE
8
BLACK
6
CONTINUOUS
10
39.832
20
-19.2571
11
39.8358
21
-19.2602
0
LINE
8
BLACK
6
CONTINUOUS
10
39.8358
20
-19.2602
11
39.8389
21
-19.264
0
LINE
8
BLACK
6
CONTINUOUS
10
39.8389
20
-19.264
11
39.8412
21
-19.2684
0
LINE
8
BLACK
6
CONTINUOUS
10
39.8412
20
-19.2684
11
39.8426
21
-19.2731
0
LINE
8
BLACK
6
CONTINUOUS
10
39.8426
20
-19.2731
11
39.8431
21
-19.278
0
LINE
8
BLACK
6
CONTINUOUS
10
39.8431
20
-19.278
11
39.843
21
-19.2792
0
LINE
8
BLACK
6
CONTINUOUS
10
39.843
20
-19.2792
11
39.843
21
-22.3068
0
LINE
8
BLACK
6
CONTINUOUS
10
39.843
20
-22.3068
11
39.8431
21
-22.308
0
LINE
8
BLACK
6
CONTINUOUS
10
39.8431
20
-22.308
11
39.843
21
-22.3092
0
LINE
8
BLACK
6
CONTINUOUS
10
39.843
20
-22.3092
11
39.843
21
-22.3092
0
LINE
8
BLACK
6
CONTINUOUS
10
39.843
20
-22.3092
11
39.8426
21
-22.3129
0
LINE
8
BLACK
6
CONTINUOUS
10
39.8426
20
-22.3129
11
39.8412
21
-22.3176
0
LINE
8
BLACK
6
CONTINUOUS
10
39.8412
20
-22.3176
11
39.8389
21
-22.322
0
LINE
8
BLACK
6
CONTINUOUS
10
39.8389
20
-22.322
11
39.8358
21
-22.3258
0
LINE
8
BLACK
6
CONTINUOUS
10
39.8358
20
-22.3258
11
39.832
21
-22.3289
0
LINE
8
BLACK
6
CONTINUOUS
10
39.832
20
-22.3289
11
39.8276
21
-22.3312
0
LINE
8
BLACK
6
CONTINUOUS
10
39.8276
20
-22.3312
11
39.8229
21
-22.3326
0
LINE
8
BLACK
6
CONTINUOUS
10
39.8229
20
-22.3326
11
39.818
21
-22.3331
0
LINE
8
BLACK
6
CONTINUOUS
10
39.818
20
-22.3331
11
39.8168
21
-22.333
0
LINE
8
BLACK
6
CONTINUOUS
10
39.8168
20
-22.333
11
36.3892
21
-22.333
0
LINE
8
BLACK
6
CONTINUOUS
10
36.3892
20
-22.333
11
36.388
21
-22.3331
0
LINE
8
BLACK
6
CONTINUOUS
10
36.388
20
-22.3331
11
36.3831
21
-22.3326
0
LINE
8
BLACK
6
CONTINUOUS
10
36.3831
20
-22.3326
11
36.3784
21
-22.3312
0
LINE
8
BLACK
6
CONTINUOUS
10
36.3784
20
-22.3312
11
36.374
21
-22.3289
0
LINE
8
BLACK
6
CONTINUOUS
10
36.374
20
-22.3289
11
36.3702
21
-22.3258
0
LINE
8
BLACK
6
CONTINUOUS
10
36.3702
20
-22.3258
11
36.3671
21
-22.322
0
LINE
8
BLACK
6
CONTINUOUS
10
36.3671
20
-22.322
11
36.3648
21
-22.3176
0
LINE
8
BLACK
6
CONTINUOUS
10
36.3648
20
-22.3176
11
36.3634
21
-22.3129
0
LINE
8
BLACK
6
CONTINUOUS
10
36.3634
20
-22.3129
11
36.3629
21
-22.308
0
LINE
8
BLACK
6
CONTINUOUS
10
36.3629
20
-22.308
11
36.363
21
-22.3068
0
LINE
8
BLACK
6
CONTINUOUS
10
36.363
20
-22.3068
11
36.363
21
-19.2792
0
LINE
8
BLACK
6
CONTINUOUS
10
36.363
20
-19.2792
11
36.3629
21
-19.278
0
LINE
8
BLACK
6
CONTINUOUS
10
36.3629
20
-19.278
11
36.3634
21
-19.2731
0
LINE
8
BLACK
6
CONTINUOUS
10
36.3634
20
-19.2731
11
36.3648
21
-19.2684
0
LINE
8
BLACK
6
CONTINUOUS
10
36.3648
20
-19.2684
11
36.3671
21
-19.264
0
LINE
8
BLACK
6
CONTINUOUS
10
36.3671
20
-19.264
11
36.3702
21
-19.2602
0
LINE
8
BLACK
6
CONTINUOUS
10
36.3702
20
-19.2602
11
36.374
21
-19.2571
0
LINE
8
BLACK
6
CONTINUOUS
10
36.374
20
-19.2571
11
36.3784
21
-19.2548
0
LINE
8
BLACK
6
CONTINUOUS
10
36.3784
20
-19.2548
11
36.3831
21
-19.2534
0
LINE
8
BLACK
6
CONTINUOUS
10
36.3831
20
-19.2534
11
36.3868
21
-19.253
0
LINE
8
BLACK
6
CONTINUOUS
10
36.3868
20
-19.253
11
36.3868
21
-19.253
0
LINE
8
BLACK
6
CONTINUOUS
10
36.3868
20
-19.253
11
36.388
21
-19.2529
0
LINE
8
BLACK
6
CONTINUOUS
10
36.388
20
-19.2529
11
36.3892
21
-19.253
0
LINE
8
BLACK
6
CONTINUOUS
10
36.3892
20
-19.253
11
39.8168
21
-19.253
0
LINE
8
BLACK
6
CONTINUOUS
10
39.8168
20
-19.253
11
39.818
21
-19.2529
0
LINE
8
BLACK
6
CONTINUOUS
10
39.818
20
-19.2529
11
39.8192
21
-19.253
0
LINE
8
BLACK
6
CONTINUOUS
10
36.413
20
-19.303
11
36.413
21
-22.283
0
LINE
8
BLACK
6
CONTINUOUS
10
36.413
20
-22.283
11
39.793
21
-22.283
0
LINE
8
BLACK
6
CONTINUOUS
10
39.793
20
-22.283
11
39.793
21
-19.303
0
LINE
8
BLACK
6
CONTINUOUS
10
39.793
20
-19.303
11
36.413
21
-19.303
0
LINE
8
BLACK
6
CONTINUOUS
10
58.8592
20
-14.243
11
58.8592
21
-14.243
0
LINE
8
BLACK
6
CONTINUOUS
10
58.8592
20
-14.243
11
58.8629
21
-14.2434
0
LINE
8
BLACK
6
CONTINUOUS
10
58.8629
20
-14.2434
11
58.8676
21
-14.2448
0
LINE
8
BLACK
6
CONTINUOUS
10
58.8676
20
-14.2448
11
58.872
21
-14.2471
0
LINE
8
BLACK
6
CONTINUOUS
10
58.872
20
-14.2471
11
58.8758
21
-14.2502
0
LINE
8
BLACK
6
CONTINUOUS
10
58.8758
20
-14.2502
11
58.8789
21
-14.254
0
LINE
8
BLACK
6
CONTINUOUS
10
58.8789
20
-14.254
11
58.8812
21
-14.2584
0
LINE
8
BLACK
6
CONTINUOUS
10
58.8812
20
-14.2584
11
58.8826
21
-14.2631
0
LINE
8
BLACK
6
CONTINUOUS
10
58.8826
20
-14.2631
11
58.8831
21
-14.268
0
LINE
8
BLACK
6
CONTINUOUS
10
58.8831
20
-14.268
11
58.883
21
-14.2692
0
LINE
8
BLACK
6
CONTINUOUS
10
58.883
20
-14.2692
11
58.883
21
-17.3068
0
LINE
8
BLACK
6
CONTINUOUS
10
58.883
20
-17.3068
11
58.8831
21
-17.308
0
LINE
8
BLACK
6
CONTINUOUS
10
58.8831
20
-17.308
11
58.883
21
-17.3092
0
LINE
8
BLACK
6
CONTINUOUS
10
58.883
20
-17.3092
11
58.883
21
-17.3092
0
LINE
8
BLACK
6
CONTINUOUS
10
58.883
20
-17.3092
11
58.8826
21
-17.3129
0
LINE
8
BLACK
6
CONTINUOUS
10
58.8826
20
-17.3129
11
58.8812
21
-17.3176
0
LINE
8
BLACK
6
CONTINUOUS
10
58.8812
20
-17.3176
11
58.8789
21
-17.322
0
LINE
8
BLACK
6
CONTINUOUS
10
58.8789
20
-17.322
11
58.8758
21
-17.3258
0
LINE
8
BLACK
6
CONTINUOUS
10
58.8758
20
-17.3258
11
58.872
21
-17.3289
0
LINE
8
BLACK
6
CONTINUOUS
10
58.872
20
-17.3289
11
58.8676
21
-17.3312
0
LINE
8
BLACK
6
CONTINUOUS
10
58.8676
20
-17.3312
11
58.8629
21
-17.3326
0
LINE
8
BLACK
6
CONTINUOUS
10
58.8629
20
-17.3326
11
58.858
21
-17.3331
0
LINE
8
BLACK
6
CONTINUOUS
10
58.858
20
-17.3331
11
58.8568
21
-17.333
0
LINE
8
BLACK
6
CONTINUOUS
10
58.8568
20
-17.333
11
55.4392
21
-17.333
0
LINE
8
BLACK
6
CONTINUOUS
10
55.4392
20
-17.333
11
55.438
21
-17.3331
0
LINE
8
BLACK
6
CONTINUOUS
10
55.438
20
-17.3331
11
55.4331
21
-17.3326
0
LINE
8
BLACK
6
CONTINUOUS
10
55.4331
20
-17.3326
11
55.4284
21
-17.3312
0
LINE
8
BLACK
6
CONTINUOUS
10
55.4284
20
-17.3312
11
55.424
21
-17.3289
0
LINE
8
BLACK
6
CONTINUOUS
10
55.424
20
-17.3289
11
55.4202
21
-17.3258
0
LINE
8
BLACK
6
CONTINUOUS
10
55.4202
20
-17.3258
11
55.4171
21
-17.322
0
LINE
8
BLACK
6
CONTINUOUS
10
55.4171
20
-17.322
11
55.4148
21
-17.3176
0
LINE
8
BLACK
6
CONTINUOUS
10
55.4148
20
-17.3176
11
55.4134
21
-17.3129
0
LINE
8
BLACK
6
CONTINUOUS
10
55.4134
20
-17.3129
11
55.4129
21
-17.308
0
LINE
8
BLACK
6
CONTINUOUS
10
55.4129
20
-17.308
11
55.413
21
-17.3068
0
LINE
8
BLACK
6
CONTINUOUS
10
55.413
20
-17.3068
11
55.413
21
-14.2692
0
LINE
8
BLACK
6
CONTINUOUS
10
55.413
20
-14.2692
11
55.4129
21
-14.268
0
LINE
8
BLACK
6
CONTINUOUS
10
55.4129
20
-14.268
11
55.4134
21
-14.2631
0
LINE
8
BLACK
6
CONTINUOUS
10
55.4134
20
-14.2631
11
55.4148
21
-14.2584
0
LINE
8
BLACK
6
CONTINUOUS
10
55.4148
20
-14.2584
11
55.4171
21
-14.254
0
LINE
8
BLACK
6
CONTINUOUS
10
55.4171
20
-14.254
11
55.4202
21
-14.2502
0
LINE
8
BLACK
6
CONTINUOUS
10
55.4202
20
-14.2502
11
55.424
21
-14.2471
0
LINE
8
BLACK
6
CONTINUOUS
10
55.424
20
-14.2471
11
55.4284
21
-14.2448
0
LINE
8
BLACK
6
CONTINUOUS
10
55.4284
20
-14.2448
11
55.4331
21
-14.2434
0
LINE
8
BLACK
6
CONTINUOUS
10
55.4331
20
-14.2434
11
55.4368
21
-14.243
0
LINE
8
BLACK
6
CONTINUOUS
10
55.4368
20
-14.243
11
55.4368
21
-14.243
0
LINE
8
BLACK
6
CONTINUOUS
10
55.4368
20
-14.243
11
55.438
21
-14.2429
0
LINE
8
BLACK
6
CONTINUOUS
10
55.438
20
-14.2429
11
55.4392
21
-14.243
0
LINE
8
BLACK
6
CONTINUOUS
10
55.4392
20
-14.243
11
58.8568
21
-14.243
0
LINE
8
BLACK
6
CONTINUOUS
10
58.8568
20
-14.243
11
58.858
21
-14.2429
0
LINE
8
BLACK
6
CONTINUOUS
10
58.858
20
-14.2429
11
58.8592
21
-14.243
0
LINE
8
BLACK
6
CONTINUOUS
10
55.463
20
-14.293
11
55.463
21
-17.283
0
LINE
8
BLACK
6
CONTINUOUS
10
55.463
20
-17.283
11
58.833
21
-17.283
0
LINE
8
BLACK
6
CONTINUOUS
10
58.833
20
-17.283
11
58.833
21
-14.293
0
LINE
8
BLACK
6
CONTINUOUS
10
58.833
20
-14.293
11
55.463
21
-14.293
0
LINE
8
BLACK
6
CONTINUOUS
10
96.9592
20
-6.203
11
96.9592
21
-6.203
0
LINE
8
BLACK
6
CONTINUOUS
10
96.9592
20
-6.203
11
96.9629
21
-6.20336
0
LINE
8
BLACK
6
CONTINUOUS
10
96.9629
20
-6.20336
11
96.9676
21
-6.20479
0
LINE
8
BLACK
6
CONTINUOUS
10
96.9676
20
-6.20479
11
96.972
21
-6.20711
0
LINE
8
BLACK
6
CONTINUOUS
10
96.972
20
-6.20711
11
96.9758
21
-6.21024
0
LINE
8
BLACK
6
CONTINUOUS
10
96.9758
20
-6.21024
11
96.9789
21
-6.21404
0
LINE
8
BLACK
6
CONTINUOUS
10
96.9789
20
-6.21404
11
96.9812
21
-6.21839
0
LINE
8
BLACK
6
CONTINUOUS
10
96.9812
20
-6.21839
11
96.9826
21
-6.2231
0
LINE
8
BLACK
6
CONTINUOUS
10
96.9826
20
-6.2231
11
96.9831
21
-6.228
0
LINE
8
BLACK
6
CONTINUOUS
10
96.9831
20
-6.228
11
96.983
21
-6.22922
0
LINE
8
BLACK
6
CONTINUOUS
10
96.983
20
-6.22922
11
96.983
21
-9.25678
0
LINE
8
BLACK
6
CONTINUOUS
10
96.983
20
-9.25678
11
96.9831
21
-9.258
0
LINE
8
BLACK
6
CONTINUOUS
10
96.9831
20
-9.258
11
96.983
21
-9.25922
0
LINE
8
BLACK
6
CONTINUOUS
10
96.983
20
-9.25922
11
96.983
21
-9.25922
0
LINE
8
BLACK
6
CONTINUOUS
10
96.983
20
-9.25922
11
96.9826
21
-9.2629
0
LINE
8
BLACK
6
CONTINUOUS
10
96.9826
20
-9.2629
11
96.9812
21
-9.26761
0
LINE
8
BLACK
6
CONTINUOUS
10
96.9812
20
-9.26761
11
96.9789
21
-9.27196
0
LINE
8
BLACK
6
CONTINUOUS
10
96.9789
20
-9.27196
11
96.9758
21
-9.27576
0
LINE
8
BLACK
6
CONTINUOUS
10
96.9758
20
-9.27576
11
96.972
21
-9.27889
0
LINE
8
BLACK
6
CONTINUOUS
10
96.972
20
-9.27889
11
96.9676
21
-9.28121
0
LINE
8
BLACK
6
CONTINUOUS
10
96.9676
20
-9.28121
11
96.9629
21
-9.28264
0
LINE
8
BLACK
6
CONTINUOUS
10
96.9629
20
-9.28264
11
96.958
21
-9.28312
0
LINE
8
BLACK
6
CONTINUOUS
10
96.958
20
-9.28312
11
96.9568
21
-9.283
0
LINE
8
BLACK
6
CONTINUOUS
10
96.9568
20
-9.283
11
93.5292
21
-9.283
0
LINE
8
BLACK
6
CONTINUOUS
10
93.5292
20
-9.283
11
93.528
21
-9.28312
0
LINE
8
BLACK
6
CONTINUOUS
10
93.528
20
-9.28312
11
93.5231
21
-9.28264
0
LINE
8
BLACK
6
CONTINUOUS
10
93.5231
20
-9.28264
11
93.5184
21
-9.28121
0
LINE
8
BLACK
6
CONTINUOUS
10
93.5184
20
-9.28121
11
93.514
21
-9.27889
0
LINE
8
BLACK
6
CONTINUOUS
10
93.514
20
-9.27889
11
93.5102
21
-9.27576
0
LINE
8
BLACK
6
CONTINUOUS
10
93.5102
20
-9.27576
11
93.5071
21
-9.27196
0
LINE
8
BLACK
6
CONTINUOUS
10
93.5071
20
-9.27196
11
93.5048
21
-9.26761
0
LINE
8
BLACK
6
CONTINUOUS
10
93.5048
20
-9.26761
11
93.5034
21
-9.2629
0
LINE
8
BLACK
6
CONTINUOUS
10
93.5034
20
-9.2629
11
93.5029
21
-9.258
0
LINE
8
BLACK
6
CONTINUOUS
10
93.5029
20
-9.258
11
93.503
21
-9.25678
0
LINE
8
BLACK
6
CONTINUOUS
10
93.503
20
-9.25678
11
93.503
21
-6.22923
0
LINE
8
BLACK
6
CONTINUOUS
10
93.503
20
-6.22923
11
93.5029
21
-6.228
0
LINE
8
BLACK
6
CONTINUOUS
10
93.5029
20
-6.228
11
93.5034
21
-6.2231
0
LINE
8
BLACK
6
CONTINUOUS
10
93.5034
20
-6.2231
11
93.5048
21
-6.21839
0
LINE
8
BLACK
6
CONTINUOUS
10
93.5048
20
-6.21839
11
93.5071
21
-6.21404
0
LINE
8
BLACK
6
CONTINUOUS
10
93.5071
20
-6.21404
11
93.5102
21
-6.21024
0
LINE
8
BLACK
6
CONTINUOUS
10
93.5102
20
-6.21024
11
93.514
21
-6.20711
0
LINE
8
BLACK
6
CONTINUOUS
10
93.514
20
-6.20711
11
93.5184
21
-6.20479
0
LINE
8
BLACK
6
CONTINUOUS
10
93.5184
20
-6.20479
11
93.5231
21
-6.20336
0
LINE
8
BLACK
6
CONTINUOUS
10
93.5231
20
-6.20336
11
93.5268
21
-6.203
0
LINE
8
BLACK
6
CONTINUOUS
10
93.5268
20
-6.203
11
93.5268
21
-6.203
0
LINE
8
BLACK
6
CONTINUOUS
10
93.5268
20
-6.203
11
93.528
21
-6.20288
0
LINE
8
BLACK
6
CONTINUOUS
10
93.528
20
-6.20288
11
93.5292
21
-6.203
0
LINE
8
BLACK
6
CONTINUOUS
10
93.5292
20
-6.203
11
96.9568
21
-6.203
0
LINE
8
BLACK
6
CONTINUOUS
10
96.9568
20
-6.203
11
96.958
21
-6.20288
0
LINE
8
BLACK
6
CONTINUOUS
10
96.958
20
-6.20288
11
96.9592
21
-6.203
0
LINE
8
BLACK
6
CONTINUOUS
10
93.553
20
-6.253
11
93.553
21
-9.233
0
LINE
8
BLACK
6
CONTINUOUS
10
93.553
20
-9.233
11
96.933
21
-9.233
0
LINE
8
BLACK
6
CONTINUOUS
10
96.933
20
-9.233
11
96.933
21
-6.253
0
LINE
8
BLACK
6
CONTINUOUS
10
96.933
20
-6.253
11
93.553
21
-6.253
0
LINE
8
BLACK
6
CONTINUOUS
10
1.69922
20
-3.233
11
1.69922
21
-3.233
0
LINE
8
BLACK
6
CONTINUOUS
10
1.69922
20
-3.233
11
1.7029
21
-3.23336
0
LINE
8
BLACK
6
CONTINUOUS
10
1.7029
20
-3.23336
11
1.70761
21
-3.23479
0
LINE
8
BLACK
6
CONTINUOUS
10
1.70761
20
-3.23479
11
1.71196
21
-3.23711
0
LINE
8
BLACK
6
CONTINUOUS
10
1.71196
20
-3.23711
11
1.71576
21
-3.24024
0
LINE
8
BLACK
6
CONTINUOUS
10
1.71576
20
-3.24024
11
1.71889
21
-3.24404
0
LINE
8
BLACK
6
CONTINUOUS
10
1.71889
20
-3.24404
11
1.72121
21
-3.24839
0
LINE
8
BLACK
6
CONTINUOUS
10
1.72121
20
-3.24839
11
1.72264
21
-3.2531
0
LINE
8
BLACK
6
CONTINUOUS
10
1.72264
20
-3.2531
11
1.72312
21
-3.258
0
LINE
8
BLACK
6
CONTINUOUS
10
1.72312
20
-3.258
11
1.723
21
-3.25922
0
LINE
8
BLACK
6
CONTINUOUS
10
1.723
20
-3.25922
11
1.723
21
-6.25678
0
LINE
8
BLACK
6
CONTINUOUS
10
1.723
20
-6.25678
11
1.72312
21
-6.258
0
LINE
8
BLACK
6
CONTINUOUS
10
1.72312
20
-6.258
11
1.723
21
-6.25922
0
LINE
8
BLACK
6
CONTINUOUS
10
1.723
20
-6.25922
11
1.723
21
-6.25922
0
LINE
8
BLACK
6
CONTINUOUS
10
1.723
20
-6.25922
11
1.72264
21
-6.2629
0
LINE
8
BLACK
6
CONTINUOUS
10
1.72264
20
-6.2629
11
1.72121
21
-6.26761
0
LINE
8
BLACK
6
CONTINUOUS
10
1.72121
20
-6.26761
11
1.71889
21
-6.27196
0
LINE
8
BLACK
6
CONTINUOUS
10
1.71889
20
-6.27196
11
1.71576
21
-6.27576
0
LINE
8
BLACK
6
CONTINUOUS
10
1.71576
20
-6.27576
11
1.71196
21
-6.27889
0
LINE
8
BLACK
6
CONTINUOUS
10
1.71196
20
-6.27889
11
1.70761
21
-6.28121
0
LINE
8
BLACK
6
CONTINUOUS
10
1.70761
20
-6.28121
11
1.7029
21
-6.28264
0
LINE
8
BLACK
6
CONTINUOUS
10
1.7029
20
-6.28264
11
1.698
21
-6.28312
0
LINE
8
BLACK
6
CONTINUOUS
10
1.698
20
-6.28312
11
1.69678
21
-6.283
0
LINE
8
BLACK
6
CONTINUOUS
10
1.69678
20
-6.283
11
-1.71078
21
-6.283
0
LINE
8
BLACK
6
CONTINUOUS
10
-1.71078
20
-6.283
11
-1.712
21
-6.28312
0
LINE
8
BLACK
6
CONTINUOUS
10
-1.712
20
-6.28312
11
-1.7169
21
-6.28264
0
LINE
8
BLACK
6
CONTINUOUS
10
-1.7169
20
-6.28264
11
-1.72161
21
-6.28121
0
LINE
8
BLACK
6
CONTINUOUS
10
-1.72161
20
-6.28121
11
-1.72596
21
-6.27889
0
LINE
8
BLACK
6
CONTINUOUS
10
-1.72596
20
-6.27889
11
-1.72976
21
-6.27576
0
LINE
8
BLACK
6
CONTINUOUS
10
-1.72976
20
-6.27576
11
-1.73289
21
-6.27196
0
LINE
8
BLACK
6
CONTINUOUS
10
-1.73289
20
-6.27196
11
-1.73521
21
-6.26761
0
LINE
8
BLACK
6
CONTINUOUS
10
-1.73521
20
-6.26761
11
-1.73664
21
-6.2629
0
LINE
8
BLACK
6
CONTINUOUS
10
-1.73664
20
-6.2629
11
-1.73712
21
-6.258
0
LINE
8
BLACK
6
CONTINUOUS
10
-1.73712
20
-6.258
11
-1.737
21
-6.25678
0
LINE
8
BLACK
6
CONTINUOUS
10
-1.737
20
-6.25678
11
-1.737
21
-3.25923
0
LINE
8
BLACK
6
CONTINUOUS
10
-1.737
20
-3.25923
11
-1.73712
21
-3.258
0
LINE
8
BLACK
6
CONTINUOUS
10
-1.73712
20
-3.258
11
-1.73664
21
-3.2531
0
LINE
8
BLACK
6
CONTINUOUS
10
-1.73664
20
-3.2531
11
-1.73521
21
-3.24839
0
LINE
8
BLACK
6
CONTINUOUS
10
-1.73521
20
-3.24839
11
-1.73289
21
-3.24404
0
LINE
8
BLACK
6
CONTINUOUS
10
-1.73289
20
-3.24404
11
-1.72976
21
-3.24024
0
LINE
8
BLACK
6
CONTINUOUS
10
-1.72976
20
-3.24024
11
-1.72596
21
-3.23711
0
LINE
8
BLACK
6
CONTINUOUS
10
-1.72596
20
-3.23711
11
-1.72161
21
-3.23479
0
LINE
8
BLACK
6
CONTINUOUS
10
-1.72161
20
-3.23479
11
-1.7169
21
-3.23336
0
LINE
8
BLACK
6
CONTINUOUS
10
-1.7169
20
-3.23336
11
-1.71322
21
-3.233
0
LINE
8
BLACK
6
CONTINUOUS
10
-1.71322
20
-3.233
11
-1.71322
21
-3.233
0
LINE
8
BLACK
6
CONTINUOUS
10
-1.71322
20
-3.233
11
-1.712
21
-3.23288
0
LINE
8
BLACK
6
CONTINUOUS
10
-1.712
20
-3.23288
11
-1.71078
21
-3.233
0
LINE
8
BLACK
6
CONTINUOUS
10
-1.71078
20
-3.233
11
1.69678
21
-3.233
0
LINE
8
BLACK
6
CONTINUOUS
10
1.69678
20
-3.233
11
1.698
21
-3.23288
0
LINE
8
BLACK
6
CONTINUOUS
10
1.698
20
-3.23288
11
1.69922
21
-3.233
0
LINE
8
BLACK
6
CONTINUOUS
10
-1.687
20
-3.283
11
-1.687
21
-6.233
0
LINE
8
BLACK
6
CONTINUOUS
10
-1.687
20
-6.233
11
1.673
21
-6.233
0
LINE
8
BLACK
6
CONTINUOUS
10
1.673
20
-6.233
11
1.673
21
-3.283
0
LINE
8
BLACK
6
CONTINUOUS
10
1.673
20
-3.283
11
-1.687
21
-3.283
0
LINE
8
BLACK
6
CONTINUOUS
10
20.7492
20
-3.203
11
20.7492
21
-3.203
0
LINE
8
BLACK
6
CONTINUOUS
10
20.7492
20
-3.203
11
20.7529
21
-3.20336
0
LINE
8
BLACK
6
CONTINUOUS
10
20.7529
20
-3.20336
11
20.7576
21
-3.20479
0
LINE
8
BLACK
6
CONTINUOUS
10
20.7576
20
-3.20479
11
20.762
21
-3.20711
0
LINE
8
BLACK
6
CONTINUOUS
10
20.762
20
-3.20711
11
20.7658
21
-3.21024
0
LINE
8
BLACK
6
CONTINUOUS
10
20.7658
20
-3.21024
11
20.7689
21
-3.21404
0
LINE
8
BLACK
6
CONTINUOUS
10
20.7689
20
-3.21404
11
20.7712
21
-3.21839
0
LINE
8
BLACK
6
CONTINUOUS
10
20.7712
20
-3.21839
11
20.7726
21
-3.2231
0
LINE
8
BLACK
6
CONTINUOUS
10
20.7726
20
-3.2231
11
20.7731
21
-3.228
0
LINE
8
BLACK
6
CONTINUOUS
10
20.7731
20
-3.228
11
20.773
21
-3.22922
0
LINE
8
BLACK
6
CONTINUOUS
10
20.773
20
-3.22922
11
20.773
21
-6.25678
0
LINE
8
BLACK
6
CONTINUOUS
10
20.773
20
-6.25678
11
20.7731
21
-6.258
0
LINE
8
BLACK
6
CONTINUOUS
10
20.7731
20
-6.258
11
20.773
21
-6.25922
0
LINE
8
BLACK
6
CONTINUOUS
10
20.773
20
-6.25922
11
20.773
21
-6.25922
0
LINE
8
BLACK
6
CONTINUOUS
10
20.773
20
-6.25922
11
20.7726
21
-6.2629
0
LINE
8
BLACK
6
CONTINUOUS
10
20.7726
20
-6.2629
11
20.7712
21
-6.26761
0
LINE
8
BLACK
6
CONTINUOUS
10
20.7712
20
-6.26761
11
20.7689
21
-6.27196
0
LINE
8
BLACK
6
CONTINUOUS
10
20.7689
20
-6.27196
11
20.7658
21
-6.27576
0
LINE
8
BLACK
6
CONTINUOUS
10
20.7658
20
-6.27576
11
20.762
21
-6.27889
0
LINE
8
BLACK
6
CONTINUOUS
10
20.762
20
-6.27889
11
20.7576
21
-6.28121
0
LINE
8
BLACK
6
CONTINUOUS
10
20.7576
20
-6.28121
11
20.7529
21
-6.28264
0
LINE
8
BLACK
6
CONTINUOUS
10
20.7529
20
-6.28264
11
20.748
21
-6.28312
0
LINE
8
BLACK
6
CONTINUOUS
10
20.748
20
-6.28312
11
20.7468
21
-6.283
0
LINE
8
BLACK
6
CONTINUOUS
10
20.7468
20
-6.283
11
17.3492
21
-6.283
0
LINE
8
BLACK
6
CONTINUOUS
10
17.3492
20
-6.283
11
17.348
21
-6.28312
0
LINE
8
BLACK
6
CONTINUOUS
10
17.348
20
-6.28312
11
17.3431
21
-6.28264
0
LINE
8
BLACK
6
CONTINUOUS
10
17.3431
20
-6.28264
11
17.3384
21
-6.28121
0
LINE
8
BLACK
6
CONTINUOUS
10
17.3384
20
-6.28121
11
17.334
21
-6.27889
0
LINE
8
BLACK
6
CONTINUOUS
10
17.334
20
-6.27889
11
17.3302
21
-6.27576
0
LINE
8
BLACK
6
CONTINUOUS
10
17.3302
20
-6.27576
11
17.3271
21
-6.27196
0
LINE
8
BLACK
6
CONTINUOUS
10
17.3271
20
-6.27196
11
17.3248
21
-6.26761
0
LINE
8
BLACK
6
CONTINUOUS
10
17.3248
20
-6.26761
11
17.3234
21
-6.2629
0
LINE
8
BLACK
6
CONTINUOUS
10
17.3234
20
-6.2629
11
17.3229
21
-6.258
0
LINE
8
BLACK
6
CONTINUOUS
10
17.3229
20
-6.258
11
17.323
21
-6.25678
0
LINE
8
BLACK
6
CONTINUOUS
10
17.323
20
-6.25678
11
17.323
21
-3.22923
0
LINE
8
BLACK
6
CONTINUOUS
10
17.323
20
-3.22923
11
17.3229
21
-3.228
0
LINE
8
BLACK
6
CONTINUOUS
10
17.3229
20
-3.228
11
17.3234
21
-3.2231
0
LINE
8
BLACK
6
CONTINUOUS
10
17.3234
20
-3.2231
11
17.3248
21
-3.21839
0
LINE
8
BLACK
6
CONTINUOUS
10
17.3248
20
-3.21839
11
17.3271
21
-3.21404
0
LINE
8
BLACK
6
CONTINUOUS
10
17.3271
20
-3.21404
11
17.3302
21
-3.21024
0
LINE
8
BLACK
6
CONTINUOUS
10
17.3302
20
-3.21024
11
17.334
21
-3.20711
0
LINE
8
BLACK
6
CONTINUOUS
10
17.334
20
-3.20711
11
17.3384
21
-3.20479
0
LINE
8
BLACK
6
CONTINUOUS
10
17.3384
20
-3.20479
11
17.3431
21
-3.20336
0
LINE
8
BLACK
6
CONTINUOUS
10
17.3431
20
-3.20336
11
17.3468
21
-3.203
0
LINE
8
BLACK
6
CONTINUOUS
10
17.3468
20
-3.203
11
17.3468
21
-3.203
0
LINE
8
BLACK
6
CONTINUOUS
10
17.3468
20
-3.203
11
17.348
21
-3.20288
0
LINE
8
BLACK
6
CONTINUOUS
10
17.348
20
-3.20288
11
17.3492
21
-3.203
0
LINE
8
BLACK
6
CONTINUOUS
10
17.3492
20
-3.203
11
20.7468
21
-3.203
0
LINE
8
BLACK
6
CONTINUOUS
10
20.7468
20
-3.203
11
20.748
21
-3.20288
0
LINE
8
BLACK
6
CONTINUOUS
10
20.748
20
-3.20288
11
20.7492
21
-3.203
0
LINE
8
BLACK
6
CONTINUOUS
10
17.373
20
-3.253
11
17.373
21
-6.233
0
LINE
8
BLACK
6
CONTINUOUS
10
17.373
20
-6.233
11
20.723
21
-6.233
0
LINE
8
BLACK
6
CONTINUOUS
10
20.723
20
-6.233
11
20.723
21
-3.253
0
LINE
8
BLACK
6
CONTINUOUS
10
20.723
20
-3.253
11
17.373
21
-3.253
0
LINE
8
BLACK
6
CONTINUOUS
10
77.9092
20
-1.203
11
77.9092
21
-1.203
0
LINE
8
BLACK
6
CONTINUOUS
10
77.9092
20
-1.203
11
77.9129
21
-1.20336
0
LINE
8
BLACK
6
CONTINUOUS
10
77.9129
20
-1.20336
11
77.9176
21
-1.20479
0
LINE
8
BLACK
6
CONTINUOUS
10
77.9176
20
-1.20479
11
77.922
21
-1.20711
0
LINE
8
BLACK
6
CONTINUOUS
10
77.922
20
-1.20711
11
77.9258
21
-1.21024
0
LINE
8
BLACK
6
CONTINUOUS
10
77.9258
20
-1.21024
11
77.9289
21
-1.21404
0
LINE
8
BLACK
6
CONTINUOUS
10
77.9289
20
-1.21404
11
77.9312
21
-1.21839
0
LINE
8
BLACK
6
CONTINUOUS
10
77.9312
20
-1.21839
11
77.9326
21
-1.2231
0
LINE
8
BLACK
6
CONTINUOUS
10
77.9326
20
-1.2231
11
77.9331
21
-1.228
0
LINE
8
BLACK
6
CONTINUOUS
10
77.9331
20
-1.228
11
77.933
21
-1.22922
0
LINE
8
BLACK
6
CONTINUOUS
10
77.933
20
-1.22922
11
77.933
21
-4.27678
0
LINE
8
BLACK
6
CONTINUOUS
10
77.933
20
-4.27678
11
77.9331
21
-4.278
0
LINE
8
BLACK
6
CONTINUOUS
10
77.9331
20
-4.278
11
77.933
21
-4.27922
0
LINE
8
BLACK
6
CONTINUOUS
10
77.933
20
-4.27922
11
77.933
21
-4.27922
0
LINE
8
BLACK
6
CONTINUOUS
10
77.933
20
-4.27922
11
77.9326
21
-4.2829
0
LINE
8
BLACK
6
CONTINUOUS
10
77.9326
20
-4.2829
11
77.9312
21
-4.28761
0
LINE
8
BLACK
6
CONTINUOUS
10
77.9312
20
-4.28761
11
77.9289
21
-4.29196
0
LINE
8
BLACK
6
CONTINUOUS
10
77.9289
20
-4.29196
11
77.9258
21
-4.29576
0
LINE
8
BLACK
6
CONTINUOUS
10
77.9258
20
-4.29576
11
77.922
21
-4.29889
0
LINE
8
BLACK
6
CONTINUOUS
10
77.922
20
-4.29889
11
77.9176
21
-4.30121
0
LINE
8
BLACK
6
CONTINUOUS
10
77.9176
20
-4.30121
11
77.9129
21
-4.30264
0
LINE
8
BLACK
6
CONTINUOUS
10
77.9129
20
-4.30264
11
77.908
21
-4.30312
0
LINE
8
BLACK
6
CONTINUOUS
10
77.908
20
-4.30312
11
77.9068
21
-4.303
0
LINE
8
BLACK
6
CONTINUOUS
10
77.9068
20
-4.303
11
74.4892
21
-4.303
0
LINE
8
BLACK
6
CONTINUOUS
10
74.4892
20
-4.303
11
74.488
21
-4.30312
0
LINE
8
BLACK
6
CONTINUOUS
10
74.488
20
-4.30312
11
74.4831
21
-4.30264
0
LINE
8
BLACK
6
CONTINUOUS
10
74.4831
20
-4.30264
11
74.4784
21
-4.30121
0
LINE
8
BLACK
6
CONTINUOUS
10
74.4784
20
-4.30121
11
74.474
21
-4.29889
0
LINE
8
BLACK
6
CONTINUOUS
10
74.474
20
-4.29889
11
74.4702
21
-4.29576
0
LINE
8
BLACK
6
CONTINUOUS
10
74.4702
20
-4.29576
11
74.4671
21
-4.29196
0
LINE
8
BLACK
6
CONTINUOUS
10
74.4671
20
-4.29196
11
74.4648
21
-4.28761
0
LINE
8
BLACK
6
CONTINUOUS
10
74.4648
20
-4.28761
11
74.4634
21
-4.2829
0
LINE
8
BLACK
6
CONTINUOUS
10
74.4634
20
-4.2829
11
74.4629
21
-4.278
0
LINE
8
BLACK
6
CONTINUOUS
10
74.4629
20
-4.278
11
74.463
21
-4.27678
0
LINE
8
BLACK
6
CONTINUOUS
10
74.463
20
-4.27678
11
74.463
21
-1.22923
0
LINE
8
BLACK
6
CONTINUOUS
10
74.463
20
-1.22923
11
74.4629
21
-1.228
0
LINE
8
BLACK
6
CONTINUOUS
10
74.4629
20
-1.228
11
74.4634
21
-1.2231
0
LINE
8
BLACK
6
CONTINUOUS
10
74.4634
20
-1.2231
11
74.4648
21
-1.21839
0
LINE
8
BLACK
6
CONTINUOUS
10
74.4648
20
-1.21839
11
74.4671
21
-1.21404
0
LINE
8
BLACK
6
CONTINUOUS
10
74.4671
20
-1.21404
11
74.4702
21
-1.21024
0
LINE
8
BLACK
6
CONTINUOUS
10
74.4702
20
-1.21024
11
74.474
21
-1.20711
0
LINE
8
BLACK
6
CONTINUOUS
10
74.474
20
-1.20711
11
74.4784
21
-1.20479
0
LINE
8
BLACK
6
CONTINUOUS
10
74.4784
20
-1.20479
11
74.4831
21
-1.20336
0
LINE
8
BLACK
6
CONTINUOUS
10
74.4831
20
-1.20336
11
74.4868
21
-1.203
0
LINE
8
BLACK
6
CONTINUOUS
10
74.4868
20
-1.203
11
74.4868
21
-1.203
0
LINE
8
BLACK
6
CONTINUOUS
10
74.4868
20
-1.203
11
74.488
21
-1.20288
0
LINE
8
BLACK
6
CONTINUOUS
10
74.488
20
-1.20288
11
74.4892
21
-1.203
0
LINE
8
BLACK
6
CONTINUOUS
10
74.4892
20
-1.203
11
77.9068
21
-1.203
0
LINE
8
BLACK
6
CONTINUOUS
10
77.9068
20
-1.203
11
77.908
21
-1.20288
0
LINE
8
BLACK
6
CONTINUOUS
10
77.908
20
-1.20288
11
77.9092
21
-1.203
0
LINE
8
BLACK
6
CONTINUOUS
10
74.513
20
-1.253
11
74.513
21
-4.253
0
LINE
8
BLACK
6
CONTINUOUS
10
74.513
20
-4.253
11
77.883
21
-4.253
0
LINE
8
BLACK
6
CONTINUOUS
10
77.883
20
-4.253
11
77.883
21
-1.253
0
LINE
8
BLACK
6
CONTINUOUS
10
77.883
20
-1.253
11
74.513
21
-1.253
0
LINE
8
BLACK
6
CONTINUOUS
10
39.8092
20
-0.193
11
39.8092
21
-0.193
0
LINE
8
BLACK
6
CONTINUOUS
10
39.8092
20
-0.193
11
39.8129
21
-0.193363
0
LINE
8
BLACK
6
CONTINUOUS
10
39.8129
20
-0.193363
11
39.8176
21
-0.194792
0
LINE
8
BLACK
6
CONTINUOUS
10
39.8176
20
-0.194792
11
39.822
21
-0.197113
0
LINE
8
BLACK
6
CONTINUOUS
10
39.822
20
-0.197113
11
39.8258
21
-0.200237
0
LINE
8
BLACK
6
CONTINUOUS
10
39.8258
20
-0.200237
11
39.8289
21
-0.204044
0
LINE
8
BLACK
6
CONTINUOUS
10
39.8289
20
-0.204044
11
39.8312
21
-0.208387
0
LINE
8
BLACK
6
CONTINUOUS
10
39.8312
20
-0.208387
11
39.8326
21
-0.213099
0
LINE
8
BLACK
6
CONTINUOUS
10
39.8326
20
-0.213099
11
39.8331
21
-0.218
0
LINE
8
BLACK
6
CONTINUOUS
10
39.8331
20
-0.218
11
39.833
21
-0.219218
0
LINE
8
BLACK
6
CONTINUOUS
10
39.833
20
-0.219218
11
39.833
21
-3.25678
0
LINE
8
BLACK
6
CONTINUOUS
10
39.833
20
-3.25678
11
39.8331
21
-3.258
0
LINE
8
BLACK
6
CONTINUOUS
10
39.8331
20
-3.258
11
39.833
21
-3.25922
0
LINE
8
BLACK
6
CONTINUOUS
10
39.833
20
-3.25922
11
39.833
21
-3.25922
0
LINE
8
BLACK
6
CONTINUOUS
10
39.833
20
-3.25922
11
39.8326
21
-3.2629
0
LINE
8
BLACK
6
CONTINUOUS
10
39.8326
20
-3.2629
11
39.8312
21
-3.26761
0
LINE
8
BLACK
6
CONTINUOUS
10
39.8312
20
-3.26761
11
39.8289
21
-3.27196
0
LINE
8
BLACK
6
CONTINUOUS
10
39.8289
20
-3.27196
11
39.8258
21
-3.27576
0
LINE
8
BLACK
6
CONTINUOUS
10
39.8258
20
-3.27576
11
39.822
21
-3.27889
0
LINE
8
BLACK
6
CONTINUOUS
10
39.822
20
-3.27889
11
39.8176
21
-3.28121
0
LINE
8
BLACK
6
CONTINUOUS
10
39.8176
20
-3.28121
11
39.8129
21
-3.28264
0
LINE
8
BLACK
6
CONTINUOUS
10
39.8129
20
-3.28264
11
39.808
21
-3.28312
0
LINE
8
BLACK
6
CONTINUOUS
10
39.808
20
-3.28312
11
39.8068
21
-3.283
0
LINE
8
BLACK
6
CONTINUOUS
10
39.8068
20
-3.283
11
36.3792
21
-3.283
0
LINE
8
BLACK
6
CONTINUOUS
10
36.3792
20
-3.283
11
36.378
21
-3.28312
0
LINE
8
BLACK
6
CONTINUOUS
10
36.378
20
-3.28312
11
36.3731
21
-3.28264
0
LINE
8
BLACK
6
CONTINUOUS
10
36.3731
20
-3.28264
11
36.3684
21
-3.28121
0
LINE
8
BLACK
6
CONTINUOUS
10
36.3684
20
-3.28121
11
36.364
21
-3.27889
0
LINE
8
BLACK
6
CONTINUOUS
10
36.364
20
-3.27889
11
36.3602
21
-3.27576
0
LINE
8
BLACK
6
CONTINUOUS
10
36.3602
20
-3.27576
11
36.3571
21
-3.27196
0
LINE
8
BLACK
6
CONTINUOUS
10
36.3571
20
-3.27196
11
36.3548
21
-3.26761
0
LINE
8
BLACK
6
CONTINUOUS
10
36.3548
20
-3.26761
11
36.3534
21
-3.2629
0
LINE
8
BLACK
6
CONTINUOUS
10
36.3534
20
-3.2629
11
36.3529
21
-3.258
0
LINE
8
BLACK
6
CONTINUOUS
10
36.3529
20
-3.258
11
36.353
21
-3.25678
0
LINE
8
BLACK
6
CONTINUOUS
10
36.353
20
-3.25678
11
36.353
21
-0.219228
0
LINE
8
BLACK
6
CONTINUOUS
10
36.353
20
-0.219228
11
36.3529
21
-0.218
0
LINE
8
BLACK
6
CONTINUOUS
10
36.3529
20
-0.218
11
36.3534
21
-0.213099
0
LINE
8
BLACK
6
CONTINUOUS
10
36.3534
20
-0.213099
11
36.3548
21
-0.208387
0
LINE
8
BLACK
6
CONTINUOUS
10
36.3548
20
-0.208387
11
36.3571
21
-0.204044
0
LINE
8
BLACK
6
CONTINUOUS
10
36.3571
20
-0.204044
11
36.3602
21
-0.200237
0
LINE
8
BLACK
6
CONTINUOUS
10
36.3602
20
-0.200237
11
36.364
21
-0.197113
0
LINE
8
BLACK
6
CONTINUOUS
10
36.364
20
-0.197113
11
36.3684
21
-0.194792
0
LINE
8
BLACK
6
CONTINUOUS
10
36.3684
20
-0.194792
11
36.3731
21
-0.193363
0
LINE
8
BLACK
6
CONTINUOUS
10
36.3731
20
-0.193363
11
36.3768
21
-0.193
0
LINE
8
BLACK
6
CONTINUOUS
10
36.3768
20
-0.193
11
36.3768
21
-0.193
0
LINE
8
BLACK
6
CONTINUOUS
10
36.3768
20
-0.193
11
36.378
21
-0.19288
0
LINE
8
BLACK
6
CONTINUOUS
10
36.378
20
-0.19288
11
36.3792
21
-0.193
0
LINE
8
BLACK
6
CONTINUOUS
10
36.3792
20
-0.193
11
39.8068
21
-0.193
0
LINE
8
BLACK
6
CONTINUOUS
10
39.8068
20
-0.193
11
39.808
21
-0.19288
0
LINE
8
BLACK
6
CONTINUOUS
10
39.808
20
-0.19288
11
39.8092
21
-0.193
0
LINE
8
BLACK
6
CONTINUOUS
10
36.403
20
-0.243
11
36.403
21
-3.233
0
LINE
8
BLACK
6
CONTINUOUS
10
36.403
20
-3.233
11
39.783
21
-3.233
0
LINE
8
BLACK
6
CONTINUOUS
10
39.783
20
-3.233
11
39.783
21
-0.243
0
LINE
8
BLACK
6
CONTINUOUS
10
39.783
20
-0.243
11
36.403
21
-0.243
0
LINE
8
BLACK
6
CONTINUOUS
10
58.8492
20
4.807
11
58.8492
21
4.807
0
LINE
8
BLACK
6
CONTINUOUS
10
58.8492
20
4.807
11
58.8529
21
4.80664
0
LINE
8
BLACK
6
CONTINUOUS
10
58.8529
20
4.80664
11
58.8576
21
4.80521
0
LINE
8
BLACK
6
CONTINUOUS
10
58.8576
20
4.80521
11
58.862
21
4.80289
0
LINE
8
BLACK
6
CONTINUOUS
10
58.862
20
4.80289
11
58.8658
21
4.79976
0
LINE
8
BLACK
6
CONTINUOUS
10
58.8658
20
4.79976
11
58.8689
21
4.79596
0
LINE
8
BLACK
6
CONTINUOUS
10
58.8689
20
4.79596
11
58.8712
21
4.79161
0
LINE
8
BLACK
6
CONTINUOUS
10
58.8712
20
4.79161
11
58.8726
21
4.7869
0
LINE
8
BLACK
6
CONTINUOUS
10
58.8726
20
4.7869
11
58.8731
21
4.782
0
LINE
8
BLACK
6
CONTINUOUS
10
58.8731
20
4.782
11
58.873
21
4.78078
0
LINE
8
BLACK
6
CONTINUOUS
10
58.873
20
4.78078
11
58.873
21
1.73322
0
LINE
8
BLACK
6
CONTINUOUS
10
58.873
20
1.73322
11
58.8731
21
1.732
0
LINE
8
BLACK
6
CONTINUOUS
10
58.8731
20
1.732
11
58.873
21
1.73078
0
LINE
8
BLACK
6
CONTINUOUS
10
58.873
20
1.73078
11
58.873
21
1.73078
0
LINE
8
BLACK
6
CONTINUOUS
10
58.873
20
1.73078
11
58.8726
21
1.7271
0
LINE
8
BLACK
6
CONTINUOUS
10
58.8726
20
1.7271
11
58.8712
21
1.72239
0
LINE
8
BLACK
6
CONTINUOUS
10
58.8712
20
1.72239
11
58.8689
21
1.71804
0
LINE
8
BLACK
6
CONTINUOUS
10
58.8689
20
1.71804
11
58.8658
21
1.71424
0
LINE
8
BLACK
6
CONTINUOUS
10
58.8658
20
1.71424
11
58.862
21
1.71111
0
LINE
8
BLACK
6
CONTINUOUS
10
58.862
20
1.71111
11
58.8576
21
1.70879
0
LINE
8
BLACK
6
CONTINUOUS
10
58.8576
20
1.70879
11
58.8529
21
1.70736
0
LINE
8
BLACK
6
CONTINUOUS
10
58.8529
20
1.70736
11
58.848
21
1.70688
0
LINE
8
BLACK
6
CONTINUOUS
10
58.848
20
1.70688
11
58.8468
21
1.707
0
LINE
8
BLACK
6
CONTINUOUS
10
58.8468
20
1.707
11
55.4392
21
1.707
0
LINE
8
BLACK
6
CONTINUOUS
10
55.4392
20
1.707
11
55.438
21
1.70688
0
LINE
8
BLACK
6
CONTINUOUS
10
55.438
20
1.70688
11
55.4331
21
1.70736
0
LINE
8
BLACK
6
CONTINUOUS
10
55.4331
20
1.70736
11
55.4284
21
1.70879
0
LINE
8
BLACK
6
CONTINUOUS
10
55.4284
20
1.70879
11
55.424
21
1.71111
0
LINE
8
BLACK
6
CONTINUOUS
10
55.424
20
1.71111
11
55.4202
21
1.71424
0
LINE
8
BLACK
6
CONTINUOUS
10
55.4202
20
1.71424
11
55.4171
21
1.71804
0
LINE
8
BLACK
6
CONTINUOUS
10
55.4171
20
1.71804
11
55.4148
21
1.72239
0
LINE
8
BLACK
6
CONTINUOUS
10
55.4148
20
1.72239
11
55.4134
21
1.7271
0
LINE
8
BLACK
6
CONTINUOUS
10
55.4134
20
1.7271
11
55.4129
21
1.732
0
LINE
8
BLACK
6
CONTINUOUS
10
55.4129
20
1.732
11
55.413
21
1.73322
0
LINE
8
BLACK
6
CONTINUOUS
10
55.413
20
1.73322
11
55.413
21
4.78077
0
LINE
8
BLACK
6
CONTINUOUS
10
55.413
20
4.78077
11
55.4129
21
4.782
0
LINE
8
BLACK
6
CONTINUOUS
10
55.4129
20
4.782
11
55.4134
21
4.7869
0
LINE
8
BLACK
6
CONTINUOUS
10
55.4134
20
4.7869
11
55.4148
21
4.79161
0
LINE
8
BLACK
6
CONTINUOUS
10
55.4148
20
4.79161
11
55.4171
21
4.79596
0
LINE
8
BLACK
6
CONTINUOUS
10
55.4171
20
4.79596
11
55.4202
21
4.79976
0
LINE
8
BLACK
6
CONTINUOUS
10
55.4202
20
4.79976
11
55.424
21
4.80289
0
LINE
8
BLACK
6
CONTINUOUS
10
55.424
20
4.80289
11
55.4284
21
4.80521
0
LINE
8
BLACK
6
CONTINUOUS
10
55.4284
20
4.80521
11
55.4331
21
4.80664
0
LINE
8
BLACK
6
CONTINUOUS
10
55.4331
20
4.80664
11
55.4368
21
4.807
0
LINE
8
BLACK
6
CONTINUOUS
10
55.4368
20
4.807
11
55.4368
21
4.807
0
LINE
8
BLACK
6
CONTINUOUS
10
55.4368
20
4.807
11
55.438
21
4.80712
0
LINE
8
BLACK
6
CONTINUOUS
10
55.438
20
4.80712
11
55.4392
21
4.807
0
LINE
8
BLACK
6
CONTINUOUS
10
55.4392
20
4.807
11
58.8468
21
4.807
0
LINE
8
BLACK
6
CONTINUOUS
10
58.8468
20
4.807
11
58.848
21
4.80712
0
LINE
8
BLACK
6
CONTINUOUS
10
58.848
20
4.80712
11
58.8492
21
4.807
0
LINE
8
BLACK
6
CONTINUOUS
10
55.463
20
4.757
11
55.463
21
1.757
0
LINE
8
BLACK
6
CONTINUOUS
10
55.463
20
1.757
11
58.823
21
1.757
0
LINE
8
BLACK
6
CONTINUOUS
10
58.823
20
1.757
11
58.823
21
4.757
0
LINE
8
BLACK
6
CONTINUOUS
10
58.823
20
4.757
11
55.463
21
4.757
  0
ENDSEC
  0
EOF
