G04 #@! TF.GenerationSoftware,KiCad,Pcbnew,(5.1.4)-1*
G04 #@! TF.CreationDate,2021-06-10T17:13:43-04:00*
G04 #@! TF.ProjectId,splitreus,73706c69-7472-4657-9573-2e6b69636164,1*
G04 #@! TF.SameCoordinates,Original*
G04 #@! TF.FileFunction,Legend,Top*
G04 #@! TF.FilePolarity,Positive*
%FSLAX46Y46*%
G04 Gerber Fmt 4.6, Leading zero omitted, Abs format (unit mm)*
G04 Created by KiCad (PCBNEW (5.1.4)-1) date 2021-06-10 17:13:43*
%MOMM*%
%LPD*%
G04 APERTURE LIST*
%ADD10C,0.100000*%
%ADD11C,0.150000*%
%ADD12C,0.120000*%
%ADD13C,0.381000*%
G04 APERTURE END LIST*
D10*
G36*
X102597000Y-74290000D02*
G01*
X100247000Y-78360000D01*
X97947000Y-74280000D01*
X102597000Y-74290000D01*
G37*
X102597000Y-74290000D02*
X100247000Y-78360000D01*
X97947000Y-74280000D01*
X102597000Y-74290000D01*
G36*
X101607000Y-77980000D02*
G01*
X97537000Y-75630000D01*
X101617000Y-73330000D01*
X101607000Y-77980000D01*
G37*
X101607000Y-77980000D02*
X97537000Y-75630000D01*
X101617000Y-73330000D01*
X101607000Y-77980000D01*
G36*
X97887000Y-77030000D02*
G01*
X100237000Y-72960000D01*
X102537000Y-77040000D01*
X97887000Y-77030000D01*
G37*
X97887000Y-77030000D02*
X100237000Y-72960000D01*
X102537000Y-77040000D01*
X97887000Y-77030000D01*
G36*
X98887000Y-73310000D02*
G01*
X102957000Y-75660000D01*
X98877000Y-77960000D01*
X98887000Y-73310000D01*
G37*
X98887000Y-73310000D02*
X102957000Y-75660000D01*
X98877000Y-77960000D01*
X98887000Y-73310000D01*
G36*
X98276000Y-9160000D02*
G01*
X102346000Y-11510000D01*
X98266000Y-13810000D01*
X98276000Y-9160000D01*
G37*
X98276000Y-9160000D02*
X102346000Y-11510000D01*
X98266000Y-13810000D01*
X98276000Y-9160000D01*
G36*
X97276000Y-12880000D02*
G01*
X99626000Y-8810000D01*
X101926000Y-12890000D01*
X97276000Y-12880000D01*
G37*
X97276000Y-12880000D02*
X99626000Y-8810000D01*
X101926000Y-12890000D01*
X97276000Y-12880000D01*
G36*
X100996000Y-13830000D02*
G01*
X96926000Y-11480000D01*
X101006000Y-9180000D01*
X100996000Y-13830000D01*
G37*
X100996000Y-13830000D02*
X96926000Y-11480000D01*
X101006000Y-9180000D01*
X100996000Y-13830000D01*
G36*
X101986000Y-10140000D02*
G01*
X99636000Y-14210000D01*
X97336000Y-10130000D01*
X101986000Y-10140000D01*
G37*
X101986000Y-10140000D02*
X99636000Y-14210000D01*
X97336000Y-10130000D01*
X101986000Y-10140000D01*
G36*
X30269000Y-73352000D02*
G01*
X27919000Y-77422000D01*
X25619000Y-73342000D01*
X30269000Y-73352000D01*
G37*
X30269000Y-73352000D02*
X27919000Y-77422000D01*
X25619000Y-73342000D01*
X30269000Y-73352000D01*
G36*
X29279000Y-77042000D02*
G01*
X25209000Y-74692000D01*
X29289000Y-72392000D01*
X29279000Y-77042000D01*
G37*
X29279000Y-77042000D02*
X25209000Y-74692000D01*
X29289000Y-72392000D01*
X29279000Y-77042000D01*
G36*
X25559000Y-76092000D02*
G01*
X27909000Y-72022000D01*
X30209000Y-76102000D01*
X25559000Y-76092000D01*
G37*
X25559000Y-76092000D02*
X27909000Y-72022000D01*
X30209000Y-76102000D01*
X25559000Y-76092000D01*
G36*
X26559000Y-72372000D02*
G01*
X30629000Y-74722000D01*
X26549000Y-77022000D01*
X26559000Y-72372000D01*
G37*
X26559000Y-72372000D02*
X30629000Y-74722000D01*
X26549000Y-77022000D01*
X26559000Y-72372000D01*
G36*
X28451000Y11072006D02*
G01*
X26101000Y7002006D01*
X23801000Y11082006D01*
X28451000Y11072006D01*
G37*
X28451000Y11072006D02*
X26101000Y7002006D01*
X23801000Y11082006D01*
X28451000Y11072006D01*
G36*
X27461000Y7382006D02*
G01*
X23391000Y9732006D01*
X27471000Y12032006D01*
X27461000Y7382006D01*
G37*
X27461000Y7382006D02*
X23391000Y9732006D01*
X27471000Y12032006D01*
X27461000Y7382006D01*
G36*
X23741000Y8332006D02*
G01*
X26091000Y12402006D01*
X28391000Y8322006D01*
X23741000Y8332006D01*
G37*
X23741000Y8332006D02*
X26091000Y12402006D01*
X28391000Y8322006D01*
X23741000Y8332006D01*
G36*
X24741000Y12052006D02*
G01*
X28811000Y9702006D01*
X24731000Y7402006D01*
X24741000Y12052006D01*
G37*
X24741000Y12052006D02*
X28811000Y9702006D01*
X24731000Y7402006D01*
X24741000Y12052006D01*
G36*
X-6140000Y-58140000D02*
G01*
X-8490000Y-62210000D01*
X-10790000Y-58130000D01*
X-6140000Y-58140000D01*
G37*
X-6140000Y-58140000D02*
X-8490000Y-62210000D01*
X-10790000Y-58130000D01*
X-6140000Y-58140000D01*
G36*
X-7130000Y-61830000D02*
G01*
X-11200000Y-59480000D01*
X-7120000Y-57180000D01*
X-7130000Y-61830000D01*
G37*
X-7130000Y-61830000D02*
X-11200000Y-59480000D01*
X-7120000Y-57180000D01*
X-7130000Y-61830000D01*
G36*
X-10850000Y-60880000D02*
G01*
X-8500000Y-56810000D01*
X-6200000Y-60890000D01*
X-10850000Y-60880000D01*
G37*
X-10850000Y-60880000D02*
X-8500000Y-56810000D01*
X-6200000Y-60890000D01*
X-10850000Y-60880000D01*
G36*
X-9850000Y-57160000D02*
G01*
X-5780000Y-59510000D01*
X-9860000Y-61810000D01*
X-9850000Y-57160000D01*
G37*
X-9850000Y-57160000D02*
X-5780000Y-59510000D01*
X-9860000Y-61810000D01*
X-9850000Y-57160000D01*
G36*
X-6140000Y-7140000D02*
G01*
X-8490000Y-11210000D01*
X-10790000Y-7130000D01*
X-6140000Y-7140000D01*
G37*
X-6140000Y-7140000D02*
X-8490000Y-11210000D01*
X-10790000Y-7130000D01*
X-6140000Y-7140000D01*
G36*
X-7130000Y-10830000D02*
G01*
X-11200000Y-8480000D01*
X-7120000Y-6180000D01*
X-7130000Y-10830000D01*
G37*
X-7130000Y-10830000D02*
X-11200000Y-8480000D01*
X-7120000Y-6180000D01*
X-7130000Y-10830000D01*
G36*
X-10850000Y-9880000D02*
G01*
X-8500000Y-5810000D01*
X-6200000Y-9890000D01*
X-10850000Y-9880000D01*
G37*
X-10850000Y-9880000D02*
X-8500000Y-5810000D01*
X-6200000Y-9890000D01*
X-10850000Y-9880000D01*
G36*
X-9850000Y-6160000D02*
G01*
X-5780000Y-8510000D01*
X-9860000Y-10810000D01*
X-9850000Y-6160000D01*
G37*
X-9850000Y-6160000D02*
X-5780000Y-8510000D01*
X-9860000Y-10810000D01*
X-9850000Y-6160000D01*
D11*
X116048000Y-51628000D02*
X116048000Y-50928000D01*
X116048000Y-48128000D02*
X116048000Y-48728000D01*
X110048000Y-48128000D02*
X110048000Y-48728000D01*
X110048000Y-51628000D02*
X110048000Y-50928000D01*
X116048000Y-48128000D02*
X110048000Y-48128000D01*
X110048000Y-51628000D02*
X116048000Y-51628000D01*
D12*
X74640000Y-23020000D02*
X69230000Y-23020000D01*
X74640000Y-21010000D02*
X74640000Y-23020000D01*
X69290000Y-20990000D02*
X74640000Y-20990000D01*
D10*
G36*
X69460000Y-20984000D02*
G01*
X69460000Y-23030000D01*
X68444000Y-23030000D01*
X68444000Y-20984000D01*
X68952000Y-20984000D01*
X69460000Y-20984000D01*
G37*
X69460000Y-20984000D02*
X69460000Y-23030000D01*
X68444000Y-23030000D01*
X68444000Y-20984000D01*
X68952000Y-20984000D01*
X69460000Y-20984000D01*
D13*
X102418000Y-17278000D02*
X99878000Y-17278000D01*
X99878000Y-14738000D02*
X99878000Y-17278000D01*
X117658000Y-14738000D02*
X99878000Y-14738000D01*
X117658000Y-17278000D02*
X117658000Y-14738000D01*
D11*
G36*
X113699568Y-23757360D02*
G01*
X113699568Y-23957360D01*
X113599568Y-23957360D01*
X113599568Y-23757360D01*
X113699568Y-23757360D01*
G37*
X113699568Y-23757360D02*
X113699568Y-23957360D01*
X113599568Y-23957360D01*
X113599568Y-23757360D01*
X113699568Y-23757360D01*
G36*
X113299568Y-23157360D02*
G01*
X113299568Y-23957360D01*
X113199568Y-23957360D01*
X113199568Y-23157360D01*
X113299568Y-23157360D01*
G37*
X113299568Y-23157360D02*
X113299568Y-23957360D01*
X113199568Y-23957360D01*
X113199568Y-23157360D01*
X113299568Y-23157360D01*
G36*
X113699568Y-23157360D02*
G01*
X113699568Y-23257360D01*
X113199568Y-23257360D01*
X113199568Y-23157360D01*
X113699568Y-23157360D01*
G37*
X113699568Y-23157360D02*
X113699568Y-23257360D01*
X113199568Y-23257360D01*
X113199568Y-23157360D01*
X113699568Y-23157360D01*
G36*
X113499568Y-23557360D02*
G01*
X113499568Y-23657360D01*
X113399568Y-23657360D01*
X113399568Y-23557360D01*
X113499568Y-23557360D01*
G37*
X113499568Y-23557360D02*
X113499568Y-23657360D01*
X113399568Y-23657360D01*
X113399568Y-23557360D01*
X113499568Y-23557360D01*
G36*
X113699568Y-23157360D02*
G01*
X113699568Y-23457360D01*
X113599568Y-23457360D01*
X113599568Y-23157360D01*
X113699568Y-23157360D01*
G37*
X113699568Y-23157360D02*
X113699568Y-23457360D01*
X113599568Y-23457360D01*
X113599568Y-23157360D01*
X113699568Y-23157360D01*
D13*
X102418000Y-19818000D02*
X99878000Y-19818000D01*
X102418000Y-17278000D02*
X102418000Y-19818000D01*
X117658000Y-47758000D02*
X117658000Y-17278000D01*
X99878000Y-47758000D02*
X117658000Y-47758000D01*
X99878000Y-17278000D02*
X99878000Y-47758000D01*
D11*
X105300000Y-65500000D02*
X106000000Y-65500000D01*
X106000000Y-65500000D02*
X106000000Y-70000000D01*
X103800000Y-64000000D02*
G75*
G03X105300000Y-65500000I1500000J0D01*
G01*
X99300000Y-64500000D02*
X99800000Y-65000000D01*
X100800000Y-65000000D02*
X99800000Y-65000000D01*
X101300000Y-70000000D02*
X101300000Y-65500000D01*
X103300000Y-61000000D02*
X103800000Y-61500000D01*
X101900000Y-70000000D02*
X101300000Y-70000000D01*
X103800000Y-61500000D02*
X103800000Y-64000000D01*
X99800000Y-61000000D02*
X99300000Y-61500000D01*
X99300000Y-61500000D02*
X99300000Y-64500000D01*
X101300000Y-65500000D02*
G75*
G03X100800000Y-65000000I-500000J0D01*
G01*
X106000000Y-70000000D02*
X105500000Y-70000000D01*
X100500000Y-56000000D02*
X101500000Y-56000000D01*
X114500000Y-56000000D02*
X114500000Y-57000000D01*
X114500000Y-70000000D02*
X113500000Y-70000000D01*
X114500000Y-69000000D02*
X114500000Y-70000000D01*
X100500000Y-70000000D02*
X100500000Y-69000000D01*
X101500000Y-70000000D02*
X100500000Y-70000000D01*
X100500000Y-57000000D02*
X100500000Y-56000000D01*
X113500000Y-56000000D02*
X114500000Y-56000000D01*
X87500000Y-68800000D02*
X87500000Y-69500000D01*
X87500000Y-69500000D02*
X83000000Y-69500000D01*
X89000000Y-67300000D02*
G75*
G03X87500000Y-68800000I0J-1500000D01*
G01*
X88500000Y-62800000D02*
X88000000Y-63300000D01*
X88000000Y-64300000D02*
X88000000Y-63300000D01*
X83000000Y-64800000D02*
X87500000Y-64800000D01*
X92000000Y-66800000D02*
X91500000Y-67300000D01*
X83000000Y-65400000D02*
X83000000Y-64800000D01*
X91500000Y-67300000D02*
X89000000Y-67300000D01*
X92000000Y-63300000D02*
X91500000Y-62800000D01*
X91500000Y-62800000D02*
X88500000Y-62800000D01*
X87500000Y-64800000D02*
G75*
G03X88000000Y-64300000I0J500000D01*
G01*
X83000000Y-69500000D02*
X83000000Y-69000000D01*
X97000000Y-64000000D02*
X97000000Y-65000000D01*
X97000000Y-78000000D02*
X96000000Y-78000000D01*
X83000000Y-78000000D02*
X83000000Y-77000000D01*
X84000000Y-78000000D02*
X83000000Y-78000000D01*
X83000000Y-64000000D02*
X84000000Y-64000000D01*
X83000000Y-65000000D02*
X83000000Y-64000000D01*
X96000000Y-64000000D02*
X97000000Y-64000000D01*
X97000000Y-77000000D02*
X97000000Y-78000000D01*
X87500000Y-51800000D02*
X87500000Y-52500000D01*
X87500000Y-52500000D02*
X83000000Y-52500000D01*
X89000000Y-50300000D02*
G75*
G03X87500000Y-51800000I0J-1500000D01*
G01*
X88500000Y-45800000D02*
X88000000Y-46300000D01*
X88000000Y-47300000D02*
X88000000Y-46300000D01*
X83000000Y-47800000D02*
X87500000Y-47800000D01*
X92000000Y-49800000D02*
X91500000Y-50300000D01*
X83000000Y-48400000D02*
X83000000Y-47800000D01*
X91500000Y-50300000D02*
X89000000Y-50300000D01*
X92000000Y-46300000D02*
X91500000Y-45800000D01*
X91500000Y-45800000D02*
X88500000Y-45800000D01*
X87500000Y-47800000D02*
G75*
G03X88000000Y-47300000I0J500000D01*
G01*
X83000000Y-52500000D02*
X83000000Y-52000000D01*
X97000000Y-47000000D02*
X97000000Y-48000000D01*
X97000000Y-61000000D02*
X96000000Y-61000000D01*
X83000000Y-61000000D02*
X83000000Y-60000000D01*
X84000000Y-61000000D02*
X83000000Y-61000000D01*
X83000000Y-47000000D02*
X84000000Y-47000000D01*
X83000000Y-48000000D02*
X83000000Y-47000000D01*
X96000000Y-47000000D02*
X97000000Y-47000000D01*
X97000000Y-60000000D02*
X97000000Y-61000000D01*
X87500000Y-34800000D02*
X87500000Y-35500000D01*
X87500000Y-35500000D02*
X83000000Y-35500000D01*
X89000000Y-33300000D02*
G75*
G03X87500000Y-34800000I0J-1500000D01*
G01*
X88500000Y-28800000D02*
X88000000Y-29300000D01*
X88000000Y-30300000D02*
X88000000Y-29300000D01*
X83000000Y-30800000D02*
X87500000Y-30800000D01*
X92000000Y-32800000D02*
X91500000Y-33300000D01*
X83000000Y-31400000D02*
X83000000Y-30800000D01*
X91500000Y-33300000D02*
X89000000Y-33300000D01*
X92000000Y-29300000D02*
X91500000Y-28800000D01*
X91500000Y-28800000D02*
X88500000Y-28800000D01*
X87500000Y-30800000D02*
G75*
G03X88000000Y-30300000I0J500000D01*
G01*
X83000000Y-35500000D02*
X83000000Y-35000000D01*
X97000000Y-30000000D02*
X97000000Y-31000000D01*
X97000000Y-44000000D02*
X96000000Y-44000000D01*
X83000000Y-44000000D02*
X83000000Y-43000000D01*
X84000000Y-44000000D02*
X83000000Y-44000000D01*
X83000000Y-30000000D02*
X84000000Y-30000000D01*
X83000000Y-31000000D02*
X83000000Y-30000000D01*
X96000000Y-30000000D02*
X97000000Y-30000000D01*
X97000000Y-43000000D02*
X97000000Y-44000000D01*
X87500000Y-17800000D02*
X87500000Y-18500000D01*
X87500000Y-18500000D02*
X83000000Y-18500000D01*
X89000000Y-16300000D02*
G75*
G03X87500000Y-17800000I0J-1500000D01*
G01*
X88500000Y-11800000D02*
X88000000Y-12300000D01*
X88000000Y-13300000D02*
X88000000Y-12300000D01*
X83000000Y-13800000D02*
X87500000Y-13800000D01*
X92000000Y-15800000D02*
X91500000Y-16300000D01*
X83000000Y-14400000D02*
X83000000Y-13800000D01*
X91500000Y-16300000D02*
X89000000Y-16300000D01*
X92000000Y-12300000D02*
X91500000Y-11800000D01*
X91500000Y-11800000D02*
X88500000Y-11800000D01*
X87500000Y-13800000D02*
G75*
G03X88000000Y-13300000I0J500000D01*
G01*
X83000000Y-18500000D02*
X83000000Y-18000000D01*
X97000000Y-13000000D02*
X97000000Y-14000000D01*
X97000000Y-27000000D02*
X96000000Y-27000000D01*
X83000000Y-27000000D02*
X83000000Y-26000000D01*
X84000000Y-27000000D02*
X83000000Y-27000000D01*
X83000000Y-13000000D02*
X84000000Y-13000000D01*
X83000000Y-14000000D02*
X83000000Y-13000000D01*
X96000000Y-13000000D02*
X97000000Y-13000000D01*
X97000000Y-26000000D02*
X97000000Y-27000000D01*
X87500000Y-800000D02*
X87500000Y-1500000D01*
X87500000Y-1500000D02*
X83000000Y-1500000D01*
X89000000Y700000D02*
G75*
G03X87500000Y-800000I0J-1500000D01*
G01*
X88500000Y5200000D02*
X88000000Y4700000D01*
X88000000Y3700000D02*
X88000000Y4700000D01*
X83000000Y3200000D02*
X87500000Y3200000D01*
X92000000Y1200000D02*
X91500000Y700000D01*
X83000000Y2600000D02*
X83000000Y3200000D01*
X91500000Y700000D02*
X89000000Y700000D01*
X92000000Y4700000D02*
X91500000Y5200000D01*
X91500000Y5200000D02*
X88500000Y5200000D01*
X87500000Y3200000D02*
G75*
G03X88000000Y3700000I0J500000D01*
G01*
X83000000Y-1500000D02*
X83000000Y-1000000D01*
X97000000Y4000000D02*
X97000000Y3000000D01*
X97000000Y-10000000D02*
X96000000Y-10000000D01*
X83000000Y-10000000D02*
X83000000Y-9000000D01*
X84000000Y-10000000D02*
X83000000Y-10000000D01*
X83000000Y4000000D02*
X84000000Y4000000D01*
X83000000Y3000000D02*
X83000000Y4000000D01*
X96000000Y4000000D02*
X97000000Y4000000D01*
X97000000Y-9000000D02*
X97000000Y-10000000D01*
X69500000Y-63800000D02*
X69500000Y-64500000D01*
X69500000Y-64500000D02*
X65000000Y-64500000D01*
X71000000Y-62300000D02*
G75*
G03X69500000Y-63800000I0J-1500000D01*
G01*
X70500000Y-57800000D02*
X70000000Y-58300000D01*
X70000000Y-59300000D02*
X70000000Y-58300000D01*
X65000000Y-59800000D02*
X69500000Y-59800000D01*
X74000000Y-61800000D02*
X73500000Y-62300000D01*
X65000000Y-60400000D02*
X65000000Y-59800000D01*
X73500000Y-62300000D02*
X71000000Y-62300000D01*
X74000000Y-58300000D02*
X73500000Y-57800000D01*
X73500000Y-57800000D02*
X70500000Y-57800000D01*
X69500000Y-59800000D02*
G75*
G03X70000000Y-59300000I0J500000D01*
G01*
X65000000Y-64500000D02*
X65000000Y-64000000D01*
X79000000Y-59000000D02*
X79000000Y-60000000D01*
X79000000Y-73000000D02*
X78000000Y-73000000D01*
X65000000Y-73000000D02*
X65000000Y-72000000D01*
X66000000Y-73000000D02*
X65000000Y-73000000D01*
X65000000Y-59000000D02*
X66000000Y-59000000D01*
X65000000Y-60000000D02*
X65000000Y-59000000D01*
X78000000Y-59000000D02*
X79000000Y-59000000D01*
X79000000Y-72000000D02*
X79000000Y-73000000D01*
X69500000Y-46800000D02*
X69500000Y-47500000D01*
X69500000Y-47500000D02*
X65000000Y-47500000D01*
X71000000Y-45300000D02*
G75*
G03X69500000Y-46800000I0J-1500000D01*
G01*
X70500000Y-40800000D02*
X70000000Y-41300000D01*
X70000000Y-42300000D02*
X70000000Y-41300000D01*
X65000000Y-42800000D02*
X69500000Y-42800000D01*
X74000000Y-44800000D02*
X73500000Y-45300000D01*
X65000000Y-43400000D02*
X65000000Y-42800000D01*
X73500000Y-45300000D02*
X71000000Y-45300000D01*
X74000000Y-41300000D02*
X73500000Y-40800000D01*
X73500000Y-40800000D02*
X70500000Y-40800000D01*
X69500000Y-42800000D02*
G75*
G03X70000000Y-42300000I0J500000D01*
G01*
X65000000Y-47500000D02*
X65000000Y-47000000D01*
X79000000Y-42000000D02*
X79000000Y-43000000D01*
X79000000Y-56000000D02*
X78000000Y-56000000D01*
X65000000Y-56000000D02*
X65000000Y-55000000D01*
X66000000Y-56000000D02*
X65000000Y-56000000D01*
X65000000Y-42000000D02*
X66000000Y-42000000D01*
X65000000Y-43000000D02*
X65000000Y-42000000D01*
X78000000Y-42000000D02*
X79000000Y-42000000D01*
X79000000Y-55000000D02*
X79000000Y-56000000D01*
X69500000Y-29800000D02*
X69500000Y-30500000D01*
X69500000Y-30500000D02*
X65000000Y-30500000D01*
X71000000Y-28300000D02*
G75*
G03X69500000Y-29800000I0J-1500000D01*
G01*
X70500000Y-23800000D02*
X70000000Y-24300000D01*
X70000000Y-25300000D02*
X70000000Y-24300000D01*
X65000000Y-25800000D02*
X69500000Y-25800000D01*
X74000000Y-27800000D02*
X73500000Y-28300000D01*
X65000000Y-26400000D02*
X65000000Y-25800000D01*
X73500000Y-28300000D02*
X71000000Y-28300000D01*
X74000000Y-24300000D02*
X73500000Y-23800000D01*
X73500000Y-23800000D02*
X70500000Y-23800000D01*
X69500000Y-25800000D02*
G75*
G03X70000000Y-25300000I0J500000D01*
G01*
X65000000Y-30500000D02*
X65000000Y-30000000D01*
X79000000Y-25000000D02*
X79000000Y-26000000D01*
X79000000Y-39000000D02*
X78000000Y-39000000D01*
X65000000Y-39000000D02*
X65000000Y-38000000D01*
X66000000Y-39000000D02*
X65000000Y-39000000D01*
X65000000Y-25000000D02*
X66000000Y-25000000D01*
X65000000Y-26000000D02*
X65000000Y-25000000D01*
X78000000Y-25000000D02*
X79000000Y-25000000D01*
X79000000Y-38000000D02*
X79000000Y-39000000D01*
X69500000Y-12800000D02*
X69500000Y-13500000D01*
X69500000Y-13500000D02*
X65000000Y-13500000D01*
X71000000Y-11300000D02*
G75*
G03X69500000Y-12800000I0J-1500000D01*
G01*
X70500000Y-6800000D02*
X70000000Y-7300000D01*
X70000000Y-8300000D02*
X70000000Y-7300000D01*
X65000000Y-8800000D02*
X69500000Y-8800000D01*
X74000000Y-10800000D02*
X73500000Y-11300000D01*
X65000000Y-9400000D02*
X65000000Y-8800000D01*
X73500000Y-11300000D02*
X71000000Y-11300000D01*
X74000000Y-7300000D02*
X73500000Y-6800000D01*
X73500000Y-6800000D02*
X70500000Y-6800000D01*
X69500000Y-8800000D02*
G75*
G03X70000000Y-8300000I0J500000D01*
G01*
X65000000Y-13500000D02*
X65000000Y-13000000D01*
X79000000Y-8000000D02*
X79000000Y-9000000D01*
X79000000Y-22000000D02*
X78000000Y-22000000D01*
X65000000Y-22000000D02*
X65000000Y-21000000D01*
X66000000Y-22000000D02*
X65000000Y-22000000D01*
X65000000Y-8000000D02*
X66000000Y-8000000D01*
X65000000Y-9000000D02*
X65000000Y-8000000D01*
X78000000Y-8000000D02*
X79000000Y-8000000D01*
X79000000Y-21000000D02*
X79000000Y-22000000D01*
X69500000Y4200000D02*
X69500000Y3500000D01*
X69500000Y3500000D02*
X65000000Y3500000D01*
X71000000Y5700000D02*
G75*
G03X69500000Y4200000I0J-1500000D01*
G01*
X70500000Y10200000D02*
X70000000Y9700000D01*
X70000000Y8700000D02*
X70000000Y9700000D01*
X65000000Y8200000D02*
X69500000Y8200000D01*
X74000000Y6200000D02*
X73500000Y5700000D01*
X65000000Y7600000D02*
X65000000Y8200000D01*
X73500000Y5700000D02*
X71000000Y5700000D01*
X74000000Y9700000D02*
X73500000Y10200000D01*
X73500000Y10200000D02*
X70500000Y10200000D01*
X69500000Y8200000D02*
G75*
G03X70000000Y8700000I0J500000D01*
G01*
X65000000Y3500000D02*
X65000000Y4000000D01*
X79000000Y9000000D02*
X79000000Y8000000D01*
X79000000Y-5000000D02*
X78000000Y-5000000D01*
X65000000Y-5000000D02*
X65000000Y-4000000D01*
X66000000Y-5000000D02*
X65000000Y-5000000D01*
X65000000Y9000000D02*
X66000000Y9000000D01*
X65000000Y8000000D02*
X65000000Y9000000D01*
X78000000Y9000000D02*
X79000000Y9000000D01*
X79000000Y-4000000D02*
X79000000Y-5000000D01*
X51500000Y-57800000D02*
X51500000Y-58500000D01*
X51500000Y-58500000D02*
X47000000Y-58500000D01*
X53000000Y-56300000D02*
G75*
G03X51500000Y-57800000I0J-1500000D01*
G01*
X52500000Y-51800000D02*
X52000000Y-52300000D01*
X52000000Y-53300000D02*
X52000000Y-52300000D01*
X47000000Y-53800000D02*
X51500000Y-53800000D01*
X56000000Y-55800000D02*
X55500000Y-56300000D01*
X47000000Y-54400000D02*
X47000000Y-53800000D01*
X55500000Y-56300000D02*
X53000000Y-56300000D01*
X56000000Y-52300000D02*
X55500000Y-51800000D01*
X55500000Y-51800000D02*
X52500000Y-51800000D01*
X51500000Y-53800000D02*
G75*
G03X52000000Y-53300000I0J500000D01*
G01*
X47000000Y-58500000D02*
X47000000Y-58000000D01*
X61000000Y-53000000D02*
X61000000Y-54000000D01*
X61000000Y-67000000D02*
X60000000Y-67000000D01*
X47000000Y-67000000D02*
X47000000Y-66000000D01*
X48000000Y-67000000D02*
X47000000Y-67000000D01*
X47000000Y-53000000D02*
X48000000Y-53000000D01*
X47000000Y-54000000D02*
X47000000Y-53000000D01*
X60000000Y-53000000D02*
X61000000Y-53000000D01*
X61000000Y-66000000D02*
X61000000Y-67000000D01*
X51500000Y-40800000D02*
X51500000Y-41500000D01*
X51500000Y-41500000D02*
X47000000Y-41500000D01*
X53000000Y-39300000D02*
G75*
G03X51500000Y-40800000I0J-1500000D01*
G01*
X52500000Y-34800000D02*
X52000000Y-35300000D01*
X52000000Y-36300000D02*
X52000000Y-35300000D01*
X47000000Y-36800000D02*
X51500000Y-36800000D01*
X56000000Y-38800000D02*
X55500000Y-39300000D01*
X47000000Y-37400000D02*
X47000000Y-36800000D01*
X55500000Y-39300000D02*
X53000000Y-39300000D01*
X56000000Y-35300000D02*
X55500000Y-34800000D01*
X55500000Y-34800000D02*
X52500000Y-34800000D01*
X51500000Y-36800000D02*
G75*
G03X52000000Y-36300000I0J500000D01*
G01*
X47000000Y-41500000D02*
X47000000Y-41000000D01*
X61000000Y-36000000D02*
X61000000Y-37000000D01*
X61000000Y-50000000D02*
X60000000Y-50000000D01*
X47000000Y-50000000D02*
X47000000Y-49000000D01*
X48000000Y-50000000D02*
X47000000Y-50000000D01*
X47000000Y-36000000D02*
X48000000Y-36000000D01*
X47000000Y-37000000D02*
X47000000Y-36000000D01*
X60000000Y-36000000D02*
X61000000Y-36000000D01*
X61000000Y-49000000D02*
X61000000Y-50000000D01*
X51500000Y-23800000D02*
X51500000Y-24500000D01*
X51500000Y-24500000D02*
X47000000Y-24500000D01*
X53000000Y-22300000D02*
G75*
G03X51500000Y-23800000I0J-1500000D01*
G01*
X52500000Y-17800000D02*
X52000000Y-18300000D01*
X52000000Y-19300000D02*
X52000000Y-18300000D01*
X47000000Y-19800000D02*
X51500000Y-19800000D01*
X56000000Y-21800000D02*
X55500000Y-22300000D01*
X47000000Y-20400000D02*
X47000000Y-19800000D01*
X55500000Y-22300000D02*
X53000000Y-22300000D01*
X56000000Y-18300000D02*
X55500000Y-17800000D01*
X55500000Y-17800000D02*
X52500000Y-17800000D01*
X51500000Y-19800000D02*
G75*
G03X52000000Y-19300000I0J500000D01*
G01*
X47000000Y-24500000D02*
X47000000Y-24000000D01*
X61000000Y-19000000D02*
X61000000Y-20000000D01*
X61000000Y-33000000D02*
X60000000Y-33000000D01*
X47000000Y-33000000D02*
X47000000Y-32000000D01*
X48000000Y-33000000D02*
X47000000Y-33000000D01*
X47000000Y-19000000D02*
X48000000Y-19000000D01*
X47000000Y-20000000D02*
X47000000Y-19000000D01*
X60000000Y-19000000D02*
X61000000Y-19000000D01*
X61000000Y-32000000D02*
X61000000Y-33000000D01*
X51500000Y-6800000D02*
X51500000Y-7500000D01*
X51500000Y-7500000D02*
X47000000Y-7500000D01*
X53000000Y-5300000D02*
G75*
G03X51500000Y-6800000I0J-1500000D01*
G01*
X52500000Y-800000D02*
X52000000Y-1300000D01*
X52000000Y-2300000D02*
X52000000Y-1300000D01*
X47000000Y-2800000D02*
X51500000Y-2800000D01*
X56000000Y-4800000D02*
X55500000Y-5300000D01*
X47000000Y-3400000D02*
X47000000Y-2800000D01*
X55500000Y-5300000D02*
X53000000Y-5300000D01*
X56000000Y-1300000D02*
X55500000Y-800000D01*
X55500000Y-800000D02*
X52500000Y-800000D01*
X51500000Y-2800000D02*
G75*
G03X52000000Y-2300000I0J500000D01*
G01*
X47000000Y-7500000D02*
X47000000Y-7000000D01*
X61000000Y-2000000D02*
X61000000Y-3000000D01*
X61000000Y-16000000D02*
X60000000Y-16000000D01*
X47000000Y-16000000D02*
X47000000Y-15000000D01*
X48000000Y-16000000D02*
X47000000Y-16000000D01*
X47000000Y-2000000D02*
X48000000Y-2000000D01*
X47000000Y-3000000D02*
X47000000Y-2000000D01*
X60000000Y-2000000D02*
X61000000Y-2000000D01*
X61000000Y-15000000D02*
X61000000Y-16000000D01*
X51500000Y10200000D02*
X51500000Y9500000D01*
X51500000Y9500000D02*
X47000000Y9500000D01*
X53000000Y11700000D02*
G75*
G03X51500000Y10200000I0J-1500000D01*
G01*
X52500000Y16200000D02*
X52000000Y15700000D01*
X52000000Y14700000D02*
X52000000Y15700000D01*
X47000000Y14200000D02*
X51500000Y14200000D01*
X56000000Y12200000D02*
X55500000Y11700000D01*
X47000000Y13600000D02*
X47000000Y14200000D01*
X55500000Y11700000D02*
X53000000Y11700000D01*
X56000000Y15700000D02*
X55500000Y16200000D01*
X55500000Y16200000D02*
X52500000Y16200000D01*
X51500000Y14200000D02*
G75*
G03X52000000Y14700000I0J500000D01*
G01*
X47000000Y9500000D02*
X47000000Y10000000D01*
X61000000Y15000000D02*
X61000000Y14000000D01*
X61000000Y1000000D02*
X60000000Y1000000D01*
X47000000Y1000000D02*
X47000000Y2000000D01*
X48000000Y1000000D02*
X47000000Y1000000D01*
X47000000Y15000000D02*
X48000000Y15000000D01*
X47000000Y14000000D02*
X47000000Y15000000D01*
X60000000Y15000000D02*
X61000000Y15000000D01*
X61000000Y2000000D02*
X61000000Y1000000D01*
X33500000Y-62800000D02*
X33500000Y-63500000D01*
X33500000Y-63500000D02*
X29000000Y-63500000D01*
X35000000Y-61300000D02*
G75*
G03X33500000Y-62800000I0J-1500000D01*
G01*
X34500000Y-56800000D02*
X34000000Y-57300000D01*
X34000000Y-58300000D02*
X34000000Y-57300000D01*
X29000000Y-58800000D02*
X33500000Y-58800000D01*
X38000000Y-60800000D02*
X37500000Y-61300000D01*
X29000000Y-59400000D02*
X29000000Y-58800000D01*
X37500000Y-61300000D02*
X35000000Y-61300000D01*
X38000000Y-57300000D02*
X37500000Y-56800000D01*
X37500000Y-56800000D02*
X34500000Y-56800000D01*
X33500000Y-58800000D02*
G75*
G03X34000000Y-58300000I0J500000D01*
G01*
X29000000Y-63500000D02*
X29000000Y-63000000D01*
X43000000Y-58000000D02*
X43000000Y-59000000D01*
X43000000Y-72000000D02*
X42000000Y-72000000D01*
X29000000Y-72000000D02*
X29000000Y-71000000D01*
X30000000Y-72000000D02*
X29000000Y-72000000D01*
X29000000Y-58000000D02*
X30000000Y-58000000D01*
X29000000Y-59000000D02*
X29000000Y-58000000D01*
X42000000Y-58000000D02*
X43000000Y-58000000D01*
X43000000Y-71000000D02*
X43000000Y-72000000D01*
X33500000Y-45800000D02*
X33500000Y-46500000D01*
X33500000Y-46500000D02*
X29000000Y-46500000D01*
X35000000Y-44300000D02*
G75*
G03X33500000Y-45800000I0J-1500000D01*
G01*
X34500000Y-39800000D02*
X34000000Y-40300000D01*
X34000000Y-41300000D02*
X34000000Y-40300000D01*
X29000000Y-41800000D02*
X33500000Y-41800000D01*
X38000000Y-43800000D02*
X37500000Y-44300000D01*
X29000000Y-42400000D02*
X29000000Y-41800000D01*
X37500000Y-44300000D02*
X35000000Y-44300000D01*
X38000000Y-40300000D02*
X37500000Y-39800000D01*
X37500000Y-39800000D02*
X34500000Y-39800000D01*
X33500000Y-41800000D02*
G75*
G03X34000000Y-41300000I0J500000D01*
G01*
X29000000Y-46500000D02*
X29000000Y-46000000D01*
X43000000Y-41000000D02*
X43000000Y-42000000D01*
X43000000Y-55000000D02*
X42000000Y-55000000D01*
X29000000Y-55000000D02*
X29000000Y-54000000D01*
X30000000Y-55000000D02*
X29000000Y-55000000D01*
X29000000Y-41000000D02*
X30000000Y-41000000D01*
X29000000Y-42000000D02*
X29000000Y-41000000D01*
X42000000Y-41000000D02*
X43000000Y-41000000D01*
X43000000Y-54000000D02*
X43000000Y-55000000D01*
X33500000Y-28800000D02*
X33500000Y-29500000D01*
X33500000Y-29500000D02*
X29000000Y-29500000D01*
X35000000Y-27300000D02*
G75*
G03X33500000Y-28800000I0J-1500000D01*
G01*
X34500000Y-22800000D02*
X34000000Y-23300000D01*
X34000000Y-24300000D02*
X34000000Y-23300000D01*
X29000000Y-24800000D02*
X33500000Y-24800000D01*
X38000000Y-26800000D02*
X37500000Y-27300000D01*
X29000000Y-25400000D02*
X29000000Y-24800000D01*
X37500000Y-27300000D02*
X35000000Y-27300000D01*
X38000000Y-23300000D02*
X37500000Y-22800000D01*
X37500000Y-22800000D02*
X34500000Y-22800000D01*
X33500000Y-24800000D02*
G75*
G03X34000000Y-24300000I0J500000D01*
G01*
X29000000Y-29500000D02*
X29000000Y-29000000D01*
X43000000Y-24000000D02*
X43000000Y-25000000D01*
X43000000Y-38000000D02*
X42000000Y-38000000D01*
X29000000Y-38000000D02*
X29000000Y-37000000D01*
X30000000Y-38000000D02*
X29000000Y-38000000D01*
X29000000Y-24000000D02*
X30000000Y-24000000D01*
X29000000Y-25000000D02*
X29000000Y-24000000D01*
X42000000Y-24000000D02*
X43000000Y-24000000D01*
X43000000Y-37000000D02*
X43000000Y-38000000D01*
X33500000Y-11800000D02*
X33500000Y-12500000D01*
X33500000Y-12500000D02*
X29000000Y-12500000D01*
X35000000Y-10300000D02*
G75*
G03X33500000Y-11800000I0J-1500000D01*
G01*
X34500000Y-5800000D02*
X34000000Y-6300000D01*
X34000000Y-7300000D02*
X34000000Y-6300000D01*
X29000000Y-7800000D02*
X33500000Y-7800000D01*
X38000000Y-9800000D02*
X37500000Y-10300000D01*
X29000000Y-8400000D02*
X29000000Y-7800000D01*
X37500000Y-10300000D02*
X35000000Y-10300000D01*
X38000000Y-6300000D02*
X37500000Y-5800000D01*
X37500000Y-5800000D02*
X34500000Y-5800000D01*
X33500000Y-7800000D02*
G75*
G03X34000000Y-7300000I0J500000D01*
G01*
X29000000Y-12500000D02*
X29000000Y-12000000D01*
X43000000Y-7000000D02*
X43000000Y-8000000D01*
X43000000Y-21000000D02*
X42000000Y-21000000D01*
X29000000Y-21000000D02*
X29000000Y-20000000D01*
X30000000Y-21000000D02*
X29000000Y-21000000D01*
X29000000Y-7000000D02*
X30000000Y-7000000D01*
X29000000Y-8000000D02*
X29000000Y-7000000D01*
X42000000Y-7000000D02*
X43000000Y-7000000D01*
X43000000Y-20000000D02*
X43000000Y-21000000D01*
X33500000Y5200000D02*
X33500000Y4500000D01*
X33500000Y4500000D02*
X29000000Y4500000D01*
X35000000Y6700000D02*
G75*
G03X33500000Y5200000I0J-1500000D01*
G01*
X34500000Y11200000D02*
X34000000Y10700000D01*
X34000000Y9700000D02*
X34000000Y10700000D01*
X29000000Y9200000D02*
X33500000Y9200000D01*
X38000000Y7200000D02*
X37500000Y6700000D01*
X29000000Y8600000D02*
X29000000Y9200000D01*
X37500000Y6700000D02*
X35000000Y6700000D01*
X38000000Y10700000D02*
X37500000Y11200000D01*
X37500000Y11200000D02*
X34500000Y11200000D01*
X33500000Y9200000D02*
G75*
G03X34000000Y9700000I0J500000D01*
G01*
X29000000Y4500000D02*
X29000000Y5000000D01*
X43000000Y10000000D02*
X43000000Y9000000D01*
X43000000Y-4000000D02*
X42000000Y-4000000D01*
X29000000Y-4000000D02*
X29000000Y-3000000D01*
X30000000Y-4000000D02*
X29000000Y-4000000D01*
X29000000Y10000000D02*
X30000000Y10000000D01*
X29000000Y9000000D02*
X29000000Y10000000D01*
X42000000Y10000000D02*
X43000000Y10000000D01*
X43000000Y-3000000D02*
X43000000Y-4000000D01*
X15500000Y-65800000D02*
X15500000Y-66500000D01*
X15500000Y-66500000D02*
X11000000Y-66500000D01*
X17000000Y-64300000D02*
G75*
G03X15500000Y-65800000I0J-1500000D01*
G01*
X16500000Y-59800000D02*
X16000000Y-60300000D01*
X16000000Y-61300000D02*
X16000000Y-60300000D01*
X11000000Y-61800000D02*
X15500000Y-61800000D01*
X20000000Y-63800000D02*
X19500000Y-64300000D01*
X11000000Y-62400000D02*
X11000000Y-61800000D01*
X19500000Y-64300000D02*
X17000000Y-64300000D01*
X20000000Y-60300000D02*
X19500000Y-59800000D01*
X19500000Y-59800000D02*
X16500000Y-59800000D01*
X15500000Y-61800000D02*
G75*
G03X16000000Y-61300000I0J500000D01*
G01*
X11000000Y-66500000D02*
X11000000Y-66000000D01*
X25000000Y-61000000D02*
X25000000Y-62000000D01*
X25000000Y-75000000D02*
X24000000Y-75000000D01*
X11000000Y-75000000D02*
X11000000Y-74000000D01*
X12000000Y-75000000D02*
X11000000Y-75000000D01*
X11000000Y-61000000D02*
X12000000Y-61000000D01*
X11000000Y-62000000D02*
X11000000Y-61000000D01*
X24000000Y-61000000D02*
X25000000Y-61000000D01*
X25000000Y-74000000D02*
X25000000Y-75000000D01*
X15500000Y-48800000D02*
X15500000Y-49500000D01*
X15500000Y-49500000D02*
X11000000Y-49500000D01*
X17000000Y-47300000D02*
G75*
G03X15500000Y-48800000I0J-1500000D01*
G01*
X16500000Y-42800000D02*
X16000000Y-43300000D01*
X16000000Y-44300000D02*
X16000000Y-43300000D01*
X11000000Y-44800000D02*
X15500000Y-44800000D01*
X20000000Y-46800000D02*
X19500000Y-47300000D01*
X11000000Y-45400000D02*
X11000000Y-44800000D01*
X19500000Y-47300000D02*
X17000000Y-47300000D01*
X20000000Y-43300000D02*
X19500000Y-42800000D01*
X19500000Y-42800000D02*
X16500000Y-42800000D01*
X15500000Y-44800000D02*
G75*
G03X16000000Y-44300000I0J500000D01*
G01*
X11000000Y-49500000D02*
X11000000Y-49000000D01*
X25000000Y-44000000D02*
X25000000Y-45000000D01*
X25000000Y-58000000D02*
X24000000Y-58000000D01*
X11000000Y-58000000D02*
X11000000Y-57000000D01*
X12000000Y-58000000D02*
X11000000Y-58000000D01*
X11000000Y-44000000D02*
X12000000Y-44000000D01*
X11000000Y-45000000D02*
X11000000Y-44000000D01*
X24000000Y-44000000D02*
X25000000Y-44000000D01*
X25000000Y-57000000D02*
X25000000Y-58000000D01*
X15500000Y-31800000D02*
X15500000Y-32500000D01*
X15500000Y-32500000D02*
X11000000Y-32500000D01*
X17000000Y-30300000D02*
G75*
G03X15500000Y-31800000I0J-1500000D01*
G01*
X16500000Y-25800000D02*
X16000000Y-26300000D01*
X16000000Y-27300000D02*
X16000000Y-26300000D01*
X11000000Y-27800000D02*
X15500000Y-27800000D01*
X20000000Y-29800000D02*
X19500000Y-30300000D01*
X11000000Y-28400000D02*
X11000000Y-27800000D01*
X19500000Y-30300000D02*
X17000000Y-30300000D01*
X20000000Y-26300000D02*
X19500000Y-25800000D01*
X19500000Y-25800000D02*
X16500000Y-25800000D01*
X15500000Y-27800000D02*
G75*
G03X16000000Y-27300000I0J500000D01*
G01*
X11000000Y-32500000D02*
X11000000Y-32000000D01*
X25000000Y-27000000D02*
X25000000Y-28000000D01*
X25000000Y-41000000D02*
X24000000Y-41000000D01*
X11000000Y-41000000D02*
X11000000Y-40000000D01*
X12000000Y-41000000D02*
X11000000Y-41000000D01*
X11000000Y-27000000D02*
X12000000Y-27000000D01*
X11000000Y-28000000D02*
X11000000Y-27000000D01*
X24000000Y-27000000D02*
X25000000Y-27000000D01*
X25000000Y-40000000D02*
X25000000Y-41000000D01*
X15500000Y-14800000D02*
X15500000Y-15500000D01*
X15500000Y-15500000D02*
X11000000Y-15500000D01*
X17000000Y-13300000D02*
G75*
G03X15500000Y-14800000I0J-1500000D01*
G01*
X16500000Y-8800000D02*
X16000000Y-9300000D01*
X16000000Y-10300000D02*
X16000000Y-9300000D01*
X11000000Y-10800000D02*
X15500000Y-10800000D01*
X20000000Y-12800000D02*
X19500000Y-13300000D01*
X11000000Y-11400000D02*
X11000000Y-10800000D01*
X19500000Y-13300000D02*
X17000000Y-13300000D01*
X20000000Y-9300000D02*
X19500000Y-8800000D01*
X19500000Y-8800000D02*
X16500000Y-8800000D01*
X15500000Y-10800000D02*
G75*
G03X16000000Y-10300000I0J500000D01*
G01*
X11000000Y-15500000D02*
X11000000Y-15000000D01*
X25000000Y-10000000D02*
X25000000Y-11000000D01*
X25000000Y-24000000D02*
X24000000Y-24000000D01*
X11000000Y-24000000D02*
X11000000Y-23000000D01*
X12000000Y-24000000D02*
X11000000Y-24000000D01*
X11000000Y-10000000D02*
X12000000Y-10000000D01*
X11000000Y-11000000D02*
X11000000Y-10000000D01*
X24000000Y-10000000D02*
X25000000Y-10000000D01*
X25000000Y-23000000D02*
X25000000Y-24000000D01*
X15500000Y2200000D02*
X15500000Y1500000D01*
X15500000Y1500000D02*
X11000000Y1500000D01*
X17000000Y3700000D02*
G75*
G03X15500000Y2200000I0J-1500000D01*
G01*
X16500000Y8200000D02*
X16000000Y7700000D01*
X16000000Y6700000D02*
X16000000Y7700000D01*
X11000000Y6200000D02*
X15500000Y6200000D01*
X20000000Y4200000D02*
X19500000Y3700000D01*
X11000000Y5600000D02*
X11000000Y6200000D01*
X19500000Y3700000D02*
X17000000Y3700000D01*
X20000000Y7700000D02*
X19500000Y8200000D01*
X19500000Y8200000D02*
X16500000Y8200000D01*
X15500000Y6200000D02*
G75*
G03X16000000Y6700000I0J500000D01*
G01*
X11000000Y1500000D02*
X11000000Y2000000D01*
X25000000Y7000000D02*
X25000000Y6000000D01*
X25000000Y-7000000D02*
X24000000Y-7000000D01*
X11000000Y-7000000D02*
X11000000Y-6000000D01*
X12000000Y-7000000D02*
X11000000Y-7000000D01*
X11000000Y7000000D02*
X12000000Y7000000D01*
X11000000Y6000000D02*
X11000000Y7000000D01*
X24000000Y7000000D02*
X25000000Y7000000D01*
X25000000Y-6000000D02*
X25000000Y-7000000D01*
X-2500000Y-65800000D02*
X-2500000Y-66500000D01*
X-2500000Y-66500000D02*
X-7000000Y-66500000D01*
X-1000000Y-64300000D02*
G75*
G03X-2500000Y-65800000I0J-1500000D01*
G01*
X-1500000Y-59800000D02*
X-2000000Y-60300000D01*
X-2000000Y-61300000D02*
X-2000000Y-60300000D01*
X-7000000Y-61800000D02*
X-2500000Y-61800000D01*
X2000000Y-63800000D02*
X1500000Y-64300000D01*
X-7000000Y-62400000D02*
X-7000000Y-61800000D01*
X1500000Y-64300000D02*
X-1000000Y-64300000D01*
X2000000Y-60300000D02*
X1500000Y-59800000D01*
X1500000Y-59800000D02*
X-1500000Y-59800000D01*
X-2500000Y-61800000D02*
G75*
G03X-2000000Y-61300000I0J500000D01*
G01*
X-7000000Y-66500000D02*
X-7000000Y-66000000D01*
X7000000Y-61000000D02*
X7000000Y-62000000D01*
X7000000Y-75000000D02*
X6000000Y-75000000D01*
X-7000000Y-75000000D02*
X-7000000Y-74000000D01*
X-6000000Y-75000000D02*
X-7000000Y-75000000D01*
X-7000000Y-61000000D02*
X-6000000Y-61000000D01*
X-7000000Y-62000000D02*
X-7000000Y-61000000D01*
X6000000Y-61000000D02*
X7000000Y-61000000D01*
X7000000Y-74000000D02*
X7000000Y-75000000D01*
X-2500000Y-48800000D02*
X-2500000Y-49500000D01*
X-2500000Y-49500000D02*
X-7000000Y-49500000D01*
X-1000000Y-47300000D02*
G75*
G03X-2500000Y-48800000I0J-1500000D01*
G01*
X-1500000Y-42800000D02*
X-2000000Y-43300000D01*
X-2000000Y-44300000D02*
X-2000000Y-43300000D01*
X-7000000Y-44800000D02*
X-2500000Y-44800000D01*
X2000000Y-46800000D02*
X1500000Y-47300000D01*
X-7000000Y-45400000D02*
X-7000000Y-44800000D01*
X1500000Y-47300000D02*
X-1000000Y-47300000D01*
X2000000Y-43300000D02*
X1500000Y-42800000D01*
X1500000Y-42800000D02*
X-1500000Y-42800000D01*
X-2500000Y-44800000D02*
G75*
G03X-2000000Y-44300000I0J500000D01*
G01*
X-7000000Y-49500000D02*
X-7000000Y-49000000D01*
X7000000Y-44000000D02*
X7000000Y-45000000D01*
X7000000Y-58000000D02*
X6000000Y-58000000D01*
X-7000000Y-58000000D02*
X-7000000Y-57000000D01*
X-6000000Y-58000000D02*
X-7000000Y-58000000D01*
X-7000000Y-44000000D02*
X-6000000Y-44000000D01*
X-7000000Y-45000000D02*
X-7000000Y-44000000D01*
X6000000Y-44000000D02*
X7000000Y-44000000D01*
X7000000Y-57000000D02*
X7000000Y-58000000D01*
X-2500000Y-31800000D02*
X-2500000Y-32500000D01*
X-2500000Y-32500000D02*
X-7000000Y-32500000D01*
X-1000000Y-30300000D02*
G75*
G03X-2500000Y-31800000I0J-1500000D01*
G01*
X-1500000Y-25800000D02*
X-2000000Y-26300000D01*
X-2000000Y-27300000D02*
X-2000000Y-26300000D01*
X-7000000Y-27800000D02*
X-2500000Y-27800000D01*
X2000000Y-29800000D02*
X1500000Y-30300000D01*
X-7000000Y-28400000D02*
X-7000000Y-27800000D01*
X1500000Y-30300000D02*
X-1000000Y-30300000D01*
X2000000Y-26300000D02*
X1500000Y-25800000D01*
X1500000Y-25800000D02*
X-1500000Y-25800000D01*
X-2500000Y-27800000D02*
G75*
G03X-2000000Y-27300000I0J500000D01*
G01*
X-7000000Y-32500000D02*
X-7000000Y-32000000D01*
X7000000Y-27000000D02*
X7000000Y-28000000D01*
X7000000Y-41000000D02*
X6000000Y-41000000D01*
X-7000000Y-41000000D02*
X-7000000Y-40000000D01*
X-6000000Y-41000000D02*
X-7000000Y-41000000D01*
X-7000000Y-27000000D02*
X-6000000Y-27000000D01*
X-7000000Y-28000000D02*
X-7000000Y-27000000D01*
X6000000Y-27000000D02*
X7000000Y-27000000D01*
X7000000Y-40000000D02*
X7000000Y-41000000D01*
X-2500000Y-14800000D02*
X-2500000Y-15500000D01*
X-2500000Y-15500000D02*
X-7000000Y-15500000D01*
X-1000000Y-13300000D02*
G75*
G03X-2500000Y-14800000I0J-1500000D01*
G01*
X-1500000Y-8800000D02*
X-2000000Y-9300000D01*
X-2000000Y-10300000D02*
X-2000000Y-9300000D01*
X-7000000Y-10800000D02*
X-2500000Y-10800000D01*
X2000000Y-12800000D02*
X1500000Y-13300000D01*
X-7000000Y-11400000D02*
X-7000000Y-10800000D01*
X1500000Y-13300000D02*
X-1000000Y-13300000D01*
X2000000Y-9300000D02*
X1500000Y-8800000D01*
X1500000Y-8800000D02*
X-1500000Y-8800000D01*
X-2500000Y-10800000D02*
G75*
G03X-2000000Y-10300000I0J500000D01*
G01*
X-7000000Y-15500000D02*
X-7000000Y-15000000D01*
X7000000Y-10000000D02*
X7000000Y-11000000D01*
X7000000Y-24000000D02*
X6000000Y-24000000D01*
X-7000000Y-24000000D02*
X-7000000Y-23000000D01*
X-6000000Y-24000000D02*
X-7000000Y-24000000D01*
X-7000000Y-10000000D02*
X-6000000Y-10000000D01*
X-7000000Y-11000000D02*
X-7000000Y-10000000D01*
X6000000Y-10000000D02*
X7000000Y-10000000D01*
X7000000Y-23000000D02*
X7000000Y-24000000D01*
X-2500000Y2200000D02*
X-2500000Y1500000D01*
X-2500000Y1500000D02*
X-7000000Y1500000D01*
X-1000000Y3700000D02*
G75*
G03X-2500000Y2200000I0J-1500000D01*
G01*
X-1500000Y8200000D02*
X-2000000Y7700000D01*
X-2000000Y6700000D02*
X-2000000Y7700000D01*
X-7000000Y6200000D02*
X-2500000Y6200000D01*
X2000000Y4200000D02*
X1500000Y3700000D01*
X-7000000Y5600000D02*
X-7000000Y6200000D01*
X1500000Y3700000D02*
X-1000000Y3700000D01*
X2000000Y7700000D02*
X1500000Y8200000D01*
X1500000Y8200000D02*
X-1500000Y8200000D01*
X-2500000Y6200000D02*
G75*
G03X-2000000Y6700000I0J500000D01*
G01*
X-7000000Y1500000D02*
X-7000000Y2000000D01*
X7000000Y7000000D02*
X7000000Y6000000D01*
X7000000Y-7000000D02*
X6000000Y-7000000D01*
X-7000000Y-7000000D02*
X-7000000Y-6000000D01*
X-6000000Y-7000000D02*
X-7000000Y-7000000D01*
X-7000000Y7000000D02*
X-6000000Y7000000D01*
X-7000000Y6000000D02*
X-7000000Y7000000D01*
X6000000Y7000000D02*
X7000000Y7000000D01*
X7000000Y-6000000D02*
X7000000Y-7000000D01*
D12*
X112980000Y-60360000D02*
X112980000Y-65770000D01*
X114990000Y-60360000D02*
X112980000Y-60360000D01*
X115010000Y-65710000D02*
X115010000Y-60360000D01*
D10*
G36*
X115016000Y-65540000D02*
G01*
X112970000Y-65540000D01*
X112970000Y-66556000D01*
X115016000Y-66556000D01*
X115016000Y-66048000D01*
X115016000Y-65540000D01*
G37*
X115016000Y-65540000D02*
X112970000Y-65540000D01*
X112970000Y-66556000D01*
X115016000Y-66556000D01*
X115016000Y-66048000D01*
X115016000Y-65540000D01*
D12*
X92640000Y-74680000D02*
X87230000Y-74680000D01*
X92640000Y-76690000D02*
X92640000Y-74680000D01*
X87290000Y-76710000D02*
X92640000Y-76710000D01*
D10*
G36*
X87460000Y-76716000D02*
G01*
X87460000Y-74670000D01*
X86444000Y-74670000D01*
X86444000Y-76716000D01*
X86952000Y-76716000D01*
X87460000Y-76716000D01*
G37*
X87460000Y-76716000D02*
X87460000Y-74670000D01*
X86444000Y-74670000D01*
X86444000Y-76716000D01*
X86952000Y-76716000D01*
X87460000Y-76716000D01*
D12*
X92640000Y-59980000D02*
X87230000Y-59980000D01*
X92640000Y-61990000D02*
X92640000Y-59980000D01*
X87290000Y-62010000D02*
X92640000Y-62010000D01*
D10*
G36*
X87460000Y-62016000D02*
G01*
X87460000Y-59970000D01*
X86444000Y-59970000D01*
X86444000Y-62016000D01*
X86952000Y-62016000D01*
X87460000Y-62016000D01*
G37*
X87460000Y-62016000D02*
X87460000Y-59970000D01*
X86444000Y-59970000D01*
X86444000Y-62016000D01*
X86952000Y-62016000D01*
X87460000Y-62016000D01*
D12*
X92640000Y-42980000D02*
X87230000Y-42980000D01*
X92640000Y-44990000D02*
X92640000Y-42980000D01*
X87290000Y-45010000D02*
X92640000Y-45010000D01*
D10*
G36*
X87460000Y-45016000D02*
G01*
X87460000Y-42970000D01*
X86444000Y-42970000D01*
X86444000Y-45016000D01*
X86952000Y-45016000D01*
X87460000Y-45016000D01*
G37*
X87460000Y-45016000D02*
X87460000Y-42970000D01*
X86444000Y-42970000D01*
X86444000Y-45016000D01*
X86952000Y-45016000D01*
X87460000Y-45016000D01*
D12*
X92640000Y-25980000D02*
X87230000Y-25980000D01*
X92640000Y-27990000D02*
X92640000Y-25980000D01*
X87290000Y-28010000D02*
X92640000Y-28010000D01*
D10*
G36*
X87460000Y-28016000D02*
G01*
X87460000Y-25970000D01*
X86444000Y-25970000D01*
X86444000Y-28016000D01*
X86952000Y-28016000D01*
X87460000Y-28016000D01*
G37*
X87460000Y-28016000D02*
X87460000Y-25970000D01*
X86444000Y-25970000D01*
X86444000Y-28016000D01*
X86952000Y-28016000D01*
X87460000Y-28016000D01*
D12*
X92640000Y-8980000D02*
X87230000Y-8980000D01*
X92640000Y-10990000D02*
X92640000Y-8980000D01*
X87290000Y-11010000D02*
X92640000Y-11010000D01*
D10*
G36*
X87460000Y-11016000D02*
G01*
X87460000Y-8970000D01*
X86444000Y-8970000D01*
X86444000Y-11016000D01*
X86952000Y-11016000D01*
X87460000Y-11016000D01*
G37*
X87460000Y-11016000D02*
X87460000Y-8970000D01*
X86444000Y-8970000D01*
X86444000Y-11016000D01*
X86952000Y-11016000D01*
X87460000Y-11016000D01*
D12*
X74640000Y-69680000D02*
X69230000Y-69680000D01*
X74640000Y-71690000D02*
X74640000Y-69680000D01*
X69290000Y-71710000D02*
X74640000Y-71710000D01*
D10*
G36*
X69460000Y-71716000D02*
G01*
X69460000Y-69670000D01*
X68444000Y-69670000D01*
X68444000Y-71716000D01*
X68952000Y-71716000D01*
X69460000Y-71716000D01*
G37*
X69460000Y-71716000D02*
X69460000Y-69670000D01*
X68444000Y-69670000D01*
X68444000Y-71716000D01*
X68952000Y-71716000D01*
X69460000Y-71716000D01*
D12*
X74640000Y-54980000D02*
X69230000Y-54980000D01*
X74640000Y-56990000D02*
X74640000Y-54980000D01*
X69290000Y-57010000D02*
X74640000Y-57010000D01*
D10*
G36*
X69460000Y-57016000D02*
G01*
X69460000Y-54970000D01*
X68444000Y-54970000D01*
X68444000Y-57016000D01*
X68952000Y-57016000D01*
X69460000Y-57016000D01*
G37*
X69460000Y-57016000D02*
X69460000Y-54970000D01*
X68444000Y-54970000D01*
X68444000Y-57016000D01*
X68952000Y-57016000D01*
X69460000Y-57016000D01*
D12*
X74640000Y-37980000D02*
X69230000Y-37980000D01*
X74640000Y-39990000D02*
X74640000Y-37980000D01*
X69290000Y-40010000D02*
X74640000Y-40010000D01*
D10*
G36*
X69460000Y-40016000D02*
G01*
X69460000Y-37970000D01*
X68444000Y-37970000D01*
X68444000Y-40016000D01*
X68952000Y-40016000D01*
X69460000Y-40016000D01*
G37*
X69460000Y-40016000D02*
X69460000Y-37970000D01*
X68444000Y-37970000D01*
X68444000Y-40016000D01*
X68952000Y-40016000D01*
X69460000Y-40016000D01*
D12*
X74640000Y-3980000D02*
X69230000Y-3980000D01*
X74640000Y-5990000D02*
X74640000Y-3980000D01*
X69290000Y-6010000D02*
X74640000Y-6010000D01*
D10*
G36*
X69460000Y-6016000D02*
G01*
X69460000Y-3970000D01*
X68444000Y-3970000D01*
X68444000Y-6016000D01*
X68952000Y-6016000D01*
X69460000Y-6016000D01*
G37*
X69460000Y-6016000D02*
X69460000Y-3970000D01*
X68444000Y-3970000D01*
X68444000Y-6016000D01*
X68952000Y-6016000D01*
X69460000Y-6016000D01*
D12*
X56640000Y-63680000D02*
X51230000Y-63680000D01*
X56640000Y-65690000D02*
X56640000Y-63680000D01*
X51290000Y-65710000D02*
X56640000Y-65710000D01*
D10*
G36*
X51460000Y-65716000D02*
G01*
X51460000Y-63670000D01*
X50444000Y-63670000D01*
X50444000Y-65716000D01*
X50952000Y-65716000D01*
X51460000Y-65716000D01*
G37*
X51460000Y-65716000D02*
X51460000Y-63670000D01*
X50444000Y-63670000D01*
X50444000Y-65716000D01*
X50952000Y-65716000D01*
X51460000Y-65716000D01*
D12*
X56640000Y-48980000D02*
X51230000Y-48980000D01*
X56640000Y-50990000D02*
X56640000Y-48980000D01*
X51290000Y-51010000D02*
X56640000Y-51010000D01*
D10*
G36*
X51460000Y-51016000D02*
G01*
X51460000Y-48970000D01*
X50444000Y-48970000D01*
X50444000Y-51016000D01*
X50952000Y-51016000D01*
X51460000Y-51016000D01*
G37*
X51460000Y-51016000D02*
X51460000Y-48970000D01*
X50444000Y-48970000D01*
X50444000Y-51016000D01*
X50952000Y-51016000D01*
X51460000Y-51016000D01*
D12*
X56640000Y-31980000D02*
X51230000Y-31980000D01*
X56640000Y-33990000D02*
X56640000Y-31980000D01*
X51290000Y-34010000D02*
X56640000Y-34010000D01*
D10*
G36*
X51460000Y-34016000D02*
G01*
X51460000Y-31970000D01*
X50444000Y-31970000D01*
X50444000Y-34016000D01*
X50952000Y-34016000D01*
X51460000Y-34016000D01*
G37*
X51460000Y-34016000D02*
X51460000Y-31970000D01*
X50444000Y-31970000D01*
X50444000Y-34016000D01*
X50952000Y-34016000D01*
X51460000Y-34016000D01*
D12*
X56640000Y-14980000D02*
X51230000Y-14980000D01*
X56640000Y-16990000D02*
X56640000Y-14980000D01*
X51290000Y-17010000D02*
X56640000Y-17010000D01*
D10*
G36*
X51460000Y-17016000D02*
G01*
X51460000Y-14970000D01*
X50444000Y-14970000D01*
X50444000Y-17016000D01*
X50952000Y-17016000D01*
X51460000Y-17016000D01*
G37*
X51460000Y-17016000D02*
X51460000Y-14970000D01*
X50444000Y-14970000D01*
X50444000Y-17016000D01*
X50952000Y-17016000D01*
X51460000Y-17016000D01*
D12*
X56640000Y2020000D02*
X51230000Y2020000D01*
X56640000Y10000D02*
X56640000Y2020000D01*
X51290000Y-10000D02*
X56640000Y-10000D01*
D10*
G36*
X51460000Y-16000D02*
G01*
X51460000Y2030000D01*
X50444000Y2030000D01*
X50444000Y-16000D01*
X50952000Y-16000D01*
X51460000Y-16000D01*
G37*
X51460000Y-16000D02*
X51460000Y2030000D01*
X50444000Y2030000D01*
X50444000Y-16000D01*
X50952000Y-16000D01*
X51460000Y-16000D01*
D12*
X38640000Y-68680000D02*
X33230000Y-68680000D01*
X38640000Y-70690000D02*
X38640000Y-68680000D01*
X33290000Y-70710000D02*
X38640000Y-70710000D01*
D10*
G36*
X33460000Y-70716000D02*
G01*
X33460000Y-68670000D01*
X32444000Y-68670000D01*
X32444000Y-70716000D01*
X32952000Y-70716000D01*
X33460000Y-70716000D01*
G37*
X33460000Y-70716000D02*
X33460000Y-68670000D01*
X32444000Y-68670000D01*
X32444000Y-70716000D01*
X32952000Y-70716000D01*
X33460000Y-70716000D01*
D12*
X38640000Y-53980000D02*
X33230000Y-53980000D01*
X38640000Y-55990000D02*
X38640000Y-53980000D01*
X33290000Y-56010000D02*
X38640000Y-56010000D01*
D10*
G36*
X33460000Y-56016000D02*
G01*
X33460000Y-53970000D01*
X32444000Y-53970000D01*
X32444000Y-56016000D01*
X32952000Y-56016000D01*
X33460000Y-56016000D01*
G37*
X33460000Y-56016000D02*
X33460000Y-53970000D01*
X32444000Y-53970000D01*
X32444000Y-56016000D01*
X32952000Y-56016000D01*
X33460000Y-56016000D01*
D12*
X38640000Y-36980000D02*
X33230000Y-36980000D01*
X38640000Y-38990000D02*
X38640000Y-36980000D01*
X33290000Y-39010000D02*
X38640000Y-39010000D01*
D10*
G36*
X33460000Y-39016000D02*
G01*
X33460000Y-36970000D01*
X32444000Y-36970000D01*
X32444000Y-39016000D01*
X32952000Y-39016000D01*
X33460000Y-39016000D01*
G37*
X33460000Y-39016000D02*
X33460000Y-36970000D01*
X32444000Y-36970000D01*
X32444000Y-39016000D01*
X32952000Y-39016000D01*
X33460000Y-39016000D01*
D12*
X38640000Y-19980000D02*
X33230000Y-19980000D01*
X38640000Y-21990000D02*
X38640000Y-19980000D01*
X33290000Y-22010000D02*
X38640000Y-22010000D01*
D10*
G36*
X33460000Y-22016000D02*
G01*
X33460000Y-19970000D01*
X32444000Y-19970000D01*
X32444000Y-22016000D01*
X32952000Y-22016000D01*
X33460000Y-22016000D01*
G37*
X33460000Y-22016000D02*
X33460000Y-19970000D01*
X32444000Y-19970000D01*
X32444000Y-22016000D01*
X32952000Y-22016000D01*
X33460000Y-22016000D01*
D12*
X38640000Y-2980000D02*
X33230000Y-2980000D01*
X38640000Y-4990000D02*
X38640000Y-2980000D01*
X33290000Y-5010000D02*
X38640000Y-5010000D01*
D10*
G36*
X33460000Y-5016000D02*
G01*
X33460000Y-2970000D01*
X32444000Y-2970000D01*
X32444000Y-5016000D01*
X32952000Y-5016000D01*
X33460000Y-5016000D01*
G37*
X33460000Y-5016000D02*
X33460000Y-2970000D01*
X32444000Y-2970000D01*
X32444000Y-5016000D01*
X32952000Y-5016000D01*
X33460000Y-5016000D01*
D12*
X20640000Y-71680000D02*
X15230000Y-71680000D01*
X20640000Y-73690000D02*
X20640000Y-71680000D01*
X15290000Y-73710000D02*
X20640000Y-73710000D01*
D10*
G36*
X15460000Y-73716000D02*
G01*
X15460000Y-71670000D01*
X14444000Y-71670000D01*
X14444000Y-73716000D01*
X14952000Y-73716000D01*
X15460000Y-73716000D01*
G37*
X15460000Y-73716000D02*
X15460000Y-71670000D01*
X14444000Y-71670000D01*
X14444000Y-73716000D01*
X14952000Y-73716000D01*
X15460000Y-73716000D01*
D12*
X20640000Y-56980000D02*
X15230000Y-56980000D01*
X20640000Y-58990000D02*
X20640000Y-56980000D01*
X15290000Y-59010000D02*
X20640000Y-59010000D01*
D10*
G36*
X15460000Y-59016000D02*
G01*
X15460000Y-56970000D01*
X14444000Y-56970000D01*
X14444000Y-59016000D01*
X14952000Y-59016000D01*
X15460000Y-59016000D01*
G37*
X15460000Y-59016000D02*
X15460000Y-56970000D01*
X14444000Y-56970000D01*
X14444000Y-59016000D01*
X14952000Y-59016000D01*
X15460000Y-59016000D01*
D12*
X20640000Y-39980000D02*
X15230000Y-39980000D01*
X20640000Y-41990000D02*
X20640000Y-39980000D01*
X15290000Y-42010000D02*
X20640000Y-42010000D01*
D10*
G36*
X15460000Y-42016000D02*
G01*
X15460000Y-39970000D01*
X14444000Y-39970000D01*
X14444000Y-42016000D01*
X14952000Y-42016000D01*
X15460000Y-42016000D01*
G37*
X15460000Y-42016000D02*
X15460000Y-39970000D01*
X14444000Y-39970000D01*
X14444000Y-42016000D01*
X14952000Y-42016000D01*
X15460000Y-42016000D01*
D12*
X20640000Y-22980000D02*
X15230000Y-22980000D01*
X20640000Y-24990000D02*
X20640000Y-22980000D01*
X15290000Y-25010000D02*
X20640000Y-25010000D01*
D10*
G36*
X15460000Y-25016000D02*
G01*
X15460000Y-22970000D01*
X14444000Y-22970000D01*
X14444000Y-25016000D01*
X14952000Y-25016000D01*
X15460000Y-25016000D01*
G37*
X15460000Y-25016000D02*
X15460000Y-22970000D01*
X14444000Y-22970000D01*
X14444000Y-25016000D01*
X14952000Y-25016000D01*
X15460000Y-25016000D01*
D12*
X20640000Y-5980000D02*
X15230000Y-5980000D01*
X20640000Y-7990000D02*
X20640000Y-5980000D01*
X15290000Y-8010000D02*
X20640000Y-8010000D01*
D10*
G36*
X15460000Y-8016000D02*
G01*
X15460000Y-5970000D01*
X14444000Y-5970000D01*
X14444000Y-8016000D01*
X14952000Y-8016000D01*
X15460000Y-8016000D01*
G37*
X15460000Y-8016000D02*
X15460000Y-5970000D01*
X14444000Y-5970000D01*
X14444000Y-8016000D01*
X14952000Y-8016000D01*
X15460000Y-8016000D01*
D12*
X2640000Y-71680000D02*
X-2770000Y-71680000D01*
X2640000Y-73690000D02*
X2640000Y-71680000D01*
X-2710000Y-73710000D02*
X2640000Y-73710000D01*
D10*
G36*
X-2540000Y-73716000D02*
G01*
X-2540000Y-71670000D01*
X-3556000Y-71670000D01*
X-3556000Y-73716000D01*
X-3048000Y-73716000D01*
X-2540000Y-73716000D01*
G37*
X-2540000Y-73716000D02*
X-2540000Y-71670000D01*
X-3556000Y-71670000D01*
X-3556000Y-73716000D01*
X-3048000Y-73716000D01*
X-2540000Y-73716000D01*
D12*
X2640000Y-56980000D02*
X-2770000Y-56980000D01*
X2640000Y-58990000D02*
X2640000Y-56980000D01*
X-2710000Y-59010000D02*
X2640000Y-59010000D01*
D10*
G36*
X-2540000Y-59016000D02*
G01*
X-2540000Y-56970000D01*
X-3556000Y-56970000D01*
X-3556000Y-59016000D01*
X-3048000Y-59016000D01*
X-2540000Y-59016000D01*
G37*
X-2540000Y-59016000D02*
X-2540000Y-56970000D01*
X-3556000Y-56970000D01*
X-3556000Y-59016000D01*
X-3048000Y-59016000D01*
X-2540000Y-59016000D01*
D12*
X2640000Y-39980000D02*
X-2770000Y-39980000D01*
X2640000Y-41990000D02*
X2640000Y-39980000D01*
X-2710000Y-42010000D02*
X2640000Y-42010000D01*
D10*
G36*
X-2540000Y-42016000D02*
G01*
X-2540000Y-39970000D01*
X-3556000Y-39970000D01*
X-3556000Y-42016000D01*
X-3048000Y-42016000D01*
X-2540000Y-42016000D01*
G37*
X-2540000Y-42016000D02*
X-2540000Y-39970000D01*
X-3556000Y-39970000D01*
X-3556000Y-42016000D01*
X-3048000Y-42016000D01*
X-2540000Y-42016000D01*
D12*
X2640000Y-22980000D02*
X-2770000Y-22980000D01*
X2640000Y-24990000D02*
X2640000Y-22980000D01*
X-2710000Y-25010000D02*
X2640000Y-25010000D01*
D10*
G36*
X-2540000Y-25016000D02*
G01*
X-2540000Y-22970000D01*
X-3556000Y-22970000D01*
X-3556000Y-25016000D01*
X-3048000Y-25016000D01*
X-2540000Y-25016000D01*
G37*
X-2540000Y-25016000D02*
X-2540000Y-22970000D01*
X-3556000Y-22970000D01*
X-3556000Y-25016000D01*
X-3048000Y-25016000D01*
X-2540000Y-25016000D01*
D12*
X2640000Y-5980000D02*
X-2770000Y-5980000D01*
X2640000Y-7990000D02*
X2640000Y-5980000D01*
X-2710000Y-8010000D02*
X2640000Y-8010000D01*
D10*
G36*
X-2540000Y-8016000D02*
G01*
X-2540000Y-5970000D01*
X-3556000Y-5970000D01*
X-3556000Y-8016000D01*
X-3048000Y-8016000D01*
X-2540000Y-8016000D01*
G37*
X-2540000Y-8016000D02*
X-2540000Y-5970000D01*
X-3556000Y-5970000D01*
X-3556000Y-8016000D01*
X-3048000Y-8016000D01*
X-2540000Y-8016000D01*
D11*
X99475095Y-71402380D02*
X99475095Y-72211904D01*
X99522714Y-72307142D01*
X99570333Y-72354761D01*
X99665571Y-72402380D01*
X99856047Y-72402380D01*
X99951285Y-72354761D01*
X99998904Y-72307142D01*
X100046523Y-72211904D01*
X100046523Y-71402380D01*
X100427476Y-71402380D02*
X101094142Y-71402380D01*
X100665571Y-72402380D01*
X98864095Y-7252380D02*
X98864095Y-8061904D01*
X98911714Y-8157142D01*
X98959333Y-8204761D01*
X99054571Y-8252380D01*
X99245047Y-8252380D01*
X99340285Y-8204761D01*
X99387904Y-8157142D01*
X99435523Y-8061904D01*
X99435523Y-7252380D01*
X100340285Y-7252380D02*
X100149809Y-7252380D01*
X100054571Y-7300000D01*
X100006952Y-7347619D01*
X99911714Y-7490476D01*
X99864095Y-7680952D01*
X99864095Y-8061904D01*
X99911714Y-8157142D01*
X99959333Y-8204761D01*
X100054571Y-8252380D01*
X100245047Y-8252380D01*
X100340285Y-8204761D01*
X100387904Y-8157142D01*
X100435523Y-8061904D01*
X100435523Y-7823809D01*
X100387904Y-7728571D01*
X100340285Y-7680952D01*
X100245047Y-7633333D01*
X100054571Y-7633333D01*
X99959333Y-7680952D01*
X99911714Y-7728571D01*
X99864095Y-7823809D01*
X27147095Y-70464380D02*
X27147095Y-71273904D01*
X27194714Y-71369142D01*
X27242333Y-71416761D01*
X27337571Y-71464380D01*
X27528047Y-71464380D01*
X27623285Y-71416761D01*
X27670904Y-71369142D01*
X27718523Y-71273904D01*
X27718523Y-70464380D01*
X28670904Y-70464380D02*
X28194714Y-70464380D01*
X28147095Y-70940571D01*
X28194714Y-70892952D01*
X28289952Y-70845333D01*
X28528047Y-70845333D01*
X28623285Y-70892952D01*
X28670904Y-70940571D01*
X28718523Y-71035809D01*
X28718523Y-71273904D01*
X28670904Y-71369142D01*
X28623285Y-71416761D01*
X28528047Y-71464380D01*
X28289952Y-71464380D01*
X28194714Y-71416761D01*
X28147095Y-71369142D01*
X25329095Y13959625D02*
X25329095Y13150101D01*
X25376714Y13054863D01*
X25424333Y13007244D01*
X25519571Y12959625D01*
X25710047Y12959625D01*
X25805285Y13007244D01*
X25852904Y13054863D01*
X25900523Y13150101D01*
X25900523Y13959625D01*
X26805285Y13626291D02*
X26805285Y12959625D01*
X26567190Y14007244D02*
X26329095Y13292958D01*
X26948142Y13292958D01*
X-9261904Y-55252380D02*
X-9261904Y-56061904D01*
X-9214285Y-56157142D01*
X-9166666Y-56204761D01*
X-9071428Y-56252380D01*
X-8880952Y-56252380D01*
X-8785714Y-56204761D01*
X-8738095Y-56157142D01*
X-8690476Y-56061904D01*
X-8690476Y-55252380D01*
X-8309523Y-55252380D02*
X-7690476Y-55252380D01*
X-8023809Y-55633333D01*
X-7880952Y-55633333D01*
X-7785714Y-55680952D01*
X-7738095Y-55728571D01*
X-7690476Y-55823809D01*
X-7690476Y-56061904D01*
X-7738095Y-56157142D01*
X-7785714Y-56204761D01*
X-7880952Y-56252380D01*
X-8166666Y-56252380D01*
X-8261904Y-56204761D01*
X-8309523Y-56157142D01*
X-9261904Y-4252380D02*
X-9261904Y-5061904D01*
X-9214285Y-5157142D01*
X-9166666Y-5204761D01*
X-9071428Y-5252380D01*
X-8880952Y-5252380D01*
X-8785714Y-5204761D01*
X-8738095Y-5157142D01*
X-8690476Y-5061904D01*
X-8690476Y-4252380D01*
X-8261904Y-4347619D02*
X-8214285Y-4300000D01*
X-8119047Y-4252380D01*
X-7880952Y-4252380D01*
X-7785714Y-4300000D01*
X-7738095Y-4347619D01*
X-7690476Y-4442857D01*
X-7690476Y-4538095D01*
X-7738095Y-4680952D01*
X-8309523Y-5252380D01*
X-7690476Y-5252380D01*
X111886095Y-50189904D02*
X111619428Y-49808952D01*
X111428952Y-50189904D02*
X111428952Y-49389904D01*
X111733714Y-49389904D01*
X111809904Y-49428000D01*
X111848000Y-49466095D01*
X111886095Y-49542285D01*
X111886095Y-49656571D01*
X111848000Y-49732761D01*
X111809904Y-49770857D01*
X111733714Y-49808952D01*
X111428952Y-49808952D01*
X112228952Y-49770857D02*
X112495619Y-49770857D01*
X112609904Y-50189904D02*
X112228952Y-50189904D01*
X112228952Y-49389904D01*
X112609904Y-49389904D01*
X112914666Y-50151809D02*
X113028952Y-50189904D01*
X113219428Y-50189904D01*
X113295619Y-50151809D01*
X113333714Y-50113714D01*
X113371809Y-50037523D01*
X113371809Y-49961333D01*
X113333714Y-49885142D01*
X113295619Y-49847047D01*
X113219428Y-49808952D01*
X113067047Y-49770857D01*
X112990857Y-49732761D01*
X112952761Y-49694666D01*
X112914666Y-49618476D01*
X112914666Y-49542285D01*
X112952761Y-49466095D01*
X112990857Y-49428000D01*
X113067047Y-49389904D01*
X113257523Y-49389904D01*
X113371809Y-49428000D01*
X113714666Y-49770857D02*
X113981333Y-49770857D01*
X114095619Y-50189904D02*
X113714666Y-50189904D01*
X113714666Y-49389904D01*
X114095619Y-49389904D01*
X114324190Y-49389904D02*
X114781333Y-49389904D01*
X114552761Y-50189904D02*
X114552761Y-49389904D01*
X113840380Y-15916571D02*
X113983238Y-15964190D01*
X114030857Y-16011809D01*
X114078476Y-16107047D01*
X114078476Y-16249904D01*
X114030857Y-16345142D01*
X113983238Y-16392761D01*
X113888000Y-16440380D01*
X113507047Y-16440380D01*
X113507047Y-15440380D01*
X113840380Y-15440380D01*
X113935619Y-15488000D01*
X113983238Y-15535619D01*
X114030857Y-15630857D01*
X114030857Y-15726095D01*
X113983238Y-15821333D01*
X113935619Y-15868952D01*
X113840380Y-15916571D01*
X113507047Y-15916571D01*
X114507047Y-16059428D02*
X115268952Y-16059428D01*
X114888000Y-16440380D02*
X114888000Y-15678476D01*
X113840380Y-15916571D02*
X113983238Y-15964190D01*
X114030857Y-16011809D01*
X114078476Y-16107047D01*
X114078476Y-16249904D01*
X114030857Y-16345142D01*
X113983238Y-16392761D01*
X113888000Y-16440380D01*
X113507047Y-16440380D01*
X113507047Y-15440380D01*
X113840380Y-15440380D01*
X113935619Y-15488000D01*
X113983238Y-15535619D01*
X114030857Y-15630857D01*
X114030857Y-15726095D01*
X113983238Y-15821333D01*
X113935619Y-15868952D01*
X113840380Y-15916571D01*
X113507047Y-15916571D01*
X114507047Y-16059428D02*
X115268952Y-16059428D01*
X114888000Y-16440380D02*
X114888000Y-15678476D01*
X102790380Y-15896571D02*
X102933238Y-15944190D01*
X102980857Y-15991809D01*
X103028476Y-16087047D01*
X103028476Y-16229904D01*
X102980857Y-16325142D01*
X102933238Y-16372761D01*
X102838000Y-16420380D01*
X102457047Y-16420380D01*
X102457047Y-15420380D01*
X102790380Y-15420380D01*
X102885619Y-15468000D01*
X102933238Y-15515619D01*
X102980857Y-15610857D01*
X102980857Y-15706095D01*
X102933238Y-15801333D01*
X102885619Y-15848952D01*
X102790380Y-15896571D01*
X102457047Y-15896571D01*
X103457047Y-16039428D02*
X104218952Y-16039428D01*
X102790380Y-15896571D02*
X102933238Y-15944190D01*
X102980857Y-15991809D01*
X103028476Y-16087047D01*
X103028476Y-16229904D01*
X102980857Y-16325142D01*
X102933238Y-16372761D01*
X102838000Y-16420380D01*
X102457047Y-16420380D01*
X102457047Y-15420380D01*
X102790380Y-15420380D01*
X102885619Y-15468000D01*
X102933238Y-15515619D01*
X102980857Y-15610857D01*
X102980857Y-15706095D01*
X102933238Y-15801333D01*
X102885619Y-15848952D01*
X102790380Y-15896571D01*
X102457047Y-15896571D01*
X103457047Y-16039428D02*
X104218952Y-16039428D01*
X113967786Y-23921809D02*
X114082072Y-23959904D01*
X114272548Y-23959904D01*
X114348739Y-23921809D01*
X114386834Y-23883714D01*
X114424929Y-23807523D01*
X114424929Y-23731333D01*
X114386834Y-23655142D01*
X114348739Y-23617047D01*
X114272548Y-23578952D01*
X114120167Y-23540857D01*
X114043977Y-23502761D01*
X114005881Y-23464666D01*
X113967786Y-23388476D01*
X113967786Y-23312285D01*
X114005881Y-23236095D01*
X114043977Y-23198000D01*
X114120167Y-23159904D01*
X114310643Y-23159904D01*
X114424929Y-23198000D01*
X114653500Y-23159904D02*
X115110643Y-23159904D01*
X114882072Y-23959904D02*
X114882072Y-23159904D01*
X102697476Y-23228000D02*
X102621285Y-23189904D01*
X102507000Y-23189904D01*
X102392714Y-23228000D01*
X102316523Y-23304190D01*
X102278428Y-23380380D01*
X102240333Y-23532761D01*
X102240333Y-23647047D01*
X102278428Y-23799428D01*
X102316523Y-23875619D01*
X102392714Y-23951809D01*
X102507000Y-23989904D01*
X102583190Y-23989904D01*
X102697476Y-23951809D01*
X102735571Y-23913714D01*
X102735571Y-23647047D01*
X102583190Y-23647047D01*
X103078428Y-23989904D02*
X103078428Y-23189904D01*
X103535571Y-23989904D01*
X103535571Y-23189904D01*
X103916523Y-23989904D02*
X103916523Y-23189904D01*
X104107000Y-23189904D01*
X104221285Y-23228000D01*
X104297476Y-23304190D01*
X104335571Y-23380380D01*
X104373666Y-23532761D01*
X104373666Y-23647047D01*
X104335571Y-23799428D01*
X104297476Y-23875619D01*
X104221285Y-23951809D01*
X104107000Y-23989904D01*
X103916523Y-23989904D01*
X113905190Y-43890857D02*
X114019476Y-43928952D01*
X114057571Y-43967047D01*
X114095666Y-44043238D01*
X114095666Y-44157523D01*
X114057571Y-44233714D01*
X114019476Y-44271809D01*
X113943285Y-44309904D01*
X113638523Y-44309904D01*
X113638523Y-43509904D01*
X113905190Y-43509904D01*
X113981380Y-43548000D01*
X114019476Y-43586095D01*
X114057571Y-43662285D01*
X114057571Y-43738476D01*
X114019476Y-43814666D01*
X113981380Y-43852761D01*
X113905190Y-43890857D01*
X113638523Y-43890857D01*
X114400428Y-43586095D02*
X114438523Y-43548000D01*
X114514714Y-43509904D01*
X114705190Y-43509904D01*
X114781380Y-43548000D01*
X114819476Y-43586095D01*
X114857571Y-43662285D01*
X114857571Y-43738476D01*
X114819476Y-43852761D01*
X114362333Y-44309904D01*
X114857571Y-44309904D01*
X113962333Y-36270857D02*
X113695666Y-36270857D01*
X113695666Y-36689904D02*
X113695666Y-35889904D01*
X114076619Y-35889904D01*
X114305190Y-35889904D02*
X114838523Y-35889904D01*
X114495666Y-36689904D01*
X113962333Y-33730857D02*
X113695666Y-33730857D01*
X113695666Y-34149904D02*
X113695666Y-33349904D01*
X114076619Y-33349904D01*
X114724238Y-33349904D02*
X114571857Y-33349904D01*
X114495666Y-33388000D01*
X114457571Y-33426095D01*
X114381380Y-33540380D01*
X114343285Y-33692761D01*
X114343285Y-33997523D01*
X114381380Y-34073714D01*
X114419476Y-34111809D01*
X114495666Y-34149904D01*
X114648047Y-34149904D01*
X114724238Y-34111809D01*
X114762333Y-34073714D01*
X114800428Y-33997523D01*
X114800428Y-33807047D01*
X114762333Y-33730857D01*
X114724238Y-33692761D01*
X114648047Y-33654666D01*
X114495666Y-33654666D01*
X114419476Y-33692761D01*
X114381380Y-33730857D01*
X114343285Y-33807047D01*
X113962333Y-31190857D02*
X113695666Y-31190857D01*
X113695666Y-31609904D02*
X113695666Y-30809904D01*
X114076619Y-30809904D01*
X114762333Y-30809904D02*
X114381380Y-30809904D01*
X114343285Y-31190857D01*
X114381380Y-31152761D01*
X114457571Y-31114666D01*
X114648047Y-31114666D01*
X114724238Y-31152761D01*
X114762333Y-31190857D01*
X114800428Y-31267047D01*
X114800428Y-31457523D01*
X114762333Y-31533714D01*
X114724238Y-31571809D01*
X114648047Y-31609904D01*
X114457571Y-31609904D01*
X114381380Y-31571809D01*
X114343285Y-31533714D01*
X113967786Y-23921809D02*
X114082072Y-23959904D01*
X114272548Y-23959904D01*
X114348739Y-23921809D01*
X114386834Y-23883714D01*
X114424929Y-23807523D01*
X114424929Y-23731333D01*
X114386834Y-23655142D01*
X114348739Y-23617047D01*
X114272548Y-23578952D01*
X114120167Y-23540857D01*
X114043977Y-23502761D01*
X114005881Y-23464666D01*
X113967786Y-23388476D01*
X113967786Y-23312285D01*
X114005881Y-23236095D01*
X114043977Y-23198000D01*
X114120167Y-23159904D01*
X114310643Y-23159904D01*
X114424929Y-23198000D01*
X114653500Y-23159904D02*
X115110643Y-23159904D01*
X114882072Y-23959904D02*
X114882072Y-23159904D01*
X113619476Y-20688000D02*
X113543285Y-20649904D01*
X113429000Y-20649904D01*
X113314714Y-20688000D01*
X113238523Y-20764190D01*
X113200428Y-20840380D01*
X113162333Y-20992761D01*
X113162333Y-21107047D01*
X113200428Y-21259428D01*
X113238523Y-21335619D01*
X113314714Y-21411809D01*
X113429000Y-21449904D01*
X113505190Y-21449904D01*
X113619476Y-21411809D01*
X113657571Y-21373714D01*
X113657571Y-21107047D01*
X113505190Y-21107047D01*
X114000428Y-21449904D02*
X114000428Y-20649904D01*
X114457571Y-21449904D01*
X114457571Y-20649904D01*
X114838523Y-21449904D02*
X114838523Y-20649904D01*
X115029000Y-20649904D01*
X115143285Y-20688000D01*
X115219476Y-20764190D01*
X115257571Y-20840380D01*
X115295666Y-20992761D01*
X115295666Y-21107047D01*
X115257571Y-21259428D01*
X115219476Y-21335619D01*
X115143285Y-21411809D01*
X115029000Y-21449904D01*
X114838523Y-21449904D01*
X113962333Y-31190857D02*
X113695666Y-31190857D01*
X113695666Y-31609904D02*
X113695666Y-30809904D01*
X114076619Y-30809904D01*
X114762333Y-30809904D02*
X114381380Y-30809904D01*
X114343285Y-31190857D01*
X114381380Y-31152761D01*
X114457571Y-31114666D01*
X114648047Y-31114666D01*
X114724238Y-31152761D01*
X114762333Y-31190857D01*
X114800428Y-31267047D01*
X114800428Y-31457523D01*
X114762333Y-31533714D01*
X114724238Y-31571809D01*
X114648047Y-31609904D01*
X114457571Y-31609904D01*
X114381380Y-31571809D01*
X114343285Y-31533714D01*
X113962333Y-33730857D02*
X113695666Y-33730857D01*
X113695666Y-34149904D02*
X113695666Y-33349904D01*
X114076619Y-33349904D01*
X114724238Y-33349904D02*
X114571857Y-33349904D01*
X114495666Y-33388000D01*
X114457571Y-33426095D01*
X114381380Y-33540380D01*
X114343285Y-33692761D01*
X114343285Y-33997523D01*
X114381380Y-34073714D01*
X114419476Y-34111809D01*
X114495666Y-34149904D01*
X114648047Y-34149904D01*
X114724238Y-34111809D01*
X114762333Y-34073714D01*
X114800428Y-33997523D01*
X114800428Y-33807047D01*
X114762333Y-33730857D01*
X114724238Y-33692761D01*
X114648047Y-33654666D01*
X114495666Y-33654666D01*
X114419476Y-33692761D01*
X114381380Y-33730857D01*
X114343285Y-33807047D01*
X113962333Y-36270857D02*
X113695666Y-36270857D01*
X113695666Y-36689904D02*
X113695666Y-35889904D01*
X114076619Y-35889904D01*
X114305190Y-35889904D02*
X114838523Y-35889904D01*
X114495666Y-36689904D01*
X113905190Y-43890857D02*
X114019476Y-43928952D01*
X114057571Y-43967047D01*
X114095666Y-44043238D01*
X114095666Y-44157523D01*
X114057571Y-44233714D01*
X114019476Y-44271809D01*
X113943285Y-44309904D01*
X113638523Y-44309904D01*
X113638523Y-43509904D01*
X113905190Y-43509904D01*
X113981380Y-43548000D01*
X114019476Y-43586095D01*
X114057571Y-43662285D01*
X114057571Y-43738476D01*
X114019476Y-43814666D01*
X113981380Y-43852761D01*
X113905190Y-43890857D01*
X113638523Y-43890857D01*
X114400428Y-43586095D02*
X114438523Y-43548000D01*
X114514714Y-43509904D01*
X114705190Y-43509904D01*
X114781380Y-43548000D01*
X114819476Y-43586095D01*
X114857571Y-43662285D01*
X114857571Y-43738476D01*
X114819476Y-43852761D01*
X114362333Y-44309904D01*
X114857571Y-44309904D01*
X109809761Y-69254523D02*
X109857380Y-69111666D01*
X109857380Y-68873571D01*
X109809761Y-68778333D01*
X109762142Y-68730714D01*
X109666904Y-68683095D01*
X109571666Y-68683095D01*
X109476428Y-68730714D01*
X109428809Y-68778333D01*
X109381190Y-68873571D01*
X109333571Y-69064047D01*
X109285952Y-69159285D01*
X109238333Y-69206904D01*
X109143095Y-69254523D01*
X109047857Y-69254523D01*
X108952619Y-69206904D01*
X108905000Y-69159285D01*
X108857380Y-69064047D01*
X108857380Y-68825952D01*
X108905000Y-68683095D01*
X108857380Y-68349761D02*
X109857380Y-68111666D01*
X109143095Y-67921190D01*
X109857380Y-67730714D01*
X108857380Y-67492619D01*
X108857380Y-67206904D02*
X108857380Y-66587857D01*
X109238333Y-66921190D01*
X109238333Y-66778333D01*
X109285952Y-66683095D01*
X109333571Y-66635476D01*
X109428809Y-66587857D01*
X109666904Y-66587857D01*
X109762142Y-66635476D01*
X109809761Y-66683095D01*
X109857380Y-66778333D01*
X109857380Y-67064047D01*
X109809761Y-67159285D01*
X109762142Y-67206904D01*
X108857380Y-65968809D02*
X108857380Y-65873571D01*
X108905000Y-65778333D01*
X108952619Y-65730714D01*
X109047857Y-65683095D01*
X109238333Y-65635476D01*
X109476428Y-65635476D01*
X109666904Y-65683095D01*
X109762142Y-65730714D01*
X109809761Y-65778333D01*
X109857380Y-65873571D01*
X109857380Y-65968809D01*
X109809761Y-66064047D01*
X109762142Y-66111666D01*
X109666904Y-66159285D01*
X109476428Y-66206904D01*
X109238333Y-66206904D01*
X109047857Y-66159285D01*
X108952619Y-66111666D01*
X108905000Y-66064047D01*
X108857380Y-65968809D01*
X83745476Y-73309761D02*
X83888333Y-73357380D01*
X84126428Y-73357380D01*
X84221666Y-73309761D01*
X84269285Y-73262142D01*
X84316904Y-73166904D01*
X84316904Y-73071666D01*
X84269285Y-72976428D01*
X84221666Y-72928809D01*
X84126428Y-72881190D01*
X83935952Y-72833571D01*
X83840714Y-72785952D01*
X83793095Y-72738333D01*
X83745476Y-72643095D01*
X83745476Y-72547857D01*
X83793095Y-72452619D01*
X83840714Y-72405000D01*
X83935952Y-72357380D01*
X84174047Y-72357380D01*
X84316904Y-72405000D01*
X84650238Y-72357380D02*
X84888333Y-73357380D01*
X85078809Y-72643095D01*
X85269285Y-73357380D01*
X85507380Y-72357380D01*
X85840714Y-72452619D02*
X85888333Y-72405000D01*
X85983571Y-72357380D01*
X86221666Y-72357380D01*
X86316904Y-72405000D01*
X86364523Y-72452619D01*
X86412142Y-72547857D01*
X86412142Y-72643095D01*
X86364523Y-72785952D01*
X85793095Y-73357380D01*
X86412142Y-73357380D01*
X86888333Y-73357380D02*
X87078809Y-73357380D01*
X87174047Y-73309761D01*
X87221666Y-73262142D01*
X87316904Y-73119285D01*
X87364523Y-72928809D01*
X87364523Y-72547857D01*
X87316904Y-72452619D01*
X87269285Y-72405000D01*
X87174047Y-72357380D01*
X86983571Y-72357380D01*
X86888333Y-72405000D01*
X86840714Y-72452619D01*
X86793095Y-72547857D01*
X86793095Y-72785952D01*
X86840714Y-72881190D01*
X86888333Y-72928809D01*
X86983571Y-72976428D01*
X87174047Y-72976428D01*
X87269285Y-72928809D01*
X87316904Y-72881190D01*
X87364523Y-72785952D01*
X83745476Y-56309761D02*
X83888333Y-56357380D01*
X84126428Y-56357380D01*
X84221666Y-56309761D01*
X84269285Y-56262142D01*
X84316904Y-56166904D01*
X84316904Y-56071666D01*
X84269285Y-55976428D01*
X84221666Y-55928809D01*
X84126428Y-55881190D01*
X83935952Y-55833571D01*
X83840714Y-55785952D01*
X83793095Y-55738333D01*
X83745476Y-55643095D01*
X83745476Y-55547857D01*
X83793095Y-55452619D01*
X83840714Y-55405000D01*
X83935952Y-55357380D01*
X84174047Y-55357380D01*
X84316904Y-55405000D01*
X84650238Y-55357380D02*
X84888333Y-56357380D01*
X85078809Y-55643095D01*
X85269285Y-56357380D01*
X85507380Y-55357380D01*
X85840714Y-55452619D02*
X85888333Y-55405000D01*
X85983571Y-55357380D01*
X86221666Y-55357380D01*
X86316904Y-55405000D01*
X86364523Y-55452619D01*
X86412142Y-55547857D01*
X86412142Y-55643095D01*
X86364523Y-55785952D01*
X85793095Y-56357380D01*
X86412142Y-56357380D01*
X86983571Y-55785952D02*
X86888333Y-55738333D01*
X86840714Y-55690714D01*
X86793095Y-55595476D01*
X86793095Y-55547857D01*
X86840714Y-55452619D01*
X86888333Y-55405000D01*
X86983571Y-55357380D01*
X87174047Y-55357380D01*
X87269285Y-55405000D01*
X87316904Y-55452619D01*
X87364523Y-55547857D01*
X87364523Y-55595476D01*
X87316904Y-55690714D01*
X87269285Y-55738333D01*
X87174047Y-55785952D01*
X86983571Y-55785952D01*
X86888333Y-55833571D01*
X86840714Y-55881190D01*
X86793095Y-55976428D01*
X86793095Y-56166904D01*
X86840714Y-56262142D01*
X86888333Y-56309761D01*
X86983571Y-56357380D01*
X87174047Y-56357380D01*
X87269285Y-56309761D01*
X87316904Y-56262142D01*
X87364523Y-56166904D01*
X87364523Y-55976428D01*
X87316904Y-55881190D01*
X87269285Y-55833571D01*
X87174047Y-55785952D01*
X83745476Y-39309761D02*
X83888333Y-39357380D01*
X84126428Y-39357380D01*
X84221666Y-39309761D01*
X84269285Y-39262142D01*
X84316904Y-39166904D01*
X84316904Y-39071666D01*
X84269285Y-38976428D01*
X84221666Y-38928809D01*
X84126428Y-38881190D01*
X83935952Y-38833571D01*
X83840714Y-38785952D01*
X83793095Y-38738333D01*
X83745476Y-38643095D01*
X83745476Y-38547857D01*
X83793095Y-38452619D01*
X83840714Y-38405000D01*
X83935952Y-38357380D01*
X84174047Y-38357380D01*
X84316904Y-38405000D01*
X84650238Y-38357380D02*
X84888333Y-39357380D01*
X85078809Y-38643095D01*
X85269285Y-39357380D01*
X85507380Y-38357380D01*
X85840714Y-38452619D02*
X85888333Y-38405000D01*
X85983571Y-38357380D01*
X86221666Y-38357380D01*
X86316904Y-38405000D01*
X86364523Y-38452619D01*
X86412142Y-38547857D01*
X86412142Y-38643095D01*
X86364523Y-38785952D01*
X85793095Y-39357380D01*
X86412142Y-39357380D01*
X86745476Y-38357380D02*
X87412142Y-38357380D01*
X86983571Y-39357380D01*
X83745476Y-22309761D02*
X83888333Y-22357380D01*
X84126428Y-22357380D01*
X84221666Y-22309761D01*
X84269285Y-22262142D01*
X84316904Y-22166904D01*
X84316904Y-22071666D01*
X84269285Y-21976428D01*
X84221666Y-21928809D01*
X84126428Y-21881190D01*
X83935952Y-21833571D01*
X83840714Y-21785952D01*
X83793095Y-21738333D01*
X83745476Y-21643095D01*
X83745476Y-21547857D01*
X83793095Y-21452619D01*
X83840714Y-21405000D01*
X83935952Y-21357380D01*
X84174047Y-21357380D01*
X84316904Y-21405000D01*
X84650238Y-21357380D02*
X84888333Y-22357380D01*
X85078809Y-21643095D01*
X85269285Y-22357380D01*
X85507380Y-21357380D01*
X85840714Y-21452619D02*
X85888333Y-21405000D01*
X85983571Y-21357380D01*
X86221666Y-21357380D01*
X86316904Y-21405000D01*
X86364523Y-21452619D01*
X86412142Y-21547857D01*
X86412142Y-21643095D01*
X86364523Y-21785952D01*
X85793095Y-22357380D01*
X86412142Y-22357380D01*
X87269285Y-21357380D02*
X87078809Y-21357380D01*
X86983571Y-21405000D01*
X86935952Y-21452619D01*
X86840714Y-21595476D01*
X86793095Y-21785952D01*
X86793095Y-22166904D01*
X86840714Y-22262142D01*
X86888333Y-22309761D01*
X86983571Y-22357380D01*
X87174047Y-22357380D01*
X87269285Y-22309761D01*
X87316904Y-22262142D01*
X87364523Y-22166904D01*
X87364523Y-21928809D01*
X87316904Y-21833571D01*
X87269285Y-21785952D01*
X87174047Y-21738333D01*
X86983571Y-21738333D01*
X86888333Y-21785952D01*
X86840714Y-21833571D01*
X86793095Y-21928809D01*
X83745476Y-5309761D02*
X83888333Y-5357380D01*
X84126428Y-5357380D01*
X84221666Y-5309761D01*
X84269285Y-5262142D01*
X84316904Y-5166904D01*
X84316904Y-5071666D01*
X84269285Y-4976428D01*
X84221666Y-4928809D01*
X84126428Y-4881190D01*
X83935952Y-4833571D01*
X83840714Y-4785952D01*
X83793095Y-4738333D01*
X83745476Y-4643095D01*
X83745476Y-4547857D01*
X83793095Y-4452619D01*
X83840714Y-4405000D01*
X83935952Y-4357380D01*
X84174047Y-4357380D01*
X84316904Y-4405000D01*
X84650238Y-4357380D02*
X84888333Y-5357380D01*
X85078809Y-4643095D01*
X85269285Y-5357380D01*
X85507380Y-4357380D01*
X85840714Y-4452619D02*
X85888333Y-4405000D01*
X85983571Y-4357380D01*
X86221666Y-4357380D01*
X86316904Y-4405000D01*
X86364523Y-4452619D01*
X86412142Y-4547857D01*
X86412142Y-4643095D01*
X86364523Y-4785952D01*
X85793095Y-5357380D01*
X86412142Y-5357380D01*
X87316904Y-4357380D02*
X86840714Y-4357380D01*
X86793095Y-4833571D01*
X86840714Y-4785952D01*
X86935952Y-4738333D01*
X87174047Y-4738333D01*
X87269285Y-4785952D01*
X87316904Y-4833571D01*
X87364523Y-4928809D01*
X87364523Y-5166904D01*
X87316904Y-5262142D01*
X87269285Y-5309761D01*
X87174047Y-5357380D01*
X86935952Y-5357380D01*
X86840714Y-5309761D01*
X86793095Y-5262142D01*
X65745476Y-68309761D02*
X65888333Y-68357380D01*
X66126428Y-68357380D01*
X66221666Y-68309761D01*
X66269285Y-68262142D01*
X66316904Y-68166904D01*
X66316904Y-68071666D01*
X66269285Y-67976428D01*
X66221666Y-67928809D01*
X66126428Y-67881190D01*
X65935952Y-67833571D01*
X65840714Y-67785952D01*
X65793095Y-67738333D01*
X65745476Y-67643095D01*
X65745476Y-67547857D01*
X65793095Y-67452619D01*
X65840714Y-67405000D01*
X65935952Y-67357380D01*
X66174047Y-67357380D01*
X66316904Y-67405000D01*
X66650238Y-67357380D02*
X66888333Y-68357380D01*
X67078809Y-67643095D01*
X67269285Y-68357380D01*
X67507380Y-67357380D01*
X67840714Y-67452619D02*
X67888333Y-67405000D01*
X67983571Y-67357380D01*
X68221666Y-67357380D01*
X68316904Y-67405000D01*
X68364523Y-67452619D01*
X68412142Y-67547857D01*
X68412142Y-67643095D01*
X68364523Y-67785952D01*
X67793095Y-68357380D01*
X68412142Y-68357380D01*
X69269285Y-67690714D02*
X69269285Y-68357380D01*
X69031190Y-67309761D02*
X68793095Y-68024047D01*
X69412142Y-68024047D01*
X65745476Y-51309761D02*
X65888333Y-51357380D01*
X66126428Y-51357380D01*
X66221666Y-51309761D01*
X66269285Y-51262142D01*
X66316904Y-51166904D01*
X66316904Y-51071666D01*
X66269285Y-50976428D01*
X66221666Y-50928809D01*
X66126428Y-50881190D01*
X65935952Y-50833571D01*
X65840714Y-50785952D01*
X65793095Y-50738333D01*
X65745476Y-50643095D01*
X65745476Y-50547857D01*
X65793095Y-50452619D01*
X65840714Y-50405000D01*
X65935952Y-50357380D01*
X66174047Y-50357380D01*
X66316904Y-50405000D01*
X66650238Y-50357380D02*
X66888333Y-51357380D01*
X67078809Y-50643095D01*
X67269285Y-51357380D01*
X67507380Y-50357380D01*
X67840714Y-50452619D02*
X67888333Y-50405000D01*
X67983571Y-50357380D01*
X68221666Y-50357380D01*
X68316904Y-50405000D01*
X68364523Y-50452619D01*
X68412142Y-50547857D01*
X68412142Y-50643095D01*
X68364523Y-50785952D01*
X67793095Y-51357380D01*
X68412142Y-51357380D01*
X68745476Y-50357380D02*
X69364523Y-50357380D01*
X69031190Y-50738333D01*
X69174047Y-50738333D01*
X69269285Y-50785952D01*
X69316904Y-50833571D01*
X69364523Y-50928809D01*
X69364523Y-51166904D01*
X69316904Y-51262142D01*
X69269285Y-51309761D01*
X69174047Y-51357380D01*
X68888333Y-51357380D01*
X68793095Y-51309761D01*
X68745476Y-51262142D01*
X65745476Y-34309761D02*
X65888333Y-34357380D01*
X66126428Y-34357380D01*
X66221666Y-34309761D01*
X66269285Y-34262142D01*
X66316904Y-34166904D01*
X66316904Y-34071666D01*
X66269285Y-33976428D01*
X66221666Y-33928809D01*
X66126428Y-33881190D01*
X65935952Y-33833571D01*
X65840714Y-33785952D01*
X65793095Y-33738333D01*
X65745476Y-33643095D01*
X65745476Y-33547857D01*
X65793095Y-33452619D01*
X65840714Y-33405000D01*
X65935952Y-33357380D01*
X66174047Y-33357380D01*
X66316904Y-33405000D01*
X66650238Y-33357380D02*
X66888333Y-34357380D01*
X67078809Y-33643095D01*
X67269285Y-34357380D01*
X67507380Y-33357380D01*
X67840714Y-33452619D02*
X67888333Y-33405000D01*
X67983571Y-33357380D01*
X68221666Y-33357380D01*
X68316904Y-33405000D01*
X68364523Y-33452619D01*
X68412142Y-33547857D01*
X68412142Y-33643095D01*
X68364523Y-33785952D01*
X67793095Y-34357380D01*
X68412142Y-34357380D01*
X68793095Y-33452619D02*
X68840714Y-33405000D01*
X68935952Y-33357380D01*
X69174047Y-33357380D01*
X69269285Y-33405000D01*
X69316904Y-33452619D01*
X69364523Y-33547857D01*
X69364523Y-33643095D01*
X69316904Y-33785952D01*
X68745476Y-34357380D01*
X69364523Y-34357380D01*
X65745476Y-17309761D02*
X65888333Y-17357380D01*
X66126428Y-17357380D01*
X66221666Y-17309761D01*
X66269285Y-17262142D01*
X66316904Y-17166904D01*
X66316904Y-17071666D01*
X66269285Y-16976428D01*
X66221666Y-16928809D01*
X66126428Y-16881190D01*
X65935952Y-16833571D01*
X65840714Y-16785952D01*
X65793095Y-16738333D01*
X65745476Y-16643095D01*
X65745476Y-16547857D01*
X65793095Y-16452619D01*
X65840714Y-16405000D01*
X65935952Y-16357380D01*
X66174047Y-16357380D01*
X66316904Y-16405000D01*
X66650238Y-16357380D02*
X66888333Y-17357380D01*
X67078809Y-16643095D01*
X67269285Y-17357380D01*
X67507380Y-16357380D01*
X67840714Y-16452619D02*
X67888333Y-16405000D01*
X67983571Y-16357380D01*
X68221666Y-16357380D01*
X68316904Y-16405000D01*
X68364523Y-16452619D01*
X68412142Y-16547857D01*
X68412142Y-16643095D01*
X68364523Y-16785952D01*
X67793095Y-17357380D01*
X68412142Y-17357380D01*
X69364523Y-17357380D02*
X68793095Y-17357380D01*
X69078809Y-17357380D02*
X69078809Y-16357380D01*
X68983571Y-16500238D01*
X68888333Y-16595476D01*
X68793095Y-16643095D01*
X65745476Y-309761D02*
X65888333Y-357380D01*
X66126428Y-357380D01*
X66221666Y-309761D01*
X66269285Y-262142D01*
X66316904Y-166904D01*
X66316904Y-71666D01*
X66269285Y23571D01*
X66221666Y71190D01*
X66126428Y118809D01*
X65935952Y166428D01*
X65840714Y214047D01*
X65793095Y261666D01*
X65745476Y356904D01*
X65745476Y452142D01*
X65793095Y547380D01*
X65840714Y595000D01*
X65935952Y642619D01*
X66174047Y642619D01*
X66316904Y595000D01*
X66650238Y642619D02*
X66888333Y-357380D01*
X67078809Y356904D01*
X67269285Y-357380D01*
X67507380Y642619D01*
X67840714Y547380D02*
X67888333Y595000D01*
X67983571Y642619D01*
X68221666Y642619D01*
X68316904Y595000D01*
X68364523Y547380D01*
X68412142Y452142D01*
X68412142Y356904D01*
X68364523Y214047D01*
X67793095Y-357380D01*
X68412142Y-357380D01*
X69031190Y642619D02*
X69126428Y642619D01*
X69221666Y595000D01*
X69269285Y547380D01*
X69316904Y452142D01*
X69364523Y261666D01*
X69364523Y23571D01*
X69316904Y-166904D01*
X69269285Y-262142D01*
X69221666Y-309761D01*
X69126428Y-357380D01*
X69031190Y-357380D01*
X68935952Y-309761D01*
X68888333Y-262142D01*
X68840714Y-166904D01*
X68793095Y23571D01*
X68793095Y261666D01*
X68840714Y452142D01*
X68888333Y547380D01*
X68935952Y595000D01*
X69031190Y642619D01*
X47745476Y-62309761D02*
X47888333Y-62357380D01*
X48126428Y-62357380D01*
X48221666Y-62309761D01*
X48269285Y-62262142D01*
X48316904Y-62166904D01*
X48316904Y-62071666D01*
X48269285Y-61976428D01*
X48221666Y-61928809D01*
X48126428Y-61881190D01*
X47935952Y-61833571D01*
X47840714Y-61785952D01*
X47793095Y-61738333D01*
X47745476Y-61643095D01*
X47745476Y-61547857D01*
X47793095Y-61452619D01*
X47840714Y-61405000D01*
X47935952Y-61357380D01*
X48174047Y-61357380D01*
X48316904Y-61405000D01*
X48650238Y-61357380D02*
X48888333Y-62357380D01*
X49078809Y-61643095D01*
X49269285Y-62357380D01*
X49507380Y-61357380D01*
X50412142Y-62357380D02*
X49840714Y-62357380D01*
X50126428Y-62357380D02*
X50126428Y-61357380D01*
X50031190Y-61500238D01*
X49935952Y-61595476D01*
X49840714Y-61643095D01*
X50888333Y-62357380D02*
X51078809Y-62357380D01*
X51174047Y-62309761D01*
X51221666Y-62262142D01*
X51316904Y-62119285D01*
X51364523Y-61928809D01*
X51364523Y-61547857D01*
X51316904Y-61452619D01*
X51269285Y-61405000D01*
X51174047Y-61357380D01*
X50983571Y-61357380D01*
X50888333Y-61405000D01*
X50840714Y-61452619D01*
X50793095Y-61547857D01*
X50793095Y-61785952D01*
X50840714Y-61881190D01*
X50888333Y-61928809D01*
X50983571Y-61976428D01*
X51174047Y-61976428D01*
X51269285Y-61928809D01*
X51316904Y-61881190D01*
X51364523Y-61785952D01*
X47745476Y-45309761D02*
X47888333Y-45357380D01*
X48126428Y-45357380D01*
X48221666Y-45309761D01*
X48269285Y-45262142D01*
X48316904Y-45166904D01*
X48316904Y-45071666D01*
X48269285Y-44976428D01*
X48221666Y-44928809D01*
X48126428Y-44881190D01*
X47935952Y-44833571D01*
X47840714Y-44785952D01*
X47793095Y-44738333D01*
X47745476Y-44643095D01*
X47745476Y-44547857D01*
X47793095Y-44452619D01*
X47840714Y-44405000D01*
X47935952Y-44357380D01*
X48174047Y-44357380D01*
X48316904Y-44405000D01*
X48650238Y-44357380D02*
X48888333Y-45357380D01*
X49078809Y-44643095D01*
X49269285Y-45357380D01*
X49507380Y-44357380D01*
X50412142Y-45357380D02*
X49840714Y-45357380D01*
X50126428Y-45357380D02*
X50126428Y-44357380D01*
X50031190Y-44500238D01*
X49935952Y-44595476D01*
X49840714Y-44643095D01*
X50983571Y-44785952D02*
X50888333Y-44738333D01*
X50840714Y-44690714D01*
X50793095Y-44595476D01*
X50793095Y-44547857D01*
X50840714Y-44452619D01*
X50888333Y-44405000D01*
X50983571Y-44357380D01*
X51174047Y-44357380D01*
X51269285Y-44405000D01*
X51316904Y-44452619D01*
X51364523Y-44547857D01*
X51364523Y-44595476D01*
X51316904Y-44690714D01*
X51269285Y-44738333D01*
X51174047Y-44785952D01*
X50983571Y-44785952D01*
X50888333Y-44833571D01*
X50840714Y-44881190D01*
X50793095Y-44976428D01*
X50793095Y-45166904D01*
X50840714Y-45262142D01*
X50888333Y-45309761D01*
X50983571Y-45357380D01*
X51174047Y-45357380D01*
X51269285Y-45309761D01*
X51316904Y-45262142D01*
X51364523Y-45166904D01*
X51364523Y-44976428D01*
X51316904Y-44881190D01*
X51269285Y-44833571D01*
X51174047Y-44785952D01*
X47745476Y-28309761D02*
X47888333Y-28357380D01*
X48126428Y-28357380D01*
X48221666Y-28309761D01*
X48269285Y-28262142D01*
X48316904Y-28166904D01*
X48316904Y-28071666D01*
X48269285Y-27976428D01*
X48221666Y-27928809D01*
X48126428Y-27881190D01*
X47935952Y-27833571D01*
X47840714Y-27785952D01*
X47793095Y-27738333D01*
X47745476Y-27643095D01*
X47745476Y-27547857D01*
X47793095Y-27452619D01*
X47840714Y-27405000D01*
X47935952Y-27357380D01*
X48174047Y-27357380D01*
X48316904Y-27405000D01*
X48650238Y-27357380D02*
X48888333Y-28357380D01*
X49078809Y-27643095D01*
X49269285Y-28357380D01*
X49507380Y-27357380D01*
X50412142Y-28357380D02*
X49840714Y-28357380D01*
X50126428Y-28357380D02*
X50126428Y-27357380D01*
X50031190Y-27500238D01*
X49935952Y-27595476D01*
X49840714Y-27643095D01*
X50745476Y-27357380D02*
X51412142Y-27357380D01*
X50983571Y-28357380D01*
X47745476Y-11309761D02*
X47888333Y-11357380D01*
X48126428Y-11357380D01*
X48221666Y-11309761D01*
X48269285Y-11262142D01*
X48316904Y-11166904D01*
X48316904Y-11071666D01*
X48269285Y-10976428D01*
X48221666Y-10928809D01*
X48126428Y-10881190D01*
X47935952Y-10833571D01*
X47840714Y-10785952D01*
X47793095Y-10738333D01*
X47745476Y-10643095D01*
X47745476Y-10547857D01*
X47793095Y-10452619D01*
X47840714Y-10405000D01*
X47935952Y-10357380D01*
X48174047Y-10357380D01*
X48316904Y-10405000D01*
X48650238Y-10357380D02*
X48888333Y-11357380D01*
X49078809Y-10643095D01*
X49269285Y-11357380D01*
X49507380Y-10357380D01*
X50412142Y-11357380D02*
X49840714Y-11357380D01*
X50126428Y-11357380D02*
X50126428Y-10357380D01*
X50031190Y-10500238D01*
X49935952Y-10595476D01*
X49840714Y-10643095D01*
X51269285Y-10357380D02*
X51078809Y-10357380D01*
X50983571Y-10405000D01*
X50935952Y-10452619D01*
X50840714Y-10595476D01*
X50793095Y-10785952D01*
X50793095Y-11166904D01*
X50840714Y-11262142D01*
X50888333Y-11309761D01*
X50983571Y-11357380D01*
X51174047Y-11357380D01*
X51269285Y-11309761D01*
X51316904Y-11262142D01*
X51364523Y-11166904D01*
X51364523Y-10928809D01*
X51316904Y-10833571D01*
X51269285Y-10785952D01*
X51174047Y-10738333D01*
X50983571Y-10738333D01*
X50888333Y-10785952D01*
X50840714Y-10833571D01*
X50793095Y-10928809D01*
X47745476Y5690238D02*
X47888333Y5642619D01*
X48126428Y5642619D01*
X48221666Y5690238D01*
X48269285Y5737857D01*
X48316904Y5833095D01*
X48316904Y5928333D01*
X48269285Y6023571D01*
X48221666Y6071190D01*
X48126428Y6118809D01*
X47935952Y6166428D01*
X47840714Y6214047D01*
X47793095Y6261666D01*
X47745476Y6356904D01*
X47745476Y6452142D01*
X47793095Y6547380D01*
X47840714Y6595000D01*
X47935952Y6642619D01*
X48174047Y6642619D01*
X48316904Y6595000D01*
X48650238Y6642619D02*
X48888333Y5642619D01*
X49078809Y6356904D01*
X49269285Y5642619D01*
X49507380Y6642619D01*
X50412142Y5642619D02*
X49840714Y5642619D01*
X50126428Y5642619D02*
X50126428Y6642619D01*
X50031190Y6499761D01*
X49935952Y6404523D01*
X49840714Y6356904D01*
X51316904Y6642619D02*
X50840714Y6642619D01*
X50793095Y6166428D01*
X50840714Y6214047D01*
X50935952Y6261666D01*
X51174047Y6261666D01*
X51269285Y6214047D01*
X51316904Y6166428D01*
X51364523Y6071190D01*
X51364523Y5833095D01*
X51316904Y5737857D01*
X51269285Y5690238D01*
X51174047Y5642619D01*
X50935952Y5642619D01*
X50840714Y5690238D01*
X50793095Y5737857D01*
X29745476Y-67309761D02*
X29888333Y-67357380D01*
X30126428Y-67357380D01*
X30221666Y-67309761D01*
X30269285Y-67262142D01*
X30316904Y-67166904D01*
X30316904Y-67071666D01*
X30269285Y-66976428D01*
X30221666Y-66928809D01*
X30126428Y-66881190D01*
X29935952Y-66833571D01*
X29840714Y-66785952D01*
X29793095Y-66738333D01*
X29745476Y-66643095D01*
X29745476Y-66547857D01*
X29793095Y-66452619D01*
X29840714Y-66405000D01*
X29935952Y-66357380D01*
X30174047Y-66357380D01*
X30316904Y-66405000D01*
X30650238Y-66357380D02*
X30888333Y-67357380D01*
X31078809Y-66643095D01*
X31269285Y-67357380D01*
X31507380Y-66357380D01*
X32412142Y-67357380D02*
X31840714Y-67357380D01*
X32126428Y-67357380D02*
X32126428Y-66357380D01*
X32031190Y-66500238D01*
X31935952Y-66595476D01*
X31840714Y-66643095D01*
X33269285Y-66690714D02*
X33269285Y-67357380D01*
X33031190Y-66309761D02*
X32793095Y-67024047D01*
X33412142Y-67024047D01*
X29745476Y-50309761D02*
X29888333Y-50357380D01*
X30126428Y-50357380D01*
X30221666Y-50309761D01*
X30269285Y-50262142D01*
X30316904Y-50166904D01*
X30316904Y-50071666D01*
X30269285Y-49976428D01*
X30221666Y-49928809D01*
X30126428Y-49881190D01*
X29935952Y-49833571D01*
X29840714Y-49785952D01*
X29793095Y-49738333D01*
X29745476Y-49643095D01*
X29745476Y-49547857D01*
X29793095Y-49452619D01*
X29840714Y-49405000D01*
X29935952Y-49357380D01*
X30174047Y-49357380D01*
X30316904Y-49405000D01*
X30650238Y-49357380D02*
X30888333Y-50357380D01*
X31078809Y-49643095D01*
X31269285Y-50357380D01*
X31507380Y-49357380D01*
X32412142Y-50357380D02*
X31840714Y-50357380D01*
X32126428Y-50357380D02*
X32126428Y-49357380D01*
X32031190Y-49500238D01*
X31935952Y-49595476D01*
X31840714Y-49643095D01*
X32745476Y-49357380D02*
X33364523Y-49357380D01*
X33031190Y-49738333D01*
X33174047Y-49738333D01*
X33269285Y-49785952D01*
X33316904Y-49833571D01*
X33364523Y-49928809D01*
X33364523Y-50166904D01*
X33316904Y-50262142D01*
X33269285Y-50309761D01*
X33174047Y-50357380D01*
X32888333Y-50357380D01*
X32793095Y-50309761D01*
X32745476Y-50262142D01*
X29745476Y-33309761D02*
X29888333Y-33357380D01*
X30126428Y-33357380D01*
X30221666Y-33309761D01*
X30269285Y-33262142D01*
X30316904Y-33166904D01*
X30316904Y-33071666D01*
X30269285Y-32976428D01*
X30221666Y-32928809D01*
X30126428Y-32881190D01*
X29935952Y-32833571D01*
X29840714Y-32785952D01*
X29793095Y-32738333D01*
X29745476Y-32643095D01*
X29745476Y-32547857D01*
X29793095Y-32452619D01*
X29840714Y-32405000D01*
X29935952Y-32357380D01*
X30174047Y-32357380D01*
X30316904Y-32405000D01*
X30650238Y-32357380D02*
X30888333Y-33357380D01*
X31078809Y-32643095D01*
X31269285Y-33357380D01*
X31507380Y-32357380D01*
X32412142Y-33357380D02*
X31840714Y-33357380D01*
X32126428Y-33357380D02*
X32126428Y-32357380D01*
X32031190Y-32500238D01*
X31935952Y-32595476D01*
X31840714Y-32643095D01*
X32793095Y-32452619D02*
X32840714Y-32405000D01*
X32935952Y-32357380D01*
X33174047Y-32357380D01*
X33269285Y-32405000D01*
X33316904Y-32452619D01*
X33364523Y-32547857D01*
X33364523Y-32643095D01*
X33316904Y-32785952D01*
X32745476Y-33357380D01*
X33364523Y-33357380D01*
X29745476Y-16309761D02*
X29888333Y-16357380D01*
X30126428Y-16357380D01*
X30221666Y-16309761D01*
X30269285Y-16262142D01*
X30316904Y-16166904D01*
X30316904Y-16071666D01*
X30269285Y-15976428D01*
X30221666Y-15928809D01*
X30126428Y-15881190D01*
X29935952Y-15833571D01*
X29840714Y-15785952D01*
X29793095Y-15738333D01*
X29745476Y-15643095D01*
X29745476Y-15547857D01*
X29793095Y-15452619D01*
X29840714Y-15405000D01*
X29935952Y-15357380D01*
X30174047Y-15357380D01*
X30316904Y-15405000D01*
X30650238Y-15357380D02*
X30888333Y-16357380D01*
X31078809Y-15643095D01*
X31269285Y-16357380D01*
X31507380Y-15357380D01*
X32412142Y-16357380D02*
X31840714Y-16357380D01*
X32126428Y-16357380D02*
X32126428Y-15357380D01*
X32031190Y-15500238D01*
X31935952Y-15595476D01*
X31840714Y-15643095D01*
X33364523Y-16357380D02*
X32793095Y-16357380D01*
X33078809Y-16357380D02*
X33078809Y-15357380D01*
X32983571Y-15500238D01*
X32888333Y-15595476D01*
X32793095Y-15643095D01*
X29745476Y690238D02*
X29888333Y642619D01*
X30126428Y642619D01*
X30221666Y690238D01*
X30269285Y737857D01*
X30316904Y833095D01*
X30316904Y928333D01*
X30269285Y1023571D01*
X30221666Y1071190D01*
X30126428Y1118809D01*
X29935952Y1166428D01*
X29840714Y1214047D01*
X29793095Y1261666D01*
X29745476Y1356904D01*
X29745476Y1452142D01*
X29793095Y1547380D01*
X29840714Y1595000D01*
X29935952Y1642619D01*
X30174047Y1642619D01*
X30316904Y1595000D01*
X30650238Y1642619D02*
X30888333Y642619D01*
X31078809Y1356904D01*
X31269285Y642619D01*
X31507380Y1642619D01*
X32412142Y642619D02*
X31840714Y642619D01*
X32126428Y642619D02*
X32126428Y1642619D01*
X32031190Y1499761D01*
X31935952Y1404523D01*
X31840714Y1356904D01*
X33031190Y1642619D02*
X33126428Y1642619D01*
X33221666Y1595000D01*
X33269285Y1547380D01*
X33316904Y1452142D01*
X33364523Y1261666D01*
X33364523Y1023571D01*
X33316904Y833095D01*
X33269285Y737857D01*
X33221666Y690238D01*
X33126428Y642619D01*
X33031190Y642619D01*
X32935952Y690238D01*
X32888333Y737857D01*
X32840714Y833095D01*
X32793095Y1023571D01*
X32793095Y1261666D01*
X32840714Y1452142D01*
X32888333Y1547380D01*
X32935952Y1595000D01*
X33031190Y1642619D01*
X12221666Y-70309761D02*
X12364523Y-70357380D01*
X12602619Y-70357380D01*
X12697857Y-70309761D01*
X12745476Y-70262142D01*
X12793095Y-70166904D01*
X12793095Y-70071666D01*
X12745476Y-69976428D01*
X12697857Y-69928809D01*
X12602619Y-69881190D01*
X12412142Y-69833571D01*
X12316904Y-69785952D01*
X12269285Y-69738333D01*
X12221666Y-69643095D01*
X12221666Y-69547857D01*
X12269285Y-69452619D01*
X12316904Y-69405000D01*
X12412142Y-69357380D01*
X12650238Y-69357380D01*
X12793095Y-69405000D01*
X13126428Y-69357380D02*
X13364523Y-70357380D01*
X13555000Y-69643095D01*
X13745476Y-70357380D01*
X13983571Y-69357380D01*
X14412142Y-70357380D02*
X14602619Y-70357380D01*
X14697857Y-70309761D01*
X14745476Y-70262142D01*
X14840714Y-70119285D01*
X14888333Y-69928809D01*
X14888333Y-69547857D01*
X14840714Y-69452619D01*
X14793095Y-69405000D01*
X14697857Y-69357380D01*
X14507380Y-69357380D01*
X14412142Y-69405000D01*
X14364523Y-69452619D01*
X14316904Y-69547857D01*
X14316904Y-69785952D01*
X14364523Y-69881190D01*
X14412142Y-69928809D01*
X14507380Y-69976428D01*
X14697857Y-69976428D01*
X14793095Y-69928809D01*
X14840714Y-69881190D01*
X14888333Y-69785952D01*
X12221666Y-53309761D02*
X12364523Y-53357380D01*
X12602619Y-53357380D01*
X12697857Y-53309761D01*
X12745476Y-53262142D01*
X12793095Y-53166904D01*
X12793095Y-53071666D01*
X12745476Y-52976428D01*
X12697857Y-52928809D01*
X12602619Y-52881190D01*
X12412142Y-52833571D01*
X12316904Y-52785952D01*
X12269285Y-52738333D01*
X12221666Y-52643095D01*
X12221666Y-52547857D01*
X12269285Y-52452619D01*
X12316904Y-52405000D01*
X12412142Y-52357380D01*
X12650238Y-52357380D01*
X12793095Y-52405000D01*
X13126428Y-52357380D02*
X13364523Y-53357380D01*
X13555000Y-52643095D01*
X13745476Y-53357380D01*
X13983571Y-52357380D01*
X14507380Y-52785952D02*
X14412142Y-52738333D01*
X14364523Y-52690714D01*
X14316904Y-52595476D01*
X14316904Y-52547857D01*
X14364523Y-52452619D01*
X14412142Y-52405000D01*
X14507380Y-52357380D01*
X14697857Y-52357380D01*
X14793095Y-52405000D01*
X14840714Y-52452619D01*
X14888333Y-52547857D01*
X14888333Y-52595476D01*
X14840714Y-52690714D01*
X14793095Y-52738333D01*
X14697857Y-52785952D01*
X14507380Y-52785952D01*
X14412142Y-52833571D01*
X14364523Y-52881190D01*
X14316904Y-52976428D01*
X14316904Y-53166904D01*
X14364523Y-53262142D01*
X14412142Y-53309761D01*
X14507380Y-53357380D01*
X14697857Y-53357380D01*
X14793095Y-53309761D01*
X14840714Y-53262142D01*
X14888333Y-53166904D01*
X14888333Y-52976428D01*
X14840714Y-52881190D01*
X14793095Y-52833571D01*
X14697857Y-52785952D01*
X12221666Y-36309761D02*
X12364523Y-36357380D01*
X12602619Y-36357380D01*
X12697857Y-36309761D01*
X12745476Y-36262142D01*
X12793095Y-36166904D01*
X12793095Y-36071666D01*
X12745476Y-35976428D01*
X12697857Y-35928809D01*
X12602619Y-35881190D01*
X12412142Y-35833571D01*
X12316904Y-35785952D01*
X12269285Y-35738333D01*
X12221666Y-35643095D01*
X12221666Y-35547857D01*
X12269285Y-35452619D01*
X12316904Y-35405000D01*
X12412142Y-35357380D01*
X12650238Y-35357380D01*
X12793095Y-35405000D01*
X13126428Y-35357380D02*
X13364523Y-36357380D01*
X13555000Y-35643095D01*
X13745476Y-36357380D01*
X13983571Y-35357380D01*
X14269285Y-35357380D02*
X14935952Y-35357380D01*
X14507380Y-36357380D01*
X12221666Y-19309761D02*
X12364523Y-19357380D01*
X12602619Y-19357380D01*
X12697857Y-19309761D01*
X12745476Y-19262142D01*
X12793095Y-19166904D01*
X12793095Y-19071666D01*
X12745476Y-18976428D01*
X12697857Y-18928809D01*
X12602619Y-18881190D01*
X12412142Y-18833571D01*
X12316904Y-18785952D01*
X12269285Y-18738333D01*
X12221666Y-18643095D01*
X12221666Y-18547857D01*
X12269285Y-18452619D01*
X12316904Y-18405000D01*
X12412142Y-18357380D01*
X12650238Y-18357380D01*
X12793095Y-18405000D01*
X13126428Y-18357380D02*
X13364523Y-19357380D01*
X13555000Y-18643095D01*
X13745476Y-19357380D01*
X13983571Y-18357380D01*
X14793095Y-18357380D02*
X14602619Y-18357380D01*
X14507380Y-18405000D01*
X14459761Y-18452619D01*
X14364523Y-18595476D01*
X14316904Y-18785952D01*
X14316904Y-19166904D01*
X14364523Y-19262142D01*
X14412142Y-19309761D01*
X14507380Y-19357380D01*
X14697857Y-19357380D01*
X14793095Y-19309761D01*
X14840714Y-19262142D01*
X14888333Y-19166904D01*
X14888333Y-18928809D01*
X14840714Y-18833571D01*
X14793095Y-18785952D01*
X14697857Y-18738333D01*
X14507380Y-18738333D01*
X14412142Y-18785952D01*
X14364523Y-18833571D01*
X14316904Y-18928809D01*
X12221666Y-2309761D02*
X12364523Y-2357380D01*
X12602619Y-2357380D01*
X12697857Y-2309761D01*
X12745476Y-2262142D01*
X12793095Y-2166904D01*
X12793095Y-2071666D01*
X12745476Y-1976428D01*
X12697857Y-1928809D01*
X12602619Y-1881190D01*
X12412142Y-1833571D01*
X12316904Y-1785952D01*
X12269285Y-1738333D01*
X12221666Y-1643095D01*
X12221666Y-1547857D01*
X12269285Y-1452619D01*
X12316904Y-1405000D01*
X12412142Y-1357380D01*
X12650238Y-1357380D01*
X12793095Y-1405000D01*
X13126428Y-1357380D02*
X13364523Y-2357380D01*
X13555000Y-1643095D01*
X13745476Y-2357380D01*
X13983571Y-1357380D01*
X14840714Y-1357380D02*
X14364523Y-1357380D01*
X14316904Y-1833571D01*
X14364523Y-1785952D01*
X14459761Y-1738333D01*
X14697857Y-1738333D01*
X14793095Y-1785952D01*
X14840714Y-1833571D01*
X14888333Y-1928809D01*
X14888333Y-2166904D01*
X14840714Y-2262142D01*
X14793095Y-2309761D01*
X14697857Y-2357380D01*
X14459761Y-2357380D01*
X14364523Y-2309761D01*
X14316904Y-2262142D01*
X-5778333Y-70309761D02*
X-5635476Y-70357380D01*
X-5397380Y-70357380D01*
X-5302142Y-70309761D01*
X-5254523Y-70262142D01*
X-5206904Y-70166904D01*
X-5206904Y-70071666D01*
X-5254523Y-69976428D01*
X-5302142Y-69928809D01*
X-5397380Y-69881190D01*
X-5587857Y-69833571D01*
X-5683095Y-69785952D01*
X-5730714Y-69738333D01*
X-5778333Y-69643095D01*
X-5778333Y-69547857D01*
X-5730714Y-69452619D01*
X-5683095Y-69405000D01*
X-5587857Y-69357380D01*
X-5349761Y-69357380D01*
X-5206904Y-69405000D01*
X-4873571Y-69357380D02*
X-4635476Y-70357380D01*
X-4445000Y-69643095D01*
X-4254523Y-70357380D01*
X-4016428Y-69357380D01*
X-3206904Y-69690714D02*
X-3206904Y-70357380D01*
X-3445000Y-69309761D02*
X-3683095Y-70024047D01*
X-3064047Y-70024047D01*
X-5778333Y-53309761D02*
X-5635476Y-53357380D01*
X-5397380Y-53357380D01*
X-5302142Y-53309761D01*
X-5254523Y-53262142D01*
X-5206904Y-53166904D01*
X-5206904Y-53071666D01*
X-5254523Y-52976428D01*
X-5302142Y-52928809D01*
X-5397380Y-52881190D01*
X-5587857Y-52833571D01*
X-5683095Y-52785952D01*
X-5730714Y-52738333D01*
X-5778333Y-52643095D01*
X-5778333Y-52547857D01*
X-5730714Y-52452619D01*
X-5683095Y-52405000D01*
X-5587857Y-52357380D01*
X-5349761Y-52357380D01*
X-5206904Y-52405000D01*
X-4873571Y-52357380D02*
X-4635476Y-53357380D01*
X-4445000Y-52643095D01*
X-4254523Y-53357380D01*
X-4016428Y-52357380D01*
X-3730714Y-52357380D02*
X-3111666Y-52357380D01*
X-3445000Y-52738333D01*
X-3302142Y-52738333D01*
X-3206904Y-52785952D01*
X-3159285Y-52833571D01*
X-3111666Y-52928809D01*
X-3111666Y-53166904D01*
X-3159285Y-53262142D01*
X-3206904Y-53309761D01*
X-3302142Y-53357380D01*
X-3587857Y-53357380D01*
X-3683095Y-53309761D01*
X-3730714Y-53262142D01*
X-5778333Y-36309761D02*
X-5635476Y-36357380D01*
X-5397380Y-36357380D01*
X-5302142Y-36309761D01*
X-5254523Y-36262142D01*
X-5206904Y-36166904D01*
X-5206904Y-36071666D01*
X-5254523Y-35976428D01*
X-5302142Y-35928809D01*
X-5397380Y-35881190D01*
X-5587857Y-35833571D01*
X-5683095Y-35785952D01*
X-5730714Y-35738333D01*
X-5778333Y-35643095D01*
X-5778333Y-35547857D01*
X-5730714Y-35452619D01*
X-5683095Y-35405000D01*
X-5587857Y-35357380D01*
X-5349761Y-35357380D01*
X-5206904Y-35405000D01*
X-4873571Y-35357380D02*
X-4635476Y-36357380D01*
X-4445000Y-35643095D01*
X-4254523Y-36357380D01*
X-4016428Y-35357380D01*
X-3683095Y-35452619D02*
X-3635476Y-35405000D01*
X-3540238Y-35357380D01*
X-3302142Y-35357380D01*
X-3206904Y-35405000D01*
X-3159285Y-35452619D01*
X-3111666Y-35547857D01*
X-3111666Y-35643095D01*
X-3159285Y-35785952D01*
X-3730714Y-36357380D01*
X-3111666Y-36357380D01*
X-5778333Y-19309761D02*
X-5635476Y-19357380D01*
X-5397380Y-19357380D01*
X-5302142Y-19309761D01*
X-5254523Y-19262142D01*
X-5206904Y-19166904D01*
X-5206904Y-19071666D01*
X-5254523Y-18976428D01*
X-5302142Y-18928809D01*
X-5397380Y-18881190D01*
X-5587857Y-18833571D01*
X-5683095Y-18785952D01*
X-5730714Y-18738333D01*
X-5778333Y-18643095D01*
X-5778333Y-18547857D01*
X-5730714Y-18452619D01*
X-5683095Y-18405000D01*
X-5587857Y-18357380D01*
X-5349761Y-18357380D01*
X-5206904Y-18405000D01*
X-4873571Y-18357380D02*
X-4635476Y-19357380D01*
X-4445000Y-18643095D01*
X-4254523Y-19357380D01*
X-4016428Y-18357380D01*
X-3111666Y-19357380D02*
X-3683095Y-19357380D01*
X-3397380Y-19357380D02*
X-3397380Y-18357380D01*
X-3492619Y-18500238D01*
X-3587857Y-18595476D01*
X-3683095Y-18643095D01*
X-5778333Y-2309761D02*
X-5635476Y-2357380D01*
X-5397380Y-2357380D01*
X-5302142Y-2309761D01*
X-5254523Y-2262142D01*
X-5206904Y-2166904D01*
X-5206904Y-2071666D01*
X-5254523Y-1976428D01*
X-5302142Y-1928809D01*
X-5397380Y-1881190D01*
X-5587857Y-1833571D01*
X-5683095Y-1785952D01*
X-5730714Y-1738333D01*
X-5778333Y-1643095D01*
X-5778333Y-1547857D01*
X-5730714Y-1452619D01*
X-5683095Y-1405000D01*
X-5587857Y-1357380D01*
X-5349761Y-1357380D01*
X-5206904Y-1405000D01*
X-4873571Y-1357380D02*
X-4635476Y-2357380D01*
X-4445000Y-1643095D01*
X-4254523Y-2357380D01*
X-4016428Y-1357380D01*
X-3445000Y-1357380D02*
X-3349761Y-1357380D01*
X-3254523Y-1405000D01*
X-3206904Y-1452619D01*
X-3159285Y-1547857D01*
X-3111666Y-1738333D01*
X-3111666Y-1976428D01*
X-3159285Y-2166904D01*
X-3206904Y-2262142D01*
X-3254523Y-2309761D01*
X-3349761Y-2357380D01*
X-3445000Y-2357380D01*
X-3540238Y-2309761D01*
X-3587857Y-2262142D01*
X-3635476Y-2166904D01*
X-3683095Y-1976428D01*
X-3683095Y-1738333D01*
X-3635476Y-1547857D01*
X-3587857Y-1452619D01*
X-3540238Y-1405000D01*
X-3445000Y-1357380D01*
M02*
