G04 #@! TF.GenerationSoftware,KiCad,Pcbnew,(5.1.4)-1*
G04 #@! TF.CreationDate,2020-06-14T12:37:34-04:00*
G04 #@! TF.ProjectId,splitreus,73706c69-7472-4657-9573-2e6b69636164,1*
G04 #@! TF.SameCoordinates,Original*
G04 #@! TF.FileFunction,Profile,NP*
%FSLAX46Y46*%
G04 Gerber Fmt 4.6, Leading zero omitted, Abs format (unit mm)*
G04 Created by KiCad (PCBNEW (5.1.4)-1) date 2020-06-14 12:37:34*
%MOMM*%
%LPD*%
G04 APERTURE LIST*
%ADD10C,0.100000*%
G04 APERTURE END LIST*
D10*
X108932000Y-15605800D02*
X102750000Y-15600000D01*
X108932000Y-22209800D02*
X108932000Y-15605800D01*
X117974400Y-22209800D02*
X108932000Y-22209800D01*
X117974400Y-15605800D02*
X117974400Y-22209800D01*
X123841945Y-15604235D02*
X117974400Y-15605800D01*
X123841945Y-15604235D02*
G75*
G02X124750000Y-16599999I-91945J-995764D01*
G01*
X124750000Y-77750000D02*
G75*
G02X123750000Y-78750000I-1000000J0D01*
G01*
X124750000Y-16599999D02*
X124750000Y-77750000D01*
X123750000Y-78750000D02*
X120400000Y-78750000D01*
X102750000Y-9400000D02*
X102750000Y-15600000D01*
X-7750000Y6400000D02*
G75*
G02X-7000000Y7000000I750000J-168750D01*
G01*
X102000000Y4000000D02*
G75*
G02X102750000Y3400000I0J-768750D01*
G01*
X-7000000Y-82999999D02*
G75*
G02X-7749999Y-82400000I0J768749D01*
G01*
X83000000Y9000000D02*
X88000000Y4000000D01*
X64000000Y15000000D02*
X69000000Y9000000D01*
X44999999Y10000000D02*
X50000000Y15000000D01*
X26000000Y7000000D02*
X30999999Y10000000D01*
X7000000Y7000000D02*
X12000000Y7000000D01*
X102000000Y-86000000D02*
X107600000Y-78750000D01*
X83000000Y-81000000D02*
X88000000Y-86000000D01*
X64000000Y-75000000D02*
X69000000Y-81000000D01*
X44999999Y-80000000D02*
X50000000Y-75000000D01*
X26000000Y-83000000D02*
X30999999Y-80000000D01*
X7000000Y-83000000D02*
X12000000Y-83000000D01*
X-7749999Y-6399999D02*
X-7749999Y-69600000D01*
X64000000Y-75000000D02*
X50000000Y-75000000D01*
X83000000Y-81000000D02*
X69000000Y-81000000D01*
X120400000Y-78750000D02*
X107600000Y-78750000D01*
X102000000Y-86000000D02*
X88000000Y-86000000D01*
X102750000Y3400000D02*
X102750000Y-9400000D01*
X88000000Y4000000D02*
X102000000Y4000000D01*
X69000000Y9000000D02*
X83000000Y9000000D01*
X50000000Y15000000D02*
X64000000Y15000000D01*
X30999999Y10000000D02*
X44999999Y10000000D01*
X12000000Y7000000D02*
X26000000Y7000000D01*
X44999999Y-80000000D02*
X30999999Y-80000000D01*
X26000000Y-83000000D02*
X12000000Y-83000000D01*
X7000000Y-83000000D02*
X-7000000Y-83000000D01*
X-7000000Y7000000D02*
X7000000Y7000000D01*
X-7749999Y-6399999D02*
X-7749999Y6400000D01*
X-7749999Y-82400000D02*
X-7749999Y-69600000D01*
M02*
