M48
; DRILL file {KiCad (5.1.4)-1} date 07/05/20 11:50:32
; FORMAT={-:-/ absolute / inch / decimal}
; #@! TF.CreationDate,2020-07-05T11:50:32-04:00
; #@! TF.GenerationSoftware,Kicad,Pcbnew,(5.1.4)-1
; #@! TF.FileFunction,Plated,1,2,PTH
FMAT,2
INCH
T1C0.0157
T2C0.0197
T3C0.0320
T4C0.0394
T5C0.0472
T6C0.0512
T7C0.1063
%
G90
G05
T2
X4.3859Y-1.6102
X4.4646Y-1.6102
X4.5835Y-1.611
X4.6622Y-1.611
T3
X4.1965Y-0.5209
X4.1965Y-0.6209
X4.1965Y-0.7209
X4.1965Y-0.8209
X4.1965Y-0.9209
X4.1965Y-1.0209
X4.1965Y-1.1209
X4.1965Y-1.2209
X4.1965Y-1.3209
X4.1965Y-1.4209
X4.1965Y-1.5209
X4.1965Y-1.6209
X4.2476Y-0.5679
X4.2476Y-0.6679
X4.2476Y-0.7679
X4.2476Y-0.8679
X4.2476Y-0.9679
X4.2476Y-1.0679
X4.2476Y-1.1679
X4.2476Y-1.2679
X4.2476Y-1.3679
X4.2476Y-1.4679
X4.2476Y-1.5679
X4.2476Y-1.6679
X4.7965Y-0.5209
X4.7965Y-0.6209
X4.7965Y-0.7209
X4.7965Y-0.8209
X4.7965Y-0.9209
X4.7965Y-1.0209
X4.7965Y-1.1209
X4.7965Y-1.2209
X4.7965Y-1.3209
X4.7965Y-1.4209
X4.7965Y-1.5209
X4.7965Y-1.6209
X4.8476Y-0.5679
X4.8476Y-0.6679
X4.8476Y-0.7679
X4.8476Y-0.8679
X4.8476Y-0.9679
X4.8476Y-1.0679
X4.8476Y-1.1679
X4.8476Y-1.2679
X4.8476Y-1.3679
X4.8476Y-1.4679
X4.8476Y-1.5679
X4.8476Y-1.6679
T4
X2.8386Y-0.9843
X3.1457Y-0.9843
X-0.1535Y-1.063
X0.1535Y-1.063
X2.0906Y-2.1654
X2.3976Y-2.1654
X1.3425Y-1.6535
X1.6496Y-1.6535
X4.1142Y-2.6417
X4.1142Y-2.9488
X1.3425Y-0.2362
X1.6496Y-0.2362
X2.6181Y-2.3661
X2.6181Y-2.6732
X3.5866Y-1.8898
X3.8937Y-1.8898
X4.1142Y-2.2087
X4.1142Y-2.5157
X0.5945Y-1.7717
X0.9016Y-1.7717
X-0.1535Y-1.7717
X0.1535Y-1.7717
X-0.1535Y-0.3543
X0.1535Y-0.3543
X1.122Y-2.6811
X1.122Y-2.9882
X3.3661Y-2.6811
X3.3661Y-2.9882
X2.0906Y-1.4567
X2.3976Y-1.4567
X1.3425Y-2.3622
X1.6496Y-2.3622
X3.5866Y-1.1811
X3.8937Y-1.1811
X0.5945Y-1.063
X0.9016Y-1.063
X1.8701Y-2.4843
X1.8701Y-2.7913
X-0.1535Y-2.4803
X0.1535Y-2.4803
X0.5945Y-2.4803
X0.9016Y-2.4803
X2.0906Y-0.748
X2.3976Y-0.748
X2.0906Y-0.0394
X2.3976Y-0.0394
X3.5866Y-0.4724
X3.8937Y-0.4724
X2.8386Y-0.2756
X3.1457Y-0.2756
X3.5866Y-2.5984
X3.8937Y-2.5984
X2.8386Y-1.6929
X3.1457Y-1.6929
X4.4113Y-2.2298
X4.5113Y-2.2298
X4.6113Y-2.2298
X2.8386Y-2.4016
X3.1457Y-2.4016
X0.374Y-2.6811
X0.374Y-2.9882
X1.3425Y-0.9449
X1.6496Y-0.9449
X0.5945Y-0.3543
X0.9016Y-0.3543
T5
X2.7953Y-1.189
X2.9921Y-1.1063
X3.189Y-1.189
X3.5433Y-1.3858
X3.7402Y-1.3031
X3.937Y-1.3858
X3.5433Y-2.8031
X3.7402Y-2.7205
X3.937Y-2.8031
X2.0472Y-1.6614
X2.2441Y-1.5787
X2.4409Y-1.6614
X2.7953Y-0.4803
X2.9921Y-0.3976
X3.189Y-0.4803
X2.0472Y-0.2441
X2.2441Y-0.1614
X2.4409Y-0.2441
X0.5512Y-2.685
X0.748Y-2.6024
X0.9449Y-2.685
X1.2992Y-2.5669
X1.4961Y-2.4843
X1.6929Y-2.5669
X1.2992Y-0.4409
X1.4961Y-0.3583
X1.6929Y-0.4409
X-0.1969Y-2.685
X0.0Y-2.6024
X0.1969Y-2.685
X-0.1969Y-1.2677
X0.0Y-1.185
X0.1969Y-1.2677
X2.0472Y-0.9528
X2.2441Y-0.8701
X2.4409Y-0.9528
X2.7953Y-1.8976
X2.9921Y-1.815
X3.189Y-1.8976
X0.5512Y-1.9764
X0.748Y-1.8937
X0.9449Y-1.9764
X4.6378Y-2.4803
X4.6378Y-2.874
X4.7205Y-2.6772
X2.0472Y-2.3701
X2.2441Y-2.2874
X2.4409Y-2.3701
X3.5433Y-2.0945
X3.7402Y-2.0118
X3.937Y-2.0945
X-0.1969Y-1.9764
X0.0Y-1.8937
X0.1969Y-1.9764
X2.0472Y0.4646
X2.2441Y0.5472
X2.4409Y0.4646
X1.2992Y-1.8583
X1.4961Y-1.7756
X1.6929Y-1.8583
X1.2992Y0.2677
X1.4961Y0.3504
X1.6929Y0.2677
X-0.1969Y-0.5591
X0.0Y-0.4764
X0.1969Y-0.5591
X-0.1969Y0.1496
X0.0Y0.2323
X0.1969Y0.1496
X2.7953Y0.2283
X2.9921Y0.311
X3.189Y0.2283
X0.5512Y-0.5591
X0.748Y-0.4764
X0.9449Y-0.5591
X0.5512Y0.1496
X0.748Y0.2323
X0.9449Y0.1496
X1.2992Y-1.1496
X1.4961Y-1.0669
X1.6929Y-1.1496
X3.5433Y-0.6772
X3.7402Y-0.5945
X3.937Y-0.6772
X3.5433Y0.0315
X3.7402Y0.1142
X3.937Y0.0315
X0.5512Y-1.2677
X0.748Y-1.185
X0.9449Y-1.2677
X2.7953Y-2.6063
X2.9921Y-2.5236
X3.189Y-2.6063
T6
X4.2273Y-1.7958
X4.2273Y-2.0518
T7
X3.3661Y-2.4016
X3.3661Y-0.2953
X0.374Y-0.374
X1.8701Y-0.9449
X0.374Y-2.4803
T1
G00X4.431Y-1.772
M15
G01X4.3955Y-1.772
M16
G05
G00X4.431Y-2.0909
M15
G01X4.3955Y-2.0909
M16
G05
G00X4.6357Y-1.772
M15
G01X4.6003Y-1.772
M16
G05
G00X4.6357Y-2.0909
M15
G01X4.6003Y-2.0909
M16
G05
G00X4.7479Y-1.772
M15
G01X4.7125Y-1.772
M16
G05
G00X4.7479Y-2.0909
M15
G01X4.7125Y-2.0909
M16
G05
T0
M30
