M48
; DRILL file {KiCad (5.1.4)-1} date 6/26/2021 12:41:54 PM
; FORMAT={-:-/ absolute / metric / decimal}
; #@! TF.CreationDate,2021-06-26T12:41:54-04:00
; #@! TF.GenerationSoftware,Kicad,Pcbnew,(5.1.4)-1
; #@! TF.FileFunction,NonPlated,1,2,NPTH
FMAT,2
METRIC
T1C1.700
T2C3.400
%
G90
G05
T1
X84.5Y-37.0
X95.5Y-37.0
X84.5Y-54.0
X95.5Y-54.0
X48.5Y-26.0
X59.5Y-26.0
X30.5Y3.0
X41.5Y3.0
X66.5Y-32.0
X77.5Y-32.0
X48.5Y-9.0
X59.5Y-9.0
X12.5Y0.0
X23.5Y0.0
X107.5Y-57.5
X107.5Y-68.5
X30.5Y-14.0
X41.5Y-14.0
X84.5Y-3.0
X95.5Y-3.0
X66.5Y-66.0
X77.5Y-66.0
X30.5Y-48.0
X41.5Y-48.0
X-5.5Y-34.0
X5.5Y-34.0
X66.5Y2.0
X77.5Y2.0
X48.5Y-43.0
X59.5Y-43.0
X-5.5Y0.0
X5.5Y0.0
X30.5Y-65.0
X41.5Y-65.0
X48.5Y8.0
X59.5Y8.0
X66.5Y-49.0
X77.5Y-49.0
X48.5Y-60.0
X59.5Y-60.0
X12.5Y-68.0
X23.5Y-68.0
X84.5Y-20.0
X95.5Y-20.0
X84.5Y-71.0
X95.5Y-71.0
X-5.5Y-17.0
X5.5Y-17.0
X66.5Y-15.0
X77.5Y-15.0
X30.5Y-31.0
X41.5Y-31.0
X-5.5Y-68.0
X5.5Y-68.0
X12.5Y-51.0
X23.5Y-51.0
X12.5Y-17.0
X23.5Y-17.0
X12.5Y-34.0
X23.5Y-34.0
X-5.5Y-51.0
X5.5Y-51.0
T2
X36.0Y-31.0
X0.0Y-68.0
X18.0Y-51.0
X18.0Y-17.0
X18.0Y-34.0
X0.0Y-51.0
X90.0Y-37.0
X90.0Y-54.0
X54.0Y-26.0
X36.0Y3.0
X72.0Y-32.0
X54.0Y-9.0
X18.0Y0.0
X107.5Y-63.0
X36.0Y-14.0
X90.0Y-3.0
X72.0Y-66.0
X36.0Y-48.0
X0.0Y-34.0
X72.0Y2.0
X54.0Y-43.0
X0.0Y0.0
X36.0Y-65.0
X54.0Y8.0
X72.0Y-49.0
X54.0Y-60.0
X18.0Y-68.0
X90.0Y-20.0
X90.0Y-71.0
X0.0Y-17.0
X72.0Y-15.0
T0
M30
