G04 #@! TF.GenerationSoftware,KiCad,Pcbnew,(5.1.4)-1*
G04 #@! TF.CreationDate,2021-09-27T10:09:41-04:00*
G04 #@! TF.ProjectId,splitreus,73706c69-7472-4657-9573-2e6b69636164,1*
G04 #@! TF.SameCoordinates,Original*
G04 #@! TF.FileFunction,Legend,Top*
G04 #@! TF.FilePolarity,Positive*
%FSLAX46Y46*%
G04 Gerber Fmt 4.6, Leading zero omitted, Abs format (unit mm)*
G04 Created by KiCad (PCBNEW (5.1.4)-1) date 2021-09-27 10:09:41*
%MOMM*%
%LPD*%
G04 APERTURE LIST*
%ADD10C,0.300000*%
%ADD11C,0.150000*%
%ADD12C,0.100000*%
%ADD13C,0.120000*%
%ADD14C,0.500000*%
G04 APERTURE END LIST*
D10*
X27410000Y-46380000D02*
X27338571Y-46522857D01*
X27338571Y-46737142D01*
X27410000Y-46951428D01*
X27552857Y-47094285D01*
X27695714Y-47165714D01*
X27981428Y-47237142D01*
X28195714Y-47237142D01*
X28481428Y-47165714D01*
X28624285Y-47094285D01*
X28767142Y-46951428D01*
X28838571Y-46737142D01*
X28838571Y-46594285D01*
X28767142Y-46380000D01*
X28695714Y-46308571D01*
X28195714Y-46308571D01*
X28195714Y-46594285D01*
X28838571Y-45665714D02*
X27338571Y-45665714D01*
X27338571Y-45094285D01*
X27410000Y-44951428D01*
X27481428Y-44880000D01*
X27624285Y-44808571D01*
X27838571Y-44808571D01*
X27981428Y-44880000D01*
X28052857Y-44951428D01*
X28124285Y-45094285D01*
X28124285Y-45665714D01*
X28838571Y-43451428D02*
X28838571Y-44165714D01*
X27338571Y-44165714D01*
X27838571Y-43094285D02*
X28838571Y-42737142D01*
X27838571Y-42380000D01*
X27338571Y-41951428D02*
X27338571Y-41022857D01*
X27910000Y-41522857D01*
X27910000Y-41308571D01*
X27981428Y-41165714D01*
X28052857Y-41094285D01*
X28195714Y-41022857D01*
X28552857Y-41022857D01*
X28695714Y-41094285D01*
X28767142Y-41165714D01*
X28838571Y-41308571D01*
X28838571Y-41737142D01*
X28767142Y-41880000D01*
X28695714Y-41951428D01*
X126660285Y-16051142D02*
X124731714Y-17336857D01*
X126660285Y-17051142D02*
X124731714Y-18336857D01*
X126660285Y-18051142D02*
X124731714Y-19336857D01*
X126660285Y-19051142D02*
X124731714Y-20336857D01*
X126660285Y-20051142D02*
X124731714Y-21336857D01*
X126660285Y-21051142D02*
X124731714Y-22336857D01*
X126660285Y-22051142D02*
X124731714Y-23336857D01*
X126660285Y-23051142D02*
X124731714Y-24336857D01*
X126660285Y-24051142D02*
X124731714Y-25336857D01*
X126660285Y-25051142D02*
X124731714Y-26336857D01*
X126660285Y-26051142D02*
X124731714Y-27336857D01*
X126660285Y-27051142D02*
X124731714Y-28336857D01*
X126660285Y-28051142D02*
X124731714Y-29336857D01*
X126660285Y-29051142D02*
X124731714Y-30336857D01*
X126660285Y-30051142D02*
X124731714Y-31336857D01*
X126660285Y-31051142D02*
X124731714Y-32336857D01*
X126660285Y-32051142D02*
X124731714Y-33336857D01*
X126660285Y-33051142D02*
X124731714Y-34336857D01*
X126660285Y-34051142D02*
X124731714Y-35336857D01*
X126660285Y-35051142D02*
X124731714Y-36336857D01*
X126660285Y-36051142D02*
X124731714Y-37336857D01*
X126660285Y-37051142D02*
X124731714Y-38336857D01*
X126660285Y-38051142D02*
X124731714Y-39336857D01*
X126660285Y-39051142D02*
X124731714Y-40336857D01*
X126660285Y-40051142D02*
X124731714Y-41336857D01*
X126660285Y-41051142D02*
X124731714Y-42336857D01*
X126660285Y-42051142D02*
X124731714Y-43336857D01*
X126660285Y-43051142D02*
X124731714Y-44336857D01*
X126660285Y-44051142D02*
X124731714Y-45336857D01*
X126660285Y-45051142D02*
X124731714Y-46336857D01*
X126660285Y-46051142D02*
X124731714Y-47336857D01*
X126660285Y-47051142D02*
X124731714Y-48336857D01*
X126660285Y-48051142D02*
X124731714Y-49336857D01*
X126660285Y-49051142D02*
X124731714Y-50336857D01*
X126660285Y-50051142D02*
X124731714Y-51336857D01*
X126660285Y-51051142D02*
X124731714Y-52336857D01*
X126660285Y-52051142D02*
X124731714Y-53336857D01*
X126660285Y-53051142D02*
X124731714Y-54336857D01*
X126660285Y-54051142D02*
X124731714Y-55336857D01*
X126660285Y-55051142D02*
X124731714Y-56336857D01*
X126660285Y-56051142D02*
X124731714Y-57336857D01*
X126660285Y-57051142D02*
X124731714Y-58336857D01*
X126660285Y-58051142D02*
X124731714Y-59336857D01*
X126660285Y-59051142D02*
X124731714Y-60336857D01*
X126660285Y-60051142D02*
X124731714Y-61336857D01*
X126660285Y-61051142D02*
X124731714Y-62336857D01*
X126660285Y-62051142D02*
X124731714Y-63336857D01*
X126660285Y-63051142D02*
X124731714Y-64336857D01*
X126660285Y-64051142D02*
X124731714Y-65336857D01*
X126660285Y-65051142D02*
X124731714Y-66336857D01*
X126660285Y-66051142D02*
X124731714Y-67336857D01*
X126660285Y-67051142D02*
X124731714Y-68336857D01*
X126660285Y-68051142D02*
X124731714Y-69336857D01*
X126660285Y-69051142D02*
X124731714Y-70336857D01*
X126660285Y-70051142D02*
X124731714Y-71336857D01*
X126660285Y-71051142D02*
X124731714Y-72336857D01*
X126660285Y-72051142D02*
X124731714Y-73336857D01*
X126660285Y-73051142D02*
X124731714Y-74336857D01*
X126660285Y-74051142D02*
X124731714Y-75336857D01*
X126660285Y-75051142D02*
X124731714Y-76336857D01*
X126660285Y-76051142D02*
X124731714Y-77336857D01*
X126660285Y-77051142D02*
X124731714Y-78336857D01*
X126660285Y-78051142D02*
X124731714Y-79336857D01*
X126660285Y-79051142D02*
X124731714Y-80336857D01*
X-12428285Y-75470285D02*
X-10499714Y-74184571D01*
X-12428285Y-74470285D02*
X-10499714Y-73184571D01*
X-12428285Y-73470285D02*
X-10499714Y-72184571D01*
X-12428285Y-72470285D02*
X-10499714Y-71184571D01*
X-12428285Y-71470285D02*
X-10499714Y-70184571D01*
X-12428285Y-70470285D02*
X-10499714Y-69184571D01*
X-12428285Y-69470285D02*
X-10499714Y-68184571D01*
X-12428285Y-68470285D02*
X-10499714Y-67184571D01*
X-12428285Y-67470285D02*
X-10499714Y-66184571D01*
X-12428285Y-66470285D02*
X-10499714Y-65184571D01*
X-12428285Y-65470285D02*
X-10499714Y-64184571D01*
X-12428285Y-64470285D02*
X-10499714Y-63184571D01*
X-12428285Y-63470285D02*
X-10499714Y-62184571D01*
X-12428285Y-62470285D02*
X-10499714Y-61184571D01*
X-12428285Y-61470285D02*
X-10499714Y-60184571D01*
X-12428285Y-60470285D02*
X-10499714Y-59184571D01*
X-12428285Y-59470285D02*
X-10499714Y-58184571D01*
X-12428285Y-58470285D02*
X-10499714Y-57184571D01*
X-12428285Y-57470285D02*
X-10499714Y-56184571D01*
X-12428285Y-56470285D02*
X-10499714Y-55184571D01*
X-12428285Y-55470285D02*
X-10499714Y-54184571D01*
X-12428285Y-54470285D02*
X-10499714Y-53184571D01*
X-12428285Y-53470285D02*
X-10499714Y-52184571D01*
X-12428285Y-52470285D02*
X-10499714Y-51184571D01*
X-12428285Y-51470285D02*
X-10499714Y-50184571D01*
X-12428285Y-50470285D02*
X-10499714Y-49184571D01*
X-12428285Y-49470285D02*
X-10499714Y-48184571D01*
X-12428285Y-48470285D02*
X-10499714Y-47184571D01*
X-10785428Y-42827428D02*
X-10785428Y-43541714D01*
X-12285428Y-43541714D01*
X-12285428Y-42041714D02*
X-12285428Y-41755999D01*
X-12214000Y-41613142D01*
X-12071142Y-41470285D01*
X-11785428Y-41398857D01*
X-11285428Y-41398857D01*
X-10999714Y-41470285D01*
X-10856857Y-41613142D01*
X-10785428Y-41755999D01*
X-10785428Y-42041714D01*
X-10856857Y-42184571D01*
X-10999714Y-42327428D01*
X-11285428Y-42398857D01*
X-11785428Y-42398857D01*
X-12071142Y-42327428D01*
X-12214000Y-42184571D01*
X-12285428Y-42041714D01*
X-11214000Y-40827428D02*
X-11214000Y-40113142D01*
X-10785428Y-40970285D02*
X-12285428Y-40470285D01*
X-10785428Y-39970285D01*
X-10785428Y-39470285D02*
X-12285428Y-39470285D01*
X-12285428Y-39113142D01*
X-12214000Y-38898857D01*
X-12071142Y-38755999D01*
X-11928285Y-38684571D01*
X-11642571Y-38613142D01*
X-11428285Y-38613142D01*
X-11142571Y-38684571D01*
X-10999714Y-38755999D01*
X-10856857Y-38898857D01*
X-10785428Y-39113142D01*
X-10785428Y-39470285D01*
X-10785428Y-37970285D02*
X-12285428Y-37970285D01*
X-10785428Y-37255999D02*
X-12285428Y-37255999D01*
X-10785428Y-36398857D01*
X-12285428Y-36398857D01*
X-12214000Y-34898857D02*
X-12285428Y-35041714D01*
X-12285428Y-35255999D01*
X-12214000Y-35470285D01*
X-12071142Y-35613142D01*
X-11928285Y-35684571D01*
X-11642571Y-35755999D01*
X-11428285Y-35755999D01*
X-11142571Y-35684571D01*
X-10999714Y-35613142D01*
X-10856857Y-35470285D01*
X-10785428Y-35255999D01*
X-10785428Y-35113142D01*
X-10856857Y-34898857D01*
X-10928285Y-34827428D01*
X-11428285Y-34827428D01*
X-11428285Y-35113142D01*
X-12285428Y-33184571D02*
X-12285428Y-32184571D01*
X-10785428Y-33184571D01*
X-10785428Y-32184571D01*
X-12285428Y-31327428D02*
X-12285428Y-31041714D01*
X-12214000Y-30898857D01*
X-12071142Y-30755999D01*
X-11785428Y-30684571D01*
X-11285428Y-30684571D01*
X-10999714Y-30755999D01*
X-10856857Y-30898857D01*
X-10785428Y-31041714D01*
X-10785428Y-31327428D01*
X-10856857Y-31470285D01*
X-10999714Y-31613142D01*
X-11285428Y-31684571D01*
X-11785428Y-31684571D01*
X-12071142Y-31613142D01*
X-12214000Y-31470285D01*
X-12285428Y-31327428D01*
X-10785428Y-30041714D02*
X-12285428Y-30041714D01*
X-10785428Y-29184571D01*
X-12285428Y-29184571D01*
X-11571142Y-28470285D02*
X-11571142Y-27970285D01*
X-10785428Y-27755999D02*
X-10785428Y-28470285D01*
X-12285428Y-28470285D01*
X-12285428Y-27755999D01*
X-12428285Y-25327428D02*
X-10499714Y-24041714D01*
X-12428285Y-24327428D02*
X-10499714Y-23041714D01*
X-12428285Y-23327428D02*
X-10499714Y-22041714D01*
X-12428285Y-22327428D02*
X-10499714Y-21041714D01*
X-12428285Y-21327428D02*
X-10499714Y-20041714D01*
X-12428285Y-20327428D02*
X-10499714Y-19041714D01*
X-12428285Y-19327428D02*
X-10499714Y-18041714D01*
X-12428285Y-18327428D02*
X-10499714Y-17041714D01*
X-12428285Y-17327428D02*
X-10499714Y-16041714D01*
X-12428285Y-16327428D02*
X-10499714Y-15041714D01*
X-12428285Y-15327428D02*
X-10499714Y-14041714D01*
X-12428285Y-14327428D02*
X-10499714Y-13041714D01*
X-12428285Y-13327428D02*
X-10499714Y-12041714D01*
X-12428285Y-12327428D02*
X-10499714Y-11041714D01*
X-12428285Y-11327428D02*
X-10499714Y-10041714D01*
X-12428285Y-10327428D02*
X-10499714Y-9041714D01*
X-12428285Y-9327428D02*
X-10499714Y-8041714D01*
X-12428285Y-8327428D02*
X-10499714Y-7041714D01*
X-12428285Y-7327428D02*
X-10499714Y-6041714D01*
X-12428285Y-6327428D02*
X-10499714Y-5041714D01*
X-12428285Y-5327428D02*
X-10499714Y-4041714D01*
X-12428285Y-4327428D02*
X-10499714Y-3041714D01*
X-12428285Y-3327428D02*
X-10499714Y-2041714D01*
X-12428285Y-2327428D02*
X-10499714Y-1041714D01*
X-12428285Y-1327428D02*
X-10499714Y-41714D01*
X-12428285Y-327428D02*
X-10499714Y958285D01*
X-12428285Y672571D02*
X-10499714Y1958285D01*
X-12428285Y1672571D02*
X-10499714Y2958285D01*
D11*
X107040000Y-73022000D02*
X105516000Y-73022000D01*
X105516000Y-73403000D02*
X107040000Y-73403000D01*
X105516000Y-73530000D02*
X107040000Y-73530000D01*
X107040000Y-68450000D02*
X105516000Y-68450000D01*
X105516000Y-73149000D02*
X107040000Y-73149000D01*
X105516000Y-72768000D02*
X107040000Y-72768000D01*
X107040000Y-73530000D02*
X107040000Y-68450000D01*
X105516000Y-68450000D02*
X105516000Y-73530000D01*
X107040000Y-73276000D02*
X105516000Y-73276000D01*
X105516000Y-72895000D02*
X107040000Y-72895000D01*
X97272000Y-86238000D02*
X97272000Y-87762000D01*
X97653000Y-87762000D02*
X97653000Y-86238000D01*
X97780000Y-87762000D02*
X97780000Y-86238000D01*
X92700000Y-86238000D02*
X92700000Y-87762000D01*
X97399000Y-87762000D02*
X97399000Y-86238000D01*
X97018000Y-87762000D02*
X97018000Y-86238000D01*
X97780000Y-86238000D02*
X92700000Y-86238000D01*
X92700000Y-87762000D02*
X97780000Y-87762000D01*
X97526000Y-86238000D02*
X97526000Y-87762000D01*
X97145000Y-87762000D02*
X97145000Y-86238000D01*
X97272000Y-67138000D02*
X97272000Y-68662000D01*
X97653000Y-68662000D02*
X97653000Y-67138000D01*
X97780000Y-68662000D02*
X97780000Y-67138000D01*
X92700000Y-67138000D02*
X92700000Y-68662000D01*
X97399000Y-68662000D02*
X97399000Y-67138000D01*
X97018000Y-68662000D02*
X97018000Y-67138000D01*
X97780000Y-67138000D02*
X92700000Y-67138000D01*
X92700000Y-68662000D02*
X97780000Y-68662000D01*
X97526000Y-67138000D02*
X97526000Y-68662000D01*
X97145000Y-68662000D02*
X97145000Y-67138000D01*
X97272000Y-48138000D02*
X97272000Y-49662000D01*
X97653000Y-49662000D02*
X97653000Y-48138000D01*
X97780000Y-49662000D02*
X97780000Y-48138000D01*
X92700000Y-48138000D02*
X92700000Y-49662000D01*
X97399000Y-49662000D02*
X97399000Y-48138000D01*
X97018000Y-49662000D02*
X97018000Y-48138000D01*
X97780000Y-48138000D02*
X92700000Y-48138000D01*
X92700000Y-49662000D02*
X97780000Y-49662000D01*
X97526000Y-48138000D02*
X97526000Y-49662000D01*
X97145000Y-49662000D02*
X97145000Y-48138000D01*
X97272000Y-29138000D02*
X97272000Y-30662000D01*
X97653000Y-30662000D02*
X97653000Y-29138000D01*
X97780000Y-30662000D02*
X97780000Y-29138000D01*
X92700000Y-29138000D02*
X92700000Y-30662000D01*
X97399000Y-30662000D02*
X97399000Y-29138000D01*
X97018000Y-30662000D02*
X97018000Y-29138000D01*
X97780000Y-29138000D02*
X92700000Y-29138000D01*
X92700000Y-30662000D02*
X97780000Y-30662000D01*
X97526000Y-29138000D02*
X97526000Y-30662000D01*
X97145000Y-30662000D02*
X97145000Y-29138000D01*
X97272000Y-10138000D02*
X97272000Y-11662000D01*
X97653000Y-11662000D02*
X97653000Y-10138000D01*
X97780000Y-11662000D02*
X97780000Y-10138000D01*
X92700000Y-10138000D02*
X92700000Y-11662000D01*
X97399000Y-11662000D02*
X97399000Y-10138000D01*
X97018000Y-11662000D02*
X97018000Y-10138000D01*
X97780000Y-10138000D02*
X92700000Y-10138000D01*
X92700000Y-11662000D02*
X97780000Y-11662000D01*
X97526000Y-10138000D02*
X97526000Y-11662000D01*
X97145000Y-11662000D02*
X97145000Y-10138000D01*
X78222000Y-81238000D02*
X78222000Y-82762000D01*
X78603000Y-82762000D02*
X78603000Y-81238000D01*
X78730000Y-82762000D02*
X78730000Y-81238000D01*
X73650000Y-81238000D02*
X73650000Y-82762000D01*
X78349000Y-82762000D02*
X78349000Y-81238000D01*
X77968000Y-82762000D02*
X77968000Y-81238000D01*
X78730000Y-81238000D02*
X73650000Y-81238000D01*
X73650000Y-82762000D02*
X78730000Y-82762000D01*
X78476000Y-81238000D02*
X78476000Y-82762000D01*
X78095000Y-82762000D02*
X78095000Y-81238000D01*
X78222000Y-62138000D02*
X78222000Y-63662000D01*
X78603000Y-63662000D02*
X78603000Y-62138000D01*
X78730000Y-63662000D02*
X78730000Y-62138000D01*
X73650000Y-62138000D02*
X73650000Y-63662000D01*
X78349000Y-63662000D02*
X78349000Y-62138000D01*
X77968000Y-63662000D02*
X77968000Y-62138000D01*
X78730000Y-62138000D02*
X73650000Y-62138000D01*
X73650000Y-63662000D02*
X78730000Y-63662000D01*
X78476000Y-62138000D02*
X78476000Y-63662000D01*
X78095000Y-63662000D02*
X78095000Y-62138000D01*
X78222000Y-43138000D02*
X78222000Y-44662000D01*
X78603000Y-44662000D02*
X78603000Y-43138000D01*
X78730000Y-44662000D02*
X78730000Y-43138000D01*
X73650000Y-43138000D02*
X73650000Y-44662000D01*
X78349000Y-44662000D02*
X78349000Y-43138000D01*
X77968000Y-44662000D02*
X77968000Y-43138000D01*
X78730000Y-43138000D02*
X73650000Y-43138000D01*
X73650000Y-44662000D02*
X78730000Y-44662000D01*
X78476000Y-43138000D02*
X78476000Y-44662000D01*
X78095000Y-44662000D02*
X78095000Y-43138000D01*
X78222000Y-24138000D02*
X78222000Y-25662000D01*
X78603000Y-25662000D02*
X78603000Y-24138000D01*
X78730000Y-25662000D02*
X78730000Y-24138000D01*
X73650000Y-24138000D02*
X73650000Y-25662000D01*
X78349000Y-25662000D02*
X78349000Y-24138000D01*
X77968000Y-25662000D02*
X77968000Y-24138000D01*
X78730000Y-24138000D02*
X73650000Y-24138000D01*
X73650000Y-25662000D02*
X78730000Y-25662000D01*
X78476000Y-24138000D02*
X78476000Y-25662000D01*
X78095000Y-25662000D02*
X78095000Y-24138000D01*
X78222000Y-5138000D02*
X78222000Y-6662000D01*
X78603000Y-6662000D02*
X78603000Y-5138000D01*
X78730000Y-6662000D02*
X78730000Y-5138000D01*
X73650000Y-5138000D02*
X73650000Y-6662000D01*
X78349000Y-6662000D02*
X78349000Y-5138000D01*
X77968000Y-6662000D02*
X77968000Y-5138000D01*
X78730000Y-5138000D02*
X73650000Y-5138000D01*
X73650000Y-6662000D02*
X78730000Y-6662000D01*
X78476000Y-5138000D02*
X78476000Y-6662000D01*
X78095000Y-6662000D02*
X78095000Y-5138000D01*
X59172000Y-75238000D02*
X59172000Y-76762000D01*
X59553000Y-76762000D02*
X59553000Y-75238000D01*
X59680000Y-76762000D02*
X59680000Y-75238000D01*
X54600000Y-75238000D02*
X54600000Y-76762000D01*
X59299000Y-76762000D02*
X59299000Y-75238000D01*
X58918000Y-76762000D02*
X58918000Y-75238000D01*
X59680000Y-75238000D02*
X54600000Y-75238000D01*
X54600000Y-76762000D02*
X59680000Y-76762000D01*
X59426000Y-75238000D02*
X59426000Y-76762000D01*
X59045000Y-76762000D02*
X59045000Y-75238000D01*
X59172000Y-56138000D02*
X59172000Y-57662000D01*
X59553000Y-57662000D02*
X59553000Y-56138000D01*
X59680000Y-57662000D02*
X59680000Y-56138000D01*
X54600000Y-56138000D02*
X54600000Y-57662000D01*
X59299000Y-57662000D02*
X59299000Y-56138000D01*
X58918000Y-57662000D02*
X58918000Y-56138000D01*
X59680000Y-56138000D02*
X54600000Y-56138000D01*
X54600000Y-57662000D02*
X59680000Y-57662000D01*
X59426000Y-56138000D02*
X59426000Y-57662000D01*
X59045000Y-57662000D02*
X59045000Y-56138000D01*
X59172000Y-37138000D02*
X59172000Y-38662000D01*
X59553000Y-38662000D02*
X59553000Y-37138000D01*
X59680000Y-38662000D02*
X59680000Y-37138000D01*
X54600000Y-37138000D02*
X54600000Y-38662000D01*
X59299000Y-38662000D02*
X59299000Y-37138000D01*
X58918000Y-38662000D02*
X58918000Y-37138000D01*
X59680000Y-37138000D02*
X54600000Y-37138000D01*
X54600000Y-38662000D02*
X59680000Y-38662000D01*
X59426000Y-37138000D02*
X59426000Y-38662000D01*
X59045000Y-38662000D02*
X59045000Y-37138000D01*
X59172000Y-18138000D02*
X59172000Y-19662000D01*
X59553000Y-19662000D02*
X59553000Y-18138000D01*
X59680000Y-19662000D02*
X59680000Y-18138000D01*
X54600000Y-18138000D02*
X54600000Y-19662000D01*
X59299000Y-19662000D02*
X59299000Y-18138000D01*
X58918000Y-19662000D02*
X58918000Y-18138000D01*
X59680000Y-18138000D02*
X54600000Y-18138000D01*
X54600000Y-19662000D02*
X59680000Y-19662000D01*
X59426000Y-18138000D02*
X59426000Y-19662000D01*
X59045000Y-19662000D02*
X59045000Y-18138000D01*
X59172000Y862000D02*
X59172000Y-662000D01*
X59553000Y-662000D02*
X59553000Y862000D01*
X59680000Y-662000D02*
X59680000Y862000D01*
X54600000Y862000D02*
X54600000Y-662000D01*
X59299000Y-662000D02*
X59299000Y862000D01*
X58918000Y-662000D02*
X58918000Y862000D01*
X59680000Y862000D02*
X54600000Y862000D01*
X54600000Y-662000D02*
X59680000Y-662000D01*
X59426000Y862000D02*
X59426000Y-662000D01*
X59045000Y-662000D02*
X59045000Y862000D01*
X40122000Y-80238000D02*
X40122000Y-81762000D01*
X40503000Y-81762000D02*
X40503000Y-80238000D01*
X40630000Y-81762000D02*
X40630000Y-80238000D01*
X35550000Y-80238000D02*
X35550000Y-81762000D01*
X40249000Y-81762000D02*
X40249000Y-80238000D01*
X39868000Y-81762000D02*
X39868000Y-80238000D01*
X40630000Y-80238000D02*
X35550000Y-80238000D01*
X35550000Y-81762000D02*
X40630000Y-81762000D01*
X40376000Y-80238000D02*
X40376000Y-81762000D01*
X39995000Y-81762000D02*
X39995000Y-80238000D01*
X40122000Y-61138000D02*
X40122000Y-62662000D01*
X40503000Y-62662000D02*
X40503000Y-61138000D01*
X40630000Y-62662000D02*
X40630000Y-61138000D01*
X35550000Y-61138000D02*
X35550000Y-62662000D01*
X40249000Y-62662000D02*
X40249000Y-61138000D01*
X39868000Y-62662000D02*
X39868000Y-61138000D01*
X40630000Y-61138000D02*
X35550000Y-61138000D01*
X35550000Y-62662000D02*
X40630000Y-62662000D01*
X40376000Y-61138000D02*
X40376000Y-62662000D01*
X39995000Y-62662000D02*
X39995000Y-61138000D01*
X40122000Y-42138000D02*
X40122000Y-43662000D01*
X40503000Y-43662000D02*
X40503000Y-42138000D01*
X40630000Y-43662000D02*
X40630000Y-42138000D01*
X35550000Y-42138000D02*
X35550000Y-43662000D01*
X40249000Y-43662000D02*
X40249000Y-42138000D01*
X39868000Y-43662000D02*
X39868000Y-42138000D01*
X40630000Y-42138000D02*
X35550000Y-42138000D01*
X35550000Y-43662000D02*
X40630000Y-43662000D01*
X40376000Y-42138000D02*
X40376000Y-43662000D01*
X39995000Y-43662000D02*
X39995000Y-42138000D01*
X40122000Y-23138000D02*
X40122000Y-24662000D01*
X40503000Y-24662000D02*
X40503000Y-23138000D01*
X40630000Y-24662000D02*
X40630000Y-23138000D01*
X35550000Y-23138000D02*
X35550000Y-24662000D01*
X40249000Y-24662000D02*
X40249000Y-23138000D01*
X39868000Y-24662000D02*
X39868000Y-23138000D01*
X40630000Y-23138000D02*
X35550000Y-23138000D01*
X35550000Y-24662000D02*
X40630000Y-24662000D01*
X40376000Y-23138000D02*
X40376000Y-24662000D01*
X39995000Y-24662000D02*
X39995000Y-23138000D01*
X40122000Y-4138000D02*
X40122000Y-5662000D01*
X40503000Y-5662000D02*
X40503000Y-4138000D01*
X40630000Y-5662000D02*
X40630000Y-4138000D01*
X35550000Y-4138000D02*
X35550000Y-5662000D01*
X40249000Y-5662000D02*
X40249000Y-4138000D01*
X39868000Y-5662000D02*
X39868000Y-4138000D01*
X40630000Y-4138000D02*
X35550000Y-4138000D01*
X35550000Y-5662000D02*
X40630000Y-5662000D01*
X40376000Y-4138000D02*
X40376000Y-5662000D01*
X39995000Y-5662000D02*
X39995000Y-4138000D01*
X21072000Y-83238000D02*
X21072000Y-84762000D01*
X21453000Y-84762000D02*
X21453000Y-83238000D01*
X21580000Y-84762000D02*
X21580000Y-83238000D01*
X16500000Y-83238000D02*
X16500000Y-84762000D01*
X21199000Y-84762000D02*
X21199000Y-83238000D01*
X20818000Y-84762000D02*
X20818000Y-83238000D01*
X21580000Y-83238000D02*
X16500000Y-83238000D01*
X16500000Y-84762000D02*
X21580000Y-84762000D01*
X21326000Y-83238000D02*
X21326000Y-84762000D01*
X20945000Y-84762000D02*
X20945000Y-83238000D01*
X21072000Y-64138000D02*
X21072000Y-65662000D01*
X21453000Y-65662000D02*
X21453000Y-64138000D01*
X21580000Y-65662000D02*
X21580000Y-64138000D01*
X16500000Y-64138000D02*
X16500000Y-65662000D01*
X21199000Y-65662000D02*
X21199000Y-64138000D01*
X20818000Y-65662000D02*
X20818000Y-64138000D01*
X21580000Y-64138000D02*
X16500000Y-64138000D01*
X16500000Y-65662000D02*
X21580000Y-65662000D01*
X21326000Y-64138000D02*
X21326000Y-65662000D01*
X20945000Y-65662000D02*
X20945000Y-64138000D01*
X21072000Y-45138000D02*
X21072000Y-46662000D01*
X21453000Y-46662000D02*
X21453000Y-45138000D01*
X21580000Y-46662000D02*
X21580000Y-45138000D01*
X16500000Y-45138000D02*
X16500000Y-46662000D01*
X21199000Y-46662000D02*
X21199000Y-45138000D01*
X20818000Y-46662000D02*
X20818000Y-45138000D01*
X21580000Y-45138000D02*
X16500000Y-45138000D01*
X16500000Y-46662000D02*
X21580000Y-46662000D01*
X21326000Y-45138000D02*
X21326000Y-46662000D01*
X20945000Y-46662000D02*
X20945000Y-45138000D01*
X21072000Y-26138000D02*
X21072000Y-27662000D01*
X21453000Y-27662000D02*
X21453000Y-26138000D01*
X21580000Y-27662000D02*
X21580000Y-26138000D01*
X16500000Y-26138000D02*
X16500000Y-27662000D01*
X21199000Y-27662000D02*
X21199000Y-26138000D01*
X20818000Y-27662000D02*
X20818000Y-26138000D01*
X21580000Y-26138000D02*
X16500000Y-26138000D01*
X16500000Y-27662000D02*
X21580000Y-27662000D01*
X21326000Y-26138000D02*
X21326000Y-27662000D01*
X20945000Y-27662000D02*
X20945000Y-26138000D01*
X21072000Y-7138000D02*
X21072000Y-8662000D01*
X21453000Y-8662000D02*
X21453000Y-7138000D01*
X21580000Y-8662000D02*
X21580000Y-7138000D01*
X16500000Y-7138000D02*
X16500000Y-8662000D01*
X21199000Y-8662000D02*
X21199000Y-7138000D01*
X20818000Y-8662000D02*
X20818000Y-7138000D01*
X21580000Y-7138000D02*
X16500000Y-7138000D01*
X16500000Y-8662000D02*
X21580000Y-8662000D01*
X21326000Y-7138000D02*
X21326000Y-8662000D01*
X20945000Y-8662000D02*
X20945000Y-7138000D01*
X2022000Y-83238000D02*
X2022000Y-84762000D01*
X2403000Y-84762000D02*
X2403000Y-83238000D01*
X2530000Y-84762000D02*
X2530000Y-83238000D01*
X-2550000Y-83238000D02*
X-2550000Y-84762000D01*
X2149000Y-84762000D02*
X2149000Y-83238000D01*
X1768000Y-84762000D02*
X1768000Y-83238000D01*
X2530000Y-83238000D02*
X-2550000Y-83238000D01*
X-2550000Y-84762000D02*
X2530000Y-84762000D01*
X2276000Y-83238000D02*
X2276000Y-84762000D01*
X1895000Y-84762000D02*
X1895000Y-83238000D01*
X2022000Y-64188000D02*
X2022000Y-65712000D01*
X2403000Y-65712000D02*
X2403000Y-64188000D01*
X2530000Y-65712000D02*
X2530000Y-64188000D01*
X-2550000Y-64188000D02*
X-2550000Y-65712000D01*
X2149000Y-65712000D02*
X2149000Y-64188000D01*
X1768000Y-65712000D02*
X1768000Y-64188000D01*
X2530000Y-64188000D02*
X-2550000Y-64188000D01*
X-2550000Y-65712000D02*
X2530000Y-65712000D01*
X2276000Y-64188000D02*
X2276000Y-65712000D01*
X1895000Y-65712000D02*
X1895000Y-64188000D01*
X2022000Y-45138000D02*
X2022000Y-46662000D01*
X2403000Y-46662000D02*
X2403000Y-45138000D01*
X2530000Y-46662000D02*
X2530000Y-45138000D01*
X-2550000Y-45138000D02*
X-2550000Y-46662000D01*
X2149000Y-46662000D02*
X2149000Y-45138000D01*
X1768000Y-46662000D02*
X1768000Y-45138000D01*
X2530000Y-45138000D02*
X-2550000Y-45138000D01*
X-2550000Y-46662000D02*
X2530000Y-46662000D01*
X2276000Y-45138000D02*
X2276000Y-46662000D01*
X1895000Y-46662000D02*
X1895000Y-45138000D01*
X2022000Y-26138000D02*
X2022000Y-27662000D01*
X2403000Y-27662000D02*
X2403000Y-26138000D01*
X2530000Y-27662000D02*
X2530000Y-26138000D01*
X-2550000Y-26138000D02*
X-2550000Y-27662000D01*
X2149000Y-27662000D02*
X2149000Y-26138000D01*
X1768000Y-27662000D02*
X1768000Y-26138000D01*
X2530000Y-26138000D02*
X-2550000Y-26138000D01*
X-2550000Y-27662000D02*
X2530000Y-27662000D01*
X2276000Y-26138000D02*
X2276000Y-27662000D01*
X1895000Y-27662000D02*
X1895000Y-26138000D01*
X2022000Y-7138000D02*
X2022000Y-8662000D01*
X2403000Y-8662000D02*
X2403000Y-7138000D01*
X2530000Y-8662000D02*
X2530000Y-7138000D01*
X-2550000Y-7138000D02*
X-2550000Y-8662000D01*
X2149000Y-8662000D02*
X2149000Y-7138000D01*
X1768000Y-8662000D02*
X1768000Y-7138000D01*
X2530000Y-7138000D02*
X-2550000Y-7138000D01*
X-2550000Y-8662000D02*
X2530000Y-8662000D01*
X2276000Y-7138000D02*
X2276000Y-8662000D01*
X1895000Y-8662000D02*
X1895000Y-7138000D01*
G36*
X120349568Y-23367360D02*
G01*
X120349568Y-23567360D01*
X120249568Y-23567360D01*
X120249568Y-23367360D01*
X120349568Y-23367360D01*
G37*
X120349568Y-23367360D02*
X120349568Y-23567360D01*
X120249568Y-23567360D01*
X120249568Y-23367360D01*
X120349568Y-23367360D01*
G36*
X119949568Y-22767360D02*
G01*
X119949568Y-23567360D01*
X119849568Y-23567360D01*
X119849568Y-22767360D01*
X119949568Y-22767360D01*
G37*
X119949568Y-22767360D02*
X119949568Y-23567360D01*
X119849568Y-23567360D01*
X119849568Y-22767360D01*
X119949568Y-22767360D01*
G36*
X120349568Y-22767360D02*
G01*
X120349568Y-22867360D01*
X119849568Y-22867360D01*
X119849568Y-22767360D01*
X120349568Y-22767360D01*
G37*
X120349568Y-22767360D02*
X120349568Y-22867360D01*
X119849568Y-22867360D01*
X119849568Y-22767360D01*
X120349568Y-22767360D01*
G36*
X120149568Y-23167360D02*
G01*
X120149568Y-23267360D01*
X120049568Y-23267360D01*
X120049568Y-23167360D01*
X120149568Y-23167360D01*
G37*
X120149568Y-23167360D02*
X120149568Y-23267360D01*
X120049568Y-23267360D01*
X120049568Y-23167360D01*
X120149568Y-23167360D01*
G36*
X120349568Y-22767360D02*
G01*
X120349568Y-23067360D01*
X120249568Y-23067360D01*
X120249568Y-22767360D01*
X120349568Y-22767360D01*
G37*
X120349568Y-22767360D02*
X120349568Y-23067360D01*
X120249568Y-23067360D01*
X120249568Y-22767360D01*
X120349568Y-22767360D01*
X120955000Y-65920000D02*
X120955000Y-74810000D01*
X120574000Y-65920000D02*
X120955000Y-65920000D01*
X116510000Y-65920000D02*
X117526000Y-65920000D01*
X116510000Y-71000000D02*
X116510000Y-65920000D01*
X114605000Y-75191000D02*
X114604999Y-73539999D01*
X114605000Y-77350000D02*
X114605000Y-76969000D01*
X114986000Y-77350000D02*
X114605000Y-77350000D01*
X118415000Y-77350000D02*
X118034000Y-77350000D01*
X120955000Y-74810000D02*
G75*
G02X118415000Y-77350000I-2540000J0D01*
G01*
X116588171Y-71000001D02*
G75*
G02X114604999Y-73539999I-2618171J1D01*
G01*
X121000000Y-64000000D02*
X121000000Y-65000000D01*
X121000000Y-78000000D02*
X120000000Y-78000000D01*
X121000000Y-77000000D02*
X121000000Y-78000000D01*
X120000000Y-64000000D02*
X121000000Y-64000000D01*
X90170000Y-53195000D02*
X99060000Y-53195000D01*
X90170000Y-53576000D02*
X90170000Y-53195000D01*
X90170000Y-57640000D02*
X90170000Y-56624000D01*
X95250000Y-57640000D02*
X90170000Y-57640000D01*
X99441000Y-59545000D02*
X97789999Y-59545001D01*
X101600000Y-59545000D02*
X101219000Y-59545000D01*
X101600000Y-59164000D02*
X101600000Y-59545000D01*
X101600000Y-55735000D02*
X101600000Y-56116000D01*
X99060000Y-53195000D02*
G75*
G02X101600000Y-55735000I0J-2540000D01*
G01*
X95250001Y-57561829D02*
G75*
G02X97789999Y-59545001I-1J-2618171D01*
G01*
X88250000Y-53150000D02*
X89250000Y-53150000D01*
X102250000Y-53150000D02*
X102250000Y-54150000D01*
X101250000Y-53150000D02*
X102250000Y-53150000D01*
X88250000Y-54150000D02*
X88250000Y-53150000D01*
X90170000Y-34145000D02*
X99060000Y-34145000D01*
X90170000Y-34526000D02*
X90170000Y-34145000D01*
X90170000Y-38590000D02*
X90170000Y-37574000D01*
X95250000Y-38590000D02*
X90170000Y-38590000D01*
X99441000Y-40495000D02*
X97789999Y-40495001D01*
X101600000Y-40495000D02*
X101219000Y-40495000D01*
X101600000Y-40114000D02*
X101600000Y-40495000D01*
X101600000Y-36685000D02*
X101600000Y-37066000D01*
X99060000Y-34145000D02*
G75*
G02X101600000Y-36685000I0J-2540000D01*
G01*
X95250001Y-38511829D02*
G75*
G02X97789999Y-40495001I-1J-2618171D01*
G01*
X88250000Y-34100000D02*
X89250000Y-34100000D01*
X102250000Y-34100000D02*
X102250000Y-35100000D01*
X101250000Y-34100000D02*
X102250000Y-34100000D01*
X88250000Y-35100000D02*
X88250000Y-34100000D01*
X90170000Y-15095000D02*
X99060000Y-15095000D01*
X90170000Y-15476000D02*
X90170000Y-15095000D01*
X90170000Y-19540000D02*
X90170000Y-18524000D01*
X95250000Y-19540000D02*
X90170000Y-19540000D01*
X99441000Y-21445000D02*
X97789999Y-21445001D01*
X101600000Y-21445000D02*
X101219000Y-21445000D01*
X101600000Y-21064000D02*
X101600000Y-21445000D01*
X101600000Y-17635000D02*
X101600000Y-18016000D01*
X99060000Y-15095000D02*
G75*
G02X101600000Y-17635000I0J-2540000D01*
G01*
X95250001Y-19461829D02*
G75*
G02X97789999Y-21445001I-1J-2618171D01*
G01*
X88250000Y-15050000D02*
X89250000Y-15050000D01*
X102250000Y-15050000D02*
X102250000Y-16050000D01*
X101250000Y-15050000D02*
X102250000Y-15050000D01*
X88250000Y-16050000D02*
X88250000Y-15050000D01*
X90170000Y3955000D02*
X99060000Y3955000D01*
X90170000Y3574000D02*
X90170000Y3955000D01*
X90170000Y-490000D02*
X90170000Y526000D01*
X95250000Y-490000D02*
X90170000Y-490000D01*
X99441000Y-2395000D02*
X97789999Y-2395001D01*
X101600000Y-2395000D02*
X101219000Y-2395000D01*
X101600000Y-2014000D02*
X101600000Y-2395000D01*
X101600000Y1415000D02*
X101600000Y1034000D01*
X99060000Y3955000D02*
G75*
G02X101600000Y1415000I0J-2540000D01*
G01*
X95250001Y-411829D02*
G75*
G02X97789999Y-2395001I-1J-2618171D01*
G01*
X88250000Y4000000D02*
X89250000Y4000000D01*
X102250000Y4000000D02*
X102250000Y3000000D01*
X101250000Y4000000D02*
X102250000Y4000000D01*
X88250000Y3000000D02*
X88250000Y4000000D01*
X71120000Y-67245000D02*
X80010000Y-67245000D01*
X71120000Y-67626000D02*
X71120000Y-67245000D01*
X71120000Y-71690000D02*
X71120000Y-70674000D01*
X76200000Y-71690000D02*
X71120000Y-71690000D01*
X80391000Y-73595000D02*
X78739999Y-73595001D01*
X82550000Y-73595000D02*
X82169000Y-73595000D01*
X82550000Y-73214000D02*
X82550000Y-73595000D01*
X82550000Y-69785000D02*
X82550000Y-70166000D01*
X80010000Y-67245000D02*
G75*
G02X82550000Y-69785000I0J-2540000D01*
G01*
X76200001Y-71611829D02*
G75*
G02X78739999Y-73595001I-1J-2618171D01*
G01*
X69200000Y-67200000D02*
X70200000Y-67200000D01*
X83200000Y-67200000D02*
X83200000Y-68200000D01*
X82200000Y-67200000D02*
X83200000Y-67200000D01*
X69200000Y-68200000D02*
X69200000Y-67200000D01*
X71120000Y-48195000D02*
X80010000Y-48195000D01*
X71120000Y-48576000D02*
X71120000Y-48195000D01*
X71120000Y-52640000D02*
X71120000Y-51624000D01*
X76200000Y-52640000D02*
X71120000Y-52640000D01*
X80391000Y-54545000D02*
X78739999Y-54545001D01*
X82550000Y-54545000D02*
X82169000Y-54545000D01*
X82550000Y-54164000D02*
X82550000Y-54545000D01*
X82550000Y-50735000D02*
X82550000Y-51116000D01*
X80010000Y-48195000D02*
G75*
G02X82550000Y-50735000I0J-2540000D01*
G01*
X76200001Y-52561829D02*
G75*
G02X78739999Y-54545001I-1J-2618171D01*
G01*
X69200000Y-48150000D02*
X70200000Y-48150000D01*
X83200000Y-48150000D02*
X83200000Y-49150000D01*
X82200000Y-48150000D02*
X83200000Y-48150000D01*
X69200000Y-49150000D02*
X69200000Y-48150000D01*
X71120000Y-29145000D02*
X80010000Y-29145000D01*
X71120000Y-29526000D02*
X71120000Y-29145000D01*
X71120000Y-33590000D02*
X71120000Y-32574000D01*
X76200000Y-33590000D02*
X71120000Y-33590000D01*
X80391000Y-35495000D02*
X78739999Y-35495001D01*
X82550000Y-35495000D02*
X82169000Y-35495000D01*
X82550000Y-35114000D02*
X82550000Y-35495000D01*
X82550000Y-31685000D02*
X82550000Y-32066000D01*
X80010000Y-29145000D02*
G75*
G02X82550000Y-31685000I0J-2540000D01*
G01*
X76200001Y-33511829D02*
G75*
G02X78739999Y-35495001I-1J-2618171D01*
G01*
X69200000Y-29100000D02*
X70200000Y-29100000D01*
X83200000Y-29100000D02*
X83200000Y-30100000D01*
X82200000Y-29100000D02*
X83200000Y-29100000D01*
X69200000Y-30100000D02*
X69200000Y-29100000D01*
X71120000Y-10095000D02*
X80010000Y-10095000D01*
X71120000Y-10476000D02*
X71120000Y-10095000D01*
X71120000Y-14540000D02*
X71120000Y-13524000D01*
X76200000Y-14540000D02*
X71120000Y-14540000D01*
X80391000Y-16445000D02*
X78739999Y-16445001D01*
X82550000Y-16445000D02*
X82169000Y-16445000D01*
X82550000Y-16064000D02*
X82550000Y-16445000D01*
X82550000Y-12635000D02*
X82550000Y-13016000D01*
X80010000Y-10095000D02*
G75*
G02X82550000Y-12635000I0J-2540000D01*
G01*
X76200001Y-14461829D02*
G75*
G02X78739999Y-16445001I-1J-2618171D01*
G01*
X69200000Y-10050000D02*
X70200000Y-10050000D01*
X83200000Y-10050000D02*
X83200000Y-11050000D01*
X82200000Y-10050000D02*
X83200000Y-10050000D01*
X69200000Y-11050000D02*
X69200000Y-10050000D01*
X71120000Y8955000D02*
X80010000Y8955000D01*
X71120000Y8574000D02*
X71120000Y8955000D01*
X71120000Y4510000D02*
X71120000Y5526000D01*
X76200000Y4510000D02*
X71120000Y4510000D01*
X80391000Y2605000D02*
X78739999Y2604999D01*
X82550000Y2605000D02*
X82169000Y2605000D01*
X82550000Y2986000D02*
X82550000Y2605000D01*
X82550000Y6415000D02*
X82550000Y6034000D01*
X80010000Y8955000D02*
G75*
G02X82550000Y6415000I0J-2540000D01*
G01*
X76200001Y4588171D02*
G75*
G02X78739999Y2604999I-1J-2618171D01*
G01*
X69200000Y9000000D02*
X70200000Y9000000D01*
X83200000Y9000000D02*
X83200000Y8000000D01*
X82200000Y9000000D02*
X83200000Y9000000D01*
X69200000Y8000000D02*
X69200000Y9000000D01*
X52070000Y-61245000D02*
X60960000Y-61245000D01*
X52070000Y-61626000D02*
X52070000Y-61245000D01*
X52070000Y-65690000D02*
X52070000Y-64674000D01*
X57150000Y-65690000D02*
X52070000Y-65690000D01*
X61341000Y-67595000D02*
X59689999Y-67595001D01*
X63500000Y-67595000D02*
X63119000Y-67595000D01*
X63500000Y-67214000D02*
X63500000Y-67595000D01*
X63500000Y-63785000D02*
X63500000Y-64166000D01*
X60960000Y-61245000D02*
G75*
G02X63500000Y-63785000I0J-2540000D01*
G01*
X57150001Y-65611829D02*
G75*
G02X59689999Y-67595001I-1J-2618171D01*
G01*
X50150000Y-61200000D02*
X51150000Y-61200000D01*
X64150000Y-61200000D02*
X64150000Y-62200000D01*
X63150000Y-61200000D02*
X64150000Y-61200000D01*
X50150000Y-62200000D02*
X50150000Y-61200000D01*
X52070000Y-42195000D02*
X60960000Y-42195000D01*
X52070000Y-42576000D02*
X52070000Y-42195000D01*
X52070000Y-46640000D02*
X52070000Y-45624000D01*
X57150000Y-46640000D02*
X52070000Y-46640000D01*
X61341000Y-48545000D02*
X59689999Y-48545001D01*
X63500000Y-48545000D02*
X63119000Y-48545000D01*
X63500000Y-48164000D02*
X63500000Y-48545000D01*
X63500000Y-44735000D02*
X63500000Y-45116000D01*
X60960000Y-42195000D02*
G75*
G02X63500000Y-44735000I0J-2540000D01*
G01*
X57150001Y-46561829D02*
G75*
G02X59689999Y-48545001I-1J-2618171D01*
G01*
X50150000Y-42150000D02*
X51150000Y-42150000D01*
X64150000Y-42150000D02*
X64150000Y-43150000D01*
X63150000Y-42150000D02*
X64150000Y-42150000D01*
X50150000Y-43150000D02*
X50150000Y-42150000D01*
X52070000Y-23145000D02*
X60960000Y-23145000D01*
X52070000Y-23526000D02*
X52070000Y-23145000D01*
X52070000Y-27590000D02*
X52070000Y-26574000D01*
X57150000Y-27590000D02*
X52070000Y-27590000D01*
X61341000Y-29495000D02*
X59689999Y-29495001D01*
X63500000Y-29495000D02*
X63119000Y-29495000D01*
X63500000Y-29114000D02*
X63500000Y-29495000D01*
X63500000Y-25685000D02*
X63500000Y-26066000D01*
X60960000Y-23145000D02*
G75*
G02X63500000Y-25685000I0J-2540000D01*
G01*
X57150001Y-27511829D02*
G75*
G02X59689999Y-29495001I-1J-2618171D01*
G01*
X50150000Y-23100000D02*
X51150000Y-23100000D01*
X64150000Y-23100000D02*
X64150000Y-24100000D01*
X63150000Y-23100000D02*
X64150000Y-23100000D01*
X50150000Y-24100000D02*
X50150000Y-23100000D01*
X52070000Y-4095000D02*
X60960000Y-4095000D01*
X52070000Y-4476000D02*
X52070000Y-4095000D01*
X52070000Y-8540000D02*
X52070000Y-7524000D01*
X57150000Y-8540000D02*
X52070000Y-8540000D01*
X61341000Y-10445000D02*
X59689999Y-10445001D01*
X63500000Y-10445000D02*
X63119000Y-10445000D01*
X63500000Y-10064000D02*
X63500000Y-10445000D01*
X63500000Y-6635000D02*
X63500000Y-7016000D01*
X60960000Y-4095000D02*
G75*
G02X63500000Y-6635000I0J-2540000D01*
G01*
X57150001Y-8461829D02*
G75*
G02X59689999Y-10445001I-1J-2618171D01*
G01*
X50150000Y-4050000D02*
X51150000Y-4050000D01*
X64150000Y-4050000D02*
X64150000Y-5050000D01*
X63150000Y-4050000D02*
X64150000Y-4050000D01*
X50150000Y-5050000D02*
X50150000Y-4050000D01*
X52070000Y14955000D02*
X60960000Y14955000D01*
X52070000Y14574000D02*
X52070000Y14955000D01*
X52070000Y10510000D02*
X52070000Y11526000D01*
X57150000Y10510000D02*
X52070000Y10510000D01*
X61341000Y8605000D02*
X59689999Y8604999D01*
X63500000Y8605000D02*
X63119000Y8605000D01*
X63500000Y8986000D02*
X63500000Y8605000D01*
X63500000Y12415000D02*
X63500000Y12034000D01*
X60960000Y14955000D02*
G75*
G02X63500000Y12415000I0J-2540000D01*
G01*
X57150001Y10588171D02*
G75*
G02X59689999Y8604999I-1J-2618171D01*
G01*
X50150000Y15000000D02*
X51150000Y15000000D01*
X64150000Y15000000D02*
X64150000Y14000000D01*
X63150000Y15000000D02*
X64150000Y15000000D01*
X50150000Y14000000D02*
X50150000Y15000000D01*
X33020000Y-66245000D02*
X41910000Y-66245000D01*
X33020000Y-66626000D02*
X33020000Y-66245000D01*
X33020000Y-70690000D02*
X33020000Y-69674000D01*
X38100000Y-70690000D02*
X33020000Y-70690000D01*
X42291000Y-72595000D02*
X40639999Y-72595001D01*
X44450000Y-72595000D02*
X44069000Y-72595000D01*
X44450000Y-72214000D02*
X44450000Y-72595000D01*
X44450000Y-68785000D02*
X44450000Y-69166000D01*
X41910000Y-66245000D02*
G75*
G02X44450000Y-68785000I0J-2540000D01*
G01*
X38100001Y-70611829D02*
G75*
G02X40639999Y-72595001I-1J-2618171D01*
G01*
X31100000Y-66200000D02*
X32100000Y-66200000D01*
X45100000Y-66200000D02*
X45100000Y-67200000D01*
X44100000Y-66200000D02*
X45100000Y-66200000D01*
X31100000Y-67200000D02*
X31100000Y-66200000D01*
X33020000Y-47195000D02*
X41910000Y-47195000D01*
X33020000Y-47576000D02*
X33020000Y-47195000D01*
X33020000Y-51640000D02*
X33020000Y-50624000D01*
X38100000Y-51640000D02*
X33020000Y-51640000D01*
X42291000Y-53545000D02*
X40639999Y-53545001D01*
X44450000Y-53545000D02*
X44069000Y-53545000D01*
X44450000Y-53164000D02*
X44450000Y-53545000D01*
X44450000Y-49735000D02*
X44450000Y-50116000D01*
X41910000Y-47195000D02*
G75*
G02X44450000Y-49735000I0J-2540000D01*
G01*
X38100001Y-51561829D02*
G75*
G02X40639999Y-53545001I-1J-2618171D01*
G01*
X31100000Y-47150000D02*
X32100000Y-47150000D01*
X45100000Y-47150000D02*
X45100000Y-48150000D01*
X44100000Y-47150000D02*
X45100000Y-47150000D01*
X31100000Y-48150000D02*
X31100000Y-47150000D01*
X33020000Y-28145000D02*
X41910000Y-28145000D01*
X33020000Y-28526000D02*
X33020000Y-28145000D01*
X33020000Y-32590000D02*
X33020000Y-31574000D01*
X38100000Y-32590000D02*
X33020000Y-32590000D01*
X42291000Y-34495000D02*
X40639999Y-34495001D01*
X44450000Y-34495000D02*
X44069000Y-34495000D01*
X44450000Y-34114000D02*
X44450000Y-34495000D01*
X44450000Y-30685000D02*
X44450000Y-31066000D01*
X41910000Y-28145000D02*
G75*
G02X44450000Y-30685000I0J-2540000D01*
G01*
X38100001Y-32511829D02*
G75*
G02X40639999Y-34495001I-1J-2618171D01*
G01*
X31100000Y-28100000D02*
X32100000Y-28100000D01*
X45100000Y-28100000D02*
X45100000Y-29100000D01*
X44100000Y-28100000D02*
X45100000Y-28100000D01*
X31100000Y-29100000D02*
X31100000Y-28100000D01*
X33020000Y-9095000D02*
X41910000Y-9095000D01*
X33020000Y-9476000D02*
X33020000Y-9095000D01*
X33020000Y-13540000D02*
X33020000Y-12524000D01*
X38100000Y-13540000D02*
X33020000Y-13540000D01*
X42291000Y-15445000D02*
X40639999Y-15445001D01*
X44450000Y-15445000D02*
X44069000Y-15445000D01*
X44450000Y-15064000D02*
X44450000Y-15445000D01*
X44450000Y-11635000D02*
X44450000Y-12016000D01*
X41910000Y-9095000D02*
G75*
G02X44450000Y-11635000I0J-2540000D01*
G01*
X38100001Y-13461829D02*
G75*
G02X40639999Y-15445001I-1J-2618171D01*
G01*
X31100000Y-9050000D02*
X32100000Y-9050000D01*
X45100000Y-9050000D02*
X45100000Y-10050000D01*
X44100000Y-9050000D02*
X45100000Y-9050000D01*
X31100000Y-10050000D02*
X31100000Y-9050000D01*
X33020000Y9955000D02*
X41910000Y9955000D01*
X33020000Y9574000D02*
X33020000Y9955000D01*
X33020000Y5510000D02*
X33020000Y6526000D01*
X38100000Y5510000D02*
X33020000Y5510000D01*
X42291000Y3605000D02*
X40639999Y3604999D01*
X44450000Y3605000D02*
X44069000Y3605000D01*
X44450000Y3986000D02*
X44450000Y3605000D01*
X44450000Y7415000D02*
X44450000Y7034000D01*
X41910000Y9955000D02*
G75*
G02X44450000Y7415000I0J-2540000D01*
G01*
X38100001Y5588171D02*
G75*
G02X40639999Y3604999I-1J-2618171D01*
G01*
X31100000Y10000000D02*
X32100000Y10000000D01*
X45100000Y10000000D02*
X45100000Y9000000D01*
X44100000Y10000000D02*
X45100000Y10000000D01*
X31100000Y9000000D02*
X31100000Y10000000D01*
X13970000Y-69245000D02*
X22860000Y-69245000D01*
X13970000Y-69626000D02*
X13970000Y-69245000D01*
X13970000Y-73690000D02*
X13970000Y-72674000D01*
X19050000Y-73690000D02*
X13970000Y-73690000D01*
X23241000Y-75595000D02*
X21589999Y-75595001D01*
X25400000Y-75595000D02*
X25019000Y-75595000D01*
X25400000Y-75214000D02*
X25400000Y-75595000D01*
X25400000Y-71785000D02*
X25400000Y-72166000D01*
X22860000Y-69245000D02*
G75*
G02X25400000Y-71785000I0J-2540000D01*
G01*
X19050001Y-73611829D02*
G75*
G02X21589999Y-75595001I-1J-2618171D01*
G01*
X12050000Y-69200000D02*
X13050000Y-69200000D01*
X26050000Y-69200000D02*
X26050000Y-70200000D01*
X25050000Y-69200000D02*
X26050000Y-69200000D01*
X12050000Y-70200000D02*
X12050000Y-69200000D01*
X13970000Y-50195000D02*
X22860000Y-50195000D01*
X13970000Y-50576000D02*
X13970000Y-50195000D01*
X13970000Y-54640000D02*
X13970000Y-53624000D01*
X19050000Y-54640000D02*
X13970000Y-54640000D01*
X23241000Y-56545000D02*
X21589999Y-56545001D01*
X25400000Y-56545000D02*
X25019000Y-56545000D01*
X25400000Y-56164000D02*
X25400000Y-56545000D01*
X25400000Y-52735000D02*
X25400000Y-53116000D01*
X22860000Y-50195000D02*
G75*
G02X25400000Y-52735000I0J-2540000D01*
G01*
X19050001Y-54561829D02*
G75*
G02X21589999Y-56545001I-1J-2618171D01*
G01*
X12050000Y-50150000D02*
X13050000Y-50150000D01*
X26050000Y-50150000D02*
X26050000Y-51150000D01*
X25050000Y-50150000D02*
X26050000Y-50150000D01*
X12050000Y-51150000D02*
X12050000Y-50150000D01*
X13970000Y-31145000D02*
X22860000Y-31145000D01*
X13970000Y-31526000D02*
X13970000Y-31145000D01*
X13970000Y-35590000D02*
X13970000Y-34574000D01*
X19050000Y-35590000D02*
X13970000Y-35590000D01*
X23241000Y-37495000D02*
X21589999Y-37495001D01*
X25400000Y-37495000D02*
X25019000Y-37495000D01*
X25400000Y-37114000D02*
X25400000Y-37495000D01*
X25400000Y-33685000D02*
X25400000Y-34066000D01*
X22860000Y-31145000D02*
G75*
G02X25400000Y-33685000I0J-2540000D01*
G01*
X19050001Y-35511829D02*
G75*
G02X21589999Y-37495001I-1J-2618171D01*
G01*
X12050000Y-31100000D02*
X13050000Y-31100000D01*
X26050000Y-31100000D02*
X26050000Y-32100000D01*
X25050000Y-31100000D02*
X26050000Y-31100000D01*
X12050000Y-32100000D02*
X12050000Y-31100000D01*
X13970000Y-12095000D02*
X22860000Y-12095000D01*
X13970000Y-12476000D02*
X13970000Y-12095000D01*
X13970000Y-16540000D02*
X13970000Y-15524000D01*
X19050000Y-16540000D02*
X13970000Y-16540000D01*
X23241000Y-18445000D02*
X21589999Y-18445001D01*
X25400000Y-18445000D02*
X25019000Y-18445000D01*
X25400000Y-18064000D02*
X25400000Y-18445000D01*
X25400000Y-14635000D02*
X25400000Y-15016000D01*
X22860000Y-12095000D02*
G75*
G02X25400000Y-14635000I0J-2540000D01*
G01*
X19050001Y-16461829D02*
G75*
G02X21589999Y-18445001I-1J-2618171D01*
G01*
X12050000Y-12050000D02*
X13050000Y-12050000D01*
X26050000Y-12050000D02*
X26050000Y-13050000D01*
X25050000Y-12050000D02*
X26050000Y-12050000D01*
X12050000Y-13050000D02*
X12050000Y-12050000D01*
X13970000Y6955000D02*
X22860000Y6955000D01*
X13970000Y6574000D02*
X13970000Y6955000D01*
X13970000Y2510000D02*
X13970000Y3526000D01*
X19050000Y2510000D02*
X13970000Y2510000D01*
X23241000Y605000D02*
X21589999Y604999D01*
X25400000Y605000D02*
X25019000Y605000D01*
X25400000Y986000D02*
X25400000Y605000D01*
X25400000Y4415000D02*
X25400000Y4034000D01*
X22860000Y6955000D02*
G75*
G02X25400000Y4415000I0J-2540000D01*
G01*
X19050001Y2588171D02*
G75*
G02X21589999Y604999I-1J-2618171D01*
G01*
X12050000Y7000000D02*
X13050000Y7000000D01*
X26050000Y7000000D02*
X26050000Y6000000D01*
X25050000Y7000000D02*
X26050000Y7000000D01*
X12050000Y6000000D02*
X12050000Y7000000D01*
X-5080000Y-69245000D02*
X3810000Y-69245000D01*
X-5080000Y-69626000D02*
X-5080000Y-69245000D01*
X-5080000Y-73690000D02*
X-5080000Y-72674000D01*
X0Y-73690000D02*
X-5080000Y-73690000D01*
X4191000Y-75595000D02*
X2539999Y-75595001D01*
X6350000Y-75595000D02*
X5969000Y-75595000D01*
X6350000Y-75214000D02*
X6350000Y-75595000D01*
X6350000Y-71785000D02*
X6350000Y-72166000D01*
X3810000Y-69245000D02*
G75*
G02X6350000Y-71785000I0J-2540000D01*
G01*
X1Y-73611829D02*
G75*
G02X2539999Y-75595001I-1J-2618171D01*
G01*
X-7000000Y-69200000D02*
X-6000000Y-69200000D01*
X7000000Y-69200000D02*
X7000000Y-70200000D01*
X6000000Y-69200000D02*
X7000000Y-69200000D01*
X-7000000Y-70200000D02*
X-7000000Y-69200000D01*
X-5080000Y-50195000D02*
X3810000Y-50195000D01*
X-5080000Y-50576000D02*
X-5080000Y-50195000D01*
X-5080000Y-54640000D02*
X-5080000Y-53624000D01*
X0Y-54640000D02*
X-5080000Y-54640000D01*
X4191000Y-56545000D02*
X2539999Y-56545001D01*
X6350000Y-56545000D02*
X5969000Y-56545000D01*
X6350000Y-56164000D02*
X6350000Y-56545000D01*
X6350000Y-52735000D02*
X6350000Y-53116000D01*
X3810000Y-50195000D02*
G75*
G02X6350000Y-52735000I0J-2540000D01*
G01*
X1Y-54561829D02*
G75*
G02X2539999Y-56545001I-1J-2618171D01*
G01*
X-7000000Y-50150000D02*
X-6000000Y-50150000D01*
X7000000Y-50150000D02*
X7000000Y-51150000D01*
X6000000Y-50150000D02*
X7000000Y-50150000D01*
X-7000000Y-51150000D02*
X-7000000Y-50150000D01*
X-5080000Y-31145000D02*
X3810000Y-31145000D01*
X-5080000Y-31526000D02*
X-5080000Y-31145000D01*
X-5080000Y-35590000D02*
X-5080000Y-34574000D01*
X0Y-35590000D02*
X-5080000Y-35590000D01*
X4191000Y-37495000D02*
X2539999Y-37495001D01*
X6350000Y-37495000D02*
X5969000Y-37495000D01*
X6350000Y-37114000D02*
X6350000Y-37495000D01*
X6350000Y-33685000D02*
X6350000Y-34066000D01*
X3810000Y-31145000D02*
G75*
G02X6350000Y-33685000I0J-2540000D01*
G01*
X1Y-35511829D02*
G75*
G02X2539999Y-37495001I-1J-2618171D01*
G01*
X-7000000Y-31100000D02*
X-6000000Y-31100000D01*
X7000000Y-31100000D02*
X7000000Y-32100000D01*
X6000000Y-31100000D02*
X7000000Y-31100000D01*
X-7000000Y-32100000D02*
X-7000000Y-31100000D01*
X-5080000Y-12095000D02*
X3810000Y-12095000D01*
X-5080000Y-12476000D02*
X-5080000Y-12095000D01*
X-5080000Y-16540000D02*
X-5080000Y-15524000D01*
X0Y-16540000D02*
X-5080000Y-16540000D01*
X4191000Y-18445000D02*
X2539999Y-18445001D01*
X6350000Y-18445000D02*
X5969000Y-18445000D01*
X6350000Y-18064000D02*
X6350000Y-18445000D01*
X6350000Y-14635000D02*
X6350000Y-15016000D01*
X3810000Y-12095000D02*
G75*
G02X6350000Y-14635000I0J-2540000D01*
G01*
X1Y-16461829D02*
G75*
G02X2539999Y-18445001I-1J-2618171D01*
G01*
X-7000000Y-12050000D02*
X-6000000Y-12050000D01*
X7000000Y-12050000D02*
X7000000Y-13050000D01*
X6000000Y-12050000D02*
X7000000Y-12050000D01*
X-7000000Y-13050000D02*
X-7000000Y-12050000D01*
X-5080000Y6955000D02*
X3810000Y6955000D01*
X-5080000Y6574000D02*
X-5080000Y6955000D01*
X-5080000Y2510000D02*
X-5080000Y3526000D01*
X0Y2510000D02*
X-5080000Y2510000D01*
X4191000Y605000D02*
X2539999Y604999D01*
X6350000Y605000D02*
X5969000Y605000D01*
X6350000Y986000D02*
X6350000Y605000D01*
X6350000Y4415000D02*
X6350000Y4034000D01*
X3810000Y6955000D02*
G75*
G02X6350000Y4415000I0J-2540000D01*
G01*
X1Y2588171D02*
G75*
G02X2539999Y604999I-1J-2618171D01*
G01*
X-7000000Y7000000D02*
X-6000000Y7000000D01*
X7000000Y7000000D02*
X7000000Y6000000D01*
X6000000Y7000000D02*
X7000000Y7000000D01*
X-7000000Y6000000D02*
X-7000000Y7000000D01*
X90170000Y-72245000D02*
X99060000Y-72245000D01*
X90170000Y-72626000D02*
X90170000Y-72245000D01*
X90170000Y-76690000D02*
X90170000Y-75674000D01*
X95250000Y-76690000D02*
X90170000Y-76690000D01*
X99441000Y-78595000D02*
X97789999Y-78595001D01*
X101600000Y-78595000D02*
X101219000Y-78595000D01*
X101600000Y-78214000D02*
X101600000Y-78595000D01*
X101600000Y-74785000D02*
X101600000Y-75166000D01*
X99060000Y-72245000D02*
G75*
G02X101600000Y-74785000I0J-2540000D01*
G01*
X95250001Y-76611829D02*
G75*
G02X97789999Y-78595001I-1J-2618171D01*
G01*
X88250000Y-72200000D02*
X89250000Y-72200000D01*
X102250000Y-72200000D02*
X102250000Y-73200000D01*
X101250000Y-72200000D02*
X102250000Y-72200000D01*
X88250000Y-73200000D02*
X88250000Y-72200000D01*
D12*
G36*
X110610000Y-66350000D02*
G01*
X110610000Y-69100000D01*
X109370000Y-69075000D01*
X109370000Y-66345000D01*
X110610000Y-66350000D01*
G37*
X110610000Y-66350000D02*
X110610000Y-69100000D01*
X109370000Y-69075000D01*
X109370000Y-66345000D01*
X110610000Y-66350000D01*
G36*
X90600000Y-82590000D02*
G01*
X93350000Y-82590000D01*
X93325000Y-83830000D01*
X90595000Y-83830000D01*
X90600000Y-82590000D01*
G37*
X90600000Y-82590000D02*
X93350000Y-82590000D01*
X93325000Y-83830000D01*
X90595000Y-83830000D01*
X90600000Y-82590000D01*
G36*
X90600000Y-63540000D02*
G01*
X93350000Y-63540000D01*
X93325000Y-64780000D01*
X90595000Y-64780000D01*
X90600000Y-63540000D01*
G37*
X90600000Y-63540000D02*
X93350000Y-63540000D01*
X93325000Y-64780000D01*
X90595000Y-64780000D01*
X90600000Y-63540000D01*
G36*
X90600000Y-44490000D02*
G01*
X93350000Y-44490000D01*
X93325000Y-45730000D01*
X90595000Y-45730000D01*
X90600000Y-44490000D01*
G37*
X90600000Y-44490000D02*
X93350000Y-44490000D01*
X93325000Y-45730000D01*
X90595000Y-45730000D01*
X90600000Y-44490000D01*
G36*
X90600000Y-25440000D02*
G01*
X93350000Y-25440000D01*
X93325000Y-26680000D01*
X90595000Y-26680000D01*
X90600000Y-25440000D01*
G37*
X90600000Y-25440000D02*
X93350000Y-25440000D01*
X93325000Y-26680000D01*
X90595000Y-26680000D01*
X90600000Y-25440000D01*
G36*
X90600000Y-6390000D02*
G01*
X93350000Y-6390000D01*
X93325000Y-7630000D01*
X90595000Y-7630000D01*
X90600000Y-6390000D01*
G37*
X90600000Y-6390000D02*
X93350000Y-6390000D01*
X93325000Y-7630000D01*
X90595000Y-7630000D01*
X90600000Y-6390000D01*
G36*
X71550000Y-77590000D02*
G01*
X74300000Y-77590000D01*
X74275000Y-78830000D01*
X71545000Y-78830000D01*
X71550000Y-77590000D01*
G37*
X71550000Y-77590000D02*
X74300000Y-77590000D01*
X74275000Y-78830000D01*
X71545000Y-78830000D01*
X71550000Y-77590000D01*
G36*
X71550000Y-58540000D02*
G01*
X74300000Y-58540000D01*
X74275000Y-59780000D01*
X71545000Y-59780000D01*
X71550000Y-58540000D01*
G37*
X71550000Y-58540000D02*
X74300000Y-58540000D01*
X74275000Y-59780000D01*
X71545000Y-59780000D01*
X71550000Y-58540000D01*
G36*
X71550000Y-39490000D02*
G01*
X74300000Y-39490000D01*
X74275000Y-40730000D01*
X71545000Y-40730000D01*
X71550000Y-39490000D01*
G37*
X71550000Y-39490000D02*
X74300000Y-39490000D01*
X74275000Y-40730000D01*
X71545000Y-40730000D01*
X71550000Y-39490000D01*
G36*
X71550000Y-20440000D02*
G01*
X74300000Y-20440000D01*
X74275000Y-21680000D01*
X71545000Y-21680000D01*
X71550000Y-20440000D01*
G37*
X71550000Y-20440000D02*
X74300000Y-20440000D01*
X74275000Y-21680000D01*
X71545000Y-21680000D01*
X71550000Y-20440000D01*
G36*
X71550000Y-1390000D02*
G01*
X74300000Y-1390000D01*
X74275000Y-2630000D01*
X71545000Y-2630000D01*
X71550000Y-1390000D01*
G37*
X71550000Y-1390000D02*
X74300000Y-1390000D01*
X74275000Y-2630000D01*
X71545000Y-2630000D01*
X71550000Y-1390000D01*
G36*
X52500000Y-71590000D02*
G01*
X55250000Y-71590000D01*
X55225000Y-72830000D01*
X52495000Y-72830000D01*
X52500000Y-71590000D01*
G37*
X52500000Y-71590000D02*
X55250000Y-71590000D01*
X55225000Y-72830000D01*
X52495000Y-72830000D01*
X52500000Y-71590000D01*
G36*
X52500000Y-52540000D02*
G01*
X55250000Y-52540000D01*
X55225000Y-53780000D01*
X52495000Y-53780000D01*
X52500000Y-52540000D01*
G37*
X52500000Y-52540000D02*
X55250000Y-52540000D01*
X55225000Y-53780000D01*
X52495000Y-53780000D01*
X52500000Y-52540000D01*
G36*
X52500000Y-33490000D02*
G01*
X55250000Y-33490000D01*
X55225000Y-34730000D01*
X52495000Y-34730000D01*
X52500000Y-33490000D01*
G37*
X52500000Y-33490000D02*
X55250000Y-33490000D01*
X55225000Y-34730000D01*
X52495000Y-34730000D01*
X52500000Y-33490000D01*
G36*
X52500000Y-14440000D02*
G01*
X55250000Y-14440000D01*
X55225000Y-15680000D01*
X52495000Y-15680000D01*
X52500000Y-14440000D01*
G37*
X52500000Y-14440000D02*
X55250000Y-14440000D01*
X55225000Y-15680000D01*
X52495000Y-15680000D01*
X52500000Y-14440000D01*
G36*
X52500000Y4610000D02*
G01*
X55250000Y4610000D01*
X55225000Y3370000D01*
X52495000Y3370000D01*
X52500000Y4610000D01*
G37*
X52500000Y4610000D02*
X55250000Y4610000D01*
X55225000Y3370000D01*
X52495000Y3370000D01*
X52500000Y4610000D01*
G36*
X33450000Y-76590000D02*
G01*
X36200000Y-76590000D01*
X36175000Y-77830000D01*
X33445000Y-77830000D01*
X33450000Y-76590000D01*
G37*
X33450000Y-76590000D02*
X36200000Y-76590000D01*
X36175000Y-77830000D01*
X33445000Y-77830000D01*
X33450000Y-76590000D01*
G36*
X33450000Y-57540000D02*
G01*
X36200000Y-57540000D01*
X36175000Y-58780000D01*
X33445000Y-58780000D01*
X33450000Y-57540000D01*
G37*
X33450000Y-57540000D02*
X36200000Y-57540000D01*
X36175000Y-58780000D01*
X33445000Y-58780000D01*
X33450000Y-57540000D01*
G36*
X33450000Y-38490000D02*
G01*
X36200000Y-38490000D01*
X36175000Y-39730000D01*
X33445000Y-39730000D01*
X33450000Y-38490000D01*
G37*
X33450000Y-38490000D02*
X36200000Y-38490000D01*
X36175000Y-39730000D01*
X33445000Y-39730000D01*
X33450000Y-38490000D01*
G36*
X33450000Y-19440000D02*
G01*
X36200000Y-19440000D01*
X36175000Y-20680000D01*
X33445000Y-20680000D01*
X33450000Y-19440000D01*
G37*
X33450000Y-19440000D02*
X36200000Y-19440000D01*
X36175000Y-20680000D01*
X33445000Y-20680000D01*
X33450000Y-19440000D01*
G36*
X33450000Y-390000D02*
G01*
X36200000Y-390000D01*
X36175000Y-1630000D01*
X33445000Y-1630000D01*
X33450000Y-390000D01*
G37*
X33450000Y-390000D02*
X36200000Y-390000D01*
X36175000Y-1630000D01*
X33445000Y-1630000D01*
X33450000Y-390000D01*
G36*
X14400000Y-79590000D02*
G01*
X17150000Y-79590000D01*
X17125000Y-80830000D01*
X14395000Y-80830000D01*
X14400000Y-79590000D01*
G37*
X14400000Y-79590000D02*
X17150000Y-79590000D01*
X17125000Y-80830000D01*
X14395000Y-80830000D01*
X14400000Y-79590000D01*
G36*
X14400000Y-60540000D02*
G01*
X17150000Y-60540000D01*
X17125000Y-61780000D01*
X14395000Y-61780000D01*
X14400000Y-60540000D01*
G37*
X14400000Y-60540000D02*
X17150000Y-60540000D01*
X17125000Y-61780000D01*
X14395000Y-61780000D01*
X14400000Y-60540000D01*
G36*
X14400000Y-41490000D02*
G01*
X17150000Y-41490000D01*
X17125000Y-42730000D01*
X14395000Y-42730000D01*
X14400000Y-41490000D01*
G37*
X14400000Y-41490000D02*
X17150000Y-41490000D01*
X17125000Y-42730000D01*
X14395000Y-42730000D01*
X14400000Y-41490000D01*
G36*
X14400000Y-22440000D02*
G01*
X17150000Y-22440000D01*
X17125000Y-23680000D01*
X14395000Y-23680000D01*
X14400000Y-22440000D01*
G37*
X14400000Y-22440000D02*
X17150000Y-22440000D01*
X17125000Y-23680000D01*
X14395000Y-23680000D01*
X14400000Y-22440000D01*
G36*
X14400000Y-3390000D02*
G01*
X17150000Y-3390000D01*
X17125000Y-4630000D01*
X14395000Y-4630000D01*
X14400000Y-3390000D01*
G37*
X14400000Y-3390000D02*
X17150000Y-3390000D01*
X17125000Y-4630000D01*
X14395000Y-4630000D01*
X14400000Y-3390000D01*
G36*
X-4650000Y-79590000D02*
G01*
X-1900000Y-79590000D01*
X-1925000Y-80830000D01*
X-4655000Y-80830000D01*
X-4650000Y-79590000D01*
G37*
X-4650000Y-79590000D02*
X-1900000Y-79590000D01*
X-1925000Y-80830000D01*
X-4655000Y-80830000D01*
X-4650000Y-79590000D01*
G36*
X-4650000Y-60540000D02*
G01*
X-1900000Y-60540000D01*
X-1925000Y-61780000D01*
X-4655000Y-61780000D01*
X-4650000Y-60540000D01*
G37*
X-4650000Y-60540000D02*
X-1900000Y-60540000D01*
X-1925000Y-61780000D01*
X-4655000Y-61780000D01*
X-4650000Y-60540000D01*
G36*
X-4650000Y-41490000D02*
G01*
X-1900000Y-41490000D01*
X-1925000Y-42730000D01*
X-4655000Y-42730000D01*
X-4650000Y-41490000D01*
G37*
X-4650000Y-41490000D02*
X-1900000Y-41490000D01*
X-1925000Y-42730000D01*
X-4655000Y-42730000D01*
X-4650000Y-41490000D01*
G36*
X-4650000Y-22440000D02*
G01*
X-1900000Y-22440000D01*
X-1925000Y-23680000D01*
X-4655000Y-23680000D01*
X-4650000Y-22440000D01*
G37*
X-4650000Y-22440000D02*
X-1900000Y-22440000D01*
X-1925000Y-23680000D01*
X-4655000Y-23680000D01*
X-4650000Y-22440000D01*
G36*
X-4650000Y-3390000D02*
G01*
X-1900000Y-3390000D01*
X-1925000Y-4630000D01*
X-4655000Y-4630000D01*
X-4650000Y-3390000D01*
G37*
X-4650000Y-3390000D02*
X-1900000Y-3390000D01*
X-1925000Y-4630000D01*
X-4655000Y-4630000D01*
X-4650000Y-3390000D01*
D13*
X117668000Y-18148000D02*
X117668000Y-19478000D01*
X117668000Y-19478000D02*
X116338000Y-19478000D01*
X115068000Y-19478000D02*
X112468000Y-19478000D01*
X112468000Y-16818000D02*
X112468000Y-19478000D01*
X115068000Y-16818000D02*
X112468000Y-16818000D01*
X115068000Y-16818000D02*
X115068000Y-19478000D01*
D11*
X109462000Y780000D02*
X108762000Y780000D01*
X105962000Y780000D02*
X106562000Y780000D01*
X105962000Y-5220000D02*
X106562000Y-5220000D01*
X109462000Y-5220000D02*
X108762000Y-5220000D01*
X105962000Y780000D02*
X105962000Y-5220000D01*
X109462000Y-5220000D02*
X109462000Y780000D01*
X124294000Y-51790000D02*
X124294000Y-56790000D01*
X122394000Y-57290000D02*
X122394000Y-56790000D01*
X122394000Y-51790000D02*
X124294000Y-51790000D01*
X122394000Y-56790000D02*
X124294000Y-56790000D01*
X122394000Y-51290000D02*
X122394000Y-51790000D01*
X122394000Y-57290000D02*
X110394000Y-57290000D01*
X110394000Y-57290000D02*
X110394000Y-51290000D01*
X110394000Y-51290000D02*
X122394000Y-51290000D01*
D14*
X113775142Y-40270857D02*
X113775142Y-38556571D01*
X116775142Y-39413714D02*
X113775142Y-39413714D01*
X113775142Y-36985142D02*
X113775142Y-36413714D01*
X113918000Y-36128000D01*
X114203714Y-35842285D01*
X114775142Y-35699428D01*
X115775142Y-35699428D01*
X116346571Y-35842285D01*
X116632285Y-36128000D01*
X116775142Y-36413714D01*
X116775142Y-36985142D01*
X116632285Y-37270857D01*
X116346571Y-37556571D01*
X115775142Y-37699428D01*
X114775142Y-37699428D01*
X114203714Y-37556571D01*
X113918000Y-37270857D01*
X113775142Y-36985142D01*
X116775142Y-34413714D02*
X113775142Y-34413714D01*
X113775142Y-33270857D01*
X113918000Y-32985142D01*
X114060857Y-32842285D01*
X114346571Y-32699428D01*
X114775142Y-32699428D01*
X115060857Y-32842285D01*
X115203714Y-32985142D01*
X115346571Y-33270857D01*
X115346571Y-34413714D01*
X113775142Y-29128000D02*
X116203714Y-29128000D01*
X116489428Y-28985142D01*
X116632285Y-28842285D01*
X116775142Y-28556571D01*
X116775142Y-27985142D01*
X116632285Y-27699428D01*
X116489428Y-27556571D01*
X116203714Y-27413714D01*
X113775142Y-27413714D01*
X116775142Y-25985142D02*
X113775142Y-25985142D01*
X113775142Y-24842285D01*
X113918000Y-24556571D01*
X114060857Y-24413714D01*
X114346571Y-24270857D01*
X114775142Y-24270857D01*
X115060857Y-24413714D01*
X115203714Y-24556571D01*
X115346571Y-24842285D01*
X115346571Y-25985142D01*
D11*
X109655651Y-17719904D02*
X110112794Y-17719904D01*
X109884223Y-18519904D02*
X109884223Y-17719904D01*
X110303270Y-17719904D02*
X110836604Y-18519904D01*
X110836604Y-17719904D02*
X110303270Y-18519904D01*
X111293747Y-17719904D02*
X111369937Y-17719904D01*
X111446128Y-17758000D01*
X111484223Y-17796095D01*
X111522318Y-17872285D01*
X111560413Y-18024666D01*
X111560413Y-18215142D01*
X111522318Y-18367523D01*
X111484223Y-18443714D01*
X111446128Y-18481809D01*
X111369937Y-18519904D01*
X111293747Y-18519904D01*
X111217556Y-18481809D01*
X111179461Y-18443714D01*
X111141366Y-18367523D01*
X111103270Y-18215142D01*
X111103270Y-18024666D01*
X111141366Y-17872285D01*
X111179461Y-17796095D01*
X111217556Y-17758000D01*
X111293747Y-17719904D01*
X112474699Y-17681809D02*
X111788985Y-18710380D01*
X112741366Y-18519904D02*
X112741366Y-17719904D01*
X112931842Y-17719904D01*
X113046128Y-17758000D01*
X113122318Y-17834190D01*
X113160413Y-17910380D01*
X113198508Y-18062761D01*
X113198508Y-18177047D01*
X113160413Y-18329428D01*
X113122318Y-18405619D01*
X113046128Y-18481809D01*
X112931842Y-18519904D01*
X112741366Y-18519904D01*
X113465175Y-17719904D02*
X113960413Y-17719904D01*
X113693747Y-18024666D01*
X113808032Y-18024666D01*
X113884223Y-18062761D01*
X113922318Y-18100857D01*
X113960413Y-18177047D01*
X113960413Y-18367523D01*
X113922318Y-18443714D01*
X113884223Y-18481809D01*
X113808032Y-18519904D01*
X113579461Y-18519904D01*
X113503270Y-18481809D01*
X113465175Y-18443714D01*
X109366523Y-21059904D02*
X109366523Y-20259904D01*
X109557000Y-20259904D01*
X109671285Y-20298000D01*
X109747476Y-20374190D01*
X109785571Y-20450380D01*
X109823666Y-20602761D01*
X109823666Y-20717047D01*
X109785571Y-20869428D01*
X109747476Y-20945619D01*
X109671285Y-21021809D01*
X109557000Y-21059904D01*
X109366523Y-21059904D01*
X110128428Y-20336095D02*
X110166523Y-20298000D01*
X110242714Y-20259904D01*
X110433190Y-20259904D01*
X110509380Y-20298000D01*
X110547476Y-20336095D01*
X110585571Y-20412285D01*
X110585571Y-20488476D01*
X110547476Y-20602761D01*
X110090333Y-21059904D01*
X110585571Y-21059904D01*
X109366523Y-31219904D02*
X109366523Y-30419904D01*
X109557000Y-30419904D01*
X109671285Y-30458000D01*
X109747476Y-30534190D01*
X109785571Y-30610380D01*
X109823666Y-30762761D01*
X109823666Y-30877047D01*
X109785571Y-31029428D01*
X109747476Y-31105619D01*
X109671285Y-31181809D01*
X109557000Y-31219904D01*
X109366523Y-31219904D01*
X110318904Y-30419904D02*
X110395095Y-30419904D01*
X110471285Y-30458000D01*
X110509380Y-30496095D01*
X110547476Y-30572285D01*
X110585571Y-30724666D01*
X110585571Y-30915142D01*
X110547476Y-31067523D01*
X110509380Y-31143714D01*
X110471285Y-31181809D01*
X110395095Y-31219904D01*
X110318904Y-31219904D01*
X110242714Y-31181809D01*
X110204619Y-31143714D01*
X110166523Y-31067523D01*
X110128428Y-30915142D01*
X110128428Y-30724666D01*
X110166523Y-30572285D01*
X110204619Y-30496095D01*
X110242714Y-30458000D01*
X110318904Y-30419904D01*
X109366523Y-28679904D02*
X109366523Y-27879904D01*
X109557000Y-27879904D01*
X109671285Y-27918000D01*
X109747476Y-27994190D01*
X109785571Y-28070380D01*
X109823666Y-28222761D01*
X109823666Y-28337047D01*
X109785571Y-28489428D01*
X109747476Y-28565619D01*
X109671285Y-28641809D01*
X109557000Y-28679904D01*
X109366523Y-28679904D01*
X110585571Y-28679904D02*
X110128428Y-28679904D01*
X110357000Y-28679904D02*
X110357000Y-27879904D01*
X110280809Y-27994190D01*
X110204619Y-28070380D01*
X110128428Y-28108476D01*
X109347476Y-25378000D02*
X109271285Y-25339904D01*
X109157000Y-25339904D01*
X109042714Y-25378000D01*
X108966523Y-25454190D01*
X108928428Y-25530380D01*
X108890333Y-25682761D01*
X108890333Y-25797047D01*
X108928428Y-25949428D01*
X108966523Y-26025619D01*
X109042714Y-26101809D01*
X109157000Y-26139904D01*
X109233190Y-26139904D01*
X109347476Y-26101809D01*
X109385571Y-26063714D01*
X109385571Y-25797047D01*
X109233190Y-25797047D01*
X109728428Y-26139904D02*
X109728428Y-25339904D01*
X110185571Y-26139904D01*
X110185571Y-25339904D01*
X110566523Y-26139904D02*
X110566523Y-25339904D01*
X110757000Y-25339904D01*
X110871285Y-25378000D01*
X110947476Y-25454190D01*
X110985571Y-25530380D01*
X111023666Y-25682761D01*
X111023666Y-25797047D01*
X110985571Y-25949428D01*
X110947476Y-26025619D01*
X110871285Y-26101809D01*
X110757000Y-26139904D01*
X110566523Y-26139904D01*
X109347476Y-22838000D02*
X109271285Y-22799904D01*
X109157000Y-22799904D01*
X109042714Y-22838000D01*
X108966523Y-22914190D01*
X108928428Y-22990380D01*
X108890333Y-23142761D01*
X108890333Y-23257047D01*
X108928428Y-23409428D01*
X108966523Y-23485619D01*
X109042714Y-23561809D01*
X109157000Y-23599904D01*
X109233190Y-23599904D01*
X109347476Y-23561809D01*
X109385571Y-23523714D01*
X109385571Y-23257047D01*
X109233190Y-23257047D01*
X109728428Y-23599904D02*
X109728428Y-22799904D01*
X110185571Y-23599904D01*
X110185571Y-22799904D01*
X110566523Y-23599904D02*
X110566523Y-22799904D01*
X110757000Y-22799904D01*
X110871285Y-22838000D01*
X110947476Y-22914190D01*
X110985571Y-22990380D01*
X111023666Y-23142761D01*
X111023666Y-23257047D01*
X110985571Y-23409428D01*
X110947476Y-23485619D01*
X110871285Y-23561809D01*
X110757000Y-23599904D01*
X110566523Y-23599904D01*
X109366523Y-33759904D02*
X109366523Y-32959904D01*
X109557000Y-32959904D01*
X109671285Y-32998000D01*
X109747476Y-33074190D01*
X109785571Y-33150380D01*
X109823666Y-33302761D01*
X109823666Y-33417047D01*
X109785571Y-33569428D01*
X109747476Y-33645619D01*
X109671285Y-33721809D01*
X109557000Y-33759904D01*
X109366523Y-33759904D01*
X110509380Y-33226571D02*
X110509380Y-33759904D01*
X110318904Y-32921809D02*
X110128428Y-33493238D01*
X110623666Y-33493238D01*
X109823666Y-36223714D02*
X109785571Y-36261809D01*
X109671285Y-36299904D01*
X109595095Y-36299904D01*
X109480809Y-36261809D01*
X109404619Y-36185619D01*
X109366523Y-36109428D01*
X109328428Y-35957047D01*
X109328428Y-35842761D01*
X109366523Y-35690380D01*
X109404619Y-35614190D01*
X109480809Y-35538000D01*
X109595095Y-35499904D01*
X109671285Y-35499904D01*
X109785571Y-35538000D01*
X109823666Y-35576095D01*
X110509380Y-35499904D02*
X110357000Y-35499904D01*
X110280809Y-35538000D01*
X110242714Y-35576095D01*
X110166523Y-35690380D01*
X110128428Y-35842761D01*
X110128428Y-36147523D01*
X110166523Y-36223714D01*
X110204619Y-36261809D01*
X110280809Y-36299904D01*
X110433190Y-36299904D01*
X110509380Y-36261809D01*
X110547476Y-36223714D01*
X110585571Y-36147523D01*
X110585571Y-35957047D01*
X110547476Y-35880857D01*
X110509380Y-35842761D01*
X110433190Y-35804666D01*
X110280809Y-35804666D01*
X110204619Y-35842761D01*
X110166523Y-35880857D01*
X110128428Y-35957047D01*
X109366523Y-38839904D02*
X109366523Y-38039904D01*
X109557000Y-38039904D01*
X109671285Y-38078000D01*
X109747476Y-38154190D01*
X109785571Y-38230380D01*
X109823666Y-38382761D01*
X109823666Y-38497047D01*
X109785571Y-38649428D01*
X109747476Y-38725619D01*
X109671285Y-38801809D01*
X109557000Y-38839904D01*
X109366523Y-38839904D01*
X110090333Y-38039904D02*
X110623666Y-38039904D01*
X110280809Y-38839904D01*
X109404619Y-40960857D02*
X109671285Y-40960857D01*
X109785571Y-41379904D02*
X109404619Y-41379904D01*
X109404619Y-40579904D01*
X109785571Y-40579904D01*
X110471285Y-40579904D02*
X110318904Y-40579904D01*
X110242714Y-40618000D01*
X110204619Y-40656095D01*
X110128428Y-40770380D01*
X110090333Y-40922761D01*
X110090333Y-41227523D01*
X110128428Y-41303714D01*
X110166523Y-41341809D01*
X110242714Y-41379904D01*
X110395095Y-41379904D01*
X110471285Y-41341809D01*
X110509380Y-41303714D01*
X110547476Y-41227523D01*
X110547476Y-41037047D01*
X110509380Y-40960857D01*
X110471285Y-40922761D01*
X110395095Y-40884666D01*
X110242714Y-40884666D01*
X110166523Y-40922761D01*
X110128428Y-40960857D01*
X110090333Y-41037047D01*
X109633190Y-43500857D02*
X109747476Y-43538952D01*
X109785571Y-43577047D01*
X109823666Y-43653238D01*
X109823666Y-43767523D01*
X109785571Y-43843714D01*
X109747476Y-43881809D01*
X109671285Y-43919904D01*
X109366523Y-43919904D01*
X109366523Y-43119904D01*
X109633190Y-43119904D01*
X109709380Y-43158000D01*
X109747476Y-43196095D01*
X109785571Y-43272285D01*
X109785571Y-43348476D01*
X109747476Y-43424666D01*
X109709380Y-43462761D01*
X109633190Y-43500857D01*
X109366523Y-43500857D01*
X110509380Y-43386571D02*
X110509380Y-43919904D01*
X110318904Y-43081809D02*
X110128428Y-43653238D01*
X110623666Y-43653238D01*
X109633190Y-46040857D02*
X109747476Y-46078952D01*
X109785571Y-46117047D01*
X109823666Y-46193238D01*
X109823666Y-46307523D01*
X109785571Y-46383714D01*
X109747476Y-46421809D01*
X109671285Y-46459904D01*
X109366523Y-46459904D01*
X109366523Y-45659904D01*
X109633190Y-45659904D01*
X109709380Y-45698000D01*
X109747476Y-45736095D01*
X109785571Y-45812285D01*
X109785571Y-45888476D01*
X109747476Y-45964666D01*
X109709380Y-46002761D01*
X109633190Y-46040857D01*
X109366523Y-46040857D01*
X110547476Y-45659904D02*
X110166523Y-45659904D01*
X110128428Y-46040857D01*
X110166523Y-46002761D01*
X110242714Y-45964666D01*
X110433190Y-45964666D01*
X110509380Y-46002761D01*
X110547476Y-46040857D01*
X110585571Y-46117047D01*
X110585571Y-46307523D01*
X110547476Y-46383714D01*
X110509380Y-46421809D01*
X110433190Y-46459904D01*
X110242714Y-46459904D01*
X110166523Y-46421809D01*
X110128428Y-46383714D01*
X120555190Y-46040857D02*
X120669476Y-46078952D01*
X120707571Y-46117047D01*
X120745666Y-46193238D01*
X120745666Y-46307523D01*
X120707571Y-46383714D01*
X120669476Y-46421809D01*
X120593285Y-46459904D01*
X120288523Y-46459904D01*
X120288523Y-45659904D01*
X120555190Y-45659904D01*
X120631380Y-45698000D01*
X120669476Y-45736095D01*
X120707571Y-45812285D01*
X120707571Y-45888476D01*
X120669476Y-45964666D01*
X120631380Y-46002761D01*
X120555190Y-46040857D01*
X120288523Y-46040857D01*
X121431380Y-45659904D02*
X121279000Y-45659904D01*
X121202809Y-45698000D01*
X121164714Y-45736095D01*
X121088523Y-45850380D01*
X121050428Y-46002761D01*
X121050428Y-46307523D01*
X121088523Y-46383714D01*
X121126619Y-46421809D01*
X121202809Y-46459904D01*
X121355190Y-46459904D01*
X121431380Y-46421809D01*
X121469476Y-46383714D01*
X121507571Y-46307523D01*
X121507571Y-46117047D01*
X121469476Y-46040857D01*
X121431380Y-46002761D01*
X121355190Y-45964666D01*
X121202809Y-45964666D01*
X121126619Y-46002761D01*
X121088523Y-46040857D01*
X121050428Y-46117047D01*
X120555190Y-40960857D02*
X120669476Y-40998952D01*
X120707571Y-41037047D01*
X120745666Y-41113238D01*
X120745666Y-41227523D01*
X120707571Y-41303714D01*
X120669476Y-41341809D01*
X120593285Y-41379904D01*
X120288523Y-41379904D01*
X120288523Y-40579904D01*
X120555190Y-40579904D01*
X120631380Y-40618000D01*
X120669476Y-40656095D01*
X120707571Y-40732285D01*
X120707571Y-40808476D01*
X120669476Y-40884666D01*
X120631380Y-40922761D01*
X120555190Y-40960857D01*
X120288523Y-40960857D01*
X121012333Y-40579904D02*
X121507571Y-40579904D01*
X121240904Y-40884666D01*
X121355190Y-40884666D01*
X121431380Y-40922761D01*
X121469476Y-40960857D01*
X121507571Y-41037047D01*
X121507571Y-41227523D01*
X121469476Y-41303714D01*
X121431380Y-41341809D01*
X121355190Y-41379904D01*
X121126619Y-41379904D01*
X121050428Y-41341809D01*
X121012333Y-41303714D01*
X120555190Y-38420857D02*
X120669476Y-38458952D01*
X120707571Y-38497047D01*
X120745666Y-38573238D01*
X120745666Y-38687523D01*
X120707571Y-38763714D01*
X120669476Y-38801809D01*
X120593285Y-38839904D01*
X120288523Y-38839904D01*
X120288523Y-38039904D01*
X120555190Y-38039904D01*
X120631380Y-38078000D01*
X120669476Y-38116095D01*
X120707571Y-38192285D01*
X120707571Y-38268476D01*
X120669476Y-38344666D01*
X120631380Y-38382761D01*
X120555190Y-38420857D01*
X120288523Y-38420857D01*
X121507571Y-38839904D02*
X121050428Y-38839904D01*
X121279000Y-38839904D02*
X121279000Y-38039904D01*
X121202809Y-38154190D01*
X121126619Y-38230380D01*
X121050428Y-38268476D01*
X120612333Y-28260857D02*
X120345666Y-28260857D01*
X120345666Y-28679904D02*
X120345666Y-27879904D01*
X120726619Y-27879904D01*
X121374238Y-28146571D02*
X121374238Y-28679904D01*
X121183761Y-27841809D02*
X120993285Y-28413238D01*
X121488523Y-28413238D01*
X119812333Y-25339904D02*
X120079000Y-26139904D01*
X120345666Y-25339904D01*
X121069476Y-26063714D02*
X121031380Y-26101809D01*
X120917095Y-26139904D01*
X120840904Y-26139904D01*
X120726619Y-26101809D01*
X120650428Y-26025619D01*
X120612333Y-25949428D01*
X120574238Y-25797047D01*
X120574238Y-25682761D01*
X120612333Y-25530380D01*
X120650428Y-25454190D01*
X120726619Y-25378000D01*
X120840904Y-25339904D01*
X120917095Y-25339904D01*
X121031380Y-25378000D01*
X121069476Y-25416095D01*
X121869476Y-26063714D02*
X121831380Y-26101809D01*
X121717095Y-26139904D01*
X121640904Y-26139904D01*
X121526619Y-26101809D01*
X121450428Y-26025619D01*
X121412333Y-25949428D01*
X121374238Y-25797047D01*
X121374238Y-25682761D01*
X121412333Y-25530380D01*
X121450428Y-25454190D01*
X121526619Y-25378000D01*
X121640904Y-25339904D01*
X121717095Y-25339904D01*
X121831380Y-25378000D01*
X121869476Y-25416095D01*
X120617786Y-23531809D02*
X120732072Y-23569904D01*
X120922548Y-23569904D01*
X120998739Y-23531809D01*
X121036834Y-23493714D01*
X121074929Y-23417523D01*
X121074929Y-23341333D01*
X121036834Y-23265142D01*
X120998739Y-23227047D01*
X120922548Y-23188952D01*
X120770167Y-23150857D01*
X120693977Y-23112761D01*
X120655881Y-23074666D01*
X120617786Y-22998476D01*
X120617786Y-22922285D01*
X120655881Y-22846095D01*
X120693977Y-22808000D01*
X120770167Y-22769904D01*
X120960643Y-22769904D01*
X121074929Y-22808000D01*
X121303500Y-22769904D02*
X121760643Y-22769904D01*
X121532072Y-23569904D02*
X121532072Y-22769904D01*
X120269476Y-20298000D02*
X120193285Y-20259904D01*
X120079000Y-20259904D01*
X119964714Y-20298000D01*
X119888523Y-20374190D01*
X119850428Y-20450380D01*
X119812333Y-20602761D01*
X119812333Y-20717047D01*
X119850428Y-20869428D01*
X119888523Y-20945619D01*
X119964714Y-21021809D01*
X120079000Y-21059904D01*
X120155190Y-21059904D01*
X120269476Y-21021809D01*
X120307571Y-20983714D01*
X120307571Y-20717047D01*
X120155190Y-20717047D01*
X120650428Y-21059904D02*
X120650428Y-20259904D01*
X121107571Y-21059904D01*
X121107571Y-20259904D01*
X121488523Y-21059904D02*
X121488523Y-20259904D01*
X121679000Y-20259904D01*
X121793285Y-20298000D01*
X121869476Y-20374190D01*
X121907571Y-20450380D01*
X121945666Y-20602761D01*
X121945666Y-20717047D01*
X121907571Y-20869428D01*
X121869476Y-20945619D01*
X121793285Y-21021809D01*
X121679000Y-21059904D01*
X121488523Y-21059904D01*
X120326619Y-18519904D02*
X120059952Y-18138952D01*
X119869476Y-18519904D02*
X119869476Y-17719904D01*
X120174238Y-17719904D01*
X120250428Y-17758000D01*
X120288523Y-17796095D01*
X120326619Y-17872285D01*
X120326619Y-17986571D01*
X120288523Y-18062761D01*
X120250428Y-18100857D01*
X120174238Y-18138952D01*
X119869476Y-18138952D01*
X120631380Y-18291333D02*
X121012333Y-18291333D01*
X120555190Y-18519904D02*
X120821857Y-17719904D01*
X121088523Y-18519904D01*
X121279000Y-17719904D02*
X121469476Y-18519904D01*
X121621857Y-17948476D01*
X121774238Y-18519904D01*
X121964714Y-17719904D01*
X120612333Y-30800857D02*
X120345666Y-30800857D01*
X120345666Y-31219904D02*
X120345666Y-30419904D01*
X120726619Y-30419904D01*
X121412333Y-30419904D02*
X121031380Y-30419904D01*
X120993285Y-30800857D01*
X121031380Y-30762761D01*
X121107571Y-30724666D01*
X121298047Y-30724666D01*
X121374238Y-30762761D01*
X121412333Y-30800857D01*
X121450428Y-30877047D01*
X121450428Y-31067523D01*
X121412333Y-31143714D01*
X121374238Y-31181809D01*
X121298047Y-31219904D01*
X121107571Y-31219904D01*
X121031380Y-31181809D01*
X120993285Y-31143714D01*
X120612333Y-33340857D02*
X120345666Y-33340857D01*
X120345666Y-33759904D02*
X120345666Y-32959904D01*
X120726619Y-32959904D01*
X121374238Y-32959904D02*
X121221857Y-32959904D01*
X121145666Y-32998000D01*
X121107571Y-33036095D01*
X121031380Y-33150380D01*
X120993285Y-33302761D01*
X120993285Y-33607523D01*
X121031380Y-33683714D01*
X121069476Y-33721809D01*
X121145666Y-33759904D01*
X121298047Y-33759904D01*
X121374238Y-33721809D01*
X121412333Y-33683714D01*
X121450428Y-33607523D01*
X121450428Y-33417047D01*
X121412333Y-33340857D01*
X121374238Y-33302761D01*
X121298047Y-33264666D01*
X121145666Y-33264666D01*
X121069476Y-33302761D01*
X121031380Y-33340857D01*
X120993285Y-33417047D01*
X120612333Y-35880857D02*
X120345666Y-35880857D01*
X120345666Y-36299904D02*
X120345666Y-35499904D01*
X120726619Y-35499904D01*
X120955190Y-35499904D02*
X121488523Y-35499904D01*
X121145666Y-36299904D01*
X120555190Y-43500857D02*
X120669476Y-43538952D01*
X120707571Y-43577047D01*
X120745666Y-43653238D01*
X120745666Y-43767523D01*
X120707571Y-43843714D01*
X120669476Y-43881809D01*
X120593285Y-43919904D01*
X120288523Y-43919904D01*
X120288523Y-43119904D01*
X120555190Y-43119904D01*
X120631380Y-43158000D01*
X120669476Y-43196095D01*
X120707571Y-43272285D01*
X120707571Y-43348476D01*
X120669476Y-43424666D01*
X120631380Y-43462761D01*
X120555190Y-43500857D01*
X120288523Y-43500857D01*
X121050428Y-43196095D02*
X121088523Y-43158000D01*
X121164714Y-43119904D01*
X121355190Y-43119904D01*
X121431380Y-43158000D01*
X121469476Y-43196095D01*
X121507571Y-43272285D01*
X121507571Y-43348476D01*
X121469476Y-43462761D01*
X121012333Y-43919904D01*
X121507571Y-43919904D01*
X118560380Y-18481333D02*
X119274666Y-18481333D01*
X119417523Y-18528952D01*
X119512761Y-18624190D01*
X119560380Y-18767047D01*
X119560380Y-18862285D01*
X118655619Y-18052761D02*
X118608000Y-18005142D01*
X118560380Y-17909904D01*
X118560380Y-17671809D01*
X118608000Y-17576571D01*
X118655619Y-17528952D01*
X118750857Y-17481333D01*
X118846095Y-17481333D01*
X118988952Y-17528952D01*
X119560380Y-18100380D01*
X119560380Y-17481333D01*
X108023904Y-3381904D02*
X107642952Y-3648571D01*
X108023904Y-3839047D02*
X107223904Y-3839047D01*
X107223904Y-3534285D01*
X107262000Y-3458095D01*
X107300095Y-3420000D01*
X107376285Y-3381904D01*
X107490571Y-3381904D01*
X107566761Y-3420000D01*
X107604857Y-3458095D01*
X107642952Y-3534285D01*
X107642952Y-3839047D01*
X107604857Y-3039047D02*
X107604857Y-2772380D01*
X108023904Y-2658095D02*
X108023904Y-3039047D01*
X107223904Y-3039047D01*
X107223904Y-2658095D01*
X107985809Y-2353333D02*
X108023904Y-2239047D01*
X108023904Y-2048571D01*
X107985809Y-1972380D01*
X107947714Y-1934285D01*
X107871523Y-1896190D01*
X107795333Y-1896190D01*
X107719142Y-1934285D01*
X107681047Y-1972380D01*
X107642952Y-2048571D01*
X107604857Y-2200952D01*
X107566761Y-2277142D01*
X107528666Y-2315238D01*
X107452476Y-2353333D01*
X107376285Y-2353333D01*
X107300095Y-2315238D01*
X107262000Y-2277142D01*
X107223904Y-2200952D01*
X107223904Y-2010476D01*
X107262000Y-1896190D01*
X107604857Y-1553333D02*
X107604857Y-1286666D01*
X108023904Y-1172380D02*
X108023904Y-1553333D01*
X107223904Y-1553333D01*
X107223904Y-1172380D01*
X107223904Y-943809D02*
X107223904Y-486666D01*
X108023904Y-715238D02*
X107223904Y-715238D01*
M02*
