G04 #@! TF.GenerationSoftware,KiCad,Pcbnew,(5.1.4)-1*
G04 #@! TF.CreationDate,2021-07-30T13:44:11-04:00*
G04 #@! TF.ProjectId,splitreus,73706c69-7472-4657-9573-2e6b69636164,1*
G04 #@! TF.SameCoordinates,Original*
G04 #@! TF.FileFunction,Profile,NP*
%FSLAX46Y46*%
G04 Gerber Fmt 4.6, Leading zero omitted, Abs format (unit mm)*
G04 Created by KiCad (PCBNEW (5.1.4)-1) date 2021-07-30 13:44:11*
%MOMM*%
%LPD*%
G04 APERTURE LIST*
%ADD10C,0.050000*%
G04 APERTURE END LIST*
D10*
X87493842Y-10007145D02*
G75*
G02X82535325Y-7623959I0J6350000D01*
G01*
X82348423Y-7390332D02*
X82535325Y-7623959D01*
X77389906Y-5007145D02*
G75*
G02X82348423Y-7390332I0J-6350000D01*
G01*
X70003968Y-5007145D02*
X77389906Y-5007145D01*
X70003967Y-5007146D02*
G75*
G02X64720448Y-2179491I1J6350000D01*
G01*
X64490653Y-1834799D02*
X64720448Y-2179491D01*
X59207134Y992855D02*
G75*
G02X64490653Y-1834799I0J-6350000D01*
G01*
X48610093Y992854D02*
X59207134Y992854D01*
X43651577Y-1390332D02*
G75*
G02X48610093Y992854I4958516J-3966813D01*
G01*
X43464674Y-1623959D02*
X43651576Y-1390332D01*
X43464673Y-1623959D02*
G75*
G02X38506157Y-4007145I-4958516J3966813D01*
G01*
X29990784Y-4007145D02*
X38506157Y-4007145D01*
X26536802Y-5028683D02*
G75*
G02X29990784Y-4007145I3453982J-5328462D01*
G01*
X25688657Y-5578462D02*
X26536802Y-5028683D01*
X25688658Y-5578461D02*
G75*
G02X22234676Y-6599999I-3453982J5328462D01*
G01*
X11349999Y-6599999D02*
X22234676Y-6599999D01*
X5000000Y-12950000D02*
G75*
G02X11349999Y-6599999I6350000J1D01*
G01*
X5000000Y-71249999D02*
X5000000Y-12949999D01*
X11349998Y-77599999D02*
G75*
G02X5000000Y-71249999I1J6349999D01*
G01*
X24009215Y-77600000D02*
X11350000Y-77600000D01*
X27463197Y-76578462D02*
G75*
G02X24009215Y-77600000I-3453982J5328463D01*
G01*
X28311342Y-76028683D02*
X27463197Y-76578462D01*
X28311341Y-76028683D02*
G75*
G02X31765323Y-75007145I3453982J-5328462D01*
G01*
X41389906Y-75007145D02*
X31765323Y-75007145D01*
X46348423Y-72623959D02*
G75*
G02X41389906Y-75007145I-4958517J3966814D01*
G01*
X46535325Y-72390332D02*
X46348423Y-72623959D01*
X46535325Y-72390331D02*
G75*
G02X51493842Y-70007145I4958517J-3966814D01*
G01*
X55996031Y-70007145D02*
X51493842Y-70007145D01*
X55996032Y-70007145D02*
G75*
G02X61279551Y-72834799I-1J-6350000D01*
G01*
X61509346Y-73179491D02*
X61279551Y-72834799D01*
X66792865Y-76007145D02*
G75*
G02X61509346Y-73179491I0J6350000D01*
G01*
X74506157Y-76007145D02*
X66792865Y-76007145D01*
X74506157Y-76007145D02*
G75*
G02X79464674Y-78390332I0J-6350000D01*
G01*
X79651576Y-78623959D02*
X79464674Y-78390332D01*
X84610093Y-81007145D02*
G75*
G02X79651576Y-78623959I0J6350000D01*
G01*
X94809047Y-81007145D02*
X84610093Y-81007145D01*
X100626646Y-77202345D02*
G75*
G02X94809047Y-81007145I-5817599J2545200D01*
G01*
X100797446Y-76811946D02*
X100626646Y-77202345D01*
X100797446Y-76811945D02*
G75*
G02X106615045Y-73007145I5817599J-2545200D01*
G01*
X114150000Y-73007145D02*
X106615045Y-73007145D01*
X120500000Y-66657145D02*
G75*
G02X114150000Y-73007145I-6350000J0D01*
G01*
X120500000Y-22607145D02*
X120500000Y-66657145D01*
X114150000Y-16257145D02*
G75*
G02X120500000Y-22607145I0J-6350000D01*
G01*
X107440781Y-16257145D02*
X114150000Y-16257145D01*
X107440781Y-16257145D02*
G75*
G02X101970692Y-13132145I0J6350000D01*
G01*
X96500603Y-10007145D02*
G75*
G02X101970692Y-13132145I0J-6350000D01*
G01*
X87493842Y-10007145D02*
X96500603Y-10007145D01*
M02*
