G04 #@! TF.GenerationSoftware,KiCad,Pcbnew,(5.1.4)-1*
G04 #@! TF.CreationDate,2021-09-27T10:09:41-04:00*
G04 #@! TF.ProjectId,splitreus,73706c69-7472-4657-9573-2e6b69636164,1*
G04 #@! TF.SameCoordinates,Original*
G04 #@! TF.FileFunction,Profile,NP*
%FSLAX46Y46*%
G04 Gerber Fmt 4.6, Leading zero omitted, Abs format (unit mm)*
G04 Created by KiCad (PCBNEW (5.1.4)-1) date 2021-09-27 10:09:41*
%MOMM*%
%LPD*%
G04 APERTURE LIST*
%ADD10C,0.050000*%
G04 APERTURE END LIST*
D10*
X102900000Y9037588D02*
G75*
G02X109250000Y2687588I0J-6350000D01*
G01*
X109250000Y-16131214D02*
X109250000Y2687588D01*
X121521925Y-16131214D02*
X109250000Y-16131214D01*
X121521923Y-16131213D02*
G75*
G02X124179530Y-15280082I1496743J-98815D01*
G01*
X125021925Y-16131213D02*
G75*
G02X124179530Y-15280082I4071925J4872568D01*
G01*
X125021925Y-16131213D02*
G75*
G02X127300000Y-21003782I-4071925J-4872569D01*
G01*
X127300000Y-43838417D02*
X127300000Y-21003782D01*
X127300000Y-43838417D02*
G75*
G02X124066603Y-49370983I-6350000J0D01*
G01*
X124066603Y-57922503D02*
X124066603Y-49370983D01*
X124066603Y-57922503D02*
G75*
G02X127300000Y-63455069I-3116603J-5532566D01*
G01*
X127300000Y-70996217D02*
X127300000Y-63455069D01*
X127299999Y-70996217D02*
G75*
G02X125021925Y-75868785I-6349999J0D01*
G01*
X123521925Y-77695676D02*
G75*
G02X125021925Y-75868785I5571925J-3045678D01*
G01*
X123521925Y-77695677D02*
G75*
G02X117950000Y-81000000I-5571925J3045677D01*
G01*
X112454860Y-81000000D02*
X117950000Y-81000000D01*
X107085208Y-83960407D02*
G75*
G02X112454860Y-81000000I5369652J-3389593D01*
G01*
X105772723Y-86039592D02*
X107085208Y-83960407D01*
X105772724Y-86039592D02*
G75*
G02X100403071Y-89000000I-5369653J3389593D01*
G01*
X89627862Y-89000000D02*
X100403071Y-89000000D01*
X89627862Y-89000000D02*
G75*
G02X85160128Y-87162411I0J6350000D01*
G01*
X83822058Y-85837588D02*
X85160128Y-87162411D01*
X79354324Y-83999999D02*
G75*
G02X83822058Y-85837588I0J-6350001D01*
G01*
X70759063Y-84000000D02*
X79354324Y-84000000D01*
X70759063Y-84000000D02*
G75*
G02X65900827Y-81739015I0J6350000D01*
G01*
X64656819Y-80260984D02*
X65900827Y-81739015D01*
X59798582Y-77999999D02*
G75*
G02X64656819Y-80260984I1J-6350001D01*
G01*
X53995675Y-78000000D02*
X59798583Y-78000000D01*
X49527941Y-79837589D02*
G75*
G02X53995675Y-78000000I4467734J-4512411D01*
G01*
X48189871Y-81162411D02*
X49527941Y-79837588D01*
X48189872Y-81162411D02*
G75*
G02X43722137Y-83000000I-4467735J4512412D01*
G01*
X33667768Y-83000000D02*
X43722137Y-83000000D01*
X30424598Y-83890664D02*
G75*
G02X33667768Y-83000000I3243170J-5459336D01*
G01*
X28373167Y-85109335D02*
X30424598Y-83890664D01*
X28373167Y-85109336D02*
G75*
G02X25129997Y-86000000I-3243170J5459337D01*
G01*
X-3649999Y-86000000D02*
X25129997Y-86000000D01*
X-3650001Y-85999999D02*
G75*
G02X-9904047Y-80749721I1J6349999D01*
G01*
X-11404047Y-77639748D02*
G75*
G02X-9904047Y-80749721I-4754048J-4209695D01*
G01*
X-11404047Y-77639747D02*
G75*
G02X-12999999Y-73430053I4754047J4209694D01*
G01*
X-12999999Y196217D02*
X-12999999Y-73430053D01*
X-12999999Y196217D02*
G75*
G02X-10721925Y5068785I6349999J0D01*
G01*
X-9221925Y6895676D02*
G75*
G02X-10721925Y5068785I-5571925J3045678D01*
G01*
X-9221925Y6895678D02*
G75*
G02X-3649999Y10200000I5571925J-3045678D01*
G01*
X23482231Y10200000D02*
X-3649999Y10200000D01*
X26725401Y11090664D02*
G75*
G02X23482231Y10200000I-3243170J5459336D01*
G01*
X28776832Y12309335D02*
X26725401Y11090664D01*
X28776832Y12309336D02*
G75*
G02X32020002Y13200000I3243170J-5459336D01*
G01*
X41254324Y13200000D02*
X32020002Y13200000D01*
X45722058Y15037589D02*
G75*
G02X41254324Y13200000I-4467734J4512411D01*
G01*
X47060128Y16362411D02*
X45722058Y15037588D01*
X47060127Y16362411D02*
G75*
G02X51527862Y18200000I4467735J-4512412D01*
G01*
X62590936Y18200000D02*
X51527862Y18200000D01*
X62590935Y18200000D02*
G75*
G02X67449172Y15939015I1J-6350001D01*
G01*
X68693180Y14460984D02*
X67449172Y15939015D01*
X73551417Y12199999D02*
G75*
G02X68693180Y14460984I-1J6350001D01*
G01*
X81822137Y12200000D02*
X73551416Y12200000D01*
X81822136Y12199999D02*
G75*
G02X86015119Y10618794I1J-6350000D01*
G01*
X90208101Y9037588D02*
G75*
G02X86015119Y10618794I0J6350000D01*
G01*
X102900000Y9037588D02*
X90208101Y9037588D01*
X17338000Y-41318000D02*
X20748000Y-41318000D01*
X20748000Y-41318000D02*
X20748000Y-44368000D01*
X20748000Y-44368000D02*
X17338000Y-44368000D01*
X17338000Y-44368000D02*
X17338000Y-41318000D01*
X107738000Y-72698000D02*
X107738000Y-69288000D01*
X110748000Y-72698000D02*
X107738000Y-72698000D01*
X110748000Y-69288000D02*
X110748000Y-72698000D01*
X107738000Y-69288000D02*
X110748000Y-69288000D01*
X93528000Y-85468000D02*
X93528000Y-82418000D01*
X96978000Y-85468000D02*
X93528000Y-85468000D01*
X96978000Y-82418000D02*
X96978000Y-85468000D01*
X93528000Y-82418000D02*
X96978000Y-82418000D01*
X93538000Y-66398000D02*
X93538000Y-63378000D01*
X96958000Y-66398000D02*
X93538000Y-66398000D01*
X96958000Y-63378000D02*
X96958000Y-66398000D01*
X93538000Y-63378000D02*
X96958000Y-63378000D01*
X93538000Y-47368000D02*
X93538000Y-44328000D01*
X96958000Y-47368000D02*
X93538000Y-47368000D01*
X96958000Y-44328000D02*
X96958000Y-47368000D01*
X93538000Y-44328000D02*
X96958000Y-44328000D01*
X93528000Y-28308000D02*
X93528000Y-25258000D01*
X96968000Y-28308000D02*
X93528000Y-28308000D01*
X96968000Y-25258000D02*
X96968000Y-28308000D01*
X93528000Y-25258000D02*
X96968000Y-25258000D01*
X93528000Y-9258000D02*
X93528000Y-6228000D01*
X96958000Y-9258000D02*
X93528000Y-9258000D01*
X96958000Y-6228000D02*
X96958000Y-9258000D01*
X93528000Y-6228000D02*
X96958000Y-6228000D01*
X74488000Y-4278000D02*
X74488000Y-1228000D01*
X77908000Y-4278000D02*
X74488000Y-4278000D01*
X77908000Y-1228000D02*
X77908000Y-4278000D01*
X74488000Y-1228000D02*
X77908000Y-1228000D01*
X74488000Y-23308000D02*
X74488000Y-20278000D01*
X77908000Y-23308000D02*
X74488000Y-23308000D01*
X77908000Y-20278000D02*
X77908000Y-23308000D01*
X74488000Y-20278000D02*
X77908000Y-20278000D01*
X74488000Y-42368000D02*
X74488000Y-39328000D01*
X77908000Y-42368000D02*
X74488000Y-42368000D01*
X77908000Y-39328000D02*
X77908000Y-42368000D01*
X74488000Y-39328000D02*
X77908000Y-39328000D01*
X74478000Y-61418000D02*
X74478000Y-58378000D01*
X77918000Y-61418000D02*
X74478000Y-61418000D01*
X77918000Y-58378000D02*
X77918000Y-61418000D01*
X74478000Y-58378000D02*
X77918000Y-58378000D01*
X74488000Y-77418000D02*
X74488000Y-80468000D01*
X77898000Y-77418000D02*
X74488000Y-77418000D01*
X77898000Y-80468000D02*
X77898000Y-77418000D01*
X74488000Y-80468000D02*
X77898000Y-80468000D01*
X55428000Y-74468000D02*
X55428000Y-71428000D01*
X58868000Y-74468000D02*
X55428000Y-74468000D01*
X58868000Y-71428000D02*
X58868000Y-74468000D01*
X55428000Y-71428000D02*
X58868000Y-71428000D01*
X55428000Y-55418000D02*
X55428000Y-52368000D01*
X58868000Y-55418000D02*
X55428000Y-55418000D01*
X58868000Y-52368000D02*
X58868000Y-55418000D01*
X55428000Y-52368000D02*
X58868000Y-52368000D01*
X55428000Y-36358000D02*
X55428000Y-33338000D01*
X58868000Y-36358000D02*
X55428000Y-36358000D01*
X58868000Y-33338000D02*
X58868000Y-36358000D01*
X55428000Y-33338000D02*
X58868000Y-33338000D01*
X55438000Y-17308000D02*
X55438000Y-14268000D01*
X58858000Y-17308000D02*
X55438000Y-17308000D01*
X58858000Y-14268000D02*
X58858000Y-17308000D01*
X55438000Y-14268000D02*
X58858000Y-14268000D01*
X55438000Y1732000D02*
X55438000Y4782000D01*
X58848000Y1732000D02*
X55438000Y1732000D01*
X58848000Y4782000D02*
X58848000Y1732000D01*
X55438000Y4782000D02*
X58848000Y4782000D01*
X36378000Y-3258000D02*
X36378000Y-218000D01*
X39808000Y-3258000D02*
X36378000Y-3258000D01*
X39808000Y-218000D02*
X39808000Y-3258000D01*
X36378000Y-218000D02*
X39808000Y-218000D01*
X36388000Y-22308000D02*
X36388000Y-19278000D01*
X39818000Y-22308000D02*
X36388000Y-22308000D01*
X39818000Y-19278000D02*
X39818000Y-22308000D01*
X36388000Y-19278000D02*
X39818000Y-19278000D01*
X36378000Y-41378000D02*
X36378000Y-38308000D01*
X39828000Y-41378000D02*
X36378000Y-41378000D01*
X39828000Y-38308000D02*
X39828000Y-41378000D01*
X36378000Y-38308000D02*
X39828000Y-38308000D01*
X36378000Y-60418000D02*
X36378000Y-57368000D01*
X39808000Y-60418000D02*
X36378000Y-60418000D01*
X39808000Y-57368000D02*
X39808000Y-60418000D01*
X36378000Y-57368000D02*
X39808000Y-57368000D01*
X36378000Y-79448000D02*
X36378000Y-76418000D01*
X39818000Y-79448000D02*
X36378000Y-79448000D01*
X39818000Y-76418000D02*
X39818000Y-79448000D01*
X36378000Y-76418000D02*
X39818000Y-76418000D01*
X17328000Y-82468000D02*
X17328000Y-79418000D01*
X20768000Y-82468000D02*
X17328000Y-82468000D01*
X20768000Y-79418000D02*
X20768000Y-82468000D01*
X17328000Y-79418000D02*
X20768000Y-79418000D01*
X17338000Y-63418000D02*
X17338000Y-60368000D01*
X20748000Y-63418000D02*
X17338000Y-63418000D01*
X20748000Y-60368000D02*
X20748000Y-63418000D01*
X17338000Y-60368000D02*
X20748000Y-60368000D01*
X17348000Y-25308000D02*
X17348000Y-22278000D01*
X20748000Y-25308000D02*
X17348000Y-25308000D01*
X20748000Y-22278000D02*
X20748000Y-25308000D01*
X17348000Y-22278000D02*
X20748000Y-22278000D01*
X17348000Y-6258000D02*
X17348000Y-3228000D01*
X20748000Y-6258000D02*
X17348000Y-6258000D01*
X20748000Y-3228000D02*
X20748000Y-6258000D01*
X17348000Y-3228000D02*
X20748000Y-3228000D01*
X-1712000Y-82458000D02*
X-1712000Y-79438000D01*
X1708000Y-82458000D02*
X-1712000Y-82458000D01*
X1708000Y-79438000D02*
X1708000Y-82458000D01*
X-1712000Y-79438000D02*
X1708000Y-79438000D01*
X-1712000Y-63408000D02*
X-1712000Y-60388000D01*
X1698000Y-63408000D02*
X-1712000Y-63408000D01*
X1698000Y-60388000D02*
X1698000Y-63408000D01*
X-1712000Y-60388000D02*
X1698000Y-60388000D01*
X-1702000Y-44328000D02*
X-1702000Y-41328000D01*
X1708000Y-44328000D02*
X-1702000Y-44328000D01*
X1708000Y-41328000D02*
X1708000Y-44328000D01*
X-1702000Y-41328000D02*
X1708000Y-41328000D01*
X-1712000Y-25278000D02*
X-1712000Y-22288000D01*
X1698000Y-25278000D02*
X-1712000Y-25278000D01*
X1698000Y-22288000D02*
X1698000Y-25278000D01*
X-1712000Y-22288000D02*
X1698000Y-22288000D01*
X-1712000Y-6258000D02*
X-1712000Y-3258000D01*
X1698000Y-6258000D02*
X-1712000Y-6258000D01*
X1698000Y-3258000D02*
X1698000Y-6258000D01*
X-1712000Y-3258000D02*
X1698000Y-3258000D01*
M02*
