G04 #@! TF.GenerationSoftware,KiCad,Pcbnew,(5.1.4)-1*
G04 #@! TF.CreationDate,2020-07-05T11:50:33-04:00*
G04 #@! TF.ProjectId,splitreus,73706c69-7472-4657-9573-2e6b69636164,1*
G04 #@! TF.SameCoordinates,Original*
G04 #@! TF.FileFunction,Paste,Top*
G04 #@! TF.FilePolarity,Positive*
%FSLAX46Y46*%
G04 Gerber Fmt 4.6, Leading zero omitted, Abs format (unit mm)*
G04 Created by KiCad (PCBNEW (5.1.4)-1) date 2020-07-05 11:50:33*
%MOMM*%
%LPD*%
G04 APERTURE LIST*
%ADD10R,1.200000X1.600000*%
%ADD11R,1.600000X1.200000*%
G04 APERTURE END LIST*
D10*
X104500000Y-58600000D03*
X104500000Y-61400000D03*
X104500000Y-69600000D03*
X104500000Y-72400000D03*
D11*
X96400000Y-66000000D03*
X93600000Y-66000000D03*
X96400000Y-48000000D03*
X93600000Y-48000000D03*
X96400000Y-30000000D03*
X93600000Y-30000000D03*
X96400000Y-12000000D03*
X93600000Y-12000000D03*
D10*
X85500000Y-70600000D03*
X85500000Y-73400000D03*
D11*
X77400000Y-61000000D03*
X74600000Y-61000000D03*
X77400000Y-43000000D03*
X74600000Y-43000000D03*
X77400000Y-25000000D03*
X74600000Y-25000000D03*
X77400000Y-7000000D03*
X74600000Y-7000000D03*
D10*
X66500000Y-62600000D03*
X66500000Y-65400000D03*
D11*
X58400000Y-55000000D03*
X55600000Y-55000000D03*
X58400000Y-37000000D03*
X55600000Y-37000000D03*
X58400000Y-19000000D03*
X55600000Y-19000000D03*
X58400000Y-1000000D03*
X55600000Y-1000000D03*
D10*
X47500000Y-65600000D03*
X47500000Y-68400000D03*
D11*
X39400000Y-60000000D03*
X36600000Y-60000000D03*
X39400000Y-42000000D03*
X36600000Y-42000000D03*
X39400000Y-24000000D03*
X36600000Y-24000000D03*
X39400000Y-6000000D03*
X36600000Y-6000000D03*
D10*
X28500000Y-70600000D03*
X28500000Y-73400000D03*
D11*
X20400000Y-63000000D03*
X17600000Y-63000000D03*
X20400000Y-45000000D03*
X17600000Y-45000000D03*
X20400000Y-27000000D03*
X17600000Y-27000000D03*
X20400000Y-9000000D03*
X17600000Y-9000000D03*
D10*
X9500000Y-70600000D03*
X9500000Y-73400000D03*
D11*
X1400000Y-63000000D03*
X-1400000Y-63000000D03*
X1400000Y-45000000D03*
X-1400000Y-45000000D03*
X1400000Y-27000000D03*
X-1400000Y-27000000D03*
X1400000Y-9000000D03*
X-1400000Y-9000000D03*
M02*
