M48
; DRILL file {KiCad (5.1.4)-1} date 4/5/2021 8:46:06 AM
; FORMAT={-:-/ absolute / metric / decimal}
; #@! TF.CreationDate,2021-04-05T08:46:06-04:00
; #@! TF.GenerationSoftware,Kicad,Pcbnew,(5.1.4)-1
; #@! TF.FileFunction,Plated,1,2,PTH
FMAT,2
METRIC
T1C0.300
T2C0.400
T3C1.000
T4C1.092
T5C1.300
T6C2.200
%
G90
G05
T2
X-7.412Y2.422
X-7.312Y-16.558
X-7.131Y-35.607
X-7.131Y-54.827
X-7.131Y-73.557
X-3.332Y-5.478
X-3.222Y-24.418
X-3.092Y-61.118
X-3.072Y-62.738
X-3.052Y-3.968
X-3.032Y-42.118
X-2.982Y-23.098
X-2.942Y-81.898
X-2.852Y-43.658
X-2.832Y-80.228
X2.818Y-43.898
X2.888Y-61.028
X2.928Y-3.988
X2.928Y-5.608
X2.928Y-24.548
X2.928Y-80.118
X2.978Y-23.158
X2.978Y-81.588
X3.078Y-62.658
X3.238Y-42.158
X7.558Y2.572
X7.598Y-16.528
X7.618Y-54.688
X7.668Y-35.768
X7.668Y-73.658
X10.478Y-7.633
X11.808Y-35.748
X11.808Y-73.648
X11.918Y2.512
X11.918Y-54.818
X11.919Y-16.707
X15.908Y-80.118
X15.948Y-43.718
X15.998Y-42.138
X16.018Y-81.698
X16.038Y-61.208
X16.038Y-62.738
X16.148Y-5.638
X16.168Y-24.718
X16.208Y-4.078
X16.208Y-22.988
X21.848Y-5.638
X22.018Y-42.118
X22.018Y-80.248
X22.038Y-43.608
X22.058Y-81.608
X22.078Y-23.178
X22.078Y-61.138
X22.108Y-4.048
X22.208Y-62.698
X22.238Y-24.588
X23.625Y-7.391
X25.652Y-8.909
X26.538Y2.472
X26.538Y-54.588
X26.638Y-73.968
X26.658Y-16.568
X26.688Y-35.558
X30.788Y5.642
X30.818Y-32.688
X30.868Y-70.638
X30.908Y-51.518
X30.958Y-13.568
X34.908Y-39.058
X34.998Y-2.668
X35.018Y-0.908
X35.058Y-58.128
X35.058Y-77.148
X35.078Y-20.148
X35.078Y-21.818
X35.108Y-78.758
X35.128Y-40.668
X35.128Y-59.758
X40.848Y-21.558
X41.038Y-1.088
X41.038Y-20.038
X41.058Y-58.128
X41.058Y-78.778
X41.128Y-40.618
X41.128Y-77.238
X41.148Y-39.148
X41.148Y-59.688
X41.208Y-2.488
X42.968Y-7.998
X45.568Y-32.628
X45.568Y-51.598
X45.708Y-13.468
X45.738Y5.642
X45.928Y-70.578
X48.372Y-22.068
X48.491Y-23.607
X50.019Y10.513
X50.019Y-8.417
X50.019Y-27.687
X50.019Y-46.667
X50.019Y-65.697
X51.917Y-14.924
X52.107Y-31.727
X53.024Y-17.701
X53.948Y-53.208
X54.038Y4.032
X54.108Y-16.578
X54.108Y-72.278
X54.148Y-14.928
X54.148Y-34.098
X54.168Y-35.788
X54.188Y2.512
X54.208Y-54.728
X54.208Y-73.768
X60.108Y-54.638
X60.128Y4.052
X60.148Y-53.168
X60.148Y-73.688
X60.168Y2.552
X60.168Y-35.688
X60.208Y-72.298
X60.238Y-16.558
X60.278Y-14.948
X60.338Y-34.208
X64.638Y-65.898
X64.688Y-27.638
X64.718Y-8.648
X64.738Y-46.508
X64.828Y10.462
X65.488Y-22.958
X67.346Y-43.137
X67.731Y-45.796
X69.069Y4.583
X69.069Y-14.757
X69.069Y-33.677
X69.069Y-52.707
X69.069Y-71.837
X73.028Y-3.688
X73.068Y-59.108
X73.098Y-40.058
X73.098Y-60.748
X73.118Y-20.978
X73.138Y-2.088
X73.178Y-41.728
X73.228Y-78.188
X73.228Y-79.798
X73.268Y-22.688
X79.098Y-20.978
X79.138Y-41.468
X79.208Y-2.018
X79.208Y-3.598
X79.208Y-40.188
X79.228Y-59.108
X79.228Y-60.648
X79.268Y-78.218
X79.268Y-79.818
X79.288Y-22.488
X82.196Y-6.113
X83.778Y4.462
X83.818Y-52.678
X83.818Y-71.708
X83.858Y-14.558
X83.918Y-33.448
X84.468Y-48.198
X87.208Y-50.938
X88.118Y-69.268
X88.119Y-0.777
X88.119Y-19.897
X88.119Y-38.927
X88.119Y-57.907
X88.119Y-76.637
X92.118Y-45.178
X92.118Y-46.628
X92.178Y-64.088
X92.248Y-25.898
X92.248Y-65.758
X92.268Y-27.668
X92.288Y-83.218
X92.308Y-84.818
X92.398Y-6.958
X92.508Y-8.588
X97.357Y-81.293
X98.178Y-46.628
X98.208Y-84.648
X98.248Y-7.028
X98.248Y-27.628
X98.268Y-8.518
X98.268Y-25.998
X98.268Y-45.108
X98.268Y-65.778
X98.358Y-64.128
X98.398Y-83.088
X101.884Y-64.729
X102.638Y-76.848
X102.868Y-19.498
X102.898Y-0.638
X102.898Y-38.648
X102.898Y-57.668
X103.228Y-61.238
X103.328Y-32.998
X103.768Y-16.028
X108.448Y-68.078
X108.538Y-73.988
X109.698Y-42.778
X110.058Y-68.208
X110.098Y-73.908
X110.448Y-43.798
X111.958Y-38.888
X112.228Y-14.608
X113.738Y-14.618
X116.387Y-63.869
X116.538Y-78.578
X116.638Y-14.618
X118.738Y-47.728
X119.703Y-46.824
T3
X91.35Y-87.0
X99.15Y-87.0
X53.25Y-20.5
X61.05Y-20.5
X91.35Y-50.5
X99.15Y-50.5
X34.2Y-25.5
X42.0Y-25.5
X72.3Y-7.5
X80.1Y-7.5
X113.798Y-18.148
X116.338Y-18.148
X-3.9Y-9.5
X3.9Y-9.5
X53.25Y-1.5
X61.05Y-1.5
X15.15Y-84.0
X22.95Y-84.0
X53.25Y-39.5
X61.05Y-39.5
X72.3Y-26.5
X80.1Y-26.5
X-3.9Y-47.5
X3.9Y-47.5
X72.3Y-45.5
X80.1Y-45.5
X34.2Y-6.5
X42.0Y-6.5
X53.25Y-76.0
X61.05Y-76.0
X91.35Y-12.5
X99.15Y-12.5
X15.15Y-28.5
X22.95Y-28.5
X34.2Y-81.0
X42.0Y-81.0
X34.2Y-63.5
X42.0Y-63.5
X72.3Y-64.5
X80.1Y-64.5
X-3.9Y-84.0
X3.9Y-84.0
X105.928Y-66.088
X105.928Y-73.888
X-3.9Y-28.5
X3.9Y-28.5
X15.15Y-47.5
X22.95Y-47.5
X91.35Y-31.5
X99.15Y-31.5
X91.35Y-69.5
X99.15Y-69.5
X53.25Y-58.5
X61.05Y-58.5
X34.2Y-44.5
X42.0Y-44.5
X15.15Y-9.5
X22.95Y-9.5
X15.15Y-66.5
X22.95Y-66.5
X72.3Y-82.0
X80.1Y-82.0
X-3.9Y-66.5
X3.9Y-66.5
T4
X107.798Y-15.618
X107.798Y-18.158
X107.798Y-20.698
X107.798Y-23.238
X107.798Y-25.778
X107.798Y-28.318
X107.798Y-30.858
X107.798Y-33.398
X107.798Y-35.938
X107.798Y-38.478
X107.798Y-41.018
X107.798Y-43.558
X107.798Y-46.098
X123.038Y-15.618
X123.038Y-18.158
X123.038Y-20.698
X123.038Y-23.238
X123.038Y-25.778
X123.038Y-28.318
X123.038Y-30.858
X123.038Y-33.398
X123.038Y-35.938
X123.038Y-38.478
X123.038Y-41.018
X123.038Y-43.558
X123.038Y-46.098
T5
X114.788Y-58.298
X121.288Y-58.298
T6
X85.725Y-29.075
X85.725Y-67.175
X28.575Y-27.075
X28.575Y-65.175
T1
G00X112.56Y-51.27
M15
G01X111.26Y-51.27
M16
G05
G00X112.56Y-53.72
M15
G01X111.26Y-53.72
M16
G05
G00X114.06Y-49.52
M15
G01X112.76Y-49.52
M16
G05
G00X114.06Y-55.47
M15
G01X112.76Y-55.47
M16
G05
G00X118.06Y-49.52
M15
G01X116.76Y-49.52
M16
G05
G00X118.06Y-55.47
M15
G01X116.76Y-55.47
M16
G05
G00X121.06Y-49.52
M15
G01X119.76Y-49.52
M16
G05
G00X121.06Y-55.47
M15
G01X119.76Y-55.47
M16
G05
T0
M30
