G04 #@! TF.GenerationSoftware,KiCad,Pcbnew,(5.1.4)-1*
G04 #@! TF.CreationDate,2021-09-26T17:53:05-04:00*
G04 #@! TF.ProjectId,splitreus,73706c69-7472-4657-9573-2e6b69636164,1*
G04 #@! TF.SameCoordinates,Original*
G04 #@! TF.FileFunction,Copper,L1,Top*
G04 #@! TF.FilePolarity,Positive*
%FSLAX46Y46*%
G04 Gerber Fmt 4.6, Leading zero omitted, Abs format (unit mm)*
G04 Created by KiCad (PCBNEW (5.1.4)-1) date 2021-09-26 17:53:05*
%MOMM*%
%LPD*%
G04 APERTURE LIST*
%ADD10R,1.100000X0.600000*%
%ADD11R,1.000000X0.600000*%
%ADD12R,0.600000X1.000000*%
%ADD13C,1.500000*%
%ADD14C,1.752600*%
%ADD15R,1.752600X1.752600*%
%ADD16R,1.250000X1.250000*%
%ADD17R,2.500000X2.550000*%
%ADD18R,2.550000X2.500000*%
%ADD19R,1.000000X2.500000*%
%ADD20R,2.500000X1.000000*%
%ADD21O,1.700000X1.700000*%
%ADD22R,1.700000X1.700000*%
%ADD23C,2.000000*%
%ADD24R,2.100000X1.000000*%
%ADD25R,0.500000X2.900000*%
%ADD26R,1.200000X1.600000*%
%ADD27R,1.600000X1.600000*%
%ADD28C,1.600000*%
%ADD29R,2.900000X0.500000*%
%ADD30R,1.600000X1.200000*%
%ADD31C,0.800000*%
%ADD32C,0.250000*%
%ADD33C,2.000000*%
G04 APERTURE END LIST*
D10*
X91650000Y6219000D03*
D11*
X91650000Y8495000D03*
D10*
X98850000Y8495000D03*
D11*
X98850000Y6209000D03*
D12*
X97450000Y5502000D03*
X94550000Y5502000D03*
X93050000Y5502000D03*
D13*
X107798000Y-15658000D03*
X123038000Y-15778000D03*
D14*
X123038000Y-18158000D03*
X107798000Y-46098000D03*
X123038000Y-20698000D03*
X123038000Y-23238000D03*
X123038000Y-25778000D03*
X123038000Y-28318000D03*
X123038000Y-30858000D03*
X123038000Y-33398000D03*
X123038000Y-35938000D03*
X123038000Y-38478000D03*
X123038000Y-41018000D03*
X123038000Y-43558000D03*
X123038000Y-46098000D03*
X107798000Y-43558000D03*
X107798000Y-41018000D03*
X107798000Y-38478000D03*
X107798000Y-35938000D03*
X107798000Y-33398000D03*
X107798000Y-30858000D03*
X107798000Y-28318000D03*
X107798000Y-25778000D03*
X107798000Y-23238000D03*
X107798000Y-20698000D03*
D15*
X107798000Y-18158000D03*
D16*
X116600000Y-79200000D03*
X116530000Y-62800000D03*
X119000000Y-77850000D03*
X119080000Y-64070000D03*
D17*
X116540000Y-78560000D03*
X119080000Y-64710000D03*
D16*
X103450000Y-57550000D03*
X87050000Y-57620000D03*
X102100000Y-55150000D03*
X88320000Y-55070000D03*
D18*
X102810000Y-57610000D03*
X88960000Y-55070000D03*
D16*
X103450000Y-38500000D03*
X87050000Y-38570000D03*
X102100000Y-36100000D03*
X88320000Y-36020000D03*
D18*
X102810000Y-38560000D03*
X88960000Y-36020000D03*
D16*
X103450000Y-19450000D03*
X87050000Y-19520000D03*
X102100000Y-17050000D03*
X88320000Y-16970000D03*
D18*
X102810000Y-19510000D03*
X88960000Y-16970000D03*
D16*
X103450000Y-400000D03*
X87050000Y-470000D03*
X102100000Y2000000D03*
X88320000Y2080000D03*
D18*
X102810000Y-460000D03*
X88960000Y2080000D03*
D16*
X84400000Y-71600000D03*
X68000000Y-71670000D03*
X83050000Y-69200000D03*
X69270000Y-69120000D03*
D18*
X83760000Y-71660000D03*
X69910000Y-69120000D03*
D16*
X84400000Y-52550000D03*
X68000000Y-52620000D03*
X83050000Y-50150000D03*
X69270000Y-50070000D03*
D18*
X83760000Y-52610000D03*
X69910000Y-50070000D03*
D16*
X84400000Y-33500000D03*
X68000000Y-33570000D03*
X83050000Y-31100000D03*
X69270000Y-31020000D03*
D18*
X83760000Y-33560000D03*
X69910000Y-31020000D03*
D16*
X84400000Y-14450000D03*
X68000000Y-14520000D03*
X83050000Y-12050000D03*
X69270000Y-11970000D03*
D18*
X83760000Y-14510000D03*
X69910000Y-11970000D03*
D16*
X84400000Y4600000D03*
X68000000Y4530000D03*
X83050000Y7000000D03*
X69270000Y7080000D03*
D18*
X83760000Y4540000D03*
X69910000Y7080000D03*
D16*
X65350000Y-65600000D03*
X48950000Y-65670000D03*
X64000000Y-63200000D03*
X50220000Y-63120000D03*
D18*
X64710000Y-65660000D03*
X50860000Y-63120000D03*
D16*
X65350000Y-46550000D03*
X48950000Y-46620000D03*
X64000000Y-44150000D03*
X50220000Y-44070000D03*
D18*
X64710000Y-46610000D03*
X50860000Y-44070000D03*
D16*
X65350000Y-27500000D03*
X48950000Y-27570000D03*
X64000000Y-25100000D03*
X50220000Y-25020000D03*
D18*
X64710000Y-27560000D03*
X50860000Y-25020000D03*
D16*
X65350000Y-8450000D03*
X48950000Y-8520000D03*
X64000000Y-6050000D03*
X50220000Y-5970000D03*
D18*
X64710000Y-8510000D03*
X50860000Y-5970000D03*
D16*
X65350000Y10600000D03*
X48950000Y10530000D03*
X64000000Y13000000D03*
X50220000Y13080000D03*
D18*
X64710000Y10540000D03*
X50860000Y13080000D03*
D16*
X46300000Y-70600000D03*
X29900000Y-70670000D03*
X44950000Y-68200000D03*
X31170000Y-68120000D03*
D18*
X45660000Y-70660000D03*
X31810000Y-68120000D03*
D16*
X46300000Y-51550000D03*
X29900000Y-51620000D03*
X44950000Y-49150000D03*
X31170000Y-49070000D03*
D18*
X45660000Y-51610000D03*
X31810000Y-49070000D03*
D16*
X46300000Y-32500000D03*
X29900000Y-32570000D03*
X44950000Y-30100000D03*
X31170000Y-30020000D03*
D18*
X45660000Y-32560000D03*
X31810000Y-30020000D03*
D16*
X46300000Y-13450000D03*
X29900000Y-13520000D03*
X44950000Y-11050000D03*
X31170000Y-10970000D03*
D18*
X45660000Y-13510000D03*
X31810000Y-10970000D03*
D16*
X46300000Y5600000D03*
X29900000Y5530000D03*
X44950000Y8000000D03*
X31170000Y8080000D03*
D18*
X45660000Y5540000D03*
X31810000Y8080000D03*
D16*
X27250000Y-73600000D03*
X10850000Y-73670000D03*
X25900000Y-71200000D03*
X12120000Y-71120000D03*
D18*
X26610000Y-73660000D03*
X12760000Y-71120000D03*
D16*
X27250000Y-54550000D03*
X10850000Y-54620000D03*
X25900000Y-52150000D03*
X12120000Y-52070000D03*
D18*
X26610000Y-54610000D03*
X12760000Y-52070000D03*
D16*
X27250000Y-35500000D03*
X10850000Y-35570000D03*
X25900000Y-33100000D03*
X12120000Y-33020000D03*
D18*
X26610000Y-35560000D03*
X12760000Y-33020000D03*
D16*
X27250000Y-16450000D03*
X10850000Y-16520000D03*
X25900000Y-14050000D03*
X12120000Y-13970000D03*
D18*
X26610000Y-16510000D03*
X12760000Y-13970000D03*
D16*
X27250000Y2600000D03*
X10850000Y2530000D03*
X25900000Y5000000D03*
X12120000Y5080000D03*
D18*
X26610000Y2540000D03*
X12760000Y5080000D03*
D16*
X8200000Y-73600000D03*
X-8200000Y-73670000D03*
X6850000Y-71200000D03*
X-6930000Y-71120000D03*
D18*
X7560000Y-73660000D03*
X-6290000Y-71120000D03*
D16*
X8200000Y-54550000D03*
X-8200000Y-54620000D03*
X6850000Y-52150000D03*
X-6930000Y-52070000D03*
D18*
X7560000Y-54610000D03*
X-6290000Y-52070000D03*
D16*
X8200000Y-35500000D03*
X-8200000Y-35570000D03*
X6850000Y-33100000D03*
X-6930000Y-33020000D03*
D18*
X7560000Y-35560000D03*
X-6290000Y-33020000D03*
D16*
X8200000Y-16450000D03*
X-8200000Y-16520000D03*
X6850000Y-14050000D03*
X-6930000Y-13970000D03*
D18*
X7560000Y-16510000D03*
X-6290000Y-13970000D03*
D16*
X8200000Y2600000D03*
X-8200000Y2530000D03*
X6850000Y5000000D03*
X-6930000Y5080000D03*
D18*
X7560000Y2540000D03*
X-6290000Y5080000D03*
D16*
X103450000Y-76600000D03*
X87050000Y-76670000D03*
X102100000Y-74200000D03*
X88320000Y-74120000D03*
D18*
X102810000Y-76660000D03*
X88960000Y-74120000D03*
D19*
X110050000Y-74000000D03*
X108450000Y-74000000D03*
X108450000Y-68000000D03*
X110050000Y-68000000D03*
D20*
X98250000Y-83150000D03*
X98250000Y-84750000D03*
X92250000Y-84750000D03*
X92250000Y-83150000D03*
X98250000Y-64100000D03*
X98250000Y-65700000D03*
X92250000Y-65700000D03*
X92250000Y-64100000D03*
X98250000Y-45050000D03*
X98250000Y-46650000D03*
X92250000Y-46650000D03*
X92250000Y-45050000D03*
X98250000Y-26000000D03*
X98250000Y-27600000D03*
X92250000Y-27600000D03*
X92250000Y-26000000D03*
X98250000Y-6950000D03*
X98250000Y-8550000D03*
X92250000Y-8550000D03*
X92250000Y-6950000D03*
X79200000Y-78150000D03*
X79200000Y-79750000D03*
X73200000Y-79750000D03*
X73200000Y-78150000D03*
X79200000Y-59100000D03*
X79200000Y-60700000D03*
X73200000Y-60700000D03*
X73200000Y-59100000D03*
X79200000Y-40050000D03*
X79200000Y-41650000D03*
X73200000Y-41650000D03*
X73200000Y-40050000D03*
X79200000Y-21000000D03*
X79200000Y-22600000D03*
X73200000Y-22600000D03*
X73200000Y-21000000D03*
X79200000Y-1950000D03*
X79200000Y-3550000D03*
X73200000Y-3550000D03*
X73200000Y-1950000D03*
X60150000Y-72150000D03*
X60150000Y-73750000D03*
X54150000Y-73750000D03*
X54150000Y-72150000D03*
X60150000Y-53100000D03*
X60150000Y-54700000D03*
X54150000Y-54700000D03*
X54150000Y-53100000D03*
X60150000Y-34050000D03*
X60150000Y-35650000D03*
X54150000Y-35650000D03*
X54150000Y-34050000D03*
X60150000Y-15000000D03*
X60150000Y-16600000D03*
X54150000Y-16600000D03*
X54150000Y-15000000D03*
X60150000Y4050000D03*
X60150000Y2450000D03*
X54150000Y2450000D03*
X54150000Y4050000D03*
X41100000Y-77150000D03*
X41100000Y-78750000D03*
X35100000Y-78750000D03*
X35100000Y-77150000D03*
X41100000Y-58100000D03*
X41100000Y-59700000D03*
X35100000Y-59700000D03*
X35100000Y-58100000D03*
X41100000Y-39050000D03*
X41100000Y-40650000D03*
X35100000Y-40650000D03*
X35100000Y-39050000D03*
X41100000Y-20000000D03*
X41100000Y-21600000D03*
X35100000Y-21600000D03*
X35100000Y-20000000D03*
X41100000Y-950000D03*
X41100000Y-2550000D03*
X35100000Y-2550000D03*
X35100000Y-950000D03*
X22050000Y-80150000D03*
X22050000Y-81750000D03*
X16050000Y-81750000D03*
X16050000Y-80150000D03*
X22050000Y-61100000D03*
X22050000Y-62700000D03*
X16050000Y-62700000D03*
X16050000Y-61100000D03*
X22050000Y-42050000D03*
X22050000Y-43650000D03*
X16050000Y-43650000D03*
X16050000Y-42050000D03*
X22050000Y-23000000D03*
X22050000Y-24600000D03*
X16050000Y-24600000D03*
X16050000Y-23000000D03*
X22050000Y-3950000D03*
X22050000Y-5550000D03*
X16050000Y-5550000D03*
X16050000Y-3950000D03*
X3000000Y-80150000D03*
X3000000Y-81750000D03*
X-3000000Y-81750000D03*
X-3000000Y-80150000D03*
X3000000Y-61100000D03*
X3000000Y-62700000D03*
X-3000000Y-62700000D03*
X-3000000Y-61100000D03*
X3000000Y-42050000D03*
X3000000Y-43650000D03*
X-3000000Y-43650000D03*
X-3000000Y-42050000D03*
X3000000Y-23000000D03*
X3000000Y-24600000D03*
X-3000000Y-24600000D03*
X-3000000Y-23000000D03*
X3000000Y-3950000D03*
X3000000Y-5550000D03*
X-3000000Y-5550000D03*
X-3000000Y-3950000D03*
D21*
X113798000Y-18148000D03*
D22*
X116338000Y-18148000D03*
D23*
X107662000Y-5470000D03*
X107662000Y1030000D03*
D24*
X112094000Y-50440000D03*
X110594000Y-54640000D03*
X119094000Y-50440000D03*
X116094000Y-50440000D03*
X119094000Y-56390000D03*
X116094000Y-56390000D03*
X112094000Y-56390000D03*
X110594000Y-52190000D03*
D25*
X106278000Y-73500000D03*
D26*
X106278000Y-72400000D03*
X106278000Y-69600000D03*
D27*
X106278000Y-74900000D03*
D28*
X106278000Y-67100000D03*
D25*
X106278000Y-68500000D03*
D29*
X97750000Y-87000000D03*
D30*
X96650000Y-87000000D03*
X93850000Y-87000000D03*
D27*
X99150000Y-87000000D03*
D28*
X91350000Y-87000000D03*
D29*
X92750000Y-87000000D03*
X97750000Y-67900000D03*
D30*
X96650000Y-67900000D03*
X93850000Y-67900000D03*
D27*
X99150000Y-67900000D03*
D28*
X91350000Y-67900000D03*
D29*
X92750000Y-67900000D03*
X97750000Y-48900000D03*
D30*
X96650000Y-48900000D03*
X93850000Y-48900000D03*
D27*
X99150000Y-48900000D03*
D28*
X91350000Y-48900000D03*
D29*
X92750000Y-48900000D03*
X97750000Y-29900000D03*
D30*
X96650000Y-29900000D03*
X93850000Y-29900000D03*
D27*
X99150000Y-29900000D03*
D28*
X91350000Y-29900000D03*
D29*
X92750000Y-29900000D03*
X97750000Y-10900000D03*
D30*
X96650000Y-10900000D03*
X93850000Y-10900000D03*
D27*
X99150000Y-10900000D03*
D28*
X91350000Y-10900000D03*
D29*
X92750000Y-10900000D03*
X78700000Y-82000000D03*
D30*
X77600000Y-82000000D03*
X74800000Y-82000000D03*
D27*
X80100000Y-82000000D03*
D28*
X72300000Y-82000000D03*
D29*
X73700000Y-82000000D03*
X78700000Y-62900000D03*
D30*
X77600000Y-62900000D03*
X74800000Y-62900000D03*
D27*
X80100000Y-62900000D03*
D28*
X72300000Y-62900000D03*
D29*
X73700000Y-62900000D03*
X78700000Y-43900000D03*
D30*
X77600000Y-43900000D03*
X74800000Y-43900000D03*
D27*
X80100000Y-43900000D03*
D28*
X72300000Y-43900000D03*
D29*
X73700000Y-43900000D03*
X78700000Y-24900000D03*
D30*
X77600000Y-24900000D03*
X74800000Y-24900000D03*
D27*
X80100000Y-24900000D03*
D28*
X72300000Y-24900000D03*
D29*
X73700000Y-24900000D03*
X78700000Y-5900000D03*
D30*
X77600000Y-5900000D03*
X74800000Y-5900000D03*
D27*
X80100000Y-5900000D03*
D28*
X72300000Y-5900000D03*
D29*
X73700000Y-5900000D03*
X59650000Y-76000000D03*
D30*
X58550000Y-76000000D03*
X55750000Y-76000000D03*
D27*
X61050000Y-76000000D03*
D28*
X53250000Y-76000000D03*
D29*
X54650000Y-76000000D03*
X59650000Y-56900000D03*
D30*
X58550000Y-56900000D03*
X55750000Y-56900000D03*
D27*
X61050000Y-56900000D03*
D28*
X53250000Y-56900000D03*
D29*
X54650000Y-56900000D03*
X59650000Y-37900000D03*
D30*
X58550000Y-37900000D03*
X55750000Y-37900000D03*
D27*
X61050000Y-37900000D03*
D28*
X53250000Y-37900000D03*
D29*
X54650000Y-37900000D03*
X59650000Y-18900000D03*
D30*
X58550000Y-18900000D03*
X55750000Y-18900000D03*
D27*
X61050000Y-18900000D03*
D28*
X53250000Y-18900000D03*
D29*
X54650000Y-18900000D03*
X59650000Y100000D03*
D30*
X58550000Y100000D03*
X55750000Y100000D03*
D27*
X61050000Y100000D03*
D28*
X53250000Y100000D03*
D29*
X54650000Y100000D03*
X40600000Y-81000000D03*
D30*
X39500000Y-81000000D03*
X36700000Y-81000000D03*
D27*
X42000000Y-81000000D03*
D28*
X34200000Y-81000000D03*
D29*
X35600000Y-81000000D03*
X40600000Y-61900000D03*
D30*
X39500000Y-61900000D03*
X36700000Y-61900000D03*
D27*
X42000000Y-61900000D03*
D28*
X34200000Y-61900000D03*
D29*
X35600000Y-61900000D03*
X40600000Y-42900000D03*
D30*
X39500000Y-42900000D03*
X36700000Y-42900000D03*
D27*
X42000000Y-42900000D03*
D28*
X34200000Y-42900000D03*
D29*
X35600000Y-42900000D03*
X40600000Y-23900000D03*
D30*
X39500000Y-23900000D03*
X36700000Y-23900000D03*
D27*
X42000000Y-23900000D03*
D28*
X34200000Y-23900000D03*
D29*
X35600000Y-23900000D03*
X40600000Y-4900000D03*
D30*
X39500000Y-4900000D03*
X36700000Y-4900000D03*
D27*
X42000000Y-4900000D03*
D28*
X34200000Y-4900000D03*
D29*
X35600000Y-4900000D03*
X21550000Y-84000000D03*
D30*
X20450000Y-84000000D03*
X17650000Y-84000000D03*
D27*
X22950000Y-84000000D03*
D28*
X15150000Y-84000000D03*
D29*
X16550000Y-84000000D03*
X21550000Y-64900000D03*
D30*
X20450000Y-64900000D03*
X17650000Y-64900000D03*
D27*
X22950000Y-64900000D03*
D28*
X15150000Y-64900000D03*
D29*
X16550000Y-64900000D03*
X21550000Y-45900000D03*
D30*
X20450000Y-45900000D03*
X17650000Y-45900000D03*
D27*
X22950000Y-45900000D03*
D28*
X15150000Y-45900000D03*
D29*
X16550000Y-45900000D03*
X21550000Y-26900000D03*
D30*
X20450000Y-26900000D03*
X17650000Y-26900000D03*
D27*
X22950000Y-26900000D03*
D28*
X15150000Y-26900000D03*
D29*
X16550000Y-26900000D03*
X21550000Y-7900000D03*
D30*
X20450000Y-7900000D03*
X17650000Y-7900000D03*
D27*
X22950000Y-7900000D03*
D28*
X15150000Y-7900000D03*
D29*
X16550000Y-7900000D03*
X2500000Y-84000000D03*
D30*
X1400000Y-84000000D03*
X-1400000Y-84000000D03*
D27*
X3900000Y-84000000D03*
D28*
X-3900000Y-84000000D03*
D29*
X-2500000Y-84000000D03*
X2500000Y-64950000D03*
D30*
X1400000Y-64950000D03*
X-1400000Y-64950000D03*
D27*
X3900000Y-64950000D03*
D28*
X-3900000Y-64950000D03*
D29*
X-2500000Y-64950000D03*
X2500000Y-45900000D03*
D30*
X1400000Y-45900000D03*
X-1400000Y-45900000D03*
D27*
X3900000Y-45900000D03*
D28*
X-3900000Y-45900000D03*
D29*
X-2500000Y-45900000D03*
X2500000Y-26900000D03*
D30*
X1400000Y-26900000D03*
X-1400000Y-26900000D03*
D27*
X3900000Y-26900000D03*
D28*
X-3900000Y-26900000D03*
D29*
X-2500000Y-26900000D03*
X2500000Y-7900000D03*
D30*
X1400000Y-7900000D03*
X-1400000Y-7900000D03*
D27*
X3900000Y-7900000D03*
D28*
X-3900000Y-7900000D03*
D29*
X-2500000Y-7900000D03*
D31*
X82730000Y-46550000D03*
X78599000Y-65908000D03*
X6269200Y-63260600D03*
X30642100Y-25248900D03*
X5301800Y-25993500D03*
X59932200Y-31289500D03*
X41100000Y-37524700D03*
X51044500Y-71843700D03*
X47620300Y-76830400D03*
X4855500Y-42472400D03*
X70046200Y-29143200D03*
X81270800Y-64189000D03*
X37862900Y-63781100D03*
X52049700Y-58874600D03*
X41100000Y-18866800D03*
X23910300Y-42050000D03*
X3798500Y-21877200D03*
X59900700Y-13890900D03*
X100717400Y-64100000D03*
X98319900Y-43322800D03*
X110718700Y-42288000D03*
X99825300Y-24883600D03*
X60150000Y-70619900D03*
X41100000Y-76024200D03*
X42957900Y-58100000D03*
X23904000Y-61470800D03*
X4858800Y-80290200D03*
X23924900Y-23499900D03*
X104070700Y-6950000D03*
X98250000Y-81897200D03*
X111169800Y-74219400D03*
X80360100Y-77045700D03*
X79200000Y-38903300D03*
X79273300Y-19862300D03*
X80308700Y-843400D03*
X59494500Y5161700D03*
X40968900Y155700D03*
X23911100Y-80150000D03*
X23932300Y-3950000D03*
X3927700Y-59963800D03*
X5206400Y-3318900D03*
X85257000Y-49844900D03*
X79265500Y-9852700D03*
X47255600Y-23471000D03*
X-5906900Y-23291200D03*
X-4872300Y-24348600D03*
X44653200Y-20946400D03*
X89353800Y-25790100D03*
X57430500Y-21821000D03*
X45610800Y-18095400D03*
X33136000Y-78750000D03*
X90285800Y-8550000D03*
X52271500Y-16600000D03*
X68812800Y-47595200D03*
X14191900Y-43540600D03*
X33234000Y-59427300D03*
X-5318400Y-80154000D03*
X73385600Y-7160800D03*
X62798900Y-51541600D03*
X52299600Y-35364100D03*
X55552200Y-2053000D03*
X33221700Y-40229100D03*
X14183700Y-81459000D03*
X12721400Y-59944500D03*
X-4871100Y-62518000D03*
X-4859300Y-43650000D03*
X16749000Y-6675000D03*
X-5333200Y-4179100D03*
X108450000Y-66126500D03*
X92563700Y-66805700D03*
X90388300Y-84241300D03*
X90395000Y-46661200D03*
X71233000Y-79750000D03*
X71339200Y-59936700D03*
X71346200Y-40957800D03*
X71341600Y-22600000D03*
X33228400Y-2364400D03*
X14182500Y-23927200D03*
X119092000Y-47178000D03*
X52044600Y-59958700D03*
X60178100Y-58805400D03*
X21369300Y-40399000D03*
X30180000Y-26900000D03*
X28904900Y-63036300D03*
X105182000Y410800D03*
X96054900Y6629700D03*
X13342900Y-79018200D03*
X4865800Y-5449400D03*
X-6532400Y-9324000D03*
X4885200Y-24281400D03*
X-3503200Y-2809100D03*
X-9160300Y-47851300D03*
X4859700Y-43759600D03*
X-4575300Y-21966200D03*
X274600Y-66105100D03*
X-3298400Y-40917300D03*
X4852300Y-82027000D03*
X-4126800Y-59981300D03*
X-4115800Y-79034200D03*
X35100000Y-76009400D03*
X23901900Y-5550000D03*
X23925300Y-24600000D03*
X13249900Y-3950000D03*
X24664800Y-43586700D03*
X28411800Y-21952600D03*
X14186900Y-22693900D03*
X18853700Y-65945400D03*
X13562700Y-42050000D03*
X23942100Y-60306300D03*
X23937900Y-81750000D03*
X52269600Y-72272900D03*
X42964200Y-2838900D03*
X42982600Y-21600000D03*
X33235100Y-774500D03*
X42138200Y-18716800D03*
X42961100Y-40364200D03*
X42961100Y-59915600D03*
X33230200Y-38755500D03*
X44141000Y-78407500D03*
X47287500Y-56939300D03*
X35100000Y-56939300D03*
X71303900Y-78395800D03*
X62003400Y3203700D03*
X62003600Y-16600000D03*
X52266400Y3471500D03*
X57261800Y-40222200D03*
X52295000Y-14831400D03*
X63321100Y-54692600D03*
X62167100Y-32131500D03*
X54150000Y-32938400D03*
X62037200Y-73750000D03*
X52296600Y-52992000D03*
X90395200Y-82960500D03*
X81061800Y-3782300D03*
X81081000Y-22600000D03*
X71314700Y-2404500D03*
X81063000Y-41937700D03*
X71321900Y-21000000D03*
X75990900Y-63967100D03*
X71323300Y-39748600D03*
X82912400Y-78958100D03*
X71344300Y-58719100D03*
X100113200Y-8733500D03*
X100107200Y-27551100D03*
X90397000Y-6711300D03*
X100103000Y-46489200D03*
X102141500Y-24040300D03*
X90381100Y-26224400D03*
X100120000Y-65994700D03*
X90374000Y-45121500D03*
X100120800Y-84032300D03*
X90398600Y-64251300D03*
X108450000Y-75867900D03*
X110050000Y-66124000D03*
X98366000Y5027000D03*
X97468000Y7963200D03*
X104433400Y-11215200D03*
D32*
X-1400000Y-7900000D02*
X-2500000Y-7900000D01*
X-2500000Y-7900000D02*
X-3900000Y-7900000D01*
D33*
X-6930000Y4440000D02*
X-6930000Y3800000D01*
X-6930000Y3800000D02*
X-8200000Y2530000D01*
X-6930000Y5080000D02*
X-6930000Y4440000D01*
D32*
X-6930000Y4440000D02*
X-6290000Y5080000D01*
D33*
X-3900000Y-7900000D02*
X-5031400Y-7900000D01*
X-5031400Y-7900000D02*
X-8200000Y-4731400D01*
X-8200000Y-4731400D02*
X-8200000Y2530000D01*
D32*
X-1400000Y-26900000D02*
X-2500000Y-26900000D01*
X-2500000Y-26900000D02*
X-3900000Y-26900000D01*
D33*
X-6930000Y-14610000D02*
X-6930000Y-15250000D01*
X-6930000Y-15250000D02*
X-8200000Y-16520000D01*
X-6930000Y-13970000D02*
X-6930000Y-14610000D01*
D32*
X-6930000Y-14610000D02*
X-6290000Y-13970000D01*
D33*
X-3900000Y-26900000D02*
X-4610000Y-26900000D01*
X-4610000Y-26900000D02*
X-8200000Y-23310000D01*
X-8200000Y-23310000D02*
X-8200000Y-16520000D01*
D32*
X-1400000Y-45900000D02*
X-2500000Y-45900000D01*
X-2500000Y-45900000D02*
X-3900000Y-45900000D01*
D33*
X-6930000Y-33660000D02*
X-6930000Y-34300000D01*
X-6930000Y-34300000D02*
X-8200000Y-35570000D01*
X-6930000Y-33020000D02*
X-6930000Y-33660000D01*
D32*
X-6930000Y-33660000D02*
X-6290000Y-33020000D01*
D33*
X-3900000Y-45900000D02*
X-5031400Y-45900000D01*
X-5031400Y-45900000D02*
X-8200000Y-42731400D01*
X-8200000Y-42731400D02*
X-8200000Y-35570000D01*
D32*
X-1400000Y-64950000D02*
X-2500000Y-64950000D01*
X-2500000Y-64950000D02*
X-3900000Y-64950000D01*
D33*
X-6930000Y-52710000D02*
X-6930000Y-53350000D01*
X-6930000Y-53350000D02*
X-8200000Y-54620000D01*
X-6930000Y-52070000D02*
X-6930000Y-52710000D01*
D32*
X-6930000Y-52710000D02*
X-6290000Y-52070000D01*
D33*
X-3900000Y-64950000D02*
X-5031400Y-64950000D01*
X-5031400Y-64950000D02*
X-8200000Y-61781400D01*
X-8200000Y-61781400D02*
X-8200000Y-54620000D01*
D32*
X-1400000Y-84000000D02*
X-2500000Y-84000000D01*
X-2500000Y-84000000D02*
X-3900000Y-84000000D01*
D33*
X-6930000Y-71760000D02*
X-6930000Y-72400000D01*
X-6930000Y-72400000D02*
X-8200000Y-73670000D01*
X-6930000Y-71120000D02*
X-6930000Y-71760000D01*
D32*
X-6930000Y-71760000D02*
X-6290000Y-71120000D01*
D33*
X-3900000Y-84000000D02*
X-5031400Y-84000000D01*
X-5031400Y-84000000D02*
X-8200000Y-80831400D01*
X-8200000Y-80831400D02*
X-8200000Y-73670000D01*
D32*
X17650000Y-7900000D02*
X16550000Y-7900000D01*
X16550000Y-7900000D02*
X15150000Y-7900000D01*
D33*
X12120000Y4440000D02*
X12120000Y3800000D01*
X12120000Y3800000D02*
X10850000Y2530000D01*
X12120000Y5080000D02*
X12120000Y4440000D01*
D32*
X12120000Y4440000D02*
X12760000Y5080000D01*
D33*
X15150000Y-7900000D02*
X14490000Y-7900000D01*
X14490000Y-7900000D02*
X10850000Y-4260000D01*
X10850000Y-4260000D02*
X10850000Y2530000D01*
D32*
X17650000Y-26900000D02*
X16550000Y-26900000D01*
X16550000Y-26900000D02*
X15150000Y-26900000D01*
D33*
X12120000Y-14610000D02*
X12120000Y-15250000D01*
X12120000Y-15250000D02*
X10850000Y-16520000D01*
X12120000Y-13970000D02*
X12120000Y-14610000D01*
D32*
X12120000Y-14610000D02*
X12760000Y-13970000D01*
D33*
X15150000Y-26900000D02*
X14018600Y-26900000D01*
X14018600Y-26900000D02*
X10850000Y-23731400D01*
X10850000Y-23731400D02*
X10850000Y-16520000D01*
D32*
X17650000Y-45900000D02*
X16550000Y-45900000D01*
X16550000Y-45900000D02*
X15150000Y-45900000D01*
D33*
X12120000Y-33660000D02*
X12120000Y-34300000D01*
X12120000Y-34300000D02*
X10850000Y-35570000D01*
X12120000Y-33020000D02*
X12120000Y-33660000D01*
D32*
X12120000Y-33660000D02*
X12760000Y-33020000D01*
D33*
X15150000Y-45900000D02*
X14018600Y-45900000D01*
X14018600Y-45900000D02*
X10850000Y-42731400D01*
X10850000Y-42731400D02*
X10850000Y-35570000D01*
D32*
X17650000Y-64900000D02*
X16550000Y-64900000D01*
X16550000Y-64900000D02*
X15150000Y-64900000D01*
D33*
X12120000Y-52710000D02*
X12120000Y-53350000D01*
X12120000Y-53350000D02*
X10850000Y-54620000D01*
X12120000Y-52070000D02*
X12120000Y-52710000D01*
D32*
X12120000Y-52710000D02*
X12760000Y-52070000D01*
D33*
X15150000Y-64900000D02*
X14340000Y-64900000D01*
X14340000Y-64900000D02*
X10850000Y-61410000D01*
X10850000Y-61410000D02*
X10850000Y-54620000D01*
D32*
X17650000Y-84000000D02*
X16550000Y-84000000D01*
X16550000Y-84000000D02*
X15150000Y-84000000D01*
D33*
X12120000Y-71760000D02*
X12120000Y-72400000D01*
X12120000Y-72400000D02*
X10850000Y-73670000D01*
X12120000Y-71120000D02*
X12120000Y-71760000D01*
D32*
X12120000Y-71760000D02*
X12760000Y-71120000D01*
D33*
X15150000Y-84000000D02*
X14390000Y-84000000D01*
X14390000Y-84000000D02*
X10850000Y-80460000D01*
X10850000Y-80460000D02*
X10850000Y-73670000D01*
D32*
X36700000Y-4900000D02*
X35600000Y-4900000D01*
X35600000Y-4900000D02*
X34200000Y-4900000D01*
D33*
X31170000Y7440000D02*
X31170000Y6800000D01*
X31170000Y6800000D02*
X29900000Y5530000D01*
X31170000Y8080000D02*
X31170000Y7440000D01*
D32*
X31170000Y7440000D02*
X31810000Y8080000D01*
D33*
X34200000Y-4900000D02*
X33068600Y-4900000D01*
X33068600Y-4900000D02*
X29900000Y-1731400D01*
X29900000Y-1731400D02*
X29900000Y5530000D01*
D32*
X36700000Y-23900000D02*
X35600000Y-23900000D01*
X35600000Y-23900000D02*
X34200000Y-23900000D01*
D33*
X31170000Y-11610000D02*
X31170000Y-12250000D01*
X31170000Y-12250000D02*
X29900000Y-13520000D01*
X31170000Y-10970000D02*
X31170000Y-11610000D01*
D32*
X31170000Y-11610000D02*
X31810000Y-10970000D01*
D33*
X34200000Y-23900000D02*
X33068600Y-23900000D01*
X33068600Y-23900000D02*
X29900000Y-20731400D01*
X29900000Y-20731400D02*
X29900000Y-13520000D01*
D32*
X36700000Y-42900000D02*
X35600000Y-42900000D01*
X35600000Y-42900000D02*
X34200000Y-42900000D01*
D33*
X31170000Y-30660000D02*
X31170000Y-31300000D01*
X31170000Y-31300000D02*
X29900000Y-32570000D01*
X31170000Y-30020000D02*
X31170000Y-30660000D01*
D32*
X31170000Y-30660000D02*
X31810000Y-30020000D01*
D33*
X34200000Y-42900000D02*
X33440000Y-42900000D01*
X33440000Y-42900000D02*
X29900000Y-39360000D01*
X29900000Y-39360000D02*
X29900000Y-32570000D01*
D32*
X36700000Y-61900000D02*
X35600000Y-61900000D01*
X35600000Y-61900000D02*
X34200000Y-61900000D01*
D33*
X31170000Y-49710000D02*
X31170000Y-50350000D01*
X31170000Y-50350000D02*
X29900000Y-51620000D01*
X31170000Y-49070000D02*
X31170000Y-49710000D01*
D32*
X31170000Y-49710000D02*
X31810000Y-49070000D01*
D33*
X34200000Y-61900000D02*
X33068600Y-61900000D01*
X33068600Y-61900000D02*
X29900000Y-58731400D01*
X29900000Y-58731400D02*
X29900000Y-51620000D01*
D32*
X36700000Y-81000000D02*
X35600000Y-81000000D01*
X35600000Y-81000000D02*
X34200000Y-81000000D01*
D33*
X31170000Y-68760000D02*
X31170000Y-69400000D01*
X31170000Y-69400000D02*
X29900000Y-70670000D01*
X31170000Y-68120000D02*
X31170000Y-68760000D01*
D32*
X31170000Y-68760000D02*
X31810000Y-68120000D01*
D33*
X34200000Y-81000000D02*
X33068600Y-81000000D01*
X33068600Y-81000000D02*
X29900000Y-77831400D01*
X29900000Y-77831400D02*
X29900000Y-70670000D01*
D32*
X55750000Y100000D02*
X54650000Y100000D01*
X54650000Y100000D02*
X53250000Y100000D01*
D33*
X50220000Y12440000D02*
X50220000Y11800000D01*
X50220000Y11800000D02*
X48950000Y10530000D01*
X50220000Y13080000D02*
X50220000Y12440000D01*
D32*
X50220000Y12440000D02*
X50860000Y13080000D01*
D33*
X53250000Y100000D02*
X52118600Y100000D01*
X52118600Y100000D02*
X48950000Y3268600D01*
X48950000Y3268600D02*
X48950000Y10530000D01*
D32*
X55750000Y-18900000D02*
X54650000Y-18900000D01*
X54650000Y-18900000D02*
X53250000Y-18900000D01*
D33*
X50220000Y-6610000D02*
X50220000Y-7250000D01*
X50220000Y-7250000D02*
X48950000Y-8520000D01*
X50220000Y-5970000D02*
X50220000Y-6610000D01*
D32*
X50220000Y-6610000D02*
X50860000Y-5970000D01*
D33*
X53250000Y-18900000D02*
X52118600Y-18900000D01*
X52118600Y-18900000D02*
X48950000Y-15731400D01*
X48950000Y-15731400D02*
X48950000Y-8520000D01*
D32*
X55750000Y-37900000D02*
X54650000Y-37900000D01*
X54650000Y-37900000D02*
X53250000Y-37900000D01*
D33*
X50220000Y-25660000D02*
X50220000Y-26300000D01*
X50220000Y-26300000D02*
X48950000Y-27570000D01*
X50220000Y-25020000D02*
X50220000Y-25660000D01*
D32*
X50220000Y-25660000D02*
X50860000Y-25020000D01*
D33*
X53250000Y-37900000D02*
X52118600Y-37900000D01*
X52118600Y-37900000D02*
X48950000Y-34731400D01*
X48950000Y-34731400D02*
X48950000Y-27570000D01*
D32*
X55750000Y-56900000D02*
X54650000Y-56900000D01*
X54650000Y-56900000D02*
X53250000Y-56900000D01*
D33*
X50220000Y-44710000D02*
X50220000Y-45350000D01*
X50220000Y-45350000D02*
X48950000Y-46620000D01*
X50220000Y-44070000D02*
X50220000Y-44710000D01*
D32*
X50220000Y-44710000D02*
X50860000Y-44070000D01*
D33*
X53250000Y-56900000D02*
X52118600Y-56900000D01*
X52118600Y-56900000D02*
X48950000Y-53731400D01*
X48950000Y-53731400D02*
X48950000Y-46620000D01*
D32*
X55750000Y-76000000D02*
X54650000Y-76000000D01*
X54650000Y-76000000D02*
X53250000Y-76000000D01*
D33*
X50220000Y-63760000D02*
X50220000Y-64400000D01*
X50220000Y-64400000D02*
X48950000Y-65670000D01*
X50220000Y-63120000D02*
X50220000Y-63760000D01*
D32*
X50220000Y-63760000D02*
X50860000Y-63120000D01*
D33*
X53250000Y-76000000D02*
X52118600Y-76000000D01*
X52118600Y-76000000D02*
X48950000Y-72831400D01*
X48950000Y-72831400D02*
X48950000Y-65670000D01*
D32*
X74800000Y-24900000D02*
X73700000Y-24900000D01*
X73700000Y-24900000D02*
X72300000Y-24900000D01*
D33*
X69270000Y-12610000D02*
X69270000Y-13250000D01*
X69270000Y-13250000D02*
X68000000Y-14520000D01*
X69270000Y-11970000D02*
X69270000Y-12610000D01*
D32*
X69270000Y-12610000D02*
X69910000Y-11970000D01*
D33*
X72300000Y-24900000D02*
X71168600Y-24900000D01*
X71168600Y-24900000D02*
X68000000Y-21731400D01*
X68000000Y-21731400D02*
X68000000Y-14520000D01*
D32*
X74800000Y-43900000D02*
X73700000Y-43900000D01*
X73700000Y-43900000D02*
X72300000Y-43900000D01*
D33*
X69270000Y-31660000D02*
X69270000Y-32300000D01*
X69270000Y-32300000D02*
X68000000Y-33570000D01*
X69270000Y-31020000D02*
X69270000Y-31660000D01*
D32*
X69270000Y-31660000D02*
X69910000Y-31020000D01*
D33*
X72300000Y-43900000D02*
X71168600Y-43900000D01*
X71168600Y-43900000D02*
X68000000Y-40731400D01*
X68000000Y-40731400D02*
X68000000Y-33570000D01*
D32*
X74800000Y-62900000D02*
X73700000Y-62900000D01*
X73700000Y-62900000D02*
X72300000Y-62900000D01*
D33*
X69270000Y-50710000D02*
X69270000Y-51350000D01*
X69270000Y-51350000D02*
X68000000Y-52620000D01*
X69270000Y-50070000D02*
X69270000Y-50710000D01*
D32*
X69270000Y-50710000D02*
X69910000Y-50070000D01*
D33*
X72300000Y-62900000D02*
X71168600Y-62900000D01*
X71168600Y-62900000D02*
X68000000Y-59731400D01*
X68000000Y-59731400D02*
X68000000Y-52620000D01*
D32*
X74800000Y-82000000D02*
X73700000Y-82000000D01*
X73700000Y-82000000D02*
X72300000Y-82000000D01*
D33*
X69270000Y-69760000D02*
X69270000Y-70400000D01*
X69270000Y-70400000D02*
X68000000Y-71670000D01*
X69270000Y-69120000D02*
X69270000Y-69760000D01*
D32*
X69270000Y-69760000D02*
X69910000Y-69120000D01*
D33*
X72300000Y-82000000D02*
X71168600Y-82000000D01*
X71168600Y-82000000D02*
X68000000Y-78831400D01*
X68000000Y-78831400D02*
X68000000Y-71670000D01*
D32*
X93850000Y-10900000D02*
X92750000Y-10900000D01*
X92750000Y-10900000D02*
X91350000Y-10900000D01*
D33*
X88320000Y1440000D02*
X88320000Y800000D01*
X88320000Y800000D02*
X87050000Y-470000D01*
X88320000Y2080000D02*
X88320000Y1440000D01*
D32*
X88320000Y1440000D02*
X88960000Y2080000D01*
D33*
X91350000Y-10900000D02*
X90218600Y-10900000D01*
X90218600Y-10900000D02*
X87050000Y-7731400D01*
X87050000Y-7731400D02*
X87050000Y-470000D01*
D32*
X93850000Y-29900000D02*
X92750000Y-29900000D01*
X92750000Y-29900000D02*
X91350000Y-29900000D01*
D33*
X88320000Y-17610000D02*
X88320000Y-18250000D01*
X88320000Y-18250000D02*
X87050000Y-19520000D01*
X88320000Y-16970000D02*
X88320000Y-17610000D01*
D32*
X88320000Y-17610000D02*
X88960000Y-16970000D01*
D33*
X91350000Y-29900000D02*
X90218600Y-29900000D01*
X90218600Y-29900000D02*
X87050000Y-26731400D01*
X87050000Y-26731400D02*
X87050000Y-19520000D01*
D32*
X93850000Y-48900000D02*
X92750000Y-48900000D01*
X92750000Y-48900000D02*
X91350000Y-48900000D01*
D33*
X88320000Y-36660000D02*
X88320000Y-37300000D01*
X88320000Y-37300000D02*
X87050000Y-38570000D01*
X88320000Y-36020000D02*
X88320000Y-36660000D01*
D32*
X88320000Y-36660000D02*
X88960000Y-36020000D01*
D33*
X91350000Y-48900000D02*
X90218600Y-48900000D01*
X90218600Y-48900000D02*
X87050000Y-45731400D01*
X87050000Y-45731400D02*
X87050000Y-38570000D01*
D32*
X93850000Y-67900000D02*
X92750000Y-67900000D01*
X92750000Y-67900000D02*
X91350000Y-67900000D01*
D33*
X88320000Y-55710000D02*
X88320000Y-56350000D01*
X88320000Y-56350000D02*
X87050000Y-57620000D01*
X88320000Y-55070000D02*
X88320000Y-55710000D01*
D32*
X88320000Y-55710000D02*
X88960000Y-55070000D01*
D33*
X91350000Y-67900000D02*
X90218600Y-67900000D01*
X90218600Y-67900000D02*
X87050000Y-64731400D01*
X87050000Y-64731400D02*
X87050000Y-57620000D01*
D32*
X93850000Y-87000000D02*
X92750000Y-87000000D01*
X92750000Y-87000000D02*
X91350000Y-87000000D01*
D33*
X88320000Y-74760000D02*
X88320000Y-75400000D01*
X88320000Y-75400000D02*
X87050000Y-76670000D01*
X88320000Y-74120000D02*
X88320000Y-74760000D01*
D32*
X88320000Y-74760000D02*
X88960000Y-74120000D01*
D33*
X91350000Y-87000000D02*
X90218600Y-87000000D01*
X90218600Y-87000000D02*
X87050000Y-83831400D01*
X87050000Y-83831400D02*
X87050000Y-76670000D01*
X118440000Y-64070000D02*
X117800000Y-64070000D01*
X117800000Y-64070000D02*
X116530000Y-62800000D01*
X119080000Y-64070000D02*
X118440000Y-64070000D01*
D32*
X118440000Y-64070000D02*
X119080000Y-64710000D01*
X106278000Y-68500000D02*
X106278000Y-67100000D01*
X106278000Y-69600000D02*
X106278000Y-68500000D01*
D33*
X106278000Y-67100000D02*
X106278000Y-65968600D01*
X106278000Y-65968600D02*
X109447000Y-62800000D01*
X109447000Y-62800000D02*
X116530000Y-62800000D01*
D32*
X84400000Y4570000D02*
X84850300Y4119700D01*
X84850300Y4119700D02*
X99030000Y4119700D01*
X99030000Y4119700D02*
X101149700Y2000000D01*
X102810000Y-460000D02*
X102870000Y-400000D01*
X102870000Y-400000D02*
X103450000Y-400000D01*
X83760000Y4540000D02*
X84370000Y4540000D01*
X84370000Y4540000D02*
X84400000Y4570000D01*
X84400000Y4570000D02*
X84400000Y4600000D01*
X102100000Y2000000D02*
X101149700Y2000000D01*
X83050000Y7000000D02*
X82099700Y7000000D01*
X65350000Y10600000D02*
X78499700Y10600000D01*
X78499700Y10600000D02*
X82099700Y7000000D01*
X64710000Y10540000D02*
X64770000Y10600000D01*
X64770000Y10600000D02*
X65350000Y10600000D01*
X43382000Y8617800D02*
X43999700Y8000000D01*
X24949700Y5000000D02*
X29866700Y9917000D01*
X29866700Y9917000D02*
X42082700Y9917000D01*
X42082700Y9917000D02*
X43382000Y8617800D01*
X43382000Y8617800D02*
X49704100Y14939900D01*
X49704100Y14939900D02*
X61109800Y14939900D01*
X61109800Y14939900D02*
X63049700Y13000000D01*
X64000000Y13000000D02*
X63049700Y13000000D01*
X45660000Y5540000D02*
X45720000Y5600000D01*
X45720000Y5600000D02*
X46300000Y5600000D01*
X7800300Y5000000D02*
X9719300Y6919000D01*
X9719300Y6919000D02*
X23030700Y6919000D01*
X23030700Y6919000D02*
X24949700Y5000000D01*
X44950000Y8000000D02*
X43999700Y8000000D01*
X26610000Y2540000D02*
X27190000Y2540000D01*
X27190000Y2540000D02*
X27250000Y2600000D01*
X25900000Y5000000D02*
X24949700Y5000000D01*
X6850000Y5000000D02*
X7800300Y5000000D01*
X7560000Y2540000D02*
X8140000Y2540000D01*
X8140000Y2540000D02*
X8200000Y2600000D01*
X82099700Y-12050000D02*
X82099700Y-11643100D01*
X82099700Y-11643100D02*
X78906600Y-8450000D01*
X78906600Y-8450000D02*
X65350000Y-8450000D01*
X44950000Y-9137900D02*
X44950000Y-11050000D01*
X63049700Y-6050000D02*
X61144300Y-4144600D01*
X61144300Y-4144600D02*
X49691000Y-4144600D01*
X49691000Y-4144600D02*
X44950000Y-8885600D01*
X44950000Y-8885600D02*
X44950000Y-9137900D01*
X44950000Y-9137900D02*
X28181700Y-9137900D01*
X28181700Y-9137900D02*
X24949700Y-12369900D01*
X24949700Y-12369900D02*
X24724400Y-12144600D01*
X24724400Y-12144600D02*
X9705700Y-12144600D01*
X9705700Y-12144600D02*
X7800300Y-14050000D01*
X24949700Y-12369900D02*
X24949700Y-14050000D01*
X64000000Y-6050000D02*
X63049700Y-6050000D01*
X84400000Y-14480000D02*
X98579700Y-14480000D01*
X98579700Y-14480000D02*
X101149700Y-17050000D01*
X102810000Y-19510000D02*
X102870000Y-19450000D01*
X102870000Y-19450000D02*
X103450000Y-19450000D01*
X83760000Y-14510000D02*
X84370000Y-14510000D01*
X84370000Y-14510000D02*
X84400000Y-14480000D01*
X84400000Y-14480000D02*
X84400000Y-14450000D01*
X102100000Y-17050000D02*
X101149700Y-17050000D01*
X83050000Y-12050000D02*
X82099700Y-12050000D01*
X64710000Y-8510000D02*
X64770000Y-8450000D01*
X64770000Y-8450000D02*
X65350000Y-8450000D01*
X45660000Y-13510000D02*
X45720000Y-13450000D01*
X45720000Y-13450000D02*
X46300000Y-13450000D01*
X26610000Y-16510000D02*
X27190000Y-16510000D01*
X27190000Y-16510000D02*
X27250000Y-16450000D01*
X25900000Y-14050000D02*
X24949700Y-14050000D01*
X6850000Y-14050000D02*
X7800300Y-14050000D01*
X7560000Y-16510000D02*
X8140000Y-16510000D01*
X8140000Y-16510000D02*
X8200000Y-16450000D01*
X43500900Y-28251500D02*
X48557800Y-23194600D01*
X48557800Y-23194600D02*
X56504600Y-23194600D01*
X56504600Y-23194600D02*
X56756900Y-23446900D01*
X56756900Y-23446900D02*
X58104200Y-23446900D01*
X58104200Y-23446900D02*
X58356500Y-23194600D01*
X58356500Y-23194600D02*
X61144300Y-23194600D01*
X61144300Y-23194600D02*
X63049700Y-25100000D01*
X65350000Y-27530000D02*
X65546600Y-27726600D01*
X65546600Y-27726600D02*
X78726300Y-27726600D01*
X78726300Y-27726600D02*
X82099700Y-31100000D01*
X24949700Y-33100000D02*
X29887100Y-28162600D01*
X29887100Y-28162600D02*
X43412000Y-28162600D01*
X43412000Y-28162600D02*
X43500900Y-28251500D01*
X43500900Y-28251500D02*
X43500900Y-29601200D01*
X43500900Y-29601200D02*
X43999700Y-30100000D01*
X84400000Y-33500000D02*
X98549700Y-33500000D01*
X98549700Y-33500000D02*
X101149700Y-36100000D01*
X102810000Y-38560000D02*
X103390000Y-38560000D01*
X103390000Y-38560000D02*
X103450000Y-38500000D01*
X102100000Y-36100000D02*
X101149700Y-36100000D01*
X83760000Y-33560000D02*
X83820000Y-33500000D01*
X83820000Y-33500000D02*
X84400000Y-33500000D01*
X64710000Y-27560000D02*
X65320000Y-27560000D01*
X65320000Y-27560000D02*
X65350000Y-27530000D01*
X65350000Y-27530000D02*
X65350000Y-27500000D01*
X83050000Y-31100000D02*
X82099700Y-31100000D01*
X64000000Y-25100000D02*
X63049700Y-25100000D01*
X45660000Y-32560000D02*
X45720000Y-32500000D01*
X45720000Y-32500000D02*
X46300000Y-32500000D01*
X7800300Y-33100000D02*
X9737400Y-31162900D01*
X9737400Y-31162900D02*
X23012600Y-31162900D01*
X23012600Y-31162900D02*
X24949700Y-33100000D01*
X44950000Y-30100000D02*
X43999700Y-30100000D01*
X26610000Y-35560000D02*
X27190000Y-35560000D01*
X27190000Y-35560000D02*
X27250000Y-35500000D01*
X25900000Y-33100000D02*
X24949700Y-33100000D01*
X6850000Y-33100000D02*
X7800300Y-33100000D01*
X7560000Y-35560000D02*
X8140000Y-35560000D01*
X8140000Y-35560000D02*
X8200000Y-35500000D01*
X66300300Y-46550000D02*
X82730000Y-46550000D01*
X101149700Y-55150000D02*
X104605800Y-51693900D01*
X104605800Y-51693900D02*
X105242700Y-51693900D01*
X105242700Y-51693900D02*
X110757600Y-46179000D01*
X110757600Y-46179000D02*
X122957000Y-46179000D01*
X122957000Y-46179000D02*
X123038000Y-46098000D01*
X65350000Y-46550000D02*
X66300300Y-46550000D01*
X84400000Y-52580000D02*
X98579700Y-52580000D01*
X98579700Y-52580000D02*
X101149700Y-55150000D01*
X102810000Y-57610000D02*
X102870000Y-57550000D01*
X102870000Y-57550000D02*
X103450000Y-57550000D01*
X83760000Y-52610000D02*
X84370000Y-52610000D01*
X84370000Y-52610000D02*
X84400000Y-52580000D01*
X84400000Y-52580000D02*
X84400000Y-52550000D01*
X102100000Y-55150000D02*
X101149700Y-55150000D01*
X64710000Y-46610000D02*
X64770000Y-46550000D01*
X64770000Y-46550000D02*
X65350000Y-46550000D01*
X43999700Y-47662100D02*
X44163800Y-47662100D01*
X44163800Y-47662100D02*
X49585400Y-42240500D01*
X49585400Y-42240500D02*
X61140200Y-42240500D01*
X61140200Y-42240500D02*
X63049700Y-44150000D01*
X24949700Y-52150000D02*
X29855100Y-47244600D01*
X29855100Y-47244600D02*
X43582200Y-47244600D01*
X43582200Y-47244600D02*
X43999700Y-47662100D01*
X43999700Y-47662100D02*
X43999700Y-49150000D01*
X64000000Y-44150000D02*
X63049700Y-44150000D01*
X45660000Y-51610000D02*
X45720000Y-51550000D01*
X45720000Y-51550000D02*
X46300000Y-51550000D01*
X7800300Y-52150000D02*
X9749000Y-50201300D01*
X9749000Y-50201300D02*
X23001000Y-50201300D01*
X23001000Y-50201300D02*
X24949700Y-52150000D01*
X44950000Y-49150000D02*
X43999700Y-49150000D01*
X26610000Y-54610000D02*
X27190000Y-54610000D01*
X27190000Y-54610000D02*
X27250000Y-54550000D01*
X25900000Y-52150000D02*
X24949700Y-52150000D01*
X6850000Y-52150000D02*
X7800300Y-52150000D01*
X7560000Y-54610000D02*
X8140000Y-54610000D01*
X8140000Y-54610000D02*
X8200000Y-54550000D01*
X65350000Y-65600000D02*
X66300300Y-65600000D01*
X78599000Y-65908000D02*
X66608300Y-65908000D01*
X66608300Y-65908000D02*
X66300300Y-65600000D01*
X99170700Y-71201500D02*
X113156800Y-57215400D01*
X113156800Y-57215400D02*
X113281100Y-57215400D01*
X113281100Y-57215400D02*
X114600300Y-55896200D01*
X114600300Y-55896200D02*
X114600300Y-55816100D01*
X114600300Y-55816100D02*
X116262900Y-54153500D01*
X116262900Y-54153500D02*
X117450000Y-54153500D01*
X117450000Y-54153500D02*
X124739600Y-46863900D01*
X124739600Y-46863900D02*
X124739600Y-42719600D01*
X124739600Y-42719600D02*
X123038000Y-41018000D01*
X101149700Y-74200000D02*
X99170700Y-72221000D01*
X99170700Y-72221000D02*
X99170700Y-71201500D01*
X99170700Y-71201500D02*
X89595700Y-71201500D01*
X89595700Y-71201500D02*
X87594200Y-69200000D01*
X87594200Y-69200000D02*
X83050000Y-69200000D01*
X83760000Y-70872300D02*
X84400000Y-71512300D01*
X84400000Y-71512300D02*
X84400000Y-71600000D01*
X83760000Y-70872300D02*
X83760000Y-70084700D01*
X83760000Y-71660000D02*
X83760000Y-70872300D01*
X83760000Y-70084700D02*
X83050000Y-69374700D01*
X83050000Y-69374700D02*
X83050000Y-69200000D01*
X64710000Y-65660000D02*
X64770000Y-65600000D01*
X64770000Y-65600000D02*
X65350000Y-65600000D01*
X43395300Y-67595500D02*
X43999700Y-68200000D01*
X24949700Y-71200000D02*
X29858000Y-66291700D01*
X29858000Y-66291700D02*
X42091400Y-66291700D01*
X42091400Y-66291700D02*
X43395300Y-67595500D01*
X43395300Y-67595500D02*
X49723500Y-61267300D01*
X49723500Y-61267300D02*
X61117000Y-61267300D01*
X61117000Y-61267300D02*
X63049700Y-63200000D01*
X64000000Y-63200000D02*
X63049700Y-63200000D01*
X45660000Y-70660000D02*
X45720000Y-70600000D01*
X45720000Y-70600000D02*
X46300000Y-70600000D01*
X44950000Y-68200000D02*
X43999700Y-68200000D01*
X7800300Y-71200000D02*
X9726500Y-69273800D01*
X9726500Y-69273800D02*
X23023500Y-69273800D01*
X23023500Y-69273800D02*
X24949700Y-71200000D01*
X26610000Y-73660000D02*
X27190000Y-73660000D01*
X27190000Y-73660000D02*
X27250000Y-73600000D01*
X25900000Y-71200000D02*
X24949700Y-71200000D01*
X6850000Y-71200000D02*
X7800300Y-71200000D01*
X7560000Y-73660000D02*
X8140000Y-73660000D01*
X8140000Y-73660000D02*
X8200000Y-73600000D01*
X102100000Y-74200000D02*
X101149700Y-74200000D01*
X102810000Y-76660000D02*
X103390000Y-76660000D01*
X103390000Y-76660000D02*
X103450000Y-76600000D01*
X116540000Y-78560000D02*
X118115300Y-78560000D01*
X119000000Y-77850000D02*
X118825300Y-77850000D01*
X118825300Y-77850000D02*
X118115300Y-78560000D01*
X116540000Y-78560000D02*
X116600000Y-78620000D01*
X116600000Y-78620000D02*
X116600000Y-79200000D01*
X3900000Y-7900000D02*
X10727600Y-7900000D01*
X10727600Y-7900000D02*
X12537300Y-9709700D01*
X12537300Y-9709700D02*
X23440500Y-9709700D01*
X23440500Y-9709700D02*
X24575100Y-8575100D01*
X24575100Y-8575100D02*
X44052300Y-8575100D01*
X44052300Y-8575100D02*
X48933100Y-3694300D01*
X48933100Y-3694300D02*
X64861100Y-3694300D01*
X64861100Y-3694300D02*
X69164600Y-7997800D01*
X69164600Y-7997800D02*
X81197800Y-7997800D01*
X81197800Y-7997800D02*
X86134600Y-12934600D01*
X86134600Y-12934600D02*
X99716000Y-12934600D01*
X99716000Y-12934600D02*
X107479400Y-20698000D01*
X107479400Y-20698000D02*
X107798000Y-20698000D01*
X2500000Y-84000000D02*
X3900000Y-84000000D01*
X3900000Y-64950000D02*
X5025300Y-64950000D01*
X5025300Y-64950000D02*
X5025300Y-64504500D01*
X5025300Y-64504500D02*
X6269200Y-63260600D01*
X2500000Y-64950000D02*
X3900000Y-64950000D01*
X3900000Y-26900000D02*
X2500000Y-26900000D01*
X2500000Y-7900000D02*
X3900000Y-7900000D01*
X1400000Y-84000000D02*
X2500000Y-84000000D01*
X1400000Y-64950000D02*
X2500000Y-64950000D01*
X1400000Y-45900000D02*
X2500000Y-45900000D01*
X3900000Y-45900000D02*
X2500000Y-45900000D01*
X1400000Y-26900000D02*
X2500000Y-26900000D01*
X1400000Y-7900000D02*
X2500000Y-7900000D01*
X30642100Y-25248900D02*
X37263900Y-25248900D01*
X37263900Y-25248900D02*
X37996000Y-24516800D01*
X37996000Y-24516800D02*
X37996000Y-23537700D01*
X37996000Y-23537700D02*
X38759100Y-22774600D01*
X38759100Y-22774600D02*
X42885500Y-22774600D01*
X42885500Y-22774600D02*
X43739400Y-21920700D01*
X43739400Y-21920700D02*
X43739400Y-20290500D01*
X25018000Y-24593000D02*
X25673800Y-25248800D01*
X25673800Y-25248800D02*
X30642100Y-25248800D01*
X30642100Y-25248800D02*
X30642100Y-25248900D01*
X4855500Y-42472400D02*
X5585900Y-43202800D01*
X5585900Y-43202800D02*
X5585900Y-46311800D01*
X5585900Y-46311800D02*
X4422500Y-47475200D01*
X4422500Y-47475200D02*
X3792500Y-47475200D01*
X3792500Y-47475200D02*
X-440600Y-51708300D01*
X-440600Y-51708300D02*
X-440600Y-54264600D01*
X-440600Y-54264600D02*
X-2361400Y-56185400D01*
X-2361400Y-56185400D02*
X-2361400Y-58117700D01*
X-2361400Y-58117700D02*
X-515300Y-59963800D01*
X-515300Y-59963800D02*
X3927700Y-59963800D01*
X4575300Y-42050000D02*
X4575300Y-42192200D01*
X4575300Y-42192200D02*
X4855500Y-42472400D01*
X61725300Y-15000000D02*
X62749700Y-16024400D01*
X62749700Y-16024400D02*
X62749700Y-16925700D01*
X62749700Y-16925700D02*
X62042000Y-17633400D01*
X62042000Y-17633400D02*
X57953400Y-17633400D01*
X57953400Y-17633400D02*
X57027800Y-18559000D01*
X57027800Y-18559000D02*
X57027800Y-19496400D01*
X57027800Y-19496400D02*
X56233700Y-20290500D01*
X56233700Y-20290500D02*
X45023100Y-20290500D01*
X45023100Y-20290500D02*
X44953700Y-20221100D01*
X44953700Y-20221100D02*
X43808800Y-20221100D01*
X43808800Y-20221100D02*
X43739400Y-20290500D01*
X23924900Y-23499900D02*
X25018000Y-24593000D01*
X25018000Y-24593000D02*
X23977600Y-25633400D01*
X23977600Y-25633400D02*
X19853400Y-25633400D01*
X19853400Y-25633400D02*
X18927800Y-26559000D01*
X18927800Y-26559000D02*
X18927800Y-27496400D01*
X18927800Y-27496400D02*
X18195000Y-28229200D01*
X18195000Y-28229200D02*
X7537500Y-28229200D01*
X7537500Y-28229200D02*
X5301800Y-25993500D01*
X52049700Y-58874600D02*
X55662900Y-58874600D01*
X55662900Y-58874600D02*
X56991000Y-57546500D01*
X56991000Y-57546500D02*
X56991000Y-56549100D01*
X56991000Y-56549100D02*
X57765500Y-55774600D01*
X57765500Y-55774600D02*
X63287600Y-55774600D01*
X63287600Y-55774600D02*
X64046400Y-55015800D01*
X64046400Y-55015800D02*
X64046400Y-54325000D01*
X64046400Y-54325000D02*
X62821400Y-53100000D01*
X62821400Y-53100000D02*
X60150000Y-53100000D01*
X43732500Y-58874600D02*
X52049700Y-58874600D01*
X63436100Y-32339200D02*
X61725300Y-34050000D01*
X70046200Y-29214800D02*
X66560500Y-29214800D01*
X66560500Y-29214800D02*
X63436100Y-32339200D01*
X59932200Y-31289500D02*
X62386300Y-31289500D01*
X62386300Y-31289500D02*
X63436100Y-32339200D01*
X41100000Y-37524700D02*
X41817400Y-37524700D01*
X41817400Y-37524700D02*
X42675300Y-38382600D01*
X42675300Y-38382600D02*
X42675300Y-39050000D01*
X41100000Y-39050000D02*
X42675300Y-39050000D01*
X42675300Y-76830400D02*
X47620300Y-76830400D01*
X51044500Y-71843700D02*
X52268300Y-70619900D01*
X52268300Y-70619900D02*
X60150000Y-70619900D01*
X42675300Y-76830400D02*
X42675300Y-76510900D01*
X42675300Y-76510900D02*
X42188600Y-76024200D01*
X42188600Y-76024200D02*
X41100000Y-76024200D01*
X42675300Y-77150000D02*
X42675300Y-76830400D01*
X3000000Y-42050000D02*
X4575300Y-42050000D01*
X79200000Y-38903300D02*
X79200000Y-35801000D01*
X79200000Y-35801000D02*
X76180100Y-32781100D01*
X76180100Y-32781100D02*
X76180100Y-30897000D01*
X76180100Y-30897000D02*
X74497900Y-29214800D01*
X74497900Y-29214800D02*
X70046200Y-29214800D01*
X70046200Y-29214800D02*
X70046200Y-29143200D01*
X23910300Y-42050000D02*
X22050000Y-42050000D01*
X76890600Y-67334600D02*
X77591900Y-66633300D01*
X77591900Y-66633300D02*
X78899500Y-66633300D01*
X78899500Y-66633300D02*
X81270800Y-64262000D01*
X81270800Y-64262000D02*
X81270800Y-64189000D01*
X81270800Y-64189000D02*
X81270800Y-59595500D01*
X81270800Y-59595500D02*
X80775300Y-59100000D01*
X61725300Y-71480500D02*
X65871200Y-67334600D01*
X65871200Y-67334600D02*
X76890600Y-67334600D01*
X76890600Y-67334600D02*
X76890600Y-71564500D01*
X76890600Y-71564500D02*
X80360100Y-75034000D01*
X80360100Y-75034000D02*
X80360100Y-77045700D01*
X79200000Y-59100000D02*
X80775300Y-59100000D01*
X37862900Y-63781100D02*
X42217000Y-63781100D01*
X42217000Y-63781100D02*
X43732500Y-62265600D01*
X43732500Y-62265600D02*
X43732500Y-58874600D01*
X23904000Y-61470800D02*
X28461900Y-61470800D01*
X28461900Y-61470800D02*
X30772200Y-63781100D01*
X30772200Y-63781100D02*
X37862900Y-63781100D01*
X43732500Y-58874600D02*
X42957900Y-58100000D01*
X41887700Y-20000000D02*
X41887700Y-19654500D01*
X41887700Y-19654500D02*
X41100000Y-18866800D01*
X41887700Y-20000000D02*
X42675300Y-20000000D01*
X41100000Y-20000000D02*
X41887700Y-20000000D01*
X42675300Y-20000000D02*
X42965800Y-20290500D01*
X42965800Y-20290500D02*
X43739400Y-20290500D01*
X23625300Y-23000000D02*
X23625300Y-23200300D01*
X23625300Y-23200300D02*
X23924900Y-23499900D01*
X23625300Y-61100000D02*
X23625300Y-61192100D01*
X23625300Y-61192100D02*
X23904000Y-61470800D01*
X3000000Y-23000000D02*
X3000000Y-22675700D01*
X3000000Y-22675700D02*
X3798500Y-21877200D01*
X99431200Y-6950000D02*
X104070700Y-6950000D01*
X107662000Y-5470000D02*
X105550700Y-5470000D01*
X105550700Y-5470000D02*
X104070700Y-6950000D01*
X59900700Y-13890900D02*
X59900700Y-14400500D01*
X59900700Y-14400500D02*
X60500200Y-15000000D01*
X60500200Y-15000000D02*
X61725300Y-15000000D01*
X60150000Y-15000000D02*
X60500200Y-15000000D01*
X100717400Y-64100000D02*
X103008700Y-64100000D01*
X103008700Y-64100000D02*
X110718700Y-56390000D01*
X98250000Y-64100000D02*
X100717400Y-64100000D01*
X98319900Y-43322800D02*
X98790400Y-43322800D01*
X98790400Y-43322800D02*
X99825300Y-44357700D01*
X99825300Y-44357700D02*
X99825300Y-45050000D01*
X99825300Y-45050000D02*
X102587300Y-42288000D01*
X102587300Y-42288000D02*
X110718700Y-42288000D01*
X98250000Y-45050000D02*
X99825300Y-45050000D01*
X80775300Y-40050000D02*
X80775300Y-39404900D01*
X80775300Y-39404900D02*
X80273700Y-38903300D01*
X80273700Y-38903300D02*
X79200000Y-38903300D01*
X79200000Y-21000000D02*
X80775300Y-21000000D01*
X98250000Y-26000000D02*
X99825300Y-26000000D01*
X99831600Y-25778000D02*
X99831600Y-25670000D01*
X99831600Y-25670000D02*
X99367900Y-25206300D01*
X99367900Y-25206300D02*
X99367900Y-25102900D01*
X99367900Y-25102900D02*
X99587200Y-24883600D01*
X99587200Y-24883600D02*
X99825300Y-24883600D01*
X99825300Y-26000000D02*
X99825300Y-25784300D01*
X99825300Y-25784300D02*
X99831600Y-25778000D01*
X107798000Y-25778000D02*
X99831600Y-25778000D01*
X61725300Y-71480500D02*
X61725300Y-72150000D01*
X60150000Y-70619900D02*
X60864700Y-70619900D01*
X60864700Y-70619900D02*
X61725300Y-71480500D01*
X60150000Y-72150000D02*
X61725300Y-72150000D01*
X60150000Y-34050000D02*
X61725300Y-34050000D01*
X41100000Y-77150000D02*
X42675300Y-77150000D01*
X42264100Y-58100000D02*
X42957900Y-58100000D01*
X41100000Y-58100000D02*
X42264100Y-58100000D01*
X22050000Y-61100000D02*
X23625300Y-61100000D01*
X4858800Y-80290200D02*
X9947000Y-85378400D01*
X9947000Y-85378400D02*
X18168500Y-85378400D01*
X18168500Y-85378400D02*
X18916000Y-84630900D01*
X18916000Y-84630900D02*
X18916000Y-83602300D01*
X18916000Y-83602300D02*
X19643700Y-82874600D01*
X19643700Y-82874600D02*
X23873000Y-82874600D01*
X23873000Y-82874600D02*
X24685700Y-82061900D01*
X24685700Y-82061900D02*
X24685700Y-80924600D01*
X24685700Y-80924600D02*
X23911100Y-80150000D01*
X4575300Y-80150000D02*
X4715500Y-80290200D01*
X4715500Y-80290200D02*
X4858800Y-80290200D01*
X3000000Y-80150000D02*
X4575300Y-80150000D01*
X98250000Y-6950000D02*
X99431200Y-6950000D01*
X4129000Y-61100000D02*
X4129000Y-60165100D01*
X4129000Y-60165100D02*
X3927700Y-59963800D01*
X107798000Y-23238000D02*
X110338000Y-20698000D01*
X110338000Y-20698000D02*
X123038000Y-20698000D01*
X99825300Y-81897200D02*
X103728100Y-81897200D01*
X103728100Y-81897200D02*
X110050000Y-75575300D01*
X98250000Y-81897200D02*
X99825300Y-81897200D01*
X99825300Y-83150000D02*
X99825300Y-81897200D01*
X98250000Y-83150000D02*
X99825300Y-83150000D01*
X110050000Y-74219400D02*
X110050000Y-75575300D01*
X110050000Y-74000000D02*
X110050000Y-74219400D01*
X111169800Y-74219400D02*
X110050000Y-74219400D01*
X112094000Y-56390000D02*
X110718700Y-56390000D01*
X80360100Y-77045700D02*
X80775300Y-77460900D01*
X80775300Y-77460900D02*
X80775300Y-78150000D01*
X79200000Y-78150000D02*
X80775300Y-78150000D01*
X79200000Y-40050000D02*
X80775300Y-40050000D01*
X80775300Y-21000000D02*
X80775300Y-20360000D01*
X80775300Y-20360000D02*
X80277600Y-19862300D01*
X80277600Y-19862300D02*
X79273300Y-19862300D01*
X80775300Y-1950000D02*
X80775300Y-1310000D01*
X80775300Y-1310000D02*
X80308700Y-843400D01*
X79200000Y-1950000D02*
X80775300Y-1950000D01*
X60150000Y4050000D02*
X59494500Y4705500D01*
X59494500Y4705500D02*
X59494500Y5161700D01*
X41100000Y-950000D02*
X41100000Y24600D01*
X41100000Y24600D02*
X40968900Y155700D01*
X23625300Y-80150000D02*
X23911100Y-80150000D01*
X22050000Y-23000000D02*
X23625300Y-23000000D01*
X22050000Y-3950000D02*
X23932300Y-3950000D01*
X22050000Y-80150000D02*
X23625300Y-80150000D01*
X3000000Y-61100000D02*
X4129000Y-61100000D01*
X3000000Y-3950000D02*
X4575300Y-3950000D01*
X4575300Y-3950000D02*
X5206400Y-3318900D01*
X112094000Y-50440000D02*
X113469300Y-50440000D01*
X112094000Y-56390000D02*
X113469300Y-56390000D01*
X113469300Y-56390000D02*
X113469300Y-55667900D01*
X113469300Y-55667900D02*
X112953500Y-55152100D01*
X112953500Y-55152100D02*
X112953500Y-51781100D01*
X112953500Y-51781100D02*
X113469300Y-51265300D01*
X113469300Y-51265300D02*
X113469300Y-50440000D01*
X85257000Y-49844900D02*
X86146100Y-50734000D01*
X86146100Y-50734000D02*
X104928800Y-50734000D01*
X104928800Y-50734000D02*
X110384400Y-45278400D01*
X110384400Y-45278400D02*
X117586800Y-45278400D01*
X117586800Y-45278400D02*
X119307200Y-43558000D01*
X119307200Y-43558000D02*
X123038000Y-43558000D01*
X79265500Y-9852700D02*
X81979000Y-12566200D01*
X81979000Y-12566200D02*
X81979000Y-15761500D01*
X81979000Y-15761500D02*
X82456300Y-16238800D01*
X82456300Y-16238800D02*
X82456300Y-22262400D01*
X82456300Y-22262400D02*
X80944000Y-23774700D01*
X80944000Y-23774700D02*
X80100000Y-23774700D01*
X80100000Y-24900000D02*
X80100000Y-23774700D01*
X78700000Y-43900000D02*
X80100000Y-43900000D01*
X77600000Y-82000000D02*
X78700000Y-82000000D01*
X80100000Y-82000000D02*
X78700000Y-82000000D01*
X77600000Y-62900000D02*
X78700000Y-62900000D01*
X80100000Y-62900000D02*
X78700000Y-62900000D01*
X77600000Y-43900000D02*
X78700000Y-43900000D01*
X77600000Y-24900000D02*
X78700000Y-24900000D01*
X80100000Y-24900000D02*
X78700000Y-24900000D01*
X77600000Y-5900000D02*
X78700000Y-5900000D01*
X80100000Y-5900000D02*
X78700000Y-5900000D01*
X47255600Y-23471000D02*
X47986600Y-22740000D01*
X47986600Y-22740000D02*
X56686900Y-22740000D01*
X56686900Y-22740000D02*
X56943500Y-22996600D01*
X56943500Y-22996600D02*
X57917600Y-22996600D01*
X57917600Y-22996600D02*
X58174200Y-22740000D01*
X58174200Y-22740000D02*
X65636400Y-22740000D01*
X65636400Y-22740000D02*
X70060200Y-27163800D01*
X70060200Y-27163800D02*
X82785600Y-27163800D01*
X82785600Y-27163800D02*
X88605600Y-32983800D01*
X88605600Y-32983800D02*
X100710200Y-32983800D01*
X100710200Y-32983800D02*
X103357300Y-35630900D01*
X103357300Y-35630900D02*
X103357300Y-35736700D01*
X103357300Y-35736700D02*
X107798000Y-40177400D01*
X107798000Y-40177400D02*
X107798000Y-41018000D01*
X39500000Y-81000000D02*
X40600000Y-81000000D01*
X42000000Y-81000000D02*
X40600000Y-81000000D01*
X39500000Y-61900000D02*
X40600000Y-61900000D01*
X42000000Y-61900000D02*
X40600000Y-61900000D01*
X39500000Y-42900000D02*
X40600000Y-42900000D01*
X42000000Y-42900000D02*
X40600000Y-42900000D01*
X39500000Y-23900000D02*
X40600000Y-23900000D01*
X42000000Y-23900000D02*
X40600000Y-23900000D01*
X39500000Y-4900000D02*
X40600000Y-4900000D01*
X42000000Y-4900000D02*
X40600000Y-4900000D01*
X91971600Y-46650000D02*
X91971500Y-46650000D01*
X91971700Y-46650000D02*
X91971600Y-46650000D01*
X72921600Y-41650000D02*
X72921500Y-41650000D01*
X72921700Y-41650000D02*
X72921600Y-41650000D01*
X91971900Y-46650000D02*
X91971700Y-46650000D01*
X72921500Y-41650000D02*
X72921300Y-41650000D01*
X91971500Y-46650000D02*
X91971000Y-46650000D01*
X72921300Y-41650000D02*
X72920900Y-41650000D01*
X91972800Y-46650000D02*
X91971900Y-46650000D01*
X72920900Y-41650000D02*
X72920100Y-41650000D01*
X91971000Y-46650000D02*
X91969200Y-46650000D01*
X72923200Y-41650000D02*
X72921700Y-41650000D01*
X91976400Y-46650000D02*
X91972800Y-46650000D01*
X72920100Y-41650000D02*
X72917000Y-41650000D01*
X91969200Y-46650000D02*
X91962000Y-46650000D01*
X72929300Y-41650000D02*
X72923200Y-41650000D01*
X91990800Y-46650000D02*
X91976400Y-46650000D01*
X72917000Y-41650000D02*
X72904700Y-41650000D01*
X92019600Y-46650000D02*
X91990800Y-46650000D01*
X72953900Y-41650000D02*
X72929300Y-41650000D01*
X91962000Y-46650000D02*
X91904400Y-46650000D01*
X73003100Y-41650000D02*
X72953900Y-41650000D01*
X91904400Y-46650000D02*
X91789100Y-46650000D01*
X72904700Y-41650000D02*
X72806200Y-41650000D01*
X92250000Y-46650000D02*
X92019600Y-46650000D01*
X73200000Y-41650000D02*
X73003100Y-41650000D01*
X91789100Y-46650000D02*
X91328100Y-46650000D01*
X72806200Y-41650000D02*
X72412400Y-41650000D01*
X91328100Y-46650000D02*
X90406200Y-46650000D01*
X90406200Y-46650000D02*
X90395000Y-46661200D01*
X72412400Y-41650000D02*
X71624700Y-41650000D01*
X45610800Y-18095400D02*
X45160500Y-17645100D01*
X45160500Y-17645100D02*
X40457500Y-17645100D01*
X40457500Y-17645100D02*
X39687900Y-18414700D01*
X39687900Y-18414700D02*
X34471500Y-18414700D01*
X34471500Y-18414700D02*
X33524700Y-19361500D01*
X33524700Y-19361500D02*
X33524700Y-21600000D01*
X33221700Y-40229100D02*
X32462000Y-39469400D01*
X32462000Y-39469400D02*
X32462000Y-38432000D01*
X32462000Y-38432000D02*
X33033800Y-37860200D01*
X33033800Y-37860200D02*
X39622000Y-37860200D01*
X39622000Y-37860200D02*
X40710900Y-36771300D01*
X40710900Y-36771300D02*
X48162100Y-36771300D01*
X48162100Y-36771300D02*
X50629000Y-39238200D01*
X50629000Y-39238200D02*
X56325900Y-39238200D01*
X56325900Y-39238200D02*
X56875400Y-38688700D01*
X56875400Y-38688700D02*
X56875400Y-37096200D01*
X56875400Y-37096200D02*
X56753800Y-36974600D01*
X56753800Y-36974600D02*
X55474600Y-36974600D01*
X55474600Y-36974600D02*
X54150000Y-35650000D01*
X-4872300Y-24348600D02*
X-4872300Y-24325800D01*
X-4872300Y-24325800D02*
X-5906900Y-23291200D01*
X-4872300Y-24348600D02*
X-4826700Y-24348600D01*
X-4826700Y-24348600D02*
X-4575300Y-24600000D01*
X-3000000Y-24600000D02*
X-4575300Y-24600000D01*
X44653200Y-20946400D02*
X56555900Y-20946400D01*
X56555900Y-20946400D02*
X57430500Y-21821000D01*
X89353800Y-25790100D02*
X89353800Y-26329000D01*
X89353800Y-26329000D02*
X90624800Y-27600000D01*
X90624800Y-27600000D02*
X92250000Y-27600000D01*
X94976400Y-28774700D02*
X93424700Y-28774700D01*
X93424700Y-28774700D02*
X92250000Y-27600000D01*
X76304000Y-25480000D02*
X76304000Y-24534700D01*
X76304000Y-24534700D02*
X75732600Y-23963300D01*
X75732600Y-23963300D02*
X74563300Y-23963300D01*
X74563300Y-23963300D02*
X73200000Y-22600000D01*
X94976400Y-28774700D02*
X94976400Y-30649100D01*
X94976400Y-30649100D02*
X94374500Y-31251000D01*
X94374500Y-31251000D02*
X89264300Y-31251000D01*
X89264300Y-31251000D02*
X84276400Y-26263100D01*
X84276400Y-26263100D02*
X77087100Y-26263100D01*
X77087100Y-26263100D02*
X76304000Y-25480000D01*
X57430500Y-21821000D02*
X65991200Y-21821000D01*
X65991200Y-21821000D02*
X70433300Y-26263100D01*
X70433300Y-26263100D02*
X75520900Y-26263100D01*
X75520900Y-26263100D02*
X76304000Y-25480000D01*
X35100000Y-21600000D02*
X33524700Y-21600000D01*
X35100000Y-40650000D02*
X33524700Y-40650000D01*
X33524700Y-78750000D02*
X33136000Y-78750000D01*
X35100000Y-78750000D02*
X33524700Y-78750000D01*
X16050000Y-24600000D02*
X14474700Y-24600000D01*
X92250000Y-8550000D02*
X90674700Y-8550000D01*
X90674700Y-8550000D02*
X90285800Y-8550000D01*
X54150000Y-16600000D02*
X52271500Y-16600000D01*
X54150000Y-35650000D02*
X52574700Y-35650000D01*
X62798900Y-51541600D02*
X66745300Y-47595200D01*
X66745300Y-47595200D02*
X68812800Y-47595200D01*
X52574700Y-54700000D02*
X51567300Y-53692600D01*
X51567300Y-53692600D02*
X51567300Y-52669300D01*
X51567300Y-52669300D02*
X52695000Y-51541600D01*
X52695000Y-51541600D02*
X62798900Y-51541600D01*
X16050000Y-43650000D02*
X14301300Y-43650000D01*
X14301300Y-43650000D02*
X14191900Y-43540600D01*
X35100000Y-59700000D02*
X33506700Y-59700000D01*
X33506700Y-59700000D02*
X33234000Y-59427300D01*
X14474700Y-60457300D02*
X15376700Y-59555300D01*
X15376700Y-59555300D02*
X27276500Y-59555300D01*
X27276500Y-59555300D02*
X30997300Y-63276100D01*
X30997300Y-63276100D02*
X37224700Y-63276100D01*
X37224700Y-63276100D02*
X37825400Y-62675400D01*
X37825400Y-62675400D02*
X37825400Y-61103700D01*
X37825400Y-61103700D02*
X37696300Y-60974600D01*
X37696300Y-60974600D02*
X36374600Y-60974600D01*
X36374600Y-60974600D02*
X35100000Y-59700000D01*
X-4575300Y-81750000D02*
X-4575300Y-80897100D01*
X-4575300Y-80897100D02*
X-5318400Y-80154000D01*
X-3000000Y-81750000D02*
X-4575300Y-81750000D01*
X123038000Y-28318000D02*
X121826600Y-29529400D01*
X121826600Y-29529400D02*
X102896200Y-29529400D01*
X102896200Y-29529400D02*
X102141500Y-28774700D01*
X102141500Y-28774700D02*
X94976400Y-28774700D01*
X73200000Y-22600000D02*
X71341600Y-22600000D01*
X73385600Y-7160800D02*
X75479900Y-7160800D01*
X75479900Y-7160800D02*
X75925400Y-6715300D01*
X75925400Y-6715300D02*
X75925400Y-5163200D01*
X75925400Y-5163200D02*
X75710500Y-4948300D01*
X75710500Y-4948300D02*
X74598300Y-4948300D01*
X74598300Y-4948300D02*
X73200000Y-3550000D01*
X56875400Y-729800D02*
X58605400Y-2459800D01*
X58605400Y-2459800D02*
X65260800Y-2459800D01*
X65260800Y-2459800D02*
X70028100Y-7227100D01*
X70028100Y-7227100D02*
X73319300Y-7227100D01*
X73319300Y-7227100D02*
X73385600Y-7160800D01*
X54150000Y-54700000D02*
X52574700Y-54700000D01*
X75925400Y-81196200D02*
X76247000Y-80874600D01*
X76247000Y-80874600D02*
X81976800Y-80874600D01*
X81976800Y-80874600D02*
X89480600Y-88378400D01*
X89480600Y-88378400D02*
X94368500Y-88378400D01*
X94368500Y-88378400D02*
X94975400Y-87771500D01*
X94975400Y-87771500D02*
X94975400Y-86197400D01*
X94975400Y-86197400D02*
X94852600Y-86074600D01*
X94852600Y-86074600D02*
X93574600Y-86074600D01*
X93574600Y-86074600D02*
X92250000Y-84750000D01*
X75925400Y-81196200D02*
X75803800Y-81074600D01*
X75803800Y-81074600D02*
X74524600Y-81074600D01*
X74524600Y-81074600D02*
X73200000Y-79750000D01*
X56911700Y-75246800D02*
X57283900Y-74874600D01*
X57283900Y-74874600D02*
X62108000Y-74874600D01*
X62108000Y-74874600D02*
X70611800Y-83378400D01*
X70611800Y-83378400D02*
X75318500Y-83378400D01*
X75318500Y-83378400D02*
X75925400Y-82771500D01*
X75925400Y-82771500D02*
X75925400Y-81196200D01*
X52574700Y-35650000D02*
X52574700Y-35639200D01*
X52574700Y-35639200D02*
X52299600Y-35364100D01*
X55552200Y-2053000D02*
X49937500Y-2053000D01*
X49937500Y-2053000D02*
X48296300Y-3694200D01*
X48296300Y-3694200D02*
X38293900Y-3694200D01*
X38293900Y-3694200D02*
X37825400Y-4162700D01*
X56875400Y-729800D02*
X55552200Y-2053000D01*
X56911700Y-75246800D02*
X56911700Y-76741600D01*
X56911700Y-76741600D02*
X56085200Y-77568100D01*
X56085200Y-77568100D02*
X48155600Y-77568100D01*
X48155600Y-77568100D02*
X45950300Y-79773400D01*
X45950300Y-79773400D02*
X36123400Y-79773400D01*
X36123400Y-79773400D02*
X35100000Y-78750000D01*
X54150000Y-73750000D02*
X55334000Y-74934000D01*
X55334000Y-74934000D02*
X56598900Y-74934000D01*
X56598900Y-74934000D02*
X56911700Y-75246800D01*
X33524700Y-40650000D02*
X33524700Y-40532100D01*
X33524700Y-40532100D02*
X33221700Y-40229100D01*
X16050000Y-81750000D02*
X14474700Y-81750000D01*
X14474700Y-81750000D02*
X14183700Y-81459000D01*
X14474700Y-62700000D02*
X14474700Y-60457300D01*
X14474700Y-60457300D02*
X13961900Y-59944500D01*
X13961900Y-59944500D02*
X12721400Y-59944500D01*
X-3000000Y-62700000D02*
X-4689100Y-62700000D01*
X-4689100Y-62700000D02*
X-4871100Y-62518000D01*
X-4575300Y-43650000D02*
X-4859300Y-43650000D01*
X-3000000Y-43650000D02*
X-4575300Y-43650000D01*
X18775400Y-7159100D02*
X18291300Y-6675000D01*
X18291300Y-6675000D02*
X16749000Y-6675000D01*
X16050000Y-5550000D02*
X16749000Y-6249000D01*
X16749000Y-6249000D02*
X16749000Y-6675000D01*
X-5333200Y-4179100D02*
X-4575300Y-4937000D01*
X-4575300Y-4937000D02*
X-4575300Y-5550000D01*
X-3000000Y-5550000D02*
X-4575300Y-5550000D01*
X108450000Y-66424700D02*
X108450000Y-66126500D01*
X108450000Y-68000000D02*
X108450000Y-66424700D01*
X91521900Y-65700000D02*
X92563700Y-66741800D01*
X92563700Y-66741800D02*
X92563700Y-66805700D01*
X92250000Y-65700000D02*
X91521900Y-65700000D01*
X91462400Y-65700000D02*
X90674700Y-65700000D01*
X91462400Y-65700000D02*
X91521900Y-65700000D01*
X92250000Y-84750000D02*
X90674700Y-84750000D01*
X90674700Y-84750000D02*
X90674700Y-84527700D01*
X90674700Y-84527700D02*
X90388300Y-84241300D01*
X110594000Y-54640000D02*
X109218700Y-54640000D01*
X90674700Y-65700000D02*
X89666500Y-64691800D01*
X89666500Y-64691800D02*
X89666500Y-63918900D01*
X89666500Y-63918900D02*
X90955300Y-62630100D01*
X90955300Y-62630100D02*
X101228600Y-62630100D01*
X101228600Y-62630100D02*
X109218700Y-54640000D01*
X73200000Y-79750000D02*
X71233000Y-79750000D01*
X73200000Y-60700000D02*
X71624700Y-60700000D01*
X71624700Y-60700000D02*
X71624700Y-60222200D01*
X71624700Y-60222200D02*
X71339200Y-59936700D01*
X71624700Y-41650000D02*
X71624700Y-41236300D01*
X71624700Y-41236300D02*
X71346200Y-40957800D01*
X35100000Y-2550000D02*
X33414000Y-2550000D01*
X33414000Y-2550000D02*
X33228400Y-2364400D01*
X37825400Y-4162700D02*
X37601000Y-3938300D01*
X37601000Y-3938300D02*
X36488300Y-3938300D01*
X36488300Y-3938300D02*
X35100000Y-2550000D01*
X56875400Y-729800D02*
X56875400Y837900D01*
X56875400Y837900D02*
X56656600Y1056700D01*
X56656600Y1056700D02*
X55543300Y1056700D01*
X55543300Y1056700D02*
X54150000Y2450000D01*
X18775400Y-7159100D02*
X19246700Y-6687800D01*
X19246700Y-6687800D02*
X36779700Y-6687800D01*
X36779700Y-6687800D02*
X37825400Y-5642100D01*
X37825400Y-5642100D02*
X37825400Y-4162700D01*
X16050000Y-62700000D02*
X14474700Y-62700000D01*
X14474700Y-24600000D02*
X14474700Y-24219400D01*
X14474700Y-24219400D02*
X14182500Y-23927200D01*
X-3000000Y-5550000D02*
X-1897100Y-6652900D01*
X-1897100Y-6652900D02*
X10892600Y-6652900D01*
X10892600Y-6652900D02*
X13476800Y-9237100D01*
X13476800Y-9237100D02*
X18225800Y-9237100D01*
X18225800Y-9237100D02*
X18775400Y-8687500D01*
X18775400Y-8687500D02*
X18775400Y-7159100D01*
X110594000Y-49804998D02*
X112712998Y-47686000D01*
X110594000Y-52190000D02*
X110594000Y-49804998D01*
X112712998Y-47686000D02*
X118584000Y-47686000D01*
X118584000Y-47686000D02*
X119092000Y-47178000D01*
X119092000Y-47178000D02*
X119092000Y-47178000D01*
X99150000Y-48900000D02*
X100275300Y-48900000D01*
X123038000Y-38478000D02*
X116742500Y-44773500D01*
X116742500Y-44773500D02*
X104401800Y-44773500D01*
X104401800Y-44773500D02*
X100275300Y-48900000D01*
X123038000Y-38478000D02*
X119228000Y-34668000D01*
X119228000Y-34668000D02*
X105043300Y-34668000D01*
X105043300Y-34668000D02*
X100275300Y-29900000D01*
X99150000Y-29900000D02*
X100275300Y-29900000D01*
X97750000Y-29900000D02*
X99150000Y-29900000D01*
X106278000Y-72400000D02*
X106278000Y-73500000D01*
X106278000Y-74900000D02*
X106278000Y-73500000D01*
X96650000Y-87000000D02*
X97750000Y-87000000D01*
X99150000Y-87000000D02*
X97750000Y-87000000D01*
X96650000Y-67900000D02*
X97750000Y-67900000D01*
X99150000Y-67900000D02*
X97750000Y-67900000D01*
X96650000Y-48900000D02*
X97750000Y-48900000D01*
X99150000Y-48900000D02*
X97750000Y-48900000D01*
X96650000Y-29900000D02*
X97750000Y-29900000D01*
X96650000Y-10900000D02*
X97750000Y-10900000D01*
X99150000Y-10900000D02*
X97750000Y-10900000D01*
X60178100Y-58805400D02*
X59024800Y-59958700D01*
X59024800Y-59958700D02*
X52044600Y-59958700D01*
X60178100Y-56900000D02*
X59650000Y-56900000D01*
X61050000Y-56900000D02*
X60178100Y-56900000D01*
X60178100Y-56900000D02*
X60178100Y-58805400D01*
X58550000Y-56900000D02*
X59650000Y-56900000D01*
X107798000Y-46098000D02*
X103613400Y-50282600D01*
X103613400Y-50282600D02*
X87675000Y-50282600D01*
X87675000Y-50282600D02*
X82646600Y-45254200D01*
X82646600Y-45254200D02*
X69529500Y-45254200D01*
X69529500Y-45254200D02*
X62175300Y-37900000D01*
X61050000Y-37900000D02*
X62175300Y-37900000D01*
X61050000Y-37900000D02*
X59650000Y-37900000D01*
X58550000Y-76000000D02*
X59650000Y-76000000D01*
X61050000Y-76000000D02*
X59650000Y-76000000D01*
X58550000Y-37900000D02*
X59650000Y-37900000D01*
X58550000Y-18900000D02*
X59650000Y-18900000D01*
X61050000Y-18900000D02*
X59650000Y-18900000D01*
X58550000Y100000D02*
X59650000Y100000D01*
X61050000Y100000D02*
X59650000Y100000D01*
X30180000Y-26900000D02*
X42801000Y-26900000D01*
X42801000Y-26900000D02*
X42801000Y-26899900D01*
X42801000Y-26899900D02*
X47411200Y-22289700D01*
X47411200Y-22289700D02*
X56873500Y-22289700D01*
X56873500Y-22289700D02*
X57130100Y-22546300D01*
X57130100Y-22546300D02*
X57731000Y-22546300D01*
X57731000Y-22546300D02*
X57987600Y-22289700D01*
X57987600Y-22289700D02*
X65823000Y-22289700D01*
X65823000Y-22289700D02*
X70246800Y-26713500D01*
X70246800Y-26713500D02*
X84089900Y-26713500D01*
X84089900Y-26713500D02*
X89723900Y-32347500D01*
X89723900Y-32347500D02*
X100974200Y-32347500D01*
X100974200Y-32347500D02*
X104564700Y-35938000D01*
X104564700Y-35938000D02*
X107798000Y-35938000D01*
X24075300Y-45900000D02*
X25410300Y-44565000D01*
X25410300Y-44565000D02*
X25410300Y-42493400D01*
X25410300Y-42493400D02*
X23315900Y-40399000D01*
X23315900Y-40399000D02*
X21369300Y-40399000D01*
X22950000Y-45900000D02*
X24075300Y-45900000D01*
X22950000Y-26900000D02*
X30180000Y-26900000D01*
X21550000Y-26900000D02*
X22950000Y-26900000D01*
X22950000Y-64900000D02*
X27041200Y-64900000D01*
X27041200Y-64900000D02*
X28904900Y-63036300D01*
X21550000Y-64900000D02*
X22950000Y-64900000D01*
X20450000Y-84000000D02*
X21550000Y-84000000D01*
X22950000Y-84000000D02*
X21550000Y-84000000D01*
X20450000Y-64900000D02*
X21550000Y-64900000D01*
X20450000Y-45900000D02*
X21550000Y-45900000D01*
X22950000Y-45900000D02*
X21550000Y-45900000D01*
X20450000Y-26900000D02*
X21550000Y-26900000D01*
X20450000Y-7900000D02*
X21550000Y-7900000D01*
X22950000Y-7900000D02*
X21550000Y-7900000D01*
X74800000Y-5900000D02*
X73700000Y-5900000D01*
X73700000Y-5900000D02*
X72300000Y-5900000D01*
D33*
X69270000Y6440000D02*
X69270000Y5800000D01*
X69270000Y5800000D02*
X68000000Y4530000D01*
X69270000Y7080000D02*
X69270000Y6440000D01*
D32*
X69270000Y6440000D02*
X69910000Y7080000D01*
D33*
X72300000Y-5900000D02*
X71168600Y-5900000D01*
X71168600Y-5900000D02*
X68000000Y-2731400D01*
X68000000Y-2731400D02*
X68000000Y4530000D01*
D32*
X107662000Y1030000D02*
X105801200Y1030000D01*
X105801200Y1030000D02*
X105182000Y410800D01*
X113798000Y-18148000D02*
X110288000Y-18148000D01*
X110288000Y-18148000D02*
X107798000Y-15658000D01*
X94550000Y6327300D02*
X95752500Y6327300D01*
X95752500Y6327300D02*
X96054900Y6629700D01*
X94550000Y5502000D02*
X94550000Y6327300D01*
X13342900Y-79018200D02*
X14474700Y-80150000D01*
X16050000Y-80150000D02*
X14474700Y-80150000D01*
X4865800Y-5449400D02*
X4765200Y-5550000D01*
X4765200Y-5550000D02*
X3000000Y-5550000D01*
X4885200Y-24281400D02*
X4885200Y-21917100D01*
X4885200Y-21917100D02*
X3832000Y-20863900D01*
X3832000Y-20863900D02*
X3832000Y-19409100D01*
X3832000Y-19409100D02*
X-305600Y-15271500D01*
X-305600Y-15271500D02*
X-305600Y-13629600D01*
X-305600Y-13629600D02*
X-4611200Y-9324000D01*
X-4611200Y-9324000D02*
X-6532400Y-9324000D01*
X4575300Y-24600000D02*
X4885200Y-24290100D01*
X4885200Y-24290100D02*
X4885200Y-24281400D01*
X3000000Y-24600000D02*
X4575300Y-24600000D01*
X-3000000Y-3950000D02*
X-4575300Y-3950000D01*
X-4575300Y-3950000D02*
X-4575300Y-3294900D01*
X-4575300Y-3294900D02*
X-4089500Y-2809100D01*
X-4089500Y-2809100D02*
X-3503200Y-2809100D01*
X3778000Y-43650000D02*
X2500000Y-44928000D01*
X2500000Y-44928000D02*
X496400Y-44928000D01*
X496400Y-44928000D02*
X-122200Y-45546600D01*
X-122200Y-45546600D02*
X-122200Y-46499800D01*
X-122200Y-46499800D02*
X-1473700Y-47851300D01*
X-1473700Y-47851300D02*
X-9160300Y-47851300D01*
X3787700Y-43650000D02*
X4575300Y-43650000D01*
X3000000Y-43650000D02*
X3778000Y-43650000D01*
X3787700Y-43650000D02*
X3778000Y-43650000D01*
X4859700Y-43759600D02*
X4684900Y-43759600D01*
X4684900Y-43759600D02*
X4575300Y-43650000D01*
X-4575300Y-23000000D02*
X-4575300Y-21966200D01*
X-3000000Y-23000000D02*
X-4575300Y-23000000D01*
X4575300Y-62700000D02*
X4653100Y-62622200D01*
X4653100Y-62622200D02*
X4653100Y-58504100D01*
X4653100Y-58504100D02*
X714600Y-54565600D01*
X714600Y-54565600D02*
X714600Y-51262700D01*
X714600Y-51262700D02*
X3892500Y-48084800D01*
X3892500Y-48084800D02*
X4449800Y-48084800D01*
X4449800Y-48084800D02*
X6036200Y-46498400D01*
X6036200Y-46498400D02*
X6036200Y-42581800D01*
X6036200Y-42581800D02*
X4371700Y-40917300D01*
X4371700Y-40917300D02*
X-3298400Y-40917300D01*
X3000000Y-62700000D02*
X4575300Y-62700000D01*
X274600Y-66105100D02*
X274600Y-64215000D01*
X274600Y-64215000D02*
X665000Y-63824600D01*
X665000Y-63824600D02*
X1875400Y-63824600D01*
X1875400Y-63824600D02*
X3000000Y-62700000D01*
X-4462700Y-42050000D02*
X-3330000Y-40917300D01*
X-3330000Y-40917300D02*
X-3298400Y-40917300D01*
X-3000000Y-42050000D02*
X-4462700Y-42050000D01*
X4575300Y-81750000D02*
X4852300Y-82027000D01*
X3000000Y-81750000D02*
X4575300Y-81750000D01*
X-4462700Y-61100000D02*
X-4462700Y-60317200D01*
X-4462700Y-60317200D02*
X-4126800Y-59981300D01*
X-3000000Y-61100000D02*
X-4462700Y-61100000D01*
X-4115800Y-79034200D02*
X-4115800Y-76989800D01*
X-4115800Y-76989800D02*
X630000Y-72244000D01*
X630000Y-72244000D02*
X630000Y-70447800D01*
X630000Y-70447800D02*
X2298100Y-68779700D01*
X2298100Y-68779700D02*
X26733100Y-68779700D01*
X26733100Y-68779700D02*
X30733600Y-64779200D01*
X30733600Y-64779200D02*
X43460100Y-64779200D01*
X43460100Y-64779200D02*
X47555300Y-60684000D01*
X47555300Y-60684000D02*
X59340700Y-60684000D01*
X59340700Y-60684000D02*
X64496700Y-55528000D01*
X64496700Y-55528000D02*
X64496700Y-52454500D01*
X64496700Y-52454500D02*
X68630700Y-48320500D01*
X68630700Y-48320500D02*
X69113300Y-48320500D01*
X69113300Y-48320500D02*
X69197500Y-48236300D01*
X69197500Y-48236300D02*
X82870500Y-48236300D01*
X82870500Y-48236300D02*
X84531700Y-49897500D01*
X84531700Y-49897500D02*
X84531700Y-50145300D01*
X84531700Y-50145300D02*
X85630000Y-51243600D01*
X85630000Y-51243600D02*
X105056100Y-51243600D01*
X105056100Y-51243600D02*
X110571000Y-45728700D01*
X110571000Y-45728700D02*
X117773400Y-45728700D01*
X117773400Y-45728700D02*
X118674100Y-44828000D01*
X118674100Y-44828000D02*
X123504700Y-44828000D01*
X123504700Y-44828000D02*
X124289300Y-44043400D01*
X124289300Y-44043400D02*
X124289300Y-43084500D01*
X124289300Y-43084500D02*
X123492800Y-42288000D01*
X123492800Y-42288000D02*
X122608700Y-42288000D01*
X122608700Y-42288000D02*
X121836300Y-41515600D01*
X121836300Y-41515600D02*
X121836300Y-40501400D01*
X121836300Y-40501400D02*
X122589700Y-39748000D01*
X122589700Y-39748000D02*
X123558500Y-39748000D01*
X123558500Y-39748000D02*
X124289100Y-39017400D01*
X124289100Y-39017400D02*
X124289100Y-34649100D01*
X124289100Y-34649100D02*
X123038000Y-33398000D01*
X-4575300Y-80150000D02*
X-4575300Y-79493700D01*
X-4575300Y-79493700D02*
X-4115800Y-79034200D01*
X-3000000Y-80150000D02*
X-4575300Y-80150000D01*
X33524700Y-77150000D02*
X33524700Y-76508400D01*
X33524700Y-76508400D02*
X34023700Y-76009400D01*
X34023700Y-76009400D02*
X35100000Y-76009400D01*
X35100000Y-77150000D02*
X33524700Y-77150000D01*
X23625300Y-5550000D02*
X23901900Y-5550000D01*
X22050000Y-5550000D02*
X23625300Y-5550000D01*
X22050000Y-24600000D02*
X23925300Y-24600000D01*
X16050000Y-3950000D02*
X13249900Y-3950000D01*
X15262400Y-23000000D02*
X16309800Y-21952600D01*
X16309800Y-21952600D02*
X28411800Y-21952600D01*
X22050000Y-43650000D02*
X23625300Y-43650000D01*
X24664800Y-43586700D02*
X23688600Y-43586700D01*
X23688600Y-43586700D02*
X23625300Y-43650000D01*
X15262400Y-23000000D02*
X14474700Y-23000000D01*
X16050000Y-23000000D02*
X15262400Y-23000000D01*
X14474700Y-23000000D02*
X14474700Y-22981700D01*
X14474700Y-22981700D02*
X14186900Y-22693900D01*
X22050000Y-62700000D02*
X20975400Y-63774600D01*
X20975400Y-63774600D02*
X19656800Y-63774600D01*
X19656800Y-63774600D02*
X18853700Y-64577700D01*
X18853700Y-64577700D02*
X18853700Y-65945400D01*
X16050000Y-42050000D02*
X13562700Y-42050000D01*
X16050000Y-61100000D02*
X17144400Y-60005600D01*
X17144400Y-60005600D02*
X23641400Y-60005600D01*
X23641400Y-60005600D02*
X23942100Y-60306300D01*
X23937900Y-81750000D02*
X22050000Y-81750000D01*
X52269600Y-72272900D02*
X52451800Y-72272900D01*
X52451800Y-72272900D02*
X52574700Y-72150000D01*
X54150000Y-72150000D02*
X52574700Y-72150000D01*
X42964200Y-2838900D02*
X42675300Y-2550000D01*
X41100000Y-2550000D02*
X42675300Y-2550000D01*
X42982600Y-21600000D02*
X41100000Y-21600000D01*
X33235100Y-774500D02*
X33349200Y-774500D01*
X33349200Y-774500D02*
X33524700Y-950000D01*
X35100000Y-950000D02*
X33524700Y-950000D01*
X42138200Y-18716800D02*
X41516800Y-18095400D01*
X41516800Y-18095400D02*
X40644100Y-18095400D01*
X40644100Y-18095400D02*
X39874500Y-18865000D01*
X39874500Y-18865000D02*
X36235000Y-18865000D01*
X36235000Y-18865000D02*
X35100000Y-20000000D01*
X42961100Y-40364200D02*
X42675300Y-40650000D01*
X41100000Y-40650000D02*
X42675300Y-40650000D01*
X42675300Y-59700000D02*
X42890900Y-59915600D01*
X42890900Y-59915600D02*
X42961100Y-59915600D01*
X41100000Y-59700000D02*
X42675300Y-59700000D01*
X35100000Y-39050000D02*
X33524700Y-39050000D01*
X33524700Y-39050000D02*
X33230200Y-38755500D01*
X41100000Y-78750000D02*
X42675300Y-78750000D01*
X44141000Y-78407500D02*
X43017800Y-78407500D01*
X43017800Y-78407500D02*
X42675300Y-78750000D01*
X35100000Y-56939300D02*
X47287500Y-56939300D01*
X33524700Y-58100000D02*
X33524700Y-57447000D01*
X33524700Y-57447000D02*
X34032400Y-56939300D01*
X34032400Y-56939300D02*
X35100000Y-56939300D01*
X35100000Y-58100000D02*
X33524700Y-58100000D01*
X71303900Y-78395800D02*
X71378900Y-78395800D01*
X71378900Y-78395800D02*
X71624700Y-78150000D01*
X73200000Y-78150000D02*
X71624700Y-78150000D01*
X62003400Y3203700D02*
X61725300Y2925600D01*
X61725300Y2925600D02*
X61725300Y2450000D01*
X60150000Y2450000D02*
X61725300Y2450000D01*
X60150000Y-16600000D02*
X62003600Y-16600000D01*
X52266400Y3471500D02*
X52574700Y3779800D01*
X52574700Y3779800D02*
X52574700Y4050000D01*
X54150000Y4050000D02*
X52574700Y4050000D01*
X60150000Y-35650000D02*
X59025400Y-36774600D01*
X59025400Y-36774600D02*
X57810000Y-36774600D01*
X57810000Y-36774600D02*
X57336500Y-37248100D01*
X57336500Y-37248100D02*
X57336500Y-40147500D01*
X57336500Y-40147500D02*
X57261800Y-40222200D01*
X52574700Y-15000000D02*
X52406100Y-14831400D01*
X52406100Y-14831400D02*
X52295000Y-14831400D01*
X54150000Y-15000000D02*
X52574700Y-15000000D01*
X61725300Y-54700000D02*
X61732700Y-54692600D01*
X61732700Y-54692600D02*
X63321100Y-54692600D01*
X60150000Y-54700000D02*
X61725300Y-54700000D01*
X54150000Y-32938400D02*
X61360200Y-32938400D01*
X61360200Y-32938400D02*
X62167100Y-32131500D01*
X54150000Y-32938400D02*
X54150000Y-34050000D01*
X60150000Y-73750000D02*
X62037200Y-73750000D01*
X52574700Y-53100000D02*
X52466700Y-52992000D01*
X52466700Y-52992000D02*
X52296600Y-52992000D01*
X54150000Y-53100000D02*
X52574700Y-53100000D01*
X90395200Y-82960500D02*
X90485200Y-82960500D01*
X90485200Y-82960500D02*
X90674700Y-83150000D01*
X92250000Y-83150000D02*
X90674700Y-83150000D01*
X80775300Y-3550000D02*
X81007600Y-3782300D01*
X81007600Y-3782300D02*
X81061800Y-3782300D01*
X79200000Y-3550000D02*
X80775300Y-3550000D01*
X81081000Y-22600000D02*
X79200000Y-22600000D01*
X71314700Y-2404500D02*
X71624700Y-2094500D01*
X71624700Y-2094500D02*
X71624700Y-1950000D01*
X73200000Y-1950000D02*
X71624700Y-1950000D01*
X81063000Y-41937700D02*
X80775300Y-41650000D01*
X79200000Y-41650000D02*
X80775300Y-41650000D01*
X73200000Y-21000000D02*
X71321900Y-21000000D01*
X79200000Y-60700000D02*
X78125400Y-61774600D01*
X78125400Y-61774600D02*
X76865300Y-61774600D01*
X76865300Y-61774600D02*
X75990900Y-62649000D01*
X75990900Y-62649000D02*
X75990900Y-63967100D01*
X71323300Y-39748600D02*
X71624700Y-40050000D01*
X73200000Y-40050000D02*
X71624700Y-40050000D01*
X82456300Y-78958100D02*
X81567200Y-78958100D01*
X81567200Y-78958100D02*
X80775300Y-79750000D01*
X82912400Y-78958100D02*
X82456300Y-78958100D01*
X82456300Y-78958100D02*
X82456300Y-73348000D01*
X82456300Y-73348000D02*
X82099700Y-72991400D01*
X82099700Y-72991400D02*
X82099700Y-59754800D01*
X82099700Y-59754800D02*
X80337200Y-57992300D01*
X80337200Y-57992300D02*
X73627400Y-57992300D01*
X73627400Y-57992300D02*
X72519700Y-59100000D01*
X79200000Y-79750000D02*
X80775300Y-79750000D01*
X72519700Y-59100000D02*
X71624700Y-59100000D01*
X73200000Y-59100000D02*
X72519700Y-59100000D01*
X71624700Y-59100000D02*
X71624700Y-58999500D01*
X71624700Y-58999500D02*
X71344300Y-58719100D01*
X100113200Y-8733500D02*
X100008800Y-8733500D01*
X100008800Y-8733500D02*
X99825300Y-8550000D01*
X98250000Y-8550000D02*
X99825300Y-8550000D01*
X99825300Y-27600000D02*
X99874200Y-27551100D01*
X99874200Y-27551100D02*
X100107200Y-27551100D01*
X98250000Y-27600000D02*
X99825300Y-27600000D01*
X90397000Y-6711300D02*
X90436000Y-6711300D01*
X90436000Y-6711300D02*
X90674700Y-6950000D01*
X92250000Y-6950000D02*
X90674700Y-6950000D01*
X100103000Y-46489200D02*
X99986100Y-46489200D01*
X99986100Y-46489200D02*
X99825300Y-46650000D01*
X98250000Y-46650000D02*
X99825300Y-46650000D01*
X91462400Y-26000000D02*
X93078900Y-24383500D01*
X93078900Y-24383500D02*
X97522800Y-24383500D01*
X97522800Y-24383500D02*
X97866000Y-24040300D01*
X97866000Y-24040300D02*
X102141500Y-24040300D01*
X91462400Y-26000000D02*
X90674700Y-26000000D01*
X92250000Y-26000000D02*
X91462400Y-26000000D01*
X90674700Y-26000000D02*
X90450300Y-26224400D01*
X90450300Y-26224400D02*
X90381100Y-26224400D01*
X100120000Y-65994700D02*
X99825300Y-65700000D01*
X98250000Y-65700000D02*
X99825300Y-65700000D01*
X90374000Y-45121500D02*
X90603200Y-45121500D01*
X90603200Y-45121500D02*
X90674700Y-45050000D01*
X92250000Y-45050000D02*
X90674700Y-45050000D01*
X100120800Y-84032300D02*
X99825300Y-84327800D01*
X99825300Y-84327800D02*
X99825300Y-84750000D01*
X98250000Y-84750000D02*
X99825300Y-84750000D01*
X90398600Y-64251300D02*
X90523400Y-64251300D01*
X90523400Y-64251300D02*
X90674700Y-64100000D01*
X92250000Y-64100000D02*
X90674700Y-64100000D01*
X108450000Y-75575300D02*
X108450000Y-75867900D01*
X108450000Y-74000000D02*
X108450000Y-75575300D01*
X110050000Y-66124000D02*
X110050000Y-68000000D01*
X93050000Y5502000D02*
X93050000Y4676700D01*
X93050000Y4676700D02*
X98015700Y4676700D01*
X98015700Y4676700D02*
X98366000Y5027000D01*
X97468000Y7963200D02*
X97468000Y6345300D01*
X97468000Y6345300D02*
X97450000Y6327300D01*
X97450000Y5502000D02*
X97450000Y6327300D01*
X123038000Y-15778000D02*
X119456300Y-19359700D01*
X119456300Y-19359700D02*
X106778100Y-19359700D01*
X106778100Y-19359700D02*
X104433400Y-17015000D01*
X104433400Y-17015000D02*
X104433400Y-11215200D01*
M02*
