M48
; DRILL file {KiCad (5.1.4)-1} date 07/05/20 11:50:32
; FORMAT={-:-/ absolute / inch / decimal}
; #@! TF.CreationDate,2020-07-05T11:50:32-04:00
; #@! TF.GenerationSoftware,Kicad,Pcbnew,(5.1.4)-1
; #@! TF.FileFunction,NonPlated,1,2,NPTH
FMAT,2
INCH
T1C0.0472
T2C0.0669
T3C0.1339
%
G90
G05
T1
X-0.2055Y-0.1654
X0.2055Y-0.1654
X2.7866Y-0.0866
X3.1976Y-0.0866
X0.5425Y-0.874
X0.9535Y-0.874
X0.5425Y-0.1654
X0.9535Y-0.1654
X1.2906Y-1.4646
X1.7016Y-1.4646
X3.5346Y-0.9921
X3.9457Y-0.9921
X3.5346Y-0.2835
X3.9457Y-0.2835
X0.5425Y-1.5827
X0.9535Y-1.5827
X2.7866Y-2.9213
X3.1976Y-2.9213
X2.7866Y-1.5039
X3.1976Y-1.5039
X3.5346Y-1.7008
X3.9457Y-1.7008
X3.5346Y-3.1181
X3.9457Y-3.1181
X2.0386Y-1.9764
X2.4496Y-1.9764
X2.7866Y-0.7953
X3.1976Y-0.7953
X2.0386Y-0.5591
X2.4496Y-0.5591
X0.5425Y-3.0
X0.9535Y-3.0
X1.2906Y-2.8819
X1.7016Y-2.8819
X1.2906Y-0.7559
X1.7016Y-0.7559
X-0.2055Y-3.0
X0.2055Y-3.0
X-0.2055Y-1.5827
X0.2055Y-1.5827
X2.0386Y-1.2677
X2.4496Y-1.2677
X2.7866Y-2.2126
X3.1976Y-2.2126
X0.5425Y-2.2913
X0.9535Y-2.2913
X4.3228Y-2.4717
X4.3228Y-2.8827
X2.0386Y-2.685
X2.4496Y-2.685
X3.5346Y-2.4094
X3.9457Y-2.4094
X-0.2055Y-2.2913
X0.2055Y-2.2913
X2.0386Y0.1496
X2.4496Y0.1496
X1.2906Y-2.1732
X1.7016Y-2.1732
X1.2906Y-0.0472
X1.7016Y-0.0472
X-0.2055Y-0.874
X0.2055Y-0.874
T2
X2.7756Y-1.3386
X3.2087Y-1.3386
X3.5236Y-1.5354
X3.9567Y-1.5354
X3.5236Y-2.9528
X3.9567Y-2.9528
X2.0276Y-1.811
X2.4606Y-1.811
X2.7756Y-0.6299
X3.2087Y-0.6299
X2.0276Y-0.3937
X2.4606Y-0.3937
X0.5315Y-2.8346
X0.9646Y-2.8346
X1.2795Y-2.7165
X1.7126Y-2.7165
X1.2795Y-0.5906
X1.7126Y-0.5906
X-0.2165Y-2.8346
X0.2165Y-2.8346
X-0.2165Y-1.4173
X0.2165Y-1.4173
X2.0276Y-1.1024
X2.4606Y-1.1024
X2.7756Y-2.0472
X3.2087Y-2.0472
X0.5315Y-2.126
X0.9646Y-2.126
X4.4882Y-2.4606
X4.4882Y-2.8937
X2.0276Y-2.5197
X2.4606Y-2.5197
X3.5236Y-2.2441
X3.9567Y-2.2441
X-0.2165Y-2.126
X0.2165Y-2.126
X2.0276Y0.315
X2.4606Y0.315
X1.2795Y-2.0079
X1.7126Y-2.0079
X1.2795Y0.1181
X1.7126Y0.1181
X-0.2165Y-0.7087
X0.2165Y-0.7087
X-0.2165Y0.0
X0.2165Y0.0
X2.7756Y0.0787
X3.2087Y0.0787
X0.5315Y-0.7087
X0.9646Y-0.7087
X0.5315Y0.0
X0.9646Y0.0
X1.2795Y-1.2992
X1.7126Y-1.2992
X3.5236Y-0.8268
X3.9567Y-0.8268
X3.5236Y-0.1181
X3.9567Y-0.1181
X0.5315Y-1.4173
X0.9646Y-1.4173
X2.7756Y-2.7559
X3.2087Y-2.7559
T3
X0.0Y-0.7087
X0.0Y0.0
X2.9921Y0.0787
X0.748Y-0.7087
X0.748Y0.0
X1.4961Y-1.2992
X3.7402Y-0.8268
X3.7402Y-0.1181
X0.748Y-1.4173
X2.9921Y-2.7559
X2.9921Y-1.3386
X3.7402Y-1.5354
X3.7402Y-2.9528
X2.2441Y-1.811
X2.9921Y-0.6299
X2.2441Y-0.3937
X0.748Y-2.8346
X1.4961Y-2.7165
X1.4961Y-0.5906
X0.0Y-2.8346
X0.0Y-1.4173
X2.2441Y-1.1024
X2.9921Y-2.0472
X0.748Y-2.126
X4.4882Y-2.6772
X2.2441Y-2.5197
X3.7402Y-2.2441
X0.0Y-2.126
X2.2441Y0.315
X1.4961Y-2.0079
X1.4961Y0.1181
T0
M30
