M48
; DRILL file {KiCad (5.1.4)-1} date 6/10/2021 5:13:42 PM
; FORMAT={-:-/ absolute / metric / decimal}
; #@! TF.CreationDate,2021-06-10T17:13:42-04:00
; #@! TF.GenerationSoftware,Kicad,Pcbnew,(5.1.4)-1
; #@! TF.FileFunction,Plated,1,2,PTH
FMAT,2
METRIC
T1C1.092
T2C1.300
%
G90
G05
T1
X101.148Y-18.548
X101.148Y-21.088
X101.148Y-23.628
X101.148Y-26.168
X101.148Y-28.708
X101.148Y-31.248
X101.148Y-33.788
X101.148Y-36.328
X101.148Y-38.868
X101.148Y-41.408
X101.148Y-43.948
X101.148Y-46.488
X116.388Y-18.548
X116.388Y-21.088
X116.388Y-23.628
X116.388Y-26.168
X116.388Y-28.708
X116.388Y-31.248
X116.388Y-33.788
X116.388Y-36.328
X116.388Y-38.868
X116.388Y-41.408
X116.388Y-43.948
X116.388Y-46.488
T2
X109.798Y-49.828
X116.298Y-49.828
T0
M30
