G04 #@! TF.GenerationSoftware,KiCad,Pcbnew,(5.1.4)-1*
G04 #@! TF.CreationDate,2020-06-14T12:37:33-04:00*
G04 #@! TF.ProjectId,splitreus,73706c69-7472-4657-9573-2e6b69636164,1*
G04 #@! TF.SameCoordinates,Original*
G04 #@! TF.FileFunction,Legend,Bot*
G04 #@! TF.FilePolarity,Positive*
%FSLAX46Y46*%
G04 Gerber Fmt 4.6, Leading zero omitted, Abs format (unit mm)*
G04 Created by KiCad (PCBNEW (5.1.4)-1) date 2020-06-14 12:37:33*
%MOMM*%
%LPD*%
G04 APERTURE LIST*
%ADD10C,0.150000*%
%ADD11C,0.200000*%
%ADD12C,0.400000*%
%ADD13C,0.010000*%
G04 APERTURE END LIST*
D10*
X119125000Y-76625000D02*
X119196428Y-76589285D01*
X119303571Y-76589285D01*
X119410714Y-76625000D01*
X119482142Y-76696428D01*
X119517857Y-76767857D01*
X119553571Y-76910714D01*
X119553571Y-77017857D01*
X119517857Y-77160714D01*
X119482142Y-77232142D01*
X119410714Y-77303571D01*
X119303571Y-77339285D01*
X119232142Y-77339285D01*
X119125000Y-77303571D01*
X119089285Y-77267857D01*
X119089285Y-77017857D01*
X119232142Y-77017857D01*
X118767857Y-77339285D02*
X118767857Y-76589285D01*
X118482142Y-76589285D01*
X118410714Y-76625000D01*
X118375000Y-76660714D01*
X118339285Y-76732142D01*
X118339285Y-76839285D01*
X118375000Y-76910714D01*
X118410714Y-76946428D01*
X118482142Y-76982142D01*
X118767857Y-76982142D01*
X117660714Y-77339285D02*
X118017857Y-77339285D01*
X118017857Y-76589285D01*
X117482142Y-76839285D02*
X117303571Y-77339285D01*
X117125000Y-76839285D01*
X116910714Y-76589285D02*
X116446428Y-76589285D01*
X116696428Y-76875000D01*
X116589285Y-76875000D01*
X116517857Y-76910714D01*
X116482142Y-76946428D01*
X116446428Y-77017857D01*
X116446428Y-77196428D01*
X116482142Y-77267857D01*
X116517857Y-77303571D01*
X116589285Y-77339285D01*
X116803571Y-77339285D01*
X116875000Y-77303571D01*
X116910714Y-77267857D01*
D11*
X10702380Y-43952380D02*
X10035714Y-43952380D01*
X10226190Y-43952380D02*
X10130952Y-44000000D01*
X10083333Y-44047619D01*
X10035714Y-44142857D01*
X10035714Y-44238095D01*
X10654761Y-44952380D02*
X10702380Y-44857142D01*
X10702380Y-44666666D01*
X10654761Y-44571428D01*
X10559523Y-44523809D01*
X10178571Y-44523809D01*
X10083333Y-44571428D01*
X10035714Y-44666666D01*
X10035714Y-44857142D01*
X10083333Y-44952380D01*
X10178571Y-45000000D01*
X10273809Y-45000000D01*
X10369047Y-44523809D01*
X10035714Y-45333333D02*
X10702380Y-45571428D01*
X10035714Y-45809523D01*
X10702380Y-46714285D02*
X10702380Y-46142857D01*
X10702380Y-46428571D02*
X9702380Y-46428571D01*
X9845238Y-46333333D01*
X9940476Y-46238095D01*
X9988095Y-46142857D01*
X10607142Y-47142857D02*
X10654761Y-47190476D01*
X10702380Y-47142857D01*
X10654761Y-47095238D01*
X10607142Y-47142857D01*
X10702380Y-47142857D01*
X10702380Y-47619047D02*
X9702380Y-47619047D01*
X10083333Y-47619047D02*
X10035714Y-47714285D01*
X10035714Y-47904761D01*
X10083333Y-48000000D01*
X10130952Y-48047619D01*
X10226190Y-48095238D01*
X10511904Y-48095238D01*
X10607142Y-48047619D01*
X10654761Y-48000000D01*
X10702380Y-47904761D01*
X10702380Y-47714285D01*
X10654761Y-47619047D01*
D12*
X10714285Y-18000000D02*
X10857142Y-18285714D01*
X10857142Y-18857142D01*
X10714285Y-19142857D01*
X10428571Y-19285714D01*
X10285714Y-19285714D01*
X10000000Y-19142857D01*
X9857142Y-18857142D01*
X9857142Y-18428571D01*
X9714285Y-18142857D01*
X9428571Y-18000000D01*
X9285714Y-18000000D01*
X9000000Y-18142857D01*
X8857142Y-18428571D01*
X8857142Y-18857142D01*
X9000000Y-19142857D01*
X8857142Y-20571428D02*
X11857142Y-20571428D01*
X9000000Y-20571428D02*
X8857142Y-20857142D01*
X8857142Y-21428571D01*
X9000000Y-21714285D01*
X9142857Y-21857142D01*
X9428571Y-22000000D01*
X10285714Y-22000000D01*
X10571428Y-21857142D01*
X10714285Y-21714285D01*
X10857142Y-21428571D01*
X10857142Y-20857142D01*
X10714285Y-20571428D01*
X10857142Y-23714285D02*
X10714285Y-23428571D01*
X10428571Y-23285714D01*
X7857142Y-23285714D01*
X10857142Y-24857142D02*
X8857142Y-24857142D01*
X7857142Y-24857142D02*
X8000000Y-24714285D01*
X8142857Y-24857142D01*
X8000000Y-25000000D01*
X7857142Y-24857142D01*
X8142857Y-24857142D01*
X8857142Y-25857142D02*
X8857142Y-27000000D01*
X7857142Y-26285714D02*
X10428571Y-26285714D01*
X10714285Y-26428571D01*
X10857142Y-26714285D01*
X10857142Y-27000000D01*
X10857142Y-28000000D02*
X8857142Y-28000000D01*
X9428571Y-28000000D02*
X9142857Y-28142857D01*
X9000000Y-28285714D01*
X8857142Y-28571428D01*
X8857142Y-28857142D01*
X10714285Y-31000000D02*
X10857142Y-30714285D01*
X10857142Y-30142857D01*
X10714285Y-29857142D01*
X10428571Y-29714285D01*
X9285714Y-29714285D01*
X9000000Y-29857142D01*
X8857142Y-30142857D01*
X8857142Y-30714285D01*
X9000000Y-31000000D01*
X9285714Y-31142857D01*
X9571428Y-31142857D01*
X9857142Y-29714285D01*
X8857142Y-33714285D02*
X10857142Y-33714285D01*
X8857142Y-32428571D02*
X10428571Y-32428571D01*
X10714285Y-32571428D01*
X10857142Y-32857142D01*
X10857142Y-33285714D01*
X10714285Y-33571428D01*
X10571428Y-33714285D01*
X10714285Y-35000000D02*
X10857142Y-35285714D01*
X10857142Y-35857142D01*
X10714285Y-36142857D01*
X10428571Y-36285714D01*
X10285714Y-36285714D01*
X10000000Y-36142857D01*
X9857142Y-35857142D01*
X9857142Y-35428571D01*
X9714285Y-35142857D01*
X9428571Y-35000000D01*
X9285714Y-35000000D01*
X9000000Y-35142857D01*
X8857142Y-35428571D01*
X8857142Y-35857142D01*
X9000000Y-36142857D01*
X7857142Y-38857142D02*
X7857142Y-38285714D01*
X8000000Y-38000000D01*
X8142857Y-37857142D01*
X8571428Y-37571428D01*
X9142857Y-37428571D01*
X10285714Y-37428571D01*
X10571428Y-37571428D01*
X10714285Y-37714285D01*
X10857142Y-38000000D01*
X10857142Y-38571428D01*
X10714285Y-38857142D01*
X10571428Y-39000000D01*
X10285714Y-39142857D01*
X9571428Y-39142857D01*
X9285714Y-39000000D01*
X9142857Y-38857142D01*
X9000000Y-38571428D01*
X9000000Y-38000000D01*
X9142857Y-37714285D01*
X9285714Y-37571428D01*
X9571428Y-37428571D01*
X8142857Y-40285714D02*
X7999999Y-40428571D01*
X7857142Y-40714285D01*
X7857142Y-41428571D01*
X7999999Y-41714285D01*
X8142857Y-41857142D01*
X8428571Y-42000000D01*
X8714285Y-42000000D01*
X9142857Y-41857142D01*
X10857142Y-40142857D01*
X10857142Y-42000000D01*
D13*
G36*
X117366501Y-50877389D02*
G01*
X117284122Y-50644654D01*
X117113875Y-50533677D01*
X116896560Y-50521786D01*
X116584598Y-50547734D01*
X116559453Y-51124035D01*
X116534309Y-51700337D01*
X116940453Y-51674369D01*
X117346598Y-51648400D01*
X117372286Y-51249116D01*
X117366501Y-50877389D01*
X117366501Y-50877389D01*
G37*
X117366501Y-50877389D02*
X117284122Y-50644654D01*
X117113875Y-50533677D01*
X116896560Y-50521786D01*
X116584598Y-50547734D01*
X116559453Y-51124035D01*
X116534309Y-51700337D01*
X116940453Y-51674369D01*
X117346598Y-51648400D01*
X117372286Y-51249116D01*
X117366501Y-50877389D01*
G36*
X117282389Y-53964247D02*
G01*
X117209100Y-53762877D01*
X117149431Y-53693523D01*
X116914332Y-53559790D01*
X116699016Y-53578730D01*
X116523673Y-53733686D01*
X116408492Y-54007998D01*
X116372931Y-54334239D01*
X116372931Y-54738734D01*
X117304264Y-54738734D01*
X117304264Y-54286189D01*
X117282389Y-53964247D01*
X117282389Y-53964247D01*
G37*
X117282389Y-53964247D02*
X117209100Y-53762877D01*
X117149431Y-53693523D01*
X116914332Y-53559790D01*
X116699016Y-53578730D01*
X116523673Y-53733686D01*
X116408492Y-54007998D01*
X116372931Y-54334239D01*
X116372931Y-54738734D01*
X117304264Y-54738734D01*
X117304264Y-54286189D01*
X117282389Y-53964247D01*
G36*
X111784666Y-39554003D02*
G01*
X111784114Y-39540999D01*
X111758598Y-38948400D01*
X110762694Y-38924538D01*
X109766790Y-38900675D01*
X109683194Y-39120549D01*
X109625555Y-39376797D01*
X109604996Y-39696788D01*
X109621038Y-40009747D01*
X109673204Y-40244902D01*
X109691046Y-40281900D01*
X109756062Y-40351560D01*
X109875210Y-40395766D01*
X110081712Y-40419874D01*
X110408792Y-40429237D01*
X110610425Y-40430067D01*
X111085441Y-40421211D01*
X111416038Y-40382260D01*
X111626737Y-40294639D01*
X111742060Y-40139773D01*
X111786529Y-39899086D01*
X111784666Y-39554003D01*
X111784666Y-39554003D01*
G37*
X111784666Y-39554003D02*
X111784114Y-39540999D01*
X111758598Y-38948400D01*
X110762694Y-38924538D01*
X109766790Y-38900675D01*
X109683194Y-39120549D01*
X109625555Y-39376797D01*
X109604996Y-39696788D01*
X109621038Y-40009747D01*
X109673204Y-40244902D01*
X109691046Y-40281900D01*
X109756062Y-40351560D01*
X109875210Y-40395766D01*
X110081712Y-40419874D01*
X110408792Y-40429237D01*
X110610425Y-40430067D01*
X111085441Y-40421211D01*
X111416038Y-40382260D01*
X111626737Y-40294639D01*
X111742060Y-40139773D01*
X111786529Y-39899086D01*
X111784666Y-39554003D01*
G36*
X111770035Y-50395018D02*
G01*
X111719320Y-50211985D01*
X111699331Y-50183667D01*
X111559900Y-50130153D01*
X111299110Y-50095637D01*
X110963828Y-50079772D01*
X110600920Y-50082209D01*
X110257251Y-50102600D01*
X109979688Y-50140596D01*
X109815097Y-50195850D01*
X109812506Y-50197690D01*
X109716255Y-50350734D01*
X109648089Y-50611227D01*
X109614066Y-50918726D01*
X109620248Y-51212785D01*
X109672693Y-51432958D01*
X109686157Y-51457900D01*
X109749775Y-51524458D01*
X109863667Y-51567927D01*
X110059430Y-51592920D01*
X110368662Y-51604047D01*
X110701493Y-51606067D01*
X111113123Y-51603177D01*
X111387667Y-51591033D01*
X111557322Y-51564423D01*
X111654286Y-51518135D01*
X111710758Y-51446959D01*
X111713286Y-51442300D01*
X111767726Y-51251550D01*
X111794894Y-50973972D01*
X111795444Y-50668738D01*
X111770035Y-50395018D01*
X111770035Y-50395018D01*
G37*
X111770035Y-50395018D02*
X111719320Y-50211985D01*
X111699331Y-50183667D01*
X111559900Y-50130153D01*
X111299110Y-50095637D01*
X110963828Y-50079772D01*
X110600920Y-50082209D01*
X110257251Y-50102600D01*
X109979688Y-50140596D01*
X109815097Y-50195850D01*
X109812506Y-50197690D01*
X109716255Y-50350734D01*
X109648089Y-50611227D01*
X109614066Y-50918726D01*
X109620248Y-51212785D01*
X109672693Y-51432958D01*
X109686157Y-51457900D01*
X109749775Y-51524458D01*
X109863667Y-51567927D01*
X110059430Y-51592920D01*
X110368662Y-51604047D01*
X110701493Y-51606067D01*
X111113123Y-51603177D01*
X111387667Y-51591033D01*
X111557322Y-51564423D01*
X111654286Y-51518135D01*
X111710758Y-51446959D01*
X111713286Y-51442300D01*
X111767726Y-51251550D01*
X111794894Y-50973972D01*
X111795444Y-50668738D01*
X111770035Y-50395018D01*
G36*
X120352600Y-34912768D02*
G01*
X120351827Y-33605983D01*
X120350248Y-32432223D01*
X120347632Y-31384229D01*
X120343749Y-30454739D01*
X120338367Y-29636491D01*
X120331255Y-28922224D01*
X120322182Y-28304676D01*
X120310917Y-27776588D01*
X120297229Y-27330696D01*
X120280887Y-26959740D01*
X120261659Y-26656458D01*
X120239315Y-26413590D01*
X120213623Y-26223873D01*
X120184352Y-26080047D01*
X120151271Y-25974850D01*
X120114150Y-25901021D01*
X120072756Y-25851298D01*
X120026859Y-25818421D01*
X119976228Y-25795127D01*
X119920631Y-25774156D01*
X119859837Y-25748247D01*
X119847036Y-25741834D01*
X119709895Y-25714662D01*
X119420098Y-25690302D01*
X118994297Y-25668752D01*
X118449148Y-25650013D01*
X117801302Y-25634085D01*
X117067415Y-25620968D01*
X116264138Y-25610662D01*
X115408127Y-25603166D01*
X114516034Y-25598482D01*
X113604512Y-25596608D01*
X112690217Y-25597545D01*
X111789800Y-25601293D01*
X110919916Y-25607852D01*
X110097218Y-25617222D01*
X109338359Y-25629402D01*
X108659994Y-25644394D01*
X108078775Y-25662196D01*
X107611357Y-25682809D01*
X107274393Y-25706233D01*
X107084536Y-25732468D01*
X107056826Y-25741834D01*
X106994987Y-25769584D01*
X106938385Y-25790928D01*
X106886791Y-25813123D01*
X106839975Y-25843427D01*
X106797710Y-25889096D01*
X106759765Y-25957389D01*
X106725911Y-26055561D01*
X106695919Y-26190870D01*
X106669561Y-26370573D01*
X106646606Y-26601927D01*
X106626825Y-26892191D01*
X106609990Y-27248620D01*
X106595872Y-27678471D01*
X106584240Y-28189003D01*
X106574866Y-28787472D01*
X106567521Y-29481135D01*
X106561975Y-30277250D01*
X106557999Y-31183074D01*
X106555365Y-32205863D01*
X106553842Y-33352875D01*
X106553202Y-34631368D01*
X106553215Y-36048597D01*
X106553653Y-37611822D01*
X106554286Y-39328298D01*
X106554885Y-41205283D01*
X106554988Y-41632363D01*
X106555539Y-43541459D01*
X106556349Y-45288355D01*
X106557477Y-46880182D01*
X106558981Y-48324073D01*
X106560921Y-49627159D01*
X106563358Y-50796575D01*
X106566350Y-51839451D01*
X106569956Y-52762920D01*
X106574237Y-53574115D01*
X106579251Y-54280167D01*
X106585059Y-54888210D01*
X106591718Y-55405375D01*
X106599290Y-55838795D01*
X106607833Y-56195602D01*
X106617407Y-56482928D01*
X106628071Y-56707907D01*
X106639885Y-56877669D01*
X106652907Y-56999348D01*
X106667199Y-57080075D01*
X106682818Y-57126984D01*
X106684134Y-57129503D01*
X106732315Y-57219710D01*
X106779946Y-57298064D01*
X106838597Y-57365397D01*
X106919838Y-57422544D01*
X107035241Y-57470340D01*
X107196375Y-57509617D01*
X107414810Y-57541211D01*
X107702118Y-57565956D01*
X108069867Y-57584685D01*
X108529630Y-57598233D01*
X109092976Y-57607434D01*
X109771475Y-57613121D01*
X110378767Y-57615390D01*
X110378767Y-55505487D01*
X109924968Y-55503631D01*
X109525924Y-55495174D01*
X109213601Y-55479739D01*
X109019965Y-55456951D01*
X108974679Y-55440260D01*
X108940747Y-55322598D01*
X108936997Y-55113710D01*
X108939402Y-55080427D01*
X108964598Y-54781067D01*
X110086431Y-54757443D01*
X110499928Y-54744410D01*
X110844509Y-54725307D01*
X111089089Y-54702484D01*
X111202580Y-54678289D01*
X111206872Y-54672776D01*
X111153129Y-54586455D01*
X111010759Y-54408028D01*
X110806034Y-54169778D01*
X110709361Y-54061400D01*
X110213243Y-53511067D01*
X109588920Y-53468734D01*
X108964598Y-53426400D01*
X108964598Y-52833734D01*
X110343790Y-52833734D01*
X110343790Y-52366299D01*
X109907168Y-52358270D01*
X109527444Y-52341434D01*
X109241793Y-52315739D01*
X109087390Y-52281132D01*
X109086032Y-52280422D01*
X109019521Y-52231302D01*
X108973830Y-52148533D01*
X108945113Y-52003438D01*
X108929523Y-51767343D01*
X108923217Y-51411573D01*
X108922264Y-51059251D01*
X108923721Y-50599291D01*
X108931570Y-50275458D01*
X108951033Y-50054547D01*
X108987330Y-49903356D01*
X109045683Y-49788682D01*
X109131311Y-49677322D01*
X109141457Y-49665230D01*
X109360650Y-49404734D01*
X110806957Y-49404734D01*
X111394394Y-49404364D01*
X111833974Y-49413729D01*
X112147067Y-49448545D01*
X112355044Y-49524526D01*
X112479275Y-49657385D01*
X112520598Y-49794638D01*
X112520598Y-48939067D01*
X111927931Y-48939067D01*
X111902724Y-48409900D01*
X111877518Y-47880734D01*
X110501491Y-47880734D01*
X109907837Y-47875473D01*
X109473100Y-47859228D01*
X109187176Y-47831303D01*
X109039961Y-47791004D01*
X109023864Y-47779134D01*
X108934154Y-47591758D01*
X108942946Y-47369814D01*
X109034090Y-47215994D01*
X109163403Y-47178136D01*
X109441397Y-47145497D01*
X109847454Y-47119717D01*
X110252646Y-47106082D01*
X110252646Y-44577699D01*
X109820591Y-44571883D01*
X109458416Y-44559365D01*
X109200284Y-44539800D01*
X109108312Y-44524205D01*
X108978311Y-44461456D01*
X108933538Y-44332371D01*
X108938978Y-44165528D01*
X108964598Y-43859067D01*
X109895931Y-43816734D01*
X110827264Y-43774400D01*
X110382764Y-43448958D01*
X110153865Y-43265523D01*
X109993403Y-43106666D01*
X109938264Y-43013284D01*
X110004716Y-42912853D01*
X110177596Y-42762199D01*
X110381633Y-42619060D01*
X110825001Y-42335067D01*
X109894799Y-42292734D01*
X108964598Y-42250400D01*
X108964598Y-41573067D01*
X110647058Y-41550076D01*
X111163607Y-41544588D01*
X111163607Y-41178581D01*
X110529898Y-41176200D01*
X110446264Y-41174679D01*
X109986141Y-41161815D01*
X109582395Y-41142787D01*
X109266995Y-41119700D01*
X109071909Y-41094661D01*
X109028098Y-41081237D01*
X108986721Y-40973137D01*
X108954994Y-40733638D01*
X108933196Y-40400415D01*
X108921606Y-40011143D01*
X108920503Y-39603497D01*
X108930167Y-39215152D01*
X108950875Y-38883782D01*
X108982908Y-38647063D01*
X109009441Y-38562711D01*
X109114693Y-38414413D01*
X109265214Y-38304579D01*
X109484960Y-38227925D01*
X109797884Y-38179170D01*
X110227939Y-38153029D01*
X110249992Y-38152689D01*
X110249992Y-37806288D01*
X109813063Y-37801947D01*
X109443972Y-37791218D01*
X109176594Y-37773751D01*
X109051721Y-37752294D01*
X108955237Y-37654231D01*
X108935543Y-37442025D01*
X108938962Y-37392461D01*
X108964598Y-37085734D01*
X110021462Y-37061803D01*
X110430987Y-37046803D01*
X110779514Y-37023289D01*
X111031777Y-36994395D01*
X111152509Y-36963257D01*
X111155180Y-36961018D01*
X111136826Y-36865908D01*
X111008319Y-36678518D01*
X110785049Y-36420205D01*
X110702096Y-36332289D01*
X110172158Y-35780413D01*
X108964598Y-35731067D01*
X108937150Y-35443612D01*
X108949535Y-35209286D01*
X109021817Y-35085076D01*
X109138440Y-35062783D01*
X109396026Y-35043216D01*
X109766213Y-35027560D01*
X110220640Y-35017000D01*
X110389177Y-35015588D01*
X110389177Y-34678429D01*
X109942006Y-34676405D01*
X109552026Y-34667422D01*
X109251592Y-34651001D01*
X109073059Y-34626667D01*
X109056189Y-34621342D01*
X109006291Y-34581324D01*
X108970282Y-34489697D01*
X108946018Y-34322840D01*
X108931356Y-34057130D01*
X108924153Y-33668948D01*
X108922264Y-33145381D01*
X108923324Y-32622828D01*
X108928387Y-32244912D01*
X108940283Y-31986941D01*
X108961839Y-31824222D01*
X108995885Y-31732064D01*
X109045248Y-31685773D01*
X109091598Y-31667067D01*
X109316780Y-31646968D01*
X109430264Y-31667067D01*
X109502834Y-31702440D01*
X109551209Y-31773796D01*
X109580304Y-31911164D01*
X109595031Y-32144574D01*
X109600303Y-32504056D01*
X109600894Y-32709939D01*
X109607055Y-33109869D01*
X109622818Y-33452105D01*
X109645739Y-33698457D01*
X109671129Y-33807712D01*
X109752256Y-33856513D01*
X109935109Y-33885977D01*
X110241267Y-33897801D01*
X110692312Y-33893677D01*
X110749332Y-33892379D01*
X110801815Y-33891133D01*
X110801815Y-33481077D01*
X110586369Y-33455922D01*
X110464958Y-33414616D01*
X110397613Y-33339477D01*
X110368471Y-33187917D01*
X110361673Y-32917351D01*
X110361598Y-32852400D01*
X110366049Y-32555763D01*
X110389974Y-32385833D01*
X110449236Y-32300027D01*
X110559693Y-32255757D01*
X110586369Y-32248879D01*
X110828335Y-32226956D01*
X110982086Y-32318491D01*
X111061599Y-32540529D01*
X111081264Y-32852400D01*
X111054874Y-33201582D01*
X110966383Y-33405459D01*
X110801815Y-33481077D01*
X110801815Y-33891133D01*
X111758598Y-33868400D01*
X111800931Y-32819014D01*
X111826612Y-32328369D01*
X111864214Y-31985340D01*
X111923768Y-31768223D01*
X112015299Y-31655310D01*
X112148839Y-31624897D01*
X112210484Y-31634988D01*
X112210484Y-31286067D01*
X112110945Y-31238363D01*
X111906526Y-31108622D01*
X111627443Y-30916900D01*
X111317660Y-30693400D01*
X110513680Y-30100734D01*
X109774417Y-30100734D01*
X109435109Y-30094220D01*
X109162663Y-30076828D01*
X108999724Y-30051782D01*
X108974696Y-30040277D01*
X108939233Y-29920601D01*
X108939419Y-29722777D01*
X108964598Y-29465734D01*
X109754224Y-29441305D01*
X110543849Y-29416875D01*
X111327999Y-28827471D01*
X111645766Y-28594390D01*
X111918803Y-28404831D01*
X112116542Y-28279322D01*
X112205739Y-28238067D01*
X112322442Y-28304976D01*
X112452800Y-28460209D01*
X112545962Y-28635525D01*
X112562931Y-28717393D01*
X112499557Y-28812006D01*
X112330313Y-28976542D01*
X112086515Y-29181658D01*
X111973089Y-29270054D01*
X111709210Y-29475730D01*
X111506295Y-29642456D01*
X111395152Y-29744534D01*
X111383248Y-29762067D01*
X111445963Y-29828818D01*
X111613568Y-29971159D01*
X111855256Y-30163392D01*
X111973089Y-30254080D01*
X112238272Y-30467312D01*
X112441651Y-30651912D01*
X112551912Y-30778537D01*
X112562931Y-30806741D01*
X112513836Y-30961037D01*
X112400057Y-31135512D01*
X112271852Y-31261816D01*
X112210484Y-31286067D01*
X112210484Y-31634988D01*
X112334413Y-31655276D01*
X112338160Y-31656213D01*
X112562931Y-31712627D01*
X112562931Y-33091080D01*
X112557686Y-33685167D01*
X112541489Y-34120362D01*
X112513642Y-34406794D01*
X112473452Y-34554595D01*
X112461331Y-34571134D01*
X112350471Y-34600850D01*
X112102671Y-34626469D01*
X111750286Y-34647513D01*
X111325673Y-34663506D01*
X110861185Y-34673970D01*
X110389177Y-34678429D01*
X110389177Y-35015588D01*
X110730942Y-35012722D01*
X110753398Y-35012697D01*
X111357734Y-35014160D01*
X111812931Y-35023247D01*
X112139169Y-35045363D01*
X112356626Y-35085908D01*
X112485484Y-35150285D01*
X112545921Y-35243897D01*
X112558116Y-35372146D01*
X112547882Y-35493114D01*
X112526224Y-35616049D01*
X112471084Y-35688996D01*
X112344542Y-35727499D01*
X112108682Y-35747103D01*
X111906764Y-35755943D01*
X111608876Y-35775846D01*
X111390698Y-35805349D01*
X111294320Y-35838502D01*
X111292931Y-35842729D01*
X111349464Y-35924347D01*
X111502302Y-36096546D01*
X111726307Y-36331904D01*
X111927931Y-36535400D01*
X112281752Y-36913709D01*
X112496885Y-37212362D01*
X112577696Y-37442314D01*
X112528548Y-37614517D01*
X112399164Y-37717755D01*
X112266582Y-37744403D01*
X111998589Y-37766760D01*
X111629057Y-37784477D01*
X111191864Y-37797203D01*
X110720884Y-37804590D01*
X110249992Y-37806288D01*
X110249992Y-38152689D01*
X110799080Y-38144221D01*
X110907727Y-38144067D01*
X111475481Y-38144928D01*
X111895999Y-38159361D01*
X112191326Y-38205138D01*
X112383505Y-38300034D01*
X112494582Y-38461822D01*
X112546602Y-38708276D01*
X112561608Y-39057168D01*
X112561683Y-39477567D01*
X112551871Y-40013373D01*
X112511034Y-40425681D01*
X112419804Y-40730029D01*
X112258815Y-40941955D01*
X112008698Y-41076997D01*
X111650084Y-41150693D01*
X111163607Y-41178581D01*
X111163607Y-41544588D01*
X111264345Y-41543517D01*
X111732801Y-41545817D01*
X112072866Y-41561305D01*
X112304981Y-41594312D01*
X112449587Y-41649168D01*
X112527126Y-41730203D01*
X112558037Y-41841748D01*
X112562931Y-41955922D01*
X112544936Y-42080969D01*
X112471915Y-42192815D01*
X112315315Y-42317972D01*
X112046584Y-42482954D01*
X111913036Y-42559388D01*
X111619077Y-42733519D01*
X111388164Y-42884492D01*
X111255767Y-42988499D01*
X111238086Y-43012400D01*
X111294719Y-43090083D01*
X111467425Y-43228503D01*
X111725340Y-43404234D01*
X111887981Y-43505671D01*
X112209777Y-43706424D01*
X112410512Y-43852410D01*
X112517645Y-43970201D01*
X112558634Y-44086370D01*
X112562931Y-44158858D01*
X112502311Y-44393839D01*
X112399164Y-44491088D01*
X112265310Y-44518269D01*
X111996343Y-44540810D01*
X111626427Y-44558367D01*
X111189729Y-44570597D01*
X110720413Y-44577156D01*
X110252646Y-44577699D01*
X110252646Y-47106082D01*
X110360960Y-47102437D01*
X110494590Y-47099794D01*
X111843264Y-47076400D01*
X111885598Y-46568400D01*
X111927931Y-46060400D01*
X112520598Y-46060400D01*
X112520598Y-48939067D01*
X112520598Y-49794638D01*
X112541131Y-49862839D01*
X112561982Y-50156600D01*
X112563200Y-50554384D01*
X112562931Y-50695959D01*
X112551830Y-51234825D01*
X112513090Y-51632121D01*
X112438558Y-51914485D01*
X112320083Y-52108555D01*
X112149510Y-52240972D01*
X112079288Y-52276186D01*
X111915784Y-52311401D01*
X111623308Y-52338073D01*
X111239034Y-52356148D01*
X110800137Y-52365574D01*
X110343790Y-52366299D01*
X110343790Y-52833734D01*
X112520598Y-52833734D01*
X112520598Y-53426400D01*
X111906764Y-53451276D01*
X111608883Y-53470141D01*
X111390708Y-53496907D01*
X111294321Y-53526187D01*
X111292931Y-53529864D01*
X111348462Y-53608831D01*
X111498755Y-53780867D01*
X111719361Y-54018778D01*
X111927931Y-54236099D01*
X112264116Y-54602394D01*
X112473181Y-54886385D01*
X112563786Y-55106951D01*
X112544590Y-55282971D01*
X112461331Y-55399134D01*
X112350285Y-55428961D01*
X112102198Y-55454451D01*
X111749037Y-55475225D01*
X111322768Y-55490908D01*
X110855356Y-55501121D01*
X110378767Y-55505487D01*
X110378767Y-57615390D01*
X110576699Y-57616130D01*
X111520217Y-57617294D01*
X112613599Y-57617447D01*
X113451931Y-57617400D01*
X114655063Y-57617476D01*
X115700414Y-57617133D01*
X116099270Y-57616412D01*
X116099270Y-55500734D01*
X115526897Y-55500230D01*
X115100967Y-55497055D01*
X114798589Y-55488720D01*
X114596871Y-55472731D01*
X114472923Y-55446597D01*
X114403854Y-55407826D01*
X114366772Y-55353927D01*
X114349216Y-55310234D01*
X114317430Y-55087483D01*
X114340229Y-54950400D01*
X114392025Y-54864623D01*
X114495181Y-54810581D01*
X114686357Y-54778809D01*
X115002213Y-54759841D01*
X115091216Y-54756476D01*
X115780264Y-54731886D01*
X115780264Y-54059312D01*
X115785504Y-53712091D01*
X115809695Y-53483574D01*
X115865549Y-53323246D01*
X115965776Y-53180592D01*
X116015844Y-53123079D01*
X116306779Y-52910693D01*
X116462965Y-52865917D01*
X116462965Y-52452992D01*
X115990042Y-52449502D01*
X115529213Y-52440021D01*
X115114703Y-52424933D01*
X114780737Y-52404623D01*
X114561541Y-52379475D01*
X114499754Y-52362442D01*
X114376492Y-52237503D01*
X114355523Y-52020815D01*
X114357153Y-52002609D01*
X114383264Y-51733067D01*
X115043350Y-51708269D01*
X115703435Y-51683470D01*
X115022183Y-50938087D01*
X114757049Y-50642458D01*
X114540114Y-50390032D01*
X114393902Y-50207762D01*
X114340931Y-50122886D01*
X114405882Y-49983886D01*
X114553849Y-49837734D01*
X114714507Y-49749107D01*
X114753558Y-49743400D01*
X114875880Y-49799767D01*
X115073364Y-49948105D01*
X115304911Y-50157271D01*
X115322433Y-50174471D01*
X115758925Y-50605542D01*
X115801350Y-50518851D01*
X115801350Y-49325260D01*
X115347911Y-49324132D01*
X114949085Y-49316492D01*
X114636814Y-49301926D01*
X114443045Y-49280019D01*
X114397376Y-49263623D01*
X114341853Y-49118356D01*
X114343096Y-48908603D01*
X114391852Y-48712468D01*
X114474856Y-48609459D01*
X114627686Y-48583631D01*
X114908314Y-48565804D01*
X115284385Y-48555500D01*
X115723544Y-48552244D01*
X115805668Y-48552823D01*
X115805668Y-48224854D01*
X115358020Y-48222505D01*
X114967507Y-48213161D01*
X114666477Y-48196361D01*
X114487277Y-48171645D01*
X114470387Y-48166294D01*
X114373904Y-48068231D01*
X114354210Y-47856025D01*
X114357629Y-47806461D01*
X114383264Y-47499734D01*
X115440129Y-47475803D01*
X115848521Y-47461558D01*
X116194810Y-47440080D01*
X116444138Y-47414197D01*
X116561648Y-47386734D01*
X116564204Y-47384661D01*
X116540839Y-47297216D01*
X116421884Y-47119387D01*
X116229565Y-46882419D01*
X116116994Y-46756050D01*
X115602573Y-46194650D01*
X114992919Y-46169859D01*
X114383264Y-46145067D01*
X114355817Y-45857612D01*
X114368202Y-45623286D01*
X114440484Y-45499076D01*
X114557588Y-45476457D01*
X114815146Y-45456668D01*
X115184288Y-45440949D01*
X115636140Y-45430541D01*
X116123916Y-45426697D01*
X116738361Y-45429020D01*
X117203247Y-45440480D01*
X117538299Y-45466088D01*
X117548230Y-45468064D01*
X117548230Y-45072937D01*
X117364282Y-44961365D01*
X117256443Y-44704704D01*
X117220754Y-44303567D01*
X117219598Y-43986067D01*
X115997443Y-43986067D01*
X115541508Y-43980469D01*
X115130741Y-43965103D01*
X114802458Y-43942109D01*
X114593979Y-43913628D01*
X114558110Y-43903496D01*
X114380073Y-43763024D01*
X114344851Y-43534185D01*
X114392323Y-43357992D01*
X114432858Y-43307511D01*
X114525638Y-43271264D01*
X114694591Y-43247024D01*
X114963642Y-43232565D01*
X115356717Y-43225661D01*
X115556750Y-43224990D01*
X115556750Y-40599947D01*
X115106562Y-40590145D01*
X114783540Y-40552831D01*
X114566670Y-40470843D01*
X114434937Y-40327017D01*
X114367325Y-40104189D01*
X114342821Y-39785198D01*
X114340408Y-39352880D01*
X114340931Y-39117734D01*
X114343164Y-38650220D01*
X114352508Y-38321274D01*
X114372927Y-38100163D01*
X114408388Y-37956150D01*
X114462857Y-37858500D01*
X114510264Y-37805400D01*
X114608122Y-37727745D01*
X114738976Y-37677888D01*
X114939299Y-37649945D01*
X115245565Y-37638028D01*
X115559539Y-37636067D01*
X115575362Y-37636129D01*
X115575362Y-37201668D01*
X115301312Y-37193257D01*
X115113343Y-37172954D01*
X114983720Y-37138085D01*
X114884705Y-37085976D01*
X114810514Y-37031354D01*
X114608808Y-36821275D01*
X114461277Y-36584915D01*
X114381142Y-36278572D01*
X114346902Y-35879903D01*
X114357720Y-35457260D01*
X114412760Y-35078995D01*
X114482322Y-34866034D01*
X114597471Y-34654776D01*
X114731189Y-34497703D01*
X114908653Y-34387527D01*
X115155042Y-34316960D01*
X115495534Y-34278713D01*
X115955305Y-34265499D01*
X116134586Y-34266799D01*
X116134586Y-33909578D01*
X115537480Y-33907800D01*
X115089005Y-33900376D01*
X114768459Y-33882506D01*
X114555140Y-33849390D01*
X114428349Y-33796227D01*
X114367384Y-33718217D01*
X114351544Y-33610560D01*
X114357645Y-33497528D01*
X114383264Y-33191067D01*
X115440129Y-33167136D01*
X115849653Y-33152137D01*
X116198181Y-33128623D01*
X116450444Y-33099729D01*
X116571176Y-33068591D01*
X116573847Y-33066352D01*
X116555493Y-32971241D01*
X116426986Y-32783852D01*
X116203716Y-32525539D01*
X116120763Y-32437622D01*
X115590824Y-31885746D01*
X114383264Y-31836400D01*
X114355817Y-31548946D01*
X114368202Y-31314619D01*
X114440484Y-31190409D01*
X114571284Y-31160502D01*
X114835316Y-31138306D01*
X115200202Y-31123560D01*
X115633562Y-31115999D01*
X116103019Y-31115362D01*
X116576193Y-31121384D01*
X117020706Y-31133804D01*
X117042363Y-31134851D01*
X117042363Y-30781988D01*
X116671216Y-30768562D01*
X116325715Y-30736601D01*
X116049139Y-30689235D01*
X115884769Y-30629593D01*
X115863130Y-30608734D01*
X115831315Y-30477195D01*
X115805228Y-30215273D01*
X115787699Y-29861895D01*
X115781561Y-29486900D01*
X115780264Y-28492067D01*
X115102931Y-28492067D01*
X115102931Y-29552216D01*
X115101632Y-29992244D01*
X115094235Y-30293027D01*
X115075491Y-30484651D01*
X115040150Y-30597202D01*
X114982963Y-30660764D01*
X114901974Y-30703926D01*
X114670967Y-30750354D01*
X114520974Y-30699132D01*
X114453113Y-30654492D01*
X114404847Y-30587249D01*
X114372849Y-30470959D01*
X114353792Y-30279172D01*
X114344349Y-29985443D01*
X114341193Y-29563324D01*
X114340931Y-29268022D01*
X114346479Y-28681727D01*
X114363578Y-28254804D01*
X114392906Y-27977641D01*
X114435143Y-27840623D01*
X114442531Y-27831667D01*
X114563605Y-27791711D01*
X114809725Y-27760281D01*
X115136766Y-27738502D01*
X115500602Y-27727502D01*
X115857108Y-27728407D01*
X116162158Y-27742346D01*
X116371627Y-27770445D01*
X116408340Y-27781459D01*
X116464519Y-27827371D01*
X116502849Y-27932255D01*
X116526479Y-28122987D01*
X116538559Y-28426444D01*
X116542237Y-28869501D01*
X116542264Y-28924459D01*
X116542264Y-30016067D01*
X117219598Y-30016067D01*
X117219598Y-29090246D01*
X117230034Y-28552409D01*
X117264194Y-28165130D01*
X117326358Y-27910753D01*
X117420804Y-27771621D01*
X117549244Y-27730067D01*
X117702598Y-27734268D01*
X117814581Y-27762205D01*
X117891695Y-27836882D01*
X117940445Y-27981303D01*
X117967335Y-28218470D01*
X117978868Y-28571386D01*
X117981548Y-29063056D01*
X117981598Y-29259289D01*
X117981598Y-30685727D01*
X117688476Y-30740717D01*
X117395877Y-30773749D01*
X117042363Y-30781988D01*
X117042363Y-31134851D01*
X117404179Y-31152359D01*
X117694233Y-31176785D01*
X117858489Y-31206820D01*
X117879998Y-31218334D01*
X117964259Y-31386717D01*
X117974801Y-31596215D01*
X117915661Y-31770757D01*
X117847673Y-31827342D01*
X117693218Y-31855346D01*
X117434180Y-31874012D01*
X117212673Y-31878734D01*
X116946803Y-31888800D01*
X116765113Y-31914935D01*
X116711598Y-31944353D01*
X116768166Y-32027540D01*
X116921094Y-32201053D01*
X117145218Y-32437296D01*
X117346598Y-32640734D01*
X117653519Y-32957127D01*
X117849155Y-33190688D01*
X117952258Y-33367042D01*
X117981598Y-33508544D01*
X117963348Y-33641743D01*
X117895244Y-33742390D01*
X117757259Y-33814833D01*
X117529362Y-33863422D01*
X117191524Y-33892505D01*
X116723716Y-33906431D01*
X116134586Y-33909578D01*
X116134586Y-34266799D01*
X116542264Y-34269756D01*
X117939264Y-34291734D01*
X117965372Y-34606381D01*
X117972374Y-34744493D01*
X117952608Y-34846875D01*
X117884230Y-34919379D01*
X117745395Y-34967861D01*
X117514257Y-34998176D01*
X117168972Y-35016179D01*
X116687696Y-35027724D01*
X116372931Y-35033177D01*
X115145264Y-35053734D01*
X115120127Y-35680530D01*
X115119098Y-36032339D01*
X115144837Y-36286359D01*
X115187558Y-36400196D01*
X115307323Y-36438607D01*
X115573983Y-36474489D01*
X115965103Y-36505707D01*
X116458245Y-36530130D01*
X116609695Y-36535400D01*
X117939264Y-36577734D01*
X117939264Y-37170400D01*
X116492648Y-37193507D01*
X115963229Y-37200860D01*
X115575362Y-37201668D01*
X115575362Y-37636129D01*
X115979489Y-37637733D01*
X116258805Y-37659250D01*
X116426116Y-37725397D01*
X116510048Y-37860954D01*
X116539232Y-38090701D01*
X116542293Y-38439416D01*
X116542264Y-38486680D01*
X116518066Y-38870174D01*
X116436768Y-39107025D01*
X116285316Y-39214093D01*
X116050658Y-39208238D01*
X115993668Y-39195271D01*
X115858989Y-39139965D01*
X115796764Y-39028954D01*
X115780408Y-38809243D01*
X115780264Y-38769889D01*
X115773388Y-38539451D01*
X115728228Y-38431699D01*
X115607986Y-38399992D01*
X115486910Y-38398067D01*
X115245791Y-38440943D01*
X115098451Y-38584759D01*
X115029520Y-38852296D01*
X115019421Y-39091001D01*
X115022454Y-39395102D01*
X115047154Y-39603483D01*
X115120317Y-39733384D01*
X115268738Y-39802043D01*
X115519214Y-39826699D01*
X115898541Y-39824591D01*
X116150632Y-39818755D01*
X117177264Y-39795067D01*
X117202006Y-39138164D01*
X117211559Y-38806788D01*
X117202580Y-38604955D01*
X117164860Y-38493079D01*
X117088190Y-38431573D01*
X117011506Y-38399426D01*
X116868863Y-38316737D01*
X116807472Y-38175684D01*
X116796264Y-37976829D01*
X116796264Y-37636067D01*
X117181113Y-37636067D01*
X117479063Y-37665138D01*
X117691341Y-37770198D01*
X117773780Y-37843885D01*
X117860595Y-37939680D01*
X117919136Y-38043869D01*
X117954954Y-38190068D01*
X117973598Y-38411893D01*
X117980619Y-38742959D01*
X117981598Y-39102467D01*
X117978749Y-39552095D01*
X117967057Y-39866672D01*
X117941809Y-40080428D01*
X117898287Y-40227597D01*
X117831776Y-40342408D01*
X117806119Y-40376316D01*
X117630641Y-40599400D01*
X116155119Y-40599400D01*
X115556750Y-40599947D01*
X115556750Y-43224990D01*
X115831656Y-43224067D01*
X117219598Y-43224067D01*
X117220754Y-42864234D01*
X117245819Y-42460622D01*
X117325536Y-42204815D01*
X117471340Y-42080894D01*
X117694667Y-42072937D01*
X117776659Y-42090321D01*
X117981598Y-42141758D01*
X117981598Y-43566207D01*
X117980538Y-44088735D01*
X117975474Y-44466627D01*
X117963577Y-44724577D01*
X117942018Y-44887277D01*
X117907968Y-44979422D01*
X117858598Y-45025704D01*
X117812264Y-45044400D01*
X117548230Y-45072937D01*
X117548230Y-45468064D01*
X117763241Y-45510857D01*
X117897798Y-45579800D01*
X117961693Y-45677929D01*
X117974652Y-45810256D01*
X117967695Y-45895242D01*
X117946511Y-46024196D01*
X117894222Y-46100540D01*
X117772863Y-46140512D01*
X117544474Y-46160349D01*
X117325431Y-46169943D01*
X117027550Y-46188808D01*
X116809374Y-46215574D01*
X116712988Y-46244853D01*
X116711598Y-46248531D01*
X116767129Y-46327498D01*
X116917421Y-46499533D01*
X117138027Y-46737445D01*
X117346598Y-46954765D01*
X117682782Y-47321061D01*
X117891848Y-47605052D01*
X117982453Y-47825618D01*
X117963257Y-48001638D01*
X117879998Y-48117800D01*
X117768815Y-48147765D01*
X117520688Y-48173493D01*
X117167963Y-48194527D01*
X116742986Y-48210405D01*
X116278106Y-48220667D01*
X115805668Y-48224854D01*
X115805668Y-48552823D01*
X116193436Y-48555557D01*
X116661705Y-48564962D01*
X117095997Y-48579983D01*
X117463957Y-48600142D01*
X117733229Y-48624963D01*
X117871458Y-48653967D01*
X117879998Y-48659667D01*
X117970791Y-48853088D01*
X117957273Y-49082563D01*
X117879998Y-49218467D01*
X117769702Y-49247714D01*
X117522357Y-49272934D01*
X117169905Y-49293713D01*
X116744291Y-49309636D01*
X116277458Y-49320290D01*
X115801350Y-49325260D01*
X115801350Y-50518851D01*
X115917762Y-50280973D01*
X116115873Y-49990724D01*
X116384814Y-49819722D01*
X116759372Y-49749118D01*
X116907664Y-49744649D01*
X117320567Y-49784336D01*
X117626792Y-49918160D01*
X117831549Y-50113143D01*
X117895912Y-50221469D01*
X117938981Y-50379377D01*
X117964690Y-50618927D01*
X117976970Y-50972176D01*
X117979715Y-51321026D01*
X117979102Y-51752794D01*
X117971948Y-52044719D01*
X117953096Y-52226286D01*
X117917390Y-52326979D01*
X117859672Y-52376283D01*
X117791098Y-52399370D01*
X117612049Y-52423681D01*
X117308194Y-52440466D01*
X116913758Y-52450108D01*
X116462965Y-52452992D01*
X116462965Y-52865917D01*
X116669695Y-52806649D01*
X117057124Y-52807745D01*
X117421597Y-52910781D01*
X117715645Y-53112556D01*
X117818501Y-53244629D01*
X117895440Y-53402196D01*
X117944397Y-53597132D01*
X117970975Y-53869350D01*
X117980775Y-54258758D01*
X117981281Y-54404300D01*
X117970965Y-54884771D01*
X117940195Y-55215113D01*
X117889829Y-55386910D01*
X117879998Y-55399134D01*
X117778505Y-55438084D01*
X117554422Y-55467034D01*
X117195812Y-55486666D01*
X116690737Y-55497661D01*
X116099270Y-55500734D01*
X116099270Y-57616412D01*
X116599538Y-57615506D01*
X117363987Y-57611735D01*
X118005314Y-57604956D01*
X118535071Y-57594309D01*
X118964811Y-57578932D01*
X119306086Y-57557962D01*
X119570449Y-57530539D01*
X119769453Y-57495799D01*
X119914651Y-57452880D01*
X120017594Y-57400922D01*
X120089836Y-57339063D01*
X120142929Y-57266439D01*
X120188426Y-57182190D01*
X120223831Y-57112172D01*
X120239871Y-57067009D01*
X120254540Y-56991486D01*
X120267899Y-56878407D01*
X120280006Y-56720580D01*
X120290923Y-56510810D01*
X120300708Y-56241903D01*
X120309420Y-55906667D01*
X120317120Y-55497905D01*
X120323868Y-55008426D01*
X120329722Y-54431035D01*
X120334743Y-53758538D01*
X120338989Y-52983741D01*
X120342521Y-52099451D01*
X120345399Y-51098473D01*
X120347681Y-49973613D01*
X120349428Y-48717679D01*
X120350699Y-47323475D01*
X120351554Y-45783808D01*
X120352052Y-44091485D01*
X120352253Y-42239310D01*
X120352264Y-41615400D01*
X120352400Y-39703896D01*
X120352656Y-37954464D01*
X120352799Y-36359841D01*
X120352600Y-34912768D01*
X120352600Y-34912768D01*
G37*
X120352600Y-34912768D02*
X120351827Y-33605983D01*
X120350248Y-32432223D01*
X120347632Y-31384229D01*
X120343749Y-30454739D01*
X120338367Y-29636491D01*
X120331255Y-28922224D01*
X120322182Y-28304676D01*
X120310917Y-27776588D01*
X120297229Y-27330696D01*
X120280887Y-26959740D01*
X120261659Y-26656458D01*
X120239315Y-26413590D01*
X120213623Y-26223873D01*
X120184352Y-26080047D01*
X120151271Y-25974850D01*
X120114150Y-25901021D01*
X120072756Y-25851298D01*
X120026859Y-25818421D01*
X119976228Y-25795127D01*
X119920631Y-25774156D01*
X119859837Y-25748247D01*
X119847036Y-25741834D01*
X119709895Y-25714662D01*
X119420098Y-25690302D01*
X118994297Y-25668752D01*
X118449148Y-25650013D01*
X117801302Y-25634085D01*
X117067415Y-25620968D01*
X116264138Y-25610662D01*
X115408127Y-25603166D01*
X114516034Y-25598482D01*
X113604512Y-25596608D01*
X112690217Y-25597545D01*
X111789800Y-25601293D01*
X110919916Y-25607852D01*
X110097218Y-25617222D01*
X109338359Y-25629402D01*
X108659994Y-25644394D01*
X108078775Y-25662196D01*
X107611357Y-25682809D01*
X107274393Y-25706233D01*
X107084536Y-25732468D01*
X107056826Y-25741834D01*
X106994987Y-25769584D01*
X106938385Y-25790928D01*
X106886791Y-25813123D01*
X106839975Y-25843427D01*
X106797710Y-25889096D01*
X106759765Y-25957389D01*
X106725911Y-26055561D01*
X106695919Y-26190870D01*
X106669561Y-26370573D01*
X106646606Y-26601927D01*
X106626825Y-26892191D01*
X106609990Y-27248620D01*
X106595872Y-27678471D01*
X106584240Y-28189003D01*
X106574866Y-28787472D01*
X106567521Y-29481135D01*
X106561975Y-30277250D01*
X106557999Y-31183074D01*
X106555365Y-32205863D01*
X106553842Y-33352875D01*
X106553202Y-34631368D01*
X106553215Y-36048597D01*
X106553653Y-37611822D01*
X106554286Y-39328298D01*
X106554885Y-41205283D01*
X106554988Y-41632363D01*
X106555539Y-43541459D01*
X106556349Y-45288355D01*
X106557477Y-46880182D01*
X106558981Y-48324073D01*
X106560921Y-49627159D01*
X106563358Y-50796575D01*
X106566350Y-51839451D01*
X106569956Y-52762920D01*
X106574237Y-53574115D01*
X106579251Y-54280167D01*
X106585059Y-54888210D01*
X106591718Y-55405375D01*
X106599290Y-55838795D01*
X106607833Y-56195602D01*
X106617407Y-56482928D01*
X106628071Y-56707907D01*
X106639885Y-56877669D01*
X106652907Y-56999348D01*
X106667199Y-57080075D01*
X106682818Y-57126984D01*
X106684134Y-57129503D01*
X106732315Y-57219710D01*
X106779946Y-57298064D01*
X106838597Y-57365397D01*
X106919838Y-57422544D01*
X107035241Y-57470340D01*
X107196375Y-57509617D01*
X107414810Y-57541211D01*
X107702118Y-57565956D01*
X108069867Y-57584685D01*
X108529630Y-57598233D01*
X109092976Y-57607434D01*
X109771475Y-57613121D01*
X110378767Y-57615390D01*
X110378767Y-55505487D01*
X109924968Y-55503631D01*
X109525924Y-55495174D01*
X109213601Y-55479739D01*
X109019965Y-55456951D01*
X108974679Y-55440260D01*
X108940747Y-55322598D01*
X108936997Y-55113710D01*
X108939402Y-55080427D01*
X108964598Y-54781067D01*
X110086431Y-54757443D01*
X110499928Y-54744410D01*
X110844509Y-54725307D01*
X111089089Y-54702484D01*
X111202580Y-54678289D01*
X111206872Y-54672776D01*
X111153129Y-54586455D01*
X111010759Y-54408028D01*
X110806034Y-54169778D01*
X110709361Y-54061400D01*
X110213243Y-53511067D01*
X109588920Y-53468734D01*
X108964598Y-53426400D01*
X108964598Y-52833734D01*
X110343790Y-52833734D01*
X110343790Y-52366299D01*
X109907168Y-52358270D01*
X109527444Y-52341434D01*
X109241793Y-52315739D01*
X109087390Y-52281132D01*
X109086032Y-52280422D01*
X109019521Y-52231302D01*
X108973830Y-52148533D01*
X108945113Y-52003438D01*
X108929523Y-51767343D01*
X108923217Y-51411573D01*
X108922264Y-51059251D01*
X108923721Y-50599291D01*
X108931570Y-50275458D01*
X108951033Y-50054547D01*
X108987330Y-49903356D01*
X109045683Y-49788682D01*
X109131311Y-49677322D01*
X109141457Y-49665230D01*
X109360650Y-49404734D01*
X110806957Y-49404734D01*
X111394394Y-49404364D01*
X111833974Y-49413729D01*
X112147067Y-49448545D01*
X112355044Y-49524526D01*
X112479275Y-49657385D01*
X112520598Y-49794638D01*
X112520598Y-48939067D01*
X111927931Y-48939067D01*
X111902724Y-48409900D01*
X111877518Y-47880734D01*
X110501491Y-47880734D01*
X109907837Y-47875473D01*
X109473100Y-47859228D01*
X109187176Y-47831303D01*
X109039961Y-47791004D01*
X109023864Y-47779134D01*
X108934154Y-47591758D01*
X108942946Y-47369814D01*
X109034090Y-47215994D01*
X109163403Y-47178136D01*
X109441397Y-47145497D01*
X109847454Y-47119717D01*
X110252646Y-47106082D01*
X110252646Y-44577699D01*
X109820591Y-44571883D01*
X109458416Y-44559365D01*
X109200284Y-44539800D01*
X109108312Y-44524205D01*
X108978311Y-44461456D01*
X108933538Y-44332371D01*
X108938978Y-44165528D01*
X108964598Y-43859067D01*
X109895931Y-43816734D01*
X110827264Y-43774400D01*
X110382764Y-43448958D01*
X110153865Y-43265523D01*
X109993403Y-43106666D01*
X109938264Y-43013284D01*
X110004716Y-42912853D01*
X110177596Y-42762199D01*
X110381633Y-42619060D01*
X110825001Y-42335067D01*
X109894799Y-42292734D01*
X108964598Y-42250400D01*
X108964598Y-41573067D01*
X110647058Y-41550076D01*
X111163607Y-41544588D01*
X111163607Y-41178581D01*
X110529898Y-41176200D01*
X110446264Y-41174679D01*
X109986141Y-41161815D01*
X109582395Y-41142787D01*
X109266995Y-41119700D01*
X109071909Y-41094661D01*
X109028098Y-41081237D01*
X108986721Y-40973137D01*
X108954994Y-40733638D01*
X108933196Y-40400415D01*
X108921606Y-40011143D01*
X108920503Y-39603497D01*
X108930167Y-39215152D01*
X108950875Y-38883782D01*
X108982908Y-38647063D01*
X109009441Y-38562711D01*
X109114693Y-38414413D01*
X109265214Y-38304579D01*
X109484960Y-38227925D01*
X109797884Y-38179170D01*
X110227939Y-38153029D01*
X110249992Y-38152689D01*
X110249992Y-37806288D01*
X109813063Y-37801947D01*
X109443972Y-37791218D01*
X109176594Y-37773751D01*
X109051721Y-37752294D01*
X108955237Y-37654231D01*
X108935543Y-37442025D01*
X108938962Y-37392461D01*
X108964598Y-37085734D01*
X110021462Y-37061803D01*
X110430987Y-37046803D01*
X110779514Y-37023289D01*
X111031777Y-36994395D01*
X111152509Y-36963257D01*
X111155180Y-36961018D01*
X111136826Y-36865908D01*
X111008319Y-36678518D01*
X110785049Y-36420205D01*
X110702096Y-36332289D01*
X110172158Y-35780413D01*
X108964598Y-35731067D01*
X108937150Y-35443612D01*
X108949535Y-35209286D01*
X109021817Y-35085076D01*
X109138440Y-35062783D01*
X109396026Y-35043216D01*
X109766213Y-35027560D01*
X110220640Y-35017000D01*
X110389177Y-35015588D01*
X110389177Y-34678429D01*
X109942006Y-34676405D01*
X109552026Y-34667422D01*
X109251592Y-34651001D01*
X109073059Y-34626667D01*
X109056189Y-34621342D01*
X109006291Y-34581324D01*
X108970282Y-34489697D01*
X108946018Y-34322840D01*
X108931356Y-34057130D01*
X108924153Y-33668948D01*
X108922264Y-33145381D01*
X108923324Y-32622828D01*
X108928387Y-32244912D01*
X108940283Y-31986941D01*
X108961839Y-31824222D01*
X108995885Y-31732064D01*
X109045248Y-31685773D01*
X109091598Y-31667067D01*
X109316780Y-31646968D01*
X109430264Y-31667067D01*
X109502834Y-31702440D01*
X109551209Y-31773796D01*
X109580304Y-31911164D01*
X109595031Y-32144574D01*
X109600303Y-32504056D01*
X109600894Y-32709939D01*
X109607055Y-33109869D01*
X109622818Y-33452105D01*
X109645739Y-33698457D01*
X109671129Y-33807712D01*
X109752256Y-33856513D01*
X109935109Y-33885977D01*
X110241267Y-33897801D01*
X110692312Y-33893677D01*
X110749332Y-33892379D01*
X110801815Y-33891133D01*
X110801815Y-33481077D01*
X110586369Y-33455922D01*
X110464958Y-33414616D01*
X110397613Y-33339477D01*
X110368471Y-33187917D01*
X110361673Y-32917351D01*
X110361598Y-32852400D01*
X110366049Y-32555763D01*
X110389974Y-32385833D01*
X110449236Y-32300027D01*
X110559693Y-32255757D01*
X110586369Y-32248879D01*
X110828335Y-32226956D01*
X110982086Y-32318491D01*
X111061599Y-32540529D01*
X111081264Y-32852400D01*
X111054874Y-33201582D01*
X110966383Y-33405459D01*
X110801815Y-33481077D01*
X110801815Y-33891133D01*
X111758598Y-33868400D01*
X111800931Y-32819014D01*
X111826612Y-32328369D01*
X111864214Y-31985340D01*
X111923768Y-31768223D01*
X112015299Y-31655310D01*
X112148839Y-31624897D01*
X112210484Y-31634988D01*
X112210484Y-31286067D01*
X112110945Y-31238363D01*
X111906526Y-31108622D01*
X111627443Y-30916900D01*
X111317660Y-30693400D01*
X110513680Y-30100734D01*
X109774417Y-30100734D01*
X109435109Y-30094220D01*
X109162663Y-30076828D01*
X108999724Y-30051782D01*
X108974696Y-30040277D01*
X108939233Y-29920601D01*
X108939419Y-29722777D01*
X108964598Y-29465734D01*
X109754224Y-29441305D01*
X110543849Y-29416875D01*
X111327999Y-28827471D01*
X111645766Y-28594390D01*
X111918803Y-28404831D01*
X112116542Y-28279322D01*
X112205739Y-28238067D01*
X112322442Y-28304976D01*
X112452800Y-28460209D01*
X112545962Y-28635525D01*
X112562931Y-28717393D01*
X112499557Y-28812006D01*
X112330313Y-28976542D01*
X112086515Y-29181658D01*
X111973089Y-29270054D01*
X111709210Y-29475730D01*
X111506295Y-29642456D01*
X111395152Y-29744534D01*
X111383248Y-29762067D01*
X111445963Y-29828818D01*
X111613568Y-29971159D01*
X111855256Y-30163392D01*
X111973089Y-30254080D01*
X112238272Y-30467312D01*
X112441651Y-30651912D01*
X112551912Y-30778537D01*
X112562931Y-30806741D01*
X112513836Y-30961037D01*
X112400057Y-31135512D01*
X112271852Y-31261816D01*
X112210484Y-31286067D01*
X112210484Y-31634988D01*
X112334413Y-31655276D01*
X112338160Y-31656213D01*
X112562931Y-31712627D01*
X112562931Y-33091080D01*
X112557686Y-33685167D01*
X112541489Y-34120362D01*
X112513642Y-34406794D01*
X112473452Y-34554595D01*
X112461331Y-34571134D01*
X112350471Y-34600850D01*
X112102671Y-34626469D01*
X111750286Y-34647513D01*
X111325673Y-34663506D01*
X110861185Y-34673970D01*
X110389177Y-34678429D01*
X110389177Y-35015588D01*
X110730942Y-35012722D01*
X110753398Y-35012697D01*
X111357734Y-35014160D01*
X111812931Y-35023247D01*
X112139169Y-35045363D01*
X112356626Y-35085908D01*
X112485484Y-35150285D01*
X112545921Y-35243897D01*
X112558116Y-35372146D01*
X112547882Y-35493114D01*
X112526224Y-35616049D01*
X112471084Y-35688996D01*
X112344542Y-35727499D01*
X112108682Y-35747103D01*
X111906764Y-35755943D01*
X111608876Y-35775846D01*
X111390698Y-35805349D01*
X111294320Y-35838502D01*
X111292931Y-35842729D01*
X111349464Y-35924347D01*
X111502302Y-36096546D01*
X111726307Y-36331904D01*
X111927931Y-36535400D01*
X112281752Y-36913709D01*
X112496885Y-37212362D01*
X112577696Y-37442314D01*
X112528548Y-37614517D01*
X112399164Y-37717755D01*
X112266582Y-37744403D01*
X111998589Y-37766760D01*
X111629057Y-37784477D01*
X111191864Y-37797203D01*
X110720884Y-37804590D01*
X110249992Y-37806288D01*
X110249992Y-38152689D01*
X110799080Y-38144221D01*
X110907727Y-38144067D01*
X111475481Y-38144928D01*
X111895999Y-38159361D01*
X112191326Y-38205138D01*
X112383505Y-38300034D01*
X112494582Y-38461822D01*
X112546602Y-38708276D01*
X112561608Y-39057168D01*
X112561683Y-39477567D01*
X112551871Y-40013373D01*
X112511034Y-40425681D01*
X112419804Y-40730029D01*
X112258815Y-40941955D01*
X112008698Y-41076997D01*
X111650084Y-41150693D01*
X111163607Y-41178581D01*
X111163607Y-41544588D01*
X111264345Y-41543517D01*
X111732801Y-41545817D01*
X112072866Y-41561305D01*
X112304981Y-41594312D01*
X112449587Y-41649168D01*
X112527126Y-41730203D01*
X112558037Y-41841748D01*
X112562931Y-41955922D01*
X112544936Y-42080969D01*
X112471915Y-42192815D01*
X112315315Y-42317972D01*
X112046584Y-42482954D01*
X111913036Y-42559388D01*
X111619077Y-42733519D01*
X111388164Y-42884492D01*
X111255767Y-42988499D01*
X111238086Y-43012400D01*
X111294719Y-43090083D01*
X111467425Y-43228503D01*
X111725340Y-43404234D01*
X111887981Y-43505671D01*
X112209777Y-43706424D01*
X112410512Y-43852410D01*
X112517645Y-43970201D01*
X112558634Y-44086370D01*
X112562931Y-44158858D01*
X112502311Y-44393839D01*
X112399164Y-44491088D01*
X112265310Y-44518269D01*
X111996343Y-44540810D01*
X111626427Y-44558367D01*
X111189729Y-44570597D01*
X110720413Y-44577156D01*
X110252646Y-44577699D01*
X110252646Y-47106082D01*
X110360960Y-47102437D01*
X110494590Y-47099794D01*
X111843264Y-47076400D01*
X111885598Y-46568400D01*
X111927931Y-46060400D01*
X112520598Y-46060400D01*
X112520598Y-48939067D01*
X112520598Y-49794638D01*
X112541131Y-49862839D01*
X112561982Y-50156600D01*
X112563200Y-50554384D01*
X112562931Y-50695959D01*
X112551830Y-51234825D01*
X112513090Y-51632121D01*
X112438558Y-51914485D01*
X112320083Y-52108555D01*
X112149510Y-52240972D01*
X112079288Y-52276186D01*
X111915784Y-52311401D01*
X111623308Y-52338073D01*
X111239034Y-52356148D01*
X110800137Y-52365574D01*
X110343790Y-52366299D01*
X110343790Y-52833734D01*
X112520598Y-52833734D01*
X112520598Y-53426400D01*
X111906764Y-53451276D01*
X111608883Y-53470141D01*
X111390708Y-53496907D01*
X111294321Y-53526187D01*
X111292931Y-53529864D01*
X111348462Y-53608831D01*
X111498755Y-53780867D01*
X111719361Y-54018778D01*
X111927931Y-54236099D01*
X112264116Y-54602394D01*
X112473181Y-54886385D01*
X112563786Y-55106951D01*
X112544590Y-55282971D01*
X112461331Y-55399134D01*
X112350285Y-55428961D01*
X112102198Y-55454451D01*
X111749037Y-55475225D01*
X111322768Y-55490908D01*
X110855356Y-55501121D01*
X110378767Y-55505487D01*
X110378767Y-57615390D01*
X110576699Y-57616130D01*
X111520217Y-57617294D01*
X112613599Y-57617447D01*
X113451931Y-57617400D01*
X114655063Y-57617476D01*
X115700414Y-57617133D01*
X116099270Y-57616412D01*
X116099270Y-55500734D01*
X115526897Y-55500230D01*
X115100967Y-55497055D01*
X114798589Y-55488720D01*
X114596871Y-55472731D01*
X114472923Y-55446597D01*
X114403854Y-55407826D01*
X114366772Y-55353927D01*
X114349216Y-55310234D01*
X114317430Y-55087483D01*
X114340229Y-54950400D01*
X114392025Y-54864623D01*
X114495181Y-54810581D01*
X114686357Y-54778809D01*
X115002213Y-54759841D01*
X115091216Y-54756476D01*
X115780264Y-54731886D01*
X115780264Y-54059312D01*
X115785504Y-53712091D01*
X115809695Y-53483574D01*
X115865549Y-53323246D01*
X115965776Y-53180592D01*
X116015844Y-53123079D01*
X116306779Y-52910693D01*
X116462965Y-52865917D01*
X116462965Y-52452992D01*
X115990042Y-52449502D01*
X115529213Y-52440021D01*
X115114703Y-52424933D01*
X114780737Y-52404623D01*
X114561541Y-52379475D01*
X114499754Y-52362442D01*
X114376492Y-52237503D01*
X114355523Y-52020815D01*
X114357153Y-52002609D01*
X114383264Y-51733067D01*
X115043350Y-51708269D01*
X115703435Y-51683470D01*
X115022183Y-50938087D01*
X114757049Y-50642458D01*
X114540114Y-50390032D01*
X114393902Y-50207762D01*
X114340931Y-50122886D01*
X114405882Y-49983886D01*
X114553849Y-49837734D01*
X114714507Y-49749107D01*
X114753558Y-49743400D01*
X114875880Y-49799767D01*
X115073364Y-49948105D01*
X115304911Y-50157271D01*
X115322433Y-50174471D01*
X115758925Y-50605542D01*
X115801350Y-50518851D01*
X115801350Y-49325260D01*
X115347911Y-49324132D01*
X114949085Y-49316492D01*
X114636814Y-49301926D01*
X114443045Y-49280019D01*
X114397376Y-49263623D01*
X114341853Y-49118356D01*
X114343096Y-48908603D01*
X114391852Y-48712468D01*
X114474856Y-48609459D01*
X114627686Y-48583631D01*
X114908314Y-48565804D01*
X115284385Y-48555500D01*
X115723544Y-48552244D01*
X115805668Y-48552823D01*
X115805668Y-48224854D01*
X115358020Y-48222505D01*
X114967507Y-48213161D01*
X114666477Y-48196361D01*
X114487277Y-48171645D01*
X114470387Y-48166294D01*
X114373904Y-48068231D01*
X114354210Y-47856025D01*
X114357629Y-47806461D01*
X114383264Y-47499734D01*
X115440129Y-47475803D01*
X115848521Y-47461558D01*
X116194810Y-47440080D01*
X116444138Y-47414197D01*
X116561648Y-47386734D01*
X116564204Y-47384661D01*
X116540839Y-47297216D01*
X116421884Y-47119387D01*
X116229565Y-46882419D01*
X116116994Y-46756050D01*
X115602573Y-46194650D01*
X114992919Y-46169859D01*
X114383264Y-46145067D01*
X114355817Y-45857612D01*
X114368202Y-45623286D01*
X114440484Y-45499076D01*
X114557588Y-45476457D01*
X114815146Y-45456668D01*
X115184288Y-45440949D01*
X115636140Y-45430541D01*
X116123916Y-45426697D01*
X116738361Y-45429020D01*
X117203247Y-45440480D01*
X117538299Y-45466088D01*
X117548230Y-45468064D01*
X117548230Y-45072937D01*
X117364282Y-44961365D01*
X117256443Y-44704704D01*
X117220754Y-44303567D01*
X117219598Y-43986067D01*
X115997443Y-43986067D01*
X115541508Y-43980469D01*
X115130741Y-43965103D01*
X114802458Y-43942109D01*
X114593979Y-43913628D01*
X114558110Y-43903496D01*
X114380073Y-43763024D01*
X114344851Y-43534185D01*
X114392323Y-43357992D01*
X114432858Y-43307511D01*
X114525638Y-43271264D01*
X114694591Y-43247024D01*
X114963642Y-43232565D01*
X115356717Y-43225661D01*
X115556750Y-43224990D01*
X115556750Y-40599947D01*
X115106562Y-40590145D01*
X114783540Y-40552831D01*
X114566670Y-40470843D01*
X114434937Y-40327017D01*
X114367325Y-40104189D01*
X114342821Y-39785198D01*
X114340408Y-39352880D01*
X114340931Y-39117734D01*
X114343164Y-38650220D01*
X114352508Y-38321274D01*
X114372927Y-38100163D01*
X114408388Y-37956150D01*
X114462857Y-37858500D01*
X114510264Y-37805400D01*
X114608122Y-37727745D01*
X114738976Y-37677888D01*
X114939299Y-37649945D01*
X115245565Y-37638028D01*
X115559539Y-37636067D01*
X115575362Y-37636129D01*
X115575362Y-37201668D01*
X115301312Y-37193257D01*
X115113343Y-37172954D01*
X114983720Y-37138085D01*
X114884705Y-37085976D01*
X114810514Y-37031354D01*
X114608808Y-36821275D01*
X114461277Y-36584915D01*
X114381142Y-36278572D01*
X114346902Y-35879903D01*
X114357720Y-35457260D01*
X114412760Y-35078995D01*
X114482322Y-34866034D01*
X114597471Y-34654776D01*
X114731189Y-34497703D01*
X114908653Y-34387527D01*
X115155042Y-34316960D01*
X115495534Y-34278713D01*
X115955305Y-34265499D01*
X116134586Y-34266799D01*
X116134586Y-33909578D01*
X115537480Y-33907800D01*
X115089005Y-33900376D01*
X114768459Y-33882506D01*
X114555140Y-33849390D01*
X114428349Y-33796227D01*
X114367384Y-33718217D01*
X114351544Y-33610560D01*
X114357645Y-33497528D01*
X114383264Y-33191067D01*
X115440129Y-33167136D01*
X115849653Y-33152137D01*
X116198181Y-33128623D01*
X116450444Y-33099729D01*
X116571176Y-33068591D01*
X116573847Y-33066352D01*
X116555493Y-32971241D01*
X116426986Y-32783852D01*
X116203716Y-32525539D01*
X116120763Y-32437622D01*
X115590824Y-31885746D01*
X114383264Y-31836400D01*
X114355817Y-31548946D01*
X114368202Y-31314619D01*
X114440484Y-31190409D01*
X114571284Y-31160502D01*
X114835316Y-31138306D01*
X115200202Y-31123560D01*
X115633562Y-31115999D01*
X116103019Y-31115362D01*
X116576193Y-31121384D01*
X117020706Y-31133804D01*
X117042363Y-31134851D01*
X117042363Y-30781988D01*
X116671216Y-30768562D01*
X116325715Y-30736601D01*
X116049139Y-30689235D01*
X115884769Y-30629593D01*
X115863130Y-30608734D01*
X115831315Y-30477195D01*
X115805228Y-30215273D01*
X115787699Y-29861895D01*
X115781561Y-29486900D01*
X115780264Y-28492067D01*
X115102931Y-28492067D01*
X115102931Y-29552216D01*
X115101632Y-29992244D01*
X115094235Y-30293027D01*
X115075491Y-30484651D01*
X115040150Y-30597202D01*
X114982963Y-30660764D01*
X114901974Y-30703926D01*
X114670967Y-30750354D01*
X114520974Y-30699132D01*
X114453113Y-30654492D01*
X114404847Y-30587249D01*
X114372849Y-30470959D01*
X114353792Y-30279172D01*
X114344349Y-29985443D01*
X114341193Y-29563324D01*
X114340931Y-29268022D01*
X114346479Y-28681727D01*
X114363578Y-28254804D01*
X114392906Y-27977641D01*
X114435143Y-27840623D01*
X114442531Y-27831667D01*
X114563605Y-27791711D01*
X114809725Y-27760281D01*
X115136766Y-27738502D01*
X115500602Y-27727502D01*
X115857108Y-27728407D01*
X116162158Y-27742346D01*
X116371627Y-27770445D01*
X116408340Y-27781459D01*
X116464519Y-27827371D01*
X116502849Y-27932255D01*
X116526479Y-28122987D01*
X116538559Y-28426444D01*
X116542237Y-28869501D01*
X116542264Y-28924459D01*
X116542264Y-30016067D01*
X117219598Y-30016067D01*
X117219598Y-29090246D01*
X117230034Y-28552409D01*
X117264194Y-28165130D01*
X117326358Y-27910753D01*
X117420804Y-27771621D01*
X117549244Y-27730067D01*
X117702598Y-27734268D01*
X117814581Y-27762205D01*
X117891695Y-27836882D01*
X117940445Y-27981303D01*
X117967335Y-28218470D01*
X117978868Y-28571386D01*
X117981548Y-29063056D01*
X117981598Y-29259289D01*
X117981598Y-30685727D01*
X117688476Y-30740717D01*
X117395877Y-30773749D01*
X117042363Y-30781988D01*
X117042363Y-31134851D01*
X117404179Y-31152359D01*
X117694233Y-31176785D01*
X117858489Y-31206820D01*
X117879998Y-31218334D01*
X117964259Y-31386717D01*
X117974801Y-31596215D01*
X117915661Y-31770757D01*
X117847673Y-31827342D01*
X117693218Y-31855346D01*
X117434180Y-31874012D01*
X117212673Y-31878734D01*
X116946803Y-31888800D01*
X116765113Y-31914935D01*
X116711598Y-31944353D01*
X116768166Y-32027540D01*
X116921094Y-32201053D01*
X117145218Y-32437296D01*
X117346598Y-32640734D01*
X117653519Y-32957127D01*
X117849155Y-33190688D01*
X117952258Y-33367042D01*
X117981598Y-33508544D01*
X117963348Y-33641743D01*
X117895244Y-33742390D01*
X117757259Y-33814833D01*
X117529362Y-33863422D01*
X117191524Y-33892505D01*
X116723716Y-33906431D01*
X116134586Y-33909578D01*
X116134586Y-34266799D01*
X116542264Y-34269756D01*
X117939264Y-34291734D01*
X117965372Y-34606381D01*
X117972374Y-34744493D01*
X117952608Y-34846875D01*
X117884230Y-34919379D01*
X117745395Y-34967861D01*
X117514257Y-34998176D01*
X117168972Y-35016179D01*
X116687696Y-35027724D01*
X116372931Y-35033177D01*
X115145264Y-35053734D01*
X115120127Y-35680530D01*
X115119098Y-36032339D01*
X115144837Y-36286359D01*
X115187558Y-36400196D01*
X115307323Y-36438607D01*
X115573983Y-36474489D01*
X115965103Y-36505707D01*
X116458245Y-36530130D01*
X116609695Y-36535400D01*
X117939264Y-36577734D01*
X117939264Y-37170400D01*
X116492648Y-37193507D01*
X115963229Y-37200860D01*
X115575362Y-37201668D01*
X115575362Y-37636129D01*
X115979489Y-37637733D01*
X116258805Y-37659250D01*
X116426116Y-37725397D01*
X116510048Y-37860954D01*
X116539232Y-38090701D01*
X116542293Y-38439416D01*
X116542264Y-38486680D01*
X116518066Y-38870174D01*
X116436768Y-39107025D01*
X116285316Y-39214093D01*
X116050658Y-39208238D01*
X115993668Y-39195271D01*
X115858989Y-39139965D01*
X115796764Y-39028954D01*
X115780408Y-38809243D01*
X115780264Y-38769889D01*
X115773388Y-38539451D01*
X115728228Y-38431699D01*
X115607986Y-38399992D01*
X115486910Y-38398067D01*
X115245791Y-38440943D01*
X115098451Y-38584759D01*
X115029520Y-38852296D01*
X115019421Y-39091001D01*
X115022454Y-39395102D01*
X115047154Y-39603483D01*
X115120317Y-39733384D01*
X115268738Y-39802043D01*
X115519214Y-39826699D01*
X115898541Y-39824591D01*
X116150632Y-39818755D01*
X117177264Y-39795067D01*
X117202006Y-39138164D01*
X117211559Y-38806788D01*
X117202580Y-38604955D01*
X117164860Y-38493079D01*
X117088190Y-38431573D01*
X117011506Y-38399426D01*
X116868863Y-38316737D01*
X116807472Y-38175684D01*
X116796264Y-37976829D01*
X116796264Y-37636067D01*
X117181113Y-37636067D01*
X117479063Y-37665138D01*
X117691341Y-37770198D01*
X117773780Y-37843885D01*
X117860595Y-37939680D01*
X117919136Y-38043869D01*
X117954954Y-38190068D01*
X117973598Y-38411893D01*
X117980619Y-38742959D01*
X117981598Y-39102467D01*
X117978749Y-39552095D01*
X117967057Y-39866672D01*
X117941809Y-40080428D01*
X117898287Y-40227597D01*
X117831776Y-40342408D01*
X117806119Y-40376316D01*
X117630641Y-40599400D01*
X116155119Y-40599400D01*
X115556750Y-40599947D01*
X115556750Y-43224990D01*
X115831656Y-43224067D01*
X117219598Y-43224067D01*
X117220754Y-42864234D01*
X117245819Y-42460622D01*
X117325536Y-42204815D01*
X117471340Y-42080894D01*
X117694667Y-42072937D01*
X117776659Y-42090321D01*
X117981598Y-42141758D01*
X117981598Y-43566207D01*
X117980538Y-44088735D01*
X117975474Y-44466627D01*
X117963577Y-44724577D01*
X117942018Y-44887277D01*
X117907968Y-44979422D01*
X117858598Y-45025704D01*
X117812264Y-45044400D01*
X117548230Y-45072937D01*
X117548230Y-45468064D01*
X117763241Y-45510857D01*
X117897798Y-45579800D01*
X117961693Y-45677929D01*
X117974652Y-45810256D01*
X117967695Y-45895242D01*
X117946511Y-46024196D01*
X117894222Y-46100540D01*
X117772863Y-46140512D01*
X117544474Y-46160349D01*
X117325431Y-46169943D01*
X117027550Y-46188808D01*
X116809374Y-46215574D01*
X116712988Y-46244853D01*
X116711598Y-46248531D01*
X116767129Y-46327498D01*
X116917421Y-46499533D01*
X117138027Y-46737445D01*
X117346598Y-46954765D01*
X117682782Y-47321061D01*
X117891848Y-47605052D01*
X117982453Y-47825618D01*
X117963257Y-48001638D01*
X117879998Y-48117800D01*
X117768815Y-48147765D01*
X117520688Y-48173493D01*
X117167963Y-48194527D01*
X116742986Y-48210405D01*
X116278106Y-48220667D01*
X115805668Y-48224854D01*
X115805668Y-48552823D01*
X116193436Y-48555557D01*
X116661705Y-48564962D01*
X117095997Y-48579983D01*
X117463957Y-48600142D01*
X117733229Y-48624963D01*
X117871458Y-48653967D01*
X117879998Y-48659667D01*
X117970791Y-48853088D01*
X117957273Y-49082563D01*
X117879998Y-49218467D01*
X117769702Y-49247714D01*
X117522357Y-49272934D01*
X117169905Y-49293713D01*
X116744291Y-49309636D01*
X116277458Y-49320290D01*
X115801350Y-49325260D01*
X115801350Y-50518851D01*
X115917762Y-50280973D01*
X116115873Y-49990724D01*
X116384814Y-49819722D01*
X116759372Y-49749118D01*
X116907664Y-49744649D01*
X117320567Y-49784336D01*
X117626792Y-49918160D01*
X117831549Y-50113143D01*
X117895912Y-50221469D01*
X117938981Y-50379377D01*
X117964690Y-50618927D01*
X117976970Y-50972176D01*
X117979715Y-51321026D01*
X117979102Y-51752794D01*
X117971948Y-52044719D01*
X117953096Y-52226286D01*
X117917390Y-52326979D01*
X117859672Y-52376283D01*
X117791098Y-52399370D01*
X117612049Y-52423681D01*
X117308194Y-52440466D01*
X116913758Y-52450108D01*
X116462965Y-52452992D01*
X116462965Y-52865917D01*
X116669695Y-52806649D01*
X117057124Y-52807745D01*
X117421597Y-52910781D01*
X117715645Y-53112556D01*
X117818501Y-53244629D01*
X117895440Y-53402196D01*
X117944397Y-53597132D01*
X117970975Y-53869350D01*
X117980775Y-54258758D01*
X117981281Y-54404300D01*
X117970965Y-54884771D01*
X117940195Y-55215113D01*
X117889829Y-55386910D01*
X117879998Y-55399134D01*
X117778505Y-55438084D01*
X117554422Y-55467034D01*
X117195812Y-55486666D01*
X116690737Y-55497661D01*
X116099270Y-55500734D01*
X116099270Y-57616412D01*
X116599538Y-57615506D01*
X117363987Y-57611735D01*
X118005314Y-57604956D01*
X118535071Y-57594309D01*
X118964811Y-57578932D01*
X119306086Y-57557962D01*
X119570449Y-57530539D01*
X119769453Y-57495799D01*
X119914651Y-57452880D01*
X120017594Y-57400922D01*
X120089836Y-57339063D01*
X120142929Y-57266439D01*
X120188426Y-57182190D01*
X120223831Y-57112172D01*
X120239871Y-57067009D01*
X120254540Y-56991486D01*
X120267899Y-56878407D01*
X120280006Y-56720580D01*
X120290923Y-56510810D01*
X120300708Y-56241903D01*
X120309420Y-55906667D01*
X120317120Y-55497905D01*
X120323868Y-55008426D01*
X120329722Y-54431035D01*
X120334743Y-53758538D01*
X120338989Y-52983741D01*
X120342521Y-52099451D01*
X120345399Y-51098473D01*
X120347681Y-49973613D01*
X120349428Y-48717679D01*
X120350699Y-47323475D01*
X120351554Y-45783808D01*
X120352052Y-44091485D01*
X120352253Y-42239310D01*
X120352264Y-41615400D01*
X120352400Y-39703896D01*
X120352656Y-37954464D01*
X120352799Y-36359841D01*
X120352600Y-34912768D01*
D10*
X92460000Y-51262000D02*
X97540000Y-51262000D01*
X97540000Y-51262000D02*
X97540000Y-49738000D01*
X97540000Y-49738000D02*
X92460000Y-49738000D01*
X92460000Y-49738000D02*
X92460000Y-51262000D01*
X97159000Y-51262000D02*
X97159000Y-49738000D01*
X97286000Y-49738000D02*
X97286000Y-51262000D01*
X97413000Y-51262000D02*
X97413000Y-49738000D01*
X97032000Y-49738000D02*
X97032000Y-51262000D01*
X96905000Y-51262000D02*
X96905000Y-49738000D01*
X96778000Y-51262000D02*
X96778000Y-49738000D01*
X105262000Y-67540000D02*
X105262000Y-62460000D01*
X105262000Y-62460000D02*
X103738000Y-62460000D01*
X103738000Y-62460000D02*
X103738000Y-67540000D01*
X103738000Y-67540000D02*
X105262000Y-67540000D01*
X105262000Y-62841000D02*
X103738000Y-62841000D01*
X103738000Y-62714000D02*
X105262000Y-62714000D01*
X105262000Y-62587000D02*
X103738000Y-62587000D01*
X103738000Y-62968000D02*
X105262000Y-62968000D01*
X105262000Y-63095000D02*
X103738000Y-63095000D01*
X105262000Y-63222000D02*
X103738000Y-63222000D01*
X105262000Y-79540000D02*
X105262000Y-74460000D01*
X105262000Y-74460000D02*
X103738000Y-74460000D01*
X103738000Y-74460000D02*
X103738000Y-79540000D01*
X103738000Y-79540000D02*
X105262000Y-79540000D01*
X105262000Y-74841000D02*
X103738000Y-74841000D01*
X103738000Y-74714000D02*
X105262000Y-74714000D01*
X105262000Y-74587000D02*
X103738000Y-74587000D01*
X103738000Y-74968000D02*
X105262000Y-74968000D01*
X105262000Y-75095000D02*
X103738000Y-75095000D01*
X105262000Y-75222000D02*
X103738000Y-75222000D01*
X92460000Y-70262000D02*
X97540000Y-70262000D01*
X97540000Y-70262000D02*
X97540000Y-68738000D01*
X97540000Y-68738000D02*
X92460000Y-68738000D01*
X92460000Y-68738000D02*
X92460000Y-70262000D01*
X97159000Y-70262000D02*
X97159000Y-68738000D01*
X97286000Y-68738000D02*
X97286000Y-70262000D01*
X97413000Y-70262000D02*
X97413000Y-68738000D01*
X97032000Y-68738000D02*
X97032000Y-70262000D01*
X96905000Y-70262000D02*
X96905000Y-68738000D01*
X96778000Y-70262000D02*
X96778000Y-68738000D01*
X92460000Y-32262000D02*
X97540000Y-32262000D01*
X97540000Y-32262000D02*
X97540000Y-30738000D01*
X97540000Y-30738000D02*
X92460000Y-30738000D01*
X92460000Y-30738000D02*
X92460000Y-32262000D01*
X97159000Y-32262000D02*
X97159000Y-30738000D01*
X97286000Y-30738000D02*
X97286000Y-32262000D01*
X97413000Y-32262000D02*
X97413000Y-30738000D01*
X97032000Y-30738000D02*
X97032000Y-32262000D01*
X96905000Y-32262000D02*
X96905000Y-30738000D01*
X96778000Y-32262000D02*
X96778000Y-30738000D01*
X92460000Y-13262000D02*
X97540000Y-13262000D01*
X97540000Y-13262000D02*
X97540000Y-11738000D01*
X97540000Y-11738000D02*
X92460000Y-11738000D01*
X92460000Y-11738000D02*
X92460000Y-13262000D01*
X97159000Y-13262000D02*
X97159000Y-11738000D01*
X97286000Y-11738000D02*
X97286000Y-13262000D01*
X97413000Y-13262000D02*
X97413000Y-11738000D01*
X97032000Y-11738000D02*
X97032000Y-13262000D01*
X96905000Y-13262000D02*
X96905000Y-11738000D01*
X96778000Y-13262000D02*
X96778000Y-11738000D01*
X86262000Y-76540000D02*
X86262000Y-71460000D01*
X86262000Y-71460000D02*
X84738000Y-71460000D01*
X84738000Y-71460000D02*
X84738000Y-76540000D01*
X84738000Y-76540000D02*
X86262000Y-76540000D01*
X86262000Y-71841000D02*
X84738000Y-71841000D01*
X84738000Y-71714000D02*
X86262000Y-71714000D01*
X86262000Y-71587000D02*
X84738000Y-71587000D01*
X84738000Y-71968000D02*
X86262000Y-71968000D01*
X86262000Y-72095000D02*
X84738000Y-72095000D01*
X86262000Y-72222000D02*
X84738000Y-72222000D01*
X73460000Y-65262000D02*
X78540000Y-65262000D01*
X78540000Y-65262000D02*
X78540000Y-63738000D01*
X78540000Y-63738000D02*
X73460000Y-63738000D01*
X73460000Y-63738000D02*
X73460000Y-65262000D01*
X78159000Y-65262000D02*
X78159000Y-63738000D01*
X78286000Y-63738000D02*
X78286000Y-65262000D01*
X78413000Y-65262000D02*
X78413000Y-63738000D01*
X78032000Y-63738000D02*
X78032000Y-65262000D01*
X77905000Y-65262000D02*
X77905000Y-63738000D01*
X77778000Y-65262000D02*
X77778000Y-63738000D01*
X73460000Y-46262000D02*
X78540000Y-46262000D01*
X78540000Y-46262000D02*
X78540000Y-44738000D01*
X78540000Y-44738000D02*
X73460000Y-44738000D01*
X73460000Y-44738000D02*
X73460000Y-46262000D01*
X78159000Y-46262000D02*
X78159000Y-44738000D01*
X78286000Y-44738000D02*
X78286000Y-46262000D01*
X78413000Y-46262000D02*
X78413000Y-44738000D01*
X78032000Y-44738000D02*
X78032000Y-46262000D01*
X77905000Y-46262000D02*
X77905000Y-44738000D01*
X77778000Y-46262000D02*
X77778000Y-44738000D01*
X73460000Y-27262000D02*
X78540000Y-27262000D01*
X78540000Y-27262000D02*
X78540000Y-25738000D01*
X78540000Y-25738000D02*
X73460000Y-25738000D01*
X73460000Y-25738000D02*
X73460000Y-27262000D01*
X78159000Y-27262000D02*
X78159000Y-25738000D01*
X78286000Y-25738000D02*
X78286000Y-27262000D01*
X78413000Y-27262000D02*
X78413000Y-25738000D01*
X78032000Y-25738000D02*
X78032000Y-27262000D01*
X77905000Y-27262000D02*
X77905000Y-25738000D01*
X77778000Y-27262000D02*
X77778000Y-25738000D01*
X73460000Y-8262000D02*
X78540000Y-8262000D01*
X78540000Y-8262000D02*
X78540000Y-6738000D01*
X78540000Y-6738000D02*
X73460000Y-6738000D01*
X73460000Y-6738000D02*
X73460000Y-8262000D01*
X78159000Y-8262000D02*
X78159000Y-6738000D01*
X78286000Y-6738000D02*
X78286000Y-8262000D01*
X78413000Y-8262000D02*
X78413000Y-6738000D01*
X78032000Y-6738000D02*
X78032000Y-8262000D01*
X77905000Y-8262000D02*
X77905000Y-6738000D01*
X77778000Y-8262000D02*
X77778000Y-6738000D01*
X67262000Y-70540000D02*
X67262000Y-65460000D01*
X67262000Y-65460000D02*
X65738000Y-65460000D01*
X65738000Y-65460000D02*
X65738000Y-70540000D01*
X65738000Y-70540000D02*
X67262000Y-70540000D01*
X67262000Y-65841000D02*
X65738000Y-65841000D01*
X65738000Y-65714000D02*
X67262000Y-65714000D01*
X67262000Y-65587000D02*
X65738000Y-65587000D01*
X65738000Y-65968000D02*
X67262000Y-65968000D01*
X67262000Y-66095000D02*
X65738000Y-66095000D01*
X67262000Y-66222000D02*
X65738000Y-66222000D01*
X54460000Y-59262000D02*
X59540000Y-59262000D01*
X59540000Y-59262000D02*
X59540000Y-57738000D01*
X59540000Y-57738000D02*
X54460000Y-57738000D01*
X54460000Y-57738000D02*
X54460000Y-59262000D01*
X59159000Y-59262000D02*
X59159000Y-57738000D01*
X59286000Y-57738000D02*
X59286000Y-59262000D01*
X59413000Y-59262000D02*
X59413000Y-57738000D01*
X59032000Y-57738000D02*
X59032000Y-59262000D01*
X58905000Y-59262000D02*
X58905000Y-57738000D01*
X58778000Y-59262000D02*
X58778000Y-57738000D01*
X54460000Y-40262000D02*
X59540000Y-40262000D01*
X59540000Y-40262000D02*
X59540000Y-38738000D01*
X59540000Y-38738000D02*
X54460000Y-38738000D01*
X54460000Y-38738000D02*
X54460000Y-40262000D01*
X59159000Y-40262000D02*
X59159000Y-38738000D01*
X59286000Y-38738000D02*
X59286000Y-40262000D01*
X59413000Y-40262000D02*
X59413000Y-38738000D01*
X59032000Y-38738000D02*
X59032000Y-40262000D01*
X58905000Y-40262000D02*
X58905000Y-38738000D01*
X58778000Y-40262000D02*
X58778000Y-38738000D01*
X54460000Y-2262000D02*
X59540000Y-2262000D01*
X59540000Y-2262000D02*
X59540000Y-738000D01*
X59540000Y-738000D02*
X54460000Y-738000D01*
X54460000Y-738000D02*
X54460000Y-2262000D01*
X59159000Y-2262000D02*
X59159000Y-738000D01*
X59286000Y-738000D02*
X59286000Y-2262000D01*
X59413000Y-2262000D02*
X59413000Y-738000D01*
X59032000Y-738000D02*
X59032000Y-2262000D01*
X58905000Y-2262000D02*
X58905000Y-738000D01*
X58778000Y-2262000D02*
X58778000Y-738000D01*
X48262000Y-74540000D02*
X48262000Y-69460000D01*
X48262000Y-69460000D02*
X46738000Y-69460000D01*
X46738000Y-69460000D02*
X46738000Y-74540000D01*
X46738000Y-74540000D02*
X48262000Y-74540000D01*
X48262000Y-69841000D02*
X46738000Y-69841000D01*
X46738000Y-69714000D02*
X48262000Y-69714000D01*
X48262000Y-69587000D02*
X46738000Y-69587000D01*
X46738000Y-69968000D02*
X48262000Y-69968000D01*
X48262000Y-70095000D02*
X46738000Y-70095000D01*
X48262000Y-70222000D02*
X46738000Y-70222000D01*
X35460000Y-64262000D02*
X40540000Y-64262000D01*
X40540000Y-64262000D02*
X40540000Y-62738000D01*
X40540000Y-62738000D02*
X35460000Y-62738000D01*
X35460000Y-62738000D02*
X35460000Y-64262000D01*
X40159000Y-64262000D02*
X40159000Y-62738000D01*
X40286000Y-62738000D02*
X40286000Y-64262000D01*
X40413000Y-64262000D02*
X40413000Y-62738000D01*
X40032000Y-62738000D02*
X40032000Y-64262000D01*
X39905000Y-64262000D02*
X39905000Y-62738000D01*
X39778000Y-64262000D02*
X39778000Y-62738000D01*
X35460000Y-45262000D02*
X40540000Y-45262000D01*
X40540000Y-45262000D02*
X40540000Y-43738000D01*
X40540000Y-43738000D02*
X35460000Y-43738000D01*
X35460000Y-43738000D02*
X35460000Y-45262000D01*
X40159000Y-45262000D02*
X40159000Y-43738000D01*
X40286000Y-43738000D02*
X40286000Y-45262000D01*
X40413000Y-45262000D02*
X40413000Y-43738000D01*
X40032000Y-43738000D02*
X40032000Y-45262000D01*
X39905000Y-45262000D02*
X39905000Y-43738000D01*
X39778000Y-45262000D02*
X39778000Y-43738000D01*
X35460000Y-26262000D02*
X40540000Y-26262000D01*
X40540000Y-26262000D02*
X40540000Y-24738000D01*
X40540000Y-24738000D02*
X35460000Y-24738000D01*
X35460000Y-24738000D02*
X35460000Y-26262000D01*
X40159000Y-26262000D02*
X40159000Y-24738000D01*
X40286000Y-24738000D02*
X40286000Y-26262000D01*
X40413000Y-26262000D02*
X40413000Y-24738000D01*
X40032000Y-24738000D02*
X40032000Y-26262000D01*
X39905000Y-26262000D02*
X39905000Y-24738000D01*
X39778000Y-26262000D02*
X39778000Y-24738000D01*
X35460000Y-7262000D02*
X40540000Y-7262000D01*
X40540000Y-7262000D02*
X40540000Y-5738000D01*
X40540000Y-5738000D02*
X35460000Y-5738000D01*
X35460000Y-5738000D02*
X35460000Y-7262000D01*
X40159000Y-7262000D02*
X40159000Y-5738000D01*
X40286000Y-5738000D02*
X40286000Y-7262000D01*
X40413000Y-7262000D02*
X40413000Y-5738000D01*
X40032000Y-5738000D02*
X40032000Y-7262000D01*
X39905000Y-7262000D02*
X39905000Y-5738000D01*
X39778000Y-7262000D02*
X39778000Y-5738000D01*
X29262000Y-78540000D02*
X29262000Y-73460000D01*
X29262000Y-73460000D02*
X27738000Y-73460000D01*
X27738000Y-73460000D02*
X27738000Y-78540000D01*
X27738000Y-78540000D02*
X29262000Y-78540000D01*
X29262000Y-73841000D02*
X27738000Y-73841000D01*
X27738000Y-73714000D02*
X29262000Y-73714000D01*
X29262000Y-73587000D02*
X27738000Y-73587000D01*
X27738000Y-73968000D02*
X29262000Y-73968000D01*
X29262000Y-74095000D02*
X27738000Y-74095000D01*
X29262000Y-74222000D02*
X27738000Y-74222000D01*
X16460000Y-67262000D02*
X21540000Y-67262000D01*
X21540000Y-67262000D02*
X21540000Y-65738000D01*
X21540000Y-65738000D02*
X16460000Y-65738000D01*
X16460000Y-65738000D02*
X16460000Y-67262000D01*
X21159000Y-67262000D02*
X21159000Y-65738000D01*
X21286000Y-65738000D02*
X21286000Y-67262000D01*
X21413000Y-67262000D02*
X21413000Y-65738000D01*
X21032000Y-65738000D02*
X21032000Y-67262000D01*
X20905000Y-67262000D02*
X20905000Y-65738000D01*
X20778000Y-67262000D02*
X20778000Y-65738000D01*
X16460000Y-48262000D02*
X21540000Y-48262000D01*
X21540000Y-48262000D02*
X21540000Y-46738000D01*
X21540000Y-46738000D02*
X16460000Y-46738000D01*
X16460000Y-46738000D02*
X16460000Y-48262000D01*
X21159000Y-48262000D02*
X21159000Y-46738000D01*
X21286000Y-46738000D02*
X21286000Y-48262000D01*
X21413000Y-48262000D02*
X21413000Y-46738000D01*
X21032000Y-46738000D02*
X21032000Y-48262000D01*
X20905000Y-48262000D02*
X20905000Y-46738000D01*
X20778000Y-48262000D02*
X20778000Y-46738000D01*
X16460000Y-29262000D02*
X21540000Y-29262000D01*
X21540000Y-29262000D02*
X21540000Y-27738000D01*
X21540000Y-27738000D02*
X16460000Y-27738000D01*
X16460000Y-27738000D02*
X16460000Y-29262000D01*
X21159000Y-29262000D02*
X21159000Y-27738000D01*
X21286000Y-27738000D02*
X21286000Y-29262000D01*
X21413000Y-29262000D02*
X21413000Y-27738000D01*
X21032000Y-27738000D02*
X21032000Y-29262000D01*
X20905000Y-29262000D02*
X20905000Y-27738000D01*
X20778000Y-29262000D02*
X20778000Y-27738000D01*
X16460000Y-10262000D02*
X21540000Y-10262000D01*
X21540000Y-10262000D02*
X21540000Y-8738000D01*
X21540000Y-8738000D02*
X16460000Y-8738000D01*
X16460000Y-8738000D02*
X16460000Y-10262000D01*
X21159000Y-10262000D02*
X21159000Y-8738000D01*
X21286000Y-8738000D02*
X21286000Y-10262000D01*
X21413000Y-10262000D02*
X21413000Y-8738000D01*
X21032000Y-8738000D02*
X21032000Y-10262000D01*
X20905000Y-10262000D02*
X20905000Y-8738000D01*
X20778000Y-10262000D02*
X20778000Y-8738000D01*
X54460000Y-21262000D02*
X59540000Y-21262000D01*
X59540000Y-21262000D02*
X59540000Y-19738000D01*
X59540000Y-19738000D02*
X54460000Y-19738000D01*
X54460000Y-19738000D02*
X54460000Y-21262000D01*
X59159000Y-21262000D02*
X59159000Y-19738000D01*
X59286000Y-19738000D02*
X59286000Y-21262000D01*
X59413000Y-21262000D02*
X59413000Y-19738000D01*
X59032000Y-19738000D02*
X59032000Y-21262000D01*
X58905000Y-21262000D02*
X58905000Y-19738000D01*
X58778000Y-21262000D02*
X58778000Y-19738000D01*
X10262000Y-78540000D02*
X10262000Y-73460000D01*
X10262000Y-73460000D02*
X8738000Y-73460000D01*
X8738000Y-73460000D02*
X8738000Y-78540000D01*
X8738000Y-78540000D02*
X10262000Y-78540000D01*
X10262000Y-73841000D02*
X8738000Y-73841000D01*
X8738000Y-73714000D02*
X10262000Y-73714000D01*
X10262000Y-73587000D02*
X8738000Y-73587000D01*
X8738000Y-73968000D02*
X10262000Y-73968000D01*
X10262000Y-74095000D02*
X8738000Y-74095000D01*
X10262000Y-74222000D02*
X8738000Y-74222000D01*
X-2540000Y-67262000D02*
X2540000Y-67262000D01*
X2540000Y-67262000D02*
X2540000Y-65738000D01*
X2540000Y-65738000D02*
X-2540000Y-65738000D01*
X-2540000Y-65738000D02*
X-2540000Y-67262000D01*
X2159000Y-67262000D02*
X2159000Y-65738000D01*
X2286000Y-65738000D02*
X2286000Y-67262000D01*
X2413000Y-67262000D02*
X2413000Y-65738000D01*
X2032000Y-65738000D02*
X2032000Y-67262000D01*
X1905000Y-67262000D02*
X1905000Y-65738000D01*
X1778000Y-67262000D02*
X1778000Y-65738000D01*
X-2540000Y-48262000D02*
X2540000Y-48262000D01*
X2540000Y-48262000D02*
X2540000Y-46738000D01*
X2540000Y-46738000D02*
X-2540000Y-46738000D01*
X-2540000Y-46738000D02*
X-2540000Y-48262000D01*
X2159000Y-48262000D02*
X2159000Y-46738000D01*
X2286000Y-46738000D02*
X2286000Y-48262000D01*
X2413000Y-48262000D02*
X2413000Y-46738000D01*
X2032000Y-46738000D02*
X2032000Y-48262000D01*
X1905000Y-48262000D02*
X1905000Y-46738000D01*
X1778000Y-48262000D02*
X1778000Y-46738000D01*
X-2540000Y-29262000D02*
X2540000Y-29262000D01*
X2540000Y-29262000D02*
X2540000Y-27738000D01*
X2540000Y-27738000D02*
X-2540000Y-27738000D01*
X-2540000Y-27738000D02*
X-2540000Y-29262000D01*
X2159000Y-29262000D02*
X2159000Y-27738000D01*
X2286000Y-27738000D02*
X2286000Y-29262000D01*
X2413000Y-29262000D02*
X2413000Y-27738000D01*
X2032000Y-27738000D02*
X2032000Y-29262000D01*
X1905000Y-29262000D02*
X1905000Y-27738000D01*
X1778000Y-29262000D02*
X1778000Y-27738000D01*
X-2540000Y-10262000D02*
X2540000Y-10262000D01*
X2540000Y-10262000D02*
X2540000Y-8738000D01*
X2540000Y-8738000D02*
X-2540000Y-8738000D01*
X-2540000Y-8738000D02*
X-2540000Y-10262000D01*
X2159000Y-10262000D02*
X2159000Y-8738000D01*
X2286000Y-8738000D02*
X2286000Y-10262000D01*
X2413000Y-10262000D02*
X2413000Y-8738000D01*
X2032000Y-8738000D02*
X2032000Y-10262000D01*
X1905000Y-10262000D02*
X1905000Y-8738000D01*
X1778000Y-10262000D02*
X1778000Y-8738000D01*
X123133000Y-60585800D02*
X123133000Y-59885800D01*
X123133000Y-57085800D02*
X123133000Y-57685800D01*
X117133000Y-57085800D02*
X117133000Y-57685800D01*
X117133000Y-60585800D02*
X117133000Y-59885800D01*
X117133000Y-57085800D02*
X123133000Y-57085800D01*
X123133000Y-60585800D02*
X117133000Y-60585800D01*
X123133000Y-60585800D02*
X117233000Y-60585800D01*
X85267733Y-33511880D02*
X85267733Y-34226166D01*
X85315352Y-34369023D01*
X85410590Y-34464261D01*
X85553447Y-34511880D01*
X85648685Y-34511880D01*
X84839161Y-33607119D02*
X84791542Y-33559500D01*
X84696304Y-33511880D01*
X84458209Y-33511880D01*
X84362971Y-33559500D01*
X84315352Y-33607119D01*
X84267733Y-33702357D01*
X84267733Y-33797595D01*
X84315352Y-33940452D01*
X84886780Y-34511880D01*
X84267733Y-34511880D01*
X95946028Y-52261904D02*
X95946028Y-51461904D01*
X95755552Y-51461904D01*
X95641266Y-51500000D01*
X95565076Y-51576190D01*
X95526980Y-51652380D01*
X95488885Y-51804761D01*
X95488885Y-51919047D01*
X95526980Y-52071428D01*
X95565076Y-52147619D01*
X95641266Y-52223809D01*
X95755552Y-52261904D01*
X95946028Y-52261904D01*
X95184123Y-51538095D02*
X95146028Y-51500000D01*
X95069838Y-51461904D01*
X94879361Y-51461904D01*
X94803171Y-51500000D01*
X94765076Y-51538095D01*
X94726980Y-51614285D01*
X94726980Y-51690476D01*
X94765076Y-51804761D01*
X95222219Y-52261904D01*
X94726980Y-52261904D01*
X94460314Y-51461904D02*
X93926980Y-51461904D01*
X94269838Y-52261904D01*
X106261904Y-64053971D02*
X105461904Y-64053971D01*
X105461904Y-64244447D01*
X105500000Y-64358733D01*
X105576190Y-64434923D01*
X105652380Y-64473019D01*
X105804761Y-64511114D01*
X105919047Y-64511114D01*
X106071428Y-64473019D01*
X106147619Y-64434923D01*
X106223809Y-64358733D01*
X106261904Y-64244447D01*
X106261904Y-64053971D01*
X105461904Y-64777780D02*
X105461904Y-65273019D01*
X105766666Y-65006352D01*
X105766666Y-65120638D01*
X105804761Y-65196828D01*
X105842857Y-65234923D01*
X105919047Y-65273019D01*
X106109523Y-65273019D01*
X106185714Y-65234923D01*
X106223809Y-65196828D01*
X106261904Y-65120638D01*
X106261904Y-64892066D01*
X106223809Y-64815876D01*
X106185714Y-64777780D01*
X105461904Y-65768257D02*
X105461904Y-65844447D01*
X105500000Y-65920638D01*
X105538095Y-65958733D01*
X105614285Y-65996828D01*
X105766666Y-66034923D01*
X105957142Y-66034923D01*
X106109523Y-65996828D01*
X106185714Y-65958733D01*
X106223809Y-65920638D01*
X106261904Y-65844447D01*
X106261904Y-65768257D01*
X106223809Y-65692066D01*
X106185714Y-65653971D01*
X106109523Y-65615876D01*
X105957142Y-65577780D01*
X105766666Y-65577780D01*
X105614285Y-65615876D01*
X105538095Y-65653971D01*
X105500000Y-65692066D01*
X105461904Y-65768257D01*
X106261904Y-76053971D02*
X105461904Y-76053971D01*
X105461904Y-76244447D01*
X105500000Y-76358733D01*
X105576190Y-76434923D01*
X105652380Y-76473019D01*
X105804761Y-76511114D01*
X105919047Y-76511114D01*
X106071428Y-76473019D01*
X106147619Y-76434923D01*
X106223809Y-76358733D01*
X106261904Y-76244447D01*
X106261904Y-76053971D01*
X105538095Y-76815876D02*
X105500000Y-76853971D01*
X105461904Y-76930161D01*
X105461904Y-77120638D01*
X105500000Y-77196828D01*
X105538095Y-77234923D01*
X105614285Y-77273019D01*
X105690476Y-77273019D01*
X105804761Y-77234923D01*
X106261904Y-76777780D01*
X106261904Y-77273019D01*
X106261904Y-77653971D02*
X106261904Y-77806352D01*
X106223809Y-77882542D01*
X106185714Y-77920638D01*
X106071428Y-77996828D01*
X105919047Y-78034923D01*
X105614285Y-78034923D01*
X105538095Y-77996828D01*
X105500000Y-77958733D01*
X105461904Y-77882542D01*
X105461904Y-77730161D01*
X105500000Y-77653971D01*
X105538095Y-77615876D01*
X105614285Y-77577780D01*
X105804761Y-77577780D01*
X105880952Y-77615876D01*
X105919047Y-77653971D01*
X105957142Y-77730161D01*
X105957142Y-77882542D01*
X105919047Y-77958733D01*
X105880952Y-77996828D01*
X105804761Y-78034923D01*
X95946028Y-71261904D02*
X95946028Y-70461904D01*
X95755552Y-70461904D01*
X95641266Y-70500000D01*
X95565076Y-70576190D01*
X95526980Y-70652380D01*
X95488885Y-70804761D01*
X95488885Y-70919047D01*
X95526980Y-71071428D01*
X95565076Y-71147619D01*
X95641266Y-71223809D01*
X95755552Y-71261904D01*
X95946028Y-71261904D01*
X95184123Y-70538095D02*
X95146028Y-70500000D01*
X95069838Y-70461904D01*
X94879361Y-70461904D01*
X94803171Y-70500000D01*
X94765076Y-70538095D01*
X94726980Y-70614285D01*
X94726980Y-70690476D01*
X94765076Y-70804761D01*
X95222219Y-71261904D01*
X94726980Y-71261904D01*
X94269838Y-70804761D02*
X94346028Y-70766666D01*
X94384123Y-70728571D01*
X94422219Y-70652380D01*
X94422219Y-70614285D01*
X94384123Y-70538095D01*
X94346028Y-70500000D01*
X94269838Y-70461904D01*
X94117457Y-70461904D01*
X94041266Y-70500000D01*
X94003171Y-70538095D01*
X93965076Y-70614285D01*
X93965076Y-70652380D01*
X94003171Y-70728571D01*
X94041266Y-70766666D01*
X94117457Y-70804761D01*
X94269838Y-70804761D01*
X94346028Y-70842857D01*
X94384123Y-70880952D01*
X94422219Y-70957142D01*
X94422219Y-71109523D01*
X94384123Y-71185714D01*
X94346028Y-71223809D01*
X94269838Y-71261904D01*
X94117457Y-71261904D01*
X94041266Y-71223809D01*
X94003171Y-71185714D01*
X93965076Y-71109523D01*
X93965076Y-70957142D01*
X94003171Y-70880952D01*
X94041266Y-70842857D01*
X94117457Y-70804761D01*
X95946028Y-33261904D02*
X95946028Y-32461904D01*
X95755552Y-32461904D01*
X95641266Y-32500000D01*
X95565076Y-32576190D01*
X95526980Y-32652380D01*
X95488885Y-32804761D01*
X95488885Y-32919047D01*
X95526980Y-33071428D01*
X95565076Y-33147619D01*
X95641266Y-33223809D01*
X95755552Y-33261904D01*
X95946028Y-33261904D01*
X95184123Y-32538095D02*
X95146028Y-32500000D01*
X95069838Y-32461904D01*
X94879361Y-32461904D01*
X94803171Y-32500000D01*
X94765076Y-32538095D01*
X94726980Y-32614285D01*
X94726980Y-32690476D01*
X94765076Y-32804761D01*
X95222219Y-33261904D01*
X94726980Y-33261904D01*
X94041266Y-32461904D02*
X94193647Y-32461904D01*
X94269838Y-32500000D01*
X94307933Y-32538095D01*
X94384123Y-32652380D01*
X94422219Y-32804761D01*
X94422219Y-33109523D01*
X94384123Y-33185714D01*
X94346028Y-33223809D01*
X94269838Y-33261904D01*
X94117457Y-33261904D01*
X94041266Y-33223809D01*
X94003171Y-33185714D01*
X93965076Y-33109523D01*
X93965076Y-32919047D01*
X94003171Y-32842857D01*
X94041266Y-32804761D01*
X94117457Y-32766666D01*
X94269838Y-32766666D01*
X94346028Y-32804761D01*
X94384123Y-32842857D01*
X94422219Y-32919047D01*
X95946028Y-14261904D02*
X95946028Y-13461904D01*
X95755552Y-13461904D01*
X95641266Y-13500000D01*
X95565076Y-13576190D01*
X95526980Y-13652380D01*
X95488885Y-13804761D01*
X95488885Y-13919047D01*
X95526980Y-14071428D01*
X95565076Y-14147619D01*
X95641266Y-14223809D01*
X95755552Y-14261904D01*
X95946028Y-14261904D01*
X95184123Y-13538095D02*
X95146028Y-13500000D01*
X95069838Y-13461904D01*
X94879361Y-13461904D01*
X94803171Y-13500000D01*
X94765076Y-13538095D01*
X94726980Y-13614285D01*
X94726980Y-13690476D01*
X94765076Y-13804761D01*
X95222219Y-14261904D01*
X94726980Y-14261904D01*
X94003171Y-13461904D02*
X94384123Y-13461904D01*
X94422219Y-13842857D01*
X94384123Y-13804761D01*
X94307933Y-13766666D01*
X94117457Y-13766666D01*
X94041266Y-13804761D01*
X94003171Y-13842857D01*
X93965076Y-13919047D01*
X93965076Y-14109523D01*
X94003171Y-14185714D01*
X94041266Y-14223809D01*
X94117457Y-14261904D01*
X94307933Y-14261904D01*
X94384123Y-14223809D01*
X94422219Y-14185714D01*
X87261904Y-73053971D02*
X86461904Y-73053971D01*
X86461904Y-73244447D01*
X86500000Y-73358733D01*
X86576190Y-73434923D01*
X86652380Y-73473019D01*
X86804761Y-73511114D01*
X86919047Y-73511114D01*
X87071428Y-73473019D01*
X87147619Y-73434923D01*
X87223809Y-73358733D01*
X87261904Y-73244447D01*
X87261904Y-73053971D01*
X86538095Y-73815876D02*
X86500000Y-73853971D01*
X86461904Y-73930161D01*
X86461904Y-74120638D01*
X86500000Y-74196828D01*
X86538095Y-74234923D01*
X86614285Y-74273019D01*
X86690476Y-74273019D01*
X86804761Y-74234923D01*
X87261904Y-73777780D01*
X87261904Y-74273019D01*
X86728571Y-74958733D02*
X87261904Y-74958733D01*
X86423809Y-74768257D02*
X86995238Y-74577780D01*
X86995238Y-75073019D01*
X76946028Y-66261904D02*
X76946028Y-65461904D01*
X76755552Y-65461904D01*
X76641266Y-65500000D01*
X76565076Y-65576190D01*
X76526980Y-65652380D01*
X76488885Y-65804761D01*
X76488885Y-65919047D01*
X76526980Y-66071428D01*
X76565076Y-66147619D01*
X76641266Y-66223809D01*
X76755552Y-66261904D01*
X76946028Y-66261904D01*
X76184123Y-65538095D02*
X76146028Y-65500000D01*
X76069838Y-65461904D01*
X75879361Y-65461904D01*
X75803171Y-65500000D01*
X75765076Y-65538095D01*
X75726980Y-65614285D01*
X75726980Y-65690476D01*
X75765076Y-65804761D01*
X76222219Y-66261904D01*
X75726980Y-66261904D01*
X75460314Y-65461904D02*
X74965076Y-65461904D01*
X75231742Y-65766666D01*
X75117457Y-65766666D01*
X75041266Y-65804761D01*
X75003171Y-65842857D01*
X74965076Y-65919047D01*
X74965076Y-66109523D01*
X75003171Y-66185714D01*
X75041266Y-66223809D01*
X75117457Y-66261904D01*
X75346028Y-66261904D01*
X75422219Y-66223809D01*
X75460314Y-66185714D01*
X76946028Y-47261904D02*
X76946028Y-46461904D01*
X76755552Y-46461904D01*
X76641266Y-46500000D01*
X76565076Y-46576190D01*
X76526980Y-46652380D01*
X76488885Y-46804761D01*
X76488885Y-46919047D01*
X76526980Y-47071428D01*
X76565076Y-47147619D01*
X76641266Y-47223809D01*
X76755552Y-47261904D01*
X76946028Y-47261904D01*
X76184123Y-46538095D02*
X76146028Y-46500000D01*
X76069838Y-46461904D01*
X75879361Y-46461904D01*
X75803171Y-46500000D01*
X75765076Y-46538095D01*
X75726980Y-46614285D01*
X75726980Y-46690476D01*
X75765076Y-46804761D01*
X76222219Y-47261904D01*
X75726980Y-47261904D01*
X75422219Y-46538095D02*
X75384123Y-46500000D01*
X75307933Y-46461904D01*
X75117457Y-46461904D01*
X75041266Y-46500000D01*
X75003171Y-46538095D01*
X74965076Y-46614285D01*
X74965076Y-46690476D01*
X75003171Y-46804761D01*
X75460314Y-47261904D01*
X74965076Y-47261904D01*
X76946028Y-28261904D02*
X76946028Y-27461904D01*
X76755552Y-27461904D01*
X76641266Y-27500000D01*
X76565076Y-27576190D01*
X76526980Y-27652380D01*
X76488885Y-27804761D01*
X76488885Y-27919047D01*
X76526980Y-28071428D01*
X76565076Y-28147619D01*
X76641266Y-28223809D01*
X76755552Y-28261904D01*
X76946028Y-28261904D01*
X76184123Y-27538095D02*
X76146028Y-27500000D01*
X76069838Y-27461904D01*
X75879361Y-27461904D01*
X75803171Y-27500000D01*
X75765076Y-27538095D01*
X75726980Y-27614285D01*
X75726980Y-27690476D01*
X75765076Y-27804761D01*
X76222219Y-28261904D01*
X75726980Y-28261904D01*
X74965076Y-28261904D02*
X75422219Y-28261904D01*
X75193647Y-28261904D02*
X75193647Y-27461904D01*
X75269838Y-27576190D01*
X75346028Y-27652380D01*
X75422219Y-27690476D01*
X76946028Y-9261904D02*
X76946028Y-8461904D01*
X76755552Y-8461904D01*
X76641266Y-8500000D01*
X76565076Y-8576190D01*
X76526980Y-8652380D01*
X76488885Y-8804761D01*
X76488885Y-8919047D01*
X76526980Y-9071428D01*
X76565076Y-9147619D01*
X76641266Y-9223809D01*
X76755552Y-9261904D01*
X76946028Y-9261904D01*
X76184123Y-8538095D02*
X76146028Y-8500000D01*
X76069838Y-8461904D01*
X75879361Y-8461904D01*
X75803171Y-8500000D01*
X75765076Y-8538095D01*
X75726980Y-8614285D01*
X75726980Y-8690476D01*
X75765076Y-8804761D01*
X76222219Y-9261904D01*
X75726980Y-9261904D01*
X75231742Y-8461904D02*
X75155552Y-8461904D01*
X75079361Y-8500000D01*
X75041266Y-8538095D01*
X75003171Y-8614285D01*
X74965076Y-8766666D01*
X74965076Y-8957142D01*
X75003171Y-9109523D01*
X75041266Y-9185714D01*
X75079361Y-9223809D01*
X75155552Y-9261904D01*
X75231742Y-9261904D01*
X75307933Y-9223809D01*
X75346028Y-9185714D01*
X75384123Y-9109523D01*
X75422219Y-8957142D01*
X75422219Y-8766666D01*
X75384123Y-8614285D01*
X75346028Y-8538095D01*
X75307933Y-8500000D01*
X75231742Y-8461904D01*
X68261904Y-67053971D02*
X67461904Y-67053971D01*
X67461904Y-67244447D01*
X67500000Y-67358733D01*
X67576190Y-67434923D01*
X67652380Y-67473019D01*
X67804761Y-67511114D01*
X67919047Y-67511114D01*
X68071428Y-67473019D01*
X68147619Y-67434923D01*
X68223809Y-67358733D01*
X68261904Y-67244447D01*
X68261904Y-67053971D01*
X68261904Y-68273019D02*
X68261904Y-67815876D01*
X68261904Y-68044447D02*
X67461904Y-68044447D01*
X67576190Y-67968257D01*
X67652380Y-67892066D01*
X67690476Y-67815876D01*
X68261904Y-68653971D02*
X68261904Y-68806352D01*
X68223809Y-68882542D01*
X68185714Y-68920638D01*
X68071428Y-68996828D01*
X67919047Y-69034923D01*
X67614285Y-69034923D01*
X67538095Y-68996828D01*
X67500000Y-68958733D01*
X67461904Y-68882542D01*
X67461904Y-68730161D01*
X67500000Y-68653971D01*
X67538095Y-68615876D01*
X67614285Y-68577780D01*
X67804761Y-68577780D01*
X67880952Y-68615876D01*
X67919047Y-68653971D01*
X67957142Y-68730161D01*
X67957142Y-68882542D01*
X67919047Y-68958733D01*
X67880952Y-68996828D01*
X67804761Y-69034923D01*
X57946028Y-60261904D02*
X57946028Y-59461904D01*
X57755552Y-59461904D01*
X57641266Y-59500000D01*
X57565076Y-59576190D01*
X57526980Y-59652380D01*
X57488885Y-59804761D01*
X57488885Y-59919047D01*
X57526980Y-60071428D01*
X57565076Y-60147619D01*
X57641266Y-60223809D01*
X57755552Y-60261904D01*
X57946028Y-60261904D01*
X56726980Y-60261904D02*
X57184123Y-60261904D01*
X56955552Y-60261904D02*
X56955552Y-59461904D01*
X57031742Y-59576190D01*
X57107933Y-59652380D01*
X57184123Y-59690476D01*
X56269838Y-59804761D02*
X56346028Y-59766666D01*
X56384123Y-59728571D01*
X56422219Y-59652380D01*
X56422219Y-59614285D01*
X56384123Y-59538095D01*
X56346028Y-59500000D01*
X56269838Y-59461904D01*
X56117457Y-59461904D01*
X56041266Y-59500000D01*
X56003171Y-59538095D01*
X55965076Y-59614285D01*
X55965076Y-59652380D01*
X56003171Y-59728571D01*
X56041266Y-59766666D01*
X56117457Y-59804761D01*
X56269838Y-59804761D01*
X56346028Y-59842857D01*
X56384123Y-59880952D01*
X56422219Y-59957142D01*
X56422219Y-60109523D01*
X56384123Y-60185714D01*
X56346028Y-60223809D01*
X56269838Y-60261904D01*
X56117457Y-60261904D01*
X56041266Y-60223809D01*
X56003171Y-60185714D01*
X55965076Y-60109523D01*
X55965076Y-59957142D01*
X56003171Y-59880952D01*
X56041266Y-59842857D01*
X56117457Y-59804761D01*
X57946028Y-41261904D02*
X57946028Y-40461904D01*
X57755552Y-40461904D01*
X57641266Y-40500000D01*
X57565076Y-40576190D01*
X57526980Y-40652380D01*
X57488885Y-40804761D01*
X57488885Y-40919047D01*
X57526980Y-41071428D01*
X57565076Y-41147619D01*
X57641266Y-41223809D01*
X57755552Y-41261904D01*
X57946028Y-41261904D01*
X56726980Y-41261904D02*
X57184123Y-41261904D01*
X56955552Y-41261904D02*
X56955552Y-40461904D01*
X57031742Y-40576190D01*
X57107933Y-40652380D01*
X57184123Y-40690476D01*
X56460314Y-40461904D02*
X55926980Y-40461904D01*
X56269838Y-41261904D01*
X57946028Y-3261904D02*
X57946028Y-2461904D01*
X57755552Y-2461904D01*
X57641266Y-2500000D01*
X57565076Y-2576190D01*
X57526980Y-2652380D01*
X57488885Y-2804761D01*
X57488885Y-2919047D01*
X57526980Y-3071428D01*
X57565076Y-3147619D01*
X57641266Y-3223809D01*
X57755552Y-3261904D01*
X57946028Y-3261904D01*
X56726980Y-3261904D02*
X57184123Y-3261904D01*
X56955552Y-3261904D02*
X56955552Y-2461904D01*
X57031742Y-2576190D01*
X57107933Y-2652380D01*
X57184123Y-2690476D01*
X56003171Y-2461904D02*
X56384123Y-2461904D01*
X56422219Y-2842857D01*
X56384123Y-2804761D01*
X56307933Y-2766666D01*
X56117457Y-2766666D01*
X56041266Y-2804761D01*
X56003171Y-2842857D01*
X55965076Y-2919047D01*
X55965076Y-3109523D01*
X56003171Y-3185714D01*
X56041266Y-3223809D01*
X56117457Y-3261904D01*
X56307933Y-3261904D01*
X56384123Y-3223809D01*
X56422219Y-3185714D01*
X49261904Y-71053971D02*
X48461904Y-71053971D01*
X48461904Y-71244447D01*
X48500000Y-71358733D01*
X48576190Y-71434923D01*
X48652380Y-71473019D01*
X48804761Y-71511114D01*
X48919047Y-71511114D01*
X49071428Y-71473019D01*
X49147619Y-71434923D01*
X49223809Y-71358733D01*
X49261904Y-71244447D01*
X49261904Y-71053971D01*
X49261904Y-72273019D02*
X49261904Y-71815876D01*
X49261904Y-72044447D02*
X48461904Y-72044447D01*
X48576190Y-71968257D01*
X48652380Y-71892066D01*
X48690476Y-71815876D01*
X48728571Y-72958733D02*
X49261904Y-72958733D01*
X48423809Y-72768257D02*
X48995238Y-72577780D01*
X48995238Y-73073019D01*
X38946028Y-65261904D02*
X38946028Y-64461904D01*
X38755552Y-64461904D01*
X38641266Y-64500000D01*
X38565076Y-64576190D01*
X38526980Y-64652380D01*
X38488885Y-64804761D01*
X38488885Y-64919047D01*
X38526980Y-65071428D01*
X38565076Y-65147619D01*
X38641266Y-65223809D01*
X38755552Y-65261904D01*
X38946028Y-65261904D01*
X37726980Y-65261904D02*
X38184123Y-65261904D01*
X37955552Y-65261904D02*
X37955552Y-64461904D01*
X38031742Y-64576190D01*
X38107933Y-64652380D01*
X38184123Y-64690476D01*
X37460314Y-64461904D02*
X36965076Y-64461904D01*
X37231742Y-64766666D01*
X37117457Y-64766666D01*
X37041266Y-64804761D01*
X37003171Y-64842857D01*
X36965076Y-64919047D01*
X36965076Y-65109523D01*
X37003171Y-65185714D01*
X37041266Y-65223809D01*
X37117457Y-65261904D01*
X37346028Y-65261904D01*
X37422219Y-65223809D01*
X37460314Y-65185714D01*
X38946028Y-46261904D02*
X38946028Y-45461904D01*
X38755552Y-45461904D01*
X38641266Y-45500000D01*
X38565076Y-45576190D01*
X38526980Y-45652380D01*
X38488885Y-45804761D01*
X38488885Y-45919047D01*
X38526980Y-46071428D01*
X38565076Y-46147619D01*
X38641266Y-46223809D01*
X38755552Y-46261904D01*
X38946028Y-46261904D01*
X37726980Y-46261904D02*
X38184123Y-46261904D01*
X37955552Y-46261904D02*
X37955552Y-45461904D01*
X38031742Y-45576190D01*
X38107933Y-45652380D01*
X38184123Y-45690476D01*
X37422219Y-45538095D02*
X37384123Y-45500000D01*
X37307933Y-45461904D01*
X37117457Y-45461904D01*
X37041266Y-45500000D01*
X37003171Y-45538095D01*
X36965076Y-45614285D01*
X36965076Y-45690476D01*
X37003171Y-45804761D01*
X37460314Y-46261904D01*
X36965076Y-46261904D01*
X38946028Y-27261904D02*
X38946028Y-26461904D01*
X38755552Y-26461904D01*
X38641266Y-26500000D01*
X38565076Y-26576190D01*
X38526980Y-26652380D01*
X38488885Y-26804761D01*
X38488885Y-26919047D01*
X38526980Y-27071428D01*
X38565076Y-27147619D01*
X38641266Y-27223809D01*
X38755552Y-27261904D01*
X38946028Y-27261904D01*
X37726980Y-27261904D02*
X38184123Y-27261904D01*
X37955552Y-27261904D02*
X37955552Y-26461904D01*
X38031742Y-26576190D01*
X38107933Y-26652380D01*
X38184123Y-26690476D01*
X36965076Y-27261904D02*
X37422219Y-27261904D01*
X37193647Y-27261904D02*
X37193647Y-26461904D01*
X37269838Y-26576190D01*
X37346028Y-26652380D01*
X37422219Y-26690476D01*
X38946028Y-8261904D02*
X38946028Y-7461904D01*
X38755552Y-7461904D01*
X38641266Y-7500000D01*
X38565076Y-7576190D01*
X38526980Y-7652380D01*
X38488885Y-7804761D01*
X38488885Y-7919047D01*
X38526980Y-8071428D01*
X38565076Y-8147619D01*
X38641266Y-8223809D01*
X38755552Y-8261904D01*
X38946028Y-8261904D01*
X37726980Y-8261904D02*
X38184123Y-8261904D01*
X37955552Y-8261904D02*
X37955552Y-7461904D01*
X38031742Y-7576190D01*
X38107933Y-7652380D01*
X38184123Y-7690476D01*
X37231742Y-7461904D02*
X37155552Y-7461904D01*
X37079361Y-7500000D01*
X37041266Y-7538095D01*
X37003171Y-7614285D01*
X36965076Y-7766666D01*
X36965076Y-7957142D01*
X37003171Y-8109523D01*
X37041266Y-8185714D01*
X37079361Y-8223809D01*
X37155552Y-8261904D01*
X37231742Y-8261904D01*
X37307933Y-8223809D01*
X37346028Y-8185714D01*
X37384123Y-8109523D01*
X37422219Y-7957142D01*
X37422219Y-7766666D01*
X37384123Y-7614285D01*
X37346028Y-7538095D01*
X37307933Y-7500000D01*
X37231742Y-7461904D01*
X30261904Y-75434923D02*
X29461904Y-75434923D01*
X29461904Y-75625400D01*
X29500000Y-75739685D01*
X29576190Y-75815876D01*
X29652380Y-75853971D01*
X29804761Y-75892066D01*
X29919047Y-75892066D01*
X30071428Y-75853971D01*
X30147619Y-75815876D01*
X30223809Y-75739685D01*
X30261904Y-75625400D01*
X30261904Y-75434923D01*
X30261904Y-76273019D02*
X30261904Y-76425400D01*
X30223809Y-76501590D01*
X30185714Y-76539685D01*
X30071428Y-76615876D01*
X29919047Y-76653971D01*
X29614285Y-76653971D01*
X29538095Y-76615876D01*
X29500000Y-76577780D01*
X29461904Y-76501590D01*
X29461904Y-76349209D01*
X29500000Y-76273019D01*
X29538095Y-76234923D01*
X29614285Y-76196828D01*
X29804761Y-76196828D01*
X29880952Y-76234923D01*
X29919047Y-76273019D01*
X29957142Y-76349209D01*
X29957142Y-76501590D01*
X29919047Y-76577780D01*
X29880952Y-76615876D01*
X29804761Y-76653971D01*
X19565076Y-68261904D02*
X19565076Y-67461904D01*
X19374600Y-67461904D01*
X19260314Y-67500000D01*
X19184123Y-67576190D01*
X19146028Y-67652380D01*
X19107933Y-67804761D01*
X19107933Y-67919047D01*
X19146028Y-68071428D01*
X19184123Y-68147619D01*
X19260314Y-68223809D01*
X19374600Y-68261904D01*
X19565076Y-68261904D01*
X18650790Y-67804761D02*
X18726980Y-67766666D01*
X18765076Y-67728571D01*
X18803171Y-67652380D01*
X18803171Y-67614285D01*
X18765076Y-67538095D01*
X18726980Y-67500000D01*
X18650790Y-67461904D01*
X18498409Y-67461904D01*
X18422219Y-67500000D01*
X18384123Y-67538095D01*
X18346028Y-67614285D01*
X18346028Y-67652380D01*
X18384123Y-67728571D01*
X18422219Y-67766666D01*
X18498409Y-67804761D01*
X18650790Y-67804761D01*
X18726980Y-67842857D01*
X18765076Y-67880952D01*
X18803171Y-67957142D01*
X18803171Y-68109523D01*
X18765076Y-68185714D01*
X18726980Y-68223809D01*
X18650790Y-68261904D01*
X18498409Y-68261904D01*
X18422219Y-68223809D01*
X18384123Y-68185714D01*
X18346028Y-68109523D01*
X18346028Y-67957142D01*
X18384123Y-67880952D01*
X18422219Y-67842857D01*
X18498409Y-67804761D01*
X19565076Y-49261904D02*
X19565076Y-48461904D01*
X19374600Y-48461904D01*
X19260314Y-48500000D01*
X19184123Y-48576190D01*
X19146028Y-48652380D01*
X19107933Y-48804761D01*
X19107933Y-48919047D01*
X19146028Y-49071428D01*
X19184123Y-49147619D01*
X19260314Y-49223809D01*
X19374600Y-49261904D01*
X19565076Y-49261904D01*
X18841266Y-48461904D02*
X18307933Y-48461904D01*
X18650790Y-49261904D01*
X19565076Y-30261904D02*
X19565076Y-29461904D01*
X19374600Y-29461904D01*
X19260314Y-29500000D01*
X19184123Y-29576190D01*
X19146028Y-29652380D01*
X19107933Y-29804761D01*
X19107933Y-29919047D01*
X19146028Y-30071428D01*
X19184123Y-30147619D01*
X19260314Y-30223809D01*
X19374600Y-30261904D01*
X19565076Y-30261904D01*
X18422219Y-29461904D02*
X18574600Y-29461904D01*
X18650790Y-29500000D01*
X18688885Y-29538095D01*
X18765076Y-29652380D01*
X18803171Y-29804761D01*
X18803171Y-30109523D01*
X18765076Y-30185714D01*
X18726980Y-30223809D01*
X18650790Y-30261904D01*
X18498409Y-30261904D01*
X18422219Y-30223809D01*
X18384123Y-30185714D01*
X18346028Y-30109523D01*
X18346028Y-29919047D01*
X18384123Y-29842857D01*
X18422219Y-29804761D01*
X18498409Y-29766666D01*
X18650790Y-29766666D01*
X18726980Y-29804761D01*
X18765076Y-29842857D01*
X18803171Y-29919047D01*
X19565076Y-11261904D02*
X19565076Y-10461904D01*
X19374600Y-10461904D01*
X19260314Y-10500000D01*
X19184123Y-10576190D01*
X19146028Y-10652380D01*
X19107933Y-10804761D01*
X19107933Y-10919047D01*
X19146028Y-11071428D01*
X19184123Y-11147619D01*
X19260314Y-11223809D01*
X19374600Y-11261904D01*
X19565076Y-11261904D01*
X18384123Y-10461904D02*
X18765076Y-10461904D01*
X18803171Y-10842857D01*
X18765076Y-10804761D01*
X18688885Y-10766666D01*
X18498409Y-10766666D01*
X18422219Y-10804761D01*
X18384123Y-10842857D01*
X18346028Y-10919047D01*
X18346028Y-11109523D01*
X18384123Y-11185714D01*
X18422219Y-11223809D01*
X18498409Y-11261904D01*
X18688885Y-11261904D01*
X18765076Y-11223809D01*
X18803171Y-11185714D01*
X57946028Y-22261904D02*
X57946028Y-21461904D01*
X57755552Y-21461904D01*
X57641266Y-21500000D01*
X57565076Y-21576190D01*
X57526980Y-21652380D01*
X57488885Y-21804761D01*
X57488885Y-21919047D01*
X57526980Y-22071428D01*
X57565076Y-22147619D01*
X57641266Y-22223809D01*
X57755552Y-22261904D01*
X57946028Y-22261904D01*
X56726980Y-22261904D02*
X57184123Y-22261904D01*
X56955552Y-22261904D02*
X56955552Y-21461904D01*
X57031742Y-21576190D01*
X57107933Y-21652380D01*
X57184123Y-21690476D01*
X56041266Y-21461904D02*
X56193647Y-21461904D01*
X56269838Y-21500000D01*
X56307933Y-21538095D01*
X56384123Y-21652380D01*
X56422219Y-21804761D01*
X56422219Y-22109523D01*
X56384123Y-22185714D01*
X56346028Y-22223809D01*
X56269838Y-22261904D01*
X56117457Y-22261904D01*
X56041266Y-22223809D01*
X56003171Y-22185714D01*
X55965076Y-22109523D01*
X55965076Y-21919047D01*
X56003171Y-21842857D01*
X56041266Y-21804761D01*
X56117457Y-21766666D01*
X56269838Y-21766666D01*
X56346028Y-21804761D01*
X56384123Y-21842857D01*
X56422219Y-21919047D01*
X11261904Y-75434923D02*
X10461904Y-75434923D01*
X10461904Y-75625400D01*
X10500000Y-75739685D01*
X10576190Y-75815876D01*
X10652380Y-75853971D01*
X10804761Y-75892066D01*
X10919047Y-75892066D01*
X11071428Y-75853971D01*
X11147619Y-75815876D01*
X11223809Y-75739685D01*
X11261904Y-75625400D01*
X11261904Y-75434923D01*
X10728571Y-76577780D02*
X11261904Y-76577780D01*
X10423809Y-76387304D02*
X10995238Y-76196828D01*
X10995238Y-76692066D01*
X565076Y-68261904D02*
X565076Y-67461904D01*
X374600Y-67461904D01*
X260314Y-67500000D01*
X184123Y-67576190D01*
X146028Y-67652380D01*
X107933Y-67804761D01*
X107933Y-67919047D01*
X146028Y-68071428D01*
X184123Y-68147619D01*
X260314Y-68223809D01*
X374600Y-68261904D01*
X565076Y-68261904D01*
X-158733Y-67461904D02*
X-653971Y-67461904D01*
X-387304Y-67766666D01*
X-501590Y-67766666D01*
X-577780Y-67804761D01*
X-615876Y-67842857D01*
X-653971Y-67919047D01*
X-653971Y-68109523D01*
X-615876Y-68185714D01*
X-577780Y-68223809D01*
X-501590Y-68261904D01*
X-273019Y-68261904D01*
X-196828Y-68223809D01*
X-158733Y-68185714D01*
X565076Y-49261904D02*
X565076Y-48461904D01*
X374600Y-48461904D01*
X260314Y-48500000D01*
X184123Y-48576190D01*
X146028Y-48652380D01*
X107933Y-48804761D01*
X107933Y-48919047D01*
X146028Y-49071428D01*
X184123Y-49147619D01*
X260314Y-49223809D01*
X374600Y-49261904D01*
X565076Y-49261904D01*
X-196828Y-48538095D02*
X-234923Y-48500000D01*
X-311114Y-48461904D01*
X-501590Y-48461904D01*
X-577780Y-48500000D01*
X-615876Y-48538095D01*
X-653971Y-48614285D01*
X-653971Y-48690476D01*
X-615876Y-48804761D01*
X-158733Y-49261904D01*
X-653971Y-49261904D01*
X565076Y-30261904D02*
X565076Y-29461904D01*
X374600Y-29461904D01*
X260314Y-29500000D01*
X184123Y-29576190D01*
X146028Y-29652380D01*
X107933Y-29804761D01*
X107933Y-29919047D01*
X146028Y-30071428D01*
X184123Y-30147619D01*
X260314Y-30223809D01*
X374600Y-30261904D01*
X565076Y-30261904D01*
X-653971Y-30261904D02*
X-196828Y-30261904D01*
X-425400Y-30261904D02*
X-425400Y-29461904D01*
X-349209Y-29576190D01*
X-273019Y-29652380D01*
X-196828Y-29690476D01*
X565076Y-11261904D02*
X565076Y-10461904D01*
X374600Y-10461904D01*
X260314Y-10500000D01*
X184123Y-10576190D01*
X146028Y-10652380D01*
X107933Y-10804761D01*
X107933Y-10919047D01*
X146028Y-11071428D01*
X184123Y-11147619D01*
X260314Y-11223809D01*
X374600Y-11261904D01*
X565076Y-11261904D01*
X-387304Y-10461904D02*
X-463495Y-10461904D01*
X-539685Y-10500000D01*
X-577780Y-10538095D01*
X-615876Y-10614285D01*
X-653971Y-10766666D01*
X-653971Y-10957142D01*
X-615876Y-11109523D01*
X-577780Y-11185714D01*
X-539685Y-11223809D01*
X-463495Y-11261904D01*
X-387304Y-11261904D01*
X-311114Y-11223809D01*
X-273019Y-11185714D01*
X-234923Y-11109523D01*
X-196828Y-10957142D01*
X-196828Y-10766666D01*
X-234923Y-10614285D01*
X-273019Y-10538095D01*
X-311114Y-10500000D01*
X-387304Y-10461904D01*
X121294904Y-59147704D02*
X121561571Y-58766752D01*
X121752047Y-59147704D02*
X121752047Y-58347704D01*
X121447285Y-58347704D01*
X121371095Y-58385800D01*
X121333000Y-58423895D01*
X121294904Y-58500085D01*
X121294904Y-58614371D01*
X121333000Y-58690561D01*
X121371095Y-58728657D01*
X121447285Y-58766752D01*
X121752047Y-58766752D01*
X120952047Y-58728657D02*
X120685380Y-58728657D01*
X120571095Y-59147704D02*
X120952047Y-59147704D01*
X120952047Y-58347704D01*
X120571095Y-58347704D01*
X120266333Y-59109609D02*
X120152047Y-59147704D01*
X119961571Y-59147704D01*
X119885380Y-59109609D01*
X119847285Y-59071514D01*
X119809190Y-58995323D01*
X119809190Y-58919133D01*
X119847285Y-58842942D01*
X119885380Y-58804847D01*
X119961571Y-58766752D01*
X120113952Y-58728657D01*
X120190142Y-58690561D01*
X120228238Y-58652466D01*
X120266333Y-58576276D01*
X120266333Y-58500085D01*
X120228238Y-58423895D01*
X120190142Y-58385800D01*
X120113952Y-58347704D01*
X119923476Y-58347704D01*
X119809190Y-58385800D01*
X119466333Y-58728657D02*
X119199666Y-58728657D01*
X119085380Y-59147704D02*
X119466333Y-59147704D01*
X119466333Y-58347704D01*
X119085380Y-58347704D01*
X118856809Y-58347704D02*
X118399666Y-58347704D01*
X118628238Y-59147704D02*
X118628238Y-58347704D01*
X96809523Y-44559761D02*
X96666666Y-44607380D01*
X96428571Y-44607380D01*
X96333333Y-44559761D01*
X96285714Y-44512142D01*
X96238095Y-44416904D01*
X96238095Y-44321666D01*
X96285714Y-44226428D01*
X96333333Y-44178809D01*
X96428571Y-44131190D01*
X96619047Y-44083571D01*
X96714285Y-44035952D01*
X96761904Y-43988333D01*
X96809523Y-43893095D01*
X96809523Y-43797857D01*
X96761904Y-43702619D01*
X96714285Y-43655000D01*
X96619047Y-43607380D01*
X96380952Y-43607380D01*
X96238095Y-43655000D01*
X95904761Y-43607380D02*
X95666666Y-44607380D01*
X95476190Y-43893095D01*
X95285714Y-44607380D01*
X95047619Y-43607380D01*
X94714285Y-43702619D02*
X94666666Y-43655000D01*
X94571428Y-43607380D01*
X94333333Y-43607380D01*
X94238095Y-43655000D01*
X94190476Y-43702619D01*
X94142857Y-43797857D01*
X94142857Y-43893095D01*
X94190476Y-44035952D01*
X94761904Y-44607380D01*
X94142857Y-44607380D01*
X93809523Y-43607380D02*
X93142857Y-43607380D01*
X93571428Y-44607380D01*
X96809523Y-63559761D02*
X96666666Y-63607380D01*
X96428571Y-63607380D01*
X96333333Y-63559761D01*
X96285714Y-63512142D01*
X96238095Y-63416904D01*
X96238095Y-63321666D01*
X96285714Y-63226428D01*
X96333333Y-63178809D01*
X96428571Y-63131190D01*
X96619047Y-63083571D01*
X96714285Y-63035952D01*
X96761904Y-62988333D01*
X96809523Y-62893095D01*
X96809523Y-62797857D01*
X96761904Y-62702619D01*
X96714285Y-62655000D01*
X96619047Y-62607380D01*
X96380952Y-62607380D01*
X96238095Y-62655000D01*
X95904761Y-62607380D02*
X95666666Y-63607380D01*
X95476190Y-62893095D01*
X95285714Y-63607380D01*
X95047619Y-62607380D01*
X94714285Y-62702619D02*
X94666666Y-62655000D01*
X94571428Y-62607380D01*
X94333333Y-62607380D01*
X94238095Y-62655000D01*
X94190476Y-62702619D01*
X94142857Y-62797857D01*
X94142857Y-62893095D01*
X94190476Y-63035952D01*
X94761904Y-63607380D01*
X94142857Y-63607380D01*
X93571428Y-63035952D02*
X93666666Y-62988333D01*
X93714285Y-62940714D01*
X93761904Y-62845476D01*
X93761904Y-62797857D01*
X93714285Y-62702619D01*
X93666666Y-62655000D01*
X93571428Y-62607380D01*
X93380952Y-62607380D01*
X93285714Y-62655000D01*
X93238095Y-62702619D01*
X93190476Y-62797857D01*
X93190476Y-62845476D01*
X93238095Y-62940714D01*
X93285714Y-62988333D01*
X93380952Y-63035952D01*
X93571428Y-63035952D01*
X93666666Y-63083571D01*
X93714285Y-63131190D01*
X93761904Y-63226428D01*
X93761904Y-63416904D01*
X93714285Y-63512142D01*
X93666666Y-63559761D01*
X93571428Y-63607380D01*
X93380952Y-63607380D01*
X93285714Y-63559761D01*
X93238095Y-63512142D01*
X93190476Y-63416904D01*
X93190476Y-63226428D01*
X93238095Y-63131190D01*
X93285714Y-63083571D01*
X93380952Y-63035952D01*
X111249761Y-69190476D02*
X111297380Y-69333333D01*
X111297380Y-69571428D01*
X111249761Y-69666666D01*
X111202142Y-69714285D01*
X111106904Y-69761904D01*
X111011666Y-69761904D01*
X110916428Y-69714285D01*
X110868809Y-69666666D01*
X110821190Y-69571428D01*
X110773571Y-69380952D01*
X110725952Y-69285714D01*
X110678333Y-69238095D01*
X110583095Y-69190476D01*
X110487857Y-69190476D01*
X110392619Y-69238095D01*
X110345000Y-69285714D01*
X110297380Y-69380952D01*
X110297380Y-69619047D01*
X110345000Y-69761904D01*
X110297380Y-70095238D02*
X111297380Y-70333333D01*
X110583095Y-70523809D01*
X111297380Y-70714285D01*
X110297380Y-70952380D01*
X110297380Y-71238095D02*
X110297380Y-71857142D01*
X110678333Y-71523809D01*
X110678333Y-71666666D01*
X110725952Y-71761904D01*
X110773571Y-71809523D01*
X110868809Y-71857142D01*
X111106904Y-71857142D01*
X111202142Y-71809523D01*
X111249761Y-71761904D01*
X111297380Y-71666666D01*
X111297380Y-71380952D01*
X111249761Y-71285714D01*
X111202142Y-71238095D01*
X110297380Y-72476190D02*
X110297380Y-72571428D01*
X110345000Y-72666666D01*
X110392619Y-72714285D01*
X110487857Y-72761904D01*
X110678333Y-72809523D01*
X110916428Y-72809523D01*
X111106904Y-72761904D01*
X111202142Y-72714285D01*
X111249761Y-72666666D01*
X111297380Y-72571428D01*
X111297380Y-72476190D01*
X111249761Y-72380952D01*
X111202142Y-72333333D01*
X111106904Y-72285714D01*
X110916428Y-72238095D01*
X110678333Y-72238095D01*
X110487857Y-72285714D01*
X110392619Y-72333333D01*
X110345000Y-72380952D01*
X110297380Y-72476190D01*
X39809523Y-76559761D02*
X39666666Y-76607380D01*
X39428571Y-76607380D01*
X39333333Y-76559761D01*
X39285714Y-76512142D01*
X39238095Y-76416904D01*
X39238095Y-76321666D01*
X39285714Y-76226428D01*
X39333333Y-76178809D01*
X39428571Y-76131190D01*
X39619047Y-76083571D01*
X39714285Y-76035952D01*
X39761904Y-75988333D01*
X39809523Y-75893095D01*
X39809523Y-75797857D01*
X39761904Y-75702619D01*
X39714285Y-75655000D01*
X39619047Y-75607380D01*
X39380952Y-75607380D01*
X39238095Y-75655000D01*
X38904761Y-75607380D02*
X38666666Y-76607380D01*
X38476190Y-75893095D01*
X38285714Y-76607380D01*
X38047619Y-75607380D01*
X37142857Y-76607380D02*
X37714285Y-76607380D01*
X37428571Y-76607380D02*
X37428571Y-75607380D01*
X37523809Y-75750238D01*
X37619047Y-75845476D01*
X37714285Y-75893095D01*
X36285714Y-75940714D02*
X36285714Y-76607380D01*
X36523809Y-75559761D02*
X36761904Y-76274047D01*
X36142857Y-76274047D01*
X96809523Y-82559761D02*
X96666666Y-82607380D01*
X96428571Y-82607380D01*
X96333333Y-82559761D01*
X96285714Y-82512142D01*
X96238095Y-82416904D01*
X96238095Y-82321666D01*
X96285714Y-82226428D01*
X96333333Y-82178809D01*
X96428571Y-82131190D01*
X96619047Y-82083571D01*
X96714285Y-82035952D01*
X96761904Y-81988333D01*
X96809523Y-81893095D01*
X96809523Y-81797857D01*
X96761904Y-81702619D01*
X96714285Y-81655000D01*
X96619047Y-81607380D01*
X96380952Y-81607380D01*
X96238095Y-81655000D01*
X95904761Y-81607380D02*
X95666666Y-82607380D01*
X95476190Y-81893095D01*
X95285714Y-82607380D01*
X95047619Y-81607380D01*
X94714285Y-81702619D02*
X94666666Y-81655000D01*
X94571428Y-81607380D01*
X94333333Y-81607380D01*
X94238095Y-81655000D01*
X94190476Y-81702619D01*
X94142857Y-81797857D01*
X94142857Y-81893095D01*
X94190476Y-82035952D01*
X94761904Y-82607380D01*
X94142857Y-82607380D01*
X93666666Y-82607380D02*
X93476190Y-82607380D01*
X93380952Y-82559761D01*
X93333333Y-82512142D01*
X93238095Y-82369285D01*
X93190476Y-82178809D01*
X93190476Y-81797857D01*
X93238095Y-81702619D01*
X93285714Y-81655000D01*
X93380952Y-81607380D01*
X93571428Y-81607380D01*
X93666666Y-81655000D01*
X93714285Y-81702619D01*
X93761904Y-81797857D01*
X93761904Y-82035952D01*
X93714285Y-82131190D01*
X93666666Y-82178809D01*
X93571428Y-82226428D01*
X93380952Y-82226428D01*
X93285714Y-82178809D01*
X93238095Y-82131190D01*
X93190476Y-82035952D01*
X96809523Y-25559761D02*
X96666666Y-25607380D01*
X96428571Y-25607380D01*
X96333333Y-25559761D01*
X96285714Y-25512142D01*
X96238095Y-25416904D01*
X96238095Y-25321666D01*
X96285714Y-25226428D01*
X96333333Y-25178809D01*
X96428571Y-25131190D01*
X96619047Y-25083571D01*
X96714285Y-25035952D01*
X96761904Y-24988333D01*
X96809523Y-24893095D01*
X96809523Y-24797857D01*
X96761904Y-24702619D01*
X96714285Y-24655000D01*
X96619047Y-24607380D01*
X96380952Y-24607380D01*
X96238095Y-24655000D01*
X95904761Y-24607380D02*
X95666666Y-25607380D01*
X95476190Y-24893095D01*
X95285714Y-25607380D01*
X95047619Y-24607380D01*
X94714285Y-24702619D02*
X94666666Y-24655000D01*
X94571428Y-24607380D01*
X94333333Y-24607380D01*
X94238095Y-24655000D01*
X94190476Y-24702619D01*
X94142857Y-24797857D01*
X94142857Y-24893095D01*
X94190476Y-25035952D01*
X94761904Y-25607380D01*
X94142857Y-25607380D01*
X93285714Y-24607380D02*
X93476190Y-24607380D01*
X93571428Y-24655000D01*
X93619047Y-24702619D01*
X93714285Y-24845476D01*
X93761904Y-25035952D01*
X93761904Y-25416904D01*
X93714285Y-25512142D01*
X93666666Y-25559761D01*
X93571428Y-25607380D01*
X93380952Y-25607380D01*
X93285714Y-25559761D01*
X93238095Y-25512142D01*
X93190476Y-25416904D01*
X93190476Y-25178809D01*
X93238095Y-25083571D01*
X93285714Y-25035952D01*
X93380952Y-24988333D01*
X93571428Y-24988333D01*
X93666666Y-25035952D01*
X93714285Y-25083571D01*
X93761904Y-25178809D01*
X96809523Y-6559761D02*
X96666666Y-6607380D01*
X96428571Y-6607380D01*
X96333333Y-6559761D01*
X96285714Y-6512142D01*
X96238095Y-6416904D01*
X96238095Y-6321666D01*
X96285714Y-6226428D01*
X96333333Y-6178809D01*
X96428571Y-6131190D01*
X96619047Y-6083571D01*
X96714285Y-6035952D01*
X96761904Y-5988333D01*
X96809523Y-5893095D01*
X96809523Y-5797857D01*
X96761904Y-5702619D01*
X96714285Y-5655000D01*
X96619047Y-5607380D01*
X96380952Y-5607380D01*
X96238095Y-5655000D01*
X95904761Y-5607380D02*
X95666666Y-6607380D01*
X95476190Y-5893095D01*
X95285714Y-6607380D01*
X95047619Y-5607380D01*
X94714285Y-5702619D02*
X94666666Y-5655000D01*
X94571428Y-5607380D01*
X94333333Y-5607380D01*
X94238095Y-5655000D01*
X94190476Y-5702619D01*
X94142857Y-5797857D01*
X94142857Y-5893095D01*
X94190476Y-6035952D01*
X94761904Y-6607380D01*
X94142857Y-6607380D01*
X93238095Y-5607380D02*
X93714285Y-5607380D01*
X93761904Y-6083571D01*
X93714285Y-6035952D01*
X93619047Y-5988333D01*
X93380952Y-5988333D01*
X93285714Y-6035952D01*
X93238095Y-6083571D01*
X93190476Y-6178809D01*
X93190476Y-6416904D01*
X93238095Y-6512142D01*
X93285714Y-6559761D01*
X93380952Y-6607380D01*
X93619047Y-6607380D01*
X93714285Y-6559761D01*
X93761904Y-6512142D01*
X77809523Y-77559761D02*
X77666666Y-77607380D01*
X77428571Y-77607380D01*
X77333333Y-77559761D01*
X77285714Y-77512142D01*
X77238095Y-77416904D01*
X77238095Y-77321666D01*
X77285714Y-77226428D01*
X77333333Y-77178809D01*
X77428571Y-77131190D01*
X77619047Y-77083571D01*
X77714285Y-77035952D01*
X77761904Y-76988333D01*
X77809523Y-76893095D01*
X77809523Y-76797857D01*
X77761904Y-76702619D01*
X77714285Y-76655000D01*
X77619047Y-76607380D01*
X77380952Y-76607380D01*
X77238095Y-76655000D01*
X76904761Y-76607380D02*
X76666666Y-77607380D01*
X76476190Y-76893095D01*
X76285714Y-77607380D01*
X76047619Y-76607380D01*
X75714285Y-76702619D02*
X75666666Y-76655000D01*
X75571428Y-76607380D01*
X75333333Y-76607380D01*
X75238095Y-76655000D01*
X75190476Y-76702619D01*
X75142857Y-76797857D01*
X75142857Y-76893095D01*
X75190476Y-77035952D01*
X75761904Y-77607380D01*
X75142857Y-77607380D01*
X74285714Y-76940714D02*
X74285714Y-77607380D01*
X74523809Y-76559761D02*
X74761904Y-77274047D01*
X74142857Y-77274047D01*
X77809523Y-58559761D02*
X77666666Y-58607380D01*
X77428571Y-58607380D01*
X77333333Y-58559761D01*
X77285714Y-58512142D01*
X77238095Y-58416904D01*
X77238095Y-58321666D01*
X77285714Y-58226428D01*
X77333333Y-58178809D01*
X77428571Y-58131190D01*
X77619047Y-58083571D01*
X77714285Y-58035952D01*
X77761904Y-57988333D01*
X77809523Y-57893095D01*
X77809523Y-57797857D01*
X77761904Y-57702619D01*
X77714285Y-57655000D01*
X77619047Y-57607380D01*
X77380952Y-57607380D01*
X77238095Y-57655000D01*
X76904761Y-57607380D02*
X76666666Y-58607380D01*
X76476190Y-57893095D01*
X76285714Y-58607380D01*
X76047619Y-57607380D01*
X75714285Y-57702619D02*
X75666666Y-57655000D01*
X75571428Y-57607380D01*
X75333333Y-57607380D01*
X75238095Y-57655000D01*
X75190476Y-57702619D01*
X75142857Y-57797857D01*
X75142857Y-57893095D01*
X75190476Y-58035952D01*
X75761904Y-58607380D01*
X75142857Y-58607380D01*
X74809523Y-57607380D02*
X74190476Y-57607380D01*
X74523809Y-57988333D01*
X74380952Y-57988333D01*
X74285714Y-58035952D01*
X74238095Y-58083571D01*
X74190476Y-58178809D01*
X74190476Y-58416904D01*
X74238095Y-58512142D01*
X74285714Y-58559761D01*
X74380952Y-58607380D01*
X74666666Y-58607380D01*
X74761904Y-58559761D01*
X74809523Y-58512142D01*
X77809523Y-39559761D02*
X77666666Y-39607380D01*
X77428571Y-39607380D01*
X77333333Y-39559761D01*
X77285714Y-39512142D01*
X77238095Y-39416904D01*
X77238095Y-39321666D01*
X77285714Y-39226428D01*
X77333333Y-39178809D01*
X77428571Y-39131190D01*
X77619047Y-39083571D01*
X77714285Y-39035952D01*
X77761904Y-38988333D01*
X77809523Y-38893095D01*
X77809523Y-38797857D01*
X77761904Y-38702619D01*
X77714285Y-38655000D01*
X77619047Y-38607380D01*
X77380952Y-38607380D01*
X77238095Y-38655000D01*
X76904761Y-38607380D02*
X76666666Y-39607380D01*
X76476190Y-38893095D01*
X76285714Y-39607380D01*
X76047619Y-38607380D01*
X75714285Y-38702619D02*
X75666666Y-38655000D01*
X75571428Y-38607380D01*
X75333333Y-38607380D01*
X75238095Y-38655000D01*
X75190476Y-38702619D01*
X75142857Y-38797857D01*
X75142857Y-38893095D01*
X75190476Y-39035952D01*
X75761904Y-39607380D01*
X75142857Y-39607380D01*
X74761904Y-38702619D02*
X74714285Y-38655000D01*
X74619047Y-38607380D01*
X74380952Y-38607380D01*
X74285714Y-38655000D01*
X74238095Y-38702619D01*
X74190476Y-38797857D01*
X74190476Y-38893095D01*
X74238095Y-39035952D01*
X74809523Y-39607380D01*
X74190476Y-39607380D01*
X77809523Y-20559761D02*
X77666666Y-20607380D01*
X77428571Y-20607380D01*
X77333333Y-20559761D01*
X77285714Y-20512142D01*
X77238095Y-20416904D01*
X77238095Y-20321666D01*
X77285714Y-20226428D01*
X77333333Y-20178809D01*
X77428571Y-20131190D01*
X77619047Y-20083571D01*
X77714285Y-20035952D01*
X77761904Y-19988333D01*
X77809523Y-19893095D01*
X77809523Y-19797857D01*
X77761904Y-19702619D01*
X77714285Y-19655000D01*
X77619047Y-19607380D01*
X77380952Y-19607380D01*
X77238095Y-19655000D01*
X76904761Y-19607380D02*
X76666666Y-20607380D01*
X76476190Y-19893095D01*
X76285714Y-20607380D01*
X76047619Y-19607380D01*
X75714285Y-19702619D02*
X75666666Y-19655000D01*
X75571428Y-19607380D01*
X75333333Y-19607380D01*
X75238095Y-19655000D01*
X75190476Y-19702619D01*
X75142857Y-19797857D01*
X75142857Y-19893095D01*
X75190476Y-20035952D01*
X75761904Y-20607380D01*
X75142857Y-20607380D01*
X74190476Y-20607380D02*
X74761904Y-20607380D01*
X74476190Y-20607380D02*
X74476190Y-19607380D01*
X74571428Y-19750238D01*
X74666666Y-19845476D01*
X74761904Y-19893095D01*
X77809523Y-1559761D02*
X77666666Y-1607380D01*
X77428571Y-1607380D01*
X77333333Y-1559761D01*
X77285714Y-1512142D01*
X77238095Y-1416904D01*
X77238095Y-1321666D01*
X77285714Y-1226428D01*
X77333333Y-1178809D01*
X77428571Y-1131190D01*
X77619047Y-1083571D01*
X77714285Y-1035952D01*
X77761904Y-988333D01*
X77809523Y-893095D01*
X77809523Y-797857D01*
X77761904Y-702619D01*
X77714285Y-655000D01*
X77619047Y-607380D01*
X77380952Y-607380D01*
X77238095Y-655000D01*
X76904761Y-607380D02*
X76666666Y-1607380D01*
X76476190Y-893095D01*
X76285714Y-1607380D01*
X76047619Y-607380D01*
X75714285Y-702619D02*
X75666666Y-655000D01*
X75571428Y-607380D01*
X75333333Y-607380D01*
X75238095Y-655000D01*
X75190476Y-702619D01*
X75142857Y-797857D01*
X75142857Y-893095D01*
X75190476Y-1035952D01*
X75761904Y-1607380D01*
X75142857Y-1607380D01*
X74523809Y-607380D02*
X74428571Y-607380D01*
X74333333Y-655000D01*
X74285714Y-702619D01*
X74238095Y-797857D01*
X74190476Y-988333D01*
X74190476Y-1226428D01*
X74238095Y-1416904D01*
X74285714Y-1512142D01*
X74333333Y-1559761D01*
X74428571Y-1607380D01*
X74523809Y-1607380D01*
X74619047Y-1559761D01*
X74666666Y-1512142D01*
X74714285Y-1416904D01*
X74761904Y-1226428D01*
X74761904Y-988333D01*
X74714285Y-797857D01*
X74666666Y-702619D01*
X74619047Y-655000D01*
X74523809Y-607380D01*
X58809523Y-71559761D02*
X58666666Y-71607380D01*
X58428571Y-71607380D01*
X58333333Y-71559761D01*
X58285714Y-71512142D01*
X58238095Y-71416904D01*
X58238095Y-71321666D01*
X58285714Y-71226428D01*
X58333333Y-71178809D01*
X58428571Y-71131190D01*
X58619047Y-71083571D01*
X58714285Y-71035952D01*
X58761904Y-70988333D01*
X58809523Y-70893095D01*
X58809523Y-70797857D01*
X58761904Y-70702619D01*
X58714285Y-70655000D01*
X58619047Y-70607380D01*
X58380952Y-70607380D01*
X58238095Y-70655000D01*
X57904761Y-70607380D02*
X57666666Y-71607380D01*
X57476190Y-70893095D01*
X57285714Y-71607380D01*
X57047619Y-70607380D01*
X56142857Y-71607380D02*
X56714285Y-71607380D01*
X56428571Y-71607380D02*
X56428571Y-70607380D01*
X56523809Y-70750238D01*
X56619047Y-70845476D01*
X56714285Y-70893095D01*
X55666666Y-71607380D02*
X55476190Y-71607380D01*
X55380952Y-71559761D01*
X55333333Y-71512142D01*
X55238095Y-71369285D01*
X55190476Y-71178809D01*
X55190476Y-70797857D01*
X55238095Y-70702619D01*
X55285714Y-70655000D01*
X55380952Y-70607380D01*
X55571428Y-70607380D01*
X55666666Y-70655000D01*
X55714285Y-70702619D01*
X55761904Y-70797857D01*
X55761904Y-71035952D01*
X55714285Y-71131190D01*
X55666666Y-71178809D01*
X55571428Y-71226428D01*
X55380952Y-71226428D01*
X55285714Y-71178809D01*
X55238095Y-71131190D01*
X55190476Y-71035952D01*
X58809523Y-52559761D02*
X58666666Y-52607380D01*
X58428571Y-52607380D01*
X58333333Y-52559761D01*
X58285714Y-52512142D01*
X58238095Y-52416904D01*
X58238095Y-52321666D01*
X58285714Y-52226428D01*
X58333333Y-52178809D01*
X58428571Y-52131190D01*
X58619047Y-52083571D01*
X58714285Y-52035952D01*
X58761904Y-51988333D01*
X58809523Y-51893095D01*
X58809523Y-51797857D01*
X58761904Y-51702619D01*
X58714285Y-51655000D01*
X58619047Y-51607380D01*
X58380952Y-51607380D01*
X58238095Y-51655000D01*
X57904761Y-51607380D02*
X57666666Y-52607380D01*
X57476190Y-51893095D01*
X57285714Y-52607380D01*
X57047619Y-51607380D01*
X56142857Y-52607380D02*
X56714285Y-52607380D01*
X56428571Y-52607380D02*
X56428571Y-51607380D01*
X56523809Y-51750238D01*
X56619047Y-51845476D01*
X56714285Y-51893095D01*
X55571428Y-52035952D02*
X55666666Y-51988333D01*
X55714285Y-51940714D01*
X55761904Y-51845476D01*
X55761904Y-51797857D01*
X55714285Y-51702619D01*
X55666666Y-51655000D01*
X55571428Y-51607380D01*
X55380952Y-51607380D01*
X55285714Y-51655000D01*
X55238095Y-51702619D01*
X55190476Y-51797857D01*
X55190476Y-51845476D01*
X55238095Y-51940714D01*
X55285714Y-51988333D01*
X55380952Y-52035952D01*
X55571428Y-52035952D01*
X55666666Y-52083571D01*
X55714285Y-52131190D01*
X55761904Y-52226428D01*
X55761904Y-52416904D01*
X55714285Y-52512142D01*
X55666666Y-52559761D01*
X55571428Y-52607380D01*
X55380952Y-52607380D01*
X55285714Y-52559761D01*
X55238095Y-52512142D01*
X55190476Y-52416904D01*
X55190476Y-52226428D01*
X55238095Y-52131190D01*
X55285714Y-52083571D01*
X55380952Y-52035952D01*
X58809523Y-33559761D02*
X58666666Y-33607380D01*
X58428571Y-33607380D01*
X58333333Y-33559761D01*
X58285714Y-33512142D01*
X58238095Y-33416904D01*
X58238095Y-33321666D01*
X58285714Y-33226428D01*
X58333333Y-33178809D01*
X58428571Y-33131190D01*
X58619047Y-33083571D01*
X58714285Y-33035952D01*
X58761904Y-32988333D01*
X58809523Y-32893095D01*
X58809523Y-32797857D01*
X58761904Y-32702619D01*
X58714285Y-32655000D01*
X58619047Y-32607380D01*
X58380952Y-32607380D01*
X58238095Y-32655000D01*
X57904761Y-32607380D02*
X57666666Y-33607380D01*
X57476190Y-32893095D01*
X57285714Y-33607380D01*
X57047619Y-32607380D01*
X56142857Y-33607380D02*
X56714285Y-33607380D01*
X56428571Y-33607380D02*
X56428571Y-32607380D01*
X56523809Y-32750238D01*
X56619047Y-32845476D01*
X56714285Y-32893095D01*
X55809523Y-32607380D02*
X55142857Y-32607380D01*
X55571428Y-33607380D01*
X58809523Y-14559761D02*
X58666666Y-14607380D01*
X58428571Y-14607380D01*
X58333333Y-14559761D01*
X58285714Y-14512142D01*
X58238095Y-14416904D01*
X58238095Y-14321666D01*
X58285714Y-14226428D01*
X58333333Y-14178809D01*
X58428571Y-14131190D01*
X58619047Y-14083571D01*
X58714285Y-14035952D01*
X58761904Y-13988333D01*
X58809523Y-13893095D01*
X58809523Y-13797857D01*
X58761904Y-13702619D01*
X58714285Y-13655000D01*
X58619047Y-13607380D01*
X58380952Y-13607380D01*
X58238095Y-13655000D01*
X57904761Y-13607380D02*
X57666666Y-14607380D01*
X57476190Y-13893095D01*
X57285714Y-14607380D01*
X57047619Y-13607380D01*
X56142857Y-14607380D02*
X56714285Y-14607380D01*
X56428571Y-14607380D02*
X56428571Y-13607380D01*
X56523809Y-13750238D01*
X56619047Y-13845476D01*
X56714285Y-13893095D01*
X55285714Y-13607380D02*
X55476190Y-13607380D01*
X55571428Y-13655000D01*
X55619047Y-13702619D01*
X55714285Y-13845476D01*
X55761904Y-14035952D01*
X55761904Y-14416904D01*
X55714285Y-14512142D01*
X55666666Y-14559761D01*
X55571428Y-14607380D01*
X55380952Y-14607380D01*
X55285714Y-14559761D01*
X55238095Y-14512142D01*
X55190476Y-14416904D01*
X55190476Y-14178809D01*
X55238095Y-14083571D01*
X55285714Y-14035952D01*
X55380952Y-13988333D01*
X55571428Y-13988333D01*
X55666666Y-14035952D01*
X55714285Y-14083571D01*
X55761904Y-14178809D01*
X39809523Y-57559761D02*
X39666666Y-57607380D01*
X39428571Y-57607380D01*
X39333333Y-57559761D01*
X39285714Y-57512142D01*
X39238095Y-57416904D01*
X39238095Y-57321666D01*
X39285714Y-57226428D01*
X39333333Y-57178809D01*
X39428571Y-57131190D01*
X39619047Y-57083571D01*
X39714285Y-57035952D01*
X39761904Y-56988333D01*
X39809523Y-56893095D01*
X39809523Y-56797857D01*
X39761904Y-56702619D01*
X39714285Y-56655000D01*
X39619047Y-56607380D01*
X39380952Y-56607380D01*
X39238095Y-56655000D01*
X38904761Y-56607380D02*
X38666666Y-57607380D01*
X38476190Y-56893095D01*
X38285714Y-57607380D01*
X38047619Y-56607380D01*
X37142857Y-57607380D02*
X37714285Y-57607380D01*
X37428571Y-57607380D02*
X37428571Y-56607380D01*
X37523809Y-56750238D01*
X37619047Y-56845476D01*
X37714285Y-56893095D01*
X36809523Y-56607380D02*
X36190476Y-56607380D01*
X36523809Y-56988333D01*
X36380952Y-56988333D01*
X36285714Y-57035952D01*
X36238095Y-57083571D01*
X36190476Y-57178809D01*
X36190476Y-57416904D01*
X36238095Y-57512142D01*
X36285714Y-57559761D01*
X36380952Y-57607380D01*
X36666666Y-57607380D01*
X36761904Y-57559761D01*
X36809523Y-57512142D01*
X39809523Y-38559761D02*
X39666666Y-38607380D01*
X39428571Y-38607380D01*
X39333333Y-38559761D01*
X39285714Y-38512142D01*
X39238095Y-38416904D01*
X39238095Y-38321666D01*
X39285714Y-38226428D01*
X39333333Y-38178809D01*
X39428571Y-38131190D01*
X39619047Y-38083571D01*
X39714285Y-38035952D01*
X39761904Y-37988333D01*
X39809523Y-37893095D01*
X39809523Y-37797857D01*
X39761904Y-37702619D01*
X39714285Y-37655000D01*
X39619047Y-37607380D01*
X39380952Y-37607380D01*
X39238095Y-37655000D01*
X38904761Y-37607380D02*
X38666666Y-38607380D01*
X38476190Y-37893095D01*
X38285714Y-38607380D01*
X38047619Y-37607380D01*
X37142857Y-38607380D02*
X37714285Y-38607380D01*
X37428571Y-38607380D02*
X37428571Y-37607380D01*
X37523809Y-37750238D01*
X37619047Y-37845476D01*
X37714285Y-37893095D01*
X36761904Y-37702619D02*
X36714285Y-37655000D01*
X36619047Y-37607380D01*
X36380952Y-37607380D01*
X36285714Y-37655000D01*
X36238095Y-37702619D01*
X36190476Y-37797857D01*
X36190476Y-37893095D01*
X36238095Y-38035952D01*
X36809523Y-38607380D01*
X36190476Y-38607380D01*
X39809523Y-19559761D02*
X39666666Y-19607380D01*
X39428571Y-19607380D01*
X39333333Y-19559761D01*
X39285714Y-19512142D01*
X39238095Y-19416904D01*
X39238095Y-19321666D01*
X39285714Y-19226428D01*
X39333333Y-19178809D01*
X39428571Y-19131190D01*
X39619047Y-19083571D01*
X39714285Y-19035952D01*
X39761904Y-18988333D01*
X39809523Y-18893095D01*
X39809523Y-18797857D01*
X39761904Y-18702619D01*
X39714285Y-18655000D01*
X39619047Y-18607380D01*
X39380952Y-18607380D01*
X39238095Y-18655000D01*
X38904761Y-18607380D02*
X38666666Y-19607380D01*
X38476190Y-18893095D01*
X38285714Y-19607380D01*
X38047619Y-18607380D01*
X37142857Y-19607380D02*
X37714285Y-19607380D01*
X37428571Y-19607380D02*
X37428571Y-18607380D01*
X37523809Y-18750238D01*
X37619047Y-18845476D01*
X37714285Y-18893095D01*
X36190476Y-19607380D02*
X36761904Y-19607380D01*
X36476190Y-19607380D02*
X36476190Y-18607380D01*
X36571428Y-18750238D01*
X36666666Y-18845476D01*
X36761904Y-18893095D01*
X39809523Y-559761D02*
X39666666Y-607380D01*
X39428571Y-607380D01*
X39333333Y-559761D01*
X39285714Y-512142D01*
X39238095Y-416904D01*
X39238095Y-321666D01*
X39285714Y-226428D01*
X39333333Y-178809D01*
X39428571Y-131190D01*
X39619047Y-83571D01*
X39714285Y-35952D01*
X39761904Y11666D01*
X39809523Y106904D01*
X39809523Y202142D01*
X39761904Y297380D01*
X39714285Y345000D01*
X39619047Y392619D01*
X39380952Y392619D01*
X39238095Y345000D01*
X38904761Y392619D02*
X38666666Y-607380D01*
X38476190Y106904D01*
X38285714Y-607380D01*
X38047619Y392619D01*
X37142857Y-607380D02*
X37714285Y-607380D01*
X37428571Y-607380D02*
X37428571Y392619D01*
X37523809Y249761D01*
X37619047Y154523D01*
X37714285Y106904D01*
X36523809Y392619D02*
X36428571Y392619D01*
X36333333Y345000D01*
X36285714Y297380D01*
X36238095Y202142D01*
X36190476Y11666D01*
X36190476Y-226428D01*
X36238095Y-416904D01*
X36285714Y-512142D01*
X36333333Y-559761D01*
X36428571Y-607380D01*
X36523809Y-607380D01*
X36619047Y-559761D01*
X36666666Y-512142D01*
X36714285Y-416904D01*
X36761904Y-226428D01*
X36761904Y11666D01*
X36714285Y202142D01*
X36666666Y297380D01*
X36619047Y345000D01*
X36523809Y392619D01*
X20333333Y-79559761D02*
X20190476Y-79607380D01*
X19952380Y-79607380D01*
X19857142Y-79559761D01*
X19809523Y-79512142D01*
X19761904Y-79416904D01*
X19761904Y-79321666D01*
X19809523Y-79226428D01*
X19857142Y-79178809D01*
X19952380Y-79131190D01*
X20142857Y-79083571D01*
X20238095Y-79035952D01*
X20285714Y-78988333D01*
X20333333Y-78893095D01*
X20333333Y-78797857D01*
X20285714Y-78702619D01*
X20238095Y-78655000D01*
X20142857Y-78607380D01*
X19904761Y-78607380D01*
X19761904Y-78655000D01*
X19428571Y-78607380D02*
X19190476Y-79607380D01*
X19000000Y-78893095D01*
X18809523Y-79607380D01*
X18571428Y-78607380D01*
X18142857Y-79607380D02*
X17952380Y-79607380D01*
X17857142Y-79559761D01*
X17809523Y-79512142D01*
X17714285Y-79369285D01*
X17666666Y-79178809D01*
X17666666Y-78797857D01*
X17714285Y-78702619D01*
X17761904Y-78655000D01*
X17857142Y-78607380D01*
X18047619Y-78607380D01*
X18142857Y-78655000D01*
X18190476Y-78702619D01*
X18238095Y-78797857D01*
X18238095Y-79035952D01*
X18190476Y-79131190D01*
X18142857Y-79178809D01*
X18047619Y-79226428D01*
X17857142Y-79226428D01*
X17761904Y-79178809D01*
X17714285Y-79131190D01*
X17666666Y-79035952D01*
X20333333Y-60559761D02*
X20190476Y-60607380D01*
X19952380Y-60607380D01*
X19857142Y-60559761D01*
X19809523Y-60512142D01*
X19761904Y-60416904D01*
X19761904Y-60321666D01*
X19809523Y-60226428D01*
X19857142Y-60178809D01*
X19952380Y-60131190D01*
X20142857Y-60083571D01*
X20238095Y-60035952D01*
X20285714Y-59988333D01*
X20333333Y-59893095D01*
X20333333Y-59797857D01*
X20285714Y-59702619D01*
X20238095Y-59655000D01*
X20142857Y-59607380D01*
X19904761Y-59607380D01*
X19761904Y-59655000D01*
X19428571Y-59607380D02*
X19190476Y-60607380D01*
X19000000Y-59893095D01*
X18809523Y-60607380D01*
X18571428Y-59607380D01*
X18047619Y-60035952D02*
X18142857Y-59988333D01*
X18190476Y-59940714D01*
X18238095Y-59845476D01*
X18238095Y-59797857D01*
X18190476Y-59702619D01*
X18142857Y-59655000D01*
X18047619Y-59607380D01*
X17857142Y-59607380D01*
X17761904Y-59655000D01*
X17714285Y-59702619D01*
X17666666Y-59797857D01*
X17666666Y-59845476D01*
X17714285Y-59940714D01*
X17761904Y-59988333D01*
X17857142Y-60035952D01*
X18047619Y-60035952D01*
X18142857Y-60083571D01*
X18190476Y-60131190D01*
X18238095Y-60226428D01*
X18238095Y-60416904D01*
X18190476Y-60512142D01*
X18142857Y-60559761D01*
X18047619Y-60607380D01*
X17857142Y-60607380D01*
X17761904Y-60559761D01*
X17714285Y-60512142D01*
X17666666Y-60416904D01*
X17666666Y-60226428D01*
X17714285Y-60131190D01*
X17761904Y-60083571D01*
X17857142Y-60035952D01*
X20333333Y-41559761D02*
X20190476Y-41607380D01*
X19952380Y-41607380D01*
X19857142Y-41559761D01*
X19809523Y-41512142D01*
X19761904Y-41416904D01*
X19761904Y-41321666D01*
X19809523Y-41226428D01*
X19857142Y-41178809D01*
X19952380Y-41131190D01*
X20142857Y-41083571D01*
X20238095Y-41035952D01*
X20285714Y-40988333D01*
X20333333Y-40893095D01*
X20333333Y-40797857D01*
X20285714Y-40702619D01*
X20238095Y-40655000D01*
X20142857Y-40607380D01*
X19904761Y-40607380D01*
X19761904Y-40655000D01*
X19428571Y-40607380D02*
X19190476Y-41607380D01*
X19000000Y-40893095D01*
X18809523Y-41607380D01*
X18571428Y-40607380D01*
X18285714Y-40607380D02*
X17619047Y-40607380D01*
X18047619Y-41607380D01*
X20333333Y-22559761D02*
X20190476Y-22607380D01*
X19952380Y-22607380D01*
X19857142Y-22559761D01*
X19809523Y-22512142D01*
X19761904Y-22416904D01*
X19761904Y-22321666D01*
X19809523Y-22226428D01*
X19857142Y-22178809D01*
X19952380Y-22131190D01*
X20142857Y-22083571D01*
X20238095Y-22035952D01*
X20285714Y-21988333D01*
X20333333Y-21893095D01*
X20333333Y-21797857D01*
X20285714Y-21702619D01*
X20238095Y-21655000D01*
X20142857Y-21607380D01*
X19904761Y-21607380D01*
X19761904Y-21655000D01*
X19428571Y-21607380D02*
X19190476Y-22607380D01*
X19000000Y-21893095D01*
X18809523Y-22607380D01*
X18571428Y-21607380D01*
X17761904Y-21607380D02*
X17952380Y-21607380D01*
X18047619Y-21655000D01*
X18095238Y-21702619D01*
X18190476Y-21845476D01*
X18238095Y-22035952D01*
X18238095Y-22416904D01*
X18190476Y-22512142D01*
X18142857Y-22559761D01*
X18047619Y-22607380D01*
X17857142Y-22607380D01*
X17761904Y-22559761D01*
X17714285Y-22512142D01*
X17666666Y-22416904D01*
X17666666Y-22178809D01*
X17714285Y-22083571D01*
X17761904Y-22035952D01*
X17857142Y-21988333D01*
X18047619Y-21988333D01*
X18142857Y-22035952D01*
X18190476Y-22083571D01*
X18238095Y-22178809D01*
X20333333Y-3559761D02*
X20190476Y-3607380D01*
X19952380Y-3607380D01*
X19857142Y-3559761D01*
X19809523Y-3512142D01*
X19761904Y-3416904D01*
X19761904Y-3321666D01*
X19809523Y-3226428D01*
X19857142Y-3178809D01*
X19952380Y-3131190D01*
X20142857Y-3083571D01*
X20238095Y-3035952D01*
X20285714Y-2988333D01*
X20333333Y-2893095D01*
X20333333Y-2797857D01*
X20285714Y-2702619D01*
X20238095Y-2655000D01*
X20142857Y-2607380D01*
X19904761Y-2607380D01*
X19761904Y-2655000D01*
X19428571Y-2607380D02*
X19190476Y-3607380D01*
X19000000Y-2893095D01*
X18809523Y-3607380D01*
X18571428Y-2607380D01*
X17714285Y-2607380D02*
X18190476Y-2607380D01*
X18238095Y-3083571D01*
X18190476Y-3035952D01*
X18095238Y-2988333D01*
X17857142Y-2988333D01*
X17761904Y-3035952D01*
X17714285Y-3083571D01*
X17666666Y-3178809D01*
X17666666Y-3416904D01*
X17714285Y-3512142D01*
X17761904Y-3559761D01*
X17857142Y-3607380D01*
X18095238Y-3607380D01*
X18190476Y-3559761D01*
X18238095Y-3512142D01*
X58809523Y4440238D02*
X58666666Y4392619D01*
X58428571Y4392619D01*
X58333333Y4440238D01*
X58285714Y4487857D01*
X58238095Y4583095D01*
X58238095Y4678333D01*
X58285714Y4773571D01*
X58333333Y4821190D01*
X58428571Y4868809D01*
X58619047Y4916428D01*
X58714285Y4964047D01*
X58761904Y5011666D01*
X58809523Y5106904D01*
X58809523Y5202142D01*
X58761904Y5297380D01*
X58714285Y5345000D01*
X58619047Y5392619D01*
X58380952Y5392619D01*
X58238095Y5345000D01*
X57904761Y5392619D02*
X57666666Y4392619D01*
X57476190Y5106904D01*
X57285714Y4392619D01*
X57047619Y5392619D01*
X56142857Y4392619D02*
X56714285Y4392619D01*
X56428571Y4392619D02*
X56428571Y5392619D01*
X56523809Y5249761D01*
X56619047Y5154523D01*
X56714285Y5106904D01*
X55238095Y5392619D02*
X55714285Y5392619D01*
X55761904Y4916428D01*
X55714285Y4964047D01*
X55619047Y5011666D01*
X55380952Y5011666D01*
X55285714Y4964047D01*
X55238095Y4916428D01*
X55190476Y4821190D01*
X55190476Y4583095D01*
X55238095Y4487857D01*
X55285714Y4440238D01*
X55380952Y4392619D01*
X55619047Y4392619D01*
X55714285Y4440238D01*
X55761904Y4487857D01*
X1333333Y-79559761D02*
X1190476Y-79607380D01*
X952380Y-79607380D01*
X857142Y-79559761D01*
X809523Y-79512142D01*
X761904Y-79416904D01*
X761904Y-79321666D01*
X809523Y-79226428D01*
X857142Y-79178809D01*
X952380Y-79131190D01*
X1142857Y-79083571D01*
X1238095Y-79035952D01*
X1285714Y-78988333D01*
X1333333Y-78893095D01*
X1333333Y-78797857D01*
X1285714Y-78702619D01*
X1238095Y-78655000D01*
X1142857Y-78607380D01*
X904761Y-78607380D01*
X761904Y-78655000D01*
X428571Y-78607380D02*
X190476Y-79607380D01*
X0Y-78893095D01*
X-190476Y-79607380D01*
X-428571Y-78607380D01*
X-1238095Y-78940714D02*
X-1238095Y-79607380D01*
X-999999Y-78559761D02*
X-761904Y-79274047D01*
X-1380952Y-79274047D01*
X1333333Y-60559761D02*
X1190476Y-60607380D01*
X952380Y-60607380D01*
X857142Y-60559761D01*
X809523Y-60512142D01*
X761904Y-60416904D01*
X761904Y-60321666D01*
X809523Y-60226428D01*
X857142Y-60178809D01*
X952380Y-60131190D01*
X1142857Y-60083571D01*
X1238095Y-60035952D01*
X1285714Y-59988333D01*
X1333333Y-59893095D01*
X1333333Y-59797857D01*
X1285714Y-59702619D01*
X1238095Y-59655000D01*
X1142857Y-59607380D01*
X904761Y-59607380D01*
X761904Y-59655000D01*
X428571Y-59607380D02*
X190476Y-60607380D01*
X0Y-59893095D01*
X-190476Y-60607380D01*
X-428571Y-59607380D01*
X-714285Y-59607380D02*
X-1333333Y-59607380D01*
X-999999Y-59988333D01*
X-1142857Y-59988333D01*
X-1238095Y-60035952D01*
X-1285714Y-60083571D01*
X-1333333Y-60178809D01*
X-1333333Y-60416904D01*
X-1285714Y-60512142D01*
X-1238095Y-60559761D01*
X-1142857Y-60607380D01*
X-857142Y-60607380D01*
X-761904Y-60559761D01*
X-714285Y-60512142D01*
X1333333Y-41559761D02*
X1190476Y-41607380D01*
X952380Y-41607380D01*
X857142Y-41559761D01*
X809523Y-41512142D01*
X761904Y-41416904D01*
X761904Y-41321666D01*
X809523Y-41226428D01*
X857142Y-41178809D01*
X952380Y-41131190D01*
X1142857Y-41083571D01*
X1238095Y-41035952D01*
X1285714Y-40988333D01*
X1333333Y-40893095D01*
X1333333Y-40797857D01*
X1285714Y-40702619D01*
X1238095Y-40655000D01*
X1142857Y-40607380D01*
X904761Y-40607380D01*
X761904Y-40655000D01*
X428571Y-40607380D02*
X190476Y-41607380D01*
X0Y-40893095D01*
X-190476Y-41607380D01*
X-428571Y-40607380D01*
X-761904Y-40702619D02*
X-809523Y-40655000D01*
X-904761Y-40607380D01*
X-1142857Y-40607380D01*
X-1238095Y-40655000D01*
X-1285714Y-40702619D01*
X-1333333Y-40797857D01*
X-1333333Y-40893095D01*
X-1285714Y-41035952D01*
X-714285Y-41607380D01*
X-1333333Y-41607380D01*
X1333333Y-22559761D02*
X1190476Y-22607380D01*
X952380Y-22607380D01*
X857142Y-22559761D01*
X809523Y-22512142D01*
X761904Y-22416904D01*
X761904Y-22321666D01*
X809523Y-22226428D01*
X857142Y-22178809D01*
X952380Y-22131190D01*
X1142857Y-22083571D01*
X1238095Y-22035952D01*
X1285714Y-21988333D01*
X1333333Y-21893095D01*
X1333333Y-21797857D01*
X1285714Y-21702619D01*
X1238095Y-21655000D01*
X1142857Y-21607380D01*
X904761Y-21607380D01*
X761904Y-21655000D01*
X428571Y-21607380D02*
X190476Y-22607380D01*
X0Y-21893095D01*
X-190476Y-22607380D01*
X-428571Y-21607380D01*
X-1333333Y-22607380D02*
X-761904Y-22607380D01*
X-1047619Y-22607380D02*
X-1047619Y-21607380D01*
X-952380Y-21750238D01*
X-857142Y-21845476D01*
X-761904Y-21893095D01*
X1333333Y-3559761D02*
X1190476Y-3607380D01*
X952380Y-3607380D01*
X857142Y-3559761D01*
X809523Y-3512142D01*
X761904Y-3416904D01*
X761904Y-3321666D01*
X809523Y-3226428D01*
X857142Y-3178809D01*
X952380Y-3131190D01*
X1142857Y-3083571D01*
X1238095Y-3035952D01*
X1285714Y-2988333D01*
X1333333Y-2893095D01*
X1333333Y-2797857D01*
X1285714Y-2702619D01*
X1238095Y-2655000D01*
X1142857Y-2607380D01*
X904761Y-2607380D01*
X761904Y-2655000D01*
X428571Y-2607380D02*
X190476Y-3607380D01*
X0Y-2893095D01*
X-190476Y-3607380D01*
X-428571Y-2607380D01*
X-999999Y-2607380D02*
X-1095238Y-2607380D01*
X-1190476Y-2655000D01*
X-1238095Y-2702619D01*
X-1285714Y-2797857D01*
X-1333333Y-2988333D01*
X-1333333Y-3226428D01*
X-1285714Y-3416904D01*
X-1238095Y-3512142D01*
X-1190476Y-3559761D01*
X-1095238Y-3607380D01*
X-999999Y-3607380D01*
X-904761Y-3559761D01*
X-857142Y-3512142D01*
X-809523Y-3416904D01*
X-761904Y-3226428D01*
X-761904Y-2988333D01*
X-809523Y-2797857D01*
X-857142Y-2702619D01*
X-904761Y-2655000D01*
X-999999Y-2607380D01*
M02*
