G04 #@! TF.GenerationSoftware,KiCad,Pcbnew,(5.1.4)-1*
G04 #@! TF.CreationDate,2021-09-26T17:53:05-04:00*
G04 #@! TF.ProjectId,splitreus,73706c69-7472-4657-9573-2e6b69636164,1*
G04 #@! TF.SameCoordinates,Original*
G04 #@! TF.FileFunction,Paste,Bot*
G04 #@! TF.FilePolarity,Positive*
%FSLAX46Y46*%
G04 Gerber Fmt 4.6, Leading zero omitted, Abs format (unit mm)*
G04 Created by KiCad (PCBNEW (5.1.4)-1) date 2021-09-26 17:53:05*
%MOMM*%
%LPD*%
G04 APERTURE LIST*
%ADD10R,0.600000X1.000000*%
%ADD11R,1.000000X0.600000*%
%ADD12R,1.100000X0.600000*%
%ADD13R,2.500000X2.550000*%
%ADD14R,2.550000X2.500000*%
%ADD15R,1.000000X2.500000*%
%ADD16R,2.500000X1.000000*%
%ADD17R,1.200000X1.600000*%
%ADD18R,1.600000X1.200000*%
G04 APERTURE END LIST*
D10*
X93050000Y5502000D03*
D11*
X98850000Y6209000D03*
D12*
X98850000Y8495000D03*
X91650000Y6209000D03*
D10*
X95950000Y5502000D03*
X97450000Y5502000D03*
D11*
X91650000Y8495000D03*
D13*
X119080000Y-77290000D03*
X116540000Y-63440000D03*
D14*
X101540000Y-55070000D03*
X87690000Y-57610000D03*
X101540000Y-36020000D03*
X87690000Y-38560000D03*
X101540000Y-16970000D03*
X87690000Y-19510000D03*
X101540000Y2080000D03*
X87690000Y-460000D03*
X82490000Y-69120000D03*
X68640000Y-71660000D03*
X82490000Y-50070000D03*
X68640000Y-52610000D03*
X82490000Y-31020000D03*
X68640000Y-33560000D03*
X82490000Y-11970000D03*
X68640000Y-14510000D03*
X82490000Y7080000D03*
X68640000Y4540000D03*
X63440000Y-63120000D03*
X49590000Y-65660000D03*
X63440000Y-44070000D03*
X49590000Y-46610000D03*
X63440000Y-25020000D03*
X49590000Y-27560000D03*
X63440000Y-5970000D03*
X49590000Y-8510000D03*
X63440000Y13080000D03*
X49590000Y10540000D03*
X44390000Y-68120000D03*
X30540000Y-70660000D03*
X44390000Y-49070000D03*
X30540000Y-51610000D03*
X44390000Y-30020000D03*
X30540000Y-32560000D03*
X44390000Y-10970000D03*
X30540000Y-13510000D03*
X44390000Y8080000D03*
X30540000Y5540000D03*
X25340000Y-71120000D03*
X11490000Y-73660000D03*
X25340000Y-52070000D03*
X11490000Y-54610000D03*
X25340000Y-33020000D03*
X11490000Y-35560000D03*
X25340000Y-13970000D03*
X11490000Y-16510000D03*
X25340000Y5080000D03*
X11490000Y2540000D03*
X6290000Y-71120000D03*
X-7560000Y-73660000D03*
X6290000Y-52070000D03*
X-7560000Y-54610000D03*
X6290000Y-33020000D03*
X-7560000Y-35560000D03*
X6290000Y-13970000D03*
X-7560000Y-16510000D03*
X6290000Y5080000D03*
X-7560000Y2540000D03*
X101540000Y-74120000D03*
X87690000Y-76660000D03*
D15*
X108450000Y-74000000D03*
X110050000Y-74000000D03*
X108450000Y-68000000D03*
X110050000Y-68000000D03*
D16*
X98250000Y-84750000D03*
X98250000Y-83150000D03*
X92250000Y-84750000D03*
X92250000Y-83150000D03*
X98250000Y-65700000D03*
X98250000Y-64100000D03*
X92250000Y-65700000D03*
X92250000Y-64100000D03*
X98250000Y-46650000D03*
X98250000Y-45050000D03*
X92250000Y-46650000D03*
X92250000Y-45050000D03*
X98250000Y-27600000D03*
X98250000Y-26000000D03*
X92250000Y-27600000D03*
X92250000Y-26000000D03*
X98250000Y-8550000D03*
X98250000Y-6950000D03*
X92250000Y-8550000D03*
X92250000Y-6950000D03*
X79200000Y-79750000D03*
X79200000Y-78150000D03*
X73200000Y-79750000D03*
X73200000Y-78150000D03*
X79200000Y-60700000D03*
X79200000Y-59100000D03*
X73200000Y-60700000D03*
X73200000Y-59100000D03*
X79200000Y-41650000D03*
X79200000Y-40050000D03*
X73200000Y-41650000D03*
X73200000Y-40050000D03*
X79200000Y-22600000D03*
X79200000Y-21000000D03*
X73200000Y-22600000D03*
X73200000Y-21000000D03*
X79200000Y-3550000D03*
X79200000Y-1950000D03*
X73200000Y-3550000D03*
X73200000Y-1950000D03*
X60150000Y-73750000D03*
X60150000Y-72150000D03*
X54150000Y-73750000D03*
X54150000Y-72150000D03*
X60150000Y-54700000D03*
X60150000Y-53100000D03*
X54150000Y-54700000D03*
X54150000Y-53100000D03*
X60150000Y-35650000D03*
X60150000Y-34050000D03*
X54150000Y-35650000D03*
X54150000Y-34050000D03*
X60150000Y-16600000D03*
X60150000Y-15000000D03*
X54150000Y-16600000D03*
X54150000Y-15000000D03*
X60150000Y2450000D03*
X60150000Y4050000D03*
X54150000Y2450000D03*
X54150000Y4050000D03*
X41100000Y-78750000D03*
X41100000Y-77150000D03*
X35100000Y-78750000D03*
X35100000Y-77150000D03*
X41100000Y-59700000D03*
X41100000Y-58100000D03*
X35100000Y-59700000D03*
X35100000Y-58100000D03*
X41100000Y-40650000D03*
X41100000Y-39050000D03*
X35100000Y-40650000D03*
X35100000Y-39050000D03*
X41100000Y-21600000D03*
X41100000Y-20000000D03*
X35100000Y-21600000D03*
X35100000Y-20000000D03*
X41100000Y-2550000D03*
X41100000Y-950000D03*
X35100000Y-2550000D03*
X35100000Y-950000D03*
X22050000Y-81750000D03*
X22050000Y-80150000D03*
X16050000Y-81750000D03*
X16050000Y-80150000D03*
X22050000Y-62700000D03*
X22050000Y-61100000D03*
X16050000Y-62700000D03*
X16050000Y-61100000D03*
X22050000Y-43650000D03*
X22050000Y-42050000D03*
X16050000Y-43650000D03*
X16050000Y-42050000D03*
X22050000Y-24600000D03*
X22050000Y-23000000D03*
X16050000Y-24600000D03*
X16050000Y-23000000D03*
X22050000Y-5550000D03*
X22050000Y-3950000D03*
X16050000Y-5550000D03*
X16050000Y-3950000D03*
X3000000Y-81750000D03*
X3000000Y-80150000D03*
X-3000000Y-81750000D03*
X-3000000Y-80150000D03*
X3000000Y-62700000D03*
X3000000Y-61100000D03*
X-3000000Y-62700000D03*
X-3000000Y-61100000D03*
X3000000Y-43650000D03*
X3000000Y-42050000D03*
X-3000000Y-43650000D03*
X-3000000Y-42050000D03*
X3000000Y-24600000D03*
X3000000Y-23000000D03*
X-3000000Y-24600000D03*
X-3000000Y-23000000D03*
X3000000Y-5550000D03*
X3000000Y-3950000D03*
X-3000000Y-5550000D03*
X-3000000Y-3950000D03*
D17*
X106278000Y-72400000D03*
X106278000Y-69600000D03*
D18*
X96650000Y-87000000D03*
X93850000Y-87000000D03*
X96650000Y-67900000D03*
X93850000Y-67900000D03*
X96650000Y-48900000D03*
X93850000Y-48900000D03*
X96650000Y-29900000D03*
X93850000Y-29900000D03*
X96650000Y-10900000D03*
X93850000Y-10900000D03*
X77600000Y-82000000D03*
X74800000Y-82000000D03*
X77600000Y-62900000D03*
X74800000Y-62900000D03*
X77600000Y-43900000D03*
X74800000Y-43900000D03*
X77600000Y-24900000D03*
X74800000Y-24900000D03*
X77600000Y-5900000D03*
X74800000Y-5900000D03*
X58550000Y-76000000D03*
X55750000Y-76000000D03*
X58550000Y-56900000D03*
X55750000Y-56900000D03*
X58550000Y-37900000D03*
X55750000Y-37900000D03*
X58550000Y-18900000D03*
X55750000Y-18900000D03*
X58550000Y100000D03*
X55750000Y100000D03*
X39500000Y-81000000D03*
X36700000Y-81000000D03*
X39500000Y-61900000D03*
X36700000Y-61900000D03*
X39500000Y-42900000D03*
X36700000Y-42900000D03*
X39500000Y-23900000D03*
X36700000Y-23900000D03*
X39500000Y-4900000D03*
X36700000Y-4900000D03*
X20450000Y-84000000D03*
X17650000Y-84000000D03*
X20450000Y-64900000D03*
X17650000Y-64900000D03*
X20450000Y-45900000D03*
X17650000Y-45900000D03*
X20450000Y-26900000D03*
X17650000Y-26900000D03*
X20450000Y-7900000D03*
X17650000Y-7900000D03*
X1400000Y-84000000D03*
X-1400000Y-84000000D03*
X1400000Y-64950000D03*
X-1400000Y-64950000D03*
X1400000Y-45900000D03*
X-1400000Y-45900000D03*
X1400000Y-26900000D03*
X-1400000Y-26900000D03*
X1400000Y-7900000D03*
X-1400000Y-7900000D03*
M02*
