G04 #@! TF.GenerationSoftware,KiCad,Pcbnew,(5.1.4)-1*
G04 #@! TF.CreationDate,2020-06-07T15:02:50-04:00*
G04 #@! TF.ProjectId,splitreus,73706c69-7472-4657-9573-2e6b69636164,1*
G04 #@! TF.SameCoordinates,Original*
G04 #@! TF.FileFunction,Legend,Top*
G04 #@! TF.FilePolarity,Positive*
%FSLAX46Y46*%
G04 Gerber Fmt 4.6, Leading zero omitted, Abs format (unit mm)*
G04 Created by KiCad (PCBNEW (5.1.4)-1) date 2020-06-07 15:02:50*
%MOMM*%
%LPD*%
G04 APERTURE LIST*
%ADD10C,0.200000*%
%ADD11C,0.400000*%
%ADD12C,0.150000*%
%ADD13C,0.120000*%
G04 APERTURE END LIST*
D10*
X10702380Y-26071428D02*
X10035714Y-26071428D01*
X10226190Y-26071428D02*
X10130952Y-26023809D01*
X10083333Y-25976190D01*
X10035714Y-25880952D01*
X10035714Y-25785714D01*
X10654761Y-25071428D02*
X10702380Y-25166666D01*
X10702380Y-25357142D01*
X10654761Y-25452380D01*
X10559523Y-25500000D01*
X10178571Y-25500000D01*
X10083333Y-25452380D01*
X10035714Y-25357142D01*
X10035714Y-25166666D01*
X10083333Y-25071428D01*
X10178571Y-25023809D01*
X10273809Y-25023809D01*
X10369047Y-25500000D01*
X10035714Y-24690476D02*
X10702380Y-24452380D01*
X10035714Y-24214285D01*
X10702380Y-23309523D02*
X10702380Y-23880952D01*
X10702380Y-23595238D02*
X9702380Y-23595238D01*
X9845238Y-23690476D01*
X9940476Y-23785714D01*
X9988095Y-23880952D01*
X10607142Y-22880952D02*
X10654761Y-22833333D01*
X10702380Y-22880952D01*
X10654761Y-22928571D01*
X10607142Y-22880952D01*
X10702380Y-22880952D01*
X9702380Y-22214285D02*
X9702380Y-22119047D01*
X9750000Y-22023809D01*
X9797619Y-21976190D01*
X9892857Y-21928571D01*
X10083333Y-21880952D01*
X10321428Y-21880952D01*
X10511904Y-21928571D01*
X10607142Y-21976190D01*
X10654761Y-22023809D01*
X10702380Y-22119047D01*
X10702380Y-22214285D01*
X10654761Y-22309523D01*
X10607142Y-22357142D01*
X10511904Y-22404761D01*
X10321428Y-22452380D01*
X10083333Y-22452380D01*
X9892857Y-22404761D01*
X9797619Y-22357142D01*
X9750000Y-22309523D01*
X9702380Y-22214285D01*
D11*
X10714285Y-52000000D02*
X10857142Y-51714285D01*
X10857142Y-51142857D01*
X10714285Y-50857142D01*
X10428571Y-50714285D01*
X10285714Y-50714285D01*
X10000000Y-50857142D01*
X9857142Y-51142857D01*
X9857142Y-51571428D01*
X9714285Y-51857142D01*
X9428571Y-52000000D01*
X9285714Y-52000000D01*
X9000000Y-51857142D01*
X8857142Y-51571428D01*
X8857142Y-51142857D01*
X9000000Y-50857142D01*
X8857142Y-49428571D02*
X11857142Y-49428571D01*
X9000000Y-49428571D02*
X8857142Y-49142857D01*
X8857142Y-48571428D01*
X9000000Y-48285714D01*
X9142857Y-48142857D01*
X9428571Y-48000000D01*
X10285714Y-48000000D01*
X10571428Y-48142857D01*
X10714285Y-48285714D01*
X10857142Y-48571428D01*
X10857142Y-49142857D01*
X10714285Y-49428571D01*
X10857142Y-46285714D02*
X10714285Y-46571428D01*
X10428571Y-46714285D01*
X7857142Y-46714285D01*
X10857142Y-45142857D02*
X8857142Y-45142857D01*
X7857142Y-45142857D02*
X8000000Y-45285714D01*
X8142857Y-45142857D01*
X8000000Y-45000000D01*
X7857142Y-45142857D01*
X8142857Y-45142857D01*
X8857142Y-44142857D02*
X8857142Y-43000000D01*
X7857142Y-43714285D02*
X10428571Y-43714285D01*
X10714285Y-43571428D01*
X10857142Y-43285714D01*
X10857142Y-43000000D01*
X10857142Y-42000000D02*
X8857142Y-42000000D01*
X9428571Y-42000000D02*
X9142857Y-41857142D01*
X9000000Y-41714285D01*
X8857142Y-41428571D01*
X8857142Y-41142857D01*
X10714285Y-39000000D02*
X10857142Y-39285714D01*
X10857142Y-39857142D01*
X10714285Y-40142857D01*
X10428571Y-40285714D01*
X9285714Y-40285714D01*
X9000000Y-40142857D01*
X8857142Y-39857142D01*
X8857142Y-39285714D01*
X9000000Y-39000000D01*
X9285714Y-38857142D01*
X9571428Y-38857142D01*
X9857142Y-40285714D01*
X8857142Y-36285714D02*
X10857142Y-36285714D01*
X8857142Y-37571428D02*
X10428571Y-37571428D01*
X10714285Y-37428571D01*
X10857142Y-37142857D01*
X10857142Y-36714285D01*
X10714285Y-36428571D01*
X10571428Y-36285714D01*
X10714285Y-35000000D02*
X10857142Y-34714285D01*
X10857142Y-34142857D01*
X10714285Y-33857142D01*
X10428571Y-33714285D01*
X10285714Y-33714285D01*
X10000000Y-33857142D01*
X9857142Y-34142857D01*
X9857142Y-34571428D01*
X9714285Y-34857142D01*
X9428571Y-35000000D01*
X9285714Y-35000000D01*
X9000000Y-34857142D01*
X8857142Y-34571428D01*
X8857142Y-34142857D01*
X9000000Y-33857142D01*
X7857142Y-31142857D02*
X7857142Y-31714285D01*
X8000000Y-32000000D01*
X8142857Y-32142857D01*
X8571428Y-32428571D01*
X9142857Y-32571428D01*
X10285714Y-32571428D01*
X10571428Y-32428571D01*
X10714285Y-32285714D01*
X10857142Y-32000000D01*
X10857142Y-31428571D01*
X10714285Y-31142857D01*
X10571428Y-31000000D01*
X10285714Y-30857142D01*
X9571428Y-30857142D01*
X9285714Y-31000000D01*
X9142857Y-31142857D01*
X9000000Y-31428571D01*
X9000000Y-32000000D01*
X9142857Y-32285714D01*
X9285714Y-32428571D01*
X9571428Y-32571428D01*
X8142857Y-29714285D02*
X8000000Y-29571428D01*
X7857142Y-29285714D01*
X7857142Y-28571428D01*
X8000000Y-28285714D01*
X8142857Y-28142857D01*
X8428571Y-28000000D01*
X8714285Y-28000000D01*
X9142857Y-28142857D01*
X10857142Y-29857142D01*
X10857142Y-28000000D01*
D12*
X97022000Y-49738000D02*
X97022000Y-51262000D01*
X97403000Y-51262000D02*
X97403000Y-49738000D01*
X97530000Y-51262000D02*
X97530000Y-49738000D01*
X92450000Y-49738000D02*
X92450000Y-51262000D01*
X97149000Y-51262000D02*
X97149000Y-49738000D01*
X96768000Y-51262000D02*
X96768000Y-49738000D01*
X97530000Y-49738000D02*
X92450000Y-49738000D01*
X92450000Y-51262000D02*
X97530000Y-51262000D01*
X97276000Y-49738000D02*
X97276000Y-51262000D01*
X96895000Y-51262000D02*
X96895000Y-49738000D01*
X103738000Y-62978000D02*
X105262000Y-62978000D01*
X105262000Y-62597000D02*
X103738000Y-62597000D01*
X105262000Y-62470000D02*
X103738000Y-62470000D01*
X103738000Y-67550000D02*
X105262000Y-67550000D01*
X105262000Y-62851000D02*
X103738000Y-62851000D01*
X105262000Y-63232000D02*
X103738000Y-63232000D01*
X103738000Y-62470000D02*
X103738000Y-67550000D01*
X105262000Y-67550000D02*
X105262000Y-62470000D01*
X103738000Y-62724000D02*
X105262000Y-62724000D01*
X105262000Y-63105000D02*
X103738000Y-63105000D01*
X103738000Y-74978000D02*
X105262000Y-74978000D01*
X105262000Y-74597000D02*
X103738000Y-74597000D01*
X105262000Y-74470000D02*
X103738000Y-74470000D01*
X103738000Y-79550000D02*
X105262000Y-79550000D01*
X105262000Y-74851000D02*
X103738000Y-74851000D01*
X105262000Y-75232000D02*
X103738000Y-75232000D01*
X103738000Y-74470000D02*
X103738000Y-79550000D01*
X105262000Y-79550000D02*
X105262000Y-74470000D01*
X103738000Y-74724000D02*
X105262000Y-74724000D01*
X105262000Y-75105000D02*
X103738000Y-75105000D01*
X97022000Y-68738000D02*
X97022000Y-70262000D01*
X97403000Y-70262000D02*
X97403000Y-68738000D01*
X97530000Y-70262000D02*
X97530000Y-68738000D01*
X92450000Y-68738000D02*
X92450000Y-70262000D01*
X97149000Y-70262000D02*
X97149000Y-68738000D01*
X96768000Y-70262000D02*
X96768000Y-68738000D01*
X97530000Y-68738000D02*
X92450000Y-68738000D01*
X92450000Y-70262000D02*
X97530000Y-70262000D01*
X97276000Y-68738000D02*
X97276000Y-70262000D01*
X96895000Y-70262000D02*
X96895000Y-68738000D01*
X97022000Y-30738000D02*
X97022000Y-32262000D01*
X97403000Y-32262000D02*
X97403000Y-30738000D01*
X97530000Y-32262000D02*
X97530000Y-30738000D01*
X92450000Y-30738000D02*
X92450000Y-32262000D01*
X97149000Y-32262000D02*
X97149000Y-30738000D01*
X96768000Y-32262000D02*
X96768000Y-30738000D01*
X97530000Y-30738000D02*
X92450000Y-30738000D01*
X92450000Y-32262000D02*
X97530000Y-32262000D01*
X97276000Y-30738000D02*
X97276000Y-32262000D01*
X96895000Y-32262000D02*
X96895000Y-30738000D01*
X97022000Y-11738000D02*
X97022000Y-13262000D01*
X97403000Y-13262000D02*
X97403000Y-11738000D01*
X97530000Y-13262000D02*
X97530000Y-11738000D01*
X92450000Y-11738000D02*
X92450000Y-13262000D01*
X97149000Y-13262000D02*
X97149000Y-11738000D01*
X96768000Y-13262000D02*
X96768000Y-11738000D01*
X97530000Y-11738000D02*
X92450000Y-11738000D01*
X92450000Y-13262000D02*
X97530000Y-13262000D01*
X97276000Y-11738000D02*
X97276000Y-13262000D01*
X96895000Y-13262000D02*
X96895000Y-11738000D01*
X84738000Y-71978000D02*
X86262000Y-71978000D01*
X86262000Y-71597000D02*
X84738000Y-71597000D01*
X86262000Y-71470000D02*
X84738000Y-71470000D01*
X84738000Y-76550000D02*
X86262000Y-76550000D01*
X86262000Y-71851000D02*
X84738000Y-71851000D01*
X86262000Y-72232000D02*
X84738000Y-72232000D01*
X84738000Y-71470000D02*
X84738000Y-76550000D01*
X86262000Y-76550000D02*
X86262000Y-71470000D01*
X84738000Y-71724000D02*
X86262000Y-71724000D01*
X86262000Y-72105000D02*
X84738000Y-72105000D01*
X78022000Y-63738000D02*
X78022000Y-65262000D01*
X78403000Y-65262000D02*
X78403000Y-63738000D01*
X78530000Y-65262000D02*
X78530000Y-63738000D01*
X73450000Y-63738000D02*
X73450000Y-65262000D01*
X78149000Y-65262000D02*
X78149000Y-63738000D01*
X77768000Y-65262000D02*
X77768000Y-63738000D01*
X78530000Y-63738000D02*
X73450000Y-63738000D01*
X73450000Y-65262000D02*
X78530000Y-65262000D01*
X78276000Y-63738000D02*
X78276000Y-65262000D01*
X77895000Y-65262000D02*
X77895000Y-63738000D01*
X78022000Y-44738000D02*
X78022000Y-46262000D01*
X78403000Y-46262000D02*
X78403000Y-44738000D01*
X78530000Y-46262000D02*
X78530000Y-44738000D01*
X73450000Y-44738000D02*
X73450000Y-46262000D01*
X78149000Y-46262000D02*
X78149000Y-44738000D01*
X77768000Y-46262000D02*
X77768000Y-44738000D01*
X78530000Y-44738000D02*
X73450000Y-44738000D01*
X73450000Y-46262000D02*
X78530000Y-46262000D01*
X78276000Y-44738000D02*
X78276000Y-46262000D01*
X77895000Y-46262000D02*
X77895000Y-44738000D01*
X78022000Y-25738000D02*
X78022000Y-27262000D01*
X78403000Y-27262000D02*
X78403000Y-25738000D01*
X78530000Y-27262000D02*
X78530000Y-25738000D01*
X73450000Y-25738000D02*
X73450000Y-27262000D01*
X78149000Y-27262000D02*
X78149000Y-25738000D01*
X77768000Y-27262000D02*
X77768000Y-25738000D01*
X78530000Y-25738000D02*
X73450000Y-25738000D01*
X73450000Y-27262000D02*
X78530000Y-27262000D01*
X78276000Y-25738000D02*
X78276000Y-27262000D01*
X77895000Y-27262000D02*
X77895000Y-25738000D01*
X78022000Y-6738000D02*
X78022000Y-8262000D01*
X78403000Y-8262000D02*
X78403000Y-6738000D01*
X78530000Y-8262000D02*
X78530000Y-6738000D01*
X73450000Y-6738000D02*
X73450000Y-8262000D01*
X78149000Y-8262000D02*
X78149000Y-6738000D01*
X77768000Y-8262000D02*
X77768000Y-6738000D01*
X78530000Y-6738000D02*
X73450000Y-6738000D01*
X73450000Y-8262000D02*
X78530000Y-8262000D01*
X78276000Y-6738000D02*
X78276000Y-8262000D01*
X77895000Y-8262000D02*
X77895000Y-6738000D01*
X65738000Y-65978000D02*
X67262000Y-65978000D01*
X67262000Y-65597000D02*
X65738000Y-65597000D01*
X67262000Y-65470000D02*
X65738000Y-65470000D01*
X65738000Y-70550000D02*
X67262000Y-70550000D01*
X67262000Y-65851000D02*
X65738000Y-65851000D01*
X67262000Y-66232000D02*
X65738000Y-66232000D01*
X65738000Y-65470000D02*
X65738000Y-70550000D01*
X67262000Y-70550000D02*
X67262000Y-65470000D01*
X65738000Y-65724000D02*
X67262000Y-65724000D01*
X67262000Y-66105000D02*
X65738000Y-66105000D01*
X59022000Y-57738000D02*
X59022000Y-59262000D01*
X59403000Y-59262000D02*
X59403000Y-57738000D01*
X59530000Y-59262000D02*
X59530000Y-57738000D01*
X54450000Y-57738000D02*
X54450000Y-59262000D01*
X59149000Y-59262000D02*
X59149000Y-57738000D01*
X58768000Y-59262000D02*
X58768000Y-57738000D01*
X59530000Y-57738000D02*
X54450000Y-57738000D01*
X54450000Y-59262000D02*
X59530000Y-59262000D01*
X59276000Y-57738000D02*
X59276000Y-59262000D01*
X58895000Y-59262000D02*
X58895000Y-57738000D01*
X59022000Y-38738000D02*
X59022000Y-40262000D01*
X59403000Y-40262000D02*
X59403000Y-38738000D01*
X59530000Y-40262000D02*
X59530000Y-38738000D01*
X54450000Y-38738000D02*
X54450000Y-40262000D01*
X59149000Y-40262000D02*
X59149000Y-38738000D01*
X58768000Y-40262000D02*
X58768000Y-38738000D01*
X59530000Y-38738000D02*
X54450000Y-38738000D01*
X54450000Y-40262000D02*
X59530000Y-40262000D01*
X59276000Y-38738000D02*
X59276000Y-40262000D01*
X58895000Y-40262000D02*
X58895000Y-38738000D01*
X59022000Y-738000D02*
X59022000Y-2262000D01*
X59403000Y-2262000D02*
X59403000Y-738000D01*
X59530000Y-2262000D02*
X59530000Y-738000D01*
X54450000Y-738000D02*
X54450000Y-2262000D01*
X59149000Y-2262000D02*
X59149000Y-738000D01*
X58768000Y-2262000D02*
X58768000Y-738000D01*
X59530000Y-738000D02*
X54450000Y-738000D01*
X54450000Y-2262000D02*
X59530000Y-2262000D01*
X59276000Y-738000D02*
X59276000Y-2262000D01*
X58895000Y-2262000D02*
X58895000Y-738000D01*
X46738000Y-69978000D02*
X48262000Y-69978000D01*
X48262000Y-69597000D02*
X46738000Y-69597000D01*
X48262000Y-69470000D02*
X46738000Y-69470000D01*
X46738000Y-74550000D02*
X48262000Y-74550000D01*
X48262000Y-69851000D02*
X46738000Y-69851000D01*
X48262000Y-70232000D02*
X46738000Y-70232000D01*
X46738000Y-69470000D02*
X46738000Y-74550000D01*
X48262000Y-74550000D02*
X48262000Y-69470000D01*
X46738000Y-69724000D02*
X48262000Y-69724000D01*
X48262000Y-70105000D02*
X46738000Y-70105000D01*
X40022000Y-62738000D02*
X40022000Y-64262000D01*
X40403000Y-64262000D02*
X40403000Y-62738000D01*
X40530000Y-64262000D02*
X40530000Y-62738000D01*
X35450000Y-62738000D02*
X35450000Y-64262000D01*
X40149000Y-64262000D02*
X40149000Y-62738000D01*
X39768000Y-64262000D02*
X39768000Y-62738000D01*
X40530000Y-62738000D02*
X35450000Y-62738000D01*
X35450000Y-64262000D02*
X40530000Y-64262000D01*
X40276000Y-62738000D02*
X40276000Y-64262000D01*
X39895000Y-64262000D02*
X39895000Y-62738000D01*
X40022000Y-43738000D02*
X40022000Y-45262000D01*
X40403000Y-45262000D02*
X40403000Y-43738000D01*
X40530000Y-45262000D02*
X40530000Y-43738000D01*
X35450000Y-43738000D02*
X35450000Y-45262000D01*
X40149000Y-45262000D02*
X40149000Y-43738000D01*
X39768000Y-45262000D02*
X39768000Y-43738000D01*
X40530000Y-43738000D02*
X35450000Y-43738000D01*
X35450000Y-45262000D02*
X40530000Y-45262000D01*
X40276000Y-43738000D02*
X40276000Y-45262000D01*
X39895000Y-45262000D02*
X39895000Y-43738000D01*
X40022000Y-24738000D02*
X40022000Y-26262000D01*
X40403000Y-26262000D02*
X40403000Y-24738000D01*
X40530000Y-26262000D02*
X40530000Y-24738000D01*
X35450000Y-24738000D02*
X35450000Y-26262000D01*
X40149000Y-26262000D02*
X40149000Y-24738000D01*
X39768000Y-26262000D02*
X39768000Y-24738000D01*
X40530000Y-24738000D02*
X35450000Y-24738000D01*
X35450000Y-26262000D02*
X40530000Y-26262000D01*
X40276000Y-24738000D02*
X40276000Y-26262000D01*
X39895000Y-26262000D02*
X39895000Y-24738000D01*
X40022000Y-5738000D02*
X40022000Y-7262000D01*
X40403000Y-7262000D02*
X40403000Y-5738000D01*
X40530000Y-7262000D02*
X40530000Y-5738000D01*
X35450000Y-5738000D02*
X35450000Y-7262000D01*
X40149000Y-7262000D02*
X40149000Y-5738000D01*
X39768000Y-7262000D02*
X39768000Y-5738000D01*
X40530000Y-5738000D02*
X35450000Y-5738000D01*
X35450000Y-7262000D02*
X40530000Y-7262000D01*
X40276000Y-5738000D02*
X40276000Y-7262000D01*
X39895000Y-7262000D02*
X39895000Y-5738000D01*
X27738000Y-73978000D02*
X29262000Y-73978000D01*
X29262000Y-73597000D02*
X27738000Y-73597000D01*
X29262000Y-73470000D02*
X27738000Y-73470000D01*
X27738000Y-78550000D02*
X29262000Y-78550000D01*
X29262000Y-73851000D02*
X27738000Y-73851000D01*
X29262000Y-74232000D02*
X27738000Y-74232000D01*
X27738000Y-73470000D02*
X27738000Y-78550000D01*
X29262000Y-78550000D02*
X29262000Y-73470000D01*
X27738000Y-73724000D02*
X29262000Y-73724000D01*
X29262000Y-74105000D02*
X27738000Y-74105000D01*
X21022000Y-65738000D02*
X21022000Y-67262000D01*
X21403000Y-67262000D02*
X21403000Y-65738000D01*
X21530000Y-67262000D02*
X21530000Y-65738000D01*
X16450000Y-65738000D02*
X16450000Y-67262000D01*
X21149000Y-67262000D02*
X21149000Y-65738000D01*
X20768000Y-67262000D02*
X20768000Y-65738000D01*
X21530000Y-65738000D02*
X16450000Y-65738000D01*
X16450000Y-67262000D02*
X21530000Y-67262000D01*
X21276000Y-65738000D02*
X21276000Y-67262000D01*
X20895000Y-67262000D02*
X20895000Y-65738000D01*
X21022000Y-46738000D02*
X21022000Y-48262000D01*
X21403000Y-48262000D02*
X21403000Y-46738000D01*
X21530000Y-48262000D02*
X21530000Y-46738000D01*
X16450000Y-46738000D02*
X16450000Y-48262000D01*
X21149000Y-48262000D02*
X21149000Y-46738000D01*
X20768000Y-48262000D02*
X20768000Y-46738000D01*
X21530000Y-46738000D02*
X16450000Y-46738000D01*
X16450000Y-48262000D02*
X21530000Y-48262000D01*
X21276000Y-46738000D02*
X21276000Y-48262000D01*
X20895000Y-48262000D02*
X20895000Y-46738000D01*
X21022000Y-27738000D02*
X21022000Y-29262000D01*
X21403000Y-29262000D02*
X21403000Y-27738000D01*
X21530000Y-29262000D02*
X21530000Y-27738000D01*
X16450000Y-27738000D02*
X16450000Y-29262000D01*
X21149000Y-29262000D02*
X21149000Y-27738000D01*
X20768000Y-29262000D02*
X20768000Y-27738000D01*
X21530000Y-27738000D02*
X16450000Y-27738000D01*
X16450000Y-29262000D02*
X21530000Y-29262000D01*
X21276000Y-27738000D02*
X21276000Y-29262000D01*
X20895000Y-29262000D02*
X20895000Y-27738000D01*
X21022000Y-8738000D02*
X21022000Y-10262000D01*
X21403000Y-10262000D02*
X21403000Y-8738000D01*
X21530000Y-10262000D02*
X21530000Y-8738000D01*
X16450000Y-8738000D02*
X16450000Y-10262000D01*
X21149000Y-10262000D02*
X21149000Y-8738000D01*
X20768000Y-10262000D02*
X20768000Y-8738000D01*
X21530000Y-8738000D02*
X16450000Y-8738000D01*
X16450000Y-10262000D02*
X21530000Y-10262000D01*
X21276000Y-8738000D02*
X21276000Y-10262000D01*
X20895000Y-10262000D02*
X20895000Y-8738000D01*
X59022000Y-19738000D02*
X59022000Y-21262000D01*
X59403000Y-21262000D02*
X59403000Y-19738000D01*
X59530000Y-21262000D02*
X59530000Y-19738000D01*
X54450000Y-19738000D02*
X54450000Y-21262000D01*
X59149000Y-21262000D02*
X59149000Y-19738000D01*
X58768000Y-21262000D02*
X58768000Y-19738000D01*
X59530000Y-19738000D02*
X54450000Y-19738000D01*
X54450000Y-21262000D02*
X59530000Y-21262000D01*
X59276000Y-19738000D02*
X59276000Y-21262000D01*
X58895000Y-21262000D02*
X58895000Y-19738000D01*
X8738000Y-73978000D02*
X10262000Y-73978000D01*
X10262000Y-73597000D02*
X8738000Y-73597000D01*
X10262000Y-73470000D02*
X8738000Y-73470000D01*
X8738000Y-78550000D02*
X10262000Y-78550000D01*
X10262000Y-73851000D02*
X8738000Y-73851000D01*
X10262000Y-74232000D02*
X8738000Y-74232000D01*
X8738000Y-73470000D02*
X8738000Y-78550000D01*
X10262000Y-78550000D02*
X10262000Y-73470000D01*
X8738000Y-73724000D02*
X10262000Y-73724000D01*
X10262000Y-74105000D02*
X8738000Y-74105000D01*
X2022000Y-65738000D02*
X2022000Y-67262000D01*
X2403000Y-67262000D02*
X2403000Y-65738000D01*
X2530000Y-67262000D02*
X2530000Y-65738000D01*
X-2550000Y-65738000D02*
X-2550000Y-67262000D01*
X2149000Y-67262000D02*
X2149000Y-65738000D01*
X1768000Y-67262000D02*
X1768000Y-65738000D01*
X2530000Y-65738000D02*
X-2550000Y-65738000D01*
X-2550000Y-67262000D02*
X2530000Y-67262000D01*
X2276000Y-65738000D02*
X2276000Y-67262000D01*
X1895000Y-67262000D02*
X1895000Y-65738000D01*
X2022000Y-46738000D02*
X2022000Y-48262000D01*
X2403000Y-48262000D02*
X2403000Y-46738000D01*
X2530000Y-48262000D02*
X2530000Y-46738000D01*
X-2550000Y-46738000D02*
X-2550000Y-48262000D01*
X2149000Y-48262000D02*
X2149000Y-46738000D01*
X1768000Y-48262000D02*
X1768000Y-46738000D01*
X2530000Y-46738000D02*
X-2550000Y-46738000D01*
X-2550000Y-48262000D02*
X2530000Y-48262000D01*
X2276000Y-46738000D02*
X2276000Y-48262000D01*
X1895000Y-48262000D02*
X1895000Y-46738000D01*
X2022000Y-27738000D02*
X2022000Y-29262000D01*
X2403000Y-29262000D02*
X2403000Y-27738000D01*
X2530000Y-29262000D02*
X2530000Y-27738000D01*
X-2550000Y-27738000D02*
X-2550000Y-29262000D01*
X2149000Y-29262000D02*
X2149000Y-27738000D01*
X1768000Y-29262000D02*
X1768000Y-27738000D01*
X2530000Y-27738000D02*
X-2550000Y-27738000D01*
X-2550000Y-29262000D02*
X2530000Y-29262000D01*
X2276000Y-27738000D02*
X2276000Y-29262000D01*
X1895000Y-29262000D02*
X1895000Y-27738000D01*
X2022000Y-8738000D02*
X2022000Y-10262000D01*
X2403000Y-10262000D02*
X2403000Y-8738000D01*
X2530000Y-10262000D02*
X2530000Y-8738000D01*
X-2550000Y-8738000D02*
X-2550000Y-10262000D01*
X2149000Y-10262000D02*
X2149000Y-8738000D01*
X1768000Y-10262000D02*
X1768000Y-8738000D01*
X2530000Y-8738000D02*
X-2550000Y-8738000D01*
X-2550000Y-10262000D02*
X2530000Y-10262000D01*
X2276000Y-8738000D02*
X2276000Y-10262000D01*
X1895000Y-10262000D02*
X1895000Y-8738000D01*
X120721000Y-59309300D02*
X121421000Y-59309300D01*
X124221000Y-59309300D02*
X123621000Y-59309300D01*
X124221000Y-53309300D02*
X123621000Y-53309300D01*
X120721000Y-53309300D02*
X121421000Y-53309300D01*
X124221000Y-59309300D02*
X124221000Y-53309300D01*
X120721000Y-53309300D02*
X120721000Y-59309300D01*
D13*
X122417400Y-38176021D02*
X122417400Y-38501579D01*
X123437400Y-38176021D02*
X123437400Y-38501579D01*
X118404200Y-53289021D02*
X118404200Y-53614579D01*
X119424200Y-53289021D02*
X119424200Y-53614579D01*
X116268480Y-53289021D02*
X116268480Y-53614579D01*
X117288480Y-53289021D02*
X117288480Y-53614579D01*
X114132764Y-53289021D02*
X114132764Y-53614579D01*
X115152764Y-53289021D02*
X115152764Y-53614579D01*
X104662800Y-47626400D02*
X110412800Y-47626400D01*
X104662800Y-44026400D02*
X104662800Y-47626400D01*
X110412800Y-44026400D02*
X104662800Y-44026400D01*
X119823400Y-50566900D02*
X119823400Y-49106900D01*
X122983400Y-50566900D02*
X122983400Y-48406900D01*
X122983400Y-50566900D02*
X122053400Y-50566900D01*
X119823400Y-50566900D02*
X120753400Y-50566900D01*
X117460300Y-49969679D02*
X117460300Y-49644121D01*
X118480300Y-49969679D02*
X118480300Y-49644121D01*
X111997048Y-53289021D02*
X111997048Y-53614579D01*
X113017048Y-53289021D02*
X113017048Y-53614579D01*
X117490200Y-47291400D02*
X117490200Y-45006400D01*
X116020200Y-47291400D02*
X117490200Y-47291400D01*
X116020200Y-45006400D02*
X116020200Y-47291400D01*
X119509000Y-43358600D02*
X119509000Y-45358600D01*
X119509000Y-45358600D02*
X123409000Y-45358600D01*
X119509000Y-43358600D02*
X123409000Y-43358600D01*
X105276000Y-48986900D02*
X105276000Y-51271900D01*
X105276000Y-51271900D02*
X106746000Y-51271900D01*
X106746000Y-51271900D02*
X106746000Y-48986900D01*
X105589900Y-53289021D02*
X105589900Y-53614579D01*
X106609900Y-53289021D02*
X106609900Y-53614579D01*
X108745616Y-53289021D02*
X108745616Y-53614579D01*
X107725616Y-53289021D02*
X107725616Y-53614579D01*
X109861332Y-53289021D02*
X109861332Y-53614579D01*
X110881332Y-53289021D02*
X110881332Y-53614579D01*
X111711300Y-45989179D02*
X111711300Y-45663621D01*
X112731300Y-45989179D02*
X112731300Y-45663621D01*
X123462800Y-28036779D02*
X123462800Y-27711221D01*
X122442800Y-28036779D02*
X122442800Y-27711221D01*
X123462800Y-31525045D02*
X123462800Y-31199487D01*
X122442800Y-31525045D02*
X122442800Y-31199487D01*
X122442800Y-35013311D02*
X122442800Y-34687753D01*
X123462800Y-35013311D02*
X123462800Y-34687753D01*
X113997300Y-45989179D02*
X113997300Y-45663621D01*
X115017300Y-45989179D02*
X115017300Y-45663621D01*
X113487200Y-51416900D02*
X115937200Y-51416900D01*
X115287200Y-48196900D02*
X113487200Y-48196900D01*
X108734100Y-51416900D02*
X110534100Y-51416900D01*
X110534100Y-48196900D02*
X108084100Y-48196900D01*
D12*
X94013971Y-52271904D02*
X94013971Y-51471904D01*
X94204447Y-51471904D01*
X94318733Y-51510000D01*
X94394923Y-51586190D01*
X94433019Y-51662380D01*
X94471114Y-51814761D01*
X94471114Y-51929047D01*
X94433019Y-52081428D01*
X94394923Y-52157619D01*
X94318733Y-52233809D01*
X94204447Y-52271904D01*
X94013971Y-52271904D01*
X94775876Y-51548095D02*
X94813971Y-51510000D01*
X94890161Y-51471904D01*
X95080638Y-51471904D01*
X95156828Y-51510000D01*
X95194923Y-51548095D01*
X95233019Y-51624285D01*
X95233019Y-51700476D01*
X95194923Y-51814761D01*
X94737780Y-52271904D01*
X95233019Y-52271904D01*
X95499685Y-51471904D02*
X96033019Y-51471904D01*
X95690161Y-52271904D01*
X106271904Y-65986028D02*
X105471904Y-65986028D01*
X105471904Y-65795552D01*
X105510000Y-65681266D01*
X105586190Y-65605076D01*
X105662380Y-65566980D01*
X105814761Y-65528885D01*
X105929047Y-65528885D01*
X106081428Y-65566980D01*
X106157619Y-65605076D01*
X106233809Y-65681266D01*
X106271904Y-65795552D01*
X106271904Y-65986028D01*
X105471904Y-65262219D02*
X105471904Y-64766980D01*
X105776666Y-65033647D01*
X105776666Y-64919361D01*
X105814761Y-64843171D01*
X105852857Y-64805076D01*
X105929047Y-64766980D01*
X106119523Y-64766980D01*
X106195714Y-64805076D01*
X106233809Y-64843171D01*
X106271904Y-64919361D01*
X106271904Y-65147933D01*
X106233809Y-65224123D01*
X106195714Y-65262219D01*
X105471904Y-64271742D02*
X105471904Y-64195552D01*
X105510000Y-64119361D01*
X105548095Y-64081266D01*
X105624285Y-64043171D01*
X105776666Y-64005076D01*
X105967142Y-64005076D01*
X106119523Y-64043171D01*
X106195714Y-64081266D01*
X106233809Y-64119361D01*
X106271904Y-64195552D01*
X106271904Y-64271742D01*
X106233809Y-64347933D01*
X106195714Y-64386028D01*
X106119523Y-64424123D01*
X105967142Y-64462219D01*
X105776666Y-64462219D01*
X105624285Y-64424123D01*
X105548095Y-64386028D01*
X105510000Y-64347933D01*
X105471904Y-64271742D01*
X106271904Y-77986028D02*
X105471904Y-77986028D01*
X105471904Y-77795552D01*
X105510000Y-77681266D01*
X105586190Y-77605076D01*
X105662380Y-77566980D01*
X105814761Y-77528885D01*
X105929047Y-77528885D01*
X106081428Y-77566980D01*
X106157619Y-77605076D01*
X106233809Y-77681266D01*
X106271904Y-77795552D01*
X106271904Y-77986028D01*
X105548095Y-77224123D02*
X105510000Y-77186028D01*
X105471904Y-77109838D01*
X105471904Y-76919361D01*
X105510000Y-76843171D01*
X105548095Y-76805076D01*
X105624285Y-76766980D01*
X105700476Y-76766980D01*
X105814761Y-76805076D01*
X106271904Y-77262219D01*
X106271904Y-76766980D01*
X106271904Y-76386028D02*
X106271904Y-76233647D01*
X106233809Y-76157457D01*
X106195714Y-76119361D01*
X106081428Y-76043171D01*
X105929047Y-76005076D01*
X105624285Y-76005076D01*
X105548095Y-76043171D01*
X105510000Y-76081266D01*
X105471904Y-76157457D01*
X105471904Y-76309838D01*
X105510000Y-76386028D01*
X105548095Y-76424123D01*
X105624285Y-76462219D01*
X105814761Y-76462219D01*
X105890952Y-76424123D01*
X105929047Y-76386028D01*
X105967142Y-76309838D01*
X105967142Y-76157457D01*
X105929047Y-76081266D01*
X105890952Y-76043171D01*
X105814761Y-76005076D01*
X94013971Y-71271904D02*
X94013971Y-70471904D01*
X94204447Y-70471904D01*
X94318733Y-70510000D01*
X94394923Y-70586190D01*
X94433019Y-70662380D01*
X94471114Y-70814761D01*
X94471114Y-70929047D01*
X94433019Y-71081428D01*
X94394923Y-71157619D01*
X94318733Y-71233809D01*
X94204447Y-71271904D01*
X94013971Y-71271904D01*
X94775876Y-70548095D02*
X94813971Y-70510000D01*
X94890161Y-70471904D01*
X95080638Y-70471904D01*
X95156828Y-70510000D01*
X95194923Y-70548095D01*
X95233019Y-70624285D01*
X95233019Y-70700476D01*
X95194923Y-70814761D01*
X94737780Y-71271904D01*
X95233019Y-71271904D01*
X95690161Y-70814761D02*
X95613971Y-70776666D01*
X95575876Y-70738571D01*
X95537780Y-70662380D01*
X95537780Y-70624285D01*
X95575876Y-70548095D01*
X95613971Y-70510000D01*
X95690161Y-70471904D01*
X95842542Y-70471904D01*
X95918733Y-70510000D01*
X95956828Y-70548095D01*
X95994923Y-70624285D01*
X95994923Y-70662380D01*
X95956828Y-70738571D01*
X95918733Y-70776666D01*
X95842542Y-70814761D01*
X95690161Y-70814761D01*
X95613971Y-70852857D01*
X95575876Y-70890952D01*
X95537780Y-70967142D01*
X95537780Y-71119523D01*
X95575876Y-71195714D01*
X95613971Y-71233809D01*
X95690161Y-71271904D01*
X95842542Y-71271904D01*
X95918733Y-71233809D01*
X95956828Y-71195714D01*
X95994923Y-71119523D01*
X95994923Y-70967142D01*
X95956828Y-70890952D01*
X95918733Y-70852857D01*
X95842542Y-70814761D01*
X94013971Y-33271904D02*
X94013971Y-32471904D01*
X94204447Y-32471904D01*
X94318733Y-32510000D01*
X94394923Y-32586190D01*
X94433019Y-32662380D01*
X94471114Y-32814761D01*
X94471114Y-32929047D01*
X94433019Y-33081428D01*
X94394923Y-33157619D01*
X94318733Y-33233809D01*
X94204447Y-33271904D01*
X94013971Y-33271904D01*
X94775876Y-32548095D02*
X94813971Y-32510000D01*
X94890161Y-32471904D01*
X95080638Y-32471904D01*
X95156828Y-32510000D01*
X95194923Y-32548095D01*
X95233019Y-32624285D01*
X95233019Y-32700476D01*
X95194923Y-32814761D01*
X94737780Y-33271904D01*
X95233019Y-33271904D01*
X95918733Y-32471904D02*
X95766352Y-32471904D01*
X95690161Y-32510000D01*
X95652066Y-32548095D01*
X95575876Y-32662380D01*
X95537780Y-32814761D01*
X95537780Y-33119523D01*
X95575876Y-33195714D01*
X95613971Y-33233809D01*
X95690161Y-33271904D01*
X95842542Y-33271904D01*
X95918733Y-33233809D01*
X95956828Y-33195714D01*
X95994923Y-33119523D01*
X95994923Y-32929047D01*
X95956828Y-32852857D01*
X95918733Y-32814761D01*
X95842542Y-32776666D01*
X95690161Y-32776666D01*
X95613971Y-32814761D01*
X95575876Y-32852857D01*
X95537780Y-32929047D01*
X94013971Y-14271904D02*
X94013971Y-13471904D01*
X94204447Y-13471904D01*
X94318733Y-13510000D01*
X94394923Y-13586190D01*
X94433019Y-13662380D01*
X94471114Y-13814761D01*
X94471114Y-13929047D01*
X94433019Y-14081428D01*
X94394923Y-14157619D01*
X94318733Y-14233809D01*
X94204447Y-14271904D01*
X94013971Y-14271904D01*
X94775876Y-13548095D02*
X94813971Y-13510000D01*
X94890161Y-13471904D01*
X95080638Y-13471904D01*
X95156828Y-13510000D01*
X95194923Y-13548095D01*
X95233019Y-13624285D01*
X95233019Y-13700476D01*
X95194923Y-13814761D01*
X94737780Y-14271904D01*
X95233019Y-14271904D01*
X95956828Y-13471904D02*
X95575876Y-13471904D01*
X95537780Y-13852857D01*
X95575876Y-13814761D01*
X95652066Y-13776666D01*
X95842542Y-13776666D01*
X95918733Y-13814761D01*
X95956828Y-13852857D01*
X95994923Y-13929047D01*
X95994923Y-14119523D01*
X95956828Y-14195714D01*
X95918733Y-14233809D01*
X95842542Y-14271904D01*
X95652066Y-14271904D01*
X95575876Y-14233809D01*
X95537780Y-14195714D01*
X87271904Y-74986028D02*
X86471904Y-74986028D01*
X86471904Y-74795552D01*
X86510000Y-74681266D01*
X86586190Y-74605076D01*
X86662380Y-74566980D01*
X86814761Y-74528885D01*
X86929047Y-74528885D01*
X87081428Y-74566980D01*
X87157619Y-74605076D01*
X87233809Y-74681266D01*
X87271904Y-74795552D01*
X87271904Y-74986028D01*
X86548095Y-74224123D02*
X86510000Y-74186028D01*
X86471904Y-74109838D01*
X86471904Y-73919361D01*
X86510000Y-73843171D01*
X86548095Y-73805076D01*
X86624285Y-73766980D01*
X86700476Y-73766980D01*
X86814761Y-73805076D01*
X87271904Y-74262219D01*
X87271904Y-73766980D01*
X86738571Y-73081266D02*
X87271904Y-73081266D01*
X86433809Y-73271742D02*
X87005238Y-73462219D01*
X87005238Y-72966980D01*
X75013971Y-66271904D02*
X75013971Y-65471904D01*
X75204447Y-65471904D01*
X75318733Y-65510000D01*
X75394923Y-65586190D01*
X75433019Y-65662380D01*
X75471114Y-65814761D01*
X75471114Y-65929047D01*
X75433019Y-66081428D01*
X75394923Y-66157619D01*
X75318733Y-66233809D01*
X75204447Y-66271904D01*
X75013971Y-66271904D01*
X75775876Y-65548095D02*
X75813971Y-65510000D01*
X75890161Y-65471904D01*
X76080638Y-65471904D01*
X76156828Y-65510000D01*
X76194923Y-65548095D01*
X76233019Y-65624285D01*
X76233019Y-65700476D01*
X76194923Y-65814761D01*
X75737780Y-66271904D01*
X76233019Y-66271904D01*
X76499685Y-65471904D02*
X76994923Y-65471904D01*
X76728257Y-65776666D01*
X76842542Y-65776666D01*
X76918733Y-65814761D01*
X76956828Y-65852857D01*
X76994923Y-65929047D01*
X76994923Y-66119523D01*
X76956828Y-66195714D01*
X76918733Y-66233809D01*
X76842542Y-66271904D01*
X76613971Y-66271904D01*
X76537780Y-66233809D01*
X76499685Y-66195714D01*
X75013971Y-47271904D02*
X75013971Y-46471904D01*
X75204447Y-46471904D01*
X75318733Y-46510000D01*
X75394923Y-46586190D01*
X75433019Y-46662380D01*
X75471114Y-46814761D01*
X75471114Y-46929047D01*
X75433019Y-47081428D01*
X75394923Y-47157619D01*
X75318733Y-47233809D01*
X75204447Y-47271904D01*
X75013971Y-47271904D01*
X75775876Y-46548095D02*
X75813971Y-46510000D01*
X75890161Y-46471904D01*
X76080638Y-46471904D01*
X76156828Y-46510000D01*
X76194923Y-46548095D01*
X76233019Y-46624285D01*
X76233019Y-46700476D01*
X76194923Y-46814761D01*
X75737780Y-47271904D01*
X76233019Y-47271904D01*
X76537780Y-46548095D02*
X76575876Y-46510000D01*
X76652066Y-46471904D01*
X76842542Y-46471904D01*
X76918733Y-46510000D01*
X76956828Y-46548095D01*
X76994923Y-46624285D01*
X76994923Y-46700476D01*
X76956828Y-46814761D01*
X76499685Y-47271904D01*
X76994923Y-47271904D01*
X75013971Y-28271904D02*
X75013971Y-27471904D01*
X75204447Y-27471904D01*
X75318733Y-27510000D01*
X75394923Y-27586190D01*
X75433019Y-27662380D01*
X75471114Y-27814761D01*
X75471114Y-27929047D01*
X75433019Y-28081428D01*
X75394923Y-28157619D01*
X75318733Y-28233809D01*
X75204447Y-28271904D01*
X75013971Y-28271904D01*
X75775876Y-27548095D02*
X75813971Y-27510000D01*
X75890161Y-27471904D01*
X76080638Y-27471904D01*
X76156828Y-27510000D01*
X76194923Y-27548095D01*
X76233019Y-27624285D01*
X76233019Y-27700476D01*
X76194923Y-27814761D01*
X75737780Y-28271904D01*
X76233019Y-28271904D01*
X76994923Y-28271904D02*
X76537780Y-28271904D01*
X76766352Y-28271904D02*
X76766352Y-27471904D01*
X76690161Y-27586190D01*
X76613971Y-27662380D01*
X76537780Y-27700476D01*
X75013971Y-9271904D02*
X75013971Y-8471904D01*
X75204447Y-8471904D01*
X75318733Y-8510000D01*
X75394923Y-8586190D01*
X75433019Y-8662380D01*
X75471114Y-8814761D01*
X75471114Y-8929047D01*
X75433019Y-9081428D01*
X75394923Y-9157619D01*
X75318733Y-9233809D01*
X75204447Y-9271904D01*
X75013971Y-9271904D01*
X75775876Y-8548095D02*
X75813971Y-8510000D01*
X75890161Y-8471904D01*
X76080638Y-8471904D01*
X76156828Y-8510000D01*
X76194923Y-8548095D01*
X76233019Y-8624285D01*
X76233019Y-8700476D01*
X76194923Y-8814761D01*
X75737780Y-9271904D01*
X76233019Y-9271904D01*
X76728257Y-8471904D02*
X76804447Y-8471904D01*
X76880638Y-8510000D01*
X76918733Y-8548095D01*
X76956828Y-8624285D01*
X76994923Y-8776666D01*
X76994923Y-8967142D01*
X76956828Y-9119523D01*
X76918733Y-9195714D01*
X76880638Y-9233809D01*
X76804447Y-9271904D01*
X76728257Y-9271904D01*
X76652066Y-9233809D01*
X76613971Y-9195714D01*
X76575876Y-9119523D01*
X76537780Y-8967142D01*
X76537780Y-8776666D01*
X76575876Y-8624285D01*
X76613971Y-8548095D01*
X76652066Y-8510000D01*
X76728257Y-8471904D01*
X68271904Y-68986028D02*
X67471904Y-68986028D01*
X67471904Y-68795552D01*
X67510000Y-68681266D01*
X67586190Y-68605076D01*
X67662380Y-68566980D01*
X67814761Y-68528885D01*
X67929047Y-68528885D01*
X68081428Y-68566980D01*
X68157619Y-68605076D01*
X68233809Y-68681266D01*
X68271904Y-68795552D01*
X68271904Y-68986028D01*
X68271904Y-67766980D02*
X68271904Y-68224123D01*
X68271904Y-67995552D02*
X67471904Y-67995552D01*
X67586190Y-68071742D01*
X67662380Y-68147933D01*
X67700476Y-68224123D01*
X68271904Y-67386028D02*
X68271904Y-67233647D01*
X68233809Y-67157457D01*
X68195714Y-67119361D01*
X68081428Y-67043171D01*
X67929047Y-67005076D01*
X67624285Y-67005076D01*
X67548095Y-67043171D01*
X67510000Y-67081266D01*
X67471904Y-67157457D01*
X67471904Y-67309838D01*
X67510000Y-67386028D01*
X67548095Y-67424123D01*
X67624285Y-67462219D01*
X67814761Y-67462219D01*
X67890952Y-67424123D01*
X67929047Y-67386028D01*
X67967142Y-67309838D01*
X67967142Y-67157457D01*
X67929047Y-67081266D01*
X67890952Y-67043171D01*
X67814761Y-67005076D01*
X56013971Y-60271904D02*
X56013971Y-59471904D01*
X56204447Y-59471904D01*
X56318733Y-59510000D01*
X56394923Y-59586190D01*
X56433019Y-59662380D01*
X56471114Y-59814761D01*
X56471114Y-59929047D01*
X56433019Y-60081428D01*
X56394923Y-60157619D01*
X56318733Y-60233809D01*
X56204447Y-60271904D01*
X56013971Y-60271904D01*
X57233019Y-60271904D02*
X56775876Y-60271904D01*
X57004447Y-60271904D02*
X57004447Y-59471904D01*
X56928257Y-59586190D01*
X56852066Y-59662380D01*
X56775876Y-59700476D01*
X57690161Y-59814761D02*
X57613971Y-59776666D01*
X57575876Y-59738571D01*
X57537780Y-59662380D01*
X57537780Y-59624285D01*
X57575876Y-59548095D01*
X57613971Y-59510000D01*
X57690161Y-59471904D01*
X57842542Y-59471904D01*
X57918733Y-59510000D01*
X57956828Y-59548095D01*
X57994923Y-59624285D01*
X57994923Y-59662380D01*
X57956828Y-59738571D01*
X57918733Y-59776666D01*
X57842542Y-59814761D01*
X57690161Y-59814761D01*
X57613971Y-59852857D01*
X57575876Y-59890952D01*
X57537780Y-59967142D01*
X57537780Y-60119523D01*
X57575876Y-60195714D01*
X57613971Y-60233809D01*
X57690161Y-60271904D01*
X57842542Y-60271904D01*
X57918733Y-60233809D01*
X57956828Y-60195714D01*
X57994923Y-60119523D01*
X57994923Y-59967142D01*
X57956828Y-59890952D01*
X57918733Y-59852857D01*
X57842542Y-59814761D01*
X56013971Y-41271904D02*
X56013971Y-40471904D01*
X56204447Y-40471904D01*
X56318733Y-40510000D01*
X56394923Y-40586190D01*
X56433019Y-40662380D01*
X56471114Y-40814761D01*
X56471114Y-40929047D01*
X56433019Y-41081428D01*
X56394923Y-41157619D01*
X56318733Y-41233809D01*
X56204447Y-41271904D01*
X56013971Y-41271904D01*
X57233019Y-41271904D02*
X56775876Y-41271904D01*
X57004447Y-41271904D02*
X57004447Y-40471904D01*
X56928257Y-40586190D01*
X56852066Y-40662380D01*
X56775876Y-40700476D01*
X57499685Y-40471904D02*
X58033019Y-40471904D01*
X57690161Y-41271904D01*
X56013971Y-3271904D02*
X56013971Y-2471904D01*
X56204447Y-2471904D01*
X56318733Y-2510000D01*
X56394923Y-2586190D01*
X56433019Y-2662380D01*
X56471114Y-2814761D01*
X56471114Y-2929047D01*
X56433019Y-3081428D01*
X56394923Y-3157619D01*
X56318733Y-3233809D01*
X56204447Y-3271904D01*
X56013971Y-3271904D01*
X57233019Y-3271904D02*
X56775876Y-3271904D01*
X57004447Y-3271904D02*
X57004447Y-2471904D01*
X56928257Y-2586190D01*
X56852066Y-2662380D01*
X56775876Y-2700476D01*
X57956828Y-2471904D02*
X57575876Y-2471904D01*
X57537780Y-2852857D01*
X57575876Y-2814761D01*
X57652066Y-2776666D01*
X57842542Y-2776666D01*
X57918733Y-2814761D01*
X57956828Y-2852857D01*
X57994923Y-2929047D01*
X57994923Y-3119523D01*
X57956828Y-3195714D01*
X57918733Y-3233809D01*
X57842542Y-3271904D01*
X57652066Y-3271904D01*
X57575876Y-3233809D01*
X57537780Y-3195714D01*
X49271904Y-72986028D02*
X48471904Y-72986028D01*
X48471904Y-72795552D01*
X48510000Y-72681266D01*
X48586190Y-72605076D01*
X48662380Y-72566980D01*
X48814761Y-72528885D01*
X48929047Y-72528885D01*
X49081428Y-72566980D01*
X49157619Y-72605076D01*
X49233809Y-72681266D01*
X49271904Y-72795552D01*
X49271904Y-72986028D01*
X49271904Y-71766980D02*
X49271904Y-72224123D01*
X49271904Y-71995552D02*
X48471904Y-71995552D01*
X48586190Y-72071742D01*
X48662380Y-72147933D01*
X48700476Y-72224123D01*
X48738571Y-71081266D02*
X49271904Y-71081266D01*
X48433809Y-71271742D02*
X49005238Y-71462219D01*
X49005238Y-70966980D01*
X37013971Y-65271904D02*
X37013971Y-64471904D01*
X37204447Y-64471904D01*
X37318733Y-64510000D01*
X37394923Y-64586190D01*
X37433019Y-64662380D01*
X37471114Y-64814761D01*
X37471114Y-64929047D01*
X37433019Y-65081428D01*
X37394923Y-65157619D01*
X37318733Y-65233809D01*
X37204447Y-65271904D01*
X37013971Y-65271904D01*
X38233019Y-65271904D02*
X37775876Y-65271904D01*
X38004447Y-65271904D02*
X38004447Y-64471904D01*
X37928257Y-64586190D01*
X37852066Y-64662380D01*
X37775876Y-64700476D01*
X38499685Y-64471904D02*
X38994923Y-64471904D01*
X38728257Y-64776666D01*
X38842542Y-64776666D01*
X38918733Y-64814761D01*
X38956828Y-64852857D01*
X38994923Y-64929047D01*
X38994923Y-65119523D01*
X38956828Y-65195714D01*
X38918733Y-65233809D01*
X38842542Y-65271904D01*
X38613971Y-65271904D01*
X38537780Y-65233809D01*
X38499685Y-65195714D01*
X37013971Y-46271904D02*
X37013971Y-45471904D01*
X37204447Y-45471904D01*
X37318733Y-45510000D01*
X37394923Y-45586190D01*
X37433019Y-45662380D01*
X37471114Y-45814761D01*
X37471114Y-45929047D01*
X37433019Y-46081428D01*
X37394923Y-46157619D01*
X37318733Y-46233809D01*
X37204447Y-46271904D01*
X37013971Y-46271904D01*
X38233019Y-46271904D02*
X37775876Y-46271904D01*
X38004447Y-46271904D02*
X38004447Y-45471904D01*
X37928257Y-45586190D01*
X37852066Y-45662380D01*
X37775876Y-45700476D01*
X38537780Y-45548095D02*
X38575876Y-45510000D01*
X38652066Y-45471904D01*
X38842542Y-45471904D01*
X38918733Y-45510000D01*
X38956828Y-45548095D01*
X38994923Y-45624285D01*
X38994923Y-45700476D01*
X38956828Y-45814761D01*
X38499685Y-46271904D01*
X38994923Y-46271904D01*
X37013971Y-27271904D02*
X37013971Y-26471904D01*
X37204447Y-26471904D01*
X37318733Y-26510000D01*
X37394923Y-26586190D01*
X37433019Y-26662380D01*
X37471114Y-26814761D01*
X37471114Y-26929047D01*
X37433019Y-27081428D01*
X37394923Y-27157619D01*
X37318733Y-27233809D01*
X37204447Y-27271904D01*
X37013971Y-27271904D01*
X38233019Y-27271904D02*
X37775876Y-27271904D01*
X38004447Y-27271904D02*
X38004447Y-26471904D01*
X37928257Y-26586190D01*
X37852066Y-26662380D01*
X37775876Y-26700476D01*
X38994923Y-27271904D02*
X38537780Y-27271904D01*
X38766352Y-27271904D02*
X38766352Y-26471904D01*
X38690161Y-26586190D01*
X38613971Y-26662380D01*
X38537780Y-26700476D01*
X37013971Y-8271904D02*
X37013971Y-7471904D01*
X37204447Y-7471904D01*
X37318733Y-7510000D01*
X37394923Y-7586190D01*
X37433019Y-7662380D01*
X37471114Y-7814761D01*
X37471114Y-7929047D01*
X37433019Y-8081428D01*
X37394923Y-8157619D01*
X37318733Y-8233809D01*
X37204447Y-8271904D01*
X37013971Y-8271904D01*
X38233019Y-8271904D02*
X37775876Y-8271904D01*
X38004447Y-8271904D02*
X38004447Y-7471904D01*
X37928257Y-7586190D01*
X37852066Y-7662380D01*
X37775876Y-7700476D01*
X38728257Y-7471904D02*
X38804447Y-7471904D01*
X38880638Y-7510000D01*
X38918733Y-7548095D01*
X38956828Y-7624285D01*
X38994923Y-7776666D01*
X38994923Y-7967142D01*
X38956828Y-8119523D01*
X38918733Y-8195714D01*
X38880638Y-8233809D01*
X38804447Y-8271904D01*
X38728257Y-8271904D01*
X38652066Y-8233809D01*
X38613971Y-8195714D01*
X38575876Y-8119523D01*
X38537780Y-7967142D01*
X38537780Y-7776666D01*
X38575876Y-7624285D01*
X38613971Y-7548095D01*
X38652066Y-7510000D01*
X38728257Y-7471904D01*
X30271904Y-76605076D02*
X29471904Y-76605076D01*
X29471904Y-76414600D01*
X29510000Y-76300314D01*
X29586190Y-76224123D01*
X29662380Y-76186028D01*
X29814761Y-76147933D01*
X29929047Y-76147933D01*
X30081428Y-76186028D01*
X30157619Y-76224123D01*
X30233809Y-76300314D01*
X30271904Y-76414600D01*
X30271904Y-76605076D01*
X30271904Y-75766980D02*
X30271904Y-75614600D01*
X30233809Y-75538409D01*
X30195714Y-75500314D01*
X30081428Y-75424123D01*
X29929047Y-75386028D01*
X29624285Y-75386028D01*
X29548095Y-75424123D01*
X29510000Y-75462219D01*
X29471904Y-75538409D01*
X29471904Y-75690790D01*
X29510000Y-75766980D01*
X29548095Y-75805076D01*
X29624285Y-75843171D01*
X29814761Y-75843171D01*
X29890952Y-75805076D01*
X29929047Y-75766980D01*
X29967142Y-75690790D01*
X29967142Y-75538409D01*
X29929047Y-75462219D01*
X29890952Y-75424123D01*
X29814761Y-75386028D01*
X18394923Y-68271904D02*
X18394923Y-67471904D01*
X18585400Y-67471904D01*
X18699685Y-67510000D01*
X18775876Y-67586190D01*
X18813971Y-67662380D01*
X18852066Y-67814761D01*
X18852066Y-67929047D01*
X18813971Y-68081428D01*
X18775876Y-68157619D01*
X18699685Y-68233809D01*
X18585400Y-68271904D01*
X18394923Y-68271904D01*
X19309209Y-67814761D02*
X19233019Y-67776666D01*
X19194923Y-67738571D01*
X19156828Y-67662380D01*
X19156828Y-67624285D01*
X19194923Y-67548095D01*
X19233019Y-67510000D01*
X19309209Y-67471904D01*
X19461590Y-67471904D01*
X19537780Y-67510000D01*
X19575876Y-67548095D01*
X19613971Y-67624285D01*
X19613971Y-67662380D01*
X19575876Y-67738571D01*
X19537780Y-67776666D01*
X19461590Y-67814761D01*
X19309209Y-67814761D01*
X19233019Y-67852857D01*
X19194923Y-67890952D01*
X19156828Y-67967142D01*
X19156828Y-68119523D01*
X19194923Y-68195714D01*
X19233019Y-68233809D01*
X19309209Y-68271904D01*
X19461590Y-68271904D01*
X19537780Y-68233809D01*
X19575876Y-68195714D01*
X19613971Y-68119523D01*
X19613971Y-67967142D01*
X19575876Y-67890952D01*
X19537780Y-67852857D01*
X19461590Y-67814761D01*
X18394923Y-49271904D02*
X18394923Y-48471904D01*
X18585400Y-48471904D01*
X18699685Y-48510000D01*
X18775876Y-48586190D01*
X18813971Y-48662380D01*
X18852066Y-48814761D01*
X18852066Y-48929047D01*
X18813971Y-49081428D01*
X18775876Y-49157619D01*
X18699685Y-49233809D01*
X18585400Y-49271904D01*
X18394923Y-49271904D01*
X19118733Y-48471904D02*
X19652066Y-48471904D01*
X19309209Y-49271904D01*
X18394923Y-30271904D02*
X18394923Y-29471904D01*
X18585400Y-29471904D01*
X18699685Y-29510000D01*
X18775876Y-29586190D01*
X18813971Y-29662380D01*
X18852066Y-29814761D01*
X18852066Y-29929047D01*
X18813971Y-30081428D01*
X18775876Y-30157619D01*
X18699685Y-30233809D01*
X18585400Y-30271904D01*
X18394923Y-30271904D01*
X19537780Y-29471904D02*
X19385400Y-29471904D01*
X19309209Y-29510000D01*
X19271114Y-29548095D01*
X19194923Y-29662380D01*
X19156828Y-29814761D01*
X19156828Y-30119523D01*
X19194923Y-30195714D01*
X19233019Y-30233809D01*
X19309209Y-30271904D01*
X19461590Y-30271904D01*
X19537780Y-30233809D01*
X19575876Y-30195714D01*
X19613971Y-30119523D01*
X19613971Y-29929047D01*
X19575876Y-29852857D01*
X19537780Y-29814761D01*
X19461590Y-29776666D01*
X19309209Y-29776666D01*
X19233019Y-29814761D01*
X19194923Y-29852857D01*
X19156828Y-29929047D01*
X18394923Y-11271904D02*
X18394923Y-10471904D01*
X18585400Y-10471904D01*
X18699685Y-10510000D01*
X18775876Y-10586190D01*
X18813971Y-10662380D01*
X18852066Y-10814761D01*
X18852066Y-10929047D01*
X18813971Y-11081428D01*
X18775876Y-11157619D01*
X18699685Y-11233809D01*
X18585400Y-11271904D01*
X18394923Y-11271904D01*
X19575876Y-10471904D02*
X19194923Y-10471904D01*
X19156828Y-10852857D01*
X19194923Y-10814761D01*
X19271114Y-10776666D01*
X19461590Y-10776666D01*
X19537780Y-10814761D01*
X19575876Y-10852857D01*
X19613971Y-10929047D01*
X19613971Y-11119523D01*
X19575876Y-11195714D01*
X19537780Y-11233809D01*
X19461590Y-11271904D01*
X19271114Y-11271904D01*
X19194923Y-11233809D01*
X19156828Y-11195714D01*
X56013971Y-22271904D02*
X56013971Y-21471904D01*
X56204447Y-21471904D01*
X56318733Y-21510000D01*
X56394923Y-21586190D01*
X56433019Y-21662380D01*
X56471114Y-21814761D01*
X56471114Y-21929047D01*
X56433019Y-22081428D01*
X56394923Y-22157619D01*
X56318733Y-22233809D01*
X56204447Y-22271904D01*
X56013971Y-22271904D01*
X57233019Y-22271904D02*
X56775876Y-22271904D01*
X57004447Y-22271904D02*
X57004447Y-21471904D01*
X56928257Y-21586190D01*
X56852066Y-21662380D01*
X56775876Y-21700476D01*
X57918733Y-21471904D02*
X57766352Y-21471904D01*
X57690161Y-21510000D01*
X57652066Y-21548095D01*
X57575876Y-21662380D01*
X57537780Y-21814761D01*
X57537780Y-22119523D01*
X57575876Y-22195714D01*
X57613971Y-22233809D01*
X57690161Y-22271904D01*
X57842542Y-22271904D01*
X57918733Y-22233809D01*
X57956828Y-22195714D01*
X57994923Y-22119523D01*
X57994923Y-21929047D01*
X57956828Y-21852857D01*
X57918733Y-21814761D01*
X57842542Y-21776666D01*
X57690161Y-21776666D01*
X57613971Y-21814761D01*
X57575876Y-21852857D01*
X57537780Y-21929047D01*
X11271904Y-76605076D02*
X10471904Y-76605076D01*
X10471904Y-76414600D01*
X10510000Y-76300314D01*
X10586190Y-76224123D01*
X10662380Y-76186028D01*
X10814761Y-76147933D01*
X10929047Y-76147933D01*
X11081428Y-76186028D01*
X11157619Y-76224123D01*
X11233809Y-76300314D01*
X11271904Y-76414600D01*
X11271904Y-76605076D01*
X10738571Y-75462219D02*
X11271904Y-75462219D01*
X10433809Y-75652695D02*
X11005238Y-75843171D01*
X11005238Y-75347933D01*
X-605076Y-68271904D02*
X-605076Y-67471904D01*
X-414599Y-67471904D01*
X-300314Y-67510000D01*
X-224123Y-67586190D01*
X-186028Y-67662380D01*
X-147933Y-67814761D01*
X-147933Y-67929047D01*
X-186028Y-68081428D01*
X-224123Y-68157619D01*
X-300314Y-68233809D01*
X-414599Y-68271904D01*
X-605076Y-68271904D01*
X118733Y-67471904D02*
X613971Y-67471904D01*
X347304Y-67776666D01*
X461590Y-67776666D01*
X537780Y-67814761D01*
X575876Y-67852857D01*
X613971Y-67929047D01*
X613971Y-68119523D01*
X575876Y-68195714D01*
X537780Y-68233809D01*
X461590Y-68271904D01*
X233019Y-68271904D01*
X156828Y-68233809D01*
X118733Y-68195714D01*
X-605076Y-49271904D02*
X-605076Y-48471904D01*
X-414599Y-48471904D01*
X-300314Y-48510000D01*
X-224123Y-48586190D01*
X-186028Y-48662380D01*
X-147933Y-48814761D01*
X-147933Y-48929047D01*
X-186028Y-49081428D01*
X-224123Y-49157619D01*
X-300314Y-49233809D01*
X-414599Y-49271904D01*
X-605076Y-49271904D01*
X156828Y-48548095D02*
X194923Y-48510000D01*
X271114Y-48471904D01*
X461590Y-48471904D01*
X537780Y-48510000D01*
X575876Y-48548095D01*
X613971Y-48624285D01*
X613971Y-48700476D01*
X575876Y-48814761D01*
X118733Y-49271904D01*
X613971Y-49271904D01*
X-605076Y-30271904D02*
X-605076Y-29471904D01*
X-414599Y-29471904D01*
X-300314Y-29510000D01*
X-224123Y-29586190D01*
X-186028Y-29662380D01*
X-147933Y-29814761D01*
X-147933Y-29929047D01*
X-186028Y-30081428D01*
X-224123Y-30157619D01*
X-300314Y-30233809D01*
X-414599Y-30271904D01*
X-605076Y-30271904D01*
X613971Y-30271904D02*
X156828Y-30271904D01*
X385400Y-30271904D02*
X385400Y-29471904D01*
X309209Y-29586190D01*
X233019Y-29662380D01*
X156828Y-29700476D01*
X-605076Y-11271904D02*
X-605076Y-10471904D01*
X-414599Y-10471904D01*
X-300314Y-10510000D01*
X-224123Y-10586190D01*
X-186028Y-10662380D01*
X-147933Y-10814761D01*
X-147933Y-10929047D01*
X-186028Y-11081428D01*
X-224123Y-11157619D01*
X-300314Y-11233809D01*
X-414599Y-11271904D01*
X-605076Y-11271904D01*
X347304Y-10471904D02*
X423495Y-10471904D01*
X499685Y-10510000D01*
X537780Y-10548095D01*
X575876Y-10624285D01*
X613971Y-10776666D01*
X613971Y-10967142D01*
X575876Y-11119523D01*
X537780Y-11195714D01*
X499685Y-11233809D01*
X423495Y-11271904D01*
X347304Y-11271904D01*
X271114Y-11233809D01*
X233019Y-11195714D01*
X194923Y-11119523D01*
X156828Y-10967142D01*
X156828Y-10776666D01*
X194923Y-10624285D01*
X233019Y-10548095D01*
X271114Y-10510000D01*
X347304Y-10471904D01*
X84738095Y-52952380D02*
X84738095Y-51952380D01*
X84738095Y-52428571D02*
X85309523Y-52428571D01*
X85309523Y-52952380D02*
X85309523Y-51952380D01*
X86214285Y-52285714D02*
X86214285Y-52952380D01*
X85976190Y-51904761D02*
X85738095Y-52619047D01*
X86357142Y-52619047D01*
X84738095Y-3452380D02*
X84738095Y-2452380D01*
X84738095Y-2928571D02*
X85309523Y-2928571D01*
X85309523Y-3452380D02*
X85309523Y-2452380D01*
X85690476Y-2452380D02*
X86309523Y-2452380D01*
X85976190Y-2833333D01*
X86119047Y-2833333D01*
X86214285Y-2880952D01*
X86261904Y-2928571D01*
X86309523Y-3023809D01*
X86309523Y-3261904D01*
X86261904Y-3357142D01*
X86214285Y-3404761D01*
X86119047Y-3452380D01*
X85833333Y-3452380D01*
X85738095Y-3404761D01*
X85690476Y-3357142D01*
X122882904Y-57471204D02*
X122501952Y-57737871D01*
X122882904Y-57928347D02*
X122082904Y-57928347D01*
X122082904Y-57623585D01*
X122121000Y-57547395D01*
X122159095Y-57509300D01*
X122235285Y-57471204D01*
X122349571Y-57471204D01*
X122425761Y-57509300D01*
X122463857Y-57547395D01*
X122501952Y-57623585D01*
X122501952Y-57928347D01*
X122463857Y-57128347D02*
X122463857Y-56861680D01*
X122882904Y-56747395D02*
X122882904Y-57128347D01*
X122082904Y-57128347D01*
X122082904Y-56747395D01*
X122844809Y-56442633D02*
X122882904Y-56328347D01*
X122882904Y-56137871D01*
X122844809Y-56061680D01*
X122806714Y-56023585D01*
X122730523Y-55985490D01*
X122654333Y-55985490D01*
X122578142Y-56023585D01*
X122540047Y-56061680D01*
X122501952Y-56137871D01*
X122463857Y-56290252D01*
X122425761Y-56366442D01*
X122387666Y-56404538D01*
X122311476Y-56442633D01*
X122235285Y-56442633D01*
X122159095Y-56404538D01*
X122121000Y-56366442D01*
X122082904Y-56290252D01*
X122082904Y-56099776D01*
X122121000Y-55985490D01*
X122463857Y-55642633D02*
X122463857Y-55375966D01*
X122882904Y-55261680D02*
X122882904Y-55642633D01*
X122082904Y-55642633D01*
X122082904Y-55261680D01*
X122082904Y-55033109D02*
X122082904Y-54575966D01*
X122882904Y-54804538D02*
X122082904Y-54804538D01*
X112690828Y-33346405D02*
X112690828Y-34155929D01*
X112738447Y-34251167D01*
X112786066Y-34298786D01*
X112881304Y-34346405D01*
X113071780Y-34346405D01*
X113167018Y-34298786D01*
X113214637Y-34251167D01*
X113262256Y-34155929D01*
X113262256Y-33346405D01*
X113928923Y-33346405D02*
X114024161Y-33346405D01*
X114119399Y-33394025D01*
X114167018Y-33441644D01*
X114214637Y-33536882D01*
X114262256Y-33727358D01*
X114262256Y-33965453D01*
X114214637Y-34155929D01*
X114167018Y-34251167D01*
X114119399Y-34298786D01*
X114024161Y-34346405D01*
X113928923Y-34346405D01*
X113833685Y-34298786D01*
X113786066Y-34251167D01*
X113738447Y-34155929D01*
X113690828Y-33965453D01*
X113690828Y-33727358D01*
X113738447Y-33536882D01*
X113786066Y-33441644D01*
X113833685Y-33394025D01*
X113928923Y-33346405D01*
X107238914Y-25694371D02*
X107572247Y-25694371D01*
X107715104Y-26218180D02*
X107238914Y-26218180D01*
X107238914Y-25218180D01*
X107715104Y-25218180D01*
X108048438Y-25218180D02*
X108715104Y-25218180D01*
X108286533Y-26218180D01*
X109000819Y-25218180D02*
X109619866Y-25218180D01*
X109286533Y-25599133D01*
X109429390Y-25599133D01*
X109524628Y-25646752D01*
X109572247Y-25694371D01*
X109619866Y-25789609D01*
X109619866Y-26027704D01*
X109572247Y-26122942D01*
X109524628Y-26170561D01*
X109429390Y-26218180D01*
X109143676Y-26218180D01*
X109048438Y-26170561D01*
X109000819Y-26122942D01*
X110048438Y-25837228D02*
X110810342Y-25837228D01*
X111238914Y-25313419D02*
X111286533Y-25265800D01*
X111381771Y-25218180D01*
X111619866Y-25218180D01*
X111715104Y-25265800D01*
X111762723Y-25313419D01*
X111810342Y-25408657D01*
X111810342Y-25503895D01*
X111762723Y-25646752D01*
X111191295Y-26218180D01*
X111810342Y-26218180D01*
X112762723Y-25265800D02*
X112667485Y-25218180D01*
X112524628Y-25218180D01*
X112381771Y-25265800D01*
X112286533Y-25361038D01*
X112238914Y-25456276D01*
X112191295Y-25646752D01*
X112191295Y-25789609D01*
X112238914Y-25980085D01*
X112286533Y-26075323D01*
X112381771Y-26170561D01*
X112524628Y-26218180D01*
X112619866Y-26218180D01*
X112762723Y-26170561D01*
X112810342Y-26122942D01*
X112810342Y-25789609D01*
X112619866Y-25789609D01*
X113667485Y-25551514D02*
X113667485Y-26218180D01*
X113429390Y-25170561D02*
X113191295Y-25884847D01*
X113810342Y-25884847D01*
X114191295Y-26218180D02*
X114191295Y-25218180D01*
X114524628Y-25932466D01*
X114857961Y-25218180D01*
X114857961Y-26218180D01*
X115524628Y-25218180D02*
X115619866Y-25218180D01*
X115715104Y-25265800D01*
X115762723Y-25313419D01*
X115810342Y-25408657D01*
X115857961Y-25599133D01*
X115857961Y-25837228D01*
X115810342Y-26027704D01*
X115762723Y-26122942D01*
X115715104Y-26170561D01*
X115619866Y-26218180D01*
X115524628Y-26218180D01*
X115429390Y-26170561D01*
X115381771Y-26122942D01*
X115334152Y-26027704D01*
X115286533Y-25837228D01*
X115286533Y-25599133D01*
X115334152Y-25408657D01*
X115381771Y-25313419D01*
X115429390Y-25265800D01*
X115524628Y-25218180D01*
X116429390Y-25646752D02*
X116334152Y-25599133D01*
X116286533Y-25551514D01*
X116238914Y-25456276D01*
X116238914Y-25408657D01*
X116286533Y-25313419D01*
X116334152Y-25265800D01*
X116429390Y-25218180D01*
X116619866Y-25218180D01*
X116715104Y-25265800D01*
X116762723Y-25313419D01*
X116810342Y-25408657D01*
X116810342Y-25456276D01*
X116762723Y-25551514D01*
X116715104Y-25599133D01*
X116619866Y-25646752D01*
X116429390Y-25646752D01*
X116334152Y-25694371D01*
X116286533Y-25741990D01*
X116238914Y-25837228D01*
X116238914Y-26027704D01*
X116286533Y-26122942D01*
X116334152Y-26170561D01*
X116429390Y-26218180D01*
X116619866Y-26218180D01*
X116715104Y-26170561D01*
X116762723Y-26122942D01*
X116810342Y-26027704D01*
X116810342Y-25837228D01*
X116762723Y-25741990D01*
X116715104Y-25694371D01*
X116619866Y-25646752D01*
X117191295Y-26170561D02*
X117334152Y-26218180D01*
X117572247Y-26218180D01*
X117667485Y-26170561D01*
X117715104Y-26122942D01*
X117762723Y-26027704D01*
X117762723Y-25932466D01*
X117715104Y-25837228D01*
X117667485Y-25789609D01*
X117572247Y-25741990D01*
X117381771Y-25694371D01*
X117286533Y-25646752D01*
X117238914Y-25599133D01*
X117191295Y-25503895D01*
X117191295Y-25408657D01*
X117238914Y-25313419D01*
X117286533Y-25265800D01*
X117381771Y-25218180D01*
X117619866Y-25218180D01*
X117762723Y-25265800D01*
X118715104Y-26218180D02*
X118143676Y-26218180D01*
X118429390Y-26218180D02*
X118429390Y-25218180D01*
X118334152Y-25361038D01*
X118238914Y-25456276D01*
X118143676Y-25503895D01*
X119715104Y-26122942D02*
X119667485Y-26170561D01*
X119524628Y-26218180D01*
X119429390Y-26218180D01*
X119286533Y-26170561D01*
X119191295Y-26075323D01*
X119143676Y-25980085D01*
X119096057Y-25789609D01*
X119096057Y-25646752D01*
X119143676Y-25456276D01*
X119191295Y-25361038D01*
X119286533Y-25265800D01*
X119429390Y-25218180D01*
X119524628Y-25218180D01*
X119667485Y-25265800D01*
X119715104Y-25313419D01*
X121836742Y-38480066D02*
X121884361Y-38527685D01*
X121931980Y-38670542D01*
X121931980Y-38765780D01*
X121884361Y-38908638D01*
X121789123Y-39003876D01*
X121693885Y-39051495D01*
X121503409Y-39099114D01*
X121360552Y-39099114D01*
X121170076Y-39051495D01*
X121074838Y-39003876D01*
X120979600Y-38908638D01*
X120931980Y-38765780D01*
X120931980Y-38670542D01*
X120979600Y-38527685D01*
X121027219Y-38480066D01*
X120931980Y-37622923D02*
X120931980Y-37813400D01*
X120979600Y-37908638D01*
X121027219Y-37956257D01*
X121170076Y-38051495D01*
X121360552Y-38099114D01*
X121741504Y-38099114D01*
X121836742Y-38051495D01*
X121884361Y-38003876D01*
X121931980Y-37908638D01*
X121931980Y-37718161D01*
X121884361Y-37622923D01*
X121836742Y-37575304D01*
X121741504Y-37527685D01*
X121503409Y-37527685D01*
X121408171Y-37575304D01*
X121360552Y-37622923D01*
X121312933Y-37718161D01*
X121312933Y-37908638D01*
X121360552Y-38003876D01*
X121408171Y-38051495D01*
X121503409Y-38099114D01*
X119385642Y-56018766D02*
X119433261Y-56066385D01*
X119480880Y-56209242D01*
X119480880Y-56304480D01*
X119433261Y-56447338D01*
X119338023Y-56542576D01*
X119242785Y-56590195D01*
X119052309Y-56637814D01*
X118909452Y-56637814D01*
X118718976Y-56590195D01*
X118623738Y-56542576D01*
X118528500Y-56447338D01*
X118480880Y-56304480D01*
X118480880Y-56209242D01*
X118528500Y-56066385D01*
X118576119Y-56018766D01*
X118480880Y-55114004D02*
X118480880Y-55590195D01*
X118957071Y-55637814D01*
X118909452Y-55590195D01*
X118861833Y-55494957D01*
X118861833Y-55256861D01*
X118909452Y-55161623D01*
X118957071Y-55114004D01*
X119052309Y-55066385D01*
X119290404Y-55066385D01*
X119385642Y-55114004D01*
X119433261Y-55161623D01*
X119480880Y-55256861D01*
X119480880Y-55494957D01*
X119433261Y-55590195D01*
X119385642Y-55637814D01*
X117277442Y-56056866D02*
X117325061Y-56104485D01*
X117372680Y-56247342D01*
X117372680Y-56342580D01*
X117325061Y-56485438D01*
X117229823Y-56580676D01*
X117134585Y-56628295D01*
X116944109Y-56675914D01*
X116801252Y-56675914D01*
X116610776Y-56628295D01*
X116515538Y-56580676D01*
X116420300Y-56485438D01*
X116372680Y-56342580D01*
X116372680Y-56247342D01*
X116420300Y-56104485D01*
X116467919Y-56056866D01*
X116706014Y-55199723D02*
X117372680Y-55199723D01*
X116325061Y-55437819D02*
X117039347Y-55675914D01*
X117039347Y-55056866D01*
X115105742Y-56031466D02*
X115153361Y-56079085D01*
X115200980Y-56221942D01*
X115200980Y-56317180D01*
X115153361Y-56460038D01*
X115058123Y-56555276D01*
X114962885Y-56602895D01*
X114772409Y-56650514D01*
X114629552Y-56650514D01*
X114439076Y-56602895D01*
X114343838Y-56555276D01*
X114248600Y-56460038D01*
X114200980Y-56317180D01*
X114200980Y-56221942D01*
X114248600Y-56079085D01*
X114296219Y-56031466D01*
X114200980Y-55698133D02*
X114200980Y-55079085D01*
X114581933Y-55412419D01*
X114581933Y-55269561D01*
X114629552Y-55174323D01*
X114677171Y-55126704D01*
X114772409Y-55079085D01*
X115010504Y-55079085D01*
X115105742Y-55126704D01*
X115153361Y-55174323D01*
X115200980Y-55269561D01*
X115200980Y-55555276D01*
X115153361Y-55650514D01*
X115105742Y-55698133D01*
X107236609Y-43002590D02*
X107236609Y-43478780D01*
X106903276Y-42478780D02*
X107236609Y-43002590D01*
X107569942Y-42478780D01*
X108427085Y-43478780D02*
X107855657Y-43478780D01*
X108141371Y-43478780D02*
X108141371Y-42478780D01*
X108046133Y-42621638D01*
X107950895Y-42716876D01*
X107855657Y-42764495D01*
X121447861Y-50240219D02*
X121352623Y-50192600D01*
X121257385Y-50097361D01*
X121114528Y-49954504D01*
X121019290Y-49906885D01*
X120924052Y-49906885D01*
X120971671Y-50144980D02*
X120876433Y-50097361D01*
X120781195Y-50002123D01*
X120733576Y-49811647D01*
X120733576Y-49478314D01*
X120781195Y-49287838D01*
X120876433Y-49192600D01*
X120971671Y-49144980D01*
X121162147Y-49144980D01*
X121257385Y-49192600D01*
X121352623Y-49287838D01*
X121400242Y-49478314D01*
X121400242Y-49811647D01*
X121352623Y-50002123D01*
X121257385Y-50097361D01*
X121162147Y-50144980D01*
X120971671Y-50144980D01*
X122019290Y-49144980D02*
X122114528Y-49144980D01*
X122209766Y-49192600D01*
X122257385Y-49240219D01*
X122305004Y-49335457D01*
X122352623Y-49525933D01*
X122352623Y-49764028D01*
X122305004Y-49954504D01*
X122257385Y-50049742D01*
X122209766Y-50097361D01*
X122114528Y-50144980D01*
X122019290Y-50144980D01*
X121924052Y-50097361D01*
X121876433Y-50049742D01*
X121828814Y-49954504D01*
X121781195Y-49764028D01*
X121781195Y-49525933D01*
X121828814Y-49335457D01*
X121876433Y-49240219D01*
X121924052Y-49192600D01*
X122019290Y-49144980D01*
X93190476Y-44579761D02*
X93333333Y-44627380D01*
X93571428Y-44627380D01*
X93666666Y-44579761D01*
X93714285Y-44532142D01*
X93761904Y-44436904D01*
X93761904Y-44341666D01*
X93714285Y-44246428D01*
X93666666Y-44198809D01*
X93571428Y-44151190D01*
X93380952Y-44103571D01*
X93285714Y-44055952D01*
X93238095Y-44008333D01*
X93190476Y-43913095D01*
X93190476Y-43817857D01*
X93238095Y-43722619D01*
X93285714Y-43675000D01*
X93380952Y-43627380D01*
X93619047Y-43627380D01*
X93761904Y-43675000D01*
X94095238Y-43627380D02*
X94333333Y-44627380D01*
X94523809Y-43913095D01*
X94714285Y-44627380D01*
X94952380Y-43627380D01*
X95285714Y-43722619D02*
X95333333Y-43675000D01*
X95428571Y-43627380D01*
X95666666Y-43627380D01*
X95761904Y-43675000D01*
X95809523Y-43722619D01*
X95857142Y-43817857D01*
X95857142Y-43913095D01*
X95809523Y-44055952D01*
X95238095Y-44627380D01*
X95857142Y-44627380D01*
X96190476Y-43627380D02*
X96857142Y-43627380D01*
X96428571Y-44627380D01*
X93190476Y-63579761D02*
X93333333Y-63627380D01*
X93571428Y-63627380D01*
X93666666Y-63579761D01*
X93714285Y-63532142D01*
X93761904Y-63436904D01*
X93761904Y-63341666D01*
X93714285Y-63246428D01*
X93666666Y-63198809D01*
X93571428Y-63151190D01*
X93380952Y-63103571D01*
X93285714Y-63055952D01*
X93238095Y-63008333D01*
X93190476Y-62913095D01*
X93190476Y-62817857D01*
X93238095Y-62722619D01*
X93285714Y-62675000D01*
X93380952Y-62627380D01*
X93619047Y-62627380D01*
X93761904Y-62675000D01*
X94095238Y-62627380D02*
X94333333Y-63627380D01*
X94523809Y-62913095D01*
X94714285Y-63627380D01*
X94952380Y-62627380D01*
X95285714Y-62722619D02*
X95333333Y-62675000D01*
X95428571Y-62627380D01*
X95666666Y-62627380D01*
X95761904Y-62675000D01*
X95809523Y-62722619D01*
X95857142Y-62817857D01*
X95857142Y-62913095D01*
X95809523Y-63055952D01*
X95238095Y-63627380D01*
X95857142Y-63627380D01*
X96428571Y-63055952D02*
X96333333Y-63008333D01*
X96285714Y-62960714D01*
X96238095Y-62865476D01*
X96238095Y-62817857D01*
X96285714Y-62722619D01*
X96333333Y-62675000D01*
X96428571Y-62627380D01*
X96619047Y-62627380D01*
X96714285Y-62675000D01*
X96761904Y-62722619D01*
X96809523Y-62817857D01*
X96809523Y-62865476D01*
X96761904Y-62960714D01*
X96714285Y-63008333D01*
X96619047Y-63055952D01*
X96428571Y-63055952D01*
X96333333Y-63103571D01*
X96285714Y-63151190D01*
X96238095Y-63246428D01*
X96238095Y-63436904D01*
X96285714Y-63532142D01*
X96333333Y-63579761D01*
X96428571Y-63627380D01*
X96619047Y-63627380D01*
X96714285Y-63579761D01*
X96761904Y-63532142D01*
X96809523Y-63436904D01*
X96809523Y-63246428D01*
X96761904Y-63151190D01*
X96714285Y-63103571D01*
X96619047Y-63055952D01*
X111229761Y-72809523D02*
X111277380Y-72666666D01*
X111277380Y-72428571D01*
X111229761Y-72333333D01*
X111182142Y-72285714D01*
X111086904Y-72238095D01*
X110991666Y-72238095D01*
X110896428Y-72285714D01*
X110848809Y-72333333D01*
X110801190Y-72428571D01*
X110753571Y-72619047D01*
X110705952Y-72714285D01*
X110658333Y-72761904D01*
X110563095Y-72809523D01*
X110467857Y-72809523D01*
X110372619Y-72761904D01*
X110325000Y-72714285D01*
X110277380Y-72619047D01*
X110277380Y-72380952D01*
X110325000Y-72238095D01*
X110277380Y-71904761D02*
X111277380Y-71666666D01*
X110563095Y-71476190D01*
X111277380Y-71285714D01*
X110277380Y-71047619D01*
X110277380Y-70761904D02*
X110277380Y-70142857D01*
X110658333Y-70476190D01*
X110658333Y-70333333D01*
X110705952Y-70238095D01*
X110753571Y-70190476D01*
X110848809Y-70142857D01*
X111086904Y-70142857D01*
X111182142Y-70190476D01*
X111229761Y-70238095D01*
X111277380Y-70333333D01*
X111277380Y-70619047D01*
X111229761Y-70714285D01*
X111182142Y-70761904D01*
X110277380Y-69523809D02*
X110277380Y-69428571D01*
X110325000Y-69333333D01*
X110372619Y-69285714D01*
X110467857Y-69238095D01*
X110658333Y-69190476D01*
X110896428Y-69190476D01*
X111086904Y-69238095D01*
X111182142Y-69285714D01*
X111229761Y-69333333D01*
X111277380Y-69428571D01*
X111277380Y-69523809D01*
X111229761Y-69619047D01*
X111182142Y-69666666D01*
X111086904Y-69714285D01*
X110896428Y-69761904D01*
X110658333Y-69761904D01*
X110467857Y-69714285D01*
X110372619Y-69666666D01*
X110325000Y-69619047D01*
X110277380Y-69523809D01*
X36190476Y-76579761D02*
X36333333Y-76627380D01*
X36571428Y-76627380D01*
X36666666Y-76579761D01*
X36714285Y-76532142D01*
X36761904Y-76436904D01*
X36761904Y-76341666D01*
X36714285Y-76246428D01*
X36666666Y-76198809D01*
X36571428Y-76151190D01*
X36380952Y-76103571D01*
X36285714Y-76055952D01*
X36238095Y-76008333D01*
X36190476Y-75913095D01*
X36190476Y-75817857D01*
X36238095Y-75722619D01*
X36285714Y-75675000D01*
X36380952Y-75627380D01*
X36619047Y-75627380D01*
X36761904Y-75675000D01*
X37095238Y-75627380D02*
X37333333Y-76627380D01*
X37523809Y-75913095D01*
X37714285Y-76627380D01*
X37952380Y-75627380D01*
X38857142Y-76627380D02*
X38285714Y-76627380D01*
X38571428Y-76627380D02*
X38571428Y-75627380D01*
X38476190Y-75770238D01*
X38380952Y-75865476D01*
X38285714Y-75913095D01*
X39714285Y-75960714D02*
X39714285Y-76627380D01*
X39476190Y-75579761D02*
X39238095Y-76294047D01*
X39857142Y-76294047D01*
X93190476Y-82579761D02*
X93333333Y-82627380D01*
X93571428Y-82627380D01*
X93666666Y-82579761D01*
X93714285Y-82532142D01*
X93761904Y-82436904D01*
X93761904Y-82341666D01*
X93714285Y-82246428D01*
X93666666Y-82198809D01*
X93571428Y-82151190D01*
X93380952Y-82103571D01*
X93285714Y-82055952D01*
X93238095Y-82008333D01*
X93190476Y-81913095D01*
X93190476Y-81817857D01*
X93238095Y-81722619D01*
X93285714Y-81675000D01*
X93380952Y-81627380D01*
X93619047Y-81627380D01*
X93761904Y-81675000D01*
X94095238Y-81627380D02*
X94333333Y-82627380D01*
X94523809Y-81913095D01*
X94714285Y-82627380D01*
X94952380Y-81627380D01*
X95285714Y-81722619D02*
X95333333Y-81675000D01*
X95428571Y-81627380D01*
X95666666Y-81627380D01*
X95761904Y-81675000D01*
X95809523Y-81722619D01*
X95857142Y-81817857D01*
X95857142Y-81913095D01*
X95809523Y-82055952D01*
X95238095Y-82627380D01*
X95857142Y-82627380D01*
X96333333Y-82627380D02*
X96523809Y-82627380D01*
X96619047Y-82579761D01*
X96666666Y-82532142D01*
X96761904Y-82389285D01*
X96809523Y-82198809D01*
X96809523Y-81817857D01*
X96761904Y-81722619D01*
X96714285Y-81675000D01*
X96619047Y-81627380D01*
X96428571Y-81627380D01*
X96333333Y-81675000D01*
X96285714Y-81722619D01*
X96238095Y-81817857D01*
X96238095Y-82055952D01*
X96285714Y-82151190D01*
X96333333Y-82198809D01*
X96428571Y-82246428D01*
X96619047Y-82246428D01*
X96714285Y-82198809D01*
X96761904Y-82151190D01*
X96809523Y-82055952D01*
X93190476Y-25579761D02*
X93333333Y-25627380D01*
X93571428Y-25627380D01*
X93666666Y-25579761D01*
X93714285Y-25532142D01*
X93761904Y-25436904D01*
X93761904Y-25341666D01*
X93714285Y-25246428D01*
X93666666Y-25198809D01*
X93571428Y-25151190D01*
X93380952Y-25103571D01*
X93285714Y-25055952D01*
X93238095Y-25008333D01*
X93190476Y-24913095D01*
X93190476Y-24817857D01*
X93238095Y-24722619D01*
X93285714Y-24675000D01*
X93380952Y-24627380D01*
X93619047Y-24627380D01*
X93761904Y-24675000D01*
X94095238Y-24627380D02*
X94333333Y-25627380D01*
X94523809Y-24913095D01*
X94714285Y-25627380D01*
X94952380Y-24627380D01*
X95285714Y-24722619D02*
X95333333Y-24675000D01*
X95428571Y-24627380D01*
X95666666Y-24627380D01*
X95761904Y-24675000D01*
X95809523Y-24722619D01*
X95857142Y-24817857D01*
X95857142Y-24913095D01*
X95809523Y-25055952D01*
X95238095Y-25627380D01*
X95857142Y-25627380D01*
X96714285Y-24627380D02*
X96523809Y-24627380D01*
X96428571Y-24675000D01*
X96380952Y-24722619D01*
X96285714Y-24865476D01*
X96238095Y-25055952D01*
X96238095Y-25436904D01*
X96285714Y-25532142D01*
X96333333Y-25579761D01*
X96428571Y-25627380D01*
X96619047Y-25627380D01*
X96714285Y-25579761D01*
X96761904Y-25532142D01*
X96809523Y-25436904D01*
X96809523Y-25198809D01*
X96761904Y-25103571D01*
X96714285Y-25055952D01*
X96619047Y-25008333D01*
X96428571Y-25008333D01*
X96333333Y-25055952D01*
X96285714Y-25103571D01*
X96238095Y-25198809D01*
X93190476Y-6579761D02*
X93333333Y-6627380D01*
X93571428Y-6627380D01*
X93666666Y-6579761D01*
X93714285Y-6532142D01*
X93761904Y-6436904D01*
X93761904Y-6341666D01*
X93714285Y-6246428D01*
X93666666Y-6198809D01*
X93571428Y-6151190D01*
X93380952Y-6103571D01*
X93285714Y-6055952D01*
X93238095Y-6008333D01*
X93190476Y-5913095D01*
X93190476Y-5817857D01*
X93238095Y-5722619D01*
X93285714Y-5675000D01*
X93380952Y-5627380D01*
X93619047Y-5627380D01*
X93761904Y-5675000D01*
X94095238Y-5627380D02*
X94333333Y-6627380D01*
X94523809Y-5913095D01*
X94714285Y-6627380D01*
X94952380Y-5627380D01*
X95285714Y-5722619D02*
X95333333Y-5675000D01*
X95428571Y-5627380D01*
X95666666Y-5627380D01*
X95761904Y-5675000D01*
X95809523Y-5722619D01*
X95857142Y-5817857D01*
X95857142Y-5913095D01*
X95809523Y-6055952D01*
X95238095Y-6627380D01*
X95857142Y-6627380D01*
X96761904Y-5627380D02*
X96285714Y-5627380D01*
X96238095Y-6103571D01*
X96285714Y-6055952D01*
X96380952Y-6008333D01*
X96619047Y-6008333D01*
X96714285Y-6055952D01*
X96761904Y-6103571D01*
X96809523Y-6198809D01*
X96809523Y-6436904D01*
X96761904Y-6532142D01*
X96714285Y-6579761D01*
X96619047Y-6627380D01*
X96380952Y-6627380D01*
X96285714Y-6579761D01*
X96238095Y-6532142D01*
X74190476Y-77579761D02*
X74333333Y-77627380D01*
X74571428Y-77627380D01*
X74666666Y-77579761D01*
X74714285Y-77532142D01*
X74761904Y-77436904D01*
X74761904Y-77341666D01*
X74714285Y-77246428D01*
X74666666Y-77198809D01*
X74571428Y-77151190D01*
X74380952Y-77103571D01*
X74285714Y-77055952D01*
X74238095Y-77008333D01*
X74190476Y-76913095D01*
X74190476Y-76817857D01*
X74238095Y-76722619D01*
X74285714Y-76675000D01*
X74380952Y-76627380D01*
X74619047Y-76627380D01*
X74761904Y-76675000D01*
X75095238Y-76627380D02*
X75333333Y-77627380D01*
X75523809Y-76913095D01*
X75714285Y-77627380D01*
X75952380Y-76627380D01*
X76285714Y-76722619D02*
X76333333Y-76675000D01*
X76428571Y-76627380D01*
X76666666Y-76627380D01*
X76761904Y-76675000D01*
X76809523Y-76722619D01*
X76857142Y-76817857D01*
X76857142Y-76913095D01*
X76809523Y-77055952D01*
X76238095Y-77627380D01*
X76857142Y-77627380D01*
X77714285Y-76960714D02*
X77714285Y-77627380D01*
X77476190Y-76579761D02*
X77238095Y-77294047D01*
X77857142Y-77294047D01*
X74190476Y-58579761D02*
X74333333Y-58627380D01*
X74571428Y-58627380D01*
X74666666Y-58579761D01*
X74714285Y-58532142D01*
X74761904Y-58436904D01*
X74761904Y-58341666D01*
X74714285Y-58246428D01*
X74666666Y-58198809D01*
X74571428Y-58151190D01*
X74380952Y-58103571D01*
X74285714Y-58055952D01*
X74238095Y-58008333D01*
X74190476Y-57913095D01*
X74190476Y-57817857D01*
X74238095Y-57722619D01*
X74285714Y-57675000D01*
X74380952Y-57627380D01*
X74619047Y-57627380D01*
X74761904Y-57675000D01*
X75095238Y-57627380D02*
X75333333Y-58627380D01*
X75523809Y-57913095D01*
X75714285Y-58627380D01*
X75952380Y-57627380D01*
X76285714Y-57722619D02*
X76333333Y-57675000D01*
X76428571Y-57627380D01*
X76666666Y-57627380D01*
X76761904Y-57675000D01*
X76809523Y-57722619D01*
X76857142Y-57817857D01*
X76857142Y-57913095D01*
X76809523Y-58055952D01*
X76238095Y-58627380D01*
X76857142Y-58627380D01*
X77190476Y-57627380D02*
X77809523Y-57627380D01*
X77476190Y-58008333D01*
X77619047Y-58008333D01*
X77714285Y-58055952D01*
X77761904Y-58103571D01*
X77809523Y-58198809D01*
X77809523Y-58436904D01*
X77761904Y-58532142D01*
X77714285Y-58579761D01*
X77619047Y-58627380D01*
X77333333Y-58627380D01*
X77238095Y-58579761D01*
X77190476Y-58532142D01*
X74190476Y-39579761D02*
X74333333Y-39627380D01*
X74571428Y-39627380D01*
X74666666Y-39579761D01*
X74714285Y-39532142D01*
X74761904Y-39436904D01*
X74761904Y-39341666D01*
X74714285Y-39246428D01*
X74666666Y-39198809D01*
X74571428Y-39151190D01*
X74380952Y-39103571D01*
X74285714Y-39055952D01*
X74238095Y-39008333D01*
X74190476Y-38913095D01*
X74190476Y-38817857D01*
X74238095Y-38722619D01*
X74285714Y-38675000D01*
X74380952Y-38627380D01*
X74619047Y-38627380D01*
X74761904Y-38675000D01*
X75095238Y-38627380D02*
X75333333Y-39627380D01*
X75523809Y-38913095D01*
X75714285Y-39627380D01*
X75952380Y-38627380D01*
X76285714Y-38722619D02*
X76333333Y-38675000D01*
X76428571Y-38627380D01*
X76666666Y-38627380D01*
X76761904Y-38675000D01*
X76809523Y-38722619D01*
X76857142Y-38817857D01*
X76857142Y-38913095D01*
X76809523Y-39055952D01*
X76238095Y-39627380D01*
X76857142Y-39627380D01*
X77238095Y-38722619D02*
X77285714Y-38675000D01*
X77380952Y-38627380D01*
X77619047Y-38627380D01*
X77714285Y-38675000D01*
X77761904Y-38722619D01*
X77809523Y-38817857D01*
X77809523Y-38913095D01*
X77761904Y-39055952D01*
X77190476Y-39627380D01*
X77809523Y-39627380D01*
X74190476Y-20579761D02*
X74333333Y-20627380D01*
X74571428Y-20627380D01*
X74666666Y-20579761D01*
X74714285Y-20532142D01*
X74761904Y-20436904D01*
X74761904Y-20341666D01*
X74714285Y-20246428D01*
X74666666Y-20198809D01*
X74571428Y-20151190D01*
X74380952Y-20103571D01*
X74285714Y-20055952D01*
X74238095Y-20008333D01*
X74190476Y-19913095D01*
X74190476Y-19817857D01*
X74238095Y-19722619D01*
X74285714Y-19675000D01*
X74380952Y-19627380D01*
X74619047Y-19627380D01*
X74761904Y-19675000D01*
X75095238Y-19627380D02*
X75333333Y-20627380D01*
X75523809Y-19913095D01*
X75714285Y-20627380D01*
X75952380Y-19627380D01*
X76285714Y-19722619D02*
X76333333Y-19675000D01*
X76428571Y-19627380D01*
X76666666Y-19627380D01*
X76761904Y-19675000D01*
X76809523Y-19722619D01*
X76857142Y-19817857D01*
X76857142Y-19913095D01*
X76809523Y-20055952D01*
X76238095Y-20627380D01*
X76857142Y-20627380D01*
X77809523Y-20627380D02*
X77238095Y-20627380D01*
X77523809Y-20627380D02*
X77523809Y-19627380D01*
X77428571Y-19770238D01*
X77333333Y-19865476D01*
X77238095Y-19913095D01*
X74190476Y-1579761D02*
X74333333Y-1627380D01*
X74571428Y-1627380D01*
X74666666Y-1579761D01*
X74714285Y-1532142D01*
X74761904Y-1436904D01*
X74761904Y-1341666D01*
X74714285Y-1246428D01*
X74666666Y-1198809D01*
X74571428Y-1151190D01*
X74380952Y-1103571D01*
X74285714Y-1055952D01*
X74238095Y-1008333D01*
X74190476Y-913095D01*
X74190476Y-817857D01*
X74238095Y-722619D01*
X74285714Y-675000D01*
X74380952Y-627380D01*
X74619047Y-627380D01*
X74761904Y-675000D01*
X75095238Y-627380D02*
X75333333Y-1627380D01*
X75523809Y-913095D01*
X75714285Y-1627380D01*
X75952380Y-627380D01*
X76285714Y-722619D02*
X76333333Y-675000D01*
X76428571Y-627380D01*
X76666666Y-627380D01*
X76761904Y-675000D01*
X76809523Y-722619D01*
X76857142Y-817857D01*
X76857142Y-913095D01*
X76809523Y-1055952D01*
X76238095Y-1627380D01*
X76857142Y-1627380D01*
X77476190Y-627380D02*
X77571428Y-627380D01*
X77666666Y-675000D01*
X77714285Y-722619D01*
X77761904Y-817857D01*
X77809523Y-1008333D01*
X77809523Y-1246428D01*
X77761904Y-1436904D01*
X77714285Y-1532142D01*
X77666666Y-1579761D01*
X77571428Y-1627380D01*
X77476190Y-1627380D01*
X77380952Y-1579761D01*
X77333333Y-1532142D01*
X77285714Y-1436904D01*
X77238095Y-1246428D01*
X77238095Y-1008333D01*
X77285714Y-817857D01*
X77333333Y-722619D01*
X77380952Y-675000D01*
X77476190Y-627380D01*
X55190476Y-71579761D02*
X55333333Y-71627380D01*
X55571428Y-71627380D01*
X55666666Y-71579761D01*
X55714285Y-71532142D01*
X55761904Y-71436904D01*
X55761904Y-71341666D01*
X55714285Y-71246428D01*
X55666666Y-71198809D01*
X55571428Y-71151190D01*
X55380952Y-71103571D01*
X55285714Y-71055952D01*
X55238095Y-71008333D01*
X55190476Y-70913095D01*
X55190476Y-70817857D01*
X55238095Y-70722619D01*
X55285714Y-70675000D01*
X55380952Y-70627380D01*
X55619047Y-70627380D01*
X55761904Y-70675000D01*
X56095238Y-70627380D02*
X56333333Y-71627380D01*
X56523809Y-70913095D01*
X56714285Y-71627380D01*
X56952380Y-70627380D01*
X57857142Y-71627380D02*
X57285714Y-71627380D01*
X57571428Y-71627380D02*
X57571428Y-70627380D01*
X57476190Y-70770238D01*
X57380952Y-70865476D01*
X57285714Y-70913095D01*
X58333333Y-71627380D02*
X58523809Y-71627380D01*
X58619047Y-71579761D01*
X58666666Y-71532142D01*
X58761904Y-71389285D01*
X58809523Y-71198809D01*
X58809523Y-70817857D01*
X58761904Y-70722619D01*
X58714285Y-70675000D01*
X58619047Y-70627380D01*
X58428571Y-70627380D01*
X58333333Y-70675000D01*
X58285714Y-70722619D01*
X58238095Y-70817857D01*
X58238095Y-71055952D01*
X58285714Y-71151190D01*
X58333333Y-71198809D01*
X58428571Y-71246428D01*
X58619047Y-71246428D01*
X58714285Y-71198809D01*
X58761904Y-71151190D01*
X58809523Y-71055952D01*
X55190476Y-52579761D02*
X55333333Y-52627380D01*
X55571428Y-52627380D01*
X55666666Y-52579761D01*
X55714285Y-52532142D01*
X55761904Y-52436904D01*
X55761904Y-52341666D01*
X55714285Y-52246428D01*
X55666666Y-52198809D01*
X55571428Y-52151190D01*
X55380952Y-52103571D01*
X55285714Y-52055952D01*
X55238095Y-52008333D01*
X55190476Y-51913095D01*
X55190476Y-51817857D01*
X55238095Y-51722619D01*
X55285714Y-51675000D01*
X55380952Y-51627380D01*
X55619047Y-51627380D01*
X55761904Y-51675000D01*
X56095238Y-51627380D02*
X56333333Y-52627380D01*
X56523809Y-51913095D01*
X56714285Y-52627380D01*
X56952380Y-51627380D01*
X57857142Y-52627380D02*
X57285714Y-52627380D01*
X57571428Y-52627380D02*
X57571428Y-51627380D01*
X57476190Y-51770238D01*
X57380952Y-51865476D01*
X57285714Y-51913095D01*
X58428571Y-52055952D02*
X58333333Y-52008333D01*
X58285714Y-51960714D01*
X58238095Y-51865476D01*
X58238095Y-51817857D01*
X58285714Y-51722619D01*
X58333333Y-51675000D01*
X58428571Y-51627380D01*
X58619047Y-51627380D01*
X58714285Y-51675000D01*
X58761904Y-51722619D01*
X58809523Y-51817857D01*
X58809523Y-51865476D01*
X58761904Y-51960714D01*
X58714285Y-52008333D01*
X58619047Y-52055952D01*
X58428571Y-52055952D01*
X58333333Y-52103571D01*
X58285714Y-52151190D01*
X58238095Y-52246428D01*
X58238095Y-52436904D01*
X58285714Y-52532142D01*
X58333333Y-52579761D01*
X58428571Y-52627380D01*
X58619047Y-52627380D01*
X58714285Y-52579761D01*
X58761904Y-52532142D01*
X58809523Y-52436904D01*
X58809523Y-52246428D01*
X58761904Y-52151190D01*
X58714285Y-52103571D01*
X58619047Y-52055952D01*
X55190476Y-33579761D02*
X55333333Y-33627380D01*
X55571428Y-33627380D01*
X55666666Y-33579761D01*
X55714285Y-33532142D01*
X55761904Y-33436904D01*
X55761904Y-33341666D01*
X55714285Y-33246428D01*
X55666666Y-33198809D01*
X55571428Y-33151190D01*
X55380952Y-33103571D01*
X55285714Y-33055952D01*
X55238095Y-33008333D01*
X55190476Y-32913095D01*
X55190476Y-32817857D01*
X55238095Y-32722619D01*
X55285714Y-32675000D01*
X55380952Y-32627380D01*
X55619047Y-32627380D01*
X55761904Y-32675000D01*
X56095238Y-32627380D02*
X56333333Y-33627380D01*
X56523809Y-32913095D01*
X56714285Y-33627380D01*
X56952380Y-32627380D01*
X57857142Y-33627380D02*
X57285714Y-33627380D01*
X57571428Y-33627380D02*
X57571428Y-32627380D01*
X57476190Y-32770238D01*
X57380952Y-32865476D01*
X57285714Y-32913095D01*
X58190476Y-32627380D02*
X58857142Y-32627380D01*
X58428571Y-33627380D01*
X55190476Y-14579761D02*
X55333333Y-14627380D01*
X55571428Y-14627380D01*
X55666666Y-14579761D01*
X55714285Y-14532142D01*
X55761904Y-14436904D01*
X55761904Y-14341666D01*
X55714285Y-14246428D01*
X55666666Y-14198809D01*
X55571428Y-14151190D01*
X55380952Y-14103571D01*
X55285714Y-14055952D01*
X55238095Y-14008333D01*
X55190476Y-13913095D01*
X55190476Y-13817857D01*
X55238095Y-13722619D01*
X55285714Y-13675000D01*
X55380952Y-13627380D01*
X55619047Y-13627380D01*
X55761904Y-13675000D01*
X56095238Y-13627380D02*
X56333333Y-14627380D01*
X56523809Y-13913095D01*
X56714285Y-14627380D01*
X56952380Y-13627380D01*
X57857142Y-14627380D02*
X57285714Y-14627380D01*
X57571428Y-14627380D02*
X57571428Y-13627380D01*
X57476190Y-13770238D01*
X57380952Y-13865476D01*
X57285714Y-13913095D01*
X58714285Y-13627380D02*
X58523809Y-13627380D01*
X58428571Y-13675000D01*
X58380952Y-13722619D01*
X58285714Y-13865476D01*
X58238095Y-14055952D01*
X58238095Y-14436904D01*
X58285714Y-14532142D01*
X58333333Y-14579761D01*
X58428571Y-14627380D01*
X58619047Y-14627380D01*
X58714285Y-14579761D01*
X58761904Y-14532142D01*
X58809523Y-14436904D01*
X58809523Y-14198809D01*
X58761904Y-14103571D01*
X58714285Y-14055952D01*
X58619047Y-14008333D01*
X58428571Y-14008333D01*
X58333333Y-14055952D01*
X58285714Y-14103571D01*
X58238095Y-14198809D01*
X36190476Y-57579761D02*
X36333333Y-57627380D01*
X36571428Y-57627380D01*
X36666666Y-57579761D01*
X36714285Y-57532142D01*
X36761904Y-57436904D01*
X36761904Y-57341666D01*
X36714285Y-57246428D01*
X36666666Y-57198809D01*
X36571428Y-57151190D01*
X36380952Y-57103571D01*
X36285714Y-57055952D01*
X36238095Y-57008333D01*
X36190476Y-56913095D01*
X36190476Y-56817857D01*
X36238095Y-56722619D01*
X36285714Y-56675000D01*
X36380952Y-56627380D01*
X36619047Y-56627380D01*
X36761904Y-56675000D01*
X37095238Y-56627380D02*
X37333333Y-57627380D01*
X37523809Y-56913095D01*
X37714285Y-57627380D01*
X37952380Y-56627380D01*
X38857142Y-57627380D02*
X38285714Y-57627380D01*
X38571428Y-57627380D02*
X38571428Y-56627380D01*
X38476190Y-56770238D01*
X38380952Y-56865476D01*
X38285714Y-56913095D01*
X39190476Y-56627380D02*
X39809523Y-56627380D01*
X39476190Y-57008333D01*
X39619047Y-57008333D01*
X39714285Y-57055952D01*
X39761904Y-57103571D01*
X39809523Y-57198809D01*
X39809523Y-57436904D01*
X39761904Y-57532142D01*
X39714285Y-57579761D01*
X39619047Y-57627380D01*
X39333333Y-57627380D01*
X39238095Y-57579761D01*
X39190476Y-57532142D01*
X36190476Y-38579761D02*
X36333333Y-38627380D01*
X36571428Y-38627380D01*
X36666666Y-38579761D01*
X36714285Y-38532142D01*
X36761904Y-38436904D01*
X36761904Y-38341666D01*
X36714285Y-38246428D01*
X36666666Y-38198809D01*
X36571428Y-38151190D01*
X36380952Y-38103571D01*
X36285714Y-38055952D01*
X36238095Y-38008333D01*
X36190476Y-37913095D01*
X36190476Y-37817857D01*
X36238095Y-37722619D01*
X36285714Y-37675000D01*
X36380952Y-37627380D01*
X36619047Y-37627380D01*
X36761904Y-37675000D01*
X37095238Y-37627380D02*
X37333333Y-38627380D01*
X37523809Y-37913095D01*
X37714285Y-38627380D01*
X37952380Y-37627380D01*
X38857142Y-38627380D02*
X38285714Y-38627380D01*
X38571428Y-38627380D02*
X38571428Y-37627380D01*
X38476190Y-37770238D01*
X38380952Y-37865476D01*
X38285714Y-37913095D01*
X39238095Y-37722619D02*
X39285714Y-37675000D01*
X39380952Y-37627380D01*
X39619047Y-37627380D01*
X39714285Y-37675000D01*
X39761904Y-37722619D01*
X39809523Y-37817857D01*
X39809523Y-37913095D01*
X39761904Y-38055952D01*
X39190476Y-38627380D01*
X39809523Y-38627380D01*
X36190476Y-19579761D02*
X36333333Y-19627380D01*
X36571428Y-19627380D01*
X36666666Y-19579761D01*
X36714285Y-19532142D01*
X36761904Y-19436904D01*
X36761904Y-19341666D01*
X36714285Y-19246428D01*
X36666666Y-19198809D01*
X36571428Y-19151190D01*
X36380952Y-19103571D01*
X36285714Y-19055952D01*
X36238095Y-19008333D01*
X36190476Y-18913095D01*
X36190476Y-18817857D01*
X36238095Y-18722619D01*
X36285714Y-18675000D01*
X36380952Y-18627380D01*
X36619047Y-18627380D01*
X36761904Y-18675000D01*
X37095238Y-18627380D02*
X37333333Y-19627380D01*
X37523809Y-18913095D01*
X37714285Y-19627380D01*
X37952380Y-18627380D01*
X38857142Y-19627380D02*
X38285714Y-19627380D01*
X38571428Y-19627380D02*
X38571428Y-18627380D01*
X38476190Y-18770238D01*
X38380952Y-18865476D01*
X38285714Y-18913095D01*
X39809523Y-19627380D02*
X39238095Y-19627380D01*
X39523809Y-19627380D02*
X39523809Y-18627380D01*
X39428571Y-18770238D01*
X39333333Y-18865476D01*
X39238095Y-18913095D01*
X36190476Y-579761D02*
X36333333Y-627380D01*
X36571428Y-627380D01*
X36666666Y-579761D01*
X36714285Y-532142D01*
X36761904Y-436904D01*
X36761904Y-341666D01*
X36714285Y-246428D01*
X36666666Y-198809D01*
X36571428Y-151190D01*
X36380952Y-103571D01*
X36285714Y-55952D01*
X36238095Y-8333D01*
X36190476Y86904D01*
X36190476Y182142D01*
X36238095Y277380D01*
X36285714Y325000D01*
X36380952Y372619D01*
X36619047Y372619D01*
X36761904Y325000D01*
X37095238Y372619D02*
X37333333Y-627380D01*
X37523809Y86904D01*
X37714285Y-627380D01*
X37952380Y372619D01*
X38857142Y-627380D02*
X38285714Y-627380D01*
X38571428Y-627380D02*
X38571428Y372619D01*
X38476190Y229761D01*
X38380952Y134523D01*
X38285714Y86904D01*
X39476190Y372619D02*
X39571428Y372619D01*
X39666666Y325000D01*
X39714285Y277380D01*
X39761904Y182142D01*
X39809523Y-8333D01*
X39809523Y-246428D01*
X39761904Y-436904D01*
X39714285Y-532142D01*
X39666666Y-579761D01*
X39571428Y-627380D01*
X39476190Y-627380D01*
X39380952Y-579761D01*
X39333333Y-532142D01*
X39285714Y-436904D01*
X39238095Y-246428D01*
X39238095Y-8333D01*
X39285714Y182142D01*
X39333333Y277380D01*
X39380952Y325000D01*
X39476190Y372619D01*
X17666666Y-79579761D02*
X17809523Y-79627380D01*
X18047619Y-79627380D01*
X18142857Y-79579761D01*
X18190476Y-79532142D01*
X18238095Y-79436904D01*
X18238095Y-79341666D01*
X18190476Y-79246428D01*
X18142857Y-79198809D01*
X18047619Y-79151190D01*
X17857142Y-79103571D01*
X17761904Y-79055952D01*
X17714285Y-79008333D01*
X17666666Y-78913095D01*
X17666666Y-78817857D01*
X17714285Y-78722619D01*
X17761904Y-78675000D01*
X17857142Y-78627380D01*
X18095238Y-78627380D01*
X18238095Y-78675000D01*
X18571428Y-78627380D02*
X18809523Y-79627380D01*
X19000000Y-78913095D01*
X19190476Y-79627380D01*
X19428571Y-78627380D01*
X19857142Y-79627380D02*
X20047619Y-79627380D01*
X20142857Y-79579761D01*
X20190476Y-79532142D01*
X20285714Y-79389285D01*
X20333333Y-79198809D01*
X20333333Y-78817857D01*
X20285714Y-78722619D01*
X20238095Y-78675000D01*
X20142857Y-78627380D01*
X19952380Y-78627380D01*
X19857142Y-78675000D01*
X19809523Y-78722619D01*
X19761904Y-78817857D01*
X19761904Y-79055952D01*
X19809523Y-79151190D01*
X19857142Y-79198809D01*
X19952380Y-79246428D01*
X20142857Y-79246428D01*
X20238095Y-79198809D01*
X20285714Y-79151190D01*
X20333333Y-79055952D01*
X17666666Y-60579761D02*
X17809523Y-60627380D01*
X18047619Y-60627380D01*
X18142857Y-60579761D01*
X18190476Y-60532142D01*
X18238095Y-60436904D01*
X18238095Y-60341666D01*
X18190476Y-60246428D01*
X18142857Y-60198809D01*
X18047619Y-60151190D01*
X17857142Y-60103571D01*
X17761904Y-60055952D01*
X17714285Y-60008333D01*
X17666666Y-59913095D01*
X17666666Y-59817857D01*
X17714285Y-59722619D01*
X17761904Y-59675000D01*
X17857142Y-59627380D01*
X18095238Y-59627380D01*
X18238095Y-59675000D01*
X18571428Y-59627380D02*
X18809523Y-60627380D01*
X19000000Y-59913095D01*
X19190476Y-60627380D01*
X19428571Y-59627380D01*
X19952380Y-60055952D02*
X19857142Y-60008333D01*
X19809523Y-59960714D01*
X19761904Y-59865476D01*
X19761904Y-59817857D01*
X19809523Y-59722619D01*
X19857142Y-59675000D01*
X19952380Y-59627380D01*
X20142857Y-59627380D01*
X20238095Y-59675000D01*
X20285714Y-59722619D01*
X20333333Y-59817857D01*
X20333333Y-59865476D01*
X20285714Y-59960714D01*
X20238095Y-60008333D01*
X20142857Y-60055952D01*
X19952380Y-60055952D01*
X19857142Y-60103571D01*
X19809523Y-60151190D01*
X19761904Y-60246428D01*
X19761904Y-60436904D01*
X19809523Y-60532142D01*
X19857142Y-60579761D01*
X19952380Y-60627380D01*
X20142857Y-60627380D01*
X20238095Y-60579761D01*
X20285714Y-60532142D01*
X20333333Y-60436904D01*
X20333333Y-60246428D01*
X20285714Y-60151190D01*
X20238095Y-60103571D01*
X20142857Y-60055952D01*
X17666666Y-41579761D02*
X17809523Y-41627380D01*
X18047619Y-41627380D01*
X18142857Y-41579761D01*
X18190476Y-41532142D01*
X18238095Y-41436904D01*
X18238095Y-41341666D01*
X18190476Y-41246428D01*
X18142857Y-41198809D01*
X18047619Y-41151190D01*
X17857142Y-41103571D01*
X17761904Y-41055952D01*
X17714285Y-41008333D01*
X17666666Y-40913095D01*
X17666666Y-40817857D01*
X17714285Y-40722619D01*
X17761904Y-40675000D01*
X17857142Y-40627380D01*
X18095238Y-40627380D01*
X18238095Y-40675000D01*
X18571428Y-40627380D02*
X18809523Y-41627380D01*
X19000000Y-40913095D01*
X19190476Y-41627380D01*
X19428571Y-40627380D01*
X19714285Y-40627380D02*
X20380952Y-40627380D01*
X19952380Y-41627380D01*
X17666666Y-22579761D02*
X17809523Y-22627380D01*
X18047619Y-22627380D01*
X18142857Y-22579761D01*
X18190476Y-22532142D01*
X18238095Y-22436904D01*
X18238095Y-22341666D01*
X18190476Y-22246428D01*
X18142857Y-22198809D01*
X18047619Y-22151190D01*
X17857142Y-22103571D01*
X17761904Y-22055952D01*
X17714285Y-22008333D01*
X17666666Y-21913095D01*
X17666666Y-21817857D01*
X17714285Y-21722619D01*
X17761904Y-21675000D01*
X17857142Y-21627380D01*
X18095238Y-21627380D01*
X18238095Y-21675000D01*
X18571428Y-21627380D02*
X18809523Y-22627380D01*
X19000000Y-21913095D01*
X19190476Y-22627380D01*
X19428571Y-21627380D01*
X20238095Y-21627380D02*
X20047619Y-21627380D01*
X19952380Y-21675000D01*
X19904761Y-21722619D01*
X19809523Y-21865476D01*
X19761904Y-22055952D01*
X19761904Y-22436904D01*
X19809523Y-22532142D01*
X19857142Y-22579761D01*
X19952380Y-22627380D01*
X20142857Y-22627380D01*
X20238095Y-22579761D01*
X20285714Y-22532142D01*
X20333333Y-22436904D01*
X20333333Y-22198809D01*
X20285714Y-22103571D01*
X20238095Y-22055952D01*
X20142857Y-22008333D01*
X19952380Y-22008333D01*
X19857142Y-22055952D01*
X19809523Y-22103571D01*
X19761904Y-22198809D01*
X17666666Y-3579761D02*
X17809523Y-3627380D01*
X18047619Y-3627380D01*
X18142857Y-3579761D01*
X18190476Y-3532142D01*
X18238095Y-3436904D01*
X18238095Y-3341666D01*
X18190476Y-3246428D01*
X18142857Y-3198809D01*
X18047619Y-3151190D01*
X17857142Y-3103571D01*
X17761904Y-3055952D01*
X17714285Y-3008333D01*
X17666666Y-2913095D01*
X17666666Y-2817857D01*
X17714285Y-2722619D01*
X17761904Y-2675000D01*
X17857142Y-2627380D01*
X18095238Y-2627380D01*
X18238095Y-2675000D01*
X18571428Y-2627380D02*
X18809523Y-3627380D01*
X19000000Y-2913095D01*
X19190476Y-3627380D01*
X19428571Y-2627380D01*
X20285714Y-2627380D02*
X19809523Y-2627380D01*
X19761904Y-3103571D01*
X19809523Y-3055952D01*
X19904761Y-3008333D01*
X20142857Y-3008333D01*
X20238095Y-3055952D01*
X20285714Y-3103571D01*
X20333333Y-3198809D01*
X20333333Y-3436904D01*
X20285714Y-3532142D01*
X20238095Y-3579761D01*
X20142857Y-3627380D01*
X19904761Y-3627380D01*
X19809523Y-3579761D01*
X19761904Y-3532142D01*
X55190476Y4420238D02*
X55333333Y4372619D01*
X55571428Y4372619D01*
X55666666Y4420238D01*
X55714285Y4467857D01*
X55761904Y4563095D01*
X55761904Y4658333D01*
X55714285Y4753571D01*
X55666666Y4801190D01*
X55571428Y4848809D01*
X55380952Y4896428D01*
X55285714Y4944047D01*
X55238095Y4991666D01*
X55190476Y5086904D01*
X55190476Y5182142D01*
X55238095Y5277380D01*
X55285714Y5325000D01*
X55380952Y5372619D01*
X55619047Y5372619D01*
X55761904Y5325000D01*
X56095238Y5372619D02*
X56333333Y4372619D01*
X56523809Y5086904D01*
X56714285Y4372619D01*
X56952380Y5372619D01*
X57857142Y4372619D02*
X57285714Y4372619D01*
X57571428Y4372619D02*
X57571428Y5372619D01*
X57476190Y5229761D01*
X57380952Y5134523D01*
X57285714Y5086904D01*
X58761904Y5372619D02*
X58285714Y5372619D01*
X58238095Y4896428D01*
X58285714Y4944047D01*
X58380952Y4991666D01*
X58619047Y4991666D01*
X58714285Y4944047D01*
X58761904Y4896428D01*
X58809523Y4801190D01*
X58809523Y4563095D01*
X58761904Y4467857D01*
X58714285Y4420238D01*
X58619047Y4372619D01*
X58380952Y4372619D01*
X58285714Y4420238D01*
X58238095Y4467857D01*
X-1333333Y-79579761D02*
X-1190476Y-79627380D01*
X-952380Y-79627380D01*
X-857142Y-79579761D01*
X-809523Y-79532142D01*
X-761904Y-79436904D01*
X-761904Y-79341666D01*
X-809523Y-79246428D01*
X-857142Y-79198809D01*
X-952380Y-79151190D01*
X-1142857Y-79103571D01*
X-1238095Y-79055952D01*
X-1285714Y-79008333D01*
X-1333333Y-78913095D01*
X-1333333Y-78817857D01*
X-1285714Y-78722619D01*
X-1238095Y-78675000D01*
X-1142857Y-78627380D01*
X-904761Y-78627380D01*
X-761904Y-78675000D01*
X-428571Y-78627380D02*
X-190476Y-79627380D01*
X0Y-78913095D01*
X190476Y-79627380D01*
X428571Y-78627380D01*
X1238095Y-78960714D02*
X1238095Y-79627380D01*
X1000000Y-78579761D02*
X761904Y-79294047D01*
X1380952Y-79294047D01*
X-1333333Y-60579761D02*
X-1190476Y-60627380D01*
X-952380Y-60627380D01*
X-857142Y-60579761D01*
X-809523Y-60532142D01*
X-761904Y-60436904D01*
X-761904Y-60341666D01*
X-809523Y-60246428D01*
X-857142Y-60198809D01*
X-952380Y-60151190D01*
X-1142857Y-60103571D01*
X-1238095Y-60055952D01*
X-1285714Y-60008333D01*
X-1333333Y-59913095D01*
X-1333333Y-59817857D01*
X-1285714Y-59722619D01*
X-1238095Y-59675000D01*
X-1142857Y-59627380D01*
X-904761Y-59627380D01*
X-761904Y-59675000D01*
X-428571Y-59627380D02*
X-190476Y-60627380D01*
X0Y-59913095D01*
X190476Y-60627380D01*
X428571Y-59627380D01*
X714285Y-59627380D02*
X1333333Y-59627380D01*
X1000000Y-60008333D01*
X1142857Y-60008333D01*
X1238095Y-60055952D01*
X1285714Y-60103571D01*
X1333333Y-60198809D01*
X1333333Y-60436904D01*
X1285714Y-60532142D01*
X1238095Y-60579761D01*
X1142857Y-60627380D01*
X857142Y-60627380D01*
X761904Y-60579761D01*
X714285Y-60532142D01*
X-1333333Y-41579761D02*
X-1190476Y-41627380D01*
X-952380Y-41627380D01*
X-857142Y-41579761D01*
X-809523Y-41532142D01*
X-761904Y-41436904D01*
X-761904Y-41341666D01*
X-809523Y-41246428D01*
X-857142Y-41198809D01*
X-952380Y-41151190D01*
X-1142857Y-41103571D01*
X-1238095Y-41055952D01*
X-1285714Y-41008333D01*
X-1333333Y-40913095D01*
X-1333333Y-40817857D01*
X-1285714Y-40722619D01*
X-1238095Y-40675000D01*
X-1142857Y-40627380D01*
X-904761Y-40627380D01*
X-761904Y-40675000D01*
X-428571Y-40627380D02*
X-190476Y-41627380D01*
X0Y-40913095D01*
X190476Y-41627380D01*
X428571Y-40627380D01*
X761904Y-40722619D02*
X809523Y-40675000D01*
X904761Y-40627380D01*
X1142857Y-40627380D01*
X1238095Y-40675000D01*
X1285714Y-40722619D01*
X1333333Y-40817857D01*
X1333333Y-40913095D01*
X1285714Y-41055952D01*
X714285Y-41627380D01*
X1333333Y-41627380D01*
X-1333333Y-22579761D02*
X-1190476Y-22627380D01*
X-952380Y-22627380D01*
X-857142Y-22579761D01*
X-809523Y-22532142D01*
X-761904Y-22436904D01*
X-761904Y-22341666D01*
X-809523Y-22246428D01*
X-857142Y-22198809D01*
X-952380Y-22151190D01*
X-1142857Y-22103571D01*
X-1238095Y-22055952D01*
X-1285714Y-22008333D01*
X-1333333Y-21913095D01*
X-1333333Y-21817857D01*
X-1285714Y-21722619D01*
X-1238095Y-21675000D01*
X-1142857Y-21627380D01*
X-904761Y-21627380D01*
X-761904Y-21675000D01*
X-428571Y-21627380D02*
X-190476Y-22627380D01*
X0Y-21913095D01*
X190476Y-22627380D01*
X428571Y-21627380D01*
X1333333Y-22627380D02*
X761904Y-22627380D01*
X1047619Y-22627380D02*
X1047619Y-21627380D01*
X952380Y-21770238D01*
X857142Y-21865476D01*
X761904Y-21913095D01*
X-1333333Y-3579761D02*
X-1190476Y-3627380D01*
X-952380Y-3627380D01*
X-857142Y-3579761D01*
X-809523Y-3532142D01*
X-761904Y-3436904D01*
X-761904Y-3341666D01*
X-809523Y-3246428D01*
X-857142Y-3198809D01*
X-952380Y-3151190D01*
X-1142857Y-3103571D01*
X-1238095Y-3055952D01*
X-1285714Y-3008333D01*
X-1333333Y-2913095D01*
X-1333333Y-2817857D01*
X-1285714Y-2722619D01*
X-1238095Y-2675000D01*
X-1142857Y-2627380D01*
X-904761Y-2627380D01*
X-761904Y-2675000D01*
X-428571Y-2627380D02*
X-190476Y-3627380D01*
X0Y-2913095D01*
X190476Y-3627380D01*
X428571Y-2627380D01*
X1000000Y-2627380D02*
X1095238Y-2627380D01*
X1190476Y-2675000D01*
X1238095Y-2722619D01*
X1285714Y-2817857D01*
X1333333Y-3008333D01*
X1333333Y-3246428D01*
X1285714Y-3436904D01*
X1238095Y-3532142D01*
X1190476Y-3579761D01*
X1095238Y-3627380D01*
X1000000Y-3627380D01*
X904761Y-3579761D01*
X857142Y-3532142D01*
X809523Y-3436904D01*
X761904Y-3246428D01*
X761904Y-3008333D01*
X809523Y-2817857D01*
X857142Y-2722619D01*
X904761Y-2675000D01*
X1000000Y-2627380D01*
X116897442Y-49973566D02*
X116945061Y-50021185D01*
X116992680Y-50164042D01*
X116992680Y-50259280D01*
X116945061Y-50402138D01*
X116849823Y-50497376D01*
X116754585Y-50544995D01*
X116564109Y-50592614D01*
X116421252Y-50592614D01*
X116230776Y-50544995D01*
X116135538Y-50497376D01*
X116040300Y-50402138D01*
X115992680Y-50259280D01*
X115992680Y-50164042D01*
X116040300Y-50021185D01*
X116087919Y-49973566D01*
X115992680Y-49354519D02*
X115992680Y-49259280D01*
X116040300Y-49164042D01*
X116087919Y-49116423D01*
X116183157Y-49068804D01*
X116373633Y-49021185D01*
X116611728Y-49021185D01*
X116802204Y-49068804D01*
X116897442Y-49116423D01*
X116945061Y-49164042D01*
X116992680Y-49259280D01*
X116992680Y-49354519D01*
X116945061Y-49449757D01*
X116897442Y-49497376D01*
X116802204Y-49544995D01*
X116611728Y-49592614D01*
X116373633Y-49592614D01*
X116183157Y-49544995D01*
X116087919Y-49497376D01*
X116040300Y-49449757D01*
X115992680Y-49354519D01*
X112870542Y-56006066D02*
X112918161Y-56053685D01*
X112965780Y-56196542D01*
X112965780Y-56291780D01*
X112918161Y-56434638D01*
X112822923Y-56529876D01*
X112727685Y-56577495D01*
X112537209Y-56625114D01*
X112394352Y-56625114D01*
X112203876Y-56577495D01*
X112108638Y-56529876D01*
X112013400Y-56434638D01*
X111965780Y-56291780D01*
X111965780Y-56196542D01*
X112013400Y-56053685D01*
X112061019Y-56006066D01*
X112965780Y-55053685D02*
X112965780Y-55625114D01*
X112965780Y-55339400D02*
X111965780Y-55339400D01*
X112108638Y-55434638D01*
X112203876Y-55529876D01*
X112251495Y-55625114D01*
X117220280Y-44213985D02*
X116220280Y-44213985D01*
X116220280Y-43975890D01*
X116267900Y-43833033D01*
X116363138Y-43737795D01*
X116458376Y-43690176D01*
X116648852Y-43642557D01*
X116791709Y-43642557D01*
X116982185Y-43690176D01*
X117077423Y-43737795D01*
X117172661Y-43833033D01*
X117220280Y-43975890D01*
X117220280Y-44213985D01*
X116220280Y-43309223D02*
X116220280Y-42690176D01*
X116601233Y-43023509D01*
X116601233Y-42880652D01*
X116648852Y-42785414D01*
X116696471Y-42737795D01*
X116791709Y-42690176D01*
X117029804Y-42690176D01*
X117125042Y-42737795D01*
X117172661Y-42785414D01*
X117220280Y-42880652D01*
X117220280Y-43166366D01*
X117172661Y-43261604D01*
X117125042Y-43309223D01*
X117220280Y-41737795D02*
X117220280Y-42309223D01*
X117220280Y-42023509D02*
X116220280Y-42023509D01*
X116363138Y-42118747D01*
X116458376Y-42213985D01*
X116505995Y-42309223D01*
X120544714Y-42810980D02*
X120544714Y-41810980D01*
X120782809Y-41810980D01*
X120925666Y-41858600D01*
X121020904Y-41953838D01*
X121068523Y-42049076D01*
X121116142Y-42239552D01*
X121116142Y-42382409D01*
X121068523Y-42572885D01*
X121020904Y-42668123D01*
X120925666Y-42763361D01*
X120782809Y-42810980D01*
X120544714Y-42810980D01*
X121449476Y-41810980D02*
X122068523Y-41810980D01*
X121735190Y-42191933D01*
X121878047Y-42191933D01*
X121973285Y-42239552D01*
X122020904Y-42287171D01*
X122068523Y-42382409D01*
X122068523Y-42620504D01*
X122020904Y-42715742D01*
X121973285Y-42763361D01*
X121878047Y-42810980D01*
X121592333Y-42810980D01*
X121497095Y-42763361D01*
X121449476Y-42715742D01*
X122449476Y-41906219D02*
X122497095Y-41858600D01*
X122592333Y-41810980D01*
X122830428Y-41810980D01*
X122925666Y-41858600D01*
X122973285Y-41906219D01*
X123020904Y-42001457D01*
X123020904Y-42096695D01*
X122973285Y-42239552D01*
X122401857Y-42810980D01*
X123020904Y-42810980D01*
X105033380Y-51001185D02*
X104033380Y-51001185D01*
X104033380Y-50763090D01*
X104081000Y-50620233D01*
X104176238Y-50524995D01*
X104271476Y-50477376D01*
X104461952Y-50429757D01*
X104604809Y-50429757D01*
X104795285Y-50477376D01*
X104890523Y-50524995D01*
X104985761Y-50620233D01*
X105033380Y-50763090D01*
X105033380Y-51001185D01*
X104033380Y-50096423D02*
X104033380Y-49477376D01*
X104414333Y-49810709D01*
X104414333Y-49667852D01*
X104461952Y-49572614D01*
X104509571Y-49524995D01*
X104604809Y-49477376D01*
X104842904Y-49477376D01*
X104938142Y-49524995D01*
X104985761Y-49572614D01*
X105033380Y-49667852D01*
X105033380Y-49953566D01*
X104985761Y-50048804D01*
X104938142Y-50096423D01*
X104033380Y-49144042D02*
X104033380Y-48524995D01*
X104414333Y-48858328D01*
X104414333Y-48715471D01*
X104461952Y-48620233D01*
X104509571Y-48572614D01*
X104604809Y-48524995D01*
X104842904Y-48524995D01*
X104938142Y-48572614D01*
X104985761Y-48620233D01*
X105033380Y-48715471D01*
X105033380Y-49001185D01*
X104985761Y-49096423D01*
X104938142Y-49144042D01*
X113119866Y-23358180D02*
X113119866Y-24072466D01*
X113072247Y-24215323D01*
X112977009Y-24310561D01*
X112834152Y-24358180D01*
X112738914Y-24358180D01*
X113786533Y-23358180D02*
X113881771Y-23358180D01*
X113977009Y-23405800D01*
X114024628Y-23453419D01*
X114072247Y-23548657D01*
X114119866Y-23739133D01*
X114119866Y-23977228D01*
X114072247Y-24167704D01*
X114024628Y-24262942D01*
X113977009Y-24310561D01*
X113881771Y-24358180D01*
X113786533Y-24358180D01*
X113691295Y-24310561D01*
X113643676Y-24262942D01*
X113596057Y-24167704D01*
X113548438Y-23977228D01*
X113548438Y-23739133D01*
X113596057Y-23548657D01*
X113643676Y-23453419D01*
X113691295Y-23405800D01*
X113786533Y-23358180D01*
X106539580Y-56018766D02*
X106063390Y-56352100D01*
X106539580Y-56590195D02*
X105539580Y-56590195D01*
X105539580Y-56209242D01*
X105587200Y-56114004D01*
X105634819Y-56066385D01*
X105730057Y-56018766D01*
X105872914Y-56018766D01*
X105968152Y-56066385D01*
X106015771Y-56114004D01*
X106063390Y-56209242D01*
X106063390Y-56590195D01*
X106539580Y-55066385D02*
X106539580Y-55637814D01*
X106539580Y-55352100D02*
X105539580Y-55352100D01*
X105682438Y-55447338D01*
X105777676Y-55542576D01*
X105825295Y-55637814D01*
X108685880Y-56082266D02*
X108209690Y-56415600D01*
X108685880Y-56653695D02*
X107685880Y-56653695D01*
X107685880Y-56272742D01*
X107733500Y-56177504D01*
X107781119Y-56129885D01*
X107876357Y-56082266D01*
X108019214Y-56082266D01*
X108114452Y-56129885D01*
X108162071Y-56177504D01*
X108209690Y-56272742D01*
X108209690Y-56653695D01*
X107781119Y-55701314D02*
X107733500Y-55653695D01*
X107685880Y-55558457D01*
X107685880Y-55320361D01*
X107733500Y-55225123D01*
X107781119Y-55177504D01*
X107876357Y-55129885D01*
X107971595Y-55129885D01*
X108114452Y-55177504D01*
X108685880Y-55748933D01*
X108685880Y-55129885D01*
X110908380Y-56044166D02*
X110432190Y-56377500D01*
X110908380Y-56615595D02*
X109908380Y-56615595D01*
X109908380Y-56234642D01*
X109956000Y-56139404D01*
X110003619Y-56091785D01*
X110098857Y-56044166D01*
X110241714Y-56044166D01*
X110336952Y-56091785D01*
X110384571Y-56139404D01*
X110432190Y-56234642D01*
X110432190Y-56615595D01*
X109908380Y-55710833D02*
X109908380Y-55091785D01*
X110289333Y-55425119D01*
X110289333Y-55282261D01*
X110336952Y-55187023D01*
X110384571Y-55139404D01*
X110479809Y-55091785D01*
X110717904Y-55091785D01*
X110813142Y-55139404D01*
X110860761Y-55187023D01*
X110908380Y-55282261D01*
X110908380Y-55567976D01*
X110860761Y-55663214D01*
X110813142Y-55710833D01*
X112749880Y-43630866D02*
X112273690Y-43964200D01*
X112749880Y-44202295D02*
X111749880Y-44202295D01*
X111749880Y-43821342D01*
X111797500Y-43726104D01*
X111845119Y-43678485D01*
X111940357Y-43630866D01*
X112083214Y-43630866D01*
X112178452Y-43678485D01*
X112226071Y-43726104D01*
X112273690Y-43821342D01*
X112273690Y-44202295D01*
X112083214Y-42773723D02*
X112749880Y-42773723D01*
X111702261Y-43011819D02*
X112416547Y-43249914D01*
X112416547Y-42630866D01*
X121975180Y-28040666D02*
X121498990Y-28374000D01*
X121975180Y-28612095D02*
X120975180Y-28612095D01*
X120975180Y-28231142D01*
X121022800Y-28135904D01*
X121070419Y-28088285D01*
X121165657Y-28040666D01*
X121308514Y-28040666D01*
X121403752Y-28088285D01*
X121451371Y-28135904D01*
X121498990Y-28231142D01*
X121498990Y-28612095D01*
X120975180Y-27135904D02*
X120975180Y-27612095D01*
X121451371Y-27659714D01*
X121403752Y-27612095D01*
X121356133Y-27516857D01*
X121356133Y-27278761D01*
X121403752Y-27183523D01*
X121451371Y-27135904D01*
X121546609Y-27088285D01*
X121784704Y-27088285D01*
X121879942Y-27135904D01*
X121927561Y-27183523D01*
X121975180Y-27278761D01*
X121975180Y-27516857D01*
X121927561Y-27612095D01*
X121879942Y-27659714D01*
X121975180Y-31528932D02*
X121498990Y-31862266D01*
X121975180Y-32100361D02*
X120975180Y-32100361D01*
X120975180Y-31719408D01*
X121022800Y-31624170D01*
X121070419Y-31576551D01*
X121165657Y-31528932D01*
X121308514Y-31528932D01*
X121403752Y-31576551D01*
X121451371Y-31624170D01*
X121498990Y-31719408D01*
X121498990Y-32100361D01*
X120975180Y-30671789D02*
X120975180Y-30862266D01*
X121022800Y-30957504D01*
X121070419Y-31005123D01*
X121213276Y-31100361D01*
X121403752Y-31147980D01*
X121784704Y-31147980D01*
X121879942Y-31100361D01*
X121927561Y-31052742D01*
X121975180Y-30957504D01*
X121975180Y-30767027D01*
X121927561Y-30671789D01*
X121879942Y-30624170D01*
X121784704Y-30576551D01*
X121546609Y-30576551D01*
X121451371Y-30624170D01*
X121403752Y-30671789D01*
X121356133Y-30767027D01*
X121356133Y-30957504D01*
X121403752Y-31052742D01*
X121451371Y-31100361D01*
X121546609Y-31147980D01*
X121975180Y-35017198D02*
X121498990Y-35350532D01*
X121975180Y-35588627D02*
X120975180Y-35588627D01*
X120975180Y-35207674D01*
X121022800Y-35112436D01*
X121070419Y-35064817D01*
X121165657Y-35017198D01*
X121308514Y-35017198D01*
X121403752Y-35064817D01*
X121451371Y-35112436D01*
X121498990Y-35207674D01*
X121498990Y-35588627D01*
X120975180Y-34683865D02*
X120975180Y-34017198D01*
X121975180Y-34445770D01*
X114985080Y-43630866D02*
X114508890Y-43964200D01*
X114985080Y-44202295D02*
X113985080Y-44202295D01*
X113985080Y-43821342D01*
X114032700Y-43726104D01*
X114080319Y-43678485D01*
X114175557Y-43630866D01*
X114318414Y-43630866D01*
X114413652Y-43678485D01*
X114461271Y-43726104D01*
X114508890Y-43821342D01*
X114508890Y-44202295D01*
X114985080Y-43154676D02*
X114985080Y-42964200D01*
X114937461Y-42868961D01*
X114889842Y-42821342D01*
X114746985Y-42726104D01*
X114556509Y-42678485D01*
X114175557Y-42678485D01*
X114080319Y-42726104D01*
X114032700Y-42773723D01*
X113985080Y-42868961D01*
X113985080Y-43059438D01*
X114032700Y-43154676D01*
X114080319Y-43202295D01*
X114175557Y-43249914D01*
X114413652Y-43249914D01*
X114508890Y-43202295D01*
X114556509Y-43154676D01*
X114604128Y-43059438D01*
X114604128Y-42868961D01*
X114556509Y-42773723D01*
X114508890Y-42726104D01*
X114413652Y-42678485D01*
X113244295Y-49284680D02*
X113244295Y-50094204D01*
X113291914Y-50189442D01*
X113339533Y-50237061D01*
X113434771Y-50284680D01*
X113625247Y-50284680D01*
X113720485Y-50237061D01*
X113768104Y-50189442D01*
X113815723Y-50094204D01*
X113815723Y-49284680D01*
X114815723Y-50284680D02*
X114244295Y-50284680D01*
X114530009Y-50284680D02*
X114530009Y-49284680D01*
X114434771Y-49427538D01*
X114339533Y-49522776D01*
X114244295Y-49570395D01*
X109354795Y-49335480D02*
X109354795Y-50145004D01*
X109402414Y-50240242D01*
X109450033Y-50287861D01*
X109545271Y-50335480D01*
X109735747Y-50335480D01*
X109830985Y-50287861D01*
X109878604Y-50240242D01*
X109926223Y-50145004D01*
X109926223Y-49335480D01*
X110354795Y-49430719D02*
X110402414Y-49383100D01*
X110497652Y-49335480D01*
X110735747Y-49335480D01*
X110830985Y-49383100D01*
X110878604Y-49430719D01*
X110926223Y-49525957D01*
X110926223Y-49621195D01*
X110878604Y-49764052D01*
X110307176Y-50335480D01*
X110926223Y-50335480D01*
M02*
