G04 #@! TF.GenerationSoftware,KiCad,Pcbnew,(5.1.4)-1*
G04 #@! TF.CreationDate,2021-09-27T09:24:48-04:00*
G04 #@! TF.ProjectId,bottom_case,626f7474-6f6d-45f6-9361-73652e6b6963,rev?*
G04 #@! TF.SameCoordinates,Original*
G04 #@! TF.FileFunction,Copper,L2,Bot*
G04 #@! TF.FilePolarity,Positive*
%FSLAX46Y46*%
G04 Gerber Fmt 4.6, Leading zero omitted, Abs format (unit mm)*
G04 Created by KiCad (PCBNEW (5.1.4)-1) date 2021-09-27 09:24:48*
%MOMM*%
%LPD*%
G04 APERTURE LIST*
%ADD10C,3.800000*%
%ADD11C,0.254000*%
G04 APERTURE END LIST*
D10*
X87725000Y-10025000D03*
X87725000Y-67175000D03*
X9525000Y-66675000D03*
X47625000Y-41125000D03*
X9250000Y-9250000D03*
D11*
G36*
X63480726Y17467932D02*
G01*
X64348608Y17259572D01*
X65173218Y16918008D01*
X65934231Y16451658D01*
X66621924Y15864313D01*
X66953349Y15503172D01*
X68209105Y14011181D01*
X68219251Y14001284D01*
X68575021Y13613615D01*
X68604332Y13586323D01*
X68632652Y13558003D01*
X69390344Y12910873D01*
X69474132Y12849998D01*
X69474136Y12849996D01*
X70323728Y12329365D01*
X70416006Y12282346D01*
X71336589Y11901029D01*
X71403082Y11879425D01*
X71435085Y11869026D01*
X72403984Y11636414D01*
X72506275Y11620213D01*
X73493219Y11542539D01*
X73518997Y11540000D01*
X81796197Y11540000D01*
X82711927Y11467931D01*
X83579809Y11259571D01*
X84404414Y10918009D01*
X85174506Y10446097D01*
X85602802Y10103435D01*
X86063348Y9734971D01*
X86097448Y9711830D01*
X86130816Y9687587D01*
X86980412Y9166954D01*
X87072691Y9119936D01*
X87072698Y9119934D01*
X87993272Y8738619D01*
X88091769Y8706615D01*
X89060668Y8474003D01*
X89162959Y8457802D01*
X90149858Y8380131D01*
X90175682Y8377588D01*
X102874074Y8377588D01*
X103789791Y8305520D01*
X104657678Y8097158D01*
X105482275Y7755599D01*
X106243299Y7289243D01*
X106921994Y6709582D01*
X107501655Y6030887D01*
X107968009Y5269868D01*
X108309570Y4445266D01*
X108517931Y3577381D01*
X108590001Y2661649D01*
X108590000Y-16098795D01*
X108586807Y-16131214D01*
X108599550Y-16260597D01*
X108637290Y-16385007D01*
X108698575Y-16499664D01*
X108747968Y-16559849D01*
X108781052Y-16600162D01*
X108881550Y-16682639D01*
X108996207Y-16743924D01*
X109120617Y-16781664D01*
X109250000Y-16794407D01*
X109282419Y-16791214D01*
X117924074Y-16791214D01*
X118839791Y-16863282D01*
X119707678Y-17071644D01*
X120532275Y-17413203D01*
X121293299Y-17879559D01*
X121971994Y-18459220D01*
X122551655Y-19137915D01*
X123018009Y-19898934D01*
X123359570Y-20723536D01*
X123567931Y-21591421D01*
X123640001Y-22507153D01*
X123640000Y-48867284D01*
X123597656Y-48902035D01*
X123515179Y-49002533D01*
X123453894Y-49117190D01*
X123416154Y-49241600D01*
X123406604Y-49338564D01*
X123406603Y-57954921D01*
X123416153Y-58051885D01*
X123453893Y-58176295D01*
X123515178Y-58290952D01*
X123597655Y-58391451D01*
X123640001Y-58426204D01*
X123640000Y-74624074D01*
X123567931Y-75539793D01*
X123359570Y-76407678D01*
X123018009Y-77232280D01*
X122551655Y-77993299D01*
X121971994Y-78671994D01*
X121293299Y-79251655D01*
X120532275Y-79718011D01*
X119707678Y-80059570D01*
X118839791Y-80267932D01*
X117924074Y-80340000D01*
X112422441Y-80340000D01*
X112411714Y-80341057D01*
X112019371Y-80353859D01*
X111982920Y-80357928D01*
X111946330Y-80360318D01*
X110960181Y-80503088D01*
X110859164Y-80525923D01*
X109907489Y-80821204D01*
X109838157Y-80848848D01*
X109811288Y-80859561D01*
X108917523Y-81300082D01*
X108869658Y-81328545D01*
X108828507Y-81353015D01*
X108014667Y-81927922D01*
X108014658Y-81927927D01*
X107935018Y-81994135D01*
X107221125Y-82689283D01*
X107152822Y-82767134D01*
X106560335Y-83560219D01*
X106544407Y-83580689D01*
X105228457Y-85665365D01*
X104678712Y-86401236D01*
X104039245Y-87023914D01*
X103310249Y-87538886D01*
X102509666Y-87933478D01*
X101657209Y-88197974D01*
X100758812Y-88328041D01*
X100392303Y-88340000D01*
X89653788Y-88340000D01*
X88738069Y-88267931D01*
X87870184Y-88059570D01*
X87045582Y-87718009D01*
X86283856Y-87251221D01*
X85606642Y-86675733D01*
X84263383Y-85345773D01*
X84243907Y-85329951D01*
X83514147Y-84709809D01*
X83472976Y-84680053D01*
X83431610Y-84649999D01*
X82582013Y-84129365D01*
X82489734Y-84082347D01*
X82489727Y-84082345D01*
X81569153Y-83701030D01*
X81470656Y-83669026D01*
X81470653Y-83669026D01*
X80501757Y-83436414D01*
X80399466Y-83420213D01*
X79412517Y-83342538D01*
X79386743Y-83340000D01*
X70784989Y-83340000D01*
X69869270Y-83267931D01*
X69001385Y-83059570D01*
X68176783Y-82718009D01*
X67415764Y-82251655D01*
X66728072Y-81664310D01*
X66396660Y-81303183D01*
X65140893Y-79811182D01*
X65130756Y-79801293D01*
X64774978Y-79413615D01*
X64745672Y-79386329D01*
X64717347Y-79358003D01*
X63959655Y-78710873D01*
X63875868Y-78649999D01*
X63026271Y-78129365D01*
X62933993Y-78082347D01*
X62013411Y-77701029D01*
X61914913Y-77669026D01*
X60946015Y-77436414D01*
X60843724Y-77420213D01*
X59856780Y-77342539D01*
X59831002Y-77340000D01*
X53963256Y-77340000D01*
X53938262Y-77342462D01*
X52983385Y-77415223D01*
X52933223Y-77423040D01*
X52882651Y-77430792D01*
X51912608Y-77658581D01*
X51881095Y-77668647D01*
X51813953Y-77690094D01*
X50891485Y-78066826D01*
X50798974Y-78113385D01*
X49946797Y-78629786D01*
X49911627Y-78655073D01*
X49862709Y-78690243D01*
X49106784Y-79329388D01*
X49086615Y-79345773D01*
X47743940Y-80675156D01*
X47042506Y-81268229D01*
X46279171Y-81730794D01*
X45452882Y-82068248D01*
X44583163Y-82272478D01*
X43697031Y-82340000D01*
X33635349Y-82340000D01*
X33624698Y-82341049D01*
X33235188Y-82353674D01*
X33198800Y-82357728D01*
X33162288Y-82360097D01*
X32176077Y-82502437D01*
X32075049Y-82525228D01*
X31123246Y-82820094D01*
X31036317Y-82854710D01*
X31027028Y-82858409D01*
X30138858Y-83295690D01*
X30115385Y-83306680D01*
X28058373Y-84528666D01*
X27234288Y-84934396D01*
X26381713Y-85198521D01*
X25483192Y-85328205D01*
X25119291Y-85340000D01*
X-3519370Y-85340000D01*
X-4435089Y-85267931D01*
X-5302974Y-85059570D01*
X-6127576Y-84718009D01*
X-6888595Y-84251655D01*
X-7567290Y-83671994D01*
X-8146951Y-82993299D01*
X-8613307Y-82232275D01*
X-8954866Y-81407678D01*
X-9163228Y-80539791D01*
X-9235195Y-79625354D01*
X-9235113Y-79604252D01*
X-9132545Y-66425324D01*
X6990000Y-66425324D01*
X6990000Y-66924676D01*
X7087418Y-67414432D01*
X7278512Y-67875773D01*
X7555937Y-68290968D01*
X7909032Y-68644063D01*
X8324227Y-68921488D01*
X8785568Y-69112582D01*
X9275324Y-69210000D01*
X9774676Y-69210000D01*
X10264432Y-69112582D01*
X10725773Y-68921488D01*
X11140968Y-68644063D01*
X11494063Y-68290968D01*
X11771488Y-67875773D01*
X11962582Y-67414432D01*
X12059871Y-66925324D01*
X85190000Y-66925324D01*
X85190000Y-67424676D01*
X85287418Y-67914432D01*
X85478512Y-68375773D01*
X85755937Y-68790968D01*
X86109032Y-69144063D01*
X86524227Y-69421488D01*
X86985568Y-69612582D01*
X87475324Y-69710000D01*
X87974676Y-69710000D01*
X88464432Y-69612582D01*
X88925773Y-69421488D01*
X89340968Y-69144063D01*
X89694063Y-68790968D01*
X89971488Y-68375773D01*
X90162582Y-67914432D01*
X90260000Y-67424676D01*
X90260000Y-66925324D01*
X90162582Y-66435568D01*
X89971488Y-65974227D01*
X89694063Y-65559032D01*
X89340968Y-65205937D01*
X88925773Y-64928512D01*
X88464432Y-64737418D01*
X87974676Y-64640000D01*
X87475324Y-64640000D01*
X86985568Y-64737418D01*
X86524227Y-64928512D01*
X86109032Y-65205937D01*
X85755937Y-65559032D01*
X85478512Y-65974227D01*
X85287418Y-66435568D01*
X85190000Y-66925324D01*
X12059871Y-66925324D01*
X12060000Y-66924676D01*
X12060000Y-66425324D01*
X11962582Y-65935568D01*
X11771488Y-65474227D01*
X11494063Y-65059032D01*
X11140968Y-64705937D01*
X10725773Y-64428512D01*
X10264432Y-64237418D01*
X9774676Y-64140000D01*
X9275324Y-64140000D01*
X8785568Y-64237418D01*
X8324227Y-64428512D01*
X7909032Y-64705937D01*
X7555937Y-65059032D01*
X7278512Y-65474227D01*
X7087418Y-65935568D01*
X6990000Y-66425324D01*
X-9132545Y-66425324D01*
X-8933696Y-40875324D01*
X45090000Y-40875324D01*
X45090000Y-41374676D01*
X45187418Y-41864432D01*
X45378512Y-42325773D01*
X45655937Y-42740968D01*
X46009032Y-43094063D01*
X46424227Y-43371488D01*
X46885568Y-43562582D01*
X47375324Y-43660000D01*
X47874676Y-43660000D01*
X48364432Y-43562582D01*
X48825773Y-43371488D01*
X49240968Y-43094063D01*
X49594063Y-42740968D01*
X49871488Y-42325773D01*
X50062582Y-41864432D01*
X50160000Y-41374676D01*
X50160000Y-40875324D01*
X50062582Y-40385568D01*
X49871488Y-39924227D01*
X49594063Y-39509032D01*
X49240968Y-39155937D01*
X48825773Y-38878512D01*
X48364432Y-38687418D01*
X47874676Y-38590000D01*
X47375324Y-38590000D01*
X46885568Y-38687418D01*
X46424227Y-38878512D01*
X46009032Y-39155937D01*
X45655937Y-39509032D01*
X45378512Y-39924227D01*
X45187418Y-40385568D01*
X45090000Y-40875324D01*
X-8933696Y-40875324D01*
X-8685620Y-9000324D01*
X6715000Y-9000324D01*
X6715000Y-9499676D01*
X6812418Y-9989432D01*
X7003512Y-10450773D01*
X7280937Y-10865968D01*
X7634032Y-11219063D01*
X8049227Y-11496488D01*
X8510568Y-11687582D01*
X9000324Y-11785000D01*
X9499676Y-11785000D01*
X9989432Y-11687582D01*
X10450773Y-11496488D01*
X10865968Y-11219063D01*
X11219063Y-10865968D01*
X11496488Y-10450773D01*
X11687582Y-9989432D01*
X11730170Y-9775324D01*
X85190000Y-9775324D01*
X85190000Y-10274676D01*
X85287418Y-10764432D01*
X85478512Y-11225773D01*
X85755937Y-11640968D01*
X86109032Y-11994063D01*
X86524227Y-12271488D01*
X86985568Y-12462582D01*
X87475324Y-12560000D01*
X87974676Y-12560000D01*
X88464432Y-12462582D01*
X88925773Y-12271488D01*
X89340968Y-11994063D01*
X89694063Y-11640968D01*
X89971488Y-11225773D01*
X90162582Y-10764432D01*
X90260000Y-10274676D01*
X90260000Y-9775324D01*
X90162582Y-9285568D01*
X89971488Y-8824227D01*
X89694063Y-8409032D01*
X89340968Y-8055937D01*
X88925773Y-7778512D01*
X88464432Y-7587418D01*
X87974676Y-7490000D01*
X87475324Y-7490000D01*
X86985568Y-7587418D01*
X86524227Y-7778512D01*
X86109032Y-8055937D01*
X85755937Y-8409032D01*
X85478512Y-8824227D01*
X85287418Y-9285568D01*
X85190000Y-9775324D01*
X11730170Y-9775324D01*
X11785000Y-9499676D01*
X11785000Y-9000324D01*
X11687582Y-8510568D01*
X11496488Y-8049227D01*
X11219063Y-7634032D01*
X10865968Y-7280937D01*
X10450773Y-7003512D01*
X9989432Y-6812418D01*
X9499676Y-6715000D01*
X9000324Y-6715000D01*
X8510568Y-6812418D01*
X8049227Y-7003512D01*
X7634032Y-7280937D01*
X7280937Y-7634032D01*
X7003512Y-8049227D01*
X6812418Y-8510568D01*
X6715000Y-9000324D01*
X-8685620Y-9000324D01*
X-8585466Y3868354D01*
X-8506273Y4783484D01*
X-8291163Y5649726D01*
X-7943197Y6471640D01*
X-7470932Y7229012D01*
X-6886011Y7903172D01*
X-6202818Y8477538D01*
X-5438199Y8937950D01*
X-4610957Y9273087D01*
X-3740222Y9474978D01*
X-2870790Y9540000D01*
X23514650Y9540000D01*
X23525301Y9541049D01*
X23914811Y9553674D01*
X23951198Y9557728D01*
X23987712Y9560097D01*
X24973922Y9702438D01*
X25074950Y9725229D01*
X25074954Y9725230D01*
X26026751Y10020094D01*
X26122969Y10058409D01*
X27011121Y10495681D01*
X27034614Y10506680D01*
X29091641Y11728674D01*
X29915711Y12134396D01*
X30768286Y12398521D01*
X31666806Y12528205D01*
X32030708Y12540000D01*
X41286743Y12540000D01*
X41311741Y12542462D01*
X42266614Y12615223D01*
X42316776Y12623040D01*
X42367347Y12630792D01*
X43337391Y12858581D01*
X43412162Y12882466D01*
X43436047Y12890095D01*
X44358513Y13266828D01*
X44451024Y13313386D01*
X45303200Y13829786D01*
X45387289Y13890243D01*
X45387295Y13890249D01*
X46143244Y14529412D01*
X46163383Y14545773D01*
X47506071Y15875167D01*
X48207499Y16468233D01*
X48970828Y16930794D01*
X49797115Y17268247D01*
X50666836Y17472478D01*
X51552968Y17540000D01*
X62565009Y17540000D01*
X63480726Y17467932D01*
X63480726Y17467932D01*
G37*
X63480726Y17467932D02*
X64348608Y17259572D01*
X65173218Y16918008D01*
X65934231Y16451658D01*
X66621924Y15864313D01*
X66953349Y15503172D01*
X68209105Y14011181D01*
X68219251Y14001284D01*
X68575021Y13613615D01*
X68604332Y13586323D01*
X68632652Y13558003D01*
X69390344Y12910873D01*
X69474132Y12849998D01*
X69474136Y12849996D01*
X70323728Y12329365D01*
X70416006Y12282346D01*
X71336589Y11901029D01*
X71403082Y11879425D01*
X71435085Y11869026D01*
X72403984Y11636414D01*
X72506275Y11620213D01*
X73493219Y11542539D01*
X73518997Y11540000D01*
X81796197Y11540000D01*
X82711927Y11467931D01*
X83579809Y11259571D01*
X84404414Y10918009D01*
X85174506Y10446097D01*
X85602802Y10103435D01*
X86063348Y9734971D01*
X86097448Y9711830D01*
X86130816Y9687587D01*
X86980412Y9166954D01*
X87072691Y9119936D01*
X87072698Y9119934D01*
X87993272Y8738619D01*
X88091769Y8706615D01*
X89060668Y8474003D01*
X89162959Y8457802D01*
X90149858Y8380131D01*
X90175682Y8377588D01*
X102874074Y8377588D01*
X103789791Y8305520D01*
X104657678Y8097158D01*
X105482275Y7755599D01*
X106243299Y7289243D01*
X106921994Y6709582D01*
X107501655Y6030887D01*
X107968009Y5269868D01*
X108309570Y4445266D01*
X108517931Y3577381D01*
X108590001Y2661649D01*
X108590000Y-16098795D01*
X108586807Y-16131214D01*
X108599550Y-16260597D01*
X108637290Y-16385007D01*
X108698575Y-16499664D01*
X108747968Y-16559849D01*
X108781052Y-16600162D01*
X108881550Y-16682639D01*
X108996207Y-16743924D01*
X109120617Y-16781664D01*
X109250000Y-16794407D01*
X109282419Y-16791214D01*
X117924074Y-16791214D01*
X118839791Y-16863282D01*
X119707678Y-17071644D01*
X120532275Y-17413203D01*
X121293299Y-17879559D01*
X121971994Y-18459220D01*
X122551655Y-19137915D01*
X123018009Y-19898934D01*
X123359570Y-20723536D01*
X123567931Y-21591421D01*
X123640001Y-22507153D01*
X123640000Y-48867284D01*
X123597656Y-48902035D01*
X123515179Y-49002533D01*
X123453894Y-49117190D01*
X123416154Y-49241600D01*
X123406604Y-49338564D01*
X123406603Y-57954921D01*
X123416153Y-58051885D01*
X123453893Y-58176295D01*
X123515178Y-58290952D01*
X123597655Y-58391451D01*
X123640001Y-58426204D01*
X123640000Y-74624074D01*
X123567931Y-75539793D01*
X123359570Y-76407678D01*
X123018009Y-77232280D01*
X122551655Y-77993299D01*
X121971994Y-78671994D01*
X121293299Y-79251655D01*
X120532275Y-79718011D01*
X119707678Y-80059570D01*
X118839791Y-80267932D01*
X117924074Y-80340000D01*
X112422441Y-80340000D01*
X112411714Y-80341057D01*
X112019371Y-80353859D01*
X111982920Y-80357928D01*
X111946330Y-80360318D01*
X110960181Y-80503088D01*
X110859164Y-80525923D01*
X109907489Y-80821204D01*
X109838157Y-80848848D01*
X109811288Y-80859561D01*
X108917523Y-81300082D01*
X108869658Y-81328545D01*
X108828507Y-81353015D01*
X108014667Y-81927922D01*
X108014658Y-81927927D01*
X107935018Y-81994135D01*
X107221125Y-82689283D01*
X107152822Y-82767134D01*
X106560335Y-83560219D01*
X106544407Y-83580689D01*
X105228457Y-85665365D01*
X104678712Y-86401236D01*
X104039245Y-87023914D01*
X103310249Y-87538886D01*
X102509666Y-87933478D01*
X101657209Y-88197974D01*
X100758812Y-88328041D01*
X100392303Y-88340000D01*
X89653788Y-88340000D01*
X88738069Y-88267931D01*
X87870184Y-88059570D01*
X87045582Y-87718009D01*
X86283856Y-87251221D01*
X85606642Y-86675733D01*
X84263383Y-85345773D01*
X84243907Y-85329951D01*
X83514147Y-84709809D01*
X83472976Y-84680053D01*
X83431610Y-84649999D01*
X82582013Y-84129365D01*
X82489734Y-84082347D01*
X82489727Y-84082345D01*
X81569153Y-83701030D01*
X81470656Y-83669026D01*
X81470653Y-83669026D01*
X80501757Y-83436414D01*
X80399466Y-83420213D01*
X79412517Y-83342538D01*
X79386743Y-83340000D01*
X70784989Y-83340000D01*
X69869270Y-83267931D01*
X69001385Y-83059570D01*
X68176783Y-82718009D01*
X67415764Y-82251655D01*
X66728072Y-81664310D01*
X66396660Y-81303183D01*
X65140893Y-79811182D01*
X65130756Y-79801293D01*
X64774978Y-79413615D01*
X64745672Y-79386329D01*
X64717347Y-79358003D01*
X63959655Y-78710873D01*
X63875868Y-78649999D01*
X63026271Y-78129365D01*
X62933993Y-78082347D01*
X62013411Y-77701029D01*
X61914913Y-77669026D01*
X60946015Y-77436414D01*
X60843724Y-77420213D01*
X59856780Y-77342539D01*
X59831002Y-77340000D01*
X53963256Y-77340000D01*
X53938262Y-77342462D01*
X52983385Y-77415223D01*
X52933223Y-77423040D01*
X52882651Y-77430792D01*
X51912608Y-77658581D01*
X51881095Y-77668647D01*
X51813953Y-77690094D01*
X50891485Y-78066826D01*
X50798974Y-78113385D01*
X49946797Y-78629786D01*
X49911627Y-78655073D01*
X49862709Y-78690243D01*
X49106784Y-79329388D01*
X49086615Y-79345773D01*
X47743940Y-80675156D01*
X47042506Y-81268229D01*
X46279171Y-81730794D01*
X45452882Y-82068248D01*
X44583163Y-82272478D01*
X43697031Y-82340000D01*
X33635349Y-82340000D01*
X33624698Y-82341049D01*
X33235188Y-82353674D01*
X33198800Y-82357728D01*
X33162288Y-82360097D01*
X32176077Y-82502437D01*
X32075049Y-82525228D01*
X31123246Y-82820094D01*
X31036317Y-82854710D01*
X31027028Y-82858409D01*
X30138858Y-83295690D01*
X30115385Y-83306680D01*
X28058373Y-84528666D01*
X27234288Y-84934396D01*
X26381713Y-85198521D01*
X25483192Y-85328205D01*
X25119291Y-85340000D01*
X-3519370Y-85340000D01*
X-4435089Y-85267931D01*
X-5302974Y-85059570D01*
X-6127576Y-84718009D01*
X-6888595Y-84251655D01*
X-7567290Y-83671994D01*
X-8146951Y-82993299D01*
X-8613307Y-82232275D01*
X-8954866Y-81407678D01*
X-9163228Y-80539791D01*
X-9235195Y-79625354D01*
X-9235113Y-79604252D01*
X-9132545Y-66425324D01*
X6990000Y-66425324D01*
X6990000Y-66924676D01*
X7087418Y-67414432D01*
X7278512Y-67875773D01*
X7555937Y-68290968D01*
X7909032Y-68644063D01*
X8324227Y-68921488D01*
X8785568Y-69112582D01*
X9275324Y-69210000D01*
X9774676Y-69210000D01*
X10264432Y-69112582D01*
X10725773Y-68921488D01*
X11140968Y-68644063D01*
X11494063Y-68290968D01*
X11771488Y-67875773D01*
X11962582Y-67414432D01*
X12059871Y-66925324D01*
X85190000Y-66925324D01*
X85190000Y-67424676D01*
X85287418Y-67914432D01*
X85478512Y-68375773D01*
X85755937Y-68790968D01*
X86109032Y-69144063D01*
X86524227Y-69421488D01*
X86985568Y-69612582D01*
X87475324Y-69710000D01*
X87974676Y-69710000D01*
X88464432Y-69612582D01*
X88925773Y-69421488D01*
X89340968Y-69144063D01*
X89694063Y-68790968D01*
X89971488Y-68375773D01*
X90162582Y-67914432D01*
X90260000Y-67424676D01*
X90260000Y-66925324D01*
X90162582Y-66435568D01*
X89971488Y-65974227D01*
X89694063Y-65559032D01*
X89340968Y-65205937D01*
X88925773Y-64928512D01*
X88464432Y-64737418D01*
X87974676Y-64640000D01*
X87475324Y-64640000D01*
X86985568Y-64737418D01*
X86524227Y-64928512D01*
X86109032Y-65205937D01*
X85755937Y-65559032D01*
X85478512Y-65974227D01*
X85287418Y-66435568D01*
X85190000Y-66925324D01*
X12059871Y-66925324D01*
X12060000Y-66924676D01*
X12060000Y-66425324D01*
X11962582Y-65935568D01*
X11771488Y-65474227D01*
X11494063Y-65059032D01*
X11140968Y-64705937D01*
X10725773Y-64428512D01*
X10264432Y-64237418D01*
X9774676Y-64140000D01*
X9275324Y-64140000D01*
X8785568Y-64237418D01*
X8324227Y-64428512D01*
X7909032Y-64705937D01*
X7555937Y-65059032D01*
X7278512Y-65474227D01*
X7087418Y-65935568D01*
X6990000Y-66425324D01*
X-9132545Y-66425324D01*
X-8933696Y-40875324D01*
X45090000Y-40875324D01*
X45090000Y-41374676D01*
X45187418Y-41864432D01*
X45378512Y-42325773D01*
X45655937Y-42740968D01*
X46009032Y-43094063D01*
X46424227Y-43371488D01*
X46885568Y-43562582D01*
X47375324Y-43660000D01*
X47874676Y-43660000D01*
X48364432Y-43562582D01*
X48825773Y-43371488D01*
X49240968Y-43094063D01*
X49594063Y-42740968D01*
X49871488Y-42325773D01*
X50062582Y-41864432D01*
X50160000Y-41374676D01*
X50160000Y-40875324D01*
X50062582Y-40385568D01*
X49871488Y-39924227D01*
X49594063Y-39509032D01*
X49240968Y-39155937D01*
X48825773Y-38878512D01*
X48364432Y-38687418D01*
X47874676Y-38590000D01*
X47375324Y-38590000D01*
X46885568Y-38687418D01*
X46424227Y-38878512D01*
X46009032Y-39155937D01*
X45655937Y-39509032D01*
X45378512Y-39924227D01*
X45187418Y-40385568D01*
X45090000Y-40875324D01*
X-8933696Y-40875324D01*
X-8685620Y-9000324D01*
X6715000Y-9000324D01*
X6715000Y-9499676D01*
X6812418Y-9989432D01*
X7003512Y-10450773D01*
X7280937Y-10865968D01*
X7634032Y-11219063D01*
X8049227Y-11496488D01*
X8510568Y-11687582D01*
X9000324Y-11785000D01*
X9499676Y-11785000D01*
X9989432Y-11687582D01*
X10450773Y-11496488D01*
X10865968Y-11219063D01*
X11219063Y-10865968D01*
X11496488Y-10450773D01*
X11687582Y-9989432D01*
X11730170Y-9775324D01*
X85190000Y-9775324D01*
X85190000Y-10274676D01*
X85287418Y-10764432D01*
X85478512Y-11225773D01*
X85755937Y-11640968D01*
X86109032Y-11994063D01*
X86524227Y-12271488D01*
X86985568Y-12462582D01*
X87475324Y-12560000D01*
X87974676Y-12560000D01*
X88464432Y-12462582D01*
X88925773Y-12271488D01*
X89340968Y-11994063D01*
X89694063Y-11640968D01*
X89971488Y-11225773D01*
X90162582Y-10764432D01*
X90260000Y-10274676D01*
X90260000Y-9775324D01*
X90162582Y-9285568D01*
X89971488Y-8824227D01*
X89694063Y-8409032D01*
X89340968Y-8055937D01*
X88925773Y-7778512D01*
X88464432Y-7587418D01*
X87974676Y-7490000D01*
X87475324Y-7490000D01*
X86985568Y-7587418D01*
X86524227Y-7778512D01*
X86109032Y-8055937D01*
X85755937Y-8409032D01*
X85478512Y-8824227D01*
X85287418Y-9285568D01*
X85190000Y-9775324D01*
X11730170Y-9775324D01*
X11785000Y-9499676D01*
X11785000Y-9000324D01*
X11687582Y-8510568D01*
X11496488Y-8049227D01*
X11219063Y-7634032D01*
X10865968Y-7280937D01*
X10450773Y-7003512D01*
X9989432Y-6812418D01*
X9499676Y-6715000D01*
X9000324Y-6715000D01*
X8510568Y-6812418D01*
X8049227Y-7003512D01*
X7634032Y-7280937D01*
X7280937Y-7634032D01*
X7003512Y-8049227D01*
X6812418Y-8510568D01*
X6715000Y-9000324D01*
X-8685620Y-9000324D01*
X-8585466Y3868354D01*
X-8506273Y4783484D01*
X-8291163Y5649726D01*
X-7943197Y6471640D01*
X-7470932Y7229012D01*
X-6886011Y7903172D01*
X-6202818Y8477538D01*
X-5438199Y8937950D01*
X-4610957Y9273087D01*
X-3740222Y9474978D01*
X-2870790Y9540000D01*
X23514650Y9540000D01*
X23525301Y9541049D01*
X23914811Y9553674D01*
X23951198Y9557728D01*
X23987712Y9560097D01*
X24973922Y9702438D01*
X25074950Y9725229D01*
X25074954Y9725230D01*
X26026751Y10020094D01*
X26122969Y10058409D01*
X27011121Y10495681D01*
X27034614Y10506680D01*
X29091641Y11728674D01*
X29915711Y12134396D01*
X30768286Y12398521D01*
X31666806Y12528205D01*
X32030708Y12540000D01*
X41286743Y12540000D01*
X41311741Y12542462D01*
X42266614Y12615223D01*
X42316776Y12623040D01*
X42367347Y12630792D01*
X43337391Y12858581D01*
X43412162Y12882466D01*
X43436047Y12890095D01*
X44358513Y13266828D01*
X44451024Y13313386D01*
X45303200Y13829786D01*
X45387289Y13890243D01*
X45387295Y13890249D01*
X46143244Y14529412D01*
X46163383Y14545773D01*
X47506071Y15875167D01*
X48207499Y16468233D01*
X48970828Y16930794D01*
X49797115Y17268247D01*
X50666836Y17472478D01*
X51552968Y17540000D01*
X62565009Y17540000D01*
X63480726Y17467932D01*
M02*
