G04 #@! TF.GenerationSoftware,KiCad,Pcbnew,(5.1.4)-1*
G04 #@! TF.CreationDate,2021-09-27T09:24:48-04:00*
G04 #@! TF.ProjectId,bottom_case,626f7474-6f6d-45f6-9361-73652e6b6963,rev?*
G04 #@! TF.SameCoordinates,Original*
G04 #@! TF.FileFunction,Soldermask,Bot*
G04 #@! TF.FilePolarity,Negative*
%FSLAX46Y46*%
G04 Gerber Fmt 4.6, Leading zero omitted, Abs format (unit mm)*
G04 Created by KiCad (PCBNEW (5.1.4)-1) date 2021-09-27 09:24:48*
%MOMM*%
%LPD*%
G04 APERTURE LIST*
%ADD10C,0.100000*%
G04 APERTURE END LIST*
D10*
G36*
X88294085Y-65298975D02*
G01*
X88613572Y-65431311D01*
X88649145Y-65446046D01*
X88968690Y-65659559D01*
X89240441Y-65931310D01*
X89357108Y-66105915D01*
X89453955Y-66250857D01*
X89601025Y-66605915D01*
X89676000Y-66982842D01*
X89676000Y-67367158D01*
X89601025Y-67744085D01*
X89528701Y-67918690D01*
X89453954Y-68099145D01*
X89240441Y-68418690D01*
X88968690Y-68690441D01*
X88649145Y-68903954D01*
X88649144Y-68903955D01*
X88649143Y-68903955D01*
X88294085Y-69051025D01*
X87917158Y-69126000D01*
X87532842Y-69126000D01*
X87155915Y-69051025D01*
X86800857Y-68903955D01*
X86800856Y-68903955D01*
X86800855Y-68903954D01*
X86481310Y-68690441D01*
X86209559Y-68418690D01*
X85996046Y-68099145D01*
X85921299Y-67918690D01*
X85848975Y-67744085D01*
X85774000Y-67367158D01*
X85774000Y-66982842D01*
X85848975Y-66605915D01*
X85996045Y-66250857D01*
X86092892Y-66105915D01*
X86209559Y-65931310D01*
X86481310Y-65659559D01*
X86800855Y-65446046D01*
X86836428Y-65431311D01*
X87155915Y-65298975D01*
X87532842Y-65224000D01*
X87917158Y-65224000D01*
X88294085Y-65298975D01*
X88294085Y-65298975D01*
G37*
G36*
X10094085Y-64798975D02*
G01*
X10449143Y-64946045D01*
X10449145Y-64946046D01*
X10768690Y-65159559D01*
X11040441Y-65431310D01*
X11050287Y-65446046D01*
X11253955Y-65750857D01*
X11401025Y-66105915D01*
X11476000Y-66482842D01*
X11476000Y-66867158D01*
X11401025Y-67244085D01*
X11350046Y-67367158D01*
X11253954Y-67599145D01*
X11040441Y-67918690D01*
X10768690Y-68190441D01*
X10449145Y-68403954D01*
X10449144Y-68403955D01*
X10449143Y-68403955D01*
X10094085Y-68551025D01*
X9717158Y-68626000D01*
X9332842Y-68626000D01*
X8955915Y-68551025D01*
X8600857Y-68403955D01*
X8600856Y-68403955D01*
X8600855Y-68403954D01*
X8281310Y-68190441D01*
X8009559Y-67918690D01*
X7796046Y-67599145D01*
X7699954Y-67367158D01*
X7648975Y-67244085D01*
X7574000Y-66867158D01*
X7574000Y-66482842D01*
X7648975Y-66105915D01*
X7796045Y-65750857D01*
X7999713Y-65446046D01*
X8009559Y-65431310D01*
X8281310Y-65159559D01*
X8600855Y-64946046D01*
X8600857Y-64946045D01*
X8955915Y-64798975D01*
X9332842Y-64724000D01*
X9717158Y-64724000D01*
X10094085Y-64798975D01*
X10094085Y-64798975D01*
G37*
G36*
X48194085Y-39248975D02*
G01*
X48549143Y-39396045D01*
X48549145Y-39396046D01*
X48868690Y-39609559D01*
X49140441Y-39881310D01*
X49353954Y-40200855D01*
X49353955Y-40200857D01*
X49501025Y-40555915D01*
X49576000Y-40932842D01*
X49576000Y-41317158D01*
X49501025Y-41694085D01*
X49353955Y-42049143D01*
X49353954Y-42049145D01*
X49140441Y-42368690D01*
X48868690Y-42640441D01*
X48549145Y-42853954D01*
X48549144Y-42853955D01*
X48549143Y-42853955D01*
X48194085Y-43001025D01*
X47817158Y-43076000D01*
X47432842Y-43076000D01*
X47055915Y-43001025D01*
X46700857Y-42853955D01*
X46700856Y-42853955D01*
X46700855Y-42853954D01*
X46381310Y-42640441D01*
X46109559Y-42368690D01*
X45896046Y-42049145D01*
X45896045Y-42049143D01*
X45748975Y-41694085D01*
X45674000Y-41317158D01*
X45674000Y-40932842D01*
X45748975Y-40555915D01*
X45896045Y-40200857D01*
X45896046Y-40200855D01*
X46109559Y-39881310D01*
X46381310Y-39609559D01*
X46700855Y-39396046D01*
X46700857Y-39396045D01*
X47055915Y-39248975D01*
X47432842Y-39174000D01*
X47817158Y-39174000D01*
X48194085Y-39248975D01*
X48194085Y-39248975D01*
G37*
G36*
X88294085Y-8148975D02*
G01*
X88649143Y-8296045D01*
X88649145Y-8296046D01*
X88968690Y-8509559D01*
X89240441Y-8781310D01*
X89425214Y-9057843D01*
X89453955Y-9100857D01*
X89601025Y-9455915D01*
X89676000Y-9832842D01*
X89676000Y-10217158D01*
X89601025Y-10594085D01*
X89530047Y-10765441D01*
X89453954Y-10949145D01*
X89240441Y-11268690D01*
X88968690Y-11540441D01*
X88649145Y-11753954D01*
X88649144Y-11753955D01*
X88649143Y-11753955D01*
X88294085Y-11901025D01*
X87917158Y-11976000D01*
X87532842Y-11976000D01*
X87155915Y-11901025D01*
X86800857Y-11753955D01*
X86800856Y-11753955D01*
X86800855Y-11753954D01*
X86481310Y-11540441D01*
X86209559Y-11268690D01*
X85996046Y-10949145D01*
X85919953Y-10765441D01*
X85848975Y-10594085D01*
X85774000Y-10217158D01*
X85774000Y-9832842D01*
X85848975Y-9455915D01*
X85996045Y-9100857D01*
X86024786Y-9057843D01*
X86209559Y-8781310D01*
X86481310Y-8509559D01*
X86800855Y-8296046D01*
X86800857Y-8296045D01*
X87155915Y-8148975D01*
X87532842Y-8074000D01*
X87917158Y-8074000D01*
X88294085Y-8148975D01*
X88294085Y-8148975D01*
G37*
G36*
X9819085Y-7373975D02*
G01*
X10174143Y-7521045D01*
X10174145Y-7521046D01*
X10493690Y-7734559D01*
X10765441Y-8006310D01*
X10959036Y-8296046D01*
X10978955Y-8325857D01*
X11126025Y-8680915D01*
X11201000Y-9057842D01*
X11201000Y-9442158D01*
X11126025Y-9819085D01*
X11120326Y-9832843D01*
X10978954Y-10174145D01*
X10765441Y-10493690D01*
X10493690Y-10765441D01*
X10174145Y-10978954D01*
X10174144Y-10978955D01*
X10174143Y-10978955D01*
X9819085Y-11126025D01*
X9442158Y-11201000D01*
X9057842Y-11201000D01*
X8680915Y-11126025D01*
X8325857Y-10978955D01*
X8325856Y-10978955D01*
X8325855Y-10978954D01*
X8006310Y-10765441D01*
X7734559Y-10493690D01*
X7521046Y-10174145D01*
X7379674Y-9832843D01*
X7373975Y-9819085D01*
X7299000Y-9442158D01*
X7299000Y-9057842D01*
X7373975Y-8680915D01*
X7521045Y-8325857D01*
X7540964Y-8296046D01*
X7734559Y-8006310D01*
X8006310Y-7734559D01*
X8325855Y-7521046D01*
X8325857Y-7521045D01*
X8680915Y-7373975D01*
X9057842Y-7299000D01*
X9442158Y-7299000D01*
X9819085Y-7373975D01*
X9819085Y-7373975D01*
G37*
M02*
