G04 #@! TF.GenerationSoftware,KiCad,Pcbnew,(5.1.4)-1*
G04 #@! TF.CreationDate,2021-09-27T09:24:48-04:00*
G04 #@! TF.ProjectId,bottom_case,626f7474-6f6d-45f6-9361-73652e6b6963,rev?*
G04 #@! TF.SameCoordinates,Original*
G04 #@! TF.FileFunction,Profile,NP*
%FSLAX46Y46*%
G04 Gerber Fmt 4.6, Leading zero omitted, Abs format (unit mm)*
G04 Created by KiCad (PCBNEW (5.1.4)-1) date 2021-09-27 09:24:48*
%MOMM*%
%LPD*%
G04 APERTURE LIST*
%ADD10C,0.050000*%
G04 APERTURE END LIST*
D10*
X23482231Y10200000D02*
X-2895436Y10200000D01*
X26725400Y11090664D02*
G75*
G02X23482231Y10200000I-3243169J5459335D01*
G01*
X28776832Y12309335D02*
X26725401Y11090664D01*
X28776832Y12309336D02*
G75*
G02X32020002Y13200000I3243170J-5459336D01*
G01*
X41254324Y13200000D02*
X32020002Y13200000D01*
X45722057Y15037589D02*
G75*
G02X41254324Y13200000I-4467733J4512410D01*
G01*
X47060128Y16362411D02*
X45722058Y15037588D01*
X47060127Y16362411D02*
G75*
G02X51527862Y18200000I4467735J-4512412D01*
G01*
X62590936Y18200000D02*
X51527862Y18200000D01*
X62590935Y18200000D02*
G75*
G02X67449172Y15939015I1J-6350001D01*
G01*
X68693180Y14460984D02*
X67449172Y15939015D01*
X73551417Y12199999D02*
G75*
G02X68693180Y14460984I-1J6350001D01*
G01*
X81822137Y12200000D02*
X73551416Y12200000D01*
X81822136Y12199999D02*
G75*
G02X86015119Y10618794I1J-6350000D01*
G01*
X90208101Y9037588D02*
G75*
G02X86015119Y10618794I0J6350000D01*
G01*
X102900000Y9037588D02*
X90208101Y9037588D01*
X102900000Y9037588D02*
G75*
G02X109250000Y2687588I0J-6350000D01*
G01*
X109250000Y-16131214D02*
X109250000Y2687588D01*
X117950000Y-16131214D02*
X109250000Y-16131214D01*
X117950000Y-16131214D02*
G75*
G02X124300000Y-22481214I0J-6350000D01*
G01*
X124300000Y-49232858D02*
X124300000Y-22481214D01*
X124300000Y-49232859D02*
G75*
G02X124066603Y-49370983I-3350000J5394442D01*
G01*
X124066603Y-57922503D02*
X124066603Y-49370983D01*
X124066603Y-57922503D02*
G75*
G02X124300000Y-58060627I-3116603J-5532566D01*
G01*
X124300000Y-74650000D02*
X124300000Y-58060627D01*
X124300000Y-74650000D02*
G75*
G02X117950000Y-81000000I-6350000J0D01*
G01*
X112454860Y-81000000D02*
X117950000Y-81000000D01*
X107085208Y-83960407D02*
G75*
G02X112454860Y-81000000I5369652J-3389593D01*
G01*
X105772723Y-86039592D02*
X107085208Y-83960407D01*
X105772724Y-86039592D02*
G75*
G02X100403071Y-89000000I-5369653J3389593D01*
G01*
X89627862Y-89000000D02*
X100403071Y-89000000D01*
X89627862Y-89000000D02*
G75*
G02X85160128Y-87162411I0J6350000D01*
G01*
X83822058Y-85837588D02*
X85160128Y-87162411D01*
X79354324Y-83999999D02*
G75*
G02X83822058Y-85837588I0J-6350001D01*
G01*
X70759063Y-84000000D02*
X79354324Y-84000000D01*
X70759063Y-84000000D02*
G75*
G02X65900827Y-81739015I0J6350000D01*
G01*
X64656819Y-80260984D02*
X65900827Y-81739015D01*
X59798582Y-77999999D02*
G75*
G02X64656819Y-80260984I1J-6350001D01*
G01*
X53995675Y-78000000D02*
X59798583Y-78000000D01*
X49527941Y-79837589D02*
G75*
G02X53995675Y-78000000I4467734J-4512411D01*
G01*
X48189871Y-81162411D02*
X49527941Y-79837588D01*
X48189872Y-81162411D02*
G75*
G02X43722137Y-83000000I-4467735J4512412D01*
G01*
X33667768Y-83000000D02*
X43722137Y-83000000D01*
X30424598Y-83890664D02*
G75*
G02X33667768Y-83000000I3243170J-5459336D01*
G01*
X28373167Y-85109335D02*
X30424598Y-83890664D01*
X28373167Y-85109336D02*
G75*
G02X25129997Y-86000000I-3243170J5459337D01*
G01*
X-3545296Y-86000000D02*
X25129997Y-86000000D01*
X-3545296Y-86000000D02*
G75*
G02X-9895104Y-79600581I0J6350000D01*
G01*
X-9245244Y3899418D02*
X-9895104Y-79600581D01*
X-9245244Y3899419D02*
G75*
G02X-2895436Y10200000I6349808J-49419D01*
G01*
M02*
