G04 #@! TF.GenerationSoftware,KiCad,Pcbnew,(5.1.4)-1*
G04 #@! TF.CreationDate,2021-09-26T17:56:27-04:00*
G04 #@! TF.ProjectId,bottom_case,626f7474-6f6d-45f6-9361-73652e6b6963,rev?*
G04 #@! TF.SameCoordinates,Original*
G04 #@! TF.FileFunction,Profile,NP*
%FSLAX46Y46*%
G04 Gerber Fmt 4.6, Leading zero omitted, Abs format (unit mm)*
G04 Created by KiCad (PCBNEW (5.1.4)-1) date 2021-09-26 17:56:27*
%MOMM*%
%LPD*%
G04 APERTURE LIST*
%ADD10C,0.050000*%
G04 APERTURE END LIST*
D10*
X109250000Y-16131214D02*
X121521925Y-16131214D01*
X109250000Y2687588D02*
X109250000Y-16131214D01*
X102900000Y9037588D02*
G75*
G02X109250000Y2687588I0J-6350000D01*
G01*
X90208101Y9037588D02*
X102900000Y9037588D01*
X90208101Y9037588D02*
G75*
G02X86015119Y10618794I0J6350000D01*
G01*
X81822136Y12199999D02*
G75*
G02X86015119Y10618794I1J-6350000D01*
G01*
X73551416Y12200000D02*
X81822137Y12200000D01*
X73551417Y12199999D02*
G75*
G02X68693180Y14460984I-1J6350001D01*
G01*
X67449172Y15939015D02*
X68693180Y14460984D01*
X62590936Y18200000D02*
G75*
G02X67449172Y15939015I0J-6350000D01*
G01*
X51527862Y18200000D02*
X62590936Y18200000D01*
X47060127Y16362411D02*
G75*
G02X51527862Y18200000I4467735J-4512412D01*
G01*
X45722058Y15037588D02*
X47060128Y16362411D01*
X45722057Y15037589D02*
G75*
G02X41254324Y13200000I-4467733J4512410D01*
G01*
X32020002Y13200000D02*
X41254324Y13200000D01*
X28776832Y12309336D02*
G75*
G02X32020002Y13200000I3243170J-5459336D01*
G01*
X26725401Y11090664D02*
X28776832Y12309335D01*
X26725400Y11090664D02*
G75*
G02X23482231Y10200000I-3243169J5459335D01*
G01*
X-3650000Y10200000D02*
X23482231Y10200000D01*
X-9221925Y6895677D02*
G75*
G02X-3650000Y10200000I5571925J-3045677D01*
G01*
X-9904047Y-80749721D02*
X-9221925Y6895677D01*
X-3650001Y-85999999D02*
G75*
G02X-9904047Y-80749721I1J6349999D01*
G01*
X25129997Y-86000000D02*
X-3650000Y-86000000D01*
X28373167Y-85109336D02*
G75*
G02X25129997Y-86000000I-3243170J5459337D01*
G01*
X30424598Y-83890664D02*
X28373167Y-85109335D01*
X30424598Y-83890664D02*
G75*
G02X33667768Y-83000000I3243170J-5459336D01*
G01*
X43722137Y-83000000D02*
X33667768Y-83000000D01*
X48189872Y-81162411D02*
G75*
G02X43722137Y-83000000I-4467735J4512412D01*
G01*
X49527941Y-79837588D02*
X48189871Y-81162411D01*
X49527942Y-79837589D02*
G75*
G02X53995675Y-78000000I4467733J-4512410D01*
G01*
X59798583Y-78000000D02*
X53995675Y-78000000D01*
X59798582Y-77999999D02*
G75*
G02X64656819Y-80260984I1J-6350001D01*
G01*
X65900827Y-81739015D02*
X64656819Y-80260984D01*
X70759064Y-84000000D02*
G75*
G02X65900827Y-81739015I-1J6350001D01*
G01*
X79354324Y-84000000D02*
X70759063Y-84000000D01*
X79354324Y-83999999D02*
G75*
G02X83822058Y-85837588I0J-6350001D01*
G01*
X85160128Y-87162411D02*
X83822058Y-85837588D01*
X89627862Y-89000000D02*
G75*
G02X85160128Y-87162411I0J6350000D01*
G01*
X100403071Y-89000000D02*
X89627862Y-89000000D01*
X105772724Y-86039592D02*
G75*
G02X100403071Y-89000000I-5369653J3389593D01*
G01*
X107085208Y-83960407D02*
X105772723Y-86039592D01*
X107085208Y-83960407D02*
G75*
G02X112454860Y-81000000I5369652J-3389593D01*
G01*
X117950000Y-81000000D02*
X112454860Y-81000000D01*
X123521925Y-77695677D02*
G75*
G02X117950000Y-81000000I-5571925J3045677D01*
G01*
X123521926Y-77695677D02*
G75*
G02X124300000Y-76577042I5571924J-3045677D01*
G01*
X124300000Y-58060627D02*
X124300000Y-76577042D01*
X124300000Y-49232858D02*
X124300000Y-58060627D01*
X124300000Y-15422957D02*
X124300000Y-49232858D01*
X124179530Y-15280082D02*
X124300000Y-15422957D01*
X121521923Y-16131214D02*
G75*
G02X124179530Y-15280082I1496743J-98814D01*
G01*
M02*
