G04 #@! TF.GenerationSoftware,KiCad,Pcbnew,(5.1.4)-1*
G04 #@! TF.CreationDate,2021-09-26T17:56:27-04:00*
G04 #@! TF.ProjectId,bottom_case,626f7474-6f6d-45f6-9361-73652e6b6963,rev?*
G04 #@! TF.SameCoordinates,Original*
G04 #@! TF.FileFunction,Copper,L2,Bot*
G04 #@! TF.FilePolarity,Positive*
%FSLAX46Y46*%
G04 Gerber Fmt 4.6, Leading zero omitted, Abs format (unit mm)*
G04 Created by KiCad (PCBNEW (5.1.4)-1) date 2021-09-26 17:56:27*
%MOMM*%
%LPD*%
G04 APERTURE LIST*
%ADD10C,0.254000*%
G04 APERTURE END LIST*
D10*
G36*
X63480727Y17467932D02*
G01*
X64348614Y17259570D01*
X65173211Y16918011D01*
X65934235Y16451655D01*
X66621924Y15864313D01*
X66953349Y15503172D01*
X68209105Y14011181D01*
X68219251Y14001284D01*
X68575021Y13613615D01*
X68604332Y13586323D01*
X68632652Y13558003D01*
X69390344Y12910873D01*
X69474132Y12849998D01*
X69474136Y12849996D01*
X70323728Y12329365D01*
X70416006Y12282346D01*
X71336589Y11901029D01*
X71403082Y11879425D01*
X71435085Y11869026D01*
X72403984Y11636414D01*
X72506275Y11620213D01*
X73493219Y11542539D01*
X73518997Y11540000D01*
X81796197Y11540000D01*
X82711927Y11467931D01*
X83579809Y11259571D01*
X84404414Y10918009D01*
X85174506Y10446097D01*
X85602802Y10103435D01*
X86063348Y9734971D01*
X86097448Y9711830D01*
X86130816Y9687587D01*
X86980412Y9166954D01*
X87072691Y9119936D01*
X87072698Y9119934D01*
X87993272Y8738619D01*
X88091769Y8706615D01*
X89060668Y8474003D01*
X89162959Y8457802D01*
X90149858Y8380131D01*
X90175682Y8377588D01*
X102874074Y8377588D01*
X103789791Y8305520D01*
X104657678Y8097158D01*
X105482275Y7755599D01*
X106243299Y7289243D01*
X106921994Y6709582D01*
X107501655Y6030887D01*
X107968009Y5269868D01*
X108309570Y4445266D01*
X108517931Y3577381D01*
X108590000Y2661662D01*
X108590001Y-16098785D01*
X108586807Y-16131214D01*
X108599550Y-16260597D01*
X108637290Y-16385007D01*
X108698575Y-16499664D01*
X108781052Y-16600162D01*
X108881550Y-16682639D01*
X108996207Y-16743924D01*
X109120617Y-16781664D01*
X109217581Y-16791214D01*
X109250000Y-16794407D01*
X109282419Y-16791214D01*
X121554344Y-16791214D01*
X121651308Y-16781664D01*
X121775718Y-16743924D01*
X121890375Y-16682639D01*
X121990873Y-16600162D01*
X122073350Y-16499664D01*
X122134635Y-16385007D01*
X122172375Y-16260597D01*
X122176629Y-16217401D01*
X122210258Y-16013760D01*
X122267660Y-15860860D01*
X122353668Y-15722019D01*
X122465005Y-15602530D01*
X122597434Y-15506938D01*
X122745902Y-15438893D01*
X122904767Y-15400979D01*
X123067958Y-15394645D01*
X123229284Y-15420130D01*
X123382585Y-15476464D01*
X123522020Y-15561500D01*
X123640000Y-15669902D01*
X123640001Y-49200430D01*
X123640000Y-49200440D01*
X123640001Y-58028199D01*
X123640000Y-58028209D01*
X123640001Y-76341240D01*
X123556391Y-76443315D01*
X123536135Y-76472437D01*
X123514466Y-76500513D01*
X122969418Y-77334657D01*
X122452783Y-78125318D01*
X121853689Y-78786918D01*
X121158469Y-79346659D01*
X120384248Y-79790750D01*
X119550091Y-80108259D01*
X118671816Y-80292355D01*
X117928860Y-80340000D01*
X112422441Y-80340000D01*
X112411714Y-80341057D01*
X112019371Y-80353859D01*
X111982920Y-80357928D01*
X111946330Y-80360318D01*
X110960181Y-80503088D01*
X110859164Y-80525923D01*
X109907489Y-80821204D01*
X109838157Y-80848848D01*
X109811288Y-80859561D01*
X108917523Y-81300082D01*
X108869658Y-81328545D01*
X108828507Y-81353015D01*
X108014667Y-81927922D01*
X108014658Y-81927927D01*
X107935018Y-81994135D01*
X107221125Y-82689283D01*
X107152822Y-82767134D01*
X106560335Y-83560219D01*
X106544407Y-83580689D01*
X105228457Y-85665365D01*
X104678712Y-86401236D01*
X104039245Y-87023914D01*
X103310249Y-87538886D01*
X102509666Y-87933478D01*
X101657209Y-88197974D01*
X100758812Y-88328041D01*
X100392303Y-88340000D01*
X89653788Y-88340000D01*
X88738069Y-88267931D01*
X87870184Y-88059570D01*
X87045582Y-87718009D01*
X86283856Y-87251221D01*
X85606642Y-86675733D01*
X84263383Y-85345773D01*
X84243907Y-85329951D01*
X83514147Y-84709809D01*
X83472976Y-84680053D01*
X83431610Y-84649999D01*
X82582013Y-84129365D01*
X82489734Y-84082347D01*
X82489727Y-84082345D01*
X81569153Y-83701030D01*
X81470656Y-83669026D01*
X81470653Y-83669026D01*
X80501757Y-83436414D01*
X80399466Y-83420213D01*
X79412517Y-83342538D01*
X79386743Y-83340000D01*
X70784990Y-83340000D01*
X69869271Y-83267931D01*
X69001386Y-83059570D01*
X68176779Y-82718007D01*
X67415768Y-82251658D01*
X66728072Y-81664310D01*
X66396660Y-81303183D01*
X65140893Y-79811182D01*
X65130756Y-79801293D01*
X64774978Y-79413615D01*
X64745672Y-79386329D01*
X64717347Y-79358003D01*
X63959655Y-78710873D01*
X63875868Y-78649999D01*
X63026271Y-78129365D01*
X62933993Y-78082347D01*
X62013411Y-77701029D01*
X61914913Y-77669026D01*
X60946015Y-77436414D01*
X60843724Y-77420213D01*
X59856780Y-77342539D01*
X59831002Y-77340000D01*
X53963256Y-77340000D01*
X53938262Y-77342462D01*
X52983385Y-77415223D01*
X52933223Y-77423040D01*
X52882651Y-77430792D01*
X51912608Y-77658581D01*
X51813952Y-77690095D01*
X50891485Y-78066828D01*
X50798975Y-78113386D01*
X49946799Y-78629786D01*
X49862710Y-78690243D01*
X49106809Y-79329367D01*
X49086615Y-79345773D01*
X47743940Y-80675156D01*
X47042506Y-81268229D01*
X46279171Y-81730794D01*
X45452882Y-82068248D01*
X44583163Y-82272478D01*
X43697031Y-82340000D01*
X33635349Y-82340000D01*
X33624698Y-82341049D01*
X33235188Y-82353674D01*
X33198800Y-82357728D01*
X33162288Y-82360097D01*
X32176077Y-82502437D01*
X32075049Y-82525228D01*
X31123246Y-82820094D01*
X31036317Y-82854710D01*
X31027028Y-82858409D01*
X30138858Y-83295690D01*
X30115385Y-83306680D01*
X28058373Y-84528666D01*
X27234288Y-84934396D01*
X26381713Y-85198521D01*
X25483192Y-85328205D01*
X25119291Y-85340000D01*
X-3624062Y-85340000D01*
X-4539794Y-85267930D01*
X-5407677Y-85059570D01*
X-6232282Y-84718007D01*
X-6993300Y-84251654D01*
X-7671994Y-83671993D01*
X-8251657Y-82993296D01*
X-8718008Y-82232278D01*
X-9060648Y-81405070D01*
X-9243417Y-80671289D01*
X-8563453Y6696826D01*
X-8152780Y7325321D01*
X-7553689Y7986918D01*
X-6858471Y8546657D01*
X-6084248Y8990751D01*
X-5250091Y9308259D01*
X-4371816Y9492355D01*
X-3628860Y9540000D01*
X23514650Y9540000D01*
X23525301Y9541049D01*
X23914811Y9553674D01*
X23951198Y9557728D01*
X23987712Y9560097D01*
X24973922Y9702438D01*
X25074950Y9725229D01*
X25074954Y9725230D01*
X26026751Y10020094D01*
X26122969Y10058409D01*
X27011121Y10495681D01*
X27034614Y10506680D01*
X29091641Y11728674D01*
X29915711Y12134396D01*
X30768286Y12398521D01*
X31666806Y12528205D01*
X32030708Y12540000D01*
X41286743Y12540000D01*
X41311741Y12542462D01*
X42266614Y12615223D01*
X42316776Y12623040D01*
X42367347Y12630792D01*
X43337391Y12858581D01*
X43412162Y12882466D01*
X43436047Y12890095D01*
X44358513Y13266828D01*
X44451024Y13313386D01*
X45303200Y13829786D01*
X45387289Y13890243D01*
X45387295Y13890249D01*
X46143244Y14529412D01*
X46163383Y14545773D01*
X47506071Y15875167D01*
X48207499Y16468233D01*
X48970828Y16930794D01*
X49797115Y17268247D01*
X50666836Y17472478D01*
X51552968Y17540000D01*
X62565010Y17540000D01*
X63480727Y17467932D01*
X63480727Y17467932D01*
G37*
X63480727Y17467932D02*
X64348614Y17259570D01*
X65173211Y16918011D01*
X65934235Y16451655D01*
X66621924Y15864313D01*
X66953349Y15503172D01*
X68209105Y14011181D01*
X68219251Y14001284D01*
X68575021Y13613615D01*
X68604332Y13586323D01*
X68632652Y13558003D01*
X69390344Y12910873D01*
X69474132Y12849998D01*
X69474136Y12849996D01*
X70323728Y12329365D01*
X70416006Y12282346D01*
X71336589Y11901029D01*
X71403082Y11879425D01*
X71435085Y11869026D01*
X72403984Y11636414D01*
X72506275Y11620213D01*
X73493219Y11542539D01*
X73518997Y11540000D01*
X81796197Y11540000D01*
X82711927Y11467931D01*
X83579809Y11259571D01*
X84404414Y10918009D01*
X85174506Y10446097D01*
X85602802Y10103435D01*
X86063348Y9734971D01*
X86097448Y9711830D01*
X86130816Y9687587D01*
X86980412Y9166954D01*
X87072691Y9119936D01*
X87072698Y9119934D01*
X87993272Y8738619D01*
X88091769Y8706615D01*
X89060668Y8474003D01*
X89162959Y8457802D01*
X90149858Y8380131D01*
X90175682Y8377588D01*
X102874074Y8377588D01*
X103789791Y8305520D01*
X104657678Y8097158D01*
X105482275Y7755599D01*
X106243299Y7289243D01*
X106921994Y6709582D01*
X107501655Y6030887D01*
X107968009Y5269868D01*
X108309570Y4445266D01*
X108517931Y3577381D01*
X108590000Y2661662D01*
X108590001Y-16098785D01*
X108586807Y-16131214D01*
X108599550Y-16260597D01*
X108637290Y-16385007D01*
X108698575Y-16499664D01*
X108781052Y-16600162D01*
X108881550Y-16682639D01*
X108996207Y-16743924D01*
X109120617Y-16781664D01*
X109217581Y-16791214D01*
X109250000Y-16794407D01*
X109282419Y-16791214D01*
X121554344Y-16791214D01*
X121651308Y-16781664D01*
X121775718Y-16743924D01*
X121890375Y-16682639D01*
X121990873Y-16600162D01*
X122073350Y-16499664D01*
X122134635Y-16385007D01*
X122172375Y-16260597D01*
X122176629Y-16217401D01*
X122210258Y-16013760D01*
X122267660Y-15860860D01*
X122353668Y-15722019D01*
X122465005Y-15602530D01*
X122597434Y-15506938D01*
X122745902Y-15438893D01*
X122904767Y-15400979D01*
X123067958Y-15394645D01*
X123229284Y-15420130D01*
X123382585Y-15476464D01*
X123522020Y-15561500D01*
X123640000Y-15669902D01*
X123640001Y-49200430D01*
X123640000Y-49200440D01*
X123640001Y-58028199D01*
X123640000Y-58028209D01*
X123640001Y-76341240D01*
X123556391Y-76443315D01*
X123536135Y-76472437D01*
X123514466Y-76500513D01*
X122969418Y-77334657D01*
X122452783Y-78125318D01*
X121853689Y-78786918D01*
X121158469Y-79346659D01*
X120384248Y-79790750D01*
X119550091Y-80108259D01*
X118671816Y-80292355D01*
X117928860Y-80340000D01*
X112422441Y-80340000D01*
X112411714Y-80341057D01*
X112019371Y-80353859D01*
X111982920Y-80357928D01*
X111946330Y-80360318D01*
X110960181Y-80503088D01*
X110859164Y-80525923D01*
X109907489Y-80821204D01*
X109838157Y-80848848D01*
X109811288Y-80859561D01*
X108917523Y-81300082D01*
X108869658Y-81328545D01*
X108828507Y-81353015D01*
X108014667Y-81927922D01*
X108014658Y-81927927D01*
X107935018Y-81994135D01*
X107221125Y-82689283D01*
X107152822Y-82767134D01*
X106560335Y-83560219D01*
X106544407Y-83580689D01*
X105228457Y-85665365D01*
X104678712Y-86401236D01*
X104039245Y-87023914D01*
X103310249Y-87538886D01*
X102509666Y-87933478D01*
X101657209Y-88197974D01*
X100758812Y-88328041D01*
X100392303Y-88340000D01*
X89653788Y-88340000D01*
X88738069Y-88267931D01*
X87870184Y-88059570D01*
X87045582Y-87718009D01*
X86283856Y-87251221D01*
X85606642Y-86675733D01*
X84263383Y-85345773D01*
X84243907Y-85329951D01*
X83514147Y-84709809D01*
X83472976Y-84680053D01*
X83431610Y-84649999D01*
X82582013Y-84129365D01*
X82489734Y-84082347D01*
X82489727Y-84082345D01*
X81569153Y-83701030D01*
X81470656Y-83669026D01*
X81470653Y-83669026D01*
X80501757Y-83436414D01*
X80399466Y-83420213D01*
X79412517Y-83342538D01*
X79386743Y-83340000D01*
X70784990Y-83340000D01*
X69869271Y-83267931D01*
X69001386Y-83059570D01*
X68176779Y-82718007D01*
X67415768Y-82251658D01*
X66728072Y-81664310D01*
X66396660Y-81303183D01*
X65140893Y-79811182D01*
X65130756Y-79801293D01*
X64774978Y-79413615D01*
X64745672Y-79386329D01*
X64717347Y-79358003D01*
X63959655Y-78710873D01*
X63875868Y-78649999D01*
X63026271Y-78129365D01*
X62933993Y-78082347D01*
X62013411Y-77701029D01*
X61914913Y-77669026D01*
X60946015Y-77436414D01*
X60843724Y-77420213D01*
X59856780Y-77342539D01*
X59831002Y-77340000D01*
X53963256Y-77340000D01*
X53938262Y-77342462D01*
X52983385Y-77415223D01*
X52933223Y-77423040D01*
X52882651Y-77430792D01*
X51912608Y-77658581D01*
X51813952Y-77690095D01*
X50891485Y-78066828D01*
X50798975Y-78113386D01*
X49946799Y-78629786D01*
X49862710Y-78690243D01*
X49106809Y-79329367D01*
X49086615Y-79345773D01*
X47743940Y-80675156D01*
X47042506Y-81268229D01*
X46279171Y-81730794D01*
X45452882Y-82068248D01*
X44583163Y-82272478D01*
X43697031Y-82340000D01*
X33635349Y-82340000D01*
X33624698Y-82341049D01*
X33235188Y-82353674D01*
X33198800Y-82357728D01*
X33162288Y-82360097D01*
X32176077Y-82502437D01*
X32075049Y-82525228D01*
X31123246Y-82820094D01*
X31036317Y-82854710D01*
X31027028Y-82858409D01*
X30138858Y-83295690D01*
X30115385Y-83306680D01*
X28058373Y-84528666D01*
X27234288Y-84934396D01*
X26381713Y-85198521D01*
X25483192Y-85328205D01*
X25119291Y-85340000D01*
X-3624062Y-85340000D01*
X-4539794Y-85267930D01*
X-5407677Y-85059570D01*
X-6232282Y-84718007D01*
X-6993300Y-84251654D01*
X-7671994Y-83671993D01*
X-8251657Y-82993296D01*
X-8718008Y-82232278D01*
X-9060648Y-81405070D01*
X-9243417Y-80671289D01*
X-8563453Y6696826D01*
X-8152780Y7325321D01*
X-7553689Y7986918D01*
X-6858471Y8546657D01*
X-6084248Y8990751D01*
X-5250091Y9308259D01*
X-4371816Y9492355D01*
X-3628860Y9540000D01*
X23514650Y9540000D01*
X23525301Y9541049D01*
X23914811Y9553674D01*
X23951198Y9557728D01*
X23987712Y9560097D01*
X24973922Y9702438D01*
X25074950Y9725229D01*
X25074954Y9725230D01*
X26026751Y10020094D01*
X26122969Y10058409D01*
X27011121Y10495681D01*
X27034614Y10506680D01*
X29091641Y11728674D01*
X29915711Y12134396D01*
X30768286Y12398521D01*
X31666806Y12528205D01*
X32030708Y12540000D01*
X41286743Y12540000D01*
X41311741Y12542462D01*
X42266614Y12615223D01*
X42316776Y12623040D01*
X42367347Y12630792D01*
X43337391Y12858581D01*
X43412162Y12882466D01*
X43436047Y12890095D01*
X44358513Y13266828D01*
X44451024Y13313386D01*
X45303200Y13829786D01*
X45387289Y13890243D01*
X45387295Y13890249D01*
X46143244Y14529412D01*
X46163383Y14545773D01*
X47506071Y15875167D01*
X48207499Y16468233D01*
X48970828Y16930794D01*
X49797115Y17268247D01*
X50666836Y17472478D01*
X51552968Y17540000D01*
X62565010Y17540000D01*
X63480727Y17467932D01*
M02*
