999
dxfrw 0.6.3
  0
SECTION
  2
HEADER
  9
$ACADVER
  1
AC1021
  9
$DWGCODEPAGE
  3
ANSI_1252
  9
$INSBASE
 10
0
 20
0
 30
0
  9
$EXTMIN
 10
-12.63064813162055
 20
-14.89514162213083
 30
0
  9
$EXTMAX
 10
126.1809560371747
 20
95.98219815408351
 30
0
  9
$LIMMIN
 10
0
 20
0
  9
$LIMMAX
 10
420
 20
297
  9
$ORTHOMODE
 70
    0
  9
$REGENMODE
 70
    1
  9
$FILLMODE
 70
    1
  9
$QTEXTMODE
 70
    0
  9
$MIRRTEXT
 70
    0
  9
$LTSCALE
 40
1
  9
$ATTMODE
 70
    0
  9
$TEXTSIZE
 40
2.5
  9
$TRACEWID
 40
15.68
  9
$TEXTSTYLE
  7
STANDARD
  9
$CLAYER
  8
0
  9
$CELTYPE
  6
BYLAYER
  9
$CECOLOR
 62
  256
  9
$CELTSCALE
 40
1
  9
$DISPSILH
 70
    0
  9
$DIMSCALE
 40
2.5
  9
$DIMASZ
 40
2.5
  9
$DIMEXO
 40
0.625
  9
$DIMDLI
 40
3.75
  9
$DIMRND
 40
0
  9
$DIMDLE
 40
0
  9
$DIMEXE
 40
1.25
  9
$DIMTP
 40
0
  9
$DIMTM
 40
0
  9
$DIMTXT
 40
2.5
  9
$DIMCEN
 40
2.5
  9
$DIMTSZ
 40
0
  9
$DIMTOL
 70
    0
  9
$DIMLIM
 70
    0
  9
$DIMTIH
 70
    0
  9
$DIMTOH
 70
    0
  9
$DIMSE1
 70
    0
  9
$DIMSE2
 70
    0
  9
$DIMTAD
 70
    1
  9
$DIMZIN
 70
    8
  9
$DIMBLK
  1

  9
$DIMASO
 70
    1
  9
$DIMSHO
 70
    1
  9
$DIMPOST
  1

  9
$DIMAPOST
  1

  9
$DIMALT
 70
    0
  9
$DIMALTD
 70
    3
  9
$DIMALTF
 40
0.03937
  9
$DIMLFAC
 40
1
  9
$DIMTOFL
 70
    1
  9
$DIMTVP
 40
0
  9
$DIMTIX
 70
    0
  9
$DIMSOXD
 70
    0
  9
$DIMSAH
 70
    0
  9
$DIMBLK1
  1

  9
$DIMBLK2
  1

  9
$DIMSTYLE
  2
Standard
  9
$DIMCLRD
 70
    0
  9
$DIMCLRE
 70
    0
  9
$DIMCLRT
 70
    0
  9
$DIMTFAC
 40
1
  9
$DIMGAP
 40
0.625
  9
$DIMJUST
 70
    0
  9
$DIMSD1
 70
    0
  9
$DIMSD2
 70
    0
  9
$DIMTOLJ
 70
    0
  9
$DIMTZIN
 70
    8
  9
$DIMALTZ
 70
    0
  9
$DIMALTTZ
 70
    0
  9
$DIMUPT
 70
    0
  9
$DIMDEC
 70
    2
  9
$DIMTDEC
 70
    2
  9
$DIMALTU
 70
    2
  9
$DIMALTTD
 70
    3
  9
$DIMTXSTY
  7
STANDARD
  9
$DIMAUNIT
 70
    0
  9
$DIMADEC
 70
    0
  9
$DIMALTRND
 40
0
  9
$DIMAZIN
 70
    0
  9
$DIMDSEP
 70
   44
  9
$DIMATFIT
 70
    3
  9
$DIMFRAC
 70
    0
  9
$DIMLDRBLK
  1
STANDARD
  9
$DIMLUNIT
 70
    2
  9
$DIMLWD
 70
   -2
  9
$DIMLWE
 70
   -2
  9
$DIMTMOVE
 70
    0
  9
$DIMFXL
 40
1
  9
$DIMFXLON
 70
    0
  9
$DIMJOGANG
 40
0.7854
  9
$DIMTFILL
 70
    0
  9
$DIMTFILLCLR
 70
    0
  9
$DIMARCSYM
 70
    0
  9
$DIMLTYPE
  6

  9
$DIMLTEX1
  6

  9
$DIMLTEX2
  6

  9
$LUNITS
 70
    2
  9
$LUPREC
 70
    4
  9
$SKETCHINC
 40
1
  9
$FILLETRAD
 40
0
  9
$AUNITS
 70
    0
  9
$AUPREC
 70
    2
  9
$MENU
  1
.
  9
$ELEVATION
 40
0
  9
$PELEVATION
 40
0
  9
$THICKNESS
 40
0
  9
$LIMCHECK
 70
    0
  9
$CHAMFERA
 40
0
  9
$CHAMFERB
 40
0
  9
$CHAMFERC
 40
0
  9
$CHAMFERD
 40
0
  9
$SKPOLY
 70
    0
  9
$USRTIMER
 70
    1
  9
$ANGBASE
 50
0
  9
$ANGDIR
 70
    0
  9
$PDMODE
 70
   34
  9
$PDSIZE
 40
0
  9
$PLINEWID
 40
0
  9
$SPLFRAME
 70
    0
  9
$SPLINETYPE
 70
    2
  9
$SPLINESEGS
 70
    8
  9
$HANDSEED
  5
20000
  9
$SURFTAB1
 70
    6
  9
$SURFTAB2
 70
    6
  9
$SURFTYPE
 70
    6
  9
$SURFU
 70
    6
  9
$SURFV
 70
    6
  9
$UCSBASE
  2

  9
$UCSNAME
  2

  9
$UCSORG
 10
0
 20
0
 30
0
  9
$UCSXDIR
 10
1
 20
0
 30
0
  9
$UCSYDIR
 10
0
 20
1
 30
0
  9
$UCSORTHOREF
  2

  9
$UCSORTHOVIEW
 70
    0
  9
$UCSORGTOP
 10
0
 20
0
 30
0
  9
$UCSORGBOTTOM
 10
0
 20
0
 30
0
  9
$UCSORGLEFT
 10
0
 20
0
 30
0
  9
$UCSORGRIGHT
 10
0
 20
0
 30
0
  9
$UCSORGFRONT
 10
0
 20
0
 30
0
  9
$UCSORGBACK
 10
0
 20
0
 30
0
  9
$PUCSBASE
  2

  9
$PUCSNAME
  2

  9
$PUCSORG
 10
0
 20
0
 30
0
  9
$PUCSXDIR
 10
1
 20
0
 30
0
  9
$PUCSYDIR
 10
0
 20
1
 30
0
  9
$PUCSORTHOREF
  2

  9
$PUCSORTHOVIEW
 70
    0
  9
$PUCSORGTOP
 10
0
 20
0
 30
0
  9
$PUCSORGBOTTOM
 10
0
 20
0
 30
0
  9
$PUCSORGLEFT
 10
0
 20
0
 30
0
  9
$PUCSORGRIGHT
 10
0
 20
0
 30
0
  9
$PUCSORGFRONT
 10
0
 20
0
 30
0
  9
$PUCSORGBACK
 10
0
 20
0
 30
0
  9
$USERI1
 70
    0
  9
$USERI2
 70
    0
  9
$USERI3
 70
    0
  9
$USERI4
 70
    0
  9
$USERI5
 70
    0
  9
$USERR1
 40
0
  9
$USERR2
 40
0
  9
$USERR3
 40
0
  9
$USERR4
 40
0
  9
$USERR5
 40
0
  9
$WORLDVIEW
 70
    1
  9
$SHADEDGE
 70
    3
  9
$SHADEDIF
 70
   70
  9
$TILEMODE
 70
    1
  9
$MAXACTVP
 70
   64
  9
$PINSBASE
 10
0
 20
0
 30
0
  9
$PLIMCHECK
 70
    0
  9
$PEXTMIN
 10
0
 20
0
 30
0
  9
$PEXTMAX
 10
0
 20
0
 30
0
  9
$SNAPSTYLE
 70
    0
  9
$PLIMMIN
 10
0
 20
0
  9
$PLIMMAX
 10
210
 20
297
  9
$UNITMODE
 70
    0
  9
$VISRETAIN
 70
    1
  9
$PLINEGEN
 70
    0
  9
$PSLTSCALE
 70
    1
  9
$TREEDEPTH
 70
 3020
  9
$CMLSTYLE
  2
Standard
  9
$CMLJUST
 70
    0
  9
$CMLSCALE
 40
20
  9
$PROXYGRAPHICS
 70
    1
  9
$MEASUREMENT
 70
    1
  9
$CELWEIGHT
370
   -1
  9
$ENDCAPS
280
    0
  9
$JOINSTYLE
280
    0
  9
$LWDISPLAY
290
    0
  9
$INSUNITS
 70
    4
  9
$HYPERLINKBASE
  1

  9
$STYLESHEET
  1

  9
$XEDIT
290
    1
  9
$CEPSNTYPE
380
    0
  9
$PSTYLEMODE
290
    1
  9
$EXTNAMES
290
    1
  9
$PSVPSCALE
 40
1
  9
$OLESTARTUP
290
    0
  9
$SORTENTS
280
  127
  9
$INDEXCTL
280
    0
  9
$HIDETEXT
280
    1
  9
$XCLIPFRAME
290
    0
  9
$HALOGAP
280
    0
  9
$OBSCOLOR
 70
  257
  9
$OBSLTYPE
280
    0
  9
$INTERSECTIONDISPLAY
280
    0
  9
$INTERSECTIONCOLOR
 70
  257
  9
$DIMASSOC
280
    1
  9
$PROJECTNAME
  1

  9
$CAMERADISPLAY
290
    0
  9
$LENSLENGTH
 40
50
  9
$CAMERAHEIGHT
 40
0
  9
$STEPSPERSEC
 40
2
  9
$STEPSIZE
 40
50
  9
$3DDWFPREC
 40
2
  9
$PSOLWIDTH
 40
5
  9
$PSOLHEIGHT
 40
80
  9
$LOFTANG1
 40
1.570796326794897
  9
$LOFTANG2
 40
1.570796326794897
  9
$LOFTMAG1
 40
0
  9
$LOFTMAG2
 40
0
  9
$LOFTPARAM
 70
    7
  9
$LOFTNORMALS
280
    1
  9
$LATITUDE
 40
1
  9
$LONGITUDE
 40
1
  9
$NORTHDIRECTION
 40
0
  9
$TIMEZONE
 70
-8000
  9
$LIGHTGLYPHDISPLAY
280
    1
  9
$TILEMODELIGHTSYNCH
280
    1
  9
$SOLIDHIST
280
    1
  9
$SHOWHIST
280
    1
  9
$DWFFRAME
280
    2
  9
$DGNFRAME
280
    0
  9
$REALWORLDSCALE
290
    1
  9
$INTERFERECOLOR
 62
    1
  9
$CSHADOW
280
    0
  9
$SHADOWPLANELOCATION
 40
0
  0
ENDSEC
  0
SECTION
  2
CLASSES
  0
ENDSEC
  0
SECTION
  2
TABLES
  0
TABLE
  2
VPORT
  5
8
330
0
100
AcDbSymbolTable
 70
    1
  0
VPORT
  5
31
330
2
100
AcDbSymbolTableRecord
100
AcDbViewportTableRecord
  2
*ACTIVE
 70
    0
 10
0
 20
0
 11
1
 21
1
 12
157.2849851531629
 22
66.57147845043949
 13
0
 23
0
 14
10
 24
10
 15
10
 25
10
 16
0
 26
0
 36
1
 17
0
 27
0
 37
0
 40
179.9798073521763
 41
2.562865497076023
 42
50
 43
0
 44
0
 50
0
 51
0
 71
    0
 72
  100
 73
    1
 74
    3
 75
    0
 76
    1
 77
    0
 78
    0
281
    0
 65
    1
110
0
120
0
130
0
111
1
121
0
131
0
112
0
122
1
132
0
 79
    0
146
0
348
10020
 60
    7
 61
    5
292
1
282
    1
141
0
142
0
 63
  250
421
3358443
  0
ENDTAB
  0
TABLE
  2
LTYPE
  5
5
330
0
100
AcDbSymbolTable
 70
    4
  0
LTYPE
  5
14
330
5
100
AcDbSymbolTableRecord
100
AcDbLinetypeTableRecord
  2
ByBlock
 70
    0
  3

 72
   65
 73
    0
 40
0
  0
LTYPE
  5
15
330
5
100
AcDbSymbolTableRecord
100
AcDbLinetypeTableRecord
  2
ByLayer
 70
    0
  3

 72
   65
 73
    0
 40
0
  0
LTYPE
  5
16
330
5
100
AcDbSymbolTableRecord
100
AcDbLinetypeTableRecord
  2
Continuous
 70
    0
  3
Solid line
 72
   65
 73
    0
 40
0
  0
LTYPE
  5
32
330
5
100
AcDbSymbolTableRecord
100
AcDbLinetypeTableRecord
  2
DOT
 70
    0
  3
Dot . . . . . . . . . . . . . . . . . . . . . .
 72
   65
 73
    2
 40
6.35
 49
0
 74
    0
 49
-6.35
 74
    0
  0
LTYPE
  5
33
330
5
100
AcDbSymbolTableRecord
100
AcDbLinetypeTableRecord
  2
DOTTINY
 70
    0
  3
Dot (.15x) .....................................
 72
   65
 73
    2
 40
0.9525
 49
0
 74
    0
 49
-0.9525
 74
    0
  0
LTYPE
  5
34
330
5
100
AcDbSymbolTableRecord
100
AcDbLinetypeTableRecord
  2
DOT2
 70
    0
  3
Dot (.5x) .....................................
 72
   65
 73
    2
 40
3.175
 49
0
 74
    0
 49
-3.175
 74
    0
  0
LTYPE
  5
35
330
5
100
AcDbSymbolTableRecord
100
AcDbLinetypeTableRecord
  2
DOTX2
 70
    0
  3
Dot (2x) .  .  .  .  .  .  .  .  .  .  .  .  .
 72
   65
 73
    2
 40
12.7
 49
0
 74
    0
 49
-12.7
 74
    0
  0
LTYPE
  5
36
330
5
100
AcDbSymbolTableRecord
100
AcDbLinetypeTableRecord
  2
DASHED
 70
    0
  3
Dashed _ _ _ _ _ _ _ _ _ _ _ _ _ _ _ _ _
 72
   65
 73
    2
 40
19.05
 49
12.7
 74
    0
 49
-6.35
 74
    0
  0
LTYPE
  5
37
330
5
100
AcDbSymbolTableRecord
100
AcDbLinetypeTableRecord
  2
DASHEDTINY
 70
    0
  3
Dashed (.15x) _ _ _ _ _ _ _ _ _ _ _ _ _ _ _ _ _
 72
   65
 73
    2
 40
2.8575
 49
1.905
 74
    0
 49
-0.9525
 74
    0
  0
LTYPE
  5
38
330
5
100
AcDbSymbolTableRecord
100
AcDbLinetypeTableRecord
  2
DASHED2
 70
    0
  3
Dashed (.5x) _ _ _ _ _ _ _ _ _ _ _ _ _ _ _ _ _
 72
   65
 73
    2
 40
9.524999999999999
 49
6.35
 74
    0
 49
-3.175
 74
    0
  0
LTYPE
  5
39
330
5
100
AcDbSymbolTableRecord
100
AcDbLinetypeTableRecord
  2
DASHEDX2
 70
    0
  3
Dashed (2x) ____  ____  ____  ____  ____  ___
 72
   65
 73
    2
 40
38.09999999999999
 49
25.4
 74
    0
 49
-12.7
 74
    0
  0
LTYPE
  5
3A
330
5
100
AcDbSymbolTableRecord
100
AcDbLinetypeTableRecord
  2
DASHDOT
 70
    0
  3
Dash dot __ . __ . __ . __ . __ . __ . __ . __
 72
   65
 73
    4
 40
25.4
 49
12.7
 74
    0
 49
-6.35
 74
    0
 49
0
 74
    0
 49
-6.35
 74
    0
  0
LTYPE
  5
3B
330
5
100
AcDbSymbolTableRecord
100
AcDbLinetypeTableRecord
  2
DASHDOTTINY
 70
    0
  3
Dash dot (.15x) _._._._._._._._._._._._._._._.
 72
   65
 73
    4
 40
3.81
 49
1.905
 74
    0
 49
-0.9525
 74
    0
 49
0
 74
    0
 49
-0.9525
 74
    0
  0
LTYPE
  5
3C
330
5
100
AcDbSymbolTableRecord
100
AcDbLinetypeTableRecord
  2
DASHDOT2
 70
    0
  3
Dash dot (.5x) _._._._._._._._._._._._._._._.
 72
   65
 73
    4
 40
12.7
 49
6.35
 74
    0
 49
-3.175
 74
    0
 49
0
 74
    0
 49
-3.175
 74
    0
  0
LTYPE
  5
3D
330
5
100
AcDbSymbolTableRecord
100
AcDbLinetypeTableRecord
  2
DASHDOTX2
 70
    0
  3
Dash dot (2x) ____  .  ____  .  ____  .  ___
 72
   65
 73
    4
 40
50.8
 49
25.4
 74
    0
 49
-12.7
 74
    0
 49
0
 74
    0
 49
-12.7
 74
    0
  0
LTYPE
  5
3E
330
5
100
AcDbSymbolTableRecord
100
AcDbLinetypeTableRecord
  2
DIVIDE
 70
    0
  3
Divide ____ . . ____ . . ____ . . ____ . . ____
 72
   65
 73
    6
 40
31.75
 49
12.7
 74
    0
 49
-6.35
 74
    0
 49
0
 74
    0
 49
-6.35
 74
    0
 49
0
 74
    0
 49
-6.35
 74
    0
  0
LTYPE
  5
3F
330
5
100
AcDbSymbolTableRecord
100
AcDbLinetypeTableRecord
  2
DIVIDETINY
 70
    0
  3
Divide (.15x) __..__..__..__..__..__..__..__.._
 72
   65
 73
    6
 40
4.7625
 49
1.905
 74
    0
 49
-0.9525
 74
    0
 49
0
 74
    0
 49
-0.9525
 74
    0
 49
0
 74
    0
 49
-0.9525
 74
    0
  0
LTYPE
  5
40
330
5
100
AcDbSymbolTableRecord
100
AcDbLinetypeTableRecord
  2
DIVIDE2
 70
    0
  3
Divide (.5x) __..__..__..__..__..__..__..__.._
 72
   65
 73
    6
 40
15.875
 49
6.35
 74
    0
 49
-3.175
 74
    0
 49
0
 74
    0
 49
-3.175
 74
    0
 49
0
 74
    0
 49
-3.175
 74
    0
  0
LTYPE
  5
41
330
5
100
AcDbSymbolTableRecord
100
AcDbLinetypeTableRecord
  2
DIVIDEX2
 70
    0
  3
Divide (2x) ________  .  .  ________  .  .  _
 72
   65
 73
    6
 40
63.5
 49
25.4
 74
    0
 49
-12.7
 74
    0
 49
0
 74
    0
 49
-12.7
 74
    0
 49
0
 74
    0
 49
-12.7
 74
    0
  0
LTYPE
  5
42
330
5
100
AcDbSymbolTableRecord
100
AcDbLinetypeTableRecord
  2
BORDER
 70
    0
  3
Border __ __ . __ __ . __ __ . __ __ . __ __ .
 72
   65
 73
    6
 40
44.45
 49
12.7
 74
    0
 49
-6.35
 74
    0
 49
12.7
 74
    0
 49
-6.35
 74
    0
 49
0
 74
    0
 49
-6.35
 74
    0
  0
LTYPE
  5
43
330
5
100
AcDbSymbolTableRecord
100
AcDbLinetypeTableRecord
  2
BORDERTINY
 70
    0
  3
Border (.15x) __.__.__.__.__.__.__.__.__.__.__.
 72
   65
 73
    6
 40
6.6675
 49
1.905
 74
    0
 49
-0.9525
 74
    0
 49
1.905
 74
    0
 49
-0.9525
 74
    0
 49
0
 74
    0
 49
-0.9525
 74
    0
  0
LTYPE
  5
44
330
5
100
AcDbSymbolTableRecord
100
AcDbLinetypeTableRecord
  2
BORDER2
 70
    0
  3
Border (.5x) __.__.__.__.__.__.__.__.__.__.__.
 72
   65
 73
    6
 40
22.225
 49
6.35
 74
    0
 49
-3.175
 74
    0
 49
6.35
 74
    0
 49
-3.175
 74
    0
 49
0
 74
    0
 49
-3.175
 74
    0
  0
LTYPE
  5
45
330
5
100
AcDbSymbolTableRecord
100
AcDbLinetypeTableRecord
  2
BORDERX2
 70
    0
  3
Border (2x) ____  ____  .  ____  ____  .  ___
 72
   65
 73
    6
 40
88.89999999999999
 49
25.4
 74
    0
 49
-12.7
 74
    0
 49
25.4
 74
    0
 49
-12.7
 74
    0
 49
0
 74
    0
 49
-12.7
 74
    0
  0
LTYPE
  5
46
330
5
100
AcDbSymbolTableRecord
100
AcDbLinetypeTableRecord
  2
CENTER
 70
    0
  3
Center ____ _ ____ _ ____ _ ____ _ ____ _ ____
 72
   65
 73
    4
 40
50.8
 49
31.75
 74
    0
 49
-6.35
 74
    0
 49
6.35
 74
    0
 49
-6.35
 74
    0
  0
LTYPE
  5
47
330
5
100
AcDbSymbolTableRecord
100
AcDbLinetypeTableRecord
  2
CENTERTINY
 70
    0
  3
Center (.15x) ___ _ ___ _ ___ _ ___ _ ___ _ ___
 72
   65
 73
    4
 40
7.62
 49
4.7625
 74
    0
 49
-0.9525
 74
    0
 49
0.9525
 74
    0
 49
-0.9525
 74
    0
  0
LTYPE
  5
48
330
5
100
AcDbSymbolTableRecord
100
AcDbLinetypeTableRecord
  2
CENTER2
 70
    0
  3
Center (.5x) ___ _ ___ _ ___ _ ___ _ ___ _ ___
 72
   65
 73
    4
 40
28.575
 49
19.05
 74
    0
 49
-3.175
 74
    0
 49
3.175
 74
    0
 49
-3.175
 74
    0
  0
LTYPE
  5
49
330
5
100
AcDbSymbolTableRecord
100
AcDbLinetypeTableRecord
  2
CENTERX2
 70
    0
  3
Center (2x) ________  __  ________  __  _____
 72
   65
 73
    4
 40
101.6
 49
63.5
 74
    0
 49
-12.7
 74
    0
 49
12.7
 74
    0
 49
-12.7
 74
    0
  0
ENDTAB
  0
TABLE
  2
LAYER
  5
2
330
0
100
AcDbSymbolTable
 70
    1
  0
LAYER
  5
10
330
2
100
AcDbSymbolTableRecord
100
AcDbLayerTableRecord
  2
0
 70
    0
 62
    7
  6
CONTINUOUS
370
   -3
390
F
  0
ENDTAB
  0
TABLE
  2
STYLE
  5
3
330
0
100
AcDbSymbolTable
 70
    3
  0
STYLE
  5
4A
330
2
100
AcDbSymbolTableRecord
100
AcDbTextStyleTableRecord
  2
Standard
 70
    0
 40
0
 41
1
 50
0
 71
    0
 42
1
  3
txt
  4

  0
ENDTAB
  0
TABLE
  2
VIEW
  5
6
330
0
100
AcDbSymbolTable
 70
    0
  0
ENDTAB
  0
TABLE
  2
UCS
  5
7
330
0
100
AcDbSymbolTable
 70
    0
  0
ENDTAB
  0
TABLE
  2
APPID
  5
9
330
0
100
AcDbSymbolTable
 70
    1
  0
APPID
  5
12
330
9
100
AcDbSymbolTableRecord
100
AcDbRegAppTableRecord
  2
ACAD
 70
    0
  0
APPID
  5
4B
330
9
100
AcDbSymbolTableRecord
100
AcDbRegAppTableRecord
  2
LibreCad
 70
    0
  0
ENDTAB
  0
TABLE
  2
DIMSTYLE
  5
A
330
0
100
AcDbSymbolTable
 70
    1
100
AcDbDimStyleTable
 71
    1
  0
DIMSTYLE
105
4C
330
A
100
AcDbSymbolTableRecord
100
AcDbDimStyleTableRecord
  2
Standard
 70
    0
 40
1
 41
2.5
 42
0.625
 43
0.38
 44
1.25
 45
0
 46
0
 47
0
 48
0
 49
1
140
2.5
141
0.09
142
2.5
143
25.4
144
1
145
0
146
1
147
0.625
148
0
 71
    0
 72
    0
 73
    0
 74
    1
 75
    0
 76
    0
 77
    0
 78
    1
 79
    0
170
    0
171
    2
172
    0
173
    0
174
    0
175
    0
176
    0
177
    0
178
    0
179
    0
271
    2
272
    4
273
    2
274
    2
275
    0
276
    0
277
    2
278
    0
279
    0
280
    0
281
    0
282
    0
283
    1
284
    0
285
    0
286
    0
288
    0
289
    3
340
standard
341

371
   -2
372
   -2
  0
ENDTAB
  0
TABLE
  2
BLOCK_RECORD
  5
1
330
0
100
AcDbSymbolTable
 70
    2
  0
BLOCK_RECORD
  5
1F
330
1
100
AcDbSymbolTableRecord
100
AcDbBlockTableRecord
  2
*Model_Space
 70
    0
280
    1
281
    0
  0
BLOCK_RECORD
  5
1E
330
1
100
AcDbSymbolTableRecord
100
AcDbBlockTableRecord
  2
*Paper_Space
 70
    0
280
    1
281
    0
  0
ENDTAB
  0
ENDSEC
  0
SECTION
  2
BLOCKS
  0
BLOCK
  5
20
330
1F
100
AcDbEntity
  8
0
100
AcDbBlockBegin
  2
*Model_Space
 70
    0
 10
0
 20
0
 30
0
  3
*Model_Space
  1

  0
ENDBLK
  5
21
330
1F
100
AcDbEntity
  8
0
100
AcDbBlockEnd
  0
BLOCK
  5
1C
330
1B
100
AcDbEntity
  8
0
100
AcDbBlockBegin
  2
*Paper_Space
 70
    0
 10
0
 20
0
 30
0
  3
*Paper_Space
  1

  0
ENDBLK
  5
1D
330
1F
100
AcDbEntity
  8
0
100
AcDbBlockEnd
  0
ENDSEC
  0
SECTION
  2
ENTITIES
  0
LWPOLYLINE
  5
4D
100
AcDbEntity
  8
0
  6
ByLayer
 62
  256
370
   -1
100
AcDbPolyline
 90
   12
 70
    1
 43
0
 10
83.92500000000001
 20
33.78500000000001
 10
83.92500000000001
 20
46.41500000000001
 10
83.125
 20
46.41500000000001
 10
83.125
 20
47.02500000000001
 10
69.27499999999999
 20
47.02500000000001
 10
69.27499999999999
 20
46.41500000000001
 10
68.47500000000002
 20
46.41500000000001
 10
68.47500000000002
 20
33.78500000000001
 10
69.27499999999999
 20
33.78500000000001
 10
69.27499999999999
 20
33.17500000000002
 10
83.125
 20
33.17500000000002
 10
83.125
 20
33.78500000000001
  0
LWPOLYLINE
  5
4E
100
AcDbEntity
  8
0
  6
ByLayer
 62
  256
370
   -1
100
AcDbPolyline
 90
   12
 70
    1
 43
0
 10
83.125
 20
66.07500000000002
 10
69.27499999999999
 20
66.07500000000002
 10
69.27499999999999
 20
65.465
 10
68.47500000000002
 20
65.465
 10
68.47500000000002
 20
52.83500000000001
 10
69.27499999999999
 20
52.83500000000001
 10
69.27499999999999
 20
52.22500000000002
 10
83.125
 20
52.22500000000002
 10
83.125
 20
52.83500000000001
 10
83.92500000000001
 20
52.83500000000001
 10
83.92500000000001
 20
65.465
 10
83.125
 20
65.465
  0
LWPOLYLINE
  5
4F
100
AcDbEntity
  8
0
  6
ByLayer
 62
  256
370
   -1
100
AcDbPolyline
 90
   12
 70
    1
 43
0
 10
87.52500000000001
 20
60.46500000000002
 10
87.52500000000001
 20
47.83500000000002
 10
88.32500000000003
 20
47.83500000000002
 10
88.32500000000003
 20
47.225
 10
102.175
 20
47.225
 10
102.175
 20
47.83500000000002
 10
102.975
 20
47.83500000000002
 10
102.975
 20
60.46500000000002
 10
102.175
 20
60.46500000000002
 10
102.175
 20
61.075
 10
88.32500000000003
 20
61.075
 10
88.32500000000003
 20
60.46500000000002
  0
LWPOLYLINE
  5
50
100
AcDbEntity
  8
0
  6
ByLayer
 62
  256
370
   -1
100
AcDbPolyline
 90
   12
 70
    1
 43
0
 10
31.175
 20
53.68500000000001
 10
31.175
 20
53.075
 10
45.02500000000001
 20
53.075
 10
45.02500000000001
 20
53.68500000000001
 10
45.825
 20
53.68500000000001
 10
45.825
 20
66.31500000000001
 10
45.02500000000001
 20
66.31500000000001
 10
45.02500000000001
 20
66.92500000000001
 10
31.175
 20
66.92500000000001
 10
31.175
 20
66.31500000000001
 10
30.37500000000001
 20
66.31500000000001
 10
30.37500000000001
 20
53.68500000000001
  0
LWPOLYLINE
  5
51
100
AcDbEntity
  8
0
  6
ByLayer
 62
  256
370
   -1
100
AcDbPolyline
 90
   12
 70
    1
 43
0
 10
11.325
 20
63.465
 10
11.325
 20
50.83500000000001
 10
12.125
 20
50.83500000000001
 10
12.125
 20
50.22500000000001
 10
25.975
 20
50.22500000000001
 10
25.975
 20
50.83500000000001
 10
26.775
 20
50.83500000000001
 10
26.775
 20
63.465
 10
25.975
 20
63.465
 10
25.975
 20
64.075
 10
12.125
 20
64.075
 10
12.125
 20
63.465
  0
LWPOLYLINE
  5
52
100
AcDbEntity
  8
0
  6
ByLayer
 62
  256
370
   -1
100
AcDbPolyline
 90
   12
 70
    1
 43
0
 10
49.425
 20
71.46500000000002
 10
49.425
 20
58.83500000000002
 10
50.22500000000002
 20
58.83500000000002
 10
50.22500000000002
 20
58.22499999999999
 10
64.075
 20
58.22499999999999
 10
64.075
 20
58.83500000000002
 10
64.875
 20
58.83500000000002
 10
64.875
 20
71.46500000000002
 10
64.075
 20
71.46500000000002
 10
64.075
 20
72.07499999999999
 10
50.22500000000002
 20
72.07499999999999
 10
50.22500000000002
 20
71.46500000000002
  0
LWPOLYLINE
  5
53
100
AcDbEntity
  8
0
  6
ByLayer
 62
  256
370
   -1
100
AcDbPolyline
 90
   12
 70
    1
 43
0
 10
30.37500000000001
 20
28.315
 10
30.37500000000001
 20
15.685
 10
31.175
 20
15.685
 10
31.175
 20
15.075
 10
45.02500000000001
 20
15.075
 10
45.02500000000001
 20
15.685
 10
45.825
 20
15.685
 10
45.825
 20
28.315
 10
45.02500000000001
 20
28.315
 10
45.02500000000001
 20
28.925
 10
31.175
 20
28.925
 10
31.175
 20
28.315
  0
LWPOLYLINE
  5
54
100
AcDbEntity
  8
0
  6
ByLayer
 62
  256
370
   -1
100
AcDbPolyline
 90
   12
 70
    1
 43
0
 10
102.175
 20
42.025
 10
88.32500000000003
 20
42.025
 10
88.32500000000003
 20
41.41500000000001
 10
87.52500000000001
 20
41.41500000000001
 10
87.52500000000001
 20
28.78500000000001
 10
88.32500000000003
 20
28.78500000000001
 10
88.32500000000003
 20
28.175
 10
102.175
 20
28.175
 10
102.175
 20
28.78500000000001
 10
102.975
 20
28.78500000000001
 10
102.975
 20
41.41500000000001
 10
102.175
 20
41.41500000000001
  0
LWPOLYLINE
  5
55
100
AcDbEntity
  8
0
  6
ByLayer
 62
  256
370
   -1
100
AcDbPolyline
 90
   12
 70
    1
 43
0
 10
45.825
 20
34.68500000000001
 10
45.825
 20
47.315
 10
45.02500000000001
 20
47.315
 10
45.02500000000001
 20
47.925
 10
31.175
 20
47.925
 10
31.175
 20
47.315
 10
30.37500000000001
 20
47.315
 10
30.37500000000001
 20
34.68500000000001
 10
31.175
 20
34.68500000000001
 10
31.175
 20
34.075
 10
45.02500000000001
 20
34.075
 10
45.02500000000001
 20
34.68500000000001
  0
LWPOLYLINE
  5
56
100
AcDbEntity
  8
0
  6
ByLayer
 62
  256
370
   -1
100
AcDbPolyline
 90
   12
 70
    1
 43
0
 10
26.775
 20
31.785
 10
26.775
 20
44.41500000000001
 10
25.975
 20
44.41500000000001
 10
25.975
 20
45.02500000000001
 10
12.125
 20
45.02500000000001
 10
12.125
 20
44.41500000000001
 10
11.325
 20
44.41500000000001
 10
11.325
 20
31.785
 10
12.125
 20
31.785
 10
12.125
 20
31.175
 10
25.975
 20
31.175
 10
25.975
 20
31.785
  0
LWPOLYLINE
  5
57
100
AcDbEntity
  8
0
  6
ByLayer
 62
  256
370
   -1
100
AcDbPolyline
 90
   12
 70
    1
 43
0
 10
64.875
 20
39.78500000000002
 10
64.875
 20
52.41500000000001
 10
64.075
 20
52.41500000000001
 10
64.075
 20
53.02500000000001
 10
50.22500000000002
 20
53.02500000000001
 10
50.22500000000002
 20
52.41500000000001
 10
49.425
 20
52.41500000000001
 10
49.425
 20
39.78500000000002
 10
50.22500000000002
 20
39.78500000000002
 10
50.22500000000002
 20
39.175
 10
64.075
 20
39.175
 10
64.075
 20
39.78500000000002
  0
LWPOLYLINE
  5
58
100
AcDbEntity
  8
0
  6
ByLayer
 62
  256
370
   -1
100
AcDbPolyline
 90
   12
 70
    1
 43
0
 10
26.775
 20
-6.315
 10
26.775
 20
6.315
 10
25.975
 20
6.315
 10
25.975
 20
6.925000000000008
 10
12.125
 20
6.925000000000008
 10
12.125
 20
6.315
 10
11.325
 20
6.315
 10
11.325
 20
-6.315
 10
12.125
 20
-6.315
 10
12.125
 20
-6.924999999999999
 10
25.975
 20
-6.924999999999999
 10
25.975
 20
-6.315
  0
LWPOLYLINE
  5
59
100
AcDbEntity
  8
0
  6
ByLayer
 62
  256
370
   -1
100
AcDbPolyline
 90
   12
 70
    1
 43
0
 10
-7.725
 20
6.315000000000004
 10
-7.724999999999995
 20
-6.314999999999998
 10
-6.924999999999994
 20
-6.315000000000001
 10
-6.924999999999994
 20
-6.924999999999997
 10
6.924999999999999
 20
-6.924999999999997
 10
6.924999999999999
 20
-6.315000000000001
 10
7.725
 20
-6.315000000000001
 10
7.725
 20
6.315000000000001
 10
6.924999999999999
 20
6.315000000000001
 10
6.924999999999999
 20
6.925000000000001
 10
-6.924999999999994
 20
6.925000000000001
 10
-6.924999999999994
 20
6.315000000000001
  0
LWPOLYLINE
  5
5A
100
AcDbEntity
  8
0
  6
ByLayer
 62
  256
370
   -1
100
AcDbPolyline
 90
   12
 70
    1
 43
0
 10
-6.924999999999994
 20
12.12500000000001
 10
6.924999999999999
 20
12.12500000000001
 10
6.924999999999999
 20
12.735
 10
7.725
 20
12.735
 10
7.725
 20
25.365
 10
6.924999999999999
 20
25.365
 10
6.924999999999999
 20
25.97500000000001
 10
-6.924999999999994
 20
25.97500000000001
 10
-6.924999999999994
 20
25.365
 10
-7.725
 20
25.365
 10
-7.724999999999995
 20
12.735
 10
-6.924999999999994
 20
12.735
  0
LWPOLYLINE
  5
5B
100
AcDbEntity
  8
0
  6
ByLayer
 62
  256
370
   -1
100
AcDbPolyline
 90
   12
 70
    1
 43
0
 10
-7.724999999999995
 20
31.785
 10
-6.924999999999994
 20
31.785
 10
-6.924999999999994
 20
31.17500000000001
 10
6.924999999999999
 20
31.17500000000001
 10
6.924999999999999
 20
31.785
 10
7.725
 20
31.785
 10
7.725
 20
44.41500000000001
 10
6.924999999999999
 20
44.41500000000001
 10
6.924999999999999
 20
45.02500000000001
 10
-6.924999999999994
 20
45.02500000000001
 10
-6.924999999999994
 20
44.41500000000001
 10
-7.725
 20
44.41500000000001
  0
LWPOLYLINE
  5
5C
100
AcDbEntity
  8
0
  6
ByLayer
 62
  256
370
   -1
100
AcDbPolyline
 90
   12
 70
    1
 43
0
 10
88.32500000000003
 20
9.73500000000001
 10
88.32500000000003
 20
9.124999999999996
 10
102.175
 20
9.124999999999996
 10
102.175
 20
9.73500000000001
 10
102.975
 20
9.73500000000001
 10
102.975
 20
22.36500000000001
 10
102.175
 20
22.36500000000001
 10
102.175
 20
22.97499999999999
 10
88.32500000000003
 20
22.97499999999999
 10
88.32500000000003
 20
22.36500000000001
 10
87.52500000000001
 20
22.36500000000001
 10
87.52500000000001
 20
9.73500000000001
  0
LWPOLYLINE
  5
5D
100
AcDbEntity
  8
0
  6
ByLayer
 62
  256
370
   -1
100
AcDbPolyline
 90
   12
 70
    1
 43
0
 10
68.47500000000002
 20
27.365
 10
68.47500000000002
 20
14.735
 10
69.27499999999999
 20
14.735
 10
69.27499999999999
 20
14.12500000000001
 10
83.125
 20
14.12500000000001
 10
83.125
 20
14.735
 10
83.92500000000001
 20
14.735
 10
83.92500000000001
 20
27.365
 10
83.125
 20
27.365
 10
83.125
 20
27.97500000000002
 10
69.27499999999999
 20
27.97500000000002
 10
69.27499999999999
 20
27.365
  0
LWPOLYLINE
  5
5E
100
AcDbEntity
  8
0
  6
ByLayer
 62
  256
370
   -1
100
AcDbPolyline
 90
   12
 70
    1
 43
0
 10
49.425
 20
33.36500000000002
 10
49.425
 20
20.73500000000002
 10
50.22500000000002
 20
20.73500000000002
 10
50.22500000000002
 20
20.125
 10
64.075
 20
20.125
 10
64.075
 20
20.73500000000002
 10
64.875
 20
20.73500000000002
 10
64.875
 20
33.36500000000002
 10
64.075
 20
33.36500000000002
 10
64.075
 20
33.975
 10
50.22500000000002
 20
33.975
 10
50.22500000000002
 20
33.36500000000002
  0
LWPOLYLINE
  5
5F
100
AcDbEntity
  8
0
  6
ByLayer
 62
  256
370
   -1
100
AcDbPolyline
 90
   12
 70
    1
 43
0
 10
12.125
 20
12.735
 10
12.125
 20
12.125
 10
25.975
 20
12.125
 10
25.975
 20
12.735
 10
26.775
 20
12.735
 10
26.775
 20
25.365
 10
25.975
 20
25.365
 10
25.975
 20
25.975
 10
12.125
 20
25.975
 10
12.125
 20
25.365
 10
11.325
 20
25.365
 10
11.325
 20
12.735
  0
LWPOLYLINE
  5
60
100
AcDbEntity
  8
0
  6
ByLayer
 62
  256
370
   -1
100
AcDbPolyline
 90
   12
 70
    1
 43
0
 10
64.875
 20
1.685000000000016
 10
64.875
 20
14.31500000000002
 10
64.075
 20
14.31500000000002
 10
64.075
 20
14.925
 10
50.22500000000002
 20
14.925
 10
50.22500000000002
 20
14.31500000000002
 10
49.425
 20
14.31500000000002
 10
49.425
 20
1.685000000000016
 10
50.22500000000002
 20
1.685000000000016
 10
50.22500000000002
 20
1.074999999999999
 10
64.075
 20
1.074999999999999
 10
64.075
 20
1.685000000000016
  0
LWPOLYLINE
  5
61
100
AcDbEntity
  8
0
  6
ByLayer
 62
  256
370
   -1
100
AcDbPolyline
 90
   12
 70
    1
 43
0
 10
121.225
 20
11.925
 10
120.615
 20
11.925
 10
120.615
 20
12.725
 10
107.985
 20
12.725
 10
107.985
 20
11.925
 10
107.375
 20
11.925
 10
107.375
 20
-1.924999999999999
 10
107.985
 20
-1.924999999999999
 10
107.985
 20
-2.725
 10
120.6150000000001
 20
-2.725000000000017
 10
120.6150000000001
 20
-1.924999999999999
 10
121.225
 20
-1.924999999999999
  0
LWPOLYLINE
  5
62
100
AcDbEntity
  8
0
  6
ByLayer
 62
  256
370
   -1
100
AcDbPolyline
 90
   12
 70
    1
 43
0
 10
31.175
 20
85.92500000000001
 10
31.175
 20
85.31500000000001
 10
30.37500000000001
 20
85.31500000000001
 10
30.37500000000001
 20
72.68500000000002
 10
31.175
 20
72.68500000000002
 10
31.175
 20
72.075
 10
45.02500000000001
 20
72.075
 10
45.02500000000001
 20
72.68500000000002
 10
45.825
 20
72.68500000000002
 10
45.825
 20
85.31500000000001
 10
45.02500000000001
 20
85.31500000000001
 10
45.02500000000001
 20
85.92500000000001
  0
LWPOLYLINE
  5
63
100
AcDbEntity
  8
0
  6
ByLayer
 62
  256
370
   -1
100
AcDbPolyline
 90
   12
 70
    1
 43
0
 10
11.325
 20
82.51500000000001
 10
11.325
 20
69.88500000000001
 10
12.125
 20
69.88500000000001
 10
12.125
 20
69.27500000000001
 10
25.975
 20
69.27500000000002
 10
25.975
 20
69.88500000000001
 10
26.775
 20
69.88500000000001
 10
26.775
 20
82.51500000000001
 10
25.975
 20
82.51500000000001
 10
25.975
 20
83.12500000000001
 10
12.125
 20
83.12500000000001
 10
12.125
 20
82.51500000000001
  0
LINE
  5
64
100
AcDbEntity
  8
0
  6
ByLayer
 62
  256
370
   -1
100
AcDbLine
 10
-6.924999999999994
 20
83.125
 11
6.924999999999999
 21
83.125
  0
LINE
  5
65
100
AcDbEntity
  8
0
  6
ByLayer
 62
  256
370
   -1
100
AcDbLine
 10
6.924999999999999
 20
83.125
 11
6.924999999999999
 21
82.51500000000001
  0
LINE
  5
66
100
AcDbEntity
  8
0
  6
ByLayer
 62
  256
370
   -1
100
AcDbLine
 10
-7.725
 20
82.51500000000001
 11
-6.924999999999994
 21
82.51500000000001
  0
LINE
  5
67
100
AcDbEntity
  8
0
  6
ByLayer
 62
  256
370
   -1
100
AcDbLine
 10
7.725
 20
82.51500000000001
 11
7.725
 21
69.88500000000001
  0
LINE
  5
68
100
AcDbEntity
  8
0
  6
ByLayer
 62
  256
370
   -1
100
AcDbLine
 10
7.725
 20
69.88500000000001
 11
6.924999999999999
 21
69.88500000000001
  0
LINE
  5
69
100
AcDbEntity
  8
0
  6
ByLayer
 62
  256
370
   -1
100
AcDbLine
 10
6.924999999999999
 20
69.88500000000001
 11
6.924999999999999
 21
69.27500000000001
  0
LINE
  5
6A
100
AcDbEntity
  8
0
  6
ByLayer
 62
  256
370
   -1
100
AcDbLine
 10
6.924999999999999
 20
69.27500000000001
 11
-6.924999999999994
 21
69.27500000000001
  0
LINE
  5
6B
100
AcDbEntity
  8
0
  6
ByLayer
 62
  256
370
   -1
100
AcDbLine
 10
-6.924999999999994
 20
82.51500000000001
 11
-6.924999999999994
 21
83.125
  0
LINE
  5
6C
100
AcDbEntity
  8
0
  6
ByLayer
 62
  256
370
   -1
100
AcDbLine
 10
-6.924999999999994
 20
69.88500000000001
 11
-7.724999999999995
 21
69.88500000000001
  0
LINE
  5
6D
100
AcDbEntity
  8
0
  6
ByLayer
 62
  256
370
   -1
100
AcDbLine
 10
-7.724999999999995
 20
69.88500000000001
 11
-7.725
 21
82.51500000000001
  0
LWPOLYLINE
  5
6E
100
AcDbEntity
  8
0
  6
ByLayer
 62
  256
370
   -1
100
AcDbPolyline
 90
   12
 70
    1
 43
0
 10
102.975
 20
-9.314999999999989
 10
102.975
 20
3.31500000000001
 10
102.175
 20
3.31500000000001
 10
102.175
 20
3.924999999999992
 10
88.32500000000003
 20
3.924999999999992
 10
88.32500000000003
 20
3.31500000000001
 10
87.52500000000001
 20
3.31500000000001
 10
87.52500000000001
 20
-9.314999999999989
 10
88.32500000000003
 20
-9.314999999999989
 10
88.32500000000003
 20
-9.925000000000006
 10
102.175
 20
-9.925000000000006
 10
102.175
 20
-9.314999999999998
  0
LWPOLYLINE
  5
6F
100
AcDbEntity
  8
0
  6
ByLayer
 62
  256
370
   -1
100
AcDbPolyline
 90
   12
 70
    1
 43
0
 10
83.92500000000001
 20
-4.314999999999998
 10
83.92500000000001
 20
8.314999999999998
 10
83.125
 20
8.314999999999998
 10
83.125
 20
8.925000000000015
 10
69.27499999999999
 20
8.925000000000015
 10
69.27499999999999
 20
8.314999999999998
 10
68.47500000000002
 20
8.314999999999998
 10
68.47500000000002
 20
-4.314999999999998
 10
69.27499999999999
 20
-4.314999999999998
 10
69.27499999999999
 20
-4.924999999999988
 10
83.125
 20
-4.924999999999988
 10
83.125
 20
-4.314999999999998
  0
LWPOLYLINE
  5
70
100
AcDbEntity
  8
0
  6
ByLayer
 62
  256
370
   -1
100
AcDbPolyline
 90
   12
 70
    1
 43
0
 10
102.175
 20
80.125
 10
88.32500000000003
 20
80.125
 10
88.32500000000003
 20
79.51500000000001
 10
87.52500000000001
 20
79.51500000000001
 10
87.52500000000001
 20
66.88500000000002
 10
88.32500000000003
 20
66.88500000000002
 10
88.32500000000003
 20
66.27500000000001
 10
102.175
 20
66.27500000000001
 10
102.175
 20
66.88500000000002
 10
102.975
 20
66.88500000000002
 10
102.975
 20
79.51500000000001
 10
102.175
 20
79.51500000000001
  0
LWPOLYLINE
  5
71
100
AcDbEntity
  8
0
  6
ByLayer
 62
  256
370
   -1
100
AcDbPolyline
 90
   12
 70
    1
 43
0
 10
45.825
 20
-3.315000000000001
 10
45.825
 20
9.314999999999998
 10
45.02500000000001
 20
9.314999999999998
 10
45.02500000000001
 20
9.924999999999994
 10
31.175
 20
9.924999999999994
 10
31.175
 20
9.314999999999998
 10
30.37500000000001
 20
9.314999999999998
 10
30.37500000000001
 20
-3.315000000000001
 10
31.175
 20
-3.315000000000001
 10
31.175
 20
-3.92500000000001
 10
45.02500000000001
 20
-3.92500000000001
 10
45.02500000000001
 20
-3.315000000000001
  0
LWPOLYLINE
  5
72
100
AcDbEntity
  8
0
  6
ByLayer
 62
  256
370
   -1
100
AcDbPolyline
 90
   12
 70
    1
 43
0
 10
49.425
 20
90.51500000000001
 10
49.425
 20
77.88500000000002
 10
50.22500000000002
 20
77.88500000000002
 10
50.22500000000002
 20
77.27500000000001
 10
64.075
 20
77.27500000000001
 10
64.075
 20
77.88500000000002
 10
64.875
 20
77.88500000000002
 10
64.875
 20
90.51500000000001
 10
64.075
 20
90.51500000000001
 10
64.075
 20
91.125
 10
50.22500000000002
 20
91.125
 10
50.22500000000002
 20
90.51500000000001
  0
LWPOLYLINE
  5
73
100
AcDbEntity
  8
0
  6
ByLayer
 62
  256
370
   -1
100
AcDbPolyline
 90
   12
 70
    1
 43
0
 10
-7.724999999999995
 20
50.83500000000001
 10
-6.924999999999994
 20
50.83500000000001
 10
-6.924999999999994
 20
50.22500000000001
 10
6.924999999999999
 20
50.22500000000001
 10
6.924999999999999
 20
50.83500000000001
 10
7.725
 20
50.83500000000001
 10
7.725
 20
63.465
 10
6.924999999999999
 20
63.465
 10
6.924999999999999
 20
64.07500000000002
 10
-6.924999999999994
 20
64.07500000000002
 10
-6.924999999999994
 20
63.465
 10
-7.725
 20
63.465
  0
LWPOLYLINE
  5
74
100
AcDbEntity
  8
0
  6
ByLayer
 62
  256
370
   -1
100
AcDbPolyline
 90
   12
 70
    1
 43
0
 10
68.47500000000002
 20
84.51500000000001
 10
68.47500000000002
 20
71.88500000000002
 10
69.27499999999999
 20
71.88500000000002
 10
69.27499999999999
 20
71.27500000000002
 10
83.125
 20
71.27500000000002
 10
83.125
 20
71.88500000000002
 10
83.92500000000001
 20
71.88500000000002
 10
83.92500000000001
 20
84.51500000000001
 10
83.125
 20
84.51500000000001
 10
83.125
 20
85.12500000000003
 10
69.27499999999999
 20
85.12500000000003
 10
69.27499999999999
 20
84.51500000000001
  0
CIRCLE
  5
75
100
AcDbEntity
  8
0
  6
ByLayer
 62
  256
370
   -1
100
AcDbCircle
 10
47.625
 20
50.5
 40
1.250000000000009
  0
CIRCLE
  5
76
100
AcDbEntity
  8
0
  6
ByLayer
 62
  256
370
   -1
100
AcDbCircle
 10
121.225
 20
-4.774655033041459
 40
1.25
  0
CIRCLE
  5
77
100
AcDbEntity
  8
0
  6
ByLayer
 62
  256
370
   -1
100
AcDbCircle
 10
-9.174790539122789
 20
84.54476740190991
 40
1.250000000000001
  0
CIRCLE
  5
78
100
AcDbEntity
  8
0
  6
ByLayer
 62
  256
370
   -1
100
AcDbCircle
 10
104.1460619941352
 20
81.54139208173559
 40
1.25
  0
CIRCLE
  5
79
100
AcDbEntity
  8
0
  6
ByLayer
 62
  256
370
   -1
100
AcDbCircle
 10
-9.18506590828159
 20
-8.585475909276077
 40
1.250000000000001
  0
LWPOLYLINE
  5
7A
100
AcDbEntity
  8
0
  6
ByLayer
 62
  256
370
   -1
100
AcDbPolyline
 90
   50
 70
    1
 43
0
 10
85.21419896168915
 20
89.64148891914404
 10
89.85083673879758
 20
85.18318336423206
 42
0.1938220298883506
 10
90.54394545504927
 20
84.90401642913395
 10
101.7134317419389
 20
84.90401642914264
 42
-0.4486707825664934
 10
107.7680372132502
 20
79.5150091076184
 10
107.7680372132521
 20
66.88625074060978
 42
-0.218916413823738
 10
106.7206482582826
 20
64.60868403317244
 42
0.2189164138237088
 10
104.975
 20
60.81273952077757
 10
104.975
 20
16.725
 10
124.1809560371746
 20
16.72500000000002
 42
-0.4142135623730969
 10
126.1809560371747
 20
14.72500000000001
 10
126.1809560371746
 20
-5.618866668677267
 42
-0.3988188875442884
 10
124.2865974076326
 20
-7.616074695110107
 42
-0.01321208817339927
 10
123.9749913506744
 20
-7.624310066068992
 10
110.7002870260248
 20
-7.62431006613621
 42
0.226728267385718
 10
109.9220614354553
 20
-7.996325249297673
 10
104.6552954754576
 20
-14.52312643896789
 42
-0.226728267385713
 10
103.877069884885
 20
-14.89514162213081
 10
86.52865556783658
 20
-14.89514162213083
 42
-0.1938220298883338
 10
85.83554685158478
 20
-14.61597468703267
 10
80.92682055191108
 20
-9.896045552731074
 10
67.27839307667112
 20
-9.89604555273108
 42
-0.2175124998528074
 10
66.52270399388134
 20
-9.550976091148939
 10
61.95135511792429
 20
-4.27634277273701
 42
0.217512499852805
 10
61.19566603513447
 20
-3.931273311154851
 10
52.54660773772676
 20
-3.931273311154838
 42
0.1938220298883225
 10
51.853499021475
 20
-4.210440246252974
 10
47.25247421311057
 20
-8.634502561987931
 42
-0.193822029888325
 10
46.55936549685883
 20
-8.913669497086065
 10
32.67050601872828
 20
-8.913669497086069
 42
0.1315709965249146
 10
32.17078356523871
 20
-9.047483911037464
 10
27.67606636815986
 20
-11.64058998627526
 42
-0.1315709965249189
 10
26.9264826879255
 20
-11.84131160720235
 10
-6.729596218141413
 20
-11.8413116072043
 42
-0.4335494420972793
 10
-12.63064813162055
 20
-6.31499842978151
 10
-12.63064813159058
 20
82.4133568863133
 42
-0.4081718417336724
 10
-6.924988237615288
 20
88.00227358981459
 10
24.53357163768474
 20
88.00227358981461
 42
0.1241168551466972
 10
25.00767146071988
 20
88.12180248989247
 10
29.79631219291655
 20
90.70030134569063
 42
-0.124116855146662
 10
30.27041201595157
 20
90.81983024576844
 10
41.95914696815191
 20
90.81983024576844
 42
0.1989123673796591
 10
43.16122849616898
 20
91.31774871775129
 10
47.53278471368776
 20
95.68930493527006
 42
-0.1989123673796586
 10
48.23989149487427
 20
95.98219815408349
 10
65.37315180630411
 20
95.98219815408351
 42
-0.2175124998528028
 10
66.65782324704671
 20
95.39558006939387
 10
71.10369736680704
 20
90.2657253158243
 42
0.2175124998528009
 10
71.85938644959683
 20
89.92065585424214
 10
84.52109024543742
 20
89.92065585424216
 42
-0.193822029888333
  0
CIRCLE
  5
7B
100
AcDbEntity
  8
0
  6
ByLayer
 62
  256
370
   -1
100
AcDbCircle
 10
56.80710203426683
 20
93.55153895404126
 40
1.250000000000005
  0
CIRCLE
  5
7C
100
AcDbEntity
  8
0
  6
ByLayer
 62
  256
370
   -1
100
AcDbCircle
 10
56.87110887884705
 20
-1.428143636587997
 40
1.249999999999998
  0
CIRCLE
  5
7D
100
AcDbEntity
  8
0
  6
ByLayer
 62
  256
370
   -1
100
AcDbCircle
 10
-10.17782484230077
 20
38.04917957895625
 40
1.25
  0
LINE
  5
7E
100
AcDbEntity
  8
0
  6
ByLayer
 62
  256
370
   -1
100
AcDbLine
 10
-6.924999999999994
 20
69.27500000000001
 11
-6.924999999999994
 21
69.88500000000001
  0
LINE
  5
7F
100
AcDbEntity
  8
0
  6
ByLayer
 62
  256
370
   -1
100
AcDbLine
 10
6.924999999999999
 20
82.51500000000001
 11
7.725
 21
82.51500000000001
  0
ENDSEC
  0
SECTION
  2
OBJECTS
  0
DICTIONARY
  5
C
330
0
100
AcDbDictionary
281
    1
  3
ACAD_GROUP
350
D
  0
DICTIONARY
  5
D
330
C
100
AcDbDictionary
281
    1
  0
ENDSEC
  0
EOF
